<svg xmlns="http://www.w3.org/2000/svg" viewBox="0 0 111.2 117.5"><defs><style>.cls-1{fill:#3b9244;}.cls-2{fill:#edc123;}.cls-3{fill:#31296c;}.cls-4{fill:#f8f7f7;}.cls-5{fill:#ededed;}.cls-6{fill:#b7b7b7;}</style></defs><title>brasil</title><g id="Layer_2" data-name="Layer 2"><g id="Layer_1-2" data-name="Layer 1"><rect class="cls-1" x="11.17" y="1.42" width="91.25" height="59.23"/><polygon class="cls-2" points="56.8 9.96 23.72 30.42 56.8 50.88 89.88 30.42 56.8 9.96"/><path class="cls-3" d="M70,30.42a11.9,11.9,0,0,1-.11,1.65,13.23,13.23,0,1,1-25.52-6.31,12.81,12.81,0,0,1,.86-1.84A13.23,13.23,0,0,1,70,30.13C70,30.22,70,30.33,70,30.42Z"/><path class="cls-4" d="M70,30.42a11.9,11.9,0,0,1-.11,1.65,37,37,0,0,0-21.09-6.57,37.84,37.84,0,0,0-4.43.26,12.81,12.81,0,0,1,.86-1.84,37.61,37.61,0,0,1,3.89-.2A37,37,0,0,1,70,30.13C70,30.22,70,30.33,70,30.42Z"/><path class="cls-1" d="M47.36,24.65a.64.64,0,0,1-.65.65.56.56,0,0,1-.64-.56.64.64,0,0,1,.65-.66A.55.55,0,0,1,47.36,24.65Zm-1,.07c0,.23.13.38.33.37s.32-.19.32-.42-.11-.39-.32-.38S46.39,24.49,46.39,24.71Z"/><path class="cls-1" d="M47.9,24.07a2.76,2.76,0,0,1,.41,0,.73.73,0,0,1,.43.09.27.27,0,0,1,.11.25.34.34,0,0,1-.25.29h0a.28.28,0,0,1,.17.22,3.17,3.17,0,0,0,.09.33h-.3a1.25,1.25,0,0,1-.08-.27c0-.15-.09-.19-.21-.19h-.09c0,.15,0,.31,0,.46h-.29Q47.89,24.65,47.9,24.07Zm.29.5h.12c.15,0,.24-.07.25-.17s-.08-.16-.22-.16H48.2C48.2,24.35,48.19,24.46,48.19,24.57Z"/><path class="cls-1" d="M49.41,24.06a2.84,2.84,0,0,1,.41,0,.9.9,0,0,1,.54.14.47.47,0,0,1,.18.45.61.61,0,0,1-.25.47,1.07,1.07,0,0,1-.61.14l-.33,0Q49.37,24.64,49.41,24.06Zm.24,1h.1a.41.41,0,0,0,.47-.4c0-.24-.13-.38-.39-.39H49.7Q49.67,24.64,49.65,25Z"/><path class="cls-1" d="M51.8,24.83l-.48,0,0,.28.53,0,0,.22L51,25.27q.05-.59.11-1.17l.82.05,0,.22-.51,0,0,.24.48,0Z"/><path class="cls-1" d="M53.46,25c0-.14,0-.31.07-.48h0c-.06.14-.14.3-.22.43l-.22.44-.22,0-.08-.47c0-.14,0-.31-.05-.47h0l-.09.48-.08.44-.27,0q.11-.58.23-1.16l.4,0,.07.4c0,.14,0,.29,0,.43h0c.05-.13.12-.28.18-.4l.2-.37.39,0q-.07.58-.13,1.17l-.28,0Z"/><path class="cls-1" d="M55.56,25.29l-.46-.08-.05.27.51.09,0,.21-.79-.13c.07-.39.14-.77.22-1.16l.8.13,0,.21-.5-.09,0,.24.47.08Z"/><path class="cls-1" d="M56.68,24.82a2.54,2.54,0,0,1,.39.06.64.64,0,0,1,.36.18.32.32,0,0,1,.06.29.38.38,0,0,1-.19.24.65.65,0,0,1-.43,0l-.09,0-.1.41-.27-.06Q56.55,25.38,56.68,24.82Zm.16.58.09,0c.15,0,.26,0,.29-.13s0-.19-.18-.22l-.12,0Z"/><path class="cls-1" d="M58,25.14a2.72,2.72,0,0,1,.38.07.67.67,0,0,1,.38.19.27.27,0,0,1,0,.27.33.33,0,0,1-.3.22h0a.29.29,0,0,1,.1.25c0,.14,0,.29,0,.34l-.28-.07a1.42,1.42,0,0,1,0-.29c0-.15,0-.2-.15-.23l-.08,0-.12.45-.27-.07Q57.88,25.7,58,25.14Zm.14.56.11,0c.14,0,.24,0,.27-.11s0-.18-.16-.21l-.13,0Z"/><path class="cls-1" d="M60.36,26.36a.6.6,0,0,1-.78.41A.55.55,0,0,1,59.2,26a.61.61,0,0,1,.78-.42A.54.54,0,0,1,60.36,26.36Zm-.87-.25c-.07.22,0,.41.17.46s.34-.08.41-.29,0-.4-.17-.46S59.56,25.9,59.49,26.11Z"/><path class="cls-1" d="M61.65,27.38a1.47,1.47,0,0,1-.41-.07.72.72,0,0,1-.42-.31.55.55,0,0,1,0-.46.65.65,0,0,1,.9-.35.91.91,0,0,1,.31.17l-.13.18a.7.7,0,0,0-.26-.15.38.38,0,0,0-.53.22.36.36,0,0,0,.24.49l.13,0,.09-.23-.18-.06.07-.19.44.16Z"/><path class="cls-1" d="M62.52,26.53a2.47,2.47,0,0,1,.37.11.65.65,0,0,1,.34.24.28.28,0,0,1,0,.27.33.33,0,0,1-.32.18h0a.29.29,0,0,1,.07.27c0,.14,0,.29,0,.34l-.26-.11a1.47,1.47,0,0,1,0-.28c0-.15,0-.2-.11-.25l-.08,0-.17.43-.26-.1Zm.07.57.1,0c.13.05.23,0,.27-.07s0-.18-.13-.23l-.12,0Z"/><path class="cls-1" d="M64.21,27.93l-.42-.18-.11.25.46.2-.09.2-.71-.31L63.81,27l.71.31-.09.2-.45-.2-.1.22.42.18Z"/><path class="cls-1" d="M64.56,28.33a.74.74,0,0,0,.25.19c.11.05.2,0,.23,0s0-.13-.11-.24-.23-.3-.16-.45.32-.24.59-.12a.79.79,0,0,1,.26.19l-.15.16a.6.6,0,0,0-.21-.16c-.11-.05-.19,0-.21,0s0,.13.13.25.2.3.13.45-.3.26-.6.11a.83.83,0,0,1-.28-.21Z"/><path class="cls-1" d="M65.66,28.86a.72.72,0,0,0,.24.2c.11.06.19,0,.23,0s0-.13-.1-.24-.22-.31-.14-.46.32-.23.59-.1a.77.77,0,0,1,.25.2l-.16.16a.58.58,0,0,0-.2-.17c-.11-.06-.18,0-.21,0s0,.13.13.25.19.31.11.45-.31.25-.6.1a.82.82,0,0,1-.27-.22Z"/><path class="cls-1" d="M67.9,29.71a.58.58,0,0,1-.83.23.55.55,0,0,1-.2-.79.59.59,0,0,1,.83-.24A.54.54,0,0,1,67.9,29.71Zm-.77-.42c-.11.2-.1.39.06.48s.34,0,.46-.2.11-.39-.06-.48S67.24,29.09,67.13,29.29Z"/><polygon class="cls-4" points="61.22 24.34 61.38 24.68 61.76 24.73 61.49 24.99 61.55 25.37 61.22 25.19 60.88 25.37 60.95 24.99 60.67 24.73 61.05 24.68 61.22 24.34"/><polygon class="cls-4" points="60.54 27.96 60.71 28.3 61.08 28.35 60.81 28.61 60.87 28.99 60.54 28.81 60.2 28.99 60.27 28.61 60 28.35 60.37 28.3 60.54 27.96"/><polygon class="cls-4" points="45.9 26.09 46.07 26.43 46.44 26.49 46.17 26.75 46.23 27.12 45.9 26.95 45.56 27.12 45.63 26.75 45.36 26.49 45.73 26.43 45.9 26.09"/><polygon class="cls-4" points="51.33 28.42 51.49 28.76 51.87 28.81 51.6 29.08 51.66 29.45 51.33 29.27 50.99 29.45 51.05 29.08 50.78 28.81 51.16 28.76 51.33 28.42"/><polygon class="cls-4" points="47 31.09 47.17 31.43 47.54 31.49 47.27 31.75 47.34 32.13 47 31.95 46.66 32.13 46.73 31.75 46.46 31.49 46.83 31.43 47 31.09"/><polygon class="cls-4" points="45.63 32.91 45.79 33.24 46.17 33.3 45.9 33.56 45.96 33.94 45.63 33.76 45.29 33.94 45.35 33.56 45.08 33.3 45.46 33.24 45.63 32.91"/><polygon class="cls-4" points="48.29 31.01 48.45 31.35 48.83 31.4 48.56 31.67 48.62 32.04 48.29 31.87 47.95 32.04 48.02 31.67 47.74 31.4 48.12 31.35 48.29 31.01"/><polygon class="cls-4" points="49.95 32.73 50.12 33.07 50.5 33.12 50.23 33.39 50.29 33.76 49.95 33.59 49.62 33.76 49.68 33.39 49.41 33.12 49.79 33.07 49.95 32.73"/><polygon class="cls-4" points="49.61 34.89 49.78 35.23 50.15 35.29 49.88 35.55 49.94 35.92 49.61 35.75 49.27 35.92 49.34 35.55 49.07 35.29 49.44 35.23 49.61 34.89"/><polygon class="cls-4" points="51.11 36.13 51.28 36.47 51.66 36.53 51.39 36.79 51.45 37.16 51.11 36.99 50.78 37.16 50.84 36.79 50.57 36.53 50.95 36.47 51.11 36.13"/><polygon class="cls-4" points="56.6 34.9 56.77 35.24 57.14 35.3 56.87 35.56 56.94 35.93 56.6 35.76 56.27 35.93 56.33 35.56 56.06 35.3 56.43 35.24 56.6 34.9"/><polygon class="cls-4" points="56.12 32.97 56.22 33.16 56.43 33.2 56.27 33.35 56.31 33.56 56.12 33.46 55.92 33.56 55.96 33.35 55.8 33.2 56.02 33.16 56.12 32.97"/><polygon class="cls-4" points="55.16 32.67 55.26 32.88 55.48 32.91 55.32 33.06 55.36 33.28 55.16 33.18 54.96 33.28 55 33.06 54.84 32.91 55.06 32.88 55.16 32.67"/><polygon class="cls-4" points="56.65 31.28 56.78 31.53 57.05 31.57 56.85 31.76 56.9 32.03 56.65 31.91 56.41 32.03 56.45 31.76 56.26 31.57 56.53 31.53 56.65 31.28"/><polygon class="cls-4" points="58.52 32.33 58.66 32.61 58.97 32.65 58.75 32.87 58.8 33.18 58.52 33.04 58.24 33.18 58.3 32.87 58.07 32.65 58.38 32.61 58.52 32.33"/><polygon class="cls-4" points="59.78 36.15 59.88 36.36 60.1 36.39 59.94 36.55 59.98 36.77 59.78 36.66 59.58 36.77 59.61 36.55 59.45 36.39 59.68 36.36 59.78 36.15"/><polygon class="cls-4" points="56.7 39.48 56.76 39.59 56.88 39.61 56.79 39.69 56.81 39.81 56.7 39.76 56.6 39.81 56.62 39.69 56.53 39.61 56.65 39.59 56.7 39.48"/><polygon class="cls-4" points="60.71 38.56 60.83 38.79 61.08 38.83 60.9 39.01 60.94 39.27 60.71 39.14 60.48 39.27 60.53 39.01 60.34 38.83 60.6 38.79 60.71 38.56"/><polygon class="cls-4" points="61.94 36.78 62.02 36.96 62.22 36.98 62.08 37.12 62.11 37.31 61.94 37.22 61.77 37.31 61.8 37.12 61.66 36.98 61.85 36.96 61.94 36.78"/><polygon class="cls-4" points="63.67 34.87 63.76 35.05 63.96 35.08 63.81 35.22 63.85 35.42 63.67 35.32 63.49 35.42 63.53 35.22 63.38 35.08 63.58 35.05 63.67 34.87"/><polygon class="cls-4" points="63.47 37.54 63.6 37.8 63.88 37.84 63.67 38.03 63.72 38.31 63.47 38.18 63.23 38.31 63.27 38.03 63.07 37.84 63.35 37.8 63.47 37.54"/><polygon class="cls-4" points="63.46 38.91 63.56 39.12 63.79 39.15 63.62 39.31 63.66 39.54 63.46 39.43 63.25 39.54 63.29 39.31 63.13 39.15 63.36 39.12 63.46 38.91"/><polygon class="cls-4" points="64.7 36.59 64.79 36.77 64.99 36.8 64.85 36.94 64.88 37.13 64.7 37.04 64.53 37.13 64.56 36.94 64.42 36.8 64.62 36.77 64.7 36.59"/><polygon class="cls-4" points="65.91 35.72 66.04 35.98 66.33 36.02 66.12 36.23 66.17 36.52 65.91 36.38 65.66 36.52 65.7 36.23 65.5 36.02 65.78 35.98 65.91 35.72"/><polygon class="cls-4" points="66.92 34.89 67.03 35.13 67.29 35.16 67.1 35.34 67.15 35.6 66.92 35.48 66.69 35.6 66.73 35.34 66.54 35.16 66.8 35.13 66.92 34.89"/><polygon class="cls-4" points="66.58 33.28 66.75 33.62 67.12 33.67 66.85 33.94 66.92 34.31 66.58 34.13 66.25 34.31 66.31 33.94 66.04 33.67 66.41 33.62 66.58 33.28"/><polygon class="cls-4" points="68.16 33.74 68.27 33.96 68.51 34 68.34 34.17 68.38 34.41 68.16 34.29 67.95 34.41 67.99 34.17 67.81 34 68.06 33.96 68.16 33.74"/><ellipse class="cls-5" cx="55.6" cy="113.29" rx="55.6" ry="4.21"/><rect class="cls-6" x="8.36" width="3.32" height="113.52" rx="1.66" ry="1.66"/></g></g></svg>
