<svg xmlns="http://www.w3.org/2000/svg" xmlns:xlink="http://www.w3.org/1999/xlink" viewBox="0 0 217.13 213.63"><defs><style>.cls-1{fill:none;}.cls-2{clip-path:url(#clip-path);}.cls-3{fill:#5d393e;}.cls-4{fill:#bd6867;}.cls-5{fill:#1d1d1b;}.cls-6{fill:#ededed;}.cls-7{fill:#fff;}</style><clipPath id="clip-path" transform="translate(0 0)"><rect class="cls-1" width="217.13" height="213.63"/></clipPath></defs><title>consulta-conducta</title><g id="Layer_2" data-name="Layer 2"><g id="Layer_1-2" data-name="Layer 1"><g class="cls-2"><path class="cls-3" d="M6,103.14C-14.37,65.47,21.07,33.23,53.14,49.37s49.27,41.1,78.48,27.52,51.1-24.51,67.69,4.33c16.7,29-2.47,69.85-36.88,86.47S52.16,188.47,6,103.14" transform="translate(0 0)"/><path class="cls-4" d="M27.88,20.51,14.47,33.77a34.28,34.28,0,0,0-2.21,4.56l20.22-20a35.23,35.23,0,0,0-4.6,2.19" transform="translate(0 0)"/><path class="cls-4" d="M39,16.45,10.34,44.8c-.18.92-.33,1.86-.45,2.81L41.81,16c-1,.1-1.89.24-2.81.41" transform="translate(0 0)"/><path class="cls-4" d="M46.63,15.84l-37,36.61c0,.75,0,1.51.08,2.28L48.89,16c-.75-.07-1.51-.11-2.26-.13" transform="translate(0 0)"/><path class="cls-4" d="M52.94,16.54,10.19,58.84c.11.65.23,1.32.38,2L54.89,17c-.65-.16-1.3-.31-2-.44" transform="translate(0 0)"/><path class="cls-4" d="M58.43,18.05,11.5,64.47c.18.6.38,1.2.58,1.8L60.16,18.71c-.58-.24-1.15-.45-1.73-.66" transform="translate(0 0)"/><path class="cls-4" d="M63.33,20.15l-50,49.44c.23.54.48,1.09.73,1.64L64.9,21c-.52-.27-1-.54-1.57-.8" transform="translate(0 0)"/><path class="cls-4" d="M67.91,22.56,15.61,74.29c0,.06.05.11.08.16l.76,1.38,53-52.42-1.53-.85" transform="translate(0 0)"/><path class="cls-4" d="M72.36,25.1,18.1,78.77,19,80.28,73.85,26l-1.49-.89" transform="translate(0 0)"/><path class="cls-4" d="M76.7,27.75l-56,55.4.9,1.48,56.57-56-1.46-.92" transform="translate(0 0)"/><path class="cls-4" d="M81,30.47l-57.59,57c.32.48.63,1,.94,1.44L82.4,31.42l-1.44-1" transform="translate(0 0)"/><path class="cls-4" d="M85.16,33.25l-59,58.37,1,1.41L86.59,34.21l-1.43-1" transform="translate(0 0)"/><path class="cls-4" d="M89.35,36.06,29.05,95.7c.34.46.67.92,1,1.37L90.77,37l-1.42-.95" transform="translate(0 0)"/><path class="cls-4" d="M93.54,38.85,32.05,99.68,33.1,101,95,39.8l-1.44-.95" transform="translate(0 0)"/><path class="cls-4" d="M97.79,41.59l-62.63,62,1.08,1.29,63-62.34-1.46-.91" transform="translate(0 0)"/><path class="cls-4" d="M102.14,44.23,38.38,107.3c.37.43.74.84,1.12,1.26l64.16-63.47-1.52-.86" transform="translate(0 0)"/><path class="cls-4" d="M106.68,46.68l-65,64.26c.38.41.77.82,1.16,1.22l65.4-64.7c-.54-.25-1.07-.51-1.6-.78" transform="translate(0 0)"/><path class="cls-4" d="M111.49,48.86l-66.32,65.6,1.21,1.18,66.84-66.13c-.58-.2-1.15-.42-1.73-.65" transform="translate(0 0)"/><path class="cls-4" d="M116.74,50.61l-68,67.25L50,119l68.65-67.92c-.64-.13-1.29-.29-1.92-.46" transform="translate(0 0)"/><path class="cls-4" d="M122.65,51.7,52.47,121.13l1.29,1.09,71.13-70.37c-.75,0-1.5-.08-2.24-.15" transform="translate(0 0)"/><path class="cls-4" d="M129.7,51.67l-73.39,72.6,1.35,1,74.86-74.06q-1.43.27-2.82.42" transform="translate(0 0)"/><path class="cls-4" d="M142.58,47.93c-1.22.57-2.42,1.06-3.6,1.5L60.3,127.27l1.39,1,81.47-80.6-.58.27" transform="translate(0 0)"/><path class="cls-4" d="M151.85,43.64,64.43,130.12l1.44.94,90.34-89.37c-1.43.63-2.89,1.28-4.36,2" transform="translate(0 0)"/><path class="cls-4" d="M164.13,38.43l-95.42,94.4,1.5.88,97.68-96.63c-1.24.42-2.49.87-3.76,1.35" transform="translate(0 0)"/><path class="cls-4" d="M174.43,35.19,73.16,135.37l1.55.83L177.45,34.57c-1,.17-2,.38-3,.62" transform="translate(0 0)"/><path class="cls-4" d="M182.66,34,77.77,137.75l1.61.77L185.06,34c-.79,0-1.59,0-2.4,0" transform="translate(0 0)"/><path class="cls-4" d="M189.24,34.41,82.56,140l1.67.7,107-105.81c-.64-.17-1.29-.32-1.95-.44" transform="translate(0 0)"/><path class="cls-4" d="M194.63,36,87.54,142l1.74.64,107-105.81c-.53-.28-1.07-.53-1.61-.77" transform="translate(0 0)"/><path class="cls-4" d="M199.12,38.53,92.72,143.79l1.81.57,106-104.82c-.45-.35-.9-.69-1.36-1" transform="translate(0 0)"/><path class="cls-4" d="M202.94,41.69,98.12,145.39l1.89.49,104.11-103c-.39-.42-.78-.82-1.18-1.2" transform="translate(0 0)"/><path class="cls-4" d="M206.26,45.35,103.75,146.76l2,.41L207.29,46.69c-.34-.46-.68-.91-1-1.34" transform="translate(0 0)"/><path class="cls-4" d="M209.17,49.41l-99.53,98.46,2.07.32,98.38-97.33c-.3-.5-.61-1-.92-1.45" transform="translate(0 0)"/><path class="cls-4" d="M211.76,53.79,115.82,148.7c.73.08,1.45.15,2.18.21l94.56-93.54c-.26-.53-.52-1.06-.8-1.58" transform="translate(0 0)"/><path class="cls-4" d="M213.94,58.57l-91.62,90.64,2.3.09,89.95-89c-.19-.58-.41-1.16-.63-1.74" transform="translate(0 0)"/><path class="cls-4" d="M215.63,63.84,129.2,149.35c.81,0,1.62,0,2.43,0l84.45-83.54c-.14-.65-.29-1.29-.45-1.93" transform="translate(0 0)"/><path class="cls-4" d="M216.74,69.69l-80.23,79.37c.87-.06,1.74-.14,2.61-.22l77.84-77c-.06-.72-.13-1.44-.22-2.15" transform="translate(0 0)"/><path class="cls-4" d="M217.13,76.24l-72.76,72c.95-.14,1.89-.28,2.83-.44l69.87-69.12q.06-1.22.06-2.43" transform="translate(0 0)"/><path class="cls-4" d="M216.59,83.72l-63.64,63c1.06-.24,2.11-.49,3.14-.75l60-59.38c.18-1,.34-1.89.47-2.83" transform="translate(0 0)"/><path class="cls-4" d="M214.66,92.57l-52,51.49c1.26-.41,2.49-.84,3.68-1.28l47.24-46.72c.41-1.16.79-2.32,1.13-3.49" transform="translate(0 0)"/><path class="cls-4" d="M207.21,109.25q1.56-2.58,2.9-5.24l-35.63,35.25q2.73-1.37,5.33-2.91Z" transform="translate(0 0)"/><path class="cls-4" d="M144.71,32.36A38.8,38.8,0,0,0,118.8,2.1c-.8-.27-1.62-.52-2.44-.74C97.46-3.71,74.7,5.1,65.53,32.57,55.35,63.08,49.92,71.71,24.85,95.14l-.83.79-1.65,1.59C-.36,120-6,143.89,15.68,157.93c9.84,6.39,20.21,7.95,31.08,7.64.59,0,1.19,0,1.78-.06,24.62-1.13,51.79-11,81.26,4.15,20.11,10.31,44.53,4.64,61.56-8.36.6-.45,1.19-.92,1.77-1.39,17.28-14.14,26-36,12.83-55.63-24-35.67-50.49-13.63-61.25-71.92" transform="translate(0 0)"/><path class="cls-5" d="M128.69,18.65a1.93,1.93,0,1,1-1.92-1.93,1.93,1.93,0,0,1,1.92,1.93" transform="translate(0 0)"/><path class="cls-5" d="M114.79,19.36A3.61,3.61,0,1,0,118.4,23a3.61,3.61,0,0,0-3.61-3.62m0,8.74A5.13,5.13,0,1,1,119.92,23a5.14,5.14,0,0,1-5.16,5.11" transform="translate(0 0)"/><path class="cls-5" d="M12.63,71.24a2.47,2.47,0,1,0,2.47,2.47,2.47,2.47,0,0,0-2.47-2.47m0,6.45a4,4,0,1,1,4-4,4,4,0,0,1-4,4" transform="translate(0 0)"/><path class="cls-5" d="M80.23,183.76a.76.76,0,0,1-.76-.76l0-11.66a.77.77,0,0,1,.77-.76.77.77,0,0,1,.76.76L81,183a.77.77,0,0,1-.77.75" transform="translate(0 0)"/><path class="cls-5" d="M86.11,178l-11.71,0a.76.76,0,0,1-.76-.76.77.77,0,0,1,.77-.76l11.7,0a.77.77,0,0,1,.76.77.76.76,0,0,1-.76.75" transform="translate(0 0)"/><path class="cls-5" d="M195.23,104.24a.76.76,0,0,1-.76-.76l0-7.88a.74.74,0,0,1,.76-.75.76.76,0,0,1,.76.76l0,7.88a.75.75,0,0,1-.76.75" transform="translate(0 0)"/><path class="cls-5" d="M199.2,100.32l-7.91,0a.76.76,0,1,1,0-1.52l7.91,0a.76.76,0,1,1,0,1.52" transform="translate(0 0)"/><path class="cls-3" d="M183.33,61c1.68,1.9,9.54,1.09,11.16,7.48.82,3.18,5.72,1.58,5.25-1.41-1-6.19-2.89-8.76-6.71-9.24-5.46-.68-11.31,1.35-9.7,3.17" transform="translate(0 0)"/><path class="cls-4" d="M38.14,33.3c-3.49-6-6.26-14.11-3.15-16.46,1.85-1.4,3.78-.41,5.39,2.05,2.09,3.19,1.65,7.33,1.41,9.88-.27,2.84-1.34,8.47-3.65,4.53" transform="translate(0 0)"/><path class="cls-4" d="M205.18,78.9c-1.57-2.18.8-6.21,3-7a4.2,4.2,0,0,1,5.53,2.73,3.82,3.82,0,0,1-2.49,4.86c-1.5.56-5.18.65-6-.55" transform="translate(0 0)"/><path class="cls-4" d="M56.7,170.84c1.41,1.07.76,4-.43,4.87a2.75,2.75,0,0,1-4-.68,2.41,2.41,0,0,1,.55-3.44c.81-.61,3.06-1.33,3.83-.75" transform="translate(0 0)"/><path class="cls-3" d="M35,177.47c2.77-4.66,8.23-7.18,10.93-6.14,2.1.82,2,3,1,4.57-1.92,3-4.42,3.95-6.21,4.82-2.37,1.18-8.46,1.32-5.74-3.25" transform="translate(0 0)"/><path class="cls-5" d="M185.76,163.55a.86.86,0,0,1-.85-.85v-4.46a.86.86,0,0,1,.86-.85.86.86,0,0,1,.85.85l0,4.46a.85.85,0,0,1-.85.85" transform="translate(0 0)"/><path class="cls-5" d="M188.69,165a.83.83,0,0,1-.58-1.41l3.09-3.05a.82.82,0,0,1,1.17,0,.81.81,0,0,1,0,1.16l-3.08,3.05a.86.86,0,0,1-.59.24" transform="translate(0 0)"/><path class="cls-5" d="M194.36,168.22H190a.84.84,0,0,1-.82-.83.82.82,0,0,1,.83-.82h4.35a.83.83,0,0,1,0,1.65" transform="translate(0 0)"/><path class="cls-5" d="M192.2,174.69a.85.85,0,0,1-.61-.25l-3.15-3.16a.84.84,0,0,1,0-1.2.85.85,0,0,1,1.2,0l3.15,3.16a.85.85,0,0,1-.6,1.45" transform="translate(0 0)"/><path class="cls-5" d="M185.71,177.34a.85.85,0,0,1-.85-.85l0-4.46a.83.83,0,0,1,.85-.84.85.85,0,0,1,.85.85l0,4.45a.85.85,0,0,1-.85.85" transform="translate(0 0)"/><path class="cls-5" d="M179.24,174.65a.89.89,0,0,1-.6-.26.84.84,0,0,1,0-1.19l3.18-3.15a.85.85,0,0,1,1.2,1.21l-3.18,3.14a.86.86,0,0,1-.6.25" transform="translate(0 0)"/><path class="cls-5" d="M181.06,168.2l-4.48,0a.85.85,0,1,1,0-1.69h4.47a.85.85,0,1,1,0,1.7" transform="translate(0 0)"/><path class="cls-5" d="M182.44,164.9a.82.82,0,0,1-.6-.25l-3.15-3.16a.84.84,0,0,1,0-1.2.85.85,0,0,1,1.2,0l3.16,3.17a.85.85,0,0,1-.61,1.44" transform="translate(0 0)"/><path class="cls-6" d="M197.15,204.41c0,5.09-40.89,9.22-91.33,9.22s-91.33-4.13-91.33-9.22,40.89-9.21,91.33-9.21,91.33,4.12,91.33,9.21" transform="translate(0 0)"/></g><path class="cls-7" d="M47.49,100.72v1.43H45.08v6.6H43.4v-6.6H41v-1.43Z" transform="translate(0 0)"/><path class="cls-7" d="M51.4,102.94a2.39,2.39,0,0,1,1,.87A3,3,0,0,1,52.9,105a7.64,7.64,0,0,1,.05,1.18H48.62a1.43,1.43,0,0,0,.63,1.25,1.54,1.54,0,0,0,.85.23,1.3,1.3,0,0,0,.86-.27,1.36,1.36,0,0,0,.32-.41h1.59a1.94,1.94,0,0,1-.58,1.07,2.86,2.86,0,0,1-2.23.87,3.26,3.26,0,0,1-2.09-.73,2.87,2.87,0,0,1-.91-2.38,3.21,3.21,0,0,1,.82-2.37,2.84,2.84,0,0,1,2.12-.82A3.3,3.3,0,0,1,51.4,102.94Zm-2.32,1.34a1.61,1.61,0,0,0-.42.92h2.68a1.28,1.28,0,0,0-.42-.94,1.31,1.31,0,0,0-.92-.32A1.19,1.19,0,0,0,49.08,104.28Z" transform="translate(0 0)"/><path class="cls-7" d="M58.43,102.11H56.86v-1.44h1.57Zm-1.57.71h1.57v5.93H56.86Z" transform="translate(0 0)"/><path class="cls-7" d="M64.73,103.16a2,2,0,0,1,.58,1.6v4H63.72v-3.61a1.57,1.57,0,0,0-.13-.72.88.88,0,0,0-.86-.46,1.09,1.09,0,0,0-1.08.68,2.28,2.28,0,0,0-.15.9v3.21H60v-5.92h1.5v.86A2.81,2.81,0,0,1,62,103a1.93,1.93,0,0,1,1.21-.36A2.24,2.24,0,0,1,64.73,103.16Z" transform="translate(0 0)"/><path class="cls-7" d="M70.41,102.82h1.67l-2.15,5.93H68.3l-2.13-5.93h1.74l1.24,4.38Z" transform="translate(0 0)"/><path class="cls-7" d="M74.56,102.11H73v-1.44h1.58Zm-1.58.71h1.58v5.93H73Z" transform="translate(0 0)"/><path class="cls-7" d="M75.45,104v-1.11h.83v-1.66h1.54v1.66h1V104h-1v3.13a.73.73,0,0,0,.09.46,1,1,0,0,0,.56.09h.31v1.16l-.74,0a2,2,0,0,1-1.5-.38,1.18,1.18,0,0,1-.26-.83V104Z" transform="translate(0 0)"/><path class="cls-7" d="M82.13,105.14a2.48,2.48,0,0,0,.62-.13.48.48,0,0,0,.33-.45.51.51,0,0,0-.25-.5,1.66,1.66,0,0,0-.76-.14,1,1,0,0,0-.79.27,1.2,1.2,0,0,0-.22.55h-1.5a2.31,2.31,0,0,1,.44-1.28,2.57,2.57,0,0,1,2.13-.79,3.78,3.78,0,0,1,1.74.39,1.5,1.5,0,0,1,.76,1.46v2.73c0,.18,0,.41,0,.68a.9.9,0,0,0,.09.42.62.62,0,0,0,.23.18v.22H83.27a1.73,1.73,0,0,1-.1-.33,3.6,3.6,0,0,1,0-.36,3.31,3.31,0,0,1-.75.59,2.25,2.25,0,0,1-1.14.29,2,2,0,0,1-1.34-.46,1.65,1.65,0,0,1-.53-1.31,1.7,1.7,0,0,1,.85-1.58,3.7,3.7,0,0,1,1.38-.38Zm1,.73a2.1,2.1,0,0,1-.3.15,3.3,3.3,0,0,1-.42.1l-.35.07a2.63,2.63,0,0,0-.72.21.71.71,0,0,0-.36.66.66.66,0,0,0,.22.57.85.85,0,0,0,.55.18,1.63,1.63,0,0,0,.93-.29,1.25,1.25,0,0,0,.45-1.08Z" transform="translate(0 0)"/><path class="cls-7" d="M93.39,102.84a1.74,1.74,0,0,1,.7.53,1.7,1.7,0,0,1,.33.76,4.87,4.87,0,0,1,.06.88v3.74H92.88V105a1.25,1.25,0,0,0-.11-.55A.78.78,0,0,0,92,104a.89.89,0,0,0-.88.54,1.56,1.56,0,0,0-.13.68v3.53H89.43v-3.53a2.05,2.05,0,0,0-.11-.77.76.76,0,0,0-.77-.43.91.91,0,0,0-.89.43,1.56,1.56,0,0,0-.13.73v3.57H86v-5.92h1.51v.86A2.44,2.44,0,0,1,88,103a1.87,1.87,0,0,1,1.17-.35,1.84,1.84,0,0,1,1.1.3,1.81,1.81,0,0,1,.52.72,1.92,1.92,0,0,1,.75-.77,2.37,2.37,0,0,1,1.07-.25A2.08,2.08,0,0,1,93.39,102.84Z" transform="translate(0 0)"/><path class="cls-7" d="M100.86,108a3.27,3.27,0,0,1-4.57,0,3.69,3.69,0,0,1,0-4.46,3.22,3.22,0,0,1,4.57,0,3.69,3.69,0,0,1,0,4.46Zm-1.24-.86a2.81,2.81,0,0,0,0-2.75,1.24,1.24,0,0,0-1.05-.48,1.26,1.26,0,0,0-1,.48,2.74,2.74,0,0,0,0,2.75,1.26,1.26,0,0,0,1,.48A1.24,1.24,0,0,0,99.62,107.17Z" transform="translate(0 0)"/><path class="cls-7" d="M103.93,106.86a1,1,0,0,0,.21.59,1.47,1.47,0,0,0,1.07.31,1.71,1.71,0,0,0,.74-.14.44.44,0,0,0,.27-.41.44.44,0,0,0-.22-.39,8.15,8.15,0,0,0-1.63-.47,3.38,3.38,0,0,1-1.42-.63,1.35,1.35,0,0,1-.42-1.07,1.84,1.84,0,0,1,.65-1.41,2.57,2.57,0,0,1,1.82-.59,3.34,3.34,0,0,1,1.82.44,1.93,1.93,0,0,1,.8,1.53h-1.55a.91.91,0,0,0-.17-.47,1.06,1.06,0,0,0-.87-.32,1.34,1.34,0,0,0-.73.16.47.47,0,0,0-.21.37.4.4,0,0,0,.23.39,9.78,9.78,0,0,0,1.62.43,3.06,3.06,0,0,1,1.39.66,1.52,1.52,0,0,1,.46,1.12,1.79,1.79,0,0,1-.66,1.44,4,4,0,0,1-4.11,0,2,2,0,0,1-.67-1.51Z" transform="translate(0 0)"/><path class="cls-7" d="M114.38,105.14A2.38,2.38,0,0,0,115,105a.48.48,0,0,0,.34-.45.52.52,0,0,0-.26-.5,1.64,1.64,0,0,0-.75-.14,1,1,0,0,0-.79.27,1.1,1.1,0,0,0-.22.55h-1.5a2.23,2.23,0,0,1,.44-1.28,2.56,2.56,0,0,1,2.12-.79,3.78,3.78,0,0,1,1.74.39,1.49,1.49,0,0,1,.76,1.46v2.73c0,.18,0,.41,0,.68a.9.9,0,0,0,.09.42.62.62,0,0,0,.23.18v.22h-1.69a3,3,0,0,1-.1-.33c0-.11,0-.23,0-.36a3.05,3.05,0,0,1-.74.59,2.3,2.3,0,0,1-1.14.29,2,2,0,0,1-1.34-.46,1.62,1.62,0,0,1-.53-1.31,1.68,1.68,0,0,1,.85-1.58,3.64,3.64,0,0,1,1.37-.38Zm1,.73a2.1,2.1,0,0,1-.3.15,3.3,3.3,0,0,1-.42.1l-.35.07a2.44,2.44,0,0,0-.71.21.7.7,0,0,0-.37.66.66.66,0,0,0,.22.57.87.87,0,0,0,.55.18,1.68,1.68,0,0,0,.94-.29,1.28,1.28,0,0,0,.44-1.08Z" transform="translate(0 0)"/><path class="cls-7" d="M124.89,105a1.31,1.31,0,0,0-.22-.6,1,1,0,0,0-.82-.36,1.07,1.07,0,0,0-1.07.78,3,3,0,0,0-.16,1.09,2.76,2.76,0,0,0,.16,1,1,1,0,0,0,1,.74.9.9,0,0,0,.77-.29,1.48,1.48,0,0,0,.28-.76h1.59a2.6,2.6,0,0,1-.52,1.34,2.48,2.48,0,0,1-2.16,1,2.55,2.55,0,0,1-2.11-.85,4,4,0,0,1,.07-4.59,2.62,2.62,0,0,1,2.06-.85,3.14,3.14,0,0,1,1.83.5,2.38,2.38,0,0,1,.84,1.78Z" transform="translate(0 0)"/><path class="cls-7" d="M132.5,108a3.27,3.27,0,0,1-4.57,0,3.69,3.69,0,0,1,0-4.46,3.22,3.22,0,0,1,4.57,0,3.69,3.69,0,0,1,0,4.46Zm-1.25-.86a2.74,2.74,0,0,0,0-2.75,1.22,1.22,0,0,0-1-.48,1.24,1.24,0,0,0-1.05.48,2.74,2.74,0,0,0,0,2.75,1.24,1.24,0,0,0,1.05.48A1.22,1.22,0,0,0,131.25,107.17Z" transform="translate(0 0)"/><path class="cls-7" d="M139.15,103.16a2,2,0,0,1,.58,1.6v4h-1.59v-3.61a1.73,1.73,0,0,0-.12-.72.88.88,0,0,0-.87-.46,1.07,1.07,0,0,0-1.07.68,2.28,2.28,0,0,0-.15.9v3.21h-1.56v-5.92h1.51v.86a2.81,2.81,0,0,1,.56-.66,2,2,0,0,1,1.21-.36A2.24,2.24,0,0,1,139.15,103.16Z" transform="translate(0 0)"/><path class="cls-7" d="M142.38,106.86a1.12,1.12,0,0,0,.22.59,1.47,1.47,0,0,0,1.07.31,1.63,1.63,0,0,0,.73-.14.44.44,0,0,0,.27-.41.43.43,0,0,0-.22-.39,7.72,7.72,0,0,0-1.62-.47,3.43,3.43,0,0,1-1.43-.63,1.38,1.38,0,0,1-.41-1.07,1.83,1.83,0,0,1,.64-1.41,2.6,2.6,0,0,1,1.83-.59,3.3,3.3,0,0,1,1.81.44,1.91,1.91,0,0,1,.81,1.53h-1.56a.9.9,0,0,0-.16-.47,1.1,1.1,0,0,0-.88-.32,1.27,1.27,0,0,0-.72.16.45.45,0,0,0-.22.37.41.41,0,0,0,.23.39,9.78,9.78,0,0,0,1.62.43,3.06,3.06,0,0,1,1.39.66,1.49,1.49,0,0,1,.46,1.12,1.79,1.79,0,0,1-.66,1.44,3.09,3.09,0,0,1-2,.56,3.06,3.06,0,0,1-2.07-.59,1.93,1.93,0,0,1-.67-1.51Z" transform="translate(0 0)"/><path class="cls-7" d="M148.93,102.82v3.58a1.88,1.88,0,0,0,.12.76.83.83,0,0,0,.83.45A1.09,1.09,0,0,0,151,107a2.39,2.39,0,0,0,.15-.92v-3.23h1.57v5.93h-1.51v-.83l-.11.16a.91.91,0,0,1-.2.24,2.2,2.2,0,0,1-.71.45,2.34,2.34,0,0,1-.79.12,1.77,1.77,0,0,1-1.77-1,3.65,3.65,0,0,1-.26-1.54v-3.58Z" transform="translate(0 0)"/><path class="cls-7" d="M155.79,108.75h-1.55v-8h1.55Z" transform="translate(0 0)"/><path class="cls-7" d="M156.69,104v-1.11h.83v-1.66h1.54v1.66h1V104h-1v3.13a.73.73,0,0,0,.09.46,1,1,0,0,0,.57.09h.3v1.16l-.73,0a2,2,0,0,1-1.51-.38,1.18,1.18,0,0,1-.26-.83V104Z" transform="translate(0 0)"/><path class="cls-7" d="M163.37,105.14A2.38,2.38,0,0,0,164,105a.49.49,0,0,0,.34-.45.52.52,0,0,0-.26-.5,1.64,1.64,0,0,0-.75-.14,1,1,0,0,0-.79.27,1.21,1.21,0,0,0-.23.55h-1.49a2.3,2.3,0,0,1,.43-1.28,2.58,2.58,0,0,1,2.13-.79,3.78,3.78,0,0,1,1.74.39,1.49,1.49,0,0,1,.76,1.46v2.73c0,.18,0,.41,0,.68a.9.9,0,0,0,.09.42.62.62,0,0,0,.23.18v.22h-1.69a1.73,1.73,0,0,1-.1-.33c0-.11,0-.23,0-.36a3.11,3.11,0,0,1-.75.59,2.25,2.25,0,0,1-1.14.29,2,2,0,0,1-1.34-.46,1.65,1.65,0,0,1-.52-1.31,1.68,1.68,0,0,1,.85-1.58,3.64,3.64,0,0,1,1.37-.38Zm.95.73a2.1,2.1,0,0,1-.3.15,3.3,3.3,0,0,1-.42.1l-.35.07a2.44,2.44,0,0,0-.71.21.7.7,0,0,0-.37.66.66.66,0,0,0,.22.57.85.85,0,0,0,.55.18,1.63,1.63,0,0,0,.93-.29,1.25,1.25,0,0,0,.45-1.08Z" transform="translate(0 0)"/><path class="cls-7" d="M170.53,102.68h.13v1.6l-.26,0h-.19a1.29,1.29,0,0,0-1.26.61,2.38,2.38,0,0,0-.18,1.06v2.83h-1.56v-5.93h1.48v1a3.05,3.05,0,0,1,.63-.81,1.73,1.73,0,0,1,1.13-.37Z" transform="translate(0 0)"/><path class="cls-7" d="M34.77,115.24a2,2,0,0,1,.58,1.6v4H33.76v-3.61a1.57,1.57,0,0,0-.13-.72.86.86,0,0,0-.86-.46,1.08,1.08,0,0,0-1.08.67,2.37,2.37,0,0,0-.15.91v3.21H30v-5.93h1.5v.87a2.45,2.45,0,0,1,.57-.66,1.93,1.93,0,0,1,1.21-.36A2.29,2.29,0,0,1,34.77,115.24Z" transform="translate(0 0)"/><path class="cls-7" d="M38.34,114.9v3.58a1.85,1.85,0,0,0,.12.76.82.82,0,0,0,.83.46,1.07,1.07,0,0,0,1.08-.65,2.34,2.34,0,0,0,.16-.92V114.9H42.1v5.94H40.59V120l-.11.17a1.16,1.16,0,0,1-.2.24,2,2,0,0,1-1.5.56A1.78,1.78,0,0,1,37,120a3.64,3.64,0,0,1-.25-1.54V114.9Z" transform="translate(0 0)"/><path class="cls-7" d="M47.48,115a2.49,2.49,0,0,1,1,.88,2.9,2.9,0,0,1,.47,1.23,7.5,7.5,0,0,1,.05,1.18H44.71a1.42,1.42,0,0,0,.62,1.25,1.54,1.54,0,0,0,.85.22,1.3,1.3,0,0,0,.86-.27,1.13,1.13,0,0,0,.32-.41H49a1.9,1.9,0,0,1-.58,1.08,2.89,2.89,0,0,1-2.23.86,3.21,3.21,0,0,1-2.09-.73,2.87,2.87,0,0,1-.91-2.38,3.18,3.18,0,0,1,.82-2.36,2.85,2.85,0,0,1,2.12-.83A3.46,3.46,0,0,1,47.48,115Zm-2.32,1.34a1.68,1.68,0,0,0-.42.92h2.68a1.32,1.32,0,0,0-.42-.94,1.36,1.36,0,0,0-.92-.32A1.25,1.25,0,0,0,45.16,116.36Z" transform="translate(0 0)"/><path class="cls-7" d="M51,118.94a1,1,0,0,0,.21.59,1.47,1.47,0,0,0,1.08.31,1.67,1.67,0,0,0,.73-.13.44.44,0,0,0,.27-.41.43.43,0,0,0-.22-.4,8.73,8.73,0,0,0-1.62-.47,3.31,3.31,0,0,1-1.43-.62,1.36,1.36,0,0,1-.41-1.07,1.87,1.87,0,0,1,.64-1.42,2.62,2.62,0,0,1,1.82-.59,3.32,3.32,0,0,1,1.82.45,1.88,1.88,0,0,1,.81,1.53H53.16a.87.87,0,0,0-.17-.47,1.06,1.06,0,0,0-.87-.32,1.25,1.25,0,0,0-.73.16.45.45,0,0,0-.21.37.41.41,0,0,0,.23.39,11,11,0,0,0,1.62.43,2.87,2.87,0,0,1,1.39.66,1.46,1.46,0,0,1,.46,1.11,1.79,1.79,0,0,1-.66,1.44,3.06,3.06,0,0,1-2,.56,3,3,0,0,1-2.07-.59,1.91,1.91,0,0,1-.67-1.51Z" transform="translate(0 0)"/><path class="cls-7" d="M55.41,116.06V115h.83V113.3h1.54V115h1v1.1h-1v3.14a.75.75,0,0,0,.09.46,1,1,0,0,0,.57.09h.3v1.17l-.73,0a2,2,0,0,1-1.51-.38,1.15,1.15,0,0,1-.26-.82v-3.66Z" transform="translate(0 0)"/><path class="cls-7" d="M63,114.76h.13v1.59l-.26,0h-.18a1.29,1.29,0,0,0-1.26.61,2.41,2.41,0,0,0-.18,1.06v2.84H59.72V114.9h1.49v1a3.06,3.06,0,0,1,.62-.81,1.68,1.68,0,0,1,1.14-.37Z" transform="translate(0 0)"/><path class="cls-7" d="M69,120.11a2.79,2.79,0,0,1-2.29.93,2.75,2.75,0,0,1-2.28-.93,3.42,3.42,0,0,1-.75-2.23,3.47,3.47,0,0,1,.75-2.23,2.73,2.73,0,0,1,2.28-.94,2.76,2.76,0,0,1,2.29.94,3.47,3.47,0,0,1,.75,2.23A3.42,3.42,0,0,1,69,120.11Zm-1.25-.85a2.76,2.76,0,0,0,0-2.76,1.38,1.38,0,0,0-2.09,0,2.76,2.76,0,0,0,0,2.76,1.38,1.38,0,0,0,2.09,0Z" transform="translate(0 0)"/><path class="cls-7" d="M74.89,113.65a3.74,3.74,0,0,1,5.4.34,2.74,2.74,0,0,1,.55,1.49H79.17a2.35,2.35,0,0,0-.42-.87,1.63,1.63,0,0,0-1.32-.52,1.66,1.66,0,0,0-1.42.74,3.64,3.64,0,0,0-.52,2.09,3.18,3.18,0,0,0,.55,2,1.7,1.7,0,0,0,1.39.67,1.61,1.61,0,0,0,1.32-.57,2.71,2.71,0,0,0,.41-.93h1.67a3.66,3.66,0,0,1-1.1,2.13,3.22,3.22,0,0,1-2.28.82A3.4,3.4,0,0,1,74.76,120a5.28,5.28,0,0,1,.13-6.3Z" transform="translate(0 0)"/><path class="cls-7" d="M87,120.11a3.26,3.26,0,0,1-4.56,0,3.42,3.42,0,0,1-.76-2.23,3.48,3.48,0,0,1,.76-2.23,3.24,3.24,0,0,1,4.56,0,3.47,3.47,0,0,1,.75,2.23A3.42,3.42,0,0,1,87,120.11Zm-1.24-.85a2.76,2.76,0,0,0,0-2.76,1.23,1.23,0,0,0-1-.48,1.26,1.26,0,0,0-1,.48,2.83,2.83,0,0,0,0,2.76,1.26,1.26,0,0,0,1,.48A1.23,1.23,0,0,0,85.77,119.26Zm.82-6.79-1.66,1.63H83.81l1-1.63Z" transform="translate(0 0)"/><path class="cls-7" d="M92,115a1.84,1.84,0,0,1,.68.65v-2.83h1.57v8H92.77V120a2.16,2.16,0,0,1-.76.77A2.09,2.09,0,0,1,91,121a2.17,2.17,0,0,1-1.75-.85A3.2,3.2,0,0,1,88.5,118a3.7,3.7,0,0,1,.7-2.39,2.27,2.27,0,0,1,1.87-.87A1.9,1.9,0,0,1,92,115Zm.38,4.23a2.16,2.16,0,0,0,.34-1.27,1.93,1.93,0,0,0-.55-1.56,1.19,1.19,0,0,0-.78-.28,1.08,1.08,0,0,0-1,.51,2.32,2.32,0,0,0-.32,1.28,2.43,2.43,0,0,0,.32,1.32,1.12,1.12,0,0,0,1,.49A1.17,1.17,0,0,0,92.41,119.23Z" transform="translate(0 0)"/><path class="cls-7" d="M97.29,114.19H95.71v-1.43h1.58Zm-1.58.71h1.58v5.94H95.71Z" transform="translate(0 0)"/><path class="cls-7" d="M101.73,114.9a1.82,1.82,0,0,1,.92.86v-.86h1.51v5.64a3.24,3.24,0,0,1-.38,1.73,2.87,2.87,0,0,1-2.56,1,3.45,3.45,0,0,1-1.85-.45,1.63,1.63,0,0,1-.8-1.33h1.69a.66.66,0,0,0,.21.39,1.34,1.34,0,0,0,.85.21,1.12,1.12,0,0,0,1.12-.56,2.91,2.91,0,0,0,.18-1.21v-.38a1.63,1.63,0,0,1-.47.57,1.91,1.91,0,0,1-1.21.36,2.28,2.28,0,0,1-1.83-.81,3.26,3.26,0,0,1-.68-2.17,3.66,3.66,0,0,1,.66-2.23,2.17,2.17,0,0,1,1.86-.9A1.87,1.87,0,0,1,101.73,114.9Zm.53,4.25a1.9,1.9,0,0,0,.38-1.31,2,2,0,0,0-.36-1.28,1.14,1.14,0,0,0-1-.44,1.11,1.11,0,0,0-1.12.76,2.73,2.73,0,0,0-.17,1,2.19,2.19,0,0,0,.18.92,1.12,1.12,0,0,0,1.12.76A1.18,1.18,0,0,0,102.26,119.15Z" transform="translate(0 0)"/><path class="cls-7" d="M110.56,120.11a3.26,3.26,0,0,1-4.56,0,3.42,3.42,0,0,1-.75-2.23,3.47,3.47,0,0,1,.75-2.23,3.24,3.24,0,0,1,4.56,0,3.43,3.43,0,0,1,.76,2.23A3.37,3.37,0,0,1,110.56,120.11Zm-1.24-.85a2.76,2.76,0,0,0,0-2.76,1.38,1.38,0,0,0-2.09,0,2.76,2.76,0,0,0,0,2.76,1.38,1.38,0,0,0,2.09,0Z" transform="translate(0 0)"/><path class="cls-7" d="M118.68,115a1.84,1.84,0,0,1,.68.65v-2.83h1.57v8h-1.51V120a2.22,2.22,0,0,1-.75.77,2.16,2.16,0,0,1-1.06.24,2.19,2.19,0,0,1-1.75-.85,3.2,3.2,0,0,1-.71-2.16,3.7,3.7,0,0,1,.7-2.39,2.27,2.27,0,0,1,1.87-.87A1.9,1.9,0,0,1,118.68,115Zm.38,4.23a2.16,2.16,0,0,0,.34-1.27,1.93,1.93,0,0,0-.55-1.56,1.15,1.15,0,0,0-.78-.28,1.08,1.08,0,0,0-1,.51,2.41,2.41,0,0,0-.32,1.28,2.43,2.43,0,0,0,.32,1.32,1.13,1.13,0,0,0,1,.49A1.16,1.16,0,0,0,119.06,119.23Z" transform="translate(0 0)"/><path class="cls-7" d="M126.22,115a2.46,2.46,0,0,1,1,.88,2.91,2.91,0,0,1,.48,1.23,9,9,0,0,1,0,1.18h-4.33a1.42,1.42,0,0,0,.62,1.25,1.57,1.57,0,0,0,.86.22,1.32,1.32,0,0,0,.86-.27,1.25,1.25,0,0,0,.32-.41h1.59a2,2,0,0,1-.58,1.08,2.91,2.91,0,0,1-2.23.86,3.24,3.24,0,0,1-2.1-.73,2.9,2.9,0,0,1-.9-2.38,3.18,3.18,0,0,1,.82-2.36,2.85,2.85,0,0,1,2.12-.83A3.5,3.5,0,0,1,126.22,115Zm-2.33,1.34a1.67,1.67,0,0,0-.41.92h2.68a1.32,1.32,0,0,0-.42-.94,1.37,1.37,0,0,0-.92-.32A1.26,1.26,0,0,0,123.89,116.36Z" transform="translate(0 0)"/><path class="cls-7" d="M132.54,113.65A3.76,3.76,0,0,1,138,114a2.91,2.91,0,0,1,.55,1.49h-1.68a2.52,2.52,0,0,0-.41-.87,1.83,1.83,0,0,0-2.75.22,3.65,3.65,0,0,0-.51,2.09,3.18,3.18,0,0,0,.54,2,1.72,1.72,0,0,0,1.39.67,1.59,1.59,0,0,0,1.32-.57,2.71,2.71,0,0,0,.41-.93h1.67a3.6,3.6,0,0,1-1.1,2.13,3.2,3.2,0,0,1-2.27.82,3.41,3.41,0,0,1-2.7-1.11,5.28,5.28,0,0,1,.13-6.3Z" transform="translate(0 0)"/><path class="cls-7" d="M144.67,120.11a2.79,2.79,0,0,1-2.29.93,2.75,2.75,0,0,1-2.28-.93,3.42,3.42,0,0,1-.75-2.23,3.47,3.47,0,0,1,.75-2.23,2.73,2.73,0,0,1,2.28-.94,2.76,2.76,0,0,1,2.29.94,3.47,3.47,0,0,1,.75,2.23A3.42,3.42,0,0,1,144.67,120.11Zm-1.25-.85a2.76,2.76,0,0,0,0-2.76,1.38,1.38,0,0,0-2.09,0,2.76,2.76,0,0,0,0,2.76,1.38,1.38,0,0,0,2.09,0Z" transform="translate(0 0)"/><path class="cls-7" d="M151.32,115.24a2,2,0,0,1,.58,1.6v4h-1.59v-3.61a1.73,1.73,0,0,0-.12-.72.87.87,0,0,0-.87-.46,1.06,1.06,0,0,0-1.07.67,2.18,2.18,0,0,0-.16.91v3.21h-1.55v-5.93H148v.87a2.45,2.45,0,0,1,.57-.66,2,2,0,0,1,1.21-.36A2.29,2.29,0,0,1,151.32,115.24Z" transform="translate(0 0)"/><path class="cls-7" d="M156.5,115a1.84,1.84,0,0,1,.68.65v-2.83h1.57v8h-1.51V120a2.16,2.16,0,0,1-.76.77,2.09,2.09,0,0,1-1,.24,2.17,2.17,0,0,1-1.75-.85A3.2,3.2,0,0,1,153,118a3.7,3.7,0,0,1,.71-2.39,2.26,2.26,0,0,1,1.87-.87A1.9,1.9,0,0,1,156.5,115Zm.38,4.23a2.16,2.16,0,0,0,.34-1.27,1.93,1.93,0,0,0-.55-1.56,1.19,1.19,0,0,0-.79-.28,1.11,1.11,0,0,0-1,.51,2.4,2.4,0,0,0-.31,1.28,2.35,2.35,0,0,0,.32,1.32,1.11,1.11,0,0,0,1,.49A1.18,1.18,0,0,0,156.88,119.23Z" transform="translate(0 0)"/><path class="cls-7" d="M161.71,114.9v3.58a1.85,1.85,0,0,0,.12.76.82.82,0,0,0,.83.46,1.07,1.07,0,0,0,1.08-.65,2.17,2.17,0,0,0,.16-.92V114.9h1.57v5.94H164V120l-.11.17a1.16,1.16,0,0,1-.2.24,2,2,0,0,1-1.5.56,1.78,1.78,0,0,1-1.78-1,3.81,3.81,0,0,1-.25-1.54V114.9Z" transform="translate(0 0)"/><path class="cls-7" d="M170.53,117a1.4,1.4,0,0,0-.22-.6,1,1,0,0,0-.81-.36,1.07,1.07,0,0,0-1.08.78,3.31,3.31,0,0,0-.15,1.1,3.07,3.07,0,0,0,.15,1,1,1,0,0,0,1.05.74.93.93,0,0,0,.77-.29,1.4,1.4,0,0,0,.28-.77h1.59a2.57,2.57,0,0,1-.52,1.34,2.47,2.47,0,0,1-2.16,1,2.52,2.52,0,0,1-2.11-.85,3.42,3.42,0,0,1-.68-2.2,3.48,3.48,0,0,1,.75-2.38,2.59,2.59,0,0,1,2.06-.85,3.12,3.12,0,0,1,1.83.5,2.29,2.29,0,0,1,.84,1.77Z" transform="translate(0 0)"/><path class="cls-7" d="M172.58,116.06V115h.82V113.3h1.54V115h1v1.1h-1v3.14a.75.75,0,0,0,.09.46,1,1,0,0,0,.57.09h.31v1.17l-.74,0a1.94,1.94,0,0,1-1.5-.38,1.11,1.11,0,0,1-.27-.82v-3.66Z" transform="translate(0 0)"/><path class="cls-7" d="M179.25,117.23a2.29,2.29,0,0,0,.62-.14.46.46,0,0,0,.34-.44.52.52,0,0,0-.26-.5,1.52,1.52,0,0,0-.75-.14,1,1,0,0,0-.79.27,1.16,1.16,0,0,0-.22.55h-1.5a2.29,2.29,0,0,1,.44-1.29,2.55,2.55,0,0,1,2.12-.78,3.78,3.78,0,0,1,1.74.39,1.47,1.47,0,0,1,.76,1.46v2.72c0,.19,0,.42,0,.69a.73.73,0,0,0,.1.41.58.58,0,0,0,.22.18v.23H180.4a1.62,1.62,0,0,1-.1-.34,2.84,2.84,0,0,1-.05-.36,3.09,3.09,0,0,1-.74.6,2.3,2.3,0,0,1-1.14.29,2,2,0,0,1-1.34-.46,1.67,1.67,0,0,1-.53-1.31,1.7,1.7,0,0,1,.85-1.59,4.06,4.06,0,0,1,1.37-.38Zm1,.72a2.2,2.2,0,0,1-.31.15,2.14,2.14,0,0,1-.41.11l-.36.06a2.12,2.12,0,0,0-.71.22.7.7,0,0,0-.37.66.69.69,0,0,0,.23.57.84.84,0,0,0,.54.18,1.62,1.62,0,0,0,.94-.3,1.27,1.27,0,0,0,.45-1.07Z" transform="translate(0 0)"/><path class="cls-7" d="M96.83,125.9h1.9l2.84,8H99.75l-.53-1.65h-3l-.55,1.65H94Zm-.11,5h2.06l-1-3.16Z" transform="translate(0 0)"/><path class="cls-7" d="M105.79,128.2a2.26,2.26,0,0,1,.55.68V128h1.5v8.28H106.3v-3.09a1.55,1.55,0,0,1-.59.64,2.08,2.08,0,0,1-1.16.28,2.24,2.24,0,0,1-1.75-.82,3.18,3.18,0,0,1-.73-2.2,3.65,3.65,0,0,1,.73-2.37,2.25,2.25,0,0,1,1.8-.89A1.8,1.8,0,0,1,105.79,128.2Zm.34,3.9a2.77,2.77,0,0,0,.22-1.15,2.55,2.55,0,0,0-.19-1,1.18,1.18,0,0,0-1.17-.77,1.16,1.16,0,0,0-.95.45,2.26,2.26,0,0,0-.35,1.38,2.67,2.67,0,0,0,.16,1,1.13,1.13,0,0,0,1.14.74A1.19,1.19,0,0,0,106.13,132.1Z" transform="translate(0 0)"/><path class="cls-7" d="M110.84,128v3.58a1.69,1.69,0,0,0,.12.76.81.81,0,0,0,.82.45,1.09,1.09,0,0,0,1.09-.64,2.35,2.35,0,0,0,.15-.92V128h1.58v5.94h-1.51v-.84l-.11.16a1.21,1.21,0,0,1-.21.24,2.16,2.16,0,0,1-.7.45,2.41,2.41,0,0,1-.8.12,1.77,1.77,0,0,1-1.77-.95,3.62,3.62,0,0,1-.26-1.54V128Z" transform="translate(0 0)"/><path class="cls-7" d="M118.8,125.56l-1.65,1.63H116l1-1.63ZM116.13,128h1.57v5.94h-1.57Z" transform="translate(0 0)"/></g></g></svg>
