<svg xmlns="http://www.w3.org/2000/svg" xmlns:xlink="http://www.w3.org/1999/xlink" viewBox="0 0 217.13 213.63"><defs><style>.cls-1{fill:none;}.cls-2{clip-path:url(#clip-path);}.cls-3,.cls-9{fill:#5d393e;}.cls-4{fill:#bd6867;}.cls-5{fill:#1d1d1b;}.cls-6{fill:#ededed;}.cls-7,.cls-9{font-size:11.16px;font-family:Helvetica-Bold, Helvetica;font-weight:700;}.cls-7{fill:#fff;}.cls-8{letter-spacing:-0.07em;}.cls-10{letter-spacing:-0.04em;}</style><clipPath id="clip-path" transform="translate(0 0)"><rect class="cls-1" width="217.13" height="213.63"/></clipPath></defs><title>consulta-conducta</title><g id="Layer_2" data-name="Layer 2"><g id="Layer_1-2" data-name="Layer 1"><g class="cls-2"><path class="cls-3" d="M6,103.14c-20.38-37.67,15.07-69.9,47.14-53.77s49.28,41.1,78.48,27.52,51.1-24.51,67.69,4.33c16.7,29-2.47,69.84-36.87,86.46S52.16,188.47,6,103.14" transform="translate(0 0)"/><path class="cls-4" d="M27.88,20.51,14.47,33.77a35.59,35.59,0,0,0-2.22,4.56l20.23-20a36.17,36.17,0,0,0-4.6,2.19" transform="translate(0 0)"/><path class="cls-4" d="M39,16.45,10.34,44.8q-.27,1.38-.44,2.8L41.81,16q-1.42.15-2.81.41" transform="translate(0 0)"/><path class="cls-4" d="M46.63,15.84l-37,36.61q0,1.13.08,2.28L48.89,16q-1.14-.1-2.26-.13" transform="translate(0 0)"/><path class="cls-4" d="M52.94,16.54,10.19,58.84c.11.66.24,1.32.38,2L54.89,17c-.65-.16-1.3-.31-1.95-.44" transform="translate(0 0)"/><path class="cls-4" d="M58.43,18.05,11.5,64.47q.27.89.58,1.79L60.16,18.71c-.58-.23-1.15-.45-1.73-.66" transform="translate(0 0)"/><path class="cls-4" d="M63.33,20.15l-50,49.44q.35.82.73,1.65L64.9,21l-1.57-.81" transform="translate(0 0)"/><path class="cls-4" d="M67.91,22.56,15.61,74.29l.08.15.76,1.38,53-52.42-1.53-.85" transform="translate(0 0)"/><path class="cls-4" d="M72.36,25.1,18.1,78.77l.87,1.5L73.85,26l-1.49-.89" transform="translate(0 0)"/><path class="cls-4" d="M76.7,27.75l-56,55.41.9,1.47,56.56-56-1.46-.92" transform="translate(0 0)"/><path class="cls-4" d="M81,30.47l-57.58,57,.94,1.44L82.4,31.42,81,30.47" transform="translate(0 0)"/><path class="cls-4" d="M85.16,33.25l-59,58.37,1,1.4L86.59,34.21l-1.42-1" transform="translate(0 0)"/><path class="cls-4" d="M89.35,36.06,29.05,95.7l1,1.37L90.77,37l-1.42-1" transform="translate(0 0)"/><path class="cls-4" d="M93.54,38.85,32,99.68l1,1.33L95,39.8l-1.44-.94" transform="translate(0 0)"/><path class="cls-4" d="M97.79,41.59l-62.63,62,1.08,1.29,63-62.34-1.47-.91" transform="translate(0 0)"/><path class="cls-4" d="M102.14,44.23,38.38,107.3l1.12,1.25,64.16-63.47-1.52-.86" transform="translate(0 0)"/><path class="cls-4" d="M106.68,46.68l-65,64.26,1.16,1.21,65.4-64.7-1.6-.78" transform="translate(0 0)"/><path class="cls-4" d="M111.49,48.86,45.17,114.46l1.21,1.17,66.84-66.12c-.58-.21-1.15-.43-1.73-.66" transform="translate(0 0)"/><path class="cls-4" d="M116.74,50.61l-68,67.25L50,119l68.65-67.92c-.64-.14-1.28-.29-1.92-.46" transform="translate(0 0)"/><path class="cls-4" d="M122.65,51.7,52.47,121.13l1.29,1.08,71.13-70.37q-1.13,0-2.24-.15" transform="translate(0 0)"/><path class="cls-4" d="M129.7,51.67l-73.38,72.6,1.34,1,74.86-74.06c-.95.18-1.89.32-2.82.42" transform="translate(0 0)"/><path class="cls-4" d="M142.58,47.93c-1.22.57-2.42,1.06-3.6,1.5L60.3,127.27l1.39,1,81.47-80.6-.58.27" transform="translate(0 0)"/><path class="cls-4" d="M151.85,43.64,64.43,130.12l1.44.94,90.34-89.37q-2.15.94-4.36,1.95" transform="translate(0 0)"/><path class="cls-4" d="M164.13,38.43,68.71,132.83l1.5.89,97.68-96.63q-1.85.63-3.75,1.35" transform="translate(0 0)"/><path class="cls-4" d="M174.43,35.19,73.16,135.37l1.55.83L177.45,34.57q-1.49.26-3,.62" transform="translate(0 0)"/><path class="cls-4" d="M182.66,34,77.77,137.75l1.61.77L185.06,34c-.79,0-1.59,0-2.4,0" transform="translate(0 0)"/><path class="cls-4" d="M189.24,34.41,82.56,140l1.67.71,107-105.81q-1-.26-1.95-.44" transform="translate(0 0)"/><path class="cls-4" d="M194.63,36,87.54,142l1.74.64,107-105.81q-.8-.42-1.61-.77" transform="translate(0 0)"/><path class="cls-4" d="M199.12,38.53,92.72,143.79l1.81.57L200.48,39.54c-.45-.35-.91-.69-1.37-1" transform="translate(0 0)"/><path class="cls-4" d="M202.94,41.69,98.12,145.39l1.89.49,104.11-103q-.59-.62-1.18-1.2" transform="translate(0 0)"/><path class="cls-4" d="M206.26,45.35,103.75,146.76l2,.41L207.29,46.69c-.34-.46-.69-.91-1-1.34" transform="translate(0 0)"/><path class="cls-4" d="M209.17,49.41l-99.53,98.46,2.07.32,98.38-97.32c-.3-.5-.61-1-.92-1.46" transform="translate(0 0)"/><path class="cls-4" d="M211.76,53.79,115.82,148.7l2.18.21,94.56-93.54c-.25-.53-.52-1.06-.79-1.58" transform="translate(0 0)"/><path class="cls-4" d="M213.94,58.57l-91.62,90.64,2.3.09,90-89q-.3-.87-.63-1.74" transform="translate(0 0)"/><path class="cls-4" d="M215.63,63.84,129.2,149.35l2.44,0,84.44-83.54c-.14-.65-.28-1.29-.44-1.93" transform="translate(0 0)"/><path class="cls-4" d="M216.74,69.69l-80.23,79.37q1.31-.09,2.61-.22l77.84-77c-.06-.72-.13-1.43-.22-2.15" transform="translate(0 0)"/><path class="cls-4" d="M217.13,76.24l-72.77,72q1.43-.2,2.83-.44l69.87-69.12q.06-1.22.07-2.43" transform="translate(0 0)"/><path class="cls-4" d="M216.59,83.72l-63.64,63q1.59-.35,3.14-.74l60-59.39c.18-.94.34-1.89.47-2.83" transform="translate(0 0)"/><path class="cls-4" d="M214.66,92.57l-52,51.49q1.89-.61,3.68-1.28l47.23-46.73q.62-1.73,1.13-3.49" transform="translate(0 0)"/><path class="cls-4" d="M207.21,109.25q1.57-2.58,2.91-5.24l-35.63,35.25q2.73-1.36,5.33-2.91Z" transform="translate(0 0)"/><path class="cls-4" d="M144.71,32.36A38.79,38.79,0,0,0,118.8,2.1q-1.21-.41-2.44-.74C97.46-3.71,74.7,5.1,65.53,32.57,55.35,63.08,49.92,71.71,24.85,95.14l-.83.79q-.84.8-1.65,1.6C-.36,120-6,143.89,15.68,157.93c9.84,6.38,20.21,7.95,31.08,7.64l1.78-.07c24.62-1.13,51.79-11,81.25,4.15,20.12,10.31,44.53,4.65,61.57-8.35q.9-.69,1.77-1.4c17.28-14.14,26-36,12.83-55.63-24-35.67-50.48-13.63-61.24-71.91" transform="translate(0 0)"/><path class="cls-5" d="M128.69,18.65a1.93,1.93,0,1,1-1.92-1.93,1.93,1.93,0,0,1,1.92,1.93" transform="translate(0 0)"/><path class="cls-5" d="M114.79,19.36A3.61,3.61,0,1,0,118.4,23a3.62,3.62,0,0,0-3.61-3.62m0,8.74A5.13,5.13,0,1,1,119.92,23a5.14,5.14,0,0,1-5.16,5.11" transform="translate(0 0)"/><path class="cls-5" d="M12.63,71.24a2.47,2.47,0,1,0,2.47,2.47,2.47,2.47,0,0,0-2.47-2.47m0,6.45a4,4,0,1,1,4-4,4,4,0,0,1-4,4" transform="translate(0 0)"/><path class="cls-5" d="M80.23,183.76a.76.76,0,0,1-.76-.76l0-11.66a.76.76,0,0,1,1.52,0L81,183a.76.76,0,0,1-.76.76" transform="translate(0 0)"/><path class="cls-5" d="M86.11,178l-11.71,0a.76.76,0,1,1,0-1.52l11.71,0a.76.76,0,1,1,0,1.52" transform="translate(0 0)"/><path class="cls-5" d="M195.23,104.24a.76.76,0,0,1-.76-.76l0-7.88a.76.76,0,0,1,1.52,0l0,7.88a.76.76,0,0,1-.76.76" transform="translate(0 0)"/><path class="cls-5" d="M199.2,100.32l-7.91,0a.76.76,0,1,1,0-1.52l7.91,0a.76.76,0,1,1,0,1.52" transform="translate(0 0)"/><path class="cls-3" d="M183.33,61c1.68,1.9,9.54,1.08,11.17,7.47.81,3.18,5.72,1.58,5.24-1.41-1-6.19-2.88-8.76-6.71-9.23-5.46-.68-11.31,1.35-9.7,3.17" transform="translate(0 0)"/><path class="cls-4" d="M38.14,33.3c-3.48-6-6.26-14.11-3.15-16.45,1.85-1.4,3.78-.41,5.4,2.05,2.08,3.19,1.65,7.32,1.4,9.87-.27,2.84-1.34,8.48-3.65,4.53" transform="translate(0 0)"/><path class="cls-4" d="M205.18,78.9c-1.57-2.18.79-6.21,3-7a4.19,4.19,0,0,1,5.53,2.73,3.81,3.81,0,0,1-2.48,4.86c-1.5.56-5.19.65-6.05-.55" transform="translate(0 0)"/><path class="cls-4" d="M56.7,170.84c1.4,1.06.76,4-.44,4.87a2.75,2.75,0,0,1-3.95-.69,2.4,2.4,0,0,1,.55-3.44c.81-.61,3.06-1.33,3.83-.75" transform="translate(0 0)"/><path class="cls-3" d="M35,177.47c2.77-4.66,8.23-7.19,10.93-6.14,2.1.81,2,3,1,4.56-1.92,3-4.43,3.95-6.21,4.83-2.37,1.17-8.46,1.32-5.74-3.25" transform="translate(0 0)"/><path class="cls-5" d="M185.76,163.55a.85.85,0,0,1-.85-.85l0-4.46a.85.85,0,0,1,1.7,0v4.46a.85.85,0,0,1-.85.84" transform="translate(0 0)"/><path class="cls-5" d="M188.69,165a.82.82,0,0,1-.58-1.41l3.08-3.05a.83.83,0,0,1,1.17,0,.82.82,0,0,1,0,1.17l-3.08,3.05a.82.82,0,0,1-.59.24" transform="translate(0 0)"/><path class="cls-5" d="M194.36,168.22H190a.82.82,0,1,1,0-1.65h4.35a.82.82,0,1,1,0,1.65" transform="translate(0 0)"/><path class="cls-5" d="M192.2,174.69a.85.85,0,0,1-.6-.25l-3.15-3.16a.85.85,0,0,1,1.21-1.2l3.15,3.16a.85.85,0,0,1-.61,1.45" transform="translate(0 0)"/><path class="cls-5" d="M185.71,177.34a.85.85,0,0,1-.85-.85l0-4.46a.85.85,0,0,1,1.7,0v4.46a.85.85,0,0,1-.85.85" transform="translate(0 0)"/><path class="cls-5" d="M179.24,174.65a.85.85,0,0,1-.6-1.45l3.17-3.14a.85.85,0,1,1,1.2,1.2l-3.18,3.14a.85.85,0,0,1-.6.25" transform="translate(0 0)"/><path class="cls-5" d="M181.06,168.2l-4.47,0a.85.85,0,1,1,0-1.7l4.47,0a.85.85,0,1,1,0,1.7" transform="translate(0 0)"/><path class="cls-5" d="M182.44,164.9a.85.85,0,0,1-.6-.25l-3.15-3.16a.85.85,0,0,1,1.21-1.2l3.15,3.16a.85.85,0,0,1-.61,1.45" transform="translate(0 0)"/><path class="cls-6" d="M197.15,204.41c0,5.09-40.89,9.22-91.33,9.22s-91.33-4.13-91.33-9.22,40.89-9.22,91.33-9.22,91.33,4.13,91.33,9.22" transform="translate(0 0)"/></g><text class="cls-7" transform="translate(40.8 108.75)"><tspan class="cls-8">T</tspan><tspan x="6" y="0">e invitamos a consultar </tspan></text><text class="cls-7" transform="translate(29.25 120.84)">nuestro Código de Conducta </text><text class="cls-7" transform="translate(22.61 132.93)">en: </text><text class="cls-9" transform="translate(42.45 132.93)">ww<tspan class="cls-10" x="17.36" y="0">w</tspan><tspan x="25.64" y="0">.lala.com.mx/nosotros/</tspan></text><text class="cls-9" transform="translate(50.95 145.01)">codigo-de-conducta/</text></g></g></svg>
