<svg xmlns="http://www.w3.org/2000/svg" viewBox="0 0 556.04 560.93"><defs><style>.cls-1,.cls-2,.cls-3,.cls-4,.cls-5,.cls-6{fill:none;}.cls-2,.cls-3,.cls-4,.cls-5,.cls-6{stroke:#b2b0b3;stroke-linecap:round;stroke-linejoin:round;stroke-width:4px;}.cls-3{stroke-dasharray:0 11.78;}.cls-4{stroke-dasharray:0 11.96;}.cls-5{stroke-dasharray:0 12.21;}.cls-6{stroke-dasharray:0 12.63;}.cls-11,.cls-15,.cls-7{fill:#bd6867;}.cls-14,.cls-30,.cls-8{fill:#884f52;}.cls-13,.cls-22,.cls-9{fill:#ad5a5a;}.cls-10,.cls-12,.cls-19{fill:#cb8784;}.cls-11,.cls-14{font-size:20px;}.cls-11,.cls-12,.cls-13,.cls-14{font-family:Helvetica-Bold, Helvetica;font-weight:700;}.cls-12{font-size:15.22px;}.cls-13{font-size:15.2px;}.cls-15{font-size:17.2px;}.cls-15,.cls-19,.cls-22,.cls-30{font-family:Helvetica, Helvetica;}.cls-16{letter-spacing:-0.02em;}.cls-17{letter-spacing:-0.04em;}.cls-18{letter-spacing:0em;}.cls-19,.cls-22{font-size:11.98px;}.cls-20{letter-spacing:-0.02em;}.cls-21{letter-spacing:-0.04em;}.cls-23{letter-spacing:-0.05em;}.cls-24{letter-spacing:-0.02em;}.cls-25{letter-spacing:-0.02em;}.cls-26{letter-spacing:-0.04em;}.cls-27{letter-spacing:0em;}.cls-28{letter-spacing:-0.05em;}.cls-29{letter-spacing:-0.07em;}.cls-30{font-size:12.03px;}</style></defs><title>consejo-admin</title><g id="Layer_2" data-name="Layer 2"><g id="_ÎÓÈ_1" data-name="—ÎÓÈ_1"><path class="cls-1" d="M244.9,63.77"/><line class="cls-2" x1="102.12" y1="166.97" x2="102.12" y2="166.97"/><path class="cls-3" d="M108.08,156.81q1.55-2.48,3.17-4.91a204.7,204.7,0,0,1,100.12-79"/><line class="cls-2" x1="216.94" y1="70.96" x2="216.94" y2="70.96"/><line class="cls-2" x1="223.82" y1="462.28" x2="223.82" y2="462.28"/><path class="cls-4" d="M212.46,458.55A205.73,205.73,0,0,1,101.6,363.22"/><line class="cls-2" x1="98.83" y1="357.92" x2="98.83" y2="357.92"/><line class="cls-2" x1="461.75" y1="363.13" x2="461.75" y2="363.13"/><path class="cls-5" d="M455.86,373.81C428,421,383,453.86,325.21,466.1"/><line class="cls-2" x1="319.22" y1="467.28" x2="319.22" y2="467.28"/><line class="cls-2" x1="333.19" y1="66.8" x2="333.19" y2="66.8"/><path class="cls-6" d="M345.32,70.33A206.14,206.14,0,0,1,425.66,119"/><line class="cls-2" x1="430.11" y1="123.48" x2="430.11" y2="123.48"/><path class="cls-7" d="M331.43,31.6c-6.86-6-25.35,13.75-33.9,17.36a4.37,4.37,0,0,1-5.4-1.61,226.22,226.22,0,0,0-15.27-20.83c-13.44-16-36.28-32-50.39-24.73-22.66,11.63,9.28,53.06,7.92,63.08s-19.78,22.71-9.71,37.27c10.57,15.28,49.94-13.48,64-2.12,2.61,2.11,4,2.2,7.35-.76,16.63-14.74,41.84-62.07,35.41-67.66M220.52,14.69c.28-9.89,14.5-22.6,42.22,1-8.78-6.37-32.68-20.75-42.22-1m66.85,79.48c-18.63-8.61-45.25,11.23-49.76-2.09-5.41-16,36.28-32,51.82-1.59,1.48,2.91.45,4.85-2.07,3.68m3.2-10.34c-7.83-13.26-26.7-21.55-38.34-27.54-15-7.71-21.32-23.87-14.57-31.35,11.08-12.28,51.41,12.06,56.38,57.7.48,4.41-1.36,4.77-3.47,1.19"/><path class="cls-7" d="M248,117c31.88-3.82,38.35,23,67.39-18C288,116.64,279.23,85.9,248,117m6.69-3.06c20.71-9.5,30,1.89,44.77-3.89-18.11,8.4-25.31-3.2-44.77,3.89"/><path class="cls-8" d="M312.87,445.79c-4.59-4-17,9.19-22.67,11.61a2.92,2.92,0,0,1-3.61-1.08,151.29,151.29,0,0,0-10.21-13.93c-9-10.69-24.26-21.38-33.7-16.54-15.16,7.78,6.2,35.48,5.3,42.19s-13.23,15.19-6.49,24.92c7.07,10.22,33.4-9,42.79-1.42C286,493,287,493,289.19,491c11.12-9.86,28-41.51,23.68-45.25M238.7,434.48c.19-6.61,9.7-15.12,28.24.66-5.87-4.26-21.86-13.88-28.24-.66m44.71,53.15c-12.46-5.76-30.26,7.51-33.28-1.4-3.62-10.7,24.26-21.43,34.66-1.06,1,1.94.3,3.24-1.38,2.46m2.14-6.92c-5.23-8.87-17.85-14.41-25.64-18.42-10-5.16-14.26-16-9.74-21,7.41-8.21,34.38,8.07,37.7,38.59.32,2.95-.91,3.19-2.32.79"/><path class="cls-8" d="M257.09,502.93c21.32-2.55,25.65,15.4,45.07-12-18.33,11.78-24.2-8.78-45.07,12m4.48-2c13.85-6.35,20,1.26,29.94-2.6-12.11,5.62-16.92-2.14-29.94,2.6"/><path class="cls-9" d="M492.68,155.13c-5.37-4.67-19.84,10.76-26.53,13.59a3.42,3.42,0,0,1-4.22-1.26A177,177,0,0,0,450,151.15c-10.52-12.51-28.39-25-39.44-19.35-17.74,9.1,7.26,41.52,6.2,49.36s-15.48,17.77-7.6,29.16c8.27,12,39.08-10.55,50.07-1.66,2,1.65,3.14,1.72,5.75-.59,13-11.53,32.75-48.57,27.71-52.95m-86.79-13.24c.22-7.74,11.35-17.69,33,.78-6.87-5-25.58-16.24-33-.78m52.31,62.2c-14.58-6.74-35.41,8.79-38.94-1.64-4.24-12.52,28.39-25.08,40.55-1.25,1.16,2.27.36,3.79-1.62,2.88m2.5-8.1c-6.13-10.37-20.89-16.87-30-21.55-11.73-6-16.68-18.68-11.4-24.53,8.67-9.61,40.23,9.44,44.12,45.15.38,3.45-1.07,3.73-2.72.93"/><path class="cls-9" d="M427.41,222c24.95-3,30,18,52.74-14.1-21.45,13.78-28.32-10.27-52.74,14.1m5.24-2.4c16.2-7.43,23.45,1.48,35-3-14.17,6.58-19.8-2.5-35,3"/><path class="cls-10" d="M133.61,174.35c-5.42-4.71-20,10.87-26.8,13.72a3.46,3.46,0,0,1-4.27-1.27,178.83,178.83,0,0,0-12.07-16.47C79.85,157.7,61.8,145.06,50.64,150.79,32.72,160,58,192.74,56.9,200.66s-15.64,18-7.68,29.46c8.35,12.08,39.48-10.66,50.58-1.68,2.06,1.67,3.17,1.74,5.81-.6,13.15-11.65,33.08-49.07,28-53.49M45.93,161c.22-7.81,11.47-17.87,33.38.78-6.94-5-25.84-16.4-33.38-.78m52.85,62.83C84.05,217,63,232.69,59.44,222.16c-4.28-12.64,28.68-25.34,41-1.26,1.17,2.3.36,3.83-1.63,2.91m2.53-8.18c-6.19-10.48-21.11-17-30.31-21.77-11.85-6.1-16.85-18.87-11.52-24.78,8.76-9.71,40.65,9.54,44.57,45.61.38,3.49-1.08,3.77-2.75.94"/><path class="cls-10" d="M67.67,241.9c25.2-3,30.31,18.21,53.28-14.24-21.66,13.92-28.61-10.38-53.28,14.24M73,239.48C89.33,232,96.65,241,108.35,236.4,94,243,88.35,233.87,73,239.48"/><text class="cls-11" transform="translate(219.9 159.51)">Presidente</text><text class="cls-12" transform="translate(44.91 273.38)">Consejeros<tspan x="-8.03" y="18.26">patrimoniales</tspan></text><text class="cls-13" transform="translate(418.95 255.24)">Consejeros<tspan x="-14.35" y="18.24">independientes</tspan></text><text class="cls-14" transform="translate(226.27 536.19)">Secretario</text><text class="cls-15" transform="translate(198.13 184.37)">Eduardo<tspan class="cls-16" x="65.02" y="0"> </tspan><tspan class="cls-17" x="69.5" y="0">T</tspan><tspan class="cls-18" x="79.37" y="0">ricio Haro</tspan></text><text class="cls-19" transform="translate(0 310.41)">Marcelo Fulgencio Gómez Ganem<tspan x="16.97" y="14.38">Juan Carlos Larrinaga Sosa</tspan><tspan x="24.64" y="28.76">José Manuel</tspan><tspan class="cls-20" x="92.58" y="28.76"> </tspan><tspan class="cls-21" x="95.7" y="28.76">T</tspan><tspan x="102.58" y="28.76">ricio Cerro</tspan></text><text class="cls-22" transform="translate(377.19 292.34)">Arquímedes<tspan class="cls-23" x="64.61" y="0"> </tspan><tspan x="67.28" y="0">Adriano Celis Ordaz</tspan><tspan x="3.08" y="14.38">Blanca</tspan><tspan class="cls-23" x="39.71" y="14.38"> </tspan><tspan class="cls-24" x="42.39" y="14.38">A</tspan><tspan x="50.17" y="14.38">velina</tspan><tspan class="cls-25" x="81.48" y="14.38"> </tspan><tspan class="cls-26" x="84.6" y="14.38">T</tspan><tspan class="cls-27" x="91.48" y="14.38">reviño de </tspan><tspan class="cls-28" x="144.1" y="14.38">V</tspan><tspan x="151.44" y="14.38">ega</tspan><tspan x="2.42" y="28.76">Juan Pablo del </tspan><tspan class="cls-29" x="85.04" y="28.76">V</tspan><tspan class="cls-27" x="92.14" y="28.76">alle Perochena</tspan><tspan x="-4.34" y="43.14">Pablo Roberto González Guajardo</tspan><tspan x="33.64" y="57.52">Rafael Robles Miajá</tspan></text><text class="cls-30" transform="translate(215.1 555.14)">Mauricio Gárate Meza</text></g></g></svg>
