<svg xmlns="http://www.w3.org/2000/svg" viewBox="0 0 552.38 631.36"><defs><style>.cls-1{fill:#b76868;}.cls-2{fill:#54363d;}</style></defs><title>valores_bg</title><g id="Layer_2" data-name="Layer 2"><g id="Layer_1-2" data-name="Layer 1"><path class="cls-1" d="M15.2,537.18h0a4,4,0,0,1,0-5.6L545.61,1.16a4,4,0,0,1,5.6,0h0a4,4,0,0,1,0,5.6L20.81,537.18A4,4,0,0,1,15.2,537.18Z"/><path class="cls-1" d="M2.1,589.78h0a4,4,0,0,1,0-5.6l458-458a4,4,0,0,1,5.6,0h0a4,4,0,0,1,0,5.6l-458,458A4,4,0,0,1,2.1,589.78Z"/><path class="cls-1" d="M1.16,630.2h0a4,4,0,0,1,0-5.6l458-458a4,4,0,0,1,5.6,0h0a4,4,0,0,1,0,5.6l-458,458A4,4,0,0,1,1.16,630.2Z"/><path class="cls-1" d="M58.28,612.57h0a4,4,0,0,1,0-5.6l458-458a4,4,0,0,1,5.6,0h0a4,4,0,0,1,0,5.6l-458,458A4,4,0,0,1,58.28,612.57Z"/><path class="cls-2" d="M249.16,262.67q0,2.67.13,5.3a2.12,2.12,0,0,0,4.24-.13V257.49a2.12,2.12,0,0,0-4.24-.13Q249.16,260,249.16,262.67Z"/><path class="cls-2" d="M268.6,201V324.29a2.15,2.15,0,0,0,.39,1.23q.86,1.22,1.75,2.42a2.13,2.13,0,0,0,3.83-1.27v-128a2.13,2.13,0,0,0-3.83-1.27q-.89,1.2-1.75,2.42A2.15,2.15,0,0,0,268.6,201Z"/><path class="cls-2" d="M289.64,178.67v168a2.13,2.13,0,0,0,.8,1.67l1.76,1.38a2.13,2.13,0,0,0,3.41-1.7V177.32a2.13,2.13,0,0,0-3.41-1.7L290.43,177A2.13,2.13,0,0,0,289.64,178.67Z"/><path class="cls-2" d="M310.67,165.53V359.8a2.12,2.12,0,0,0,1.21,1.92l1.76.82a2.13,2.13,0,0,0,3-1.94V164.73a2.13,2.13,0,0,0-3-1.94l-1.76.82A2.12,2.12,0,0,0,310.67,165.53Z"/><path class="cls-2" d="M331.71,158.14V367.19a2.12,2.12,0,0,0,1.62,2.07l1.76.4a2.13,2.13,0,0,0,2.59-2.08V157.75a2.13,2.13,0,0,0-2.59-2.08l-1.76.4A2.12,2.12,0,0,0,331.71,158.14Z"/><path class="cls-2" d="M352.75,155.31V370a2.13,2.13,0,0,0,2,2.13l1.78.05a2.13,2.13,0,0,0,2.16-2.13V155.27a2.13,2.13,0,0,0-2.16-2.13l-1.78.05A2.13,2.13,0,0,0,352.75,155.31Z"/><path class="cls-2" d="M373.78,156.62v212.1a2.12,2.12,0,0,0,2.44,2.11l1.78-.3a2.13,2.13,0,0,0,1.74-2.1V156.91a2.13,2.13,0,0,0-1.74-2.1l-1.78-.3A2.12,2.12,0,0,0,373.78,156.62Z"/><path class="cls-2" d="M394.82,162.25V363.09a2.13,2.13,0,0,0,2.88,2l1.76-.69a2.12,2.12,0,0,0,1.32-2V162.92a2.12,2.12,0,0,0-1.32-2l-1.76-.69A2.13,2.13,0,0,0,394.82,162.25Z"/><path class="cls-2" d="M415.86,173.06V352.27a2.13,2.13,0,0,0,3.29,1.78l1.76-1.19a2.13,2.13,0,0,0,.91-1.75V174.23a2.13,2.13,0,0,0-.91-1.75l-1.76-1.19A2.13,2.13,0,0,0,415.86,173.06Z"/><path class="cls-2" d="M436.89,191.32V334a2.13,2.13,0,0,0,3.7,1.43q.89-1,1.76-2a2.15,2.15,0,0,0,.51-1.39V193.31a2.15,2.15,0,0,0-.51-1.39q-.87-1-1.76-2A2.13,2.13,0,0,0,436.89,191.32Z"/><path class="cls-2" d="M457.93,226.94v71.44a2.13,2.13,0,0,0,4.12.73q.95-2.69,1.76-5.43a2.21,2.21,0,0,0,.09-.62V232.27a2.2,2.2,0,0,0-.09-.62q-.81-2.75-1.76-5.43A2.13,2.13,0,0,0,457.93,226.94Z"/></g></g></svg>
