<svg xmlns="http://www.w3.org/2000/svg" viewBox="0 0 413.19 647.04"><defs><style>.cls-1{isolation:isolate;}.cls-2{opacity:0.21;mix-blend-mode:multiply;}.cls-29,.cls-3{fill:#fff;}.cls-4{fill:#eeedee;}.cls-5{fill:#dddbde;}.cls-6{fill:#cccacd;}.cls-7{fill:#bdbabe;}.cls-8{fill:#adabaf;}.cls-9{fill:#9f9ca1;}.cls-10{fill:#918e93;}.cls-11{fill:#838086;}.cls-12{fill:#767379;}.cls-13{fill:#6a676d;}.cls-14{fill:#5e5b61;}.cls-15{fill:#535156;}.cls-16{fill:#48464c;}.cls-17{fill:#3d3c42;}.cls-18{fill:#333338;}.cls-19{fill:#2a2a2f;}.cls-20{fill:#212126;}.cls-21{fill:#18191e;}.cls-22{fill:#101115;}.cls-23{fill:#07080a;}.cls-24{fill:#010101;}.cls-25{fill:#bd6867;}.cls-26{fill:#cb8784;}.cls-27{fill:#5d393e;}.cls-28{fill:#884f52;}.cls-29{font-size:14px;font-family:Helvetica-Bold, Helvetica;}.cls-30{font-weight:700;}.cls-31{font-size:12px;font-family:Helvetica, Helvetica;}.cls-32{letter-spacing:-0.02em;}.cls-33{letter-spacing:-0.04em;}.cls-34{letter-spacing:-0.07em;}</style></defs><title>valores</title><g class="cls-1"><g id="Layer_2" data-name="Layer 2"><g id="Layer_1-2" data-name="Layer 1"><g class="cls-2"><polygon class="cls-3" points="368.08 377.09 47.07 340.43 47.07 288.05 368.08 293.3 413.19 335.2 368.08 377.09"/><polygon class="cls-4" points="367.84 376.1 47.07 340.51 47.07 287.97 367.84 292.3 412.94 334.2 367.84 376.1"/><polygon class="cls-5" points="367.59 375.1 47.07 340.59 47.07 287.89 367.59 291.3 412.7 333.2 367.59 375.1"/><polygon class="cls-6" points="367.34 374.1 47.07 340.68 47.07 287.81 367.34 290.3 412.45 332.2 367.34 374.1"/><polygon class="cls-7" points="367.09 373.1 47.07 340.76 47.07 287.72 367.09 289.31 412.2 331.21 367.09 373.1"/><polygon class="cls-8" points="366.84 372.11 47.07 340.84 47.07 287.64 366.84 288.31 411.95 330.21 366.84 372.11"/><polygon class="cls-9" points="366.59 371.11 47.07 340.93 47.07 287.56 366.59 287.31 411.7 329.21 366.59 371.11"/><polygon class="cls-10" points="366.34 370.11 47.07 341.01 47.07 287.47 366.34 286.31 411.45 328.21 366.34 370.11"/><polygon class="cls-11" points="366.09 369.11 47.07 341.09 47.07 287.39 366.09 285.31 411.2 327.21 366.09 369.11"/><polygon class="cls-12" points="365.85 368.11 47.07 341.17 47.07 287.31 365.85 284.31 410.95 326.22 365.85 368.11"/><polygon class="cls-13" points="365.6 367.12 47.07 341.26 47.07 287.22 365.6 283.32 410.7 325.22 365.6 367.12"/><polygon class="cls-14" points="365.35 366.12 47.07 341.34 47.07 287.14 365.35 282.32 410.45 324.22 365.35 366.12"/><polygon class="cls-15" points="365.1 365.12 47.07 341.42 47.07 287.06 365.1 281.32 410.21 323.22 365.1 365.12"/><polygon class="cls-16" points="364.85 364.12 47.07 341.51 47.07 286.98 364.85 280.32 409.96 322.23 364.85 364.12"/><polygon class="cls-17" points="364.6 363.13 47.07 341.59 47.07 286.89 364.6 279.32 409.71 321.23 364.6 363.13"/><polygon class="cls-18" points="364.35 362.13 47.07 341.67 47.07 286.81 364.35 278.33 409.46 320.23 364.35 362.13"/><polygon class="cls-19" points="364.1 361.13 47.07 341.75 47.07 286.73 364.1 277.33 409.21 319.23 364.1 361.13"/><polygon class="cls-20" points="363.85 360.13 47.07 341.84 47.07 286.64 363.85 276.33 408.96 318.23 363.85 360.13"/><polygon class="cls-21" points="363.6 359.13 47.07 341.92 47.07 286.56 363.6 275.33 408.71 317.24 363.6 359.13"/><polygon class="cls-22" points="363.36 358.14 47.07 342 47.07 286.48 363.36 274.33 408.46 316.24 363.36 358.14"/><polygon class="cls-23" points="363.11 357.14 47.07 342.09 47.07 286.39 363.11 273.34 408.21 315.24 363.11 357.14"/><polygon class="cls-24" points="362.86 356.14 47.07 342.17 47.07 286.31 362.86 272.34 407.96 314.24 362.86 356.14"/></g><polygon class="cls-25" points="362.86 356.14 47.07 342.17 47.07 286.31 362.86 272.34 407.96 314.24 362.86 356.14"/><g class="cls-2"><polygon class="cls-3" points="45.12 309 366.12 272.34 366.12 219.97 45.12 225.21 0 267.1 45.12 309"/><polygon class="cls-4" points="45.37 308.01 366.12 272.42 366.12 219.88 45.37 224.21 0.25 266.11 45.37 308.01"/><polygon class="cls-5" points="45.61 307.01 366.12 272.5 366.12 219.8 45.61 223.21 0.5 265.11 45.61 307.01"/><polygon class="cls-6" points="45.86 306.01 366.12 272.59 366.12 219.72 45.86 222.22 0.75 264.11 45.86 306.01"/><polygon class="cls-7" points="46.11 305.01 366.12 272.67 366.12 219.63 46.11 221.22 1 263.11 46.11 305.01"/><polygon class="cls-8" points="46.36 304.02 366.12 272.75 366.12 219.55 46.36 220.22 1.25 262.12 46.36 304.02"/><polygon class="cls-9" points="46.61 303.02 366.12 272.84 366.12 219.47 46.61 219.22 1.5 261.12 46.61 303.02"/><polygon class="cls-10" points="46.86 302.02 366.12 272.92 366.12 219.38 46.86 218.22 1.74 260.12 46.86 302.02"/><polygon class="cls-11" points="47.11 301.02 366.12 273 366.12 219.3 47.11 217.23 1.99 259.12 47.11 301.02"/><polygon class="cls-12" points="47.36 300.03 366.12 273.09 366.12 219.22 47.36 216.23 2.24 258.13 47.36 300.03"/><polygon class="cls-13" points="47.61 299.03 366.12 273.17 366.12 219.13 47.61 215.23 2.49 257.13 47.61 299.03"/><polygon class="cls-14" points="47.85 298.03 366.12 273.25 366.12 219.05 47.85 214.23 2.74 256.13 47.85 298.03"/><polygon class="cls-15" points="48.1 297.03 366.12 273.34 366.12 218.97 48.1 213.24 2.99 255.13 48.1 297.03"/><polygon class="cls-16" points="48.35 296.04 366.12 273.42 366.12 218.89 48.35 212.24 3.24 254.14 48.35 296.04"/><polygon class="cls-17" points="48.6 295.04 366.12 273.5 366.12 218.8 48.6 211.24 3.49 253.14 48.6 295.04"/><polygon class="cls-18" points="48.85 294.04 366.12 273.59 366.12 218.72 48.85 210.24 3.74 252.14 48.85 294.04"/><polygon class="cls-19" points="49.1 293.04 366.12 273.67 366.12 218.64 49.1 209.25 3.99 251.15 49.1 293.04"/><polygon class="cls-20" points="49.35 292.04 366.12 273.75 366.12 218.55 49.35 208.25 4.24 250.15 49.35 292.04"/><polygon class="cls-21" points="49.6 291.05 366.12 273.84 366.12 218.47 49.6 207.25 4.49 249.15 49.6 291.05"/><polygon class="cls-22" points="49.85 290.05 366.12 273.92 366.12 218.39 49.85 206.25 4.73 248.15 49.85 290.05"/><polygon class="cls-23" points="50.09 289.05 366.12 274 366.12 218.31 50.09 205.25 4.98 247.16 50.09 289.05"/><polygon class="cls-24" points="50.34 288.05 366.12 274.09 366.12 218.22 50.34 204.26 5.23 246.16 50.34 288.05"/></g><polygon class="cls-26" points="50.34 288.05 366.12 274.09 366.12 218.22 50.34 204.26 5.23 246.16 50.34 288.05"/><g class="cls-2"><polygon class="cls-3" points="368.08 240.92 47.07 204.26 47.07 151.88 368.08 157.12 413.19 199.02 368.08 240.92"/><polygon class="cls-4" points="367.84 239.93 47.07 204.34 47.07 151.79 367.84 156.12 412.94 198.02 367.84 239.93"/><polygon class="cls-5" points="367.59 238.93 47.07 204.42 47.07 151.71 367.59 155.13 412.7 197.03 367.59 238.93"/><polygon class="cls-6" points="367.34 237.93 47.07 204.51 47.07 151.63 367.34 154.13 412.45 196.03 367.34 237.93"/><polygon class="cls-7" points="367.09 236.93 47.07 204.59 47.07 151.55 367.09 153.13 412.2 195.03 367.09 236.93"/><polygon class="cls-8" points="366.84 235.93 47.07 204.67 47.07 151.46 366.84 152.13 411.95 194.03 366.84 235.93"/><polygon class="cls-9" points="366.59 234.94 47.07 204.76 47.07 151.38 366.59 151.13 411.7 193.04 366.59 234.94"/><polygon class="cls-10" points="366.34 233.94 47.07 204.84 47.07 151.3 366.34 150.14 411.45 192.04 366.34 233.94"/><polygon class="cls-11" points="366.09 232.94 47.07 204.92 47.07 151.22 366.09 149.14 411.2 191.04 366.09 232.94"/><polygon class="cls-12" points="365.85 231.94 47.07 205.01 47.07 151.13 365.85 148.14 410.95 190.05 365.85 231.94"/><polygon class="cls-13" points="365.6 230.94 47.07 205.09 47.07 151.05 365.6 147.14 410.7 189.05 365.6 230.94"/><polygon class="cls-14" points="365.35 229.94 47.07 205.17 47.07 150.97 365.35 146.15 410.45 188.05 365.35 229.94"/><polygon class="cls-15" points="365.1 228.95 47.07 205.26 47.07 150.88 365.1 145.15 410.21 187.05 365.1 228.95"/><polygon class="cls-16" points="364.85 227.95 47.07 205.34 47.07 150.8 364.85 144.15 409.96 186.06 364.85 227.95"/><polygon class="cls-17" points="364.6 226.95 47.07 205.42 47.07 150.72 364.6 143.15 409.71 185.06 364.6 226.95"/><polygon class="cls-18" points="364.35 225.95 47.07 205.51 47.07 150.64 364.35 142.16 409.46 184.06 364.35 225.95"/><polygon class="cls-19" points="364.1 224.96 47.07 205.59 47.07 150.55 364.1 141.16 409.21 183.06 364.1 224.96"/><polygon class="cls-20" points="363.85 223.96 47.07 205.67 47.07 150.47 363.85 140.16 408.96 182.07 363.85 223.96"/><polygon class="cls-21" points="363.6 222.96 47.07 205.76 47.07 150.39 363.6 139.16 408.71 181.07 363.6 222.96"/><polygon class="cls-22" points="363.36 221.96 47.07 205.84 47.07 150.31 363.36 138.16 408.46 180.07 363.36 221.96"/><polygon class="cls-23" points="363.11 220.96 47.07 205.92 47.07 150.22 363.11 137.17 408.21 179.08 363.11 220.96"/><polygon class="cls-24" points="362.86 219.97 47.07 206.01 47.07 150.14 362.86 136.17 407.96 178.08 362.86 219.97"/></g><polygon class="cls-27" points="362.86 219.97 47.07 206.01 47.07 150.14 362.86 136.17 407.96 178.08 362.86 219.97"/><g class="cls-2"><polygon class="cls-3" points="45.12 172.84 366.12 136.17 366.12 83.8 45.12 89.03 0 130.93 45.12 172.84"/><polygon class="cls-4" points="45.37 171.84 366.12 136.25 366.12 83.71 45.37 88.03 0.25 129.94 45.37 171.84"/><polygon class="cls-5" points="45.61 170.84 366.12 136.34 366.12 83.63 45.61 87.04 0.5 128.94 45.61 170.84"/><polygon class="cls-6" points="45.86 169.84 366.12 136.42 366.12 83.55 45.86 86.04 0.75 127.94 45.86 169.84"/><polygon class="cls-7" points="46.11 168.84 366.12 136.5 366.12 83.46 46.11 85.04 1 126.94 46.11 168.84"/><polygon class="cls-8" points="46.36 167.84 366.12 136.59 366.12 83.38 46.36 84.04 1.25 125.94 46.36 167.84"/><polygon class="cls-9" points="46.61 166.85 366.12 136.67 366.12 83.3 46.61 83.05 1.5 124.95 46.61 166.85"/><polygon class="cls-10" points="46.86 165.85 366.12 136.75 366.12 83.21 46.86 82.05 1.74 123.95 46.86 165.85"/><polygon class="cls-11" points="47.11 164.85 366.12 136.84 366.12 83.13 47.11 81.05 1.99 122.95 47.11 164.85"/><polygon class="cls-12" points="47.36 163.85 366.12 136.92 366.12 83.05 47.36 80.05 2.24 121.95 47.36 163.85"/><polygon class="cls-13" points="47.61 162.85 366.12 137 366.12 82.96 47.61 79.06 2.49 120.96 47.61 162.85"/><polygon class="cls-14" points="47.85 161.86 366.12 137.09 366.12 82.88 47.85 78.06 2.74 119.96 47.85 161.86"/><polygon class="cls-15" points="48.1 160.86 366.12 137.17 366.12 82.8 48.1 77.06 2.99 118.96 48.1 160.86"/><polygon class="cls-16" points="48.35 159.86 366.12 137.25 366.12 82.71 48.35 76.06 3.24 117.96 48.35 159.86"/><polygon class="cls-17" points="48.6 158.86 366.12 137.34 366.12 82.63 48.6 75.06 3.49 116.97 48.6 158.86"/><polygon class="cls-18" points="48.85 157.87 366.12 137.42 366.12 82.55 48.85 74.07 3.74 115.97 48.85 157.87"/><polygon class="cls-19" points="49.1 156.87 366.12 137.5 366.12 82.46 49.1 73.07 3.99 114.97 49.1 156.87"/><polygon class="cls-20" points="49.35 155.87 366.12 137.59 366.12 82.38 49.35 72.07 4.24 113.97 49.35 155.87"/><polygon class="cls-21" points="49.6 154.87 366.12 137.67 366.12 82.3 49.6 71.07 4.49 112.97 49.6 154.87"/><polygon class="cls-22" points="49.85 153.87 366.12 137.75 366.12 82.21 49.85 70.08 4.73 111.98 49.85 153.87"/><polygon class="cls-23" points="50.09 152.88 366.12 137.84 366.12 82.13 50.09 69.08 4.98 110.98 50.09 152.88"/><polygon class="cls-24" points="50.34 151.88 366.12 137.92 366.12 82.05 50.34 68.08 5.23 109.98 50.34 151.88"/></g><polygon class="cls-28" points="50.34 151.88 366.12 137.92 366.12 82.05 50.34 68.08 5.23 109.98 50.34 151.88"/><g class="cls-2"><polygon class="cls-3" points="368.08 104.75 47.07 68.08 47.07 15.71 368.08 20.95 413.19 62.85 368.08 104.75"/><polygon class="cls-4" points="367.84 103.76 47.07 68.16 47.07 15.63 367.84 19.95 412.94 61.85 367.84 103.76"/><polygon class="cls-5" points="367.59 102.76 47.07 68.25 47.07 15.54 367.59 18.95 412.7 60.86 367.59 102.76"/><polygon class="cls-6" points="367.34 101.76 47.07 68.33 47.07 15.46 367.34 17.96 412.45 59.86 367.34 101.76"/><polygon class="cls-7" points="367.09 100.76 47.07 68.41 47.07 15.38 367.09 16.96 412.2 58.86 367.09 100.76"/><polygon class="cls-8" points="366.84 99.76 47.07 68.5 47.07 15.29 366.84 15.96 411.95 57.86 366.84 99.76"/><polygon class="cls-9" points="366.59 98.77 47.07 68.58 47.07 15.21 366.59 14.96 411.7 56.86 366.59 98.77"/><polygon class="cls-10" points="366.34 97.77 47.07 68.66 47.07 15.13 366.34 13.97 411.45 55.87 366.34 97.77"/><polygon class="cls-11" points="366.09 96.77 47.07 68.75 47.07 15.04 366.09 12.97 411.2 54.87 366.09 96.77"/><polygon class="cls-12" points="365.85 95.77 47.07 68.83 47.07 14.96 365.85 11.97 410.95 53.87 365.85 95.77"/><polygon class="cls-13" points="365.6 94.77 47.07 68.91 47.07 14.88 365.6 10.97 410.7 52.87 365.6 94.77"/><polygon class="cls-14" points="365.35 93.78 47.07 69 47.07 14.79 365.35 9.98 410.45 51.87 365.35 93.78"/><polygon class="cls-15" points="365.1 92.78 47.07 69.08 47.07 14.71 365.1 8.98 410.21 50.88 365.1 92.78"/><polygon class="cls-16" points="364.85 91.78 47.07 69.16 47.07 14.63 364.85 7.98 409.96 49.88 364.85 91.78"/><polygon class="cls-17" points="364.6 90.78 47.07 69.25 47.07 14.55 364.6 6.98 409.71 48.88 364.6 90.78"/><polygon class="cls-18" points="364.35 89.78 47.07 69.33 47.07 14.46 364.35 5.99 409.46 47.88 364.35 89.78"/><polygon class="cls-19" points="364.1 88.79 47.07 69.41 47.07 14.38 364.1 4.99 409.21 46.88 364.1 88.79"/><polygon class="cls-20" points="363.85 87.79 47.07 69.5 47.07 14.3 363.85 3.99 408.96 45.89 363.85 87.79"/><polygon class="cls-21" points="363.6 86.79 47.07 69.58 47.07 14.21 363.6 2.99 408.71 44.89 363.6 86.79"/><polygon class="cls-22" points="363.36 85.79 47.07 69.66 47.07 14.13 363.36 2 408.46 43.89 363.36 85.79"/><polygon class="cls-23" points="363.11 84.79 47.07 69.75 47.07 14.05 363.11 1 408.21 42.89 363.11 84.79"/><polygon class="cls-24" points="362.86 83.8 47.07 69.83 47.07 13.96 362.86 0 407.96 41.89 362.86 83.8"/></g><polygon class="cls-25" points="362.86 83.8 47.07 69.83 47.07 13.96 362.86 0 407.96 41.89 362.86 83.8"/><g class="cls-2"><polygon class="cls-3" points="368.08 647.04 47.07 610.38 47.07 558 368.08 563.25 413.19 605.15 368.08 647.04"/><polygon class="cls-4" points="367.84 646.05 47.07 610.46 47.07 557.92 367.84 562.25 412.94 604.15 367.84 646.05"/><polygon class="cls-5" points="367.59 645.05 47.07 610.54 47.07 557.84 367.59 561.25 412.7 603.15 367.59 645.05"/><polygon class="cls-6" points="367.34 644.05 47.07 610.63 47.07 557.76 367.34 560.25 412.45 602.16 367.34 644.05"/><polygon class="cls-7" points="367.09 643.05 47.07 610.71 47.07 557.67 367.09 559.26 412.2 601.16 367.09 643.05"/><polygon class="cls-8" points="366.84 642.06 47.07 610.79 47.07 557.59 366.84 558.26 411.95 600.16 366.84 642.06"/><polygon class="cls-9" points="366.59 641.06 47.07 610.88 47.07 557.51 366.59 557.26 411.7 599.16 366.59 641.06"/><polygon class="cls-10" points="366.34 640.06 47.07 610.96 47.07 557.42 366.34 556.26 411.45 598.16 366.34 640.06"/><polygon class="cls-11" points="366.09 639.06 47.07 611.04 47.07 557.34 366.09 555.26 411.2 597.17 366.09 639.06"/><polygon class="cls-12" points="365.85 638.07 47.07 611.13 47.07 557.26 365.85 554.27 410.95 596.17 365.85 638.07"/><polygon class="cls-13" points="365.6 637.07 47.07 611.21 47.07 557.17 365.6 553.27 410.7 595.17 365.6 637.07"/><polygon class="cls-14" points="365.35 636.07 47.07 611.29 47.07 557.09 365.35 552.27 410.45 594.17 365.35 636.07"/><polygon class="cls-15" points="365.1 635.07 47.07 611.37 47.07 557.01 365.1 551.27 410.21 593.17 365.1 635.07"/><polygon class="cls-16" points="364.85 634.07 47.07 611.46 47.07 556.93 364.85 550.27 409.96 592.18 364.85 634.07"/><polygon class="cls-17" points="364.6 633.08 47.07 611.54 47.07 556.84 364.6 549.28 409.71 591.18 364.6 633.08"/><polygon class="cls-18" points="364.35 632.08 47.07 611.62 47.07 556.76 364.35 548.28 409.46 590.18 364.35 632.08"/><polygon class="cls-19" points="364.1 631.08 47.07 611.71 47.07 556.68 364.1 547.28 409.21 589.18 364.1 631.08"/><polygon class="cls-20" points="363.85 630.08 47.07 611.79 47.07 556.59 363.85 546.28 408.96 588.18 363.85 630.08"/><polygon class="cls-21" points="363.6 629.09 47.07 611.87 47.07 556.51 363.6 545.28 408.71 587.19 363.6 629.09"/><polygon class="cls-22" points="363.36 628.09 47.07 611.96 47.07 556.43 363.36 544.29 408.46 586.19 363.36 628.09"/><polygon class="cls-23" points="363.11 627.09 47.07 612.04 47.07 556.35 363.11 543.29 408.21 585.19 363.11 627.09"/><polygon class="cls-24" points="362.86 626.09 47.07 612.12 47.07 556.26 362.86 542.29 407.96 584.19 362.86 626.09"/></g><polygon class="cls-25" points="362.86 626.09 47.07 612.12 47.07 556.26 362.86 542.29 407.96 584.19 362.86 626.09"/><g class="cls-2"><polygon class="cls-3" points="45.12 578.96 366.12 542.29 366.12 489.92 45.12 495.16 0 537.05 45.12 578.96"/><polygon class="cls-4" points="45.37 577.96 366.12 542.37 366.12 489.83 45.37 494.16 0.25 536.06 45.37 577.96"/><polygon class="cls-5" points="45.61 576.96 366.12 542.46 366.12 489.75 45.61 493.16 0.5 535.06 45.61 576.96"/><polygon class="cls-6" points="45.86 575.96 366.12 542.54 366.12 489.67 45.86 492.17 0.75 534.06 45.86 575.96"/><polygon class="cls-7" points="46.11 574.97 366.12 542.62 366.12 489.58 46.11 491.17 1 533.06 46.11 574.97"/><polygon class="cls-8" points="46.36 573.97 366.12 542.71 366.12 489.5 46.36 490.17 1.25 532.07 46.36 573.97"/><polygon class="cls-9" points="46.61 572.97 366.12 542.79 366.12 489.42 46.61 489.17 1.5 531.07 46.61 572.97"/><polygon class="cls-10" points="46.86 571.97 366.12 542.87 366.12 489.33 46.86 488.18 1.74 530.07 46.86 571.97"/><polygon class="cls-11" points="47.11 570.97 366.12 542.96 366.12 489.25 47.11 487.18 1.99 529.08 47.11 570.97"/><polygon class="cls-12" points="47.36 569.98 366.12 543.04 366.12 489.17 47.36 486.18 2.24 528.08 47.36 569.98"/><polygon class="cls-13" points="47.61 568.98 366.12 543.12 366.12 489.09 47.61 485.18 2.49 527.08 47.61 568.98"/><polygon class="cls-14" points="47.85 567.98 366.12 543.21 366.12 489 47.85 484.19 2.74 526.08 47.85 567.98"/><polygon class="cls-15" points="48.1 566.98 366.12 543.29 366.12 488.92 48.1 483.19 2.99 525.09 48.1 566.98"/><polygon class="cls-16" points="48.35 565.99 366.12 543.37 366.12 488.84 48.35 482.19 3.24 524.09 48.35 565.99"/><polygon class="cls-17" points="48.6 564.99 366.12 543.46 366.12 488.75 48.6 481.19 3.49 523.09 48.6 564.99"/><polygon class="cls-18" points="48.85 563.99 366.12 543.54 366.12 488.67 48.85 480.19 3.74 522.09 48.85 563.99"/><polygon class="cls-19" points="49.1 562.99 366.12 543.62 366.12 488.59 49.1 479.2 3.99 521.1 49.1 562.99"/><polygon class="cls-20" points="49.35 562 366.12 543.71 366.12 488.5 49.35 478.2 4.24 520.1 49.35 562"/><polygon class="cls-21" points="49.6 561 366.12 543.79 366.12 488.42 49.6 477.2 4.49 519.1 49.6 561"/><polygon class="cls-22" points="49.85 560 366.12 543.87 366.12 488.34 49.85 476.2 4.73 518.11 49.85 560"/><polygon class="cls-23" points="50.09 559 366.12 543.96 366.12 488.26 50.09 475.21 4.98 517.11 50.09 559"/><polygon class="cls-24" points="50.34 558 366.12 544.04 366.12 488.17 50.34 474.21 5.23 516.11 50.34 558"/></g><polygon class="cls-26" points="50.34 558 366.12 544.04 366.12 488.17 50.34 474.21 5.23 516.11 50.34 558"/><g class="cls-2"><polygon class="cls-3" points="368.08 510.88 47.07 474.21 47.07 421.83 368.08 427.07 413.19 468.97 368.08 510.88"/><polygon class="cls-4" points="367.84 509.88 47.07 474.29 47.07 421.75 367.84 426.07 412.94 467.98 367.84 509.88"/><polygon class="cls-5" points="367.59 508.88 47.07 474.38 47.07 421.66 367.59 425.08 412.7 466.98 367.59 508.88"/><polygon class="cls-6" points="367.34 507.88 47.07 474.46 47.07 421.58 367.34 424.08 412.45 465.98 367.34 507.88"/><polygon class="cls-7" points="367.09 506.88 47.07 474.54 47.07 421.5 367.09 423.08 412.2 464.98 367.09 506.88"/><polygon class="cls-8" points="366.84 505.88 47.07 474.63 47.07 421.41 366.84 422.08 411.95 463.99 366.84 505.88"/><polygon class="cls-9" points="366.59 504.89 47.07 474.71 47.07 421.33 366.59 421.08 411.7 462.99 366.59 504.89"/><polygon class="cls-10" points="366.34 503.89 47.07 474.79 47.07 421.25 366.34 420.09 411.45 461.99 366.34 503.89"/><polygon class="cls-11" points="366.09 502.89 47.07 474.88 47.07 421.17 366.09 419.09 411.2 460.99 366.09 502.89"/><polygon class="cls-12" points="365.85 501.89 47.07 474.96 47.07 421.08 365.85 418.09 410.95 460 365.85 501.89"/><polygon class="cls-13" points="365.6 500.89 47.07 475.04 47.07 421 365.6 417.09 410.7 459 365.6 500.89"/><polygon class="cls-14" points="365.35 499.9 47.07 475.13 47.07 420.92 365.35 416.1 410.45 458 365.35 499.9"/><polygon class="cls-15" points="365.1 498.9 47.07 475.21 47.07 420.84 365.1 415.1 410.21 457 365.1 498.9"/><polygon class="cls-16" points="364.85 497.9 47.07 475.29 47.07 420.75 364.85 414.1 409.96 456.01 364.85 497.9"/><polygon class="cls-17" points="364.6 496.9 47.07 475.38 47.07 420.67 364.6 413.1 409.71 455.01 364.6 496.9"/><polygon class="cls-18" points="364.35 495.9 47.07 475.46 47.07 420.59 364.35 412.11 409.46 454.01 364.35 495.9"/><polygon class="cls-19" points="364.1 494.91 47.07 475.54 47.07 420.5 364.1 411.11 409.21 453.02 364.1 494.91"/><polygon class="cls-20" points="363.85 493.91 47.07 475.63 47.07 420.42 363.85 410.11 408.96 452.02 363.85 493.91"/><polygon class="cls-21" points="363.6 492.91 47.07 475.71 47.07 420.34 363.6 409.11 408.71 451.02 363.6 492.91"/><polygon class="cls-22" points="363.36 491.91 47.07 475.79 47.07 420.26 363.36 408.12 408.46 450.02 363.36 491.91"/><polygon class="cls-23" points="363.11 490.91 47.07 475.88 47.07 420.18 363.11 407.12 408.21 449.03 363.11 490.91"/><polygon class="cls-24" points="362.86 489.92 47.07 475.96 47.07 420.09 362.86 406.12 407.96 448.03 362.86 489.92"/></g><polygon class="cls-27" points="362.86 489.92 47.07 475.96 47.07 420.09 362.86 406.12 407.96 448.03 362.86 489.92"/><g class="cls-2"><polygon class="cls-3" points="45.12 442.79 366.12 406.12 366.12 353.75 45.12 358.98 0 400.88 45.12 442.79"/><polygon class="cls-4" points="45.37 441.79 366.12 406.2 366.12 353.66 45.37 357.99 0.25 399.89 45.37 441.79"/><polygon class="cls-5" points="45.61 440.79 366.12 406.29 366.12 353.58 45.61 356.99 0.5 398.89 45.61 440.79"/><polygon class="cls-6" points="45.86 439.79 366.12 406.37 366.12 353.5 45.86 355.99 0.75 397.89 45.86 439.79"/><polygon class="cls-7" points="46.11 438.79 366.12 406.45 366.12 353.41 46.11 354.99 1 396.89 46.11 438.79"/><polygon class="cls-8" points="46.36 437.8 366.12 406.54 366.12 353.33 46.36 353.99 1.25 395.9 46.36 437.8"/><polygon class="cls-9" points="46.61 436.8 366.12 406.62 366.12 353.25 46.61 353 1.5 394.9 46.61 436.8"/><polygon class="cls-10" points="46.86 435.8 366.12 406.7 366.12 353.16 46.86 352 1.74 393.9 46.86 435.8"/><polygon class="cls-11" points="47.11 434.8 366.12 406.79 366.12 353.08 47.11 351 1.99 392.9 47.11 434.8"/><polygon class="cls-12" points="47.36 433.8 366.12 406.87 366.12 353 47.36 350 2.24 391.9 47.36 433.8"/><polygon class="cls-13" points="47.61 432.81 366.12 406.95 366.12 352.91 47.61 349.01 2.49 390.91 47.61 432.81"/><polygon class="cls-14" points="47.85 431.81 366.12 407.04 366.12 352.83 47.85 348.01 2.74 389.91 47.85 431.81"/><polygon class="cls-15" points="48.1 430.81 366.12 407.12 366.12 352.75 48.1 347.01 2.99 388.91 48.1 430.81"/><polygon class="cls-16" points="48.35 429.81 366.12 407.2 366.12 352.66 48.35 346.01 3.24 387.92 48.35 429.81"/><polygon class="cls-17" points="48.6 428.81 366.12 407.29 366.12 352.58 48.6 345.02 3.49 386.92 48.6 428.81"/><polygon class="cls-18" points="48.85 427.82 366.12 407.37 366.12 352.5 48.85 344.02 3.74 385.92 48.85 427.82"/><polygon class="cls-19" points="49.1 426.82 366.12 407.45 366.12 352.41 49.1 343.02 3.99 384.92 49.1 426.82"/><polygon class="cls-20" points="49.35 425.82 366.12 407.54 366.12 352.33 49.35 342.02 4.24 383.92 49.35 425.82"/><polygon class="cls-21" points="49.6 424.82 366.12 407.62 366.12 352.25 49.6 341.02 4.49 382.93 49.6 424.82"/><polygon class="cls-22" points="49.85 423.82 366.12 407.7 366.12 352.16 49.85 340.03 4.73 381.93 49.85 423.82"/><polygon class="cls-23" points="50.09 422.83 366.12 407.79 366.12 352.08 50.09 339.03 4.98 380.93 50.09 422.83"/><polygon class="cls-24" points="50.34 421.83 366.12 407.87 366.12 352 50.34 338.03 5.23 379.93 50.34 421.83"/></g><polygon class="cls-28" points="50.34 421.83 366.12 407.87 366.12 352 50.34 338.03 5.23 379.93 50.34 421.83"/><text class="cls-29" transform="translate(168.12 38.07)"><tspan class="cls-30">SOMOS GENTE</tspan><tspan class="cls-31"><tspan x="-82.95" y="14">Respetamos y cuidamos a nuestros colaboradores</tspan></tspan></text><text class="cls-29" transform="translate(111.52 111.06)"><tspan class="cls-30">SOÑAMOS EN GRANDE</tspan><tspan class="cls-31"><tspan x="-53.63" y="14">Cuidamos a Lala ante todos sus grupos de interés</tspan></tspan></text><text class="cls-29" transform="translate(124.69 177.3)"><tspan class="cls-30">PENSAMOS COMO DUEÑOS</tspan><tspan class="cls-31"><tspan x="-57.41" y="14">Utilizamos responsablemente los bienes de la Compañía </tspan></tspan></text><text class="cls-29" transform="translate(80.17 246.45)"><tspan class="cls-30">CRECEMOS POR MERI<tspan class="cls-32" x="154.01" y="0">T</tspan><tspan x="162.32" y="0">OCRACI</tspan><tspan class="cls-33" x="217.54" y="0">A</tspan></tspan><tspan class="cls-31"><tspan x="-27.18" y="14">Promovemos oportunidades para todas las personas</tspan></tspan></text><text class="cls-29" transform="translate(147.48 312.83)"><tspan class="cls-30">DAMOS RESU<tspan class="cls-34" x="94.9" y="0">LT</tspan><tspan x="109.94" y="0">ADOS</tspan></tspan><tspan class="cls-31"><tspan x="-71.9" y="14">Agregamos valor en las comunidades donde operamos</tspan></tspan></text><text class="cls-29" transform="translate(120.1 379.01)"><tspan class="cls-30">SOMOS PRÁCTICOS</tspan><tspan class="cls-31"><tspan x="-23.49" y="14">Operamos ágil y sustentablemente</tspan></tspan></text><text class="cls-29" transform="translate(142.68 440.73)"><tspan class="cls-30">SOMOS<tspan class="cls-33" x="52.12" y="0"> </tspan><tspan x="55.49" y="0">AUTÉNTICOS</tspan></tspan><tspan class="cls-31"><tspan x="-14.46" y="14">Comunicamos con transparencia</tspan><tspan x="-18.13" y="28">y siempre hablamos con la verdad</tspan></tspan></text><text class="cls-29" transform="translate(108.71 516.89)"><tspan class="cls-30">NO <tspan class="cls-32" x="24.89" y="0">T</tspan><tspan x="33.2" y="0">OMAMOS</tspan><tspan class="cls-33" x="97.75" y="0"> </tspan><tspan class="cls-34" x="101.12" y="0">AT</tspan><tspan x="117.72" y="0">AJOS</tspan></tspan><tspan class="cls-31"><tspan x="-15.47" y="14">Procedemos con apego a las leyes</tspan></tspan></text><text class="cls-29" transform="translate(159.08 581.54)"><tspan class="cls-30">SOMOS EJEMPLO</tspan><tspan class="cls-31"><tspan x="-51.96" y="14">La calidad y seguridad no son negociables</tspan></tspan></text></g></g></g></svg>
