<?xml version="1.0" encoding="utf-8"?>
<!-- Generator: Adobe Illustrator 23.0.3, SVG Export Plug-In . SVG Version: 6.00 Build 0)  -->
<svg version="1.1" id="Layer_1" xmlns="http://www.w3.org/2000/svg" xmlns:xlink="http://www.w3.org/1999/xlink" x="0px" y="0px"
	 viewBox="0 0 431.7 431.7" style="enable-background:new 0 0 431.7 431.7;" xml:space="preserve">
<style type="text/css">
	.st0{fill:#4A7734;}
	.st1{fill:#FFFFFF;}
</style>
<g>
	<title>ods13</title>
	<path class="st0" d="M216.4,431.2L216.4,431.2C97.9,431.2,1.9,335.1,1.9,216.6v0C1.9,98.1,97.9,2,216.4,2h0
		C334.9,2,431,98.1,431,216.6v0C431,335.1,334.9,431.2,216.4,431.2z"/>
	<path class="st1" d="M352.8,291.4c-9.6-13.4-52.8-66.9-133.2-66.9c-80.4,0-123.6,53.5-133.2,66.9c-0.4,0.6-0.8,1.1-1,1.5
		c0.3,0.4,0.6,0.9,1,1.5c9.6,13.4,52.8,66.9,133.2,66.9c80.4,0,123.6-53.5,133.2-66.9c0.4-0.6,0.8-1.1,1-1.5
		C353.6,292.4,353.2,292,352.8,291.4 M174.8,258.3c0.7-1.1,3.1-4.1,3.4-4.5c0.6-0.8,1.8-1,2.7-1.1c0.9-0.2,2,0.3,2.1,1
		c0.1,0.6-0.3,3.1-0.7,3.6c-1.2,1.2-4.2,2.9-5.9,2.7C175.1,259.7,174.5,258.7,174.8,258.3 M171.9,264c0.1-0.2,0.2-0.3,0.3-0.3
		c1-1.2,3-1.4,4.4-1.6c1.4-0.2,3.3,0.5,3.5,1.4c0.2,0.9-3.5,2.6-4.2,3.2c-1.9,1.8-5,5.4-6.7,5.8c-0.6,0.1-1.1,0-1.4-0.2
		C168.9,269.4,170.3,266.6,171.9,264 M202,325.7c-1.1,4.3-2.4,5.8-3.4,7.2c-1.1,1.4-5.1,3.1-7.6,2.9c-2.5-0.2-2.9-7-2.9-10.5
		c0-1.2-1.7,2.4-2.6-4.9c-0.6-4.7-3.6,0.5-3.8-2.6c-0.2-3.1-1.7-2.5-3.3-4.4c-1.6-1.9-3.5,0.2-5.7,1.2c-2.2,1-1.3,1.5-4.4,0.5
		c-0.1,0-0.1,0-0.2-0.1c-2.8-6.7-4.4-14.1-4.4-21.8c0-1.9,0.1-3.7,0.3-5.6c0.1-0.2,0.2-0.4,0.3-0.5c3-3.5,2.9-4.3,2.9-4.3l3.3-1.1
		c0,0,5.2,0.8,9.2,2.3c3.2,1.2,8.4,4,11.3,2.8c2.1-0.9,3.8-2.1,3.6-3.9c-0.2-2.2-2-2.8-4.2-1.3c-0.8,0.6-2.5-3.4-3.8-3.2
		c-1.3,0.2,1.6,4.6,0.5,4.8c-1.1,0.2-3.4-4.6-3.8-5.4c-0.4-0.8-2.1-2.7-3.7-1.2c-3.3,3.1-8.7,2.9-9.7,3.8c-3.3,2.5-4.1-0.8-4.1-2.8
		c0.1-0.5,0.3-0.9,0.4-1.4c1.1-1.2,4.9-1.6,6.2-0.7c1.4,1,2.5-0.2,3.1-0.8c0.6-0.6,0.4-1.5,0-2.3c-0.4-0.8,0.7-1.3,1.5-1.5
		c0.8-0.2,3.3-1.9,4.2-2.5c1-0.6,6.2-1.2,8.5,0c2.3,1.2,4.4,0.2,5.6-1.1c1.4-1.7,3.3-3,4.1-3.4c0.8-0.4-2-3-4.3-0.1
		c-2.3,2.8-3.5,3.1-4.6,3.1c-1.1,0-7.6-1.6-8.3-3.7c-0.8-2,2-3.6,4.4-4.7c2.4-1.1,8.9-1.1,10.6-1.5c3.4-0.7,7.7-2.5,9.9-1
		c2.2,1.5-9.1,4-5.4,6c1.3,0.7,7.3-3.4,9.3-4.5c4.8-2.5-4.7-3.3-3.4-8.4c1.4-5.7-11.6-3.5-18.1-3c8.7-5.6,19.1-8.8,30.2-8.8
		c26.4,0,48.5,18.3,54.5,42.9c0,1.2-0.2,2.1-0.3,2.6c-0.5,2-4.3,3.8-6.6,0.5c-0.6-0.8-3-3.1-2.9,0.8c0.1,3.9,3.8,4.3,0.2,6.6
		c-3.6,2.3-4.2,1.8-5.9,2.4c-1.6,0.6-3.3,4.6-2.9,6.7c0.4,2.1,5.5,8,1.7,7.7c-0.9-0.1-7.6-4.6-8.7-7.6c-1.2-3.1-2.4-6.1-3.3-8.5
		c-0.9-2.3-3.3-2.9-5.3-1.6c-2,1.4,0.6,2.7-0.9,5.6c-1.4,2.9-2.5,5.5-4.6,3.1c-5.5-6.3-13.4-3.2-14.7-10.1c-0.7-3.8-3.9-3.4-6.6-5.6
		c-2.7-2.1-4.3-3.3-4.7-1.7c-0.4,1.4,8.6,8.5,9.2,10.3c1,2.7-2.7,5.1-5.3,5.7c-2.6,0.6-3.8-1.5-6.4-4.2c-2.6-2.7-3.7-4.7-3.9-2.5
		c-0.3,3.1,2.5,7.6,5.1,9.3c2.3,1.4,4.8,2.1,4.1,4.4c-0.7,2.3,0,1-2.6,3.5c-2.5,2.5-3,3.3-2.8,6.8c0.2,3.5-0.7,3.7-1.3,6.6
		C204.4,324,203.1,321.4,202,325.7 M262.1,303.4c1.9-0.2,4.7,2.5,3.6,3.5c-1.1,1-3.9,0.6-5.3-0.5
		C258.9,305.3,261.2,303.5,262.1,303.4 M259.7,301.7c-0.6-0.2-1.1-0.8-1.6-2.2c-0.5-1.4,0.7-2.2,1.8-1.6c1.1,0.6,2.6,2.3,2.6,3.2
		C262.6,302,260.3,301.9,259.7,301.7 M235,301.6c-1.1,1-3.9,0.6-5.4-0.5c-1.4-1.1,0.9-2.9,1.7-3C233.3,297.9,236.1,300.6,235,301.6
		 M212.1,312.7c-0.8,1.3-2.9,10.7-4.3,9.6c-1.4-1.1,0.6-10.9,1-11.7C211,306.5,215.8,306.7,212.1,312.7 M219.7,349.2
		c-5.5,0-10.8-0.8-15.7-2.3c-0.7-0.6-1.1-1.6-0.7-2.7c1.7-4.5,6.9-6.3,11-6.7c9.1-0.9,21,5.9,22.9,4.8c1.9-1.1,5.7-6.1,11.4-5.9
		c3.8,0.1,3.8,0.8,5.1,1.3C244.3,344.9,232.5,349.2,219.7,349.2 M259.2,332.9c-0.6-0.2-1.1-0.3-1.8-0.7c-3.1-1.6-2.7,0.9-4.2,0.4
		c-1.5-0.6,1.7-4.1-2.8-1.1c-4.5,2.9-3.3-0.5-5.2-5.4c-2-5,2.3-10.7,5.8-12c4.9-1.8,7.9-2.1,10.2-2.7c6.7-1.7,8.1-5.7,9.4-3.2
		c0.2,0.5,0.5,0.9,0.7,1.3c0.4,0.7,0.8,2.2,0.9,3.6C269.2,320.6,264.8,327.3,259.2,332.9 M274.6,304.6c-1.5-0.4-7.8-9.1-2.8-14.8
		c0.8-0.9-1.7-3.7-1-3.8c2.7-0.2,4.2,1.5,4.9,3.9c0.1,1.1,0.1,2.2,0.1,3.2C275.7,297.1,275.3,300.9,274.6,304.6"/>
	<polygon class="st1" points="126.9,102 126.9,188.5 112.3,188.5 112.3,122.3 112.2,122.3 102,132.9 101.9,132.9 101.9,117.7
		115.3,102 	"/>
	<path class="st1" d="M174.8,120.8v7.5c0,7.3-4,12.1-9.9,14c7.3,1.7,10.7,6.8,10.7,14.7v12.8c0,12-6.4,19.8-21,19.8
		c-14.8,0-20-8.4-20-21.6v-11.4h13.3V169c0,5.1,1.8,8.4,6.8,8.4c4.5,0,6.5-3.2,6.5-7.8v-14.3c0-4.6-2-7-7.1-7h-6.1v-11.1h5.5
		c4.7,0,7.8-2.4,7.8-7v-9.3c0-4.7-1.7-7.8-6.2-7.8c-4.6,0-6.2,3.1-6.2,8.4v8.8h-13.3v-7.7c0-12.8,5.2-21.7,20.3-21.7
		C169,101,174.8,108.5,174.8,120.8"/>
	<path class="st1" d="M205.1,128.5V111c0-5.7,2.7-9.8,9.1-9.8c6.7,0,8.6,3.7,8.6,9.1v4.3h-5.5v-4.8c0-2.2-0.7-3.5-2.9-3.5
		c-2.2,0-3.1,1.5-3.1,3.7v19.4c0,2.2,0.9,3.7,3.1,3.7c2.2,0,2.9-1.4,2.9-3.5V123h5.5v6.2c0,5.2-2.1,9-8.6,9
		C207.8,138.2,205.1,134.1,205.1,128.5"/>
	<polygon class="st1" points="226,101.6 232.1,101.6 232.1,132.9 239.4,132.9 239.4,137.8 226,137.8 	"/>
	<rect x="242.2" y="101.6" class="st1" width="6.1" height="36.2"/>
	<polygon class="st1" points="268.5,114.3 268.3,114.3 264.2,137.8 261.4,137.8 256.9,114.3 256.8,114.3 256.8,137.8 251.8,137.8
		251.8,101.6 258.8,101.6 262.8,122 262.9,122 266.4,101.6 274.1,101.6 274.1,137.8 268.5,137.8 	"/>
	<path class="st1" d="M276.6,137.8l6.8-36.2h6.9l6.9,36.2H291l-1.1-6.6h-6.5l-1.1,6.6H276.6z M284.2,126.3h4.9l-2.4-14.5h-0.1
		L284.2,126.3z"/>
	<polygon class="st1" points="296.3,101.6 312.5,101.6 312.5,106.6 307.5,106.6 307.5,137.8 301.4,137.8 301.4,106.6 296.3,106.6
		"/>
	<polygon class="st1" points="315.3,101.6 329.8,101.6 329.8,106.6 321.4,106.6 321.4,116.9 327.4,116.9 327.4,121.9 321.4,121.9
		321.4,132.9 329.8,132.9 329.8,137.8 315.3,137.8 	"/>
	<path class="st1" d="M204.1,188.5l6.8-36.2h6.9l6.9,36.2h-6.2l-1.1-6.6H211l-1.1,6.6H204.1z M211.8,177h4.9l-2.4-14.5h-0.1
		L211.8,177z"/>
	<path class="st1" d="M226.5,179.1v-17.5c0-5.7,2.7-9.8,9.1-9.8c6.7,0,8.6,3.7,8.6,9.1v4.3h-5.5v-4.8c0-2.2-0.7-3.5-2.9-3.5
		s-3.1,1.5-3.1,3.7v19.4c0,2.2,0.9,3.7,3.1,3.7s2.9-1.4,2.9-3.5v-6.7h5.5v6.2c0,5.2-2.1,9-8.6,9
		C229.1,188.9,226.5,184.7,226.5,179.1"/>
	<polygon class="st1" points="246.2,152.3 262.4,152.3 262.4,157.3 257.4,157.3 257.4,188.5 251.2,188.5 251.2,157.3 246.2,157.3
		"/>
	<rect x="265.2" y="152.3" class="st1" width="6.1" height="36.2"/>
	<path class="st1" d="M274.8,179.1v-17.5c0-5.7,2.8-9.8,9.2-9.8c6.5,0,9.2,4.1,9.2,9.8v17.5c0,5.6-2.8,9.8-9.2,9.8
		C277.6,188.9,274.8,184.7,274.8,179.1 M287.1,180.1v-19.4c0-2.2-1-3.7-3.1-3.7c-2.1,0-3.1,1.5-3.1,3.7v19.4c0,2.2,1,3.7,3.1,3.7
		C286.2,183.8,287.1,182.3,287.1,180.1"/>
	<polygon class="st1" points="301.8,165.8 301.8,188.5 296.7,188.5 296.7,152.3 302.6,152.3 309.2,173.1 309.2,152.3 314.3,152.3
		314.3,188.5 308.9,188.5 	"/>
</g>
</svg>
