<?xml version="1.0" encoding="utf-8"?>
<!-- Generator: Adobe Illustrator 23.0.3, SVG Export Plug-In . SVG Version: 6.00 Build 0)  -->
<svg version="1.1" id="Layer_1" xmlns="http://www.w3.org/2000/svg" xmlns:xlink="http://www.w3.org/1999/xlink" x="0px" y="0px"
	 viewBox="0 0 431.7 431.7" style="enable-background:new 0 0 431.7 431.7;" xml:space="preserve">
<style type="text/css">
	.st0{fill:#1D3766;}
	.st1{fill:#FFFFFF;}
	.st2{font-family:'BebasNeue-Bold';}
	.st3{font-size:53.4538px;}
</style>
<title>ods17</title>
<g>
	<g id="Capa_1">
		<g id="_Group_">
			<path id="_Path_" class="st0" d="M215.9,431.7c119.2,0,215.9-96.6,215.9-215.9S335.1,0,215.9,0S0,96.7,0,215.9
				S96.6,431.7,215.9,431.7"/>
			<path id="_Compound_Path_" class="st1" d="M227.5,335c5.7-5.3,9-12.8,9-20.6c0-1.2-0.1-2.4-0.2-3.6c12.3,1.3,21.2,12.4,19.9,24.7
				c-0.6,5.5-3.2,10.6-7.3,14.3C244.6,341.7,236.6,336.2,227.5,335 M246.6,363c0,12.4-10,22.4-22.4,22.4c-3.9,0-7.7-1-11.1-3
				c6.3-6.6,8.9-15.8,7.2-24.7c8,4.5,17.7,4.7,25.9,0.7C246.4,360,246.5,361.5,246.6,363 M170.1,363.2c0-1.6,0.2-3.1,0.5-4.6
				c8.2,4,17.8,3.7,25.8-0.7c-1.7,9,1.1,18.2,7.5,24.7c-10.7,6.3-24.4,2.7-30.7-8C171.2,371.1,170.1,367.1,170.1,363.2 M160.4,333.1
				c0-11.5,8.7-21.1,20.1-22.3c-0.2,1.2-0.2,2.4-0.2,3.6c0,7.9,3.3,15.5,9.2,20.8c-9.1,1.1-17.2,6.5-21.6,14.6
				C163.1,345.5,160.4,339.5,160.4,333.1 M208.4,292c8.9,0,17,5.3,20.6,13.5c-9,1.6-16.7,7.5-20.6,15.8
				c-3.9-8.3-11.6-14.2-20.6-15.8C191.3,297.3,199.4,292,208.4,292 M213.7,343.1c10.9-5.7,24.5-1.5,30.2,9.4
				c0.1,0.2,0.2,0.4,0.3,0.6c-10.9,5.7-24.5,1.5-30.2-9.4C213.9,343.5,213.8,343.3,213.7,343.1 M202.9,343.2
				c-5.5,11.1-18.9,15.6-30,10.1c-0.1-0.1-0.3-0.1-0.4-0.2c5.5-11.1,18.9-15.6,30-10.1C202.7,343.1,202.8,343.2,202.9,343.2
				 M186.2,311c11,1.6,19.1,11.1,19.1,22.2c0,1.2-0.1,2.3-0.3,3.5c-12.2-1.7-20.7-13-18.9-25.1C186.1,311.3,186.2,311.2,186.2,311
				 M208.5,379.1c-8.9-8.6-9.1-22.8-0.5-31.7c0.1-0.1,0.2-0.2,0.3-0.3c8.9,8.6,9.1,22.8,0.5,31.7
				C208.7,378.8,208.6,378.9,208.5,379.1 M230.8,314.5c0,11.1-8.2,20.5-19.1,22.2c-2-12.1,6.2-23.6,18.4-25.6c0.2,0,0.3-0.1,0.5-0.1
				C230.7,312.1,230.8,313.3,230.8,314.5 M262,333.2c0-15.1-12-27.5-27.1-28.1c-5.2-14.6-21.3-22.3-35.9-17.1
				c-8,2.8-14.3,9.1-17.1,17.1c-15.5,0.6-27.6,13.6-27.1,29.1c0.3,8.3,4.3,16.1,10.8,21.2c-4.3,14.9,4.3,30.5,19.2,34.8
				c8.1,2.3,16.8,0.9,23.7-3.8c12.9,8.6,30.4,5.2,39-7.7c4.6-6.8,5.9-15.3,3.7-23.3C258,350,262,341.8,262,333.2"/>
		</g>
	</g>
</g>
<text transform="matrix(1 0 0 1 139 139.9097)"><tspan x="0" y="0" class="st1 st2 st3">Partnerships </tspan><tspan x="0" y="50.8" class="st1 st2 st3">to achieve </tspan><tspan x="0" y="101.5" class="st1 st2 st3">the objectives</tspan></text>
<polygon id="_Path_2" class="st1" points="84.9,102.5 84.9,191 70,191 70,123.2 69.9,123.2 59.5,134.1 59.3,134.1 59.3,118.5
	73,102.5 "/>
<polygon id="_Path_3" class="st1" points="91.7,102.5 129,102.5 129,116.2 109.6,191 94.8,191 114.7,114.6 91.7,114.6 "/>
</svg>
