<?xml version="1.0" encoding="utf-8"?>
<!-- Generator: Adobe Illustrator 23.0.3, SVG Export Plug-In . SVG Version: 6.00 Build 0)  -->
<svg version="1.1" id="Layer_1" xmlns="http://www.w3.org/2000/svg" xmlns:xlink="http://www.w3.org/1999/xlink" x="0px" y="0px"
	 viewBox="0 0 431.7 431.7" style="enable-background:new 0 0 431.7 431.7;" xml:space="preserve">
<style type="text/css">
	.st0{fill:#F49C08;}
	.st1{fill:#FFFFFF;}
</style>
<title>ods11</title>
<path class="st0" d="M216.5,430L216.5,430C98.6,430,3,334.4,3,216.5v0C3,98.6,98.6,3,216.5,3h0C334.4,3,430,98.6,430,216.5v0
	C430,334.4,334.4,430,216.5,430z"/>
<path class="st1" d="M109.8,322.2h0.5H159c0.7,0,1.2-0.5,1.2-1.2c0-0.3-0.1-0.6-0.3-0.8l-0.1-0.1l-24.5-31.7l-0.2-0.3
	c-0.2-0.2-0.5-0.4-0.9-0.4c-0.3,0-0.6,0.1-0.8,0.3l-0.1,0.2l-0.2,0.3l-23.9,31.4l-0.4,0.4c-0.1,0.2-0.2,0.4-0.2,0.7
	C108.6,321.7,109.1,322.2,109.8,322.2"/>
<path class="st1" d="M158.9,326.7h-49.3c-0.7,0-1.2,0.5-1.2,1.2v38.6c0,0.7,0.5,1.2,1.2,1.2h15.9v-24.3c0-0.7,0.5-1.2,1.2-1.2h14.7
	c0.7,0,1.2,0.5,1.2,1.2v24.3h16.3c0.7,0,1.2-0.5,1.2-1.2v-38.6C160.1,327.2,159.5,326.7,158.9,326.7"/>
<path class="st1" d="M329.3,316.6h-48.8c-0.7,0-1.2,0.5-1.2,1.2V367c0,0.6,0.5,1.2,1.2,1.2h48.8c0.7,0,1.2-0.5,1.2-1.2v-49.3
	C330.5,317.1,330,316.6,329.3,316.6 M302.6,348.7c0,0.6-0.5,1.2-1.2,1.2h-14.6c-0.7,0-1.2-0.5-1.2-1.2v-8.9c0-0.6,0.5-1.2,1.2-1.2
	h14.6c0.7,0,1.2,0.5,1.2,1.2V348.7z M302.6,332.4c0,0.6-0.5,1.2-1.2,1.2h-14.6c-0.7,0-1.2-0.5-1.2-1.2v-8.9c0-0.6,0.5-1.2,1.2-1.2
	h14.6c0.7,0,1.2,0.5,1.2,1.2V332.4z M324.9,348.7c0,0.6-0.5,1.2-1.2,1.2h-14.6c-0.7,0-1.2-0.5-1.2-1.2v-8.9c0-0.6,0.5-1.2,1.2-1.2
	h14.6c0.7,0,1.2,0.5,1.2,1.2V348.7z M324.9,332.4c0,0.6-0.5,1.2-1.2,1.2h-14.6c-0.7,0-1.2-0.5-1.2-1.2v-8.9c0-0.6,0.5-1.2,1.2-1.2
	h14.6c0.7,0,1.2,0.5,1.2,1.2V332.4z"/>
<path class="st1" d="M215.9,202.2h-47.8c-0.6,0-1.2,0.5-1.2,1.2v163.2c0,0.6,0.5,1.2,1.2,1.2h47.8c0.6,0,1.2-0.5,1.2-1.2V203.3
	C217,202.7,216.5,202.2,215.9,202.2 M187.4,349.1c0,0.3-0.3,0.6-0.6,0.6h-10.9c-0.3,0-0.6-0.3-0.6-0.6V337c0-0.3,0.3-0.6,0.6-0.6
	h10.9c0.3,0,0.6,0.3,0.6,0.6V349.1z M187.4,321.1c0,0.4-0.3,0.6-0.6,0.6h-10.9c-0.3,0-0.6-0.3-0.6-0.6V309c0-0.4,0.3-0.6,0.6-0.6
	h10.9c0.3,0,0.6,0.3,0.6,0.6V321.1z M187.4,293.2c0,0.3-0.3,0.6-0.6,0.6h-10.9c-0.3,0-0.6-0.3-0.6-0.6V281c0-0.3,0.3-0.6,0.6-0.6
	h10.9c0.3,0,0.6,0.3,0.6,0.6V293.2z M187.4,265.2c0,0.3-0.3,0.6-0.6,0.6h-10.9c-0.3,0-0.6-0.3-0.6-0.6V253c0-0.3,0.3-0.6,0.6-0.6
	h10.9c0.3,0,0.6,0.3,0.6,0.6V265.2z M187.4,237.2c0,0.3-0.3,0.6-0.6,0.6h-10.9c-0.3,0-0.6-0.3-0.6-0.6V225c0-0.3,0.3-0.6,0.6-0.6
	h10.9c0.3,0,0.6,0.3,0.6,0.6V237.2z M208.9,349.1c0,0.3-0.3,0.6-0.6,0.6h-10.9c-0.3,0-0.6-0.3-0.6-0.6V337c0-0.3,0.3-0.6,0.6-0.6
	h10.9c0.3,0,0.6,0.3,0.6,0.6V349.1z M208.9,321.1c0,0.4-0.3,0.6-0.6,0.6h-10.9c-0.3,0-0.6-0.3-0.6-0.6V309c0-0.4,0.3-0.6,0.6-0.6
	h10.9c0.3,0,0.6,0.3,0.6,0.6V321.1z M208.9,293.2c0,0.3-0.3,0.6-0.6,0.6h-10.9c-0.3,0-0.6-0.3-0.6-0.6V281c0-0.3,0.3-0.6,0.6-0.6
	h10.9c0.3,0,0.6,0.3,0.6,0.6V293.2z M208.9,265.2c0,0.3-0.3,0.6-0.6,0.6h-10.9c-0.3,0-0.6-0.3-0.6-0.6V253c0-0.3,0.3-0.6,0.6-0.6
	h10.9c0.3,0,0.6,0.3,0.6,0.6V265.2z M208.9,237.2c0,0.3-0.3,0.6-0.6,0.6h-10.9c-0.3,0-0.6-0.3-0.6-0.6V225c0-0.3,0.3-0.6,0.6-0.6
	h10.9c0.3,0,0.6,0.3,0.6,0.6V237.2z"/>
<path class="st1" d="M330.5,311.6c0,0.5-0.4,1-1,1h-49.1c-0.5,0-1-0.4-1-1v-9.8c0-0.5,0.4-1,1-1h49.1c0.5,0,1,0.4,1,1V311.6z"/>
<path class="st1" d="M273.6,233c-0.2-0.5-0.6-0.9-1.2-0.9c-0.3,0-0.5,0.1-0.7,0.2c0,0-0.1,0-0.1,0.1l-0.4,0.5l-46.9,59.6l-0.2,0.3
	c-0.2,0.2-0.4,0.6-0.4,0.9v0.1v73.1c0,0.6,0.5,1.2,1.2,1.2h47.7c0.6,0,1.2-0.5,1.2-1.2V233.5C273.7,233.3,273.6,233.1,273.6,233
	 M253.8,265.3l0.3-0.4c3.2-4.1,8.6-10.8,11.3-14l0.3-0.4c0.2-0.3,0.6-0.5,1-0.5c0.7,0,1.2,0.5,1.3,1.1v0.5v0.4v14.1
	c0,0.7-0.6,1.3-1.3,1.3c0,0,0,0-0.1,0c0,0,0,0-0.1,0h-11.2h-0.6c0,0,0,0-0.1,0c0,0,0,0-0.1,0c-0.7,0-1.3-0.6-1.3-1.3
	C253.5,265.8,253.6,265.5,253.8,265.3 M246.4,348.7c0,0.6-0.5,1.2-1.2,1.2H231c-0.6,0-1.2-0.5-1.2-1.2v-8.9c0-0.6,0.5-1.2,1.2-1.2
	h14.2c0.6,0,1.2,0.5,1.2,1.2V348.7z M246.4,332.3c0,0.6-0.5,1.2-1.2,1.2H231c-0.6,0-1.2-0.5-1.2-1.2v-8.9c0-0.7,0.5-1.2,1.2-1.2
	h14.2c0.6,0,1.2,0.5,1.2,1.2V332.3z M246.4,315.8c0,0.6-0.5,1.2-1.2,1.2H231c-0.6,0-1.2-0.5-1.2-1.2v-8.9c0-0.6,0.5-1.2,1.2-1.2
	h14.2c0.6,0,1.2,0.5,1.2,1.2V315.8z M246.4,279.7v0.4v19.2c0,0.6-0.5,1.2-1.2,1.2H231c-0.7,0-1.2-0.5-1.2-1.2V297v-0.1
	c0-0.2,0-0.3,0.1-0.4c0,0,0-0.1,0.1-0.1c0-0.1,0.1-0.1,0.1-0.2c0-0.1,0.1-0.1,0.1-0.2c1.8-2.6,10-12.7,13.5-16.9l0.3-0.4
	c0.3-0.3,0.6-0.5,1-0.5c0.7,0,1.2,0.5,1.3,1.1V279.7z M268.1,348.7c0,0.6-0.5,1.2-1.2,1.2h-14.2c-0.7,0-1.2-0.5-1.2-1.2v-8.9
	c0-0.6,0.5-1.2,1.2-1.2H267c0.6,0,1.2,0.5,1.2,1.2V348.7z M268.1,332.3c0,0.6-0.5,1.2-1.2,1.2h-14.2c-0.7,0-1.2-0.5-1.2-1.2v-8.9
	c0-0.7,0.5-1.2,1.2-1.2H267c0.6,0,1.2,0.5,1.2,1.2V332.3z M268.1,315.8c0,0.6-0.5,1.2-1.2,1.2h-14.2c-0.7,0-1.2-0.5-1.2-1.2v-8.9
	c0-0.6,0.5-1.2,1.2-1.2H267c0.6,0,1.2,0.5,1.2,1.2V315.8z M268.1,299.3c0,0.6-0.5,1.2-1.2,1.2h-14.2c-0.7,0-1.2-0.5-1.2-1.2v-8.9
	c0-0.6,0.5-1.2,1.2-1.2H267c0.6,0,1.2,0.5,1.2,1.2V299.3z M268.1,282.9c0,0.6-0.5,1.2-1.2,1.2h-14.2c-0.7,0-1.2-0.5-1.2-1.2v-8.9
	c0-0.7,0.5-1.2,1.2-1.2H267c0.6,0,1.2,0.5,1.2,1.2V282.9z"/>
<polygon class="st1" points="75.5,116.8 75.5,128.7 75.6,128.7 83.6,120.4 83.7,120.4 83.7,172 95,172 95,104.6 86,104.6 "/>
<polygon class="st1" points="101.4,116.8 101.4,128.7 101.5,128.7 109.4,120.4 109.5,120.4 109.5,172 120.8,172 120.8,104.6
	111.8,104.6 "/>
<path class="st1" d="M128.3,126.8V123h4.4v3.9c0,1.6,0.7,2.5,2.3,2.5c1.5,0,2.2-1,2.2-2.5v-1.1c0-1.6-0.7-2.6-2.1-4l-2.8-2.8
	c-2.7-2.7-3.9-4.3-3.9-7.5v-1c0-3.5,2-6.2,6.6-6.2c4.7,0,6.6,2.3,6.6,6.4v2.3h-4.3v-2.5c0-1.6-0.7-2.4-2.2-2.4
	c-1.3,0-2.2,0.7-2.2,2.3v0.6c0,1.6,0.9,2.5,2.2,3.8l3,3c2.6,2.6,3.8,4.2,3.8,7.3v1.4c0,3.9-2.1,6.6-6.9,6.6
	C130.2,133.2,128.3,130.5,128.3,126.8"/>
<path class="st1" d="M157.6,104.7V126c0,4.4-1.9,7.2-6.7,7.2c-5,0-7.1-2.8-7.1-7.2v-21.3h4.7v21.8c0,1.7,0.7,2.8,2.3,2.8
	c1.7,0,2.3-1.1,2.3-2.8v-21.8H157.6z"/>
<path class="st1" d="M159.6,126.8V123h4.4v3.9c0,1.6,0.7,2.5,2.3,2.5c1.5,0,2.2-1,2.2-2.5v-1.1c0-1.6-0.7-2.6-2.1-4l-2.8-2.8
	c-2.7-2.7-3.9-4.3-3.9-7.5v-1c0-3.5,2-6.2,6.6-6.2c4.7,0,6.6,2.3,6.6,6.4v2.3h-4.3v-2.5c0-1.6-0.7-2.4-2.2-2.4
	c-1.3,0-2.2,0.7-2.2,2.3v0.6c0,1.6,0.9,2.5,2.2,3.8l3,3c2.6,2.6,3.8,4.2,3.8,7.3v1.4c0,3.9-2.1,6.6-6.9,6.6
	C161.5,133.2,159.6,130.5,159.6,126.8"/>
<polygon class="st1" points="174.1,104.7 186.7,104.7 186.7,108.5 182.8,108.5 182.8,132.8 178,132.8 178,108.5 174.1,108.5 "/>
<path class="st1" d="M185.6,132.8l5.3-28.2h5.4l5.4,28.2h-4.9l-0.9-5.1h-5l-0.8,5.1H185.6z M191.5,123.9h3.8l-1.9-11.3h0
	L191.5,123.9z"/>
<rect x="203.2" y="104.7" class="st1" width="4.7" height="28.2"/>
<polygon class="st1" points="214.2,115.1 214.2,132.8 210.2,132.8 210.2,104.7 214.8,104.7 219.9,120.8 219.9,104.7 223.9,104.7
	223.9,132.8 219.7,132.8 "/>
<path class="st1" d="M225.4,132.8l5.3-28.2h5.4l5.4,28.2h-4.9l-0.9-5.1h-5l-0.8,5.1H225.4z M231.3,123.9h3.8l-1.9-11.3h0
	L231.3,123.9z"/>
<path class="st1" d="M242.9,104.7h6.9c4.7,0,6.3,2.2,6.3,6.2v2.9c0,2.4-0.9,3.9-2.8,4.5c2.4,0.5,3.5,2.1,3.5,4.7v3.7
	c0,4-1.8,6.2-6.5,6.2h-7.4V104.7z M247.7,116.6h1.7c1.5,0,2.2-0.8,2.2-2.3v-3.4c0-1.5-0.7-2.3-2.3-2.3h-1.6V116.6z M247.7,120.2v8.8
	h2.1c1.6,0,2.3-0.8,2.3-2.3v-4.2c0-1.5-0.7-2.3-2.4-2.3H247.7z"/>
<polygon class="st1" points="258.7,104.7 263.5,104.7 263.5,129 269.1,129 269.1,132.8 258.7,132.8 "/>
<polygon class="st1" points="270.8,104.7 282.1,104.7 282.1,108.5 275.5,108.5 275.5,116.6 280.2,116.6 280.2,120.4 275.5,120.4
	275.5,129 282.1,129 282.1,132.8 270.8,132.8 "/>
<path class="st1" d="M288.1,125.6v-13.6c0-4.4,2.1-7.6,7.1-7.6c5.2,0,6.7,2.9,6.7,7.1v3.3h-4.3V111c0-1.7-0.6-2.7-2.3-2.7
	c-1.7,0-2.4,1.2-2.4,2.9v15.1c0,1.7,0.7,2.9,2.4,2.9c1.7,0,2.3-1.1,2.3-2.7v-5.2h4.3v4.9c0,4-1.7,7-6.7,7
	C290.2,133.2,288.1,129.9,288.1,125.6"/>
<rect x="304" y="104.7" class="st1" width="4.7" height="28.2"/>
<polygon class="st1" points="310.4,104.7 323,104.7 323,108.5 319.1,108.5 319.1,132.8 314.3,132.8 314.3,108.5 310.4,108.5 "/>
<rect x="324.8" y="104.7" class="st1" width="4.7" height="28.2"/>
<polygon class="st1" points="331.8,104.7 343.1,104.7 343.1,108.5 336.5,108.5 336.5,116.6 341.2,116.6 341.2,120.4 336.5,120.4
	336.5,129 343.1,129 343.1,132.8 331.8,132.8 "/>
<path class="st1" d="M344.7,126.8V123h4.4v3.9c0,1.6,0.7,2.5,2.3,2.5c1.5,0,2.2-1,2.2-2.5v-1.1c0-1.6-0.7-2.6-2.1-4l-2.8-2.8
	c-2.7-2.7-3.9-4.3-3.9-7.5v-1c0-3.5,2-6.2,6.6-6.2c4.7,0,6.6,2.3,6.6,6.4v2.3h-4.3v-2.5c0-1.6-0.7-2.4-2.2-2.4
	c-1.3,0-2.2,0.7-2.2,2.3v0.6c0,1.6,0.9,2.5,2.2,3.8l3,3c2.6,2.6,3.8,4.2,3.8,7.3v1.4c0,3.9-2.1,6.6-6.9,6.6
	C346.6,133.2,344.7,130.5,344.7,126.8"/>
<path class="st1" d="M127.8,172.3l5.3-28.2h5.4l5.4,28.2H139l-0.9-5.1h-5l-0.8,5.1H127.8z M133.7,163.4h3.8l-1.9-11.3h0L133.7,163.4
	z"/>
<polygon class="st1" points="149.3,154.6 149.3,172.3 145.4,172.3 145.4,144.1 150,144.1 155.1,160.3 155.1,144.1 159.1,144.1
	159.1,172.3 154.9,172.3 "/>
<path class="st1" d="M175.5,151.7v13c0,4.3-1.8,7.6-6.9,7.6h-7.3v-28.2h7.3C173.7,144.1,175.5,147.3,175.5,151.7 M168,168.4
	c2,0,2.7-1.2,2.7-2.9v-14.7c0-1.7-0.7-2.8-2.7-2.8h-2v20.4H168z"/>
<path class="st1" d="M181.6,165v-13.6c0-4.4,2.1-7.6,7.1-7.6c5.2,0,6.7,2.9,6.7,7.1v3.3H191v-3.7c0-1.7-0.6-2.7-2.3-2.7
	c-1.7,0-2.4,1.2-2.4,2.9v15.1c0,1.7,0.7,2.9,2.4,2.9c1.7,0,2.3-1.1,2.3-2.7v-5.2h4.3v4.9c0,4-1.7,7-6.7,7
	C183.7,172.6,181.6,169.4,181.6,165"/>
<path class="st1" d="M197.5,165v-13.6c0-4.4,2.2-7.6,7.1-7.6c5,0,7.2,3.2,7.2,7.6V165c0,4.4-2.2,7.6-7.2,7.6
	C199.6,172.6,197.5,169.4,197.5,165 M207.1,165.8v-15.1c0-1.7-0.7-2.9-2.5-2.9c-1.7,0-2.4,1.2-2.4,2.9v15.1c0,1.7,0.8,2.9,2.4,2.9
	C206.3,168.7,207.1,167.5,207.1,165.8"/>
<polygon class="st1" points="227.1,154 227,154 223.8,172.3 221.6,172.3 218,154 217.9,154 217.9,172.3 214,172.3 214,144.1
	219.6,144.1 222.6,160 222.7,160 225.4,144.1 231.4,144.1 231.4,172.3 227.1,172.3 "/>
<polygon class="st1" points="246.7,154 246.6,154 243.4,172.3 241.2,172.3 237.6,154 237.5,154 237.5,172.3 233.6,172.3
	233.6,144.1 239.2,144.1 242.2,160 242.3,160 245,144.1 251,144.1 251,172.3 246.7,172.3 "/>
<path class="st1" d="M267,144.1v21.3c0,4.4-1.9,7.2-6.7,7.2c-5,0-7.1-2.8-7.1-7.2v-21.3h4.7v21.8c0,1.7,0.7,2.8,2.3,2.8
	c1.7,0,2.3-1.1,2.3-2.8v-21.8H267z"/>
<polygon class="st1" points="273.2,154.6 273.2,172.3 269.2,172.3 269.2,144.1 273.9,144.1 279,160.3 279,144.1 282.9,144.1
	282.9,172.3 278.8,172.3 "/>
<rect x="285.2" y="144.1" class="st1" width="4.7" height="28.2"/>
<polygon class="st1" points="291.7,144.1 304.2,144.1 304.2,148 300.3,148 300.3,172.3 295.6,172.3 295.6,148 291.7,148 "/>
<rect x="306" y="144.1" class="st1" width="4.7" height="28.2"/>
<polygon class="st1" points="313,144.1 324.3,144.1 324.3,148 317.7,148 317.7,156 322.4,156 322.4,159.9 317.7,159.9 317.7,168.4
	324.3,168.4 324.3,172.3 313,172.3 "/>
<path class="st1" d="M325.9,166.2v-3.8h4.4v3.9c0,1.6,0.7,2.5,2.3,2.5c1.5,0,2.2-1,2.2-2.5v-1.1c0-1.6-0.7-2.6-2.1-4l-2.8-2.8
	c-2.7-2.7-3.9-4.3-3.9-7.5v-1c0-3.5,2-6.2,6.6-6.2c4.7,0,6.6,2.3,6.6,6.4v2.3h-4.3V150c0-1.6-0.7-2.4-2.2-2.4
	c-1.3,0-2.2,0.7-2.2,2.3v0.6c0,1.6,0.9,2.5,2.2,3.8l3,3c2.6,2.6,3.8,4.2,3.8,7.3v1.4c0,3.9-2.1,6.6-6.9,6.6
	C327.8,172.6,325.9,169.9,325.9,166.2"/>
</svg>
