<?xml version="1.0" encoding="utf-8"?>
<!-- Generator: Adobe Illustrator 23.0.3, SVG Export Plug-In . SVG Version: 6.00 Build 0)  -->
<svg version="1.1" id="Layer_1" xmlns="http://www.w3.org/2000/svg" xmlns:xlink="http://www.w3.org/1999/xlink" x="0px" y="0px"
	 viewBox="0 0 431.7 431.7" style="enable-background:new 0 0 431.7 431.7;" xml:space="preserve">
<style type="text/css">
	.st0{fill:#E1061F;}
	.st1{fill:#FFFFFF;}
	.st2{fill:none;stroke:#FFFFFF;stroke-width:5.0514;stroke-linecap:round;stroke-miterlimit:10;}
</style>
<title>ods1</title>
<g>
	<path class="st0" d="M216.2,431L216.2,431C97.8,431,1.8,334.9,1.8,216.5v0C1.8,98,97.8,2,216.2,2h0c118.5,0,214.5,96,214.5,214.5v0
		C430.7,334.9,334.7,431,216.2,431z"/>
	<path class="st1" d="M332.1,206.7c0-6.6,5.3-11.9,11.9-11.9c6.5,0,11.9,5.3,11.9,11.9c0,6.6-5.3,11.9-11.9,11.9
		C337.4,218.5,332.1,213.2,332.1,206.7"/>
	<path class="st1" d="M357.9,223.1c8.1,0.7,14.4,7.5,14.4,15.8v3.9v1.7v27.2c0,2.5-2.1,4.6-4.6,4.6c-2.6,0-4.6-2.1-4.6-4.6v-28.3
		c0-1.1-0.3-2.5-2.2-2.5c-1.3,0-1.6,1.4-1.7,2.3v84.7c0,3.6-3,6.6-6.6,6.6c-3.7,0-6.6-3-6.6-6.6v-48.8c0-0.5-0.2-1.9-1.9-1.9h0
		c-1.7,0-1.9,1.4-1.9,1.9v48.8c0,3.6-2.9,6.6-6.6,6.6c-3.7,0-6.6-3-6.6-6.6v-84.7c0-0.9-0.3-2.3-1.7-2.3c-2,0-2.2,1.4-2.2,2.5v28.3
		c0,2.5-2.1,4.6-4.6,4.6c-2.5,0-4.6-2.1-4.6-4.6v-27.2v-1.7v-3.9c0-8.3,6.3-15,14.4-15.8c0.3,0,0.6-0.1,0.9-0.1h13h13
		C357.3,223,357.6,223.1,357.9,223.1"/>
	<path class="st1" d="M261.5,212.9c0-6.2-5-11.3-11.2-11.3c-6.2,0-11.3,5-11.3,11.3c0,6.2,5,11.2,11.3,11.2
		C256.5,224.1,261.5,219.1,261.5,212.9"/>
	<path class="st1" d="M227.6,238.4l-9.3,30.4c0,0-1.7,5.6,3.1,7c4.7,1.4,6.1-4.1,6.1-4.1l7.5-25.4c0,0,0.4-2,1.9-1.5
		c1.5,0.4,0.9,2.5,0.9,2.5l-13.1,47.6h12.2V329c0,3.2,2.6,5.9,5.9,5.9c3.2,0,5.9-2.6,5.9-5.9v-34.1h1.7h1.7V329
		c0,3.2,2.6,5.9,5.9,5.9c3.2,0,5.9-2.6,5.9-5.9v-34.1h12.2l-13.1-47.6c0,0-0.6-2.1,0.9-2.5c1.5-0.4,1.9,1.5,1.9,1.5l7.5,25.4
		c0,0,1.4,5.4,6.1,4.1c4.7-1.4,3.1-7,3.1-7l-9.3-30.4c0,0-3.3-8.8-10.7-8.8h-11.9h-11.9C230.9,229.6,227.6,238.4,227.6,238.4"/>
	<path class="st1" d="M194.1,212.9c0-6.2-5-11.3-11.2-11.3c-6.2,0-11.2,5-11.2,11.3c0,6.2,5,11.2,11.2,11.2
		C189.1,224.1,194.1,219.1,194.1,212.9"/>
	<path class="st1" d="M160.2,238.4l-9.3,30.4c0,0-1.7,5.6,3.1,7c4.7,1.4,6.1-4.1,6.1-4.1l7.5-25.4c0,0,0.4-2,1.9-1.5
		c1.5,0.4,0.9,2.5,0.9,2.5l-13.1,47.6h12.2V329c0,3.2,2.6,5.9,5.9,5.9c3.2,0,5.9-2.6,5.9-5.9v-34.1h1.7h1.7V329
		c0,3.2,2.6,5.9,5.9,5.9c3.2,0,5.9-2.6,5.9-5.9v-34.1h12.2l-13.1-47.6c0,0-0.6-2.1,0.9-2.5c1.5-0.4,1.9,1.5,1.9,1.5l7.5,25.4
		c0,0,1.4,5.4,6.1,4.1c4.7-1.4,3.1-7,3.1-7l-9.3-30.4c0,0-3.3-8.8-10.7-8.8h-11.9H171C163.6,229.6,160.2,238.4,160.2,238.4"/>
	<path class="st1" d="M299.3,275.8c5.2,0,9.4-4.2,9.4-9.4c0-5.2-4.2-9.4-9.4-9.4s-9.4,4.2-9.4,9.4
		C289.9,271.6,294.1,275.8,299.3,275.8"/>
	<path class="st1" d="M276.8,304.9c-0.5,1.1-0.8,3.4,1.4,4.4c2.6,1.2,4-1.3,4-1.3l5.1-16.2c0,0,0.9-1.1,0.9,0V330h0
		c0,2.7,2.1,4.8,4.8,4.8c2.7,0,4.8-2.1,4.8-4.8V315c0,0-0.3-2.1,1.4-2.1c1.7,0,1.5,2.1,1.5,2.1V330c0,2.7,2.2,4.8,4.8,4.8
		c2.6,0,4.8-2.1,4.8-4.8v-38.2c0-1.1,0.6-0.3,0.6-0.3l4,11.1c0,0,1.7,5,2.3,5.2c1.8,0.8,3.9-0.1,4.6-1.9c0.5-1.2,0.3-2.5-0.4-3.4
		l0,0c-0.1-0.4-6-14.7-6.6-16.7c-2.1-6.2-6-6.1-9.7-6.2c-3.7-0.1-5.9,0-5.9,0s-2.4-0.1-7.2,0c-4.9,0.2-6.4,2.7-11.8,16.5
		C279.4,298.1,276.8,304.5,276.8,304.9L276.8,304.9z"/>
	<path class="st1" d="M93.7,206.7c0-6.6-5.3-11.9-11.9-11.9c-6.6,0-11.9,5.3-11.9,11.9c0,6.6,5.3,11.9,11.9,11.9
		C88.4,218.5,93.7,213.2,93.7,206.7"/>
	<path class="st1" d="M68,223.1c-8.1,0.7-14.4,7.5-14.4,15.8v3.9v1.7v27.2c0,2.5,2.1,4.6,4.6,4.6c2.5,0,4.6-2.1,4.6-4.6v-28.3
		c0-1.1,0.3-2.5,2.2-2.5c1.3,0,1.6,1.4,1.7,2.3v84.7c0,3.6,2.9,6.6,6.6,6.6c3.7,0,6.6-3,6.6-6.6v-48.8c0-0.5,0.2-1.9,1.9-1.9h0
		c1.7,0,1.9,1.4,1.9,1.9v48.8c0,3.6,3,6.6,6.6,6.6c3.7,0,6.6-3,6.6-6.6v-84.7c0-0.9,0.3-2.3,1.7-2.3c2,0,2.2,1.4,2.2,2.5v28.3
		c0,2.5,2.1,4.6,4.6,4.6s4.6-2.1,4.6-4.6v-27.2v-1.7v-3.9c0-8.3-6.3-15-14.4-15.8c-0.3,0-0.6-0.1-0.9-0.1h-13h-13
		C68.5,223,68.2,223.1,68,223.1"/>
	<line class="st2" x1="57.6" y1="276.6" x2="47.1" y2="332.5"/>
	<path class="st1" d="M115.7,270.9c-0.6-1-1.7-1.6-2.9-1.6c-1.9,0-3.4,1.5-3.4,3.4c0,0.5,0.3,1.5,0.3,1.5l9.4,17.1
		c0,0,0.6,1.2,0.6,2.3v36.7h0c0,2.6,2.1,4.6,4.6,4.6c2.5,0,4.6-2.1,4.6-4.6v-14.5c0,0-0.3-2,1.4-2c1.6,0,1.4,2,1.4,2v14.5
		c0,2.6,2.1,4.6,4.6,4.6c2.5,0,4.6-2.1,4.6-4.6v-36.7c0-1.1,0.6-2.3,0.6-2.3l8.7-15.8c0,0,1.1-2.3,1.1-2.8c0-1.9-1.5-3.4-3.4-3.4
		c-1.2,0-2.3,0.6-2.9,1.6l0,0c-0.3,0.2-4.6,8-6.1,9.5c-1.5,1.5-2.9,1.4-2.9,1.4h-5.7h-5.7c0,0-1.4,0.2-2.9-1.4
		C120.4,278.9,116,271.1,115.7,270.9L115.7,270.9z"/>
	<path class="st1" d="M130.4,275.8c5.2,0,9.4-4.2,9.4-9.4c0-5.2-4.2-9.4-9.4-9.4c-5.2,0-9.4,4.2-9.4,9.4
		C121,271.6,125.2,275.8,130.4,275.8"/>
	<polygon class="st1" points="130.4,289 141,296.7 146,315.2 130.4,315.2 114.8,315.2 119.8,296.7 	"/>
	<polygon class="st1" points="139.3,97.9 139.4,97.9 139.4,164.1 153.9,164.1 153.9,77.6 142.3,77.6 128.9,93.3 128.9,108.5
		129.1,108.5 	"/>
	<polygon class="st1" points="173.2,91.9 173.2,114.6 168,114.6 168,78.4 174,78.4 180.6,99.2 180.6,78.4 185.6,78.4 185.6,114.6
		180.3,114.6 	"/>
	<path class="st1" d="M189.1,105.3V87.8c0-5.7,2.8-9.8,9.2-9.8c6.5,0,9.2,4.1,9.2,9.8v17.5c0,5.6-2.8,9.8-9.2,9.8
		C191.9,115,189.1,110.9,189.1,105.3 M201.4,106.2V86.8c0-2.2-1-3.7-3.1-3.7c-2.1,0-3.1,1.5-3.1,3.7v19.4c0,2.2,1,3.7,3.1,3.7
		C200.5,109.9,201.4,108.4,201.4,106.2"/>
	<path class="st1" d="M168,129.1h9c6.1,0,8.4,3,8.4,8.1v7.6c0,5.1-2.2,8.2-8.4,8.2h-2.9v12.3H168V129.1z M174.1,134v14.2h2.2
		c2.1,0,3-1,3-3V137c0-2-0.9-2.9-3-2.9H174.1z"/>
	<path class="st1" d="M188.6,155.9v-17.5c0-5.7,2.8-9.8,9.2-9.8c6.5,0,9.2,4.1,9.2,9.8v17.5c0,5.6-2.8,9.8-9.2,9.8
		C191.3,165.7,188.6,161.5,188.6,155.9 M200.9,156.9v-19.4c0-2.2-1-3.7-3.1-3.7c-2.1,0-3.1,1.5-3.1,3.7v19.4c0,2.2,1,3.7,3.1,3.7
		C199.9,160.6,200.9,159,200.9,156.9"/>
	<polygon class="st1" points="228.8,129.1 221.9,165.2 215.3,165.2 208.5,129.1 214.6,129.1 218.8,154.3 218.9,154.3 223.1,129.1
		"/>
	<polygon class="st1" points="231.3,129.1 245.8,129.1 245.8,134 237.4,134 237.4,144.4 243.4,144.4 243.4,149.3 237.4,149.3
		237.4,160.3 245.8,160.3 245.8,165.2 231.3,165.2 	"/>
	<path class="st1" d="M255.2,148.6v16.6h-6.1v-36.2h8.9c6.1,0,8.4,3,8.4,8.1v4.6c0,3.9-1.4,6.2-4.9,7l5.8,16.4h-6.4L255.2,148.6z
		 M255.2,134v11.2h2c2.1,0,3-1.1,3-3V137c0-2-0.9-2.9-3-2.9H255.2z"/>
	<polygon class="st1" points="268.4,129.1 284.5,129.1 284.5,134 279.5,134 279.5,165.2 273.4,165.2 273.4,134 268.4,134 	"/>
	<polygon class="st1" points="299.2,151.5 299.2,165.2 293.1,165.2 293.1,151.5 286.3,129.1 292.7,129.1 296.4,142.8 296.4,142.8
		300.1,129.1 305.9,129.1 	"/>
</g>
</svg>
