<?xml version="1.0" encoding="utf-8"?>
<!-- Generator: Adobe Illustrator 23.0.3, SVG Export Plug-In . SVG Version: 6.00 Build 0)  -->
<svg version="1.1" id="Layer_1" xmlns="http://www.w3.org/2000/svg" xmlns:xlink="http://www.w3.org/1999/xlink" x="0px" y="0px"
	 viewBox="0 0 431.7 431.7" style="enable-background:new 0 0 431.7 431.7;" xml:space="preserve">
<style type="text/css">
	.st0{fill:#D18C0E;}
	.st1{fill:#FFFFFF;}
</style>
<title>ods12</title>
<path class="st0" d="M216.2,430L216.2,430C97.9,430,2,334.1,2,215.8v0C2,97.5,97.9,1.5,216.2,1.5h0c118.3,0,214.2,95.9,214.2,214.2
	v0C430.4,334.1,334.5,430,216.2,430z"/>
<path class="st1" d="M294.9,284.9c-13.4-10.6-31.2-10.8-37.8-9.3l-0.8,0.2c-7.5,1.8-19.5,4.7-33.5,22.1c-0.1,0.1-0.2,0.2-0.2,0.3
	l-0.2,0.2c-0.1,0.2-0.2,0.4-0.2,0.7c0,0.2,0.1,0.4,0.2,0.6l0.3,0.5c1.8,2.9,4,6.7,5.8,10.2c0,0,0,0.1,0.1,0.1
	c0.2,0.4,0.6,0.7,1.1,0.7c0.3,0,0.6-0.1,0.8-0.3c0.1-0.1,0.2-0.2,0.3-0.4c12.4-17.2,22.2-19.6,28.8-21.1l0.8-0.2
	c3.4-0.8,16.5-0.8,25.9,6.7c7.4,5.8,11.1,15,11.1,27.4c0,20.8-10.1,28.9-18.6,32.1c-13.2,4.9-25.8-1.7-25.9-1.7l-0.6-0.3
	c-7.2-3.1-18-9.7-28.2-30.1c-20.5-41.1-37.6-45-49-47.6l-0.6-0.1c-5.2-1.2-23.1-2-37.2,9.3c-7.4,5.9-16.1,17.3-16.1,38.3
	c0,12.8,2.6,21.3,9.4,30.2c1.5,2,16.7,21.5,46,15.9c4.7-0.9,11.1-3.1,18.1-8.4l6.5,5.8c0.4,0.4,1.1,0.4,1.5-0.1
	c0.2-0.2,0.3-0.4,0.3-0.7v-0.1l4.7-28.7l0-0.3c0-0.3-0.1-0.6-0.3-0.8c-0.2-0.2-0.4-0.3-0.7-0.3l-0.2,0l-0.3,0l-27.4,7.7l-0.5,0.1
	c-0.2,0-0.4,0.1-0.5,0.3c-0.4,0.4-0.4,1.1,0.1,1.5l0.3,0.3l6.2,5.6c-4,2.6-7.4,3.8-10.1,4.3c-21.2,4-31.7-9.9-32.1-10.4l-0.1-0.2
	c-4.9-6.5-6.6-12-6.6-21.8c0-12.4,3.7-21.7,10.9-27.5c9.2-7.3,21.8-7.4,25.4-6.6l0.6,0.1c9.3,2.1,22,5,39.6,40.2
	c9.1,18.3,20.5,30.2,34.9,36.6c1.8,0.9,10.5,5.1,21.9,5.1c4.7,0,9.9-0.7,15.2-2.7c8.3-3.1,27.7-13.7,27.7-45.2
	C311.3,302.2,302.4,290.8,294.9,284.9"/>
<polygon class="st1" points="62.4,138.1 62.6,138.1 62.6,204.2 77.1,204.2 77.1,117.8 65.5,117.8 52.1,133.5 52.1,148.7 52.2,148.7
	"/>
<path class="st1" d="M85.8,135.7v10.4H99v-10.8c0-5.2,2.6-6.7,5.6-6.7c2.8,0,5.2,1.1,5.2,6.5v7.1c0,7.1-0.6,9.9-5.4,14.9l-8.1,8.7
	c-7.9,8.4-10.8,14-10.8,22.6v15.9h37.7v-11.9H99.4v-4.1c0-6.8,2.4-9.3,6.1-13.3l9.3-9.8c7.5-8,9.2-13.1,9.2-21.8V135
	c0-12.4-6-18.2-19-18.2C92.2,116.8,85.8,123.6,85.8,135.7"/>
<path class="st1" d="M145.7,118.3v16.6h-6.1V98.7h8.8c6.1,0,8.4,3,8.4,8.1v4.6c0,3.9-1.4,6.2-4.8,7l5.8,16.4h-6.4L145.7,118.3z
	 M145.7,103.7v11.2h2c2.1,0,3-1.1,3-3v-5.3c0-2-0.9-2.9-3-2.9H145.7z"/>
<polygon class="st1" points="159.4,98.7 173.9,98.7 173.9,103.7 165.4,103.7 165.4,114 171.5,114 171.5,118.9 165.4,118.9
	165.4,129.9 173.9,129.9 173.9,134.8 159.4,134.8 "/>
<path class="st1" d="M175.8,127.1v-4.8h5.6v5c0,2,0.9,3.2,3,3.2c1.9,0,2.8-1.3,2.8-3.2v-1.4c0-2.1-0.9-3.4-2.7-5.1l-3.6-3.6
	c-3.5-3.4-5.1-5.5-5.1-9.6v-1.2c0-4.5,2.6-7.9,8.5-7.9c6.1,0,8.5,3,8.5,8.2v2.9h-5.5v-3.1c0-2.1-1-3.1-2.9-3.1c-1.7,0-2.9,1-2.9,3
	v0.7c0,2,1.1,3.2,2.9,4.9l3.9,3.8c3.3,3.4,4.9,5.4,4.9,9.4v1.8c0,5-2.7,8.5-8.8,8.5C178.2,135.3,175.8,131.8,175.8,127.1"/>
<path class="st1" d="M195.6,98.7h9c6.1,0,8.4,3,8.4,8.1v7.6c0,5.1-2.2,8.1-8.4,8.1h-2.9v12.3h-6.1V98.7z M201.7,103.7v14.2h2.2
	c2.1,0,3-1,3-3v-8.3c0-2-0.9-2.9-3-2.9H201.7z"/>
<path class="st1" d="M215.4,125.5v-17.5c0-5.6,2.8-9.7,9.2-9.7c6.4,0,9.2,4.1,9.2,9.7v17.5c0,5.6-2.8,9.7-9.2,9.7
	C218.2,135.3,215.4,131.1,215.4,125.5 M227.7,126.5v-19.4c0-2.2-1-3.7-3.1-3.7c-2.1,0-3.1,1.5-3.1,3.7v19.4c0,2.2,1,3.7,3.1,3.7
	C226.7,130.2,227.7,128.7,227.7,126.5"/>
<polygon class="st1" points="241.6,112.2 241.6,134.8 236.5,134.8 236.5,98.7 242.4,98.7 249,119.4 249,98.7 254.1,98.7
	254.1,134.8 248.7,134.8 "/>
<path class="st1" d="M256.4,127.1v-4.8h5.6v5c0,2,0.9,3.2,3,3.2c1.9,0,2.8-1.3,2.8-3.2v-1.4c0-2.1-0.9-3.4-2.7-5.1l-3.6-3.6
	c-3.5-3.4-5.1-5.5-5.1-9.6v-1.2c0-4.5,2.6-7.9,8.5-7.9c6.1,0,8.5,3,8.5,8.2v2.9h-5.5v-3.1c0-2.1-1-3.1-2.9-3.1c-1.7,0-2.9,1-2.9,3
	v0.7c0,2,1.1,3.2,2.9,4.9l3.9,3.8c3.3,3.4,4.9,5.4,4.9,9.4v1.8c0,5-2.7,8.5-8.8,8.5C258.8,135.3,256.4,131.8,256.4,127.1"/>
<rect x="276.3" y="98.7" class="st1" width="6.1" height="36.1"/>
<path class="st1" d="M285.1,98.7h8.8c6.1,0,8.1,2.8,8.1,7.9v3.7c0,3-1.1,5-3.6,5.8c3,0.7,4.5,2.7,4.5,6v4.8c0,5.1-2.3,7.9-8.4,7.9
	h-9.4V98.7z M291.2,114h2.1c2,0,2.9-1,2.9-2.9v-4.4c0-2-0.9-2.9-2.9-2.9h-2.1V114z M291.2,118.6v11.3h2.7c2,0,3-1,3-2.9v-5.4
	c0-1.9-0.9-2.9-3-2.9H291.2z"/>
<polygon class="st1" points="305.2,98.7 311.3,98.7 311.3,129.9 318.5,129.9 318.5,134.8 305.2,134.8 "/>
<polygon class="st1" points="320.6,98.7 335,98.7 335,103.7 326.6,103.7 326.6,114 332.6,114 332.6,118.9 326.6,118.9 326.6,129.9
	335,129.9 335,134.8 320.6,134.8 "/>
<path class="st1" d="M139.6,176.1v-17.5c0-5.6,2.7-9.7,9.1-9.7c6.7,0,8.6,3.7,8.6,9.1v4.3h-5.5v-4.7c0-2.2-0.7-3.5-2.9-3.5
	c-2.2,0-3.1,1.5-3.1,3.7v19.4c0,2.2,0.9,3.7,3.1,3.7c2.2,0,2.9-1.4,2.9-3.5v-6.7h5.5v6.2c0,5.2-2.1,9-8.6,9
	C142.3,185.9,139.6,181.7,139.6,176.1"/>
<path class="st1" d="M159.8,176.1v-17.5c0-5.6,2.8-9.7,9.2-9.7c6.4,0,9.2,4.1,9.2,9.7v17.5c0,5.6-2.8,9.7-9.2,9.7
	C162.6,185.9,159.8,181.7,159.8,176.1 M172.1,177.1v-19.4c0-2.2-1-3.7-3.1-3.7c-2.1,0-3.1,1.5-3.1,3.7v19.4c0,2.2,1,3.7,3.1,3.7
	C171.1,180.8,172.1,179.3,172.1,177.1"/>
<polygon class="st1" points="186,162.7 186,185.4 180.9,185.4 180.9,149.3 186.8,149.3 193.4,170 193.4,149.3 198.5,149.3
	198.5,185.4 193.1,185.4 "/>
<path class="st1" d="M200.8,177.7v-4.8h5.6v5c0,2,0.9,3.2,3,3.2c1.9,0,2.8-1.3,2.8-3.2v-1.4c0-2.1-0.9-3.4-2.7-5.1l-3.6-3.6
	c-3.5-3.4-5.1-5.5-5.1-9.6v-1.2c0-4.5,2.6-7.9,8.5-7.9c6.1,0,8.5,3,8.5,8.2v2.9h-5.5v-3.1c0-2.1-1-3.1-2.9-3.1c-1.7,0-2.9,1-2.9,3
	v0.7c0,2,1.1,3.2,2.9,4.9l3.9,3.8c3.3,3.4,4.9,5.4,4.9,9.4v1.8c0,5-2.7,8.5-8.8,8.5C203.2,185.9,200.8,182.4,200.8,177.7"/>
<path class="st1" d="M238.3,149.3v27.3c0,5.6-2.4,9.2-8.6,9.2c-6.4,0-9.1-3.6-9.1-9.2v-27.3h6.1v27.9c0,2.1,0.9,3.6,3,3.6
	c2.1,0,3-1.4,3-3.6v-27.9H238.3z"/>
<polygon class="st1" points="257.8,162 257.6,162 253.5,185.4 250.7,185.4 246.2,162 246.1,162 246.1,185.4 241.1,185.4
	241.1,149.3 248.1,149.3 252.1,169.7 252.1,169.7 255.6,149.3 263.3,149.3 263.3,185.4 257.8,185.4 "/>
<path class="st1" d="M266,149.3h9c6.1,0,8.4,3,8.4,8.1v7.6c0,5.1-2.2,8.1-8.4,8.1h-2.9v12.3H266V149.3z M272.1,154.3v14.2h2.2
	c2.1,0,3-1,3-3v-8.3c0-2-0.9-2.9-3-2.9H272.1z"/>
<polygon class="st1" points="284.8,149.3 301,149.3 301,154.3 296,154.3 296,185.4 289.8,185.4 289.8,154.3 284.8,154.3 "/>
<rect x="303" y="149.3" class="st1" width="6.1" height="36.1"/>
<path class="st1" d="M311.9,176.1v-17.5c0-5.6,2.8-9.7,9.2-9.7c6.4,0,9.2,4.1,9.2,9.7v17.5c0,5.6-2.8,9.7-9.2,9.7
	C314.6,185.9,311.9,181.7,311.9,176.1 M324.2,177.1v-19.4c0-2.2-1-3.7-3.1-3.7c-2.1,0-3.1,1.5-3.1,3.7v19.4c0,2.2,1,3.7,3.1,3.7
	C323.2,180.8,324.2,179.3,324.2,177.1"/>
<polygon class="st1" points="338.1,162.7 338.1,185.4 333,185.4 333,149.3 338.9,149.3 345.5,170 345.5,149.3 350.5,149.3
	350.5,185.4 345.2,185.4 "/>
<path class="st1" d="M138.7,236l6.8-36.1h6.9l6.9,36.1H153l-1.1-6.6h-6.4l-1.1,6.6H138.7z M146.3,224.6h4.8l-2.4-14.5h-0.1
	L146.3,224.6z"/>
<polygon class="st1" points="166.1,213.3 166.1,236 161,236 161,199.9 167,199.9 173.5,220.6 173.5,199.9 178.6,199.9 178.6,236
	173.3,236 "/>
<path class="st1" d="M199.5,209.6v16.7c0,5.5-2.3,9.7-8.8,9.7h-9.4v-36.1h9.4C197.2,199.9,199.5,204,199.5,209.6 M189.9,231.1
	c2.5,0,3.5-1.5,3.5-3.7v-18.9c0-2.1-1-3.6-3.5-3.6h-2.6v26.2H189.9z"/>
<path class="st1" d="M207,199.9h9c6.1,0,8.4,3,8.4,8.1v7.6c0,5.1-2.2,8.1-8.4,8.1h-2.9V236H207V199.9z M213.1,204.9v14.2h2.2
	c2.1,0,3-1,3-3v-8.3c0-2-0.9-2.9-3-2.9H213.1z"/>
<path class="st1" d="M232.9,219.5V236h-6.1v-36.1h8.8c6.1,0,8.4,3,8.4,8.1v4.6c0,3.9-1.4,6.2-4.8,7l5.8,16.4h-6.4L232.9,219.5z
	 M232.9,204.9v11.2h2c2.1,0,3-1.1,3-3v-5.3c0-2-0.9-2.9-3-2.9H232.9z"/>
<path class="st1" d="M246.5,226.7v-17.5c0-5.6,2.8-9.7,9.2-9.7c6.4,0,9.2,4.1,9.2,9.7v17.5c0,5.6-2.8,9.7-9.2,9.7
	C249.3,236.4,246.5,232.3,246.5,226.7 M258.8,227.7v-19.4c0-2.2-1-3.7-3.1-3.7c-2.1,0-3.1,1.5-3.1,3.7v19.4c0,2.2,1,3.7,3.1,3.7
	C257.9,231.4,258.8,229.8,258.8,227.7"/>
<path class="st1" d="M285.8,209.6v16.7c0,5.5-2.3,9.7-8.8,9.7h-9.4v-36.1h9.4C283.5,199.9,285.8,204,285.8,209.6 M276.3,231.1
	c2.5,0,3.5-1.5,3.5-3.7v-18.9c0-2.1-1-3.6-3.5-3.6h-2.6v26.2H276.3z"/>
<path class="st1" d="M306.1,199.9v27.3c0,5.6-2.4,9.2-8.6,9.2c-6.4,0-9.1-3.6-9.1-9.2v-27.3h6.1v27.9c0,2.1,0.9,3.6,3,3.6
	c2.1,0,3-1.4,3-3.6v-27.9H306.1z"/>
<path class="st1" d="M308.8,226.7v-17.5c0-5.6,2.7-9.7,9.1-9.7c6.7,0,8.6,3.7,8.6,9.1v4.3h-5.5v-4.7c0-2.2-0.7-3.5-2.9-3.5
	c-2.2,0-3.1,1.5-3.1,3.7v19.4c0,2.2,0.9,3.7,3.1,3.7c2.2,0,2.9-1.4,2.9-3.5v-6.7h5.5v6.2c0,5.2-2.1,9-8.6,9
	C311.5,236.4,308.8,232.3,308.8,226.7"/>
<polygon class="st1" points="327.8,199.9 343.9,199.9 343.9,204.9 338.9,204.9 338.9,236 332.8,236 332.8,204.9 327.8,204.9 "/>
<rect x="346" y="199.9" class="st1" width="6.1" height="36.1"/>
<path class="st1" d="M354.8,226.7v-17.5c0-5.6,2.8-9.7,9.2-9.7c6.4,0,9.2,4.1,9.2,9.7v17.5c0,5.6-2.8,9.7-9.2,9.7
	C357.6,236.4,354.8,232.3,354.8,226.7 M367.1,227.7v-19.4c0-2.2-1-3.7-3.1-3.7c-2.1,0-3.1,1.5-3.1,3.7v19.4c0,2.2,1,3.7,3.1,3.7
	C366.2,231.4,367.1,229.8,367.1,227.7"/>
<polygon class="st1" points="381,213.3 381,236 375.9,236 375.9,199.9 381.9,199.9 388.4,220.6 388.4,199.9 393.5,199.9 393.5,236
	388.2,236 "/>
</svg>
