<?xml version="1.0" encoding="utf-8"?>
<!-- Generator: Adobe Illustrator 23.0.3, SVG Export Plug-In . SVG Version: 6.00 Build 0)  -->
<svg version="1.1" id="Layer_1" xmlns="http://www.w3.org/2000/svg" xmlns:xlink="http://www.w3.org/1999/xlink" x="0px" y="0px"
	 viewBox="0 0 431.7 431.7" style="enable-background:new 0 0 431.7 431.7;" xml:space="preserve">
<style type="text/css">
	.st0{fill:#DC0879;}
	.st1{fill:#FFFFFF;}
</style>
<title>ods10</title>
<path class="st0" d="M216.4,430.5L216.4,430.5C97.8,430.5,1.6,334.4,1.6,215.8v0C1.6,97.2,97.8,1,216.4,1h0
	C335,1,431.1,97.2,431.1,215.8v0C431.1,334.4,335,430.5,216.4,430.5z"/>
<polygon class="st1" points="83.8,121.1 83.8,186.8 98.3,186.8 98.3,101 86.7,101 73.5,116.6 73.5,131.6 73.6,131.6 83.7,121.1 "/>
<path class="st1" d="M150.9,164.7v-41.5c0-13.4-6.7-23.2-21.4-23.2c-14.6,0-21.3,9.7-21.3,23.2v41.5c0,13.3,6.7,23.2,21.3,23.2
	C144.2,187.8,150.9,178,150.9,164.7 M122.7,167v-46.1c0-5.2,1.9-8.9,6.8-8.9c5.1,0,7,3.7,7,8.9V167c0,5.2-1.9,8.9-7,8.9
	C124.6,175.8,122.7,172.2,122.7,167"/>
<path class="st1" d="M171.6,120.5V137h-6v-35.8h8.8c6.1,0,8.3,3,8.3,8v4.6c0,3.9-1.4,6.1-4.8,6.9l5.8,16.3h-6.3L171.6,120.5z
	 M171.6,106v11.2h2c2.1,0,3-1.1,3-3V109c0-2-0.9-2.9-3-2.9H171.6z"/>
<polygon class="st1" points="185.9,101.1 200.3,101.1 200.3,106 191.9,106 191.9,116.3 197.9,116.3 197.9,121.2 191.9,121.2
	191.9,132.1 200.3,132.1 200.3,137 185.9,137 "/>
<path class="st1" d="M221.5,110.8v16.6c0,5.5-2.3,9.6-8.7,9.6h-9.3v-35.8h9.3C219.3,101.1,221.5,105.2,221.5,110.8 M212.1,132.1
	c2.5,0,3.4-1.5,3.4-3.7v-18.8c0-2.1-1-3.6-3.4-3.6h-2.5v26H212.1z"/>
<path class="st1" d="M242.5,101.1v27.1c0,5.6-2.4,9.1-8.5,9.1c-6.3,0-9-3.6-9-9.1v-27.1h6v27.7c0,2.1,0.8,3.5,3,3.5
	c2.1,0,3-1.4,3-3.5v-27.7H242.5z"/>
<path class="st1" d="M245.9,127.7v-17.3c0-5.6,2.6-9.7,9-9.7c6.7,0,8.5,3.7,8.5,9v4.2h-5.5v-4.7c0-2.2-0.7-3.5-2.9-3.5
	c-2.2,0-3.1,1.5-3.1,3.7v19.2c0,2.2,0.9,3.7,3.1,3.7c2.2,0,2.9-1.4,2.9-3.5v-6.6h5.5v6.2c0,5.1-2.1,8.9-8.5,8.9
	C248.5,137.4,245.9,133.3,245.9,127.7"/>
<polygon class="st1" points="266.7,101.1 281.1,101.1 281.1,106 272.7,106 272.7,116.3 278.7,116.3 278.7,121.2 272.7,121.2
	272.7,132.1 281.1,132.1 281.1,137 266.7,137 "/>
<path class="st1" d="M302.3,110.8v16.6c0,5.5-2.3,9.6-8.7,9.6h-9.3v-35.8h9.3C300,101.1,302.3,105.2,302.3,110.8 M292.8,132.1
	c2.5,0,3.4-1.5,3.4-3.7v-18.8c0-2.1-1-3.6-3.4-3.6h-2.5v26H292.8z"/>
<rect x="165.6" y="151.3" class="st1" width="6" height="35.8"/>
<polygon class="st1" points="180.2,164.7 180.2,187.2 175.1,187.2 175.1,151.3 181,151.3 187.5,171.9 187.5,151.3 192.5,151.3
	192.5,187.2 187.2,187.2 "/>
<polygon class="st1" points="196,151.3 210.3,151.3 210.3,156.3 202,156.3 202,166.5 208,166.5 208,171.4 202,171.4 202,182.3
	210.3,182.3 210.3,187.2 196,187.2 "/>
<path class="st1" d="M219.9,189.6v-2.4c-4.8-0.8-6.9-4.4-6.9-9.3v-17.3c0-5.6,2.8-9.7,9.1-9.7c6.4,0,9.1,4.1,9.1,9.7v17.3
	c0,3.9-1.4,7-4.4,8.5l4.4,0.8v4.5L219.9,189.6z M225.2,179.2v-19.6c0-2.2-1-3.7-3.1-3.7c-2.1,0-3.1,1.5-3.1,3.7v19.6
	c0,2.1,1,3.7,3.1,3.7C224.3,182.9,225.2,181.3,225.2,179.2"/>
<path class="st1" d="M252.2,151.3v27.1c0,5.5-2.4,9.1-8.5,9.1c-6.3,0-9-3.6-9-9.1v-27.1h6V179c0,2.1,0.8,3.5,3,3.5
	c2.1,0,3-1.4,3-3.5v-27.7H252.2z"/>
<path class="st1" d="M253.9,187.2l6.8-35.8h6.9l6.8,35.8h-6.2l-1.1-6.6h-6.4l-1.1,6.6H253.9z M261.4,175.8h4.8l-2.4-14.4h-0.1
	L261.4,175.8z"/>
<polygon class="st1" points="276.8,151.3 282.8,151.3 282.8,182.3 290,182.3 290,187.2 276.8,187.2 "/>
<rect x="292.8" y="151.3" class="st1" width="6" height="35.8"/>
<polygon class="st1" points="301.6,151.3 317.6,151.3 317.6,156.3 312.7,156.3 312.7,187.2 306.6,187.2 306.6,156.3 301.6,156.3 "/>
<rect x="320.4" y="151.3" class="st1" width="6" height="35.8"/>
<polygon class="st1" points="329.9,151.3 344.3,151.3 344.3,156.3 336,156.3 336,166.5 341.9,166.5 341.9,171.4 336,171.4
	336,182.3 344.3,182.3 344.3,187.2 329.9,187.2 "/>
<path class="st1" d="M347,179.5v-4.8h5.6v4.9c0,2,0.9,3.2,3,3.2c1.9,0,2.7-1.3,2.7-3.2v-1.4c0-2.1-0.8-3.3-2.7-5.1l-3.5-3.5
	c-3.4-3.4-5-5.4-5-9.6v-1.2c0-4.4,2.6-7.9,8.5-7.9c6,0,8.4,3,8.4,8.1v2.9h-5.5v-3.1c0-2.1-1-3.1-2.9-3.1c-1.7,0-2.9,1-2.9,3v0.7
	c0,2,1.1,3.2,2.9,4.9l3.9,3.8c3.3,3.3,4.9,5.3,4.9,9.3v1.7c0,4.9-2.6,8.4-8.8,8.4C349.3,187.6,347,184.2,347,179.5"/>
<path class="st1" d="M248.6,318.3h-62.5c-0.4,0-0.7,0.3-0.7,0.8v18.8c0,0.4,0.3,0.8,0.7,0.8h62.5c0.4,0,0.7-0.3,0.7-0.8V319
	C249.3,318.6,249,318.3,248.6,318.3"/>
<path class="st1" d="M248.6,278.3h-62.5c-0.4,0-0.7,0.3-0.7,0.8v18.8c0,0.4,0.3,0.8,0.7,0.8h62.5c0.4,0,0.7-0.3,0.7-0.8v-18.8
	C249.3,278.6,249,278.3,248.6,278.3"/>
<path class="st1" d="M247.7,249.9l-30-30c-0.2-0.2-0.5-0.2-0.7,0l-30,30c-0.3,0.3-0.1,0.9,0.4,0.9h60
	C247.8,250.8,248.1,250.2,247.7,249.9"/>
<path class="st1" d="M275.9,338.8l30-30c0.2-0.2,0.2-0.5,0-0.7l-30-30c-0.3-0.3-0.9-0.1-0.9,0.4v60
	C275,338.9,275.6,339.1,275.9,338.8"/>
<path class="st1" d="M187,366.9l30,30c0.2,0.2,0.5,0.2,0.7,0l30-30c0.3-0.3,0.1-0.9-0.4-0.9h-60C186.9,366.1,186.7,366.6,187,366.9"
	/>
<path class="st1" d="M158.8,278.1l-30,30c-0.2,0.2-0.2,0.5,0,0.7l30,30c0.3,0.3,0.9,0.1,0.9-0.4v-60
	C159.7,278,159.2,277.7,158.8,278.1"/>
</svg>
