<?xml version="1.0" encoding="utf-8"?>
<!-- Generator: Adobe Illustrator 23.0.3, SVG Export Plug-In . SVG Version: 6.00 Build 0)  -->
<svg version="1.1" id="Layer_1" xmlns="http://www.w3.org/2000/svg" xmlns:xlink="http://www.w3.org/1999/xlink" x="0px" y="0px"
	 viewBox="0 0 431.7 431.7" style="enable-background:new 0 0 431.7 431.7;" xml:space="preserve">
<style type="text/css">
	.st0{fill:#0076B7;}
	.st1{fill:#FFFFFF;}
</style>
<title>ods14</title>
<path class="st0" d="M216,429L216,429C98.4,429,3,333.6,3,216v0C3,98.4,98.4,3,216,3h0c117.6,0,213,95.4,213,213v0
	C429,333.6,333.6,429,216,429z"/>
<path class="st1" d="M292,328.2c-3.9-5.3-29.2-37.5-64.7-37.5c-30.8,0-63.7,27.9-63.7,27.9s-12.4-25.3-37.7-27.8c-0.1,0-0.3,0-0.5,0
	h-0.2c-0.5,0-1,0.5-1,1c0.1,0.4,0.4,0.9,0.4,0.9c3.3,5.4,11.6,20.8,11.6,36.2c0,15.4-8.4,30.9-11.6,36.3l-0.2,0.3
	c-0.1,0.2-0.2,0.3-0.2,0.5c0,0.5,0.4,0.9,0.9,1l0.3,0c0.1,0,0.2,0,0.3,0c25.4-2.4,37.8-27.8,37.8-27.8s32.9,27.9,63.7,27.9
	c35.5,0,60.7-32.2,64.7-37.5c0.1-0.1,0.2-0.3,0.3-0.4c0-0.1,0.1-0.2,0.1-0.4c0-0.1,0-0.3-0.1-0.4C292.2,328.5,292.2,328.4,292,328.2
	 M247.1,333c-5.7,0-10.3-4.6-10.3-10.4c0-5.7,4.6-10.3,10.3-10.3c5.7,0,10.4,4.6,10.4,10.3C257.5,328.4,252.8,333,247.1,333"/>
<path class="st1" d="M161.3,261.8c0.1-0.1,0.2-0.2,0.3-0.3c0.2-0.1,0.4-0.2,0.6-0.2c0.3,0,0.5,0.1,0.7,0.3c0,0,0,0,0,0
	c19.3,18.4,39.6,3.5,43.8,0l0.4-0.4c0.1,0,0.2-0.1,0.4-0.1c0.1,0,0.3,0,0.4,0.1l0.4,0.4c4.2,3.5,24.5,18.4,43.8,0c0,0,0,0,0,0
	c0.2-0.2,0.4-0.3,0.7-0.3c0.2,0,0.4,0.1,0.6,0.2c0.1,0.1,0.2,0.2,0.3,0.3c3.7,3.7,19.9,17.6,37.1,2.7c0.2-0.2,0.3-0.4,0.3-0.7v-7.1
	c0-0.6-0.5-1-1-1c-0.1,0-0.1,0-0.2,0c-0.2,0.1-0.3,0.2-0.5,0.3c-5.3,2.6-21.6,8.9-36.4-5.1c-0.1-0.1-0.3-0.3-0.4-0.4
	c-0.1-0.1-0.3-0.1-0.4-0.1c-0.1,0-0.2,0-0.3,0.1c-0.2,0.1-0.4,0.2-0.5,0.4c-4.4,3.4-24.7,17.1-42.7,0.2l-0.3-0.3
	c-0.2-0.2-0.4-0.3-0.7-0.3c-0.3,0-0.5,0.1-0.7,0.3l-0.3,0.3c-18,16.8-38.3,3.1-42.8-0.2c-0.1-0.2-0.3-0.3-0.5-0.4
	c-0.1-0.1-0.2-0.1-0.3-0.1c-0.1,0-0.3,0-0.4,0.1c-0.1,0.1-0.3,0.3-0.4,0.4c-14.8,14-31.1,7.7-36.4,5.1c-0.2-0.1-0.4-0.2-0.5-0.3
	c-0.1,0-0.1,0-0.2,0c-0.6,0-1,0.4-1,1v7.1c0,0.3,0.1,0.5,0.3,0.7C141.4,279.4,157.6,265.5,161.3,261.8"/>
<path class="st1" d="M125.2,230.1c-0.1,0-0.1,0-0.2,0c-0.6,0-1,0.5-1,1v7.1c0,0.3,0.1,0.6,0.3,0.7c17.1,14.9,33.3,0.9,37.1-2.7
	c0.1-0.1,0.2-0.2,0.3-0.3c0.2-0.1,0.3-0.2,0.6-0.2c0.3,0,0.5,0.1,0.7,0.3c0,0,0,0,0.1,0c19.3,18.5,39.6,3.5,43.8,0l0.4-0.4
	c0.1-0.1,0.2-0.1,0.4-0.1c0.1,0,0.3,0,0.4,0.1l0.4,0.4c4.2,3.5,24.5,18.5,43.8,0c0,0,0,0,0,0c0.2-0.2,0.4-0.3,0.7-0.3
	c0.2,0,0.4,0.1,0.6,0.2c0.1,0.1,0.2,0.2,0.3,0.3c3.7,3.7,19.9,17.6,37.1,2.7c0.2-0.2,0.3-0.4,0.3-0.7v-7.1c0-0.6-0.4-1-1-1
	c-0.1,0-0.1,0-0.2,0c-0.2,0.1-0.3,0.2-0.5,0.3c-5.3,2.6-21.6,8.9-36.4-5.1c-0.1-0.1-0.3-0.3-0.4-0.4c-0.1-0.1-0.3-0.1-0.4-0.1
	c-0.1,0-0.2,0-0.3,0c-0.2,0.1-0.4,0.2-0.5,0.4c-4.4,3.4-24.7,17.1-42.7,0.3l-0.3-0.3c-0.2-0.2-0.4-0.3-0.7-0.3
	c-0.3,0-0.5,0.1-0.7,0.3l-0.3,0.3c-18,16.8-38.3,3.1-42.8-0.3c-0.1-0.2-0.3-0.3-0.5-0.4c-0.1,0-0.2,0-0.3,0c-0.1,0-0.3,0-0.4,0.1
	c-0.1,0.2-0.3,0.3-0.4,0.4c-14.8,14-31.1,7.8-36.4,5.1C125.5,230.3,125.3,230.2,125.2,230.1"/>
<polygon class="st1" points="85.3,103.8 85.3,189.7 70.8,189.7 70.8,124 70.7,124 60.6,134.5 60.4,134.5 60.4,119.4 73.7,103.8 "/>
<path class="st1" d="M129.2,189.7v-13.9h5.8v-11.3h-5.8v-60.7H115l-25,63.1v8.9h25.5v13.9H129.2z M102.7,164.5l12.9-35.3h0.1v35.3
	H102.7z"/>
<polygon class="st1" points="145.9,103.3 151.9,103.3 151.9,134.3 159.1,134.3 159.1,139.2 145.9,139.2 "/>
<rect x="161.9" y="103.3" class="st1" width="6" height="35.9"/>
<polygon class="st1" points="171.4,103.3 185.5,103.3 185.5,108.3 177.4,108.3 177.4,118.5 183.5,118.5 183.5,123.4 177.4,123.4
	177.4,139.2 171.4,139.2 "/>
<polygon class="st1" points="188.2,103.3 202.6,103.3 202.6,108.3 194.2,108.3 194.2,118.5 200.2,118.5 200.2,123.4 194.2,123.4
	194.2,134.3 202.6,134.3 202.6,139.2 188.2,139.2 "/>
<path class="st1" d="M145.9,153.6h8.7c6,0,8,2.8,8,7.9v3.7c0,3-1.1,4.9-3.6,5.7c3,0.7,4.5,2.7,4.5,6v4.8c0,5.1-2.3,7.9-8.3,7.9h-9.4
	V153.6z M151.9,168.8h2.1c2,0,2.9-1,2.9-2.9v-4.4c0-2-0.9-2.9-2.9-2.9h-2.1V168.8z M151.9,173.4v11.2h2.6c2,0,3-1,3-2.9v-5.4
	c0-1.9-0.9-2.9-3-2.9H151.9z"/>
<polygon class="st1" points="166.6,153.6 181,153.6 181,158.6 172.6,158.6 172.6,168.8 178.6,168.8 178.6,173.7 172.6,173.7
	172.6,184.6 181,184.6 181,189.5 166.6,189.5 "/>
<polygon class="st1" points="184.2,153.6 190.3,153.6 190.3,184.6 197.5,184.6 197.5,189.5 184.2,189.5 "/>
<path class="st1" d="M199.9,180.3v-17.4c0-5.6,2.8-9.7,9.1-9.7c6.4,0,9.2,4.1,9.2,9.7v17.4c0,5.6-2.8,9.7-9.2,9.7
	C202.7,190,199.9,185.8,199.9,180.3 M212.2,181.2V162c0-2.2-1-3.7-3.1-3.7c-2.1,0-3.1,1.5-3.1,3.7v19.3c0,2.2,1,3.7,3.1,3.7
	C211.2,184.9,212.2,183.4,212.2,181.2"/>
<polygon class="st1" points="234.2,167.4 230.8,189.5 225.1,189.5 220.3,153.6 226.1,153.6 228.9,176.4 229,176.4 232,153.6
	236.9,153.6 240.2,176.4 240.3,176.4 243,153.6 248.1,153.6 243.5,189.5 237.8,189.5 234.2,167.4 "/>
<polygon class="st1" points="269.3,167.4 265.9,189.5 260.2,189.5 255.4,153.6 261.3,153.6 264.1,176.4 264.1,176.4 267.1,153.6
	272.1,153.6 275.4,176.4 275.4,176.4 278.2,153.6 283.3,153.6 278.6,189.5 272.9,189.5 269.4,167.4 "/>
<path class="st1" d="M282.8,189.5l6.8-35.9h6.9l6.8,35.9h-6.2L296,183h-6.4l-1.1,6.6H282.8z M290.4,178.2h4.8l-2.4-14.4h-0.1
	L290.4,178.2z"/>
<polygon class="st1" points="302.4,153.6 318.5,153.6 318.5,158.6 313.5,158.6 313.5,189.5 307.4,189.5 307.4,158.6 302.4,158.6 "/>
<polygon class="st1" points="321.3,153.6 335.7,153.6 335.7,158.6 327.3,158.6 327.3,168.8 333.3,168.8 333.3,173.7 327.3,173.7
	327.3,184.6 335.7,184.6 335.7,189.5 321.3,189.5 "/>
<path class="st1" d="M345,173.1v16.5h-6v-35.9h8.8c6.1,0,8.3,3,8.3,8.1v4.6c0,3.9-1.4,6.1-4.8,6.9l5.8,16.3h-6.4L345,173.1z
	 M345,158.6v11.2h2c2.1,0,3-1.1,3-3v-5.3c0-2-0.9-2.9-3-2.9H345z"/>
</svg>
