<?xml version="1.0" encoding="utf-8"?>
<!-- Generator: Adobe Illustrator 23.0.3, SVG Export Plug-In . SVG Version: 6.00 Build 0)  -->
<svg version="1.1" id="Layer_1" xmlns="http://www.w3.org/2000/svg" xmlns:xlink="http://www.w3.org/1999/xlink" x="0px" y="0px"
	 viewBox="0 0 431.7 431.7" style="enable-background:new 0 0 431.7 431.7;" xml:space="preserve">
<style type="text/css">
	.st0{fill:#004C83;}
	.st1{fill:#FFFFFF;}
</style>
<title>ods16</title>
<path class="st0" d="M215.7,428.7L215.7,428.7C98.1,428.7,2.8,333.4,2.8,215.9v0C2.8,98.3,98.1,3,215.7,3h0
	c117.5,0,212.8,95.3,212.8,212.8v0C428.5,333.4,333.2,428.7,215.7,428.7z"/>
<path class="st1" d="M258.1,266c0,0-2.7,3.5-1.9,7c0.8,3.5,4.7,5.5,4.7,5.5s2.7-3.5,1.9-7C262,268.1,258.1,266,258.1,266"/>
<path class="st1" d="M253.8,286.2c0,0,2.7-3.5,1.9-7c-0.8-3.5-4.7-5.5-4.7-5.5s-2.7,3.5-1.9,7C249.8,284.2,253.8,286.2,253.8,286.2"
	/>
<path class="st1" d="M264.7,282.4c0,0,2.8,2.8,6,2.6c3.2-0.3,5.6-3.6,5.6-3.6s-2.8-2.8-6-2.6C267.1,279.1,264.7,282.4,264.7,282.4"
	/>
<path class="st1" d="M269.3,267.3c-2.6,2.6-2.2,7.3-2.2,7.3s4.6,0.4,7.2-2.2c2.6-2.6,2.2-7.3,2.2-7.3S271.9,264.6,269.3,267.3"/>
<path class="st1" d="M263.6,293c3.2,0.4,6.2-2.4,6.2-2.4s-2.2-3.4-5.4-3.7c-3.2-0.4-6.2,2.4-6.2,2.4S260.4,292.6,263.6,293"/>
<path class="st1" d="M266.4,344.3h-23.9c-1.9,0-3.4,1.5-3.4,3.4c0,1.9,1.5,3.4,3.4,3.4h23.9c1.9,0,3.4-1.5,3.4-3.4
	C269.8,345.8,268.3,344.3,266.4,344.3"/>
<path class="st1" d="M266.4,381.5h-23.9c-1.9,0-3.4,1.5-3.4,3.4c0,1.9,1.5,3.4,3.4,3.4h23.9c1.9,0,3.4-1.5,3.4-3.4
	C269.8,383.1,268.3,381.5,266.4,381.5"/>
<path class="st1" d="M159.1,336.1c-0.6-0.2-1.1-0.3-1.7-0.4C157.4,335.7,158,335.9,159.1,336.1"/>
<path class="st1" d="M265.6,353.4h-22.1c-1.1,0-1.9,0.9-1.9,1.9v6.7l-14.4,1.6l-21.1-0.5v-12.9c2.8-0.4,5.6-0.9,8.4-1.7
	c20.3-5.7,24.7-18.4,24.3-30c-0.4-11.8,3.3-16.4,8.8-18.5c1.6-0.6,3.1-1,4.5-1.2c0.1,2.9,0.7,6.3,2,10.3c0.5,0,1-0.1,1.4-0.1
	c-1.4-4.1-2-7.5-2-10.4c2.8-0.3,4.8-0.1,4.8-0.1s-1.9-1-4.6-3.3c0.9-5.6,4.2-9,7.7-12.6c1.9-1.9,3.8-3.9,5.4-6.3l-1.2-0.8
	c-1.5,2.3-3.4,4.2-5.2,6.1c-3.4,3.4-6.7,6.9-7.9,12.5c-1.1-1-2.3-2.1-3.5-3.5c-5-5.6-11.5-1.5-20.7,7.1c-9.2,8.6-20.8,8.8-32.1-2.7
	c-14.9-15.3-27.9-15.2-36.8-14.3c6.1,2.6,8.2,8.3,11.3,22.8c3.2,15.2,11.4,22.1,22.6,23c-5.2,0.8-6.5,1.6-14.8,7.3
	c-6.5,4.5-15.6,3.1-19.3,2.2c6.8,2.1,14.9,9.3,22.1,11.7c4.2,1.4,8.6,2.3,13.2,2.7v12.3l-40-0.9v8.6l72.8-1.6l14.4,1.6v6.7
	c0,1.1,0.9,1.9,1.9,1.9h22.1c1.1,0,1.9-0.9,1.9-1.9v-22C267.5,354.3,266.6,353.4,265.6,353.4 M197.8,350.7c1.6,0,3.2,0,4.7-0.1v12.5
	l-4.7-0.1V350.7z"/>
<path class="st1" d="M152.2,369.2c0,1.8-1.3,3.3-2.8,3.3h-1.7c-1.6,0-2.8-1.5-2.8-3.3v-5.9c0-1.8,1.3-3.3,2.8-3.3h1.7
	c1.6,0,2.8,1.5,2.8,3.3V369.2z"/>
<polygon class="st1" points="46.3,146.2 46.3,161.2 46.4,161.2 56.6,150.7 56.7,150.7 56.7,216.4 71.1,216.4 71.1,130.6 59.6,130.6
	"/>
<path class="st1" d="M121.6,195.8v-12.7c0-14.1-5.6-21.1-16-21.1c-6.1,0-9.7,2.8-11.9,7h-0.1v-18.5c0-5.2,1.6-8.9,6.8-8.9
	c5.2,0,6.7,3,6.7,8.4v5.7h13.2v-4.6c0-12.7-4.2-21.5-20.1-21.5c-15.2,0-20.9,9.7-20.9,23.2v41.8c0,13.3,5.8,22.9,21,22.9
	C115.7,217.4,121.6,209.1,121.6,195.8 M107.3,197.1c0,5.4-2,8.6-7,8.6c-4.8,0-6.7-3.3-6.7-8.6v-15.7c0.2-4.8,2.3-7.9,6.8-7.9
	c4.9,0,6.8,3,6.8,8.6V197.1z"/>
<path class="st1" d="M137.3,105.9h8.9c6.1,0,8.3,3,8.3,8v7.6c0,5-2.2,8.1-8.3,8.1h-2.9v12.2h-6V105.9z M143.3,110.8v14.1h2.2
	c2.1,0,3-1,3-3v-8.3c0-2-0.9-2.9-3-2.9H143.3z"/>
<polygon class="st1" points="157.6,105.9 172,105.9 172,110.8 163.7,110.8 163.7,121.1 169.7,121.1 169.7,125.9 163.7,125.9
	163.7,136.8 172,136.8 172,141.8 157.6,141.8 "/>
<path class="st1" d="M174.3,141.8l6.8-35.9h6.9l6.8,35.9h-6.2l-1.1-6.6h-6.4l-1.1,6.6H174.3z M181.9,130.4h4.8l-2.4-14.4h-0.1
	L181.9,130.4z"/>
<path class="st1" d="M196.5,132.5v-17.4c0-5.6,2.6-9.7,9-9.7c6.7,0,8.5,3.7,8.5,9v4.2h-5.5V114c0-2.2-0.7-3.5-2.9-3.5
	c-2.2,0-3.1,1.5-3.1,3.7v19.3c0,2.2,0.9,3.7,3.1,3.7c2.2,0,2.9-1.4,2.9-3.5v-6.6h5.5v6.2c0,5.1-2.1,8.9-8.5,8.9
	C199.1,142.2,196.5,138.1,196.5,132.5"/>
<polygon class="st1" points="217.3,105.9 231.7,105.9 231.7,110.8 223.3,110.8 223.3,121.1 229.3,121.1 229.3,125.9 223.3,125.9
	223.3,136.8 231.7,136.8 231.7,141.8 217.3,141.8 "/>
<polygon class="st1" points="241.1,136.5 238,144.6 234.6,144.6 235.4,136 241.1,136 "/>
<path class="st1" d="M266.1,105.9v27.7c0,5.2-2.3,8.6-8.3,8.6c-6.2,0-7.9-3.4-7.9-8v-7.1h5.7v7.3c0,1.8,0.6,2.9,2.2,2.9
	c1.6,0,2.3-1.1,2.3-2.9v-28.4H266.1z"/>
<path class="st1" d="M287,105.9V133c0,5.6-2.4,9.2-8.5,9.2c-6.3,0-9-3.6-9-9.2v-27.1h6v27.7c0,2.1,0.8,3.5,3,3.5c2.1,0,3-1.4,3-3.5
	v-27.7H287z"/>
<path class="st1" d="M290.1,134v-4.8h5.6v4.9c0,2,0.9,3.2,3,3.2c1.9,0,2.7-1.3,2.7-3.2v-1.4c0-2.1-0.8-3.3-2.7-5.1l-3.5-3.5
	c-3.4-3.4-5-5.4-5-9.6v-1.2c0-4.4,2.6-7.9,8.5-7.9c6,0,8.4,3,8.4,8.2v2.9h-5.5v-3.1c0-2.1-1-3.1-2.9-3.1c-1.7,0-2.9,1-2.9,3v0.7
	c0,2,1.1,3.2,2.9,4.9l3.9,3.8c3.3,3.3,4.9,5.3,4.9,9.3v1.7c0,4.9-2.6,8.4-8.8,8.4C292.5,142.2,290.1,138.8,290.1,134"/>
<polygon class="st1" points="309.1,105.9 325.1,105.9 325.1,110.8 320.2,110.8 320.2,141.8 314.1,141.8 314.1,110.8 309.1,110.8 "/>
<rect x="327.9" y="105.9" class="st1" width="6" height="35.9"/>
<path class="st1" d="M337.5,132.5v-17.4c0-5.6,2.6-9.7,9-9.7c6.7,0,8.5,3.7,8.5,9v4.2h-5.5V114c0-2.2-0.7-3.5-2.9-3.5
	c-2.2,0-3.1,1.5-3.1,3.7v19.3c0,2.2,0.9,3.7,3.1,3.7c2.2,0,2.9-1.4,2.9-3.5v-6.6h5.5v6.2c0,5.1-2.1,8.9-8.5,8.9
	C340.1,142.2,337.5,138.1,337.5,132.5"/>
<polygon class="st1" points="358.3,105.9 372.7,105.9 372.7,110.8 364.3,110.8 364.3,121.1 370.3,121.1 370.3,125.9 364.3,125.9
	364.3,136.8 372.7,136.8 372.7,141.8 358.3,141.8 "/>
<path class="st1" d="M136.3,192l6.8-35.9h6.9l6.8,35.9h-6.2l-1.1-6.6h-6.4L142,192H136.3z M143.9,180.7h4.8l-2.4-14.4h-0.1
	L143.9,180.7z"/>
<polygon class="st1" points="164.4,169.5 164.4,192 159.3,192 159.3,156.2 165.2,156.2 171.7,176.7 171.7,156.2 176.7,156.2
	176.7,192 171.5,192 "/>
<path class="st1" d="M198.2,165.8v16.6c0,5.5-2.3,9.6-8.7,9.6h-9.3v-35.9h9.3C195.9,156.2,198.2,160.2,198.2,165.8 M188.7,187.1
	c2.5,0,3.4-1.5,3.4-3.6v-18.8c0-2.1-1-3.6-3.4-3.6h-2.5v26H188.7z"/>
<path class="st1" d="M206.9,184.3v-4.8h5.6v4.9c0,2,0.9,3.2,3,3.2c1.9,0,2.7-1.3,2.7-3.2V183c0-2.1-0.8-3.3-2.7-5.1l-3.5-3.5
	c-3.4-3.4-5-5.4-5-9.6v-1.2c0-4.4,2.6-7.9,8.5-7.9c6,0,8.4,3,8.4,8.2v2.9h-5.5v-3.1c0-2.1-1-3.1-2.9-3.1c-1.7,0-2.9,1-2.9,3v0.7
	c0,2,1.1,3.2,2.9,4.9l3.9,3.8c3.3,3.3,4.9,5.3,4.9,9.3v1.7c0,4.9-2.6,8.4-8.8,8.4C209.3,192.5,206.9,189,206.9,184.3"/>
<polygon class="st1" points="225.9,156.2 241.9,156.2 241.9,161.1 236.9,161.1 236.9,192 230.9,192 230.9,161.1 225.9,161.1 "/>
<path class="st1" d="M250.7,175.6V192h-6v-35.9h8.8c6.1,0,8.3,3,8.3,8v4.6c0,3.9-1.4,6.1-4.8,6.9l5.8,16.3h-6.4L250.7,175.6z
	 M250.7,161.1v11.2h2c2.1,0,3-1.1,3-3V164c0-2-0.9-2.9-3-2.9H250.7z"/>
<path class="st1" d="M265.1,182.8v-17.4c0-5.6,2.8-9.7,9.1-9.7c6.4,0,9.2,4.1,9.2,9.7v17.4c0,5.6-2.7,9.7-9.2,9.7
	C267.8,192.5,265.1,188.3,265.1,182.8 M277.3,183.7v-19.3c0-2.2-1-3.7-3.1-3.7c-2.1,0-3.1,1.5-3.1,3.7v19.3c0,2.2,1,3.7,3.1,3.7
	C276.4,187.4,277.3,185.9,277.3,183.7"/>
<polygon class="st1" points="291.9,169.5 291.9,192 286.8,192 286.8,156.2 292.7,156.2 299.2,176.7 299.2,156.2 304.2,156.2
	304.2,192 298.9,192 "/>
<path class="st1" d="M316.8,172.9h8.6V192H321v-3.9c-0.8,2.7-2.5,4.3-5.8,4.3c-5.2,0-7.6-4.1-7.6-9.7v-17.4c0-5.6,2.7-9.7,9.1-9.7
	c6.7,0,8.6,3.7,8.6,9v3.2h-5.5v-3.7c0-2.2-0.8-3.5-3-3.5c-2.2,0-3.1,1.5-3.1,3.7v19.3c0,2.2,0.9,3.7,3,3.7c2,0,3-1.1,3-3.4v-6.4
	h-2.9V172.9z"/>
<rect x="137.3" y="206.4" class="st1" width="6" height="35.9"/>
<polygon class="st1" points="151.9,219.7 151.9,242.3 146.8,242.3 146.8,206.4 152.7,206.4 159.2,227 159.2,206.4 164.3,206.4
	164.3,242.3 159,242.3 "/>
<path class="st1" d="M167.4,234.6v-4.8h5.6v4.9c0,2,0.9,3.2,3,3.2c1.9,0,2.7-1.3,2.7-3.2v-1.4c0-2.1-0.8-3.3-2.7-5.1l-3.5-3.5
	c-3.4-3.4-5-5.5-5-9.6v-1.2c0-4.4,2.6-7.9,8.5-7.9c6,0,8.4,3,8.4,8.2v2.9h-5.5v-3.1c0-2.1-1-3.1-2.9-3.1c-1.7,0-2.9,1-2.9,3v0.7
	c0,2,1.1,3.2,2.9,4.9l3.9,3.8c3.3,3.3,4.9,5.3,4.9,9.3v1.7c0,4.9-2.6,8.4-8.8,8.4C169.8,242.7,167.4,239.3,167.4,234.6"/>
<polygon class="st1" points="186.4,206.4 202.4,206.4 202.4,211.3 197.4,211.3 197.4,242.3 191.3,242.3 191.3,211.3 186.4,211.3 "/>
<rect x="205.2" y="206.4" class="st1" width="6" height="35.9"/>
<polygon class="st1" points="214,206.4 230.1,206.4 230.1,211.3 225.1,211.3 225.1,242.3 219,242.3 219,211.3 214,211.3 "/>
<path class="st1" d="M250.4,206.4v27.1c0,5.6-2.4,9.2-8.5,9.2c-6.3,0-9-3.6-9-9.2v-27.1h6v27.7c0,2.1,0.8,3.5,3,3.5
	c2.1,0,3-1.4,3-3.5v-27.7H250.4z"/>
<polygon class="st1" points="253.1,206.4 269.2,206.4 269.2,211.3 264.2,211.3 264.2,242.3 258.1,242.3 258.1,211.3 253.1,211.3 "/>
<rect x="272" y="206.4" class="st1" width="6" height="35.9"/>
<path class="st1" d="M281.5,233v-17.4c0-5.6,2.8-9.7,9.1-9.7c6.4,0,9.2,4.1,9.2,9.7V233c0,5.6-2.7,9.7-9.2,9.7
	C284.2,242.7,281.5,238.6,281.5,233 M293.7,234v-19.3c0-2.2-1-3.7-3.1-3.7c-2.1,0-3.1,1.5-3.1,3.7V234c0,2.2,1,3.7,3.1,3.7
	C292.8,237.7,293.7,236.2,293.7,234"/>
<polygon class="st1" points="308.3,219.7 308.3,242.3 303.2,242.3 303.2,206.4 309.1,206.4 315.6,227 315.6,206.4 320.6,206.4
	320.6,242.3 315.3,242.3 "/>
<path class="st1" d="M323.8,234.6v-4.8h5.6v4.9c0,2,0.9,3.2,3,3.2c1.9,0,2.7-1.3,2.7-3.2v-1.4c0-2.1-0.8-3.3-2.7-5.1l-3.5-3.5
	c-3.4-3.4-5-5.5-5-9.6v-1.2c0-4.4,2.6-7.9,8.5-7.9c6,0,8.4,3,8.4,8.2v2.9h-5.5v-3.1c0-2.1-1-3.1-2.9-3.1c-1.7,0-2.9,1-2.9,3v0.7
	c0,2,1.1,3.2,2.9,4.9l3.9,3.8c3.3,3.3,4.9,5.3,4.9,9.3v1.7c0,4.9-2.6,8.4-8.8,8.4C326.1,242.7,323.8,239.3,323.8,234.6"/>
</svg>
