<?xml version="1.0" encoding="utf-8"?>
<!-- Generator: Adobe Illustrator 23.0.3, SVG Export Plug-In . SVG Version: 6.00 Build 0)  -->
<svg version="1.1" id="Layer_1" xmlns="http://www.w3.org/2000/svg" xmlns:xlink="http://www.w3.org/1999/xlink" x="0px" y="0px"
	 viewBox="0 0 431.7 431.7" style="enable-background:new 0 0 431.7 431.7;" xml:space="preserve">
<style type="text/css">
	.st0{fill:#3DA535;}
	.st1{fill:#FFFFFF;}
</style>
<title>ods15</title>
<path class="st0" d="M215.6,430L215.6,430C97.7,430,2.1,334.4,2.1,216.5v0C2.1,98.6,97.7,3,215.6,3h0
	c117.9,0,213.5,95.6,213.5,213.5v0C429.1,334.4,333.5,430,215.6,430z"/>
<path class="st1" d="M189.2,317.4c0.4,0,0.7,0.3,0.7,0.7v21.8c0,0.4-0.3,0.7-0.7,0.7h-8.8c-0.4,0-0.7-0.3-0.7-0.7V318
	c0-0.4,0.3-0.7,0.7-0.7H189.2z"/>
<path class="st1" d="M286.2,349.9H140.6c-0.4,0-0.7,0.3-0.7,0.7v8.9c0,0.4,0.3,0.7,0.7,0.7h145.6c0.4,0,0.7-0.3,0.7-0.7v-8.9
	C286.8,350.2,286.5,349.9,286.2,349.9"/>
<path class="st1" d="M286.2,367.6H140.6c-0.4,0-0.7,0.3-0.7,0.7v8.9c0,0.4,0.3,0.7,0.7,0.7h145.6c0.4,0,0.7-0.3,0.7-0.7v-8.9
	C286.8,367.9,286.5,367.6,286.2,367.6"/>
<path class="st1" d="M258.5,293.2c-1.8-1.4-6.7-4.7-12.6-4.7c-4.2,0-8.2,1.7-11.7,5c-0.3,0.2-0.4,0.6-0.4,0.9v0.8
	c0,0.4,0.1,0.8,0.4,1c0.3,0.2,0.6,0.3,1,0.2c0.1,0,0.2,0,0.3-0.1c0.3-0.1,0.5-0.3,0.7-0.5c0.8-0.5,2.8-1.2,5.8-1.2
	c3.1,0,9.1,0.8,15,6.3l0.1,0.1c0.3,0.3,0.8,0.5,1.3,0.5c0.5,0,0.9-0.2,1.2-0.5l0.1-0.1c5.9-5.5,11.9-6.3,15-6.3c3,0,5.1,0.7,5.8,1.2
	c0.2,0.2,0.5,0.4,0.8,0.5c0.1,0,0.5,0.1,0.9,0c0.5-0.2,0.9-0.6,0.9-1.2v-0.7c0-0.3-0.1-0.7-0.4-0.9c-3.6-3.4-7.5-5.1-11.8-5.1
	C265.2,288.4,260.3,291.7,258.5,293.2"/>
<path class="st1" d="M249.4,235.2c-0.3,0.1-0.5,0.4-0.6,0.8l-0.1,0.5c-0.1,0.4,0,0.8,0.2,1.1c0.2,0.3,0.5,0.5,0.9,0.5
	c0.1,0,0.1,0,0.2,0c0.3,0,0.5-0.1,0.7-0.2c0.1,0,0.4-0.1,0.9-0.1c0.7,0,6.5,0.2,10.4,6.8l0,0.1c0.2,0.4,0.5,0.6,0.9,0.7
	c0.1,0,0.3,0.1,0.5,0.1c0.3,0,0.5-0.1,0.7-0.2l0.1,0c2.1-1.1,4.3-1.6,6.5-1.6c3.7,0,6.1,1.5,6.6,2.1c0.1,0.2,0.3,0.4,0.5,0.5
	c0.1,0.1,0.3,0.2,0.5,0.2c0.1,0,0.1,0,0.2,0c0,0,0.1,0,0.1,0c0.2,0,0.4,0,0.6-0.1c0.3-0.1,0.5-0.4,0.6-0.7l0.1-0.4
	c0-0.1,0.1-0.2,0.1-0.4c0-0.2-0.1-0.4-0.2-0.6c-2.8-4.9-6.9-5.9-9.9-5.9c-2.2,0-4.1,0.6-5.2,1c-1.3-1.8-4.7-5.5-9.8-5.5
	C253.1,233.8,251.3,234.3,249.4,235.2"/>
<path class="st1" d="M218.7,257.6l0,0.7c0,0.4,0.2,0.8,0.6,1c0.3,0.2,0.7,0.2,1,0.1c0.1,0,0.2,0,0.2-0.1c0.3-0.1,0.5-0.3,0.6-0.5
	c0.6-0.4,2.6-1.3,5.6-1.3c2.8,0,7.1,0.8,11.5,4.4l0.1,0.1c0.3,0.3,0.7,0.4,1.1,0.4h0.1c0.5,0,0.9-0.2,1.1-0.6l0.1-0.1
	c4.9-5.1,10.1-5.9,12.8-5.9c1.9,0,3.3,0.4,3.8,0.7c0.2,0.2,0.4,0.3,0.8,0.4c0.1,0,0.3,0.1,0.5,0c0.1,0,0.2,0,0.3-0.1
	c0.5-0.2,0.9-0.7,0.8-1.2l0-0.6c0-0.3-0.2-0.6-0.4-0.9c-2.9-2.4-6-3.7-9.3-3.7c-5.1,0-9.2,3-10.9,4.5c-1.5-1.1-5.3-3.2-9.7-3.2
	c-3.9,0-7.3,1.6-10.3,4.8C218.8,256.9,218.7,257.2,218.7,257.6"/>
<path class="st1" d="M145,269.3c0-8.7,7.1-15.8,15.8-15.8c0.3,0,0.7,0,1,0.1c0.8-11,10-19.7,21.3-19.7c11.8,0,21.4,9.6,21.4,21.4
	c0,3.3-0.8,6.5-2.2,9.3c10.7,2.4,18.7,11.9,18.7,23.3c0,13.2-10.7,23.9-23.9,23.9c-1,0-31.8-0.2-31.8-0.2c-9.3,0-16.9-7.6-16.9-16.9
	c0-4.5,1.8-8.5,4.6-11.6C148.2,280.2,145,275.1,145,269.3"/>
<polygon class="st1" points="111,119.4 111,134.5 111.1,134.5 121.3,124 121.4,124 121.4,189.9 135.9,189.9 135.9,103.8
	124.3,103.8 "/>
<path class="st1" d="M170.3,131.1c-5.7,0-9.9,2-12.2,6H158v-21.5h24.9v-11.8h-38.1v48.5H158v-1.9c0-5.1,2.3-7.9,6.3-7.9
	c4.4,0,6.2,3.1,6.2,7.7v20.8c0,4.6-1.7,7.7-6.1,7.7c-4.9,0-6.7-3.3-6.7-8.4v-10.8h-13.2v9.8c0,13.1,5.2,21.5,19.9,21.5
	c14.6,0,20.6-7.7,20.6-19.7v-21.1C185,136.6,178,131.1,170.3,131.1"/>
<polygon class="st1" points="197.2,103.5 203.2,103.5 203.2,134.5 210.4,134.5 210.4,139.5 197.2,139.5 "/>
<rect x="213.2" y="103.5" class="st1" width="6.1" height="36"/>
<polygon class="st1" points="222.7,103.5 236.9,103.5 236.9,108.4 228.8,108.4 228.8,118.7 234.8,118.7 234.8,123.6 228.8,123.6
	228.8,139.5 222.7,139.5 "/>
<polygon class="st1" points="239.6,103.5 254,103.5 254,108.4 245.6,108.4 245.6,118.7 251.6,118.7 251.6,123.6 245.6,123.6
	245.6,134.5 254,134.5 254,139.5 239.6,139.5 "/>
<path class="st1" d="M197.2,180.6v-17.4c0-5.6,2.8-9.7,9.1-9.7c6.4,0,9.2,4.1,9.2,9.7v17.4c0,5.6-2.8,9.7-9.2,9.7
	C199.9,190.3,197.2,186.2,197.2,180.6 M209.4,181.6v-19.3c0-2.2-1-3.7-3.1-3.7c-2.1,0-3.1,1.5-3.1,3.7v19.3c0,2.2,1,3.7,3.1,3.7
	C208.5,185.3,209.4,183.7,209.4,181.6"/>
<polygon class="st1" points="224,167.3 224,189.9 218.9,189.9 218.9,153.9 224.9,153.9 231.4,174.6 231.4,153.9 236.4,153.9
	236.4,189.9 231.1,189.9 "/>
<polygon class="st1" points="251,153.9 257.1,153.9 257.1,185 264.3,185 264.3,189.9 251,189.9 "/>
<path class="st1" d="M266.1,189.9l6.8-36h6.9l6.8,36h-6.2l-1.1-6.6h-6.4l-1.1,6.6H266.1z M273.7,178.5h4.8l-2.4-14.4h-0.1
	L273.7,178.5z"/>
<polygon class="st1" points="294.2,167.3 294.2,189.9 289.1,189.9 289.1,153.9 295.1,153.9 301.6,174.6 301.6,153.9 306.6,153.9
	306.6,189.9 301.3,189.9 "/>
<path class="st1" d="M328.2,163.6v16.7c0,5.5-2.3,9.7-8.8,9.7h-9.3v-36h9.3C325.9,153.9,328.2,158,328.2,163.6 M318.7,185
	c2.5,0,3.5-1.5,3.5-3.7v-18.8c0-2.1-1-3.6-3.5-3.6h-2.5V185H318.7z"/>
</svg>
