<?xml version="1.0" encoding="utf-8"?>
<!-- Generator: Adobe Illustrator 23.0.3, SVG Export Plug-In . SVG Version: 6.00 Build 0)  -->
<svg version="1.1" id="Layer_1" xmlns="http://www.w3.org/2000/svg" xmlns:xlink="http://www.w3.org/1999/xlink" x="0px" y="0px"
	 viewBox="0 0 431.7 431.7" style="enable-background:new 0 0 431.7 431.7;" xml:space="preserve">
<style type="text/css">
	.st0{fill:#D5A102;}
	.st1{fill:#FFFFFF;}
</style>
<title>ods2</title>
<g>
	<path class="st0" d="M215.7,430.8L215.7,430.8C97.3,430.8,1.4,334.8,1.4,216.5v0C1.4,98.1,97.3,2.2,215.7,2.2h0
		C334.1,2.2,430,98.1,430,216.5v0C430,334.8,334.1,430.8,215.7,430.8z"/>
	<path class="st1" d="M192.2,367v4.6c0,0,0,0.1,0,0.1c0,0,0,0.1,0,0.1c0,1.1,1,2,2.1,2.1c0,0,0,0,0,0c0,0,0,0,0.1,0h54c0,0,0,0,0,0
		c0,0,0,0,0,0c1.2,0,2.1-1,2.1-2.2c0,0,0,0,0,0l0,0v-5.2c30.4-10,53.2-34.6,58.2-64.6c0-0.1,0-0.1,0-0.2c0-0.1,0-0.2,0-0.3
		c0-1.2-1-2.2-2.2-2.2H135.6h-1c-1.2,0-2.2,1-2.2,2.2l0.1,1C137.7,332.7,161.1,357.5,192.2,367"/>
	<path class="st1" d="M250.6,225.7c-0.7,1-17.3,25,0.4,44.3c8.1,8.9,7.4,16.7,5.1,22h11.4c2.3-7.8,1.4-17.6-7.9-27.7
		c-13.1-14.3,0.2-33.6,0.4-33.8c1.6-2.2,0.7-5-1.8-6.4C255.5,222.9,252.1,223.6,250.6,225.7"/>
	<path class="st1" d="M221.8,292.1h11.4c2.3-7.8,1.3-17.6-7.9-27.7c-13.1-14.3,0.2-33.5,0.4-33.9c1.5-2.2,0.7-5-1.8-6.4
		c-2.6-1.3-5.9-0.6-7.5,1.6c-0.7,1-17.4,25,0.4,44.3C224.8,278.9,224.1,286.8,221.8,292.1"/>
	<path class="st1" d="M182.1,225.7c-0.7,1-17.4,25,0.4,44.3c8.1,8.9,7.4,16.7,5.1,22h11.4c2.3-7.8,1.3-17.6-7.9-27.7
		c-13.1-14.3,0.2-33.6,0.4-33.9c1.5-2.2,0.7-5-1.9-6.4C187,222.8,183.6,223.6,182.1,225.7"/>
	<path class="st1" d="M161.5,171.4h-29.2v-5c0-8.3,3-11.4,7.5-16.2l11.4-12c9.2-9.8,11.2-16.1,11.2-26.7v-10.3
		c0-15.1-7.3-22.3-23.3-22.3c-15.6,0-23.6,8.3-23.6,23.1v12.8h16.2v-13.3c0-6.4,3.1-8.3,6.9-8.3c3.4,0,6.4,1.4,6.4,8v8.7
		c0,8.7-0.8,12.2-6.6,18.3l-10,10.6c-9.7,10.3-13.3,17.2-13.3,27.6v19.5h46.2V171.4z"/>
	<polygon class="st1" points="187.2,119.5 198.5,119.5 198.5,125.5 179.4,125.5 179.4,119.5 191.1,87.4 180.6,87.4 180.6,81.3
		198.9,81.3 198.9,87.4 	"/>
	<polygon class="st1" points="202.8,81.3 220.6,81.3 220.6,87.4 210.3,87.4 210.3,100 217.6,100 217.6,106 210.3,106 210.3,119.5
		220.6,119.5 220.6,125.5 202.8,125.5 	"/>
	<path class="st1" d="M232,105.2v20.3h-7.4V81.3h10.8c7.5,0,10.2,3.7,10.2,9.9v5.7c0,4.8-1.7,7.6-5.9,8.5l7.1,20.1H239L232,105.2z
		 M232,87.4v13.8h2.5c2.5,0,3.7-1.3,3.7-3.7v-6.5c0-2.4-1.1-3.6-3.7-3.6H232z"/>
	<path class="st1" d="M249.7,114.1V92.7c0-6.9,3.4-11.9,11.2-11.9c7.9,0,11.3,5,11.3,11.9v21.4c0,6.9-3.4,11.9-11.3,11.9
		C253.1,126,249.7,121,249.7,114.1 M264.7,115.3V91.5c0-2.7-1.2-4.6-3.9-4.6c-2.6,0-3.8,1.9-3.8,4.6v23.7c0,2.7,1.2,4.6,3.8,4.6
		C263.6,119.8,264.7,118,264.7,115.3"/>
	<polygon class="st1" points="194.5,168 187.4,168 187.4,187.5 179.9,187.5 179.9,143.3 187.4,143.3 187.4,162 194.5,162
		194.5,143.3 202,143.3 202,187.5 194.5,187.5 	"/>
	<path class="st1" d="M227.9,143.3v33.5c0,6.8-2.9,11.3-10.5,11.3c-7.8,0-11.1-4.4-11.1-11.3v-33.5h7.4v34.2c0,2.6,1,4.4,3.7,4.4
		s3.7-1.8,3.7-4.4v-34.2H227.9z"/>
	<polygon class="st1" points="238.4,159.7 238.4,187.5 232.1,187.5 232.1,143.3 239.4,143.3 247.4,168.6 247.4,143.3 253.6,143.3
		253.6,187.5 247.1,187.5 	"/>
	<path class="st1" d="M269.1,163.9h10.6v23.6h-5.4v-4.8c-1,3.3-3.1,5.3-7.1,5.3c-6.4,0-9.3-5.1-9.3-11.9v-21.4
		c0-6.9,3.3-11.9,11.2-11.9c8.2,0,10.6,4.6,10.6,11.1v3.9h-6.8v-4.5c0-2.7-1-4.3-3.7-4.3c-2.7,0-3.9,1.9-3.9,4.6v23.7
		c0,2.7,1.1,4.6,3.7,4.6c2.4,0,3.7-1.4,3.7-4.2v-7.8h-3.5V163.9z"/>
	<polygon class="st1" points="283.9,143.3 301.7,143.3 301.7,149.3 291.3,149.3 291.3,162 298.7,162 298.7,168 291.3,168
		291.3,181.4 301.7,181.4 301.7,187.5 283.9,187.5 	"/>
	<path class="st1" d="M313.1,167.2v20.3h-7.4v-44.2h10.8c7.5,0,10.2,3.7,10.2,9.9v5.7c0,4.8-1.7,7.6-5.9,8.5l7.1,20.1H320
		L313.1,167.2z M313.1,149.3v13.8h2.5c2.5,0,3.7-1.3,3.7-3.7v-6.5c0-2.4-1.1-3.6-3.7-3.6H313.1z"/>
</g>
</svg>
