<?xml version="1.0" encoding="utf-8"?>
<!-- Generator: Adobe Illustrator 23.0.3, SVG Export Plug-In . SVG Version: 6.00 Build 0)  -->
<svg version="1.1" id="Layer_1" xmlns="http://www.w3.org/2000/svg" xmlns:xlink="http://www.w3.org/1999/xlink" x="0px" y="0px"
	 viewBox="0 0 431.7 431.7" style="enable-background:new 0 0 431.7 431.7;" xml:space="preserve">
<style type="text/css">
	.st0{fill:#279338;}
	.st1{fill:#FFFFFF;}
</style>
<title>ods3</title>
<path class="st0" d="M216.2,430.3L216.2,430.3C98.1,430.3,2.3,334.6,2.3,216.5v0C2.3,98.4,98.1,2.6,216.2,2.6h0
	C334.3,2.6,430,98.4,430,216.5v0C430,334.6,334.3,430.3,216.2,430.3z"/>
<path class="st1" d="M362.9,309.4c0-12-7.7-21.8-19.4-21.8c-5.8,0-12.9,6.4-16.7,10.3c-3.8-3.9-10.4-10.4-16.3-10.4
	c-11.7,0-19.9,9.8-19.9,21.8c0,6,2.4,11.5,6.2,15.4l30,30l29.9-30l0,0C360.6,320.8,362.9,315.4,362.9,309.4"/>
<path class="st1" d="M235.3,403.9c-0.1,0-0.2,0-0.3,0c-2.3-0.1-4.2-1.8-4.5-4.1l-15.2-88.7l-23.1,42.8c-1,1.9-3.1,2.9-5.2,2.5
	c-2.1-0.4-3.7-2-4-4.2l-9.8-68.4L155.2,324c-0.8,1.8-2.6,2.9-4.5,2.9H81.1c-2.7,0-4.9-2.2-4.9-4.9c0-2.7,2.2-4.9,4.9-4.9h66.4
	l23.6-52.9c0.9-2,3-3.2,5.2-2.9c2.2,0.3,3.9,2,4.2,4.2l10.1,70.6l22.7-42.2c1-1.9,3.1-2.9,5.1-2.5c2.1,0.3,3.7,2,4.1,4l14.1,82.1
	L288,206.8c0.6-1.9,2.3-3.3,4.3-3.5c2-0.1,3.9,0.9,4.8,2.8l27,56.1c1.2,2.4,0.2,5.4-2.3,6.6c-2.4,1.2-5.4,0.2-6.6-2.3l-21.5-44.7
	L240,400.3C239.4,402.4,237.4,403.9,235.3,403.9"/>
<path class="st1" d="M92.3,185.7c14.6,0,21-7.8,21-19.7v-12.7c0-7.9-3.4-13-10.7-14.6c6-1.9,9.9-6.7,9.9-14v-7.5
	c0-12.2-5.9-19.7-19.2-19.7c-15,0-20.2,8.9-20.2,21.6v7.6h13.2v-8.8c0-5.3,1.7-8.4,6.2-8.4c4.6,0,6.2,3,6.2,7.8v9.3
	c0,4.6-3.1,7-7.8,7h-5.5v11.1h6.1c5.1,0,7.1,2.4,7.1,7v14.2c0,4.6-2,7.8-6.5,7.8c-5,0-6.7-3.3-6.7-8.4v-12.3H72.3v11.3
	C72.3,177.3,77.5,185.7,92.3,185.7"/>
<path class="st1" d="M137.6,116.1h8.6v19.2h-4.4v-3.9c-0.8,2.7-2.5,4.4-5.8,4.4c-5.2,0-7.6-4.1-7.6-9.7v-17.4c0-5.6,2.7-9.7,9.1-9.7
	c6.7,0,8.7,3.7,8.7,9v3.2h-5.5v-3.7c0-2.2-0.9-3.5-3-3.5s-3.1,1.5-3.1,3.7V127c0,2.2,0.9,3.7,3,3.7c2,0,3-1.1,3-3.5v-6.4h-2.9V116.1
	z"/>
<path class="st1" d="M149.7,126v-17.4c0-5.6,2.8-9.7,9.1-9.7c6.4,0,9.2,4.1,9.2,9.7V126c0,5.6-2.8,9.7-9.2,9.7
	C152.4,135.8,149.7,131.6,149.7,126 M162,127v-19.4c0-2.2-1-3.7-3.1-3.7c-2.1,0-3.1,1.5-3.1,3.7V127c0,2.2,1,3.7,3.1,3.7
	C161,130.7,162,129.2,162,127"/>
<path class="st1" d="M171.5,126v-17.4c0-5.6,2.8-9.7,9.1-9.7c6.4,0,9.2,4.1,9.2,9.7V126c0,5.6-2.8,9.7-9.2,9.7
	C174.2,135.8,171.5,131.6,171.5,126 M183.8,127v-19.4c0-2.2-1-3.7-3.1-3.7c-2.1,0-3.1,1.5-3.1,3.7V127c0,2.2,1,3.7,3.1,3.7
	C182.8,130.7,183.8,129.2,183.8,127"/>
<path class="st1" d="M211.4,109v16.7c0,5.5-2.3,9.7-8.8,9.7h-9.4v-36h9.4C209.1,99.3,211.4,103.4,211.4,109 M201.9,130.4
	c2.5,0,3.5-1.5,3.5-3.7v-18.9c0-2.1-1-3.6-3.5-3.6h-2.6v26.2H201.9z"/>
<polygon class="st1" points="232.3,119.4 226.5,119.4 226.5,135.3 220.4,135.3 220.4,99.3 226.5,99.3 226.5,114.5 232.3,114.5
	232.3,99.3 238.5,99.3 238.5,135.3 232.3,135.3 "/>
<polygon class="st1" points="241.9,99.3 256.4,99.3 256.4,104.2 248,104.2 248,114.5 254,114.5 254,119.4 248,119.4 248,130.4
	256.4,130.4 256.4,135.3 241.9,135.3 "/>
<path class="st1" d="M258.6,135.3l6.8-36h6.9l6.9,36H273l-1.1-6.6h-6.4l-1.1,6.6H258.6z M266.2,123.9h4.8l-2.4-14.5h-0.1
	L266.2,123.9z"/>
<polygon class="st1" points="281.7,99.3 287.8,99.3 287.8,130.4 295,130.4 295,135.3 281.7,135.3 "/>
<polygon class="st1" points="293.6,99.3 309.7,99.3 309.7,104.2 304.7,104.2 304.7,135.3 298.6,135.3 298.6,104.2 293.6,104.2 "/>
<polygon class="st1" points="324.5,119.4 318.6,119.4 318.6,135.3 312.5,135.3 312.5,99.3 318.6,99.3 318.6,114.5 324.5,114.5
	324.5,99.3 330.6,99.3 330.6,135.3 324.5,135.3 "/>
<path class="st1" d="M127.5,185.8l6.8-36.1h6.9l6.9,36.1h-6.2l-1.1-6.6h-6.4l-1.1,6.6H127.5z M135.1,174.4h4.8l-2.4-14.5h-0.1
	L135.1,174.4z"/>
<polygon class="st1" points="155.7,163.2 155.7,185.8 150.6,185.8 150.6,149.8 156.5,149.8 163.1,170.5 163.1,149.8 168.1,149.8
	168.1,185.8 162.8,185.8 "/>
<path class="st1" d="M189.7,159.5v16.7c0,5.5-2.3,9.7-8.8,9.7h-9.4v-36.1h9.4C187.4,149.8,189.7,153.9,189.7,159.5 M180.2,180.9
	c2.5,0,3.5-1.5,3.5-3.7v-18.9c0-2.1-1-3.6-3.5-3.6h-2.6v26.2H180.2z"/>
<polygon class="st1" points="211.8,163.5 208.4,185.8 202.7,185.8 197.9,149.8 203.7,149.8 206.6,172.6 206.6,172.6 209.6,149.8
	214.6,149.8 217.9,172.6 218,172.6 220.8,149.8 225.9,149.8 221.2,185.8 215.4,185.8 211.9,163.5 "/>
<polygon class="st1" points="228.5,149.8 242.9,149.8 242.9,154.7 234.5,154.7 234.5,165 240.5,165 240.5,169.9 234.5,169.9
	234.5,180.9 242.9,180.9 242.9,185.8 228.5,185.8 "/>
<polygon class="st1" points="246.2,149.8 252.2,149.8 252.2,180.9 259.4,180.9 259.4,185.8 246.2,185.8 "/>
<polygon class="st1" points="262.2,149.8 268.3,149.8 268.3,180.9 275.5,180.9 275.5,185.8 262.2,185.8 "/>
<rect x="274.7" y="166.6" class="st1" width="8.5" height="4.9"/>
<path class="st1" d="M286.3,149.8h8.8c6.1,0,8.1,2.8,8.1,7.9v3.7c0,3-1.1,4.9-3.6,5.7c3,0.7,4.5,2.7,4.5,6v4.8
	c0,5.1-2.3,7.9-8.3,7.9h-9.4V149.8z M292.3,165h2.1c2,0,2.9-1,2.9-2.9v-4.4c0-2-0.9-2.9-2.9-2.9h-2.1V165z M292.3,169.6v11.3h2.7
	c2,0,3-1,3-2.9v-5.4c0-1.9-0.9-2.9-3-2.9H292.3z"/>
<polygon class="st1" points="307.1,149.8 321.5,149.8 321.5,154.7 313.1,154.7 313.1,165 319.1,165 319.1,169.9 313.1,169.9
	313.1,180.9 321.5,180.9 321.5,185.8 307.1,185.8 "/>
<rect x="324.8" y="149.8" class="st1" width="6.1" height="36.1"/>
<polygon class="st1" points="339.4,163.2 339.4,185.8 334.3,185.8 334.3,149.8 340.3,149.8 346.8,170.5 346.8,149.8 351.9,149.8
	351.9,185.8 346.6,185.8 "/>
<path class="st1" d="M364.5,166.6h8.6v19.2h-4.4v-3.9c-0.8,2.7-2.5,4.4-5.8,4.4c-5.2,0-7.6-4.1-7.6-9.7v-17.4c0-5.6,2.7-9.7,9.1-9.7
	c6.7,0,8.7,3.7,8.7,9v3.2h-5.5v-3.7c0-2.2-0.9-3.5-3-3.5c-2.2,0-3.1,1.5-3.1,3.7v19.4c0,2.2,0.9,3.7,3,3.7c2,0,3-1.1,3-3.5v-6.4
	h-2.9V166.6z"/>
</svg>
