<?xml version="1.0" encoding="utf-8"?>
<!-- Generator: Adobe Illustrator 23.0.3, SVG Export Plug-In . SVG Version: 6.00 Build 0)  -->
<svg version="1.1" id="Layer_1" xmlns="http://www.w3.org/2000/svg" xmlns:xlink="http://www.w3.org/1999/xlink" x="0px" y="0px"
	 viewBox="0 0 431.7 431.7" style="enable-background:new 0 0 431.7 431.7;" xml:space="preserve">
<style type="text/css">
	.st0{fill:#C11627;}
	.st1{fill:#FFFFFF;}
</style>
<title>ods4</title>
<path class="st0" d="M215.6,429.9L215.6,429.9C97.8,429.9,2.2,334.3,2.2,216.5v0C2.2,98.6,97.8,3.1,215.6,3.1h0
	C333.5,3.1,429,98.6,429,216.5v0C429,334.3,333.5,429.9,215.6,429.9z"/>
<polygon class="st1" points="191.5,231.9 115,187.7 115,330.7 191.5,353.8 "/>
<polygon class="st1" points="200,232.2 200,353.8 277,330.7 277,187.7 "/>
<polygon class="st1" points="321.2,328.2 319,328.2 328,359.8 337.1,328.2 334.8,328.2 337.1,328.2 337.1,201 334.8,201 332.6,201
	330.2,201 325.7,201 323.5,201 321.2,201 319,201 319,328.2 "/>
<polygon class="st1" points="293.4,193.9 285.2,187.4 285.2,334.6 200.2,362.1 196.2,362.1 195.5,362.1 191.5,362.1 106.9,338.4
	106.9,187.4 98.7,193.9 98.7,344.2 191.1,369.8 195.5,369.8 196.2,369.8 200.6,369.8 285.9,342.7 293.4,340.5 "/>
<path class="st1" d="M337.1,184.1c0-5-4.1-9.1-9-9.1c-5,0-9.1,4.1-9.1,9.1v9.8h18.1V184.1z"/>
<path class="st1" d="M121.8,152.1h13.7v-14h5.8v-11.3h-5.8V66.1h-14.2l-25,63.2v8.9h25.5V152.1z M109,126.9l12.9-35.4h0.1v35.4H109z
	"/>
<path class="st1" d="M168.6,105.5V103c-4.8-0.8-6.9-4.4-6.9-9.3V76.4c0-5.6,2.8-9.7,9.1-9.7c6.4,0,9.2,4.1,9.2,9.7v17.4
	c0,3.9-1.4,7-4.5,8.5l4.5,0.9v4.5L168.6,105.5z M174,95V75.4c0-2.2-1-3.7-3.1-3.7c-2.1,0-3.1,1.5-3.1,3.7V95c0,2.1,1,3.7,3.1,3.7
	C173,98.7,174,97.2,174,95"/>
<path class="st1" d="M201,67.1v27.2c0,5.6-2.4,9.2-8.5,9.2c-6.4,0-9-3.6-9-9.2V67.1h6v27.8c0,2.1,0.8,3.6,3,3.6c2.1,0,3-1.4,3-3.6
	V67.1H201z"/>
<path class="st1" d="M202.7,103l6.8-36h6.9l6.8,36h-6.2l-1.1-6.6h-6.4l-1.1,6.6H202.7z M210.3,91.6h4.8l-2.4-14.4h-0.1L210.3,91.6z"
	/>
<polygon class="st1" points="225.7,67.1 231.8,67.1 231.8,98.1 239,98.1 239,103 225.7,103 "/>
<rect x="241.8" y="67.1" class="st1" width="6" height="36"/>
<polygon class="st1" points="250.6,67.1 266.7,67.1 266.7,72 261.7,72 261.7,103 255.6,103 255.6,72 250.6,72 "/>
<polygon class="st1" points="281.3,89.4 281.3,103 275.2,103 275.2,89.4 268.5,67.1 274.8,67.1 278.5,80.7 278.5,80.7 282.2,67.1
	288,67.1 "/>
<polygon class="st1" points="161.7,117.5 176.2,117.5 176.2,122.4 167.8,122.4 167.8,132.7 173.8,132.7 173.8,137.6 167.8,137.6
	167.8,148.5 176.2,148.5 176.2,153.4 161.7,153.4 "/>
<path class="st1" d="M197.5,127.1v16.7c0,5.5-2.3,9.7-8.8,9.7h-9.3v-36h9.3C195.2,117.5,197.5,121.5,197.5,127.1 M188,148.5
	c2.5,0,3.4-1.5,3.4-3.7V126c0-2.1-1-3.6-3.4-3.6h-2.5v26.1H188z"/>
<path class="st1" d="M218.5,117.5v27.2c0,5.6-2.4,9.2-8.5,9.2c-6.4,0-9-3.6-9-9.2v-27.2h6v27.8c0,2.1,0.8,3.6,3,3.6
	c2.1,0,3-1.4,3-3.6v-27.8H218.5z"/>
<path class="st1" d="M221.9,144.2v-17.4c0-5.6,2.7-9.7,9-9.7c6.7,0,8.5,3.7,8.5,9v4.2H234v-4.7c0-2.2-0.7-3.5-2.9-3.5
	c-2.2,0-3.1,1.5-3.1,3.7v19.3c0,2.2,0.9,3.7,3.1,3.7c2.2,0,2.9-1.4,2.9-3.5v-6.6h5.5v6.2c0,5.1-2.1,9-8.5,9
	C224.6,153.9,221.9,149.7,221.9,144.2"/>
<path class="st1" d="M241.3,153.4l6.8-36h6.9l6.8,36h-6.2l-1.1-6.6h-6.4l-1.1,6.6H241.3z M248.9,142h4.8l-2.4-14.4h-0.1L248.9,142z"
	/>
<polygon class="st1" points="261,117.5 277,117.5 277,122.4 272.1,122.4 272.1,153.4 266,153.4 266,122.4 261,122.4 "/>
<rect x="279.9" y="117.5" class="st1" width="6" height="36"/>
<path class="st1" d="M289.4,144.2v-17.4c0-5.6,2.8-9.7,9.1-9.7c6.4,0,9.2,4.1,9.2,9.7v17.4c0,5.6-2.8,9.7-9.2,9.7
	C292.2,153.9,289.4,149.7,289.4,144.2 M301.7,145.1v-19.3c0-2.2-1-3.7-3.1-3.7c-2.1,0-3.1,1.5-3.1,3.7v19.3c0,2.2,1,3.7,3.1,3.7
	C300.7,148.8,301.7,147.3,301.7,145.1"/>
<polygon class="st1" points="316.2,130.8 316.2,153.4 311.1,153.4 311.1,117.5 317.1,117.5 323.6,138.1 323.6,117.5 328.7,117.5
	328.7,153.4 323.4,153.4 "/>
</svg>
