<?xml version="1.0" encoding="utf-8"?>
<!-- Generator: Adobe Illustrator 23.0.3, SVG Export Plug-In . SVG Version: 6.00 Build 0)  -->
<svg version="1.1" id="Layer_1" xmlns="http://www.w3.org/2000/svg" xmlns:xlink="http://www.w3.org/1999/xlink" x="0px" y="0px"
	 viewBox="0 0 431.7 431.7" style="enable-background:new 0 0 431.7 431.7;" xml:space="preserve">
<style type="text/css">
	.st0{fill:#E5321D;}
	.st1{fill:#FFFFFF;}
</style>
<title>ods5</title>
<path class="st0" d="M216.5,430L216.5,430C98.6,430,3,334.4,3,216.4v0C3,98.5,98.6,2.9,216.5,2.9h0C334.4,2.9,430,98.5,430,216.4v0
	C430,334.4,334.4,430,216.5,430z"/>
<path class="st1" d="M287.5,220.7h-39.9c-0.3,0-0.5,0.2-0.5,0.5v13.3c0,0.3,0.2,0.5,0.5,0.5h15.9l-17.7,17.7
	c-8.9-7-20.1-11.2-32.3-11.2c-28.8,0-52.3,23.5-52.3,52.3c0,26.6,19.9,48.5,45.6,51.9V361H191c-0.3,0-0.5,0.2-0.5,0.5v14.2
	c0,0.3,0.2,0.5,0.5,0.5h15.8v15.1c0,0.3,0.2,0.5,0.5,0.5h14.2c0.3,0,0.5-0.2,0.5-0.5v-15.1h15.8c0.3,0,0.5-0.2,0.5-0.5v-14.2
	c0-0.3-0.2-0.5-0.5-0.5H222v-15.5c24.8-4.1,43.8-25.7,43.8-51.6c0-11.2-3.5-21.6-9.6-30.1l17.4-17.4v14.9c0,0.3,0.2,0.5,0.5,0.5
	h13.3c0.3,0,0.5-0.2,0.5-0.5v-39.9C288,220.9,287.7,220.7,287.5,220.7 M213.5,332.3c-21.2,0-38.5-17.3-38.5-38.5
	c0-21.2,17.3-38.5,38.5-38.5c21.2,0,38.5,17.3,38.5,38.5C252,315,234.7,332.3,213.5,332.3"/>
<path class="st1" d="M237,278h-46.7c-0.3,0-0.5,0.2-0.5,0.5v11.3c0,0.3,0.2,0.5,0.5,0.5H237c0.3,0,0.5-0.2,0.5-0.5v-11.3
	C237.5,278.2,237.3,278,237,278"/>
<path class="st1" d="M237,298.2h-46.7c-0.3,0-0.5,0.2-0.5,0.5V310c0,0.3,0.2,0.5,0.5,0.5H237c0.3,0,0.5-0.2,0.5-0.5v-11.3
	C237.5,298.4,237.3,298.2,237,298.2"/>
<path class="st1" d="M141.7,120.2c-5.7,0-9.9,2-12.2,6h-0.1v-21.5h24.9V92.9h-38.1v48.5h13.2v-1.9c0-5.1,2.3-7.9,6.3-7.9
	c4.4,0,6.2,3.1,6.2,7.8v20.8c0,4.6-1.7,7.7-6.1,7.7c-5,0-6.7-3.3-6.7-8.4v-10.8h-13.2v9.8c0,13.1,5.2,21.5,19.9,21.5
	c14.6,0,20.6-7.7,20.6-19.7v-21.1C156.4,125.6,149.4,120.2,141.7,120.2"/>
<path class="st1" d="M182.3,111.3h8.6v19.2h-4.4v-3.9c-0.8,2.7-2.5,4.4-5.8,4.4c-5.2,0-7.6-4.1-7.6-9.7v-17.4c0-5.6,2.7-9.7,9.1-9.7
	c6.7,0,8.7,3.7,8.7,9v3.2h-5.5v-3.7c0-2.2-0.8-3.5-3-3.5c-2.2,0-3.1,1.5-3.1,3.7v19.3c0,2.2,0.9,3.7,3,3.7c2,0,3-1.1,3-3.4V116h-2.9
	V111.3z"/>
<polygon class="st1" points="194.3,94.5 208.8,94.5 208.8,99.4 200.4,99.4 200.4,109.7 206.4,109.7 206.4,114.6 200.4,114.6
	200.4,125.5 208.8,125.5 208.8,130.5 194.3,130.5 "/>
<polygon class="st1" points="217.1,107.9 217.1,130.5 212,130.5 212,94.5 217.9,94.5 224.5,115.1 224.5,94.5 229.5,94.5
	229.5,130.5 224.2,130.5 "/>
<path class="st1" d="M251.1,104.1v16.7c0,5.5-2.3,9.7-8.8,9.7h-9.3v-36h9.3C248.8,94.5,251.1,98.6,251.1,104.1 M241.6,125.5
	c2.5,0,3.5-1.5,3.5-3.7V103c0-2.1-1-3.6-3.5-3.6H239v26.1H241.6z"/>
<polygon class="st1" points="254.5,94.5 268.9,94.5 268.9,99.4 260.5,99.4 260.5,109.7 266.5,109.7 266.5,114.6 260.5,114.6
	260.5,125.5 268.9,125.5 268.9,130.5 254.5,130.5 "/>
<path class="st1" d="M278.2,114v16.5h-6v-36h8.8c6.1,0,8.3,3,8.3,8.1v4.6c0,3.9-1.4,6.2-4.8,7l5.8,16.4h-6.4L278.2,114z M278.2,99.4
	v11.2h2c2.1,0,3-1.1,3-3v-5.3c0-2-0.9-2.9-3-2.9H278.2z"/>
<polygon class="st1" points="173.1,144.9 187.6,144.9 187.6,149.8 179.2,149.8 179.2,160.1 185.2,160.1 185.2,165 179.2,165
	179.2,176 187.6,176 187.6,180.9 173.1,180.9 "/>
<path class="st1" d="M197.2,183.3v-2.4c-4.8-0.8-6.9-4.4-6.9-9.3v-17.4c0-5.6,2.8-9.7,9.1-9.7c6.4,0,9.2,4.1,9.2,9.7v17.4
	c0,3.9-1.4,7-4.5,8.5l4.5,0.9v4.5L197.2,183.3z M202.5,172.9v-19.6c0-2.2-1-3.7-3.1-3.7c-2.1,0-3.1,1.5-3.1,3.7v19.6
	c0,2.1,1,3.7,3.1,3.7C201.6,176.6,202.5,175,202.5,172.9"/>
<path class="st1" d="M229.6,144.9v27.2c0,5.6-2.4,9.2-8.6,9.2c-6.4,0-9-3.6-9-9.2v-27.2h6.1v27.8c0,2.1,0.8,3.6,3,3.6
	c2.1,0,3-1.4,3-3.6v-27.8H229.6z"/>
<path class="st1" d="M231.3,180.9l6.8-36h6.9l6.8,36h-6.2l-1.1-6.6h-6.4l-1.1,6.6H231.3z M238.9,169.5h4.8l-2.4-14.4h-0.1
	L238.9,169.5z"/>
<polygon class="st1" points="254.3,144.9 260.4,144.9 260.4,176 267.6,176 267.6,180.9 254.3,180.9 "/>
<rect x="270.4" y="144.9" class="st1" width="6" height="36"/>
<polygon class="st1" points="279.2,144.9 295.3,144.9 295.3,149.8 290.3,149.8 290.3,180.9 284.2,180.9 284.2,149.8 279.2,149.8 "/>
<polygon class="st1" points="309.9,167.2 309.9,180.9 303.9,180.9 303.9,167.2 297.1,144.9 303.4,144.9 307.1,158.5 307.2,158.5
	310.8,144.9 316.6,144.9 "/>
</svg>
