<?xml version="1.0" encoding="utf-8"?>
<!-- Generator: Adobe Illustrator 23.0.3, SVG Export Plug-In . SVG Version: 6.00 Build 0)  -->
<svg version="1.1" id="Layer_1" xmlns="http://www.w3.org/2000/svg" xmlns:xlink="http://www.w3.org/1999/xlink" x="0px" y="0px"
	 viewBox="0 0 431.7 431.7" style="enable-background:new 0 0 431.7 431.7;" xml:space="preserve">
<style type="text/css">
	.st0{fill:#00A6D6;}
	.st1{fill:#FFFFFF;}
</style>
<title>ods6</title>
<path class="st0" d="M215.9,430.5L215.9,430.5C97.7,430.5,1.9,334.7,1.9,216.4v0C1.9,98.2,97.7,2.4,215.9,2.4h0
	C334.2,2.4,430,98.2,430,216.4v0C430,334.7,334.2,430.5,215.9,430.5z"/>
<path class="st1" d="M277.4,225.6c-0.3-0.3-0.7-0.5-1.1-0.5H156.7c-0.4,0-0.8,0.2-1.1,0.5c-0.3,0.3-0.4,0.7-0.3,1.1l20.1,121.5
	c0.1,0.7,0.7,1.2,1.4,1.2h24.7l1.7,19.8l-10.4,0l24.1,24.1l24.2-24.2l-10.4,0l1.7-19.8h25.1c0.7,0,1.3-0.5,1.4-1.2l18.8-121.5
	C277.8,226.3,277.6,225.9,277.4,225.6 M231.1,322.9c0,0-5.4,5.6-14.3,5c-8.9,0.6-14.3-5-14.3-5c-9-9-5.8-20.1-2.6-25.8
	c1.9-3.6,15.7-24.3,16.9-26v-0.1c0,0,0,0,0.1,0.1l0-0.1v0.1c1.2,1.8,14.9,22.4,16.9,26C236.9,302.8,240.1,313.9,231.1,322.9
	 M269.1,251.2c-3.2-1.4-7.4-0.9-11.3,0.7c-14.8,6-24.9,8.2-40.6,3.3c-9.8-3.1-19-9.5-29.9-5.6c-7.2,2.6-13.9,5.1-22.1,5l-4.7-24.2
	h111.9L269.1,251.2z"/>
<path class="st1" d="M91.1,183.6c15.4,0,21.4-8.4,21.4-21.8v-12.7c0-14.1-5.6-21.3-16-21.3c-6.1,0-9.8,2.8-12,7h-0.1v-18.6
	c0-5.2,1.7-8.9,6.9-8.9c5.2,0,6.7,3.1,6.7,8.4v5.7h13.2v-4.6c0-12.7-4.2-21.6-20.2-21.6c-15.3,0-21,9.8-21,23.3v42
	C70,174,75.9,183.6,91.1,183.6 M84.4,147.3c0.3-4.8,2.3-7.9,6.9-7.9c5,0,6.9,3.1,6.9,8.7v15c0,5.5-2,8.7-7,8.7
	c-4.8,0-6.7-3.3-6.7-8.7V147.3z"/>
<path class="st1" d="M126.1,123.9v-17.5c0-5.6,2.7-9.7,9-9.7c6.7,0,8.6,3.7,8.6,9v4.3h-5.5v-4.7c0-2.2-0.7-3.5-2.9-3.5
	c-2.2,0-3.1,1.5-3.1,3.7v19.4c0,2.2,0.9,3.7,3.1,3.7c2.2,0,2.9-1.4,2.9-3.5v-6.7h5.5v6.2c0,5.2-2.1,9-8.6,9
	C128.8,133.7,126.1,129.5,126.1,123.9"/>
<polygon class="st1" points="147,97.2 153.1,97.2 153.1,128.3 160.3,128.3 160.3,133.3 147,133.3 "/>
<polygon class="st1" points="163.1,97.2 177.6,97.2 177.6,102.1 169.2,102.1 169.2,112.4 175.2,112.4 175.2,117.3 169.2,117.3
	169.2,128.3 177.6,128.3 177.6,133.3 163.1,133.3 "/>
<path class="st1" d="M179.9,133.3l6.8-36.1h6.9l6.9,36.1h-6.2l-1.1-6.6h-6.4l-1.1,6.6H179.9z M187.5,121.8h4.8l-2.4-14.5h-0.1
	L187.5,121.8z"/>
<polygon class="st1" points="208.1,110.6 208.1,133.3 202.9,133.3 202.9,97.2 208.9,97.2 215.5,117.9 215.5,97.2 220.5,97.2
	220.5,133.3 215.2,133.3 "/>
<polygon class="st1" points="242.6,111 239.2,133.3 233.5,133.3 228.7,97.2 234.6,97.2 237.4,120.1 237.4,120.1 240.5,97.2
	245.4,97.2 248.8,120.1 248.8,120.1 251.6,97.2 256.7,97.2 252,133.3 246.3,133.3 242.7,111 "/>
<path class="st1" d="M256.2,133.3l6.8-36.1h6.9l6.9,36.1h-6.2l-1.1-6.6H263l-1.1,6.6H256.2z M263.8,121.8h4.8l-2.4-14.5h-0.1
	L263.8,121.8z"/>
<polygon class="st1" points="276,97.2 292.1,97.2 292.1,102.1 287.1,102.1 287.1,133.3 281,133.3 281,102.1 276,102.1 "/>
<polygon class="st1" points="294.9,97.2 309.4,97.2 309.4,102.1 301,102.1 301,112.4 307,112.4 307,117.3 301,117.3 301,128.3
	309.4,128.3 309.4,133.3 294.9,133.3 "/>
<path class="st1" d="M318.7,116.7v16.6h-6.1V97.2h8.8c6.1,0,8.4,3,8.4,8.1v4.6c0,3.9-1.4,6.2-4.8,7l5.8,16.4h-6.4L318.7,116.7z
	 M318.7,102.1v11.2h2c2.1,0,3-1.1,3-3v-5.3c0-2-0.9-2.9-3-2.9H318.7z"/>
<path class="st1" d="M125.2,183.8l6.8-36.1h6.9l6.9,36.1h-6.2l-1.1-6.6H132l-1.1,6.6H125.2z M132.8,172.4h4.8l-2.4-14.5h-0.1
	L132.8,172.4z"/>
<polygon class="st1" points="153.4,161.1 153.4,183.8 148.3,183.8 148.3,147.7 154.2,147.7 160.8,168.4 160.8,147.7 165.8,147.7
	165.8,183.8 160.5,183.8 "/>
<path class="st1" d="M187.4,157.4v16.7c0,5.5-2.3,9.7-8.8,9.7h-9.4v-36.1h9.4C185.1,147.7,187.4,151.8,187.4,157.4 M177.9,178.9
	c2.5,0,3.5-1.5,3.5-3.7v-18.9c0-2.1-1-3.6-3.5-3.6h-2.6v26.2H177.9z"/>
<path class="st1" d="M196.1,176v-4.8h5.6v5c0,2,0.9,3.2,3,3.2c1.9,0,2.8-1.3,2.8-3.2v-1.4c0-2.1-0.9-3.4-2.7-5.1l-3.6-3.6
	c-3.5-3.4-5.1-5.5-5.1-9.6v-1.2c0-4.5,2.6-7.9,8.5-7.9c6.1,0,8.5,3,8.5,8.2v2.9h-5.5v-3.1c0-2.1-1-3.1-2.9-3.1c-1.7,0-2.9,1-2.9,3
	v0.7c0,2,1.1,3.2,2.9,4.9l3.9,3.8c3.3,3.4,4.9,5.4,4.9,9.4v1.8c0,4.9-2.7,8.5-8.8,8.5C198.5,184.2,196.1,180.8,196.1,176"/>
<path class="st1" d="M215.2,183.8l6.8-36.1h6.9l6.9,36.1h-6.2l-1.1-6.6H222l-1.1,6.6H215.2z M222.8,172.4h4.8l-2.4-14.5h-0.1
	L222.8,172.4z"/>
<polygon class="st1" points="243.4,161.1 243.4,183.8 238.3,183.8 238.3,147.7 244.3,147.7 250.8,168.4 250.8,147.7 255.9,147.7
	255.9,183.8 250.6,183.8 "/>
<rect x="259.3" y="147.7" class="st1" width="6.1" height="36.1"/>
<polygon class="st1" points="268.2,147.7 284.4,147.7 284.4,152.7 279.4,152.7 279.4,183.8 273.2,183.8 273.2,152.7 268.2,152.7 "/>
<path class="st1" d="M283.6,183.8l6.8-36.1h6.9l6.9,36.1h-6.2l-1.1-6.6h-6.4l-1.1,6.6H283.6z M291.2,172.4h4.8l-2.4-14.5h-0.1
	L291.2,172.4z"/>
<polygon class="st1" points="303.3,147.7 319.4,147.7 319.4,152.7 314.4,152.7 314.4,183.8 308.3,183.8 308.3,152.7 303.3,152.7 "/>
<rect x="322.2" y="147.7" class="st1" width="6.1" height="36.1"/>
<path class="st1" d="M331.8,174.5V157c0-5.6,2.8-9.7,9.2-9.7c6.4,0,9.2,4.1,9.2,9.7v17.5c0,5.6-2.8,9.7-9.2,9.7
	C334.6,184.2,331.8,180.1,331.8,174.5 M344.1,175.4v-19.4c0-2.2-1-3.7-3.1-3.7c-2.1,0-3.1,1.5-3.1,3.7v19.4c0,2.2,1,3.7,3.1,3.7
	C343.2,179.2,344.1,177.6,344.1,175.4"/>
<polygon class="st1" points="358.7,161.1 358.7,183.8 353.6,183.8 353.6,147.7 359.6,147.7 366.1,168.4 366.1,147.7 371.2,147.7
	371.2,183.8 365.9,183.8 "/>
</svg>
