<?xml version="1.0" encoding="utf-8"?>
<!-- Generator: Adobe Illustrator 23.0.3, SVG Export Plug-In . SVG Version: 6.00 Build 0)  -->
<svg version="1.1" id="Layer_1" xmlns="http://www.w3.org/2000/svg" xmlns:xlink="http://www.w3.org/1999/xlink" x="0px" y="0px"
	 viewBox="0 0 431.7 431.7" style="enable-background:new 0 0 431.7 431.7;" xml:space="preserve">
<style type="text/css">
	.st0{fill:#FAB700;}
	.st1{fill:#FFFFFF;}
</style>
<title>ods7</title>
<path class="st0" d="M215.7,429.1L215.7,429.1C97.9,429.1,2.4,333.6,2.4,215.8v0C2.4,98,97.9,2.5,215.7,2.5h0
	C333.5,2.5,429,98,429,215.8v0C429,333.6,333.5,429.1,215.7,429.1z"/>
<path class="st1" d="M217.9,254.9c-25.3,0-45.8,20.5-45.8,45.8c0,25.3,20.5,45.8,45.8,45.8c25.3,0,45.8-20.5,45.8-45.8
	C263.7,275.4,243.2,254.9,217.9,254.9 M214.5,273c0-1.5,1.5-3.2,3.4-3.2c1.9,0,3.4,1.7,3.4,3.2v15.7c0,1.5-1.5,3.2-3.4,3.2
	c-1.9,0-3.4-1.7-3.4-3.2V273z M217.9,324.2c-13.2,0-23.8-10.7-23.8-23.8c0-10.7,7-19.7,16.7-22.7v8.9c-5,2.6-8.5,7.8-8.5,13.9
	c0,8.6,7,15.6,15.6,15.6c8.6,0,15.6-7,15.6-15.6c0-6.1-3.5-11.3-8.6-13.9v-8.9c9.7,3,16.8,12.1,16.8,22.8
	C241.7,313.5,231.1,324.2,217.9,324.2"/>
<path class="st1" d="M165.3,300.3c0-2.1-1.8-3.8-3.5-3.8h-20.1c-1.7,0-3.5,1.7-3.5,3.8c0,2.1,1.9,3.8,3.5,3.8h20.1
	C163.5,304.1,165.3,302.4,165.3,300.3"/>
<path class="st1" d="M297.6,300.3c0-2.1-1.8-3.8-3.5-3.8H274c-1.7,0-3.5,1.7-3.5,3.8c0,2.1,1.9,3.8,3.5,3.8h20.1
	C295.8,304.1,297.6,302.4,297.6,300.3"/>
<path class="st1" d="M217.9,380c2.1,0,3.8-1.8,3.8-3.5v-20.1c0-1.7-1.7-3.5-3.8-3.5c-2.1,0-3.8,1.9-3.8,3.5v20.1
	C214.1,378.2,215.8,380,217.9,380"/>
<path class="st1" d="M287.1,339.9c1-1.8,0.3-4.2-1.2-5l-17.4-10c-1.5-0.8-3.9-0.3-4.9,1.5c-1,1.8-0.3,4.2,1.2,5l17.4,10
	C283.6,342.3,286.1,341.7,287.1,339.9"/>
<path class="st1" d="M178.3,369.5c1.8,1,4.2,0.3,5-1.2l10-17.4c0.8-1.5,0.3-3.9-1.5-4.9c-1.8-1-4.2-0.3-5,1.2l-10,17.4
	C176,366,176.5,368.4,178.3,369.5"/>
<path class="st1" d="M257.6,369.4c1.8-1,2.3-3.5,1.5-4.9l-10-17.4c-0.8-1.5-3.2-2.2-5-1.2c-1.8,1-2.3,3.5-1.5,5l10,17.4
	C253.5,369.7,255.8,370.4,257.6,369.4"/>
<path class="st1" d="M148.8,340c1,1.8,3.5,2.3,4.9,1.5l17.4-10c1.5-0.8,2.2-3.2,1.2-5c-1-1.8-3.5-2.3-5-1.5L150,335
	C148.5,335.9,147.8,338.2,148.8,340"/>
<path class="st1" d="M217.9,247.7c2.1,0,3.8-1.8,3.8-3.5v-20.1c0-1.7-1.7-3.5-3.8-3.5c-2.1,0-3.8,1.9-3.8,3.5v20.1
	C214.1,245.9,215.8,247.7,217.9,247.7"/>
<path class="st1" d="M172.3,274.2c1-1.8,0.3-4.2-1.2-5l-17.4-10c-1.5-0.8-3.9-0.3-4.9,1.5c-1,1.8-0.3,4.2,1.2,5l17.4,10
	C168.8,276.6,171.3,276,172.3,274.2"/>
<path class="st1" d="M244,254.7c1.8,1,4.2,0.3,5-1.2l10-17.4c0.8-1.5,0.3-3.9-1.5-4.9c-1.8-1-4.2-0.3-5,1.2l-10,17.4
	C241.7,251.2,242.2,253.7,244,254.7"/>
<path class="st1" d="M191.7,254.7c1.8-1,2.3-3.5,1.5-4.9l-10-17.4c-0.8-1.5-3.2-2.2-5-1.2c-1.8,1-2.3,3.5-1.5,5l10,17.4
	C187.5,255,189.9,255.8,191.7,254.7"/>
<path class="st1" d="M263.5,274.1c1,1.8,3.5,2.3,4.9,1.5l17.4-10c1.5-0.8,2.2-3.2,1.2-5c-1-1.8-3.5-2.3-5-1.5l-17.4,10
	C263.2,269.9,262.5,272.3,263.5,274.1"/>
<polygon class="st1" points="63.7,121.2 86.1,121.2 66.8,195.4 81.1,195.4 100,122.7 100,109.4 63.7,109.4 "/>
<path class="st1" d="M108,145.4l6.8-36h6.9l6.8,36h-6.2l-1.1-6.6h-6.4l-1.1,6.6H108z M115.6,134h4.8l-2.4-14.4H118L115.6,134z"/>
<polygon class="st1" points="131,109.5 145.2,109.5 145.2,114.4 137.1,114.4 137.1,124.7 143.1,124.7 143.1,129.6 137.1,129.6
	137.1,145.4 131,145.4 "/>
<polygon class="st1" points="147.8,109.5 162,109.5 162,114.4 153.9,114.4 153.9,124.7 159.9,124.7 159.9,129.6 153.9,129.6
	153.9,145.4 147.8,145.4 "/>
<path class="st1" d="M164.1,136.2v-17.4c0-5.6,2.8-9.7,9.1-9.7c6.4,0,9.2,4.1,9.2,9.7v17.4c0,5.6-2.8,9.7-9.2,9.7
	C166.9,145.9,164.1,141.7,164.1,136.2 M176.4,137.1v-19.3c0-2.2-1-3.7-3.1-3.7c-2.1,0-3.1,1.5-3.1,3.7v19.3c0,2.2,1,3.7,3.1,3.7
	C175.4,140.8,176.4,139.3,176.4,137.1"/>
<path class="st1" d="M191.9,129v16.5h-6v-36h8.8c6.1,0,8.3,3,8.3,8.1v4.6c0,3.9-1.4,6.2-4.8,6.9l5.8,16.3h-6.4L191.9,129z
	 M191.9,114.4v11.2h2c2.1,0,3-1.1,3-3v-5.3c0-2-0.9-2.9-3-2.9H191.9z"/>
<path class="st1" d="M224.3,119.1v16.6c0,5.5-2.3,9.7-8.7,9.7h-9.3v-36h9.3C222.1,109.5,224.3,113.6,224.3,119.1 M214.9,140.5
	c2.5,0,3.4-1.5,3.4-3.7V118c0-2.1-1-3.6-3.4-3.6h-2.5v26.1H214.9z"/>
<path class="st1" d="M226,145.4l6.8-36h6.9l6.8,36h-6.2l-1.1-6.6h-6.4l-1.1,6.6H226z M233.6,134h4.8l-2.4-14.4H236L233.6,134z"/>
<path class="st1" d="M249,109.5h8.8c6,0,8.1,2.8,8.1,7.9v3.7c0,3-1.1,4.9-3.6,5.7c3,0.7,4.5,2.7,4.5,6v4.8c0,5.1-2.3,7.9-8.3,7.9
	H249V109.5z M255.1,124.7h2.1c2,0,2.9-1,2.9-2.9v-4.4c0-2-0.9-2.9-2.9-2.9h-2.1V124.7z M255.1,129.3v11.2h2.7c2,0,3-1,3-2.9v-5.4
	c0-1.9-0.9-2.9-3-2.9H255.1z"/>
<polygon class="st1" points="269.8,109.5 275.8,109.5 275.8,140.5 283,140.5 283,145.4 269.8,145.4 "/>
<polygon class="st1" points="285.8,109.5 300.2,109.5 300.2,114.4 291.8,114.4 291.8,124.7 297.8,124.7 297.8,129.6 291.8,129.6
	291.8,140.5 300.2,140.5 300.2,145.4 285.8,145.4 "/>
<path class="st1" d="M308,145.4l6.8-36h6.9l6.8,36h-6.2l-1.1-6.6h-6.4l-1.1,6.6H308z M315.6,134h4.8l-2.4-14.4H318L315.6,134z"/>
<polygon class="st1" points="336.1,122.9 336.1,145.4 331.1,145.4 331.1,109.5 337,109.5 343.5,130.1 343.5,109.5 348.6,109.5
	348.6,145.4 343.3,145.4 "/>
<path class="st1" d="M370.1,119.1v16.6c0,5.5-2.3,9.7-8.7,9.7H352v-36h9.3C367.8,109.5,370.1,113.6,370.1,119.1 M360.6,140.5
	c2.5,0,3.4-1.5,3.4-3.7V118c0-2.1-1-3.6-3.4-3.6H358v26.1H360.6z"/>
<path class="st1" d="M109,186.5v-17.4c0-5.6,2.7-9.7,9-9.7c6.7,0,8.5,3.7,8.5,9v4.2H121V168c0-2.2-0.7-3.5-2.9-3.5s-3.1,1.5-3.1,3.7
	v19.3c0,2.2,0.9,3.7,3.1,3.7s2.9-1.4,2.9-3.5v-6.6h5.5v6.2c0,5.1-2.1,9-8.5,9C111.6,196.2,109,192.1,109,186.5"/>
<polygon class="st1" points="129.8,159.9 135.9,159.9 135.9,190.9 143.1,190.9 143.1,195.8 129.8,195.8 "/>
<polygon class="st1" points="145.8,159.9 160.2,159.9 160.2,164.8 151.9,164.8 151.9,175.1 157.9,175.1 157.9,180 151.9,180
	151.9,190.9 160.2,190.9 160.2,195.8 145.8,195.8 "/>
<path class="st1" d="M162.5,195.8l6.8-36h6.9l6.8,36h-6.2l-1.1-6.6h-6.4l-1.1,6.6H162.5z M170.1,184.4h4.8l-2.4-14.4h-0.1
	L170.1,184.4z"/>
<polygon class="st1" points="190.6,173.2 190.6,195.8 185.5,195.8 185.5,159.9 191.5,159.9 198,180.5 198,159.9 203,159.9
	203,195.8 197.7,195.8 "/>
<polygon class="st1" points="212,159.9 226.5,159.9 226.5,164.8 218.1,164.8 218.1,175.1 224.1,175.1 224.1,180 218.1,180
	218.1,190.9 226.5,190.9 226.5,195.8 212,195.8 "/>
<polygon class="st1" points="234.8,173.2 234.8,195.8 229.7,195.8 229.7,159.9 235.6,159.9 242.2,180.5 242.2,159.9 247.2,159.9
	247.2,195.8 241.9,195.8 "/>
<polygon class="st1" points="250.6,159.9 265.1,159.9 265.1,164.8 256.7,164.8 256.7,175.1 262.7,175.1 262.7,180 256.7,180
	256.7,190.9 265.1,190.9 265.1,195.8 250.6,195.8 "/>
<path class="st1" d="M274.3,179.3v16.5h-6v-36h8.8c6.1,0,8.3,3,8.3,8.1v4.6c0,3.9-1.4,6.2-4.8,6.9l5.8,16.3H280L274.3,179.3z
	 M274.3,164.8V176h2c2.1,0,3-1.1,3-3v-5.3c0-2-0.9-2.9-3-2.9H274.3z"/>
<path class="st1" d="M297.8,176.6h8.6v19.2h-4.4v-3.9c-0.8,2.7-2.5,4.3-5.8,4.3c-5.2,0-7.6-4.1-7.6-9.7v-17.4c0-5.6,2.7-9.7,9.1-9.7
	c6.7,0,8.6,3.7,8.6,9v3.2h-5.5V168c0-2.2-0.8-3.5-3-3.5c-2.2,0-3.1,1.5-3.1,3.7v19.3c0,2.2,0.9,3.7,3,3.7c2,0,3-1.1,3-3.4v-6.4h-2.9
	V176.6z"/>
<polygon class="st1" points="320.3,182.1 320.3,195.8 314.3,195.8 314.3,182.1 307.5,159.9 313.8,159.9 317.5,173.5 317.5,173.5
	321.2,159.9 327,159.9 "/>
</svg>
