<?xml version="1.0" encoding="utf-8"?>
<!-- Generator: Adobe Illustrator 23.0.3, SVG Export Plug-In . SVG Version: 6.00 Build 0)  -->
<svg version="1.1" id="Layer_1" xmlns="http://www.w3.org/2000/svg" xmlns:xlink="http://www.w3.org/1999/xlink" x="0px" y="0px"
	 viewBox="0 0 431.7 431.7" style="enable-background:new 0 0 431.7 431.7;" xml:space="preserve">
<style type="text/css">
	.st0{fill:#921831;}
	.st1{fill:#FFFFFF;}
</style>
<title>ods8</title>
<path class="st0" d="M216.1,429.7L216.1,429.7C98,429.7,2.3,333.9,2.3,215.8v0C2.3,97.7,98,2,216.1,2h0C334.2,2,430,97.7,430,215.8
	v0C430,333.9,334.2,429.7,216.1,429.7z"/>
<path class="st1" d="M268.5,266.2l-29.7,28.2c-1.1,1.1-1.7,1.9-1.7,4.2v79.1c0,0.9,0.8,1.7,1.7,1.7h30.6c0.9,0,1.7-0.8,1.7-1.7
	V266.9C271.1,266,270.4,264.3,268.5,266.2"/>
<path class="st1" d="M183,303l-29.7,28.2c-1.1,1.1-1.7,1.9-1.7,4.2v42.3c0,0.9,0.8,1.7,1.7,1.7H184c0.9,0,1.7-0.8,1.7-1.7v-74.1
	C185.7,302.7,184.9,301,183,303"/>
<path class="st1" d="M282,231.9c0-0.2-0.1-0.5-0.3-0.6c-0.2-0.2-0.4-0.2-0.5-0.2l-0.2,0l-0.2,0l-22.7,5.1l-0.4,0
	c-0.2,0-0.3,0.1-0.4,0.2c-0.3,0.3-0.3,0.9,0,1.2l0.3,0.3l5.2,5.2l-51.5,51.5l-23.8-23.8c-0.3-0.3-0.7-0.3-1,0l-6.5,6.5c0,0,0,0,0,0
	l-38.1,38.1c-0.3,0.3-0.3,0.7,0,1l6.5,6.5c0.3,0.3,0.7,0.3,1,0l37.6-37.6l17.3,17.3c0,0,0,0.1,0.1,0.1l6.5,6.4c0.3,0.3,0.7,0.3,1,0
	l58.4-58.4l5.4,5.4c0.3,0.3,0.9,0.3,1.2,0c0.2-0.2,0.2-0.4,0.2-0.6l0-0.1l5-23.2L282,231.9z"/>
<path class="st1" d="M225.9,307.9l-14.4,14.5c-0.3,0.2-0.7,0.2-0.9,0l-13-13.3c-2.4-2.4-2.9-0.4-2.9,0.5v68.2c0,0.9,0.7,1.7,1.7,1.7
	h30.7c0.9,0,1.7-0.8,1.7-1.7v-69.3C228.8,307.5,228,305.8,225.9,307.9"/>
<path class="st1" d="M85.4,183.7v-9.4c0-8.3-2.9-14.2-9.7-17.3c5.7-2.8,8.4-7.9,8.4-15v-3.6c0-13.5-7-20.7-20.3-20.7
	c-13.2,0-20.1,7.2-20.1,20.7v3.6c0,7,2.5,12.2,8.1,15c-6.7,3.1-9.5,9-9.5,17.3v9.4c0,13.1,6.2,22.3,21.5,22.3
	C79.1,206,85.4,196.8,85.4,183.7 M57.3,137.6c0-5.2,1.8-8.3,6.5-8.3c4.8,0,6.6,3,6.6,8.3v5.8c0,5.2-1.8,8.3-6.6,8.3
	c-4.7,0-6.5-3.1-6.5-8.3V137.6z M70.9,185.3c0,5.2-1.9,8.9-7.1,8.9c-5.1,0-7-3.7-7-8.9v-14c0-5.2,1.9-8.9,7-8.9
	c5.2,0,7.1,3.7,7.1,8.9V185.3z"/>
<path class="st1" d="M114.3,128.4v16.7c0,5.5-2.3,9.7-8.8,9.7h-9.4v-36h9.4C112,118.7,114.3,122.8,114.3,128.4 M104.8,149.8
	c2.5,0,3.5-1.5,3.5-3.7v-18.9c0-2.1-1-3.6-3.5-3.6h-2.6v26.2H104.8z"/>
<polygon class="st1" points="117.7,118.7 132.2,118.7 132.2,123.6 123.8,123.6 123.8,134 129.8,134 129.8,138.9 123.8,138.9
	123.8,149.8 132.2,149.8 132.2,154.7 117.7,154.7 "/>
<path class="st1" d="M134.9,145.4V128c0-5.6,2.7-9.7,9-9.7c6.7,0,8.6,3.7,8.6,9v4.3H147v-4.7c0-2.2-0.7-3.5-2.9-3.5
	s-3.1,1.5-3.1,3.7v19.4c0,2.2,0.9,3.7,3.1,3.7s2.9-1.4,2.9-3.5V140h5.5v6.2c0,5.2-2.1,9-8.6,9C137.6,155.2,134.9,151,134.9,145.4"/>
<polygon class="st1" points="155.8,118.7 170.2,118.7 170.2,123.6 161.8,123.6 161.8,134 167.9,134 167.9,138.9 161.8,138.9
	161.8,149.8 170.2,149.8 170.2,154.7 155.8,154.7 "/>
<polygon class="st1" points="178.6,132.1 178.6,154.7 173.5,154.7 173.5,118.7 179.4,118.7 186,139.4 186,118.7 191,118.7
	191,154.7 185.7,154.7 "/>
<polygon class="st1" points="193.8,118.7 209.9,118.7 209.9,123.6 204.9,123.6 204.9,154.7 198.8,154.7 198.8,123.6 193.8,123.6 "/>
<polygon class="st1" points="231.4,132.5 228,154.7 222.3,154.7 217.4,118.7 223.3,118.7 226.1,141.6 226.2,141.6 229.2,118.7
	234.1,118.7 237.5,141.6 237.5,141.6 240.3,118.7 245.4,118.7 240.7,154.7 235,154.7 231.4,132.5 "/>
<path class="st1" d="M247.5,145.4V128c0-5.6,2.8-9.7,9.1-9.7c6.4,0,9.2,4.1,9.2,9.7v17.4c0,5.6-2.8,9.7-9.2,9.7
	C250.2,155.2,247.5,151,247.5,145.4 M259.7,146.4v-19.4c0-2.2-1-3.7-3.1-3.7c-2.1,0-3.1,1.5-3.1,3.7v19.4c0,2.2,1,3.7,3.1,3.7
	C258.8,150.1,259.7,148.6,259.7,146.4"/>
<path class="st1" d="M275.3,138.2v16.5h-6.1v-36h8.8c6.1,0,8.3,3,8.3,8.1v4.6c0,3.9-1.4,6.2-4.8,7l5.8,16.4H281L275.3,138.2z
	 M275.3,123.6v11.2h2c2.1,0,3-1.1,3-3v-5.3c0-2-0.9-2.9-3-2.9H275.3z"/>
<polygon class="st1" points="295.8,137.2 295.8,154.7 289.7,154.7 289.7,118.7 295.8,118.7 295.8,134.5 302.4,118.7 308.3,118.7
	301.3,134.9 308.5,154.7 302.1,154.7 "/>
<path class="st1" d="M315.4,154.7l6.8-36h6.9l6.9,36h-6.2l-1.1-6.6h-6.4l-1.1,6.6H315.4z M323,143.3h4.8l-2.4-14.5h-0.1L323,143.3z"
	/>
<polygon class="st1" points="343.6,132.1 343.6,154.7 338.5,154.7 338.5,118.7 344.4,118.7 351,139.4 351,118.7 356,118.7
	356,154.7 350.7,154.7 "/>
<path class="st1" d="M377.6,128.4v16.7c0,5.5-2.3,9.7-8.8,9.7h-9.4v-36h9.4C375.3,118.7,377.6,122.8,377.6,128.4 M368.1,149.8
	c2.5,0,3.5-1.5,3.5-3.7v-18.9c0-2.1-1-3.6-3.5-3.6h-2.6v26.2H368.1z"/>
<polygon class="st1" points="96.1,169.2 110.6,169.2 110.6,174.1 102.2,174.1 102.2,184.4 108.2,184.4 108.2,189.3 102.2,189.3
	102.2,200.3 110.6,200.3 110.6,205.2 96.1,205.2 "/>
<path class="st1" d="M113.3,195.9v-17.4c0-5.6,2.7-9.7,9-9.7c6.7,0,8.6,3.7,8.6,9v4.3h-5.5v-4.7c0-2.2-0.7-3.5-2.9-3.5
	c-2.2,0-3.1,1.5-3.1,3.7v19.4c0,2.2,0.9,3.7,3.1,3.7c2.2,0,2.9-1.4,2.9-3.5v-6.6h5.5v6.2c0,5.2-2.1,9-8.6,9
	C116,205.7,113.3,201.5,113.3,195.9"/>
<path class="st1" d="M134.2,195.9v-17.4c0-5.6,2.8-9.7,9.1-9.7c6.4,0,9.2,4.1,9.2,9.7v17.4c0,5.6-2.8,9.7-9.2,9.7
	C137,205.7,134.2,201.5,134.2,195.9 M146.5,196.9v-19.4c0-2.2-1-3.7-3.1-3.7c-2.1,0-3.1,1.5-3.1,3.7v19.4c0,2.2,1,3.7,3.1,3.7
	C145.5,200.6,146.5,199.1,146.5,196.9"/>
<polygon class="st1" points="161.1,182.6 161.1,205.2 156,205.2 156,169.2 162,169.2 168.5,189.9 168.5,169.2 173.5,169.2
	173.5,205.2 168.2,205.2 "/>
<path class="st1" d="M177,195.9v-17.4c0-5.6,2.8-9.7,9.1-9.7c6.4,0,9.2,4.1,9.2,9.7v17.4c0,5.6-2.8,9.7-9.2,9.7
	C179.8,205.7,177,201.5,177,195.9 M189.3,196.9v-19.4c0-2.2-1-3.7-3.1-3.7c-2.1,0-3.1,1.5-3.1,3.7v19.4c0,2.2,1,3.7,3.1,3.7
	C188.3,200.6,189.3,199.1,189.3,196.9"/>
<polygon class="st1" points="215.5,181.8 215.3,181.8 211.2,205.2 208.4,205.2 203.9,181.8 203.8,181.8 203.8,205.2 198.8,205.2
	198.8,169.2 205.9,169.2 209.8,189.5 209.8,189.5 213.3,169.2 221,169.2 221,205.2 215.5,205.2 "/>
<rect x="224.5" y="169.2" class="st1" width="6.1" height="36"/>
<path class="st1" d="M234,195.9v-17.4c0-5.6,2.7-9.7,9-9.7c6.7,0,8.6,3.7,8.6,9v4.3h-5.5v-4.7c0-2.2-0.7-3.5-2.9-3.5
	c-2.2,0-3.1,1.5-3.1,3.7v19.4c0,2.2,0.9,3.7,3.1,3.7c2.2,0,2.9-1.4,2.9-3.5v-6.6h5.5v6.2c0,5.2-2.1,9-8.6,9
	C236.7,205.7,234,201.5,234,195.9"/>
<path class="st1" d="M269.6,186h8.6v19.2h-4.4v-3.9c-0.8,2.7-2.5,4.4-5.8,4.4c-5.2,0-7.6-4.1-7.6-9.7v-17.4c0-5.6,2.7-9.7,9.1-9.7
	c6.7,0,8.7,3.7,8.7,9v3.2h-5.5v-3.7c0-2.2-0.9-3.5-3-3.5c-2.2,0-3.1,1.5-3.1,3.7v19.4c0,2.2,0.9,3.7,3,3.7c2,0,3-1.1,3-3.5v-6.4
	h-2.9V186z"/>
<path class="st1" d="M287.8,188.7v16.5h-6.1v-36h8.8c6.1,0,8.3,3,8.3,8.1v4.6c0,3.9-1.4,6.2-4.8,7l5.8,16.4h-6.4L287.8,188.7z
	 M287.8,174.1v11.2h2c2.1,0,3-1.1,3-3v-5.3c0-2-0.9-2.9-3-2.9H287.8z"/>
<path class="st1" d="M302.2,195.9v-17.4c0-5.6,2.8-9.7,9.1-9.7c6.4,0,9.2,4.1,9.2,9.7v17.4c0,5.6-2.8,9.7-9.2,9.7
	C304.9,205.7,302.2,201.5,302.2,195.9 M314.4,196.9v-19.4c0-2.2-1-3.7-3.1-3.7c-2.1,0-3.1,1.5-3.1,3.7v19.4c0,2.2,1,3.7,3.1,3.7
	C313.5,200.6,314.4,199.1,314.4,196.9"/>
<polygon class="st1" points="336.5,183 333.1,205.2 327.4,205.2 322.6,169.2 328.4,169.2 331.2,192.1 331.3,192.1 334.3,169.2
	339.3,169.2 342.6,192.1 342.7,192.1 345.4,169.2 350.5,169.2 345.9,205.2 340.1,205.2 336.6,183 "/>
<polygon class="st1" points="352.4,169.2 368.6,169.2 368.6,174.1 363.6,174.1 363.6,205.2 357.4,205.2 357.4,174.1 352.4,174.1 "/>
<polygon class="st1" points="383.3,189.3 377.4,189.3 377.4,205.2 371.4,205.2 371.4,169.2 377.4,169.2 377.4,184.5 383.3,184.5
	383.3,169.2 389.4,169.2 389.4,205.2 383.3,205.2 "/>
</svg>
