<?xml version="1.0" encoding="utf-8"?>
<!-- Generator: Adobe Illustrator 23.0.3, SVG Export Plug-In . SVG Version: 6.00 Build 0)  -->
<svg version="1.1" id="Layer_1" xmlns="http://www.w3.org/2000/svg" xmlns:xlink="http://www.w3.org/1999/xlink" x="0px" y="0px"
	 viewBox="0 0 431.7 431.7" style="enable-background:new 0 0 431.7 431.7;" xml:space="preserve">
<style type="text/css">
	.st0{fill:#EB6411;}
	.st1{fill:#FFFFFF;}
</style>
<title>ods9</title>
<path class="st0" d="M216,429.8L216,429.8c-118.2,0-214-95.8-214-214v0c0-118.2,95.8-214,214-214h0c118.2,0,214,95.8,214,214v0
	C430,334,334.2,429.8,216,429.8z"/>
<path class="st1" d="M290.2,319L258,300.4v-37.1c0-0.8-0.4-1.5-1.1-1.9l-33.3-19.2c-0.7-0.4-1.5-0.4-2.2,0l-33.3,19.2
	c-0.7,0.4-1.1,1.1-1.1,1.9v37.1L154.9,319c-0.7,0.4-1.1,1.1-1.1,1.9v38.4c0,0.8,0.4,1.5,1.1,1.9l33.3,19.2c0.3,0.2,0.7,0.3,1.1,0.3
	c0.4,0,0.8-0.1,1.1-0.3l32.2-18.6l32.2,18.6c0.3,0.2,0.7,0.3,1.1,0.3c0.4,0,0.8-0.1,1.1-0.3l33.3-19.2c0.7-0.4,1.1-1.1,1.1-1.9
	v-38.4C291.3,320.1,290.8,319.4,290.2,319 M220.3,355.5l-26.7-15.4l26.7-15.4V355.5z M251.4,301.7l-26.7,15.4v-30.8L251.4,301.7z
	 M220.3,317.1l-26.7-15.4l26.7-15.4V317.1z M226.9,320.9l28.9-16.7l28.9,16.7l-28.9,16.7L226.9,320.9z M253.6,297.9l-26.7-15.4
	l26.7-15.4V297.9z M218.1,282.5l-26.7,15.4v-30.8L218.1,282.5z M187.1,374.7L158.2,358v-33.3l28.9,16.7V374.7z M191.5,374.7v-30.8
	l26.7,15.4L191.5,374.7z M286.9,358L258,374.7v-33.3l28.9-16.7V358z"/>
<path class="st1" d="M82.3,157c0-13.4-5.9-23-21.1-23c-15.4,0-21.4,8.4-21.4,21.8v12.7c0,14.1,5.6,21.2,16,21.2c6.1,0,9.8-2.8,12-7
	H68v18.6c0,5.2-2,8.9-7.3,8.9c-5.2,0-7.1-3.1-7.1-8.4v-5.7H40.3v4.6c0,12.7,4.6,21.6,20.6,21.6c15.3,0,21.4-9.8,21.4-23.3V157z
	 M68,170.2c-0.3,4.8-2.3,7.9-6.9,7.9c-5,0-6.9-3.1-6.9-8.7v-15c0-5.5,2-8.6,7-8.6c4.8,0,6.7,3.3,6.7,8.6V170.2z"/>
<rect x="88.3" y="135.4" class="st1" width="6.1" height="36.1"/>
<polygon class="st1" points="101.5,148.8 101.5,171.4 96.4,171.4 96.4,135.4 102.3,135.4 108.9,156.1 108.9,135.4 113.9,135.4
	113.9,171.4 108.6,171.4 "/>
<path class="st1" d="M134,145.1v16.7c0,5.5-2.3,9.7-8.8,9.7h-9.4v-36.1h9.4C131.7,135.4,134,139.5,134,145.1 M124.4,166.5
	c2.5,0,3.5-1.5,3.5-3.7v-18.9c0-2.1-1-3.6-3.5-3.6h-2.6v26.2H124.4z"/>
<path class="st1" d="M153.5,135.4v27.3c0,5.6-2.4,9.2-8.6,9.2c-6.4,0-9-3.6-9-9.2v-27.3h6.1v27.9c0,2.1,0.9,3.6,3,3.6
	c2.1,0,3-1.4,3-3.6v-27.9H153.5z"/>
<path class="st1" d="M155.1,163.7v-4.8h5.6v4.9c0,2,0.9,3.2,3,3.2c1.9,0,2.8-1.3,2.8-3.2v-1.4c0-2.1-0.9-3.4-2.7-5.1l-3.6-3.6
	c-3.5-3.4-5.1-5.5-5.1-9.6v-1.2c0-4.5,2.6-7.9,8.5-7.9c6.1,0,8.5,3,8.5,8.2v2.9h-5.5v-3.1c0-2.1-1-3.1-2.9-3.1c-1.7,0-2.9,1-2.9,3
	v0.7c0,2,1.1,3.2,2.9,4.9l3.9,3.8c3.3,3.4,4.9,5.4,4.9,9.4v1.8c0,5-2.7,8.5-8.8,8.5S155.1,168.4,155.1,163.7"/>
<polygon class="st1" points="172.6,135.4 188.8,135.4 188.8,140.3 183.8,140.3 183.8,171.4 177.6,171.4 177.6,140.3 172.6,140.3 "/>
<path class="st1" d="M196.1,154.9v16.6H190v-36.1h8.8c6.1,0,8.4,3,8.4,8.1v4.6c0,3.9-1.4,6.2-4.8,7l5.8,16.4h-6.4L196.1,154.9z
	 M196.1,140.3v11.2h2c2.1,0,3-1.1,3-3v-5.3c0-2-0.9-2.9-3-2.9H196.1z"/>
<polygon class="st1" points="220,157.7 220,171.4 213.9,171.4 213.9,157.7 207.2,135.4 213.5,135.4 217.2,149 217.2,149
	220.9,135.4 226.7,135.4 "/>
<polygon class="st1" points="230.4,166.1 227.3,174.3 223.9,174.3 224.6,165.7 230.4,165.7 "/>
<rect x="236.3" y="135.4" class="st1" width="6.1" height="36.1"/>
<polygon class="st1" points="249.5,148.8 249.5,171.4 244.4,171.4 244.4,135.4 250.3,135.4 256.9,156.1 256.9,135.4 261.9,135.4
	261.9,171.4 256.6,171.4 "/>
<polygon class="st1" points="268.9,148.8 268.9,171.4 263.8,171.4 263.8,135.4 269.8,135.4 276.3,156.1 276.3,135.4 281.4,135.4
	281.4,171.4 276.1,171.4 "/>
<path class="st1" d="M283.3,162.1v-17.5c0-5.6,2.8-9.7,9.2-9.7c6.4,0,9.2,4.1,9.2,9.7v17.5c0,5.6-2.8,9.7-9.2,9.7
	C286.1,171.9,283.3,167.7,283.3,162.1 M295.6,163.1v-19.4c0-2.2-1-3.7-3.1-3.7c-2.1,0-3.1,1.5-3.1,3.7v19.4c0,2.2,1,3.7,3.1,3.7
	C294.6,166.8,295.6,165.3,295.6,163.1"/>
<polygon class="st1" points="321.9,135.4 315.1,171.4 308.5,171.4 301.6,135.4 307.8,135.4 311.9,160.5 312,160.5 316.2,135.4 "/>
<path class="st1" d="M318.7,171.4l6.8-36.1h6.9l6.9,36.1h-6.2l-1.1-6.6h-6.4l-1.1,6.6H318.7z M326.3,160h4.8l-2.4-14.5h-0.1
	L326.3,160z"/>
<polygon class="st1" points="336.9,135.4 353.1,135.4 353.1,140.3 348,140.3 348,171.4 341.9,171.4 341.9,140.3 336.9,140.3 "/>
<rect x="354.3" y="135.4" class="st1" width="6.1" height="36.1"/>
<path class="st1" d="M362.4,162.1v-17.5c0-5.6,2.8-9.7,9.2-9.7c6.4,0,9.2,4.1,9.2,9.7v17.5c0,5.6-2.8,9.7-9.2,9.7
	C365.1,171.9,362.4,167.7,362.4,162.1 M374.7,163.1v-19.4c0-2.2-1-3.7-3.1-3.7c-2.1,0-3.1,1.5-3.1,3.7v19.4c0,2.2,1,3.7,3.1,3.7
	C373.7,166.8,374.7,165.3,374.7,163.1"/>
<polygon class="st1" points="387.7,148.8 387.7,171.4 382.6,171.4 382.6,135.4 388.6,135.4 395.1,156.1 395.1,135.4 400.2,135.4
	400.2,171.4 394.9,171.4 "/>
<path class="st1" d="M87.4,222l6.8-36.1h6.9L108,222h-6.2l-1.1-6.6h-6.4l-1.1,6.6H87.4z M95,210.5h4.8l-2.4-14.5h-0.1L95,210.5z"/>
<polygon class="st1" points="114,199.3 114,222 108.9,222 108.9,185.9 114.9,185.9 121.4,206.6 121.4,185.9 126.5,185.9 126.5,222
	121.1,222 "/>
<path class="st1" d="M146.5,195.6v16.7c0,5.5-2.3,9.7-8.8,9.7h-9.4v-36.1h9.4C144.2,185.9,146.5,190,146.5,195.6 M137,217
	c2.5,0,3.5-1.5,3.5-3.7v-18.9c0-2.1-1-3.6-3.5-3.6h-2.6V217H137z"/>
<rect x="152.5" y="185.9" class="st1" width="6.1" height="36.1"/>
<polygon class="st1" points="165.6,199.3 165.6,222 160.5,222 160.5,185.9 166.5,185.9 173,206.6 173,185.9 178.1,185.9 178.1,222
	172.8,222 "/>
<polygon class="st1" points="180,185.9 194.2,185.9 194.2,190.9 186.1,190.9 186.1,201.2 192.1,201.2 192.1,206.1 186.1,206.1
	186.1,222 180,222 "/>
<path class="st1" d="M201.4,205.4V222h-6.1v-36.1h8.8c6.1,0,8.4,3,8.4,8.1v4.6c0,3.9-1.4,6.2-4.8,7l5.8,16.4h-6.4L201.4,205.4z
	 M201.4,190.9v11.2h2c2.1,0,3-1.1,3-3v-5.3c0-2-0.9-2.9-3-2.9H201.4z"/>
<path class="st1" d="M213.3,222l6.8-36.1h6.9l6.9,36.1h-6.2l-1.1-6.6h-6.4L219,222H213.3z M220.9,210.5h4.8l-2.4-14.5h-0.1
	L220.9,210.5z"/>
<path class="st1" d="M234,214.2v-4.8h5.6v4.9c0,2,0.9,3.2,3,3.2c1.9,0,2.8-1.3,2.8-3.2v-1.4c0-2.1-0.9-3.4-2.7-5.1l-3.6-3.6
	c-3.5-3.4-5.1-5.5-5.1-9.6v-1.2c0-4.5,2.6-7.9,8.5-7.9c6.1,0,8.5,3,8.5,8.2v2.9h-5.5v-3.1c0-2.1-1-3.1-2.9-3.1c-1.7,0-2.9,1-2.9,3
	v0.7c0,2,1.1,3.2,2.9,4.9l3.9,3.8c3.3,3.4,4.9,5.4,4.9,9.4v1.8c0,4.9-2.7,8.5-8.8,8.5C236.4,222.4,234,219,234,214.2"/>
<polygon class="st1" points="251.5,185.9 267.7,185.9 267.7,190.9 262.7,190.9 262.7,222 256.5,222 256.5,190.9 251.5,190.9 "/>
<path class="st1" d="M275,205.4V222h-6.1v-36.1h8.8c6.1,0,8.4,3,8.4,8.1v4.6c0,3.9-1.4,6.2-4.8,7l5.8,16.4h-6.4L275,205.4z
	 M275,190.9v11.2h2c2.1,0,3-1.1,3-3v-5.3c0-2-0.9-2.9-3-2.9H275z"/>
<path class="st1" d="M305.5,185.9v27.3c0,5.6-2.4,9.2-8.6,9.2c-6.4,0-9-3.6-9-9.2v-27.3h6.1v27.9c0,2.1,0.9,3.6,3,3.6s3-1.4,3-3.6
	v-27.9H305.5z"/>
<path class="st1" d="M307.4,212.7v-17.5c0-5.6,2.7-9.7,9-9.7c6.7,0,8.6,3.7,8.6,9v4.3h-5.5v-4.7c0-2.2-0.7-3.5-2.9-3.5
	c-2.2,0-3.1,1.5-3.1,3.7v19.4c0,2.2,0.9,3.7,3.1,3.7c2.2,0,2.9-1.4,2.9-3.5v-6.7h5.5v6.2c0,5.2-2.1,9-8.6,9
	C310.1,222.4,307.4,218.3,307.4,212.7"/>
<polygon class="st1" points="325.5,185.9 341.7,185.9 341.7,190.9 336.7,190.9 336.7,222 330.5,222 330.5,190.9 325.5,190.9 "/>
<path class="st1" d="M360.6,185.9v27.3c0,5.6-2.4,9.2-8.6,9.2c-6.4,0-9-3.6-9-9.2v-27.3h6.1v27.9c0,2.1,0.9,3.6,3,3.6s3-1.4,3-3.6
	v-27.9H360.6z"/>
<path class="st1" d="M368.5,205.4V222h-6.1v-36.1h8.8c6.1,0,8.4,3,8.4,8.1v4.6c0,3.9-1.4,6.2-4.8,7l5.8,16.4h-6.4L368.5,205.4z
	 M368.5,190.9v11.2h2c2.1,0,3-1.1,3-3v-5.3c0-2-0.9-2.9-3-2.9H368.5z"/>
<polygon class="st1" points="381.4,185.9 395.9,185.9 395.9,190.9 387.5,190.9 387.5,201.2 393.5,201.2 393.5,206.1 387.5,206.1
	387.5,217 395.9,217 395.9,222 381.4,222 "/>
</svg>
