<?xml version="1.0" standalone="no"?>
<!DOCTYPE svg PUBLIC "-//W3C//DTD SVG 1.1//EN" "http://www.w3.org/Graphics/SVG/1.1/DTD/svg11.dtd" >
<svg xmlns="http://www.w3.org/2000/svg" xmlns:xlink="http://www.w3.org/1999/xlink" version="1.1">
<metadata></metadata>
<defs>
<font id="bebas_neuelight" horiz-adv-x="770" >
<font-face units-per-em="2048" ascent="1536" descent="-512" />
<missing-glyph horiz-adv-x="317" />
<glyph horiz-adv-x="0" />
<glyph unicode="&#xd;" horiz-adv-x="317" />
<glyph unicode=" "  horiz-adv-x="317" />
<glyph unicode="&#x09;" horiz-adv-x="317" />
<glyph unicode="&#xa0;" horiz-adv-x="317" />
<glyph unicode="!" horiz-adv-x="208" d="M82 0v164h45v-164h-45zM82 631v805h45v-805l-6 -314h-33z" />
<glyph unicode="&#x22;" horiz-adv-x="329" d="M82 1436h45l-4 -330h-37zM205 1436h43l-4 -330h-35z" />
<glyph unicode="#" horiz-adv-x="849" d="M76 473l2 35h149l52 500h-150l2 34h152l39 394h40l-40 -394h280l41 394h41l-41 -394h131l-2 -34h-133l-51 -500h131l-2 -35h-133l-49 -473h-41l51 473h-283l-49 -473h-41l51 473h-147zM266 508h281l53 500h-283z" />
<glyph unicode="$" horiz-adv-x="757" d="M80 348v72h45v-74q0 -141 60.5 -226t193.5 -85q135 0 195.5 85t60.5 226q0 84 -36 145.5t-88 105.5t-142 101q-94 61 -149.5 108.5t-94.5 117t-39 163.5q0 158 67.5 252.5t208.5 102.5v129h39v-129q144 -8 210.5 -105.5t66.5 -251.5v-26h-43v28q0 139 -60.5 225.5 t-191.5 86.5t-191.5 -85t-60.5 -224q0 -86 36 -149.5t90 -108t142 -101.5q92 -61 148.5 -108.5t94.5 -115t38 -159.5q0 -154 -67.5 -251t-211.5 -105v-117h-39v117q-145 6 -213.5 103.5t-68.5 252.5z" />
<glyph unicode="%" horiz-adv-x="1222" d="M80 780v422q0 102 44 168t140 66q98 0 142.5 -65.5t44.5 -168.5v-422q0 -102 -44.5 -167.5t-142.5 -65.5q-96 0 -140 65.5t-44 167.5zM115 778q0 -86 34.5 -142t114.5 -56t115 56t35 142v424q0 88 -35 144.5t-115 56.5t-114.5 -56.5t-34.5 -144.5v-424zM309 0l565 1436 h35l-565 -1436h-35zM772 233v416q0 100 45 167t141 67q97 0 141 -65.5t44 -168.5v-416q0 -102 -44 -168.5t-141 -66.5q-98 0 -142 66.5t-44 168.5zM809 231q0 -86 35 -142t114 -56q80 0 115 56t35 142v418q0 88 -35 143.5t-115 55.5q-79 0 -114 -55.5t-35 -143.5v-418z" />
<glyph unicode="&#x26;" horiz-adv-x="817" d="M82 322v131q0 104 51 186t148 111q-98 23 -148.5 103.5t-50.5 184.5v39q0 172 87 264.5t259 92.5h182v-43h-182q-301 -1 -301 -312v-47q0 -106 58.5 -181t160.5 -83h266v160h45v-160h86v-41h-86v-532q0 -70 7.5 -112t33.5 -83h-49q-35 61 -35 145q-31 -76 -98 -115.5 t-154 -39.5q-143 0 -211.5 90t-68.5 242zM127 324q0 -133 60.5 -213t185.5 -80q104 0 171.5 62.5t67.5 166.5v467h-254q-108 -8 -169.5 -84t-61.5 -188v-131z" />
<glyph unicode="'" horiz-adv-x="206" d="M82 1436h43l-4 -330h-37z" />
<glyph unicode="(" horiz-adv-x="458" d="M84 319v797q0 156 57.5 238t204.5 82h37v-41h-35q-127 0 -173 -71t-46 -208v-797q0 -139 46 -208.5t173 -69.5h35v-41h-37q-147 0 -204.5 81t-57.5 238z" />
<glyph unicode=")" horiz-adv-x="458" d="M76 0v41h35q127 0 173 70.5t46 207.5v797q0 135 -47 207t-172 72h-35v41h35q147 0 205.5 -82t58.5 -238v-797q0 -156 -57.5 -237.5t-206.5 -81.5h-35z" />
<glyph unicode="*" horiz-adv-x="804" d="M90 1169l12 39l287 -92l-8 303h41l-6 -303l286 86l13 -39l-293 -71l178 -244l-31 -23l-168 250l-165 -248l-33 21l178 244z" />
<glyph unicode="+" horiz-adv-x="788" d="M78 698v37h299v301h37v-301h297v-37h-297v-305h-37v305h-299z" />
<glyph unicode="," horiz-adv-x="235" d="M86 -137l23 137v166h45v-164l-45 -139h-23z" />
<glyph unicode="-" horiz-adv-x="524" d="M80 696v41h364v-41h-364z" />
<glyph unicode="." horiz-adv-x="208" d="M82 0v166h45v-166h-45z" />
<glyph unicode="/" horiz-adv-x="753" d="M74 0l565 1434h41l-565 -1434h-41z" />
<glyph unicode="0" d="M80 352v729q0 164 74.5 263.5t230.5 99.5t230.5 -99.5t74.5 -263.5v-729q0 -162 -74.5 -262t-230.5 -100t-230.5 100t-74.5 262zM125 352q0 -145 62.5 -233t197.5 -88t197.5 88t62.5 233v731q0 143 -62.5 231.5t-197.5 88.5t-197.5 -88t-62.5 -232v-731z" />
<glyph unicode="1" horiz-adv-x="487" d="M98 1188v41q90 8 150.5 63.5t91.5 143.5h43v-1436h-45v1348q-70 -142 -240 -160z" />
<glyph unicode="2" horiz-adv-x="757" d="M82 0v31q0 135 43 243.5t105.5 187.5t162.5 183q82 86 130 144.5t80 131t32 154.5q0 328 -256 328q-135 0 -194.5 -91t-59.5 -237v-78h-43v76q0 164 71.5 267.5t227.5 103.5q158 0 228.5 -100.5t70.5 -266.5q0 -90 -34 -165.5t-84 -138t-136 -152.5q-96 -102 -154.5 -177 t-100.5 -173.5t-44 -219.5v-8h545v-43h-590z" />
<glyph unicode="3" horiz-adv-x="759" d="M80 352v68h45v-68q0 -145 60.5 -233t193.5 -88q135 0 195.5 89t60.5 234v109q0 119 -61.5 188.5t-176.5 75.5h-104v41h106q106 8 171 85t65 187v41q0 145 -60.5 233.5t-195.5 88.5q-133 0 -193.5 -87t-60.5 -233v-43h-45v41q0 164 72.5 263.5t228.5 99.5t227.5 -99.5 t71.5 -263.5v-34q0 -104 -54.5 -185.5t-150.5 -111.5q100 -25 152.5 -102t52.5 -185v-111q0 -164 -71.5 -263t-227.5 -99t-228.5 99t-72.5 263z" />
<glyph unicode="4" horiz-adv-x="831" d="M76 338v45l499 1053h56v-1055h125v-43h-125v-338h-45v338h-510zM119 381h467v975z" />
<glyph unicode="5" horiz-adv-x="759" d="M80 352v62h45v-62q0 -143 60.5 -231t193.5 -88t194.5 88t61.5 231v215q0 141 -61.5 229.5t-194.5 88.5q-86 0 -147.5 -45t-90.5 -127v-17h-43l37 740h518v-43h-477l-29 -592q41 65 100.5 96t143.5 31q150 0 219.5 -99.5t69.5 -259.5v-217q0 -162 -72.5 -262t-226.5 -100 t-227.5 100t-73.5 262z" />
<glyph unicode="6" horiz-adv-x="772" d="M80 352v729q0 164 74.5 263.5t232.5 99.5q154 0 226.5 -96.5t72.5 -257.5v-11h-43v13q0 141 -60.5 226t-195.5 85q-137 0 -199.5 -88t-62.5 -236v-395q43 92 105.5 131t166.5 39q152 0 223.5 -98.5t71.5 -259.5v-144q0 -162 -74.5 -262t-230.5 -100q-158 0 -232.5 100 t-74.5 262zM125 352q0 -145 62.5 -232t199.5 -87q135 0 197.5 87t62.5 232v142q0 141 -62.5 229t-197.5 88t-198.5 -89t-63.5 -228v-142z" />
<glyph unicode="7" horiz-adv-x="759" d="M80 1393v43h600v-43l-428 -1393h-47l428 1393h-553z" />
<glyph unicode="8" horiz-adv-x="788" d="M78 342v96q0 127 49 206t164 106q-213 47 -213 305v47q0 158 81 250t234 92q156 0 236 -92t80 -250v-47q0 -119 -50.5 -201t-156.5 -104q207 -47 207 -312v-96q0 -162 -79 -257t-237 -95t-236.5 95t-78.5 257zM123 342q0 -143 67.5 -227t202.5 -84t203 84t68 227v100 q0 141 -67 213t-204 72q-270 0 -270 -285v-100zM123 1051q0 -137 68.5 -210t201.5 -73q135 0 203 71.5t68 211.5v51q0 139 -69 220t-202 81t-201.5 -81t-68.5 -220v-51z" />
<glyph unicode="9" horiz-adv-x="772" d="M80 348v10h43v-12q0 -143 63.5 -229t198.5 -86t197.5 89t62.5 236v400q-57 -174 -270 -174q-152 0 -223.5 99t-71.5 259v141q0 164 74.5 264.5t230.5 100.5t230.5 -100.5t74.5 -264.5v-727q0 -164 -73.5 -264t-231.5 -100q-156 0 -230.5 98t-74.5 260zM125 942 q0 -143 62.5 -231t197.5 -88t197.5 88t62.5 231v141q0 143 -62.5 231.5t-197.5 88.5t-197.5 -88t-62.5 -232v-141z" />
<glyph unicode=":" horiz-adv-x="208" d="M82 0v166h45v-166h-45zM82 780v166h45v-166h-45z" />
<glyph unicode=";" horiz-adv-x="235" d="M86 -137l23 137v166h45v-164l-45 -139h-23zM109 780v166h45v-166h-45z" />
<glyph unicode="&#x3c;" horiz-adv-x="739" d="M80 698v37l577 285v-41l-530 -262l530 -262v-41z" />
<glyph unicode="=" horiz-adv-x="555" d="M80 629v35h395v-35h-395zM80 848v35h395v-35h-395z" />
<glyph unicode="&#x3e;" horiz-adv-x="739" d="M82 414v41l530 262l-530 262v41l577 -285v-37z" />
<glyph unicode="?" horiz-adv-x="745" d="M78 997v76q0 164 69.5 267.5t225.5 103.5q157 0 226 -100.5t69 -266.5q0 -100 -39 -174t-117 -170q-78 -94 -117 -166.5t-39 -171.5q0 -37 11 -73h-41q-10 41 -11 75q0 104 39 179t119 176q74 90 112 160.5t38 166.5q0 324 -250 324q-133 0 -192.5 -92t-59.5 -236v-78 h-43zM322 0v164h45v-164h-45z" />
<glyph unicode="@" horiz-adv-x="1409" d="M78 582q0 244 74.5 448.5t236.5 330.5t408 126q272 0 404 -149.5t132 -419.5q0 -135 -33.5 -275.5t-108.5 -239t-192 -98.5q-61 0 -93 41t-34 105q-33 -80 -90 -124t-139 -44q-106 2 -154.5 72.5t-48.5 179.5q0 20 4 61l21 201q12 129 78.5 211t183.5 82q156 -4 193 -152 l14 139h43l-62 -581q-6 -61 15.5 -105.5t77.5 -44.5q104 0 168.5 93t91 221t26.5 245q0 262 -122.5 402.5t-376.5 140.5q-231 0 -383 -120t-222.5 -316.5t-70.5 -431.5q0 -305 145.5 -466t444.5 -161q102 0 197 27.5t169 85.5l-2 -48q-152 -104 -366 -104q-319 0 -474 172 t-155 496zM483 541q0 -94 40 -155.5t132 -61.5q104 0 160.5 77.5t67.5 194.5l22 199q2 16 2 49q0 92 -41 147.5t-131 55.5q-104 0 -159.5 -71t-69.5 -183l-21 -201q-2 -16 -2 -51z" />
<glyph unicode="A" horiz-adv-x="915" d="M76 0l346 1436h63l355 -1436h-45l-84 338h-510l-84 -338h-41zM209 379h493l-249 1003z" />
<glyph unicode="B" horiz-adv-x="751" d="M82 0v1434h287q151 0 213.5 -73t62.5 -224v-93q0 -127 -45 -194.5t-160 -85.5q233 -33 234 -307v-127q0 -330 -303 -330h-289zM127 43h244q137 0 197.5 72.5t60.5 214.5v129q0 152 -72 217t-223 65h-207v-698zM127 782h186q105 0 166.5 21.5t91 77t29.5 157.5v97 q0 133 -51 194.5t-180 61.5h-242v-609z" />
<glyph unicode="C" horiz-adv-x="757" d="M80 352v729q0 162 72.5 262.5t226.5 100.5q156 0 228.5 -100.5t72.5 -262.5v-110h-45v112q0 143 -60.5 231.5t-193.5 88.5t-194.5 -88t-61.5 -232v-733q0 -143 60.5 -230t195.5 -87q133 0 193.5 87t60.5 230v158h45v-156q0 -162 -72.5 -262t-228.5 -100 q-154 0 -226.5 100t-72.5 262z" />
<glyph unicode="D" d="M82 0v1434h299q158 0 234.5 -98.5t76.5 -260.5v-719q0 -162 -76.5 -259t-232.5 -97h-301zM127 43h254q137 0 201.5 84t64.5 227v723q0 143 -64.5 228.5t-201.5 85.5h-254v-1348z" />
<glyph unicode="E" horiz-adv-x="706" d="M82 0v1434h547v-43h-502v-643h422v-41h-422v-664h502v-43h-547z" />
<glyph unicode="F" horiz-adv-x="681" d="M82 0v1434h526v-43h-481v-678h401v-43h-401v-670h-45z" />
<glyph unicode="G" horiz-adv-x="759" d="M80 352v729q0 162 72.5 262.5t226.5 100.5q156 0 228.5 -100.5t72.5 -262.5v-94h-45v96q0 143 -60.5 231.5t-193.5 88.5t-194.5 -88t-61.5 -232v-733q0 -143 60.5 -230t195.5 -87q133 0 193.5 87t60.5 230v326h-223v41h268v-365q0 -162 -72.5 -262t-228.5 -100 q-154 0 -226.5 100t-72.5 262z" />
<glyph unicode="H" horiz-adv-x="772" d="M82 0v1434h45v-697h518v697h45v-1434h-45v696h-518v-696h-45z" />
<glyph unicode="I" horiz-adv-x="208" d="M82 0v1434h45v-1434h-45z" />
<glyph unicode="J" horiz-adv-x="516" d="M74 0v43h26q154 0 222.5 69.5t68.5 235.5v1086h45v-1084q0 -174 -68.5 -256t-203.5 -92q-38 -3 -65 -3q-14 0 -25 1z" />
<glyph unicode="K" horiz-adv-x="821" d="M82 0v1434h45v-809l532 809h50l-445 -678l481 -756h-49l-460 713l-109 -164v-549h-45z" />
<glyph unicode="L" horiz-adv-x="681" d="M82 0v1434h45v-1391h481v-43h-526z" />
<glyph unicode="M" horiz-adv-x="1007" d="M82 0v1434h70l352 -1360l352 1360h70v-1434h-45v1366l-353 -1362h-51l-354 1362v-1366h-41z" />
<glyph unicode="N" horiz-adv-x="774" d="M82 0v1434h63l504 -1342v1342h43v-1434h-55l-512 1368v-1368h-43z" />
<glyph unicode="O" d="M80 352v729q0 179 76.5 271t226.5 92q152 0 229.5 -92t77.5 -271v-729q0 -178 -77.5 -270t-229.5 -92q-150 0 -226.5 92t-76.5 270zM125 350q0 -157 65.5 -238t192.5 -81q129 0 195.5 81t66.5 238v733q0 158 -66.5 239t-195.5 81q-127 0 -192.5 -81t-65.5 -239v-733z" />
<glyph unicode="P" horiz-adv-x="737" d="M82 0v1434h283q297 -1 297 -347v-143q0 -172 -80 -254t-250 -82h-205v-608h-45zM127 651h205q149 0 216.5 70t67.5 221v148q0 143 -57 222t-194 79h-238v-740z" />
<glyph unicode="Q" horiz-adv-x="843" d="M80 352v729q0 162 74.5 262.5t230.5 100.5t231.5 -100.5t75.5 -262.5v-729q0 -168 -78 -264q23 -37 54.5 -52.5t76.5 -15.5h23v-40h-23q-111 0 -159 79q-75 -69 -197 -69h-4q-156 0 -230.5 100t-74.5 262zM125 350q0 -143 62.5 -231t197.5 -88t198.5 88t63.5 231v733 q0 143 -63.5 231.5t-198.5 88.5t-197.5 -88t-62.5 -232v-733z" />
<glyph unicode="R" horiz-adv-x="778" d="M82 0v1434h285q295 0 295 -322v-129q0 -133 -55.5 -207t-172.5 -94q227 -35 228 -287v-225q0 -117 38 -170h-49q-35 55 -35 170v225q0 150 -79.5 208.5t-233.5 58.5h-176v-662h-45zM127 705h176q160 0 236.5 57t76.5 215v131q0 137 -59 210t-192 73h-238v-686z" />
<glyph unicode="S" horiz-adv-x="755" d="M78 346v70h43v-72q0 -141 61.5 -226t194.5 -85t194.5 85t61.5 226q0 84 -36 145.5t-88 105.5t-142 103q-94 63 -149.5 110.5t-94.5 117t-39 164.5q0 164 72.5 258t222.5 96q153 0 225 -98.5t72 -258.5v-26h-45v29q0 139 -59.5 226t-190.5 87q-133 0 -192.5 -86 t-59.5 -225q0 -84 36 -147.5t90 -108.5t142 -105q92 -61 148.5 -108.5t94.5 -116t38 -160.5q0 -162 -73 -259t-228 -97q-154 0 -226.5 97t-72.5 259z" />
<glyph unicode="T" horiz-adv-x="765" d="M45 1391v43h672v-43h-314v-1391h-45v1391h-313z" />
<glyph unicode="U" horiz-adv-x="751" d="M80 354v1080h45v-1082q0 -143 59.5 -232t192.5 -89t192.5 89t59.5 232v1082h43v-1080q0 -162 -71 -263t-224 -101q-154 0 -225.5 101.5t-71.5 262.5z" />
<glyph unicode="V" horiz-adv-x="913" d="M76 1434h47l336 -1383l336 1383h43l-344 -1434h-68z" />
<glyph unicode="W" horiz-adv-x="1265" d="M76 1434h45l250 -1373l247 1364h56l233 -1355l242 1364h41l-254 -1434h-59l-232 1327l-246 -1327h-65z" />
<glyph unicode="X" horiz-adv-x="909" d="M76 0l350 745l-326 689h47l310 -650l309 650h45l-326 -689l349 -745h-50l-331 705l-330 -705h-47z" />
<glyph unicode="Y" horiz-adv-x="864" d="M74 1434h45l313 -793l313 793h48l-340 -854v-580h-45v580z" />
<glyph unicode="Z" horiz-adv-x="808" d="M78 0v43l602 1348h-574v43h623v-45l-604 -1346h594v-43h-641z" />
<glyph unicode="[" horiz-adv-x="460" d="M84 0v1436h301v-41h-256v-1354h256v-41h-301z" />
<glyph unicode="\" horiz-adv-x="753" d="M74 1434h41l565 -1434h-41z" />
<glyph unicode="]" horiz-adv-x="460" d="M78 0v41h256v1354h-256v41h301v-1436h-301z" />
<glyph unicode="^" horiz-adv-x="847" d="M78 801l325 633h41l326 -633h-43l-303 588l-303 -588h-43z" />
<glyph unicode="_" horiz-adv-x="1060" d="M72 -20h899v-37h-899v37z" />
<glyph unicode="`" horiz-adv-x="362" d="M82 1737h53l150 -183h-43z" />
<glyph unicode="a" horiz-adv-x="915" d="M76 0l346 1436h63l355 -1436h-45l-84 338h-510l-84 -338h-41zM209 379h493l-249 1003z" />
<glyph unicode="b" horiz-adv-x="751" d="M82 0v1434h287q151 0 213.5 -73t62.5 -224v-93q0 -127 -45 -194.5t-160 -85.5q233 -33 234 -307v-127q0 -330 -303 -330h-289zM127 43h244q137 0 197.5 72.5t60.5 214.5v129q0 152 -72 217t-223 65h-207v-698zM127 782h186q105 0 166.5 21.5t91 77t29.5 157.5v97 q0 133 -51 194.5t-180 61.5h-242v-609z" />
<glyph unicode="c" horiz-adv-x="757" d="M80 352v729q0 162 72.5 262.5t226.5 100.5q156 0 228.5 -100.5t72.5 -262.5v-110h-45v112q0 143 -60.5 231.5t-193.5 88.5t-194.5 -88t-61.5 -232v-733q0 -143 60.5 -230t195.5 -87q133 0 193.5 87t60.5 230v158h45v-156q0 -162 -72.5 -262t-228.5 -100 q-154 0 -226.5 100t-72.5 262z" />
<glyph unicode="d" d="M82 0v1434h299q158 0 234.5 -98.5t76.5 -260.5v-719q0 -162 -76.5 -259t-232.5 -97h-301zM127 43h254q137 0 201.5 84t64.5 227v723q0 143 -64.5 228.5t-201.5 85.5h-254v-1348z" />
<glyph unicode="e" horiz-adv-x="706" d="M82 0v1434h547v-43h-502v-643h422v-41h-422v-664h502v-43h-547z" />
<glyph unicode="f" horiz-adv-x="681" d="M82 0v1434h526v-43h-481v-678h401v-43h-401v-670h-45z" />
<glyph unicode="g" horiz-adv-x="759" d="M80 352v729q0 162 72.5 262.5t226.5 100.5q156 0 228.5 -100.5t72.5 -262.5v-94h-45v96q0 143 -60.5 231.5t-193.5 88.5t-194.5 -88t-61.5 -232v-733q0 -143 60.5 -230t195.5 -87q133 0 193.5 87t60.5 230v326h-223v41h268v-365q0 -162 -72.5 -262t-228.5 -100 q-154 0 -226.5 100t-72.5 262z" />
<glyph unicode="h" horiz-adv-x="772" d="M82 0v1434h45v-697h518v697h45v-1434h-45v696h-518v-696h-45z" />
<glyph unicode="i" horiz-adv-x="208" d="M82 0v1434h45v-1434h-45z" />
<glyph unicode="j" horiz-adv-x="516" d="M74 0v43h26q154 0 222.5 69.5t68.5 235.5v1086h45v-1084q0 -174 -68.5 -256t-203.5 -92q-38 -3 -65 -3q-14 0 -25 1z" />
<glyph unicode="k" horiz-adv-x="821" d="M82 0v1434h45v-809l532 809h50l-445 -678l481 -756h-49l-460 713l-109 -164v-549h-45z" />
<glyph unicode="l" horiz-adv-x="681" d="M82 0v1434h45v-1391h481v-43h-526z" />
<glyph unicode="m" horiz-adv-x="1007" d="M82 0v1434h70l352 -1360l352 1360h70v-1434h-45v1366l-353 -1362h-51l-354 1362v-1366h-41z" />
<glyph unicode="n" horiz-adv-x="774" d="M82 0v1434h63l504 -1342v1342h43v-1434h-55l-512 1368v-1368h-43z" />
<glyph unicode="o" d="M80 352v729q0 162 74.5 262.5t228.5 100.5q158 0 232.5 -100.5t74.5 -262.5v-729q0 -162 -74.5 -262t-232.5 -100q-154 0 -228.5 100t-74.5 262zM125 350q0 -143 61.5 -231t196.5 -88t198.5 88t63.5 231v733q0 143 -63.5 231.5t-198.5 88.5t-196.5 -88t-61.5 -232v-733z " />
<glyph unicode="p" horiz-adv-x="735" d="M82 0v1434h283q297 -1 297 -347v-143q0 -172 -80 -254t-250 -82h-205v-608h-45zM127 651h205q149 0 216.5 70t67.5 221v148q0 143 -57 222t-194 79h-238v-740z" />
<glyph unicode="q" horiz-adv-x="790" d="M80 352v729q0 162 74.5 262.5t230.5 100.5t231.5 -100.5t75.5 -262.5v-729q0 -168 -78 -264q23 -37 54.5 -52.5t76.5 -15.5h23v-40h-23q-111 0 -159 79q-75 -69 -197 -69h-4q-156 0 -230.5 100t-74.5 262zM125 350q0 -143 62.5 -231t197.5 -88t198.5 88t63.5 231v733 q0 143 -63.5 231.5t-198.5 88.5t-197.5 -88t-62.5 -232v-733z" />
<glyph unicode="r" horiz-adv-x="778" d="M82 0v1434h285q295 0 295 -322v-129q0 -133 -55.5 -207t-172.5 -94q227 -35 228 -287v-225q0 -117 38 -170h-49q-35 55 -35 170v225q0 150 -79.5 208.5t-233.5 58.5h-176v-662h-45zM127 705h176q160 0 236.5 57t76.5 215v131q0 137 -59 210t-192 73h-238v-686z" />
<glyph unicode="s" horiz-adv-x="755" d="M78 346v70h43v-72q0 -141 61.5 -226t194.5 -85t194.5 85t61.5 226q0 84 -36 145.5t-88 105.5t-142 103q-94 63 -149.5 110.5t-94.5 117t-39 164.5q0 164 72.5 258t222.5 96q153 0 225 -98.5t72 -258.5v-26h-45v29q0 139 -59.5 226t-190.5 87q-133 0 -192.5 -86 t-59.5 -225q0 -84 36 -147.5t90 -108.5t142 -105q92 -61 148.5 -108.5t94.5 -116t38 -160.5q0 -162 -73 -259t-228 -97q-154 0 -226.5 97t-72.5 259z" />
<glyph unicode="t" horiz-adv-x="751" d="M39 1391v43h670v-43h-314v-1391h-45v1391h-311z" />
<glyph unicode="u" horiz-adv-x="751" d="M80 354v1080h45v-1082q0 -143 59.5 -232t192.5 -89t192.5 89t59.5 232v1082h43v-1080q0 -162 -71 -263t-224 -101q-154 0 -225.5 101.5t-71.5 262.5z" />
<glyph unicode="v" horiz-adv-x="913" d="M76 1434h47l336 -1383l336 1383h43l-344 -1434h-68z" />
<glyph unicode="w" horiz-adv-x="1265" d="M76 1434h45l250 -1373l247 1364h56l233 -1355l242 1364h41l-254 -1434h-59l-232 1327l-246 -1327h-65z" />
<glyph unicode="x" horiz-adv-x="909" d="M76 0l350 745l-326 689h47l310 -650l309 650h45l-326 -689l349 -745h-50l-331 705l-330 -705h-47z" />
<glyph unicode="y" horiz-adv-x="864" d="M74 1434h45l313 -793l313 793h48l-340 -854v-580h-45v580z" />
<glyph unicode="z" horiz-adv-x="808" d="M78 0v43l602 1348h-574v43h623v-45l-604 -1346h594v-43h-641z" />
<glyph unicode="{" horiz-adv-x="524" d="M76 692v49q59 12 86.5 37t37 62t11.5 104l14 285q6 98 40 152.5t122 54.5h62v-41h-52q-73 0 -98 -45t-31 -133l-14 -279q-4 -94 -28.5 -145.5t-104.5 -75.5q80 -23 104.5 -75t28.5 -146l14 -277q6 -90 31 -134t98 -44h52v-41h-62q-88 0 -122 54.5t-40 152.5l-14 285 q-2 68 -11.5 103.5t-37 61t-86.5 35.5z" />
<glyph unicode="|" horiz-adv-x="321" d="M141 -16v1468h41v-1468h-41z" />
<glyph unicode="}" horiz-adv-x="524" d="M76 0v41h51q74 0 98.5 44t30.5 134l14 277q4 94 29 146t104 75q-80 25 -104.5 76t-28.5 145l-14 279q-6 88 -30.5 133t-98.5 45h-51v41h61q88 0 122 -54.5t40 -152.5l14 -285q2 -68 11.5 -104.5t38 -61t88.5 -37.5v-49q-59 -10 -88 -35.5t-38.5 -61.5t-11.5 -103 l-14 -285q-6 -100 -40 -153.5t-122 -53.5h-61z" />
<glyph unicode="~" horiz-adv-x="813" d="M74 672q74 125 184 125q41 0 81 -17.5t91 -48.5q47 -31 80 -45t68 -14q43 0 73.5 28.5t59.5 79.5l28 -22q-35 -59 -73.5 -92t-90.5 -33q-37 0 -71.5 15.5t-91.5 47.5q-49 31 -85 47.5t-75 16.5q-86 0 -152 -109z" />
<glyph unicode="&#xa1;" horiz-adv-x="208" d="M82 0v694l6 424h33l6 -424v-694h-45zM82 1270v166h45v-166h-45z" />
<glyph unicode="&#xa2;" horiz-adv-x="757" d="M82 455v528q0 156 66.5 254t209.5 106v95h41v-95q146 -6 212.5 -99t66.5 -249v-51h-43v53q0 141 -60.5 223.5t-195.5 82.5q-133 0 -192.5 -88.5t-59.5 -229.5v-532q0 -141 59.5 -229.5t192.5 -88.5q135 0 195.5 86t60.5 228v92h43v-90q0 -156 -67.5 -253.5t-211.5 -103.5 v-98h-41v98q-143 6 -209.5 105.5t-66.5 255.5z" />
<glyph unicode="&#xa3;" horiz-adv-x="784" d="M80 0v41q92 98 150.5 198.5t58.5 206.5q0 35 -6 68h-179v39h172q-18 61 -44.5 115.5t-30.5 64.5q-49 96 -73 168t-24 176q0 166 70 266.5t227 100.5q154 0 222.5 -103.5t68.5 -269.5v-65h-43v67q0 145 -57 237.5t-191 92.5q-135 0 -193 -89t-58 -235q0 -100 23.5 -172.5 t70.5 -167.5q29 -57 46 -98t29 -88h322v-39h-313q6 -33 6 -68q0 -84 -45 -181t-152 -222h565v-43h-622z" />
<glyph unicode="&#xa4;" horiz-adv-x="679" d="M80 481l90 88q-53 68 -53 148q0 82 53 145l-90 90l22 23l93 -90q61 55 143 55q86 0 147 -55l90 90l25 -23l-92 -90q55 -61 55 -145t-55 -146l92 -90l-25 -22l-90 88q-63 -53 -147 -53q-80 0 -143 53l-93 -88zM150 717q0 -78 55 -133.5t133 -55.5q80 0 135 55.5t55 133.5 t-55 133t-135 55q-78 0 -133 -55t-55 -133z" />
<glyph unicode="&#xa5;" horiz-adv-x="909" d="M74 1434h49l332 -818l336 818h43l-355 -871h234v-31h-236v-170h236v-30h-236v-332h-45v332h-235v30h235v170h-235v31h231z" />
<glyph unicode="&#xa6;" horiz-adv-x="323" d="M141 -16v612h43v-612h-43zM141 838v612h43v-612h-43z" />
<glyph unicode="&#xa7;" horiz-adv-x="759" d="M82 123v55h43v-51q0 -104 74.5 -161.5t183.5 -57.5q98 0 176 52t78 144q0 63 -34 107.5t-85 74t-137 66.5q-98 43 -155.5 77t-98.5 91.5t-41 138.5q0 100 71.5 172t174.5 101q-82 39 -132 70.5t-83 79.5t-33 116q0 119 88 182.5t215 63.5q121 -2 203 -71.5t82 -184.5v-25 h-43v21q0 100 -70 159.5t-172 61.5q-106 0 -182 -52.5t-76 -154.5q0 -59 33 -102t83 -72t134 -66q98 -43 157.5 -78.5t100.5 -94t41 -142.5q0 -98 -60.5 -167.5t-158.5 -110.5q104 -47 162.5 -104.5t58.5 -151.5q0 -113 -89 -177.5t-208 -64.5q-127 0 -214 67.5t-87 188.5z M129 662q0 -74 42 -125.5t94 -80t149 -71.5q96 33 158.5 97.5t62.5 158.5q0 98 -65.5 155.5t-186.5 112.5q-102 -16 -178 -82.5t-76 -164.5z" />
<glyph unicode="&#xa8;" horiz-adv-x="342" d="M111 1532v166h41v-166h-41zM190 1532v166h43v-166h-43z" />
<glyph unicode="&#xa9;" horiz-adv-x="1540" d="M78 717q0 201 89 362.5t246.5 254.5t356.5 93t356.5 -93t246.5 -254.5t89 -362.5t-89 -362.5t-246.5 -255t-356.5 -93.5t-356.5 93.5t-246.5 255t-89 362.5zM113 717q0 -188 84 -344t234.5 -245t338.5 -89t339 89t234.5 244.5t83.5 344.5q0 188 -83.5 342.5t-234.5 244 t-339 89.5t-338.5 -89.5t-234.5 -244t-84 -342.5zM551 520v393q0 113 51 182.5t160 69.5q106 0 156.5 -69.5t50.5 -182.5v-39h-35v41q0 96 -41 155.5t-131 59.5t-132 -59t-42 -156v-397q0 -96 42 -156.5t132 -60.5t131 60.5t41 156.5v60h35v-58q0 -113 -50.5 -183.5 t-156.5 -70.5t-158.5 71t-52.5 183z" />
<glyph unicode="&#xaa;" horiz-adv-x="555" d="M80 872v7q0 227 358 231v115q0 88 -29.5 137t-109.5 49q-156 0 -156 -188v-19h-32v19q0 221 188 221q96 0 135 -59.5t39 -161.5v-533h-31l-2 137q-23 -68 -69.5 -107.5t-114.5 -39.5q-86 0 -131 51t-45 141zM84 500v35h389v-35h-389zM115 874q0 -76 36.5 -118.5 t110.5 -42.5q78 0 123 60.5t53 144.5v161q-323 -3 -323 -196v-9z" />
<glyph unicode="&#xab;" horiz-adv-x="530" d="M76 719l137 491h41l-135 -491l135 -494h-41zM276 719l136 491h43l-136 -491l136 -494h-43z" />
<glyph unicode="&#xac;" horiz-adv-x="765" d="M78 700v35h610v-309h-37v274h-573z" />
<glyph unicode="&#xad;" horiz-adv-x="524" d="M80 696v41h364v-41h-364z" />
<glyph unicode="&#xae;" horiz-adv-x="1540" d="M78 717q0 201 89 362.5t246.5 254.5t356.5 93t356.5 -93t246.5 -254.5t89 -362.5t-89 -362.5t-246.5 -255t-356.5 -93.5t-356.5 93.5t-246.5 255t-89 362.5zM113 717q0 -188 84 -344t234.5 -245t338.5 -89t339 89t234.5 244.5t83.5 344.5q0 188 -83.5 342.5t-234.5 244 t-339 89.5t-338.5 -89.5t-234.5 -244t-84 -342.5zM578 279v876h198q209 0 209 -227v-29q0 -84 -32.5 -137t-106.5 -72q74 -20 107.5 -69.5t33.5 -128.5v-95q0 -88 27 -118h-41q-23 43 -23 118v95q0 104 -56 143t-165 39h-115v-395h-36zM614 709h138q100 0 148 43t48 143v31 q0 94 -40 144t-132 50h-162v-411z" />
<glyph unicode="&#xaf;" horiz-adv-x="520" d="M74 1534v35h370v-35h-370z" />
<glyph unicode="&#xb0;" horiz-adv-x="415" d="M76 1321q0 55 39 92t94 37t93 -37t38 -92t-39 -93t-92 -38q-55 0 -94 38t-39 93zM106 1321q0 -43 30 -71.5t73 -28.5t72.5 28.5t29.5 71.5t-29.5 70.5t-72.5 27.5t-73 -27.5t-30 -70.5z" />
<glyph unicode="&#xb1;" horiz-adv-x="788" d="M80 393v39h297v270h-297v39h297v295h37v-295h295v-39h-295v-270h295v-39h-629z" />
<glyph unicode="&#xb2;" horiz-adv-x="548" d="M82 719v22q0 86 27.5 155t67.5 119t104 115q78 80 115.5 137.5t37.5 133.5q0 205 -160 205q-84 0 -120.5 -57.5t-36.5 -149.5v-49h-35v49q0 106 47 172.5t147 66.5q101 0 147 -64.5t46 -170.5q0 -82 -39 -142.5t-123 -150.5q-90 -92 -138 -169t-52 -183v-6h344v-33h-379z " />
<glyph unicode="&#xb3;" horiz-adv-x="548" d="M82 942v43h33v-45q0 -90 37.5 -144.5t121.5 -54.5t121 55.5t37 145.5v70q0 72 -39 118t-108 46h-66v32h66q66 0 107.5 51.5t39.5 118.5v27q0 90 -37 145.5t-121 55.5t-121.5 -55.5t-37.5 -143.5v-29h-33v27q0 104 46 168.5t146 64.5q99 0 146 -64.5t47 -168.5v-23 q0 -66 -32 -117t-89 -71q61 -18 91 -67.5t30 -114.5v-70q0 -104 -47 -168.5t-146 -64.5q-100 0 -146 64.5t-46 168.5z" />
<glyph unicode="&#xb4;" horiz-adv-x="362" d="M78 1554l149 183h52l-158 -183h-43z" />
<glyph unicode="&#xb5;" horiz-adv-x="819" d="M111 -186v1210h45v-666q0 -143 59 -231t191 -88q131 0 191 88t60 231v666h45v-1024h-43l3 217q-25 -104 -91.5 -161.5t-169.5 -57.5q-100 0 -163.5 54t-83.5 147l2 -385h-45z" />
<glyph unicode="&#xb6;" horiz-adv-x="811" d="M55 946v154q0 164 56.5 248t210.5 86h376v-1559h-36v1522h-312v-1522h-37v735q-143 8 -200.5 89t-57.5 247z" />
<glyph unicode="&#xb7;" horiz-adv-x="208" d="M82 662v165h45v-165h-45z" />
<glyph unicode="&#xb8;" horiz-adv-x="503" d="M78 -180h37v-6q0 -49 43 -73t96 -26q51 0 93 24.5t42 72.5q0 53 -38 70.5t-97 17.5h-10v104h28v-84q70 -2 112 -25.5t42 -82.5q0 -61 -49 -91t-117 -30q-72 0 -127 29.5t-55 91.5v8z" />
<glyph unicode="&#xb9;" horiz-adv-x="346" d="M78 1501q55 4 93 38t56 89h35v-909h-35v848q-51 -84 -147 -97z" />
<glyph unicode="&#xba;" horiz-adv-x="555" d="M80 905v305q0 104 49 169t150 65q100 0 148 -64.5t48 -169.5v-305q0 -104 -48 -168.5t-148 -64.5t-149.5 64.5t-49.5 168.5zM84 502v35h391v-35h-391zM115 903q0 -88 39 -143t125 -55q84 0 122.5 55t38.5 143v309q0 88 -39 143.5t-122 55.5q-86 0 -125 -55.5t-39 -143.5 v-309z" />
<glyph unicode="&#xbb;" horiz-adv-x="530" d="M76 225l135 494l-135 491h43l135 -491l-135 -494h-43zM276 225l136 494l-136 491h43l136 -491l-136 -494h-43z" />
<glyph unicode="&#xbc;" horiz-adv-x="1005" d="M88 1307q55 4 93 37.5t57 89.5h34v-910h-36v848q-50 -84 -146 -96zM195 0l565 1434h33l-566 -1434h-32zM492 209v33l317 667h43v-667h76v-33h-76v-209h-35v209h-325zM528 242h289v604z" />
<glyph unicode="&#xbd;" horiz-adv-x="1130" d="M88 1307q55 4 93 37.5t57 89.5h34v-910h-36v848q-50 -84 -146 -96zM186 0l566 1434h34l-565 -1434h-35zM666 0v23q0 86 27.5 154.5t66.5 117.5t102 117q78 80 116 137t38 133q0 205 -158 205q-84 0 -122 -57.5t-38 -149.5v-49h-32v49q0 106 46 173t146 67 q103 0 148 -64.5t45 -171.5q0 -82 -41 -145.5t-121 -145.5q-92 -96 -139.5 -171t-49.5 -183v-6h342v-33h-376z" />
<glyph unicode="&#xbe;" horiz-adv-x="1144" d="M82 748v43h33v-46q0 -90 37.5 -144t121.5 -54t121 55t37 146v69q0 72 -39 118t-108 46h-66v33h66q66 0 107.5 51t39.5 119v26q0 90 -37 145.5t-121 55.5t-121.5 -55.5t-37.5 -143.5v-28h-33v26q0 104 46 169t146 65q99 0 146 -64.5t47 -169.5v-22q0 -66 -32 -117t-89 -72 q61 -18 91 -67t30 -115v-69q0 -104 -47 -169t-146 -65q-100 0 -146 64.5t-46 169.5zM338 0l565 1434h33l-565 -1434h-33zM633 209v33l317 667h41v-667h78v-33h-78v-209h-35v209h-323zM670 242h286v604z" />
<glyph unicode="&#xbf;" horiz-adv-x="745" d="M76 356q0 100 39 174t116 170q78 94 117 167t39 171q0 37 -10 74h43q10 -41 10 -76q-2 -106 -42 -182t-118 -170q-76 -94 -112.5 -163.5t-36.5 -166.5q0 -324 252 -323q133 0 192.5 92t59.5 235v78h43v-76q0 -164 -71 -267t-224 -103q-158 0 -227.5 100t-69.5 266z M379 1270v164h43v-164h-43z" />
<glyph unicode="&#xc0;" horiz-adv-x="915" d="M76 0l346 1436h63l355 -1436h-45l-84 338h-510l-84 -338h-41zM209 379h493l-249 1003zM317 1692h54l147 -183h-41z" />
<glyph unicode="&#xc1;" horiz-adv-x="915" d="M76 0l346 1436h63l355 -1436h-45l-84 338h-510l-84 -338h-41zM209 379h493l-249 1003zM371 1511l147 183h53l-159 -183h-41z" />
<glyph unicode="&#xc2;" horiz-adv-x="915" d="M76 0l346 1436h63l355 -1436h-45l-84 338h-510l-84 -338h-41zM209 379h493l-249 1003zM266 1509l168 168h37l170 -168h-51l-137 136l-138 -136h-49z" />
<glyph unicode="&#xc3;" horiz-adv-x="915" d="M76 0l346 1436h63l355 -1436h-45l-84 338h-510l-84 -338h-41zM209 379h493l-249 1003zM250 1567q41 80 110 82q27 0 49.5 -10.5t55.5 -30.5q27 -18 46 -26.5t38 -8.5q47 0 76 63l30 -18q-41 -82 -104 -82q-39 0 -94 39q-33 18 -51.5 27.5t-40.5 9.5q-53 0 -86 -64z" />
<glyph unicode="&#xc4;" horiz-adv-x="915" d="M76 0l346 1436h63l355 -1436h-45l-84 338h-510l-84 -338h-41zM209 379h493l-249 1003zM354 1509v164h41v-164h-41zM510 1509v164h43v-164h-43z" />
<glyph unicode="&#xc5;" horiz-adv-x="915" d="M76 0l346 1436h63l355 -1436h-45l-84 338h-510l-84 -338h-41zM209 379h493l-249 1003zM324 1645q0 51 37.5 86.5t91.5 35.5q53 0 90 -35.5t37 -86.5q0 -55 -37 -91t-90 -36q-55 0 -92 35.5t-37 91.5zM354 1645q0 -43 28 -70t71 -27q39 0 67.5 28t28.5 69q0 39 -28.5 65.5 t-67.5 26.5q-41 0 -70 -27t-29 -65z" />
<glyph unicode="&#xc6;" horiz-adv-x="1212" d="M74 0l557 1434h504v-43h-430v-643h360v-41h-360v-664h430v-43h-476v344h-407l-135 -344h-43zM266 387h393v993z" />
<glyph unicode="&#xc7;" horiz-adv-x="757" d="M80 352v729q0 162 72.5 262.5t226.5 100.5q156 0 228.5 -100.5t72.5 -262.5v-110h-45v112q0 143 -60.5 231.5t-193.5 88.5t-194.5 -88t-61.5 -232v-733q0 -143 60.5 -230t195.5 -87q133 0 193.5 87t60.5 230v158h45v-156q0 -158 -70.5 -258t-216.5 -104v-70 q70 -2 112 -25.5t42 -82.5q0 -61 -49 -91t-117 -30q-72 0 -126 29.5t-54 91.5v8h35v-6q0 -49 43 -73t96 -26q51 0 93 24.5t42 72.5q0 53 -38 70.5t-97 17.5h-10v90q-145 6 -215 105.5t-70 256.5z" />
<glyph unicode="&#xc8;" horiz-adv-x="706" d="M82 0v1434h547v-43h-502v-643h422v-41h-422v-664h502v-43h-547zM238 1720h53l149 -182h-43z" />
<glyph unicode="&#xc9;" horiz-adv-x="706" d="M82 0v1434h547v-43h-502v-643h422v-41h-422v-664h502v-43h-547zM297 1518l147 182h54l-160 -182h-41z" />
<glyph unicode="&#xca;" horiz-adv-x="706" d="M82 0v1434h547v-43h-502v-643h422v-41h-422v-664h502v-43h-547zM168 1522l168 168h37l170 -168h-51l-138 137l-139 -137h-47z" />
<glyph unicode="&#xcb;" horiz-adv-x="706" d="M82 0v1434h547v-43h-502v-643h422v-41h-422v-664h502v-43h-547zM256 1518v165h41v-165h-41zM412 1518v165h41v-165h-41z" />
<glyph unicode="&#xcc;" horiz-adv-x="208" d="M-49 1700h53l148 -182h-43zM82 0v1434h45v-1434h-45z" />
<glyph unicode="&#xcd;" horiz-adv-x="208" d="M41 1520l149 182h52l-158 -182h-43zM82 0v1434h45v-1434h-45z" />
<glyph unicode="&#xce;" horiz-adv-x="208" d="M-82 1518l168 168h37l168 -168h-49l-138 137l-139 -137h-47zM82 0v1434h45v-1434h-45z" />
<glyph unicode="&#xcf;" horiz-adv-x="208" d="M6 1520v163h41v-163h-41zM82 0v1434h45v-1434h-45zM162 1520v163h41v-163h-41z" />
<glyph unicode="&#xd0;" d="M-20 698v39h102v697h299q158 0 234.5 -98.5t76.5 -260.5v-719q0 -162 -76.5 -259t-232.5 -97h-301v698h-102zM127 43h254q137 0 201.5 84t64.5 227v723q0 143 -64.5 228.5t-201.5 85.5h-254v-654h199v-39h-199v-655z" />
<glyph unicode="&#xd1;" horiz-adv-x="774" d="M82 0v1434h63l504 -1342v1342h43v-1434h-55l-512 1368v-1368h-43zM186 1589q20 37 49 59.5t64 22.5q25 0 46.5 -9t57.5 -30q33 -18 51.5 -27.5t37.5 -7.5q37 0 71 62l29 -19q-37 -79 -105 -79q-37 0 -96 38q-20 12 -43.5 23.5t-44.5 11.5q-51 0 -88 -63z" />
<glyph unicode="&#xd2;" d="M80 352v729q0 162 74.5 262.5t228.5 100.5q158 0 232.5 -100.5t74.5 -262.5v-729q0 -162 -74.5 -262t-232.5 -100q-154 0 -228.5 100t-74.5 262zM125 350q0 -143 61.5 -231t196.5 -88t198.5 88t63.5 231v733q0 143 -63.5 231.5t-198.5 88.5t-196.5 -88t-61.5 -232v-733z M246 1718h53l147 -182h-43z" />
<glyph unicode="&#xd3;" d="M80 352v729q0 162 74.5 262.5t228.5 100.5q158 0 232.5 -100.5t74.5 -262.5v-729q0 -162 -74.5 -262t-232.5 -100q-154 0 -228.5 100t-74.5 262zM125 350q0 -143 61.5 -231t196.5 -88t198.5 88t63.5 231v733q0 143 -63.5 231.5t-198.5 88.5t-196.5 -88t-61.5 -232v-733z M322 1536l147 182h51l-158 -182h-40z" />
<glyph unicode="&#xd4;" d="M80 352v729q0 162 74.5 262.5t228.5 100.5q158 0 232.5 -100.5t74.5 -262.5v-729q0 -162 -74.5 -262t-232.5 -100q-154 0 -228.5 100t-74.5 262zM125 350q0 -143 61.5 -231t196.5 -88t198.5 88t63.5 231v733q0 143 -63.5 231.5t-198.5 88.5t-196.5 -88t-61.5 -232v-733z M197 1532l168 168h36l170 -168h-51l-137 137l-137 -137h-49z" />
<glyph unicode="&#xd5;" d="M80 352v729q0 162 74.5 262.5t228.5 100.5q158 0 232.5 -100.5t74.5 -262.5v-729q0 -162 -74.5 -262t-232.5 -100q-154 0 -228.5 100t-74.5 262zM125 350q0 -143 61.5 -231t196.5 -88t198.5 88t63.5 231v733q0 143 -63.5 231.5t-198.5 88.5t-196.5 -88t-61.5 -232v-733z M193 1583q20 37 48.5 58.5t63.5 21.5q27 0 48.5 -9t54.5 -30q27 -18 46 -26.5t38 -8.5q47 0 75 64l31 -19q-36 -82 -104 -82q-39 0 -97 39q-33 18 -51 27.5t-41 9.5q-51 0 -84 -63z" />
<glyph unicode="&#xd6;" d="M80 352v729q0 162 74.5 262.5t228.5 100.5q158 0 232.5 -100.5t74.5 -262.5v-729q0 -162 -74.5 -262t-232.5 -100q-154 0 -228.5 100t-74.5 262zM125 350q0 -143 61.5 -231t196.5 -88t198.5 88t63.5 231v733q0 143 -63.5 231.5t-198.5 88.5t-196.5 -88t-61.5 -232v-733z M285 1532v166h41v-166h-41zM440 1532v166h43v-166h-43z" />
<glyph unicode="&#xd7;" horiz-adv-x="645" d="M82 500l215 215l-215 215l24 26l218 -215l215 215l24 -26l-215 -215l215 -215l-24 -27l-215 217l-218 -217z" />
<glyph unicode="&#xd8;" d="M80 352v729q0 178 76.5 270.5t226.5 92.5q154 0 229 -92l35 90l33 -10l-43 -113q53 -91 53 -238v-729q0 -178 -77.5 -270t-229.5 -92q-150 0 -227 94l-39 -98l-33 10l47 123q-51 90 -51 233zM125 350q0 -102 29 -176l440 1129q-68 100 -211 100q-127 0 -192.5 -81 t-65.5 -239v-733zM174 133q66 -102 209 -102q129 0 195.5 81t66.5 238v733q0 107 -31 181z" />
<glyph unicode="&#xd9;" horiz-adv-x="751" d="M80 354v1080h45v-1082q0 -143 59.5 -232t192.5 -89t192.5 89t59.5 232v1082h43v-1080q0 -161 -71 -262.5t-224 -101.5q-154 0 -225.5 101.5t-71.5 262.5zM236 1702h53l147 -182h-43z" />
<glyph unicode="&#xda;" horiz-adv-x="751" d="M80 354v1080h45v-1082q0 -143 59.5 -232t192.5 -89t192.5 89t59.5 232v1082h43v-1080q0 -161 -71 -262.5t-224 -101.5q-154 0 -225.5 101.5t-71.5 262.5zM330 1536l149 182h51l-157 -182h-43z" />
<glyph unicode="&#xdb;" horiz-adv-x="751" d="M80 354v1080h45v-1082q0 -143 59.5 -232t192.5 -89t192.5 89t59.5 232v1082h43v-1080q0 -161 -71 -262.5t-224 -101.5q-154 0 -225.5 101.5t-71.5 262.5zM193 1532l167 168h37l170 -168h-51l-137 137l-139 -137h-47z" />
<glyph unicode="&#xdc;" horiz-adv-x="751" d="M80 354v1080h45v-1082q0 -143 59.5 -232t192.5 -89t192.5 89t59.5 232v1082h43v-1080q0 -161 -71 -262.5t-224 -101.5q-154 0 -225.5 101.5t-71.5 262.5zM276 1528v164h41v-164h-41zM432 1528v164h43v-164h-43z" />
<glyph unicode="&#xdd;" horiz-adv-x="864" d="M74 1434h45l313 -793l313 793h48l-340 -854v-580h-45v580zM383 1518l149 182h52l-160 -182h-41z" />
<glyph unicode="&#xde;" horiz-adv-x="772" d="M82 0v1434h45v-283h238q297 0 297 -346v-143q0 -172 -80 -254t-250 -82h-205v-326h-45zM127 369h205q149 0 216.5 69.5t67.5 220.5v148q0 143 -57 222t-194 79h-238v-739z" />
<glyph unicode="&#xdf;" horiz-adv-x="1429" d="M70 346v70h43v-72q0 -141 60 -226t196 -85q133 0 193.5 85t60.5 226q0 84 -36 145.5t-87 104.5t-142 104q-94 63 -149 110.5t-94 117t-39 164.5q0 164 71.5 258t223.5 96q151 0 223 -98.5t72 -258.5v-26h-43v29q0 141 -59.5 227t-192.5 86q-131 0 -190.5 -86t-59.5 -225 q0 -84 36 -147.5t90 -108.5t142 -105q90 -61 146.5 -108.5t94.5 -116t38 -160.5q0 -162 -73 -259t-226 -97q-154 0 -226.5 97t-72.5 259zM760 346v70h43v-72q0 -141 60.5 -226t195.5 -85q133 0 193.5 85t60.5 226q0 84 -36 145.5t-87 104.5t-141 104q-94 63 -149.5 110.5 t-94.5 117t-39 164.5q0 164 71.5 258t223.5 96q151 0 223 -98.5t72 -258.5v-26h-43v29q0 141 -59.5 227t-192.5 86q-131 0 -190.5 -86t-59.5 -225q0 -84 36 -147.5t90 -108.5t142 -105q90 -61 146.5 -108.5t94.5 -116t38 -160.5q0 -162 -73 -259t-226 -97q-154 0 -226.5 97 t-72.5 259z" />
<glyph unicode="&#xe0;" horiz-adv-x="915" d="M76 0l346 1436h63l355 -1436h-45l-84 338h-510l-84 -338h-41zM209 379h493l-249 1003zM317 1692h54l147 -183h-41z" />
<glyph unicode="&#xe1;" horiz-adv-x="915" d="M76 0l346 1436h63l355 -1436h-45l-84 338h-510l-84 -338h-41zM209 379h493l-249 1003zM371 1511l147 183h53l-159 -183h-41z" />
<glyph unicode="&#xe2;" horiz-adv-x="915" d="M76 0l346 1436h63l355 -1436h-45l-84 338h-510l-84 -338h-41zM209 379h493l-249 1003zM266 1509l168 168h37l170 -168h-51l-137 136l-138 -136h-49z" />
<glyph unicode="&#xe3;" horiz-adv-x="915" d="M76 0l346 1436h63l355 -1436h-45l-84 338h-510l-84 -338h-41zM209 379h493l-249 1003zM250 1567q41 80 110 82q44 0 105 -41q31 -18 49 -26.5t37 -8.5q49 0 76 61l28 -16q-41 -82 -104 -82q-37 0 -96 39q-33 18 -51.5 27.5t-41.5 9.5q-53 0 -86 -62z" />
<glyph unicode="&#xe4;" horiz-adv-x="915" d="M76 0l346 1436h63l355 -1436h-45l-84 338h-510l-84 -338h-41zM209 379h493l-249 1003zM354 1509v164h41v-164h-41zM510 1509v164h43v-164h-43z" />
<glyph unicode="&#xe5;" horiz-adv-x="915" d="M76 0l346 1436h63l355 -1436h-45l-84 338h-510l-84 -338h-41zM209 379h493l-249 1003zM324 1645q0 51 37.5 86.5t91.5 35.5q53 0 90 -35.5t37 -86.5q0 -55 -37 -91t-90 -36q-55 0 -92 35.5t-37 91.5zM354 1645q0 -43 28 -70t71 -27q39 0 67.5 28t28.5 69q0 39 -28.5 65.5 t-67.5 26.5q-41 0 -70 -27t-29 -65z" />
<glyph unicode="&#xe6;" horiz-adv-x="1212" d="M74 0l557 1434h504v-43h-430v-643h360v-41h-360v-664h430v-43h-476v344h-407l-135 -344h-43zM266 387h393v993z" />
<glyph unicode="&#xe7;" horiz-adv-x="757" d="M80 352v729q0 162 72.5 262.5t226.5 100.5q156 0 228.5 -100.5t72.5 -262.5v-110h-45v112q0 143 -60.5 231.5t-193.5 88.5t-194.5 -88t-61.5 -232v-733q0 -143 60.5 -230t195.5 -87q133 0 193.5 87t60.5 230v158h45v-156q0 -158 -70.5 -258t-216.5 -104v-62 q66 -2 110 -29.5t44 -86.5q0 -61 -50.5 -93t-115.5 -32q-70 0 -125 31.5t-55 93.5v8h32v-6q0 -49 43 -72t99 -25q51 0 93 23.5t42 71.5q0 53 -38 70.5t-97 17.5h-10v90q-145 6 -215 105.5t-70 256.5z" />
<glyph unicode="&#xe8;" horiz-adv-x="706" d="M82 0v1434h547v-43h-502v-643h422v-41h-422v-664h502v-43h-547zM238 1720h53l149 -182h-43z" />
<glyph unicode="&#xe9;" horiz-adv-x="706" d="M82 0v1434h547v-43h-502v-643h422v-41h-422v-664h502v-43h-547zM297 1518l147 182h54l-160 -182h-41z" />
<glyph unicode="&#xea;" horiz-adv-x="706" d="M82 0v1434h547v-43h-502v-643h422v-41h-422v-664h502v-43h-547zM168 1522l168 168h37l170 -168h-51l-138 137l-139 -137h-47z" />
<glyph unicode="&#xeb;" horiz-adv-x="706" d="M82 0v1434h547v-43h-502v-643h422v-41h-422v-664h502v-43h-547zM256 1518v165h41v-165h-41zM412 1518v165h41v-165h-41z" />
<glyph unicode="&#xec;" horiz-adv-x="208" d="M-49 1700h53l148 -182h-43zM82 0v1434h45v-1434h-45z" />
<glyph unicode="&#xed;" horiz-adv-x="208" d="M41 1520l149 182h52l-158 -182h-43zM82 0v1434h45v-1434h-45z" />
<glyph unicode="&#xee;" horiz-adv-x="208" d="M-82 1518l168 168h37l168 -168h-49l-138 137l-139 -137h-47zM82 0v1434h45v-1434h-45z" />
<glyph unicode="&#xef;" horiz-adv-x="208" d="M6 1520v163h41v-163h-41zM82 0v1434h45v-1434h-45zM162 1520v163h41v-163h-41z" />
<glyph unicode="&#xf0;" d="M-10 694v39h92v701h299q158 0 234.5 -98.5t76.5 -260.5v-719q0 -162 -76.5 -259t-232.5 -97h-301v694h-92zM127 43h254q137 0 201.5 84t64.5 227v723q0 143 -64.5 228.5t-201.5 85.5h-254v-658h201v-39h-201v-651z" />
<glyph unicode="&#xf1;" horiz-adv-x="774" d="M82 0v1434h63l504 -1342v1342h43v-1434h-55l-512 1368v-1368h-43zM186 1589q20 37 49 59.5t64 22.5q25 0 46.5 -9t57.5 -30q33 -18 51.5 -27.5t37.5 -7.5q37 0 71 62l29 -19q-37 -79 -105 -79q-37 0 -96 38q-20 12 -43.5 23.5t-44.5 11.5q-51 0 -88 -63z" />
<glyph unicode="&#xf2;" d="M80 352v729q0 162 74.5 262.5t228.5 100.5q158 0 232.5 -100.5t74.5 -262.5v-729q0 -162 -74.5 -262t-232.5 -100q-154 0 -228.5 100t-74.5 262zM125 350q0 -143 61.5 -231t196.5 -88t198.5 88t63.5 231v733q0 143 -63.5 231.5t-198.5 88.5t-196.5 -88t-61.5 -232v-733z M246 1718h53l147 -182h-43z" />
<glyph unicode="&#xf3;" d="M80 352v729q0 162 74.5 262.5t228.5 100.5q158 0 232.5 -100.5t74.5 -262.5v-729q0 -162 -74.5 -262t-232.5 -100q-154 0 -228.5 100t-74.5 262zM125 350q0 -143 61.5 -231t196.5 -88t198.5 88t63.5 231v733q0 143 -63.5 231.5t-198.5 88.5t-196.5 -88t-61.5 -232v-733z M322 1536l147 182h51l-158 -182h-40z" />
<glyph unicode="&#xf4;" d="M80 352v729q0 162 74.5 262.5t228.5 100.5q158 0 232.5 -100.5t74.5 -262.5v-729q0 -162 -74.5 -262t-232.5 -100q-154 0 -228.5 100t-74.5 262zM125 350q0 -143 61.5 -231t196.5 -88t198.5 88t63.5 231v733q0 143 -63.5 231.5t-198.5 88.5t-196.5 -88t-61.5 -232v-733z M197 1532l168 168h36l170 -168h-51l-137 137l-137 -137h-49z" />
<glyph unicode="&#xf5;" d="M80 352v729q0 162 74.5 262.5t228.5 100.5q158 0 232.5 -100.5t74.5 -262.5v-729q0 -162 -74.5 -262t-232.5 -100q-154 0 -228.5 100t-74.5 262zM125 350q0 -143 61.5 -231t196.5 -88t198.5 88t63.5 231v733q0 143 -63.5 231.5t-198.5 88.5t-196.5 -88t-61.5 -232v-733z M193 1583q20 37 48.5 58.5t63.5 21.5q27 0 48.5 -9t54.5 -30q27 -18 46 -26.5t38 -8.5q47 0 75 64l31 -19q-36 -82 -104 -82q-39 0 -97 39q-33 18 -51 27.5t-41 9.5q-51 0 -84 -63z" />
<glyph unicode="&#xf6;" d="M80 352v729q0 162 74.5 262.5t228.5 100.5q158 0 232.5 -100.5t74.5 -262.5v-729q0 -162 -74.5 -262t-232.5 -100q-154 0 -228.5 100t-74.5 262zM125 350q0 -143 61.5 -231t196.5 -88t198.5 88t63.5 231v733q0 143 -63.5 231.5t-198.5 88.5t-196.5 -88t-61.5 -232v-733z M285 1532v166h41v-166h-41zM440 1532v166h43v-166h-43z" />
<glyph unicode="&#xf7;" horiz-adv-x="555" d="M78 700v35h399v-35h-399zM254 455v168h43v-168h-43zM254 813v166h43v-166h-43z" />
<glyph unicode="&#xf8;" d="M80 352v729q0 178 76.5 270.5t226.5 92.5q154 0 229 -92l35 90l33 -10l-43 -113q53 -91 53 -238v-729q0 -178 -77.5 -270t-229.5 -92q-150 0 -227 94l-39 -98l-33 10l47 123q-51 90 -51 233zM125 350q0 -102 29 -176l440 1129q-68 100 -211 100q-127 0 -192.5 -81 t-65.5 -239v-733zM174 133q66 -102 209 -102q129 0 195.5 81t66.5 238v733q0 107 -31 181z" />
<glyph unicode="&#xf9;" horiz-adv-x="751" d="M80 354v1080h45v-1082q0 -143 59.5 -232t192.5 -89t192.5 89t59.5 232v1082h43v-1080q0 -161 -71 -262.5t-224 -101.5q-154 0 -225.5 101.5t-71.5 262.5zM236 1702h53l147 -182h-43z" />
<glyph unicode="&#xfa;" horiz-adv-x="751" d="M80 354v1080h45v-1082q0 -143 59.5 -232t192.5 -89t192.5 89t59.5 232v1082h43v-1080q0 -161 -71 -262.5t-224 -101.5q-154 0 -225.5 101.5t-71.5 262.5zM330 1536l149 182h51l-157 -182h-43z" />
<glyph unicode="&#xfb;" horiz-adv-x="751" d="M80 354v1080h45v-1082q0 -143 59.5 -232t192.5 -89t192.5 89t59.5 232v1082h43v-1080q0 -161 -71 -262.5t-224 -101.5q-154 0 -225.5 101.5t-71.5 262.5zM193 1532l167 168h37l170 -168h-51l-137 137l-139 -137h-47z" />
<glyph unicode="&#xfc;" horiz-adv-x="751" d="M80 354v1080h45v-1082q0 -143 59.5 -232t192.5 -89t192.5 89t59.5 232v1082h43v-1080q0 -161 -71 -262.5t-224 -101.5q-154 0 -225.5 101.5t-71.5 262.5zM276 1528v164h41v-164h-41zM432 1528v164h43v-164h-43z" />
<glyph unicode="&#xfd;" horiz-adv-x="864" d="M74 1434h45l313 -793l313 793h48l-340 -854v-580h-45v580zM383 1518l149 182h52l-160 -182h-41z" />
<glyph unicode="&#xfe;" horiz-adv-x="772" d="M82 0v1434h45v-283h238q297 0 297 -346v-143q0 -172 -80 -254t-250 -82h-205v-326h-45zM127 369h205q149 0 216.5 69.5t67.5 220.5v148q0 143 -57 222t-194 79h-238v-739z" />
<glyph unicode="&#xff;" horiz-adv-x="864" d="M74 1434h45l313 -793l313 793h48l-340 -854v-580h-45v580zM332 1520v163h43v-163h-43zM489 1520v163h41v-163h-41z" />
<glyph unicode="&#x152;" horiz-adv-x="1148" d="M80 358v717q0 158 67.5 258.5t214.5 100.5h709v-43h-432v-643h362v-41h-362v-664h432v-43h-709q-147 0 -214.5 100.5t-67.5 257.5zM125 356q0 -137 56.5 -225t183.5 -88h229v1348h-229q-127 0 -183.5 -88.5t-56.5 -225.5v-721z" />
<glyph unicode="&#x153;" horiz-adv-x="1148" d="M80 358v717q0 158 67.5 258.5t214.5 100.5h709v-43h-432v-643h362v-41h-362v-664h432v-43h-709q-147 0 -214.5 100.5t-67.5 257.5zM125 356q0 -137 56.5 -225t183.5 -88h229v1348h-229q-127 0 -183.5 -88.5t-56.5 -225.5v-721z" />
<glyph unicode="&#x178;" horiz-adv-x="864" d="M74 1434h45l313 -793l313 793h48l-340 -854v-580h-45v580zM332 1520v163h43v-163h-43zM489 1520v163h41v-163h-41z" />
<glyph unicode="&#x2c6;" horiz-adv-x="512" d="M70 1569l168 168h36l168 -168h-49l-137 135l-139 -135h-47z" />
<glyph unicode="&#x2dc;" horiz-adv-x="544" d="M70 1579q20 37 48.5 59.5t63.5 22.5q43 0 105 -41q31 -18 49 -26.5t37 -8.5q23 0 40 17.5t33 46.5l29 -19q-39 -82 -100 -82q-25 0 -44.5 9.5t-54.5 29.5q-57 37 -90 37q-51 0 -88 -63z" />
<glyph unicode="&#x2000;" horiz-adv-x="883" />
<glyph unicode="&#x2001;" horiz-adv-x="1767" />
<glyph unicode="&#x2002;" horiz-adv-x="883" />
<glyph unicode="&#x2003;" horiz-adv-x="1767" />
<glyph unicode="&#x2004;" horiz-adv-x="589" />
<glyph unicode="&#x2005;" horiz-adv-x="441" />
<glyph unicode="&#x2006;" horiz-adv-x="294" />
<glyph unicode="&#x2007;" horiz-adv-x="294" />
<glyph unicode="&#x2008;" horiz-adv-x="220" />
<glyph unicode="&#x2009;" horiz-adv-x="353" />
<glyph unicode="&#x200a;" horiz-adv-x="98" />
<glyph unicode="&#x2010;" horiz-adv-x="524" d="M80 696v41h364v-41h-364z" />
<glyph unicode="&#x2011;" horiz-adv-x="524" d="M80 696v41h364v-41h-364z" />
<glyph unicode="&#x2012;" horiz-adv-x="524" d="M80 696v41h364v-41h-364z" />
<glyph unicode="&#x2013;" horiz-adv-x="790" d="M72 698v39h647v-39h-647z" />
<glyph unicode="&#x2014;" horiz-adv-x="1120" d="M72 698v39h977v-39h-977z" />
<glyph unicode="&#x2018;" horiz-adv-x="235" d="M82 1130v164l45 140h23l-23 -138v-166h-45z" />
<glyph unicode="&#x2019;" horiz-adv-x="235" d="M86 1130l23 138v166h45v-164l-45 -140h-23z" />
<glyph unicode="&#x201a;" horiz-adv-x="235" d="M86 -137l23 137v166h45v-164l-45 -139h-23z" />
<glyph unicode="&#x201c;" horiz-adv-x="342" d="M82 1130v164l45 140h23l-23 -138v-166h-45zM190 1130v164l43 140h25l-25 -138v-166h-43z" />
<glyph unicode="&#x201d;" horiz-adv-x="342" d="M82 1130l24 138v166h44v-164l-44 -140h-24zM190 1130l23 138v166h45v-164l-45 -140h-23z" />
<glyph unicode="&#x201e;" horiz-adv-x="356" d="M86 -137l23 137v166h45v-164l-45 -139h-23zM207 -137l24 137v166h43v-164l-43 -139h-24z" />
<glyph unicode="&#x2022;" horiz-adv-x="436" d="M123 717q0 39 27.5 67.5t66.5 28.5q41 0 68.5 -27.5t27.5 -68.5q0 -39 -27.5 -67.5t-68.5 -28.5q-39 0 -66.5 28.5t-27.5 67.5z" />
<glyph unicode="&#x2026;" horiz-adv-x="430" d="M82 0v166h45v-166h-45zM193 0v166h43v-166h-43zM305 0v166h43v-166h-43z" />
<glyph unicode="&#x202f;" horiz-adv-x="353" />
<glyph unicode="&#x2039;" horiz-adv-x="331" d="M76 717l135 493h45l-135 -493l135 -496h-45z" />
<glyph unicode="&#x203a;" horiz-adv-x="331" d="M76 223l135 496l-135 493h43l137 -493l-137 -496h-43z" />
<glyph unicode="&#x205f;" horiz-adv-x="441" />
<glyph unicode="&#x20ac;" horiz-adv-x="815" d="M59 594v33h91v188h-91v33h91v233q0 162 70.5 262.5t223.5 100.5q150 0 220.5 -100.5t70.5 -262.5v-67h-43v69q0 141 -58.5 230.5t-189.5 89.5t-190 -89t-59 -231v-235h423v-33h-423v-188h423v-33h-423v-244q0 -141 59 -229t190 -88t189.5 88t58.5 229v82h43v-80 q0 -160 -70.5 -261t-220.5 -101q-154 0 -224 101.5t-70 260.5v242h-91z" />
<glyph unicode="&#x2122;" horiz-adv-x="1181" d="M33 1401v33h426v-33h-195v-696h-35v696h-196zM561 705v729h49l221 -666l224 666h49v-729h-35v671l-219 -659h-37l-219 659v-671h-33z" />
<glyph unicode="&#x25fc;" horiz-adv-x="1433" d="M0 0v1434h1434v-1434h-1434z" />
</font>
</defs>
</svg>
