<svg xmlns="http://www.w3.org/2000/svg" xmlns:xlink="http://www.w3.org/1999/xlink" viewBox="0 0 220.54 217.37"><defs><style>.cls-1{fill:none;}.cls-2{clip-path:url(#clip-path);}.cls-3{fill:#fbeaca;}.cls-4{fill:#c3a269;}.cls-5{fill:#dfcdb2;}.cls-6{fill:#ac854c;}.cls-7{fill:#7e7565;}.cls-8{fill:#fff;}.cls-9{fill:#f5cb84;}.cls-10{fill:#c49c5c;}.cls-11{fill:#fab745;}</style><clipPath id="clip-path" transform="translate(0 0)"><rect class="cls-1" width="220.54" height="217.37"/></clipPath></defs><title>destacados</title><g id="Layer_2" data-name="Layer 2"><g id="Layer_1-2" data-name="Layer 1"><g class="cls-2"><path class="cls-3" d="M83,25C79,41.79,119.39,43.95,136,44.13a66.58,66.58,0,0,0,13.72-1.28c14.07-2.8,44.86-10.15,40.54-20.14C184.72,9.83,168,18.81,168,18.81s2.1-9.73-26.38-16.16-28.37,15-28.37,15S87.91,3.91,83,25" transform="translate(0 0)"/><path class="cls-3" d="M0,122H149.6s8.11-10.06,0-16.84c-4.48-3.74-9.76-3.35-13.6-2.25a4.48,4.48,0,0,1-5.55-3.44c-.91-4.14-3.71-9.55-11.77-12.75s-12.93,1.66-15.83,6.6a2.27,2.27,0,0,1-4.07-.41c-2.51-7.8-11.26-18.13-40-18.13-36.57,0-32.51,19.07-29.24,27a1.84,1.84,0,0,1-2.11,2.49c-5.64-1.18-16.11-2.71-20.81.9C0,110.23,0,122,0,122" transform="translate(0 0)"/><path class="cls-4" d="M111,140.25S81.7,96.38,44.22,99.49c-18.69,40.4,24.09,67.7,24.09,67.7l46,8.33Z" transform="translate(0 0)"/></g><polygon class="cls-5" points="113.5 175.37 114.28 175.51 113.51 175.37 113.5 175.37"/><g class="cls-2"><path class="cls-6" d="M45.1,99.43l-.89.06L44,100l17.51,19-22,.28c0,.21,0,.41,0,.61v.54l23.07-.29,29.19,31.67-38.64,1.7,1,1.11,38.7-1.7,20.72,22.49.78.14-.11-1.14L78.75,135.93l6.08-22.77-1-.74-6,22.49Z" transform="translate(0 0)"/><path class="cls-7" d="M125.91,209.15A17.62,17.62,0,0,1,127.46,199l-24.22-37s-41.55-16-61.84,5.66c13,45.58,63,45,83.66,42.7q.41-.61.86-1.2" transform="translate(0 0)"/><path class="cls-8" d="M41.4,167.65c.06.22.13.44.2.66l57.8,17.31L72.25,203.84l1.26.56,27.33-18.35,22.58,6.76-1-1.5-44-13.16L66.61,156.56l-1.27.13,11.53,21-35-10.49-.46.47Z" transform="translate(0 0)"/><path class="cls-7" d="M117.93,103.32s18.63-52.85,58.23-59.23c30.08,37-6.91,76.18-6.91,76.18l-45.34,20.37Z" transform="translate(0 0)"/><path class="cls-8" d="M138.65,67.58l12.19,21.73,24.38-45.06.93-.17.34.44L163.45,68.65l22.85-5.34c.06.21.11.42.16.63l.14.56-23.94,5.6L140.9,110.32l40.42-8.12c-.23.47-.46.94-.7,1.4l-40.48,8.13-15.45,28.56-.77.34-.19-1.2,26.42-48.82-12.34-22,.86-1" transform="translate(0 0)"/><path class="cls-4" d="M121.41,180.64a18.93,18.93,0,0,0-4.31-10.1l15.21-44.48s38.73-27.14,65.47-10c-1.3,50.46-53.24,62.65-75.17,65.56-.39-.35-.79-.69-1.2-1" transform="translate(0 0)"/><path class="cls-5" d="M197.73,116.06l.06,0h0l-.06,0m.06,0v0m-77.52,45.2h0l-.62,1.81.62-1.81" transform="translate(0 0)"/><path class="cls-6" d="M170.1,110.88l-1.35.19-6.53,25.37-42,24.86-.62,1.81,21.55-12.77,33.15,12,1.15-.9-32.92-11.9,55.18-32.69c0-.24,0-.47,0-.71v0h0l-.06,0-.54-.33-33.43,19.8Z" transform="translate(0 0)"/></g><polygon class="cls-3" points="214.54 105.56 217.42 111.1 211.38 109.75 190.71 103.37 214.54 105.56"/><polygon class="cls-9" points="217.42 111.1 207.16 110.48 209.67 109.22 217.42 111.1"/><polygon class="cls-9" points="214.54 105.56 216.34 100.15 190.71 103.37 214.54 105.56"/><polygon class="cls-9" points="190.71 103.37 211.38 109.75 208.3 117.54 190.71 103.37"/><g class="cls-2"><path class="cls-9" d="M215.15,116.68a.47.47,0,0,0,.14-.11.47.47,0,0,0,0-.67,13.54,13.54,0,0,0-2-1.43.49.49,0,0,0-.66.17.47.47,0,0,0,.17.65,12.56,12.56,0,0,1,1.89,1.33.49.49,0,0,0,.54.06" transform="translate(0 0)"/><path class="cls-9" d="M202.49,129.2a7,7,0,0,0-4.44-.41.48.48,0,0,1-.59-.34.47.47,0,0,1,.35-.58,7.93,7.93,0,0,1,5.09.47.47.47,0,0,1,0,.85.49.49,0,0,1-.42,0m-8.07,5.41a.48.48,0,0,1-.58-.35,5.17,5.17,0,0,1,.4-3.77,4.8,4.8,0,0,1,.82-1.11.49.49,0,0,1,.68,0,.47.47,0,0,1,0,.67,3.87,3.87,0,0,0-.66.89,4.19,4.19,0,0,0-.31,3.1.47.47,0,0,1-.25.54ZM219.34,123a.48.48,0,0,1-.61-.29,15.15,15.15,0,0,0-.84-1.94,14.33,14.33,0,0,0-1.36-2.14.47.47,0,0,1,.1-.66.48.48,0,0,1,.67.09,15.31,15.31,0,0,1,1.45,2.28,16.08,16.08,0,0,1,.89,2.07.47.47,0,0,1-.24.58Zm-11.58,11.31a17.66,17.66,0,0,0-3-3.61.47.47,0,0,1,0-.67.49.49,0,0,1,.68,0,18.52,18.52,0,0,1,3.15,3.8.47.47,0,0,1-.14.65l0,0a.49.49,0,0,1-.62-.17M199,140.2a12.92,12.92,0,0,1-1.13-.64,10.23,10.23,0,0,1-2.73-2.56.47.47,0,0,1,.11-.66.49.49,0,0,1,.67.11,9.26,9.26,0,0,0,2.47,2.31,11.61,11.61,0,0,0,1,.6.47.47,0,0,1,.21.64.48.48,0,0,1-.21.21.49.49,0,0,1-.44,0m20.72-9.61a.47.47,0,0,1-.39-.55,14.1,14.1,0,0,0,0-4.61.47.47,0,0,1,.41-.54.48.48,0,0,1,.55.4,15,15,0,0,1,0,4.91.47.47,0,0,1-.26.34.49.49,0,0,1-.3,0m-12.89,11a15.36,15.36,0,0,1-5-.38.47.47,0,0,1-.35-.57.48.48,0,0,1,.59-.34,14.38,14.38,0,0,0,4.68.36.48.48,0,0,1,.52.43.47.47,0,0,1-.26.46.5.5,0,0,1-.18,0m9.16-4.44a.47.47,0,0,1,0-.67,12.09,12.09,0,0,0,1.76-2.24,12,12,0,0,0,.8-1.58.48.48,0,0,1,.63-.26.47.47,0,0,1,.26.62,12.85,12.85,0,0,1-.86,1.7,13.07,13.07,0,0,1-1.9,2.42.44.44,0,0,1-.13.09.49.49,0,0,1-.56-.08m-3.81,4a.49.49,0,0,1-.65-.22l-.18-.36q-.76.29-1.56.51a.48.48,0,0,1-.6-.33.47.47,0,0,1,.34-.58q.7-.19,1.38-.44c-.5-.94-1.05-1.92-1.68-3a.47.47,0,0,1,.17-.65.49.49,0,0,1,.66.17c.65,1.09,1.22,2.1,1.74,3.08a14.78,14.78,0,0,0,2-1.1.49.49,0,0,1,.67.13.47.47,0,0,1-.13.66,15.66,15.66,0,0,1-2.11,1.16l.16.31a.47.47,0,0,1-.21.63Zm2.71,7.16a.48.48,0,0,1-.59-.34,34.08,34.08,0,0,0-1.57-4.46.47.47,0,0,1,.26-.62.49.49,0,0,1,.63.25,34.78,34.78,0,0,1,1.61,4.58.47.47,0,0,1-.25.54Zm.67,7.58a.48.48,0,0,1-.45-.51v-.21a21.49,21.49,0,0,0-.24-4.45.47.47,0,0,1,.4-.54.48.48,0,0,1,.55.4,22.44,22.44,0,0,1,.25,4.64v.23a.47.47,0,0,1-.26.39.49.49,0,0,1-.25.05m-2.46,7.2a.47.47,0,0,1-.18-.65,16.76,16.76,0,0,0,1.75-4.31.48.48,0,0,1,.58-.35.47.47,0,0,1,.35.57,17.66,17.66,0,0,1-1.85,4.55.48.48,0,0,1-.2.19.49.49,0,0,1-.46,0m-5.5,5.31a.47.47,0,0,1,.17-.65,13.54,13.54,0,0,0,3.54-3,.49.49,0,0,1,.68-.06.47.47,0,0,1,.06.67,14.46,14.46,0,0,1-3.79,3.22h0a.49.49,0,0,1-.63-.18" transform="translate(0 0)"/><path class="cls-9" d="M205.55,169.75a.47.47,0,0,0,.24-.55.49.49,0,0,0-.6-.33,10.55,10.55,0,0,1-2.27.38.47.47,0,1,0,.05.94,11.5,11.5,0,0,0,2.48-.41Z" transform="translate(0 0)"/></g><polygon class="cls-10" points="65.99 30.93 72.25 49.81 91.66 44.57 106.86 217.37 133.15 213.74 142.5 10.63 65.99 30.93"/><polygon class="cls-9" points="74.75 0 66.99 0.37 61.61 2.55 91.22 4.27 74.75 0"/><polyline class="cls-3" points="91.22 4.27 62.38 4.11 61.61 2.55"/><polygon class="cls-3" points="62.77 8.86 62.82 8.9 65.01 12.75 91.16 4.29 62.77 8.86"/><polygon class="cls-9" points="56.98 7.71 60.05 3.68 91.04 4.27 65.88 9.69 56.98 7.71"/><g class="cls-2"><path class="cls-9" d="M9.48,75.36a20.9,20.9,0,0,0,2.32-1.75.41.41,0,0,1,.57,0,.39.39,0,0,1,0,.56A21.68,21.68,0,0,1,9.93,76q-.46.3-.92.57a.41.41,0,0,1-.36,0,.4.4,0,0,1-.19-.16.39.39,0,0,1,.14-.54l.89-.55" transform="translate(0 0)"/><path class="cls-9" d="M48.32,6.78c1.27-.15,2.6-.26,4.06-.35a.4.4,0,1,1,.05.79c-1.45.09-2.77.21-4,.35a.42.42,0,0,1-.2,0,.4.4,0,0,1,.11-.76" transform="translate(0 0)"/><path class="cls-9" d="M41.83,8.69a.4.4,0,0,1,.05-.75c1.26-.32,2.61-.6,4-.82a.4.4,0,0,1,.47.33A.4.4,0,0,1,46,7.9c-1.37.22-2.7.49-3.93.81a.41.41,0,0,1-.26,0" transform="translate(0 0)"/><path class="cls-9" d="M15.89,68.84a.4.4,0,0,1,.56-.13.39.39,0,0,1,.13.55,22.24,22.24,0,0,1-2.47,3.24.41.41,0,0,1-.46.1.37.37,0,0,1-.12-.07.39.39,0,0,1,0-.56,21.56,21.56,0,0,0,2.39-3.12" transform="translate(0 0)"/><path class="cls-9" d="M17.22,67.31a.4.4,0,0,1-.19-.53q.23-.48.44-1a20.44,20.44,0,0,0,.92-2.69.41.41,0,0,1,.79.2,21.05,21.05,0,0,1-1,2.8q-.21.51-.46,1a.41.41,0,0,1-.52.2Z" transform="translate(0 0)"/><path class="cls-9" d="M19.2,61.26l-.1,0a.4.4,0,0,1-.25-.43,26.73,26.73,0,0,0,.27-3.91.41.41,0,0,1,.81,0,27.28,27.28,0,0,1-.28,4,.4.4,0,0,1-.46.34" transform="translate(0 0)"/><path class="cls-9" d="M21.21,25.75q-.34.71-.65,1.43c-.31.73-.59,1.47-.83,2.22a.41.41,0,0,1-.51.26h0a.4.4,0,0,1-.23-.49c.25-.76.54-1.53.85-2.27q.31-.74.66-1.47a.39.39,0,0,1,.54-.19.39.39,0,0,1,.19.53" transform="translate(0 0)"/><path class="cls-9" d="M19.08,31.67a28.56,28.56,0,0,0-.67,3.87.4.4,0,0,1-.44.36l-.11,0a.39.39,0,0,1-.25-.41,29.2,29.2,0,0,1,.69-4,.41.41,0,0,1,.49-.29.4.4,0,0,1,.3.48" transform="translate(0 0)"/><path class="cls-9" d="M24.51,20.37a32.14,32.14,0,0,0-2.19,3.29.41.41,0,0,1-.51.17l0,0a.39.39,0,0,1-.15-.54,33.18,33.18,0,0,1,2.24-3.37.41.41,0,0,1,.57-.08.39.39,0,0,1,.09.56" transform="translate(0 0)"/><path class="cls-9" d="M30.64,14.19a.41.41,0,0,1-.4.05.4.4,0,0,1-.09-.68,32.16,32.16,0,0,1,3.39-2.27.41.41,0,0,1,.56.14A.39.39,0,0,1,34,12a31.4,31.4,0,0,0-3.31,2.21" transform="translate(0 0)"/><path class="cls-9" d="M18.82,48.58a.41.41,0,0,1-.21,0,.4.4,0,0,1-.25-.32l-.07-.5c-.16-1.15-.31-2.3-.45-3.46a.4.4,0,0,1,.36-.44.41.41,0,0,1,.45.35c.13,1.15.29,2.3.44,3.44l.07.5a.4.4,0,0,1-.35.45" transform="translate(0 0)"/><path class="cls-9" d="M26,18.52a.41.41,0,0,1-.46.11l-.11-.07a.39.39,0,0,1,0-.56,33.35,33.35,0,0,1,2.86-2.89.41.41,0,0,1,.57,0,.39.39,0,0,1,0,.56A32.44,32.44,0,0,0,26,18.52" transform="translate(0 0)"/><path class="cls-9" d="M19,50.16a.4.4,0,0,1,.45.35c.19,1.55.31,2.82.39,4a.4.4,0,0,1-.38.42.41.41,0,0,1-.18,0,.4.4,0,0,1-.25-.34c-.07-1.15-.19-2.4-.38-3.94a.4.4,0,0,1,.35-.44" transform="translate(0 0)"/><path class="cls-9" d="M6.48,77A.41.41,0,0,1,7,77.2a.39.39,0,0,1-.2.53A33.06,33.06,0,0,1,3,79.2a.4.4,0,0,1-.28,0,.4.4,0,0,1,0-.75A32.49,32.49,0,0,0,6.48,77" transform="translate(0 0)"/><path class="cls-9" d="M17.87,37.48a.4.4,0,0,1,.4.41c0,1.21,0,2.5.14,3.94a.41.41,0,0,1-.56.4.4.4,0,0,1-.25-.34c-.12-1.46-.17-2.78-.15-4a.4.4,0,0,1,.41-.39" transform="translate(0 0)"/><path class="cls-9" d="M38.17,9.1q.67-.25,1.35-.47a.41.41,0,0,1,.51.25.4.4,0,0,1-.26.5c-.44.14-.88.3-1.31.46-.81.3-1.61.64-2.39,1a.41.41,0,0,1-.33,0,.4.4,0,0,1,0-.72c.8-.39,1.63-.74,2.46-1" transform="translate(0 0)"/><path class="cls-7" d="M88.91,114.05l-4.66-4.5-2.19-.21a3,3,0,0,0-2.89,1.44,4.84,4.84,0,0,0,0,4.58c2.13,4.44,7.51,8.88,15.76,7.1A15.63,15.63,0,0,1,93,119.17c-.17-.4-.33-.82-.51-1.33a16,16,0,0,1-3.56-3.79m8.27,10.17-1,.24c-9.86,2.48-16.36-2.89-18.92-8.24a7.12,7.12,0,0,1,.1-6.75,4.85,4.85,0,0,1,4.72-2.34l3,.28,5.33,5.15.17.21a13.52,13.52,0,0,0,3.35,3.51l.32.23.12.38c.2.6.36,1.06.55,1.48a13.32,13.32,0,0,0,2.69,4L99,123.8Z" transform="translate(0 0)"/><path class="cls-11" d="M111.86,108.94c.29.45.51.84.72,1.23a15.49,15.49,0,0,1,1.33,3.57c6.68-5.06,6.66-12,4.55-16.41a5,5,0,0,0-3.6-2.92,3,3,0,0,0-3,1.26l-1.25,1.78.54,6.39a15.49,15.49,0,0,1,.69,5.1m.5,8.71-.23-1.94a13.17,13.17,0,0,0-1.41-4.59c-.21-.41-.46-.83-.81-1.36l-.22-.34,0-.39a13.19,13.19,0,0,0-.6-4.77l-.05-.26-.62-7.32,1.68-2.4A4.86,4.86,0,0,1,115,92.22a7.36,7.36,0,0,1,5.35,4.25c2.54,5.36,2.58,13.69-5.68,19.52l-.83.59Z" transform="translate(0 0)"/><path class="cls-7" d="M111.45,125.94c-3.68-16-15.69-10.53-5.5,2.52s6,17.86,6,17.86a19.33,19.33,0,0,0,9.64-4.42s-6.46.09-10.14-16" transform="translate(0 0)"/><path class="cls-7" d="M109.29,89.43v0c-.27-.56-7.33,2.12-15.77,6s-15.07,7.47-14.8,8l0,0c.23.54,10.12,23.56,26.9,25a.82.82,0,0,0,.06.45l.08.17a.89.89,0,0,0,1.17.42l4.6-2.11a.86.86,0,0,0,.43-1.15l-.08-.17a.84.84,0,0,0-.31-.34c9.64-13.56-2.06-35.78-2.32-36.28" transform="translate(0 0)"/><path class="cls-7" d="M111.86,108.94c.29.45.51.84.72,1.23a15.49,15.49,0,0,1,1.33,3.57c6.68-5.06,6.66-12,4.55-16.41a5,5,0,0,0-3.6-2.92,3,3,0,0,0-3,1.26l-1.25,1.78.54,6.39a15.49,15.49,0,0,1,.69,5.1m.5,8.71-.23-1.94a13.17,13.17,0,0,0-1.41-4.59c-.21-.41-.46-.83-.81-1.36l-.22-.34,0-.39a13.19,13.19,0,0,0-.6-4.77l-.05-.26-.62-7.32,1.68-2.4A4.86,4.86,0,0,1,115,92.22a7.36,7.36,0,0,1,5.35,4.25c2.54,5.36,2.58,13.69-5.68,19.52l-.83.59Z" transform="translate(0 0)"/><path class="cls-7" d="M109.29,89.43v0c-.27-.56-7.33,2.12-15.77,6l-.65.3c1.2,1.28,2.36,2.57,3.52,3.85a72.79,72.79,0,0,1,8.27,11.29,142.49,142.49,0,0,1,7.5,14c8.61-13.62-2.62-35-2.88-35.44" transform="translate(0 0)"/></g><polygon class="cls-8" points="106.32 96.5 113.46 91.97 105.23 94.01 100.61 87 102.69 95.08 95.55 99.61 103.78 97.57 108.4 104.57 106.32 96.5"/><g class="cls-2"><path class="cls-4" d="M123.87,142.82,111,148.7a1.34,1.34,0,0,1-1.76-.63,1.29,1.29,0,0,1,.64-1.73l12.83-5.88a1.34,1.34,0,0,1,1.76.63,1.29,1.29,0,0,1-.64,1.73" transform="translate(0 0)"/><path class="cls-7" d="M127.1,144l-17.19,7.89a1.8,1.8,0,0,1-2.36-.84,1.73,1.73,0,0,1,.86-2.32l17.19-7.89a1.8,1.8,0,0,1,2.36.84h0a1.73,1.73,0,0,1-.86,2.31" transform="translate(0 0)"/><path class="cls-7" d="M179.74,146" transform="translate(0 0)"/><path class="cls-7" d="M183.46,147.1" transform="translate(0 0)"/></g></g></g></svg>
