<svg xmlns="http://www.w3.org/2000/svg" viewBox="0 0 152.76 68.45"><defs><style>.cls-1{fill:#d4a453;}</style></defs><title>logo-lala</title><g id="Layer_2" data-name="Layer 2"><g id="Layer_1-2" data-name="Layer 1"><path class="cls-1" d="M74,48.55c-3.1-9.1-9.24-24.54-9.3-24.71-1.85-4.62-5.46-7.41-10.42-6.83-3.94.46-7.91,1.08-7.91,1.08-3.83.62-6.36,2.85-8.79,8.06L25.19,51.57c4.8-2.88,9-6.13,14.92-9.18a6.18,6.18,0,0,0,3.24-3s5.1-12.27,5.6-13.56,1.27-2.54,2.24-2.69c.69-.11,1.49.74,2,2.33.44,1.41,5.33,18.29,5.59,19.66-15.32-4.71-26.26,8.86-38.29,14.44-4.59,2.13-6.3-.45-5.74-3.93s5.41-28,5.41-28a4.23,4.23,0,0,0-.84-3.72A5.69,5.69,0,0,0,14,22.4L6.7,23.59.18,59.34c-1.35,8.1,5.07,11.88,17.79,6.8,13-5.18,36.89-16.78,46.15-4.89C75.74,58.35,75.42,52.85,74,48.55Z"/><path class="cls-1" d="M148,38.53c-3.11-9.1-9.24-24.54-9.3-24.71-1.85-4.62-5.46-7.41-10.42-6.83-3.94.46-7.91,1.08-7.91,1.08-3.83.62-6.36,2.85-8.79,8.06L99.25,41.56c4.8-2.88,9-6.13,14.92-9.18a6.19,6.19,0,0,0,3.24-3s5.1-12.27,5.6-13.56,1.27-2.54,2.24-2.69c.69-.11,1.49.74,2,2.33.44,1.41,5.33,18.29,5.59,19.65-15.32-4.71-26.26,8.86-38.29,14.44-4.59,2.13-6.3-.45-5.74-3.93s5.41-28,5.41-28a4.23,4.23,0,0,0-.84-3.72,5.69,5.69,0,0,0-5.3-1.47l-7.31,1.19L74.24,49.33c-1.35,8.1,5.07,11.88,17.79,6.8,13-5.18,36.89-16.78,46.15-4.89C149.81,48.33,149.48,42.84,148,38.53Z"/><path class="cls-1" d="M151.42,7.8a4.56,4.56,0,0,1-6.47,0,4.44,4.44,0,0,1-1.33-3.24A4.39,4.39,0,0,1,145,1.33a4.58,4.58,0,0,1,6.46,0,4.39,4.39,0,0,1,1.34,3.23A4.43,4.43,0,0,1,151.42,7.8Zm-6-6a3.8,3.8,0,0,0-1.15,2.78,3.85,3.85,0,0,0,1.14,2.8,3.93,3.93,0,0,0,5.57,0,3.84,3.84,0,0,0,1.15-2.8A3.8,3.8,0,0,0,151,1.78a3.92,3.92,0,0,0-5.56,0ZM148.1,2a3.84,3.84,0,0,1,1.37.18,1.25,1.25,0,0,1,.78,1.27,1.1,1.1,0,0,1-.49,1,1.89,1.89,0,0,1-.73.24,1.23,1.23,0,0,1,.86.49,1.38,1.38,0,0,1,.27.78v.37c0,.12,0,.24,0,.37a.84.84,0,0,0,0,.26l0,.06h-.83V7l0-.16v-.4a1.23,1.23,0,0,0-.47-1.15,2.13,2.13,0,0,0-1-.16h-.7v2h-.88V2Zm1,.79A2.32,2.32,0,0,0,148,2.64h-.76V4.46h.8a2.4,2.4,0,0,0,.84-.11.77.77,0,0,0,.52-.78A.77.77,0,0,0,149.05,2.83Z"/></g></g></svg>
