<svg xmlns="http://www.w3.org/2000/svg" viewBox="0 0 283.28 193.71"><defs><style>.cls-1{fill:#e8e8e8;}.cls-2{fill:#e7ceaa;}.cls-3,.cls-6,.cls-8{font-size:11px;}.cls-3{fill:#c49c5c;}.cls-3,.cls-6{font-family:Helvetica-Bold, Helvetica;font-weight:700;}.cls-4{letter-spacing:-0.08em;}.cls-5{letter-spacing:-0.13em;}.cls-7{letter-spacing:-0.05em;}.cls-8{font-family:Helvetica, Helvetica;}.cls-9{letter-spacing:-0.03em;}.cls-10{fill:none;stroke:#a3a2a2;stroke-miterlimit:10;stroke-width:0.5px;}</style></defs><title>resultados</title><g id="Layer_2" data-name="Layer 2"><g id="Layer_1-2" data-name="Layer 1"><rect class="cls-1" y="17.71" width="283.28" height="16.38" rx="8.19" ry="8.19"/><rect class="cls-1" y="60.52" width="283.28" height="16.38" rx="8.19" ry="8.19"/><rect class="cls-2" y="108.87" width="283.28" height="16.38" rx="8.19" ry="8.19"/><text class="cls-3" transform="translate(3.96 9.46)">MXN$ en millones</text><text class="cls-3" transform="translate(136.68 9.77)">2017**</text><text class="cls-3" transform="translate(195.24 9.77)">2018</text><text class="cls-3" transform="translate(245.84 9.46)"><tspan class="cls-4">V</tspan><tspan x="6.48" y="0">a</tspan><tspan class="cls-5" x="12.6" y="0">r</tspan><tspan x="15.43" y="0">. %</tspan></text><text class="cls-6" transform="translate(3.96 29.46)"><tspan class="cls-7">V</tspan><tspan x="6.73" y="0">entas netas</tspan></text><text class="cls-8" transform="translate(135.83 29.77)">62,540</text><text class="cls-8" transform="translate(185.43 29.77)">75,419</text><text class="cls-8" transform="translate(243 29.77)">20.60%</text><text class="cls-6" transform="translate(3.96 50.46)">Utilidad Buta</text><text class="cls-8" transform="translate(135.83 50.27)">23,298</text><text class="cls-8" transform="translate(185.43 50.27)">26,510</text><text class="cls-8" transform="translate(243 50.27)">13.80%</text><text class="cls-6" transform="translate(3.96 73.06)">Utilidad Ope<tspan class="cls-9" x="64.78" y="0">r</tspan><tspan x="68.72" y="0">ativa</tspan></text><text class="cls-8" transform="translate(141.6 73.37)">5,600</text><text class="cls-8" transform="translate(191.2 73.37)">5,411</text><text class="cls-8" transform="translate(244.61 73.37)">-3.40%</text><text class="cls-8" transform="translate(244.61 96.61)">-3.40%</text><text class="cls-6" transform="translate(3.96 96.76)">EBITDA*</text><text class="cls-8" transform="translate(141.6 97.07)">7,479</text><text class="cls-8" transform="translate(191.2 97.07)">7,781</text><text class="cls-6" transform="translate(3.96 121.46)">Utilidad Neta</text><text class="cls-8" transform="translate(141.6 121.26)">2,965</text><text class="cls-8" transform="translate(191.2 121.26)">1,994</text><text class="cls-8" transform="translate(238.96 121.26)">-32.80%</text><text class="cls-8" transform="translate(18.97 145.93)">*EBITDA es definido como utilidad operativa antes<tspan x="0" y="13.2" xml:space="preserve">  de depreciación y amortización</tspan></text><text class="cls-8" transform="translate(18.97 175.22)">**Incluye cambios por asignación del precio<tspan x="0" y="13.2" xml:space="preserve">   de compra de Vigor.</tspan></text><line class="cls-10" x1="115.81" y1="2.65" x2="115.81" y2="126.12"/><line class="cls-10" x1="177.89" y1="2.65" x2="177.89" y2="126.12"/><line class="cls-10" x1="229.5" y1="2.65" x2="229.5" y2="126.12"/></g></g></svg>
