<svg xmlns="http://www.w3.org/2000/svg" viewBox="0 0 241.25 217.95"><defs><style>.cls-1,.cls-2{font-size:11px;}.cls-1,.cls-3{font-family:Helvetica, Helvetica;}.cls-2{font-family:Helvetica-Bold, Helvetica;font-weight:700;}.cls-3{font-size:9px;}.cls-4{font-size:6px;}.cls-5{fill:none;stroke:#a3a2a2;stroke-miterlimit:10;stroke-width:0.75px;}.cls-6{fill:#c49c5c;}.cls-7{fill:#7e7565;}</style></defs><title>valor</title><g id="Layer_2" data-name="Layer 2"><g id="Layer_1-2" data-name="Layer 1"><text class="cls-1" transform="translate(14.04 18.14)">63,572</text><text class="cls-1" transform="translate(137.47 43.86)">50,441</text><text class="cls-1" transform="translate(73.35 9.45)">76,818</text><text class="cls-1" transform="translate(13.76 180.55)">2017</text><text class="cls-2" transform="translate(77.21 180.55)">2018</text><text class="cls-2" transform="translate(200.91 180.55)">2018</text><text class="cls-1" transform="translate(139.84 180.55)">2017</text><text class="cls-3" transform="translate(26.07 202.82)">Valor económico<tspan x="12.83" y="10.8">generado</tspan><tspan class="cls-4" x="50.87" y="7.8">2</tspan></text><text class="cls-3" transform="translate(150.37 202.82)">Valor económico<tspan x="11.34" y="10.8">distribuido</tspan><tspan class="cls-4" x="52.36" y="7.8">3</tspan></text><text class="cls-1" transform="translate(196.99 39.93)">62,856</text><line class="cls-5" x1="241.25" y1="165.31" y2="165.31"/><rect class="cls-6" x="6.44" y="49.8" width="47.18" height="115.24"/><rect class="cls-7" x="65.85" y="41.19" width="47.18" height="123.85"/><circle class="cls-6" cx="30.04" cy="48.89" r="23.65"/><path class="cls-7" d="M65.8,42.45a23.65,23.65,0,1,1,47.3,0"/><rect class="cls-6" x="129.12" y="74.54" width="47.18" height="90.5"/><rect class="cls-7" x="188.53" y="67.08" width="47.18" height="97.96"/><circle class="cls-6" cx="152.72" cy="77.49" r="23.65"/><path class="cls-7" d="M188.48,69.59a23.65,23.65,0,0,1,47.3,0"/></g></g></svg>
