<svg xmlns="http://www.w3.org/2000/svg" viewBox="0 0 269.91 103.61"><defs><style>.cls-1{fill:#e8e8e8;}.cls-2{fill:#e7ceaa;}.cls-3,.cls-4,.cls-5{font-size:11px;}.cls-3{fill:#c49c5c;}.cls-3,.cls-4{font-family:Helvetica-Bold, Helvetica;font-weight:700;}.cls-5{font-family:Helvetica, Helvetica;}.cls-6{fill:none;stroke:#a3a2a2;stroke-miterlimit:10;stroke-width:0.5px;}</style></defs><title>ventas-millones</title><g id="Layer_2" data-name="Layer 2"><g id="Layer_1-2" data-name="Layer 1"><rect class="cls-1" y="19.11" width="269.91" height="16.38" rx="8.19" ry="8.19"/><rect class="cls-1" y="64.43" width="269.91" height="16.38" rx="8.19" ry="8.19"/><rect class="cls-2" y="86.08" width="269.91" height="16.38" rx="8.19" ry="8.19"/><text class="cls-3" transform="translate(6.71 9.6)">Segmento</text><text class="cls-3" transform="translate(139.02 9.6)">2017</text><text class="cls-3" transform="translate(189.32 9.6)">2018</text><text class="cls-3" transform="translate(232.28 9.6)">Var. %</text><text class="cls-4" transform="translate(6.71 30.6)">Leche</text><text class="cls-5" transform="translate(129.85 30.41)">36,949</text><text class="cls-5" transform="translate(180.15 30.41)">39,050</text><text class="cls-5" transform="translate(234.1 30.41)">5.70%</text><text class="cls-4" transform="translate(6.71 53.55)">Derivados lácteos</text><text class="cls-5" transform="translate(129.85 53.86)">22,168</text><text class="cls-5" transform="translate(180.15 53.86)">32,466</text><text class="cls-5" transform="translate(227.98 53.86)">46.50%</text><text class="cls-4" transform="translate(6.71 76)">Bebidas y otros</text><text class="cls-5" transform="translate(135.96 76.31)">3,423</text><text class="cls-5" transform="translate(186.26 76.31)">3,904</text><text class="cls-5" transform="translate(227.98 76.31)">14.00%</text><text class="cls-4" transform="translate(6.71 98.02)">Volumen total</text><text class="cls-5" transform="translate(129.85 98.32)">62,540</text><text class="cls-5" transform="translate(180.15 98.32)">75,419</text><text class="cls-5" transform="translate(227.98 98.32)">20.60%</text><line class="cls-6" x1="119.96" x2="119.96" y2="99.75"/><line class="cls-6" x1="222.19" x2="222.19" y2="99.75"/><line class="cls-6" x1="173.84" x2="173.84" y2="99.75"/></g></g></svg>
