<svg xmlns="http://www.w3.org/2000/svg" viewBox="0 0 56.62 44.04"><defs><style>.cls-1{fill:#ba9a6a;}</style></defs><title>birrete</title><g id="Layer_2" data-name="Layer 2"><g id="_ÎÓÈ_1" data-name="—ÎÓÈ_1"><path class="cls-1" d="M28.42,23.47l-1-.37-16-5.62,1.23,14c0,2.78,7,5,15.73,5S44,34.24,44,31.46l1.23-13.94L29.46,23.1Z"/><path class="cls-1" d="M54.09,37.75A3.45,3.45,0,0,0,53,35.55a3.45,3.45,0,0,0-.8-5.6V11.72l4.4-1.56L28.41,0,0,10.17l28.41,10,20.66-7.3V29.95a3.45,3.45,0,0,0-.8,5.6,3.45,3.45,0,0,0-1.07,2.2h0L46.56,44h8.18l-.63-6.29Z"/></g></g></svg>
