<svg xmlns="http://www.w3.org/2000/svg" viewBox="0 0 131.22 83.28"><defs><style>.cls-1{fill:#ba9a6a;}</style></defs><title>people</title><g id="Layer_2" data-name="Layer 2"><g id="_ÎÓÈ_1" data-name="—ÎÓÈ_1"><path class="cls-1" d="M128.63,16.16a13.71,13.71,0,0,0-6.39-4.42s-.49-1.6.43-2.4,3.38-5.26-2.83-7.73c0,0-8.11-.94-5,5.82,0,0,.86,1.91-.24,2.46s-4.73,1-7.93,4.85-2.7,5.35-2.7,5.35-2.83-4.67-8.23-4.67l-.31-1.54s2.77.8,3.2-2.4-1.66-2.4-1.66-2.4,2.15-5.47-4.85-5.47a4.69,4.69,0,0,0-3.87,5.65c.8,4.92,2,4.85,2,4.85l.31,1.23s-2.09-.06-2.52.31c0,0-1.78-3.07-6.76-4.49,0,0,4.73-8-3.32-10.26,0,0-5.28-.06-5.35,3.13a21.15,21.15,0,0,0,1.66,7.19s-4.67,1.11-5.78,3.2a6.47,6.47,0,0,0-.86,3.69l-2-.25s3.06-4.12,1.4-8.17S61.23,5.1,58.1,6.76c0,0-5.47,2.27-3.81,6.51a13.55,13.55,0,0,0,1.14,2.89s-2.18.12-2.67.8c0,0-2.27-5.84-8.17-7,0,0,5.78-8.54-3.56-10,0,0-5.65.68-5.53,3.81A16.05,16.05,0,0,0,36.59,9l.12,1.11a5.71,5.71,0,0,0-5.28,1.66l-.61,2.52a8.42,8.42,0,0,0-6.45-2.52S25,8,25,7.5s.92-.8.92-.8-1.35-6.15-7.71-5a4.18,4.18,0,0,0-3.58.94C13.32,4,13.52,7.55,13.52,8.53s1.85,1.66,2.4,1.54,1.06.74,1.06.74l.25.43s-5.35.37-6.64,2.58-2.46,8-3.07,9S.58,35,.58,35s.43,1.6,1,1.84c0,0-1,1.53-1.41,2s-.18,2.64,0,3,1,0,1,0a2.5,2.5,0,0,1,.55-2.27c.92-.86.49-.43.49-.43l.18,1.11.55.43a6.35,6.35,0,0,1,.24-1.78A2.9,2.9,0,0,0,3.4,37.6l1.42.56S9.37,30,9.8,29s2.15-6.58,2.77-6.45.37,1.54.37,1.54.31,5-1.72,7.87A34.11,34.11,0,0,0,7,41.42s1,1.34,5.41,2.93l.12,6.49h-.43a5.88,5.88,0,0,0-.77,3.89l.33.63V67l.25,2.52S10.41,71,10.47,71.83a5.39,5.39,0,0,0,1.88,2.83c.74.55,3.64.86,4,.49a14,14,0,0,0,.56-4.85l-.8-.67s1.07-11.31,1.37-13.21l1.07-.74V51.56l-.48-.25s1.2-5.78,1.51-6,.54.43.54.43-.53,11.18,0,12a17.79,17.79,0,0,0,1.06,1.47l.43-.19,1.48,11.31s.13,5.41-.3,6-.4,1,.32,1.35,4.66.37,4.84,0a5,5,0,0,0,.49-2.7c-.25-.86-.74-5.35-2.46-5.59,0,0,1.11-10.14,1.23-10.57l.92-.43s-.43-3.13-.55-3.44.49-9.16.49-9.16l2.83-1a16.47,16.47,0,0,1-1.23-4.24c0-1.35-.37-9.4-3.19-13.46l.09-2.46,2.49-1.57s2.86,3.5,5.44,4.06c0,0-2.12,11.34-1.93,14.47s1.93,11.25,1.93,11.25,1.2,1.84,1.1,2.67a10.6,10.6,0,0,0,3.14,8.85A60.09,60.09,0,0,1,36.28,70c-.55.74-2.86,4.15-2,5.53,0,0,.46.83,3.23.92a1.83,1.83,0,0,0,.46,2.49c1.38,1.2,5.22.72,5.22.72s.31-2.47,1.88-3.29,2.58-1.47,2-2.76a14.51,14.51,0,0,0-1.75-2.77s-2.4-4.06-2.21-7.56.83-8.48.92-11.8l3.69-.83s4.06-.28,4.15-1.75-.28-12.63-3.23-19.82c0,0,3.59-1,4-1.57,0,0,1.57,6.18.46,10a13.89,13.89,0,0,0-1,6.17c.28,3.32,3.38,16.32,3.38,16.32l.95-.09S57.85,69.07,59,70.91a4.3,4.3,0,0,1-1.29,2.49,3.19,3.19,0,0,0-.92,2.67s.18,1.38.18,1.84.46,2.95,4.33,2.86c0,0,2.76-3.32,3.13-3.78a3.55,3.55,0,0,0,0-2.58c-.27-.27-1.1-1.38-1.1-1.38a3.71,3.71,0,0,1-.64-2.58c.09-1.75,1.1-5.16,1.2-11.43,0,0,5.53-2.12,8.48-3.69,0,0,1.66,8.3,1.75,9.13s1.84.64,1.84.64,3,8,3.41,9.77a5.48,5.48,0,0,1,0,2.77s-2.77.09-2.77,1.75S79.51,83,84.4,81.88c0,0,1.93-.92,1.2-4.33s-2.21-13-1.2-14.84l1.85.37.83-3.41,1.11-.18s-.37,8.21,3.5,13.83l.7,3.08a2.1,2.1,0,0,0-2.54.05c-1.29,1-2,5.25,4.24,5.07,0,0,2.95,0,3.23-.92s-.65-2.12-.65-2.12l-.09-.64s1.61-.09,2.05-.18.62-2.21.62-2.21l-.83-2.95a4.54,4.54,0,0,1-.64-2.86c.18-1.66,1.66-5.44-.27-11.61a4.22,4.22,0,0,1,0-4.06c1.19-2,2.3-5.07,3.87-7.74,0,0,.18.74,1.57,1,0,0-.92-3.69,0-3.5a1,1,0,0,0,.71,1,6.06,6.06,0,0,1,0-2.06,29.59,29.59,0,0,0,0-4.15l2.52-5.1S104.55,42.34,105,43l1.17.13s-1.77,14.32,1,18.37S112,71.65,112,72.94V83.26s4.72.37,5.64-2,.52-2.58,1.63-4.05a17,17,0,0,1,3.21-2.95s-3.1-3.32-2.91-7.19,2.23-17.14,4.81-20.28,1.09-7.19,1.09-7.19l1.65-.37v8.3s-.81,3.5.66,4.79,1.9-1.29,1.9-1.29-1-3.5-.06-4.24a4.54,4.54,0,0,0,1.26-2.21S132.5,27.22,128.63,16.16ZM70.88,39.26l-.25,1.29-3.1-8.46,3.6-3.24h.74l.8.84Zm32.94-9.77c-.62.49-2.33,5.13-2.33,5.13l-.56-.28S99.45,31.52,99.57,30a26.58,26.58,0,0,1,1-4.36s.37-1.17.8-.8,2.4,2.89,2.4,2.89S104.43,29,103.81,29.5Z"/></g></g></svg>
