<svg xmlns="http://www.w3.org/2000/svg" viewBox="0 0 510.3 510.3"><defs><style>.cls-1{fill:#e2e2e1;}.cls-2{fill:#878787;}</style></defs><title>circulo-exterior</title><g id="Layer_2" data-name="Layer 2"><g id="Capa_1" data-name="Capa 1"><path class="cls-1" d="M255.15,0C114.23,0,0,114.23,0,255.15S114.23,510.3,255.15,510.3,510.3,396.07,510.3,255.15,396.07,0,255.15,0Zm0,493C123.79,493,17.3,386.51,17.3,255.15S123.79,17.3,255.15,17.3,493,123.79,493,255.15,386.51,493,255.15,493Z"/><path class="cls-2" d="M70.53,414.38h-1a2.36,2.36,0,0,0-.56-1.59c-.41-.48-.92-.65-1.34-.29s-.38.68.1,1.81.66,2.17-.35,3-2.28.64-3.37-.64a3.5,3.5,0,0,1-.9-2.56l1,0a2.68,2.68,0,0,0,.63,1.84c.49.57,1.11.75,1.64.31s.46-.78,0-1.83c-.6-1.42-.57-2.29.25-3s2.13-.49,3,.57A3.17,3.17,0,0,1,70.53,414.38Z"/><path class="cls-2" d="M74.55,424.86l-2.29-2.48c-.75.81-.66,1.44-.17,2a2.23,2.23,0,0,0,1.26.66l-.18.9a3.1,3.1,0,0,1-1.88-1c-1.13-1.23-.92-2.64.33-3.79s2.7-1.32,3.74-.2.86,2.43-.39,3.58C74.83,424.64,74.66,424.77,74.55,424.86Zm-.19-1.54c.65-.6.83-1.19.33-1.73s-1-.46-1.81.21l1.43,1.56Z"/><path class="cls-2" d="M83.31,429.3l-1.05.73a1.79,1.79,0,0,0-.29-.38c-.46-.46-1-.36-1.82.13l-2,2-.92-.92,3.81-3.8.8.8-.66.83a1.51,1.51,0,0,1,1.84.15A1.86,1.86,0,0,1,83.31,429.3Z"/><path class="cls-2" d="M90,441.35l4.17-4.73,1.07.75L91,442.19c-.17.19-.18.34,0,.48a.92.92,0,0,0,.26.16l-.4.87a2.13,2.13,0,0,1-.77-.43A1.24,1.24,0,0,1,90,441.35Z"/><path class="cls-2" d="M99.14,449.72l-.76.5a1.24,1.24,0,0,1-.43-1.36,1.83,1.83,0,0,1-1.75-.4,1.6,1.6,0,0,1-.3-2.38c.74-.91,1.82-.83,3,.16l.52.42.19-.24c.44-.54.35-.92-.19-1.36a4.8,4.8,0,0,0-1.28-.68l.32-.88a5.56,5.56,0,0,1,1.76.94c1.11.91,1.18,1.82.43,2.74l-1.43,1.75C99,449.26,99,449.47,99.14,449.72Zm-.85-1.63.69-.84-.42-.34c-.65-.53-1.17-.56-1.57-.07a.71.71,0,0,0,.08,1.11A1.15,1.15,0,0,0,98.29,448.09Z"/><path class="cls-2" d="M114.55,459.26l-2.76-1.95c-.56,1-.34,1.54.24,2a2.23,2.23,0,0,0,1.37.38v.92a3.09,3.09,0,0,1-2-.56c-1.36-1-1.46-2.38-.48-3.77s2.37-1.86,3.61-1,1.35,2.2.37,3.59C114.78,459,114.64,459.15,114.55,459.26ZM114,457.8c.51-.72.56-1.34,0-1.76s-1-.24-1.72.59l1.73,1.22Z"/><path class="cls-2" d="M126.48,465.13l-2.09,3.29-1.1-.7,2-3.12c.36-.57.24-.87,0-1s-.78-.12-1.29.14l-2,3.16-1.1-.7,2-3.12c.36-.57.23-.88,0-1s-.79-.13-1.3.14l-2,3.16-1.1-.7,2.88-4.54,1,.6-.29.65a1.83,1.83,0,0,1,1.77.11,1.31,1.31,0,0,1,.61,1.46,1.92,1.92,0,0,1,1.85.1A1.44,1.44,0,0,1,126.48,465.13Z"/><path class="cls-2" d="M135.49,471.75c-.81,1.43-2.07,2.11-3.26,1.44a1.7,1.7,0,0,1-.89-1.18l-1.24,2.19-1.2-.52,3.75-6.61,1,.56-.26.61a2,2,0,0,1,1.77.07C136.37,469,136.34,470.26,135.49,471.75Zm-1.19-.66c.67-1.19.6-1.8,0-2.12a1.35,1.35,0,0,0-1.32.09l-1.19,2.11a1.14,1.14,0,0,0,.58,1C133,472.5,133.66,472.22,134.3,471.09Z"/><path class="cls-2" d="M145,473.69l-.78,1a1.82,1.82,0,0,0-.4-.27c-.58-.3-1.1,0-1.69.69l-1.31,2.55-1.16-.6,2.46-4.79,1,.52-.38,1a1.51,1.51,0,0,1,1.8-.42A1.86,1.86,0,0,1,145,473.69Z"/><path class="cls-2" d="M152.46,480.76l-3.06-1.43c-.38,1-.06,1.58.58,1.88a2.23,2.23,0,0,0,1.42.14l.17.9a3.09,3.09,0,0,1-2.11-.19c-1.51-.71-1.85-2.09-1.13-3.63s2-2.24,3.38-1.6,1.72,1.92,1,3.46C152.63,480.45,152.53,480.64,152.46,480.76Zm-.76-1.35c.37-.8.31-1.42-.35-1.72s-1.08-.05-1.59.88l1.92.89Z"/><path class="cls-2" d="M162.38,482.22l-.76.51a2.45,2.45,0,0,0-1.08-.93c-.48-.2-.83-.12-1,.18s0,.56.74,1.15c.9.7,1.3,1.35.93,2.23s-1.62,1.18-2.75.7a3.15,3.15,0,0,1-1.69-1.53l.88-.42a2.43,2.43,0,0,0,1.15,1.05c.54.22,1,.14,1.13-.23s0-.63-.79-1.28-1.15-1.38-.85-2.12,1.36-1.13,2.52-.65A3,3,0,0,1,162.38,482.22Z"/><path class="cls-2" d="M170.58,489.83l-.56.72a1.25,1.25,0,0,1-.84-1.15,1.83,1.83,0,0,1-1.79.19,1.6,1.6,0,0,1-1.05-2.16c.41-1.1,1.46-1.38,2.92-.83l.63.23.11-.29c.24-.66,0-1-.62-1.23a4.78,4.78,0,0,0-1.43-.23l0-.94a5.58,5.58,0,0,1,2,.32c1.34.5,1.71,1.34,1.29,2.45l-.79,2.12C170.28,489.45,170.36,489.64,170.58,489.83Zm-1.33-1.26.38-1-.51-.19c-.79-.29-1.29-.15-1.51.44a.71.71,0,0,0,.43,1A1.15,1.15,0,0,0,169.25,488.56Z"/><path class="cls-2" d="M188.73,493.55c-.46,1.58-1.53,2.53-2.83,2.15a1.7,1.7,0,0,1-1.13-.94l-.7,2.41-1.29-.22,2.11-7.29L186,490l-.12.66a2,2,0,0,1,1.74-.34C188.95,490.67,189.21,491.9,188.73,493.55Zm-1.31-.37c.38-1.31.17-1.89-.46-2.07a1.35,1.35,0,0,0-1.26.4l-.67,2.32a1.14,1.14,0,0,0,.79.81C186.5,494.84,187.06,494.43,187.42,493.18Z"/><path class="cls-2" d="M198.47,493.22l-.52,1.17a1.79,1.79,0,0,0-.45-.17c-.63-.16-1.07.23-1.48,1.06l-.68,2.78-1.26-.31,1.28-5.22,1.1.27-.13,1.06A1.51,1.51,0,0,1,198,493,1.89,1.89,0,0,1,198.47,493.22Z"/><path class="cls-2" d="M207.32,498.37l-3.31-.68c-.13,1.09.31,1.55,1,1.69a2.24,2.24,0,0,0,1.41-.2l.38.84a3.1,3.1,0,0,1-2.1.31c-1.63-.34-2.29-1.6-1.95-3.27s1.43-2.65,2.92-2.34,2.12,1.47,1.78,3.14C207.42,498,207.36,498.23,207.32,498.37Zm-1.05-1.14c.18-.87,0-1.45-.74-1.6s-1.06.2-1.34,1.23l2.07.42Z"/><path class="cls-2" d="M215.38,496.08l-.09.56,1.27.21-.29.9-1.13-.19-.73,4.39-1.29-.21.73-4.39-.86-.14.15-.92.86.14.1-.58a1.68,1.68,0,0,1,2.15-1.38,3.2,3.2,0,0,1,1.32.54l-.51.8a2.08,2.08,0,0,0-.84-.34C215.69,495.38,215.46,495.58,215.38,496.08Z"/><path class="cls-2" d="M226,501.28l-3.35-.43c0,1.1.42,1.52,1.13,1.61a2.24,2.24,0,0,0,1.39-.3l.44.8a3.09,3.09,0,0,1-2.07.46c-1.65-.21-2.4-1.42-2.19-3.11s1.22-2.75,2.73-2.55,2.22,1.31,2,3C226,500.93,226,501.14,226,501.28Zm-1.14-1.06c.11-.88-.13-1.44-.86-1.53s-1,.28-1.25,1.33l2.1.27Z"/><path class="cls-2" d="M235.52,499l-.33,1.24a1.8,1.8,0,0,0-.47-.1c-.65-.06-1,.39-1.31,1.27l-.25,2.86-1.3-.11.47-5.36,1.12.1,0,1.06a1.51,1.51,0,0,1,1.5-1.07A1.87,1.87,0,0,1,235.52,499Z"/><path class="cls-2" d="M242.18,504.93l-1.3-.07.29-5.38,1.3.07Zm.56-7.3a.82.82,0,1,1-.78-.84A.78.78,0,0,1,242.74,497.63Z"/><path class="cls-2" d="M253.4,497.73l-.12,7.53-1.15,0-.08-.68a1.8,1.8,0,0,1-1.55.81c-1.34,0-2-1.16-2-2.87s.88-2.83,2.21-2.81a1.87,1.87,0,0,1,1.34.6l0-2.72Zm-1.4,6,0-2.46a1.29,1.29,0,0,0-1-.59c-.67,0-1.13.55-1.15,1.84s.37,1.87,1,1.88A1.27,1.27,0,0,0,252,503.72Z"/><path class="cls-2" d="M264.43,504.37l-.25.87a1.24,1.24,0,0,1-1.21-.75,1.83,1.83,0,0,1-1.58.85,1.6,1.6,0,0,1-1.78-1.61c0-1.17.84-1.82,2.4-1.87l.67,0v-.3c0-.7-.34-.93-1-.91a4.8,4.8,0,0,0-1.42.32l-.33-.88a5.54,5.54,0,0,1,1.94-.44c1.43,0,2.08.61,2.11,1.79l.06,2.26C264,504.12,264.16,504.27,264.43,504.37Zm-1.71-.68,0-1.09h-.54c-.84,0-1.25.34-1.23,1a.71.71,0,0,0,.78.79A1.15,1.15,0,0,0,262.72,503.69Z"/><path class="cls-2" d="M281.92,496.27l.76,7.5-1.14.12-.16-.67a1.8,1.8,0,0,1-1.44,1c-1.33.13-2.15-.92-2.32-2.62s.54-2.92,1.87-3.05a1.87,1.87,0,0,1,1.4.44l-.27-2.71Zm-.69,6.11-.25-2.45a1.29,1.29,0,0,0-1.08-.46c-.67.07-1.06.68-.93,2s.58,1.81,1.22,1.75A1.27,1.27,0,0,0,281.23,502.38Z"/><path class="cls-2" d="M293.23,500.07l-3.34.48c.25,1.08.81,1.35,1.52,1.25a2.24,2.24,0,0,0,1.26-.66l.64.66a3.1,3.1,0,0,1-1.87,1c-1.65.24-2.7-.73-2.94-2.41s.45-3,2-3.19,2.49.67,2.73,2.35C293.21,499.72,293.22,499.93,293.23,500.07Zm-1.38-.72c-.13-.88-.51-1.36-1.24-1.25s-.93.54-.85,1.61l2.09-.3Z"/><path class="cls-2" d="M306.81,498.66l-1.32-6.17,1.24-.41,1.35,6.27c.05.25.17.35.38.3a.91.91,0,0,0,.29-.11l.46.84a2.13,2.13,0,0,1-.81.36A1.24,1.24,0,0,1,306.81,498.66Z"/><path class="cls-2" d="M318.95,496.3l-.05.91a1.24,1.24,0,0,1-1.35-.47,1.83,1.83,0,0,1-1.36,1.17,1.6,1.6,0,0,1-2.09-1.18c-.29-1.13.41-2,1.93-2.35l.65-.17-.07-.3c-.17-.68-.54-.83-1.21-.66a4.81,4.81,0,0,0-1.31.63l-.51-.78a5.57,5.57,0,0,1,1.8-.85c1.39-.35,2.16.13,2.46,1.29l.56,2.19C318.49,496.15,318.67,496.27,318.95,496.3Zm-4.75-4.65-.52-.55,1.76-1.76.76.86Zm2.93,4.37-.27-1.05-.52.13c-.82.21-1.15.61-1,1.22a.71.71,0,0,0,.94.6A1.15,1.15,0,0,0,317.13,496Z"/><path class="cls-2" d="M327.45,489.54l-.33.92a1.72,1.72,0,0,0-1.15-.06c-.72.21-1,.87-.64,2.11s1,1.55,1.66,1.34a1.87,1.87,0,0,0,.93-.68l.79.62a2.65,2.65,0,0,1-1.49,1.09,2.48,2.48,0,0,1-3.22-2c-.49-1.65.1-3,1.58-3.48A2.51,2.51,0,0,1,327.45,489.54Z"/><path class="cls-2" d="M337.36,491.17a2.35,2.35,0,0,1-1.15.82,1.52,1.52,0,0,1-2.1-1.15l-.91-2.69-.8.27-.3-.89.8-.27-.38-1.13,1.18-.56.43,1.27,1.18-.4.18.93-1.06.36.9,2.66c.17.5.4.65.78.52a1.28,1.28,0,0,0,.54-.39Z"/><path class="cls-2" d="M346,485.82,342.81,487c.48,1,1.09,1.14,1.75.88a2.23,2.23,0,0,0,1.08-.93l.77.5a3.1,3.1,0,0,1-1.6,1.39c-1.56.6-2.79-.12-3.39-1.71s-.22-3,1.2-3.54,2.57.1,3.18,1.69C345.87,485.47,345.92,485.68,346,485.82Zm-1.5-.39c-.32-.83-.8-1.21-1.48-.95s-.78.74-.47,1.76l2-.75Z"/><path class="cls-2" d="M355.81,481.24c.68,1.56.26,3-1.19,3.62s-2.75,0-3.46-1.61-.26-3,1.21-3.62S355.11,479.63,355.81,481.24Zm-3.39,1.47c.51,1.19,1.1,1.55,1.8,1.25s.83-1,.32-2.17-1.1-1.54-1.79-1.24S351.92,481.54,352.42,482.71Z"/><path class="cls-2" d="M363.66,475.13l-.12.91a2.45,2.45,0,0,0-1.41.19c-.47.23-.64.55-.5.84s.42.37,1.35.2c1.12-.21,1.87-.08,2.29.78s-.19,2-1.3,2.53a3.15,3.15,0,0,1-2.26.25l.27-.94a2.44,2.44,0,0,0,1.55-.16c.52-.25.75-.64.58-1s-.45-.44-1.48-.26-1.8-.06-2.15-.77.06-1.77,1.19-2.31A3,3,0,0,1,363.66,475.13Z"/><path class="cls-2" d="M380.65,468.91l-2.93,1.68c.63.91,1.25,1,1.87.6a2.24,2.24,0,0,0,.93-1.08l.84.38A3.09,3.09,0,0,1,380,472.1c-1.45.83-2.77.32-3.62-1.16s-.68-2.93.64-3.69,2.56-.3,3.41,1.17C380.49,468.58,380.58,468.78,380.65,468.91Zm-1.54-.16c-.44-.77-1-1.07-1.61-.7s-.66.85-.19,1.81l1.83-1.05Z"/><path class="cls-2" d="M388.73,462l2.09,3.29-1.1.7-2-3.12c-.36-.57-.68-.59-1-.38a1.39,1.39,0,0,0-.52,1.29l2,3.16-1.1.7-2.88-4.54,1-.6.46.54a2,2,0,0,1,.93-1.6A1.45,1.45,0,0,1,388.73,462Z"/><path class="cls-2" d="M404.14,454l-1.87,1.39.62,1.57-1.12.83-2.44-6.95,1.33-1,5.94,4.34-1.14.85Zm-.83-.65-2.72-2.16,1.29,3.23Z"/><path class="cls-2" d="M414.18,443.16l2.47,3-1,.83-2.34-2.85c-.43-.52-.75-.5-1-.29s-.36.7-.27,1.27l2.38,2.89-1,.83L411.06,446c-.43-.52-.76-.49-1-.29s-.37.71-.28,1.28l2.38,2.89-1,.83-3.42-4.16.87-.72.52.48a1.82,1.82,0,0,1,.66-1.65,1.31,1.31,0,0,1,1.58-.13,1.92,1.92,0,0,1,.67-1.73A1.44,1.44,0,0,1,414.18,443.16Z"/><path class="cls-2" d="M418,436.41l-.72-.24.73-2.38,1.08.4Zm5.22.83-2.5,2.27c.81.75,1.43.67,2,.19a2.24,2.24,0,0,0,.67-1.26l.9.19a3.09,3.09,0,0,1-1,1.88c-1.24,1.12-2.64.9-3.79-.36s-1.29-2.71-.16-3.74,2.44-.84,3.58.42C423,437,423.17,437.13,423.26,437.24Zm-1.54.18c-.59-.66-1.18-.84-1.73-.34s-.46,1,.2,1.81l1.57-1.42Z"/><path class="cls-2" d="M427.78,428.52l.72,1.06a1.8,1.8,0,0,0-.38.29c-.46.46-.37,1,.12,1.82l2,2-.93.91-3.77-3.84.81-.79.83.67a1.52,1.52,0,0,1,.16-1.84A1.85,1.85,0,0,1,427.78,428.52Z"/><path class="cls-2" d="M431.4,422.14a.82.82,0,1,1-1.14,0A.78.78,0,0,1,431.4,422.14Zm5.18,5.16-.9.94-3.89-3.71.9-.94Z"/><path class="cls-2" d="M440,416.27l.2,1a1.72,1.72,0,0,0-1,.56c-.5.56-.39,1.27.57,2.13s1.63.81,2.12.26a1.87,1.87,0,0,0,.43-1.07l1,.11a2.65,2.65,0,0,1-.69,1.71,2.48,2.48,0,0,1-3.77,0c-1.29-1.14-1.52-2.64-.49-3.8A2.51,2.51,0,0,1,440,416.27Z"/><path class="cls-2" d="M449.67,411.22l.5.76a1.24,1.24,0,0,1-1.36.42,1.83,1.83,0,0,1-.4,1.75,1.6,1.6,0,0,1-2.38.3c-.91-.74-.83-1.83.16-3l.42-.52-.24-.19c-.54-.44-.92-.35-1.36.19a4.82,4.82,0,0,0-.68,1.28l-.88-.32a5.57,5.57,0,0,1,.94-1.76c.91-1.11,1.82-1.18,2.74-.43l1.75,1.43C449.22,411.37,449.42,411.36,449.67,411.22Zm-1.63.85-.84-.69-.34.42c-.53.65-.56,1.17-.07,1.57a.71.71,0,0,0,1.11-.08A1.15,1.15,0,0,0,448,412.07Z"/></g></g></svg>
