<svg xmlns="http://www.w3.org/2000/svg" viewBox="0 0 425.48 442"><defs><style>.cls-1{fill:#7e7565;}.cls-2{font-size:10.17px;}.cls-2,.cls-3,.cls-4,.cls-5,.cls-6,.cls-7{fill:#fff;font-family:FiraSans-Book, Fira Sans;}.cls-3{font-size:10.17px;}.cls-4{font-size:10.17px;}.cls-5{font-size:10.17px;}.cls-6{font-size:10.17px;}.cls-7{font-size:10.17px;}</style></defs><title>consumidores-inversionistas</title><g id="Layer_2" data-name="Layer 2"><g id="Capa_1" data-name="Capa 1"><g id="circulo-general"><path class="cls-1" d="M27.62,215.8A186.56,186.56,0,0,1,65.38,103L47.33,88.62A210.84,210.84,0,0,0,8.69,257.47l22.5-5.17A188.28,188.28,0,0,1,27.62,215.8Z"/><path class="cls-1" d="M421.33,257.54A210.84,210.84,0,0,0,382.49,88.35l-18.05,14.36a187.69,187.69,0,0,1,34.39,149.66Z"/><path class="cls-1" d="M219.86,28.47A187,187,0,0,1,358.08,94.78l18.06-14.37a210,210,0,0,0-156.28-75Z"/><path class="cls-1" d="M291.63,386.87a187.88,187.88,0,0,1-153.6-.16l-10,20.8a211,211,0,0,0,173.59.17Z"/><path class="cls-1" d="M71.73,95a187,187,0,0,1,138-66.55V5.41a210,210,0,0,0-156,75.26Z"/><path class="cls-1" d="M396.6,262.3a187.8,187.8,0,0,1-95.81,120.16l10,20.8a210.91,210.91,0,0,0,108.29-135.8Z"/><path class="cls-1" d="M128.88,382.27a187.8,187.8,0,0,1-95.47-120l-22.48,5.17A210.91,210.91,0,0,0,118.88,403.07Z"/><text class="cls-2" transform="translate(352.09 364.43) rotate(-43.4)">A</text><text class="cls-2" transform="translate(356.64 360.12) rotate(-45.19)">u</text><text class="cls-2" transform="matrix(0.69, -0.73, 0.73, 0.69, 361.12, 355.58)">t</text><text class="cls-2" transform="matrix(0.67, -0.74, 0.74, 0.67, 363.84, 352.71)">o</text><text class="cls-2" transform="matrix(0.65, -0.76, 0.76, 0.65, 368.07, 347.97)">r</text><text class="cls-2" transform="matrix(0.63, -0.77, 0.77, 0.63, 370.89, 344.63)">i</text><text class="cls-2" transform="matrix(0.61, -0.79, 0.79, 0.61, 373, 342.07)">d</text><text class="cls-2" transform="translate(376.99 336.92) rotate(-53.91)">a</text><text class="cls-2" transform="matrix(0.56, -0.83, 0.83, 0.56, 380.5, 332.1)">d</text><text class="cls-2" transform="matrix(0.54, -0.84, 0.84, 0.54, 384.15, 326.73)">e</text><text class="cls-2" transform="matrix(0.51, -0.86, 0.86, 0.51, 387.37, 321.67)">s</text><text class="cls-3" transform="translate(400.61 157.28) rotate(73.71)">O</text><text class="cls-3" transform="translate(402.69 164.46) rotate(75.7)">S</text><text class="cls-3" transform="translate(404.16 170.24) rotate(77.49)">C</text><text class="cls-3" transform="translate(405.47 176.26) rotate(78.81)">’</text><text class="cls-3" transform="translate(406 178.89) rotate(79.97)">s</text><text class="cls-4" transform="translate(267.61 27.95) rotate(16.14)">I</text><text class="cls-4" transform="translate(270.9 28.89) rotate(17.6)">n</text><text class="cls-4" transform="translate(276.94 30.81) rotate(19.33)">v</text><text class="cls-4" transform="matrix(0.93, 0.36, -0.36, 0.93, 282.03, 32.6)">e</text><text class="cls-4" transform="translate(287.58 34.75) rotate(22.54)">r</text><text class="cls-4" transform="translate(291.49 36.37) rotate(23.92)">s</text><text class="cls-4" transform="translate(296.22 38.49) rotate(25.17)">i</text><text class="cls-4" transform="translate(299.22 39.88) rotate(26.61)">o</text><text class="cls-4" transform="translate(304.91 42.74) rotate(28.5)">n</text><text class="cls-4" transform="matrix(0.87, 0.5, -0.5, 0.87, 310.53, 45.82)">i</text><text class="cls-4" transform="translate(313.39 47.46) rotate(31.19)">s</text><text class="cls-4" transform="matrix(0.84, 0.54, -0.54, 0.84, 317.86, 50.18)">t</text><text class="cls-4" transform="translate(321.24 52.33) rotate(34.02)">a</text><text class="cls-4" transform="translate(326.08 55.61) rotate(35.63)">s</text><text class="cls-5" transform="translate(100.44 57.77) rotate(-35.19)">C</text><text class="cls-5" transform="matrix(0.83, -0.55, 0.55, 0.83, 105.26, 54.38)">o</text><text class="cls-5" transform="translate(110.6 50.87) rotate(-31.5)">n</text><text class="cls-5" transform="translate(116.06 47.54) rotate(-29.78)">s</text><text class="cls-5" transform="translate(120.56 44.97) rotate(-28.07)">u</text><text class="cls-5" transform="translate(126.15 41.96) rotate(-25.77)">m</text><text class="cls-5" transform="translate(134.43 38.02) rotate(-23.93)">i</text><text class="cls-5" transform="matrix(0.92, -0.38, 0.38, 0.92, 137.46, 36.66)">d</text><text class="cls-5" transform="matrix(0.94, -0.35, 0.35, 0.94, 143.45, 34.19)">o</text><text class="cls-5" transform="translate(149.42 31.97) rotate(-19)">r</text><text class="cls-5" transform="translate(153.26 30.64) rotate(-17.56)">e</text><text class="cls-5" transform="translate(158.95 28.85) rotate(-15.92)">s</text><text class="cls-6" transform="translate(20.34 205.72) rotate(-86.39)">C</text><text class="cls-6" transform="translate(20.72 199.83) rotate(-84.61)">o</text><text class="cls-6" transform="translate(21.34 193.47) rotate(-83.15)">l</text><text class="cls-6" transform="matrix(0.14, -0.99, 0.99, 0.14, 21.73, 190.13)">a</text><text class="cls-6" transform="matrix(0.17, -0.98, 0.98, 0.17, 22.59, 184.22)">b</text><text class="cls-6" transform="translate(23.72 177.88) rotate(-78.03)">o</text><text class="cls-6" transform="translate(25.07 171.64) rotate(-76.44)">r</text><text class="cls-6" transform="matrix(0.26, -0.97, 0.97, 0.26, 26, 167.76)">a</text><text class="cls-6" transform="translate(27.54 161.99) rotate(-73.17)">d</text><text class="cls-6" transform="matrix(0.32, -0.95, 0.95, 0.32, 29.44, 155.76)">o</text><text class="cls-6" transform="translate(31.5 149.73) rotate(-69.69)">r</text><text class="cls-6" transform="translate(32.89 145.95) rotate(-68.26)">e</text><text class="cls-6" transform="matrix(0.4, -0.92, 0.92, 0.4, 35.13, 140.38)">s</text><text class="cls-7" transform="translate(185.46 415.83) rotate(7.53)">P</text><text class="cls-7" transform="translate(191.56 416.62) rotate(6.07)">r</text><text class="cls-7" transform="translate(195.58 417.06) rotate(4.63)">o</text><text class="cls-7" transform="translate(201.91 417.56) rotate(2.97)">v</text><text class="cls-7" transform="translate(207.3 417.83) rotate(1.36)">e</text><text class="cls-7" transform="translate(213.27 417.97) rotate(-0.34)">e</text><text class="cls-7" transform="translate(219.25 417.93) rotate(-2.12)">d</text><text class="cls-7" transform="matrix(1, -0.07, 0.07, 1, 225.75, 417.68)">o</text><text class="cls-7" transform="matrix(1, -0.1, 0.1, 1, 232.09, 417.22)">r</text><text class="cls-7" transform="translate(236.13 416.85) rotate(-6.86)">e</text><text class="cls-7" transform="matrix(0.99, -0.15, 0.15, 0.99, 242.1, 416.11)">s</text><text class="cls-2" transform="translate(41.42 320.34) rotate(58.04)">C</text><text class="cls-2" transform="translate(44.56 325.37) rotate(56.33)">o</text><text class="cls-2" transform="matrix(0.59, 0.81, -0.81, 0.59, 48.08, 330.69)">m</text><text class="cls-2" transform="matrix(0.62, 0.79, -0.79, 0.62, 53.46, 338.06)">u</text><text class="cls-2" transform="matrix(0.64, 0.77, -0.77, 0.64, 57.39, 343.08)">n</text><text class="cls-2" transform="translate(61.53 347.99) rotate(48.73)">i</text><text class="cls-2" transform="matrix(0.68, 0.74, -0.74, 0.68, 63.7, 350.49)">d</text><text class="cls-2" transform="matrix(0.7, 0.71, -0.71, 0.7, 68.12, 355.26)">a</text><text class="cls-2" transform="matrix(0.72, 0.69, -0.69, 0.72, 72.31, 359.53)">d</text></g></g></g></svg>
