<svg xmlns="http://www.w3.org/2000/svg" viewBox="0 0 106.18 124.48"><defs><style>.cls-1,.cls-2{fill:#63b2bc;}.cls-2{font-size:8.83px;font-family:FiraSans-Medium, Fira Sans;letter-spacing:-0.03em;}.cls-3{letter-spacing:-0.03em;}.cls-4{letter-spacing:-0.03em;}.cls-5{letter-spacing:-0.02em;}.cls-6{font-size:7.95px;font-family:FiraSans-Light, Fira Sans;letter-spacing:-0.02em;}.cls-7{letter-spacing:-0.04em;}.cls-8{letter-spacing:-0.02em;}.cls-9{letter-spacing:-0.04em;}.cls-10{letter-spacing:-0.03em;}.cls-11{letter-spacing:-0.03em;}.cls-12{fill:#fff;}</style></defs><title>consumidores</title><g id="Layer_2" data-name="Layer 2"><g id="Capa_1" data-name="Capa 1"><circle class="cls-1" cx="26.72" cy="25.04" r="25.04"/><text class="cls-2" transform="translate(0 64.18)">C<tspan class="cls-3" x="4.71" y="0">onsumi</tspan><tspan x="32.98" y="0">d</tspan><tspan class="cls-3" x="37.96" y="0">o</tspan><tspan class="cls-4" x="42.9" y="0">r</tspan><tspan class="cls-5" x="46.07" y="0">es</tspan><tspan class="cls-6"><tspan x="0" y="12.37">1. Calidad</tspan><tspan x="0" y="22.97">2. Inn</tspan><tspan class="cls-7" x="18.01" y="22.97">o</tspan><tspan x="22.19" y="22.97">vación</tspan><tspan x="0" y="33.57">3. </tspan><tspan class="cls-7" x="7.13" y="33.57">P</tspan><tspan x="11.31" y="33.57">o</tspan><tspan class="cls-8" x="15.65" y="33.57">r</tspan><tspan x="18.49" y="33.57">ta</tspan><tspan class="cls-9" x="25.07" y="33.57">f</tspan><tspan x="27.34" y="33.57">olio </tspan><tspan class="cls-9" x="42.05" y="33.57">d</tspan><tspan x="46.42" y="33.57">e p</tspan><tspan class="cls-9" x="56.94" y="33.57">r</tspan><tspan x="59.63" y="33.57">oduc</tspan><tspan class="cls-9" x="76.35" y="33.57">t</tspan><tspan class="cls-10" x="78.79" y="33.57">os</tspan><tspan x="0" y="44.17">4. In</tspan><tspan class="cls-9" x="13.87" y="44.17">f</tspan><tspan x="16.15" y="44.17">ormación nutrimental</tspan><tspan x="0" y="54.77">5. P</tspan><tspan class="cls-9" x="11.47" y="54.77">r</tspan><tspan x="14.16" y="54.77">oduc</tspan><tspan class="cls-11" x="30.89" y="54.77">t</tspan><tspan x="33.32" y="54.77">os saludab</tspan><tspan class="cls-9" x="70.12" y="54.77">l</tspan><tspan x="72.1" y="54.77">es</tspan></tspan></text><path class="cls-12" d="M27,21.58a3.79,3.79,0,0,1,1.52.32,3.81,3.81,0,0,1,.72-2.05,4.49,4.49,0,0,0-.92-.09h-3a4.46,4.46,0,0,0-.91.09,3.79,3.79,0,0,1,.72,2.21A3.81,3.81,0,0,1,27,21.58Zm0,0"/><path class="cls-12" d="M30.32,16a3.5,3.5,0,1,1-3.5-3.5,3.5,3.5,0,0,1,3.5,3.5Zm0,0"/><path class="cls-12" d="M32.32,25.49a3.23,3.23,0,1,0-3.22-3.27,4,4,0,0,1,1.86,3,3.2,3.2,0,0,0,1.36.3Zm0,0"/><path class="cls-12" d="M21.32,19A3.23,3.23,0,1,0,23,25a4,4,0,0,1,1.5-2.55c0-.06,0-.12,0-.18A3.23,3.23,0,0,0,21.32,19Zm0,0"/><path class="cls-12" d="M34.41,19a4,4,0,0,1,1.86,3,3.22,3.22,0,1,0-1.86-3Zm0,0"/><path class="cls-12" d="M30.21,25.59A3.23,3.23,0,1,1,27,22.37a3.23,3.23,0,0,1,3.23,3.23Zm0,0"/><path class="cls-12" d="M33.69,25.71H31a4,4,0,0,1-1.23,2.77,4.91,4.91,0,0,1,3.51,4.7v1a11.09,11.09,0,0,0,4.33-.91l.21-.11h0V29.84a4.14,4.14,0,0,0-4.13-4.13Zm0,0"/><path class="cls-12" d="M39,22.46H36.29a4,4,0,0,1-1.23,2.77,4.91,4.91,0,0,1,3.51,4.7v1a11.08,11.08,0,0,0,4.33-.91l.22-.11h0V26.59A4.14,4.14,0,0,0,39,22.46Zm0,0"/><path class="cls-12" d="M24.21,28.48A4,4,0,0,1,23,25.72l-.3,0H19.95a4.14,4.14,0,0,0-4.13,4.13v3.4l.23.07a19.42,19.42,0,0,0,4.65.87v-1a4.91,4.91,0,0,1,3.51-4.7Zm0,0"/><path class="cls-12" d="M28.35,29H25.61a4.14,4.14,0,0,0-4.13,4.13v3.4l.23.07a18.86,18.86,0,0,0,5.62.91,11.52,11.52,0,0,0,4.91-.92l.22-.11h0V33.17A4.13,4.13,0,0,0,28.35,29Zm0,0"/><path class="cls-12" d="M15.95,22.34A3.2,3.2,0,0,0,17.31,22a4,4,0,0,1,1.86-3,3.23,3.23,0,1,0-3.22,3.28Zm0,0"/><path class="cls-12" d="M18.52,25.33a4,4,0,0,1-1.23-2.77H14.58a4.14,4.14,0,0,0-4.13,4.13V30h0l.21.11a11.13,11.13,0,0,0,4.33.91V30a4.91,4.91,0,0,1,3.51-4.7Zm0,0"/><path class="cls-12" d="M19.72,18.72a4.36,4.36,0,0,1,1.54-.35,3.82,3.82,0,0,1,1.87.49,3.34,3.34,0,0,0,.35-.41A4.11,4.11,0,0,1,23,14.2a3.19,3.19,0,0,0-5.22,1.54,3.84,3.84,0,0,1,1.9,3Zm0,0"/><path class="cls-12" d="M30.17,18.27a3.18,3.18,0,0,0,.39.5,3.82,3.82,0,0,1,1.7-.4,4.78,4.78,0,0,1,1.49.27,3.84,3.84,0,0,1,2.13-3.12,3.19,3.19,0,0,0-5.33-1.14,4.09,4.09,0,0,1-.39,3.89Zm0,0"/></g></g></svg>
