<svg xmlns="http://www.w3.org/2000/svg" viewBox="0 0 420.93 420.87"><defs><style>.cls-1{fill:#7e7565;}.cls-2{fill:#fff;}</style></defs><title>consumidores-inversionistas</title><g id="Layer_2" data-name="Layer 2"><g id="Capa_1" data-name="Capa 1"><g id="circulo-general"><path class="cls-1" d="M23.06,210.4A186.56,186.56,0,0,1,60.83,97.58L42.78,83.22A210.84,210.84,0,0,0,4.13,252.07l22.5-5.17A188.28,188.28,0,0,1,23.06,210.4Z"/><path class="cls-1" d="M416.78,252.14A210.84,210.84,0,0,0,377.94,82.95L359.89,97.31A187.69,187.69,0,0,1,394.28,247Z"/><path class="cls-1" d="M215.3,23.06A187,187,0,0,1,353.53,89.37L371.58,75A210,210,0,0,0,215.3,0Z"/><path class="cls-1" d="M287.07,381.47a187.88,187.88,0,0,1-153.6-.16l-10,20.8a211,211,0,0,0,173.59.17Z"/><path class="cls-1" d="M67.18,89.63a187,187,0,0,1,138-66.55V0a210,210,0,0,0-156,75.26Z"/><path class="cls-1" d="M392,256.89a187.8,187.8,0,0,1-95.81,120.16l10,20.8a210.91,210.91,0,0,0,108.29-135.8Z"/><path class="cls-1" d="M124.33,376.87a187.8,187.8,0,0,1-95.47-120L6.38,262A210.91,210.91,0,0,0,114.33,397.67Z"/><path class="cls-2" d="M349.39,354.81l-2,1.87.83,1.68-.65.61-3.16-6.64.81-.77,6.44,3.53-.68.64Zm-.66-.37-3.41-1.94,1.74,3.51Z"/><path class="cls-2" d="M355.56,351.22l-.52.52-.66-.56a1.82,1.82,0,0,1-.48,1.89,1.43,1.43,0,0,1-2.22-.09l-2.72-2.7.6-.61,2.66,2.64c.54.54.93.55,1.36.12a1.66,1.66,0,0,0,.3-1.66l-2.72-2.7.6-.61Z"/><path class="cls-2" d="M358.89,347.37a2,2,0,0,1-.55,1.1,1.32,1.32,0,0,1-2.06,0l-2.41-2.27-.63.67-.48-.45.64-.67-.9-.84.52-.68,1,.91.89-.94.42.52-.82.87,2.38,2.25c.41.38.73.42,1.06.08a1.42,1.42,0,0,0,.35-.69Z"/><path class="cls-2" d="M360.83,341.56c1.25,1.12,1.52,2.52.52,3.63s-2.38,1-3.64-.11-1.51-2.52-.52-3.63S359.56,340.42,360.83,341.56Zm-2.52,2.84c1.05.94,1.9,1,2.52.33s.46-1.53-.61-2.49-1.9-1-2.52-.33S357.25,343.44,358.32,344.4Z"/><path class="cls-2" d="M361.84,336.18l.54.66a1.69,1.69,0,0,0-.35.32c-.44.52-.33,1.12.3,2l2.39,2-.55.65-4.07-3.46.47-.56.9.66a1.54,1.54,0,0,1,0-1.9A2.13,2.13,0,0,1,361.84,336.18Z"/><path class="cls-2" d="M362,333a.6.6,0,1,1-.84.1A.58.58,0,0,1,362,333Zm5.52,4.75-.54.66-4.14-3.39.54-.66Z"/><path class="cls-2" d="M365.63,328.07l5.93,4.61-.46.59-.65-.39a1.8,1.8,0,0,1-.27,1.77c-.79,1-2.1.92-3.43-.12s-1.74-2.35-.94-3.38a1.94,1.94,0,0,1,1.42-.74L365,328.68Zm4.29,4.42-2.1-1.64a1.53,1.53,0,0,0-1.35.56c-.51.66-.28,1.51.84,2.38s1.95.92,2.44.29A1.54,1.54,0,0,0,369.92,332.49Z"/><path class="cls-2" d="M375,327.22l.37.52a1,1,0,0,1-1.25.32,1.83,1.83,0,0,1-.28,1.78,1.55,1.55,0,0,1-2.3.41c-.92-.67-.91-1.72,0-2.9l.51-.71-.34-.25a1,1,0,0,0-1.56.28,4.46,4.46,0,0,0-.61,1.34l-.64-.2a5,5,0,0,1,.77-1.68,1.61,1.61,0,0,1,2.51-.46l2,1.46C374.51,327.43,374.73,327.39,375,327.22Zm-1.51.51-1-.75-.45.62c-.59.8-.59,1.45,0,1.9a.89.89,0,0,0,1.39-.2A1.42,1.42,0,0,0,373.47,327.72Z"/><path class="cls-2" d="M372.61,318.29l6.2,4.23-.42.61-.67-.35a1.8,1.8,0,0,1-.16,1.78c-.73,1.07-2,1-3.43.1s-1.88-2.24-1.15-3.32a1.94,1.94,0,0,1,1.38-.82L372,318.94Zm4.55,4.15-2.2-1.5a1.53,1.53,0,0,0-1.31.64c-.47.69-.19,1.52,1,2.32s2,.8,2.46.14A1.55,1.55,0,0,0,377.16,322.44Z"/><path class="cls-2" d="M380.25,315.87l-1.85,2.91c1.14.62,1.89.39,2.32-.29a2.28,2.28,0,0,0,.35-1.44l.63,0a2.84,2.84,0,0,1-.42,1.91c-.79,1.24-2.14,1.41-3.57.5s-2-2.23-1.22-3.38,2-1.29,3.38-.42Zm-1,.31c-.91-.58-1.66-.55-2.14.19s-.22,1.33.8,2.06l1.41-2.21Z"/><path class="cls-2" d="M380.8,310.17l.28.59a2.38,2.38,0,0,0-1.12,1c-.32.54-.28,1,.11,1.28s.72.08,1.38-.56c.83-.82,1.52-1.14,2.33-.66s.87,1.67.32,2.6a2.91,2.91,0,0,1-1.63,1.36l-.21-.66a2.48,2.48,0,0,0,1.24-1c.37-.61.33-1.19-.13-1.46s-.79-.16-1.58.6-1.5,1-2.14.59a1.66,1.66,0,0,1-.28-2.37A2.8,2.8,0,0,1,380.8,310.17Z"/><path class="cls-2" d="M401.22,157.09c-2.21.65-3.79-.12-4.29-1.8s.39-3.16,2.63-3.82,3.83.13,4.32,1.79S403.48,156.42,401.22,157.09Zm-1.39-4.72c-2,.57-2.52,1.59-2.19,2.72s1.36,1.68,3.32,1.1,2.57-1.55,2.22-2.73S401.8,151.79,399.83,152.37Z"/><path class="cls-2" d="M405.46,162.21l-.64-.33a2.41,2.41,0,0,0,.19-1.71c-.18-.72-.67-1.17-1.33-1s-.81.51-.88,1.83-.26,2.19-1.53,2.51-2.23-.38-2.61-1.87a3.26,3.26,0,0,1,.29-2.5l.65.34a2.73,2.73,0,0,0-.23,2c.21.83.81,1.39,1.64,1.18s.92-.59,1-1.85c.07-1.43.4-2.22,1.43-2.49a1.93,1.93,0,0,1,2.28,1.66A2.88,2.88,0,0,1,405.46,162.21Z"/><path class="cls-2" d="M407.06,168.69l-.66-.34a2.09,2.09,0,0,0,.21-1.45c-.24-1.07-1.16-1.8-3.26-1.33s-2.61,1.48-2.37,2.57a2.34,2.34,0,0,0,.89,1.34l-.45.55a2.73,2.73,0,0,1-1.18-1.76c-.37-1.64.61-3.11,2.91-3.62s3.82.48,4.16,2A2.72,2.72,0,0,1,407.06,168.69Z"/><path class="cls-2" d="M408.17,171.26a1.33,1.33,0,0,1-.58-.05l-1.51-.38-.11-.55,1.53.1a.57.57,0,0,1,.42-.33.62.62,0,0,1,.24,1.21Z"/><path class="cls-2" d="M407,176.78l-.59-.27a2.38,2.38,0,0,0,.22-1.45c-.11-.62-.47-1-.92-.89s-.6.41-.67,1.33c-.09,1.16-.4,1.86-1.33,2-1.07.19-1.75-.69-1.94-1.75a2.91,2.91,0,0,1,.34-2.09l.59.36a2.48,2.48,0,0,0-.25,1.59c.12.7.53,1.11,1.06,1s.7-.4.8-1.49.49-1.72,1.23-1.85,1.57.54,1.76,1.61A2.8,2.8,0,0,1,407,176.78Z"/><path class="cls-2" d="M264.9,23.08l-.84-.24L266,16.12l.84.24Z"/><path class="cls-2" d="M272.29,21.35,271.13,25l-.81-.26,1.12-3.54c.25-.78,0-1.14-.51-1.3a1.69,1.69,0,0,0-1.66.51L268.11,24l-.81-.26,1.62-5.1.7.22-.18.79a2,2,0,0,1,1.88-.37A1.46,1.46,0,0,1,272.29,21.35Z"/><path class="cls-2" d="M275.22,26.41l-1-.34V20.4l.88.31L275,25.52l2.87-3.85.85.3Z"/><path class="cls-2" d="M283,26.76l-3.22-1.24c-.38,1.24,0,1.92.75,2.22a2.28,2.28,0,0,0,1.48.06l.17.61a2.84,2.84,0,0,1-2,0c-1.38-.53-1.81-1.82-1.2-3.4s1.8-2.36,3.07-1.87,1.67,1.72,1.09,3.23C283.08,26.5,283,26.66,283,26.76Zm-.51-1c.39-1,.21-1.74-.61-2.06s-1.35,0-1.86,1.19l2.45.94Z"/><path class="cls-2" d="M288.6,25.8l-.46.71a1.71,1.71,0,0,0-.41-.23c-.63-.26-1.17,0-1.79.89l-1.2,2.89-.79-.33,2-4.94.68.28-.35,1.06a1.54,1.54,0,0,1,1.81-.59A2.13,2.13,0,0,1,288.6,25.8Z"/><path class="cls-2" d="M292.74,28.22l-.55.35a2.39,2.39,0,0,0-1.08-1c-.58-.25-1.07-.15-1.25.27s0,.73.73,1.3c.91.73,1.32,1.37.94,2.23S290,32.45,289,32a2.92,2.92,0,0,1-1.55-1.45l.63-.29a2.48,2.48,0,0,0,1.18,1.1c.65.29,1.22.18,1.44-.31s.06-.81-.79-1.5-1.15-1.37-.85-2.06a1.66,1.66,0,0,1,2.32-.56A2.8,2.8,0,0,1,292.74,28.22Z"/><path class="cls-2" d="M293.34,33.87l-.77-.36,2.27-4.84.77.36Zm3.25-6.51a.61.61,0,1,1-.3-.79A.58.58,0,0,1,296.59,27.36Z"/><path class="cls-2" d="M300.62,34.46c-.75,1.5-2,2.12-3.37,1.46s-1.62-2-.86-3.54,2-2.12,3.37-1.46S301.38,32.93,300.62,34.46Zm-3.4-1.68c-.63,1.27-.48,2.1.35,2.52s1.6,0,2.24-1.25.48-2.1-.35-2.52S297.86,31.49,297.21,32.78Z"/><path class="cls-2" d="M306.59,36.36l-1.83,3.37-.75-.41,1.77-3.26c.39-.72.22-1.12-.26-1.38a1.69,1.69,0,0,0-1.72.19L302,38.22l-.75-.41,2.55-4.7.64.35-.32.74a2,2,0,0,1,1.92,0A1.46,1.46,0,0,1,306.59,36.36Z"/><path class="cls-2" d="M307.58,41.34l-.74-.43,2.67-4.64.74.43Zm3.78-6.22a.61.61,0,1,1-.24-.82A.58.58,0,0,1,311.36,35.12Z"/><path class="cls-2" d="M314.95,40.08l-.59.27a2.39,2.39,0,0,0-1-1.12c-.54-.33-1-.28-1.28.11s-.08.72.55,1.38c.81.84,1.13,1.53.65,2.33s-1.67.86-2.6.31a2.91,2.91,0,0,1-1.35-1.64l.66-.21a2.48,2.48,0,0,0,1,1.24c.61.37,1.19.34,1.46-.12s.16-.79-.6-1.59-1-1.5-.58-2.15a1.66,1.66,0,0,1,2.37-.26A2.79,2.79,0,0,1,314.95,40.08Z"/><path class="cls-2" d="M316.49,46.53a2,2,0,0,1-1.18-.33,1.32,1.32,0,0,1-.39-2l1.78-2.79-.78-.5.36-.56.78.5.66-1,.77.38-.71,1.11,1.09.7-.43.51-1-.65-1.76,2.76c-.3.47-.28.8.12,1.06a1.43,1.43,0,0,0,.75.21Z"/><path class="cls-2" d="M321.08,49.32l-.5.38a1,1,0,0,1-.36-1.24,1.83,1.83,0,0,1-1.79-.22,1.55,1.55,0,0,1-.49-2.29c.64-.94,1.69-1,2.9-.15l.73.49.24-.35a1,1,0,0,0-.34-1.55,4.5,4.5,0,0,0-1.36-.56l.18-.64a5,5,0,0,1,1.71.71,1.61,1.61,0,0,1,.55,2.5l-1.39,2.06C320.86,48.86,320.91,49.08,321.08,49.32Zm-.56-1.5.71-1.05-.63-.43c-.83-.56-1.47-.54-1.9.09a.89.89,0,0,0,.25,1.38A1.42,1.42,0,0,0,320.52,47.83Z"/><path class="cls-2" d="M327.78,48.71l-.61.22a2.38,2.38,0,0,0-.86-1.19c-.51-.37-1-.36-1.28,0s-.14.71.45,1.42c.75.9,1,1.61.46,2.37s-1.74.73-2.62.1a2.92,2.92,0,0,1-1.22-1.74l.68-.15a2.47,2.47,0,0,0,.93,1.32c.58.42,1.16.43,1.47,0s.22-.78-.47-1.63-.85-1.57-.41-2.19a1.66,1.66,0,0,1,2.39-.08A2.8,2.8,0,0,1,327.78,48.71Z"/><path class="cls-2" d="M96.58,44l-.06.74a2.09,2.09,0,0,0-1.42.37c-.9.63-1.21,1.76,0,3.52s2.37,1.84,3.28,1.2a2.35,2.35,0,0,0,.9-1.34l.68.21a2.73,2.73,0,0,1-1.17,1.77c-1.37,1-3.1.63-4.46-1.29s-1-3.71.28-4.63A2.72,2.72,0,0,1,96.58,44Z"/><path class="cls-2" d="M103.67,43.81c.92,1.4.82,2.82-.43,3.64s-2.56.38-3.49-1-.82-2.82.43-3.64S102.73,42.39,103.67,43.81Zm-3.16,2.1c.78,1.18,1.58,1.47,2.35,1s.83-1.36,0-2.56-1.58-1.47-2.35-1S99.72,44.72,100.51,45.92Z"/><path class="cls-2" d="M108.32,39.58l2,3.27-.73.45-1.94-3.16c-.43-.7-.85-.75-1.32-.47a1.69,1.69,0,0,0-.7,1.58l2,3.25-.73.45-2.79-4.56.62-.38.48.65a2,2,0,0,1,.95-1.67A1.46,1.46,0,0,1,108.32,39.58Z"/><path class="cls-2" d="M112.74,35.83l0,.65a2.38,2.38,0,0,0-1.44.29c-.55.31-.75.77-.53,1.17s.59.42,1.48.19c1.13-.31,1.89-.25,2.35.57s-.06,1.88-1,2.42a2.92,2.92,0,0,1-2.09.39l.14-.68a2.48,2.48,0,0,0,1.59-.3c.62-.35.87-.87.6-1.34s-.62-.53-1.68-.25-1.78.12-2.16-.54a1.66,1.66,0,0,1,.92-2.2A2.81,2.81,0,0,1,112.74,35.83Z"/><path class="cls-2" d="M120.35,37.25l-.65.34-.47-.73a1.82,1.82,0,0,1-1,1.66,1.43,1.43,0,0,1-2.09-.74l-1.8-3.38.75-.4,1.76,3.3c.36.67.73.8,1.27.51a1.66,1.66,0,0,0,.78-1.5l-1.8-3.38.75-.4Z"/><path class="cls-2" d="M126.92,29.73l1.67,3.45-.77.37-1.61-3.34c-.36-.74-.78-.83-1.18-.64s-.68.77-.76,1.46l1.66,3.43-.77.37-1.61-3.34c-.36-.74-.78-.83-1.18-.64s-.68.77-.75,1.46l1.66,3.43-.77.37-2.33-4.81.66-.32.41.69a1.86,1.86,0,0,1,1-1.51,1.34,1.34,0,0,1,1.64.31,1.9,1.9,0,0,1,1-1.6A1.44,1.44,0,0,1,126.92,29.73Z"/><path class="cls-2" d="M128.77,25.15a.6.6,0,1,1-.8-.29A.58.58,0,0,1,128.77,25.15Zm2.79,6.72-.78.35-2.17-4.89.78-.35Z"/><path class="cls-2" d="M134.7,22.4l2.87,6.93-.69.28-.37-.66a1.8,1.8,0,0,1-1.1,1.4c-1.19.49-2.28-.24-2.92-1.79s-.35-2.9.86-3.4a1.94,1.94,0,0,1,1.6.06l-1.07-2.59Zm1.55,6-1-2.46a1.53,1.53,0,0,0-1.45-.18c-.77.32-1,1.17-.45,2.48s1.24,1.77,2,1.46A1.54,1.54,0,0,0,136.25,28.36Z"/><path class="cls-2" d="M142.92,24.41c.59,1.57.18,2.93-1.22,3.46s-2.58-.19-3.18-1.78-.18-2.93,1.22-3.46S142.32,22.81,142.92,24.41Zm-3.54,1.35c.5,1.32,1.21,1.78,2.08,1.46s1.11-1.15.61-2.49S140.85,23,140,23.28,138.87,24.42,139.38,25.76Z"/><path class="cls-2" d="M146.68,20.22l.13.84a1.73,1.73,0,0,0-.46.09c-.64.22-.85.8-.75,1.85l1,3-.81.28-1.74-5.06.69-.24.44,1a1.54,1.54,0,0,1,1-1.64A2.19,2.19,0,0,1,146.68,20.22Z"/><path class="cls-2" d="M152.71,21.47l-3.29,1c.48,1.2,1.2,1.51,2,1.26a2.28,2.28,0,0,0,1.19-.88l.51.37a2.84,2.84,0,0,1-1.55,1.2c-1.41.45-2.55-.29-3.06-1.91s-.07-3,1.23-3.38,2.38.3,2.87,1.84C152.65,21.19,152.69,21.36,152.71,21.47Zm-1-.43c-.33-1-.92-1.49-1.76-1.22s-1,.88-.71,2.09l2.5-.79Z"/><path class="cls-2" d="M157.1,17.63l-.2.62a2.38,2.38,0,0,0-1.47-.07c-.61.17-.92.57-.79,1s.47.55,1.39.53c1.17,0,1.89.21,2.15,1.11s-.51,1.81-1.54,2.11a2.92,2.92,0,0,1-2.12-.12l.3-.62a2.47,2.47,0,0,0,1.61.09c.68-.2,1.06-.64.91-1.16s-.47-.66-1.57-.64-1.76-.31-2-1,.37-1.62,1.42-1.92A2.81,2.81,0,0,1,157.1,17.63Z"/><path class="cls-2" d="M9.71,194.54l.54.51a2.09,2.09,0,0,0-.6,1.34c-.07,1.1.61,2,2.75,2.18s2.92-.69,3-1.81a2.34,2.34,0,0,0-.48-1.54l.59-.4a2.73,2.73,0,0,1,.65,2c-.11,1.67-1.45,2.81-3.8,2.66S8.81,198,8.91,196.4A2.71,2.71,0,0,1,9.71,194.54Z"/><path class="cls-2" d="M14,188.89c1.67.16,2.71,1.12,2.57,2.61s-1.3,2.24-3,2.08S10.86,192.45,11,191,12.29,188.73,14,188.89Zm-.34,3.78c1.41.13,2.13-.31,2.22-1.23s-.54-1.5-2-1.64-2.13.31-2.22,1.23S12.23,192.53,13.65,192.67Z"/><path class="cls-2" d="M15.89,187l-6.45-.77v-.86l6.53.78c.29,0,.46,0,.49-.3a.9.9,0,0,0,0-.35l.62-.15a1.56,1.56,0,0,1,.09.73A1,1,0,0,1,15.89,187Z"/><path class="cls-2" d="M17.41,179.73,18,180a1,1,0,0,1-1,.87,1.82,1.82,0,0,1,.59,1.71A1.55,1.55,0,0,1,15.77,184c-1.13-.16-1.61-1.09-1.4-2.54l.12-.87-.42-.06c-.79-.11-1.14.22-1.25,1A4.49,4.49,0,0,0,12.9,183l-.65.12a5,5,0,0,1-.11-1.84,1.61,1.61,0,0,1,2-1.58l2.46.35C17.1,180.14,17.27,180,17.41,179.73Zm-1.1,1.16-1.26-.18-.11.75c-.14,1,.16,1.56.91,1.67a.89.89,0,0,0,1.14-.82A1.42,1.42,0,0,0,16.31,180.89Z"/><path class="cls-2" d="M16.33,173.07c1.66.29,2.63,1.26,2.4,2.54a1.83,1.83,0,0,1-1,1.3l.58.19-.13.73-7.39-1.32,0-.86,2.9.51a1.85,1.85,0,0,1-.52-1.65C13.45,173.33,14.58,172.76,16.33,173.07Zm-.16.9c-1.51-.27-2.16.13-2.3.9a1.57,1.57,0,0,0,.61,1.43l2.59.46a1.5,1.5,0,0,0,.95-1.08C18.17,174.88,17.63,174.23,16.17,174Z"/><path class="cls-2" d="M17.64,166.73c1.64.35,2.57,1.43,2.26,2.89s-1.55,2.07-3.21,1.72-2.57-1.43-2.26-2.89S16,166.38,17.64,166.73Zm-.76,3.72c1.38.29,2.15-.06,2.35-1s-.37-1.55-1.77-1.85-2.15.06-2.35,1S15.48,170.15,16.88,170.44Z"/><path class="cls-2" d="M16.14,161.3l.78.34a1.68,1.68,0,0,0-.17.44c-.16.66.21,1.15,1.16,1.63l3,.73-.2.83L15.55,164l.17-.71,1.11.18A1.54,1.54,0,0,1,16,161.8,2.15,2.15,0,0,1,16.14,161.3Z"/><path class="cls-2" d="M22.27,157.42l.53.35a1,1,0,0,1-1.05.75,1.82,1.82,0,0,1,.38,1.77,1.55,1.55,0,0,1-2,1.21c-1.1-.3-1.47-1.28-1.09-2.69l.23-.84-.41-.11c-.77-.21-1.16.08-1.36.83a4.5,4.5,0,0,0-.09,1.47l-.66,0a5,5,0,0,1,.11-1.84A1.61,1.61,0,0,1,19,157l2.4.64C21.91,157.78,22.1,157.66,22.27,157.42Zm-1.23,1-1.23-.33-.2.74c-.26,1,0,1.57.7,1.77a.89.89,0,0,0,1.23-.68A1.42,1.42,0,0,0,21,158.43Z"/><path class="cls-2" d="M17.26,149.58l7.19,2.17-.22.71-.75-.13a1.8,1.8,0,0,1,.39,1.74c-.37,1.24-1.64,1.61-3.24,1.13s-2.47-1.57-2.09-2.82a1.94,1.94,0,0,1,1.06-1.2l-2.69-.81Zm5.6,2.58-2.55-.77a1.53,1.53,0,0,0-1.06,1c-.24.8.28,1.51,1.64,1.92s2.15.16,2.38-.61A1.55,1.55,0,0,0,22.86,152.16Z"/><path class="cls-2" d="M24,144.46c1.59.54,2.38,1.72,1.9,3.14s-1.79,1.88-3.4,1.33-2.38-1.72-1.9-3.14S22.43,143.91,24,144.46Zm-1.2,3.6c1.34.45,2.15.19,2.45-.69s-.18-1.59-1.54-2-2.15-.19-2.45.69S21.48,147.6,22.84,148.07Z"/><path class="cls-2" d="M23.18,138.9l.73.43a1.7,1.7,0,0,0-.22.42c-.24.64.08,1.17,1,1.76l2.94,1.09-.3.8-5-1.86.25-.69,1.08.31a1.54,1.54,0,0,1-.66-1.79A2.18,2.18,0,0,1,23.18,138.9Z"/><path class="cls-2" d="M28,135.07l-1.28,3.2c1.23.39,1.92,0,2.23-.72a2.27,2.27,0,0,0,.08-1.48l.61-.16a2.84,2.84,0,0,1-.06,2c-.55,1.37-1.84,1.78-3.42,1.15s-2.34-1.83-1.83-3.1,1.74-1.65,3.24-1Zm-1,.5c-1-.4-1.74-.23-2.06.59s0,1.35,1.17,1.88l1-2.44Z"/><path class="cls-2" d="M27.78,129.19l.35.55a2.39,2.39,0,0,0-1,1.09c-.25.58-.14,1.07.28,1.25s.73,0,1.29-.74c.72-.92,1.36-1.33,2.22-1s1.08,1.54.66,2.53a2.91,2.91,0,0,1-1.44,1.56l-.29-.63a2.48,2.48,0,0,0,1.09-1.19c.28-.65.17-1.22-.32-1.44s-.81-.05-1.49.81-1.36,1.17-2,.87a1.66,1.66,0,0,1-.58-2.32A2.81,2.81,0,0,1,27.78,129.19Z"/><path class="cls-2" d="M187,406.34c-.21,1.58-1.43,2.08-3,1.87l-.91-.12-.34,2.58-.87-.12.92-6.93,1.77.23C186.29,404.08,187.21,404.89,187,406.34Zm-.93-.11c.14-1.07-.48-1.54-1.55-1.68l-.9-.12-.39,3,.88.12C185.18,407.66,185.93,407.43,186.09,406.23Z"/><path class="cls-2" d="M191.34,406.23l-.24.81a1.65,1.65,0,0,0-.46-.11c-.68-.07-1.11.36-1.46,1.36l-.33,3.11-.85-.09.56-5.32.73.08,0,1.12a1.54,1.54,0,0,1,1.57-1.08A2.16,2.16,0,0,1,191.34,406.23Z"/><path class="cls-2" d="M196.54,409.41c-.14,1.67-1.09,2.73-2.58,2.61s-2.25-1.28-2.12-3,1.09-2.73,2.58-2.61S196.68,407.7,196.54,409.41Zm-3.78-.29c-.11,1.41.34,2.13,1.26,2.2s1.5-.56,1.61-2-.34-2.13-1.26-2.21S192.87,407.69,192.76,409.12Z"/><path class="cls-2" d="M200.36,412.31l-1-.05-1.58-5.44.94,0,1.21,4.66,1.67-4.51.9,0Z"/><path class="cls-2" d="M207.76,410.17l-3.45-.08c.06,1.29.64,1.82,1.45,1.83a2.27,2.27,0,0,0,1.41-.44l.36.52a2.84,2.84,0,0,1-1.86.63c-1.47,0-2.31-1.11-2.27-2.8s.9-2.83,2.27-2.79,2.15,1.06,2.11,2.68C207.79,409.89,207.77,410.06,207.76,410.17Zm-.81-.73c0-1.08-.39-1.71-1.27-1.73s-1.25.5-1.35,1.75l2.62.06Z"/><path class="cls-2" d="M213.65,410.16l-3.45,0c.1,1.29.69,1.8,1.5,1.79a2.28,2.28,0,0,0,1.4-.49l.38.51a2.84,2.84,0,0,1-1.84.68c-1.47,0-2.34-1-2.35-2.73s.82-2.85,2.18-2.86,2.18,1,2.19,2.61C213.67,409.87,213.66,410,213.65,410.16Zm-.83-.71c0-1.08-.44-1.7-1.32-1.69s-1.24.54-1.3,1.79h2.62Z"/><path class="cls-2" d="M219.48,404.84l.27,7.5-.74,0-.12-.75a1.8,1.8,0,0,1-1.52.93c-1.29,0-2.05-1-2.11-2.7s.68-2.84,2-2.89a1.94,1.94,0,0,1,1.48.62l-.1-2.81Zm-.63,6.13-.1-2.66a1.53,1.53,0,0,0-1.3-.68c-.83,0-1.34.75-1.29,2.17s.54,2.09,1.35,2.06A1.54,1.54,0,0,0,218.85,411Z"/><path class="cls-2" d="M226.31,409.24c.12,1.67-.67,2.86-2.16,3s-2.42-.93-2.54-2.62.67-2.86,2.16-3S226.19,407.53,226.31,409.24Zm-3.79.28c.1,1.41.65,2.06,1.58,2s1.4-.78,1.3-2.21-.65-2.06-1.57-2S222.42,408.08,222.52,409.51Z"/><path class="cls-2" d="M230.79,406.08l-.07.84a1.69,1.69,0,0,0-.47,0c-.68.07-1,.58-1.16,1.62l.3,3.12-.85.08L228,406.4l.73-.07.19,1.11c.21-.85.66-1.31,1.32-1.37A2.12,2.12,0,0,1,230.79,406.08Z"/><path class="cls-2" d="M236.2,408.49l-3.42.41c.25,1.27.89,1.71,1.7,1.61a2.27,2.27,0,0,0,1.34-.64l.43.46a2.84,2.84,0,0,1-1.75.89c-1.46.18-2.45-.76-2.65-2.44s.49-2.93,1.84-3.09,2.28.74,2.47,2.34C236.19,408.2,236.2,408.38,236.2,408.49Zm-.9-.61c-.13-1.07-.63-1.63-1.51-1.53s-1.17.67-1.09,1.92l2.6-.31Z"/><path class="cls-2" d="M241,405.29l-.28.59a2.39,2.39,0,0,0-1.45-.26c-.62.09-1,.45-.91.9s.4.61,1.31.71c1.16.13,1.84.45,2,1.38.16,1.08-.74,1.73-1.8,1.89a2.91,2.91,0,0,1-2.08-.4l.38-.58a2.47,2.47,0,0,0,1.59.3c.7-.11,1.13-.5,1-1s-.38-.71-1.47-.84-1.7-.54-1.81-1.28.58-1.56,1.65-1.72A2.82,2.82,0,0,1,241,405.29Z"/><path class="cls-2" d="M45.18,316.09l-.74-.1a2.08,2.08,0,0,0-.29-1.44c-.58-.93-1.69-1.31-3.51-.17s-2,2.26-1.37,3.21a2.35,2.35,0,0,0,1.29,1l-.24.67a2.73,2.73,0,0,1-1.7-1.26c-.89-1.42-.46-3.13,1.53-4.38s3.76-.81,4.6.53A2.72,2.72,0,0,1,45.18,316.09Z"/><path class="cls-2" d="M45.19,322.89c-1.4.93-2.82.84-3.65-.41s-.4-2.56,1-3.5,2.82-.84,3.65.41S46.61,321.95,45.19,322.89Zm-2.12-3.15c-1.18.78-1.46,1.59-.95,2.36s1.37.82,2.56,0,1.46-1.59.95-2.36S44.26,319,43.06,319.75Z"/><path class="cls-2" d="M51.19,329.32l-3.11,2.25-.5-.69,3-2.18c.67-.48.68-.92.42-1.27s-.88-.53-1.58-.49l-3.09,2.24-.5-.69,3-2.18c.67-.48.68-.92.42-1.27s-.88-.53-1.57-.48l-3.09,2.24-.5-.69L48.45,323l.43.59-.61.53a1.86,1.86,0,0,1,1.67.72,1.34,1.34,0,0,1,0,1.67,1.9,1.9,0,0,1,1.76.72A1.44,1.44,0,0,1,51.19,329.32Z"/><path class="cls-2" d="M51.94,336.53l-.45-.57.64-.59a1.82,1.82,0,0,1-1.81-.71,1.43,1.43,0,0,1,.37-2.18l3-2.36.53.67-2.94,2.31c-.6.47-.66.85-.29,1.33a1.66,1.66,0,0,0,1.61.51l3-2.36.53.67Z"/><path class="cls-2" d="M59,339.07l-2.94,2.46-.55-.66,2.85-2.38c.63-.53.62-1,.27-1.38a1.69,1.69,0,0,0-1.67-.46L54,339.1l-.55-.66L57.59,335l.47.56-.57.57a2,2,0,0,1,1.79.69A1.46,1.46,0,0,1,59,339.07Z"/><path class="cls-2" d="M58.2,344l-.56-.64,4-3.53.56.64Zm5.59-4.68a.61.61,0,1,1,0-.85A.58.58,0,0,1,63.79,339.31Z"/><path class="cls-2" d="M68.1,343.72l-5.52,5.09-.5-.55.49-.58a1.8,1.8,0,0,1-1.7-.55c-.88-1-.56-2.23.68-3.37s2.6-1.33,3.49-.37a1.94,1.94,0,0,1,.49,1.53L67.6,343ZM63,347.23l2-1.81a1.53,1.53,0,0,0-.33-1.42c-.57-.61-1.44-.53-2.49.44s-1.23,1.77-.69,2.36A1.54,1.54,0,0,0,63,347.23Z"/><path class="cls-2" d="M67.38,353.07l-.57.28a1,1,0,0,1-.11-1.29,1.83,1.83,0,0,1-1.71-.57,1.55,1.55,0,0,1,0-2.34c.81-.8,1.85-.62,2.87.43l.61.62.3-.3a1,1,0,0,0,0-1.59,4.5,4.5,0,0,0-1.22-.82l.3-.59a5,5,0,0,1,1.53,1,1.61,1.61,0,0,1,0,2.55l-1.77,1.74C67.25,352.57,67.26,352.79,67.38,353.07Zm-.25-1.58.91-.89-.53-.54c-.7-.71-1.34-.83-1.88-.29a.89.89,0,0,0,0,1.4A1.42,1.42,0,0,0,67.13,351.49Z"/><path class="cls-2" d="M76.6,352.2l-5.19,5.42-.54-.51.45-.61a1.8,1.8,0,0,1-1.73-.44c-.93-.89-.69-2.19.47-3.4s2.51-1.49,3.46-.59a1.94,1.94,0,0,1,.59,1.49l1.94-2ZM71.76,356l1.84-1.92a1.52,1.52,0,0,0-.42-1.4c-.6-.58-1.47-.43-2.45.59s-1.12,1.84-.54,2.4A1.54,1.54,0,0,0,71.76,356Z"/></g></g></g></svg>
