<svg xmlns="http://www.w3.org/2000/svg" viewBox="0 0 435.84 444.13"><defs><style>.cls-1{fill:none;stroke:#b2b2b2;stroke-miterlimit:10;stroke-width:0.5px;}.cls-2{fill:#878787;}</style></defs><title>creacion-de-valor</title><g id="Layer_2" data-name="Layer 2"><g id="Capa_1" data-name="Capa 1"><circle class="cls-1" cx="217.92" cy="226.21" r="217.67"/><path class="cls-2" d="M23.41,108.82l.27.79a1.62,1.62,0,0,0-.87.69c-.4.67-.22,1.48,1.09,2.26s2.09.56,2.5-.13a1.82,1.82,0,0,0,.19-1.22l.8-.11a2.37,2.37,0,0,1-.27,1.81c-.74,1.25-2.15,1.6-3.8.63s-2-2.41-1.26-3.61A2.37,2.37,0,0,1,23.41,108.82Z"/><path class="cls-2" d="M41.3,88l-.42.54,1.78,1.39-.66.85-4.43-3.47,1-1.32c.91-1.16,1.8-1.42,2.68-.74a1.52,1.52,0,0,1,.5,1.84l2.84.35-.76,1Zm-1,.06.41-.53c.41-.53.43-1-.1-1.4s-.9-.26-1.38.35l-.36.46Z"/><path class="cls-2" d="M60.14,63.25,58.66,64.7l1.1,1.12,1.29-1.27.56.57-1.29,1.27,1.16,1.18L63.07,66l.56.57L61.28,68.9l-3.94-4,2.33-2.29Z"/><path class="cls-2" d="M84,47.48,82.56,48.6l.51,1.25-.89.67-2-5.54,1.06-.8L86,47.62l-.91.69ZM83.37,47l-2.19-1.71,1.05,2.57Z"/><path class="cls-2" d="M107.45,27.68l-.16.82a1.62,1.62,0,0,0-1.1.17c-.68.39-.92,1.18-.17,2.5s1.54,1.52,2.23,1.12a1.82,1.82,0,0,0,.77-1l.75.3a2.36,2.36,0,0,1-1.13,1.43c-1.26.72-2.66.33-3.61-1.33s-.51-3.07.69-3.75A2.36,2.36,0,0,1,107.45,27.68Z"/><path class="cls-2" d="M133.55,20.81l-1,.41L130.4,16l1-.41Z"/><path class="cls-2" d="M161.41,8.55c.48,1.79-.15,3.08-1.61,3.48s-2.65-.37-3.15-2.19.16-3.09,1.62-3.48S160.92,6.74,161.41,8.55ZM159,5.07,157.41,6.2l-.4-.45,1.42-1.37Zm-1.28,4.48c.39,1.46,1,1.9,1.84,1.69s1.13-.92.73-2.39-1-1.91-1.83-1.69S157.36,8.09,157.75,9.55Z"/><path class="cls-2" d="M191,5.82,189.61,6l-2.5-4.26A17.92,17.92,0,0,1,187.55,4l.3,2.28-1,.13L186.15.78l1.35-.18L190,4.87A13.9,13.9,0,0,1,189.64,3L189.29.37l1-.13Z"/><path class="cls-2" d="M247.28,3.27c-.27,2.26-1.72,2.65-3.05,2.49l-1.52-.18L243.39,0l1.37.17C246.23.34,247.56,1,247.28,3.27ZM244.35.93l-.48,4,.52.06c.83.1,1.56-.19,1.76-1.83s-.49-2-1.31-2.15Z"/><path class="cls-2" d="M275.95,6.87l-2-.51-.39,1.52,1.75.45-.2.77-1.75-.45-.41,1.6,2.15.55-.2.78-3.19-.82,1.39-5.45,3.16.81Z"/><path class="cls-2" d="M324.74,31.56l-1.12-.61,1.19-5.76,1,.55-1.17,4.69,3.28-3.53,1,.53Z"/><path class="cls-2" d="M350,46.11,348.45,45l-1,.85-.9-.66,4.72-3.51,1.07.78L350.39,48l-.92-.67Zm.3-.79,1-2.59-2.16,1.75Z"/><path class="cls-2" d="M370.85,64.08l1.64,1.55-.69.55L369.46,64l3.87-4.08.78.74Z"/><path class="cls-2" d="M393.76,86.11c-1.44,1.17-2.88,1.12-3.83,0s-.75-2.57.71-3.76,2.88-1.11,3.83.05S395.22,84.92,393.76,86.11Zm-2.4-2.93c-1.17,1-1.31,1.73-.79,2.37s1.3.65,2.48-.31,1.33-1.7.79-2.36S392.53,82.22,391.36,83.18Z"/><path class="cls-2" d="M409,108.79l-.36-.58-1.92,1.18-.56-.91,4.79-2.94.88,1.43c.77,1.25.71,2.18-.24,2.76a1.52,1.52,0,0,1-1.89-.17l-1.32,2.54-.65-1.05Zm.3-1,.35.57c.35.57.77.75,1.35.39s.56-.75.15-1.42l-.3-.49Z"/></g></g></svg>
