<svg xmlns="http://www.w3.org/2000/svg" viewBox="0 0 443.99 450.87"><defs><style>.cls-1{fill:none;stroke:#b2b2b2;stroke-miterlimit:10;stroke-width:0.5px;}.cls-2{font-size:8.14px;fill:#878787;font-family:FiraSans-Medium, Fira Sans;}</style></defs><title>creacion-de-valor</title><g id="Layer_2" data-name="Layer 2"><g id="Capa_1" data-name="Capa 1"><circle class="cls-1" cx="222" cy="228.87" r="217.67"/><text class="cls-2" transform="matrix(0.51, -0.86, 0.86, 0.51, 29.67, 117.9)">C</text><text class="cls-2" transform="translate(45.69 93.93) rotate(-51.89)">R</text><text class="cls-2" transform="matrix(0.71, -0.7, 0.7, 0.71, 64.93, 71.97)">E</text><text class="cls-2" transform="matrix(0.8, -0.6, 0.6, 0.8, 86.35, 53.11)">A</text><text class="cls-2" transform="translate(110.14 37.06) rotate(-29.7)">C</text><text class="cls-2" transform="translate(135.92 24.18) rotate(-22.52)">I</text><text class="cls-2" transform="matrix(0.97, -0.26, 0.26, 0.97, 161.03, 15.33)">Ó</text><text class="cls-2" transform="translate(190.21 9.12) rotate(-7.45)">N</text><text class="cls-2" transform="matrix(1, -0.02, 0.02, 1, 219.81, 6.9)"> </text><text class="cls-2" transform="translate(246.02 8.15) rotate(6.82)">D</text><text class="cls-2" transform="translate(275.05 13.25) rotate(14.34)">E</text><text class="cls-2" transform="matrix(0.93, 0.37, -0.37, 0.93, 302.27, 21.83)"> </text><text class="cls-2" transform="translate(326.13 32.75) rotate(28.61)">V</text><text class="cls-2" transform="translate(350.35 47.71) rotate(35.98)">A</text><text class="cls-2" transform="translate(372.82 65.96) rotate(43.33)">L</text><text class="cls-2" transform="matrix(0.63, 0.77, -0.77, 0.63, 392.29, 86.42)">O</text><text class="cls-2" transform="translate(409.86 110.52) rotate(58.38)">R</text></g></g></svg>
