<svg xmlns="http://www.w3.org/2000/svg" viewBox="0 0 213.16 211.57"><defs><style>.cls-1{fill:none;stroke:#b2b2b2;stroke-miterlimit:10;stroke-width:0.5px;}.cls-2{fill:#878787;}</style></defs><title>cumplimiento</title><g id="Layer_2" data-name="Layer 2"><g id="Capa_1" data-name="Capa 1"><circle class="cls-1" cx="106.83" cy="110.41" r="100.91"/><path class="cls-2" d="M1.11,78.51l.46.7a1.62,1.62,0,0,0-.67.89c-.21.75.17,1.48,1.64,1.9s2.16,0,2.38-.77A1.82,1.82,0,0,0,4.8,80l.75-.31a2.36,2.36,0,0,1,.2,1.81c-.39,1.4-1.66,2.1-3.5,1.58S-.28,81.26.1,79.93A2.36,2.36,0,0,1,1.11,78.51Z"/><path class="cls-2" d="M14.42,56.26A1.89,1.89,0,0,1,15.1,59a1.86,1.86,0,0,1-2.73.86l-3.3-1.85.53-.94,3.25,1.82c.69.39,1.18.3,1.52-.3s.16-1.08-.53-1.46l-3.25-1.82.53-.94Z"/><path class="cls-2" d="M32.2,36.16l-.72.76-1.81-1.51c-.64-.53-1.3-1.1-1.72-1.52l2.23,3.52-.7.74-3.69-2a22.7,22.7,0,0,1,1.68,1.63l1.59,1.69-.71.76-3.78-4.18.95-1,3.55,2-2.22-3.39,1-1Z"/><path class="cls-2" d="M49.67,17.48c.7,1.09.23,2.08-.84,2.77l-.55.36,1.06,1.65-.9.58-3-4.72,1.39-.9C48,16.44,49,16.46,49.67,17.48Zm-.94.61c-.38-.59-.9-.61-1.52-.21l-.49.31,1.12,1.74.49-.31C48.93,19.22,49.17,18.77,48.73,18.08Z"/><path class="cls-2" d="M71.22,10.42l2.13-.75.18.87-3,1.06L68.63,6.3l1-.36Z"/><path class="cls-2" d="M95,5.83,93.92,6,93.27.37,94.34.25Z"/><path class="cls-2" d="M121.62,6.17l-1-.12.12-2.35c0-.83.1-1.7.19-2.29l-1.47,3.9-1-.11L117.77,1a22.54,22.54,0,0,1-.29,2.32l-.4,2.29-1-.12L117.12,0l1.38.16.55,4L120.42.37l1.39.16Z"/><path class="cls-2" d="M143,11.57l-1-.36,1.91-5.29,1,.36Z"/><path class="cls-2" d="M167.43,18.52l-1.75-1.12-.85,1.32,1.52,1-.43.67-1.52-1-.89,1.39,1.87,1.2-.43.68-2.77-1.77,3-4.73L168,17.91Z"/><path class="cls-2" d="M184.09,38.93l-1-1,1.94-4.54a17.9,17.9,0,0,1-1.52,1.67l-1.65,1.59-.68-.7,4-3.9.94,1-1.92,4.57a14,14,0,0,1,1.28-1.44l1.9-1.83.68.7Z"/><path class="cls-2" d="M202.79,56.55,202,55.29l-4.11,2.41-.55-.93,4.11-2.41-.77-1.31.74-.43,2.11,3.6Z"/><path class="cls-2" d="M211,81.35c-1.77.54-3.09-.06-3.52-1.5s.29-2.66,2.08-3.21,3.09.06,3.53,1.5S212.75,80.8,211,81.35Zm-1.11-3.62c-1.45.44-1.87,1.1-1.63,1.89s1,1.1,2.41.65,1.88-1.07,1.63-1.88S211.29,77.28,209.84,77.72Z"/></g></g></svg>
