<svg xmlns="http://www.w3.org/2000/svg" viewBox="0 0 337.26 341.66"><defs><style>.cls-1{fill:none;stroke:#b2b2b2;stroke-miterlimit:10;stroke-width:0.5px;}.cls-2{fill:#878787;}</style></defs><title>desarrollo-sustentable</title><g id="Layer_2" data-name="Layer 2"><g id="Capa_1" data-name="Capa 1"><g id="desarrollo-sustentable"><circle class="cls-1" cx="169.01" cy="175.63" r="165.78"/><path class="cls-2" d="M3.88,124c2.18.65,2.32,2.14,1.94,3.43l-.44,1.47L0,127.31.39,126C.82,124.57,1.65,123.35,3.88,124Zm-2.8,2.49,3.84,1.14.15-.51c.24-.8.08-1.57-1.51-2s-2.1.14-2.34.93Z"/><path class="cls-2" d="M9.38,104l-.83,1.9,1.44.63.73-1.65.73.32-.73,1.65,1.51.66.89-2,.74.32-1.32,3-5.15-2.26,1.31-3Z"/><path class="cls-2" d="M19.05,85l.26.77a1.89,1.89,0,0,0-1.05.84c-.26.43-.25.87.13,1.09s.62.11,1.34-.55,1.46-1.07,2.37-.53,1.08,1.56.4,2.71a2.8,2.8,0,0,1-1.7,1.35l-.25-.79a2.14,2.14,0,0,0,1.22-1c.31-.52.27-1-.2-1.32s-.71-.14-1.39.48c-.91.83-1.58,1-2.32.6a1.68,1.68,0,0,1-.37-2.44A2.53,2.53,0,0,1,19.05,85Z"/><path class="cls-2" d="M33.57,70.55,32.44,72l.82,1.07-.68.88-3.39-4.81L30,68.12l5.52,2-.69.9Zm-.78-.32-2.57-1.07,1.69,2.2Z"/><path class="cls-2" d="M46.15,54.75l-.48.49,1.61,1.58-.75.77-4-3.94,1.18-1.19c1-1,1.95-1.21,2.74-.43a1.52,1.52,0,0,1,.29,1.88l2.78.67-.87.88Zm-1-.06.47-.48c.47-.48.54-.93.06-1.4s-.87-.36-1.41.2l-.41.41Z"/><path class="cls-2" d="M62,40.48l-.54.42,1.4,1.77-.84.67-3.49-4.41,1.31-1c1.15-.91,2.08-1,2.77-.09a1.52,1.52,0,0,1,.05,1.9l2.67,1-1,.77Zm-1-.18.52-.41c.52-.41.65-.86.23-1.39s-.81-.47-1.43,0l-.45.36Z"/><path class="cls-2" d="M81.61,26.38c1,1.59.71,3-.58,3.78s-2.65.38-3.62-1.23-.7-3,.59-3.79S80.64,24.77,81.61,26.38Zm-3.24,2c.78,1.29,1.53,1.54,2.23,1.11s.83-1.19,0-2.5-1.5-1.55-2.23-1.12S77.59,27.05,78.38,28.34Z"/><path class="cls-2" d="M98.85,19.66l2.06-.92.25.85L98.23,20.9l-2.3-5.13,1-.44Z"/><path class="cls-2" d="M117.85,12.44l2.15-.67.14.88-3.06.95-1.67-5.37,1-.32Z"/><path class="cls-2" d="M140.36,5.06c.33,1.83-.41,3.06-1.9,3.33s-2.61-.59-2.95-2.44.42-3.06,1.9-3.33S140,3.21,140.36,5.06Zm-3.73.68c.27,1.49.88,2,1.69,1.84s1.2-.82.93-2.32-.85-2-1.68-1.84S136.36,4.25,136.63,5.74Z"/><path class="cls-2" d="M179.74.79l-.56.58a1.89,1.89,0,0,0-1.24-.54c-.5,0-.88.18-.9.62s.19.6,1.11.94,1.63.8,1.58,1.86-.88,1.68-2.22,1.62a2.8,2.8,0,0,1-2-.87l.58-.59a2.15,2.15,0,0,0,1.42.63c.6,0,1-.24,1.08-.79s-.2-.69-1.07-1c-1.16-.43-1.65-.92-1.61-1.78s.88-1.51,2-1.46A2.53,2.53,0,0,1,179.74.79Z"/><path class="cls-2" d="M200.9,6.63a1.88,1.88,0,0,1-2.4,1.57,1.86,1.86,0,0,1-1.71-2.29l.65-3.73,1.06.19L197.85,6c-.14.78.11,1.22.79,1.34s1.07-.21,1.2-1l.64-3.67,1.07.19Z"/><path class="cls-2" d="M222.19,8.68l-.68.43a1.89,1.89,0,0,0-1.07-.83c-.48-.15-.9,0-1,.38s0,.62.85,1.18S221.64,11,221.33,12s-1.26,1.42-2.54,1a2.8,2.8,0,0,1-1.71-1.33l.71-.43a2.15,2.15,0,0,0,1.22,1c.58.18,1.07,0,1.23-.5s0-.72-.79-1.24c-1-.7-1.37-1.3-1.12-2.11a1.68,1.68,0,0,1,2.28-.93A2.53,2.53,0,0,1,222.19,8.68Z"/><path class="cls-2" d="M241.77,16.57l-1.34-.6-1.94,4.35-1-.44,1.94-4.35-1.38-.62.35-.78,3.81,1.7Z"/><path class="cls-2" d="M260,26.19l-1.78-1.06-.8,1.35,1.55.92-.41.69L257,27.16l-.84,1.42,1.91,1.14-.41.69-2.83-1.69,2.88-4.83,2.8,1.67Z"/><path class="cls-2" d="M275.06,42.62l-1.1-.86L275.24,37A18,18,0,0,1,274,38.85l-1.41,1.81-.77-.6,3.46-4.44,1.07.84-1.25,4.8a13.92,13.92,0,0,1,1.07-1.61l1.62-2.08.77.6Z"/><path class="cls-2" d="M293.93,53.26l-1-1-3.37,3.37-.77-.77,3.37-3.37-1.07-1.07.6-.6,3,3Z"/><path class="cls-2" d="M304.18,70.23,303,68.76l-1.24.53-.69-.88,5.5-2.1.82,1-3.34,4.85-.71-.9Zm.5-.68,1.67-2.22-2.55,1.1Z"/><path class="cls-2" d="M317.08,88.58c-1.06.64-1.9,0-2.61-1.17L313.6,86,318.4,83l.76,1.26c.75,1.24.86,2.2,0,2.73a1.23,1.23,0,0,1-1.58-.26A1.33,1.33,0,0,1,317.08,88.58Zm-.55-1c.58-.35.52-.88.2-1.42l-.38-.63-1.5.91.33.54C315.53,87.61,315.93,88,316.53,87.6Zm1.75-3.23-1.3.79.34.56c.3.5.73.69,1.18.42s.42-.71,0-1.34Z"/><path class="cls-2" d="M324.83,105.15l.93,2.05-.85.25-1.32-2.92,5.12-2.31.44,1Z"/><path class="cls-2" d="M336.47,124.9l-.62-2-1.5.47.54,1.72-.76.24-.54-1.72-1.58.49.66,2.12-.77.24-1-3.15,5.37-1.68,1,3.11Z"/></g></g></g></svg>
