<svg xmlns="http://www.w3.org/2000/svg" viewBox="0 0 124.16 142.93"><defs><style>.cls-1,.cls-2{fill:#5770b4;}.cls-2{font-size:8.83px;font-family:FiraSans-Medium, Fira Sans;letter-spacing:-0.02em;}.cls-3{letter-spacing:-0.03em;}.cls-4{font-size:7.95px;font-family:FiraSans-Light, Fira Sans;letter-spacing:-0.02em;}.cls-5{letter-spacing:-0.04em;}.cls-6{letter-spacing:-0.05em;}.cls-7{letter-spacing:-0.03em;}.cls-8{letter-spacing:-0.03em;}.cls-9{fill:#fff;}</style></defs><title>empresa</title><g id="Layer_2" data-name="Layer 2"><g id="Capa_1" data-name="Capa 1"><circle class="cls-1" cx="25.04" cy="25.04" r="25.04"/><text class="cls-2" transform="translate(0 64.18)">Emp<tspan class="cls-3" x="16.79" y="0">r</tspan><tspan x="19.96" y="0">esa</tspan><tspan class="cls-4"><tspan x="0" y="12.37">1. De</tspan><tspan class="cls-5" x="15.46" y="12.37">r</tspan><tspan x="18.14" y="12.37">echos humanos</tspan><tspan x="0" y="22.97">2. Capacitación</tspan><tspan x="0" y="33.57">3. </tspan><tspan class="cls-6" x="7.13" y="33.57">R</tspan><tspan x="11.42" y="33.57">e</tspan><tspan class="cls-5" x="15.5" y="33.57">c</tspan><tspan x="18.95" y="33.57">onocimien</tspan><tspan class="cls-7" x="54.61" y="33.57">t</tspan><tspan x="57.04" y="33.57">o</tspan><tspan x="0" y="44.17">4. </tspan><tspan class="cls-5" x="7.39" y="44.17">C</tspan><tspan x="11.48" y="44.17">ome</tspan><tspan class="cls-7" x="26.48" y="44.17">r</tspan><tspan class="cls-8" x="29.17" y="44.17">cio jus</tspan><tspan class="cls-5" x="50.85" y="44.17">t</tspan><tspan x="53.28" y="44.17">o</tspan><tspan x="0" y="54.77">5. </tspan><tspan class="cls-6" x="7.14" y="54.77">R</tspan><tspan x="11.43" y="54.77">entabilidad y eficiencia</tspan><tspan x="0" y="65.37">6. Seguridad, salud e higiene</tspan></tspan></text><path class="cls-9" d="M16.34,18.11c1.28,0,2.31-1.48,2.31-2.76a2.31,2.31,0,0,0-4.63,0C14,16.63,15.06,18.11,16.34,18.11Z"/><path class="cls-9" d="M33.74,18.11c1.28,0,2.32-1.48,2.32-2.76a2.32,2.32,0,0,0-4.63,0C31.43,16.63,32.47,18.11,33.74,18.11Z"/><path class="cls-9" d="M17.93,28.2a2.06,2.06,0,0,1-.44-1.52l.9-8.13a10.18,10.18,0,0,0-2.06-.25,13.65,13.65,0,0,0-3.91.77h-.07l0,0a.7.7,0,0,0-.24.15.44.44,0,0,0-.08.1.8.8,0,0,0-.13.17.91.91,0,0,0-.06.18,1,1,0,0,0,0,.13L11,26.43a.92.92,0,0,0,.81,1h.1a.91.91,0,0,0,.91-.81l.67-6,.25-.07v6.24L13,35.86a1.1,1.1,0,0,0,1,1.19h.09a1.09,1.09,0,0,0,1.09-1l.66-8.19a1.09,1.09,0,0,0,.44.09,1.14,1.14,0,0,0,.45-.09L17.44,36a1.1,1.1,0,0,0,1.09,1h.09a1.1,1.1,0,0,0,1-1.19l-.56-7A2,2,0,0,1,17.93,28.2Z"/><path class="cls-9" d="M38.31,19.84a1.07,1.07,0,0,0,0-.13,1,1,0,0,0-.06-.19.74.74,0,0,0-.1-.14,1.1,1.1,0,0,0-.12-.13.86.86,0,0,0-.17-.1.55.55,0,0,0-.11-.07,13.79,13.79,0,0,0-4-.79,10.09,10.09,0,0,0-2.06.26l.9,8.13a2.07,2.07,0,0,1-.44,1.52A2,2,0,0,1,31,28.9l-.56,7a1.09,1.09,0,0,0,1,1.18h.09a1.09,1.09,0,0,0,1.09-1l.66-8.19a1.1,1.1,0,0,0,.44.09,1.14,1.14,0,0,0,.45-.09L34.85,36a1.1,1.1,0,0,0,1.09,1H36a1.09,1.09,0,0,0,1-1.18l-.73-9.05V20.56l.26.08.67,6a.92.92,0,0,0,.91.81h.1a.92.92,0,0,0,.81-1Z"/><path class="cls-9" d="M25,16.36c1.6,0,2.9-1.85,2.9-3.45a2.9,2.9,0,0,0-5.79,0C22.14,14.51,23.44,16.36,25,16.36Z"/><path class="cls-9" d="M30.66,28a1.14,1.14,0,0,0,1-1.26l-.92-8.25a1.12,1.12,0,0,0,0-.16A.73.73,0,0,0,30.5,18a1.2,1.2,0,0,0-.14-.16,1.39,1.39,0,0,0-.22-.14s-.08-.06-.14-.08a18.12,18.12,0,0,0-4.53-1H24.6a18.36,18.36,0,0,0-4.45.94l-.05,0h0l-.06,0a1.15,1.15,0,0,0-.3.18l-.1.12a.78.78,0,0,0-.23.44c0,.05,0,.1-.05.16l-.91,8.25a1.14,1.14,0,0,0,1,1.26h.13a1.15,1.15,0,0,0,1.14-1l.83-7.51.32-.09v7.82l-.91,11.33a1.38,1.38,0,0,0,1.26,1.48h.11a1.37,1.37,0,0,0,1.37-1.26l.82-10.25a1.38,1.38,0,0,0,1.11,0l.82,10.25a1.38,1.38,0,0,0,1.37,1.26h.11a1.38,1.38,0,0,0,1.26-1.48l-.91-11.33V19.43l.32.09L29.4,27a1.15,1.15,0,0,0,1.14,1Z"/></g></g></svg>
