<svg xmlns="http://www.w3.org/2000/svg" viewBox="0 0 187.4 187.27"><defs><style>.cls-1{fill:#c49c5c;}.cls-2{fill:#fff;}</style></defs><title>innovacion-disruptiva</title><g id="Layer_2" data-name="Layer 2"><g id="Capa_1" data-name="Capa 1"><g id="inovacion-disruptiva"><path class="cls-1" d="M28.83,93.57A64.86,64.86,0,0,1,88.51,28.93L88.46,0A93.73,93.73,0,0,0,10,135.73l25-14.45A64.6,64.6,0,0,1,28.83,93.57Z"/><path class="cls-1" d="M93.7,158.44A64.79,64.79,0,0,1,40.09,130.1l-25,14.45a93.71,93.71,0,0,0,157.07.28l-25-14.47A64.79,64.79,0,0,1,93.7,158.44Z"/><path class="cls-1" d="M158.57,93.57a64.61,64.61,0,0,1-6.33,28l25,14.47A93.73,93.73,0,0,0,98.63,0l0,28.91A64.86,64.86,0,0,1,158.57,93.57Z"/><path class="cls-2" d="M7.06,108.91l.42.21a1.88,1.88,0,0,0-.21,1.35c.22,1.07,1.15,1.8,3.11,1.41s2.53-1.4,2.31-2.48a2,2,0,0,0-.79-1.26l.29-.35a2.36,2.36,0,0,1,1,1.53c.29,1.42-.6,2.7-2.67,3.12S7.09,112,6.81,110.6A2.27,2.27,0,0,1,7.06,108.91Z"/><path class="cls-2" d="M9.67,103.48c1.53-.22,2.59.4,2.77,1.66s-.66,2.14-2.18,2.36-2.58-.42-2.76-1.66S8.12,103.7,9.67,103.48Zm.51,3.45c1.33-.19,1.94-.83,1.82-1.73s-.89-1.36-2.25-1.17-1.94.82-1.81,1.74S8.82,107.13,10.18,106.93Z"/><path class="cls-2" d="M8.22,98.53l3.41-.27,0,.53-3.34.27c-.78.06-1.08.41-1,1a1.79,1.79,0,0,0,1.1,1.4l3.46-.27,0,.53-4.77.38,0-.46.81-.12a1.91,1.91,0,0,1-1-1.52C6.8,99.11,7.3,98.6,8.22,98.53Z"/><path class="cls-2" d="M5,93.28a.4.4,0,1,1-.38.4A.38.38,0,0,1,5,93.28Zm6.51.11v.53H6.72v-.53Z"/><path class="cls-2" d="M8.25,88l3.42.15,0,.53L8.3,88.49c-.79,0-1.12.27-1.15.86a1.8,1.8,0,0,0,.92,1.53l3.46.15,0,.53-4.78-.21,0-.46.82,0a1.9,1.9,0,0,1-.84-1.64C6.77,88.35,7.33,87.91,8.25,88Z"/><path class="cls-2" d="M8.77,82.5l3.4.37-.06.53L8.79,83c-.78-.08-1.14.2-1.2.78a1.8,1.8,0,0,0,.82,1.58l3.45.37-.06.53L7,85.78l.05-.45.82,0a1.9,1.9,0,0,1-.74-1.69A1.27,1.27,0,0,1,8.77,82.5Z"/><path class="cls-2" d="M10.68,77.08c1.53.26,2.34,1.19,2.13,2.43s-1.28,1.83-2.8,1.57-2.33-1.19-2.12-2.43S9.14,76.82,10.68,77.08Zm-.58,3.44c1.33.23,2.1-.18,2.26-1.09s-.43-1.57-1.78-1.8-2.1.19-2.25,1.1S8.75,80.29,10.11,80.52Z"/><path class="cls-2" d="M13.72,74.58l-.15.64-5,.58.13-.57,4.54-.44L9.3,72.44l.13-.55Z"/><path class="cls-2" d="M15,68.78l.33.22a.83.83,0,0,1-1,.49,1.65,1.65,0,0,1,.36,1.66,1.36,1.36,0,0,1-1.79,1c-1-.28-1.27-1.16-.93-2.34l.25-.88-.45-.13a.94.94,0,0,0-1.36.76,3.92,3.92,0,0,0-.1,1.32l-.42,0A4,4,0,0,1,10,69.38a1.36,1.36,0,0,1,1.9-1.08l2.21.64C14.66,69.09,14.85,69,15,68.78Zm-1.12.65-1.27-.37-.23.8c-.27.92-.06,1.55.67,1.76a.93.93,0,0,0,1.27-.68A1.45,1.45,0,0,0,13.89,69.43Z"/><path class="cls-2" d="M12.58,63.19l.24.37a1.58,1.58,0,0,0-.71.88c-.29.82.15,1.62,1.45,2.08s2.09.09,2.38-.73a1.72,1.72,0,0,0,0-1.18l.42-.12a2.06,2.06,0,0,1,0,1.46c-.41,1.16-1.53,1.62-3,1.1s-2.12-1.59-1.71-2.74A1.92,1.92,0,0,1,12.58,63.19Z"/><path class="cls-2" d="M11.39,60.49a.4.4,0,1,1-.51.23A.38.38,0,0,1,11.39,60.49Zm6,2.53-.2.49-4.45-1.77.2-.49Z"/><path class="cls-2" d="M13.06,56.19l0,1.95-.36,0-.15-2Zm4.35.76c1.41.64,2,1.73,1.45,2.88s-1.7,1.45-3.1.82-2-1.74-1.44-2.88S16,56.3,17.41,56.95ZM16,60.13c1.23.55,2.08.35,2.46-.49s0-1.62-1.27-2.19-2.07-.34-2.45.5S14.74,59.57,16,60.13Z"/><path class="cls-2" d="M18.85,52l3,1.6-.25.47-3-1.57c-.7-.37-1.13-.24-1.4.28a1.8,1.8,0,0,0,.18,1.77l3.06,1.62-.25.47L16,54.38l.22-.4.74.33a1.9,1.9,0,0,1-.06-1.84A1.27,1.27,0,0,1,18.85,52Z"/><path class="cls-2" d="M20.3,43.34,25.93,47l-.25.38L25,47.07a1.6,1.6,0,0,1-.09,1.66c-.61.93-1.78,1-3,.14s-1.72-2-1.07-2.95a1.66,1.66,0,0,1,1.28-.77L20,43.75Zm4.31,3.47-2.09-1.37a1.49,1.49,0,0,0-1.29.65c-.46.7-.17,1.57,1,2.31s2,.7,2.42,0A1.47,1.47,0,0,0,24.61,46.81Z"/><path class="cls-2" d="M22.13,41.18a.4.4,0,1,1-.55.1A.38.38,0,0,1,22.13,41.18Zm5.19,3.92-.31.43-3.88-2.8.31-.43Z"/><path class="cls-2" d="M26.69,38.75l.12.41a2.06,2.06,0,0,0-1.13.72c-.39.5-.41,1,0,1.33s.72.18,1.43-.35,1.45-.82,2.09-.32a1.51,1.51,0,0,1,0,2.22,2.52,2.52,0,0,1-1.54,1l-.09-.44a2.12,2.12,0,0,0,1.27-.8c.43-.55.47-1.13,0-1.49s-.78-.28-1.62.34-1.39.73-1.91.31a1.41,1.41,0,0,1,0-2A2.35,2.35,0,0,1,26.69,38.75Z"/><path class="cls-2" d="M28.94,35.39l.32.4a1.5,1.5,0,0,0-.32.28c-.44.51-.31,1.09.26,1.92l2.22,1.91-.35.4-3.62-3.13.3-.35.84.67a1.39,1.39,0,0,1,0-1.79A1.8,1.8,0,0,1,28.94,35.39Z"/><path class="cls-2" d="M35.58,35.4l-.32.33-.63-.57a1.74,1.74,0,0,1-.4,1.79,1.28,1.28,0,0,1-2,0l-2.47-2.37.37-.38,2.43,2.33c.55.53,1,.52,1.43.07a1.64,1.64,0,0,0,.26-1.69l-2.5-2.4.37-.38Z"/><path class="cls-2" d="M38,29.82c1,1.11,1.24,2.28.36,3.09a1.69,1.69,0,0,1-1.45.44l1.6,1.74-.34.41-4.5-4.91.34-.31.5.48A1.8,1.8,0,0,1,35,29.18C35.92,28.38,37,28.68,38,29.82Zm-.42.38c-.92-1-1.7-1.2-2.31-.64a1.64,1.64,0,0,0-.44,1.52L36.56,33A1.47,1.47,0,0,0,38,32.65C38.63,32.05,38.51,31.22,37.58,30.21Z"/><path class="cls-2" d="M42.37,29.07a1.79,1.79,0,0,1-.58.88,1.11,1.11,0,0,1-1.71-.23l-2-2.46-.62.51-.27-.33.62-.51L37,26l.37-.39.77.93,1-.79.23.37-.9.75,2,2.44c.36.43.7.5,1.08.19a1.41,1.41,0,0,0,.43-.63Z"/><path class="cls-2" d="M39.74,23.15a.4.4,0,1,1-.55-.06A.38.38,0,0,1,39.74,23.15Zm3.87,5.23-.42.32-2.92-3.79.42-.32Z"/><path class="cls-2" d="M46.36,26.36l-.54.38-4.17-2.91.48-.34,3.69,2.68-1.35-4.34.46-.33Z"/><path class="cls-2" d="M51.2,22.86l.1.38A.83.83,0,0,1,50.24,23a1.65,1.65,0,0,1-.83,1.48,1.36,1.36,0,0,1-2-.41c-.54-.85-.19-1.71.85-2.37l.77-.49-.25-.39a.94.94,0,0,0-1.52-.34,3.89,3.89,0,0,0-1,.93L46,21.09A4,4,0,0,1,47.07,20a1.36,1.36,0,0,1,2.13.45l1.23,1.95C50.72,22.86,50.92,22.91,51.2,22.86Zm-1.27-.26-.7-1.11-.7.44c-.81.51-1.07,1.12-.66,1.76a.93.93,0,0,0,1.4.33A1.45,1.45,0,0,0,49.93,22.6Z"/><path class="cls-2" d="M57,17.31c.69,1.35.58,2.53-.48,3.07a1.68,1.68,0,0,1-1.51,0l1.07,2.1-.44.31-3-5.94.41-.21.36.6a1.8,1.8,0,0,1,1-1.38C55.35,15.37,56.27,15.94,57,17.31Zm-.5.26c-.62-1.22-1.32-1.61-2.06-1.23a1.64,1.64,0,0,0-.82,1.35L54.74,20A1.47,1.47,0,0,0,56.2,20C57,19.63,57.09,18.8,56.46,17.57Z"/><path class="cls-2" d="M62.33,17.28l0,.39a.83.83,0,0,1-1-.44,1.65,1.65,0,0,1-1,1.34,1.36,1.36,0,0,1-1.93-.71c-.4-.92.08-1.72,1.2-2.21l.84-.37-.19-.43a.94.94,0,0,0-1.46-.56,3.9,3.9,0,0,0-1.08.77l-.29-.31a4,4,0,0,1,1.26-.9,1.36,1.36,0,0,1,2,.77l.92,2.11C61.86,17.2,62.06,17.29,62.33,17.28Zm-1.22-.45-.53-1.21-.76.33c-.88.39-1.23.95-.92,1.64a.93.93,0,0,0,1.33.54A1.45,1.45,0,0,0,61.12,16.83Z"/><path class="cls-2" d="M64.29,11.65l.08.51a1.5,1.5,0,0,0-.41.1c-.63.24-.79.81-.68,1.82l1,2.74-.5.19-1.7-4.48.43-.16.42,1a1.39,1.39,0,0,1,.85-1.58A1.83,1.83,0,0,1,64.29,11.65Z"/><path class="cls-2" d="M69.76,14.64V15a.83.83,0,0,1-1-.53,1.65,1.65,0,0,1-1.17,1.23,1.36,1.36,0,0,1-1.85-.89c-.31-1,.24-1.71,1.4-2.09l.87-.29L67.92,12a.94.94,0,0,0-1.39-.7,3.87,3.87,0,0,0-1.15.67l-.26-.34a4,4,0,0,1,1.33-.78,1.36,1.36,0,0,1,2,1L69.13,14C69.3,14.52,69.48,14.62,69.76,14.64Zm-1.17-.56-.41-1.25-.79.26c-.91.3-1.31.82-1.07,1.55a.93.93,0,0,0,1.28.66A1.45,1.45,0,0,0,68.59,14.08Z"/><path class="cls-2" d="M56.35,153.84l-.45.14a1.89,1.89,0,0,0-.8-1.11c-.91-.6-2.09-.46-3.19,1.2s-.8,2.77.11,3.38a2,2,0,0,0,1.45.34l0,.45a2.36,2.36,0,0,1-1.77-.4c-1.2-.8-1.48-2.33-.31-4.09s2.74-2.05,3.9-1.29A2.27,2.27,0,0,1,56.35,153.84Z"/><path class="cls-2" d="M58.66,159.08c-.77,1.34-1.91,1.79-3,1.17s-1.28-1.83-.52-3.17,1.92-1.78,3-1.16S59.44,157.72,58.66,159.08Zm-3-1.72c-.67,1.17-.55,2,.25,2.5s1.62.14,2.3-1.05.54-2-.26-2.49S56.31,156.17,55.63,157.36Z"/><path class="cls-2" d="M63.72,160.42l-1.47,3.09-.48-.23,1.44-3c.34-.71.19-1.14-.34-1.39a1.8,1.8,0,0,0-1.76.25l-1.49,3.13-.48-.23,2.06-4.32.41.2-.3.76a1.9,1.9,0,0,1,1.84-.14A1.27,1.27,0,0,1,63.72,160.42Z"/><path class="cls-2" d="M69.92,166.48l-.43-.15.26-.81a1.74,1.74,0,0,1-1.79.38,1.28,1.28,0,0,1-.79-1.83l1.13-3.23.5.18-1.12,3.18c-.25.72-.06,1.12.53,1.33a1.64,1.64,0,0,0,1.65-.46L71,161.79l.5.18Z"/><path class="cls-2" d="M76.3,164.73,75.41,168l-.51-.14.87-3.24c.2-.76,0-1.15-.59-1.3a1.8,1.8,0,0,0-1.69.57l-.9,3.35-.51-.14,1.24-4.62.44.12-.16.8a1.9,1.9,0,0,1,1.78-.47A1.27,1.27,0,0,1,76.3,164.73Z"/><path class="cls-2" d="M83.85,167.4l-3.16-.5c-.14,1.29.37,1.92,1.19,2.05a2,2,0,0,0,1.35-.27l.19.37a2.37,2.37,0,0,1-1.64.33c-1.25-.2-1.87-1.22-1.62-2.74s1.13-2.39,2.29-2.21,1.7,1.19,1.48,2.58C83.91,167.17,83.87,167.31,83.85,167.4Zm-.41-.62c.16-1-.15-1.76-1-1.9-.74-.12-1.38.34-1.64,1.61l2.66.42Z"/><path class="cls-2" d="M89.13,165.31l-.58,6.64-.52-.12.22-2.49a1.61,1.61,0,0,1-1.49.67c-1.11-.1-1.7-1.1-1.57-2.62s.92-2.45,2.1-2.34a1.69,1.69,0,0,1,1.31.79l.09-.57Zm-.84,3.51.22-2.51a1.48,1.48,0,0,0-1.18-.82c-.85-.07-1.48.6-1.58,1.94s.32,2.08,1.14,2.15A1.46,1.46,0,0,0,88.29,168.82Z"/><path class="cls-2" d="M94.35,170.25h-.46v-.85a1.74,1.74,0,0,1-1.59.91,1.28,1.28,0,0,1-1.31-1.5l.1-3.42h.53l-.1,3.37c0,.76.29,1.09.91,1.11a1.64,1.64,0,0,0,1.43-.94l.1-3.47.53,0Z"/><path class="cls-2" d="M96.82,163.64a.4.4,0,1,1-.42-.37A.38.38,0,0,1,96.82,163.64Zm.12,6.51-.53,0-.18-4.78.53,0Z"/><path class="cls-2" d="M102.58,167.29c.14,1.5-.4,2.57-1.58,2.67a1.69,1.69,0,0,1-1.42-.53l.22,2.35-.52.12-.61-6.64.46,0,.11.69a1.79,1.79,0,0,1,1.39-.93C101.8,164.88,102.44,165.75,102.58,167.29Zm-.57.05c-.12-1.36-.62-2-1.45-1.91a1.64,1.64,0,0,0-1.27.94l.23,2.54a1.47,1.47,0,0,0,1.32.61C101.73,169.45,102.14,168.71,102,167.35Z"/><path class="cls-2" d="M107.92,166.47c.25,1.53-.35,2.6-1.6,2.81s-2.15-.61-2.4-2.13.36-2.59,1.6-2.8S107.67,164.92,107.92,166.47Zm-3.44.59c.22,1.33.87,1.93,1.77,1.78s1.34-.92,1.12-2.27-.87-1.92-1.78-1.77S104.26,165.7,104.48,167.06Z"/><path class="cls-2" d="M114.43,162.81l-.17.41a1.58,1.58,0,0,0-1.12-.08c-.84.23-1.25,1-.89,2.38s1.11,1.78,1.95,1.55a1.71,1.71,0,0,0,1-.68l.34.28a2.07,2.07,0,0,1-1.19.85c-1.18.32-2.2-.34-2.61-1.84s.11-2.65,1.29-3A1.91,1.91,0,0,1,114.43,162.81Z"/><path class="cls-2" d="M120.1,165.27v.39a.83.83,0,0,1-1-.52,1.65,1.65,0,0,1-1.15,1.24,1.36,1.36,0,0,1-1.87-.87c-.32-1,.22-1.71,1.38-2.11l.87-.29-.15-.44a.94.94,0,0,0-1.4-.68,3.9,3.9,0,0,0-1.14.68l-.26-.34a4,4,0,0,1,1.33-.79,1.36,1.36,0,0,1,2,.93l.74,2.18C119.64,165.16,119.83,165.26,120.1,165.27Zm-1.17-.55-.42-1.25-.79.27c-.91.31-1.3.84-1.06,1.56a.93.93,0,0,0,1.28.65A1.45,1.45,0,0,0,118.93,164.72Z"/><path class="cls-2" d="M124.38,161.2c.59,1.39.4,2.57-.7,3a1.69,1.69,0,0,1-1.51-.08l.92,2.18-.46.27L120,160.46l.42-.18.31.62a1.8,1.8,0,0,1,1-1.31C122.9,159.14,123.77,159.78,124.38,161.2Zm-.52.22c-.53-1.26-1.2-1.7-2-1.38a1.64,1.64,0,0,0-.92,1.28l1,2.34a1.47,1.47,0,0,0,1.45.18C124.22,163.52,124.39,162.69,123.85,161.42Z"/><path class="cls-2" d="M129.82,160.9l.06.39a.83.83,0,0,1-1-.38,1.65,1.65,0,0,1-1,1.39,1.36,1.36,0,0,1-2-.6c-.45-.9,0-1.72,1.07-2.28l.82-.41-.21-.42a.94.94,0,0,0-1.48-.48,3.91,3.91,0,0,0-1,.83l-.3-.3a4,4,0,0,1,1.2-1,1.36,1.36,0,0,1,2.08.65l1,2.06C129.34,160.85,129.54,160.92,129.82,160.9Zm-1.24-.38-.6-1.18-.74.38c-.86.43-1.17,1-.83,1.69a.93.93,0,0,0,1.36.46A1.45,1.45,0,0,0,128.58,160.52Z"/><path class="cls-2" d="M131.5,155.19l-.33,4.73,2.29-1.34.18.42-2.78,1.63-.21-.36.33-4.73-2.12,1.24-.23-.39,2.65-1.55Z"/><path class="cls-2" d="M135.11,157.66a1.25,1.25,0,0,1,.16.5l.22,1.3-.32.21-.42-1.33a.42.42,0,0,1-.38-.2.43.43,0,0,1,.14-.6A.42.42,0,0,1,135.11,157.66Z"/><path class="cls-2" d="M29.72,146h-.44a1.59,1.59,0,0,0-.36-1.07c-.54-.68-1.45-.75-2.54.11s-1.2,1.71-.67,2.4a1.72,1.72,0,0,0,1,.62l-.12.42a2.06,2.06,0,0,1-1.25-.76c-.76-1-.54-2.16.68-3.12s2.48-.93,3.24,0A1.92,1.92,0,0,1,29.72,146Z"/><path class="cls-2" d="M31.07,150.66c-1.17,1-2.4,1.06-3.23.11s-.61-2.15.55-3.16,2.4-1.05,3.22-.11S32.25,149.63,31.07,150.66ZM28.77,148c-1,.88-1.19,1.75-.59,2.44s1.49.66,2.52-.24,1.18-1.74.57-2.44S29.81,147.13,28.77,148Z"/><path class="cls-2" d="M36.82,155.06l-2.42,2.43-.38-.37,2.36-2.38c.55-.55.55-1,.2-1.36a1.66,1.66,0,0,0-1.65-.25l-2.45,2.46-.38-.37,2.36-2.38c.55-.55.55-1,.2-1.36a1.65,1.65,0,0,0-1.65-.25l-2.45,2.46-.38-.37,3.38-3.4.33.32-.54.61a1.78,1.78,0,0,1,1.69.39,1.17,1.17,0,0,1,.17,1.52,1.8,1.8,0,0,1,1.74.38A1.27,1.27,0,0,1,36.82,155.06Z"/><path class="cls-2" d="M40.16,159.25c-1,1.15-2.12,1.5-3,.73a1.68,1.68,0,0,1-.61-1.39L35,160.39l-.45-.29L38.88,155l.35.3-.42.56a1.8,1.8,0,0,1,1.64.35C41.34,157,41.16,158.08,40.16,159.25Zm-.43-.37c.89-1,1-1.83.35-2.37a1.64,1.64,0,0,0-1.56-.25l-1.66,1.93a1.47,1.47,0,0,0,.48,1.38C38,160.15,38.83,159.93,39.73,158.88Z"/><path class="cls-2" d="M44.48,159.57l-.39.33a1.51,1.51,0,0,0-.3-.3c-.53-.41-1.1-.25-1.9.36l-1.8,2.31-.42-.33,2.94-3.77.36.28-.62.87a1.39,1.39,0,0,1,1.79-.09A1.8,1.8,0,0,1,44.48,159.57Z"/><path class="cls-2" d="M46.35,163.87c-.9,1.26-2.08,1.6-3.11.87s-1.1-1.95-.21-3.2,2.08-1.59,3.1-.86S47.26,162.6,46.35,163.87Zm-2.85-2c-.78,1.1-.74,2,0,2.51s1.6.29,2.39-.83.74-2,0-2.5S44.29,160.75,43.5,161.87Z"/><path class="cls-2" d="M53,166.79l-1.77,2.93-.45-.27,1.73-2.87c.4-.67.3-1.11-.12-1.37a1.66,1.66,0,0,0-1.66.15l-1.79,3-.45-.27,1.73-2.87c.4-.67.3-1.11-.12-1.37a1.64,1.64,0,0,0-1.66.15l-1.8,3-.45-.27,2.48-4.1.39.24-.38.72a1.78,1.78,0,0,1,1.73,0,1.16,1.16,0,0,1,.52,1.43,1.8,1.8,0,0,1,1.78,0A1.27,1.27,0,0,1,53,166.79Z"/><path class="cls-2" d="M56.79,170.14l-2.84-1.46c-.54,1.19-.24,1.94.49,2.32a2,2,0,0,0,1.37.16l.07.41a2.36,2.36,0,0,1-1.66-.19c-1.12-.58-1.39-1.74-.69-3.11s1.82-1.92,2.86-1.39,1.25,1.66.61,2.91C56.92,169.94,56.84,170.06,56.79,170.14Zm-.2-.72c.48-.93.41-1.72-.4-2.13s-1.42-.11-2.06,1l2.4,1.23Z"/><path class="cls-2" d="M59,173.34a1.8,1.8,0,0,1-1-.14,1.11,1.11,0,0,1-.54-1.64l1.33-2.9-.73-.33.18-.39.73.33.48-1,.51.16-.5,1.1,1.12.51-.24.36-1.06-.49-1.32,2.88c-.23.51-.15.85.29,1.05a1.41,1.41,0,0,0,.75.11Z"/><path class="cls-2" d="M60,174l-.49-.21,1.86-4.41.49.21ZM62.7,168a.4.4,0,1,1-.22-.51A.38.38,0,0,1,62.7,168Z"/><path class="cls-2" d="M67.16,169.53l-2.37,6.3-.43-.16.2-.71a1.6,1.6,0,0,1-1.64.28c-1-.39-1.34-1.52-.81-2.94s1.54-2.11,2.64-1.7a1.66,1.66,0,0,1,1,1.08l.9-2.4Zm-2.43,5,.88-2.34a1.49,1.49,0,0,0-.92-1.12c-.79-.3-1.57.18-2,1.44s-.25,2.09.51,2.37A1.47,1.47,0,0,0,64.72,174.5Z"/><path class="cls-2" d="M70.71,175.19c-.46,1.48-1.47,2.17-2.68,1.8s-1.65-1.51-1.2-3,1.48-2.16,2.68-1.79S71.17,173.69,70.71,175.19Zm-3.34-1c-.4,1.29-.08,2.11.79,2.38s1.61-.22,2-1.53.08-2.1-.8-2.37S67.77,172.86,67.37,174.18Z"/><path class="cls-2" d="M77.37,174.73,77,175a1.59,1.59,0,0,0-1-.6c-.85-.19-1.6.34-1.9,1.69s.15,2.09,1,2.28a1.71,1.71,0,0,0,1.17-.15l.17.41a2.07,2.07,0,0,1-1.45.2c-1.2-.27-1.79-1.33-1.45-2.85s1.33-2.29,2.53-2A1.91,1.91,0,0,1,77.37,174.73Z"/><path class="cls-2" d="M81.34,177.45c-.26,1.53-1.18,2.34-2.43,2.13s-1.84-1.28-1.58-2.8,1.19-2.33,2.42-2.12S81.6,175.9,81.34,177.45Zm-3.44-.57c-.23,1.33.19,2.1,1.09,2.26s1.57-.43,1.8-1.78-.19-2.09-1.1-2.25S78.13,175.52,77.9,176.88Z"/><path class="cls-2" d="M86.11,177l-.38,3.4-.53-.06.37-3.33c.09-.78-.19-1.13-.78-1.2a1.8,1.8,0,0,0-1.58.82l-.39,3.45L82.3,180l.53-4.76.45.05,0,.82a1.9,1.9,0,0,1,1.69-.73A1.27,1.27,0,0,1,86.11,177Z"/><path class="cls-2" d="M91.85,180.53a1.8,1.8,0,0,1-1,.26,1.11,1.11,0,0,1-1.12-1.31l.13-3.2-.81,0,0-.43.81,0,0-1.14.53,0,0,1.21,1.24,0-.08.43-1.17,0-.12,3.17c0,.56.19.84.67.86a1.4,1.4,0,0,0,.74-.18Z"/><path class="cls-2" d="M95.94,180.71h-.46l0-.85a1.74,1.74,0,0,1-1.55,1,1.28,1.28,0,0,1-1.38-1.45l0-3.42H93l0,3.37c0,.76.33,1.08,1,1.07a1.64,1.64,0,0,0,1.39-1l0-3.47h.53Z"/><path class="cls-2" d="M102.2,176l-.22.37a2.06,2.06,0,0,0-1.3-.33c-.63.05-1,.4-1,.89s.36.65,1.23.81c1.06.19,1.59.5,1.65,1.32s-.66,1.45-1.61,1.53a2.51,2.51,0,0,1-1.76-.47l.26-.36a2.12,2.12,0,0,0,1.45.39c.69-.06,1.15-.43,1.1-1s-.33-.76-1.35-1-1.48-.52-1.53-1.19.58-1.31,1.48-1.38A2.35,2.35,0,0,1,102.2,176Z"/><path class="cls-2" d="M107.1,179.46l-.07.39a.83.83,0,0,1-.84-.7,1.65,1.65,0,0,1-1.37,1,1.36,1.36,0,0,1-1.66-1.22c-.13-1,.55-1.63,1.77-1.79l.91-.12-.06-.46c-.1-.75-.45-1-1.24-.94a3.88,3.88,0,0,0-1.25.44l-.19-.38a4,4,0,0,1,1.45-.51,1.36,1.36,0,0,1,1.75,1.3l.3,2.28C106.67,179.26,106.83,179.39,107.1,179.46Zm-1-.77-.17-1.31-.82.11c-1,.13-1.44.57-1.34,1.32a.92.92,0,0,0,1.13.88A1.45,1.45,0,0,0,106.06,178.69Z"/><path class="cls-2" d="M108.13,178.73l-1-5.85.51-.15,1,5.89c.05.31.2.44.46.39a.78.78,0,0,0,.31-.12l.21.36a1.27,1.27,0,0,1-.52.22A.8.8,0,0,1,108.13,178.73Z"/><path class="cls-2" d="M113.92,178.4l-.45.1-.21-.83a1.74,1.74,0,0,1-1.33,1.26,1.28,1.28,0,0,1-1.63-1.14l-.73-3.35.52-.11.72,3.29c.16.74.54,1,1.15.86a1.64,1.64,0,0,0,1.16-1.25l-.74-3.39.52-.11Z"/><path class="cls-2" d="M117.11,170.57l1.81,6.49-.44.12-.26-.69a1.6,1.6,0,0,1-1.16,1.19c-1.07.3-2-.43-2.39-1.9s0-2.61,1.13-2.93a1.66,1.66,0,0,1,1.47.26l-.69-2.47Zm1,5.45-.67-2.41a1.49,1.49,0,0,0-1.4-.36c-.81.23-1.16,1.08-.79,2.37s1,1.83,1.81,1.61A1.47,1.47,0,0,0,118.08,176Z"/><path class="cls-2" d="M124.17,175.29a2.32,2.32,0,0,1-1.2,2.41l-.19-.37a1.8,1.8,0,0,0,.9-1.88l-.17.06-3.22-3.91.54-.2,2.88,3.62-.19-4.61.52-.19Z"/><path class="cls-2" d="M129.5,168.24l-.1.43a1.59,1.59,0,0,0-1.12.09c-.79.36-1.07,1.23-.5,2.49s1.38,1.58,2.17,1.22a1.72,1.72,0,0,0,.84-.82l.38.22a2.07,2.07,0,0,1-1,1c-1.12.51-2.23,0-2.87-1.41s-.32-2.63.8-3.14A1.91,1.91,0,0,1,129.5,168.24Z"/><path class="cls-2" d="M132.16,166.41l.14.5a1.48,1.48,0,0,0-.4.14c-.6.3-.7.89-.49,1.88l1.32,2.62-.47.24-2.16-4.28.41-.21.52.94a1.39,1.39,0,0,1,.68-1.66A1.77,1.77,0,0,1,132.16,166.41Z"/><path class="cls-2" d="M136.73,166.9l-2.79,1.56c.69,1.1,1.48,1.28,2.2.88a2,2,0,0,0,.9-1l.38.18a2.36,2.36,0,0,1-1.08,1.27c-1.1.62-2.22.19-3-1.15s-.59-2.58.43-3.15,2.07-.12,2.76,1.11C136.63,166.68,136.69,166.82,136.73,166.9Zm-.71-.23c-.51-.91-1.2-1.29-2-.85s-.88,1.12-.29,2.28l2.35-1.31Z"/><path class="cls-2" d="M139.11,162.81l0,.44a1.58,1.58,0,0,0-1.1.25c-.74.46-.9,1.36-.16,2.53s1.58,1.38,2.31.92a1.72,1.72,0,0,0,.73-.93l.41.17a2.07,2.07,0,0,1-.89,1.16c-1,.65-2.21.31-3-1s-.67-2.57.37-3.22A1.92,1.92,0,0,1,139.11,162.81Z"/><path class="cls-2" d="M139.19,160.2a.4.4,0,1,1-.55-.09A.38.38,0,0,1,139.19,160.2Zm3.55,5.46-.44.3-2.69-4,.44-.3Z"/><path class="cls-2" d="M146.85,158.38l2.08,2.72-.42.32-2-2.66c-.47-.62-.93-.69-1.32-.39a1.66,1.66,0,0,0-.47,1.6l2.1,2.76-.42.32-2-2.66c-.47-.62-.93-.69-1.32-.39a1.65,1.65,0,0,0-.47,1.6l2.1,2.76-.42.32-2.9-3.81.36-.28.53.62a1.78,1.78,0,0,1,.62-1.62,1.17,1.17,0,0,1,1.52,0A1.8,1.8,0,0,1,145,158,1.27,1.27,0,0,1,146.85,158.38Z"/><path class="cls-2" d="M146.46,154.59a.4.4,0,1,1-.56,0A.38.38,0,0,1,146.46,154.59Zm4.14,5-.4.35-3.12-3.63.4-.35Z"/><path class="cls-2" d="M152.88,154.6l-2.34,2.17c.93.91,1.74.9,2.35.34a2,2,0,0,0,.62-1.23l.41.08a2.36,2.36,0,0,1-.75,1.49c-.93.86-2.11.71-3.16-.42s-1.18-2.36-.32-3.16,2-.6,2.94.43C152.73,154.41,152.82,154.53,152.88,154.6Zm-.74-.06c-.71-.77-1.47-1-2.14-.35s-.59,1.29.26,2.28l2-1.83Z"/><path class="cls-2" d="M155.24,150.41l2.46,2.38-.37.38-2.41-2.33c-.57-.55-1-.54-1.43-.12a1.79,1.79,0,0,0-.32,1.75l2.5,2.41-.37.38-3.45-3.32.32-.33.62.53a1.9,1.9,0,0,1,.45-1.79A1.27,1.27,0,0,1,155.24,150.41Z"/><path class="cls-2" d="M160.11,149.76a1.79,1.79,0,0,1-.44,1,1.11,1.11,0,0,1-1.72,0l-2.4-2.11-.53.6-.32-.28.53-.61-.86-.76.3-.44.91.8.82-.93.28.33-.77.88,2.38,2.09c.42.37.77.39,1.09,0a1.41,1.41,0,0,0,.33-.69Z"/><path class="cls-2" d="M161.07,145.06c1.21,1,1.47,2.17.68,3.16s-2,1-3.21,0-1.46-2.17-.67-3.15S159.85,144.08,161.07,145.06Zm-2.17,2.73c1,.85,1.93.86,2.5.15s.39-1.58-.68-2.44-1.92-.85-2.5-.13S157.83,146.93,158.9,147.79Z"/><path class="cls-2" d="M163.63,145.07a.42.42,0,0,1,.09.62.43.43,0,1,1-.7-.52A.42.42,0,0,1,163.63,145.07Z"/><path class="cls-2" d="M21.62,116.94l.42.14a1.58,1.58,0,0,0,0,1.13c.29.82,1.13,1.18,2.44.72s1.69-1.23,1.4-2.05a1.72,1.72,0,0,0-.75-.91l.25-.36a2.07,2.07,0,0,1,.94,1.13c.41,1.16-.18,2.22-1.65,2.73s-2.65.08-3.06-1.07A1.92,1.92,0,0,1,21.62,116.94Z"/><path class="cls-2" d="M24.55,111.22l.12.44-.81.26a1.74,1.74,0,0,1,1.34,1.25,1.28,1.28,0,0,1-1,1.7l-3.3.92-.14-.51,3.24-.91c.73-.21,1-.6.79-1.2a1.64,1.64,0,0,0-1.32-1.08l-3.34.94-.14-.51Z"/><path class="cls-2" d="M17.63,110.16a.4.4,0,1,1-.29.48A.38.38,0,0,1,17.63,110.16ZM24,108.87l.12.52-4.67,1-.12-.52Z"/><path class="cls-2" d="M16.4,104.81l6.65-1.12.08.45-.71.19a1.6,1.6,0,0,1,1.06,1.28c.18,1.1-.64,1.93-2.14,2.18s-2.6-.28-2.79-1.43a1.66,1.66,0,0,1,.42-1.44l-2.53.42Zm5.52-.39-2.47.41a1.49,1.49,0,0,0-.5,1.36c.14.83.95,1.27,2.27,1s1.93-.83,1.8-1.63A1.47,1.47,0,0,0,21.93,104.42Z"/><path class="cls-2" d="M22.21,98.55l.39.08a.83.83,0,0,1-.73.82,1.64,1.64,0,0,1,.95,1.41,1.36,1.36,0,0,1-1.28,1.61c-1,.1-1.61-.61-1.73-1.83l-.09-.91-.46,0c-.76.07-1.06.42-1,1.21a3.89,3.89,0,0,0,.4,1.27l-.39.18a4,4,0,0,1-.46-1.47,1.36,1.36,0,0,1,1.36-1.7L21.47,99C22,99,22.14,98.82,22.21,98.55Zm-.8,1-1.31.13.08.83c.09,1,.52,1.46,1.27,1.38a.92.92,0,0,0,.92-1.1A1.45,1.45,0,0,0,21.41,99.57Z"/><path class="cls-2" d="M17.5,94.93,18,95a1.48,1.48,0,0,0,0,.42c0,.67.52,1,1.51,1.22l2.93-.12,0,.53-4.79.19,0-.46,1.07-.09c-.8-.23-1.2-.64-1.23-1.31A1.76,1.76,0,0,1,17.5,94.93Z"/><path class="cls-2" d="M22.14,91.55a1.79,1.79,0,0,1,.3,1,1.11,1.11,0,0,1-1.27,1.17l-3.2,0v.81h-.43v-.81H16.4l-.06-.53h1.21V91.94L18,92v1.17l3.17,0c.56,0,.83-.22.84-.7a1.41,1.41,0,0,0-.21-.73Z"/><path class="cls-2" d="M20.38,87.32l-.18,3.19c1.3,0,1.88-.56,1.92-1.38a2,2,0,0,0-.4-1.32l.35-.23a2.36,2.36,0,0,1,.49,1.6c-.07,1.26-1,2-2.57,1.89s-2.49-.89-2.42-2.06,1-1.81,2.42-1.73Zm-.58.47c-1-.06-1.73.32-1.79,1.23,0,.75.47,1.34,1.77,1.47l.16-2.69Z"/><path class="cls-2" d="M23.28,82a2.31,2.31,0,0,1,1.52,2.22h-.42a1.8,1.8,0,0,0-1.2-1.71l0,.18-5,.9.09-.57,4.57-.74L18.7,80.22l.09-.55Z"/><path class="cls-2" d="M19,75l.75.19.3-1.23.4.17-.29,1.16,4.23,1-.13.52-4.23-1-.2.81-.42-.1.2-.81-.76-.19A1.18,1.18,0,0,1,18,74a2.58,2.58,0,0,1,.52-1l.34.27a2.2,2.2,0,0,0-.42.83A.71.71,0,0,0,19,75Z"/><path class="cls-2" d="M25.66,71.08l.32.22a.83.83,0,0,1-1,.48,1.64,1.64,0,0,1,.34,1.66,1.36,1.36,0,0,1-1.79,1c-1-.29-1.26-1.17-.9-2.35l.26-.87-.45-.13a.94.94,0,0,0-1.37.74A3.87,3.87,0,0,0,21,73.14h-.42a4,4,0,0,1,.13-1.54,1.36,1.36,0,0,1,1.91-1.06l2.21.67C25.3,71.39,25.49,71.29,25.66,71.08Zm-1.13.63-1.26-.38-.24.8c-.28.92-.08,1.54.65,1.76a.92.92,0,0,0,1.27-.67A1.45,1.45,0,0,0,24.53,71.71Z"/><path class="cls-2" d="M23.32,65.46l.23.37a1.58,1.58,0,0,0-.72.86c-.31.81.12,1.63,1.41,2.11s2.09.14,2.39-.68a1.72,1.72,0,0,0,0-1.18l.42-.11a2.07,2.07,0,0,1,0,1.46c-.43,1.15-1.56,1.59-3,1S22,67.71,22.39,66.56A1.92,1.92,0,0,1,23.32,65.46Z"/><path class="cls-2" d="M22.2,62.72a.4.4,0,1,1-.51.22A.38.38,0,0,1,22.2,62.72Zm5.94,2.67-.21.49L23.53,64l.21-.49Z"/><path class="cls-2" d="M28.16,63.36l-5.37-2.51.17-.51,5.41,2.53c.28.13.47.09.59-.15A.79.79,0,0,0,29,62.4l.42,0a1.29,1.29,0,0,1-.12.55A.79.79,0,0,1,28.16,63.36Z"/><path class="cls-2" d="M24.52,57.83A.4.4,0,1,1,24,58,.38.38,0,0,1,24.52,57.83Zm5.73,3.08-.24.47L25.75,59.2l.24-.47Z"/><path class="cls-2" d="M32,57.24a1.79,1.79,0,0,1-.23,1,1.11,1.11,0,0,1-1.67.41l-2.79-1.56-.39.7-.37-.21.39-.7-1-.56.2-.5,1.06.59.6-1.08.34.27-.57,1,2.77,1.55c.49.27.83.22,1.07-.21a1.42,1.42,0,0,0,.17-.74Z"/><path class="cls-2" d="M34.2,53.64l.25.3a.83.83,0,0,1-1.08.2,1.65,1.65,0,0,1-.12,1.69,1.36,1.36,0,0,1-2,.49c-.85-.54-.9-1.47-.25-2.51L31.5,53l-.4-.25a.94.94,0,0,0-1.52.35,3.9,3.9,0,0,0-.46,1.25l-.41-.1a4,4,0,0,1,.54-1.45,1.36,1.36,0,0,1,2.12-.51l2,1.23C33.77,53.84,34,53.8,34.2,53.64Zm-1.26.31-1.12-.7-.44.71c-.51.81-.49,1.47.16,1.88a.93.93,0,0,0,1.41-.3A1.45,1.45,0,0,0,32.94,53.95Z"/><path class="cls-2" d="M32.67,47.93l.35.37a1.51,1.51,0,0,0-.29.31c-.39.54-.21,1.11.44,1.89l2.38,1.7-.31.43-3.89-2.78.27-.37.9.58a1.39,1.39,0,0,1-.17-1.78A1.8,1.8,0,0,1,32.67,47.93Z"/><path class="cls-2" d="M38.42,48.09a1.8,1.8,0,0,1-.38,1,1.1,1.1,0,0,1-1.72.14l-2.51-2-.5.63L33,47.61l.5-.63-.9-.71.28-.46.95.75.76-1,.3.32-.72.92,2.49,2c.44.34.79.34,1.09,0A1.42,1.42,0,0,0,38,48Z"/><path class="cls-2" d="M39.62,43.67l-2.1,2.41c1,.81,1.83.71,2.37.09a2,2,0,0,0,.49-1.29l.42,0a2.36,2.36,0,0,1-.59,1.56c-.83,1-2,.93-3.18-.08s-1.42-2.23-.65-3.11,1.91-.81,3,.12Zm-.75,0c-.79-.69-1.57-.81-2.16-.13s-.45,1.35.5,2.24l1.77-2Z"/><path class="cls-2" d="M45,38.39l-2.34,2.18c.93.91,1.74.89,2.34.33a2,2,0,0,0,.62-1.23l.41.08a2.37,2.37,0,0,1-.75,1.5c-.92.86-2.11.71-3.16-.41s-1.18-2.36-.33-3.16,2-.61,2.94.42C44.86,38.21,45,38.32,45,38.39Zm-.74-.06c-.71-.76-1.47-1-2.14-.35s-.58,1.29.26,2.28l2-1.83Z"/><path class="cls-2" d="M47.06,38.48l-3.81-4.55.37-.39,3.84,4.58c.2.24.39.28.6.11a.81.81,0,0,0,.21-.26l.37.21a1.29,1.29,0,0,1-.34.45A.8.8,0,0,1,47.06,38.48Z"/><path class="cls-2" d="M50.5,28.48,54.34,34l-.38.26-.47-.56a1.6,1.6,0,0,1-.71,1.5c-.92.64-2,.24-2.88-1s-.86-2.47.1-3.14a1.66,1.66,0,0,1,1.48-.23L50,28.73ZM53.2,33.3l-1.42-2.05a1.49,1.49,0,0,0-1.44.12c-.69.48-.75,1.4,0,2.5s1.58,1.39,2.24.93A1.47,1.47,0,0,0,53.2,33.3Z"/><path class="cls-2" d="M53.47,26.68l-1.11,1.6-.31-.17,1-1.7Zm2.95,6L56,33l-2.51-4.07.45-.28Z"/><path class="cls-2" d="M60.84,29.89l.08.39a.83.83,0,0,1-1-.35A1.65,1.65,0,0,1,59,31.35a1.36,1.36,0,0,1-2-.54c-.48-.88-.08-1.72,1-2.31l.8-.44-.22-.41a.94.94,0,0,0-1.5-.43,3.87,3.87,0,0,0-1,.86l-.31-.29a4,4,0,0,1,1.17-1,1.36,1.36,0,0,1,2.1.58l1.11,2C60.37,29.86,60.57,29.92,60.84,29.89Zm-1.25-.34L59,28.39l-.73.4c-.84.46-1.14,1-.77,1.72a.93.93,0,0,0,1.38.42A1.45,1.45,0,0,0,59.59,29.55Z"/><path class="cls-2" d="M67.49,26.88l0,.39a.83.83,0,0,1-1-.45,1.65,1.65,0,0,1-1.06,1.32,1.36,1.36,0,0,1-1.92-.74c-.39-.93.1-1.72,1.23-2.2l.84-.36-.18-.43A.94.94,0,0,0,64,23.84a3.88,3.88,0,0,0-1.09.76l-.28-.32a4,4,0,0,1,1.27-.88,1.36,1.36,0,0,1,2,.79l.9,2.12C67,26.8,67.22,26.88,67.49,26.88Zm-1.21-.46-.51-1.21-.77.32c-.88.37-1.24.93-.94,1.63a.92.92,0,0,0,1.33.55A1.44,1.44,0,0,0,66.28,26.41Z"/><path class="cls-2" d="M72.6,18.36l2,6.45-.44.13-.27-.68a1.6,1.6,0,0,1-1.13,1.22c-1.07.32-2-.39-2.44-1.84s-.06-2.61,1.06-3a1.67,1.67,0,0,1,1.48.23l-.74-2.45Zm1.09,5.43L73,21.4a1.49,1.49,0,0,0-1.41-.33c-.81.25-1.14,1.1-.74,2.39S71.9,25.27,72.67,25A1.47,1.47,0,0,0,73.7,23.79Z"/><path class="cls-2" d="M76,17.57l-1.55,1.18-.24-.26,1.45-1.33Zm1,6.64-.52.13L75.27,19.7l.52-.13Z"/><path class="cls-2" d="M82,22.88l0,.39a.83.83,0,0,1-.88-.65,1.65,1.65,0,0,1-1.31,1.07A1.36,1.36,0,0,1,78,22.57c-.19-1,.45-1.66,1.66-1.89l.9-.17L80.5,20c-.14-.75-.51-1-1.3-.87a3.9,3.9,0,0,0-1.22.52l-.21-.37a4,4,0,0,1,1.42-.6A1.36,1.36,0,0,1,81,19.92l.44,2.26C81.56,22.7,81.73,22.83,82,22.88Zm-1.09-.7-.25-1.29-.82.16c-.94.18-1.4.65-1.26,1.4a.92.92,0,0,0,1.18.81A1.45,1.45,0,0,0,80.91,22.17Z"/><path class="cls-2" d="M83.85,22.55a.42.42,0,0,1-.37.5.43.43,0,1,1-.12-.86A.42.42,0,0,1,83.85,22.55Z"/><path class="cls-2" d="M120.36,9.73,120,10a1.89,1.89,0,0,0-1.1-.81c-1-.3-2.13.18-2.69,2.1s.07,2.89,1.12,3.19a2,2,0,0,0,1.48-.11l.17.42a2.37,2.37,0,0,1-1.81.15c-1.39-.4-2.11-1.78-1.52-3.81s2-2.78,3.33-2.4A2.27,2.27,0,0,1,120.36,9.73Z"/><path class="cls-2" d="M123.92,14.57c-.52,1.46-1.56,2.11-2.75,1.68s-1.59-1.57-1.07-3,1.57-2.09,2.75-1.67S124.45,13.09,123.92,14.57Zm-3.29-1.15c-.45,1.27-.17,2.1.69,2.41s1.62-.15,2.08-1.45.17-2.1-.7-2.41S121.09,12.12,120.63,13.42Z"/><path class="cls-2" d="M129,15.59l-1.35,3.15-.49-.21,1.32-3.08c.31-.72.14-1.14-.4-1.37a1.8,1.8,0,0,0-1.75.33L125,17.59l-.49-.21,1.88-4.4.42.18-.27.77a1.9,1.9,0,0,1,1.83-.21A1.27,1.27,0,0,1,129,15.59Z"/><path class="cls-2" d="M135.95,20.26c-.72,1.33-1.76,1.91-2.8,1.34a1.69,1.69,0,0,1-.88-1.23l-1.13,2.08-.5-.19,3.18-5.86.4.22-.29.63a1.8,1.8,0,0,1,1.68,0C136.64,17.82,136.68,18.9,135.95,20.26Zm-.5-.27c.65-1.2.58-2-.15-2.39a1.64,1.64,0,0,0-1.58.08l-1.22,2.24a1.48,1.48,0,0,0,.76,1.25C134,21.58,134.79,21.19,135.45,20Z"/><path class="cls-2" d="M140.6,20.27l-.35.38a1.5,1.5,0,0,0-.33-.27c-.57-.35-1.12-.13-1.85.57l-1.53,2.5-.45-.28,2.5-4.08.39.24-.52.94a1.39,1.39,0,0,1,1.77-.29A1.81,1.81,0,0,1,140.6,20.27Z"/><path class="cls-2" d="M143.08,24.87c-.87,1.28-2,1.64-3.09.93s-1.13-1.92-.27-3.2,2.05-1.63,3.09-.92S144,23.58,143.08,24.87Zm-2.89-1.95c-.76,1.11-.7,2,.05,2.51s1.6.26,2.38-.87.7-2-.06-2.5S141,21.79,140.19,22.92Z"/><path class="cls-2" d="M149.72,24.51l-4.14,5.31-.36-.28.4-.62a1.6,1.6,0,0,1-1.65-.23c-.88-.69-.83-1.85.11-3.05s2.1-1.55,3-.83a1.66,1.66,0,0,1,.66,1.34l1.58-2Zm-3.81,4,1.54-2a1.49,1.49,0,0,0-.54-1.34c-.66-.52-1.56-.3-2.38.77s-.86,1.92-.22,2.41A1.47,1.47,0,0,0,145.91,28.53Z"/><path class="cls-2" d="M149.52,33.24l-.34-.3.55-.65a1.74,1.74,0,0,1-1.8-.33,1.28,1.28,0,0,1,0-2l2.28-2.56.4.35-2.24,2.52c-.5.57-.48,1,0,1.44a1.65,1.65,0,0,0,1.7.2l2.31-2.59.4.35Z"/><path class="cls-2" d="M156.08,33.51l-.43.06a1.58,1.58,0,0,0-.49-1c-.62-.61-1.53-.57-2.5.41s-1,1.85-.37,2.46a1.71,1.71,0,0,0,1.07.5l-.07.43a2.07,2.07,0,0,1-1.33-.61c-.87-.87-.8-2.08.3-3.18s2.35-1.23,3.22-.36A1.91,1.91,0,0,1,156.08,33.51Z"/><path class="cls-2" d="M155.41,39a1.79,1.79,0,0,1-.9-.54,1.11,1.11,0,0,1,.14-1.72L157,34.58l-.54-.59.32-.29.54.59.84-.77.41.35-.89.81.83.91-.36.24-.79-.86L155,37.11c-.41.38-.47.72-.14,1.08a1.41,1.41,0,0,0,.65.4Z"/><path class="cls-2" d="M160,41c-1.19,1-2.42,1-3.23,0s-.56-2.16.62-3.15,2.42-1,3.22,0S161.17,40,160,41Zm-2.24-2.67c-1,.86-1.22,1.72-.64,2.42s1.47.69,2.52-.19,1.22-1.71.63-2.42S158.78,37.44,157.72,38.32Z"/><path class="cls-2" d="M164.11,43.27h-.43a2,2,0,0,0-.4-1.27c-.38-.51-.88-.67-1.28-.37s-.36.65,0,1.47c.4,1,.41,1.61-.25,2.09a1.51,1.51,0,0,1-2.15-.56A2.51,2.51,0,0,1,159,42.9l.45,0a2.12,2.12,0,0,0,.43,1.43c.41.56,1,.75,1.44.41s.48-.68.1-1.65-.33-1.53.2-1.92a1.41,1.41,0,0,1,2,.53A2.36,2.36,0,0,1,164.11,43.27Z"/><path class="cls-2" d="M167.84,46.71l-.65.41.67,1.07-.4.17-.64-1-3.68,2.33-.28-.45,3.68-2.33-.44-.7.36-.23.44.7.67-.42a1.18,1.18,0,0,1,1.75.47,2.57,2.57,0,0,1,.38,1.08l-.43.06A2.2,2.2,0,0,0,169,47,.71.71,0,0,0,167.84,46.71Z"/><path class="cls-2" d="M169.68,51.18l-.49.17A1.5,1.5,0,0,0,169,51c-.34-.58-.93-.64-1.91-.37l-2.53,1.48-.27-.46,4.13-2.43.23.4-.9.58a1.39,1.39,0,0,1,1.7.57A1.77,1.77,0,0,1,169.68,51.18Z"/><path class="cls-2" d="M169.36,56.26l-1.48-2.83c-1.12.66-1.32,1.45-.94,2.18a2,2,0,0,0,1,.92l-.19.38a2.37,2.37,0,0,1-1.25-1.12c-.58-1.12-.13-2.23,1.23-2.94s2.59-.52,3.14.52.06,2.08-1.19,2.73Zm.25-.7c.92-.48,1.32-1.17.9-2s-1.09-.91-2.27-.35l1.25,2.39Z"/><path class="cls-2" d="M173.12,59.24l-.42-.08a2.06,2.06,0,0,0-.12-1.33c-.26-.58-.72-.84-1.17-.63s-.49.56-.34,1.43c.18,1.06.06,1.66-.68,2a1.51,1.51,0,0,1-2-1,2.51,2.51,0,0,1-.15-1.81l.43.13a2.12,2.12,0,0,0,.13,1.49c.29.63.79.94,1.32.7s.61-.57.45-1.59,0-1.57.6-1.84a1.41,1.41,0,0,1,1.8.93A2.35,2.35,0,0,1,173.12,59.24Z"/><path class="cls-2" d="M174.91,63.56l-.42-.12a1.59,1.59,0,0,0,0-1.13c-.32-.81-1.17-1.13-2.46-.62s-1.64,1.3-1.32,2.11a1.71,1.71,0,0,0,.78.88l-.24.37a2.07,2.07,0,0,1-1-1.09c-.45-1.14.1-2.22,1.54-2.79s2.64-.19,3.09,1A1.92,1.92,0,0,1,174.91,63.56Z"/><path class="cls-2" d="M174.62,68.91c-1.47.49-2.62.06-3-1.14s.27-2.22,1.73-2.71,2.62,0,3,1.14S176.11,68.42,174.62,68.91Zm-1.12-3.31c-1.28.42-1.77,1.16-1.48,2s1.12,1.18,2.42.75,1.76-1.15,1.47-2S174.81,65.17,173.51,65.61Z"/><path class="cls-2" d="M177.64,72.53l-.4-.15a2.05,2.05,0,0,0,.1-1.33c-.16-.61-.58-.94-1.05-.82s-.58.47-.57,1.36c0,1.08-.21,1.65-1,1.86s-1.55-.39-1.79-1.31a2.51,2.51,0,0,1,.15-1.81l.4.2a2.12,2.12,0,0,0-.12,1.49c.18.67.63,1.05,1.19.9s.69-.46.7-1.5.25-1.54.89-1.72,1.39.34,1.63,1.21A2.35,2.35,0,0,1,177.64,72.53Z"/><path class="cls-2" d="M174.19,75.44a1.27,1.27,0,0,1-.52,0l-1.3-.23-.09-.37,1.39.05a.43.43,0,0,1,.84,0A.42.42,0,0,1,174.19,75.44Z"/><path class="cls-2" d="M178.56,82.23l-3.38.52-.08-.52,3.31-.51c.78-.12,1-.49,1-1.06a1.8,1.8,0,0,0-1.2-1.31l-3.43.53-.08-.52,4.73-.73.07.45-.8.18a1.9,1.9,0,0,1,1.15,1.44C179.93,81.55,179.47,82.09,178.56,82.23Z"/><path class="cls-2" d="M176,87.89l-.39-.08a.83.83,0,0,1,.74-.81,1.65,1.65,0,0,1-.94-1.41A1.36,1.36,0,0,1,176.66,84c1-.09,1.61.62,1.72,1.84l.08.91.46,0c.76-.07,1.07-.41,1-1.2a3.88,3.88,0,0,0-.39-1.27l.39-.17a4,4,0,0,1,.46,1.47,1.36,1.36,0,0,1-1.37,1.7l-2.3.21C176.18,87.47,176,87.63,176,87.89Zm.81-1,1.31-.12-.08-.83c-.09-1-.51-1.46-1.27-1.39a.93.93,0,0,0-.93,1.1A1.45,1.45,0,0,0,176.77,86.88Z"/><path class="cls-2" d="M176.05,91.55a1.79,1.79,0,0,1-.34-1,1.11,1.11,0,0,1,1.21-1.22l3.19-.13,0-.8.43,0,0,.8,1.14,0,.09.53-1.21.05.05,1.23-.43,0,0-1.17-3.16.13c-.56,0-.82.25-.8.74a1.43,1.43,0,0,0,.24.72Z"/><path class="cls-2" d="M175.84,95.75v-.46l.85,0a1.74,1.74,0,0,1-.94-1.57,1.28,1.28,0,0,1,1.47-1.34l3.42,0v.53l-3.37,0c-.76,0-1.08.31-1.09.94a1.64,1.64,0,0,0,1,1.41l3.47,0v.53Z"/><path class="cls-2" d="M180.44,100.25l-.5-.13a1.51,1.51,0,0,0,.08-.42c0-.67-.42-1.05-1.38-1.37l-2.93-.17,0-.53,4.78.28,0,.46-1.07,0c.77.3,1.13.75,1.09,1.42A1.75,1.75,0,0,1,180.44,100.25Z"/><path class="cls-2" d="M175.48,104l-.36-.16a.83.83,0,0,1,.88-.65,1.65,1.65,0,0,1-.64-1.57,1.36,1.36,0,0,1,1.57-1.32c1,.11,1.46.92,1.33,2.14l-.09.91.46,0c.75.08,1.12-.19,1.21-1a3.93,3.93,0,0,0-.14-1.32l.41-.09a4,4,0,0,1,.16,1.53,1.36,1.36,0,0,1-1.67,1.4l-2.29-.24C175.78,103.64,175.61,103.76,175.48,104Zm1-.83,1.31.14.09-.83c.1-1-.22-1.53-1-1.61a.93.93,0,0,0-1.12.89A1.45,1.45,0,0,0,176.47,103.17Z"/><path class="cls-2" d="M175.8,105.43l5.87.87v.54l-5.91-.88c-.31,0-.48,0-.52.31a.78.78,0,0,0,0,.34l-.41.08a1.26,1.26,0,0,1,0-.56A.79.79,0,0,1,175.8,105.43Z"/><path class="cls-2" d="M176.12,111.54l.61-3.14c-1.29-.19-1.93.3-2.09,1.11a2,2,0,0,0,.22,1.36l-.38.18a2.36,2.36,0,0,1-.28-1.65c.24-1.24,1.29-1.82,2.8-1.52s2.35,1.21,2.12,2.36-1.25,1.66-2.63,1.39Zm.64-.39c1,.2,1.76-.09,1.94-1,.14-.74-.29-1.39-1.55-1.69l-.52,2.64Z"/><path class="cls-2" d="M177.2,116.22l-.28-.32a2.06,2.06,0,0,0,.73-1.12c.15-.61,0-1.11-.52-1.23s-.73.13-1.16.91c-.52.94-1,1.34-1.78,1.14a1.51,1.51,0,0,1-.93-2,2.51,2.51,0,0,1,1-1.51l.26.37a2.12,2.12,0,0,0-.83,1.24c-.17.67,0,1.22.6,1.37s.83-.06,1.34-1,1-1.23,1.62-1.06a1.41,1.41,0,0,1,.83,1.85A2.35,2.35,0,0,1,177.2,116.22Z"/><path class="cls-2" d="M122.6,28.37a2.31,2.31,0,0,1-2.53.91l.11-.4a1.8,1.8,0,0,0,2-.73l-.17-.07.38-5.05.53.23-.43,4.6,3.05-3.46.51.22Z"/><path class="cls-2" d="M133.51,26.37l-3.3,5.88-.4-.22.3-.67a1.6,1.6,0,0,1-1.66,0c-1-.55-1.1-1.71-.36-3s1.85-1.85,2.87-1.28a1.67,1.67,0,0,1,.86,1.23l1.25-2.24Zm-3.16,4.55,1.22-2.18a1.49,1.49,0,0,0-.74-1.25c-.74-.41-1.58-.06-2.23,1.12s-.56,2,.14,2.42A1.47,1.47,0,0,0,130.35,30.92Z"/><path class="cls-2" d="M135.79,33.23l-2.67-1.75c-.66,1.12-.45,1.9.24,2.36a2,2,0,0,0,1.34.31l0,.42a2.36,2.36,0,0,1-1.63-.37c-1.05-.69-1.19-1.88-.35-3.16s2-1.71,3-1.07,1.06,1.78.29,3Zm-.12-.73c.57-.87.59-1.66-.17-2.16s-1.39-.26-2.15.8l2.25,1.48Z"/><path class="cls-2" d="M138.22,36.77l3.68-4.65.46.28-3.71,4.69c-.19.24-.2.44,0,.6a.77.77,0,0,0,.3.15l-.13.4a1.26,1.26,0,0,1-.51-.24A.79.79,0,0,1,138.22,36.77Z"/><path class="cls-2" d="M142.4,41l-.34.2a.83.83,0,0,1,0-1.1,1.65,1.65,0,0,1-1.65-.38,1.36,1.36,0,0,1-.17-2.05c.67-.76,1.59-.66,2.52.15l.69.6.31-.35a.94.94,0,0,0-.11-1.56,3.92,3.92,0,0,0-1.16-.65l.16-.39a4,4,0,0,1,1.35.76,1.36,1.36,0,0,1,.17,2.18l-1.52,1.73C142.27,40.55,142.27,40.76,142.4,41Zm-.11-1.29.87-1-.63-.55c-.72-.63-1.38-.71-1.88-.14a.93.93,0,0,0,.08,1.44A1.45,1.45,0,0,0,142.29,39.71Z"/><path class="cls-2" d="M151.52,46.05,149,48.33l-.35-.4,2.5-2.23c.58-.52.61-1,.29-1.34a1.66,1.66,0,0,0-1.63-.35l-2.59,2.31-.35-.4,2.5-2.23c.58-.52.61-1,.29-1.34A1.65,1.65,0,0,0,148,42l-2.59,2.3-.35-.4,3.58-3.18.3.34-.58.58a1.78,1.78,0,0,1,1.66.49,1.16,1.16,0,0,1,.08,1.52,1.8,1.8,0,0,1,1.71.49A1.27,1.27,0,0,1,151.52,46.05Z"/><path class="cls-2" d="M152.25,52.27l-.37.13a.83.83,0,0,1,.2-1.08,1.65,1.65,0,0,1-1.54-.72,1.36,1.36,0,0,1,.26-2c.81-.6,1.7-.31,2.43.67l.55.73.38-.28a.94.94,0,0,0,.22-1.54,3.9,3.9,0,0,0-1-.88l.24-.35a4,4,0,0,1,1.16,1,1.36,1.36,0,0,1-.29,2.16l-1.85,1.38C152.22,51.8,152.18,52,152.25,52.27Zm.16-1.29,1.06-.79-.5-.67c-.57-.77-1.2-1-1.81-.53a.93.93,0,0,0-.22,1.42A1.45,1.45,0,0,0,152.41,51Zm2.66-4.36.15-.33,1.79.82-.24.48Z"/><path class="cls-2" d="M157.91,53.42l-.43,0a2.06,2.06,0,0,0-.32-1.3c-.35-.53-.84-.72-1.26-.45s-.4.62-.12,1.47c.34,1,.31,1.63-.37,2.08a1.51,1.51,0,0,1-2.11-.69,2.51,2.51,0,0,1-.42-1.77l.44.06a2.12,2.12,0,0,0,.35,1.46c.38.58.92.81,1.41.49s.51-.65.2-1.64-.25-1.55.31-1.91a1.41,1.41,0,0,1,1.92.65A2.35,2.35,0,0,1,157.91,53.42Z"/><path class="cls-2" d="M158.06,62.07l-.39.07a.83.83,0,0,1,.37-1,1.65,1.65,0,0,1-1.4-.95,1.36,1.36,0,0,1,.58-2c.89-.47,1.72,0,2.29,1l.42.81.41-.22a.94.94,0,0,0,.46-1.49,3.92,3.92,0,0,0-.85-1l.29-.31a4,4,0,0,1,1,1.19,1.36,1.36,0,0,1-.62,2.09l-2,1.07C158.1,61.6,158,61.8,158.06,62.07Zm.36-1.24,1.17-.61-.39-.74c-.45-.85-1-1.15-1.7-.8a.92.92,0,0,0-.44,1.37A1.45,1.45,0,0,0,158.42,60.83Z"/><path class="cls-2" d="M159.1,63.07l5.39-2.49.28.46-5.43,2.51c-.28.13-.37.3-.26.54a.79.79,0,0,0,.2.27l-.3.3a1.28,1.28,0,0,1-.35-.45A.79.79,0,0,1,159.1,63.07Z"/><path class="cls-2" d="M160.44,67.69a1.8,1.8,0,0,1-.67-.81,1.11,1.11,0,0,1,.72-1.57l3-1.22-.31-.74.4-.17.31.74,1.06-.44.26.47-1.12.46.47,1.14-.42.11-.45-1.08-2.92,1.21c-.52.21-.69.52-.5,1a1.42,1.42,0,0,0,.48.6Z"/><path class="cls-2" d="M161.92,71.6h-.39a.83.83,0,0,1,.51-1,1.64,1.64,0,0,1-1.26-1.14,1.36,1.36,0,0,1,.85-1.87c.95-.34,1.71.2,2.12,1.36l.3.86.44-.15a.94.94,0,0,0,.67-1.41,3.89,3.89,0,0,0-.69-1.13l.33-.26a4,4,0,0,1,.8,1.32,1.36,1.36,0,0,1-.91,2l-2.17.77C162,71.13,161.93,71.32,161.92,71.6Zm.53-1.18L163.7,70l-.28-.78c-.32-.91-.85-1.29-1.57-1a.92.92,0,0,0-.63,1.29A1.45,1.45,0,0,0,162.45,70.42Z"/><path class="cls-2" d="M167.74,77.33l-.4-.17a1.59,1.59,0,0,0,.11-1.12c-.21-.85-1-1.28-2.36-1s-1.8,1.06-1.6,1.91a1.71,1.71,0,0,0,.66,1l-.29.33a2.07,2.07,0,0,1-.83-1.21c-.29-1.19.4-2.19,1.91-2.56s2.65.17,2.94,1.36A1.92,1.92,0,0,1,167.74,77.33Z"/><path class="cls-2" d="M164.56,82.74l-.39-.05a.83.83,0,0,1,.66-.87,1.65,1.65,0,0,1-1.06-1.32,1.36,1.36,0,0,1,1.14-1.71c1-.18,1.66.47,1.87,1.68l.16.9.46-.08c.75-.14,1-.5.88-1.29a3.89,3.89,0,0,0-.5-1.23l.37-.21a4,4,0,0,1,.58,1.43,1.36,1.36,0,0,1-1.22,1.81l-2.27.41C164.74,82.29,164.61,82.47,164.56,82.74Zm.72-1.08,1.3-.23-.15-.82c-.17-.95-.64-1.41-1.38-1.27a.92.92,0,0,0-.83,1.17A1.45,1.45,0,0,0,165.27,81.66Z"/><path class="cls-2" d="M165.25,84l5.88-.76.13.52-5.92.76c-.31,0-.45.18-.41.44a.78.78,0,0,0,.11.32l-.37.2a1.29,1.29,0,0,1-.2-.53A.79.79,0,0,1,165.25,84Z"/><path class="cls-2" d="M164.79,87.19l0-.53,4.77-.44,0,.53Zm6.49-.47a.4.4,0,0,1-.07-.79.38.38,0,0,1,.42.36A.38.38,0,0,1,171.29,86.72Z"/><path class="cls-2" d="M171.83,92.2l-6.74.26,0-.46.73-.09a1.6,1.6,0,0,1-.89-1.4c0-1.12.88-1.83,2.4-1.89s2.54.61,2.59,1.78a1.67,1.67,0,0,1-.6,1.37l2.56-.1Zm-5.53-.32,2.5-.1a1.49,1.49,0,0,0,.67-1.28c0-.84-.78-1.38-2.12-1.32s-2,.58-2,1.39A1.47,1.47,0,0,0,166.3,91.89Z"/><path class="cls-2" d="M165.25,97.67l-.37-.13a.83.83,0,0,1,.83-.72,1.65,1.65,0,0,1-.76-1.52,1.36,1.36,0,0,1,1.48-1.44c1,0,1.52.81,1.48,2l0,.92.47,0c.76,0,1.11-.28,1.13-1.07a3.89,3.89,0,0,0-.23-1.31l.41-.12a4,4,0,0,1,.27,1.52,1.36,1.36,0,0,1-1.57,1.52l-2.31-.07C165.52,97.28,165.36,97.42,165.25,97.67Zm.93-.91,1.32,0,0-.83c0-1-.33-1.51-1.09-1.54a.93.93,0,0,0-1.06,1A1.45,1.45,0,0,0,166.18,96.77Z"/><path class="cls-2" d="M171.23,103.16l-6.7-.69,0-.46h.74a1.6,1.6,0,0,1-.68-1.51c.11-1.11,1.13-1.69,2.64-1.53s2.43,1,2.31,2.12a1.67,1.67,0,0,1-.78,1.27l2.55.26Zm-5.43-1.09,2.49.26a1.49,1.49,0,0,0,.85-1.17c.09-.84-.57-1.48-1.91-1.6s-2.08.29-2.16,1.09A1.47,1.47,0,0,0,165.8,102.07Z"/><path class="cls-2" d="M164.53,104.76a.42.42,0,0,1-.37-.5.44.44,0,1,1,.86.13A.42.42,0,0,1,164.53,104.76Z"/></g></g></g></svg>
