<svg xmlns="http://www.w3.org/2000/svg" viewBox="0 0 98.78 44.26"><defs><style>.cls-1{fill:#d4a453;}</style></defs><title>lala-centro</title><g id="Layer_2" data-name="Layer 2"><g id="Capa_1" data-name="Capa 1"><path class="cls-1" d="M47.82,31.39c-2-5.88-6-15.87-6-16-1.2-3-3.53-4.79-6.74-4.42-2.55.3-5.12.7-5.12.7-2.48.4-4.11,1.84-5.68,5.21l-8,16.44c3.1-1.86,5.82-4,9.65-5.93a4,4,0,0,0,2.09-2s3.3-7.93,3.62-8.77.82-1.64,1.45-1.74c.45-.07,1,.48,1.28,1.51S37.83,28.27,38,29.15c-9.91-3-17,5.73-24.76,9.33-3,1.38-4.07-.29-3.71-2.54S13,17.84,13,17.84a2.74,2.74,0,0,0-.54-2.41,3.68,3.68,0,0,0-3.43-1l-4.73.77L.11,38.37c-.87,5.24,3.28,7.68,11.51,4.4C20,39.42,35.47,31.92,41.46,39.61,49,37.73,48.77,34.17,47.82,31.39Z"/><path class="cls-1" d="M95.71,24.92c-2-5.88-6-15.87-6-16C88.49,6,86.16,4.15,83,4.53c-2.55.3-5.12.7-5.12.7-2.48.4-4.11,1.84-5.68,5.21l-8,16.44c3.1-1.86,5.82-4,9.65-5.93a4,4,0,0,0,2.09-2s3.3-7.93,3.62-8.77S80.36,8.56,81,8.46c.45-.07,1,.48,1.28,1.51s3.45,11.83,3.62,12.71c-9.91-3-17,5.73-24.76,9.33-3,1.38-4.07-.29-3.71-2.54s3.5-18.11,3.5-18.11A2.74,2.74,0,0,0,60.38,9a3.68,3.68,0,0,0-3.43-1l-4.73.77L48,31.9c-.87,5.24,3.28,7.68,11.51,4.4,8.39-3.35,23.85-10.85,29.84-3.16C96.87,31.25,96.66,27.7,95.71,24.92Z"/><path class="cls-1" d="M97.91,5a3,3,0,0,1-4.19,0,2.87,2.87,0,0,1-.86-2.1A2.84,2.84,0,0,1,93.74.86a3,3,0,0,1,4.18,0,2.84,2.84,0,0,1,.87,2.09A2.87,2.87,0,0,1,97.91,5ZM94,1.15A2.46,2.46,0,0,0,93.28,3,2.49,2.49,0,0,0,94,4.76a2.54,2.54,0,0,0,3.6,0A2.48,2.48,0,0,0,98.36,3a2.46,2.46,0,0,0-.74-1.8,2.53,2.53,0,0,0-3.6,0Zm1.74.17a2.48,2.48,0,0,1,.89.12.81.81,0,0,1,.5.82.71.71,0,0,1-.32.64,1.22,1.22,0,0,1-.47.16.79.79,0,0,1,.56.32.89.89,0,0,1,.18.5v.24c0,.08,0,.16,0,.24a.54.54,0,0,0,0,.17l0,0h-.54V4.13a.8.8,0,0,0-.31-.74,1.38,1.38,0,0,0-.64-.1H95.2V4.56h-.57V1.32Zm.62.51a1.5,1.5,0,0,0-.69-.12H95.2V2.88h.52a1.55,1.55,0,0,0,.55-.07.5.5,0,0,0,.33-.51A.5.5,0,0,0,96.38,1.83Z"/></g></g></svg>
