<!-- Generator: Adobe Illustrator 21.0.2, SVG Export Plug-In  -->
<svg version="1.1"
	 xmlns="http://www.w3.org/2000/svg" xmlns:xlink="http://www.w3.org/1999/xlink" xmlns:a="http://ns.adobe.com/AdobeSVGViewerExtensions/3.0/"
	 x="0px" y="0px" width="510.3px" height="510.3px" viewBox="0 0 510.3 510.3" style="enable-background:new 0 0 510.3 510.3;"
	 xml:space="preserve">
<style type="text/css">
	.st0{fill:#C49C5C;}
	.st1{fill:none;}
	.st2{fill:#7E7565;}
	.st3{fill:none;stroke:#B2B2B2;stroke-width:0.5;stroke-miterlimit:10;}
	.st4{fill:#E2E2E1;}
	.st5{fill:#5770B4;}
	.st6{fill:#63B2BC;}
	.st7{fill:#5A4494;}
	.st8{fill:#6AB545;}
	.st9{fill:#943C8F;}
	.st10{fill:#D4A453;}
</style>
<defs>
</defs>
<g id="inovacion-disruptiva_1_">
	<g>
		<path class="st0" d="M190.3,255.2c0-34.1,26.3-62,59.7-64.6l0-28.9c-49.3,2.7-88.5,43.6-88.5,93.6c0,15.2,3.6,29.5,10,42.2
			l25-14.5C192.5,274.5,190.3,265.1,190.3,255.2z"/>
		<path class="st0" d="M255.2,320c-22.3,0-41.9-11.2-53.6-28.3l-25,14.4c16.7,25.7,45.7,42.7,78.6,42.7c32.8,0,61.7-16.9,78.4-42.4
			l-25-14.5C296.9,308.9,277.3,320,255.2,320z"/>
		<path class="st0" d="M320,255.2c0,10-2.3,19.5-6.3,28l25,14.5c6.5-12.7,10.1-27.2,10.1-42.5c0-50.1-39.3-91-88.8-93.6l0,28.9
			C293.6,193,320,221,320,255.2z"/>
	</g>
	<path id="SVGID_x5F_1_x5F_" class="st1" d="M184.4,213.3c23.1-39.1,73.5-52,112.5-28.9s52,73.5,28.9,112.5s-73.5,52-112.5,28.9
		S161.3,252.4,184.4,213.3z"/>
	<text>	<textPath  xlink:href="#SVGID_x5F_1_x5F_" startOffset="66.6667%">
<tspan  style="fill:#FFFFFF; font-family:'FiraSans-Light'; font-size:9.1537px;">Con innovación disruptiva para</tspan>	</textPath>
</text>
	<path id="SVGID_x5F_2_x5F_" class="st1" d="M254.3,331.8c-42.3-0.5-76.2-35.2-75.7-77.5c0.5-42.3,35.2-76.2,77.5-75.7
		c42.3,0.5,76.2,35.2,75.7,77.5S296.6,332.3,254.3,331.8z"/>
	<text>	<textPath  xlink:href="#SVGID_x5F_2_x5F_" startOffset="66.9923%">
<tspan  style="fill:#FFFFFF; font-family:'FiraSans-Light'; font-size:9.1537px;">Con un equipo capaz,</tspan>	</textPath>
</text>
	<path id="SVGID_x5F_3_x5F_" class="st1" d="M254.9,342.3c-48.1-0.1-87-39.3-86.9-87.4s39.3-87,87.4-86.9s87,39.3,86.9,87.4
		S303,342.4,254.9,342.3z"/>
	<text>	<textPath  xlink:href="#SVGID_x5F_3_x5F_" startOffset="66.6667%">
<tspan  style="fill:#FFFFFF; font-family:'FiraSans-Light'; font-size:9.1538px; letter-spacing:-45;">comprometido con tu salud y crecimiento.</tspan>	</textPath>
</text>
	<path id="SVGID_x5F_4_x5F_" class="st1" d="M193.5,219.2c19.9-34,63.5-45.5,97.6-25.7s45.5,63.5,25.7,97.6s-63.5,45.5-97.6,25.7
		S173.7,253.2,193.5,219.2z"/>
	<text>	<textPath  xlink:href="#SVGID_x5F_4_x5F_" startOffset="66.9923%">
<tspan  style="fill:#FFFFFF; font-family:'FiraSans-Light'; font-size:9.1537px;">cuidarte y facilitarte el día a día.</tspan>	</textPath>
</text>
	<path id="SVGID_x5F_5_x5F_" class="st1" d="M326.7,214.7c22.3,39.5,8.4,89.6-31.1,112s-89.6,8.4-112-31.1s-8.4-89.6,31.1-112
		S304.3,175.2,326.7,214.7z"/>
	<text>	<textPath  xlink:href="#SVGID_x5F_5_x5F_" startOffset="66.6667%">
<tspan  style="fill:#FFFFFF; font-family:'FiraSans-Light'; font-size:9.1537px;">Con productos frescos, naturales</tspan>	</textPath>
</text>
	<path id="SVGID_x5F_6_x5F_" class="st1" d="M317,219.7c19.6,34.2,7.8,77.8-26.4,97.4c-34.2,19.6-77.8,7.8-97.4-26.4
		s-7.8-77.8,26.4-97.4S297.4,185.5,317,219.7z"/>
	<text>	<textPath  xlink:href="#SVGID_x5F_6_x5F_" startOffset="66.9923%">
<tspan  style="fill:#FFFFFF; font-family:'FiraSans-Light'; font-size:9.1537px;">y de la más alta calidad.</tspan>	</textPath>
</text>
</g>
<g id="circulo-general_1_">
	<g>
		<path class="st2" d="M68,255.7c0-42.4,14.1-81.4,37.8-112.8l-18.1-14.4c-26.8,35.3-42.8,79.4-42.8,127.2c0,14.3,1.4,28.2,4.1,41.7
			l22.5-5.2C69.2,280.3,68,268.1,68,255.7z"/>
		<path class="st2" d="M461.7,297.4c2.7-13.5,4.1-27.4,4.1-41.7c0-47.9-16-92.1-43-127.5l-18.1,14.4c23.8,31.4,38,70.6,38,113.1
			c0,12.5-1.2,24.7-3.6,36.6L461.7,297.4z"/>
		<path class="st2" d="M260.2,68.3c55.4,1.4,104.8,26.9,138.2,66.3l18.1-14.4c-37.6-44.7-93.6-73.6-156.3-75V68.3z"/>
		<path class="st2" d="M332,426.7c-23.4,10.5-49.3,16.3-76.6,16.3c-27.4,0-53.5-5.9-77-16.5l-10,20.8c26.5,12,56,18.8,87,18.8
			c30.9,0,60.2-6.6,86.6-18.6L332,426.7z"/>
		<path class="st2" d="M112.1,134.9c33.3-39.5,82.6-65,138-66.5V45.3c-62.6,1.6-118.5,30.5-156,75.3L112.1,134.9z"/>
		<path class="st2" d="M437,302.2c-13.4,52.4-48.8,95.9-95.8,120.2l10,20.8c53.2-27.3,93.3-76.5,108.3-135.8L437,302.2z"/>
		<path class="st2" d="M169.3,422.1c-46.9-24.3-82.1-67.8-95.5-120l-22.5,5.2c14.9,59.2,54.9,108.4,107.9,135.7L169.3,422.1z"/>
	</g>
	<path id="SVGID_x5F_7_x5F_" class="st1" d="M450.3,309.6c-30.1,107.8-141.9,170.8-249.7,140.7C92.9,420.3,29.9,308.5,60,200.7
		S201.8,29.9,309.6,60S480.4,201.8,450.3,309.6z"/>
	<text>	<textPath  xlink:href="#SVGID_x5F_7_x5F_" startOffset="75.293%">
<tspan  style="fill:#FFFFFF; font-family:'FiraSans-Book'; font-size:10.1708px; letter-spacing:50;">Autoridades</tspan>	</textPath>
</text>
	<path id="SVGID_x5F_8_x5F_" class="st1" d="M411.4,139.1c64.1,86.3,46.1,208.2-40.2,272.3S163,457.5,98.9,371.2
		S52.8,163,139.1,98.9S347.3,52.8,411.4,139.1z"/>
	<text>	<textPath  xlink:href="#SVGID_x5F_8_x5F_" startOffset="75.293%">
<tspan  style="fill:#FFFFFF; font-family:'FiraSans-Book'; font-size:10.1708px; letter-spacing:50;">OSC’s</tspan>	</textPath>
</text>
	<path id="SVGID_x5F_9_x5F_" class="st1" d="M264.6,60.8c107.4,5.2,190.2,96.4,185,203.8s-96.4,190.2-203.8,185
		s-190.2-96.4-185-203.8S157.2,55.6,264.6,60.8z"/>
	<text>	<textPath  xlink:href="#SVGID_x5F_9_x5F_" startOffset="75.293%">
<tspan  style="fill:#FFFFFF; font-family:'FiraSans-Book'; font-size:10.1708px; letter-spacing:50;">Inversionistas</tspan>	</textPath>
</text>
	<path id="SVGID_x5F_10_x5F_" class="st1" d="M108.6,127.1c70.7-80.9,193.6-89.3,274.6-18.6s89.3,193.6,18.6,274.6
		s-193.6,89.3-274.6,18.6S37.9,208.1,108.6,127.1z"/>
	<text>	<textPath  xlink:href="#SVGID_x5F_10_x5F_" startOffset="75.293%">
<tspan  style="fill:#FFFFFF; font-family:'FiraSans-Book'; font-size:10.1708px; letter-spacing:50;">Consumidores</tspan>	</textPath>
</text>
	<path id="SVGID_x5F_11_x5F_" class="st1" d="M63.4,288.3C45.1,182.4,116.1,81.7,222,63.4S428.6,116.1,446.9,222
		c18.3,105.9-52.7,206.6-158.6,224.9C182.4,465.2,81.7,394.2,63.4,288.3z"/>
	<text>	<textPath  xlink:href="#SVGID_x5F_11_x5F_" startOffset="75.293%">
<tspan  style="fill:#FFFFFF; font-family:'FiraSans-Book'; font-size:10.1708px; letter-spacing:50;">Colaboradores</tspan>	</textPath>
</text>
	<path id="SVGID_x5F_12_x5F_" class="st1" d="M336.4,440.8c-102.5,44.9-222-1.9-266.9-104.4s1.9-222,104.4-266.9
		s222,1.9,266.9,104.4S438.9,395.9,336.4,440.8z"/>
	<text>	<textPath  xlink:href="#SVGID_x5F_12_x5F_" startOffset="75.293%">
<tspan  style="fill:#FFFFFF; font-family:'FiraSans-Book'; font-size:10.1707px; letter-spacing:50;">Proveedores</tspan>	</textPath>
</text>
	<path id="SVGID_x5F_13_x5F_" class="st1" d="M161.2,434.7C62,382.8,23.7,260.3,75.6,161.2S250,23.7,349.1,75.6
		S486.6,250,434.7,349.1S260.3,486.6,161.2,434.7z"/>
	<text>	<textPath  xlink:href="#SVGID_x5F_13_x5F_" startOffset="75.293%">
<tspan  style="fill:#FFFFFF; font-family:'FiraSans-Book'; font-size:10.1708px; letter-spacing:50;">Comunidad</tspan>	</textPath>
</text>
</g>
<g>
	<circle class="st3" cx="255.2" cy="255.2" r="100.9"/>
	<path id="SVGID_x5F_14_x5F_" class="st1" d="M149.9,255.2c0-58.1,47.1-105.2,105.2-105.2S360.4,197,360.4,255.2
		s-47.1,105.2-105.2,105.2S149.9,313.3,149.9,255.2z"/>
	<text>	<textPath  xlink:href="#SVGID_x5F_14_x5F_" startOffset="100%">
<tspan  style="fill:#878787; font-family:'FiraSans-Medium'; font-size:8.1366px; letter-spacing:2500;">CUMPLIMIENTO</tspan>	</textPath>
</text>
</g>
<g>
	<circle class="st3" cx="255.2" cy="255.2" r="217.7"/>
	<path id="SVGID_x5F_15_x5F_" class="st1" d="M33.2,255.2c0-122.6,99.4-222,222-222s222,99.4,222,222s-99.4,222-222,222
		S33.2,377.8,33.2,255.2z"/>
	<text>	<textPath  xlink:href="#SVGID_x5F_15_x5F_" startOffset="100%">
<tspan  style="fill:#878787; font-family:'FiraSans-Medium'; font-size:8.1366px; letter-spacing:3000;">CREACIÓN DE VALOR</tspan>	</textPath>
</text>
</g>
<g>
	<path class="st4" d="M255.2,0C114.2,0,0,114.2,0,255.2s114.2,255.2,255.2,255.2s255.2-114.2,255.2-255.2S396.1,0,255.2,0z
		 M255.2,493C123.8,493,17.3,386.5,17.3,255.2S123.8,17.3,255.2,17.3S493,123.8,493,255.2S386.5,493,255.2,493z"/>
	<path id="SVGID_x5F_16_x5F_" class="st1" d="M505.3,255.2c0,138.1-112,250.1-250.1,250.1S5,393.3,5,255.2S117,5,255.2,5
		S505.3,117,505.3,255.2z"/>
	<text>	<textPath  xlink:href="#SVGID_x5F_16_x5F_" startOffset="100%">
<tspan  style="fill:#878787; font-family:'FiraSans-Medium'; font-size:10.1708px; letter-spacing:500;">Ser la empresa preferida de lácteos en América</tspan>	</textPath>
</text>
</g>
<g id="desarrollo-sustentable_1_">
	<circle class="st3" cx="255.2" cy="255.2" r="165.8"/>
	<path id="SVGID_x5F_17_x5F_" class="st1" d="M85.1,255.2c0-93.9,76.2-170.1,170.1-170.1s170.1,76.2,170.1,170.1
		s-76.2,170.1-170.1,170.1S85.1,349.1,85.1,255.2z"/>
	<text>	<textPath  xlink:href="#SVGID_x5F_17_x5F_" startOffset="100%">
<tspan  style="fill:#878787; font-family:'FiraSans-Medium'; font-size:8.1366px; letter-spacing:2000;">DESARROLLO SUSTENTABLE</tspan>	</textPath>
</text>
</g>
<g id="planeta-sociendad_1_">
	<g>
		<path class="st5" d="M134.3,255.1c0-11.2,1.5-22,4.4-32.2l-35.9-11.7c-4,13.9-6.2,28.7-6.2,43.9c0,50.8,23.9,96.1,61.1,125.1
			l22.2-30.6C152.1,327.5,134.3,293.4,134.3,255.1z"/>
		<path class="st6" d="M376,255.1c0,38.3-17.8,72.4-45.6,94.5l22.2,30.6c37.2-29,61.1-74.3,61.1-125.1c0-15.2-2.2-30-6.2-43.9
			l-35.9,11.7C374.4,233.2,376,244,376,255.1z"/>
		<path class="st7" d="M321.8,355.9c-19.1,12.7-42,20-66.6,20c-24.6,0-47.5-7.4-66.6-20l-22.2,30.6c25.3,17.2,55.9,27.2,88.8,27.2
			s63.5-10,88.8-27.2L321.8,355.9z"/>
		<path class="st8" d="M142,212.8c16.6-44.2,58.3-76.2,107.8-78.3V96.7c-66.3,2.2-122.3,45-143.8,104.4L142,212.8z"/>
		<path class="st9" d="M260.5,134.5c49.5,2.1,91.3,34.1,107.8,78.3l35.9-11.7c-21.5-59.4-77.5-102.2-143.8-104.4V134.5z"/>
	</g>
	<path id="SVGID_x5F_18_x5F_" class="st1" d="M146.6,332.3c-42.6-60-28.5-143.1,31.5-185.7s143.1-28.5,185.7,31.5
		s28.5,143.1-31.5,185.7S189.2,392.2,146.6,332.3z"/>
	<text>	<textPath  xlink:href="#SVGID_x5F_18_x5F_" startOffset="100%">
<tspan  style="fill:#FFFFFF; font-family:'FiraSans-Bold'; font-size:14.239px; letter-spacing:100;">Planeta</tspan>	</textPath>
</text>
	<path id="SVGID_x5F_19_x5F_" class="st1" d="M147.7,176.4c43.5-59.3,126.8-72.1,186.2-28.7s72.1,126.8,28.7,186.2
		s-126.8,72.1-186.2,28.7S104.2,235.7,147.7,176.4z"/>
	<text>	<textPath  xlink:href="#SVGID_x5F_19_x5F_" startOffset="100%">
<tspan  style="fill:#FFFFFF; font-family:'FiraSans-Bold'; font-size:14.2392px; letter-spacing:100;">Sociedad</tspan>	</textPath>
</text>
	<path id="SVGID_x5F_20_x5F_" class="st1" d="M303,118.9c75.2,26.4,114.8,108.9,88.3,184.1c-26.4,75.2-108.9,114.8-184.1,88.3
		S92.5,282.5,118.9,207.3S227.8,92.5,303,118.9z"/>
	<text>	<textPath  xlink:href="#SVGID_x5F_20_x5F_" startOffset="100%">
<tspan  style="fill:#FFFFFF; font-family:'FiraSans-Bold'; font-size:14.2392px; letter-spacing:100;">Consumidores</tspan>	</textPath>
</text>
	<path id="SVGID_x5F_21_x5F_" class="st1" d="M399.5,254.7c0.3,79.7-64.2,144.6-143.9,144.9S111,335.4,110.8,255.6
		c-0.3-79.7,64.2-144.6,143.9-144.9C334.4,110.5,399.3,174.9,399.5,254.7z"/>
	<text>	<textPath  xlink:href="#SVGID_x5F_21_x5F_" startOffset="100%">
<tspan  style="fill:#FFFFFF; font-family:'FiraSans-Bold'; font-size:12.2049px; letter-spacing:100;">Gobierno Corporativo</tspan>	</textPath>
</text>
	<path id="SVGID_x5F_22_x5F_" class="st1" d="M297.7,393.1c-76.2,23.5-157-19.2-180.5-95.4s19.2-157,95.4-180.5s157,19.2,180.5,95.4
		S373.9,369.6,297.7,393.1z"/>
	<text>	<textPath  xlink:href="#SVGID_x5F_22_x5F_" startOffset="100%">
<tspan  style="fill:#FFFFFF; font-family:'FiraSans-Bold'; font-size:14.2391px; letter-spacing:100;">Empresa</tspan>	</textPath>
</text>
</g>
<g>
	<g>
		<g>
			<g>
				<g>
					<g>
						<g>
							<path class="st10" d="M254.8,263.1c-2-5.9-6-15.9-6-16c-1.2-3-3.5-4.8-6.7-4.4c-2.5,0.3-5.1,0.7-5.1,0.7
								c-2.5,0.4-4.1,1.8-5.7,5.2l-8,16.4c3.1-1.9,5.8-4,9.6-5.9c0.9-0.5,1.7-1,2.1-2c0,0,3.3-7.9,3.6-8.8c0.3-0.8,0.8-1.6,1.4-1.7
								c0.4-0.1,1,0.5,1.3,1.5c0.3,0.9,3.4,11.8,3.6,12.7c-9.9-3-17,5.7-24.8,9.3c-3,1.4-4.1-0.3-3.7-2.5c0.4-2.2,3.5-18.1,3.5-18.1
								c0.2-1,0-1.8-0.5-2.4c-0.7-0.8-2-1.2-3.4-1l-4.7,0.8l-4.2,23.1c-0.9,5.2,3.3,7.7,11.5,4.4c8.4-3.4,23.9-10.9,29.8-3.2
								C256,269.4,255.8,265.9,254.8,263.1z"/>
						</g>
						<g>
							<path class="st10" d="M302.7,256.6c-2-5.9-6-15.9-6-16c-1.2-3-3.5-4.8-6.7-4.4c-2.5,0.3-5.1,0.7-5.1,0.7
								c-2.5,0.4-4.1,1.8-5.7,5.2l-8,16.4c3.1-1.9,5.8-4,9.6-5.9c0.9-0.5,1.7-1,2.1-2c0,0,3.3-7.9,3.6-8.8c0.3-0.8,0.8-1.6,1.4-1.7
								c0.4-0.1,1,0.5,1.3,1.5c0.3,0.9,3.4,11.8,3.6,12.7c-9.9-3-17,5.7-24.8,9.3c-3,1.4-4.1-0.3-3.7-2.5c0.4-2.2,3.5-18.1,3.5-18.1
								c0.2-1,0-1.8-0.5-2.4c-0.7-0.8-2-1.2-3.4-1l-4.7,0.8l-4.2,23.1c-0.9,5.2,3.3,7.7,11.5,4.4c8.4-3.4,23.9-10.9,29.8-3.2
								C303.9,263,303.7,259.4,302.7,256.6z"/>
						</g>
					</g>
				</g>
			</g>
		</g>
		<g>
			<path class="st10" d="M304.9,236.8c-0.6,0.6-1.3,0.9-2.1,0.9c-0.8,0-1.5-0.3-2.1-0.9c-0.6-0.6-0.9-1.3-0.9-2.1
				c0-0.8,0.3-1.5,0.9-2.1c0.6-0.6,1.3-0.9,2.1-0.9c0.8,0,1.5,0.3,2.1,0.9c0.6,0.6,0.9,1.3,0.9,2.1
				C305.8,235.5,305.5,236.2,304.9,236.8z M301,232.9c-0.5,0.5-0.7,1.1-0.7,1.8c0,0.7,0.2,1.3,0.7,1.8c0.5,0.5,1.1,0.7,1.8,0.7
				c0.7,0,1.3-0.3,1.8-0.7c0.5-0.5,0.7-1.1,0.7-1.8c0-0.7-0.2-1.3-0.7-1.8c-0.5-0.5-1.1-0.7-1.8-0.7
				C302.1,232.1,301.5,232.4,301,232.9z M302.8,233c0.4,0,0.7,0,0.9,0.1c0.3,0.1,0.5,0.4,0.5,0.8c0,0.3-0.1,0.5-0.3,0.6
				c-0.1,0.1-0.3,0.1-0.5,0.2c0.3,0,0.4,0.1,0.6,0.3c0.1,0.2,0.2,0.3,0.2,0.5v0.2c0,0.1,0,0.2,0,0.2c0,0.1,0,0.1,0,0.2l0,0h-0.5
				c0,0,0,0,0,0c0,0,0,0,0,0l0-0.1v-0.3c0-0.4-0.1-0.6-0.3-0.7c-0.1-0.1-0.3-0.1-0.6-0.1h-0.5v1.3h-0.6V233H302.8z M303.4,233.5
				c-0.1-0.1-0.4-0.1-0.7-0.1h-0.5v1.2h0.5c0.2,0,0.4,0,0.5-0.1c0.2-0.1,0.3-0.3,0.3-0.5C303.6,233.8,303.5,233.6,303.4,233.5z"/>
		</g>
	</g>
</g>
</svg>
