<svg xmlns="http://www.w3.org/2000/svg" viewBox="0 0 317.14 317.04"><defs><style>.cls-1{fill:#5770b4;}.cls-2{fill:#63b2bc;}.cls-3{fill:#5a4494;}.cls-4{fill:#6ab545;}.cls-5{fill:#943c8f;}.cls-6{fill:#fff;}</style></defs><title>planeta-sociedad</title><g id="Layer_2" data-name="Layer 2"><g id="Capa_1" data-name="Capa 1"><g id="planeta-sociendad"><path class="cls-1" d="M37.75,158.47a120.92,120.92,0,0,1,4.36-32.24L6.17,114.55a158.77,158.77,0,0,0,54.94,169L83.32,253A120.59,120.59,0,0,1,37.75,158.47Z"/><path class="cls-2" d="M279.38,158.47A120.59,120.59,0,0,1,233.82,253L256,283.55a158.77,158.77,0,0,0,54.94-169L275,126.23A120.92,120.92,0,0,1,279.38,158.47Z"/><path class="cls-3" d="M225.21,259.25a120.84,120.84,0,0,1-133.27,0L69.72,289.82a158.65,158.65,0,0,0,177.7,0Z"/><path class="cls-4" d="M45.4,116.1A120.87,120.87,0,0,1,153.24,37.78V0A158.64,158.64,0,0,0,9.46,104.42Z"/><path class="cls-5" d="M163.9,37.78A120.87,120.87,0,0,1,271.74,116.1l35.95-11.68A158.64,158.64,0,0,0,163.9,0Z"/><path class="cls-6" d="M60.11,59c1.66,1.58,1.3,3.49-.27,5.14l-.74.77,2.38,2.27-1.61,1.69L52.74,62l2.2-2.3C56.7,57.89,58.55,57.49,60.11,59Zm-1.66,1.74c-.76-.73-1.52-.65-2.32.18l-.57.6,2.33,2.23.6-.63A1.47,1.47,0,0,0,58.45,60.72Z"/><path class="cls-6" d="M65.28,60.62l-5.9-6.32,1.48-1.71,6,6.43c.21.23.4.27.6.08a.9.9,0,0,0,.22-.3l1.41.86a3.63,3.63,0,0,1-.82,1.12A1.93,1.93,0,0,1,65.28,60.62Z"/><path class="cls-6" d="M74.82,53.14l.58,1.43a1.89,1.89,0,0,1-2.1.33,2.55,2.55,0,0,1-1,2.34A2.28,2.28,0,0,1,68.88,57c-1.06-1.27-.68-2.76,1.08-4.23l.59-.49L70.34,52c-.58-.69-1-.67-1.73-.07a6.79,6.79,0,0,0-1.26,1.57L66,52.72a8.53,8.53,0,0,1,1.83-2.25c1.68-1.41,3-1.3,4.12,0l1.88,2.25C74.21,53.21,74.47,53.27,74.82,53.14Zm-2.61,1.11-.86-1-.43.36c-.79.66-.94,1.25-.46,1.83a.84.84,0,0,0,1.29.17A1.35,1.35,0,0,0,72.21,54.26Z"/><path class="cls-6" d="M79.66,44.25l3.27,4.45L81.11,50l-3-4.14c-.47-.64-.82-.65-1.17-.39a1.67,1.67,0,0,0-.47,1.57l3.06,4.17-1.81,1.33L73.2,46.47l1.58-1.16.66.63a2.87,2.87,0,0,1,1.18-2.28A2,2,0,0,1,79.66,44.25Z"/><path class="cls-6" d="M89.29,41l-4,2.49c.85,1.06,1.59,1,2.38.55a3.07,3.07,0,0,0,1.18-1.53l1.45.57a4.65,4.65,0,0,1-1.94,2.46c-2.14,1.34-4.09.64-5.34-1.36s-1.1-4.1.84-5.32,3.71-.65,5,1.43A7.26,7.26,0,0,1,89.29,41Zm-2.61-.08c-.56-.86-1.2-1.3-2-.82s-.76,1-.12,2.25L86.73,41Z"/><path class="cls-6" d="M97.2,39.75a3.75,3.75,0,0,1-1.51,1.51C94.21,42,93,41.6,92.2,40L90.52,37l-.94.51-.75-1.38.94-.51L89,34.15l1.85-1.3.91,1.66,1.52-.83.54,1.49-1.31.72,1.66,3.05c.35.64.68.75,1.1.52a1.61,1.61,0,0,0,.6-.6Z"/><path class="cls-6" d="M104.39,35.28l.2,1.53a1.89,1.89,0,0,1-2.12-.21,2.55,2.55,0,0,1-1.57,2,2.29,2.29,0,0,1-3.24-1.09c-.71-1.49,0-2.84,2.12-3.82l.69-.33-.14-.3c-.38-.81-.82-.91-1.66-.51a6.81,6.81,0,0,0-1.62,1.21L96,32.64a8.55,8.55,0,0,1,2.34-1.72c2-.94,3.23-.5,4,1.08l1.25,2.65C103.78,35.19,104,35.31,104.39,35.28Zm-2.81.41L101,34.48l-.5.24c-.93.44-1.23,1-.9,1.65a.84.84,0,0,0,1.21.49A1.34,1.34,0,0,0,101.58,35.69Z"/><path class="cls-6" d="M216.62,28.78l-1.49.75a3.3,3.3,0,0,0-1.68-1.6c-.75-.31-1.35-.2-1.59.38s0,1,1.23,2c1.49,1.27,2.18,2.39,1.47,4.07s-2.54,2.31-4.81,1.36A5.23,5.23,0,0,1,206.84,33l1.59-.74a3.7,3.7,0,0,0,1.92,1.85c.89.37,1.62.19,1.91-.51s.07-1.11-1.09-2.08c-1.77-1.48-2.17-2.64-1.6-4,.67-1.6,2.49-2,4.38-1.25A4.61,4.61,0,0,1,216.62,28.78Z"/><path class="cls-6" d="M223.63,37.88c-1.1,2.16-3.06,3-5.12,1.91s-2.63-3-1.48-5.27,3.06-3,5.12-1.91S224.78,35.61,223.63,37.88Zm-4.52-2.3c-.76,1.5-.67,2.33.14,2.74s1.55,0,2.29-1.49.67-2.33-.14-2.74S219.85,34.12,219.11,35.58Z"/><path class="cls-6" d="M232.75,39.61l-1.52.66a2.27,2.27,0,0,0-1-1.2c-.83-.49-1.65-.21-2.51,1.25s-.6,2.19.17,2.65a2.51,2.51,0,0,0,1.51.3l.13,1.7a3.93,3.93,0,0,1-2.65-.53c-2-1.18-2.42-3.26-1.2-5.32S229,36.34,231,37.49A3.8,3.8,0,0,1,232.75,39.61Z"/><path class="cls-6" d="M233,48l-1.87-1.24,4.18-6.3,1.87,1.24Zm5.84-8.44a1.27,1.27,0,0,1-1.82.33,1.28,1.28,0,1,1,1.82-.33Z"/><path class="cls-6" d="M242.65,51.18l-3.73-2.83c-.69,1.17-.41,1.85.33,2.41a3.07,3.07,0,0,0,1.84.56l0,1.56a4.65,4.65,0,0,1-3-.94c-2-1.52-2-3.59-.62-5.47s3.44-2.49,5.27-1.1,1.92,3.24.44,5.19A7.32,7.32,0,0,1,242.65,51.18Zm-.85-2.47c.61-.83.79-1.58.07-2.12s-1.25-.34-2.14.68l2,1.52Z"/><path class="cls-6" d="M254.82,51.64l-6.87,8-1.51-1.3.49-.74a2.52,2.52,0,0,1-2.36-.55c-1.46-1.25-1.15-3.08.45-4.94s3.53-2.24,4.95-1a2.48,2.48,0,0,1,.9,1.71L253.27,50Zm-7.11,4.83L249.84,54a1.49,1.49,0,0,0-.48-1.25c-.6-.52-1.48-.37-2.58.92s-1.16,2.14-.61,2.61A1.51,1.51,0,0,0,247.71,56.48Z"/><path class="cls-6" d="M255.7,65.39l-1.36.71a1.89,1.89,0,0,1-.53-2.06,2.55,2.55,0,0,1-2.42-.79,2.28,2.28,0,0,1-.09-3.41c1.16-1.18,2.68-.93,4.31.68l.55.54.23-.23c.63-.64.57-1.08-.09-1.73A6.88,6.88,0,0,0,254.6,58l.68-1.41a8.55,8.55,0,0,1,2.42,1.61c1.56,1.54,1.58,2.86.35,4.1L256,64.37C255.57,64.79,255.53,65.05,255.7,65.39Zm-1.35-2.5.94-1-.4-.39c-.73-.72-1.33-.82-1.86-.28a.84.84,0,0,0,0,1.3A1.35,1.35,0,0,0,254.34,62.89Z"/><path class="cls-6" d="M268.94,66.25l-7.93,7-1.32-1.5.59-.67a2.52,2.52,0,0,1-2.26-.87c-1.27-1.44-.7-3.21,1.14-4.83s3.81-1.72,5-.32a2.47,2.47,0,0,1,.65,1.82l2.79-2.45ZM261.22,70l2.45-2.15a1.49,1.49,0,0,0-.3-1.31c-.53-.6-1.42-.58-2.69.54s-1.45,2-1,2.5A1.51,1.51,0,0,0,261.22,70Z"/><path class="cls-6" d="M265.39,241.8l.31,1.7a2.83,2.83,0,0,0-1.66.94c-.81,1-.59,2.3,1.27,3.85s3.17,1.49,4,.48a3.12,3.12,0,0,0,.62-2l1.69.05a4.37,4.37,0,0,1-1,3.19c-1.73,2.09-4.28,2.32-6.89.17s-2.75-4.77-1.11-6.75A4.34,4.34,0,0,1,265.39,241.8Z"/><path class="cls-6" d="M275,237.57c2,1.41,2.45,3.48,1.1,5.35s-3.36,2.15-5.43.66-2.45-3.48-1.1-5.35S272.89,236.08,275,237.57Zm-3,4.11c1.36,1,2.2,1,2.73.28s.21-1.54-1.12-2.49-2.2-1-2.73-.28S270.66,240.73,272,241.68Z"/><path class="cls-6" d="M278.49,228.67l4.71,2.9L282,233.48l-4.38-2.7c-.68-.42-1-.3-1.23.08a1.67,1.67,0,0,0,.15,1.63l4.4,2.71-1.18,1.92-6.44-4,1-1.67.85.34a2.88,2.88,0,0,1,.24-2.56A2,2,0,0,1,278.49,228.67Z"/><path class="cls-6" d="M281.4,220.46l.73,1.32a3.48,3.48,0,0,0-1.39,1.38c-.29.54-.22.91.08,1.07s.6.09,1.58-.92,2-1.57,3.22-.94c1.38.73,1.51,2.47.63,4.14a4.7,4.7,0,0,1-2.47,2.27l-.57-1.54a3.32,3.32,0,0,0,1.59-1.43c.32-.6.29-1.09-.12-1.3s-.7-.11-1.68.92-2.1,1.42-3.13.87-1.49-2.12-.59-3.81A4.39,4.39,0,0,1,281.4,220.46Z"/><path class="cls-6" d="M291.53,214.94l-.8,1.78-.91-.3A2.62,2.62,0,0,1,290,219c-.58,1.29-1.7,1.55-3,.95L282,217.72l.92-2.05,4.69,2.11c.7.32,1,.18,1.21-.25a1.48,1.48,0,0,0-.3-1.48l-4.79-2.16.92-2.05Z"/><path class="cls-6" d="M291.33,199.86l5.18,1.92-.78,2.11-4.82-1.78c-.75-.28-1.05-.07-1.17.25s0,.9.52,1.42l4.85,1.79-.78,2.11-4.82-1.78c-.75-.28-1.05-.07-1.17.25s0,.9.52,1.42l4.85,1.79-.78,2.11-7.09-2.62.68-1.84.88.16a2.64,2.64,0,0,1-.29-2.45,1.79,1.79,0,0,1,1.74-1.25,2.65,2.65,0,0,1-.34-2.54A2,2,0,0,1,291.33,199.86Z"/><path class="cls-6" d="M288.14,193.27a1.27,1.27,0,0,1,.87,1.63,1.28,1.28,0,1,1-2.47-.69A1.27,1.27,0,0,1,288.14,193.27Zm9.83,3-.61,2.17-7.28-2,.61-2.17Z"/><path class="cls-6" d="M290,183.93l10.31,2.28-.43,1.95-.89-.08a2.52,2.52,0,0,1,.63,2.34c-.42,1.88-2.18,2.46-4.57,1.93s-3.64-2.06-3.24-3.88a2.48,2.48,0,0,1,1.08-1.6l-3.63-.8Zm7.62,4-3.18-.7a1.49,1.49,0,0,0-.88,1c-.17.78.37,1.48,2,1.85,1.83.41,2.43,0,2.59-.7A1.51,1.51,0,0,0,297.65,187.91Z"/><path class="cls-6" d="M298.28,175.2c2.4.35,3.77,2,3.43,4.25s-2,3.45-4.53,3.08-3.77-2-3.43-4.25S295.76,174.82,298.28,175.2Zm-.75,5c1.66.25,2.42-.1,2.55-1s-.52-1.46-2.14-1.7-2.42.1-2.55,1S295.91,180,297.53,180.21Z"/><path class="cls-6" d="M295.09,167.15l2.14.54a2.77,2.77,0,0,0-.16.67c-.08.94.58,1.38,1.71,1.72l3.73.32-.19,2.24L294.8,172l.17-2,1.48-.06a2.14,2.14,0,0,1-1.51-2.08A2.54,2.54,0,0,1,295.09,167.15Z"/><path class="cls-6" d="M299.94,159l-.13,4.68c1.36-.12,1.75-.75,1.77-1.67a3.06,3.06,0,0,0-.62-1.83l1.28-.89a4.64,4.64,0,0,1,1,3c-.07,2.52-1.73,3.75-4.09,3.68s-4-1.35-4-3.65,1.52-3.45,4-3.38A7.49,7.49,0,0,1,299.94,159Zm-1.51,2.12c-1,0-1.75.28-1.77,1.17s.45,1.21,1.8,1.35l.07-2.52Z"/><path class="cls-6" d="M295.94,150.73l1.3.78a3.46,3.46,0,0,0-.52,1.89c0,.61.26.9.6.89s.56-.22.91-1.59,1-2.37,2.32-2.42c1.57-.06,2.54,1.39,2.61,3.27a4.7,4.7,0,0,1-1,3.2l-1.26-1.05a3.31,3.31,0,0,0,.67-2c0-.68-.3-1.09-.75-1.07s-.66.25-1,1.63-1.12,2.28-2.28,2.32-2.35-1.1-2.42-3A4.4,4.4,0,0,1,295.94,150.73Z"/><path class="cls-6" d="M99,281.62l-1.39.48a2.59,2.59,0,0,0-1.23-1.36c-1.05-.54-2.24-.16-3.2,1.7s-.84,2.92.2,3.45a2.31,2.31,0,0,0,1.15.28l.88-1.7-1-.5.48-1.35,2.88,1.48-1.92,3.72a5.78,5.78,0,0,1-3.11-.6c-2.3-1.19-2.74-3.16-1.41-5.73s3.62-3.12,5.63-2.08A4.09,4.09,0,0,1,99,281.62Z"/><path class="cls-6" d="M104.89,289.06c-.83,1.9-2.48,2.68-4.29,1.88s-2.4-2.44-1.52-4.44,2.48-2.68,4.29-1.88S105.76,287.06,104.89,289.06Zm-4-1.75c-.58,1.32-.46,2,.26,2.34s1.32-.1,1.89-1.39.46-2-.26-2.34S101.47,286,100.91,287.31Z"/><path class="cls-6" d="M112.91,292.08c-.69,1.88-2.09,2.9-3.6,2.34a2.08,2.08,0,0,1-1.31-1.36l-.31.55-1.6-.59,3.12-8.5,1.88.47-1.19,3.23a2.14,2.14,0,0,1,1.94-.21C113.29,288.54,113.66,290,112.91,292.08Zm-1.88-.69c.57-1.55.29-2.07-.28-2.28a1.32,1.32,0,0,0-1.29.33l-.93,2.53a1.19,1.19,0,0,0,.74.93C109.89,293.14,110.51,292.81,111,291.39Z"/><path class="cls-6" d="M116.15,296.49l-1.84-.58,1.94-6.18,1.84.58Zm2.8-8.34a1.14,1.14,0,1,1-.77-1.39A1.09,1.09,0,0,1,119,288.15Z"/><path class="cls-6" d="M125.13,296.21l-3.88-1c-.17,1.16.28,1.6,1.05,1.81a2.62,2.62,0,0,0,1.65-.16l.49,1.24a4,4,0,0,1-2.67.23c-2.09-.55-2.8-2.18-2.28-4.14s1.92-3.09,3.82-2.59,2.58,1.94,2,4A6.42,6.42,0,0,1,125.13,296.21Zm-1.48-1.68c.21-.85.11-1.51-.63-1.71s-1.1.14-1.48,1.24l2.09.55Z"/><path class="cls-6" d="M132.41,293.78l-.68,1.76a2.37,2.37,0,0,0-.56-.2c-.79-.17-1.23.35-1.64,1.28l-.66,3.14-1.89-.4,1.33-6.34,1.65.35-.1,1.26a1.83,1.83,0,0,1,1.93-1.06A2.14,2.14,0,0,1,132.41,293.78Z"/><path class="cls-6" d="M139.48,296.82l-.74,4.68-1.91-.3.69-4.35c.11-.67-.09-.89-.47-1s-.82.18-1.24.66l-.69,4.38-1.91-.3,1-6.41,1.66.26v.78a2.46,2.46,0,0,1,2.11-.66A1.72,1.72,0,0,1,139.48,296.82Z"/><path class="cls-6" d="M148,299.22c-.2,2.07-1.52,3.31-3.49,3.12s-3-1.57-2.83-3.74,1.52-3.31,3.49-3.12S148.18,297,148,299.22Zm-4.32-.43c-.14,1.43.19,2.07,1,2.14s1.23-.51,1.36-1.91-.19-2.07-1-2.14S143.78,297.39,143.65,298.79Z"/><path class="cls-6" d="M160.73,295.11l-1,1.12a2.43,2.43,0,0,0-1.52-.61c-1.09,0-1.85.84-1.88,2.92s.71,2.92,1.83,2.93a2.66,2.66,0,0,0,1.67-.66l.88,1.16a3.75,3.75,0,0,1-2.66,1.05c-2.32,0-3.85-1.61-3.81-4.51s1.71-4.4,3.9-4.37A3.72,3.72,0,0,1,160.73,295.11Z"/><path class="cls-6" d="M168.67,299.25c.1,2.07-1,3.5-3,3.59s-3.23-1.11-3.34-3.3,1-3.5,3-3.59S168.57,297.07,168.67,299.25Zm-4.34.2c.07,1.44.49,2,1.27,2s1.14-.68,1.07-2.08-.49-2-1.27-2S164.27,298,164.33,299.45Z"/><path class="cls-6" d="M174.92,295.29l-.12,1.89a2.39,2.39,0,0,0-.59,0c-.8.08-1.07.71-1.18,1.71l.32,3.19-1.92.19-.64-6.45,1.67-.17.28,1.23a1.83,1.83,0,0,1,1.52-1.6A2.21,2.21,0,0,1,174.92,295.29Z"/><path class="cls-6" d="M183.29,297.42c.3,2-.44,3.57-2,3.82a2,2,0,0,1-1.66-.42l.45,2.93-1.87.5-1.4-9.08,1.68-.26.21.7a2.36,2.36,0,0,1,1.7-1.2C182,294.15,183,295.35,183.29,297.42Zm-2,.33c-.25-1.59-.7-2-1.32-1.86a1.33,1.33,0,0,0-1,.92l.42,2.7a1.15,1.15,0,0,0,1.06.42C181.19,299.82,181.53,299.19,181.31,297.75Z"/><path class="cls-6" d="M191.64,295.7c.44,2-.44,3.62-2.37,4s-3.37-.57-3.83-2.7.44-3.62,2.37-4S191.17,293.57,191.64,295.7Zm-4.25.91c.31,1.41.81,1.91,1.58,1.74s1-.86.72-2.23-.81-1.91-1.58-1.74S187.09,295.24,187.39,296.61Z"/><path class="cls-6" d="M197.17,290.76l.19,1.88a2.33,2.33,0,0,0-.59.07c-.78.21-.94.88-.88,1.88l.84,3.1-1.86.5-1.7-6.26,1.63-.44.48,1.17a1.83,1.83,0,0,1,1.24-1.83A2.23,2.23,0,0,1,197.17,290.76Z"/><path class="cls-6" d="M205.58,293.85v1.32a1.62,1.62,0,0,1-1.78-.41,2.18,2.18,0,0,1-1.56,1.53,2,2,0,0,1-2.63-1.28c-.44-1.35.35-2.41,2.22-3l.63-.2-.09-.27c-.24-.73-.6-.86-1.35-.62a5.88,5.88,0,0,0-1.51.85l-.81-1.07a7.34,7.34,0,0,1,2.18-1.21c1.79-.58,2.8-.07,3.26,1.36l.77,2.39C205.07,293.71,205.26,293.84,205.58,293.85Zm-2.44,0-.35-1.09-.45.15c-.84.27-1.15.69-.95,1.31a.72.72,0,0,0,1,.54A1.16,1.16,0,0,0,203.15,293.9Z"/><path class="cls-6" d="M212,292.27a3.22,3.22,0,0,1-1.46,1.1c-1.34.5-2.28,0-2.82-1.44l-1.07-2.81-.86.33-.48-1.25.86-.33-.5-1.31,1.73-.89.58,1.52,1.39-.53.28,1.33-1.2.46,1.06,2.78c.22.58.49.71.87.57a1.35,1.35,0,0,0,.58-.44Z"/><path class="cls-6" d="M212.53,282.84a1.14,1.14,0,1,1-1.48-.56A1.09,1.09,0,0,1,212.53,282.84Zm3.28,8.16-1.77.75-2.53-6,1.77-.75Z"/><path class="cls-6" d="M221.7,288.3l-2.06,1-4.67-5,1.89-.9,3.2,4-1.08-5,1.77-.85Z"/><path class="cls-6" d="M229.08,280.75c1,1.82.6,3.59-1.13,4.54s-3.39.41-4.44-1.51-.6-3.59,1.13-4.54S228,278.84,229.08,280.75Zm-3.82,2.08c.69,1.26,1.32,1.6,2,1.23s.73-1.11.05-2.34-1.32-1.6-2-1.22S224.58,281.6,225.26,282.83Z"/><path class="cls-6" d="M23.36,175.36,23,171.9l-2.35.25.31,3-1.63.17-.31-3-2.51.26.39,3.69-1.67.17-.63-6,9.81-1,.63,6Z"/><path class="cls-6" d="M22.92,188.75l-5.43,1-.41-2.21,5.05-.94c.78-.15.94-.48.88-.81s-.5-.75-1.18-1l-5.08.94-.41-2.21,5.05-.94c.78-.15.94-.48.88-.81s-.5-.75-1.18-1L16,181.8l-.41-2.21L23,178.21l.36,1.93-.84.32a2.63,2.63,0,0,1,1.51,2,1.79,1.79,0,0,1-.85,2,2.66,2.66,0,0,1,1.59,2A2,2,0,0,1,22.92,188.75Z"/><path class="cls-6" d="M23.92,199.1c-2.25.62-4.2,0-4.69-1.83a2.36,2.36,0,0,1,.27-2l-3.34.91-.83-2.11,10.35-2.83.52,1.91-.78.33A2.75,2.75,0,0,1,27,195.33C27.55,197.21,26.28,198.46,23.92,199.1Zm-.64-2.25c1.81-.5,2.17-1.07,2-1.78a1.56,1.56,0,0,0-1.2-1l-3.08.84a1.34,1.34,0,0,0-.34,1.29C20.86,197,21.64,197.3,23.28,196.86Z"/><path class="cls-6" d="M30.08,205.28l-2.18.37a2.7,2.7,0,0,0-.13-.68c-.3-.89-1.09-1-2.26-.89L22,205.29l-.73-2.13,7.16-2.44.63,1.86-1.33.65a2.14,2.14,0,0,1,2.22,1.3A2.55,2.55,0,0,1,30.08,205.28Z"/><path class="cls-6" d="M28.92,214.73l-1.76-4.34c-1.2.65-1.3,1.38-1,2.24a3.07,3.07,0,0,0,1.3,1.43l-.82,1.33A4.65,4.65,0,0,1,24.61,213c-.94-2.34.08-4.13,2.27-5s4.23-.37,5.09,1.75,0,3.77-2.28,4.69A7.47,7.47,0,0,1,28.92,214.73Zm.54-2.55c.95-.4,1.49-1,1.15-1.79s-.9-.93-2.19-.51l.94,2.34Z"/><path class="cls-6" d="M35.85,220.65l-1.5-.2a3.47,3.47,0,0,0-.28-1.93c-.26-.55-.6-.72-.91-.58s-.43.43-.2,1.82.06,2.56-1.16,3.15c-1.41.67-2.89-.26-3.7-2a4.7,4.7,0,0,1-.35-3.34l1.58.46a3.31,3.31,0,0,0,.2,2.13c.29.62.7.88,1.12.68s.5-.49.26-1.89.11-2.53,1.17-3,2.59.07,3.41,1.79A4.39,4.39,0,0,1,35.85,220.65Z"/><path class="cls-6" d="M35.38,231.47l-1.51.31a1.89,1.89,0,0,1,.07-2.13,2.55,2.55,0,0,1-2.11-1.43,2.29,2.29,0,0,1,.86-3.31c1.44-.81,2.84-.15,4,1.85l.38.67.29-.16c.78-.44.85-.88.39-1.69a6.82,6.82,0,0,0-1.31-1.53l1-1.17a8.56,8.56,0,0,1,1.88,2.22c1.07,1.92.72,3.19-.81,4l-2.56,1.43C35.42,230.86,35.32,231.1,35.38,231.47Zm-.61-2.78,1.17-.65-.27-.49c-.5-.89-1.05-1.16-1.71-.79a.84.84,0,0,0-.4,1.24A1.35,1.35,0,0,0,34.77,228.69Z"/></g></g></g></svg>
