<svg xmlns="http://www.w3.org/2000/svg" viewBox="0 0 319.24 317.04"><defs><style>.cls-1{fill:#5770b4;}.cls-2{fill:#63b2bc;}.cls-3{fill:#5a4494;}.cls-4{fill:#6ab545;}.cls-5{fill:#943c8f;}.cls-6{font-size:14.24px;}.cls-10,.cls-6,.cls-7,.cls-8,.cls-9{fill:#fff;font-family:FiraSans-Bold, Fira Sans;font-weight:700;}.cls-7{font-size:14.24px;}.cls-8{font-size:14.24px;}.cls-9{font-size:12.2px;}.cls-10{font-size:14.24px;}</style></defs><title>planeta-sociedad</title><g id="Layer_2" data-name="Layer 2"><g id="Capa_1" data-name="Capa 1"><g id="planeta-sociendad"><path class="cls-1" d="M37.75,158.47a120.92,120.92,0,0,1,4.36-32.24L6.17,114.55a158.77,158.77,0,0,0,54.94,169L83.32,253A120.59,120.59,0,0,1,37.75,158.47Z"/><path class="cls-2" d="M279.38,158.47A120.59,120.59,0,0,1,233.82,253L256,283.55a158.77,158.77,0,0,0,54.94-169L275,126.23A120.92,120.92,0,0,1,279.38,158.47Z"/><path class="cls-3" d="M225.21,259.25a120.84,120.84,0,0,1-133.27,0L69.72,289.82a158.65,158.65,0,0,0,177.7,0Z"/><path class="cls-4" d="M45.4,116.1A120.87,120.87,0,0,1,153.24,37.78V0A158.64,158.64,0,0,0,9.46,104.42Z"/><path class="cls-5" d="M163.9,37.78A120.87,120.87,0,0,1,271.74,116.1l35.95-11.68A158.64,158.64,0,0,0,163.9,0Z"/><text class="cls-6" transform="matrix(0.69, -0.72, 0.72, 0.69, 59.08, 69.68)">P</text><text class="cls-6" transform="translate(65.96 62.62) rotate(-43.03)">l</text><text class="cls-6" transform="translate(69.98 58.85) rotate(-39.9)">a</text><text class="cls-6" transform="matrix(0.81, -0.59, 0.59, 0.81, 76.98, 53.07)">n</text><text class="cls-6" transform="translate(84.65 47.54) rotate(-32.03)">e</text><text class="cls-6" transform="translate(92.47 42.73) rotate(-28.61)">t</text><text class="cls-6" transform="translate(98.4 39.5) rotate(-25.21)">a</text><text class="cls-7" transform="translate(206.25 34.02) rotate(22.75)">S</text><text class="cls-7" transform="translate(214.91 37.69) rotate(26.85)">o</text><text class="cls-7" transform="matrix(0.86, 0.51, -0.51, 0.86, 223.43, 42.09)">c</text><text class="cls-7" transform="translate(230.38 46.28) rotate(33.52)">i</text><text class="cls-7" transform="matrix(0.8, 0.6, -0.6, 0.8, 234.83, 49.16)">e</text><text class="cls-7" transform="translate(242.14 54.67) rotate(40.6)">d</text><text class="cls-7" transform="translate(249.54 61.09) rotate(44.64)">a</text><text class="cls-7" transform="matrix(0.66, 0.75, -0.75, 0.66, 255.95, 67.47)">d</text><text class="cls-8" transform="translate(267.16 253.82) rotate(-50.33)">C</text><text class="cls-8" transform="matrix(0.58, -0.81, 0.81, 0.58, 273.43, 246.18)">o</text><text class="cls-8" transform="matrix(0.52, -0.85, 0.85, 0.52, 279.31, 237.87)">n</text><text class="cls-8" transform="matrix(0.47, -0.88, 0.88, 0.47, 284.51, 229.29)">s</text><text class="cls-8" transform="translate(288.54 221.59) rotate(-65.78)">u</text><text class="cls-8" transform="matrix(0.35, -0.94, 0.94, 0.35, 292.62, 212.3)">m</text><text class="cls-8" transform="translate(297.12 199.28) rotate(-74.34)">i</text><text class="cls-8" transform="translate(298.69 193.71) rotate(-77.52)">d</text><text class="cls-8" transform="translate(300.85 183.69) rotate(-81.55)">o</text><text class="cls-8" transform="translate(302.24 173.68) rotate(-85.06)">r</text><text class="cls-8" transform="matrix(0.03, -1, 1, 0.03, 302.85, 166.34)">e</text><text class="cls-8" transform="translate(303.04 156.64) rotate(-92.12)">s</text><text class="cls-9" transform="matrix(0.89, 0.46, -0.46, 0.89, 88.88, 284.99)">G</text><text class="cls-9" transform="translate(97.27 289.25) rotate(23.71)">o</text><text class="cls-9" transform="translate(105.22 292.7) rotate(20.22)">b</text><text class="cls-9" transform="matrix(0.95, 0.3, -0.3, 0.95, 113.46, 295.65)">i</text><text class="cls-9" transform="translate(118.13 297.12) rotate(14.86)">e</text><text class="cls-9" transform="matrix(0.98, 0.21, -0.21, 0.98, 126.11, 299.18)">r</text><text class="cls-9" transform="matrix(0.99, 0.16, -0.16, 0.99, 132.34, 300.48)">n</text><text class="cls-9" transform="matrix(1, 0.1, -0.1, 1, 140.81, 301.78)">o</text><text class="cls-9" transform="matrix(1, 0.05, -0.05, 1, 149.36, 302.53)"> </text><text class="cls-9" transform="translate(153.67 302.76) rotate(0.74)">C</text><text class="cls-9" transform="matrix(1, -0.05, 0.05, 1, 162.07, 302.81)">o</text><text class="cls-9" transform="matrix(1, -0.1, 0.1, 1, 170.68, 302.33)">r</text><text class="cls-9" transform="translate(177.03 301.68) rotate(-8.73)">p</text><text class="cls-9" transform="translate(185.74 300.29) rotate(-12.21)">o</text><text class="cls-9" transform="translate(194.14 298.4) rotate(-15.21)">r</text><text class="cls-9" transform="translate(200.04 296.8) rotate(-18.01)">a</text><text class="cls-9" transform="matrix(0.93, -0.36, 0.36, 0.93, 207.79, 294.21)">t</text><text class="cls-9" transform="matrix(0.92, -0.39, 0.39, 0.92, 213.49, 291.99)">i</text><text class="cls-9" transform="translate(217.99 290.07) rotate(-25.59)">v</text><text class="cls-9" transform="translate(224.86 286.75) rotate(-28.8)">o</text><text class="cls-10" transform="matrix(0.1, 0.99, -0.99, 0.1, 14.48, 169.21)">E</text><text class="cls-10" transform="matrix(0.18, 0.98, -0.98, 0.18, 15.42, 178.55)">m</text><text class="cls-10" transform="matrix(0.26, 0.96, -0.96, 0.26, 18.11, 192.27)">p</text><text class="cls-10" transform="matrix(0.32, 0.95, -0.95, 0.32, 20.92, 202.18)">r</text><text class="cls-10" transform="translate(23.29 209.12) rotate(67.96)">e</text><text class="cls-10" transform="translate(26.99 218.07) rotate(64.32)">s</text><text class="cls-10" transform="translate(30.8 225.9) rotate(60.67)">a</text></g></g></g></svg>
