<svg xmlns="http://www.w3.org/2000/svg" viewBox="0 0 87.64 103.85"><defs><style>.cls-1{font-size:8.83px;font-family:FiraSans-Medium, Fira Sans;letter-spacing:-0.02em;}.cls-1,.cls-8{fill:#943c8f;}.cls-2{font-size:7.95px;font-family:FiraSans-Light, Fira Sans;letter-spacing:-0.02em;}.cls-3{letter-spacing:-0.1em;}.cls-4{letter-spacing:-0.04em;}.cls-5{letter-spacing:-0.03em;}.cls-6{letter-spacing:-0.04em;}.cls-7{letter-spacing:-0.03em;}.cls-9{fill:#fff;}</style></defs><title>sociedad</title><g id="Layer_2" data-name="Layer 2"><g id="Capa_1" data-name="Capa 1"><text class="cls-1" transform="translate(0 64.18)">Sociedad<tspan class="cls-2"><tspan x="0" y="12.37">1. </tspan><tspan class="cls-3" x="6.55" y="12.37">T</tspan><tspan x="9.65" y="12.37">eji</tspan><tspan class="cls-4" x="17.63" y="12.37">d</tspan><tspan class="cls-5" x="22" y="12.37">o social</tspan><tspan x="0" y="22.97">2. Bienestar</tspan><tspan x="0" y="33.57">3. Desar</tspan><tspan class="cls-6" x="26.35" y="33.57">r</tspan><tspan x="29.04" y="33.57">ol</tspan><tspan class="cls-7" x="35.44" y="33.57">l</tspan><tspan x="37.42" y="33.57">o </tspan><tspan class="cls-4" x="43.78" y="33.57">c</tspan><tspan x="47.23" y="33.57">omunitario</tspan></tspan></text><circle class="cls-8" cx="25.04" cy="25.04" r="25.04"/><path class="cls-9" d="M23.63,13.07A3.08,3.08,0,1,1,20.55,10a3.08,3.08,0,0,1,3.08,3.08Zm0,0"/><path class="cls-9" d="M31.6,13.07A3.08,3.08,0,1,1,28.52,10a3.08,3.08,0,0,1,3.08,3.08Zm0,0"/><path class="cls-9" d="M31.21,33.47h-.1a1.2,1.2,0,0,1-1.19-1.19,6.3,6.3,0,0,1,2.44-5.34l.07,0h0v0a2.35,2.35,0,0,1-.63-2.78l-.13-.53v-2.3a7.11,7.11,0,0,1,.59,2.15,2.35,2.35,0,0,1,2.32-.62,7.57,7.57,0,0,0-4-5.86l-.19-.09a3.53,3.53,0,0,0-1.12-.49h0l-.74.78-.77-.77a3.55,3.55,0,0,0-1.21.55l0,0a10,10,0,0,0-2,1.5,9.58,9.58,0,0,0-2-1.58,1.13,1.13,0,0,0-.33-.13,3.55,3.55,0,0,0-.89-.35l-.77.77-.74-.78h0a3.55,3.55,0,0,0-1.12.49l-.19.09a7.19,7.19,0,0,0-3.79,6,2.33,2.33,0,0,1,2.38.12,6.36,6.36,0,0,1,.32-1.54v1.8a2.33,2.33,0,0,1,.13,3.25l0,.12a1.44,1.44,0,0,0,0,.19V27l0,0a6.31,6.31,0,0,1,2.29,5.19,1.18,1.18,0,0,1-1.18,1.18,1.17,1.17,0,0,1-.67-.21l0,.06V39a1.4,1.4,0,0,1,0,.31,1.41,1.41,0,0,0,2.42-1V28.51h.2v9.82a1.41,1.41,0,0,0,2.82,0V27l.05-.1h.07a1.19,1.19,0,0,0,.88-.41,1.26,1.26,0,0,0,.25.17c-.49,2.24-1,4.85-1,5.43s.84.87,2,1.13v5.16a1.41,1.41,0,0,0,2.83,0V33.46h.2v4.87a1.41,1.41,0,0,0,2.82,0V36h-.74Zm0,0"/><path class="cls-9" d="M17.73,25a1.8,1.8,0,1,1-1.8-1.8,1.8,1.8,0,0,1,1.8,1.8Zm0,0"/><path class="cls-9" d="M18.84,32.84a.64.64,0,0,0,.64-.64,5.73,5.73,0,0,0-2.09-4.76,2.65,2.65,0,0,0-.5-.34,2.11,2.11,0,0,0-.52-.2l-.45.45-.43-.46h0a2,2,0,0,0-.78.38l-.06,0a5.65,5.65,0,0,0-2.16,4.81.64.64,0,1,0,1.28,0,5.69,5.69,0,0,1,.31-1.91v2.24a1.42,1.42,0,0,0,.1.52.86.86,0,0,0,0,.11V39a.83.83,0,0,0,1.65,0V34h.12V39a.83.83,0,1,0,1.65,0V33.11a1.41,1.41,0,0,0,.17-.68V30a5.52,5.52,0,0,1,.43,2.22.64.64,0,0,0,.64.64Zm0,0"/><path class="cls-9" d="M35.81,25A1.83,1.83,0,1,1,34,23.18,1.83,1.83,0,0,1,35.81,25Zm0,0"/><path class="cls-9" d="M35.47,27.5a2.76,2.76,0,0,0-.51-.34,2.17,2.17,0,0,0-.53-.21l-.46.46-.44-.46h0a2.09,2.09,0,0,0-.79.39l-.06,0a5.74,5.74,0,0,0-2.19,4.89.65.65,0,1,0,1.3,0,5.78,5.78,0,0,1,.31-1.94v1.33l-.66,3.76h.76V39.2a.84.84,0,1,0,1.68,0V35.39H34V39.2a.84.84,0,1,0,1.68,0V35.39h.83l-.66-3.73V30.08a5.57,5.57,0,0,1,.44,2.25.65.65,0,0,0,1.3,0,5.82,5.82,0,0,0-2.12-4.84Zm0,0"/></g></g></svg>
