<svg xmlns="http://www.w3.org/2000/svg" xmlns:xlink="http://www.w3.org/1999/xlink" viewBox="0 0 200 199.75"><defs><style>.cls-1{fill:none;}.cls-2{clip-path:url(#clip-path);}.cls-3,.cls-8{fill:#35585f;}.cls-4{fill:#63b2bc;}.cls-5{fill:#1d1d1b;}.cls-6,.cls-8{font-size:10px;font-family:Helvetica-Bold, Helvetica;font-weight:700;}.cls-6{fill:#fff;}.cls-7{letter-spacing:-0.05em;}.cls-9{fill:#ededed;}</style><clipPath id="clip-path" transform="translate(0 0)"><rect class="cls-1" width="200" height="199.75"/></clipPath></defs><title>compromiso</title><g id="Layer_2" data-name="Layer 2"><g id="Layer_1-2" data-name="Layer 1"><g class="cls-2"><path class="cls-3" d="M138.65,3.41c-25.05,0-35.18,44-78.89,38.81s-64.5,49.14-26.65,72.6,51.67,7.19,71.43,44.24c21.32,40,67.16,4.53,59.17-28.25-7.35-30.13-29.85-51.59-7.46-76.22C167.41,42.3,177.6,3.44,138.65,3.41" transform="translate(0 0)"/><path class="cls-4" d="M82,15,93,4c-4.88,2.32-8.26,6.19-11,11" transform="translate(0 0)"/><path class="cls-4" d="M99.62,1.43,78.37,22.68q-.7,1.69-1.37,3.45L102.44.7q-1.37.3-2.82.74" transform="translate(0 0)"/><path class="cls-4" d="M31.94,75.23,13,94.12q-.83,1.75-1.48,3.57L35.67,73.58q-1.94.76-3.74,1.65" transform="translate(0 0)"/><path class="cls-4" d="M107.13,0,74.56,32.61q-.64,1.68-1.31,3.39l36-36q-1,0-2.11,0" transform="translate(0 0)"/><path class="cls-4" d="M42,71.25l-32,32q-.25,1.25-.42,2.51L45.84,69.53q-1.82.9-3.8,1.71" transform="translate(0 0)"/><path class="cls-4" d="M112.87.42,70.28,43q-1,2.09-2.06,4.15L114.54.83q-.81-.24-1.67-.41" transform="translate(0 0)"/><path class="cls-4" d="M117.46,1.94,9.23,110.17q0,1,0,2.08L118.82,2.67q-.66-.39-1.36-.72" transform="translate(0 0)"/><path class="cls-4" d="M121.21,4.31,9.51,116c.07.61.16,1.21.27,1.82L122.33,5.28q-.54-.5-1.12-1" transform="translate(0 0)"/><path class="cls-4" d="M124.29,7.34,10.48,121.15q.21.82.46,1.63L125.21,8.51q-.44-.6-.92-1.17" transform="translate(0 0)"/><path class="cls-4" d="M126.82,10.94,12,125.76q.29.74.62,1.46L127.56,12.28q-.36-.68-.74-1.34" transform="translate(0 0)"/><path class="cls-4" d="M128.85,15,14,129.92q.37.67.76,1.32L129.43,16.52q-.28-.76-.58-1.5" transform="translate(0 0)"/><path class="cls-4" d="M130.41,19.58,16.31,133.68q.43.6.89,1.19L130.84,21.23q-.2-.83-.43-1.66" transform="translate(0 0)"/><path class="cls-4" d="M131.51,24.6,19,137.06q.49.54,1,1.07L131.77,26.42q-.11-.91-.26-1.82" transform="translate(0 0)"/><path class="cls-4" d="M132.08,30.14,22.14,140.09q.56.48,1.14.95L132.14,32.17c0-.67,0-1.35-.05-2" transform="translate(0 0)"/><path class="cls-4" d="M132,36.37,25.59,142.75c.41.28.83.56,1.26.82L131.69,38.74q.18-1.14.28-2.37" transform="translate(0 0)"/><path class="cls-4" d="M130.42,44l-101,101c.45.24.92.47,1.39.69L129.73,46.8q.29-1.36.69-2.77" transform="translate(0 0)"/><path class="cls-4" d="M129,51.58,33.63,146.95q.75.29,1.53.56L128.86,53.8c0-.73.07-1.47.14-2.22" transform="translate(0 0)"/><path class="cls-4" d="M129,57.69,38.25,148.44c.55.14,1.11.28,1.68.41l89.31-89.31q-.15-.91-.24-1.85" transform="translate(0 0)"/><path class="cls-4" d="M130,62.84,43.33,149.47c.54.08,1.1.16,1.65.22l.19,0,85.29-85.29q-.27-.78-.5-1.59" transform="translate(0 0)"/><path class="cls-4" d="M131.62,67.3,48.84,150.08l1.93.15L132.31,68.7c-.24-.46-.47-.93-.69-1.4" transform="translate(0 0)"/><path class="cls-4" d="M133.77,71.27,54.59,150.45l2,.07,78-78c-.28-.42-.56-.84-.82-1.26" transform="translate(0 0)"/><path class="cls-4" d="M136.29,74.87,60.62,150.54l2.13,0L137.21,76q-.47-.58-.92-1.16" transform="translate(0 0)"/><path class="cls-4" d="M139.07,78.2,67,150.28l2.26-.18,70.81-70.81-1-1.09" transform="translate(0 0)"/><path class="cls-4" d="M142,81.34,73.78,149.61l2.41-.33,66.9-66.9-1-1" transform="translate(0 0)"/><path class="cls-4" d="M145.15,84.36,81,148.54l2.5-.42,62.75-62.75-1.08-1" transform="translate(0 0)"/><path class="cls-4" d="M148.33,87.29,88.28,147.34q1.22-.18,2.41-.33l58.74-58.74-1.09-1" transform="translate(0 0)"/><path class="cls-4" d="M151.56,90.19,95.12,146.62c.71,0,1.43-.05,2.14-.06l55.4-55.4-1.1-1" transform="translate(0 0)"/><path class="cls-4" d="M154.78,93.08l-53.67,53.67q.92.09,1.85.23l52.91-52.91-1.09-1" transform="translate(0 0)"/><path class="cls-4" d="M158,96l-51.66,51.66q.81.2,1.64.45L159.05,97,158,96" transform="translate(0 0)"/><path class="cls-4" d="M161.11,99,111,149.13q.73.28,1.49.6L162.16,100l-1.05-1" transform="translate(0 0)"/><path class="cls-4" d="M164.17,102l-49,49,1.38.7,48.59-48.59-1-1.07" transform="translate(0 0)"/><path class="cls-4" d="M167.11,105.22l-47.92,47.92,1.31.78,47.58-47.58-1-1.11" transform="translate(0 0)"/><path class="cls-4" d="M170,108.6l-.06-.07-47,47,1.25.84,46.61-46.61q-.41-.56-.85-1.11" transform="translate(0 0)"/><path class="cls-4" d="M172.44,112.12,126.59,158l1.21.88,45.41-45.41q-.36-.67-.76-1.32" transform="translate(0 0)"/><path class="cls-4" d="M174.53,116.15l-44.39,44.39c.42.29.84.56,1.26.83l43.74-43.74q-.28-.75-.6-1.48" transform="translate(0 0)"/><path class="cls-4" d="M176.13,120.67l-42.21,42.21q.69.38,1.37.72l41.27-41.27q-.19-.83-.42-1.66" transform="translate(0 0)"/><path class="cls-4" d="M177.17,125.74l-39.11,39.11q.76.3,1.52.57l37.8-37.8c-.05-.63-.12-1.25-.21-1.87" transform="translate(0 0)"/><path class="cls-4" d="M177.52,131.51l-34.81,34.81q.88.2,1.74.34l33-33q.07-1.08.08-2.16" transform="translate(0 0)"/><path class="cls-4" d="M176.91,138.23,148.16,167q1.08,0,2.14-.06l26.08-26.08q.31-1.3.53-2.62" transform="translate(0 0)"/><path class="cls-4" d="M158.52,164.83l14.26-14.26a40.59,40.59,0,0,0,1.76-3.84l-19.33,19.33a24.18,24.18,0,0,0,3.31-1.23" transform="translate(0 0)"/><path class="cls-4" d="M143.95,129.15a65.09,65.09,0,0,0-12.23-1.77,65.09,65.09,0,0,1,12.23,1.77q1.34.31,2.73.68-1.39-.37-2.73-.68M185,56.33c-24.82-22.8-41.52-14.23-59.48-10.54l-1.9.37c-11.8,2.16-24.29,1.69-40.06-11.5a40.94,40.94,0,0,0-25.63-9.85H56.46C35.53,25.21,17.07,42.28,21,65.64a91.3,91.3,0,0,0,7.16,22.42q.34.74.7,1.49c9.44,19.72,28.05,42.77,61.94,53.31l2.13.64a133.63,133.63,0,0,0,31,5c69.28,3.29,95.39-60.68,61.15-92.13" transform="translate(0 0)"/><path class="cls-5" d="M47.3,135.73a2,2,0,1,1-2-2,2,2,0,0,1,2,2" transform="translate(0 0)"/><path class="cls-5" d="M34.62,122.73a3.77,3.77,0,1,0,3.77,3.77,3.77,3.77,0,0,0-3.77-3.77m0,9a5.24,5.24,0,1,1,5.24-5.24,5.24,5.24,0,0,1-5.24,5.24" transform="translate(0 0)"/><path class="cls-5" d="M192.15,53.45a3.28,3.28,0,1,0,3.28,3.28,3.28,3.28,0,0,0-3.28-3.28m0,8a4.75,4.75,0,1,1,4.75-4.75,4.76,4.76,0,0,1-4.75,4.75" transform="translate(0 0)"/><path class="cls-5" d="M84.8,16.17a.74.74,0,0,1-.74-.74v-12a.74.74,0,0,1,1.47,0v12a.74.74,0,0,1-.74.74" transform="translate(0 0)"/><path class="cls-5" d="M90.81,10.16h-12a.74.74,0,1,1,0-1.47h12a.74.74,0,1,1,0,1.47" transform="translate(0 0)"/><path class="cls-5" d="M4.79,74.43a.74.74,0,0,1-.74-.74v-8.1a.74.74,0,0,1,1.47,0v8.1a.74.74,0,0,1-.74.74" transform="translate(0 0)"/><path class="cls-5" d="M8.84,70.38H.74a.74.74,0,1,1,0-1.47h8.1a.74.74,0,1,1,0,1.47" transform="translate(0 0)"/><path class="cls-4" d="M168.9,41.37c1.73,2,9.8,1.08,11.49,7.66.85,3.28,5.88,1.61,5.38-1.47-1-6.37-3-9-6.93-9.5-5.6-.68-11.61,1.43-9.95,3.31" transform="translate(0 0)"/><path class="cls-4" d="M168.41,141.27c7,1.68,15.18,5.44,14.91,9.4-.16,2.36-2.23,3.08-5.23,2.51-3.88-.73-6.8-4-8.62-6-2-2.22-5.69-7-1.06-5.91" transform="translate(0 0)"/><path class="cls-3" d="M175.57,137.58c1.06-2.13,5.21-2.15,6.78-.87a3.52,3.52,0,0,1,.16,5.31,3.48,3.48,0,0,1-4.85.3c-1.06-.87-2.68-3.57-2.09-4.74" transform="translate(0 0)"/><path class="cls-3" d="M41.34,15.95c1.06-2.13,5.21-2.15,6.78-.87a3.52,3.52,0,0,1,.17,5.31,3.48,3.48,0,0,1-4.85.3c-1.06-.87-2.68-3.57-2.09-4.74" transform="translate(0 0)"/><path class="cls-4" d="M84.92,161.11c-.9-5.51,1.73-11.1,4.55-12.06,2.19-.74,3.56,1,3.82,2.94.49,3.66-.88,6-1.7,7.91-1.1,2.49-5.79,6.61-6.67,1.21" transform="translate(0 0)"/><path class="cls-5" d="M191.27,118.11a.76.76,0,0,1-.76-.76v-4a.76.76,0,1,1,1.52,0v4a.76.76,0,0,1-.76.76" transform="translate(0 0)"/><path class="cls-5" d="M193.88,119.39a.74.74,0,0,1-.52-1.26l2.74-2.74a.74.74,0,1,1,1,1l-2.74,2.74a.74.74,0,0,1-.52.22" transform="translate(0 0)"/><path class="cls-5" d="M198.94,122.26h-3.87a.74.74,0,1,1,0-1.47h3.87a.74.74,0,1,1,0,1.47" transform="translate(0 0)"/><path class="cls-5" d="M197,128a.76.76,0,0,1-.54-.22L193.68,125a.76.76,0,0,1,1.07-1.07l2.82,2.82A.76.76,0,0,1,197,128" transform="translate(0 0)"/><path class="cls-5" d="M191.27,130.43a.76.76,0,0,1-.76-.76v-4a.76.76,0,1,1,1.52,0v4a.76.76,0,0,1-.76.76" transform="translate(0 0)"/><path class="cls-5" d="M185.5,128a.76.76,0,0,1-.54-1.29l2.82-2.82a.76.76,0,0,1,1.07,1.07L186,127.82a.76.76,0,0,1-.54.22" transform="translate(0 0)"/><path class="cls-5" d="M187.1,122.28h-4a.76.76,0,0,1,0-1.52h4a.76.76,0,0,1,0,1.52" transform="translate(0 0)"/><path class="cls-5" d="M188.32,119.33a.76.76,0,0,1-.54-.22L185,116.29a.76.76,0,0,1,1.07-1.07l2.82,2.82a.76.76,0,0,1-.54,1.29" transform="translate(0 0)"/></g><text class="cls-6" transform="translate(44.42 73.26)"><tspan class="cls-7">T</tspan><tspan x="5.57" y="0">rabajamos de la mano con </tspan></text><text class="cls-6" transform="translate(41.61 86.26)">más de </text><text class="cls-8" transform="translate(78.85 86.26)">302 asociaciones</text><text class="cls-6" transform="translate(161.13 86.26)"><tspan xml:space="preserve"> en </tspan></text><text class="cls-6" transform="translate(54.41 99.26)">México presentes en más </text><text class="cls-6" transform="translate(86.1 112.26)">de </text><text class="cls-8" transform="translate(100.55 112.26)">590 municipios.</text><g class="cls-2"><path class="cls-9" d="M167.4,193c0,3.7-29.75,6.71-66.46,6.71s-66.46-3-66.46-6.71,29.75-6.71,66.46-6.71,66.46,3,66.46,6.71" transform="translate(0 0)"/></g></g></g></svg>
