<svg id="Capa_1" data-name="Capa 1" xmlns="http://www.w3.org/2000/svg" viewBox="0 0 150 150"><defs><style>.cls-1{font-size:11px;font-family:FiraSans-Medium, Fira Sans;letter-spacing:-0.03em;}.cls-1,.cls-9{fill:#63b2bc;}.cls-2{letter-spacing:-0.02em;}.cls-3{letter-spacing:-0.04em;}.cls-4{font-size:10px;font-family:FiraSans-Light, Fira Sans;letter-spacing:-0.03em;}.cls-5{letter-spacing:-0.04em;}.cls-6{letter-spacing:-0.02em;}.cls-7{letter-spacing:-0.03em;}.cls-8{letter-spacing:-0.04em;}.cls-10{fill:#fff;}</style></defs><title>consumidores</title><text class="cls-1" transform="translate(7.29 70.74)">C<tspan class="cls-2" x="5.86" y="0">onsumi</tspan><tspan class="cls-3" x="41.06" y="0">d</tspan><tspan class="cls-2" x="47.27" y="0">o</tspan><tspan x="53.42" y="0">r</tspan><tspan class="cls-2" x="57.37" y="0">es</tspan><tspan class="cls-4"><tspan x="0" y="15.37">1. Calidad</tspan><tspan x="0" y="25.97">2. Inn</tspan><tspan class="cls-5" x="22.65" y="25.97">o</tspan><tspan x="27.91" y="25.97">vación</tspan><tspan x="0" y="36.57">3. </tspan><tspan class="cls-5" x="8.97" y="36.57">P</tspan><tspan x="14.22" y="36.57">o</tspan><tspan class="cls-6" x="19.68" y="36.57">r</tspan><tspan x="23.26" y="36.57">ta</tspan><tspan class="cls-7" x="31.53" y="36.57">f</tspan><tspan x="34.39" y="36.57">olio </tspan><tspan class="cls-8" x="52.89" y="36.57">d</tspan><tspan x="58.39" y="36.57">e p</tspan><tspan class="cls-8" x="71.62" y="36.57">r</tspan><tspan x="75" y="36.57">oduc</tspan><tspan class="cls-7" x="96.04" y="36.57">t</tspan><tspan x="99.1" y="36.57">os</tspan><tspan x="0" y="47.17">4. In</tspan><tspan class="cls-8" x="17.45" y="47.17">f</tspan><tspan x="20.31" y="47.17">ormación nutrimental</tspan><tspan x="0" y="57.77">5. P</tspan><tspan class="cls-8" x="14.43" y="57.77">r</tspan><tspan x="17.81" y="57.77">oduc</tspan><tspan class="cls-7" x="38.85" y="57.77">t</tspan><tspan x="41.91" y="57.77">os saludab</tspan><tspan class="cls-8" x="88.2" y="57.77">l</tspan><tspan x="90.69" y="57.77">es</tspan></tspan></text><circle class="cls-9" cx="32.01" cy="29.97" r="25"/><path class="cls-10" d="M32.26,26.52a3.78,3.78,0,0,1,1.52.32,3.8,3.8,0,0,1,.72-2,4.48,4.48,0,0,0-.91-.09h-3a4.46,4.46,0,0,0-.91.09,3.79,3.79,0,0,1,.72,2.2,3.8,3.8,0,0,1,1.84-.47Zm0,0"/><path class="cls-10" d="M35.6,21a3.5,3.5,0,1,1-3.5-3.5A3.5,3.5,0,0,1,35.6,21Zm0,0"/><path class="cls-10" d="M37.59,30.42a3.22,3.22,0,1,0-3.22-3.27,4,4,0,0,1,1.86,3,3.2,3.2,0,0,0,1.36.3Zm0,0"/><path class="cls-10" d="M26.61,24a3.22,3.22,0,1,0,1.71,5.94,4,4,0,0,1,1.5-2.54c0-.06,0-.12,0-.18A3.22,3.22,0,0,0,26.61,24Zm0,0"/><path class="cls-10" d="M39.68,23.91a4,4,0,0,1,1.86,3,3.22,3.22,0,1,0-1.86-3Zm0,0"/><path class="cls-10" d="M35.48,30.52a3.22,3.22,0,1,1-3.22-3.22,3.22,3.22,0,0,1,3.22,3.22Zm0,0"/><path class="cls-10" d="M39,30.64H36.24A4,4,0,0,1,35,33.4a4.9,4.9,0,0,1,3.5,4.69v1a11.07,11.07,0,0,0,4.32-.91l.21-.11h0V34.76A4.13,4.13,0,0,0,39,30.64Zm0,0"/><path class="cls-10" d="M44.27,27.39H41.56a4,4,0,0,1-1.22,2.76,4.9,4.9,0,0,1,3.5,4.69v1A11.07,11.07,0,0,0,48.15,35l.22-.11h0V31.52a4.13,4.13,0,0,0-4.12-4.12Zm0,0"/><path class="cls-10" d="M29.5,33.4a4,4,0,0,1-1.22-2.75l-.3,0H25.24a4.13,4.13,0,0,0-4.12,4.12v3.39l.23.07A19.39,19.39,0,0,0,26,39.1v-1a4.9,4.9,0,0,1,3.5-4.69Zm0,0"/><path class="cls-10" d="M33.63,34H30.89a4.13,4.13,0,0,0-4.12,4.12v3.39l.23.07a18.83,18.83,0,0,0,5.61.9,11.5,11.5,0,0,0,4.9-.92l.21-.11h0V38.09A4.13,4.13,0,0,0,33.63,34Zm0,0"/><path class="cls-10" d="M21.25,27.28A3.2,3.2,0,0,0,22.61,27a4,4,0,0,1,1.86-3,3.22,3.22,0,1,0-3.22,3.27Zm0,0"/><path class="cls-10" d="M23.82,30.26A4,4,0,0,1,22.6,27.5H19.88a4.13,4.13,0,0,0-4.12,4.12V35h0l.21.11a11.11,11.11,0,0,0,4.32.91V35a4.9,4.9,0,0,1,3.5-4.69Zm0,0"/><path class="cls-10" d="M25,23.66a4.35,4.35,0,0,1,1.54-.35,3.81,3.81,0,0,1,1.87.49,3.33,3.33,0,0,0,.35-.41,4.1,4.1,0,0,1-.45-4.24,3.19,3.19,0,0,0-5.21,1.54,3.84,3.84,0,0,1,1.9,3Zm0,0"/><path class="cls-10" d="M35.45,23.21a3.17,3.17,0,0,0,.39.5,3.81,3.81,0,0,1,1.7-.4,4.78,4.78,0,0,1,1.49.27,3.84,3.84,0,0,1,2.13-3.11,3.18,3.18,0,0,0-5.32-1.14,4.08,4.08,0,0,1-.39,3.88Zm0,0"/></svg>
