<svg id="Capa_1" data-name="Capa 1" xmlns="http://www.w3.org/2000/svg" viewBox="0 0 150 150"><defs><style>.cls-1{fill:#63b2bc;}.cls-2{fill:#fff;}</style></defs><title>consumidores</title><path class="cls-1" d="M13.3,63.78l-.74.86a2.19,2.19,0,0,0-1.41-.54c-1.06,0-1.87.77-1.87,2.83s.79,2.82,1.87,2.82a2.46,2.46,0,0,0,1.55-.62l.68.86a3.2,3.2,0,0,1-2.29.92c-2,0-3.34-1.4-3.34-4S9.21,63,11.08,63A3.2,3.2,0,0,1,13.3,63.78Z"/><path class="cls-1" d="M19,67.83c0,1.84-1,3.08-2.74,3.08s-2.74-1.17-2.74-3.08,1-3.07,2.75-3.07S19,65.93,19,67.83Zm-4,0c0,1.4.43,2,1.25,2s1.25-.63,1.25-2-.43-2-1.24-2S15,66.45,15,67.83Z"/><path class="cls-1" d="M24.79,66.53v4.21H23.38v-4c0-.73-.27-.94-.71-.94s-.88.34-1.22.88v4H20V64.92h1.22l.11.76a2.17,2.17,0,0,1,1.77-.92A1.57,1.57,0,0,1,24.79,66.53Z"/><path class="cls-1" d="M30.06,65.45l-.55.83A2.66,2.66,0,0,0,28,65.8c-.56,0-.88.23-.88.58s.23.56,1.22.84c1.19.32,1.86.8,1.86,1.84,0,1.21-1.12,1.85-2.45,1.85a3.4,3.4,0,0,1-2.32-.83l.7-.79a2.63,2.63,0,0,0,1.58.57c.63,0,1-.26,1-.7s-.23-.64-1.32-.95-1.73-.9-1.73-1.76.89-1.69,2.24-1.69A3.28,3.28,0,0,1,30.06,65.45Z"/><path class="cls-1" d="M35.77,70.74H34.54l-.08-.81a2,2,0,0,1-1.78,1c-1.06,0-1.63-.68-1.63-1.8V64.92h1.41v4c0,.68.23.91.72.91A1.44,1.44,0,0,0,34.36,69V64.92h1.41Z"/><path class="cls-1" d="M44.9,66.53v4.21H43.49v-4c0-.73-.29-.94-.64-.94s-.78.34-1.1.88v4H40.34v-4c0-.73-.3-.94-.64-.94-.5,0-.79.34-1.11.88v4H37.18V64.92h1.22l.11.76a2,2,0,0,1,1.68-.92,1.42,1.42,0,0,1,1.41,1,2.07,2.07,0,0,1,1.75-1A1.56,1.56,0,0,1,44.9,66.53Z"/><path class="cls-1" d="M47.84,62.83A.89.89,0,1,1,47,62,.84.84,0,0,1,47.84,62.83Zm-.18,7.91H46.26V64.92h1.41Z"/><path class="cls-1" d="M54,62.59v8.15H52.74l-.1-.74a1.94,1.94,0,0,1-1.66.9c-1.45,0-2.21-1.22-2.21-3.07s.9-3.08,2.34-3.08a2,2,0,0,1,1.46.63V62.44Zm-1.41,6.5V66.43a1.4,1.4,0,0,0-1.11-.62c-.73,0-1.21.62-1.21,2s.43,2,1.12,2A1.38,1.38,0,0,0,52.57,69.09Z"/><path class="cls-1" d="M60.5,67.83c0,1.84-1,3.08-2.74,3.08S55,69.74,55,67.83s1-3.07,2.75-3.07S60.5,65.93,60.5,67.83Zm-4,0c0,1.4.43,2,1.25,2s1.25-.63,1.25-2-.43-2-1.24-2S56.51,66.45,56.51,67.83Z"/><path class="cls-1" d="M65,64.85l-.24,1.36a2,2,0,0,0-.52-.07c-.7,0-1.07.52-1.29,1.5v3.1H61.55V64.92h1.22l.13,1.14a1.64,1.64,0,0,1,1.52-1.3A2,2,0,0,1,65,64.85Z"/><path class="cls-1" d="M70,68.27H66.37c.1,1.19.66,1.57,1.43,1.57a2.42,2.42,0,0,0,1.45-.52l.58.8a3.34,3.34,0,0,1-2.16.78c-1.8,0-2.77-1.2-2.77-3s.94-3.11,2.59-3.11,2.56,1.1,2.56,2.94C70.05,67.88,70,68.12,70,68.27Zm-1.36-1c0-1-.34-1.53-1.13-1.53s-1.08.44-1.15,1.59h2.29Z"/><path class="cls-1" d="M74.95,65.45l-.55.83a2.66,2.66,0,0,0-1.46-.47c-.56,0-.88.23-.88.58s.23.56,1.22.84c1.19.32,1.86.8,1.86,1.84,0,1.21-1.12,1.85-2.45,1.85a3.4,3.4,0,0,1-2.32-.83l.7-.79a2.63,2.63,0,0,0,1.58.57c.63,0,1-.26,1-.7s-.23-.64-1.32-.95-1.73-.9-1.73-1.76.89-1.69,2.24-1.69A3.27,3.27,0,0,1,74.95,65.45Z"/><path class="cls-1" d="M10.2,86.11H9.62v-6L8,81.12l-.27-.43,2-1.23h.5Z"/><path class="cls-1" d="M12.67,85.74a.46.46,0,0,1-.48.48.47.47,0,1,1,0-.95A.46.46,0,0,1,12.67,85.74Z"/><path class="cls-1" d="M20.71,79.79l-.32.4a2.06,2.06,0,0,0-1.4-.52c-1.19,0-2.18.84-2.18,3s.95,3,2.15,3a2.21,2.21,0,0,0,1.52-.57l.31.39a2.58,2.58,0,0,1-1.85.71c-1.58,0-2.76-1.23-2.76-3.54s1.25-3.53,2.77-3.53A2.48,2.48,0,0,1,20.71,79.79Z"/><path class="cls-1" d="M25.42,85.81l-.13.41a.91.91,0,0,1-.81-.88,1.8,1.8,0,0,1-1.63.88,1.49,1.49,0,0,1-1.62-1.56c0-1.1.83-1.69,2.17-1.69h1v-.51c0-.83-.34-1.2-1.21-1.2a4.26,4.26,0,0,0-1.42.3l-.15-.44a4.36,4.36,0,0,1,1.65-.35A1.48,1.48,0,0,1,25,82.43V85C25,85.53,25.14,85.7,25.42,85.81Zm-1-1V83.39h-.91c-1,0-1.64.41-1.64,1.24A1,1,0,0,0,23,85.75,1.58,1.58,0,0,0,24.4,84.83Z"/><path class="cls-1" d="M26.69,85.23V78.76l.58-.07v6.53c0,.34.13.51.42.51a.86.86,0,0,0,.36-.07l.16.43a1.4,1.4,0,0,1-.6.14A.87.87,0,0,1,26.69,85.23Z"/><path class="cls-1" d="M30.05,79a.43.43,0,1,1-.44-.42A.42.42,0,0,1,30.05,79Zm-.14,7.11h-.58V80.88h.58Z"/><path class="cls-1" d="M35.51,78.76v7.36H35l-.07-.8a1.75,1.75,0,0,1-1.57.91c-1.22,0-2-1-2-2.7s.77-2.75,2-2.75a1.82,1.82,0,0,1,1.47.71v-2.8Zm-.58,6V82a1.63,1.63,0,0,0-1.37-.79c-.92,0-1.54.79-1.53,2.26s.55,2.23,1.43,2.23A1.61,1.61,0,0,0,34.93,84.77Z"/><path class="cls-1" d="M41.07,85.81l-.13.41a.91.91,0,0,1-.81-.88,1.8,1.8,0,0,1-1.63.88,1.49,1.49,0,0,1-1.62-1.56c0-1.1.83-1.69,2.17-1.69h1v-.51c0-.83-.34-1.2-1.21-1.2a4.26,4.26,0,0,0-1.42.3l-.15-.44a4.36,4.36,0,0,1,1.65-.35,1.48,1.48,0,0,1,1.71,1.66V85C40.63,85.53,40.79,85.7,41.07,85.81Zm-1-1V83.39h-.91c-1,0-1.64.41-1.64,1.24a1,1,0,0,0,1.1,1.12A1.58,1.58,0,0,0,40.05,84.83Z"/><path class="cls-1" d="M46.22,78.76v7.36h-.5l-.07-.8a1.75,1.75,0,0,1-1.57.91c-1.22,0-2-1-2-2.7s.77-2.75,2-2.75a1.82,1.82,0,0,1,1.47.71v-2.8Zm-.58,6V82a1.63,1.63,0,0,0-1.37-.79c-.92,0-1.54.79-1.53,2.26s.55,2.23,1.43,2.23A1.61,1.61,0,0,0,45.64,84.77Z"/><path class="cls-1" d="M11.36,91.7c0,1.32-.74,2.15-3,4.5h3.15l-.08.51H7.72v-.49c2.47-2.63,3-3.32,3-4.49A1.19,1.19,0,0,0,9.5,90.45,1.82,1.82,0,0,0,8,91.2l-.4-.3A2.33,2.33,0,0,1,9.53,90,1.7,1.7,0,0,1,11.36,91.7Z"/><path class="cls-1" d="M13.34,96.34a.46.46,0,0,1-.48.48.48.48,0,1,1,0-1A.46.46,0,0,1,13.34,96.34Z"/><path class="cls-1" d="M17.89,96.71h-.6V89.87h.6Z"/><path class="cls-1" d="M23.58,93v3.74H23V93.05c0-.86-.35-1.21-1-1.21a2,2,0,0,0-1.62,1.08v3.79h-.58V91.48h.5l.06.89a2.08,2.08,0,0,1,1.75-1C23.07,91.37,23.58,92,23.58,93Z"/><path class="cls-1" d="M29.17,93v3.74h-.58V93.05c0-.86-.35-1.21-1-1.21A2,2,0,0,0,26,92.92v3.79H25.4V91.48h.5l.06.89a2.08,2.08,0,0,1,1.75-1C28.66,91.37,29.17,92,29.17,93Z"/><path class="cls-1" d="M35,94.08c0,1.69-.84,2.74-2.22,2.74s-2.21-1-2.21-2.72.85-2.73,2.22-2.73S35,92.37,35,94.08Zm-3.81,0c0,1.47.59,2.23,1.59,2.23s1.61-.75,1.61-2.25-.59-2.22-1.6-2.22S31.19,92.6,31.19,94.1Z"/><path class="cls-1" d="M38.11,96.71h-.72l-1.87-5.23h.64l1.59,4.72,1.55-4.72h.62Z"/><path class="cls-1" d="M44.44,96.41l-.13.41a.91.91,0,0,1-.81-.88,1.8,1.8,0,0,1-1.63.88,1.49,1.49,0,0,1-1.62-1.56c0-1.1.83-1.69,2.17-1.69h1v-.51c0-.83-.34-1.2-1.21-1.2a4.26,4.26,0,0,0-1.42.3l-.15-.44a4.37,4.37,0,0,1,1.65-.35A1.48,1.48,0,0,1,44,93v2.52C44,96.13,44.16,96.3,44.44,96.41Zm-1-1V94h-.91c-1,0-1.64.41-1.64,1.24A1,1,0,0,0,42,96.35,1.58,1.58,0,0,0,43.42,95.43Z"/><path class="cls-1" d="M49.13,91.9l-.29.38a1.73,1.73,0,0,0-1.16-.41c-.95,0-1.62.74-1.62,2.25s.66,2.19,1.61,2.19a1.87,1.87,0,0,0,1.21-.44l.28.39a2.25,2.25,0,0,1-1.5.56c-1.34,0-2.22-1-2.22-2.69s.87-2.76,2.21-2.76A2.09,2.09,0,0,1,49.13,91.9Z"/><path class="cls-1" d="M51,89.61a.43.43,0,1,1-.44-.42A.41.41,0,0,1,51,89.61Zm-.14,7.11H50.3V91.48h.58Z"/><path class="cls-1" d="M56.76,94.08c0,1.69-.84,2.74-2.22,2.74s-2.21-1-2.21-2.72.85-2.73,2.22-2.73S56.76,92.37,56.76,94.08ZM53,94.1c0,1.47.59,2.23,1.59,2.23s1.61-.75,1.61-2.25-.59-2.22-1.6-2.22S53,92.6,53,94.1Zm2.61-4.69-1.95.85-.19-.34,1.88-1Z"/><path class="cls-1" d="M62,93v3.74H61.4V93.05c0-.86-.35-1.21-1-1.21a2,2,0,0,0-1.62,1.08v3.79h-.58V91.48h.5l.06.89a2.08,2.08,0,0,1,1.75-1C61.47,91.37,62,92,62,93Z"/><path class="cls-1" d="M11.32,102.21A1.5,1.5,0,0,1,10,103.77a1.53,1.53,0,0,1,1.5,1.66,2,2,0,0,1-2.12,2,2.42,2.42,0,0,1-1.91-.86l.37-.33a1.92,1.92,0,0,0,1.52.7,1.41,1.41,0,0,0,1.54-1.49c0-1-.6-1.4-1.5-1.4H9l.08-.47h.32a1.28,1.28,0,0,0,1.37-1.33A1.16,1.16,0,0,0,9.46,101a2,2,0,0,0-1.48.62l-.31-.36a2.48,2.48,0,0,1,1.82-.75A1.66,1.66,0,0,1,11.32,102.21Z"/><path class="cls-1" d="M13.4,106.94a.46.46,0,0,1-.48.48.48.48,0,1,1,0-1A.46.46,0,0,1,13.4,106.94Z"/><path class="cls-1" d="M21.5,102.52c0,1.54-1.07,2.13-2.56,2.13H18v2.67h-.6v-6.85H19C20.56,100.47,21.5,101.1,21.5,102.52Zm-.63,0c0-1.16-.71-1.57-1.91-1.57H18v3.2h1C20.08,104.15,20.87,103.78,20.87,102.53Z"/><path class="cls-1" d="M26.47,104.68c0,1.69-.84,2.74-2.22,2.74s-2.21-1-2.21-2.72.85-2.73,2.22-2.73S26.47,103,26.47,104.68Zm-3.81,0c0,1.47.59,2.23,1.59,2.23s1.61-.75,1.61-2.25-.59-2.22-1.6-2.22S22.66,103.2,22.66,104.7Z"/><path class="cls-1" d="M30.47,102l-.11.55a1.65,1.65,0,0,0-.46-.06c-.73,0-1.12.52-1.4,1.59v3.2h-.58v-5.23h.5l0,1.17c.28-.86.75-1.28,1.48-1.28A2,2,0,0,1,30.47,102Z"/><path class="cls-1" d="M33.78,107.09a2,2,0,0,1-1.1.33A1.21,1.21,0,0,1,31.4,106v-3.49h-.88v-.47h.88v-1.25l.58-.07v1.32h1.35l-.07.47H32V106c0,.61.24.91.77.91a1.54,1.54,0,0,0,.8-.23Z"/><path class="cls-1" d="M38.19,107l-.13.41a.91.91,0,0,1-.81-.88,1.8,1.8,0,0,1-1.63.88A1.49,1.49,0,0,1,34,105.86c0-1.1.83-1.69,2.17-1.69h1v-.51c0-.83-.34-1.2-1.21-1.2a4.26,4.26,0,0,0-1.42.3l-.15-.44A4.37,4.37,0,0,1,36,102a1.48,1.48,0,0,1,1.71,1.66v2.52C37.75,106.73,37.91,106.9,38.19,107Zm-1-1v-1.44h-.91c-1,0-1.64.41-1.64,1.24a1,1,0,0,0,1.1,1.12A1.58,1.58,0,0,0,37.17,106Z"/><path class="cls-1" d="M40.25,101.25v.84h1.38l-.08.47h-1.3v4.76h-.58v-4.76h-.91v-.47h.91v-.86a1.29,1.29,0,0,1,1.45-1.34,2.8,2.8,0,0,1,1.22.28l-.2.43a2.42,2.42,0,0,0-1-.23C40.56,100.37,40.25,100.63,40.25,101.25Z"/><path class="cls-1" d="M46.48,104.68c0,1.69-.84,2.74-2.22,2.74s-2.21-1-2.21-2.72S42.9,102,44.27,102,46.48,103,46.48,104.68Zm-3.81,0c0,1.47.59,2.23,1.59,2.23s1.61-.75,1.61-2.25-.59-2.22-1.6-2.22S42.67,103.2,42.67,104.7Z"/><path class="cls-1" d="M47.88,106.43V100l.58-.07v6.53c0,.34.13.51.42.51a.86.86,0,0,0,.36-.07l.16.43a1.4,1.4,0,0,1-.6.14A.87.87,0,0,1,47.88,106.43Z"/><path class="cls-1" d="M51.24,100.21a.43.43,0,1,1-.44-.42A.41.41,0,0,1,51.24,100.21Zm-.14,7.11h-.58v-5.23h.58Z"/><path class="cls-1" d="M57,104.68c0,1.69-.84,2.74-2.22,2.74s-2.21-1-2.21-2.72S53.4,102,54.77,102,57,103,57,104.68Zm-3.81,0c0,1.47.59,2.23,1.59,2.23s1.61-.75,1.61-2.25-.59-2.22-1.6-2.22S53.17,103.2,53.17,104.7Z"/><path class="cls-1" d="M64.7,100v7.36h-.5l-.07-.8a1.75,1.75,0,0,1-1.57.91c-1.22,0-2-1-2-2.7s.77-2.75,2-2.75a1.82,1.82,0,0,1,1.47.71v-2.8Zm-.58,6v-2.73a1.63,1.63,0,0,0-1.37-.79c-.92,0-1.54.79-1.53,2.26s.55,2.23,1.43,2.23A1.61,1.61,0,0,0,64.12,106Z"/><path class="cls-1" d="M70.26,104.92H66.77c.07,1.42.73,2,1.63,2a2.18,2.18,0,0,0,1.41-.52l.27.37a2.58,2.58,0,0,1-1.71.64c-1.38,0-2.22-1-2.22-2.68S67,102,68.24,102s2,1,2,2.53C70.28,104.66,70.27,104.82,70.26,104.92Zm-.55-.6c0-1.14-.46-1.87-1.45-1.87-.82,0-1.43.6-1.49,2h2.94Z"/><path class="cls-1" d="M78.28,104.67c0,1.65-.69,2.75-2,2.75a1.84,1.84,0,0,1-1.49-.72v2.58l-.58.08v-7.28h.5l0,.76a2,2,0,0,1,1.61-.87C77.67,102,78.28,103,78.28,104.67Zm-.62,0c0-1.49-.48-2.22-1.39-2.22a1.79,1.79,0,0,0-1.47.9v2.78a1.61,1.61,0,0,0,1.38.8C77.14,106.93,77.66,106.17,77.66,104.67Z"/><path class="cls-1" d="M82.33,102l-.11.55a1.65,1.65,0,0,0-.46-.06c-.73,0-1.12.52-1.4,1.59v3.2h-.58v-5.23h.5l0,1.17c.28-.86.75-1.28,1.48-1.28A2,2,0,0,1,82.33,102Z"/><path class="cls-1" d="M87,104.68c0,1.69-.84,2.74-2.22,2.74s-2.21-1-2.21-2.72.85-2.73,2.22-2.73S87,103,87,104.68Zm-3.81,0c0,1.47.59,2.23,1.59,2.23s1.61-.75,1.61-2.25-.59-2.22-1.6-2.22S83.16,103.2,83.16,104.7Z"/><path class="cls-1" d="M92.15,100v7.36h-.5l-.07-.8a1.75,1.75,0,0,1-1.57.91c-1.22,0-2-1-2-2.7s.77-2.75,2-2.75a1.82,1.82,0,0,1,1.47.71v-2.8Zm-.58,6v-2.73a1.63,1.63,0,0,0-1.37-.79c-.92,0-1.54.79-1.53,2.26s.55,2.23,1.43,2.23A1.61,1.61,0,0,0,91.57,106Z"/><path class="cls-1" d="M97.69,107.31h-.5l0-.93a1.9,1.9,0,0,1-1.71,1,1.4,1.4,0,0,1-1.48-1.6v-3.74h.58v3.68c0,.83.35,1.18,1,1.18a1.79,1.79,0,0,0,1.53-1.07v-3.79h.58Z"/><path class="cls-1" d="M102.83,102.5l-.29.38a1.73,1.73,0,0,0-1.16-.41c-.95,0-1.62.74-1.62,2.25s.66,2.19,1.61,2.19a1.87,1.87,0,0,0,1.21-.44l.28.39a2.25,2.25,0,0,1-1.5.56c-1.34,0-2.22-1-2.22-2.69S100,102,101.35,102A2.09,2.09,0,0,1,102.83,102.5Z"/><path class="cls-1" d="M106.38,107.09a2,2,0,0,1-1.1.33A1.21,1.21,0,0,1,104,106v-3.49h-.88v-.47H104v-1.25l.58-.07v1.32h1.35l-.07.47h-1.28V106c0,.61.24.91.77.91a1.54,1.54,0,0,0,.8-.23Z"/><path class="cls-1" d="M111.05,104.68c0,1.69-.84,2.74-2.22,2.74s-2.21-1-2.21-2.72.85-2.73,2.22-2.73S111.05,103,111.05,104.68Zm-3.81,0c0,1.47.59,2.23,1.59,2.23s1.61-.75,1.61-2.25-.59-2.22-1.6-2.22S107.24,103.2,107.24,104.7Z"/><path class="cls-1" d="M115.45,102.55l-.27.38a2.25,2.25,0,0,0-1.38-.48c-.69,0-1.16.34-1.16.88s.33.74,1.27,1c1.14.3,1.68.69,1.68,1.58s-.85,1.52-1.89,1.52a2.74,2.74,0,0,1-1.87-.67l.32-.37a2.32,2.32,0,0,0,1.54.55c.76,0,1.29-.36,1.29-1s-.29-.86-1.38-1.16-1.56-.7-1.56-1.43.75-1.37,1.74-1.37A2.57,2.57,0,0,1,115.45,102.55Z"/><path class="cls-1" d="M12.11,116.16h-.9v1.75h-.57v-1.75H7.74v-.43l2-4.58.49.2-1.9,4.33h2.29l.07-1.95h.5v1.95h.9Z"/><path class="cls-1" d="M13.72,117.54a.46.46,0,0,1-.48.48.48.48,0,1,1,0-1A.46.46,0,0,1,13.72,117.54Z"/><path class="cls-1" d="M18.28,117.91h-.6v-6.85h.6Z"/><path class="cls-1" d="M24,114.17v3.74h-.58v-3.66c0-.86-.35-1.21-1-1.21a2,2,0,0,0-1.62,1.08v3.79H20.2v-5.23h.5l.06.89a2.08,2.08,0,0,1,1.75-1C23.46,112.58,24,113.17,24,114.17Z"/><path class="cls-1" d="M26.43,111.85v.84h1.38l-.08.47h-1.3v4.76h-.58v-4.76h-.91v-.47h.91v-.86a1.29,1.29,0,0,1,1.45-1.34,2.8,2.8,0,0,1,1.22.28l-.2.43a2.41,2.41,0,0,0-1-.23C26.74,111,26.43,111.23,26.43,111.85Z"/><path class="cls-1" d="M32.66,115.28c0,1.69-.84,2.74-2.22,2.74s-2.21-1-2.21-2.72.85-2.73,2.22-2.73S32.66,113.58,32.66,115.28Zm-3.81,0c0,1.47.59,2.23,1.59,2.23s1.61-.75,1.61-2.25-.59-2.22-1.6-2.22S28.85,113.81,28.85,115.3Z"/><path class="cls-1" d="M36.66,112.64l-.11.55a1.65,1.65,0,0,0-.46-.06c-.73,0-1.12.52-1.4,1.59v3.2h-.58v-5.23h.5l0,1.17c.28-.86.75-1.28,1.48-1.28A2,2,0,0,1,36.66,112.64Z"/><path class="cls-1" d="M44.05,114.17v3.74h-.58v-3.66c0-.85-.35-1.21-.89-1.21s-1.07.44-1.47,1.08v3.79h-.58v-3.66c0-.85-.35-1.21-.89-1.21a1.8,1.8,0,0,0-1.47,1.08v3.79h-.58v-5.23h.5l0,.89a1.94,1.94,0,0,1,1.61-1,1.27,1.27,0,0,1,1.3,1,2,2,0,0,1,1.64-1C43.53,112.58,44.05,113.19,44.05,114.17Z"/><path class="cls-1" d="M49.56,117.61l-.13.41a.91.91,0,0,1-.81-.88A1.8,1.8,0,0,1,47,118a1.49,1.49,0,0,1-1.62-1.56c0-1.1.83-1.69,2.17-1.69h1v-.51c0-.83-.34-1.2-1.21-1.2a4.26,4.26,0,0,0-1.42.3l-.15-.44a4.37,4.37,0,0,1,1.65-.35,1.48,1.48,0,0,1,1.71,1.66v2.52C49.12,117.33,49.28,117.5,49.56,117.61Zm-1-1v-1.44h-.91c-1,0-1.64.41-1.64,1.24a1,1,0,0,0,1.1,1.12A1.58,1.58,0,0,0,48.54,116.63Z"/><path class="cls-1" d="M54.25,113.11l-.29.38a1.73,1.73,0,0,0-1.16-.41c-.95,0-1.62.74-1.62,2.25s.66,2.19,1.61,2.19a1.87,1.87,0,0,0,1.21-.44l.28.39a2.25,2.25,0,0,1-1.5.56c-1.34,0-2.22-1-2.22-2.69s.87-2.76,2.21-2.76A2.09,2.09,0,0,1,54.25,113.11Z"/><path class="cls-1" d="M56.14,110.81a.43.43,0,1,1-.44-.42A.41.41,0,0,1,56.14,110.81ZM56,117.91h-.58v-5.23H56Z"/><path class="cls-1" d="M61.88,115.28c0,1.69-.84,2.74-2.22,2.74s-2.21-1-2.21-2.72.85-2.73,2.22-2.73S61.88,113.58,61.88,115.28Zm-3.81,0c0,1.47.59,2.23,1.59,2.23s1.61-.75,1.61-2.25-.59-2.22-1.6-2.22S58.07,113.81,58.07,115.3Zm2.61-4.69-1.95.85-.19-.34,1.88-1Z"/><path class="cls-1" d="M67.1,114.17v3.74h-.58v-3.66c0-.86-.35-1.21-1-1.21a2,2,0,0,0-1.62,1.08v3.79h-.58v-5.23h.5l.06.89a2.08,2.08,0,0,1,1.75-1C66.59,112.58,67.1,113.17,67.1,114.17Z"/><path class="cls-1" d="M75.23,114.17v3.74h-.58v-3.66c0-.86-.35-1.21-1-1.21A2,2,0,0,0,72,114.12v3.79h-.58v-5.23H72l.06.89a2.08,2.08,0,0,1,1.75-1C74.72,112.58,75.23,113.17,75.23,114.17Z"/><path class="cls-1" d="M80.72,117.91h-.5l0-.93a1.9,1.9,0,0,1-1.71,1,1.4,1.4,0,0,1-1.48-1.6v-3.74h.58v3.68c0,.83.35,1.18,1,1.18a1.79,1.79,0,0,0,1.53-1.07v-3.79h.58Z"/><path class="cls-1" d="M85,117.69a2,2,0,0,1-1.1.33,1.21,1.21,0,0,1-1.28-1.38v-3.49h-.88v-.47h.88v-1.25l.58-.07v1.32h1.35l-.07.47H83.17v3.46c0,.61.24.91.77.91a1.54,1.54,0,0,0,.8-.23Z"/><path class="cls-1" d="M88.3,112.64l-.11.55a1.65,1.65,0,0,0-.46-.06c-.73,0-1.12.52-1.4,1.59v3.2h-.58v-5.23h.5l0,1.17c.28-.86.75-1.28,1.48-1.28A2,2,0,0,1,88.3,112.64Z"/><path class="cls-1" d="M90,110.81a.43.43,0,1,1-.44-.42A.41.41,0,0,1,90,110.81Zm-.14,7.11h-.58v-5.23h.58Z"/><path class="cls-1" d="M98.14,114.17v3.74h-.58v-3.66c0-.85-.35-1.21-.89-1.21s-1.07.44-1.47,1.08v3.79h-.58v-3.66c0-.85-.35-1.21-.89-1.21a1.8,1.8,0,0,0-1.47,1.08v3.79h-.58v-5.23h.5l0,.89a1.94,1.94,0,0,1,1.61-1,1.27,1.27,0,0,1,1.3,1,2,2,0,0,1,1.64-1C97.62,112.58,98.14,113.19,98.14,114.17Z"/><path class="cls-1" d="M103.65,115.52h-3.49c.07,1.42.73,2,1.63,2a2.18,2.18,0,0,0,1.41-.52l.27.37a2.58,2.58,0,0,1-1.71.64c-1.38,0-2.22-1-2.22-2.68s.81-2.77,2.09-2.77,2,1,2,2.53C103.67,115.26,103.66,115.42,103.65,115.52Zm-.55-.6c0-1.14-.46-1.87-1.45-1.87-.82,0-1.43.6-1.49,2h2.94Z"/><path class="cls-1" d="M108.84,114.17v3.74h-.58v-3.66c0-.86-.35-1.21-1-1.21a2,2,0,0,0-1.62,1.08v3.79h-.58v-5.23h.5l.06.89a2.08,2.08,0,0,1,1.75-1C108.33,112.58,108.84,113.17,108.84,114.17Z"/><path class="cls-1" d="M113,117.69a2,2,0,0,1-1.1.33,1.21,1.21,0,0,1-1.28-1.38v-3.49h-.88v-.47h.88v-1.25l.58-.07v1.32h1.35l-.07.47h-1.28v3.46c0,.61.24.91.77.91a1.54,1.54,0,0,0,.8-.23Z"/><path class="cls-1" d="M117.45,117.61l-.13.41a.91.91,0,0,1-.81-.88,1.8,1.8,0,0,1-1.63.88,1.49,1.49,0,0,1-1.62-1.56c0-1.1.83-1.69,2.17-1.69h1v-.51c0-.83-.34-1.2-1.21-1.2a4.26,4.26,0,0,0-1.42.3l-.15-.44a4.37,4.37,0,0,1,1.65-.35,1.48,1.48,0,0,1,1.71,1.66v2.52C117,117.33,117.17,117.5,117.45,117.61Zm-1-1v-1.44h-.91c-1,0-1.64.41-1.64,1.24a1,1,0,0,0,1.1,1.12A1.58,1.58,0,0,0,116.43,116.63Z"/><path class="cls-1" d="M118.72,117v-6.48l.58-.07V117c0,.34.13.51.42.51a.86.86,0,0,0,.36-.07l.16.43a1.4,1.4,0,0,1-.6.14A.87.87,0,0,1,118.72,117Z"/><path class="cls-1" d="M11.33,122.35H8.63v2.27a2.24,2.24,0,0,1,1.14-.31,1.83,1.83,0,0,1,1.87,2.07,2.08,2.08,0,0,1-2.14,2.25,2.47,2.47,0,0,1-1.88-.8l.36-.35a1.94,1.94,0,0,0,1.52.66c.94,0,1.53-.68,1.53-1.77s-.58-1.59-1.39-1.59a2,2,0,0,0-1.11.32H8.08v-3.23h3.35Z"/><path class="cls-1" d="M13.42,128.14a.46.46,0,0,1-.48.48.48.48,0,1,1,0-1A.46.46,0,0,1,13.42,128.14Z"/><path class="cls-1" d="M21.51,123.72c0,1.54-1.07,2.13-2.56,2.13H18v2.67h-.6v-6.85H19C20.57,121.67,21.51,122.3,21.51,123.72Zm-.63,0c0-1.16-.71-1.57-1.91-1.57H18v3.2h1C20.09,125.36,20.88,125,20.88,123.73Z"/><path class="cls-1" d="M25.12,123.24l-.11.55a1.65,1.65,0,0,0-.46-.06c-.73,0-1.12.52-1.4,1.59v3.2h-.58v-5.23h.5l0,1.17c.28-.86.75-1.28,1.48-1.28A2,2,0,0,1,25.12,123.24Z"/><path class="cls-1" d="M29.76,125.88c0,1.69-.84,2.74-2.22,2.74s-2.21-1-2.21-2.72.85-2.73,2.22-2.73S29.76,124.18,29.76,125.88Zm-3.81,0c0,1.47.59,2.23,1.59,2.23s1.61-.75,1.61-2.25-.59-2.22-1.6-2.22S26,124.41,26,125.91Z"/><path class="cls-1" d="M34.94,121.16v7.36h-.5l-.07-.8a1.75,1.75,0,0,1-1.57.91c-1.22,0-2-1-2-2.7s.77-2.75,2-2.75a1.82,1.82,0,0,1,1.47.71v-2.8Zm-.58,6v-2.73a1.63,1.63,0,0,0-1.37-.79c-.92,0-1.54.79-1.53,2.26s.55,2.23,1.43,2.23A1.61,1.61,0,0,0,34.36,127.17Z"/><path class="cls-1" d="M40.48,128.51H40l0-.93a1.9,1.9,0,0,1-1.71,1,1.4,1.4,0,0,1-1.48-1.6v-3.74h.58V127c0,.83.35,1.18,1,1.18a1.79,1.79,0,0,0,1.53-1.07v-3.79h.58Z"/><path class="cls-1" d="M45.62,123.71l-.29.38a1.73,1.73,0,0,0-1.16-.41c-.95,0-1.62.74-1.62,2.25s.66,2.19,1.61,2.19a1.87,1.87,0,0,0,1.21-.44l.28.39a2.25,2.25,0,0,1-1.5.56c-1.34,0-2.22-1-2.22-2.69s.87-2.76,2.21-2.76A2.09,2.09,0,0,1,45.62,123.71Z"/><path class="cls-1" d="M49.17,128.29a2,2,0,0,1-1.1.33,1.21,1.21,0,0,1-1.28-1.38v-3.49h-.88v-.47h.88V122l.58-.07v1.32h1.35l-.07.47H47.37v3.46c0,.61.24.91.77.91a1.54,1.54,0,0,0,.8-.23Z"/><path class="cls-1" d="M53.84,125.88c0,1.69-.84,2.74-2.22,2.74s-2.21-1-2.21-2.72.85-2.73,2.22-2.73S53.84,124.18,53.84,125.88Zm-3.81,0c0,1.47.59,2.23,1.59,2.23s1.61-.75,1.61-2.25-.59-2.22-1.6-2.22S50,124.41,50,125.91Z"/><path class="cls-1" d="M58.24,123.76l-.27.38a2.25,2.25,0,0,0-1.38-.48c-.69,0-1.16.34-1.16.88s.33.74,1.27,1c1.14.3,1.68.69,1.68,1.58s-.85,1.52-1.89,1.52a2.74,2.74,0,0,1-1.87-.67l.32-.37a2.32,2.32,0,0,0,1.54.55c.76,0,1.29-.36,1.29-1s-.29-.86-1.38-1.16-1.56-.7-1.56-1.43.75-1.37,1.74-1.37A2.57,2.57,0,0,1,58.24,123.76Z"/><path class="cls-1" d="M65.17,123.76l-.27.38a2.25,2.25,0,0,0-1.38-.48c-.69,0-1.16.34-1.16.88s.33.74,1.27,1c1.14.3,1.68.69,1.68,1.58s-.85,1.52-1.89,1.52a2.74,2.74,0,0,1-1.87-.67l.32-.37a2.32,2.32,0,0,0,1.54.55c.76,0,1.29-.36,1.29-1s-.29-.86-1.38-1.16-1.56-.7-1.56-1.43.75-1.37,1.74-1.37A2.57,2.57,0,0,1,65.17,123.76Z"/><path class="cls-1" d="M70.2,128.21l-.13.41a.91.91,0,0,1-.81-.88,1.8,1.8,0,0,1-1.63.88A1.49,1.49,0,0,1,66,127.06c0-1.1.83-1.69,2.17-1.69h1v-.51c0-.83-.34-1.2-1.21-1.2a4.26,4.26,0,0,0-1.42.3l-.15-.44a4.37,4.37,0,0,1,1.65-.35,1.48,1.48,0,0,1,1.71,1.66v2.52C69.76,127.93,69.92,128.1,70.2,128.21Zm-1-1v-1.44h-.91c-1,0-1.64.41-1.64,1.24a1,1,0,0,0,1.1,1.12A1.58,1.58,0,0,0,69.18,127.23Z"/><path class="cls-1" d="M71.47,127.63v-6.48l.58-.07v6.53c0,.34.13.51.42.51a.86.86,0,0,0,.36-.07l.16.43a1.4,1.4,0,0,1-.6.14A.87.87,0,0,1,71.47,127.63Z"/><path class="cls-1" d="M77.78,128.51h-.5l0-.93a1.9,1.9,0,0,1-1.71,1,1.4,1.4,0,0,1-1.48-1.6v-3.74h.58V127c0,.83.35,1.18,1,1.18a1.79,1.79,0,0,0,1.53-1.07v-3.79h.58Z"/><path class="cls-1" d="M83.38,121.16v7.36h-.5l-.07-.8a1.75,1.75,0,0,1-1.57.91c-1.22,0-2-1-2-2.7s.77-2.75,2-2.75a1.82,1.82,0,0,1,1.47.71v-2.8Zm-.58,6v-2.73a1.63,1.63,0,0,0-1.37-.79c-.92,0-1.54.79-1.53,2.26s.55,2.23,1.43,2.23A1.61,1.61,0,0,0,82.8,127.17Z"/><path class="cls-1" d="M88.94,128.21l-.13.41a.91.91,0,0,1-.81-.88,1.8,1.8,0,0,1-1.63.88,1.49,1.49,0,0,1-1.62-1.56c0-1.1.83-1.69,2.17-1.69h1v-.51c0-.83-.34-1.2-1.21-1.2a4.26,4.26,0,0,0-1.42.3l-.15-.44a4.37,4.37,0,0,1,1.65-.35,1.48,1.48,0,0,1,1.71,1.66v2.52C88.5,127.93,88.66,128.1,88.94,128.21Zm-1-1v-1.44H87c-1,0-1.64.41-1.64,1.24a1,1,0,0,0,1.1,1.12A1.58,1.58,0,0,0,87.92,127.23Z"/><path class="cls-1" d="M94.42,125.87c0,1.68-.73,2.75-2,2.75a1.85,1.85,0,0,1-1.5-.77l-.06.66h-.51v-7.36l.58-.07V124a1.89,1.89,0,0,1,1.57-.84C93.71,123.18,94.42,124.14,94.42,125.87Zm-.62,0c0-1.54-.52-2.22-1.41-2.22a1.73,1.73,0,0,0-1.45.9v2.75a1.65,1.65,0,0,0,1.38.84C93.25,128.14,93.8,127.39,93.8,125.87Z"/><path class="cls-1" d="M95.87,127.63v-6.48l.58-.07v6.53c0,.34.13.51.42.51a.86.86,0,0,0,.36-.07l.16.43a1.4,1.4,0,0,1-.6.14A.87.87,0,0,1,95.87,127.63Z"/><path class="cls-1" d="M102.15,126.12H98.66c.07,1.42.73,2,1.63,2a2.18,2.18,0,0,0,1.41-.52l.27.37a2.58,2.58,0,0,1-1.71.64c-1.38,0-2.22-1-2.22-2.68s.81-2.77,2.09-2.77,2,1,2,2.53C102.17,125.87,102.16,126,102.15,126.12Zm-.55-.6c0-1.14-.46-1.87-1.45-1.87-.82,0-1.43.6-1.49,2h2.94Z"/><path class="cls-1" d="M106.52,123.76l-.27.38a2.25,2.25,0,0,0-1.38-.48c-.69,0-1.16.34-1.16.88s.33.74,1.27,1c1.14.3,1.68.69,1.68,1.58s-.85,1.52-1.89,1.52a2.74,2.74,0,0,1-1.87-.67l.32-.37a2.32,2.32,0,0,0,1.54.55c.76,0,1.29-.36,1.29-1s-.29-.86-1.38-1.16-1.56-.7-1.56-1.43.75-1.37,1.74-1.37A2.57,2.57,0,0,1,106.52,123.76Z"/><circle class="cls-1" cx="32.01" cy="29.97" r="25"/><path class="cls-2" d="M32.26,26.52a3.78,3.78,0,0,1,1.52.32,3.8,3.8,0,0,1,.72-2,4.48,4.48,0,0,0-.91-.09h-3a4.46,4.46,0,0,0-.91.09,3.79,3.79,0,0,1,.72,2.2,3.8,3.8,0,0,1,1.84-.47Zm0,0"/><path class="cls-2" d="M35.6,21a3.5,3.5,0,1,1-3.5-3.5A3.5,3.5,0,0,1,35.6,21Zm0,0"/><path class="cls-2" d="M37.59,30.42a3.22,3.22,0,1,0-3.22-3.27,4,4,0,0,1,1.86,3,3.2,3.2,0,0,0,1.36.3Zm0,0"/><path class="cls-2" d="M26.61,24a3.22,3.22,0,1,0,1.71,5.94,4,4,0,0,1,1.5-2.54c0-.06,0-.12,0-.18A3.22,3.22,0,0,0,26.61,24Zm0,0"/><path class="cls-2" d="M39.68,23.91a4,4,0,0,1,1.86,3,3.22,3.22,0,1,0-1.86-3Zm0,0"/><path class="cls-2" d="M35.48,30.52a3.22,3.22,0,1,1-3.22-3.22,3.22,3.22,0,0,1,3.22,3.22Zm0,0"/><path class="cls-2" d="M39,30.64H36.24A4,4,0,0,1,35,33.4a4.9,4.9,0,0,1,3.5,4.69v1a11.07,11.07,0,0,0,4.32-.91l.21-.11h0V34.76A4.13,4.13,0,0,0,39,30.64Zm0,0"/><path class="cls-2" d="M44.27,27.39H41.56a4,4,0,0,1-1.22,2.76,4.9,4.9,0,0,1,3.5,4.69v1A11.07,11.07,0,0,0,48.15,35l.22-.11h0V31.52a4.13,4.13,0,0,0-4.12-4.12Zm0,0"/><path class="cls-2" d="M29.5,33.4a4,4,0,0,1-1.22-2.75l-.3,0H25.24a4.13,4.13,0,0,0-4.12,4.12v3.39l.23.07A19.39,19.39,0,0,0,26,39.1v-1a4.9,4.9,0,0,1,3.5-4.69Zm0,0"/><path class="cls-2" d="M33.63,34H30.89a4.13,4.13,0,0,0-4.12,4.12v3.39l.23.07a18.83,18.83,0,0,0,5.61.9,11.5,11.5,0,0,0,4.9-.92l.21-.11h0V38.09A4.13,4.13,0,0,0,33.63,34Zm0,0"/><path class="cls-2" d="M21.25,27.28A3.2,3.2,0,0,0,22.61,27a4,4,0,0,1,1.86-3,3.22,3.22,0,1,0-3.22,3.27Zm0,0"/><path class="cls-2" d="M23.82,30.26A4,4,0,0,1,22.6,27.5H19.88a4.13,4.13,0,0,0-4.12,4.12V35h0l.21.11a11.11,11.11,0,0,0,4.32.91V35a4.9,4.9,0,0,1,3.5-4.69Zm0,0"/><path class="cls-2" d="M25,23.66a4.35,4.35,0,0,1,1.54-.35,3.81,3.81,0,0,1,1.87.49,3.33,3.33,0,0,0,.35-.41,4.1,4.1,0,0,1-.45-4.24,3.19,3.19,0,0,0-5.21,1.54,3.84,3.84,0,0,1,1.9,3Zm0,0"/><path class="cls-2" d="M35.45,23.21a3.17,3.17,0,0,0,.39.5,3.81,3.81,0,0,1,1.7-.4,4.78,4.78,0,0,1,1.49.27,3.84,3.84,0,0,1,2.13-3.11,3.18,3.18,0,0,0-5.32-1.14,4.08,4.08,0,0,1-.39,3.88Zm0,0"/></svg>
