<svg id="Capa_1" data-name="Capa 1" xmlns="http://www.w3.org/2000/svg" viewBox="0 0 150 150"><defs><style>.cls-1,.cls-2{fill:#5770b4;}.cls-2{font-size:11px;font-family:FiraSans-Medium, Fira Sans;letter-spacing:-0.02em;}.cls-3{letter-spacing:-0.03em;}.cls-4{font-size:9px;font-family:FiraSans-Light, Fira Sans;letter-spacing:-0.03em;}.cls-5{letter-spacing:-0.03em;}.cls-6{letter-spacing:-0.05em;}.cls-7{letter-spacing:-0.03em;}.cls-8{letter-spacing:-0.04em;}.cls-9{fill:#fff;}</style></defs><title>empresa</title><circle class="cls-1" cx="37.96" cy="29.54" r="25.04"/><text class="cls-2" transform="translate(12.92 70.31)">Emp<tspan class="cls-3" x="20.91" y="0">r</tspan><tspan x="24.86" y="0">esa</tspan><tspan class="cls-4"><tspan x="0" y="14.37">1. De</tspan><tspan class="cls-5" x="17.5" y="14.37">r</tspan><tspan x="20.54" y="14.37">echos humanos</tspan><tspan x="0" y="24.97">2. Capacitación</tspan><tspan x="0" y="35.57">3. </tspan><tspan class="cls-6" x="8.07" y="35.57">R</tspan><tspan x="12.93" y="35.57">e</tspan><tspan class="cls-5" x="17.55" y="35.57">c</tspan><tspan x="21.46" y="35.57">onocimien</tspan><tspan class="cls-5" x="61.82" y="35.57">t</tspan><tspan x="64.57" y="35.57">o</tspan><tspan x="0" y="46.17">4. </tspan><tspan class="cls-5" x="8.36" y="46.17">C</tspan><tspan x="13" y="46.17">ome</tspan><tspan class="cls-7" x="29.98" y="46.17">r</tspan><tspan x="33.02" y="46.17">cio jus</tspan><tspan class="cls-8" x="57.56" y="46.17">t</tspan><tspan x="60.32" y="46.17">o</tspan><tspan x="0" y="56.77">5. </tspan><tspan class="cls-6" x="8.08" y="56.77">R</tspan><tspan x="12.94" y="56.77">entabilidad y eficiencia</tspan><tspan x="0" y="67.37">6. Seguridad, salud e higiene</tspan></tspan></text><path class="cls-9" d="M29.25,22.61c1.28,0,2.31-1.48,2.31-2.76a2.31,2.31,0,0,0-4.63,0C26.94,21.13,28,22.61,29.25,22.61Z"/><path class="cls-9" d="M46.66,22.61c1.28,0,2.32-1.48,2.32-2.76a2.32,2.32,0,0,0-4.63,0C44.35,21.13,45.39,22.61,46.66,22.61Z"/><path class="cls-9" d="M30.85,32.69a2.06,2.06,0,0,1-.44-1.52l.9-8.13a10.18,10.18,0,0,0-2.06-.25,13.65,13.65,0,0,0-3.91.77h-.07l0,0a.7.7,0,0,0-.24.15.44.44,0,0,0-.08.1.8.8,0,0,0-.13.17.91.91,0,0,0-.06.18,1,1,0,0,0,0,.13L24,30.93a.92.92,0,0,0,.81,1h.1a.91.91,0,0,0,.91-.81l.67-6,.25-.07V31.3L26,40.36a1.1,1.1,0,0,0,1,1.19h.09a1.09,1.09,0,0,0,1.09-1l.66-8.19a1.09,1.09,0,0,0,.44.09,1.14,1.14,0,0,0,.45-.09l.66,8.19a1.1,1.1,0,0,0,1.09,1h.09a1.1,1.1,0,0,0,1-1.19l-.56-7A2,2,0,0,1,30.85,32.69Z"/><path class="cls-9" d="M51.23,24.34a1.07,1.07,0,0,0,0-.13,1,1,0,0,0-.06-.19.74.74,0,0,0-.1-.14,1.1,1.1,0,0,0-.12-.13.86.86,0,0,0-.17-.1.55.55,0,0,0-.11-.07,13.79,13.79,0,0,0-4-.79A10.09,10.09,0,0,0,44.6,23l.9,8.13a2.07,2.07,0,0,1-.44,1.52,2,2,0,0,1-1.13.71l-.56,7a1.09,1.09,0,0,0,1,1.18h.09a1.09,1.09,0,0,0,1.09-1l.66-8.19a1.1,1.1,0,0,0,.44.09,1.14,1.14,0,0,0,.45-.09l.66,8.19a1.1,1.1,0,0,0,1.09,1h.09a1.09,1.09,0,0,0,1-1.18l-.73-9.05V25.05l.26.08.67,6a.92.92,0,0,0,.91.81h.1a.92.92,0,0,0,.81-1Z"/><path class="cls-9" d="M38,20.86c1.6,0,2.9-1.85,2.9-3.45a2.9,2.9,0,0,0-5.79,0C35.06,19,36.36,20.86,38,20.86Z"/><path class="cls-9" d="M43.58,32.54a1.14,1.14,0,0,0,1-1.26L43.68,23a1.12,1.12,0,0,0,0-.16.73.73,0,0,0-.21-.41,1.2,1.2,0,0,0-.14-.16,1.39,1.39,0,0,0-.22-.14s-.08-.06-.14-.08a18.12,18.12,0,0,0-4.53-1h-.89a18.36,18.36,0,0,0-4.45.94l-.05,0h0l-.06,0a1.15,1.15,0,0,0-.3.18l-.1.12a.78.78,0,0,0-.23.44c0,.05,0,.1-.05.16l-.91,8.25a1.14,1.14,0,0,0,1,1.26h.13a1.15,1.15,0,0,0,1.14-1L34.43,24l.32-.09v7.82l-.91,11.33a1.38,1.38,0,0,0,1.26,1.48h.11a1.37,1.37,0,0,0,1.37-1.26l.82-10.25a1.38,1.38,0,0,0,1.11,0l.82,10.25a1.38,1.38,0,0,0,1.37,1.26h.11a1.38,1.38,0,0,0,1.26-1.48l-.91-11.33V23.93l.32.09.83,7.51a1.15,1.15,0,0,0,1.14,1Z"/></svg>
