<svg id="Capa_1" data-name="Capa 1" xmlns="http://www.w3.org/2000/svg" viewBox="0 0 150 150"><defs><style>.cls-1{fill:#5770b4;}.cls-2{fill:#fff;}</style></defs><title>empresa</title><circle class="cls-1" cx="37.96" cy="29.54" r="25.04"/><path class="cls-1" d="M18.07,63.79H15.26v2.12h2.44V67H15.26v2.23h3v1.09H13.81v-7.6h4.41Z"/><path class="cls-1" d="M26.92,66.1v4.21H25.52v-4c0-.73-.29-.94-.64-.94s-.78.34-1.1.88v4H22.37v-4c0-.73-.3-.94-.64-.94-.5,0-.79.34-1.11.88v4H19.21V64.49h1.22l.11.76a2,2,0,0,1,1.68-.92,1.42,1.42,0,0,1,1.41,1,2.08,2.08,0,0,1,1.75-1A1.56,1.56,0,0,1,26.92,66.1Z"/><path class="cls-1" d="M33.46,67.39c0,1.78-.83,3.09-2.3,3.09a1.84,1.84,0,0,1-1.46-.64v2.72l-1.41.15V64.49h1.23l.08.72a2.11,2.11,0,0,1,1.71-.88C32.82,64.33,33.46,65.53,33.46,67.39ZM32,67.4c0-1.47-.4-2-1.1-2a1.46,1.46,0,0,0-1.19.79v2.62a1.23,1.23,0,0,0,1.07.61C31.53,69.4,32,68.81,32,67.4Z"/><path class="cls-1" d="M38,64.42l-.24,1.36a1.91,1.91,0,0,0-.52-.07c-.7,0-1.07.52-1.29,1.5v3.1H34.57V64.49h1.22l.13,1.14a1.64,1.64,0,0,1,1.52-1.3A2,2,0,0,1,38,64.42Z"/><path class="cls-1" d="M43,67.84H39.39c.1,1.19.66,1.57,1.43,1.57a2.42,2.42,0,0,0,1.45-.52l.58.8a3.35,3.35,0,0,1-2.16.78c-1.8,0-2.77-1.2-2.77-3s.94-3.11,2.59-3.11,2.56,1.1,2.56,2.94C43.07,67.45,43,67.68,43,67.84Zm-1.36-1c0-1-.34-1.53-1.13-1.53s-1.08.44-1.15,1.59h2.29Z"/><path class="cls-1" d="M48,65l-.55.83A2.66,2.66,0,0,0,46,65.37c-.56,0-.88.23-.88.58s.23.56,1.22.84c1.19.32,1.86.8,1.86,1.84,0,1.21-1.12,1.85-2.45,1.85a3.4,3.4,0,0,1-2.32-.83l.7-.79a2.63,2.63,0,0,0,1.58.57c.63,0,1-.26,1-.7s-.23-.64-1.32-.95-1.73-.9-1.73-1.76.89-1.69,2.24-1.69A3.28,3.28,0,0,1,48,65Z"/><path class="cls-1" d="M53.65,69.52l-.3.93a1.34,1.34,0,0,1-1.29-.85,2,2,0,0,1-1.74.87,1.73,1.73,0,0,1-1.88-1.79c0-1.27,1-1.95,2.65-1.95h.73v-.33c0-.76-.34-1-1.09-1a5.19,5.19,0,0,0-1.54.31l-.33-1A6,6,0,0,1,51,64.33c1.55,0,2.23.72,2.23,2v2.44C53.21,69.24,53.37,69.41,53.65,69.52Zm-1.83-.78V67.56h-.58c-.91,0-1.36.33-1.36,1a.77.77,0,0,0,.83.88A1.25,1.25,0,0,0,51.83,68.74Z"/><path class="cls-1" d="M15.55,84.68H15V79.27l-1.48.92-.24-.39,1.79-1.11h.45Z"/><path class="cls-1" d="M17.77,84.35a.42.42,0,0,1-.43.43.43.43,0,1,1,0-.85A.41.41,0,0,1,17.77,84.35Z"/><path class="cls-1" d="M25.43,81.55c0,2.56-1.5,3.13-2.77,3.13H21.34V78.51h1.22C24,78.51,25.43,79,25.43,81.55ZM21.88,79v5.27h.82c1.06,0,2.17-.47,2.17-2.68S23.71,79,22.63,79Z"/><path class="cls-1" d="M30.07,82.53H26.93c.06,1.28.66,1.81,1.47,1.81a2,2,0,0,0,1.27-.47l.24.33a2.32,2.32,0,0,1-1.54.58c-1.24,0-2-.9-2-2.41s.73-2.49,1.88-2.49,1.84.89,1.84,2.28C30.09,82.29,30.08,82.44,30.07,82.53Zm-.5-.54c0-1-.41-1.68-1.31-1.68-.74,0-1.29.54-1.34,1.82h2.65Z"/><path class="cls-1" d="M33.65,79.93l-.1.5a1.48,1.48,0,0,0-.41-.05c-.66,0-1,.47-1.26,1.43v2.88h-.52V80h.45l0,1.05c.25-.77.68-1.15,1.33-1.15A1.75,1.75,0,0,1,33.65,79.93Z"/><path class="cls-1" d="M37.54,82.53H34.39c.06,1.28.66,1.81,1.47,1.81a2,2,0,0,0,1.27-.47l.24.33a2.32,2.32,0,0,1-1.54.58c-1.24,0-2-.9-2-2.41s.73-2.49,1.88-2.49,1.84.89,1.84,2.28C37.55,82.29,37.54,82.44,37.54,82.53ZM37,82c0-1-.41-1.68-1.31-1.68-.74,0-1.29.54-1.34,1.82H37Z"/><path class="cls-1" d="M41.75,80.35l-.26.34a1.56,1.56,0,0,0-1-.37c-.86,0-1.46.67-1.46,2s.59,2,1.45,2a1.69,1.69,0,0,0,1.09-.4l.25.35a2,2,0,0,1-1.35.5c-1.21,0-2-.89-2-2.42s.78-2.49,2-2.49A1.88,1.88,0,0,1,41.75,80.35Z"/><path class="cls-1" d="M46.2,81.31v3.37h-.52V81.38c0-.77-.32-1.09-.89-1.09a1.77,1.77,0,0,0-1.46,1v3.41h-.52V78.05l.52-.06v2.76a1.87,1.87,0,0,1,1.56-.88A1.26,1.26,0,0,1,46.2,81.31Z"/><path class="cls-1" d="M51.45,82.31c0,1.52-.76,2.47-2,2.47s-2-.94-2-2.45.76-2.46,2-2.46S51.45,80.77,51.45,82.31Zm-3.43,0c0,1.32.53,2,1.43,2s1.45-.68,1.45-2-.53-2-1.44-2S48,81,48,82.33Z"/><path class="cls-1" d="M55.41,80.39l-.24.34a2,2,0,0,0-1.24-.43c-.62,0-1,.31-1,.79s.3.67,1.14.89c1,.27,1.51.62,1.51,1.42s-.77,1.37-1.7,1.37a2.47,2.47,0,0,1-1.68-.6l.29-.33a2.09,2.09,0,0,0,1.39.5c.68,0,1.16-.32,1.16-.9s-.26-.77-1.24-1-1.4-.63-1.4-1.29.67-1.23,1.57-1.23A2.31,2.31,0,0,1,55.41,80.39Z"/><path class="cls-1" d="M62.38,81.31v3.37h-.52V81.38c0-.77-.32-1.09-.89-1.09a1.77,1.77,0,0,0-1.46,1v3.41H59V78.05l.52-.06v2.76a1.87,1.87,0,0,1,1.56-.88A1.26,1.26,0,0,1,62.38,81.31Z"/><path class="cls-1" d="M67.32,84.68h-.45l0-.84a1.71,1.71,0,0,1-1.54.94A1.26,1.26,0,0,1,64,83.34V80h.52v3.31c0,.75.31,1.06.93,1.06a1.62,1.62,0,0,0,1.38-1V80h.52Z"/><path class="cls-1" d="M74.82,81.31v3.37H74.3V81.38c0-.77-.32-1.09-.8-1.09s-1,.4-1.32,1v3.41h-.52V81.38c0-.77-.32-1.09-.8-1.09s-1,.4-1.32,1v3.41H69V80h.45l0,.8a1.75,1.75,0,0,1,1.45-.9,1.15,1.15,0,0,1,1.17.94,1.77,1.77,0,0,1,1.48-.94C74.35,79.87,74.82,80.42,74.82,81.31Z"/><path class="cls-1" d="M79.78,84.41l-.12.37a.82.82,0,0,1-.73-.79,1.62,1.62,0,0,1-1.47.79A1.34,1.34,0,0,1,76,83.37c0-1,.75-1.52,2-1.52h.9v-.46c0-.75-.31-1.08-1.09-1.08a3.84,3.84,0,0,0-1.28.27l-.13-.4a3.93,3.93,0,0,1,1.49-.32,1.34,1.34,0,0,1,1.54,1.49v2.27C79.38,84.16,79.53,84.31,79.78,84.41Zm-.92-.88v-1.3H78c-.95,0-1.48.37-1.48,1.12a.91.91,0,0,0,1,1A1.42,1.42,0,0,0,78.86,83.53Z"/><path class="cls-1" d="M84.45,81.31v3.37h-.52V81.38c0-.77-.32-1.09-.89-1.09a1.77,1.77,0,0,0-1.46,1v3.41h-.52V80h.45l.05.8a1.87,1.87,0,0,1,1.58-.9C84,79.87,84.45,80.4,84.45,81.31Z"/><path class="cls-1" d="M89.7,82.31c0,1.52-.76,2.47-2,2.47s-2-.94-2-2.45.77-2.46,2-2.46S89.7,80.77,89.7,82.31Zm-3.43,0c0,1.32.53,2,1.43,2s1.45-.68,1.45-2-.53-2-1.44-2S86.27,81,86.27,82.33Z"/><path class="cls-1" d="M93.66,80.39l-.24.34a2,2,0,0,0-1.24-.43c-.62,0-1,.31-1,.79s.3.67,1.14.89c1,.27,1.51.62,1.51,1.42s-.77,1.37-1.7,1.37a2.47,2.47,0,0,1-1.68-.6l.29-.33a2.09,2.09,0,0,0,1.39.5c.68,0,1.16-.32,1.16-.9s-.26-.77-1.24-1-1.4-.63-1.4-1.29.67-1.23,1.57-1.23A2.31,2.31,0,0,1,93.66,80.39Z"/><path class="cls-1" d="M16.59,90.77c0,1.19-.67,1.94-2.67,4.05h2.84l-.07.46H13.31v-.44c2.22-2.37,2.75-3,2.75-4a1.08,1.08,0,0,0-1.13-1.16,1.64,1.64,0,0,0-1.34.68L13.22,90a2.1,2.1,0,0,1,1.73-.86A1.53,1.53,0,0,1,16.59,90.77Z"/><path class="cls-1" d="M18.37,94.95a.42.42,0,0,1-.43.43.43.43,0,1,1,0-.85A.41.41,0,0,1,18.37,94.95Z"/><path class="cls-1" d="M25.6,89.58l-.29.36a1.86,1.86,0,0,0-1.26-.47c-1.07,0-2,.76-2,2.72S22.95,94.9,24,94.9a2,2,0,0,0,1.37-.51l.28.35a2.33,2.33,0,0,1-1.67.64c-1.42,0-2.49-1.11-2.49-3.19S22.65,89,24,89A2.23,2.23,0,0,1,25.6,89.58Z"/><path class="cls-1" d="M29.84,95l-.12.37a.82.82,0,0,1-.73-.79,1.62,1.62,0,0,1-1.47.79A1.34,1.34,0,0,1,26.07,94c0-1,.75-1.52,2-1.52h.9V92c0-.75-.31-1.08-1.09-1.08a3.84,3.84,0,0,0-1.28.27l-.13-.4a3.93,3.93,0,0,1,1.49-.32A1.34,1.34,0,0,1,29.44,92v2.27C29.44,94.76,29.59,94.91,29.84,95Zm-.92-.88v-1.3H28.1c-.95,0-1.48.37-1.48,1.12a.91.91,0,0,0,1,1A1.42,1.42,0,0,0,28.92,94.13Z"/><path class="cls-1" d="M34.77,92.9c0,1.49-.62,2.48-1.79,2.48a1.66,1.66,0,0,1-1.34-.65v2.32l-.52.07V90.57h.45l0,.68a1.77,1.77,0,0,1,1.45-.78C34.22,90.47,34.77,91.38,34.77,92.9Zm-.56,0c0-1.34-.43-2-1.25-2a1.61,1.61,0,0,0-1.32.81v2.5a1.45,1.45,0,0,0,1.24.72C33.75,94.94,34.21,94.25,34.21,92.9Z"/><path class="cls-1" d="M39.35,95l-.12.37a.82.82,0,0,1-.73-.79,1.62,1.62,0,0,1-1.47.79A1.34,1.34,0,0,1,35.58,94c0-1,.75-1.52,2-1.52h.9V92c0-.75-.31-1.08-1.09-1.08a3.84,3.84,0,0,0-1.28.27l-.13-.4a3.93,3.93,0,0,1,1.49-.32A1.34,1.34,0,0,1,39,92v2.27C39,94.76,39.1,94.91,39.35,95Zm-.92-.88v-1.3h-.82c-.95,0-1.48.37-1.48,1.12a.91.91,0,0,0,1,1A1.42,1.42,0,0,0,38.43,94.13Z"/><path class="cls-1" d="M43.57,90.95l-.26.34a1.56,1.56,0,0,0-1-.37c-.86,0-1.46.67-1.46,2s.59,2,1.45,2a1.69,1.69,0,0,0,1.09-.4l.25.35a2,2,0,0,1-1.35.5c-1.21,0-2-.89-2-2.42s.78-2.49,2-2.49A1.88,1.88,0,0,1,43.57,90.95Z"/><path class="cls-1" d="M45.27,88.88a.39.39,0,1,1-.4-.38A.37.37,0,0,1,45.27,88.88Zm-.13,6.4h-.52V90.57h.52Z"/><path class="cls-1" d="M49,95.08a1.76,1.76,0,0,1-1,.3,1.09,1.09,0,0,1-1.15-1.24V91H46v-.42h.79V89.45l.52-.06v1.19h1.22L48.5,91H47.35v3.12c0,.55.22.82.69.82a1.38,1.38,0,0,0,.72-.21Z"/><path class="cls-1" d="M52.94,95l-.12.37a.82.82,0,0,1-.73-.79,1.62,1.62,0,0,1-1.47.79A1.34,1.34,0,0,1,49.17,94c0-1,.75-1.52,2-1.52H52V92c0-.75-.31-1.08-1.09-1.08a3.84,3.84,0,0,0-1.28.27l-.13-.4A3.93,3.93,0,0,1,51,90.47,1.34,1.34,0,0,1,52.55,92v2.27C52.55,94.76,52.69,94.91,52.94,95ZM52,94.13v-1.3H51.2c-.95,0-1.48.37-1.48,1.12a.91.91,0,0,0,1,1A1.42,1.42,0,0,0,52,94.13Z"/><path class="cls-1" d="M57.16,90.95l-.26.34a1.56,1.56,0,0,0-1-.37c-.86,0-1.46.67-1.46,2s.59,2,1.45,2a1.69,1.69,0,0,0,1.09-.4l.25.35a2,2,0,0,1-1.35.5c-1.21,0-2-.89-2-2.42s.78-2.49,2-2.49A1.88,1.88,0,0,1,57.16,90.95Z"/><path class="cls-1" d="M58.86,88.88a.39.39,0,1,1-.4-.38A.37.37,0,0,1,58.86,88.88Zm-.13,6.4h-.52V90.57h.52Z"/><path class="cls-1" d="M64,92.91c0,1.52-.76,2.47-2,2.47s-2-.94-2-2.45.77-2.46,2-2.46S64,91.37,64,92.91Zm-3.43,0c0,1.32.53,2,1.43,2s1.45-.68,1.45-2-.53-2-1.44-2S60.6,91.58,60.6,92.93Zm2.35-4.22-1.76.77L61,89.17l1.69-.93Z"/><path class="cls-1" d="M68.73,91.91v3.37h-.52V92c0-.77-.31-1.09-.89-1.09a1.77,1.77,0,0,0-1.46,1v3.41h-.52V90.57h.45l.05.8a1.87,1.87,0,0,1,1.58-.9C68.27,90.47,68.73,91,68.73,91.91Z"/><path class="cls-1" d="M16.56,101.29a1.35,1.35,0,0,1-1.18,1.41,1.38,1.38,0,0,1,1.35,1.49A1.76,1.76,0,0,1,14.82,106a2.18,2.18,0,0,1-1.72-.77l.33-.3a1.73,1.73,0,0,0,1.37.63,1.27,1.27,0,0,0,1.39-1.34c0-.91-.54-1.26-1.35-1.26h-.4l.07-.42h.29a1.15,1.15,0,0,0,1.23-1.2,1,1,0,0,0-1.15-1.08,1.84,1.84,0,0,0-1.33.56l-.28-.32a2.24,2.24,0,0,1,1.64-.68A1.49,1.49,0,0,1,16.56,101.29Z"/><path class="cls-1" d="M18.43,105.55A.42.42,0,0,1,18,106a.43.43,0,1,1,0-.85A.41.41,0,0,1,18.43,105.55Z"/><path class="cls-1" d="M23.77,103.12H22.53v2.76H22V99.71h1.49c1.49,0,2.2.58,2.2,1.67A1.57,1.57,0,0,1,24.31,103L26,105.88h-.64Zm-.21-.44c1,0,1.55-.39,1.55-1.29s-.46-1.23-1.64-1.23h-.94v2.52Z"/><path class="cls-1" d="M30.22,103.73H27.08c.06,1.28.66,1.81,1.47,1.81a2,2,0,0,0,1.27-.47l.24.33a2.32,2.32,0,0,1-1.54.58c-1.24,0-2-.9-2-2.41s.73-2.49,1.88-2.49,1.84.89,1.84,2.28C30.24,103.49,30.23,103.64,30.22,103.73Zm-.5-.54c0-1-.41-1.68-1.31-1.68-.74,0-1.29.54-1.34,1.82h2.65Z"/><path class="cls-1" d="M34.44,101.55l-.26.34a1.56,1.56,0,0,0-1-.37c-.86,0-1.46.67-1.46,2s.59,2,1.45,2a1.69,1.69,0,0,0,1.09-.4l.25.35a2,2,0,0,1-1.35.5c-1.21,0-2-.89-2-2.42s.78-2.49,2-2.49A1.88,1.88,0,0,1,34.44,101.55Z"/><path class="cls-1" d="M38.95,103.51c0,1.52-.76,2.47-2,2.47s-2-.94-2-2.45.77-2.46,2-2.46S38.95,102,38.95,103.51Zm-3.43,0c0,1.32.53,2,1.43,2s1.45-.68,1.45-2-.53-2-1.44-2S35.52,102.18,35.52,103.53Z"/><path class="cls-1" d="M43.65,102.51v3.37h-.52v-3.29c0-.77-.31-1.09-.89-1.09a1.77,1.77,0,0,0-1.46,1v3.41h-.52v-4.71h.45l.05.8a1.87,1.87,0,0,1,1.58-.9C43.19,101.07,43.65,101.6,43.65,102.51Z"/><path class="cls-1" d="M48.89,103.51c0,1.52-.76,2.47-2,2.47s-2-.94-2-2.45.77-2.46,2-2.46S48.89,102,48.89,103.51Zm-3.43,0c0,1.32.53,2,1.43,2s1.45-.68,1.45-2-.53-2-1.44-2S45.46,102.18,45.46,103.53Z"/><path class="cls-1" d="M53.14,101.55l-.26.34a1.56,1.56,0,0,0-1-.37c-.86,0-1.46.67-1.46,2s.59,2,1.45,2a1.69,1.69,0,0,0,1.09-.4l.25.35a2,2,0,0,1-1.35.5c-1.21,0-2-.89-2-2.42s.78-2.49,2-2.49A1.88,1.88,0,0,1,53.14,101.55Z"/><path class="cls-1" d="M54.84,99.48a.39.39,0,0,1-.78,0,.39.39,0,0,1,.78,0Zm-.13,6.4h-.52v-4.71h.52Z"/><path class="cls-1" d="M62.21,102.51v3.37h-.52v-3.29c0-.77-.32-1.09-.8-1.09s-1,.4-1.32,1v3.41H59v-3.29c0-.77-.32-1.09-.8-1.09s-1,.4-1.32,1v3.41H56.4v-4.71h.45l0,.8a1.75,1.75,0,0,1,1.45-.9,1.15,1.15,0,0,1,1.17.94,1.77,1.77,0,0,1,1.48-.94C61.75,101.07,62.21,101.62,62.21,102.51Z"/><path class="cls-1" d="M64.5,99.48a.39.39,0,0,1-.78,0,.39.39,0,0,1,.78,0Zm-.13,6.4h-.52v-4.71h.52Z"/><path class="cls-1" d="M69.38,103.73H66.23c.06,1.28.66,1.81,1.47,1.81a2,2,0,0,0,1.27-.47l.24.33a2.32,2.32,0,0,1-1.54.58c-1.24,0-2-.9-2-2.41s.73-2.49,1.88-2.49,1.84.89,1.84,2.28C69.39,103.49,69.39,103.64,69.38,103.73Zm-.5-.54c0-1-.41-1.68-1.31-1.68-.74,0-1.29.54-1.34,1.82h2.65Z"/><path class="cls-1" d="M74,102.51v3.37h-.52v-3.29c0-.77-.32-1.09-.89-1.09a1.77,1.77,0,0,0-1.46,1v3.41h-.52v-4.71h.45l.05.8a1.87,1.87,0,0,1,1.58-.9C73.59,101.07,74,101.6,74,102.51Z"/><path class="cls-1" d="M77.83,105.68a1.76,1.76,0,0,1-1,.3,1.09,1.09,0,0,1-1.15-1.24V101.6h-.79v-.42h.79V100l.52-.06v1.19h1.22l-.06.42H76.21v3.12c0,.55.22.82.69.82a1.38,1.38,0,0,0,.72-.21Z"/><path class="cls-1" d="M82,103.51c0,1.52-.76,2.47-2,2.47s-2-.94-2-2.45.76-2.46,2-2.46S82,102,82,103.51Zm-3.43,0c0,1.32.53,2,1.43,2s1.45-.68,1.45-2-.53-2-1.44-2S78.6,102.18,78.6,103.53Z"/><path class="cls-1" d="M17.27,114.91h-.81v1.58h-.51v-1.58H13.33v-.39l1.83-4.12.44.18-1.71,3.9h2.06l.06-1.75h.45v1.75h.81Z"/><path class="cls-1" d="M18.72,116.15a.42.42,0,0,1-.43.43.43.43,0,1,1,0-.85A.41.41,0,0,1,18.72,116.15Z"/><path class="cls-1" d="M26,110.78l-.29.36a1.86,1.86,0,0,0-1.26-.47c-1.07,0-2,.76-2,2.72s.86,2.71,1.94,2.71a2,2,0,0,0,1.37-.51l.28.35a2.33,2.33,0,0,1-1.67.64c-1.42,0-2.48-1.11-2.48-3.19s1.13-3.18,2.49-3.18A2.24,2.24,0,0,1,26,110.78Z"/><path class="cls-1" d="M30.39,114.11c0,1.52-.76,2.47-2,2.47s-2-.94-2-2.45.77-2.46,2-2.46S30.39,112.57,30.39,114.11Zm-3.43,0c0,1.32.53,2,1.43,2s1.45-.68,1.45-2-.53-2-1.44-2S27,112.78,27,114.13Z"/><path class="cls-1" d="M37.51,113.11v3.37H37v-3.29c0-.77-.32-1.09-.8-1.09s-1,.4-1.32,1v3.41h-.52v-3.29c0-.77-.32-1.09-.8-1.09s-1,.4-1.32,1v3.41h-.52v-4.71h.45l0,.8a1.75,1.75,0,0,1,1.45-.9,1.15,1.15,0,0,1,1.17.94,1.77,1.77,0,0,1,1.48-.94C37,111.67,37.51,112.22,37.51,113.11Z"/><path class="cls-1" d="M42.47,114.33H39.33c.06,1.28.66,1.81,1.47,1.81a2,2,0,0,0,1.27-.47l.24.33a2.32,2.32,0,0,1-1.54.58c-1.24,0-2-.9-2-2.41s.73-2.49,1.88-2.49,1.84.89,1.84,2.28C42.49,114.1,42.48,114.24,42.47,114.33Zm-.5-.54c0-1-.41-1.68-1.31-1.68-.74,0-1.29.54-1.34,1.82H42Z"/><path class="cls-1" d="M46,111.73l-.1.5a1.48,1.48,0,0,0-.41-.05c-.66,0-1,.47-1.26,1.43v2.88h-.52v-4.71h.45l0,1.05c.25-.77.67-1.15,1.33-1.15A1.8,1.8,0,0,1,46,111.73Z"/><path class="cls-1" d="M49.55,112.15l-.26.34a1.56,1.56,0,0,0-1-.37c-.86,0-1.46.67-1.46,2s.59,2,1.45,2a1.69,1.69,0,0,0,1.09-.4l.25.35a2,2,0,0,1-1.35.5c-1.21,0-2-.89-2-2.42s.78-2.49,2-2.49A1.88,1.88,0,0,1,49.55,112.15Z"/><path class="cls-1" d="M51.25,110.08a.39.39,0,1,1-.4-.38A.37.37,0,0,1,51.25,110.08Zm-.13,6.4H50.6v-4.71h.52Z"/><path class="cls-1" d="M56.42,114.11c0,1.52-.76,2.47-2,2.47s-2-.94-2-2.45.77-2.46,2-2.46S56.42,112.57,56.42,114.11Zm-3.43,0c0,1.32.53,2,1.43,2s1.45-.68,1.45-2-.53-2-1.44-2S53,112.78,53,114.13Z"/><path class="cls-1" d="M60.53,116.31a1.79,1.79,0,0,1-1.27,2l-.15-.38c.62-.31.9-.56.9-1.6v-4.55h.52Zm.13-6.23a.39.39,0,1,1-.4-.38A.37.37,0,0,1,60.66,110.08Z"/><path class="cls-1" d="M65.52,116.48h-.45l0-.84a1.71,1.71,0,0,1-1.54.94,1.26,1.26,0,0,1-1.33-1.44v-3.37h.52v3.31c0,.75.31,1.06.93,1.06a1.62,1.62,0,0,0,1.38-1v-3.41h.52Z"/><path class="cls-1" d="M69.85,112.2l-.24.34a2,2,0,0,0-1.24-.43c-.62,0-1,.31-1,.79s.3.67,1.14.89c1,.27,1.51.62,1.51,1.42s-.77,1.37-1.7,1.37a2.47,2.47,0,0,1-1.68-.6l.29-.33a2.09,2.09,0,0,0,1.39.5c.68,0,1.16-.32,1.16-.9s-.26-.77-1.24-1-1.41-.63-1.41-1.29.68-1.23,1.57-1.23A2.32,2.32,0,0,1,69.85,112.2Z"/><path class="cls-1" d="M73.29,116.28a1.76,1.76,0,0,1-1,.3,1.09,1.09,0,0,1-1.15-1.24V112.2h-.79v-.42h.79v-1.13l.52-.06v1.19h1.21l-.06.42H71.67v3.12c0,.55.22.82.69.82a1.38,1.38,0,0,0,.72-.21Z"/><path class="cls-1" d="M77.49,114.11c0,1.52-.76,2.47-2,2.47s-2-.94-2-2.45.77-2.46,2-2.46S77.49,112.57,77.49,114.11Zm-3.43,0c0,1.32.53,2,1.43,2s1.45-.68,1.45-2-.53-2-1.44-2S74.06,112.78,74.06,114.13Z"/><path class="cls-1" d="M16.57,121.53H14.13v2a2,2,0,0,1,1-.28,1.65,1.65,0,0,1,1.68,1.86,1.87,1.87,0,0,1-1.93,2,2.22,2.22,0,0,1-1.69-.72l.32-.32a1.75,1.75,0,0,0,1.37.59c.85,0,1.38-.61,1.38-1.59s-.52-1.43-1.25-1.43a1.83,1.83,0,0,0-1,.29h-.41V121.1h3Z"/><path class="cls-1" d="M18.44,126.75a.42.42,0,0,1-.43.43.43.43,0,1,1,0-.85A.41.41,0,0,1,18.44,126.75Z"/><path class="cls-1" d="M23.77,124.32H22.54v2.76H22v-6.17H23.5c1.49,0,2.2.58,2.2,1.67a1.57,1.57,0,0,1-1.38,1.63L26,127.08h-.64Zm-.21-.44c1,0,1.55-.39,1.55-1.29s-.46-1.23-1.64-1.23h-.94v2.52Z"/><path class="cls-1" d="M30.23,124.93H27.09c.06,1.28.66,1.81,1.47,1.81a2,2,0,0,0,1.27-.47l.24.33a2.32,2.32,0,0,1-1.54.58c-1.24,0-2-.9-2-2.41s.73-2.49,1.88-2.49,1.84.89,1.84,2.28C30.25,124.7,30.24,124.84,30.23,124.93Zm-.5-.54c0-1-.41-1.68-1.31-1.68-.74,0-1.29.54-1.34,1.82h2.65Z"/><path class="cls-1" d="M34.9,123.71v3.37h-.52v-3.29c0-.77-.31-1.09-.89-1.09a1.77,1.77,0,0,0-1.46,1v3.41H31.5v-4.71H32l.05.8a1.87,1.87,0,0,1,1.58-.9C34.44,122.27,34.9,122.81,34.9,123.71Z"/><path class="cls-1" d="M38.68,126.88a1.76,1.76,0,0,1-1,.3,1.09,1.09,0,0,1-1.15-1.24V122.8h-.79v-.42h.79v-1.13l.52-.06v1.19h1.21l-.06.42H37.06v3.12c0,.55.22.82.69.82a1.38,1.38,0,0,0,.72-.21Z"/><path class="cls-1" d="M42.65,126.81l-.12.37a.82.82,0,0,1-.73-.79,1.62,1.62,0,0,1-1.47.79,1.34,1.34,0,0,1-1.46-1.4c0-1,.75-1.52,2-1.52h.9v-.46c0-.75-.31-1.08-1.09-1.08a3.84,3.84,0,0,0-1.28.27l-.13-.4a3.94,3.94,0,0,1,1.49-.32,1.34,1.34,0,0,1,1.54,1.49V126C42.25,126.56,42.39,126.71,42.65,126.81Zm-.92-.88v-1.3h-.82c-.95,0-1.48.37-1.48,1.12a.91.91,0,0,0,1,1A1.42,1.42,0,0,0,41.73,125.93Z"/><path class="cls-1" d="M47.58,124.7c0,1.51-.66,2.48-1.79,2.48a1.67,1.67,0,0,1-1.35-.69l-.05.59h-.46v-6.63l.52-.06V123a1.71,1.71,0,0,1,1.41-.76C46.94,122.27,47.58,123.14,47.58,124.7Zm-.56,0c0-1.39-.47-2-1.27-2a1.56,1.56,0,0,0-1.3.81V126a1.48,1.48,0,0,0,1.24.76C46.53,126.75,47,126.07,47,124.7Z"/><path class="cls-1" d="M49.58,120.68a.39.39,0,0,1-.78,0,.39.39,0,0,1,.78,0Zm-.13,6.4h-.52v-4.71h.52Z"/><path class="cls-1" d="M51.09,126.29v-5.83l.52-.06v5.88c0,.31.12.46.38.46a.77.77,0,0,0,.32-.06l.14.39a1.26,1.26,0,0,1-.54.13A.78.78,0,0,1,51.09,126.29Z"/><path class="cls-1" d="M54.11,120.68a.39.39,0,1,1-.4-.38A.37.37,0,0,1,54.11,120.68Zm-.13,6.4h-.52v-4.71H54Z"/><path class="cls-1" d="M59,120.46v6.63h-.45l-.06-.72a1.57,1.57,0,0,1-1.41.82c-1.1,0-1.76-.94-1.76-2.43s.69-2.48,1.85-2.48a1.64,1.64,0,0,1,1.32.64v-2.52Zm-.52,5.42v-2.46a1.46,1.46,0,0,0-1.23-.71c-.83,0-1.39.71-1.38,2s.5,2,1.29,2A1.45,1.45,0,0,0,58.5,125.88Z"/><path class="cls-1" d="M64,126.81l-.12.37a.82.82,0,0,1-.73-.79,1.62,1.62,0,0,1-1.47.79,1.34,1.34,0,0,1-1.46-1.4c0-1,.75-1.52,2-1.52h.9v-.46c0-.75-.31-1.08-1.09-1.08a3.84,3.84,0,0,0-1.28.27l-.13-.4a3.94,3.94,0,0,1,1.49-.32,1.34,1.34,0,0,1,1.54,1.49V126C63.63,126.56,63.78,126.71,64,126.81Zm-.92-.88v-1.3h-.82c-.95,0-1.48.37-1.48,1.12a.91.91,0,0,0,1,1A1.42,1.42,0,0,0,63.11,125.93Z"/><path class="cls-1" d="M68.67,120.46v6.63h-.45l-.06-.72a1.57,1.57,0,0,1-1.41.82c-1.1,0-1.76-.94-1.76-2.43s.69-2.48,1.85-2.48a1.64,1.64,0,0,1,1.32.64v-2.52Zm-.52,5.42v-2.46a1.46,1.46,0,0,0-1.23-.71c-.83,0-1.39.71-1.38,2s.5,2,1.29,2A1.45,1.45,0,0,0,68.14,125.88Z"/><path class="cls-1" d="M74.14,127.1a2.28,2.28,0,0,1-1.93,1.82l-.05-.41a1.77,1.77,0,0,0,1.48-1.43h-.18l-1.64-4.71h.57l1.42,4.32,1.4-4.32h.55Z"/><path class="cls-1" d="M82.23,124.93H79.09c.06,1.28.66,1.81,1.47,1.81a2,2,0,0,0,1.27-.47l.24.33a2.32,2.32,0,0,1-1.54.58c-1.24,0-2-.9-2-2.41s.73-2.49,1.88-2.49,1.84.89,1.84,2.28C82.25,124.7,82.24,124.84,82.23,124.93Zm-.5-.54c0-1-.41-1.68-1.31-1.68-.74,0-1.29.54-1.34,1.82h2.65Z"/><path class="cls-1" d="M86.21,120.73l-.19.38a2.55,2.55,0,0,0-1.12-.27c-.59,0-.87.21-.87.8v.74h2.63v4.71h-.52V122.8H84v4.29h-.52V122.8h-.77v-.42h.77v-.77c0-.77.48-1.22,1.38-1.22A2.71,2.71,0,0,1,86.21,120.73Z"/><path class="cls-1" d="M91.29,122.75l-.26.34a1.56,1.56,0,0,0-1-.37c-.86,0-1.46.67-1.46,2s.59,2,1.45,2a1.69,1.69,0,0,0,1.09-.4l.25.35a2,2,0,0,1-1.35.5c-1.21,0-2-.89-2-2.42s.78-2.49,2-2.49A1.88,1.88,0,0,1,91.29,122.75Z"/><path class="cls-1" d="M93,120.68a.39.39,0,0,1-.78,0,.39.39,0,0,1,.78,0Zm-.13,6.4h-.52v-4.71h.52Z"/><path class="cls-1" d="M97.87,124.93H94.73c.06,1.28.66,1.81,1.47,1.81a2,2,0,0,0,1.27-.47l.24.33a2.32,2.32,0,0,1-1.54.58c-1.24,0-2-.9-2-2.41s.73-2.49,1.88-2.49,1.84.89,1.84,2.28C97.89,124.7,97.88,124.84,97.87,124.93Zm-.5-.54c0-1-.41-1.68-1.31-1.68-.74,0-1.29.54-1.34,1.82h2.65Z"/><path class="cls-1" d="M102.54,123.71v3.37H102v-3.29c0-.77-.32-1.09-.89-1.09a1.77,1.77,0,0,0-1.46,1v3.41h-.52v-4.71h.45l.05.8a1.87,1.87,0,0,1,1.58-.9C102.08,122.27,102.54,122.81,102.54,123.71Z"/><path class="cls-1" d="M107.12,122.75l-.26.34a1.56,1.56,0,0,0-1-.37c-.86,0-1.46.67-1.46,2s.59,2,1.45,2a1.69,1.69,0,0,0,1.09-.4l.25.35a2,2,0,0,1-1.35.5c-1.21,0-2-.89-2-2.42s.78-2.49,2-2.49A1.88,1.88,0,0,1,107.12,122.75Z"/><path class="cls-1" d="M108.82,120.68a.39.39,0,1,1-.4-.38A.37.37,0,0,1,108.82,120.68Zm-.13,6.4h-.52v-4.71h.52Z"/><path class="cls-1" d="M113.7,126.81l-.12.37a.82.82,0,0,1-.73-.79,1.62,1.62,0,0,1-1.47.79,1.34,1.34,0,0,1-1.46-1.4c0-1,.75-1.52,2-1.52h.9v-.46c0-.75-.31-1.08-1.09-1.08a3.84,3.84,0,0,0-1.28.27l-.13-.4a3.93,3.93,0,0,1,1.49-.32,1.34,1.34,0,0,1,1.54,1.49V126C113.3,126.56,113.45,126.71,113.7,126.81Zm-.92-.88v-1.3H112c-.95,0-1.48.37-1.48,1.12a.91.91,0,0,0,1,1A1.42,1.42,0,0,0,112.78,125.93Z"/><path class="cls-1" d="M17.18,135.67c0,1.31-.76,2.12-1.76,2.12-1.4,0-1.9-1.22-1.9-2.8,0-2.09.82-3.38,2.16-3.38a1.87,1.87,0,0,1,1.12.35l-.23.36a1.59,1.59,0,0,0-.9-.28c-1,0-1.58,1.1-1.62,2.64a1.83,1.83,0,0,1,1.54-.88C16.45,133.78,17.18,134.39,17.18,135.67Zm-.53,0c0-1-.49-1.47-1.13-1.47a1.73,1.73,0,0,0-1.47,1c0,1.33.41,2.14,1.37,2.14S16.65,136.66,16.65,135.68Z"/><path class="cls-1" d="M18.77,137.35a.42.42,0,0,1-.43.43.43.43,0,1,1,0-.85A.41.41,0,0,1,18.77,137.35Z"/><path class="cls-1" d="M25.51,132.1l-.32.34a2,2,0,0,0-1.44-.57c-.76,0-1.28.4-1.28,1s.33.92,1.44,1.25,1.78.74,1.78,1.83a1.82,1.82,0,0,1-2,1.78,2.73,2.73,0,0,1-2-.77l.31-.34a2.36,2.36,0,0,0,1.66.66,1.33,1.33,0,0,0,1.5-1.3c0-.75-.37-1.05-1.47-1.4s-1.75-.8-1.75-1.69a1.61,1.61,0,0,1,1.81-1.51A2.42,2.42,0,0,1,25.51,132.1Z"/><path class="cls-1" d="M30.24,135.53H27.09c.06,1.28.66,1.81,1.47,1.81a2,2,0,0,0,1.27-.47l.24.33a2.32,2.32,0,0,1-1.54.58c-1.24,0-2-.9-2-2.41s.73-2.49,1.88-2.49,1.84.89,1.84,2.28C30.25,135.3,30.25,135.44,30.24,135.53Zm-.5-.54c0-1-.41-1.68-1.31-1.68-.74,0-1.29.54-1.34,1.82h2.65Z"/><path class="cls-1" d="M35,133.07a5.36,5.36,0,0,1-1.31.13,1.31,1.31,0,0,1,.8,1.28,1.52,1.52,0,0,1-1.7,1.55,1.87,1.87,0,0,1-.61-.09.64.64,0,0,0-.36.54c0,.28.18.49.75.49h.77c.94,0,1.51.5,1.51,1.21s-.67,1.35-2,1.35-2-.41-2-1.35h.49c0,.66.35.92,1.48.92s1.51-.33,1.51-.89-.4-.78-1.06-.78H32.5c-.78,0-1.16-.38-1.16-.83a1,1,0,0,1,.51-.8,1.35,1.35,0,0,1-.79-1.32,1.58,1.58,0,0,1,1.73-1.59,4.23,4.23,0,0,0,2.06-.31Zm-3.41,1.4a1.1,1.1,0,0,0,1.19,1.19,1.19,1.19,0,0,0,0-2.38A1.09,1.09,0,0,0,31.6,134.47Z"/><path class="cls-1" d="M39,137.68h-.45l0-.84a1.71,1.71,0,0,1-1.54.94,1.26,1.26,0,0,1-1.33-1.44V133h.52v3.31c0,.75.32,1.06.93,1.06a1.62,1.62,0,0,0,1.38-1V133H39Z"/><path class="cls-1" d="M43,132.93l-.1.5a1.48,1.48,0,0,0-.41-.05c-.66,0-1,.47-1.26,1.43v2.88h-.52V133h.45l0,1.05c.25-.77.67-1.15,1.33-1.15A1.8,1.8,0,0,1,43,132.93Z"/><path class="cls-1" d="M44.49,131.28a.39.39,0,1,1-.4-.38A.37.37,0,0,1,44.49,131.28Zm-.13,6.4h-.52V133h.52Z"/><path class="cls-1" d="M49.41,131.06v6.63H49l-.06-.72a1.57,1.57,0,0,1-1.41.82c-1.1,0-1.76-.94-1.76-2.43s.69-2.48,1.85-2.48a1.64,1.64,0,0,1,1.32.64V131Zm-.52,5.42V134a1.46,1.46,0,0,0-1.23-.71c-.83,0-1.39.71-1.38,2s.5,2,1.29,2A1.45,1.45,0,0,0,48.88,136.48Z"/><path class="cls-1" d="M54.41,137.41l-.12.37a.82.82,0,0,1-.73-.79,1.62,1.62,0,0,1-1.47.79,1.34,1.34,0,0,1-1.46-1.4c0-1,.75-1.52,2-1.52h.9v-.46c0-.75-.31-1.08-1.09-1.08a3.84,3.84,0,0,0-1.28.27l-.13-.4a3.93,3.93,0,0,1,1.49-.32,1.34,1.34,0,0,1,1.54,1.5v2.27C54,137.16,54.16,137.31,54.41,137.41Zm-.92-.88v-1.3h-.82c-.95,0-1.48.37-1.48,1.12a.91.91,0,0,0,1,1A1.42,1.42,0,0,0,53.49,136.53Z"/><path class="cls-1" d="M59,131.06v6.63h-.45l-.06-.72a1.57,1.57,0,0,1-1.41.82c-1.1,0-1.76-.94-1.76-2.43s.69-2.48,1.85-2.48a1.64,1.64,0,0,1,1.32.64V131Zm-.52,5.42V134a1.46,1.46,0,0,0-1.23-.71c-.83,0-1.39.71-1.38,2s.5,2,1.29,2A1.45,1.45,0,0,0,58.52,136.48Z"/><path class="cls-1" d="M61.13,137.35a1.26,1.26,0,0,1-.13.5l-.5,1.2h-.38l.36-1.32a.42.42,0,0,1-.21-.37.42.42,0,0,1,.43-.42A.41.41,0,0,1,61.13,137.35Z"/><path class="cls-1" d="M67.31,133.4l-.24.34a2,2,0,0,0-1.24-.43c-.62,0-1,.31-1,.79s.3.67,1.14.89c1,.27,1.51.62,1.51,1.42s-.77,1.37-1.7,1.37a2.47,2.47,0,0,1-1.68-.6l.29-.33a2.09,2.09,0,0,0,1.39.5c.68,0,1.16-.32,1.16-.9s-.26-.77-1.24-1-1.4-.63-1.4-1.29.67-1.23,1.57-1.23A2.31,2.31,0,0,1,67.31,133.4Z"/><path class="cls-1" d="M71.83,137.41l-.12.37A.82.82,0,0,1,71,137a1.62,1.62,0,0,1-1.47.79,1.34,1.34,0,0,1-1.46-1.4c0-1,.75-1.52,2-1.52h.9v-.46c0-.75-.31-1.08-1.09-1.08a3.84,3.84,0,0,0-1.28.27l-.13-.4a3.94,3.94,0,0,1,1.49-.32,1.34,1.34,0,0,1,1.54,1.5v2.27C71.44,137.16,71.58,137.31,71.83,137.41Zm-.92-.88v-1.3H70.1c-.95,0-1.48.37-1.48,1.12a.91.91,0,0,0,1,1A1.42,1.42,0,0,0,70.92,136.53Z"/><path class="cls-1" d="M73,136.89v-5.83l.52-.06v5.88c0,.31.12.46.38.46a.77.77,0,0,0,.32-.06l.14.39a1.25,1.25,0,0,1-.54.13A.78.78,0,0,1,73,136.89Z"/><path class="cls-1" d="M78.65,137.68H78.2l0-.84a1.71,1.71,0,0,1-1.54.94,1.26,1.26,0,0,1-1.33-1.44V133h.52v3.31c0,.75.31,1.06.93,1.06a1.62,1.62,0,0,0,1.38-1V133h.52Z"/><path class="cls-1" d="M83.7,131.06v6.63h-.45l-.06-.72a1.57,1.57,0,0,1-1.41.82c-1.1,0-1.76-.94-1.76-2.43s.69-2.48,1.85-2.48a1.64,1.64,0,0,1,1.32.64V131Zm-.52,5.42V134a1.46,1.46,0,0,0-1.23-.71c-.83,0-1.39.71-1.38,2s.5,2,1.29,2A1.45,1.45,0,0,0,83.17,136.48Z"/><path class="cls-1" d="M91,135.53H87.84c.06,1.28.66,1.81,1.47,1.81a2,2,0,0,0,1.27-.47l.24.33a2.32,2.32,0,0,1-1.54.58c-1.24,0-2-.9-2-2.41s.73-2.49,1.88-2.49,1.84.89,1.84,2.28C91,135.3,91,135.44,91,135.53Zm-.5-.54c0-1-.41-1.68-1.31-1.68-.74,0-1.29.54-1.34,1.82h2.65Z"/><path class="cls-1" d="M97.94,134.31v3.37h-.52v-3.29c0-.77-.32-1.09-.89-1.09a1.77,1.77,0,0,0-1.46,1v3.41h-.52v-6.63l.52-.06v2.76a1.87,1.87,0,0,1,1.56-.88A1.26,1.26,0,0,1,97.94,134.31Z"/><path class="cls-1" d="M100.23,131.28a.39.39,0,1,1-.4-.38A.37.37,0,0,1,100.23,131.28Zm-.13,6.4h-.52V133h.52Z"/><path class="cls-1" d="M105.29,133.07a5.36,5.36,0,0,1-1.31.13,1.31,1.31,0,0,1,.8,1.28,1.52,1.52,0,0,1-1.7,1.55,1.87,1.87,0,0,1-.61-.09.64.64,0,0,0-.36.54c0,.28.18.49.75.49h.77c.94,0,1.51.5,1.51,1.21s-.67,1.35-2,1.35-2-.41-2-1.35h.49c0,.66.35.92,1.48.92s1.51-.33,1.51-.89-.4-.78-1.06-.78h-.76c-.78,0-1.16-.38-1.16-.83a1,1,0,0,1,.51-.8,1.35,1.35,0,0,1-.79-1.32,1.58,1.58,0,0,1,1.73-1.59,4.23,4.23,0,0,0,2.06-.31Zm-3.41,1.4a1.1,1.1,0,0,0,1.19,1.19,1.19,1.19,0,0,0,0-2.38A1.09,1.09,0,0,0,101.87,134.47Z"/><path class="cls-1" d="M106.73,131.28a.39.39,0,1,1-.4-.38A.37.37,0,0,1,106.73,131.28Zm-.13,6.4h-.52V133h.52Z"/><path class="cls-1" d="M111.61,135.53h-3.14c.06,1.28.66,1.81,1.47,1.81a2,2,0,0,0,1.27-.47l.24.33a2.32,2.32,0,0,1-1.54.58c-1.24,0-2-.9-2-2.41s.73-2.49,1.88-2.49,1.84.89,1.84,2.28C111.63,135.3,111.62,135.44,111.61,135.53Zm-.5-.54c0-1-.41-1.68-1.31-1.68-.74,0-1.29.54-1.34,1.82h2.65Z"/><path class="cls-1" d="M116.28,134.31v3.37h-.52v-3.29c0-.77-.32-1.09-.89-1.09a1.77,1.77,0,0,0-1.46,1v3.41h-.52V133h.45l.05.8a1.87,1.87,0,0,1,1.58-.9C115.82,132.87,116.28,133.41,116.28,134.31Z"/><path class="cls-1" d="M121.24,135.53H118.1c.06,1.28.66,1.81,1.47,1.81a2,2,0,0,0,1.27-.47l.24.33a2.32,2.32,0,0,1-1.54.58c-1.24,0-2-.9-2-2.41s.73-2.49,1.88-2.49,1.84.89,1.84,2.28C121.26,135.3,121.25,135.44,121.24,135.53Zm-.5-.54c0-1-.41-1.68-1.31-1.68-.74,0-1.29.54-1.34,1.82h2.65Z"/><path class="cls-2" d="M29.25,22.61c1.28,0,2.31-1.48,2.31-2.76a2.31,2.31,0,0,0-4.63,0C26.94,21.13,28,22.61,29.25,22.61Z"/><path class="cls-2" d="M46.66,22.61c1.28,0,2.32-1.48,2.32-2.76a2.32,2.32,0,0,0-4.63,0C44.35,21.13,45.39,22.61,46.66,22.61Z"/><path class="cls-2" d="M30.85,32.69a2.06,2.06,0,0,1-.44-1.52l.9-8.13a10.18,10.18,0,0,0-2.06-.25,13.65,13.65,0,0,0-3.91.77h-.07l0,0a.7.7,0,0,0-.24.15.44.44,0,0,0-.08.1.8.8,0,0,0-.13.17.91.91,0,0,0-.06.18,1,1,0,0,0,0,.13L24,30.93a.92.92,0,0,0,.81,1h.1a.91.91,0,0,0,.91-.81l.67-6,.25-.07V31.3L26,40.36a1.1,1.1,0,0,0,1,1.19h.09a1.09,1.09,0,0,0,1.09-1l.66-8.19a1.09,1.09,0,0,0,.44.09,1.14,1.14,0,0,0,.45-.09l.66,8.19a1.1,1.1,0,0,0,1.09,1h.09a1.1,1.1,0,0,0,1-1.19l-.56-7A2,2,0,0,1,30.85,32.69Z"/><path class="cls-2" d="M51.23,24.34a1.07,1.07,0,0,0,0-.13,1,1,0,0,0-.06-.19.74.74,0,0,0-.1-.14,1.1,1.1,0,0,0-.12-.13.86.86,0,0,0-.17-.1.55.55,0,0,0-.11-.07,13.79,13.79,0,0,0-4-.79A10.09,10.09,0,0,0,44.6,23l.9,8.13a2.07,2.07,0,0,1-.44,1.52,2,2,0,0,1-1.13.71l-.56,7a1.09,1.09,0,0,0,1,1.18h.09a1.09,1.09,0,0,0,1.09-1l.66-8.19a1.1,1.1,0,0,0,.44.09,1.14,1.14,0,0,0,.45-.09l.66,8.19a1.1,1.1,0,0,0,1.09,1h.09a1.09,1.09,0,0,0,1-1.18l-.73-9.05V25.05l.26.08.67,6a.92.92,0,0,0,.91.81h.1a.92.92,0,0,0,.81-1Z"/><path class="cls-2" d="M38,20.86c1.6,0,2.9-1.85,2.9-3.45a2.9,2.9,0,0,0-5.79,0C35.06,19,36.36,20.86,38,20.86Z"/><path class="cls-2" d="M43.58,32.54a1.14,1.14,0,0,0,1-1.26L43.68,23a1.12,1.12,0,0,0,0-.16.73.73,0,0,0-.21-.41,1.2,1.2,0,0,0-.14-.16,1.39,1.39,0,0,0-.22-.14s-.08-.06-.14-.08a18.12,18.12,0,0,0-4.53-1h-.89a18.36,18.36,0,0,0-4.45.94l-.05,0h0l-.06,0a1.15,1.15,0,0,0-.3.18l-.1.12a.78.78,0,0,0-.23.44c0,.05,0,.1-.05.16l-.91,8.25a1.14,1.14,0,0,0,1,1.26h.13a1.15,1.15,0,0,0,1.14-1L34.43,24l.32-.09v7.82l-.91,11.33a1.38,1.38,0,0,0,1.26,1.48h.11a1.37,1.37,0,0,0,1.37-1.26l.82-10.25a1.38,1.38,0,0,0,1.11,0l.82,10.25a1.38,1.38,0,0,0,1.37,1.26h.11a1.38,1.38,0,0,0,1.26-1.48l-.91-11.33V23.93l.32.09.83,7.51a1.15,1.15,0,0,0,1.14,1Z"/></svg>
