<svg id="Capa_1" data-name="Capa 1" xmlns="http://www.w3.org/2000/svg" viewBox="0 0 150 130"><defs><style>.cls-1{fill:#5a4494;}.cls-2{fill:#fff;}</style></defs><title>gobierno</title><path class="cls-1" d="M13,65.58l-.78.81a2.35,2.35,0,0,0-1.6-.61c-1.08,0-2,.81-2,2.86s.62,2.86,1.8,2.86a2.41,2.41,0,0,0,1.21-.3v-2H10.47l-.15-1.08H13v3.72a5,5,0,0,1-2.62.75c-2.17,0-3.36-1.36-3.36-4s1.58-4,3.49-4A3.52,3.52,0,0,1,13,65.58Z"/><path class="cls-1" d="M19.29,69.54c0,1.84-1,3.08-2.74,3.08s-2.74-1.17-2.74-3.08,1-3.07,2.75-3.07S19.29,67.64,19.29,69.54Zm-4,0c0,1.4.43,2,1.25,2s1.25-.63,1.25-2-.43-2-1.24-2S15.3,68.17,15.3,69.54Z"/><path class="cls-1" d="M25.51,69.54c0,1.81-.87,3.08-2.3,3.08a1.92,1.92,0,0,1-1.54-.76l-.09.59H20.34V64.31l1.41-.15V67.3a1.94,1.94,0,0,1,1.61-.83C24.71,66.47,25.51,67.6,25.51,69.54Zm-1.47,0c0-1.55-.46-2-1.13-2a1.39,1.39,0,0,0-1.16.79V70.9a1.27,1.27,0,0,0,1.08.67C23.54,71.57,24,71,24,69.54Z"/><path class="cls-1" d="M28.2,64.55a.89.89,0,1,1-.89-.86A.84.84,0,0,1,28.2,64.55ZM28,72.46H26.62V66.64H28Z"/><path class="cls-1" d="M34.19,70H30.54c.1,1.19.66,1.57,1.43,1.57A2.42,2.42,0,0,0,33.42,71l.58.8a3.35,3.35,0,0,1-2.16.78c-1.8,0-2.77-1.2-2.77-3s.94-3.11,2.59-3.11,2.56,1.1,2.56,2.94C34.22,69.6,34.2,69.83,34.19,70Zm-1.36-1c0-1-.34-1.53-1.13-1.53s-1.08.44-1.15,1.59h2.29Z"/><path class="cls-1" d="M38.67,66.56l-.24,1.36a1.92,1.92,0,0,0-.52-.07c-.7,0-1.07.52-1.29,1.5v3.1H35.21V66.64h1.22l.13,1.14a1.64,1.64,0,0,1,1.52-1.3A2,2,0,0,1,38.67,66.56Z"/><path class="cls-1" d="M44,68.24v4.21H42.61v-4c0-.73-.27-.94-.71-.94s-.88.34-1.22.88v4H39.27V66.64h1.22l.11.76a2.17,2.17,0,0,1,1.77-.92A1.57,1.57,0,0,1,44,68.24Z"/><path class="cls-1" d="M50.49,69.54c0,1.84-1,3.08-2.74,3.08S45,71.46,45,69.54s1-3.07,2.75-3.07S50.49,67.64,50.49,69.54Zm-4,0c0,1.4.43,2,1.25,2s1.25-.63,1.25-2-.43-2-1.24-2S46.5,68.17,46.5,69.54Z"/><path class="cls-1" d="M59.18,65.49l-.74.86A2.19,2.19,0,0,0,57,65.81c-1.06,0-1.87.77-1.87,2.83S56,71.46,57,71.46a2.46,2.46,0,0,0,1.55-.62l.68.86a3.2,3.2,0,0,1-2.29.92c-2,0-3.34-1.4-3.34-4s1.45-4,3.32-4A3.2,3.2,0,0,1,59.18,65.49Z"/><path class="cls-1" d="M64.87,69.54c0,1.84-1,3.08-2.74,3.08s-2.74-1.17-2.74-3.08,1-3.07,2.75-3.07S64.87,67.64,64.87,69.54Zm-4,0c0,1.4.43,2,1.25,2s1.25-.63,1.25-2-.43-2-1.24-2S60.87,68.17,60.87,69.54Z"/><path class="cls-1" d="M69.37,66.56l-.24,1.36a1.92,1.92,0,0,0-.52-.07c-.7,0-1.07.52-1.29,1.5v3.1H65.91V66.64h1.22l.13,1.14a1.64,1.64,0,0,1,1.52-1.3A2,2,0,0,1,69.37,66.56Z"/><path class="cls-1" d="M75.14,69.53c0,1.78-.83,3.09-2.3,3.09A1.84,1.84,0,0,1,71.38,72V74.7L70,74.86V66.64H71.2l.08.72A2.11,2.11,0,0,1,73,66.47C74.5,66.47,75.14,67.67,75.14,69.53Zm-1.47,0c0-1.47-.4-2-1.1-2a1.46,1.46,0,0,0-1.19.79v2.62a1.23,1.23,0,0,0,1.07.61C73.22,71.54,73.67,71,73.67,69.54Z"/><path class="cls-1" d="M81.36,69.54c0,1.84-1,3.08-2.74,3.08s-2.74-1.17-2.74-3.08,1-3.07,2.75-3.07S81.36,67.64,81.36,69.54Zm-4,0c0,1.4.43,2,1.25,2s1.25-.63,1.25-2-.43-2-1.24-2S77.36,68.17,77.36,69.54Z"/><path class="cls-1" d="M85.86,66.56l-.24,1.36a1.92,1.92,0,0,0-.52-.07c-.7,0-1.07.52-1.29,1.5v3.1H82.4V66.64h1.22l.13,1.14a1.64,1.64,0,0,1,1.52-1.3A2,2,0,0,1,85.86,66.56Z"/><path class="cls-1" d="M90.82,71.67l-.3.93a1.34,1.34,0,0,1-1.29-.85,2,2,0,0,1-1.74.87,1.73,1.73,0,0,1-1.88-1.79c0-1.27,1-1.95,2.65-1.95H89v-.33c0-.76-.34-1-1.09-1a5.19,5.19,0,0,0-1.54.31l-.33-1a6,6,0,0,1,2.11-.42c1.55,0,2.23.72,2.23,2v2.44C90.38,71.39,90.53,71.56,90.82,71.67ZM89,70.88V69.71h-.58c-.91,0-1.36.33-1.36,1a.77.77,0,0,0,.83.88A1.24,1.24,0,0,0,89,70.88Z"/><path class="cls-1" d="M95.14,72.18a2.54,2.54,0,0,1-1.46.44c-1.14,0-1.75-.66-1.75-1.9V67.65H91v-1h.91V65.35l1.41-.17v1.45h1.35l-.14,1H93.33v3c0,.57.19.8.62.8a1.39,1.39,0,0,0,.69-.21Z"/><path class="cls-1" d="M97.24,64.55a.89.89,0,1,1-.89-.86A.84.84,0,0,1,97.24,64.55Zm-.18,7.91H95.66V66.64h1.41Z"/><path class="cls-1" d="M101.27,72.46H99.58l-1.93-5.82h1.53l1.24,4.69,1.28-4.69h1.45Z"/><path class="cls-1" d="M108.79,69.54c0,1.84-1,3.08-2.74,3.08s-2.74-1.17-2.74-3.08,1-3.07,2.75-3.07S108.79,67.64,108.79,69.54Zm-4,0c0,1.4.43,2,1.25,2s1.25-.63,1.25-2-.43-2-1.24-2S104.8,68.17,104.8,69.54Z"/><path class="cls-1" d="M9.23,84.83H8.71V79.42l-1.48.92L7,79.95l1.79-1.11h.45Z"/><path class="cls-1" d="M11.45,84.49a.42.42,0,0,1-.43.43.43.43,0,1,1,0-.85A.41.41,0,0,1,11.45,84.49Z"/><path class="cls-1" d="M18.32,79.14H16.51v5.69H16V79.14H14.15v-.48h4.23Z"/><path class="cls-1" d="M21.22,80.07l-.1.5a1.48,1.48,0,0,0-.41-.05c-.66,0-1,.47-1.26,1.43v2.88h-.52V80.12h.45l0,1.05c.25-.77.68-1.15,1.33-1.15A1.75,1.75,0,0,1,21.22,80.07Z"/><path class="cls-1" d="M25.07,84.55l-.12.37a.82.82,0,0,1-.73-.79,1.62,1.62,0,0,1-1.47.79,1.34,1.34,0,0,1-1.46-1.4c0-1,.75-1.52,2-1.52h.9v-.46c0-.75-.31-1.08-1.09-1.08a3.84,3.84,0,0,0-1.28.27l-.13-.4A3.94,3.94,0,0,1,23.13,80a1.34,1.34,0,0,1,1.54,1.49v2.27C24.67,84.3,24.82,84.46,25.07,84.55Zm-.92-.88v-1.3h-.82c-.95,0-1.48.37-1.48,1.12a.91.91,0,0,0,1,1A1.42,1.42,0,0,0,24.15,83.67Z"/><path class="cls-1" d="M29.74,81.46v3.37h-.52V81.53c0-.77-.31-1.09-.89-1.09a1.77,1.77,0,0,0-1.46,1v3.41h-.52V80.12h.45l.05.8a1.87,1.87,0,0,1,1.58-.9C29.28,80,29.74,80.55,29.74,81.46Z"/><path class="cls-1" d="M34,80.54l-.24.34a2,2,0,0,0-1.24-.43c-.62,0-1,.31-1,.79s.3.67,1.14.89c1,.27,1.51.62,1.51,1.42s-.77,1.37-1.7,1.37a2.47,2.47,0,0,1-1.68-.6l.29-.33a2.09,2.09,0,0,0,1.39.5c.68,0,1.16-.32,1.16-.9s-.26-.77-1.24-1S31,81.91,31,81.25,31.64,80,32.53,80A2.31,2.31,0,0,1,34,80.54Z"/><path class="cls-1" d="M39,82.45c0,1.49-.62,2.48-1.79,2.48a1.66,1.66,0,0,1-1.34-.65V86.6l-.52.07V80.12h.45l0,.68A1.77,1.77,0,0,1,37.27,80C38.43,80,39,80.93,39,82.45Zm-.56,0c0-1.34-.43-2-1.25-2a1.61,1.61,0,0,0-1.32.81v2.5a1.45,1.45,0,0,0,1.24.72C38,84.48,38.42,83.8,38.42,82.45Z"/><path class="cls-1" d="M43.56,84.55l-.12.37a.82.82,0,0,1-.73-.79,1.62,1.62,0,0,1-1.47.79,1.34,1.34,0,0,1-1.46-1.4c0-1,.75-1.52,2-1.52h.9v-.46c0-.75-.31-1.08-1.09-1.08a3.84,3.84,0,0,0-1.28.27l-.13-.4A3.94,3.94,0,0,1,41.63,80a1.34,1.34,0,0,1,1.54,1.49v2.27C43.17,84.3,43.31,84.46,43.56,84.55Zm-.92-.88v-1.3h-.82c-.95,0-1.48.37-1.48,1.12a.91.91,0,0,0,1,1A1.42,1.42,0,0,0,42.64,83.67Z"/><path class="cls-1" d="M47.13,80.07l-.1.5a1.48,1.48,0,0,0-.41-.05c-.66,0-1,.47-1.26,1.43v2.88h-.52V80.12h.45l0,1.05C45.59,80.4,46,80,46.67,80A1.75,1.75,0,0,1,47.13,80.07Z"/><path class="cls-1" d="M51,82.67H47.88c.06,1.28.66,1.81,1.47,1.81A2,2,0,0,0,50.62,84l.24.33a2.32,2.32,0,0,1-1.54.58c-1.24,0-2-.9-2-2.41S48.05,80,49.2,80,51,80.91,51,82.3C51,82.44,51,82.58,51,82.67Zm-.5-.54c0-1-.41-1.68-1.31-1.68-.74,0-1.29.54-1.34,1.82h2.65Z"/><path class="cls-1" d="M55.69,81.46v3.37h-.52V81.53c0-.77-.31-1.09-.89-1.09a1.77,1.77,0,0,0-1.46,1v3.41H52.3V80.12h.45l.05.8a1.87,1.87,0,0,1,1.58-.9C55.23,80,55.69,80.55,55.69,81.46Z"/><path class="cls-1" d="M60.27,80.5l-.26.34a1.56,1.56,0,0,0-1-.37c-.86,0-1.46.67-1.46,2s.59,2,1.45,2a1.69,1.69,0,0,0,1.09-.4l.25.35a2,2,0,0,1-1.35.5c-1.21,0-2-.89-2-2.42s.78-2.49,2-2.49A1.88,1.88,0,0,1,60.27,80.5Z"/><path class="cls-1" d="M62,78.42a.39.39,0,1,1-.4-.38A.37.37,0,0,1,62,78.42Zm-.13,6.4h-.52V80.12h.52Z"/><path class="cls-1" d="M66.85,84.55l-.12.37a.82.82,0,0,1-.73-.79,1.62,1.62,0,0,1-1.47.79,1.34,1.34,0,0,1-1.46-1.4c0-1,.75-1.52,2-1.52h.9v-.46c0-.75-.31-1.08-1.09-1.08a3.84,3.84,0,0,0-1.28.27l-.13-.4A3.94,3.94,0,0,1,64.92,80a1.34,1.34,0,0,1,1.54,1.49v2.27C66.46,84.3,66.6,84.46,66.85,84.55Zm-.92-.88v-1.3h-.82c-.95,0-1.48.37-1.48,1.12a.91.91,0,0,0,1,1A1.42,1.42,0,0,0,65.94,83.67Z"/><path class="cls-1" d="M10.27,90.92c0,1.19-.67,1.94-2.67,4.05h2.84l-.07.46H7V95c2.22-2.37,2.75-3,2.75-4A1.08,1.08,0,0,0,8.6,89.78a1.64,1.64,0,0,0-1.34.68L6.9,90.2a2.1,2.1,0,0,1,1.73-.86A1.53,1.53,0,0,1,10.27,90.92Z"/><path class="cls-1" d="M12,95.09a.42.42,0,0,1-.43.43.43.43,0,1,1,0-.85A.41.41,0,0,1,12,95.09Z"/><path class="cls-1" d="M16.15,95.43h-.54V89.26h.54Z"/><path class="cls-1" d="M21.27,92.06v3.37h-.52V92.13c0-.77-.31-1.09-.89-1.09a1.77,1.77,0,0,0-1.46,1v3.41h-.52V90.72h.45l.05.8a1.87,1.87,0,0,1,1.58-.9C20.81,90.62,21.27,91.15,21.27,92.06Z"/><path class="cls-1" d="M26.27,88.8v6.63h-.45l-.06-.72a1.57,1.57,0,0,1-1.41.82c-1.1,0-1.76-.94-1.76-2.43s.69-2.48,1.85-2.48a1.64,1.64,0,0,1,1.32.64V88.74Zm-.52,5.42V91.76a1.46,1.46,0,0,0-1.23-.71c-.83,0-1.39.71-1.38,2s.5,2,1.29,2A1.45,1.45,0,0,0,25.74,94.22Z"/><path class="cls-1" d="M31.27,93.27H28.13c.06,1.28.66,1.81,1.47,1.81a2,2,0,0,0,1.27-.47l.24.33a2.32,2.32,0,0,1-1.54.58c-1.24,0-2-.9-2-2.41s.73-2.49,1.88-2.49,1.84.89,1.84,2.28C31.29,93,31.28,93.18,31.27,93.27Zm-.5-.54c0-1-.41-1.68-1.31-1.68-.74,0-1.29.54-1.34,1.82h2.65Z"/><path class="cls-1" d="M36.2,93c0,1.49-.62,2.48-1.79,2.48a1.66,1.66,0,0,1-1.34-.65V97.2l-.52.07V90.72H33l0,.68a1.77,1.77,0,0,1,1.45-.78C35.65,90.62,36.2,91.53,36.2,93Zm-.56,0c0-1.34-.43-2-1.25-2a1.61,1.61,0,0,0-1.32.81v2.5a1.45,1.45,0,0,0,1.24.72C35.17,95.08,35.64,94.4,35.64,93Z"/><path class="cls-1" d="M40.87,93.27H37.73c.06,1.28.66,1.81,1.47,1.81a2,2,0,0,0,1.27-.47l.24.33a2.32,2.32,0,0,1-1.54.58c-1.24,0-2-.9-2-2.41s.73-2.49,1.88-2.49,1.84.89,1.84,2.28C40.89,93,40.88,93.18,40.87,93.27Zm-.5-.54c0-1-.41-1.68-1.31-1.68-.74,0-1.29.54-1.34,1.82h2.65Z"/><path class="cls-1" d="M45.54,92.06v3.37H45V92.13c0-.77-.31-1.09-.89-1.09a1.77,1.77,0,0,0-1.46,1v3.41h-.52V90.72h.45l.05.8a1.87,1.87,0,0,1,1.58-.9C45.08,90.62,45.54,91.15,45.54,92.06Z"/><path class="cls-1" d="M50.54,88.8v6.63h-.45L50,94.71a1.57,1.57,0,0,1-1.41.82c-1.1,0-1.76-.94-1.76-2.43s.69-2.48,1.85-2.48a1.64,1.64,0,0,1,1.32.64V88.74ZM50,94.22V91.76a1.46,1.46,0,0,0-1.23-.71c-.83,0-1.39.71-1.38,2s.5,2,1.29,2A1.45,1.45,0,0,0,50,94.22Z"/><path class="cls-1" d="M55.54,93.27H52.4c.06,1.28.66,1.81,1.47,1.81a2,2,0,0,0,1.27-.47l.24.33a2.32,2.32,0,0,1-1.54.58c-1.24,0-2-.9-2-2.41s.73-2.49,1.88-2.49,1.84.89,1.84,2.28C55.56,93,55.55,93.18,55.54,93.27Zm-.5-.54c0-1-.41-1.68-1.31-1.68-.74,0-1.29.54-1.34,1.82H55Z"/><path class="cls-1" d="M60.21,92.06v3.37h-.52V92.13c0-.77-.31-1.09-.89-1.09a1.77,1.77,0,0,0-1.46,1v3.41h-.52V90.72h.45l.05.8a1.87,1.87,0,0,1,1.58-.9C59.75,90.62,60.21,91.15,60.21,92.06Z"/><path class="cls-1" d="M64.79,91.1l-.26.34a1.56,1.56,0,0,0-1-.37c-.86,0-1.46.67-1.46,2s.59,2,1.45,2a1.69,1.69,0,0,0,1.09-.4l.25.35a2,2,0,0,1-1.35.5c-1.21,0-2-.89-2-2.42s.78-2.49,2-2.49A1.88,1.88,0,0,1,64.79,91.1Z"/><path class="cls-1" d="M66.49,89a.39.39,0,1,1-.4-.38A.37.37,0,0,1,66.49,89Zm-.13,6.4h-.52V90.72h.52Z"/><path class="cls-1" d="M71.37,95.16l-.12.37a.82.82,0,0,1-.73-.79,1.62,1.62,0,0,1-1.47.79,1.34,1.34,0,0,1-1.46-1.4c0-1,.75-1.52,2-1.52h.9v-.46c0-.75-.31-1.08-1.09-1.08a3.84,3.84,0,0,0-1.28.27l-.13-.4a3.94,3.94,0,0,1,1.49-.32A1.34,1.34,0,0,1,71,92.11v2.27C71,94.9,71.12,95.06,71.37,95.16Zm-.92-.88V93h-.82c-.95,0-1.48.37-1.48,1.12a.91.91,0,0,0,1,1A1.42,1.42,0,0,0,70.45,94.27Z"/><path class="cls-1" d="M10.24,101.43a1.35,1.35,0,0,1-1.18,1.41,1.38,1.38,0,0,1,1.35,1.49,1.76,1.76,0,0,1-1.91,1.79,2.18,2.18,0,0,1-1.72-.77l.33-.3a1.73,1.73,0,0,0,1.37.63,1.27,1.27,0,0,0,1.39-1.34c0-.91-.54-1.26-1.35-1.26h-.4l.07-.42h.29a1.15,1.15,0,0,0,1.23-1.2,1,1,0,0,0-1.15-1.08,1.84,1.84,0,0,0-1.33.56L7,100.62a2.24,2.24,0,0,1,1.64-.68A1.49,1.49,0,0,1,10.24,101.43Z"/><path class="cls-1" d="M12.11,105.69a.42.42,0,0,1-.43.43.43.43,0,1,1,0-.85A.41.41,0,0,1,12.11,105.69Z"/><path class="cls-1" d="M18.74,100.31H16.21v2.3H18.4v.45H16.21v2.52h2.66V106h-3.2V99.86H18.8Z"/><path class="cls-1" d="M23.19,101.32v6.55l-.52-.07v-2.46a1.59,1.59,0,0,1-1.4.78c-1.1,0-1.76-.94-1.76-2.43s.69-2.48,1.85-2.48a1.66,1.66,0,0,1,1.35.67l0-.57Zm-.52,3.51v-2.48a1.45,1.45,0,0,0-1.22-.7c-.84,0-1.4.71-1.39,2s.5,2,1.3,2A1.43,1.43,0,0,0,22.67,104.83Z"/><path class="cls-1" d="M28.17,106h-.45l0-.84a1.71,1.71,0,0,1-1.54.94,1.26,1.26,0,0,1-1.33-1.44v-3.37h.52v3.31c0,.75.31,1.06.93,1.06a1.62,1.62,0,0,0,1.38-1v-3.41h.52Z"/><path class="cls-1" d="M30.5,99.63a.39.39,0,1,1-.4-.38A.37.37,0,0,1,30.5,99.63Zm-.13,6.4h-.52v-4.71h.52Z"/><path class="cls-1" d="M35.42,99.4V106H35l-.06-.72a1.57,1.57,0,0,1-1.41.82c-1.1,0-1.76-.94-1.76-2.43s.69-2.48,1.85-2.48a1.64,1.64,0,0,1,1.32.64V99.34Zm-.52,5.42v-2.46a1.46,1.46,0,0,0-1.23-.71c-.83,0-1.39.71-1.38,2s.5,2,1.29,2A1.45,1.45,0,0,0,34.9,104.82Z"/><path class="cls-1" d="M40.42,105.76l-.12.37a.82.82,0,0,1-.73-.79,1.62,1.62,0,0,1-1.47.79,1.34,1.34,0,0,1-1.46-1.4c0-1,.75-1.52,2-1.52h.9v-.46c0-.75-.31-1.08-1.09-1.08a3.84,3.84,0,0,0-1.28.27l-.13-.4a3.94,3.94,0,0,1,1.49-.32A1.34,1.34,0,0,1,40,102.71V105C40,105.5,40.17,105.66,40.42,105.76Zm-.92-.88v-1.3h-.82c-.95,0-1.48.37-1.48,1.12a.91.91,0,0,0,1,1A1.42,1.42,0,0,0,39.5,104.87Z"/><path class="cls-1" d="M45.06,99.4V106h-.45l-.06-.72a1.57,1.57,0,0,1-1.41.82c-1.1,0-1.76-.94-1.76-2.43s.69-2.48,1.85-2.48a1.64,1.64,0,0,1,1.32.64V99.34Zm-.52,5.42v-2.46a1.46,1.46,0,0,0-1.23-.71c-.83,0-1.39.71-1.38,2s.5,2,1.29,2A1.45,1.45,0,0,0,44.53,104.82Z"/><circle class="cls-1" cx="31.64" cy="31.68" r="25"/><path class="cls-2" d="M47.2,24.41v9.42s-2,.4-2.43.45a2.88,2.88,0,0,1-2.66-.43c-1.45-1.39-6.62-6.53-6.62-6.53a2,2,0,0,0-2.32-.12c-1.31.69-3.26,1.71-4.07,2.1a1.87,1.87,0,0,1-2.81-1.47,1.91,1.91,0,0,1,1.16-1.67C29.3,25,33.21,22.84,34.84,22c1-.53,1.7-.57,3.06.57,1.67,1.41,3.16,2.69,3.16,2.69a1.55,1.55,0,0,0,1.26.24c1.9-.4,4.88-1.07,4.88-1.07Zm-20.57,16a1.65,1.65,0,0,0-2-2.28,1.7,1.7,0,0,0-.36-1.68A1.74,1.74,0,0,0,22.64,36a1.7,1.7,0,0,0-.36-1.67,1.87,1.87,0,0,0-2.63.07c-.77.74-1.26,2.07-.57,2.86s1.47.31,2.07.17c-.17.59-.67,1.15-.05,1.93s1.47.31,2.07.17c-.17.59-.64,1.2-.05,1.92s1.57.34,2.22.14c-.25.64-.78,1.33-.1,2.1s2.26.42,3-.32a1.84,1.84,0,0,0,.17-2.6,1.75,1.75,0,0,0-1.81-.39Zm14.09-4.9-6-6a2,2,0,0,0-2.09-.38c-.84.37-1.91.86-2.72,1.25a4.49,4.49,0,0,1-1.83.61,3.1,3.1,0,0,1-1.64-5.74c1.24-.86,4.09-2.38,4.09-2.38a3.58,3.58,0,0,0-2.77-1.1c-1.9,0-5.88,2.61-5.88,2.61a3.11,3.11,0,0,1-2.74.07l-3.1-1.08V34.14s.89.26,1.68.58a3.54,3.54,0,0,1,.87-1.38,3.43,3.43,0,0,1,4.71,0,3,3,0,0,1,.74,1.32,3,3,0,0,1,1.27.78,3,3,0,0,1,.74,1.32A3,3,0,0,1,28.17,39a3.05,3.05,0,0,1,1.33.8,3.14,3.14,0,0,1,.82,2.72h0s.45.5.72.77A1.37,1.37,0,0,0,33,41.31s-1.92-2-1.77-2.16,2.57,2.37,2.62,2.41a1.37,1.37,0,0,0,1.93-1.93l-.18-.17s-2.4-2.14-2.22-2.32,3.17,2.6,3.17,2.6a1.35,1.35,0,0,0,1.95-1.87s-2.27-2.39-2.1-2.57,2.42,2.13,2.42,2.13a1.37,1.37,0,1,0,1.93-1.94Zm0,0"/></svg>
