<svg id="Capa_1" data-name="Capa 1" xmlns="http://www.w3.org/2000/svg" viewBox="0 0 150 130"><defs><style>.cls-1{font-size:11px;font-family:FiraSans-Medium, Fira Sans;letter-spacing:-0.02em;}.cls-1,.cls-9{fill:#5a4494;}.cls-2{letter-spacing:-0.03em;}.cls-3{letter-spacing:-0.04em;}.cls-4{letter-spacing:-0.04em;}.cls-5{font-size:9px;font-family:FiraSans-Light, Fira Sans;letter-spacing:-0.03em;}.cls-6{letter-spacing:-0.1em;}.cls-7{letter-spacing:-0.05em;}.cls-8{letter-spacing:-0.03em;}.cls-10{fill:#fff;}</style></defs><title>gobierno</title><text class="cls-1" transform="translate(6.6 72.46)">Gobierno <tspan class="cls-2" x="46.6" y="0">C</tspan><tspan x="52.46" y="0">orpo</tspan><tspan class="cls-3" x="75.1" y="0">r</tspan><tspan x="78.94" y="0">ati</tspan><tspan class="cls-4" x="91.34" y="0">v</tspan><tspan x="96.5" y="0">o</tspan><tspan class="cls-5"><tspan x="0" y="12.37">1. </tspan><tspan class="cls-6" x="7.42" y="12.37">T</tspan><tspan class="cls-7" x="10.93" y="12.37">r</tspan><tspan x="13.88" y="12.37">anspa</tspan><tspan class="cls-8" x="37.06" y="12.37">r</tspan><tspan x="40.1" y="12.37">encia</tspan><tspan x="0" y="22.97">2. In</tspan><tspan class="cls-8" x="15.35" y="22.97">d</tspan><tspan x="20.3" y="22.97">epen</tspan><tspan class="cls-8" x="39.57" y="22.97">d</tspan><tspan x="44.52" y="22.97">encia</tspan><tspan x="0" y="33.57">3. Equidad</tspan></tspan></text><circle class="cls-9" cx="31.64" cy="31.68" r="25"/><path class="cls-10" d="M47.2,24.41v9.42s-2,.4-2.43.45a2.88,2.88,0,0,1-2.66-.43c-1.45-1.39-6.62-6.53-6.62-6.53a2,2,0,0,0-2.32-.12c-1.31.69-3.26,1.71-4.07,2.1a1.87,1.87,0,0,1-2.81-1.47,1.91,1.91,0,0,1,1.16-1.67C29.3,25,33.21,22.84,34.84,22c1-.53,1.7-.57,3.06.57,1.67,1.41,3.16,2.69,3.16,2.69a1.55,1.55,0,0,0,1.26.24c1.9-.4,4.88-1.07,4.88-1.07Zm-20.57,16a1.65,1.65,0,0,0-2-2.28,1.7,1.7,0,0,0-.36-1.68A1.74,1.74,0,0,0,22.64,36a1.7,1.7,0,0,0-.36-1.67,1.87,1.87,0,0,0-2.63.07c-.77.74-1.26,2.07-.57,2.86s1.47.31,2.07.17c-.17.59-.67,1.15-.05,1.93s1.47.31,2.07.17c-.17.59-.64,1.2-.05,1.92s1.57.34,2.22.14c-.25.64-.78,1.33-.1,2.1s2.26.42,3-.32a1.84,1.84,0,0,0,.17-2.6,1.75,1.75,0,0,0-1.81-.39Zm14.09-4.9-6-6a2,2,0,0,0-2.09-.38c-.84.37-1.91.86-2.72,1.25a4.49,4.49,0,0,1-1.83.61,3.1,3.1,0,0,1-1.64-5.74c1.24-.86,4.09-2.38,4.09-2.38a3.58,3.58,0,0,0-2.77-1.1c-1.9,0-5.88,2.61-5.88,2.61a3.11,3.11,0,0,1-2.74.07l-3.1-1.08V34.14s.89.26,1.68.58a3.54,3.54,0,0,1,.87-1.38,3.43,3.43,0,0,1,4.71,0,3,3,0,0,1,.74,1.32,3,3,0,0,1,1.27.78,3,3,0,0,1,.74,1.32A3,3,0,0,1,28.17,39a3.05,3.05,0,0,1,1.33.8,3.14,3.14,0,0,1,.82,2.72h0s.45.5.72.77A1.37,1.37,0,0,0,33,41.31s-1.92-2-1.77-2.16,2.57,2.37,2.62,2.41a1.37,1.37,0,0,0,1.93-1.93l-.18-.17s-2.4-2.14-2.22-2.32,3.17,2.6,3.17,2.6a1.35,1.35,0,0,0,1.95-1.87s-2.27-2.39-2.1-2.57,2.42,2.13,2.42,2.13a1.37,1.37,0,1,0,1.93-1.94Zm0,0"/></svg>
