<svg xmlns="http://www.w3.org/2000/svg" viewBox="0 0 218.79 194.47"><defs><style>.cls-1{fill:#c49c5c;}.cls-2{font-size:9.15px;}.cls-2,.cls-3,.cls-4,.cls-5{fill:#fff;font-family:FiraSans-Light, Fira Sans;}.cls-3{font-size:9.15px;}.cls-4{font-size:9.15px;}.cls-5{font-size:9.15px;}</style></defs><title>innovacion-disruptiva</title><g id="Layer_2" data-name="Layer 2"><g id="Capa_1" data-name="Capa 1"><g id="inovacion-disruptiva"><path class="cls-1" d="M44.26,100.77a64.86,64.86,0,0,1,59.68-64.64l0-28.91A93.73,93.73,0,0,0,25.44,142.93l25-14.45A64.6,64.6,0,0,1,44.26,100.77Z"/><path class="cls-1" d="M109.13,165.64A64.79,64.79,0,0,1,55.53,137.3l-25,14.45a93.71,93.71,0,0,0,157.07.28l-25-14.47A64.79,64.79,0,0,1,109.13,165.64Z"/><path class="cls-1" d="M174,100.77a64.61,64.61,0,0,1-6.33,28l25,14.47a93.73,93.73,0,0,0-78.62-136l0,28.91A64.86,64.86,0,0,1,174,100.77Z"/><text class="cls-2" transform="matrix(-0.2, -0.98, 0.98, -0.2, 29.15, 119.79)">C</text><text class="cls-2" transform="translate(28.17 115.06) rotate(-98.24)">o</text><text class="cls-2" transform="translate(27.43 109.99) rotate(-94.64)">n</text><text class="cls-2" transform="translate(27.03 104.71) rotate(-91.93)"> </text><text class="cls-2" transform="translate(26.95 102.22) rotate(-90.22)">i</text><text class="cls-2" transform="translate(26.9 99.81) rotate(-87.54)">n</text><text class="cls-2" transform="matrix(0.11, -0.99, 0.99, 0.11, 27.12, 94.59)">n</text><text class="cls-2" transform="matrix(0.17, -0.99, 0.99, 0.17, 27.68, 89.36)">o</text><text class="cls-2" transform="translate(28.53 84.48) rotate(-77.07)">v</text><text class="cls-2" transform="translate(29.47 80.36) rotate(-73.89)">a</text><text class="cls-2" transform="translate(30.8 75.74) rotate(-70.73)">c</text><text class="cls-2" transform="translate(32.21 71.77) rotate(-68.42)">i</text><text class="cls-2" transform="matrix(0.41, -0.91, 0.91, 0.41, 33.07, 69.52)">ó</text><text class="cls-2" transform="translate(35.17 64.83) rotate(-62.18)">n</text><text class="cls-2" transform="translate(37.67 60.2) rotate(-60.32)"> </text><text class="cls-2" transform="translate(38.89 58.02) rotate(-56.86)">d</text><text class="cls-2" transform="matrix(0.58, -0.81, 0.81, 0.58, 41.8, 53.62)">i</text><text class="cls-2" transform="matrix(0.62, -0.79, 0.79, 0.62, 43.18, 51.67)">s</text><text class="cls-2" transform="translate(45.77 48.37) rotate(-49.29)">r</text><text class="cls-2" transform="matrix(0.69, -0.72, 0.72, 0.69, 47.91, 45.85)">u</text><text class="cls-2" transform="matrix(0.74, -0.68, 0.68, 0.74, 51.52, 42.06)">p</text><text class="cls-2" transform="matrix(0.77, -0.64, 0.64, 0.77, 55.39, 38.54)">t</text><text class="cls-2" transform="matrix(0.79, -0.61, 0.61, 0.79, 57.74, 36.59)">i</text><text class="cls-2" transform="translate(59.65 35.09) rotate(-35.46)">v</text><text class="cls-2" transform="matrix(0.85, -0.53, 0.53, 0.85, 63.05, 32.65)">a</text><text class="cls-2" transform="translate(67.16 30.08) rotate(-29.76)"> </text><text class="cls-2" transform="translate(69.3 28.82) rotate(-27.05)">p</text><text class="cls-2" transform="matrix(0.92, -0.4, 0.4, 0.92, 73.95, 26.45)">a</text><text class="cls-2" transform="translate(78.4 24.52) rotate(-20.72)">r</text><text class="cls-2" transform="matrix(0.95, -0.31, 0.31, 0.95, 81.32, 23.39)">a</text><text class="cls-3" transform="translate(64.51 163.15) rotate(33.75)">C</text><text class="cls-3" transform="matrix(0.87, 0.5, -0.5, 0.87, 68.85, 166.05)">o</text><text class="cls-3" transform="translate(73.64 168.78) rotate(25.59)">n</text><text class="cls-3" transform="translate(78.68 171.14) rotate(22.46)"> </text><text class="cls-3" transform="translate(81.24 172.24) rotate(19.32)">u</text><text class="cls-3" transform="translate(86.55 174.08) rotate(15.08)">n</text><text class="cls-3" transform="translate(91.93 175.49) rotate(11.95)"> </text><text class="cls-3" transform="translate(94.63 176.09) rotate(8.98)">e</text><text class="cls-3" transform="matrix(1, 0.09, -0.09, 1, 99.78, 176.89)">q</text><text class="cls-3" transform="matrix(1, 0.03, -0.03, 1, 105.39, 177.33)">u</text><text class="cls-3" transform="matrix(1, -0.04, 0.04, 1, 110.81, 177.41)">i</text><text class="cls-3" transform="translate(113.51 177.34) rotate(-5.19)">p</text><text class="cls-3" transform="translate(119.11 176.82) rotate(-9.36)">o</text><text class="cls-3" transform="translate(124.45 175.89) rotate(-12.44)"> </text><text class="cls-3" transform="translate(127.14 175.32) rotate(-15.16)">c</text><text class="cls-3" transform="translate(131.53 174.13) rotate(-18.82)">a</text><text class="cls-3" transform="translate(136.46 172.45) rotate(-22.89)">p</text><text class="cls-3" transform="matrix(0.89, -0.45, 0.45, 0.89, 141.62, 170.25)">a</text><text class="cls-3" transform="matrix(0.86, -0.51, 0.51, 0.86, 146.21, 167.89)">z</text><text class="cls-3" transform="translate(149.66 165.84) rotate(-32.68)">,</text><text class="cls-4" transform="matrix(0.61, 0.79, -0.79, 0.61, 39.03, 152.55)">c</text><text class="cls-4" transform="translate(41.48 155.73) rotate(49.2)">o</text><text class="cls-4" transform="translate(44.78 159.64) rotate(45.02)">m</text><text class="cls-4" transform="matrix(0.76, 0.65, -0.65, 0.76, 50.24, 165.04)">p</text><text class="cls-4" transform="translate(54.11 168.37) rotate(38.09)">r</text><text class="cls-4" transform="translate(56.53 170.29) rotate(35.47)">o</text><text class="cls-4" transform="matrix(0.85, 0.52, -0.52, 0.85, 60.69, 173.32)">m</text><text class="cls-4" transform="translate(67.28 177.26) rotate(27.14)">e</text><text class="cls-4" transform="matrix(0.91, 0.42, -0.42, 0.91, 71.45, 179.39)">t</text><text class="cls-4" transform="translate(74.03 180.57) rotate(22.98)">i</text><text class="cls-4" transform="translate(76.06 181.47) rotate(20.56)">d</text><text class="cls-4" transform="translate(80.84 183.27) rotate(17.22)">o</text><text class="cls-4" transform="translate(85.6 184.72) rotate(14.8)"> </text><text class="cls-4" transform="translate(87.81 185.33) rotate(12.71)">c</text><text class="cls-4" transform="translate(91.71 186.22) rotate(9.76)">o</text><text class="cls-4" transform="matrix(0.99, 0.11, -0.11, 0.99, 96.7, 187.09)">n</text><text class="cls-4" transform="translate(101.77 187.63) rotate(3.97)"> </text><text class="cls-4" transform="translate(104.02 187.8) rotate(2.32)">t</text><text class="cls-4" transform="translate(106.93 187.97) rotate(-0.76)">u</text><text class="cls-4" transform="matrix(1, -0.05, 0.05, 1, 111.95, 187.9)"> </text><text class="cls-4" transform="translate(114.23 187.82) rotate(-4.66)">s</text><text class="cls-4" transform="translate(118.26 187.5) rotate(-7.53)">a</text><text class="cls-4" transform="matrix(0.99, -0.17, 0.17, 0.99, 122.86, 186.87)">l</text><text class="cls-4" transform="translate(125.22 186.5) rotate(-12.3)">u</text><text class="cls-4" transform="translate(130.23 185.41) rotate(-15.71)">d</text><text class="cls-4" transform="translate(135.15 184) rotate(-18.18)"> </text><text class="cls-4" transform="translate(137.32 183.31) rotate(-20.25)">y</text><text class="cls-4" transform="translate(141.09 181.91) rotate(-22.34)"> </text><text class="cls-4" transform="matrix(0.91, -0.41, 0.41, 0.91, 143.23, 181.05)">c</text><text class="cls-4" transform="matrix(0.89, -0.45, 0.45, 0.89, 146.91, 179.38)">r</text><text class="cls-4" transform="translate(149.68 178) rotate(-29.36)">e</text><text class="cls-4" transform="translate(153.8 175.68) rotate(-32.26)">c</text><text class="cls-4" transform="matrix(0.83, -0.56, 0.56, 0.83, 157.19, 173.52)">i</text><text class="cls-4" transform="translate(159.12 172.31) rotate(-37.55)">m</text><text class="cls-4" transform="matrix(0.76, -0.65, 0.65, 0.76, 165.13, 167.59)">i</text><text class="cls-4" transform="translate(166.82 166.18) rotate(-43.04)">e</text><text class="cls-4" transform="translate(170.31 162.94) rotate(-46.29)">n</text><text class="cls-4" transform="matrix(0.66, -0.75, 0.75, 0.66, 173.84, 159.21)">t</text><text class="cls-4" transform="matrix(0.62, -0.78, 0.78, 0.62, 175.68, 157.15)">o</text><text class="cls-4" transform="translate(178.7 153.32) rotate(-53.51)">.</text><text class="cls-3" transform="translate(42.61 126.65) rotate(-109.51)">c</text><text class="cls-3" transform="translate(41.19 122.72) rotate(-105.77)">u</text><text class="cls-3" transform="matrix(-0.22, -0.98, 0.98, -0.22, 39.81, 117.69)">i</text><text class="cls-3" transform="matrix(-0.17, -0.99, 0.99, -0.17, 39.24, 115.37)">d</text><text class="cls-3" transform="translate(38.36 110.19) rotate(-95.66)">a</text><text class="cls-3" transform="matrix(-0.04, -1, 1, -0.04, 37.9, 105.41)">r</text><text class="cls-3" transform="translate(37.76 101.99) rotate(-89.78)">t</text><text class="cls-3" transform="translate(37.75 99.03) rotate(-86.68)">e</text><text class="cls-3" transform="translate(38.05 94.2) rotate(-83.73)"> </text><text class="cls-3" transform="matrix(0.16, -0.99, 0.99, 0.16, 38.3, 91.74)">y</text><text class="cls-3" transform="matrix(0.2, -0.98, 0.98, 0.2, 38.98, 87.6)"> </text><text class="cls-3" transform="matrix(0.24, -0.97, 0.97, 0.24, 39.48, 85.15)">f</text><text class="cls-3" transform="translate(40.14 82.35) rotate(-73.04)">a</text><text class="cls-3" transform="translate(41.54 77.76) rotate(-69.41)">c</text><text class="cls-3" transform="translate(43.05 73.81) rotate(-66.75)">i</text><text class="cls-3" transform="translate(44 71.59) rotate(-64.76)">l</text><text class="cls-3" transform="translate(45.08 69.29) rotate(-62.79)">i</text><text class="cls-3" transform="translate(46.17 67.16) rotate(-60.66)">t</text><text class="cls-3" transform="translate(47.64 64.49) rotate(-57.53)">a</text><text class="cls-3" transform="matrix(0.58, -0.81, 0.81, 0.58, 50.24, 60.44)">r</text><text class="cls-3" transform="matrix(0.62, -0.78, 0.78, 0.62, 52.26, 57.65)">t</text><text class="cls-3" transform="translate(54.05 55.33) rotate(-48.57)">e</text><text class="cls-3" transform="translate(57.27 51.72) rotate(-45.62)"> </text><text class="cls-3" transform="translate(58.98 49.93) rotate(-42.65)">e</text><text class="cls-3" transform="translate(62.57 46.66) rotate(-39.67)">l</text><text class="cls-3" transform="matrix(0.79, -0.61, 0.61, 0.79, 64.52, 45.05)"> </text><text class="cls-3" transform="translate(66.46 43.5) rotate(-34.5)">d</text><text class="cls-3" transform="matrix(0.85, -0.52, 0.52, 0.85, 70.8, 40.56)">í</text><text class="cls-3" transform="matrix(0.88, -0.48, 0.48, 0.88, 72.83, 39.28)">a</text><text class="cls-3" transform="translate(77.08 37) rotate(-25.6)"> </text><text class="cls-3" transform="matrix(0.92, -0.39, 0.39, 0.92, 79.3, 35.9)">a</text><text class="cls-3" transform="translate(83.78 34.06) rotate(-19.75)"> </text><text class="cls-3" transform="matrix(0.96, -0.29, 0.29, 0.96, 86.08, 33.19)">d</text><text class="cls-3" transform="translate(91.13 31.72) rotate(-13.62)">í</text><text class="cls-3" transform="translate(93.45 31.12) rotate(-10.74)">a</text><text class="cls-3" transform="translate(98.23 30.25) rotate(-8.06)">.</text><text class="cls-3" transform="translate(129.26 21.08) rotate(15.94)">C</text><text class="cls-3" transform="translate(133.91 22.4) rotate(19.35)">o</text><text class="cls-3" transform="translate(138.75 24.09) rotate(22.95)">n</text><text class="cls-3" transform="translate(143.6 26.18) rotate(25.65)"> </text><text class="cls-3" transform="translate(145.86 27.22) rotate(28.34)">p</text><text class="cls-3" transform="matrix(0.85, 0.52, -0.52, 0.85, 150.45, 29.72)">r</text><text class="cls-3" transform="matrix(0.83, 0.56, -0.56, 0.83, 153.22, 31.38)">o</text><text class="cls-3" transform="translate(157.48 34.27) rotate(37.87)">d</text><text class="cls-3" transform="translate(161.61 37.48) rotate(41.53)">u</text><text class="cls-3" transform="matrix(0.71, 0.71, -0.71, 0.71, 165.51, 40.94)">c</text><text class="cls-3" transform="translate(168.5 43.94) rotate(47.4)">t</text><text class="cls-3" transform="translate(170.52 46.09) rotate(50.2)">o</text><text class="cls-3" transform="translate(173.8 50.04) rotate(53.44)">s</text><text class="cls-3" transform="matrix(0.56, 0.83, -0.83, 0.56, 176.28, 53.42)"> </text><text class="cls-3" transform="matrix(0.54, 0.84, -0.84, 0.54, 177.69, 55.48)">f</text><text class="cls-3" transform="translate(179.24 57.93) rotate(59.58)">r</text><text class="cls-3" transform="translate(180.88 60.7) rotate(62.5)">e</text><text class="cls-3" transform="translate(183.12 65.01) rotate(65.63)">s</text><text class="cls-3" transform="translate(184.85 68.81) rotate(68.54)">c</text><text class="cls-3" transform="translate(186.36 72.62) rotate(71.74)">o</text><text class="cls-3" transform="matrix(0.26, 0.97, -0.97, 0.26, 187.96, 77.5)">s</text><text class="cls-3" transform="translate(189.03 81.55) rotate(77.12)">,</text><text class="cls-3" transform="matrix(0.2, 0.98, -0.98, 0.2, 189.44, 83.36)"> </text><text class="cls-3" transform="translate(189.96 85.77) rotate(81.37)">n</text><text class="cls-3" transform="translate(190.75 90.97) rotate(84.9)">a</text><text class="cls-3" transform="translate(191.16 95.77) rotate(87.65)">t</text><text class="cls-3" transform="translate(191.31 98.81) rotate(90.54)">u</text><text class="cls-3" transform="matrix(-0.06, 1, -1, -0.06, 191.24, 104.03)">r</text><text class="cls-3" transform="translate(191.07 107.17) rotate(96.23)">a</text><text class="cls-3" transform="translate(190.52 111.99) rotate(98.8)">l</text><text class="cls-3" transform="translate(190.18 114.41) rotate(101.3)">e</text><text class="cls-3" transform="translate(189.22 119.16) rotate(104.42)">s</text><text class="cls-5" transform="translate(135.55 34.48) rotate(23.38)">y</text><text class="cls-5" transform="translate(139.42 36.17) rotate(26.07)"> </text><text class="cls-5" transform="matrix(0.87, 0.49, -0.49, 0.87, 141.65, 37.22)">d</text><text class="cls-5" transform="translate(146.15 39.73) rotate(33.14)">e</text><text class="cls-5" transform="translate(150.19 42.39) rotate(36.09)"> </text><text class="cls-5" transform="matrix(0.79, 0.62, -0.62, 0.79, 152.21, 43.87)">l</text><text class="cls-5" transform="translate(154.22 45.4) rotate(41.1)">a</text><text class="cls-5" transform="matrix(0.72, 0.7, -0.7, 0.72, 157.83, 48.59)"> </text><text class="cls-5" transform="translate(159.66 50.23) rotate(48.16)">m</text><text class="cls-5" transform="translate(164.73 55.97) rotate(53.15)">á</text><text class="cls-5" transform="translate(167.6 59.82) rotate(56.73)">s</text><text class="cls-5" transform="matrix(0.51, 0.86, -0.86, 0.51, 169.89, 63.34)"> </text><text class="cls-5" transform="translate(171.18 65.45) rotate(62.26)">a</text><text class="cls-5" transform="translate(173.39 69.71) rotate(65.16)">l</text><text class="cls-5" transform="matrix(0.38, 0.92, -0.92, 0.38, 174.47, 72.03)">t</text><text class="cls-5" transform="translate(175.66 74.82) rotate(70.57)">a</text><text class="cls-5" transform="translate(177.23 79.37) rotate(73.51)"> </text><text class="cls-5" transform="translate(177.96 81.75) rotate(76.23)">c</text><text class="cls-5" transform="translate(178.97 85.82) rotate(79.86)">a</text><text class="cls-5" transform="translate(179.79 90.58) rotate(82.84)">l</text><text class="cls-5" transform="translate(180.11 93.09) rotate(84.83)">i</text><text class="cls-5" transform="translate(180.37 95.47) rotate(87.93)">d</text><text class="cls-5" transform="translate(180.55 100.7) rotate(91.95)">a</text><text class="cls-5" transform="translate(180.4 105.5) rotate(95.98)">d</text><text class="cls-5" transform="translate(179.81 110.73) rotate(98.81)">.</text></g></g></g></svg>
