<svg id="Capa_1" data-name="Capa 1" xmlns="http://www.w3.org/2000/svg" viewBox="0 0 150 150"><defs><style>.cls-1{fill:#59b169;}.cls-2{fill:#fff;}</style></defs><title>planeta</title><path class="cls-1" d="M13.63,76.81c0,1.75-1.27,2.53-3,2.53H9.75V82H8.3v-7.6h2.24C12.46,74.39,13.63,75.17,13.63,76.81Zm-1.52,0c0-1-.58-1.35-1.57-1.35H9.75v2.79h.78C11.5,78.25,12.11,77.92,12.11,76.81Z"/><path class="cls-1" d="M14.32,80.66V73.84l1.41-.15v6.93c0,.27.1.41.33.41a1,1,0,0,0,.33-.05l.3,1a2.3,2.3,0,0,1-.94.2A1.34,1.34,0,0,1,14.32,80.66Z"/><path class="cls-1" d="M22,81.2l-.3.94a1.35,1.35,0,0,1-1.29-.85,2,2,0,0,1-1.74.87,1.73,1.73,0,0,1-1.88-1.79c0-1.27,1-1.95,2.65-1.95h.73v-.33c0-.76-.34-1-1.09-1a5.2,5.2,0,0,0-1.54.31l-.33-1A6,6,0,0,1,19.36,76c1.55,0,2.23.72,2.23,2v2.44C21.59,80.92,21.75,81.09,22,81.2Zm-1.83-.78V79.24h-.58c-.91,0-1.36.33-1.36,1a.77.77,0,0,0,.83.88A1.25,1.25,0,0,0,20.21,80.41Z"/><path class="cls-1" d="M27.77,77.77V82H26.36V78c0-.73-.27-.94-.71-.94s-.88.34-1.22.88v4H23V76.17h1.22l.11.76A2.17,2.17,0,0,1,26.12,76,1.57,1.57,0,0,1,27.77,77.77Z"/><path class="cls-1" d="M33.88,79.51H30.23c.1,1.19.66,1.57,1.43,1.57a2.42,2.42,0,0,0,1.45-.52l.58.8a3.35,3.35,0,0,1-2.16.78c-1.8,0-2.77-1.2-2.77-3S29.7,76,31.35,76s2.56,1.1,2.56,2.94C33.91,79.13,33.89,79.36,33.88,79.51Zm-1.36-1c0-1-.34-1.53-1.13-1.53s-1.08.44-1.15,1.6h2.29Z"/><path class="cls-1" d="M38.23,81.71a2.55,2.55,0,0,1-1.46.44c-1.14,0-1.75-.66-1.75-1.9V77.18h-.91v-1H35V74.88l1.41-.17v1.45h1.35l-.14,1H36.43v3c0,.57.19.8.62.8a1.39,1.39,0,0,0,.69-.21Z"/><path class="cls-1" d="M43.38,81.2l-.3.94a1.35,1.35,0,0,1-1.29-.85,2,2,0,0,1-1.74.87,1.73,1.73,0,0,1-1.88-1.79c0-1.27,1-1.95,2.65-1.95h.73v-.33c0-.76-.34-1-1.09-1a5.2,5.2,0,0,0-1.54.31l-.33-1A6,6,0,0,1,40.71,76c1.55,0,2.23.72,2.23,2v2.44C42.94,80.92,43.1,81.09,43.38,81.2Zm-1.83-.78V79.24H41c-.91,0-1.36.33-1.36,1a.77.77,0,0,0,.82.88A1.25,1.25,0,0,0,41.56,80.41Z"/><path class="cls-1" d="M10,97H9.52V91.59L8,92.51l-.24-.39L9.59,91H10Z"/><path class="cls-1" d="M12.26,96.67a.42.42,0,0,1-.43.43.43.43,0,1,1,0-.86A.41.41,0,0,1,12.26,96.67Z"/><path class="cls-1" d="M18.65,95.32H16.06L15.52,97H15L17,90.83h.68L19.76,97h-.57Zm-.14-.46-1.14-3.58-1.15,3.58Z"/><path class="cls-1" d="M24.14,92.39a5.38,5.38,0,0,1-1.31.14,1.3,1.3,0,0,1,.8,1.28,1.52,1.52,0,0,1-1.7,1.55,1.86,1.86,0,0,1-.61-.09.63.63,0,0,0-.36.54c0,.28.18.49.75.49h.77c.94,0,1.51.5,1.51,1.21s-.67,1.35-2,1.35-2-.41-2-1.35h.49c0,.66.35.92,1.48.92s1.51-.33,1.51-.89-.4-.78-1.06-.78h-.77c-.78,0-1.16-.38-1.16-.83a1,1,0,0,1,.51-.8,1.35,1.35,0,0,1-.79-1.32,1.58,1.58,0,0,1,1.73-1.59A4.23,4.23,0,0,0,24,91.89Zm-3.41,1.4A1.1,1.1,0,0,0,21.92,95a1.19,1.19,0,1,0,0-2.38A1.09,1.09,0,0,0,20.73,93.78Z"/><path class="cls-1" d="M28.16,97h-.45l0-.84a1.71,1.71,0,0,1-1.54.94,1.26,1.26,0,0,1-1.33-1.44V92.29h.52V95.6c0,.75.31,1.06.93,1.06a1.62,1.62,0,0,0,1.38-1V92.29h.52Z"/><path class="cls-1" d="M33.16,96.73,33,97.1a.82.82,0,0,1-.73-.79,1.62,1.62,0,0,1-1.47.79,1.34,1.34,0,0,1-1.46-1.4c0-1,.75-1.52,2-1.52h.9v-.46c0-.75-.31-1.08-1.09-1.08a3.84,3.84,0,0,0-1.28.27l-.13-.4a3.94,3.94,0,0,1,1.49-.32,1.34,1.34,0,0,1,1.54,1.49V96C32.77,96.48,32.91,96.63,33.16,96.73Zm-.92-.88v-1.3h-.82c-.95,0-1.48.37-1.48,1.12a.91.91,0,0,0,1,1A1.42,1.42,0,0,0,32.24,95.85Z"/><path class="cls-1" d="M11.08,105.35c0,1.19-.67,1.94-2.67,4.05h2.84l-.07.46H7.8v-.44c2.22-2.37,2.75-3,2.75-4a1.08,1.08,0,0,0-1.13-1.16,1.64,1.64,0,0,0-1.34.68l-.36-.27a2.1,2.1,0,0,1,1.73-.86A1.53,1.53,0,0,1,11.08,105.35Z"/><path class="cls-1" d="M12.86,109.53a.42.42,0,0,1-.43.43.43.43,0,1,1,0-.86A.41.41,0,0,1,12.86,109.53Z"/><path class="cls-1" d="M20.09,104.17l-.29.36a1.86,1.86,0,0,0-1.26-.47c-1.07,0-2,.76-2,2.72s.86,2.71,1.94,2.71a2,2,0,0,0,1.37-.51l.28.35a2.32,2.32,0,0,1-1.67.64c-1.42,0-2.48-1.11-2.48-3.19s1.13-3.18,2.49-3.18A2.24,2.24,0,0,1,20.09,104.17Z"/><path class="cls-1" d="M24.33,109.59l-.12.37a.82.82,0,0,1-.73-.79A1.62,1.62,0,0,1,22,110a1.34,1.34,0,0,1-1.46-1.4c0-1,.75-1.52,2-1.52h.9v-.46c0-.75-.31-1.08-1.09-1.08a3.84,3.84,0,0,0-1.28.27l-.13-.4a3.94,3.94,0,0,1,1.49-.32,1.34,1.34,0,0,1,1.54,1.49v2.27C23.94,109.34,24.08,109.5,24.33,109.59Zm-.92-.88v-1.3h-.82c-.95,0-1.48.37-1.48,1.12a.91.91,0,0,0,1,1A1.42,1.42,0,0,0,23.41,108.71Z"/><path class="cls-1" d="M31.42,106.5v3.37H30.9v-3.29c0-.77-.32-1.09-.8-1.09s-1,.4-1.32,1v3.41h-.52v-3.29c0-.77-.31-1.09-.8-1.09a1.62,1.62,0,0,0-1.32,1v3.41h-.52v-4.71h.45l0,.8a1.75,1.75,0,0,1,1.45-.9,1.15,1.15,0,0,1,1.17.94,1.77,1.77,0,0,1,1.48-.94C31,105.06,31.42,105.61,31.42,106.5Z"/><path class="cls-1" d="M36.72,107.49c0,1.51-.66,2.48-1.79,2.48a1.66,1.66,0,0,1-1.35-.69l-.05.59h-.46v-6.63l.52-.06v2.64a1.71,1.71,0,0,1,1.41-.76C36.08,105.06,36.72,105.92,36.72,107.49Zm-.56,0c0-1.39-.47-2-1.27-2a1.56,1.56,0,0,0-1.31.81v2.48a1.48,1.48,0,0,0,1.24.76C35.66,109.53,36.16,108.86,36.16,107.49Z"/><path class="cls-1" d="M38.71,103.46a.39.39,0,1,1-.4-.38A.37.37,0,0,1,38.71,103.46Zm-.13,6.4h-.52v-4.71h.52Z"/><path class="cls-1" d="M43.88,107.5c0,1.52-.76,2.47-2,2.47s-2-.94-2-2.45.77-2.46,2-2.46S43.88,106,43.88,107.5Zm-3.43,0c0,1.32.53,2,1.43,2s1.45-.67,1.45-2-.53-2-1.44-2S40.45,106.16,40.45,107.52Z"/><path class="cls-1" d="M50.41,105.53l-.26.34a1.56,1.56,0,0,0-1-.37c-.86,0-1.46.67-1.46,2s.59,2,1.45,2a1.68,1.68,0,0,0,1.09-.4l.25.35a2,2,0,0,1-1.35.5c-1.21,0-2-.89-2-2.42s.78-2.48,2-2.48A1.88,1.88,0,0,1,50.41,105.53Z"/><path class="cls-1" d="M51.42,109.07v-5.83l.52-.06v5.88c0,.31.12.46.38.46a.77.77,0,0,0,.32-.06l.14.39a1.26,1.26,0,0,1-.54.13A.78.78,0,0,1,51.42,109.07Z"/><path class="cls-1" d="M54.44,103.46a.39.39,0,1,1-.4-.38A.37.37,0,0,1,54.44,103.46Zm-.13,6.4H53.8v-4.71h.52Z"/><path class="cls-1" d="M61.82,106.5v3.37H61.3v-3.29c0-.77-.32-1.09-.8-1.09s-1,.4-1.32,1v3.41h-.52v-3.29c0-.77-.31-1.09-.8-1.09a1.62,1.62,0,0,0-1.32,1v3.41H56v-4.71h.45l0,.8a1.75,1.75,0,0,1,1.45-.9,1.15,1.15,0,0,1,1.17.94,1.77,1.77,0,0,1,1.48-.94C61.35,105.06,61.82,105.61,61.82,106.5Z"/><path class="cls-1" d="M66.78,109.59l-.12.37a.82.82,0,0,1-.73-.79,1.62,1.62,0,0,1-1.47.79,1.34,1.34,0,0,1-1.46-1.4c0-1,.75-1.52,2-1.52h.9v-.46c0-.75-.31-1.08-1.09-1.08a3.84,3.84,0,0,0-1.28.27l-.13-.4a3.94,3.94,0,0,1,1.49-.32,1.34,1.34,0,0,1,1.54,1.49v2.27C66.38,109.34,66.52,109.5,66.78,109.59Zm-.92-.88v-1.3H65c-.95,0-1.48.37-1.48,1.12a.91.91,0,0,0,1,1A1.42,1.42,0,0,0,65.86,108.71Z"/><path class="cls-1" d="M70.19,109.67a1.76,1.76,0,0,1-1,.3,1.09,1.09,0,0,1-1.15-1.24v-3.14h-.79v-.42h.79V104l.52-.06v1.19h1.22l-.06.42H68.57v3.11c0,.55.22.82.69.82a1.39,1.39,0,0,0,.72-.21Z"/><path class="cls-1" d="M71.54,103.46a.39.39,0,1,1-.4-.38A.37.37,0,0,1,71.54,103.46Zm-.13,6.4H70.9v-4.71h.52Z"/><path class="cls-1" d="M76,105.53l-.26.34a1.56,1.56,0,0,0-1-.37c-.86,0-1.46.67-1.46,2s.59,2,1.45,2a1.69,1.69,0,0,0,1.09-.4l.25.35a2,2,0,0,1-1.35.5c-1.21,0-2-.89-2-2.42s.78-2.48,2-2.48A1.88,1.88,0,0,1,76,105.53Z"/><path class="cls-1" d="M80.55,107.5c0,1.52-.76,2.47-2,2.47s-2-.94-2-2.45.77-2.46,2-2.46S80.55,106,80.55,107.5Zm-3.43,0c0,1.32.53,2,1.43,2s1.45-.67,1.45-2-.53-2-1.44-2S77.12,106.16,77.12,107.52Z"/><path class="cls-1" d="M11,118.14a1.35,1.35,0,0,1-1.18,1.4A1.38,1.38,0,0,1,11.22,121a1.76,1.76,0,0,1-1.91,1.79,2.18,2.18,0,0,1-1.72-.77l.33-.3a1.73,1.73,0,0,0,1.37.63A1.27,1.27,0,0,0,10.68,121c0-.91-.54-1.26-1.35-1.26h-.4l.07-.42h.29a1.15,1.15,0,0,0,1.23-1.2,1,1,0,0,0-1.15-1.08,1.84,1.84,0,0,0-1.33.56l-.28-.32a2.24,2.24,0,0,1,1.64-.68A1.49,1.49,0,0,1,11,118.14Z"/><path class="cls-1" d="M12.92,122.4a.42.42,0,0,1-.43.43.43.43,0,1,1,0-.86A.41.41,0,0,1,12.92,122.4Z"/><path class="cls-1" d="M19.55,117H17v2.3h2.19v.45H17v2.52h2.66v.45h-3.2v-6.17h3.13Z"/><path class="cls-1" d="M26.55,119.36v3.37H26v-3.29c0-.77-.32-1.09-.8-1.09s-1,.4-1.32,1v3.41h-.52v-3.29c0-.77-.31-1.09-.8-1.09a1.62,1.62,0,0,0-1.32,1v3.41h-.52V118h.45l0,.8a1.75,1.75,0,0,1,1.45-.9,1.15,1.15,0,0,1,1.17.94,1.77,1.77,0,0,1,1.48-.94C26.08,117.92,26.55,118.47,26.55,119.36Z"/><path class="cls-1" d="M31.84,120.35c0,1.49-.62,2.48-1.79,2.48a1.66,1.66,0,0,1-1.34-.65v2.32l-.52.07V118h.45l0,.68a1.77,1.77,0,0,1,1.45-.78C31.29,117.92,31.84,118.83,31.84,120.35Zm-.56,0c0-1.34-.43-2-1.25-2a1.62,1.62,0,0,0-1.32.81v2.5a1.45,1.45,0,0,0,1.24.72C30.81,122.39,31.28,121.7,31.28,120.35Z"/><path class="cls-1" d="M36.42,122.46l-.12.37a.82.82,0,0,1-.73-.79,1.62,1.62,0,0,1-1.47.79,1.34,1.34,0,0,1-1.46-1.4c0-1,.75-1.52,2-1.52h.9v-.46c0-.75-.31-1.08-1.09-1.08a3.84,3.84,0,0,0-1.28.27l-.13-.4a3.94,3.94,0,0,1,1.49-.32A1.34,1.34,0,0,1,36,119.42v2.27C36,122.21,36.17,122.36,36.42,122.46Zm-.92-.88v-1.3h-.82c-.95,0-1.48.37-1.48,1.12a.91.91,0,0,0,1,1A1.42,1.42,0,0,0,35.5,121.58Z"/><path class="cls-1" d="M41.05,118v6.55l-.52-.07V122a1.59,1.59,0,0,1-1.4.78c-1.1,0-1.76-.94-1.76-2.43s.69-2.48,1.85-2.48a1.66,1.66,0,0,1,1.35.67l0-.57Zm-.52,3.51v-2.48a1.45,1.45,0,0,0-1.22-.7c-.84,0-1.4.71-1.39,2s.5,2,1.3,2A1.43,1.43,0,0,0,40.53,121.53Z"/><path class="cls-1" d="M46,122.73h-.45l0-.84a1.71,1.71,0,0,1-1.54.94,1.26,1.26,0,0,1-1.33-1.44V118h.52v3.31c0,.75.31,1.06.93,1.06a1.62,1.62,0,0,0,1.38-1V118H46Z"/><path class="cls-1" d="M51,120.58H47.9c.06,1.28.66,1.81,1.47,1.81a2,2,0,0,0,1.27-.47l.24.33a2.33,2.33,0,0,1-1.54.58c-1.24,0-2-.9-2-2.41s.73-2.49,1.88-2.49,1.84.89,1.84,2.28C51.06,120.35,51.05,120.49,51,120.58Zm-.5-.54c0-1-.41-1.68-1.31-1.68-.74,0-1.29.54-1.34,1.82h2.65Z"/><path class="cls-1" d="M11.76,134h-.81v1.58h-.51V134H7.82v-.39l1.83-4.12.44.18-1.71,3.9h2.06l.06-1.76h.45v1.76h.81Z"/><path class="cls-1" d="M13.21,135.26a.42.42,0,0,1-.43.43.43.43,0,1,1,0-.86A.41.41,0,0,1,13.21,135.26Z"/><path class="cls-1" d="M19.95,130l-.31.34a2,2,0,0,0-1.44-.57c-.76,0-1.28.4-1.28,1s.33.92,1.44,1.25,1.78.74,1.78,1.83a1.82,1.82,0,0,1-2,1.78,2.73,2.73,0,0,1-2-.77l.31-.34a2.36,2.36,0,0,0,1.66.66,1.33,1.33,0,0,0,1.5-1.31c0-.75-.37-1.05-1.47-1.4s-1.76-.8-1.76-1.69a1.61,1.61,0,0,1,1.81-1.51A2.42,2.42,0,0,1,19.95,130Z"/><path class="cls-1" d="M24.67,133.45H21.53c.06,1.28.66,1.81,1.47,1.81a2,2,0,0,0,1.27-.47l.24.33a2.33,2.33,0,0,1-1.54.58c-1.24,0-2-.9-2-2.41s.73-2.49,1.88-2.49,1.84.89,1.84,2.28C24.69,133.21,24.68,133.36,24.67,133.45Zm-.5-.54c0-1-.41-1.68-1.31-1.68-.74,0-1.29.54-1.34,1.82h2.65Z"/><path class="cls-1" d="M29.45,131a5.38,5.38,0,0,1-1.31.14,1.3,1.3,0,0,1,.8,1.28,1.52,1.52,0,0,1-1.7,1.55,1.86,1.86,0,0,1-.61-.09.63.63,0,0,0-.36.54c0,.28.18.49.75.49h.77c.94,0,1.51.5,1.51,1.21s-.67,1.35-2,1.35-2-.41-2-1.35h.49c0,.66.35.92,1.48.92s1.51-.33,1.51-.89-.4-.78-1.06-.78h-.77c-.78,0-1.16-.38-1.16-.83a1,1,0,0,1,.51-.8,1.35,1.35,0,0,1-.79-1.32,1.58,1.58,0,0,1,1.73-1.59,4.23,4.23,0,0,0,2.06-.31ZM26,132.38a1.1,1.1,0,0,0,1.19,1.19,1.19,1.19,0,0,0,0-2.38A1.09,1.09,0,0,0,26,132.38Z"/><path class="cls-1" d="M33.47,135.6H33l0-.84a1.71,1.71,0,0,1-1.54.94,1.26,1.26,0,0,1-1.33-1.44v-3.37h.52v3.31c0,.75.31,1.06.93,1.06a1.62,1.62,0,0,0,1.38-1v-3.41h.52Z"/><path class="cls-1" d="M37.44,130.84l-.1.5a1.48,1.48,0,0,0-.41-.05c-.66,0-1,.47-1.26,1.43v2.88h-.52v-4.71h.45l0,1.05c.25-.77.68-1.15,1.33-1.15A1.76,1.76,0,0,1,37.44,130.84Z"/><path class="cls-1" d="M38.93,129.2a.39.39,0,1,1-.4-.38A.37.37,0,0,1,38.93,129.2Zm-.13,6.4h-.52v-4.71h.52Z"/><path class="cls-1" d="M43.84,129v6.63h-.45l-.06-.72a1.57,1.57,0,0,1-1.41.82c-1.1,0-1.76-.94-1.76-2.43s.69-2.48,1.85-2.48a1.64,1.64,0,0,1,1.32.64v-2.52Zm-.52,5.42v-2.46a1.47,1.47,0,0,0-1.23-.71c-.83,0-1.39.71-1.38,2s.5,2,1.29,2A1.45,1.45,0,0,0,43.32,134.39Z"/><path class="cls-1" d="M48.85,135.33l-.12.37a.82.82,0,0,1-.73-.79,1.62,1.62,0,0,1-1.47.79,1.34,1.34,0,0,1-1.46-1.4c0-1,.75-1.52,2-1.52h.9v-.46c0-.75-.31-1.08-1.09-1.08a3.84,3.84,0,0,0-1.28.27l-.13-.4a3.94,3.94,0,0,1,1.49-.32,1.34,1.34,0,0,1,1.54,1.49v2.27C48.45,135.08,48.6,135.23,48.85,135.33Zm-.92-.88v-1.3h-.82c-.95,0-1.48.37-1.48,1.12a.91.91,0,0,0,1,1A1.42,1.42,0,0,0,47.93,134.44Z"/><path class="cls-1" d="M53.48,129v6.63H53l-.06-.72a1.57,1.57,0,0,1-1.41.82c-1.1,0-1.76-.94-1.76-2.43s.69-2.48,1.85-2.48a1.64,1.64,0,0,1,1.32.64v-2.52ZM53,134.39v-2.46a1.47,1.47,0,0,0-1.23-.71c-.83,0-1.39.71-1.38,2s.5,2,1.29,2A1.45,1.45,0,0,0,53,134.39Z"/><path class="cls-1" d="M60.77,135.33l-.12.37a.82.82,0,0,1-.73-.79,1.62,1.62,0,0,1-1.47.79,1.34,1.34,0,0,1-1.46-1.4c0-1,.75-1.52,2-1.52h.9v-.46c0-.75-.31-1.08-1.09-1.08a3.84,3.84,0,0,0-1.28.27l-.13-.4a3.94,3.94,0,0,1,1.49-.32,1.34,1.34,0,0,1,1.54,1.49v2.27C60.38,135.08,60.52,135.23,60.77,135.33Zm-.92-.88v-1.3H59c-.95,0-1.48.37-1.48,1.12a.91.91,0,0,0,1,1A1.42,1.42,0,0,0,59.85,134.44Z"/><path class="cls-1" d="M61.91,134.81V129l.52-.06v5.88c0,.31.12.46.38.46a.77.77,0,0,0,.32-.06l.14.39a1.26,1.26,0,0,1-.54.13A.78.78,0,0,1,61.91,134.81Z"/><path class="cls-1" d="M64.94,129.2a.39.39,0,1,1-.4-.38A.37.37,0,0,1,64.94,129.2Zm-.13,6.4h-.52v-4.71h.52Z"/><path class="cls-1" d="M72.31,132.23v3.37h-.52V132.3c0-.77-.32-1.09-.8-1.09s-1,.4-1.32,1v3.41h-.52V132.3c0-.77-.31-1.09-.8-1.09a1.62,1.62,0,0,0-1.32,1v3.41H66.5v-4.71h.45l0,.8a1.75,1.75,0,0,1,1.45-.9,1.15,1.15,0,0,1,1.17.94,1.77,1.77,0,0,1,1.48-.94C71.84,130.79,72.31,131.34,72.31,132.23Z"/><path class="cls-1" d="M77.27,133.45H74.13c.06,1.28.66,1.81,1.47,1.81a2,2,0,0,0,1.27-.47l.24.33a2.33,2.33,0,0,1-1.54.58c-1.24,0-2-.9-2-2.41s.73-2.49,1.88-2.49,1.84.89,1.84,2.28C77.29,133.21,77.28,133.36,77.27,133.45Zm-.5-.54c0-1-.41-1.68-1.31-1.68-.74,0-1.29.54-1.34,1.82h2.65Z"/><path class="cls-1" d="M80.69,135.4a1.76,1.76,0,0,1-1,.3,1.09,1.09,0,0,1-1.15-1.24v-3.14h-.79v-.42h.79v-1.13l.52-.06v1.19h1.22l-.06.42H79.07v3.11c0,.55.22.82.69.82a1.39,1.39,0,0,0,.72-.21Z"/><path class="cls-1" d="M84.66,135.33l-.12.37a.82.82,0,0,1-.73-.79,1.62,1.62,0,0,1-1.47.79,1.34,1.34,0,0,1-1.46-1.4c0-1,.75-1.52,2-1.52h.9v-.46c0-.75-.31-1.08-1.09-1.08a3.84,3.84,0,0,0-1.28.27l-.13-.4a3.94,3.94,0,0,1,1.49-.32,1.34,1.34,0,0,1,1.54,1.49v2.27C84.26,135.08,84.41,135.23,84.66,135.33Zm-.92-.88v-1.3h-.82c-.95,0-1.48.37-1.48,1.12a.91.91,0,0,0,1,1A1.42,1.42,0,0,0,83.74,134.44Z"/><path class="cls-1" d="M88.23,130.84l-.1.5a1.48,1.48,0,0,0-.41-.05c-.66,0-1,.47-1.26,1.43v2.88h-.52v-4.71h.45l0,1.05c.25-.77.68-1.15,1.33-1.15A1.76,1.76,0,0,1,88.23,130.84Z"/><path class="cls-1" d="M89.71,129.2a.39.39,0,1,1-.4-.38A.37.37,0,0,1,89.71,129.2Zm-.13,6.4h-.52v-4.71h.52Z"/><path class="cls-1" d="M94.59,135.33l-.12.37a.82.82,0,0,1-.73-.79,1.62,1.62,0,0,1-1.47.79,1.34,1.34,0,0,1-1.46-1.4c0-1,.75-1.52,2-1.52h.9v-.46c0-.75-.31-1.08-1.09-1.08a3.84,3.84,0,0,0-1.28.27l-.13-.4a3.94,3.94,0,0,1,1.49-.32,1.34,1.34,0,0,1,1.54,1.49v2.27C94.2,135.08,94.34,135.23,94.59,135.33Zm-.92-.88v-1.3h-.82c-.95,0-1.48.37-1.48,1.12a.91.91,0,0,0,1,1A1.42,1.42,0,0,0,93.67,134.44Z"/><circle class="cls-1" cx="32.15" cy="31.62" r="25"/><path class="cls-2" d="M33.76,26a6.83,6.83,0,0,0,.51-2.26,7.2,7.2,0,0,0-1.48-4.81,6.22,6.22,0,0,0-1.9-1.66,4.11,4.11,0,0,0-1.94-.53,1.81,1.81,0,0,0-.6.1l-.2.06,0,.2c0,.13,0,.34.05.53a11.46,11.46,0,0,1-.08,1.53,9.72,9.72,0,0,0,.34,3.73,8.76,8.76,0,0,0,.82,1.88,9.73,9.73,0,0,0,1.17,1.62c.38.42,1.23,1.39,1.54,1.64a14.43,14.43,0,0,0,.16-1.69c0-.4,0-.8,0-1.2s-.08-.78-.11-1.16-.16-.72-.23-1.06L31.52,22c-.15-.26-.28-.51-.4-.73a3,3,0,0,0-.37-.52l-.35-.44.38.41a3,3,0,0,1,.42.5l.45.71.41.91c.1.34.22.7.32,1.07s.17.77.2,1.18.09.82.09,1.23,0,.94,0,1.4l.12-.12a6.11,6.11,0,0,0,1-1.63Zm0,0"/><path class="cls-2" d="M30.07,29.42l.17.3a8.76,8.76,0,0,0-6.63,5.78l.2,0a10.22,10.22,0,0,1,1.32.18,1.06,1.06,0,0,1,.2-.55,2.51,2.51,0,0,1,2.08-1,13.84,13.84,0,0,1,4.07.47,3.35,3.35,0,0,0,2.25-.13,6,6,0,0,1,5.68.21l.6.4a8.75,8.75,0,0,0-6.72-5.43c.08-.15.16-.29.26-.44a1.63,1.63,0,0,0,.24-.6.89.89,0,0,1,0-.16c-.31.39-.6.79-.84,1.16l-.47,0c.08-.58.15-1.21.18-1.87l-.15.15a2.18,2.18,0,0,0-.29.8c-.05.31-.11.6-.18.89h-.16a8.76,8.76,0,0,0-1.32.1c-.22-.33-.45-.66-.72-1a.94.94,0,0,1,0,.16,1.65,1.65,0,0,0,.23.6Zm0,0"/><path class="cls-2" d="M35.14,27c.22-.21.48-.39.7-.57s.49-.31.72-.46l.69-.32.61-.18a2.34,2.34,0,0,1,.48-.08l.42,0-.42.08a2.17,2.17,0,0,0-.47.11l-.59.21-.65.36c-.21.16-.44.31-.66.49s-.44.38-.64.6a8.45,8.45,0,0,0-.6.68,10.08,10.08,0,0,0-.75,1c.3,0,1.27-.12,1.69-.17a7.12,7.12,0,0,0,1.47-.34,6.56,6.56,0,0,0,1.4-.66,7.27,7.27,0,0,0,2.05-2,9.57,9.57,0,0,1,.72-.91c.11-.1.22-.22.3-.28l.12-.09-.08-.14a1.34,1.34,0,0,0-.29-.35A3.09,3.09,0,0,0,40,23.38a4.74,4.74,0,0,0-1.91,0,5.32,5.32,0,0,0-1.82.73,5.48,5.48,0,0,0-1.42,1.27A5.29,5.29,0,0,0,34,26.93a4.67,4.67,0,0,0-.25,1.42s0,.08,0,.13c.21-.28.44-.54.69-.8a9.11,9.11,0,0,1,.66-.66Zm0,0"/><path class="cls-2" d="M22.3,25.1A8.73,8.73,0,0,1,23,26a7.47,7.47,0,0,0,2.05,2,6.6,6.6,0,0,0,1.41.66,7.4,7.4,0,0,0,1.48.34c.42.05,1.4.18,1.69.16a10.53,10.53,0,0,0-.75-1c-.19-.25-.4-.46-.6-.68s-.43-.41-.64-.61-.45-.33-.66-.49L26.35,26l-.59-.22a2.1,2.1,0,0,0-.47-.11l-.41-.08.42,0a2,2,0,0,1,.48.08l.61.18.69.32c.23.14.47.29.72.46s.48.36.7.57a8.85,8.85,0,0,1,.67.66c.25.26.47.53.69.8,0,0,0-.08,0-.13a4.58,4.58,0,0,0-.25-1.42,5.25,5.25,0,0,0-.84-1.54,5.41,5.41,0,0,0-1.42-1.27,5.33,5.33,0,0,0-1.82-.73,4.66,4.66,0,0,0-1.91,0,3,3,0,0,0-1.37.67,1.37,1.37,0,0,0-.29.35l-.08.14.13.09c.08.06.19.18.3.28Zm0,0"/><path class="cls-2" d="M43.64,39.59a18.41,18.41,0,0,0-4.95-4.38,5.07,5.07,0,0,0-4.81-.13,4.22,4.22,0,0,1-2.88.15,12.89,12.89,0,0,0-3.79-.42,1.54,1.54,0,0,0-1.33.62c-.18.24,1.31,1.24,2.59,1.24-.24.47-4.38-.53-4.92-.49l-3.13-.4c-1.11-.09-1.11-.51-2.2.11a.22.22,0,0,1-.13,0,1.4,1.4,0,0,0-1.29.56.76.76,0,0,0-.08.79c.11.28.39.21.62.3a21.09,21.09,0,0,0,3.75,1.29c1.35.33,2.66.74,4,1a5.8,5.8,0,0,1,1.63.5,6.16,6.16,0,0,0,3.42.73c1.39-.06,2.77,0,4.16,0a5.92,5.92,0,0,1,5.53,3.11h7.83c-1.71-2-2.46-2.49-4-4.61Zm0,0"/></svg>
