<svg id="Capa_1" data-name="Capa 1" xmlns="http://www.w3.org/2000/svg" viewBox="0 0 150 150"><defs><style>.cls-1{font-size:11px;font-family:FiraSans-Medium, Fira Sans;letter-spacing:-0.02em;}.cls-1,.cls-5{fill:#59b169;}.cls-2{font-size:9px;font-family:FiraSans-Light, Fira Sans;letter-spacing:-0.03em;}.cls-3{letter-spacing:-0.04em;}.cls-4{letter-spacing:-0.03em;}.cls-6{fill:#fff;}</style></defs><title>planeta</title><text class="cls-1" transform="translate(7.41 81.99)">Planeta<tspan class="cls-2"><tspan x="0" y="15.01">1. </tspan><tspan class="cls-3" x="7.42" y="15.01">A</tspan><tspan x="12.13" y="15.01">gua</tspan><tspan x="0" y="27.88">2. Cambio climati</tspan><tspan class="cls-4" x="64.82" y="27.88">c</tspan><tspan x="68.73" y="27.88">o</tspan><tspan x="0" y="40.74">3. Empaque</tspan><tspan x="0" y="53.61">4. Seguridad alimetaria</tspan></tspan></text><circle class="cls-5" cx="32.15" cy="31.62" r="25"/><path class="cls-6" d="M33.76,26a6.83,6.83,0,0,0,.51-2.26,7.2,7.2,0,0,0-1.48-4.81,6.22,6.22,0,0,0-1.9-1.66,4.11,4.11,0,0,0-1.94-.53,1.81,1.81,0,0,0-.6.1l-.2.06,0,.2c0,.13,0,.34.05.53a11.46,11.46,0,0,1-.08,1.53,9.72,9.72,0,0,0,.34,3.73,8.76,8.76,0,0,0,.82,1.88,9.73,9.73,0,0,0,1.17,1.62c.38.42,1.23,1.39,1.54,1.64a14.43,14.43,0,0,0,.16-1.69c0-.4,0-.8,0-1.2s-.08-.78-.11-1.16-.16-.72-.23-1.06L31.52,22c-.15-.26-.28-.51-.4-.73a3,3,0,0,0-.37-.52l-.35-.44.38.41a3,3,0,0,1,.42.5l.45.71.41.91c.1.34.22.7.32,1.07s.17.77.2,1.18.09.82.09,1.23,0,.94,0,1.4l.12-.12a6.11,6.11,0,0,0,1-1.63Zm0,0"/><path class="cls-6" d="M30.07,29.42l.17.3a8.76,8.76,0,0,0-6.63,5.78l.2,0a10.22,10.22,0,0,1,1.32.18,1.06,1.06,0,0,1,.2-.55,2.51,2.51,0,0,1,2.08-1,13.84,13.84,0,0,1,4.07.47,3.35,3.35,0,0,0,2.25-.13,6,6,0,0,1,5.68.21l.6.4a8.75,8.75,0,0,0-6.72-5.43c.08-.15.16-.29.26-.44a1.63,1.63,0,0,0,.24-.6.89.89,0,0,1,0-.16c-.31.39-.6.79-.84,1.16l-.47,0c.08-.58.15-1.21.18-1.87l-.15.15a2.18,2.18,0,0,0-.29.8c-.05.31-.11.6-.18.89h-.16a8.76,8.76,0,0,0-1.32.1c-.22-.33-.45-.66-.72-1a.94.94,0,0,1,0,.16,1.65,1.65,0,0,0,.23.6Zm0,0"/><path class="cls-6" d="M35.14,27c.22-.21.48-.39.7-.57s.49-.31.72-.46l.69-.32.61-.18a2.34,2.34,0,0,1,.48-.08l.42,0-.42.08a2.17,2.17,0,0,0-.47.11l-.59.21-.65.36c-.21.16-.44.31-.66.49s-.44.38-.64.6a8.45,8.45,0,0,0-.6.68,10.08,10.08,0,0,0-.75,1c.3,0,1.27-.12,1.69-.17a7.12,7.12,0,0,0,1.47-.34,6.56,6.56,0,0,0,1.4-.66,7.27,7.27,0,0,0,2.05-2,9.57,9.57,0,0,1,.72-.91c.11-.1.22-.22.3-.28l.12-.09-.08-.14a1.34,1.34,0,0,0-.29-.35A3.09,3.09,0,0,0,40,23.38a4.74,4.74,0,0,0-1.91,0,5.32,5.32,0,0,0-1.82.73,5.48,5.48,0,0,0-1.42,1.27A5.29,5.29,0,0,0,34,26.93a4.67,4.67,0,0,0-.25,1.42s0,.08,0,.13c.21-.28.44-.54.69-.8a9.11,9.11,0,0,1,.66-.66Zm0,0"/><path class="cls-6" d="M22.3,25.1A8.73,8.73,0,0,1,23,26a7.47,7.47,0,0,0,2.05,2,6.6,6.6,0,0,0,1.41.66,7.4,7.4,0,0,0,1.48.34c.42.05,1.4.18,1.69.16a10.53,10.53,0,0,0-.75-1c-.19-.25-.4-.46-.6-.68s-.43-.41-.64-.61-.45-.33-.66-.49L26.35,26l-.59-.22a2.1,2.1,0,0,0-.47-.11l-.41-.08.42,0a2,2,0,0,1,.48.08l.61.18.69.32c.23.14.47.29.72.46s.48.36.7.57a8.85,8.85,0,0,1,.67.66c.25.26.47.53.69.8,0,0,0-.08,0-.13a4.58,4.58,0,0,0-.25-1.42,5.25,5.25,0,0,0-.84-1.54,5.41,5.41,0,0,0-1.42-1.27,5.33,5.33,0,0,0-1.82-.73,4.66,4.66,0,0,0-1.91,0,3,3,0,0,0-1.37.67,1.37,1.37,0,0,0-.29.35l-.08.14.13.09c.08.06.19.18.3.28Zm0,0"/><path class="cls-6" d="M43.64,39.59a18.41,18.41,0,0,0-4.95-4.38,5.07,5.07,0,0,0-4.81-.13,4.22,4.22,0,0,1-2.88.15,12.89,12.89,0,0,0-3.79-.42,1.54,1.54,0,0,0-1.33.62c-.18.24,1.31,1.24,2.59,1.24-.24.47-4.38-.53-4.92-.49l-3.13-.4c-1.11-.09-1.11-.51-2.2.11a.22.22,0,0,1-.13,0,1.4,1.4,0,0,0-1.29.56.76.76,0,0,0-.08.79c.11.28.39.21.62.3a21.09,21.09,0,0,0,3.75,1.29c1.35.33,2.66.74,4,1a5.8,5.8,0,0,1,1.63.5,6.16,6.16,0,0,0,3.42.73c1.39-.06,2.77,0,4.16,0a5.92,5.92,0,0,1,5.53,3.11h7.83c-1.71-2-2.46-2.49-4-4.61Zm0,0"/></svg>
