<svg id="Capa_1" data-name="Capa 1" xmlns="http://www.w3.org/2000/svg" viewBox="0 0 150 135"><defs><style>.cls-1{fill:#943c8f;}.cls-2{fill:#fff;}</style></defs><title>sociedad</title><path class="cls-1" d="M13.88,67.87l-.72.83A2.55,2.55,0,0,0,11.46,68c-.68,0-1.18.31-1.18.9s.3.79,1.56,1.19,2.25,1,2.25,2.4S13,74.86,11.22,74.86a3.78,3.78,0,0,1-2.74-1L9.23,73a2.9,2.9,0,0,0,2,.76c.81,0,1.4-.4,1.4-1.13s-.32-.92-1.51-1.29c-1.6-.5-2.29-1.13-2.29-2.29s1.09-2.1,2.59-2.1A3.42,3.42,0,0,1,13.88,67.87Z"/><path class="cls-1" d="M20.13,71.78c0,1.84-1,3.08-2.74,3.08s-2.74-1.17-2.74-3.08,1-3.07,2.75-3.07S20.13,69.88,20.13,71.78Zm-4,0c0,1.4.43,2,1.25,2s1.25-.63,1.25-2-.43-2-1.24-2S16.14,70.41,16.14,71.78Z"/><path class="cls-1" d="M25.41,69.4l-.63.85a1.86,1.86,0,0,0-1.18-.42c-.81,0-1.31.59-1.31,2s.52,1.9,1.31,1.9a2,2,0,0,0,1.18-.42l.63.89a2.87,2.87,0,0,1-1.88.67c-1.68,0-2.73-1.17-2.73-3s1-3.12,2.72-3.12A2.71,2.71,0,0,1,25.41,69.4Z"/><path class="cls-1" d="M27.74,66.79a.89.89,0,1,1-.89-.86A.84.84,0,0,1,27.74,66.79Zm-.18,7.91H26.16V68.88h1.41Z"/><path class="cls-1" d="M33.73,72.22H30.07c.1,1.19.66,1.57,1.43,1.57A2.42,2.42,0,0,0,33,73.28l.58.8a3.35,3.35,0,0,1-2.16.78c-1.8,0-2.77-1.2-2.77-3s.94-3.11,2.59-3.11,2.56,1.1,2.56,2.94C33.76,71.84,33.74,72.07,33.73,72.22Zm-1.36-1c0-1-.34-1.53-1.13-1.53s-1.08.44-1.15,1.6h2.29Z"/><path class="cls-1" d="M39.64,66.55V74.7H38.4L38.3,74a2,2,0,0,1-1.66.9c-1.45,0-2.21-1.22-2.21-3.07s.9-3.08,2.34-3.08a2,2,0,0,1,1.46.63V66.39ZM38.23,73V70.39a1.4,1.4,0,0,0-1.11-.62c-.73,0-1.21.62-1.21,2s.43,2,1.12,2A1.38,1.38,0,0,0,38.23,73Z"/><path class="cls-1" d="M45.8,73.91l-.3.94A1.35,1.35,0,0,1,44.22,74a2,2,0,0,1-1.74.87,1.73,1.73,0,0,1-1.88-1.79c0-1.27,1-1.95,2.65-1.95H44v-.33c0-.76-.34-1-1.09-1a5.2,5.2,0,0,0-1.54.31l-.33-1a6,6,0,0,1,2.11-.42c1.55,0,2.23.72,2.23,2v2.44C45.36,73.63,45.52,73.8,45.8,73.91ZM44,73.12V71.95h-.58c-.91,0-1.36.33-1.36,1a.77.77,0,0,0,.83.88A1.25,1.25,0,0,0,44,73.12Z"/><path class="cls-1" d="M51.69,66.55V74.7H50.44l-.1-.74a2,2,0,0,1-1.66.9c-1.45,0-2.21-1.22-2.21-3.07s.9-3.08,2.34-3.08a2,2,0,0,1,1.46.63V66.39ZM50.28,73V70.39a1.4,1.4,0,0,0-1.11-.62c-.73,0-1.21.62-1.21,2s.43,2,1.12,2A1.38,1.38,0,0,0,50.28,73Z"/><path class="cls-1" d="M10.92,87.07H10.4V81.66l-1.48.92-.24-.39,1.79-1.11h.45Z"/><path class="cls-1" d="M13.14,86.73a.42.42,0,0,1-.43.43.43.43,0,1,1,0-.86A.41.41,0,0,1,13.14,86.73Z"/><path class="cls-1" d="M20,81.38H18.2v5.69h-.53V81.38H15.84V80.9h4.23Z"/><path class="cls-1" d="M23.72,84.91H20.58c.06,1.28.66,1.81,1.47,1.81a2,2,0,0,0,1.27-.47l.24.33a2.33,2.33,0,0,1-1.54.58c-1.24,0-2-.9-2-2.41s.73-2.49,1.88-2.49,1.84.89,1.84,2.28C23.74,84.68,23.73,84.82,23.72,84.91Zm-.5-.54c0-1-.41-1.68-1.31-1.68-.74,0-1.29.54-1.34,1.82h2.65Z"/><path class="cls-1" d="M25.52,86.89a1.79,1.79,0,0,1-1.27,2l-.15-.38c.62-.31.9-.56.9-1.6V82.36h.52Zm.13-6.23a.39.39,0,1,1-.4-.38A.37.37,0,0,1,25.64,80.66Z"/><path class="cls-1" d="M27.85,80.66a.39.39,0,1,1-.4-.38A.37.37,0,0,1,27.85,80.66Zm-.13,6.4H27.2V82.36h.52Z"/><path class="cls-1" d="M32.76,80.44v6.63h-.45l-.06-.72a1.57,1.57,0,0,1-1.41.82c-1.1,0-1.76-.94-1.76-2.43s.69-2.48,1.85-2.48a1.64,1.64,0,0,1,1.32.64V80.38Zm-.52,5.42V83.4A1.47,1.47,0,0,0,31,82.69c-.83,0-1.39.71-1.38,2s.5,2,1.29,2A1.45,1.45,0,0,0,32.24,85.86Z"/><path class="cls-1" d="M38.06,84.7c0,1.52-.76,2.47-2,2.47s-2-.94-2-2.45.77-2.46,2-2.46S38.06,83.16,38.06,84.7Zm-3.43,0c0,1.32.53,2,1.43,2s1.45-.67,1.45-2-.53-2-1.44-2S34.63,83.37,34.63,84.72Z"/><path class="cls-1" d="M44.3,82.78l-.24.34a2,2,0,0,0-1.24-.43c-.62,0-1,.31-1,.79s.3.67,1.14.89c1,.27,1.51.62,1.51,1.42s-.77,1.37-1.7,1.37a2.47,2.47,0,0,1-1.68-.6l.29-.33a2.08,2.08,0,0,0,1.39.5c.68,0,1.16-.32,1.16-.9s-.26-.77-1.24-1-1.4-.63-1.4-1.29.68-1.23,1.57-1.23A2.31,2.31,0,0,1,44.3,82.78Z"/><path class="cls-1" d="M49.21,84.7c0,1.52-.76,2.47-2,2.47s-2-.94-2-2.45.77-2.46,2-2.46S49.21,83.16,49.21,84.7Zm-3.43,0c0,1.32.53,2,1.43,2s1.45-.67,1.45-2-.53-2-1.44-2S45.78,83.37,45.78,84.72Z"/><path class="cls-1" d="M53.45,82.74l-.26.34a1.56,1.56,0,0,0-1-.37c-.86,0-1.46.67-1.46,2s.59,2,1.45,2a1.69,1.69,0,0,0,1.09-.4l.25.35a2,2,0,0,1-1.35.5c-1.21,0-2-.89-2-2.42s.78-2.48,2-2.48A1.88,1.88,0,0,1,53.45,82.74Z"/><path class="cls-1" d="M55.15,80.66a.39.39,0,1,1-.4-.38A.37.37,0,0,1,55.15,80.66ZM55,87.07h-.52V82.36H55Z"/><path class="cls-1" d="M60,86.8l-.12.37a.82.82,0,0,1-.73-.79,1.62,1.62,0,0,1-1.47.79,1.34,1.34,0,0,1-1.46-1.4c0-1,.75-1.52,2-1.52h.9v-.46c0-.75-.31-1.08-1.09-1.08a3.84,3.84,0,0,0-1.28.27l-.13-.4a3.94,3.94,0,0,1,1.49-.32,1.34,1.34,0,0,1,1.54,1.49V86C59.64,86.54,59.78,86.7,60,86.8Zm-.92-.88v-1.3H58.3c-.95,0-1.48.37-1.48,1.12a.91.91,0,0,0,1,1A1.42,1.42,0,0,0,59.11,85.91Z"/><path class="cls-1" d="M61.17,86.27V80.44l.52-.06v5.88c0,.31.12.46.38.46a.77.77,0,0,0,.32-.06l.14.39a1.26,1.26,0,0,1-.54.13A.78.78,0,0,1,61.17,86.27Z"/><path class="cls-1" d="M12,93.16c0,1.19-.67,1.94-2.67,4.05h2.84l-.07.46H8.68v-.44c2.22-2.37,2.75-3,2.75-4A1.08,1.08,0,0,0,10.29,92a1.64,1.64,0,0,0-1.34.68l-.36-.27a2.1,2.1,0,0,1,1.73-.86A1.53,1.53,0,0,1,12,93.16Z"/><path class="cls-1" d="M13.74,97.33a.42.42,0,0,1-.43.43.43.43,0,1,1,0-.86A.41.41,0,0,1,13.74,97.33Z"/><path class="cls-1" d="M21.2,96c0,1.18-.86,1.71-2.21,1.71H17.3V91.5h1.38c1.4,0,2.23.5,2.23,1.54a1.3,1.3,0,0,1-1.13,1.36A1.44,1.44,0,0,1,21.2,96Zm-3.36-4v2.26h1.24a1.13,1.13,0,0,0,1.28-1.13c0-.83-.59-1.13-1.63-1.13Zm2.8,4c0-.94-.66-1.31-1.49-1.31H17.84v2.57H19C20,97.22,20.64,96.87,20.64,96Z"/><path class="cls-1" d="M23.06,91.27a.39.39,0,1,1-.4-.38A.37.37,0,0,1,23.06,91.27Zm-.13,6.4h-.52V93h.52Z"/><path class="cls-1" d="M27.94,95.51H24.8c.06,1.28.66,1.81,1.47,1.81a2,2,0,0,0,1.27-.47l.24.33a2.33,2.33,0,0,1-1.54.58c-1.24,0-2-.9-2-2.41s.73-2.49,1.88-2.49S28,93.75,28,95.14C28,95.28,27.95,95.42,27.94,95.51Zm-.5-.54c0-1-.41-1.68-1.31-1.68-.74,0-1.29.54-1.34,1.82h2.65Z"/><path class="cls-1" d="M32.61,94.3v3.37h-.52V94.37c0-.77-.31-1.09-.89-1.09a1.77,1.77,0,0,0-1.46,1v3.41h-.52V93h.45l.05.8a1.87,1.87,0,0,1,1.58-.9C32.15,92.86,32.61,93.39,32.61,94.3Z"/><path class="cls-1" d="M37.57,95.51H34.43c.06,1.28.66,1.81,1.47,1.81a2,2,0,0,0,1.27-.47l.24.33a2.33,2.33,0,0,1-1.54.58c-1.24,0-2-.9-2-2.41s.73-2.49,1.88-2.49,1.84.89,1.84,2.28C37.59,95.28,37.58,95.42,37.57,95.51Zm-.5-.54c0-1-.41-1.68-1.31-1.68-.74,0-1.29.54-1.34,1.82h2.65Z"/><path class="cls-1" d="M41.5,93.38l-.24.34A2,2,0,0,0,40,93.29c-.62,0-1,.31-1,.79s.3.67,1.14.89c1,.27,1.51.62,1.51,1.42s-.77,1.37-1.7,1.37a2.47,2.47,0,0,1-1.68-.6l.29-.33a2.08,2.08,0,0,0,1.39.5c.68,0,1.16-.32,1.16-.9s-.26-.77-1.24-1-1.4-.63-1.4-1.29.68-1.23,1.57-1.23A2.31,2.31,0,0,1,41.5,93.38Z"/><path class="cls-1" d="M44.94,97.47a1.76,1.76,0,0,1-1,.3,1.09,1.09,0,0,1-1.15-1.24V93.38H42V93h.79V91.83l.52-.06V93h1.22l-.06.42H43.32V96.5c0,.55.22.82.69.82a1.39,1.39,0,0,0,.72-.21Z"/><path class="cls-1" d="M48.91,97.4l-.12.37a.82.82,0,0,1-.73-.79,1.62,1.62,0,0,1-1.47.79,1.34,1.34,0,0,1-1.46-1.4c0-1,.75-1.52,2-1.52H48v-.46c0-.75-.31-1.08-1.09-1.08a3.84,3.84,0,0,0-1.28.27l-.13-.4A3.94,3.94,0,0,1,47,92.86a1.34,1.34,0,0,1,1.54,1.49v2.27C48.51,97.14,48.66,97.3,48.91,97.4ZM48,96.51v-1.3h-.82c-.95,0-1.48.37-1.48,1.12a.91.91,0,0,0,1,1A1.42,1.42,0,0,0,48,96.51Z"/><path class="cls-1" d="M52.48,92.91l-.1.5a1.48,1.48,0,0,0-.41-.05c-.66,0-1,.47-1.26,1.43v2.88h-.52V93h.45l0,1.05c.25-.77.68-1.15,1.33-1.15A1.76,1.76,0,0,1,52.48,92.91Z"/><path class="cls-1" d="M11.93,103.68a1.35,1.35,0,0,1-1.18,1.4,1.38,1.38,0,0,1,1.35,1.49,1.76,1.76,0,0,1-1.91,1.79,2.18,2.18,0,0,1-1.72-.77l.33-.3a1.73,1.73,0,0,0,1.37.63,1.27,1.27,0,0,0,1.39-1.34c0-.91-.54-1.26-1.35-1.26h-.4l.07-.42h.29a1.15,1.15,0,0,0,1.23-1.2,1,1,0,0,0-1.15-1.08,1.84,1.84,0,0,0-1.33.56l-.28-.32a2.24,2.24,0,0,1,1.64-.68A1.49,1.49,0,0,1,11.93,103.68Z"/><path class="cls-1" d="M13.8,107.93a.42.42,0,0,1-.43.43.43.43,0,1,1,0-.86A.41.41,0,0,1,13.8,107.93Z"/><path class="cls-1" d="M21.46,105.13c0,2.56-1.5,3.13-2.77,3.13H17.36V102.1h1.22C20,102.1,21.46,102.59,21.46,105.13Zm-3.56-2.58v5.27h.82c1.06,0,2.17-.47,2.17-2.68s-1.15-2.58-2.23-2.58Z"/><path class="cls-1" d="M26.1,106.11H23c.06,1.28.66,1.81,1.47,1.81a2,2,0,0,0,1.27-.47l.24.33a2.33,2.33,0,0,1-1.54.58c-1.24,0-2-.9-2-2.41s.73-2.49,1.88-2.49,1.84.89,1.84,2.28C26.12,105.88,26.11,106,26.1,106.11Zm-.5-.54c0-1-.41-1.68-1.31-1.68-.74,0-1.29.54-1.34,1.82h2.65Z"/><path class="cls-1" d="M30,104l-.24.34a2,2,0,0,0-1.24-.43c-.62,0-1,.31-1,.79s.3.67,1.14.89c1,.27,1.51.62,1.51,1.42s-.77,1.37-1.7,1.37a2.47,2.47,0,0,1-1.68-.6l.29-.33a2.08,2.08,0,0,0,1.39.5c.68,0,1.16-.32,1.16-.9s-.26-.77-1.24-1-1.4-.63-1.4-1.29.68-1.23,1.57-1.23A2.31,2.31,0,0,1,30,104Z"/><path class="cls-1" d="M34.56,108l-.12.37a.82.82,0,0,1-.73-.79,1.62,1.62,0,0,1-1.47.79,1.34,1.34,0,0,1-1.46-1.4c0-1,.75-1.52,2-1.52h.9V105c0-.75-.31-1.08-1.09-1.08a3.84,3.84,0,0,0-1.28.27l-.13-.4a3.94,3.94,0,0,1,1.49-.32A1.34,1.34,0,0,1,34.17,105v2.27C34.17,107.74,34.31,107.9,34.56,108Zm-.92-.88v-1.3h-.82c-.95,0-1.48.37-1.48,1.12a.91.91,0,0,0,1,1A1.42,1.42,0,0,0,33.65,107.11Z"/><path class="cls-1" d="M38.14,103.51l-.1.5a1.48,1.48,0,0,0-.41-.05c-.66,0-1,.47-1.26,1.43v2.88h-.52v-4.71h.45l0,1.05c.25-.77.68-1.15,1.33-1.15A1.76,1.76,0,0,1,38.14,103.51Z"/><path class="cls-1" d="M41.27,103.51l-.1.5a1.48,1.48,0,0,0-.41-.05c-.66,0-1,.47-1.26,1.43v2.88H39v-4.71h.45l0,1.05c.25-.77.68-1.15,1.33-1.15A1.76,1.76,0,0,1,41.27,103.51Z"/><path class="cls-1" d="M45.44,105.9c0,1.52-.76,2.47-2,2.47s-2-.94-2-2.45.77-2.46,2-2.46S45.44,104.36,45.44,105.9Zm-3.43,0c0,1.32.53,2,1.43,2s1.45-.67,1.45-2-.53-2-1.44-2S42,104.57,42,105.92Z"/><path class="cls-1" d="M46.7,107.47v-5.83l.52-.06v5.88c0,.31.12.46.38.46a.77.77,0,0,0,.32-.06l.14.39a1.26,1.26,0,0,1-.54.13A.78.78,0,0,1,46.7,107.47Z"/><path class="cls-1" d="M49,107.47v-5.83l.52-.06v5.88c0,.31.12.46.38.46a.77.77,0,0,0,.32-.06l.14.39a1.26,1.26,0,0,1-.54.13A.78.78,0,0,1,49,107.47Z"/><path class="cls-1" d="M55,105.9c0,1.52-.76,2.47-2,2.47s-2-.94-2-2.45.77-2.46,2-2.46S55,104.36,55,105.9Zm-3.43,0c0,1.32.53,2,1.43,2s1.45-.67,1.45-2-.53-2-1.44-2S51.55,104.57,51.55,105.92Z"/><path class="cls-1" d="M61.51,103.94l-.26.34a1.56,1.56,0,0,0-1-.37c-.86,0-1.46.67-1.46,2s.59,2,1.45,2a1.69,1.69,0,0,0,1.09-.4l.25.35a2,2,0,0,1-1.35.5c-1.21,0-2-.89-2-2.42s.78-2.48,2-2.48A1.88,1.88,0,0,1,61.51,103.94Z"/><path class="cls-1" d="M66,105.9c0,1.52-.76,2.47-2,2.47s-2-.94-2-2.45.77-2.46,2-2.46S66,104.36,66,105.9Zm-3.43,0c0,1.32.53,2,1.43,2s1.45-.67,1.45-2-.53-2-1.44-2S62.59,104.57,62.59,105.92Z"/><path class="cls-1" d="M73.14,104.9v3.37h-.52V105c0-.77-.32-1.09-.8-1.09s-1,.4-1.32,1v3.41H70V105c0-.77-.31-1.09-.8-1.09a1.62,1.62,0,0,0-1.32,1v3.41h-.52v-4.71h.45l0,.8a1.75,1.75,0,0,1,1.45-.9,1.15,1.15,0,0,1,1.17.94,1.77,1.77,0,0,1,1.48-.94C72.67,103.46,73.14,104,73.14,104.9Z"/><path class="cls-1" d="M78.08,108.27h-.45l0-.84a1.71,1.71,0,0,1-1.54.94,1.26,1.26,0,0,1-1.33-1.44v-3.37h.52v3.31c0,.75.31,1.06.93,1.06a1.62,1.62,0,0,0,1.38-1v-3.41h.52Z"/><path class="cls-1" d="M83.15,104.9v3.37h-.52V105c0-.77-.31-1.09-.89-1.09a1.77,1.77,0,0,0-1.46,1v3.41h-.52v-4.71h.45l.05.8a1.87,1.87,0,0,1,1.58-.9C82.7,103.46,83.15,104,83.15,104.9Z"/><path class="cls-1" d="M85.44,101.87a.39.39,0,1,1-.4-.38A.37.37,0,0,1,85.44,101.87Zm-.13,6.4h-.52v-4.71h.52Z"/><path class="cls-1" d="M89.14,108.07a1.76,1.76,0,0,1-1,.3A1.09,1.09,0,0,1,87,107.12V104H86.2v-.42H87v-1.12l.52-.06v1.19h1.22l-.06.42H87.52v3.11c0,.55.22.82.69.82a1.39,1.39,0,0,0,.72-.21Z"/><path class="cls-1" d="M93.11,108l-.12.37a.82.82,0,0,1-.73-.79,1.62,1.62,0,0,1-1.47.79,1.34,1.34,0,0,1-1.46-1.4c0-1,.75-1.52,2-1.52h.9V105c0-.75-.31-1.08-1.09-1.08a3.84,3.84,0,0,0-1.28.27l-.13-.4a3.94,3.94,0,0,1,1.49-.32A1.34,1.34,0,0,1,92.71,105v2.27C92.71,107.74,92.86,107.9,93.11,108Zm-.92-.88v-1.3h-.82c-.95,0-1.48.37-1.48,1.12a.91.91,0,0,0,1,1A1.42,1.42,0,0,0,92.19,107.11Z"/><path class="cls-1" d="M96.68,103.51l-.1.5a1.48,1.48,0,0,0-.41-.05c-.66,0-1,.47-1.26,1.43v2.88h-.52v-4.71h.45l0,1.05c.25-.77.68-1.15,1.33-1.15A1.76,1.76,0,0,1,96.68,103.51Z"/><path class="cls-1" d="M98.17,101.87a.39.39,0,1,1-.4-.38A.37.37,0,0,1,98.17,101.87Zm-.13,6.4h-.52v-4.71H98Z"/><path class="cls-1" d="M103.33,105.9c0,1.52-.76,2.47-2,2.47s-2-.94-2-2.45.77-2.46,2-2.46S103.33,104.36,103.33,105.9Zm-3.43,0c0,1.32.53,2,1.43,2s1.45-.67,1.45-2-.53-2-1.44-2S99.9,104.57,99.9,105.92Z"/><circle class="cls-1" cx="32.33" cy="33.92" r="25"/><path class="cls-2" d="M30.93,22a3.07,3.07,0,1,1-3.07-3.07A3.07,3.07,0,0,1,30.93,22Zm0,0"/><path class="cls-2" d="M38.88,22a3.07,3.07,0,1,1-3.07-3.07A3.07,3.07,0,0,1,38.88,22Zm0,0"/><path class="cls-2" d="M38.5,42.34h-.1a1.19,1.19,0,0,1-1.19-1.19,6.29,6.29,0,0,1,2.43-5.33l.07,0h0v0A2.35,2.35,0,0,1,39.08,33L39,32.43v-2.3a7.1,7.1,0,0,1,.59,2.14,2.35,2.35,0,0,1,2.31-.62,7.56,7.56,0,0,0-4-5.85l-.19-.09a3.53,3.53,0,0,0-1.12-.49h0l-.74.78L35,25.23a3.54,3.54,0,0,0-1.21.55l0,0a10,10,0,0,0-2,1.49,9.57,9.57,0,0,0-2-1.58,1.13,1.13,0,0,0-.33-.13,3.54,3.54,0,0,0-.89-.35l-.77.77-.74-.78h0a3.54,3.54,0,0,0-1.12.49l-.19.09a7.18,7.18,0,0,0-3.79,6,2.33,2.33,0,0,1,2.38.12,6.35,6.35,0,0,1,.32-1.53v1.79a2.33,2.33,0,0,1,.13,3.24l0,.12a1.44,1.44,0,0,0,0,.19v.14l0,0a6.3,6.3,0,0,1,2.28,5.18A1.18,1.18,0,0,1,26,42.29a1.17,1.17,0,0,1-.67-.21l0,.06v5.72a1.39,1.39,0,0,1,0,.31,1.41,1.41,0,0,0,2.42-1v-9.8h.2v9.8a1.41,1.41,0,0,0,2.82,0V35.84l.05-.1h.07a1.19,1.19,0,0,0,.88-.41,1.26,1.26,0,0,0,.25.17c-.49,2.23-1,4.85-1,5.42s.84.87,2,1.12v5.15a1.41,1.41,0,0,0,2.82,0V42.33H36v4.86a1.41,1.41,0,0,0,2.82,0V44.84h-.74Zm0,0"/><path class="cls-2" d="M25,33.87a1.8,1.8,0,1,1-1.8-1.8,1.8,1.8,0,0,1,1.8,1.8Zm0,0"/><path class="cls-2" d="M26.15,41.71a.64.64,0,0,0,.64-.64,5.72,5.72,0,0,0-2.08-4.76,2.65,2.65,0,0,0-.5-.34,2.11,2.11,0,0,0-.52-.2l-.45.45-.43-.46h0a2,2,0,0,0-.78.38l-.06,0A5.64,5.64,0,0,0,19.81,41a.64.64,0,1,0,1.28,0,5.68,5.68,0,0,1,.31-1.91v2.23a1.41,1.41,0,0,0,.1.52.86.86,0,0,0,0,.11v5.89a.82.82,0,0,0,1.65,0V42.89h.12v4.94a.83.83,0,1,0,1.65,0V42a1.41,1.41,0,0,0,.17-.68V38.86a5.51,5.51,0,0,1,.43,2.22.64.64,0,0,0,.64.64Zm0,0"/><path class="cls-2" d="M43.08,33.9a1.83,1.83,0,1,1-1.83-1.83,1.83,1.83,0,0,1,1.83,1.83Zm0,0"/><path class="cls-2" d="M42.74,36.38a2.76,2.76,0,0,0-.51-.34,2.16,2.16,0,0,0-.53-.21l-.45.46-.44-.46h0a2.08,2.08,0,0,0-.79.38l-.06,0a5.73,5.73,0,0,0-2.19,4.88.65.65,0,1,0,1.3,0,5.77,5.77,0,0,1,.31-1.94v1.33l-.66,3.75h.76v3.8a.84.84,0,1,0,1.67,0v-3.8h.12v3.8a.84.84,0,1,0,1.68,0v-3.8h.83l-.66-3.72V39a5.56,5.56,0,0,1,.44,2.25.65.65,0,0,0,1.3,0,5.81,5.81,0,0,0-2.11-4.83Zm0,0"/></svg>
