<svg id="Capa_1" data-name="Capa 1" xmlns="http://www.w3.org/2000/svg" viewBox="0 0 150 135"><defs><style>.cls-1{font-size:11px;font-family:FiraSans-Medium, Fira Sans;letter-spacing:-0.02em;}.cls-1,.cls-7{fill:#943c8f;}.cls-2{font-size:9px;font-family:FiraSans-Light, Fira Sans;letter-spacing:-0.03em;}.cls-3{letter-spacing:-0.1em;}.cls-4{letter-spacing:-0.03em;}.cls-5{letter-spacing:-0.02em;}.cls-6{letter-spacing:-0.04em;}.cls-8{fill:#fff;}</style></defs><title>sociedad</title><text class="cls-1" transform="translate(8.29 74.7)">Sociedad<tspan class="cls-2"><tspan x="0" y="12.37">1. </tspan><tspan class="cls-3" x="7.42" y="12.37">T</tspan><tspan x="10.93" y="12.37">eji</tspan><tspan class="cls-4" x="19.95" y="12.37">d</tspan><tspan x="24.9" y="12.37">o social</tspan><tspan x="0" y="22.97">2. Bienestar</tspan><tspan x="0" y="33.57">3. Desar</tspan><tspan class="cls-4" x="29.83" y="33.57">r</tspan><tspan x="32.88" y="33.57">ol</tspan><tspan class="cls-4" x="40.12" y="33.57">l</tspan><tspan class="cls-5" x="42.36" y="33.57">o </tspan><tspan class="cls-6" x="49.56" y="33.57">c</tspan><tspan x="53.47" y="33.57">omunitario</tspan></tspan></text><circle class="cls-7" cx="32.33" cy="33.92" r="25"/><path class="cls-8" d="M30.93,22a3.07,3.07,0,1,1-3.07-3.07A3.07,3.07,0,0,1,30.93,22Zm0,0"/><path class="cls-8" d="M38.88,22a3.07,3.07,0,1,1-3.07-3.07A3.07,3.07,0,0,1,38.88,22Zm0,0"/><path class="cls-8" d="M38.5,42.34h-.1a1.19,1.19,0,0,1-1.19-1.19,6.29,6.29,0,0,1,2.43-5.33l.07,0h0v0A2.35,2.35,0,0,1,39.08,33L39,32.43v-2.3a7.1,7.1,0,0,1,.59,2.14,2.35,2.35,0,0,1,2.31-.62,7.56,7.56,0,0,0-4-5.85l-.19-.09a3.53,3.53,0,0,0-1.12-.49h0l-.74.78L35,25.23a3.54,3.54,0,0,0-1.21.55l0,0a10,10,0,0,0-2,1.49,9.57,9.57,0,0,0-2-1.58,1.13,1.13,0,0,0-.33-.13,3.54,3.54,0,0,0-.89-.35l-.77.77-.74-.78h0a3.54,3.54,0,0,0-1.12.49l-.19.09a7.18,7.18,0,0,0-3.79,6,2.33,2.33,0,0,1,2.38.12,6.35,6.35,0,0,1,.32-1.53v1.79a2.33,2.33,0,0,1,.13,3.24l0,.12a1.44,1.44,0,0,0,0,.19v.14l0,0a6.3,6.3,0,0,1,2.28,5.18A1.18,1.18,0,0,1,26,42.29a1.17,1.17,0,0,1-.67-.21l0,.06v5.72a1.39,1.39,0,0,1,0,.31,1.41,1.41,0,0,0,2.42-1v-9.8h.2v9.8a1.41,1.41,0,0,0,2.82,0V35.84l.05-.1h.07a1.19,1.19,0,0,0,.88-.41,1.26,1.26,0,0,0,.25.17c-.49,2.23-1,4.85-1,5.42s.84.87,2,1.12v5.15a1.41,1.41,0,0,0,2.82,0V42.33H36v4.86a1.41,1.41,0,0,0,2.82,0V44.84h-.74Zm0,0"/><path class="cls-8" d="M25,33.87a1.8,1.8,0,1,1-1.8-1.8,1.8,1.8,0,0,1,1.8,1.8Zm0,0"/><path class="cls-8" d="M26.15,41.71a.64.64,0,0,0,.64-.64,5.72,5.72,0,0,0-2.08-4.76,2.65,2.65,0,0,0-.5-.34,2.11,2.11,0,0,0-.52-.2l-.45.45-.43-.46h0a2,2,0,0,0-.78.38l-.06,0A5.64,5.64,0,0,0,19.81,41a.64.64,0,1,0,1.28,0,5.68,5.68,0,0,1,.31-1.91v2.23a1.41,1.41,0,0,0,.1.52.86.86,0,0,0,0,.11v5.89a.82.82,0,0,0,1.65,0V42.89h.12v4.94a.83.83,0,1,0,1.65,0V42a1.41,1.41,0,0,0,.17-.68V38.86a5.51,5.51,0,0,1,.43,2.22.64.64,0,0,0,.64.64Zm0,0"/><path class="cls-8" d="M43.08,33.9a1.83,1.83,0,1,1-1.83-1.83,1.83,1.83,0,0,1,1.83,1.83Zm0,0"/><path class="cls-8" d="M42.74,36.38a2.76,2.76,0,0,0-.51-.34,2.16,2.16,0,0,0-.53-.21l-.45.46-.44-.46h0a2.08,2.08,0,0,0-.79.38l-.06,0a5.73,5.73,0,0,0-2.19,4.88.65.65,0,1,0,1.3,0,5.77,5.77,0,0,1,.31-1.94v1.33l-.66,3.75h.76v3.8a.84.84,0,1,0,1.67,0v-3.8h.12v3.8a.84.84,0,1,0,1.68,0v-3.8h.83l-.66-3.72V39a5.56,5.56,0,0,1,.44,2.25.65.65,0,0,0,1.3,0,5.81,5.81,0,0,0-2.11-4.83Zm0,0"/></svg>
