<svg id="Layer_1" data-name="Layer 1" xmlns="http://www.w3.org/2000/svg" viewBox="0 0 150 200"><defs><style>.cls-1{fill:#5373b8;}.cls-2{font-size:18.28px;fill:#2e3d5c;font-family:Helvetica-Bold, Helvetica;font-weight:700;}.cls-3{fill:#e6e7e8;}</style></defs><title>brasil</title><path class="cls-1" d="M102.47,40.27l0-.2a5,5,0,0,0,.14-.81,1.78,1.78,0,0,0-.23-1,.67.67,0,0,1-.06-.74.4.4,0,0,0,0-.23.11.11,0,0,0-.07-.06,1.07,1.07,0,0,0-.39,0,1.17,1.17,0,0,1-.42,0,1.81,1.81,0,0,1-.28-.11L101,37l-.17-.05a1.39,1.39,0,0,1-.61-.28,2.2,2.2,0,0,0-.35-.24l-.2-.12a1,1,0,0,1-.25-.28l-.12-.16-.24-.26a2.47,2.47,0,0,1-.63-.86,1.42,1.42,0,0,1-.07-.39,1,1,0,0,0-.36-.75,4.6,4.6,0,0,0-.53-.47c-.13-.1-.27-.21-.4-.33a3.36,3.36,0,0,1-.35-.38l-.06-.09a.52.52,0,0,0-.12-.14.7.7,0,0,0-.35,0h-.12a1,1,0,0,0-.3,0l-.23,0h-.21a1,1,0,0,0-.37,0,.12.12,0,0,1,0,.06.07.07,0,0,1-.11,0l-.09-.11c-.22-.26-.5-.59-.79-.63h0a.39.39,0,0,0-.28.14.49.49,0,0,1-.44.17.09.09,0,0,1-.06-.1.46.46,0,0,1,.07-.19c0-.06,0-.08,0-.11s-.2-.14-.28-.18l-.15-.08a3,3,0,0,1-.55-.52l-.06-.09c0-.06,0-.07-.11-.08a.69.69,0,0,0-.44.18,1.15,1.15,0,0,1-.35.18c-.21,0-.34-.1-.46-.24a1.06,1.06,0,0,0-.15-.15v.1a1,1,0,0,1-.15.52,1.23,1.23,0,0,1-.23.22c-.13.11-.26.22-.28.35v0a.1.1,0,0,1-.08.1h0a.09.09,0,0,1-.06-.09s0,0,0,0v-.11a1.5,1.5,0,0,1,.07-.5,2.55,2.55,0,0,1,.15-.33,1.66,1.66,0,0,0,.16-.36,2.11,2.11,0,0,0,.12-1.18.82.82,0,0,0-.56-.38,1.7,1.7,0,0,1-.32-.14l-.15-.08a1.7,1.7,0,0,1-.43-.3,1.82,1.82,0,0,1-.26-.39l-.1-.18-.05-.09c-.07-.12-.1-.18-.22-.2h-.14c-.15,0-.39,0-.42-.26a1.72,1.72,0,0,0-.48-.14,2.82,2.82,0,0,1-.37-.08,2.13,2.13,0,0,0-.86-.06,4.38,4.38,0,0,1-.48,0,3.67,3.67,0,0,0,0,.45c0,.4,0,.85-.31,1.06a1.08,1.08,0,0,1-.9.12l-.16,0a3,3,0,0,1-.25.44,3.13,3.13,0,0,0-.25.44.09.09,0,0,1-.07.06.08.08,0,0,1-.07,0,.72.72,0,0,1,.13-.65c.12-.23.16-.31,0-.41A1.07,1.07,0,0,0,83,28.3c-.42,0-.9,0-1-.62a2,2,0,0,1,0-.35c0-.21,0-.32-.14-.45a1,1,0,0,0-.46-.16A1.41,1.41,0,0,1,81,26.6a.11.11,0,0,1,0-.12l.08-.25a2.4,2.4,0,0,1,.53-1,1.87,1.87,0,0,1,1.11-.42.38.38,0,0,1,.08-.25c.13-.14.35-.07.57,0s.29.1.33.06a.54.54,0,0,0-.05-.25.8.8,0,0,1,.15-1,.52.52,0,0,0,0-.67l-.21-.29a4.29,4.29,0,0,1-.69-1.17,1.86,1.86,0,0,1-.09-.71c0-.11,0-.22,0-.34a2.9,2.9,0,0,0,0-.31,2.19,2.19,0,0,1,0-.56,3.74,3.74,0,0,1,.05-.37,1.51,1.51,0,0,0,0-.64,1.76,1.76,0,0,1,0-.29c0-.24,0-.39-.16-.44a.09.09,0,0,1,0-.1,1.4,1.4,0,0,1,0-.16l0-.08a1,1,0,0,1-.24,0,1.42,1.42,0,0,1-.45.65,2,2,0,0,0-.21.22,4.94,4.94,0,0,0-.52,1c-.28.64-.57,1.3-1.22,1.52a3.13,3.13,0,0,1-1.47,0H78.4c-.22,0-.45-.09-.52-.3a.4.4,0,0,1,0-.19.55.55,0,0,1-.23-.14l-.06-.06,0,0a.16.16,0,0,0-.09-.06.46.46,0,0,0-.15,0H77c-.19,0-.41,0-.48-.16a.31.31,0,0,1,0-.2l-.12,0c-.24-.06-.51-.14-.68.05s-.09.18,0,.37l0,0c.13.22.12.3-.07.52l0,0-.11,0a.68.68,0,0,1-.32,0h0a.8.8,0,0,1-.24-.1.6.6,0,0,0-.19-.09h0l-.12,0a.89.89,0,0,1-.39-.13l-.18-.08a.46.46,0,0,1-.11.25.44.44,0,0,1-.41.08.46.46,0,0,0-.43.09l0,0c-.15.18-.21.23-.46.13l-.08,0c-.17-.08-.29-.13-.44,0l-.12.13a.43.43,0,0,1-.39.21h0a1.53,1.53,0,0,1-.55-.27,1.24,1.24,0,0,1-.72-1.06c0-.09,0-.16,0-.24a.79.79,0,0,0,0-.42,1.13,1.13,0,0,0-.11-.21.84.84,0,0,1-.16-.53.85.85,0,0,1,.23-.45,1.1,1.1,0,0,0,.14-.19,1.19,1.19,0,0,0,.1-.4,2.43,2.43,0,0,1,.05-.29,1,1,0,0,1,.34-.51.67.67,0,0,0,.28-.54.75.75,0,0,0-.33-.64l-.08,0c-.14-.08-.35-.19-.29-.43a.47.47,0,0,1,.28-.28.47.47,0,0,0,.15-.1.66.66,0,0,0,0-.55.35.35,0,0,0-.21-.26.85.85,0,0,0-.72.22l-.05.05a1.11,1.11,0,0,1-.24.94.45.45,0,0,1-.55.12.43.43,0,0,0-.44,0l-.27.18c-.36.24-.7.47-.89.44h0l-.16,0-.57-.1a1.53,1.53,0,0,0-.08.28,1.1,1.1,0,0,1-.19.46.07.07,0,0,1-.09,0,1,1,0,0,1-.32-.36,1.1,1.1,0,0,0-.26-.31.54.54,0,0,0-.2-.08.48.48,0,0,1-.27-.13.49.49,0,0,1-.1-.25.78.78,0,0,0,0-.12s-.12,0-.18,0a.46.46,0,0,1-.32,0,2.73,2.73,0,0,1-.5-.34,1.09,1.09,0,0,0,.09.56.45.45,0,0,0,.17.19.46.46,0,0,1,.24.41,1.07,1.07,0,0,1-.08.3,1,1,0,0,0-.07.27.73.73,0,0,1,0,.17.35.35,0,0,0,0,.16,1.42,1.42,0,0,1,0,.81l0,.15H65a1.22,1.22,0,0,1,.59,0,.27.27,0,0,1,.17.27c0,.24-.37.4-.5.43-.32.08-.32.08-.48.34l0,.07a1,1,0,0,1-.31.31.68.68,0,0,0-.26.28l-.05.14c-.05.16-.1.22-.3.24a.9.9,0,0,1-.42-.09l-.23-.07a.83.83,0,0,1-.35.34,1.09,1.09,0,0,0-.24.18.77.77,0,0,0-.12.21c-.07.14-.15.33-.33.35h0l0,0a.1.1,0,0,1,0-.08.38.38,0,0,0-.05-.31c-.15-.18-.58-.06-.85,0l-.23.05a.06.06,0,0,1-.06,0,.11.11,0,0,1,0-.07c0-.32-.17-.37-.46-.43s-.39-.08-.44-.29A1.29,1.29,0,0,1,60,19a3,3,0,0,0,.08-.31s0-.09,0-.14a2.85,2.85,0,0,0,0-.5,1.31,1.31,0,0,1-.21-.27s-.08,0-.13.1a1,1,0,0,1-.19.19,1.07,1.07,0,0,1-.8.16.1.1,0,0,1-.05-.11c0-.06,0-.11,0-.16a.64.64,0,0,1-.68.17l-.44,0a5.16,5.16,0,0,1-.52-.06,1.22,1.22,0,0,1-.36-.19c-.11-.07-.31-.2-.36-.18a2.21,2.21,0,0,0-.11,1.1c.06.24.25.27.53.29H57a.07.07,0,0,1,.06.06,1.41,1.41,0,0,1,0,.63l0,.07a.09.09,0,0,1-.09.08l-.25,0a.87.87,0,0,0-.34,0l-.15,0a.65.65,0,0,1-.47,0,4.44,4.44,0,0,1,0,.54c0,.14,0,.28,0,.43a.7.7,0,0,0,.25.58l.09.1c.64.76.18,1.9-.23,2.91a6.49,6.49,0,0,0-.42,1.26c0,.14,0,.32-.06.52a4,4,0,0,1-.37,1.59.37.37,0,0,1-.38.18s0,.07-.06.07a3.06,3.06,0,0,0-.5.14,1.77,1.77,0,0,1-.95.13l-.28-.08a1.16,1.16,0,0,0-.67-.08c-.18.05-.26.19-.37.36l-.11.17a1.25,1.25,0,0,1-.75.48,1.24,1.24,0,0,0-.58.31A3.59,3.59,0,0,0,49.57,31l-.07.27a1.27,1.27,0,0,1-.55.76,1.65,1.65,0,0,0-.4.39c-.27.39-.11,1.19,0,1.67l0,.1a3.36,3.36,0,0,0,.25.69,2,2,0,0,1,.26,1.34,1.35,1.35,0,0,1-.06.17c0,.1,0,.1,0,.17a.6.6,0,0,0,.31.14.78.78,0,0,1,.39.19,1,1,0,0,1,.22.48,2,2,0,0,0,.08.26.64.64,0,0,0,.56.37h0c.56.09.83-.12,1.22-.6l.3-.35a.07.07,0,0,1,.08,0,.08.08,0,0,1,.05.07,4,4,0,0,1-.18,1.5c-.06.23-.11.46-.14.67s0,.16-.05.24c-.07.28-.11.46,0,.54s.15,0,.23-.11.16-.25.33-.25a1.19,1.19,0,0,1,.63.33l.14.11c.14-.15.36-.07.49,0h0a1.13,1.13,0,0,1,.48.3l.05.06c.12.13.19.19.31.15a.79.79,0,0,0,.31-.29c.14-.19.31-.41.57-.29l.15.09c.12.08.15.1.25,0A2.31,2.31,0,0,0,56,39.9a1.59,1.59,0,0,1,.23-.33l.1-.12a1.28,1.28,0,0,1,.37-.33L57,39a1.52,1.52,0,0,0,.47-.27l0,0a1.72,1.72,0,0,1,.65.12l.09,0a.61.61,0,0,0,.34,0,.65.65,0,0,0,.17-.1.5.5,0,0,1,.35-.13.36.36,0,0,1,.32.16.89.89,0,0,1,0,.59l0,.11c0,.15-.06.38-.19.46A.2.2,0,0,1,59,40l0,0a.5.5,0,0,0,.16.44l.12.16c.13.2.08.32-.06.52a.45.45,0,0,1-.17.16,2.61,2.61,0,0,1,.15.55,3.23,3.23,0,0,0,.08.34c0,.06,0,.13,0,.21a1,1,0,0,0,.09.32.37.37,0,0,0,.15.06l.11,0a.71.71,0,0,1,.5.75v.1a.51.51,0,0,0,0,.29.1.1,0,0,0,.09,0,.21.21,0,0,1,.09-.1c.18-.09.49.06.58.14a.69.69,0,0,0,.22.15l.08,0a.3.3,0,0,1,.2.27.89.89,0,0,1,.63.14l.06,0a2.55,2.55,0,0,1,.48.44.68.68,0,0,1,.08.18.39.39,0,0,0,.08.16s0,0,.06,0a.26.26,0,0,1,.12,0,.29.29,0,0,1,.26.1.47.47,0,0,1,0,.31,1.14,1.14,0,0,0,0,.18.23.23,0,0,0,0,.13s.09,0,.16,0a.6.6,0,0,1,.2,0h0a2,2,0,0,1,.55.21,2.7,2.7,0,0,0,.38.16l.12,0a.48.48,0,0,1,.26.08.3.3,0,0,1,.11.2.41.41,0,0,0,0,.08.8.8,0,0,0,.13.18.62.62,0,0,1,.19.48.55.55,0,0,1-.2.38.55.55,0,0,0-.12.15,1.18,1.18,0,0,0-.06.41c0,.05,0,.1,0,.15a1.18,1.18,0,0,1,0,.49.83.83,0,0,0,0,.36.43.43,0,0,0,.07.15.53.53,0,0,1,.1.25,2,2,0,0,1-.07.62v.06a1.52,1.52,0,0,1,0,.17.77.77,0,0,0-.05.36.51.51,0,0,0,.15.18l.09.09a1.08,1.08,0,0,0,.68.28l.3.06a6.69,6.69,0,0,0,1.12.23s.06,0,.06.06a.76.76,0,0,1-.15.65.44.44,0,0,0-.11.34,1.22,1.22,0,0,0,.09.26c0,.07.06.15.08.21a1,1,0,0,0,.19.41.45.45,0,0,0,.24.12l.12,0c.22.08.24.12.22.4a1.62,1.62,0,0,0,.08.61,2.44,2.44,0,0,1,.09.45,1.42,1.42,0,0,1-.25.75l0,.09a2.19,2.19,0,0,1-.36.75l-.13.2-.09.16a1.17,1.17,0,0,1-.2.3l-.05.05a.73.73,0,0,0-.16.19.56.56,0,0,1,0,.16,1.29,1.29,0,0,1,0,.41,1.55,1.55,0,0,0,0,.27,2.64,2.64,0,0,0,.09.66c0,.06,0,.12,0,.18a3.37,3.37,0,0,1-.06,1.3,1.91,1.91,0,0,1-.19.42c-.08.15-.22.41-.18.48a.74.74,0,0,0,.2.15,1,1,0,0,1,.18.13.74.74,0,0,0,.39.28,5.12,5.12,0,0,1,.69.22c.17.07.27.11.38,0a.07.07,0,0,1,.06,0,.45.45,0,0,1,.23.07.44.44,0,0,0,.14.05h.14a.37.37,0,0,1,.35.1,2,2,0,0,1,.45.81,1.18,1.18,0,0,1,0,.38,1.46,1.46,0,0,0,0,.25c0,.06,0,.11,0,.16a1,1,0,0,1,0,.59v0c-.08.25-.31.91-.13,1.1s.17.06.32,0A.9.9,0,0,1,70.1,66h0c.21,0,.29,0,.37-.29a.09.09,0,0,1,.07-.07.83.83,0,0,1,.66.63,1,1,0,0,1-.21.65,1.14,1.14,0,0,0-.2.48.06.06,0,0,1,0,0c0,.12,0,.24-.07.37a1.14,1.14,0,0,1-.19.48l-.06.1,0,.09a.59.59,0,0,1-.14.2.29.29,0,0,1-.11.06.18.18,0,0,0-.07,0,.35.35,0,0,0-.05.22.24.24,0,0,0,0,.1.42.42,0,0,1,.07-.1,1.24,1.24,0,0,1,.27-.16l.18-.09c.18-.11.32-.18.46.11l.07.13a1.37,1.37,0,0,1,.18.43,1.21,1.21,0,0,1-.07.51,2.05,2.05,0,0,0-.06.24,1.34,1.34,0,0,0,0,.38,1.78,1.78,0,0,1,0,.33.56.56,0,0,1-.16.35.66.66,0,0,0-.12.18.3.3,0,0,0,0,.09.49.49,0,0,1,0,.19.34.34,0,0,1-.11.14l0,0-.07.09a.85.85,0,0,1-.26.25.88.88,0,0,1-.27.08l-.18,0-.06,0a.3.3,0,0,1-.14.07.27.27,0,0,1-.13,0l-.05,0a.37.37,0,0,0-.29,0,1.07,1.07,0,0,0-.14.15.88.88,0,0,1-.25.22l-.35.15-.26.09a2.38,2.38,0,0,0-.37.14v.07a.64.64,0,0,1-.22.47l-.09.06a3.23,3.23,0,0,1-.61.38l-.12,0a1.14,1.14,0,0,0-.47.28.57.57,0,0,0-.1.2l0,.13a2,2,0,0,1-.26.42,1.24,1.24,0,0,1-.59.46.83.83,0,0,0-.47.41l0,0a1.33,1.33,0,0,0-.16.29h0a.07.07,0,0,1,.09.06l.14-.06a.75.75,0,0,1,.19-.08.4.4,0,0,1,.27,0l.11,0c.09,0,.11,0,.19-.07l.06,0,0,0c.1-.09.15,0,.2,0v0a1.25,1.25,0,0,1,.07.14.4.4,0,0,0,.12.17l.07,0a.33.33,0,0,1,.2.22.6.6,0,0,1,0,.28.59.59,0,0,0,0,.15.25.25,0,0,0,.09.16l.08.11a.3.3,0,0,1,0,.39l.17,0,.11,0a.16.16,0,0,0,.1,0l.06,0a.34.34,0,0,1,.38.13l.07.06.1.05a.42.42,0,0,1,.19.13.41.41,0,0,1,0,.19.31.31,0,0,0,0,.11.54.54,0,0,0,.3.18h.08c.19,0,.25.06.31.36a.88.88,0,0,0,.18.34l.05.07a2.23,2.23,0,0,0,.25.28,2.66,2.66,0,0,1,.26.3,1.15,1.15,0,0,0,.19.19,1,1,0,0,1,.27.32.55.55,0,0,1,0,.2.39.39,0,0,0,0,.11s0,0,.05.06a.25.25,0,0,1,.1,0,.33.33,0,0,1,.11.16.32.32,0,0,0,0,.08l.07.05a.28.28,0,0,1,.17.21.23.23,0,0,1,0,.15.15.15,0,0,1-.13.06h0a.44.44,0,0,0-.12.08l-.11.08a.41.41,0,0,1-.16.05.23.23,0,0,0-.13,0,.6.6,0,0,0-.09.3v0a.13.13,0,0,1,0,.07s0,0,0,.08c0,.29,0,.63.19.78l.07,0h0v0a.32.32,0,0,0,.22,0,.38.38,0,0,0,.11-.16.74.74,0,0,1,.11-.18l.16-.16a.87.87,0,0,0,.21-.23,2.62,2.62,0,0,1,.27-.41,1.21,1.21,0,0,0,.1-.18,1.44,1.44,0,0,1,.1-.17,1.16,1.16,0,0,1,.14-.16.72.72,0,0,0,.15-.19,1.08,1.08,0,0,0,.06-.21,1,1,0,0,1,.11-.31h0a.12.12,0,0,1,0-.08,1.38,1.38,0,0,0,.14-.45,2.11,2.11,0,0,1,.13-.45l0-.06a1.82,1.82,0,0,1,.4-.63.65.65,0,0,1,.4-.09.57.57,0,0,0,.3-.05.61.61,0,0,0,.19-.31c0-.09.07-.17.11-.26l.12-.3a1.73,1.73,0,0,0,.12-.53,1,1,0,0,0,0-.13.8.8,0,0,1,0-.34.11.11,0,0,1,0-.06.06.06,0,0,1,.06,0,1.75,1.75,0,0,1,.51.53l.16.2a1.16,1.16,0,0,0,.27.24h0a.39.39,0,0,1,.17.19,1.38,1.38,0,0,0,.47-.65l.06-.12a1,1,0,0,1,.2-.26.6.6,0,0,0,.17-.24l0-.07a.42.42,0,0,1,.12-.24.29.29,0,0,0,.09-.13l0-.07a.5.5,0,0,1,.27-.25.53.53,0,0,0,.16-.11.35.35,0,0,0,0-.09.7.7,0,0,1,.1-.15.33.33,0,0,1,.19-.07l.08,0c.08,0,.11-.08.16-.17L77,75.8l.08-.14a.71.71,0,0,1,.29-.34l0,0,0,0,0-.08c0-.06,0-.13,0-.2v-.11s0,0,0,0a.48.48,0,0,1,0-.13.4.4,0,0,1,.05-.09v0a1.11,1.11,0,0,0,0-.15.69.69,0,0,1,.11-.34A.57.57,0,0,1,78,74a.49.49,0,0,0,.12-.11s0-.07,0-.15v-.1a.76.76,0,0,1,0-.14.34.34,0,0,0,0-.08.32.32,0,0,0,0-.07l0-.08a2.75,2.75,0,0,1,0-.48.56.56,0,0,1,.08-.23l0-.07a1,1,0,0,0,.06-.27.58.58,0,0,0,0-.17.58.58,0,0,1,0-.31.29.29,0,0,1,.1-.14l0,0a.38.38,0,0,0,0,0,.47.47,0,0,1,0-.13.61.61,0,0,1,.06-.1l0,0a1,1,0,0,0,.07-.21,1.18,1.18,0,0,1,.1-.27l0,0a.28.28,0,0,1-.11-.14.61.61,0,0,1,0-.49.4.4,0,0,1,.2-.18l.07,0,.07-.09a.37.37,0,0,1,.17-.15c.1,0,.19,0,.28.11a.4.4,0,0,0,.14.09s0,0,0,0l.05-.07.15-.14.07-.06.11-.1a1.48,1.48,0,0,1,.38-.3l.09,0a.41.41,0,0,0,.16-.08l.17-.16.16-.15.13-.12a.64.64,0,0,1,.39-.25h.13a.42.42,0,0,0,.15,0l.24-.08h0l.12-.07a.55.55,0,0,1,.17-.09.07.07,0,0,1,.06,0h0a.21.21,0,0,1,.09-.12.09.09,0,0,1,.09,0,.09.09,0,0,1,0,.06h0a.14.14,0,0,1,.1-.07.22.22,0,0,1,.12,0l0,0,.24,0a.37.37,0,0,1,.21.07.39.39,0,0,1,.08.17h0a.18.18,0,0,0,.06-.09.54.54,0,0,0,0-.1.43.43,0,0,1,0-.24c.05-.1.14-.28.3-.29a.47.47,0,0,1,.16,0,.17.17,0,0,0,.18,0,.49.49,0,0,0,.08-.09l.08-.11.06-.05a.26.26,0,0,0,.09-.12.38.38,0,0,1,.2-.27.46.46,0,0,0,.16-.15l0,0a.5.5,0,0,1,.41-.2.66.66,0,0,0,.19,0,.25.25,0,0,1,.26,0l.09.05a.24.24,0,0,0,.14,0,.37.37,0,0,1,.22,0l.12.05a.38.38,0,0,0,.18.06h.05c.13,0,.33,0,.4.16a.58.58,0,0,1,0,.15C87,67,87,67,87,67s.06,0,.11,0l.1-.05a.41.41,0,0,1,.19,0h.08a.46.46,0,0,1,.41.13s0,0,.08,0a.23.23,0,0,1,.15,0,.3.3,0,0,1,.11.08l0,0a2.1,2.1,0,0,1,.26-.78,1.13,1.13,0,0,1,.35-.39l.07,0,.09-.07.06-.09a.49.49,0,0,1,.17-.17.05.05,0,0,1,.06,0,.08.08,0,0,1,0,.05.07.07,0,0,0,.08,0s0,0,0,0a.31.31,0,0,1,.14-.14.57.57,0,0,1,.15,0c.07,0,.14,0,.17-.06a.71.71,0,0,0,.05-.3,1.22,1.22,0,0,1,0-.26c0-.09,0-.18.05-.27a3,3,0,0,1,.07-.31,1.06,1.06,0,0,1,.08-.2.57.57,0,0,0,.07-.22.49.49,0,0,1,.29-.48A.66.66,0,0,0,91,63.2a1.83,1.83,0,0,1,.2-.2l.12-.12a1.44,1.44,0,0,0,.16-.21l.12-.18c.08-.11.17-.2.26-.29l.12-.13a.66.66,0,0,0,.1-.15.78.78,0,0,1,.14-.21,1.42,1.42,0,0,0,.29-.75,2.83,2.83,0,0,0,0-.44c0-.05,0-.1,0-.16a3.28,3.28,0,0,1,.16-.8l0-.14a1.11,1.11,0,0,1,.17-.44.55.55,0,0,1,.18-.14.35.35,0,0,0,.13-.11l0,0a.21.21,0,0,1,.19-.13h.14c.1,0,.1,0,.13-.19l0-.1a3,3,0,0,1,.08-.37l.1-.3.08-.24a3,3,0,0,0,.1-.48,2.8,2.8,0,0,1,.14-.62,2.38,2.38,0,0,1,.2-.37,2.38,2.38,0,0,0,.16-.3,2.14,2.14,0,0,0,.12-.43,3,3,0,0,1,.07-.31l0-.08c.08-.25.11-.34,0-.54l0,0a.32.32,0,0,1-.08-.2.85.85,0,0,1,0-.27s0-.06,0-.1a1.6,1.6,0,0,0,0-.41v-.11a1.7,1.7,0,0,1,.07-.48,2.65,2.65,0,0,0,.06-.29c0-.09,0-.19,0-.28s0-.27.05-.4,0-.13,0-.2,0-.23,0-.34a5.7,5.7,0,0,1,.14-.69c0-.13.06-.25.09-.38a1.07,1.07,0,0,0,0-.11.69.69,0,0,1,0-.25.09.09,0,0,1,.1,0,1.23,1.23,0,0,1,.29.09,1.23,1.23,0,0,0,.25.08l.22,0,.22,0c.07,0,.17,0,.22,0a.91.91,0,0,0,.18-.24l.08-.12a2.18,2.18,0,0,0,.39-.78.89.89,0,0,1,.25-.47.6.6,0,0,0,.09-.13.75.75,0,0,1,.12-.17.58.58,0,0,1,.15-.09.82.82,0,0,0,.23-.14l0,0a.11.11,0,0,1,0-.08,1,1,0,0,1,.39-.8,3.73,3.73,0,0,1,1-.58,1.06,1.06,0,0,0,.45-.37,1.91,1.91,0,0,0,.13-.2l.06-.1.11-.13.09-.11s0-.06,0-.13a.76.76,0,0,1,0-.14.68.68,0,0,1,.11-.32l0-.08a.08.08,0,0,1,.08-.05h0a.89.89,0,0,0,.74-.25,2.54,2.54,0,0,0,.71-.79,1.85,1.85,0,0,0,.1-.6,1.82,1.82,0,0,1,.15-.76,2.81,2.81,0,0,0,.19-1.31A2.67,2.67,0,0,1,102.47,40.27Z"/><text class="cls-2" transform="translate(49.59 186.31)">Brasil</text><ellipse class="cls-3" cx="75" cy="128.12" rx="46.57" ry="4.7"/></svg>
