<svg xmlns="http://www.w3.org/2000/svg" viewBox="0 0 145.17 42.75"><defs><style>.cls-1{fill:#5770b4;}.cls-2{fill:#343e5d;}</style></defs><title>fabricas</title><g id="Layer_2" data-name="Layer 2"><g id="_ÎÓÈ_1" data-name="—ÎÓÈ_1"><path class="cls-1" d="M8.31,0V14.55L16.62,19V10.69L33.25,19V10.69L49.87,19V42.75H0V0Zm35,26.72H35v7.12h8.31Zm-14.25,0H20.78v7.12h8.31Zm-14.25,0H6.53v7.12h8.31Z"/><path class="cls-2" d="M54.09,0V14.55L62.41,19V10.69L79,19V10.69L95.65,19V42.75H45.78V0Zm35,26.72H80.81v7.12h8.31Zm-14.25,0H66.56v7.12h8.31Zm-14.25,0H52.31v7.12h8.31Z"/><path class="cls-1" d="M103.62,0V14.55L111.93,19V10.69L128.55,19V10.69L145.17,19V42.75H95.3V0Zm35,26.72h-8.31v7.12h8.31Zm-14.25,0h-8.31v7.12h8.31Zm-14.25,0h-8.31v7.12h8.31Z"/></g></g></svg>
