<svg xmlns="http://www.w3.org/2000/svg" viewBox="0 0 54.11 54.05"><defs><style>.cls-1{fill:#5770b4;}</style></defs><title>leche</title><g id="Layer_2" data-name="Layer 2"><g id="_ÎÓÈ_1" data-name="—ÎÓÈ_1"><path class="cls-1" d="M49.65,4H29.49V.58A.58.58,0,0,1,30.08,0h19a.58.58,0,0,1,.58.58V4ZM33.95,14.38V54.05H53.52a.58.58,0,0,0,.58-.58V14.38ZM30.08,5.67h0l3.09,5.62a6.59,6.59,0,0,1,.55,1.45H53.8a4.06,4.06,0,0,0-.27-.65h0L50.44,6.48a1.83,1.83,0,0,0-1.37-.81h-19ZM32,12.75a4.13,4.13,0,0,0-.27-.65L28.65,6.54l-3.18,5.58a3.9,3.9,0,0,0-.27.62Zm-7.09,1.63V53.47a.59.59,0,0,0,.58.58h6.81V14.38Z"/><path class="cls-1" d="M17.55,18.59H3.27V16.17a.41.41,0,0,1,.41-.41H17.14a.41.41,0,0,1,.41.41v2.42ZM6.42,25.94V54.05H20.29a.41.41,0,0,0,.41-.41V25.94ZM3.68,19.77h0l2.19,4a4.67,4.67,0,0,1,.39,1H20.49a2.87,2.87,0,0,0-.19-.46h0l-2.19-4a1.3,1.3,0,0,0-1-.57H3.68Zm1.34,5a2.93,2.93,0,0,0-.19-.46L2.67,20.39l-2.25,4a2.76,2.76,0,0,0-.19.44ZM0,25.94v27.7a.42.42,0,0,0,.41.41H5.24V25.94Z"/></g></g></svg>
