<svg xmlns="http://www.w3.org/2000/svg" viewBox="0 0 39.56 36.66"><defs><style>.cls-1{fill:#5770b4;}</style></defs><title>like</title><g id="Layer_2" data-name="Layer 2"><g id="_ÎÓÈ_1" data-name="—ÎÓÈ_1"><path class="cls-1" d="M35.29,12.93H26.41A.9.9,0,0,1,25.5,12V3.8C25.5.09,21.6-.1,19.72,0a.91.91,0,0,0-.85,1c.55,10.65-4.81,14.06-7.61,15.09a2.44,2.44,0,0,0-1.58,2.31V31.79c0,4.87,4.87,4.87,4.87,4.87h17c2.43,0,4.87-1.83,4.44-3.53a2.2,2.2,0,0,1,.18-1.4l.73-1.34a1.9,1.9,0,0,0,0-1.89A2,2,0,0,1,37,26.56L38,25a1.78,1.78,0,0,0,.24-1.46l-.37-1.64A2,2,0,0,1,38.34,20l.61-.61a2.06,2.06,0,0,0,.55-1.16C40.16,13.78,35.9,13,35.29,12.93Z"/><path class="cls-1" d="M6.33,15.36H2.13A2.12,2.12,0,0,0,0,17.49v17A2.12,2.12,0,0,0,2.13,36.6h4.2a2.12,2.12,0,0,0,2.13-2.13v-17A2.16,2.16,0,0,0,6.33,15.36Z"/></g></g></svg>
