<svg id="Layer_1" data-name="Layer 1" xmlns="http://www.w3.org/2000/svg" viewBox="0 0 150 200"><defs><style>.cls-1{fill:#5373b8;}.cls-2{fill:#e6e7e8;}.cls-3{font-size:17.98px;fill:#2e3d5c;font-family:Helvetica-Bold, Helvetica;font-weight:700;}</style></defs><title>mexico</title><path class="cls-1" d="M102.69,106.07a5.69,5.69,0,0,1,1.69-2,3.77,3.77,0,0,1,2-.2c1,.07,2,.14,2.51-.95a1.76,1.76,0,0,0,.23-1.11c-.12-.57-.74-.92-1.35-1.26a3.4,3.4,0,0,1-1.37-1.12,3.34,3.34,0,0,1-.34-1.25.31.31,0,0,1,.07-.23.18.18,0,0,1,.19-.07,1.57,1.57,0,0,1,.52.32c.25.19.48.38.7.28s.25-.26.18-.78a3.08,3.08,0,0,1,0-.38,1.66,1.66,0,0,1,.32-1.14,1.19,1.19,0,0,1,1.14-.32c.82.11,1.67.19,2.49.27l.71.07a6.24,6.24,0,0,1,1.32.33,6.47,6.47,0,0,0,1.05.29,2.68,2.68,0,0,0,0-.32,3.3,3.3,0,0,1,.09-.65.23.23,0,0,1,.23-.19c.25,0,.46.26.65.49s.34.41.52.39.74-.61,1-1l.21-.28c.13-.15.24-.31.34-.46a3.38,3.38,0,0,1,.83-.93,7.12,7.12,0,0,1,1.51-.79.17.17,0,0,1,.18,0,.27.27,0,0,1,.06.21,4.47,4.47,0,0,1-.27,1.08,5.44,5.44,0,0,0-.18.62l.3,0s0,0,0,0a.25.25,0,0,1,.16-.22c.35-1,.62-2.09.91-3.19l.39-1.5A12.52,12.52,0,0,1,124,85.91l.46-.63a4.77,4.77,0,0,0,1.15-2.71,1.39,1.39,0,0,0-.64-1c-1.3-.94-3.13-.9-4.73-.87h-.39c-3,0-7,.12-8.28,4.24-.14.47-.26,1-.37,1.43a8.43,8.43,0,0,1-1.79,4.09A5.38,5.38,0,0,1,106,92c-.57,0-1.06-.15-1.58-.12a7,7,0,0,0-1.56.37l-.28.09a5.72,5.72,0,0,1-2.1.15,8.05,8.05,0,0,0-1.31,0c-.3,0-.6.09-.9.14a3.23,3.23,0,0,1-2.72-.28,6.86,6.86,0,0,1-1.09-1,3.88,3.88,0,0,0-1.62-1.27l0,0a3.32,3.32,0,0,1-2.64-2.22,15.15,15.15,0,0,1-.61-2.45A15.32,15.32,0,0,0,89,83.06c-.19-.51-.4-1-.6-1.49a17.19,17.19,0,0,1-1.05-3c-.22-1-.37-2-.51-3-.1-.68-.19-1.35-.31-2a11.2,11.2,0,0,1-.16-4.38A36.76,36.76,0,0,1,87.53,65l.24-.73c.15-.46.29-.94.42-1.41s.33-1.14.52-1.7.37-1.2.54-1.85l.11-.44a10.13,10.13,0,0,1,1.07-2.32l.3-.55a2.4,2.4,0,0,1-.67-.48,2.23,2.23,0,0,0-.23-.2,5,5,0,0,0-.71-.39,5.61,5.61,0,0,1-.8-.45A2.18,2.18,0,0,0,87.27,54h0A2.51,2.51,0,0,1,85.81,53l-.23-.27a8,8,0,0,0-.93-.91l-.14-.1a1.08,1.08,0,0,1-.42-.4,3.37,3.37,0,0,1-.17-1.4c0-.19,0-.37,0-.52s0-.56,0-.85a10.2,10.2,0,0,0-.07-1.16,4.87,4.87,0,0,0-1-2.09A9.44,9.44,0,0,1,82,44.16l-.23-.43a5.48,5.48,0,0,1-.64-1.47c-.07-.31-.12-.62-.18-.92a9.32,9.32,0,0,0-.33-1.43,8.55,8.55,0,0,0-2.09-3.37l-.19-.2A3.44,3.44,0,0,0,77,35.25a2.27,2.27,0,0,0-.72,0,3.46,3.46,0,0,1-.68,0c-1.32-.27-2.11.07-2.52,1.05-.06.14-.12.31-.18.48a3.26,3.26,0,0,1-.77,1.43c-.46.38-.8,0-1.05-.26a1.85,1.85,0,0,0-.26-.25,3.46,3.46,0,0,0-.87-.39,2.84,2.84,0,0,1-1.33-.76,12.44,12.44,0,0,1-1.25-1.7l-.47-.71a5.13,5.13,0,0,1-.66-2,5.47,5.47,0,0,0-.55-1.75,12.91,12.91,0,0,0-1.51-1.95,12.78,12.78,0,0,1-1.68-2.22l-.26-.49c-.5-.95-.9-1.7-1.89-2a16.67,16.67,0,0,0-2.22-.41,16.65,16.65,0,0,1-2.37-.45c0,.14,0,.29,0,.44,0,.76-.1,1.72-.71,2.1a1.75,1.75,0,0,1-1.34,0l-.32-.08c-.83-.15-1.66-.27-2.44-.38-.45-.06-.91-.11-1.37-.16a11.09,11.09,0,0,1-5.07-1.34A14.83,14.83,0,0,0,41.29,22a12,12,0,0,1-4-2A12.65,12.65,0,0,1,36.26,19a11.65,11.65,0,0,0-1.11-1.1,3.81,3.81,0,0,0-.9-.49,2.75,2.75,0,0,1-1.34-.93c-.17-.26-.31-.52-.45-.77A2.89,2.89,0,0,0,31,14.12a1.43,1.43,0,0,0-1,.19,3.12,3.12,0,0,1-.77.25,7.93,7.93,0,0,1-1.83-.06l-.53-.05a10.59,10.59,0,0,1-2.2-.52l-.06,0c-.05.3-.1.61-.13.93l-.05.47a1.21,1.21,0,0,0,.33,1.21l.15.19a2.47,2.47,0,0,1,.48,1.74,4.26,4.26,0,0,1-.2.9,2.54,2.54,0,0,0-.18.95c0,.54.61,1.72,1,1.78h0a.19.19,0,0,1,.12.08.29.29,0,0,1,0,.19c0,.15,0,.31-.07.47a3.56,3.56,0,0,0-.08.83,1.32,1.32,0,0,0,.25.64,2.8,2.8,0,0,1,.23.44,3.27,3.27,0,0,1,.2,1.09,1.66,1.66,0,0,0,.33,1.09l.21.26a21.78,21.78,0,0,1,1.32,1.74c.17.25.31.52.45.78a6.37,6.37,0,0,0,.65,1,10,10,0,0,1,1,1.43,22.19,22.19,0,0,1,1.15,2.46.32.32,0,0,1,0,.23.23.23,0,0,1-.15.14,4.83,4.83,0,0,0-2.47,2c-.52.77-.19,1.23.44,2a6,6,0,0,1,.53.7,17.1,17.1,0,0,0,2.32,2.79l.75.79A18.1,18.1,0,0,0,36,45.78l.13.09a1.94,1.94,0,0,1,1.09,1.63,9.15,9.15,0,0,1-.32,3c-.06.27-.12.54-.18.82a5.56,5.56,0,0,1-.18.63,2.91,2.91,0,0,0-.22,1c.11.62,1,1.19,1.69,1.61a7.76,7.76,0,0,1,.72.49,11.28,11.28,0,0,1,3.46,6.31c.13.67.21.72.78.84a9.31,9.31,0,0,1,.94.26l.43.13c.43-1.24-.12-2.29-.83-3.43A6.6,6.6,0,0,1,42.58,57c0-.11-.05-.21-.08-.32a3.34,3.34,0,0,1-.13-.7,2.42,2.42,0,0,1,.07-.63,1.89,1.89,0,0,0,.06-.46c0-.09,0-.1,0-.1s-.23.07-.77.79l-.09.12a.19.19,0,0,1-.23.07.24.24,0,0,1-.12-.23,10.35,10.35,0,0,0,0-1.1,7.63,7.63,0,0,1,0-1.84,3.6,3.6,0,0,1,.45-1.24l.08-.16a1,1,0,0,0-.2-.13,1,1,0,0,1-.42-.37,1.49,1.49,0,0,1-.16-.84,1.64,1.64,0,0,0,0-.39,1,1,0,0,0-.29-.55,1.27,1.27,0,0,1-.32-1.14l0-.15a2.41,2.41,0,0,0-.28-1.94,4.28,4.28,0,0,1-.47-1.23,3.34,3.34,0,0,0-.42-1.08c-.09-.11-.16-.12-.29-.14a1.07,1.07,0,0,1-.36-.1,1.79,1.79,0,0,1-.71-1l-.1-.23c-.18-.41-.38-.8-.58-1.19s-.46-.91-.67-1.39a9.76,9.76,0,0,1-.79-3,6.74,6.74,0,0,0-.3-1.25c-.07-.23-.14-.45-.2-.7a3.6,3.6,0,0,1,.13-2.78,1.53,1.53,0,0,0-.54-2.1.24.24,0,0,1-.05-.09l-.47-.17A5.89,5.89,0,0,1,32,28.15a6.86,6.86,0,0,1-1.56-3.68,7.83,7.83,0,0,1,.25-4.18,2.66,2.66,0,0,1,1.16-1.65,1,1,0,0,1,1.08.21l.21.16a15.43,15.43,0,0,0,3,1.94c1.54.71,1.81,2.17,1.73,4.14v.18a13.14,13.14,0,0,0,.41,4.86c.28.84.52,1.72.75,2.56s.43,1.59.68,2.36a5.35,5.35,0,0,0,1.49,2.19l.36.37.39.44c.56.65,1.14,1.31,1.91,1.24a2.71,2.71,0,0,0,.57-.14.16.16,0,0,1,.18.05.27.27,0,0,1,.06.22,7.07,7.07,0,0,0,.21,3.52,3.5,3.5,0,0,0,1.77,1.65,7.66,7.66,0,0,1,.92.58,2.51,2.51,0,0,1,.66.91l.17.31a1.43,1.43,0,0,1-.06,2c-.74,1-1,1.46-.33,2.38l.26.38a4.53,4.53,0,0,0,1.44,1.57,4.88,4.88,0,0,0,.49.21,2.18,2.18,0,0,1,1.33,1,2.69,2.69,0,0,1,.16,1.25,2.62,2.62,0,0,0,.11,1,2.24,2.24,0,0,0,.6.74,2.66,2.66,0,0,1,.76,1c.11.3.21.58.29.85a3.25,3.25,0,0,0,1,1.8l.25.2a4.8,4.8,0,0,1,1.53,1.69,18.6,18.6,0,0,1,1,2.52l.31.89a12.33,12.33,0,0,0,.78,1.64,6.76,6.76,0,0,1,1.16,4.13,4,4,0,0,1-.9,2c-.12.16-.24.33-.36.51a3.87,3.87,0,0,0-.39,2c0,.2,0,.4,0,.6a.32.32,0,0,1-.07.19.2.2,0,0,1-.15.07c-.24,0-.39,0-.46.19-.25.55.44,2.15.79,2.72A9.22,9.22,0,0,1,58.45,81c.38.85.71,1.59,1.5,1.82,1.22.36,1.88,1.44,2.59,2.58l.18.3c.19.3.35.59.5.87.5.93.9,1.66,1.88,2,.24.07.48.13.71.18a4,4,0,0,1,1.47.54c.21.15.43.28.65.42a10.52,10.52,0,0,1,1,.67h0l.14.13.14.11s0,0,0,0c.52.49,1,1,1.5,1.54A18.73,18.73,0,0,0,73,94.35a18,18,0,0,0,3.27,1.87c.59.28,1.19.57,1.79.9a10,10,0,0,1,2.08,1.69,11.58,11.58,0,0,0,1.77,1.5c.36.22.7.46,1.05.69a8.54,8.54,0,0,0,3.76,1.8,5.51,5.51,0,0,0,3.6-1.05l.72-.4a2.72,2.72,0,0,1,2.58-.33,9.05,9.05,0,0,1,1.84,1.44c.31.29.61.57.92.82l.43.34a10.9,10.9,0,0,1,2.63,2.64,5.44,5.44,0,0,1,.32.65c.1.22.2.45.32.65a.17.17,0,0,1,.17.09l.14.29a.51.51,0,0,0,.18.1h0C101.32,108.15,102,107.1,102.69,106.07Z"/><ellipse class="cls-2" cx="75" cy="128.12" rx="42.05" ry="4.24"/><ellipse class="cls-2" cx="75" cy="128.12" rx="42.05" ry="4.24"/><text class="cls-3" transform="translate(44.53 185.46)">México</text></svg>
