<svg xmlns="http://www.w3.org/2000/svg" viewBox="0 0 155.95 82.43"><defs><style>.cls-1{fill:#5770b4;}.cls-2{fill:#343e5d;}</style></defs><title>plantas</title><g id="Layer_2" data-name="Layer 2"><g id="_ÎÓÈ_1" data-name="—ÎÓÈ_1"><path class="cls-1" d="M155.75,28.91l.05-.22a5.39,5.39,0,0,0,.15-.88,1.93,1.93,0,0,0-.24-1.06.72.72,0,0,1-.06-.8.43.43,0,0,0,0-.25.11.11,0,0,0-.08-.06,1.16,1.16,0,0,0-.42,0,1.27,1.27,0,0,1-.45,0,2,2,0,0,1-.3-.12l-.24-.1-.18-.05a1.5,1.5,0,0,1-.66-.31,2.39,2.39,0,0,0-.38-.26l-.21-.13a1.07,1.07,0,0,1-.27-.3l-.13-.17-.26-.28a2.67,2.67,0,0,1-.68-.93,1.53,1.53,0,0,1-.08-.42,1,1,0,0,0-.39-.81,5,5,0,0,0-.58-.51c-.14-.11-.29-.23-.43-.35a3.64,3.64,0,0,1-.38-.41l-.07-.09a.56.56,0,0,0-.13-.15.76.76,0,0,0-.37,0h-.13a1.11,1.11,0,0,0-.33,0l-.25,0h-.23a1.08,1.08,0,0,0-.4.05.13.13,0,0,1,0,.07.07.07,0,0,1-.12,0l-.1-.12c-.24-.28-.54-.64-.86-.68h0a.42.42,0,0,0-.3.15.53.53,0,0,1-.47.18.1.1,0,0,1-.06-.11.5.5,0,0,1,.08-.21c0-.07,0-.09,0-.12s-.22-.15-.3-.19l-.16-.09a3.26,3.26,0,0,1-.59-.56l-.07-.1c0-.06-.05-.07-.12-.08a.75.75,0,0,0-.48.19,1.24,1.24,0,0,1-.38.2c-.23.05-.37-.11-.49-.26a1.15,1.15,0,0,0-.16-.16v.11a1.07,1.07,0,0,1-.16.57,1.33,1.33,0,0,1-.25.24c-.14.12-.29.24-.3.38v0a.11.11,0,0,1-.09.11h0a.09.09,0,0,1-.07-.1s0,0,0,0v-.12a1.62,1.62,0,0,1,.07-.54,2.76,2.76,0,0,1,.17-.36,1.8,1.8,0,0,0,.17-.39,2.28,2.28,0,0,0,.13-1.28.89.89,0,0,0-.6-.42,1.83,1.83,0,0,1-.35-.15l-.16-.09a1.84,1.84,0,0,1-.46-.32,2,2,0,0,1-.28-.42l-.11-.19-.05-.1c-.08-.13-.11-.19-.24-.21h-.15c-.16,0-.42,0-.46-.28a1.86,1.86,0,0,0-.52-.15,3,3,0,0,1-.4-.09,2.3,2.3,0,0,0-.93-.07,4.74,4.74,0,0,1-.51,0,4,4,0,0,0,0,.48c0,.43-.05.91-.33,1.14a1.17,1.17,0,0,1-1,.13l-.18,0a3.29,3.29,0,0,1-.27.47,3.39,3.39,0,0,0-.27.48.1.1,0,0,1-.07.06.09.09,0,0,1-.08,0,.78.78,0,0,1,.14-.7c.14-.25.17-.33.05-.44a1.16,1.16,0,0,0-.77-.16c-.46,0-1,0-1.05-.67a2.14,2.14,0,0,1,0-.38c0-.22,0-.35-.16-.48a1.13,1.13,0,0,0-.5-.17,1.52,1.52,0,0,1-.49-.15.11.11,0,0,1,0-.13l.09-.27a2.6,2.6,0,0,1,.57-1.11,2,2,0,0,1,1.2-.46.41.41,0,0,1,.08-.27c.14-.15.38-.07.62,0s.32.11.36.07a.59.59,0,0,0-.06-.27.86.86,0,0,1,.17-1,.56.56,0,0,0,0-.73l-.23-.31a4.65,4.65,0,0,1-.74-1.27,2,2,0,0,1-.09-.76c0-.12,0-.24,0-.37a3.14,3.14,0,0,0,0-.33,2.36,2.36,0,0,1,0-.61,4,4,0,0,1,.06-.4,1.64,1.64,0,0,0,0-.69,1.9,1.9,0,0,1,0-.31c0-.26,0-.42-.17-.48a.1.1,0,0,1,0-.11,1.51,1.51,0,0,1,0-.17l0-.08A1.12,1.12,0,0,1,134,4a1.54,1.54,0,0,1-.49.71,2.19,2.19,0,0,0-.22.24A5.34,5.34,0,0,0,132.71,6c-.3.69-.62,1.4-1.32,1.64a3.39,3.39,0,0,1-1.59,0h-.09c-.24,0-.49-.1-.56-.32a.43.43,0,0,1,0-.2.6.6,0,0,1-.25-.16l-.07-.06-.05,0a.17.17,0,0,0-.1-.06.5.5,0,0,0-.16,0h-.26c-.21,0-.44,0-.52-.18a.34.34,0,0,1,0-.22l-.13,0c-.26-.07-.55-.15-.73.05s-.09.2,0,.4l0,0c.14.24.13.32-.07.57l0,0-.11,0a.74.74,0,0,1-.34,0h0a.87.87,0,0,1-.26-.11.65.65,0,0,0-.21-.09h0l-.13,0a1,1,0,0,1-.42-.14l-.19-.09a.5.5,0,0,1-.12.27.47.47,0,0,1-.44.09.5.5,0,0,0-.47.1l0,.05c-.17.19-.23.25-.5.14l-.09,0c-.18-.08-.31-.14-.47,0l-.13.14a.46.46,0,0,1-.42.23h-.05a1.65,1.65,0,0,1-.6-.29A1.35,1.35,0,0,1,121,6.61c0-.09,0-.18,0-.26a.86.86,0,0,0,0-.46,1.23,1.23,0,0,0-.11-.23.91.91,0,0,1-.18-.58A.92.92,0,0,1,121,4.6a1.19,1.19,0,0,0,.15-.2,1.29,1.29,0,0,0,.11-.43,2.62,2.62,0,0,1,.05-.31,1.13,1.13,0,0,1,.37-.55.72.72,0,0,0,.3-.59.81.81,0,0,0-.36-.69l-.09-.05c-.15-.08-.38-.21-.32-.47a.51.51,0,0,1,.3-.3.51.51,0,0,0,.16-.11.72.72,0,0,0,0-.6.38.38,0,0,0-.23-.29.92.92,0,0,0-.78.24l-.06.06a1.2,1.2,0,0,1-.26,1,.49.49,0,0,1-.6.13.46.46,0,0,0-.47,0l-.29.19c-.39.26-.75.51-1,.48h0l-.17,0-.62-.11a1.66,1.66,0,0,0-.09.3,1.19,1.19,0,0,1-.2.5.08.08,0,0,1-.1,0,1.13,1.13,0,0,1-.35-.39,1.19,1.19,0,0,0-.28-.34.58.58,0,0,0-.22-.08.52.52,0,0,1-.3-.14.53.53,0,0,1-.11-.27.85.85,0,0,0,0-.13s-.14,0-.2,0a.49.49,0,0,1-.35,0,3,3,0,0,1-.54-.37,1.18,1.18,0,0,0,.1.6.49.49,0,0,0,.19.2.49.49,0,0,1,.25.45,1.16,1.16,0,0,1-.08.33,1.06,1.06,0,0,0-.08.29.79.79,0,0,1,0,.18.38.38,0,0,0,0,.17,1.54,1.54,0,0,1,0,.87c0,.05,0,.11,0,.16h.3a1.32,1.32,0,0,1,.64.05.29.29,0,0,1,.18.3c0,.26-.41.43-.54.47-.34.09-.34.09-.52.37l0,.07a1.07,1.07,0,0,1-.33.33.73.73,0,0,0-.28.3,1.32,1.32,0,0,0-.06.15c-.05.17-.11.24-.33.26a1,1,0,0,1-.45-.09l-.25-.08a.9.9,0,0,1-.38.37,1.17,1.17,0,0,0-.25.19.83.83,0,0,0-.13.23c-.07.16-.17.35-.35.38h0l0,0a.1.1,0,0,1,0-.08.41.41,0,0,0-.05-.33c-.16-.2-.63-.07-.92,0l-.25.06a.06.06,0,0,1-.06,0,.11.11,0,0,1,0-.08c0-.34-.18-.4-.5-.47s-.43-.09-.48-.31a1.4,1.4,0,0,1,.1-.53,3.25,3.25,0,0,0,.08-.33c0-.05,0-.1,0-.15a3.09,3.09,0,0,0,0-.54,1.42,1.42,0,0,1-.23-.3s-.09,0-.14.11a1.05,1.05,0,0,1-.21.21,1.16,1.16,0,0,1-.86.18.11.11,0,0,1-.06-.12c0-.06,0-.12,0-.17a.69.69,0,0,1-.73.18l-.47-.05a5.58,5.58,0,0,1-.56-.06,1.32,1.32,0,0,1-.39-.2c-.12-.08-.33-.21-.39-.2a2.39,2.39,0,0,0-.12,1.19c.07.26.27.29.57.31h.14a.08.08,0,0,1,.07.06,1.53,1.53,0,0,1,0,.68l0,.08a.1.1,0,0,1-.09.09l-.27-.05a.94.94,0,0,0-.36,0l-.17,0a.71.71,0,0,1-.51,0,4.8,4.8,0,0,1,0,.58c0,.15,0,.31,0,.46a.76.76,0,0,0,.27.63l.09.11c.69.82.19,2.06-.25,3.15a7,7,0,0,0-.46,1.36c0,.15,0,.35-.07.56a4.31,4.31,0,0,1-.4,1.72.4.4,0,0,1-.41.2s0,.08-.07.08a3.31,3.31,0,0,0-.54.15,1.91,1.91,0,0,1-1,.14l-.31-.09a1.26,1.26,0,0,0-.73-.09c-.19.05-.28.21-.4.39l-.12.19a1.36,1.36,0,0,1-.81.52,1.34,1.34,0,0,0-.62.33,3.88,3.88,0,0,0-.68,1.65l-.08.3a1.37,1.37,0,0,1-.6.83,1.79,1.79,0,0,0-.44.42c-.29.42-.12,1.29,0,1.8l0,.11a3.63,3.63,0,0,0,.27.74A2.21,2.21,0,0,1,98,24.52a1.46,1.46,0,0,1-.06.18c0,.1,0,.1,0,.19a.65.65,0,0,0,.33.15.85.85,0,0,1,.42.2,1,1,0,0,1,.24.52A2.17,2.17,0,0,0,99,26a.7.7,0,0,0,.61.4h0c.6.09.9-.13,1.32-.65l.32-.38a.07.07,0,0,1,.08,0,.09.09,0,0,1,.05.07,4.29,4.29,0,0,1-.2,1.63c-.06.25-.12.5-.16.73,0,.08,0,.17-.06.26-.08.31-.11.5,0,.58s.16,0,.25-.11.18-.27.36-.27a1.28,1.28,0,0,1,.69.36l.15.11c.15-.16.39-.08.53,0l0,0a1.22,1.22,0,0,1,.52.33l.06.06c.13.14.2.21.33.16a.86.86,0,0,0,.33-.32c.16-.21.33-.45.61-.32l.16.1c.13.09.17.11.27,0a2.5,2.5,0,0,0,.14-.23,1.72,1.72,0,0,1,.24-.36l.11-.13a1.39,1.39,0,0,1,.39-.36l.29-.13a1.65,1.65,0,0,0,.51-.29l0,0a1.86,1.86,0,0,1,.7.13l.1,0a.66.66,0,0,0,.36,0,.71.71,0,0,0,.19-.11.54.54,0,0,1,.38-.14.39.39,0,0,1,.35.17,1,1,0,0,1,0,.64l0,.12c0,.16-.07.41-.2.49a.22.22,0,0,1-.23,0l0,0a.54.54,0,0,0,.18.48l.13.18c.14.21.09.35-.07.56a.49.49,0,0,1-.19.18,2.83,2.83,0,0,1,.16.6,3.49,3.49,0,0,0,.08.37c0,.06,0,.14.05.23a1.13,1.13,0,0,0,.09.35.4.4,0,0,0,.17.07l.12,0a.77.77,0,0,1,.54.81v.1a.55.55,0,0,0,0,.31.11.11,0,0,0,.1,0,.23.23,0,0,1,.1-.11c.19-.1.53.06.63.15a.75.75,0,0,0,.24.16l.09,0a.32.32,0,0,1,.22.3,1,1,0,0,1,.68.15l.07.05a2.76,2.76,0,0,1,.52.48.74.74,0,0,1,.09.19.42.42,0,0,0,.08.18s0,0,.06,0a.28.28,0,0,1,.13,0,.31.31,0,0,1,.28.1.51.51,0,0,1,0,.34,1.23,1.23,0,0,0,0,.19.25.25,0,0,0,0,.14s.1,0,.17,0a.65.65,0,0,1,.22,0h0a2.17,2.17,0,0,1,.59.22,2.93,2.93,0,0,0,.41.18l.13,0a.52.52,0,0,1,.28.08.33.33,0,0,1,.12.22.44.44,0,0,0,0,.09.87.87,0,0,0,.14.19.67.67,0,0,1,.21.52.6.6,0,0,1-.22.41.59.59,0,0,0-.13.16,1.28,1.28,0,0,0-.06.44c0,.06,0,.11,0,.17a1.28,1.28,0,0,1,0,.53.9.9,0,0,0,0,.38.47.47,0,0,0,.07.16.58.58,0,0,1,.11.27,2.18,2.18,0,0,1-.07.67l0,.07a1.64,1.64,0,0,1-.05.18.84.84,0,0,0-.06.39.55.55,0,0,0,.16.19l.1.09a1.16,1.16,0,0,0,.73.3l.32.06a7.24,7.24,0,0,0,1.22.25s.06,0,.07.07a.83.83,0,0,1-.17.7.47.47,0,0,0-.12.37,1.32,1.32,0,0,0,.1.28c0,.08.06.16.08.23a1.06,1.06,0,0,0,.2.44.49.49,0,0,0,.26.13l.12,0c.24.09.26.13.24.43a1.76,1.76,0,0,0,.09.66,2.64,2.64,0,0,1,.1.49,1.53,1.53,0,0,1-.27.81l0,.1a2.37,2.37,0,0,1-.39.81l-.14.21-.09.17a1.26,1.26,0,0,1-.22.32l-.06.06a.79.79,0,0,0-.17.21.61.61,0,0,1,0,.17,1.39,1.39,0,0,1,0,.45,1.67,1.67,0,0,0,0,.29,2.86,2.86,0,0,0,.09.71c0,.07,0,.13,0,.2a3.65,3.65,0,0,1-.07,1.41,2.07,2.07,0,0,1-.2.46c-.09.17-.23.44-.2.52a.81.81,0,0,0,.21.16,1.06,1.06,0,0,1,.2.14.8.8,0,0,0,.43.3,5.54,5.54,0,0,1,.75.24c.18.08.3.11.41,0a.08.08,0,0,1,.07,0,.49.49,0,0,1,.25.07.48.48,0,0,0,.15.06h.15a.4.4,0,0,1,.38.11,2.2,2.2,0,0,1,.48.87,1.28,1.28,0,0,1,0,.41,1.58,1.58,0,0,0,0,.27c0,.07,0,.12,0,.18a1.13,1.13,0,0,1,0,.64v0c-.09.27-.33,1-.14,1.19s.19.06.35,0a1,1,0,0,1,.21-.05h0c.23,0,.31,0,.4-.31a.1.1,0,0,1,.08-.07A.9.9,0,0,1,122,57a1.13,1.13,0,0,1-.23.71,1.23,1.23,0,0,0-.22.52.07.07,0,0,1,0,0c0,.13-.05.26-.07.4a1.23,1.23,0,0,1-.21.52l-.06.11,0,.09a.64.64,0,0,1-.15.22.32.32,0,0,1-.12.07.19.19,0,0,0-.08,0,.38.38,0,0,0-.06.23.26.26,0,0,0,0,.1.45.45,0,0,1,.08-.11,1.34,1.34,0,0,1,.29-.17l.19-.1c.19-.12.35-.19.5.12l.08.14a1.48,1.48,0,0,1,.19.46,1.31,1.31,0,0,1-.08.55,2.22,2.22,0,0,0-.06.26,1.44,1.44,0,0,0,0,.41,1.92,1.92,0,0,1,0,.36.61.61,0,0,1-.18.38.71.71,0,0,0-.13.2.32.32,0,0,0,0,.09.53.53,0,0,1,0,.2.37.37,0,0,1-.12.15l0,0-.08.1a.92.92,0,0,1-.28.27,1,1,0,0,1-.29.08l-.2.05-.07,0a.33.33,0,0,1-.15.08.29.29,0,0,1-.14,0l-.06,0a.4.4,0,0,0-.31,0,1.16,1.16,0,0,0-.15.16,1,1,0,0,1-.27.24l-.38.16-.28.1a2.57,2.57,0,0,0-.4.15v.07a.69.69,0,0,1-.24.51l-.09.07a3.49,3.49,0,0,1-.66.41l-.13.05a1.23,1.23,0,0,0-.5.3.61.61,0,0,0-.11.22l-.05.14a2.17,2.17,0,0,1-.28.46,1.34,1.34,0,0,1-.64.5.9.9,0,0,0-.51.45l0,0A1.43,1.43,0,0,0,115,68h0a.08.08,0,0,1,.09.07l.15-.07a.81.81,0,0,1,.21-.09.44.44,0,0,1,.29,0l.12,0c.09,0,.12,0,.2-.07l.06,0,0,0c.11-.09.16,0,.22.05v0a1.35,1.35,0,0,1,.08.16.43.43,0,0,0,.13.19l.08,0a.36.36,0,0,1,.22.24.65.65,0,0,1,0,.31.64.64,0,0,0,0,.16.27.27,0,0,0,.09.17l.09.12a.33.33,0,0,1,0,.42.78.78,0,0,1,.19,0l.12,0a.17.17,0,0,0,.11,0l.07,0a.37.37,0,0,1,.41.14l.08.07.11.06a.46.46,0,0,1,.21.14.44.44,0,0,1,.05.21.34.34,0,0,0,0,.12.58.58,0,0,0,.32.2l.09,0c.2,0,.27.07.34.39a1,1,0,0,0,.2.37l.06.08a2.41,2.41,0,0,0,.27.3,2.87,2.87,0,0,1,.28.32,1.24,1.24,0,0,0,.2.21,1.09,1.09,0,0,1,.29.35.59.59,0,0,1,0,.22.42.42,0,0,0,0,.12s0,.05.06.06a.27.27,0,0,1,.11.05.36.36,0,0,1,.12.18.35.35,0,0,0,0,.09l.08.06a.3.3,0,0,1,.18.23.25.25,0,0,1,0,.17.16.16,0,0,1-.14.07h0a.48.48,0,0,0-.13.08l-.12.09a.45.45,0,0,1-.17.06.24.24,0,0,0-.14.05.65.65,0,0,0-.09.33v0a.14.14,0,0,1,0,.08s0,.05,0,.08c0,.32,0,.68.2.85l.07,0h0v0a.34.34,0,0,0,.24,0,.41.41,0,0,0,.12-.17.8.8,0,0,1,.12-.2,1.85,1.85,0,0,1,.18-.17.94.94,0,0,0,.23-.25,2.83,2.83,0,0,1,.3-.44,1.31,1.31,0,0,0,.11-.19,1.56,1.56,0,0,1,.11-.19,1.25,1.25,0,0,1,.15-.17.78.78,0,0,0,.16-.21,1.16,1.16,0,0,0,.07-.22,1.11,1.11,0,0,1,.12-.33h0a.13.13,0,0,1,0-.09,1.49,1.49,0,0,0,.15-.48,2.28,2.28,0,0,1,.14-.49l0-.06a2,2,0,0,1,.44-.69.7.7,0,0,1,.43-.1.62.62,0,0,0,.32-.05.66.66,0,0,0,.21-.33c0-.1.08-.19.12-.28s.09-.21.13-.33a1.87,1.87,0,0,0,.13-.58,1.11,1.11,0,0,0,0-.14.86.86,0,0,1,0-.37.11.11,0,0,1,.05-.06.07.07,0,0,1,.06,0,1.89,1.89,0,0,1,.55.58l.17.22a1.25,1.25,0,0,0,.29.26h0a.43.43,0,0,1,.18.21,1.49,1.49,0,0,0,.51-.7l.06-.14a1,1,0,0,1,.21-.28.65.65,0,0,0,.18-.26l0-.07a.45.45,0,0,1,.13-.25.32.32,0,0,0,.1-.14l0-.07a.54.54,0,0,1,.29-.27.58.58,0,0,0,.17-.12.38.38,0,0,0,.05-.1.76.76,0,0,1,.1-.16.35.35,0,0,1,.2-.08l.09,0c.09,0,.12-.09.17-.19l.09-.15a1.14,1.14,0,0,0,.09-.15.77.77,0,0,1,.31-.36l0,0,.05,0,0-.09c0-.07,0-.14,0-.21s0-.08,0-.12,0,0,0,0a.52.52,0,0,1,0-.14.43.43,0,0,1,.06-.1l0,0a1.2,1.2,0,0,0,0-.16.75.75,0,0,1,.12-.36.62.62,0,0,1,.19-.18.54.54,0,0,0,.14-.12s0-.07,0-.16V65a.82.82,0,0,1,0-.15.37.37,0,0,0,0-.09.35.35,0,0,0,0-.08l0-.09a3,3,0,0,1,0-.52.6.6,0,0,1,.08-.25l0-.08a1.13,1.13,0,0,0,.06-.29.63.63,0,0,0,0-.18.63.63,0,0,1,0-.33.31.31,0,0,1,.11-.15l0,0a.41.41,0,0,0,0-.05.51.51,0,0,1,0-.14.66.66,0,0,1,.07-.11l0,0a1.06,1.06,0,0,0,.08-.23,1.28,1.28,0,0,1,.11-.3l0,0a.31.31,0,0,1-.12-.16.66.66,0,0,1,0-.53.44.44,0,0,1,.22-.2l.08,0a.41.41,0,0,0,.08-.1.4.4,0,0,1,.19-.17c.1,0,.21.05.31.12a.43.43,0,0,0,.15.1s0,0,.05,0l.06-.08.17-.15.08-.07.12-.11a1.6,1.6,0,0,1,.41-.32l.1,0a.44.44,0,0,0,.17-.09l.19-.17.17-.16.14-.13a.7.7,0,0,1,.42-.27h.14a.46.46,0,0,0,.16,0l.26-.08h0a.7.7,0,0,0,.13-.08.6.6,0,0,1,.18-.1.08.08,0,0,1,.07,0h0a.22.22,0,0,1,.1-.13.1.1,0,0,1,.1,0,.1.1,0,0,1,0,.06h0a.15.15,0,0,1,.11-.08.23.23,0,0,1,.13,0l0,0a1.45,1.45,0,0,0,.26,0,.4.4,0,0,1,.23.08.42.42,0,0,1,.09.18h0a.19.19,0,0,0,.06-.09.58.58,0,0,0,0-.1.46.46,0,0,1,0-.26c.05-.11.15-.31.33-.31a.51.51,0,0,1,.18,0,.18.18,0,0,0,.2,0,.53.53,0,0,0,.09-.1l.09-.12.07-.06a.28.28,0,0,0,.1-.13.41.41,0,0,1,.22-.29.5.5,0,0,0,.17-.16l0,0a.54.54,0,0,1,.45-.22.72.72,0,0,0,.2,0,.27.27,0,0,1,.28,0l.1.05a.26.26,0,0,0,.15,0,.4.4,0,0,1,.24,0l.13.06a.41.41,0,0,0,.19.06h.06c.14,0,.35,0,.43.17a.62.62,0,0,1,0,.17c0,.07,0,.1.07.13s.06,0,.11,0l.11-.06a.45.45,0,0,1,.2,0h.09a.5.5,0,0,1,.45.14s0,0,.09,0a.24.24,0,0,1,.16,0,.33.33,0,0,1,.11.09l0,0a2.27,2.27,0,0,1,.28-.85,1.23,1.23,0,0,1,.37-.42l.08,0,.1-.07.07-.09a.53.53,0,0,1,.18-.19.06.06,0,0,1,.06,0,.08.08,0,0,1,0,.06.08.08,0,0,0,.09,0s0,0,0-.05a.34.34,0,0,1,.15-.15.62.62,0,0,1,.16,0c.08,0,.15,0,.19-.07a.77.77,0,0,0,.06-.32,1.32,1.32,0,0,1,0-.28c0-.1,0-.2.06-.29a3.29,3.29,0,0,1,.07-.34,1.14,1.14,0,0,1,.09-.22.62.62,0,0,0,.08-.24.54.54,0,0,1,.31-.52.71.71,0,0,0,.38-.24,2,2,0,0,1,.22-.22l.13-.12a1.56,1.56,0,0,0,.17-.23l.13-.19c.09-.11.19-.21.28-.31l.13-.14a.72.72,0,0,0,.1-.17.85.85,0,0,1,.15-.22,1.53,1.53,0,0,0,.31-.81,3.06,3.06,0,0,0,0-.48c0-.06,0-.11,0-.17a3.55,3.55,0,0,1,.17-.87l0-.15a1.2,1.2,0,0,1,.19-.48.59.59,0,0,1,.19-.15.38.38,0,0,0,.15-.11l0,0a.23.23,0,0,1,.21-.14h.15c.11,0,.11,0,.14-.2l0-.1a3.24,3.24,0,0,1,.08-.4l.11-.32.09-.26a3.24,3.24,0,0,0,.11-.52,3,3,0,0,1,.15-.67,2.57,2.57,0,0,1,.22-.4,2.57,2.57,0,0,0,.18-.32,2.32,2.32,0,0,0,.13-.46,3.23,3.23,0,0,1,.08-.34l0-.08c.08-.27.11-.36,0-.58l0,0a.35.35,0,0,1-.09-.22.92.92,0,0,1,0-.29s0-.07,0-.1a1.73,1.73,0,0,0,0-.45v-.12a1.84,1.84,0,0,1,.08-.52,2.86,2.86,0,0,0,.06-.31c0-.1,0-.2,0-.31s0-.29.06-.43,0-.14,0-.22,0-.25,0-.37a6.17,6.17,0,0,1,.15-.74c0-.14.07-.28.09-.41a1.16,1.16,0,0,0,0-.12.74.74,0,0,1,.05-.27.1.1,0,0,1,.1-.05,1.33,1.33,0,0,1,.31.1,1.33,1.33,0,0,0,.27.09l.24,0,.24,0c.08,0,.19,0,.24,0a1,1,0,0,0,.19-.26l.09-.13a2.36,2.36,0,0,0,.42-.84,1,1,0,0,1,.28-.51.65.65,0,0,0,.09-.14.81.81,0,0,1,.13-.18.63.63,0,0,1,.16-.09.88.88,0,0,0,.25-.16l0,0a.11.11,0,0,1,0-.09,1.09,1.09,0,0,1,.42-.86,4,4,0,0,1,1.13-.63,1.15,1.15,0,0,0,.49-.4,2.07,2.07,0,0,0,.14-.21l.06-.11a.94.94,0,0,1,.12-.14.82.82,0,0,0,.1-.12s0-.06,0-.14a.82.82,0,0,1,0-.15.73.73,0,0,1,.12-.34l0-.08a.08.08,0,0,1,.09-.06h.05a1,1,0,0,0,.8-.27,2.75,2.75,0,0,0,.76-.85,2,2,0,0,0,.11-.65,2,2,0,0,1,.16-.82,3,3,0,0,0,.21-1.42A2.89,2.89,0,0,1,155.75,28.91Z"/><path class="cls-2" d="M46.05,57.08H19.74V82.43H46.05ZM32.89,79.26a9.52,9.52,0,1,1,0-19,9.52,9.52,0,1,1,0,19Z"/><path class="cls-2" d="M21.93,56H43.86l-1.65-2a11.78,11.78,0,0,1-2.74-7.53H26.32A11.78,11.78,0,0,1,23.58,54Z"/><rect class="cls-2" x="25.22" y="41.23" width="15.35" height="4.23"/><path class="cls-1" d="M61.4,64.47l-1.21-2.34a8.69,8.69,0,0,1-1-4H52.63a8.69,8.69,0,0,1-1,4l-1.21,2.34Z"/><rect class="cls-1" x="51.53" y="53.91" width="8.77" height="3.17"/><path class="cls-1" d="M47.15,82.43h4.39V78.21h8.77v4.23h4.39V65.53H47.15Zm6.58-12.68h4.39V74H53.73Z"/><rect class="cls-2" x="31.8" y="37" width="2.19" height="2.11"/><path class="cls-2" d="M55.92,23.26H27.41a4.23,4.23,0,1,0,0,8.45H29.6a2.16,2.16,0,0,1,2.19,2.11v1.06H34V33.83A4.31,4.31,0,0,0,29.6,29.6H27.41a2.11,2.11,0,1,1,0-4.23H55.92Z"/><rect class="cls-1" x="59.21" y="19.04" width="6.58" height="2.11"/><rect class="cls-1" x="54.82" y="49.68" width="2.19" height="2.11"/><path class="cls-1" d="M49.34,41.23a3.23,3.23,0,0,0,3.29,3.17h1.1a1.08,1.08,0,0,1,1.1,1.06v2.11H57V45.45a3.23,3.23,0,0,0-3.29-3.17h-1.1a1.06,1.06,0,1,1,0-2.11H65.79V38.06H52.63A3.23,3.23,0,0,0,49.34,41.23Z"/><path class="cls-2" d="M81.31,64.47,80.1,62.14a8.69,8.69,0,0,1-1-4H72.54a8.69,8.69,0,0,1-1,4l-1.21,2.34Z"/><rect class="cls-2" x="71.44" y="53.91" width="8.77" height="3.17"/><path class="cls-2" d="M67.05,82.43h4.39V78.21h8.77v4.23H84.6V65.53H67.05Zm6.58-12.68H78V74H73.63Z"/><rect class="cls-2" x="74.73" y="49.68" width="2.19" height="2.11"/><path class="cls-2" d="M69.25,41.23a3.23,3.23,0,0,0,3.29,3.17h1.1a1.08,1.08,0,0,1,1.1,1.06v2.11h2.19V45.45a3.23,3.23,0,0,0-3.29-3.17h-1.1a1.06,1.06,0,1,1,0-2.11H85.69V38.06H72.54A3.23,3.23,0,0,0,69.25,41.23Z"/><rect class="cls-1" x="9.87" y="48.62" width="2.19" height="2.11"/><path class="cls-1" d="M4.39,40.17a3.23,3.23,0,0,0,3.29,3.17h1.1a1.08,1.08,0,0,1,1.1,1.06v2.11h2.19V44.4a3.23,3.23,0,0,0-3.29-3.17H7.68a1.06,1.06,0,1,1,0-2.11H21.93V37H7.68A3.23,3.23,0,0,0,4.39,40.17Z"/><rect class="cls-1" y="21.15" width="6.58" height="2.11"/><path class="cls-2" d="M32.89,61.3a8.46,8.46,0,1,0,8.77,8.45A8.62,8.62,0,0,0,32.89,61.3ZM29.6,69.75H27.41a5.39,5.39,0,0,1,5.48-5.28v2.11A3.23,3.23,0,0,0,29.6,69.75ZM32.89,75V72.92a3.23,3.23,0,0,0,3.29-3.17h2.19A5.39,5.39,0,0,1,32.89,75Z"/><path class="cls-1" d="M15.35,64.47l-1.21-2.34a8.69,8.69,0,0,1-1-4H6.58a8.69,8.69,0,0,1-1,4L4.39,64.47Z"/><rect class="cls-1" x="5.48" y="53.91" width="8.77" height="3.17"/><path class="cls-1" d="M1.1,82.43H5.48V78.21h8.77v4.23h4.39V65.53H1.1ZM7.68,69.75h4.39V74H7.68Z"/></g></g></svg>
