<svg xmlns="http://www.w3.org/2000/svg" xmlns:xlink="http://www.w3.org/1999/xlink" viewBox="0 0 219.68 231.05"><defs><style>.cls-1{fill:none;}.cls-2{clip-path:url(#clip-path);}.cls-3{fill:#343e5d;}.cls-4{fill:#1d1d1b;}.cls-5{fill:#455686;}.cls-6{fill:#7e8cc6;}.cls-7{fill:#5770b4;}.cls-8,.cls-9{fill:#fff;}.cls-9{font-size:10px;font-family:Helvetica-Bold, Helvetica;font-weight:700;}.cls-10{fill:#ededed;}</style><clipPath id="clip-path" transform="translate(0)"><rect class="cls-1" width="219.68" height="231.05"/></clipPath></defs><title>proveedores</title><g id="Layer_2" data-name="Layer 2"><g id="Layer_1-2" data-name="Layer 1"><g class="cls-2"><path class="cls-3" d="M203.73,66.67c0,27.13-47.68,38.09-42,85.42S108.5,221.93,83.1,180.95,75.31,125,35.2,103.61c-43.29-23.09-4.9-72.72,30.59-64.06,32.63,8,55.86,32.32,82.53,8.08,13.3-12.09,55.38-23.12,55.41,19" transform="translate(0)"/><path class="cls-4" d="M67.16,161.77a2.3,2.3,0,1,1-2.3-2.3,2.3,2.3,0,0,1,2.3,2.3" transform="translate(0)"/><path class="cls-4" d="M82.14,160.26a4.37,4.37,0,1,0,4.37,4.37,4.37,4.37,0,0,0-4.37-4.37m0,10.45a6.08,6.08,0,1,1,6.08-6.08,6.09,6.09,0,0,1-6.08,6.08" transform="translate(0)"/><path class="cls-4" d="M214.59,63.89a2.93,2.93,0,1,0,2.93,2.93,2.93,2.93,0,0,0-2.93-2.93m0,7.57a4.64,4.64,0,1,1,4.64-4.64,4.64,4.64,0,0,1-4.64,4.64" transform="translate(0)"/><path class="cls-4" d="M183.33,162.62a.86.86,0,0,1-.86-.85V147.82a.86.86,0,0,1,1.71,0v13.95a.86.86,0,0,1-.85.85" transform="translate(0)"/><path class="cls-4" d="M190.31,155.65H176.36a.85.85,0,0,1,0-1.71h13.95a.85.85,0,0,1,0,1.71" transform="translate(0)"/><path class="cls-5" d="M185.3,30.45c2,2.27,11.37,1.25,13.34,8.89,1,3.81,6.82,1.87,6.24-1.71-1.2-7.4-3.47-10.46-8-11-6.5-.79-13.47,1.66-11.54,3.84" transform="translate(0)"/><path class="cls-3" d="M159.79,187.81c7.49,3.63,15.86,9.94,14.57,14.36-.77,2.63-3.29,2.93-6.55,1.54-4.22-1.8-6.71-6.23-8.28-8.94-1.75-3-4.7-9.37.26-7" transform="translate(0)"/><path class="cls-6" d="M22.46,141.63c1.12,2-1.12,5.34-3,5.9a3.41,3.41,0,0,1-4.34-2.77,3.37,3.37,0,0,1,2.41-4c1.28-.38,4.31-.2,4.93.91" transform="translate(0)"/><path class="cls-7" d="M21.42,70,31,60.43A47.31,47.31,0,0,0,21.42,70" transform="translate(0)"/><path class="cls-7" d="M42,54.34,15.27,81q-.75,1.9-1.35,3.85L45.8,53q-2,.59-3.83,1.33" transform="translate(0)"/><path class="cls-7" d="M52.11,51.55,12.48,91.18q-.23,1.43-.37,2.87L55,51.15q-1.47.16-2.9.4" transform="translate(0)"/><path class="cls-7" d="M60.18,50.83,11.9,99.1c0,.8,0,1.6.1,2.4L62.67,50.84q-1.26,0-2.49,0" transform="translate(0)"/><path class="cls-7" d="M67.27,51.09,12.5,105.85q.18,1.05.4,2.1L69.69,51.17q-1.2,0-2.42-.08" transform="translate(0)"/><path class="cls-7" d="M74.63,51.07,13.91,111.79q.29.94.63,1.87L77.35,50.86q-1.34.13-2.72.21" transform="translate(0)"/><path class="cls-7" d="M83,50,15.95,117.11q.39.85.82,1.69L86.28,49.28q-1.59.41-3.24.74" transform="translate(0)"/><path class="cls-7" d="M93.53,46.87l-75,75q.47.77,1,1.52l78.7-78.7q-2.25,1.16-4.65,2.15" transform="translate(0)"/><path class="cls-7" d="M140.25,7.5,21.53,126.22q.55.69,1.13,1.38L147.37,2.89a40.7,40.7,0,0,0-7.11,4.61" transform="translate(0)"/><path class="cls-7" d="M154.67.43,25,130.13q.62.63,1.26,1.24L157.52.08a25.18,25.18,0,0,0-2.85.35" transform="translate(0)"/><path class="cls-7" d="M162.45,0,28.8,133.65q.68.56,1.39,1.11L164.84.11Q163.67,0,162.45,0" transform="translate(0)"/><path class="cls-7" d="M169.19.6,33,136.81q.74.5,1.51,1L171.3,1q-1-.22-2.1-.4" transform="translate(0)"/><path class="cls-7" d="M175.1,2.05,37.54,139.61l1.62.89L176.92,2.74q-.88-.36-1.82-.68" transform="translate(0)"/><path class="cls-7" d="M180.17,4.33,42.32,142.17,44,143,181.71,5.29q-.74-.5-1.54-1" transform="translate(0)"/><path class="cls-7" d="M184.41,7.43,47.25,144.59l1.71.79L185.67,8.68q-.6-.64-1.26-1.25" transform="translate(0)"/><path class="cls-7" d="M187.82,11.37,52.34,146.86l1.77.73L188.79,12.91q-.45-.78-1-1.54" transform="translate(0)"/><path class="cls-7" d="M190.37,16.18,57.6,148.95l1.84.67L191,18q-.3-.93-.66-1.84" transform="translate(0)"/><path class="cls-7" d="M192,21.9,63.05,150.84l1.9.6L192.32,24.08q-.13-1.1-.33-2.18" transform="translate(0)"/><path class="cls-7" d="M192.59,28.65,68.7,152.54l2,.54L192.52,31.22q.07-1.29.07-2.57" transform="translate(0)"/><path class="cls-7" d="M191.93,36.67,74.53,154.06l2,.49L191.33,39.77q.34-1.54.6-3.1" transform="translate(0)"/><path class="cls-7" d="M189.4,46.54,80.48,155.46l2,.47L187.78,50.67c.58-1.32,1.12-2.7,1.62-4.13" transform="translate(0)"/><path class="cls-7" d="M179.18,64.11,86.42,156.87l2,.51,87-87a47.1,47.1,0,0,1,3.76-6.27" transform="translate(0)"/><path class="cls-7" d="M172.59,78,92.17,158.48q.95.3,1.88.62L172,81.18c.16-1,.37-2.09.63-3.13" transform="translate(0)"/><path class="cls-7" d="M171.56,86.43l-74,74q.87.37,1.72.78l72.36-72.36c0-.81-.07-1.62-.07-2.44" transform="translate(0)"/><path class="cls-7" d="M172.11,93.23l-69.68,69.68q.78.45,1.55.95L172.5,95.35c-.15-.7-.28-1.41-.39-2.11" transform="translate(0)"/><path class="cls-7" d="M173.45,99.24l-66.61,66.61q.7.53,1.4,1.1L174,101.17q-.3-1-.57-1.93" transform="translate(0)"/><path class="cls-7" d="M175.25,104.79l-64.44,64.44q.63.6,1.27,1.23l63.85-63.85q-.35-.91-.68-1.82" transform="translate(0)"/><path class="cls-7" d="M177.34,110,114.43,173q.58.65,1.16,1.34l62.5-62.5-.75-1.75" transform="translate(0)"/><path class="cls-7" d="M179.6,115.14,117.76,177q.54.69,1.08,1.42l61.55-61.55-.79-1.71" transform="translate(0)"/><path class="cls-7" d="M182,120.14l-61.09,61.09,1,1.49,60.89-60.89-.81-1.69" transform="translate(0)"/><path class="cls-7" d="M184.33,125.1l-60.56,60.56,1,1.55,60.41-60.41-.81-1.7" transform="translate(0)"/><path class="cls-7" d="M186.69,130.09l-60.13,60.13q.49.78,1,1.52l59.93-59.93-.79-1.71" transform="translate(0)"/><path class="cls-7" d="M189,135.15l-59.4,59.4q.55.72,1.12,1.39l59-59-.76-1.75" transform="translate(0)"/><path class="cls-7" d="M191.17,140.32,133,198.49q.63.64,1.26,1.24l57.62-57.62q-.35-.9-.71-1.8" transform="translate(0)"/><path class="cls-7" d="M193.18,145.65,136.85,202q.71.56,1.43,1.07l55.54-55.55q-.31-.93-.64-1.86" transform="translate(0)"/><path class="cls-7" d="M195.11,151.57l-.11-.38-53.75,53.75q.82.46,1.65.86l52.64-52.64c-.13-.53-.27-1.06-.43-1.59" transform="translate(0)"/><path class="cls-7" d="M196.31,157.22l-50,50q1,.32,1.93.58l48.3-48.3q-.09-1.13-.24-2.26" transform="translate(0)"/><path class="cls-7" d="M196.66,164.23l-44.31,44.31q1.17.13,2.34.16l41.78-41.78q.14-1.34.19-2.69" transform="translate(0)"/><path class="cls-7" d="M194.52,176.22q.55-1.72,1-3.47l-35.64,35.64q1.57-.23,3.11-.61Z" transform="translate(0)"/><path class="cls-7" d="M177.68,200.41l8.4-8.4a51.64,51.64,0,0,0,4.81-7.31l-20.16,20.16a43.14,43.14,0,0,0,6.95-4.44" transform="translate(0)"/><path class="cls-7" d="M64.15,80.77q-.08,1.26-.22,2.45.15-1.2.22-2.45c.05-.84.08-1.7.09-2.58,0,.88,0,1.74-.09,2.58m-9.29,25.46c-2.43,4.31-5.14,9.13-7.78,15.06-1.32,3-2.62,6.2-3.86,9.78,1.24-3.58,2.54-6.82,3.86-9.78,2.64-5.93,5.35-10.75,7.78-15.06,3.94-7,7.33-13,8.71-20.67-1.38,7.64-4.78,13.67-8.71,20.67M41,138.22q.64-2.28,1.32-4.39-.67,2.12-1.32,4.39M59.93,92.33q-.38,1-.81,2,.43-1,.81-2M62,85q.2-1.11.33-2.27Q62.17,83.88,62,85t-.45,2.18Q61.78,86.1,62,85m156.2,18q-.26-1.43-.56-2.82C215.23,89,211,79.51,206.41,74.05c-14.16-16.69-33.55-22.95-53.11-17.61l-1.65.48a61.1,61.1,0,0,0-10.72,4.47l-1.51.82L138,63c-17.65,10.51-64.73,7.18-74.4,6.49L62,69.41h-.17a55.78,55.78,0,0,1,.71,8.43,55.78,55.78,0,0,0-.71-8.43C15,67-23.26,112.32,16.8,135.52A53.59,53.59,0,0,0,38,142.78l1.72.17q.4-1.63.82-3.19-.42,1.56-.82,3.19a61.67,61.67,0,0,0,9.12,0l1.75-.14c18.77-1.66,33.91-8.63,53.74,17.06a69.57,69.57,0,0,0,13.93,13.79q.7.52,1.41,1,1.49,1,3,1.93c.5.3,1,.6,1.52.88,19.68,11,42.41,8,64-2.09,14.39-6.69,23-17.89,27.44-30.57q.59-1.66,1.08-3.36c3.69-12.59,3.64-26.33,1.45-38.43" transform="translate(0)"/><path class="cls-5" d="M26.71,147c-1.75,1.59-4.33,3.48-5.53,7.58-.63,2.16,0,4.67,2.66,4.92,3.45.32,8.87-4.37,10.51-10.63s-5.31-4-7.65-1.86" transform="translate(0)"/><path class="cls-4" d="M25.79,101.18a.88.88,0,0,1-.88-.88V95.68a.88.88,0,0,1,1.76,0v4.62a.88.88,0,0,1-.88.88" transform="translate(0)"/><path class="cls-4" d="M28.83,102.67a.85.85,0,0,1-.6-1.46L31.4,98a.85.85,0,0,1,1.21,1.21l-3.18,3.18a.85.85,0,0,1-.6.25" transform="translate(0)"/><path class="cls-4" d="M34.69,106H30.2a.85.85,0,1,1,0-1.71h4.49a.85.85,0,0,1,0,1.71" transform="translate(0)"/><path class="cls-4" d="M32.48,112.71a.88.88,0,0,1-.62-.26l-3.27-3.27a.88.88,0,0,1,1.24-1.24l3.27,3.27a.88.88,0,0,1-.62,1.5" transform="translate(0)"/><path class="cls-4" d="M25.79,115.48a.88.88,0,0,1-.88-.88V110a.88.88,0,0,1,1.76,0v4.62a.88.88,0,0,1-.88.88" transform="translate(0)"/><path class="cls-4" d="M19.1,112.71a.88.88,0,0,1-.62-1.5l3.27-3.27A.88.88,0,0,1,23,109.19l-3.27,3.27a.88.88,0,0,1-.62.26" transform="translate(0)"/><path class="cls-4" d="M21,106H16.33a.88.88,0,1,1,0-1.76H21A.88.88,0,1,1,21,106" transform="translate(0)"/><path class="cls-4" d="M22.37,102.6a.88.88,0,0,1-.62-.26l-3.27-3.27a.88.88,0,0,1,1.24-1.24L23,101.1a.88.88,0,0,1-.62,1.5" transform="translate(0)"/><path class="cls-4" d="M103.82,30.69a.86.86,0,0,1-.86-.85V26.6a.85.85,0,0,1,1.71,0v3.24a.86.86,0,0,1-.85.85" transform="translate(0)"/><path class="cls-4" d="M106.22,31.69a.85.85,0,0,1-.6-1.46l2.29-2.29a.85.85,0,0,1,1.21,1.21l-2.29,2.29a.85.85,0,0,1-.6.25" transform="translate(0)"/><path class="cls-4" d="M110.45,34.08h-3.24a.85.85,0,1,1,0-1.71h3.24a.85.85,0,1,1,0,1.71" transform="translate(0)"/><path class="cls-4" d="M108.51,38.77a.85.85,0,0,1-.6-.25l-2.29-2.29A.85.85,0,0,1,106.82,35l2.29,2.29a.85.85,0,0,1-.6,1.46" transform="translate(0)"/><path class="cls-4" d="M103.82,40.71a.86.86,0,0,1-.86-.85V36.62a.85.85,0,0,1,1.71,0v3.24a.86.86,0,0,1-.85.85" transform="translate(0)"/><path class="cls-4" d="M99.14,38.77a.85.85,0,0,1-.61-1.46L100.82,35A.85.85,0,0,1,102,36.23l-2.29,2.29a.85.85,0,0,1-.6.25" transform="translate(0)"/><path class="cls-4" d="M100.43,34.08H97.2a.85.85,0,1,1,0-1.71h3.24a.85.85,0,1,1,0,1.71" transform="translate(0)"/><path class="cls-4" d="M101.43,31.69a.85.85,0,0,1-.6-.25l-2.29-2.29a.85.85,0,1,1,1.21-1.21L102,30.23a.85.85,0,0,1-.6,1.46" transform="translate(0)"/></g><path class="cls-8" d="M71,88a4,4,0,0,1,1-2.91,3.36,3.36,0,0,1,4.84.3,2.6,2.6,0,0,1,.49,1.34h-1.5a2,2,0,0,0-.37-.78,1.63,1.63,0,0,0-2.46.19A3.23,3.23,0,0,0,72.55,88,2.84,2.84,0,0,0,73,89.8a1.53,1.53,0,0,0,1.24.6,1.41,1.41,0,0,0,1.18-.52,2.27,2.27,0,0,0,.37-.83h1.49a3.24,3.24,0,0,1-1,1.91,2.88,2.88,0,0,1-2,.74,3.06,3.06,0,0,1-2.42-1A4,4,0,0,1,71,88Zm12.53.89a3.08,3.08,0,0,1-.67,2,2.93,2.93,0,0,1-4.09,0,3.3,3.3,0,0,1,0-4,2.9,2.9,0,0,1,4.09,0,3.1,3.1,0,0,1,.67,2Zm-2.72,1.67a1.1,1.1,0,0,0,.94-.43,2.48,2.48,0,0,0,0-2.46,1.24,1.24,0,0,0-1.88,0,2.47,2.47,0,0,0,0,2.46,1.11,1.11,0,0,0,.94.43Zm6.67-4.46a2,2,0,0,1,1.34.43,1.76,1.76,0,0,1,.52,1.43V91.5H87.93V88.26a1.49,1.49,0,0,0-.11-.64.78.78,0,0,0-.78-.41,1,1,0,0,0-1,.6,2.08,2.08,0,0,0-.14.81V91.5H84.55V86.19H85.9V87a2.36,2.36,0,0,1,.51-.59,1.75,1.75,0,0,1,1.08-.32Zm2.62,1.17v-1h.74V84.74h1.38v1.48h.86v1h-.86V90a.63.63,0,0,0,.08.41.91.91,0,0,0,.51.08h.27v1l-.66,0a1.77,1.77,0,0,1-1.35-.34,1,1,0,0,1-.23-.74V87.22Zm6,1a2.2,2.2,0,0,0,.56-.12.42.42,0,0,0,.3-.4.47.47,0,0,0-.23-.45,1.45,1.45,0,0,0-.68-.12.89.89,0,0,0-.71.24,1,1,0,0,0-.2.49H93.79a2,2,0,0,1,.39-1.15,2.29,2.29,0,0,1,1.9-.7,3.39,3.39,0,0,1,1.56.35,1.33,1.33,0,0,1,.68,1.31v2.44q0,.25,0,.62a.77.77,0,0,0,.08.37.5.5,0,0,0,.21.16v.21H97.11a1.55,1.55,0,0,1-.09-.3q0-.14,0-.32a2.87,2.87,0,0,1-.67.53,2,2,0,0,1-1,.26,1.76,1.76,0,0,1-1.2-.41,1.47,1.47,0,0,1-.47-1.17,1.52,1.52,0,0,1,.76-1.42,3.41,3.41,0,0,1,1.23-.34Zm.85.65a1.54,1.54,0,0,1-.27.13,2.28,2.28,0,0,1-.37.1L96,89.2a2.08,2.08,0,0,0-.64.19A.64.64,0,0,0,95,90a.62.62,0,0,0,.2.52.76.76,0,0,0,.49.16,1.45,1.45,0,0,0,.84-.26,1.12,1.12,0,0,0,.4-1Zm8.55-2.85a1.85,1.85,0,0,1,.69.14,1.55,1.55,0,0,1,.62.48,1.53,1.53,0,0,1,.3.68,4.73,4.73,0,0,1,0,.79V91.5h-1.43V88.11a1.11,1.11,0,0,0-.1-.5.69.69,0,0,0-.68-.37.8.8,0,0,0-.8.48,1.5,1.5,0,0,0-.11.61V91.5h-1.4V88.33a1.78,1.78,0,0,0-.1-.69.68.68,0,0,0-.69-.39.82.82,0,0,0-.8.39,1.49,1.49,0,0,0-.11.65v3.2H99.51V86.19h1.35V87a2.24,2.24,0,0,1,.49-.59,1.93,1.93,0,0,1,2,0,1.56,1.56,0,0,1,.46.64,1.77,1.77,0,0,1,.68-.69,2.07,2.07,0,0,1,1-.22Zm8.06,2.79a3.08,3.08,0,0,1-.67,2,2.93,2.93,0,0,1-4.09,0,3.3,3.3,0,0,1,0-4,2.9,2.9,0,0,1,4.09,0,3.1,3.1,0,0,1,.67,2Zm-2.72,1.67a1.1,1.1,0,0,0,.94-.43,2.48,2.48,0,0,0,0-2.46,1.24,1.24,0,0,0-1.88,0,2.47,2.47,0,0,0,0,2.46,1.11,1.11,0,0,0,.94.43Zm4.8-.71a.93.93,0,0,0,.19.53,1.3,1.3,0,0,0,1,.28,1.47,1.47,0,0,0,.65-.12.41.41,0,0,0,0-.72,8,8,0,0,0-1.46-.42,3,3,0,0,1-1.28-.56,1.22,1.22,0,0,1-.37-1,1.66,1.66,0,0,1,.58-1.27,2.33,2.33,0,0,1,1.63-.53,3,3,0,0,1,1.63.4,1.7,1.7,0,0,1,.72,1.37h-1.39a.82.82,0,0,0-.15-.42,1,1,0,0,0-.78-.28,1.13,1.13,0,0,0-.65.14.41.41,0,0,0-.19.33.36.36,0,0,0,.21.35,8.9,8.9,0,0,0,1.45.39,2.67,2.67,0,0,1,1.25.59,1.34,1.34,0,0,1,.41,1,1.62,1.62,0,0,1-.59,1.29,3.54,3.54,0,0,1-3.68,0,1.72,1.72,0,0,1-.6-1.35Zm10.44-1.71a1.23,1.23,0,0,0-.2-.54.84.84,0,0,0-.73-.32,1,1,0,0,0-1,.7,2.9,2.9,0,0,0-.14,1,2.66,2.66,0,0,0,.14.94.93.93,0,0,0,.94.66.83.83,0,0,0,.7-.26,1.31,1.31,0,0,0,.25-.68h1.42a2.33,2.33,0,0,1-.46,1.2,2.23,2.23,0,0,1-1.94.91,2.27,2.27,0,0,1-1.89-.76,3.08,3.08,0,0,1-.61-2,3.12,3.12,0,0,1,.67-2.13,2.33,2.33,0,0,1,1.85-.76,2.78,2.78,0,0,1,1.64.45,2.09,2.09,0,0,1,.76,1.59Zm7.49.76a3.08,3.08,0,0,1-.67,2,2.93,2.93,0,0,1-4.09,0,3.3,3.3,0,0,1,0-4,2.9,2.9,0,0,1,4.09,0,3.1,3.1,0,0,1,.67,2Zm-2.72,1.67a1.1,1.1,0,0,0,.94-.43,2.48,2.48,0,0,0,0-2.46,1.24,1.24,0,0,0-1.88,0,2.47,2.47,0,0,0,0,2.46,1.11,1.11,0,0,0,.94.43Zm6.67-4.46a2,2,0,0,1,1.34.43,1.76,1.76,0,0,1,.52,1.43V91.5h-1.43V88.26a1.49,1.49,0,0,0-.11-.64.78.78,0,0,0-.78-.41,1,1,0,0,0-1,.6,2.08,2.08,0,0,0-.14.81V91.5h-1.39V86.19h1.35V87a2.36,2.36,0,0,1,.51-.59,1.75,1.75,0,0,1,1.08-.32Zm9.13,2a1.23,1.23,0,0,0-.2-.54.84.84,0,0,0-.73-.32,1,1,0,0,0-1,.7,2.9,2.9,0,0,0-.14,1,2.66,2.66,0,0,0,.14.94.93.93,0,0,0,.94.66.83.83,0,0,0,.7-.26,1.31,1.31,0,0,0,.25-.68H148a2.33,2.33,0,0,1-.46,1.2,2.23,2.23,0,0,1-1.94.91,2.27,2.27,0,0,1-1.89-.76,3.08,3.08,0,0,1-.61-2,3.12,3.12,0,0,1,.67-2.13,2.33,2.33,0,0,1,1.85-.76,2.78,2.78,0,0,1,1.64.45,2.09,2.09,0,0,1,.76,1.59ZM151.21,86a3,3,0,0,1,1.25.25,2.17,2.17,0,0,1,.92.79,2.62,2.62,0,0,1,.42,1.1,6.8,6.8,0,0,1,0,1.06H150a1.28,1.28,0,0,0,.56,1.12,1.41,1.41,0,0,0,.77.2,1.08,1.08,0,0,0,1.06-.61h1.42a1.74,1.74,0,0,1-.52,1,2.59,2.59,0,0,1-2,.78,2.9,2.9,0,0,1-1.87-.65,2.58,2.58,0,0,1-.81-2.13,2.88,2.88,0,0,1,.73-2.12,2.57,2.57,0,0,1,1.9-.74Zm0,1.15a1.1,1.1,0,0,0-.83.3,1.45,1.45,0,0,0-.37.82h2.4a1.16,1.16,0,0,0-.37-.84,1.22,1.22,0,0,0-.83-.29Zm6.23-1.13h.19v1.43l-.23,0h-.17a1.15,1.15,0,0,0-1.13.55,2.13,2.13,0,0,0-.16.95V91.5h-1.4V86.18h1.33v.93a2.94,2.94,0,0,1,.56-.73,1.53,1.53,0,0,1,1-.33Zm.45,1.17v-1h.74V84.74H160v1.48h.86v1H160V90a.63.63,0,0,0,.08.41.91.91,0,0,0,.51.08h.27v1l-.66,0a1.77,1.77,0,0,1-1.35-.34,1,1,0,0,1-.23-.74V87.22Zm5.31-1.67H161.8V84.26h1.41Zm-1.41.63h1.41V91.5H161.8Zm4.76-1.95h.26l.27,0V85.4h-.42q-.33,0-.4.18a1.49,1.49,0,0,0-.06.56v.1h.91v1h-.91V91.5h-1.38V87.21H164v-1h.76v-.34a1.83,1.83,0,0,1,.38-1.26,1.8,1.8,0,0,1,1.37-.39Zm1.39,0h1.36v1.26h-1.36Zm0,1.94h1.38v5.3h-1.38Zm5.9,1.88a1.23,1.23,0,0,0-.2-.54.84.84,0,0,0-.73-.32,1,1,0,0,0-1,.7,2.9,2.9,0,0,0-.14,1,2.66,2.66,0,0,0,.14.94.93.93,0,0,0,.94.66.83.83,0,0,0,.7-.26,1.31,1.31,0,0,0,.25-.68h1.42a2.33,2.33,0,0,1-.46,1.2,2.23,2.23,0,0,1-1.94.91,2.27,2.27,0,0,1-1.89-.76,3.08,3.08,0,0,1-.61-2,3.12,3.12,0,0,1,.67-2.13,2.33,2.33,0,0,1,1.85-.76,2.78,2.78,0,0,1,1.64.45,2.09,2.09,0,0,1,.76,1.59Zm4.48.18a2.2,2.2,0,0,0,.56-.12.42.42,0,0,0,.3-.4.47.47,0,0,0-.23-.45,1.45,1.45,0,0,0-.68-.12.89.89,0,0,0-.71.24,1,1,0,0,0-.2.49H176a2,2,0,0,1,.39-1.15,2.29,2.29,0,0,1,1.9-.7,3.39,3.39,0,0,1,1.56.35,1.33,1.33,0,0,1,.68,1.31v2.44q0,.25,0,.62a.77.77,0,0,0,.08.37.5.5,0,0,0,.21.16v.21h-1.51a1.55,1.55,0,0,1-.09-.3q0-.14,0-.32a2.87,2.87,0,0,1-.67.53,2,2,0,0,1-1,.26,1.76,1.76,0,0,1-1.2-.41,1.47,1.47,0,0,1-.47-1.17,1.52,1.52,0,0,1,.76-1.42,3.41,3.41,0,0,1,1.23-.34Zm.85.65a1.54,1.54,0,0,1-.27.13,2.28,2.28,0,0,1-.37.1l-.32.06a2.08,2.08,0,0,0-.64.19.64.64,0,0,0-.33.59.62.62,0,0,0,.2.52.76.76,0,0,0,.49.16,1.45,1.45,0,0,0,.84-.26,1.12,1.12,0,0,0,.4-1Zm4.56-2.86a1.72,1.72,0,0,1,.86.21,1.69,1.69,0,0,1,.61.59V84.31h1.41V91.5h-1.35v-.74a2,2,0,0,1-.68.69,1.91,1.91,0,0,1-.95.21,2,2,0,0,1-1.57-.75,2.9,2.9,0,0,1-.64-1.94,3.33,3.33,0,0,1,.63-2.14,2,2,0,0,1,1.68-.78Zm.3,4.44a1,1,0,0,0,.9-.44,1.94,1.94,0,0,0,.31-1.14,1.75,1.75,0,0,0-.49-1.4,1.06,1.06,0,0,0-.7-.25,1,1,0,0,0-.9.46,2.49,2.49,0,0,0,0,2.32,1,1,0,0,0,.88.44Zm9-1.65a3.08,3.08,0,0,1-.67,2,2.93,2.93,0,0,1-4.09,0,3.3,3.3,0,0,1,0-4,2.9,2.9,0,0,1,4.09,0,3.1,3.1,0,0,1,.67,2Zm-2.72,1.67a1.1,1.1,0,0,0,.94-.43,2.48,2.48,0,0,0,0-2.46,1.24,1.24,0,0,0-1.88,0,2.47,2.47,0,0,0,0,2.46,1.11,1.11,0,0,0,.94.43Zm4.8-.71a.93.93,0,0,0,.19.53,1.3,1.3,0,0,0,1,.28,1.47,1.47,0,0,0,.65-.12.41.41,0,0,0,0-.72,8,8,0,0,0-1.46-.42,3,3,0,0,1-1.28-.56,1.22,1.22,0,0,1-.37-1,1.66,1.66,0,0,1,.58-1.27A2.33,2.33,0,0,1,196,86a3,3,0,0,1,1.63.4,1.7,1.7,0,0,1,.72,1.37H197a.82.82,0,0,0-.15-.42,1,1,0,0,0-.78-.28,1.13,1.13,0,0,0-.65.14.41.41,0,0,0-.19.33.36.36,0,0,0,.21.35,8.9,8.9,0,0,0,1.45.39,2.67,2.67,0,0,1,1.25.59,1.34,1.34,0,0,1,.41,1,1.62,1.62,0,0,1-.59,1.29,3.54,3.54,0,0,1-3.68,0,1.72,1.72,0,0,1-.6-1.35Z" transform="translate(0)"/><text class="cls-9" transform="translate(76.65 104.5)">IBD y RSPO que avalan la </text><text class="cls-9" transform="translate(71.67 117.5)">producción sustentable de </text><text class="cls-9" transform="translate(66.65 130.5)">aceite de palma utilizado en </text><text class="cls-9" transform="translate(106.13 143.5)">algunos productos.</text><g class="cls-2"><path class="cls-10" d="M176.3,224.35c0,3.7-29.75,6.71-66.46,6.71s-66.46-3-66.46-6.71,29.75-6.71,66.46-6.71,66.46,3,66.46,6.71" transform="translate(0)"/></g></g></g></svg>
