<svg xmlns="http://www.w3.org/2000/svg" viewBox="0 0 114.36 42.97"><defs><style>.cls-1{fill:#5770b4;}.cls-2{fill:#343e5d;}</style></defs><title>ventiladores</title><g id="Layer_2" data-name="Layer 2"><g id="_ÎÓÈ_1" data-name="—ÎÓÈ_1"><path class="cls-1" d="M3.23,28.87a5.79,5.79,0,0,0,3.25,1,5.86,5.86,0,0,0,1.66-.23l9.28-2.56a6.72,6.72,0,0,0,1,.62,35.06,35.06,0,0,1-6.59,6.72,3.88,3.88,0,0,0-.76,5.14C13,42.4,16.81,43,19.51,43a17.78,17.78,0,0,0,2.94-.23c3.07-.23,5.21-1.23,6.41-3a6.05,6.05,0,0,0,.75-4.92l-2.55-9.28a8.17,8.17,0,0,0,.62-1,34.42,34.42,0,0,1,6.7,6.56,3.88,3.88,0,0,0,3,1.44,3.8,3.8,0,0,0,2.13-.65c4.53-3,3.36-10.63,3.23-11.34-.24-3.07-1.25-5.22-3-6.41a6,6,0,0,0-4.9-.75l-9.3,2.55a6.57,6.57,0,0,0-1-.62,34.43,34.43,0,0,1,6.59-6.7,3.92,3.92,0,0,0,.78-5.16C28.88-1.07,21.23.1,20.51.23c-3.05.23-5.21,1.23-6.41,3a6.12,6.12,0,0,0-.75,4.92l2.55,9.3a6.57,6.57,0,0,0-.62,1,34.49,34.49,0,0,1-6.7-6.59,3.9,3.9,0,0,0-5.14-.78C-1.07,14.09.1,21.75.23,22.46.46,25.51,1.46,27.67,3.23,28.87Zm21.92-7.38a3.67,3.67,0,1,1-3.67-3.67A3.67,3.67,0,0,1,25.15,21.49Z"/><path class="cls-1" d="M74.63,28.87a5.79,5.79,0,0,0,3.25,1,5.86,5.86,0,0,0,1.66-.23l9.28-2.56a6.72,6.72,0,0,0,1,.62,35.06,35.06,0,0,1-6.59,6.72,3.88,3.88,0,0,0-.76,5.14C84.39,42.4,88.21,43,90.9,43a17.78,17.78,0,0,0,2.94-.23c3.07-.23,5.21-1.23,6.41-3a6.05,6.05,0,0,0,.75-4.92l-2.55-9.28a8.17,8.17,0,0,0,.62-1,34.42,34.42,0,0,1,6.7,6.56,3.88,3.88,0,0,0,3,1.44,3.8,3.8,0,0,0,2.13-.65c4.53-3,3.36-10.63,3.23-11.34-.24-3.07-1.25-5.22-3-6.41a6,6,0,0,0-4.9-.75l-9.3,2.55a6.57,6.57,0,0,0-1-.62,34.43,34.43,0,0,1,6.59-6.7,3.92,3.92,0,0,0,.78-5.16C100.28-1.07,92.62.1,91.91.23c-3.05.23-5.21,1.23-6.41,3a6.12,6.12,0,0,0-.75,4.92l2.55,9.3a6.57,6.57,0,0,0-.62,1A34.49,34.49,0,0,1,80,11.88a3.9,3.9,0,0,0-5.14-.78c-4.51,3-3.34,10.64-3.21,11.36C71.85,25.51,72.86,27.67,74.63,28.87Zm21.92-7.38a3.67,3.67,0,1,1-3.67-3.67A3.67,3.67,0,0,1,96.55,21.49Z"/><path class="cls-2" d="M39.76,28.87a5.79,5.79,0,0,0,3.25,1,5.86,5.86,0,0,0,1.66-.23l9.28-2.56a6.72,6.72,0,0,0,1,.62,35.06,35.06,0,0,1-6.59,6.72,3.88,3.88,0,0,0-.76,5.14C49.53,42.4,53.34,43,56,43A17.78,17.78,0,0,0,59,42.74c3.07-.23,5.21-1.23,6.41-3a6.05,6.05,0,0,0,.75-4.92l-2.55-9.28a8.17,8.17,0,0,0,.62-1,34.42,34.42,0,0,1,6.7,6.56,3.88,3.88,0,0,0,3,1.44A3.8,3.8,0,0,0,76,31.87c4.53-3,3.36-10.63,3.23-11.34-.24-3.07-1.25-5.22-3-6.41a6,6,0,0,0-4.9-.75l-9.3,2.55a6.57,6.57,0,0,0-1-.62,34.43,34.43,0,0,1,6.59-6.7,3.92,3.92,0,0,0,.78-5.16C65.41-1.07,57.75.1,57,.23c-3.05.23-5.21,1.23-6.41,3a6.12,6.12,0,0,0-.75,4.92l2.55,9.3a6.57,6.57,0,0,0-.62,1,34.49,34.49,0,0,1-6.7-6.59A3.9,3.9,0,0,0,40,11.1c-4.51,3-3.34,10.64-3.21,11.36C37,25.51,38,27.67,39.76,28.87Zm21.92-7.38A3.67,3.67,0,1,1,58,17.82,3.67,3.67,0,0,1,61.68,21.49Z"/></g></g></svg>
