<svg xmlns="http://www.w3.org/2000/svg" viewBox="0 0 97.38 95.32"><defs><style>.cls-1{fill:none;stroke:#7e7565;stroke-linecap:round;stroke-linejoin:round;stroke-width:3px;stroke-dasharray:0 9.21;}.cls-2{fill:#c49c5c;}</style></defs><title>engrane5</title><g id="Layer_2" data-name="Layer 2"><g id="Layer_1-2" data-name="Layer 1"><path class="cls-1" d="M57.85,93.17c20.31-3.88,36-20.44,38-40.91"/><path class="cls-1" d="M95.19,38.51c-4.05-19.8-21-35-41.9-37"/><path class="cls-1" d="M39.54,2.15C19.23,6,3.56,22.59,1.5,43.06"/><path class="cls-1" d="M2.19,56.81c4,19.8,21,35,41.9,37"/><path class="cls-2" d="M47.26,34.75A13,13,0,1,1,35.76,49.1a13,13,0,0,1,11.5-14.35M14.8,55.06c.21,1.87,1.64,1.82,4.31,1.75s5.05.45,6.37,2.69c.22.43.44.85.68,1.27l0,.07c1.21,2.32.38,4.62-1.11,6.84s-2.3,3.4-.83,4.57l2.83,2.26.07.05L30,76.82c1.47,1.18,2.46.12,4.29-1.81s3.86-3.22,6.36-2.6c.46.16.93.29,1.4.41l.09,0c2.5.78,3.54,3,4.05,5.62s.78,4,2.65,3.82l3.6-.4h.09l3.6-.4c1.87-.21,1.82-1.65,1.75-4.31s.45-5,2.69-6.35c.43-.22.86-.44,1.27-.68l.07,0c2.32-1.21,4.63-.37,6.84,1.11s3.41,2.29,4.59.83.37-.47,2.27-2.83l0,0,0,0,2.26-2.83c1.17-1.47.13-2.45-1.81-4.28s-3.24-3.87-2.6-6.37q.22-.67.4-1.36s0-.06.06-.11c.78-2.49,3-3.53,5.63-4s4-.79,3.83-2.65-.07-.59-.4-3.6a.42.42,0,0,0,0,0,.13.13,0,0,0,0,0c-.34-3-.21-1.74-.41-3.6s-1.65-1.82-4.31-1.75-5.07-.45-6.38-2.71c-.21-.42-.43-.83-.66-1.23,0,0,0,0,0-.08-1.21-2.32-.37-4.63,1.12-6.84s2.29-3.4.83-4.57l-2.83-2.26,0,0,0,0L67.42,18.5c-1.47-1.17-2.45-.12-4.29,1.81s-3.88,3.25-6.4,2.6c-.44-.14-.88-.27-1.33-.39,0,0-.06,0-.12-.06-2.49-.79-3.53-3-4-5.62s-.79-4-2.65-3.82l-3.61.4h-.08l-3.61.41c-1.87.21-1.82,1.64-1.75,4.31s-.45,5.06-2.72,6.37h0c-.41.22-.83.42-1.23.66l-.08,0c-2.33,1.2-4.63.37-6.85-1.12s-3.4-2.29-4.58-.83L21.8,26.07l0,.06h0c-1.89,2.36-1.1,1.38-2.26,2.83s-.12,2.44,1.81,4.28,3.25,3.87,2.6,6.38c-.14.44-.27.89-.39,1.34,0,0,0,.06-.06.11-.79,2.5-3,3.53-5.63,4s-4,.78-3.83,2.65l.41,3.68c.33,3,.2,1.75.4,3.6"/></g></g></svg>
