<svg id="Layer_1" data-name="Layer 1" xmlns="http://www.w3.org/2000/svg" viewBox="0 0 150 200"><defs><style>.cls-1{fill:#ededed;}.cls-2{fill:#c49c5c;}.cls-3{font-size:17.95px;fill:#7e7565;font-family:Helvetica-Bold, Helvetica;font-weight:700;}.cls-4{fill:none;stroke:#c49c5c;stroke-linecap:round;stroke-linejoin:round;stroke-width:1.5px;}</style></defs><title>brasil</title><ellipse class="cls-1" cx="75" cy="134.58" rx="32.31" ry="3.26"/><path class="cls-2" d="M73.6,37.49a1.8,1.8,0,0,0,2.55-.26,2.86,2.86,0,0,0,.26-.61,2.07,2.07,0,0,1,.43-.84c-.14-.22-.47-.18-.74-.14l-.27,0s-.07,0-.08-.09c0-.24-.2-.68-.39-.72a1.06,1.06,0,0,1-.49.59.48.48,0,0,1-.47-.14c-.2-.18-.63-.44-.82-.35a.14.14,0,0,1,0,.08,7.14,7.14,0,0,1-.21.75c-.07.23-.14.46-.19.7A1,1,0,0,0,73.6,37.49Z"/><path class="cls-2" d="M104.52,51.48l.05-.22a5.46,5.46,0,0,0,.15-.89,2,2,0,0,0-.25-1.07.73.73,0,0,1-.06-.81.44.44,0,0,0,0-.25.12.12,0,0,0-.08-.07,1.17,1.17,0,0,0-.42,0,1.29,1.29,0,0,1-.46,0,2,2,0,0,1-.3-.12l-.25-.1-.18-.06a1.52,1.52,0,0,1-.66-.31,2.42,2.42,0,0,0-.39-.27l-.21-.13a1.09,1.09,0,0,1-.28-.31l-.13-.17-.26-.28a2.7,2.7,0,0,1-.69-.94,1.55,1.55,0,0,1-.08-.42,1.06,1.06,0,0,0-.39-.82,5,5,0,0,0-.58-.51c-.15-.11-.29-.23-.43-.36a3.69,3.69,0,0,1-.38-.42l-.07-.09a.56.56,0,0,0-.13-.15.77.77,0,0,0-.38,0h-.13a1.12,1.12,0,0,0-.33,0l-.25,0h-.23a1.1,1.1,0,0,0-.4.05.13.13,0,0,1,0,.07.07.07,0,0,1-.12,0l-.1-.12c-.24-.29-.55-.65-.87-.69h0a.43.43,0,0,0-.3.15.54.54,0,0,1-.48.19.1.1,0,0,1-.06-.11.51.51,0,0,1,.08-.21c0-.07,0-.09,0-.12s-.22-.15-.31-.2L94,41.64a3.3,3.3,0,0,1-.6-.57l-.07-.1c0-.06-.05-.07-.12-.09a.76.76,0,0,0-.49.2,1.26,1.26,0,0,1-.38.2c-.23.05-.37-.11-.5-.26a1.16,1.16,0,0,0-.16-.17V41a1.09,1.09,0,0,1-.17.58,1.35,1.35,0,0,1-.25.24c-.14.12-.29.24-.3.39v0a.11.11,0,0,1-.09.11h0a.1.1,0,0,1-.07-.1s0,0,0,0V42a1.64,1.64,0,0,1,.08-.54,2.8,2.8,0,0,1,.17-.36,1.82,1.82,0,0,0,.18-.39,2.31,2.31,0,0,0,.13-1.29.9.9,0,0,0-.61-.42,1.86,1.86,0,0,1-.36-.15l-.16-.09a1.87,1.87,0,0,1-.47-.33,2,2,0,0,1-.28-.42l-.11-.19-.06-.1c-.08-.13-.11-.2-.24-.22h-.16c-.16,0-.43,0-.47-.28a1.88,1.88,0,0,0-.53-.15,3.09,3.09,0,0,1-.4-.09,2.33,2.33,0,0,0-.95-.07,4.8,4.8,0,0,1-.52,0,4,4,0,0,0,0,.49c0,.44-.05.93-.34,1.16a1.18,1.18,0,0,1-1,.13l-.18,0a3.34,3.34,0,0,1-.27.48,3.43,3.43,0,0,0-.27.49.1.1,0,0,1-.07.06.09.09,0,0,1-.08-.05.79.79,0,0,1,.14-.71c.14-.25.17-.34.05-.45a1.18,1.18,0,0,0-.78-.16c-.46,0-1,0-1.07-.68a2.16,2.16,0,0,1,0-.38c0-.23,0-.35-.16-.49a1.15,1.15,0,0,0-.51-.17,1.54,1.54,0,0,1-.5-.15.12.12,0,0,1,0-.14l.09-.27A2.63,2.63,0,0,1,81.62,35a2,2,0,0,1,1.22-.46.42.42,0,0,1,.09-.28c.14-.16.39-.07.63,0s.32.11.36.07a.6.6,0,0,0-.06-.28A.88.88,0,0,1,84,33a.57.57,0,0,0,0-.74l-.23-.31a4.71,4.71,0,0,1-.75-1.28,2,2,0,0,1-.09-.77c0-.12,0-.24,0-.38a3.18,3.18,0,0,0,0-.34,2.39,2.39,0,0,1,0-.61,4.1,4.1,0,0,1,.06-.41,1.66,1.66,0,0,0,0-.7,1.93,1.93,0,0,1,0-.31c0-.26,0-.42-.18-.48a.1.1,0,0,1,0-.11,1.53,1.53,0,0,1,0-.18l0-.09a1.13,1.13,0,0,1-.27,0A1.56,1.56,0,0,1,82,27a2.22,2.22,0,0,0-.23.24,5.41,5.41,0,0,0-.57,1.07c-.31.7-.63,1.42-1.34,1.66a3.43,3.43,0,0,1-1.61,0h-.09c-.24,0-.5-.1-.57-.33a.44.44,0,0,1,0-.2.61.61,0,0,1-.26-.16l-.07-.06-.05-.05a.17.17,0,0,0-.1-.06.5.5,0,0,0-.16,0h-.27c-.21,0-.45,0-.53-.18a.34.34,0,0,1,0-.22l-.13,0c-.26-.07-.56-.15-.74.06s-.1.2,0,.41l0,0c.14.25.13.32-.08.57l0,0-.12,0a.75.75,0,0,1-.35,0h0a.88.88,0,0,1-.27-.11.66.66,0,0,0-.21-.09h0l-.14,0a1,1,0,0,1-.43-.14l-.19-.09a.5.5,0,0,1-.12.27.48.48,0,0,1-.45.09.51.51,0,0,0-.47.1l0,.05c-.17.2-.23.25-.5.14l-.09,0c-.18-.08-.32-.14-.48,0l-.13.14a.47.47,0,0,1-.42.23h-.05a1.67,1.67,0,0,1-.61-.29,1.36,1.36,0,0,1-.79-1.16c0-.1,0-.18,0-.26a.87.87,0,0,0,0-.46,1.24,1.24,0,0,0-.12-.23.92.92,0,0,1-.18-.59.94.94,0,0,1,.26-.5,1.21,1.21,0,0,0,.15-.2,1.3,1.3,0,0,0,.11-.43,2.66,2.66,0,0,1,.06-.31,1.15,1.15,0,0,1,.37-.56.73.73,0,0,0,.3-.59.82.82,0,0,0-.36-.7L69.83,24c-.15-.08-.38-.21-.32-.47a.51.51,0,0,1,.3-.3.52.52,0,0,0,.16-.11.73.73,0,0,0,0-.61.39.39,0,0,0-.23-.29.94.94,0,0,0-.79.24l-.06.06a1.21,1.21,0,0,1-.27,1,.5.5,0,0,1-.6.13.47.47,0,0,0-.48,0l-.29.2c-.39.27-.76.52-1,.48h0l-.17,0-.63-.11a1.68,1.68,0,0,0-.09.3,1.21,1.21,0,0,1-.2.51.08.08,0,0,1-.1,0,1.14,1.14,0,0,1-.35-.39,1.2,1.2,0,0,0-.29-.34.59.59,0,0,0-.22-.08.53.53,0,0,1-.3-.14.54.54,0,0,1-.11-.27.86.86,0,0,0,0-.13s-.14,0-.2,0a.5.5,0,0,1-.35,0,3,3,0,0,1-.55-.38,1.19,1.19,0,0,0,.1.61.49.49,0,0,0,.19.21.5.5,0,0,1,.26.45,1.17,1.17,0,0,1-.08.33,1.08,1.08,0,0,0-.08.29.8.8,0,0,1,0,.18.39.39,0,0,0,0,.17,1.56,1.56,0,0,1,0,.89c0,.05,0,.11,0,.16h.31a1.33,1.33,0,0,1,.65.05.29.29,0,0,1,.19.3c0,.26-.41.43-.54.47-.35.09-.35.09-.53.38l0,.07a1.08,1.08,0,0,1-.34.33.74.74,0,0,0-.29.31,1.34,1.34,0,0,0-.06.16c-.06.18-.11.24-.33.26a1,1,0,0,1-.46-.09,1.48,1.48,0,0,0-.25-.08.91.91,0,0,1-.39.37,1.19,1.19,0,0,0-.26.19.84.84,0,0,0-.13.23c-.07.16-.17.36-.36.39h0l0,0a.1.1,0,0,1,0-.09.42.42,0,0,0-.06-.34c-.17-.2-.64-.07-.93,0l-.25.06a.06.06,0,0,1-.06,0,.12.12,0,0,1,0-.08c0-.35-.18-.41-.51-.48s-.43-.09-.49-.32a1.41,1.41,0,0,1,.1-.53,3.29,3.29,0,0,0,.08-.33c0-.05,0-.1,0-.15a3.13,3.13,0,0,0,0-.55,1.44,1.44,0,0,1-.23-.3c-.05,0-.09,0-.14.11a1.07,1.07,0,0,1-.21.21,1.18,1.18,0,0,1-.87.18.11.11,0,0,1-.06-.12c0-.06,0-.12,0-.18a.7.7,0,0,1-.74.19l-.48-.05a5.66,5.66,0,0,1-.57-.06,1.34,1.34,0,0,1-.39-.21c-.13-.08-.34-.21-.4-.2a2.42,2.42,0,0,0-.12,1.2c.07.26.27.29.58.32h.14a.08.08,0,0,1,.07.06,1.55,1.55,0,0,1,0,.69l0,.08a.1.1,0,0,1-.1.09l-.27-.05a1,1,0,0,0-.37,0l-.17,0a.72.72,0,0,1-.52,0,4.86,4.86,0,0,1,0,.59c0,.15,0,.31,0,.47a.77.77,0,0,0,.27.63l.09.11c.7.83.19,2.09-.25,3.19a7.11,7.11,0,0,0-.46,1.38c0,.16,0,.35-.07.57a4.36,4.36,0,0,1-.4,1.74.41.41,0,0,1-.42.2s0,.08-.07.08a3.35,3.35,0,0,0-.55.15,1.94,1.94,0,0,1-1,.14L50,38.28a1.28,1.28,0,0,0-.74-.09c-.19.06-.29.21-.4.4l-.12.19a1.37,1.37,0,0,1-.82.53,1.36,1.36,0,0,0-.63.34,3.93,3.93,0,0,0-.69,1.67l-.08.3a1.39,1.39,0,0,1-.61.84,1.81,1.81,0,0,0-.44.43c-.3.43-.12,1.3,0,1.83l0,.11a3.68,3.68,0,0,0,.28.75A2.24,2.24,0,0,1,46,47a1.48,1.48,0,0,1-.06.19c0,.11,0,.11,0,.19a.66.66,0,0,0,.34.16.86.86,0,0,1,.42.2,1,1,0,0,1,.24.52,2.2,2.2,0,0,0,.09.28.7.7,0,0,0,.62.41h0c.61.09.91-.13,1.34-.66l.33-.38a.07.07,0,0,1,.08,0,.09.09,0,0,1,.06.07,4.35,4.35,0,0,1-.2,1.65c-.06.26-.12.5-.16.74,0,.08,0,.17-.06.26-.08.31-.12.51,0,.59s.16,0,.25-.12.18-.27.36-.27a1.3,1.3,0,0,1,.69.36l.16.12c.15-.16.39-.08.54,0l0,0a1.24,1.24,0,0,1,.52.33l.06.06c.13.14.2.21.34.16a.87.87,0,0,0,.33-.32c.16-.21.34-.45.62-.32l.16.1c.13.09.17.11.27,0a2.53,2.53,0,0,0,.14-.23,1.74,1.74,0,0,1,.25-.36l.11-.13a1.41,1.41,0,0,1,.4-.36l.3-.13a1.67,1.67,0,0,0,.52-.29l0,0a1.88,1.88,0,0,1,.71.13l.1,0a.67.67,0,0,0,.37,0,.72.72,0,0,0,.19-.11.55.55,0,0,1,.38-.15.4.4,0,0,1,.35.17,1,1,0,0,1,0,.65l0,.12c0,.16-.07.41-.21.5a.22.22,0,0,1-.23,0l0,0a.55.55,0,0,0,.18.48l.13.18c.14.22.09.35-.07.57a.49.49,0,0,1-.19.18,2.86,2.86,0,0,1,.16.6,3.54,3.54,0,0,0,.09.37c0,.06,0,.15.05.23a1.14,1.14,0,0,0,.09.35.4.4,0,0,0,.17.07l.12,0a.78.78,0,0,1,.55.82v.11a.56.56,0,0,0,0,.31.11.11,0,0,0,.1,0,.23.23,0,0,1,.1-.11c.19-.1.54.06.64.16a.76.76,0,0,0,.25.16l.09,0a.33.33,0,0,1,.22.3,1,1,0,0,1,.69.15l.07.05a2.8,2.8,0,0,1,.52.48.75.75,0,0,1,.09.2.43.43,0,0,0,.08.18s0,0,.06,0a.29.29,0,0,1,.13,0,.32.32,0,0,1,.29.1.51.51,0,0,1,0,.34,1.25,1.25,0,0,0,0,.19.26.26,0,0,0,0,.14s.1,0,.17,0a.66.66,0,0,1,.22,0h0a2.19,2.19,0,0,1,.6.23,3,3,0,0,0,.42.18l.13,0a.53.53,0,0,1,.29.09.33.33,0,0,1,.12.22.45.45,0,0,0,0,.09.88.88,0,0,0,.14.2.68.68,0,0,1,.21.53.61.61,0,0,1-.22.42.6.6,0,0,0-.13.17,1.29,1.29,0,0,0-.06.45c0,.06,0,.11,0,.17a1.3,1.3,0,0,1,0,.53.91.91,0,0,0,0,.39.48.48,0,0,0,.07.16.58.58,0,0,1,.11.27,2.21,2.21,0,0,1-.07.68l0,.07a1.66,1.66,0,0,1-.05.18.85.85,0,0,0-.06.39.56.56,0,0,0,.17.19l.1.09a1.18,1.18,0,0,0,.74.31l.33.06a7.33,7.33,0,0,0,1.23.25s.06,0,.07.07a.84.84,0,0,1-.17.71.48.48,0,0,0-.12.38,1.34,1.34,0,0,0,.1.29c0,.08.06.16.08.23a1.07,1.07,0,0,0,.21.45.49.49,0,0,0,.26.13l.13,0c.24.09.26.13.25.43a1.78,1.78,0,0,0,.09.67,2.68,2.68,0,0,1,.1.49,1.55,1.55,0,0,1-.28.82l-.05.1a2.4,2.4,0,0,1-.4.82l-.14.22L66,70.2a1.28,1.28,0,0,1-.22.33l-.06.06a.8.8,0,0,0-.17.21.62.62,0,0,1,0,.17,1.41,1.41,0,0,1-.05.45,1.7,1.7,0,0,0,0,.3,2.89,2.89,0,0,0,.09.72c0,.07,0,.13,0,.2a3.7,3.7,0,0,1-.07,1.43,2.1,2.1,0,0,1-.2.46c-.09.17-.24.45-.2.52a.82.82,0,0,0,.22.17,1.07,1.07,0,0,1,.2.14.81.81,0,0,0,.43.3,5.61,5.61,0,0,1,.76.24c.19.08.3.12.41,0a.08.08,0,0,1,.07,0,.49.49,0,0,1,.25.07.48.48,0,0,0,.15.06h.15a.4.4,0,0,1,.38.11,2.23,2.23,0,0,1,.49.88,1.3,1.3,0,0,1,0,.41,1.6,1.6,0,0,0,0,.27c0,.07,0,.13,0,.18a1.14,1.14,0,0,1,0,.65v0c-.09.27-.34,1-.14,1.2s.19.06.36,0a1,1,0,0,1,.21-.06h0c.23,0,.31,0,.41-.31a.1.1,0,0,1,.08-.07.91.91,0,0,1,.73.69,1.14,1.14,0,0,1-.23.72,1.25,1.25,0,0,0-.22.52.07.07,0,0,1,0,0c0,.13-.05.27-.08.4a1.25,1.25,0,0,1-.21.52l-.06.11,0,.09a.65.65,0,0,1-.15.22.32.32,0,0,1-.12.07.19.19,0,0,0-.08,0,.39.39,0,0,0-.06.24.26.26,0,0,0,0,.1.46.46,0,0,1,.08-.11,1.36,1.36,0,0,1,.3-.17l.19-.1c.19-.12.36-.2.5.12l.08.15a1.5,1.5,0,0,1,.19.47,1.33,1.33,0,0,1-.08.56,2.25,2.25,0,0,0-.06.26,1.46,1.46,0,0,0,0,.41,2,2,0,0,1,0,.36.62.62,0,0,1-.18.38.72.72,0,0,0-.13.2.32.32,0,0,0,0,.09.53.53,0,0,1,0,.21.37.37,0,0,1-.12.15l0,0-.08.1a.93.93,0,0,1-.29.28,1,1,0,0,1-.29.09l-.2.05-.07,0a.33.33,0,0,1-.15.08.29.29,0,0,1-.14,0l-.06,0a.4.4,0,0,0-.31,0,1.18,1.18,0,0,0-.16.16,1,1,0,0,1-.28.25l-.38.17-.28.1a2.6,2.6,0,0,0-.41.15v.07a.7.7,0,0,1-.25.52l-.1.07a3.54,3.54,0,0,1-.67.42l-.13.05a1.25,1.25,0,0,0-.51.3.62.62,0,0,0-.11.22l-.05.14a2.2,2.2,0,0,1-.29.46,1.36,1.36,0,0,1-.65.51.91.91,0,0,0-.52.45l0,0a1.45,1.45,0,0,0-.17.32h0a.08.08,0,0,1,.09.07l.15-.07a.82.82,0,0,1,.21-.09A.44.44,0,0,1,64,91l.12,0c.09,0,.12,0,.2-.07l.07-.05,0,0c.11-.09.16,0,.22.05v0a1.37,1.37,0,0,1,.08.16.44.44,0,0,0,.13.19l.08,0a.36.36,0,0,1,.22.24.66.66,0,0,1,0,.31.65.65,0,0,0,0,.16.28.28,0,0,0,.09.17l.09.12a.33.33,0,0,1,0,.43.79.79,0,0,1,.19,0l.12,0a.17.17,0,0,0,.11,0l.07,0a.38.38,0,0,1,.41.14l.08.07.11.06a.46.46,0,0,1,.21.15.44.44,0,0,1,.05.21.34.34,0,0,0,0,.12.59.59,0,0,0,.33.2l.09,0c.2,0,.27.07.34.4a1,1,0,0,0,.2.37l.06.08a2.44,2.44,0,0,0,.27.31,2.91,2.91,0,0,1,.29.32,1.26,1.26,0,0,0,.2.21,1.1,1.1,0,0,1,.29.35.6.6,0,0,1,0,.22.43.43,0,0,0,0,.12s0,.05.06.06a.27.27,0,0,1,.11.05.37.37,0,0,1,.12.18.35.35,0,0,0,0,.09l.08.06a.3.3,0,0,1,.19.23.25.25,0,0,1,0,.17.17.17,0,0,1-.14.07h0a.49.49,0,0,0-.13.08l-.12.09a.45.45,0,0,1-.17.06.25.25,0,0,0-.14.05.66.66,0,0,0-.09.33v0a.14.14,0,0,1,0,.08s0,.05,0,.08c0,.32,0,.69.21.86l.07,0h0v0a.35.35,0,0,0,.25,0,.41.41,0,0,0,.12-.17.81.81,0,0,1,.12-.2,1.87,1.87,0,0,1,.18-.17,1,1,0,0,0,.23-.26,2.87,2.87,0,0,1,.3-.45,1.33,1.33,0,0,0,.11-.19,1.58,1.58,0,0,1,.11-.19,1.27,1.27,0,0,1,.15-.17.79.79,0,0,0,.17-.21,1.18,1.18,0,0,0,.07-.23,1.12,1.12,0,0,1,.12-.34h0a.13.13,0,0,1,0-.09,1.51,1.51,0,0,0,.16-.49A2.31,2.31,0,0,1,71,95.2l0-.07a2,2,0,0,1,.44-.7.71.71,0,0,1,.44-.1.63.63,0,0,0,.33-.06.66.66,0,0,0,.21-.34c0-.1.08-.19.12-.29s.09-.22.13-.33a1.9,1.9,0,0,0,.13-.59,1.12,1.12,0,0,0,0-.15.87.87,0,0,1,0-.37.12.12,0,0,1,.05-.06.07.07,0,0,1,.07,0,1.92,1.92,0,0,1,.56.58l.17.22a1.27,1.27,0,0,0,.3.26h0a.43.43,0,0,1,.18.21,1.51,1.51,0,0,0,.52-.71l.07-.14a1.06,1.06,0,0,1,.22-.28.66.66,0,0,0,.18-.27l0-.07a.46.46,0,0,1,.14-.26.32.32,0,0,0,.1-.14l0-.08a.54.54,0,0,1,.29-.28.58.58,0,0,0,.18-.12A.38.38,0,0,0,76,91a.77.77,0,0,1,.1-.16.36.36,0,0,1,.2-.08l.09,0c.09,0,.12-.09.17-.19l.09-.16a1.16,1.16,0,0,0,.09-.15.78.78,0,0,1,.31-.37l0,0,.05,0,0-.09c0-.07,0-.14,0-.22s0-.08,0-.12,0,0,0,0a.53.53,0,0,1,0-.14.43.43,0,0,1,.06-.1l0,0a1.21,1.21,0,0,0,0-.16.76.76,0,0,1,.12-.37.62.62,0,0,1,.2-.19.54.54,0,0,0,.14-.12s0-.07,0-.16V88a.83.83,0,0,1,0-.15.37.37,0,0,0,0-.09.35.35,0,0,0,0-.08l0-.09a3,3,0,0,1,0-.53.61.61,0,0,1,.08-.26l0-.08a1.15,1.15,0,0,0,.06-.29.64.64,0,0,0,0-.19.64.64,0,0,1,0-.34.31.31,0,0,1,.11-.15l0,0a.41.41,0,0,0,0-.05.51.51,0,0,1,0-.14.67.67,0,0,1,.07-.11l0,0a1.07,1.07,0,0,0,.08-.23,1.3,1.3,0,0,1,.11-.3l0,0a.31.31,0,0,1-.12-.16.66.66,0,0,1,0-.54.44.44,0,0,1,.22-.2l.08,0a.41.41,0,0,0,.08-.1.41.41,0,0,1,.19-.17c.1,0,.21.05.31.12a.44.44,0,0,0,.16.1s0,0,.05,0l.06-.08.17-.15.08-.07.12-.11a1.62,1.62,0,0,1,.41-.33l.1,0a.45.45,0,0,0,.17-.09l.19-.17.18-.16.14-.13a.71.71,0,0,1,.43-.28h.14a.46.46,0,0,0,.16,0l.26-.08h0a.71.71,0,0,0,.13-.08.6.6,0,0,1,.19-.1.08.08,0,0,1,.07,0h0a.22.22,0,0,1,.1-.14.1.1,0,0,1,.1,0,.1.1,0,0,1,0,.06h0a.15.15,0,0,1,.11-.08.24.24,0,0,1,.14,0l0,0a1.47,1.47,0,0,0,.26,0,.4.4,0,0,1,.23.08.43.43,0,0,1,.09.18h0a.19.19,0,0,0,.06-.1.59.59,0,0,0,0-.11.47.47,0,0,1,0-.27c.06-.11.15-.31.33-.32a.51.51,0,0,1,.18,0,.19.19,0,0,0,.2,0,.53.53,0,0,0,.09-.1l.09-.12L84.7,81a.29.29,0,0,0,.1-.14.42.42,0,0,1,.22-.29.5.5,0,0,0,.17-.17l0,0a.55.55,0,0,1,.45-.22.73.73,0,0,0,.2,0,.28.28,0,0,1,.28,0,.32.32,0,0,0,.1.06.27.27,0,0,0,.15,0,.4.4,0,0,1,.24,0l.13.06a.42.42,0,0,0,.19.06H87c.14,0,.36,0,.44.17a.63.63,0,0,1,0,.17c0,.07,0,.1.07.13s.06,0,.12,0l.11-.06a.45.45,0,0,1,.21,0h.09a.5.5,0,0,1,.45.14s0,0,.09,0a.25.25,0,0,1,.16,0,.33.33,0,0,1,.12.09l0,0a2.3,2.3,0,0,1,.29-.86,1.24,1.24,0,0,1,.38-.42l.08,0,.1-.07.07-.09a.54.54,0,0,1,.18-.19.06.06,0,0,1,.06,0,.08.08,0,0,1,0,.06.08.08,0,0,0,.09,0s0,0,0-.05a.34.34,0,0,1,.15-.15.63.63,0,0,1,.17,0c.08,0,.15,0,.19-.07a.78.78,0,0,0,.06-.33,1.34,1.34,0,0,1,0-.28c0-.1,0-.2.06-.3a3.33,3.33,0,0,1,.07-.34,1.16,1.16,0,0,1,.09-.22.63.63,0,0,0,.08-.24.54.54,0,0,1,.32-.53.72.72,0,0,0,.39-.24,2,2,0,0,1,.22-.22l.14-.13a1.58,1.58,0,0,0,.17-.23l.13-.2c.09-.12.19-.22.28-.31l.14-.15a.73.73,0,0,0,.11-.17.86.86,0,0,1,.15-.23,1.55,1.55,0,0,0,.32-.82,3.1,3.1,0,0,0,0-.48c0-.06,0-.11,0-.17a3.59,3.59,0,0,1,.17-.88l0-.15A1.21,1.21,0,0,1,94,72a.6.6,0,0,1,.2-.15.39.39,0,0,0,.15-.12l0,0a.23.23,0,0,1,.21-.14h.16c.11,0,.11,0,.14-.2l0-.11a3.28,3.28,0,0,1,.09-.4l.11-.33.09-.26a3.29,3.29,0,0,0,.11-.52,3.07,3.07,0,0,1,.16-.68,2.61,2.61,0,0,1,.22-.41,2.61,2.61,0,0,0,.18-.33,2.35,2.35,0,0,0,.13-.47,3.27,3.27,0,0,1,.08-.34l0-.08c.08-.27.12-.37,0-.59l0,0a.35.35,0,0,1-.09-.22.93.93,0,0,1,0-.29s0-.07,0-.1a1.76,1.76,0,0,0,0-.45v-.12a1.86,1.86,0,0,1,.08-.53,2.9,2.9,0,0,0,.06-.31c0-.1,0-.21,0-.31s0-.29.06-.44,0-.15,0-.22,0-.25,0-.37a6.25,6.25,0,0,1,.15-.75c0-.14.07-.28.1-.42a1.17,1.17,0,0,0,0-.12.75.75,0,0,1,.05-.27.1.1,0,0,1,.11-.05,1.35,1.35,0,0,1,.31.1,1.35,1.35,0,0,0,.27.09l.24,0,.24,0c.08,0,.19,0,.24,0a1,1,0,0,0,.19-.26l.09-.13a2.39,2.39,0,0,0,.42-.86,1,1,0,0,1,.28-.51.66.66,0,0,0,.09-.14.83.83,0,0,1,.13-.19.63.63,0,0,1,.16-.1.89.89,0,0,0,.25-.16l0,0a.12.12,0,0,1,0-.09,1.11,1.11,0,0,1,.43-.87,4.09,4.09,0,0,1,1.14-.64,1.16,1.16,0,0,0,.5-.4,2.09,2.09,0,0,0,.14-.22l.06-.11a1,1,0,0,1,.12-.15.83.83,0,0,0,.1-.12s0-.07,0-.14a.83.83,0,0,1,0-.15.74.74,0,0,1,.12-.35l0-.09a.08.08,0,0,1,.09-.06h.05a1,1,0,0,0,.81-.27,2.78,2.78,0,0,0,.77-.86,2,2,0,0,0,.11-.65,2,2,0,0,1,.17-.83,3.08,3.08,0,0,0,.21-1.44A2.93,2.93,0,0,1,104.52,51.48Z"/><text class="cls-3" transform="translate(50.06 170.79)">Brasil</text><line class="cls-4" x1="41.04" y1="186.97" x2="108.96" y2="186.97"/></svg>
