<svg id="Layer_1" data-name="Layer 1" xmlns="http://www.w3.org/2000/svg" viewBox="0 0 100 100"><defs><style>.cls-1{font-size:10.59px;fill:#c49c5c;font-family:Helvetica-Bold, Helvetica;font-weight:700;}.cls-2,.cls-3{fill:#7e7565;}.cls-2{fill-rule:evenodd;}</style></defs><title>centros</title><text class="cls-1" transform="translate(28.52 75.62)">Centros <tspan x="-16.48" y="12.71">de distribución</tspan></text><path class="cls-2" d="M31,50.65H68.49a3.17,3.17,0,0,1,1.7.64,4.16,4.16,0,0,0-2.55,2.77H31.87a4.16,4.16,0,0,0-2.55-2.77A3.17,3.17,0,0,1,31,50.65ZM24,28.93V26.37h.64V23.82l-6.17-8.94c-.85-1.06.85-2.34,1.7-1.06l6.17,8.94a.78.78,0,0,1,.21.64v3h.64v2.55h-.64V41.28h.64V47H74.88a1.6,1.6,0,0,1,0,3.19H24.63A1.67,1.67,0,0,1,24,47V41.28h.64V28.93Zm4.47,22.78a3.21,3.21,0,0,1,3,3,3.24,3.24,0,0,1-3,3.19,3.09,3.09,0,1,1,0-6.17Zm42.8,0a3.21,3.21,0,0,1,3,3,3.09,3.09,0,1,1-3-3Z"/><rect class="cls-3" x="30.38" y="32.98" width="21.47" height="13.31"/><rect class="cls-3" x="54.44" y="32.98" width="15.79" height="13.31"/><rect class="cls-3" x="46.14" y="19.14" width="15.79" height="13.31"/><rect class="cls-3" x="29.74" y="23.18" width="15.79" height="9.4"/><rect class="cls-3" x="32.72" y="13.17" width="11.18" height="9.4"/><rect class="cls-3" x="45.87" y="5.45" width="5.15" height="14.37" transform="translate(11.53 46.45) rotate(-57.11)"/><rect class="cls-3" x="56.15" y="14.03" width="6.92" height="4.7"/></svg>
