<svg id="Layer_1" data-name="Layer 1" xmlns="http://www.w3.org/2000/svg" viewBox="0 0 150 200"><defs><style>.cls-1{fill:#ededed;}.cls-2{fill:#c49c5c;}.cls-3{font-size:18.75px;fill:#7e7565;font-family:Helvetica-Bold, Helvetica;font-weight:700;}.cls-4{fill:none;stroke:#c49c5c;stroke-linecap:round;stroke-linejoin:round;stroke-width:1.56px;}</style></defs><title>centroamerica</title><ellipse class="cls-1" cx="75" cy="132.24" rx="33.76" ry="3.41"/><path class="cls-2" d="M71.71,39.36a2.09,2.09,0,0,0-.46.35,2.8,2.8,0,0,1-.68.49,3.11,3.11,0,0,1-1.44.14l-.35,0a.21.21,0,0,1-.17-.08.25.25,0,0,0,0,.2,1.38,1.38,0,0,0,1.22.51c.76-.21,1.59-.43,2.58-.63a1.25,1.25,0,0,0-.14-1C72.15,39.24,72,39.23,71.71,39.36Z"/><path class="cls-2" d="M75,39.69h0a1,1,0,0,0-.06-.55,1.23,1.23,0,0,0-.92-.59,1,1,0,0,0,.08.65A1.12,1.12,0,0,0,75,39.69Z"/><path class="cls-2" d="M93,62.4a2.77,2.77,0,0,1,.23.32c.23.32.27.33.34.29a2.37,2.37,0,0,0,.54-1,.59.59,0,0,0,0-.1,1.44,1.44,0,0,1-.26,0,1.88,1.88,0,0,1-.41,0,1.12,1.12,0,0,1-.31-.17l-.22-.13v0C92.74,62,92.75,62.16,93,62.4Z"/><path class="cls-2" d="M87.87,54.17a.75.75,0,0,0-.2-.16,2.83,2.83,0,0,1-.3.51,2.82,2.82,0,0,0-.16.26.3.3,0,0,1-.29.18,1.53,1.53,0,0,0,.19.84s.07.07.21,0,.23-.22.36-.41a2.22,2.22,0,0,1,.53-.62A1.64,1.64,0,0,0,87.87,54.17Z"/><path class="cls-2" d="M84.73,67.58c-.32-.19-.4-.13-.41-.13s0,.06,0,.17a.41.41,0,0,1-.13.26c-.06.17-.13.33-.21.5a3.14,3.14,0,0,0-.31.9.65.65,0,0,0,.73.08c.27-.13.51-.54.73-1.21.1-.3.1-.3-.22-.48Z"/><path class="cls-2" d="M84.24,33.22a6.67,6.67,0,0,1-.25.64c-.22.53-.36.86-.25,1.12A6.28,6.28,0,0,0,84.52,36a4.7,4.7,0,0,0,.41-1.89A4,4,0,0,0,84.24,33.22Z"/><path class="cls-2" d="M51,52.13a2.88,2.88,0,0,1,.78-.84,6.13,6.13,0,0,1,1.4-.61A3.8,3.8,0,0,0,55,49.57a3.87,3.87,0,0,0,.6-1.71,3.36,3.36,0,0,1,1.54-2.7,6.18,6.18,0,0,1,.81-.32A2.92,2.92,0,0,0,59.36,44a4.82,4.82,0,0,0,.78-1.31.26.26,0,0,1-.14-.15.41.41,0,0,1,.13-.48,2.18,2.18,0,0,1,.27-.1c0-.13.1-.25.14-.38A6.4,6.4,0,0,0,58.18,41a2.07,2.07,0,0,1-1.12.12l-.2,0a.29.29,0,0,1-.21-.24,11.65,11.65,0,0,1,.48-4.63c.12-.5.24-1,.33-1.45s.23-1.18.35-1.77.23-1.13.34-1.69c.06-.3.1-.66.13-1a10.3,10.3,0,0,1,.28-1.58,10.3,10.3,0,0,1-1.46-.38,7.71,7.71,0,0,0-1.72-.43l-1-.1c-1.13-.1-2.3-.22-3.43-.37a1.17,1.17,0,0,0-1.1.25,1.52,1.52,0,0,0-.24,1c0,.13,0,.28,0,.43.06.56.18,1.51-.66,1.87-.57.24-1.05-.14-1.44-.45l-.07-.05a2.73,2.73,0,0,0,.26.72,4.38,4.38,0,0,0,1.67,1.32c.94.53,1.91,1.08,2.13,2.16a3.16,3.16,0,0,1-.4,2.09c-.94,1.88-2.55,1.76-4,1.66a4.88,4.88,0,0,0-2.44.22,7.77,7.77,0,0,0-2.06,2.45c-1,1.46-2,2.95-3.11,3,.12.23.24.47.36.7a21.26,21.26,0,0,0,2.4,4.13,15.24,15.24,0,0,0,5.41,3.87,2.65,2.65,0,0,0,2.42.14A2.07,2.07,0,0,0,51,52.13Z"/><path class="cls-2" d="M80.61,91.08a4,4,0,0,1,.64-.7c.46-.36.53-.57.44-1.35a6.55,6.55,0,0,0-.14-.76,4.86,4.86,0,0,1-.12-2.1A1.46,1.46,0,0,1,82.7,85l.17,0c.55-.16.63-.36.63-.39.08-.31-.55-1-.89-1.4a6.55,6.55,0,0,1-.48-.58A9.25,9.25,0,0,1,80,77.82a.78.78,0,0,1,0-.09,3.33,3.33,0,0,0-1.17-.38c-.2,0-.39-.08-.56-.13A5.14,5.14,0,0,1,76,76a.4.4,0,0,1-.09-.33,3.14,3.14,0,0,1,.44-1.07l0,0a2.87,2.87,0,0,0-1.81-.39,2.17,2.17,0,0,0-.61.43c-.5.41-1.1.92-1.73.4a1.11,1.11,0,0,1-.32-.61.74.74,0,0,0-.14-.3,1.16,1.16,0,0,0-.61-.18,2.87,2.87,0,0,1-.43-.08l-.4-.13-.57-.17A12.71,12.71,0,0,1,69.26,75a5.66,5.66,0,0,0-.57,2.73A8.46,8.46,0,0,0,71,81.85,11.06,11.06,0,0,0,74.1,84c.21.1.41.22.6.34A3.44,3.44,0,0,0,76,85c.71.11,1,.45,1.23,1.32a7.84,7.84,0,0,1,0,2.8,10.26,10.26,0,0,0-.11,1.72l.57.1a5.19,5.19,0,0,1,1.3.31,2.48,2.48,0,0,1,.44.27c.28.21.45.33.64.23A2.73,2.73,0,0,0,80.61,91.08Z"/><path class="cls-2" d="M70.87,73.19a3.14,3.14,0,0,0,.36.06,1.54,1.54,0,0,1,.87.29,1.34,1.34,0,0,1,.3.6.66.66,0,0,0,.12.29c.31.26.62,0,1.11-.38a2.8,2.8,0,0,1,.79-.53,3.13,3.13,0,0,1,2.14.41l.36.15a.28.28,0,0,1,.16.21.4.4,0,0,1,0,.3l-.15.27a4.18,4.18,0,0,0-.35.71,5,5,0,0,0,2,.94,4.28,4.28,0,0,0,.52.12,3.75,3.75,0,0,1,1.29.42c0-.36,0-.72,0-1.1a11.76,11.76,0,0,1,0-1.53c.09-1,.28-2.07.45-3.08l0-.28c.15-.86.35-1.67.53-2.44A21.58,21.58,0,0,0,82.05,65a11.88,11.88,0,0,1,.19-1.29,9,9,0,0,0,.19-1.33,7.58,7.58,0,0,0,0-.9,3.8,3.8,0,0,1,.27-2,15.54,15.54,0,0,1,2.31-4c.58-.77.63-.87.29-1.77a7.16,7.16,0,0,1-.53-2.55,3.25,3.25,0,0,1-2.38,1,6.49,6.49,0,0,0-1,.18,3.35,3.35,0,0,1-2.19.06,2.64,2.64,0,0,1-.75-.7c-.42-.5-.59-.65-1-.29s-.76.66-1.14,1c-.57.51-1.15,1-1.77,1.5a6.75,6.75,0,0,0-.8.82c-.64.72-1.3,1.46-2,1.42-.47,0-.69-.41-.85-.68s-.2-.31-.29-.34a3.06,3.06,0,0,0-.44.29,2.9,2.9,0,0,1-.57.35,2.64,2.64,0,0,1-.94,0c-.34,0-1,0-1.09.12a1.12,1.12,0,0,0,.2.47,2.31,2.31,0,0,1,.36.84,1.88,1.88,0,0,1-.67,2,3.78,3.78,0,0,1-3.52.82,6,6,0,0,0-.84-.08l-.64-.06a13.22,13.22,0,0,1,.49,1.79A8.05,8.05,0,0,0,63.67,64a2.08,2.08,0,0,0,.94.81,5.9,5.9,0,0,1,.6.36,4.26,4.26,0,0,1,1.57,2.16,11.49,11.49,0,0,1,.43,1.89A7,7,0,0,0,68,71.76a4.53,4.53,0,0,0,2.48,1.31Z"/><path class="cls-2" d="M63.14,59.2a6.33,6.33,0,0,1,.91.09,3.25,3.25,0,0,0,3.1-.7c.41-.34.5-.58.4-1.23a1.67,1.67,0,0,0-.27-.55,1.8,1.8,0,0,1-.31-.72.93.93,0,0,1,.17-.66c.31-.41.91-.39,1.54-.36a2.66,2.66,0,0,0,.77,0,2.48,2.48,0,0,0,.43-.27c.32-.23.61-.43.84-.37a1,1,0,0,1,.61.58c.15.26.27.4.45.42.44,0,1-.63,1.55-1.22a7.63,7.63,0,0,1,.9-.9c.6-.46,1.17-1,1.73-1.47.39-.35.77-.69,1.16-1,.84-.7,1.32-.12,1.71.34a2.5,2.5,0,0,0,.6.57,3.23,3.23,0,0,0,1.88-.1,6.76,6.76,0,0,1,1.06-.19,3.32,3.32,0,0,0,1.92-.63.31.31,0,0,1,.07-.12l.12-.13a.86.86,0,0,0,.15-.43.36.36,0,0,1,.2-.29,2.83,2.83,0,0,0-.74-.86,17.26,17.26,0,0,1-2.28-2.55,12.51,12.51,0,0,0-2.77-2.6,4.69,4.69,0,0,0-2.2-.57c-.31,0-.62-.05-.92-.1l-.31,0a3.26,3.26,0,0,1-1.13-.29,1.63,1.63,0,0,1-.54-.53,1.34,1.34,0,0,0-.27-.31c-.44-.31-1.24.18-1.9.55-.2.12-.38.23-.55.31a2.41,2.41,0,0,1-2.75.07,5.91,5.91,0,0,0-2-.49l-1-.15a4.42,4.42,0,0,0-2.69.2,3,3,0,0,1-1.21.08,3,3,0,0,0-.79,0,6,6,0,0,1-1.09,2,3.52,3.52,0,0,1-1.64,1,6.06,6.06,0,0,0-.75.3c-.83.42-1,1.23-1.18,2.17,0,.06,0,.12,0,.17a3,3,0,0,1-.1.72,2,2,0,0,0-.07.56c0,.12.11.21.27.35a2,2,0,0,1,.27.28,4.62,4.62,0,0,1,.43.7,5,5,0,0,0,.3.52.85.85,0,0,0,.23.18,1,1,0,0,1,.44.42,2.38,2.38,0,0,1-.05,1.49c0,.06,0,.12,0,.17.56.29.88.24,1.54-.17a1.89,1.89,0,0,1,2.13.19,1.52,1.52,0,0,1,.84,1.67l0,.25c-.07.51-.14,1-.21,1.52,0,.19-.07.38-.11.59a2.12,2.12,0,0,0-.06,1.17.34.34,0,0,1,.09.29v0C62.38,59.15,62.81,59.18,63.14,59.2Z"/><path class="cls-2" d="M107.59,100.44a6.65,6.65,0,0,0,.89-.4,5.66,5.66,0,0,1,1-.45,1.93,1.93,0,0,1,.4-.05c.25,0,.41,0,.46-.12a2,2,0,0,0-.09-.68,3.12,3.12,0,0,1-.11-.61,3.46,3.46,0,0,1,0-.35.2.2,0,0,1-.19,0,.34.34,0,0,1-.19-.42,3,3,0,0,1,.32-.76,4,4,0,0,1-1.27-1.34,7.13,7.13,0,0,1-.4-1,2.88,2.88,0,0,0-.58-1.21,6.26,6.26,0,0,0-.66-.51c-1-.7-2.42-1.73-2.39-3.1-.32-.06-.65-.1-1-.15s-.84-.12-1.24-.21a.22.22,0,0,1-.15-.1c-.89-1.25-3.38-1.43-4.7-.7l-.31.17a6.7,6.7,0,0,0-2.9,2.39l-.18.31c-.44.75-.69,1.11-1.65,1.08h-.22c-.92,0-2.07,0-2.67-1a2.84,2.84,0,0,0-1.78-1.59,4,4,0,0,0-.93-.11c-.86,0-1.76-.1-2.1-.72a1.35,1.35,0,0,1,.16-1.39,1.07,1.07,0,0,0,.21-.64c-.1-.63-1.17-1.39-1.71-1.58a1.78,1.78,0,0,1-.78.43l-.19,0c-.49.13-.7.21-.82.67A4.13,4.13,0,0,0,82.09,88c.06.29.12.56.15.83A1.92,1.92,0,0,1,81.52,91a3.5,3.5,0,0,0-.53.58,3.13,3.13,0,0,1-.79.79.74.74,0,0,1-.45.08,5.61,5.61,0,0,0,.35.65,5.32,5.32,0,0,1,.54,1.07,4,4,0,0,1,4.49.42l.46.33A5.18,5.18,0,0,1,86.85,96a5.24,5.24,0,0,1,.7,1.57,4.68,4.68,0,0,0,.55,1.31c.19-.09.31-.37.48-.79s.4-1,.86-1.15a.22.22,0,0,1,.21.05.35.35,0,0,1,.11.24c0,.19,0,.41,0,.64a6,6,0,0,0,.25,2,2.84,2.84,0,0,0,1.28,1.25l0-.1A14.62,14.62,0,0,0,93,96.34c0-.17,0-.32,0-.46a1.83,1.83,0,0,1,.58-1.58,4.26,4.26,0,0,1,1.4-.79c.23-.09.45-.19.66-.29.42-.22.84-.5,1.28-.79a10.06,10.06,0,0,1,2.28-1.25,2.27,2.27,0,0,1,2.28.35,2.31,2.31,0,0,1,.45.89,2.49,2.49,0,0,0,.26.59,8.34,8.34,0,0,0,3.12,2,.26.26,0,0,1,.15.18.36.36,0,0,1,0,.27l-.19.52a10.34,10.34,0,0,0-.75,2.71c-.06.93.12,2.4.69,2.77l.08,0a.27.27,0,0,1,.12,0h0a1.06,1.06,0,0,1,.23-.23,5.4,5.4,0,0,1,1.62-.7Z"/><path class="cls-2" d="M65.27,25.83a5.3,5.3,0,0,1,.34-1.37c.08-.24.16-.49.23-.75a8.68,8.68,0,0,0-1.51.85,4.17,4.17,0,0,0-1,1.1c-.15.22-.31.45-.49.68l-.27.36c-.51.68-1.14,1.53-1.79,1.6-.5.06-.83-.35-1.13-.71a3.25,3.25,0,0,0-.32-.36c0,.1,0,.21,0,.32a4.26,4.26,0,0,1-.12.92s0,0,0,0a7.44,7.44,0,0,0-.33,1.77c0,.4-.08.78-.14,1.12-.11.56-.22,1.13-.34,1.7L58,34.86c-.09.48-.21,1-.33,1.49a11.74,11.74,0,0,0-.51,4.06c.1,0,.18,0,.28,0s.14-.16.23-.15l.45,0A5.44,5.44,0,0,0,60,38,12.48,12.48,0,0,1,61.37,36,15,15,0,0,0,63,33.73l.54-.86.25-.39a5.7,5.7,0,0,0,1.14-2.72l0-.25a7.35,7.35,0,0,1,.58-2.26c.09-.19.19-.36.29-.53s.15-.29.22-.43a6,6,0,0,1-.59-.09A.31.31,0,0,1,65.27,25.83Z"/><path class="cls-2" d="M61.42,57.46a4.64,4.64,0,0,0,.1-.51c.07-.51.14-1,.21-1.54l0-.25c.06-.45-.05-.65-.56-1-.69-.42-1.16-.49-1.64-.19a1.78,1.78,0,0,1-2.21.08.34.34,0,0,1-.15-.35,5.06,5.06,0,0,1,.11-.52,2.12,2.12,0,0,0,.11-.92.66.66,0,0,0-.24-.2,1.3,1.3,0,0,1-.39-.33,5.6,5.6,0,0,1-.34-.58,4.71,4.71,0,0,0-.37-.61,1.31,1.31,0,0,0-.21-.21,1.53,1.53,0,0,1-.37-.51c0,.06-.07.13-.12.19a4.27,4.27,0,0,1-2.16,1.29A5.8,5.8,0,0,0,52,51.9a2.35,2.35,0,0,0-.61.66,2.57,2.57,0,0,1-1,1,2.89,2.89,0,0,1-.68.21c.21.09.42.18.65.26s.64.24,1,.39a12.7,12.7,0,0,0,1.87.64,7.86,7.86,0,0,1,3.42,1.65,3.88,3.88,0,0,0,2.05,1.05,3.54,3.54,0,0,1,.81.36,3.25,3.25,0,0,0,.67.31,3.52,3.52,0,0,0,.44.07v0a.22.22,0,0,1,.33.08l.3,0h.09A4.12,4.12,0,0,1,61.42,57.46Z"/><text class="cls-3" transform="translate(9.35 170.07)">Centroamérica</text><line class="cls-4" x1="6.03" y1="186.97" x2="143.97" y2="186.97"/></svg>
