<svg id="Layer_1" data-name="Layer 1" xmlns="http://www.w3.org/2000/svg" viewBox="0 0 100 100"><defs><style>.cls-1{font-size:11.05px;fill:#c49c5c;font-family:Helvetica-Bold, Helvetica;font-weight:700;}.cls-2,.cls-3{fill:#7e7565;}.cls-2{fill-rule:evenodd;}</style></defs><title>colaboradores</title><text class="cls-1" transform="translate(7.81 89.13)">Colaboradores</text><path class="cls-2" d="M9.94,68.35c.47-10.28-.47-13.76,13.45-16.29l4.27,12.18,1.42-4.11a5.76,5.76,0,0,1-1.42-3.64c0-2.21,4.75-2.21,4.75,0A5,5,0,0,1,31,60.13l1.58,4.11,4.27-12.18c13.92,2.53,13,6,13.45,16.29Z"/><path class="cls-2" d="M20.38,38.77c0,1.58.47,3.16,1.27,3.48,3.16,11.23,13.6,11.23,16.77,0,.95-.32,1.27-1.9,1.27-3.48Z"/><path class="cls-2" d="M20.85,35a9.35,9.35,0,0,1,5.06-8.23L26.7,32c.16.79,1.42.63,1.27-.16l-.79-5.54c0-1.9,5.85-1.9,5.85,0l-.95,5.54c-.16.79,1.11.95,1.27.16l.95-5.22A9.23,9.23,0,0,1,39.2,35a1.51,1.51,0,0,1-.32,3H21.17c-1.9,0-1.9-2.69-.32-3Z"/><path class="cls-2" d="M61.26,19.14A10.39,10.39,0,0,1,66.88,10l.88,5.8c.18.88,1.58.7,1.41-.18l-.88-6.15c0-2.11,6.51-2.11,6.51,0l-1.06,6.15c-.18.88,1.23,1.06,1.41.18L76.2,10a10.26,10.26,0,0,1,5.45,9.14,1.68,1.68,0,0,1-.35,3.34H61.61c-2.11,0-2.11-3-.35-3.34Z"/><path class="cls-3" d="M64.56,28.65h0l.95-.4c7.8-3.48,9-9.26,9-9.26a30.58,30.58,0,0,1,4.13,6.46l.13.31v0c-.26,4.2-1,7.54-2.84,9.64a3,3,0,0,0-.72,1.48c12.23,4.19,11-4.45,11-4.45s-1.44,2.95-2.92,0c-.79-1.58,0-5.33-1.54-11.23-1-3.95-1.37-3-3.83-4.28-1.51-.79-8.91,2.64-10.38,2.64S67,14,65.48,14.84c-2.45,1.3-3.28,2.46-4.26,6.39-1.47,5.9-.69,9.65-1.47,11.23-1.47,2.95-3,0-3,0s-1.23,8.67,11.07,4.43a3.05,3.05,0,0,0-.71-1.46C65.73,33.83,65,31.51,64.56,28.65Z"/><path class="cls-3" d="M88,43.64c-1.76-1.51-6.59-1.75-9.05-1.78,0,0-3,8.86-7.39,8.86s-7.39-8.86-7.39-8.86c-2.46,0-7.3.27-9.05,1.78-2.39,2.06-4.21,8.56-4.21,8.56h41.3S90.37,45.7,88,43.64Z"/></svg>
