<svg id="Layer_1" data-name="Layer 1" xmlns="http://www.w3.org/2000/svg" viewBox="0 0 150 200"><defs><style>.cls-1{fill:#ededed;}.cls-2{fill:#c49c5c;}.cls-3{font-size:18.74px;fill:#7e7565;font-family:Helvetica-Bold, Helvetica;font-weight:700;}.cls-4{fill:none;stroke:#c49c5c;stroke-linecap:round;stroke-linejoin:round;stroke-width:1.56px;}</style></defs><title>eu</title><ellipse class="cls-1" cx="75" cy="132.91" rx="33.74" ry="3.4"/><path class="cls-2" d="M38.26,66.51a4.31,4.31,0,0,0,.93.22l.24,0a3.27,3.27,0,0,0,.76,0,1.11,1.11,0,0,0,.29-.1A.75.75,0,0,1,41,66.6a1.42,1.42,0,0,1,.71.76c.06.11.12.21.19.32a1.07,1.07,0,0,0,.51.34,1.76,1.76,0,0,1,.43.23,4.87,4.87,0,0,1,.5.5,5.54,5.54,0,0,0,.45.45,5.15,5.15,0,0,0,1.69.85,6.48,6.48,0,0,1,1.42.63,4.75,4.75,0,0,0,2.15.56l.61.07c.34,0,.71.1,1.07.17l.15,0c.15,0,.36.1.47,0s.19-.43.2-.72a3,3,0,0,1,0-.35.14.14,0,0,1,0-.08.08.08,0,0,1,.07,0,6.49,6.49,0,0,0,1.11.22,7.8,7.8,0,0,1,1,.18c.5.14.7.51.93.95l.11.21a5.29,5.29,0,0,0,.71.94,6,6,0,0,1,.68.88,2.59,2.59,0,0,1,.27.84,2,2,0,0,0,.25.77l.21.32a5.1,5.1,0,0,0,.52.71,1.11,1.11,0,0,0,.52.29,1.56,1.56,0,0,1,.41.18.93.93,0,0,1,.14.14c.12.13.17.16.25.1a1.25,1.25,0,0,0,.26-.52l.09-.23a1,1,0,0,1,1.3-.59,1.11,1.11,0,0,0,.27,0,1.1,1.1,0,0,1,.36,0,1.61,1.61,0,0,1,.68.52l.08.09a4,4,0,0,1,1,1.55,4.36,4.36,0,0,1,.15.66c0,.13,0,.26.07.39a2.28,2.28,0,0,0,.26.58l.1.19a3.89,3.89,0,0,0,.3.46,2.32,2.32,0,0,1,.5,1,4.85,4.85,0,0,1,0,.54c0,.12,0,.24,0,.35s0,.16,0,.25a1.4,1.4,0,0,0,0,.49.35.35,0,0,0,.12.1l.07.05a3.47,3.47,0,0,1,.43.42l.11.12a1,1,0,0,0,.54.41h0a1.11,1.11,0,0,1,.52.23,2.64,2.64,0,0,0,.33.18,2.42,2.42,0,0,1,.33.18l.12.1a.76.76,0,0,0,.28.19c0-.07.07-.13.09-.2h0a2.55,2.55,0,0,0,0-.31c0-.05,0-.1,0-.14a2.45,2.45,0,0,1,.12-.85v0c.11-.42.21-.8.29-1.19l0-.19a2.05,2.05,0,0,1,.21-.71,1,1,0,0,1,.44-.35l.06,0a5,5,0,0,0,.63-.41c.15-.11.32-.23.48-.33a7.23,7.23,0,0,1,.94-.46l.39-.17a8.64,8.64,0,0,0,1.32-.81A10.64,10.64,0,0,1,73.25,78l0,0c.19-.1.45-.24.67-.14a.61.61,0,0,1,.25.29.91.91,0,0,0,.1.16.89.89,0,0,0,.64.21H75a5.64,5.64,0,0,1,1,.15l.1,0a1.19,1.19,0,0,0,.55.07l.24-.07a1.23,1.23,0,0,1,.43-.09.52.52,0,0,1,.45.26,1.32,1.32,0,0,1,.1.83,1.46,1.46,0,0,1,.6.23l.08.06c.09.08.14.11.22.08L78.9,80c.1-.09.2-.18.3-.15s.16.2.19.32v0h0c0-.23.11-.52.32-.61s.29.05.36.15l.05.06a.51.51,0,0,0,.36.15h0l0,0a1.59,1.59,0,0,0,.15-.38,2.35,2.35,0,0,1,.11-.32,2.58,2.58,0,0,0,.09-.26c0-.13,0-.14-.12-.21l-.27-.1a1.06,1.06,0,0,1-.65-.4.13.13,0,0,1,0-.11.1.1,0,0,1,.08-.07,1.36,1.36,0,0,1,.51.08l.24.06a4,4,0,0,0,.5.05l.42,0c.29,0,.59.07.91.09h.1a.53.53,0,0,1,.3.06l.06,0a.18.18,0,0,0,.09.05,2.44,2.44,0,0,0,.45,0,3.54,3.54,0,0,1,.53,0l.2,0a.45.45,0,0,0,.24-.07.63.63,0,0,1,.32-.09,3,3,0,0,1,.8.18.74.74,0,0,1,.36.24A1.07,1.07,0,0,1,86,79a.76.76,0,0,0,.1.16.81.81,0,0,0,.15.11l.09.06h0c.22-.21.64-.6.85-.23a.64.64,0,0,1,0,.48.46.46,0,0,0,0,.27c0,.08.25.19.38.25l.18.1a.44.44,0,0,0,.42.07h.08A1.76,1.76,0,0,1,89,80h0l.17-.07a.59.59,0,0,1,.51-.06,1,1,0,0,1,.34.53,1.7,1.7,0,0,0,.1.22,4.2,4.2,0,0,0,.28.43l.19.27.19.26a2,2,0,0,1,.58,1.35,2.32,2.32,0,0,1-.28.7,1.53,1.53,0,0,0-.25.87c0,.29.06.57.1.85s.09.66.11,1l.16.09c.09.06.22.14.28.12l.06,0c.14-.06.23-.08.37.14a.63.63,0,0,1,0,.64,1,1,0,0,0-.1.34,1.52,1.52,0,0,0,.13.58,3,3,0,0,1,.1.28c.1.36.19.65.3.93a2.15,2.15,0,0,1,.09.71q0,.14,0,.28c.82.28,1.32.24,1.62-.71,0-.15.09-.31.12-.46a5.29,5.29,0,0,1,.18-.62l.05-.15a1.8,1.8,0,0,0,.17-.89,9.79,9.79,0,0,1-.08-1.18,4.4,4.4,0,0,0-.13-1c0-.17-.08-.35-.1-.53a2.5,2.5,0,0,1,0-.64,2.88,2.88,0,0,0,0-.47,3.7,3.7,0,0,0-.15-.75,5.28,5.28,0,0,1-.13-.54c-.06-.36-.13-.72-.2-1.07s-.13-.66-.19-1a3.52,3.52,0,0,1,0-1.32.12.12,0,0,1,0-.08,1.35,1.35,0,0,1,.1-.4v0a.11.11,0,0,1,0-.08,3,3,0,0,1,.22-.33,3.47,3.47,0,0,0,.2-.29l.17-.3a3.29,3.29,0,0,1,.53-.77,2.49,2.49,0,0,1,.88-.53l.16-.07a6,6,0,0,0,1-.65l0,0c.23-.16.44-.35.66-.53a6.4,6.4,0,0,1,1.06-.79,4,4,0,0,0,.79-.53,1.57,1.57,0,0,0,.26-.34,1.71,1.71,0,0,1,.3-.38,2.36,2.36,0,0,1,.72-.34l.12,0a1,1,0,0,1,.43,0,1.24,1.24,0,0,0,.25,0,.27.27,0,0,0,.21-.11.78.78,0,0,1,.18-.15.76.76,0,0,1,.55,0l.12,0a1,1,0,0,0-.06-.65l-.07-.13a.68.68,0,0,1-.14-.46.51.51,0,0,1,.2-.3,2.15,2.15,0,0,1,.63-.34h.09a.75.75,0,0,1-.26-.77,1.31,1.31,0,0,1,.51-.62,1.16,1.16,0,0,0,.45-.54h0a.11.11,0,0,1,.06-.07c0-.12-.3-.29-.45-.37a1.62,1.62,0,0,1-.24-.15l-.09-.08a2.37,2.37,0,0,1-.53-.57.14.14,0,0,1,0-.12.1.1,0,0,1,.08-.06h0c.18,0,.44,0,.49-.2a.86.86,0,0,0-.14-.49l-.07-.16-.08-.21c0-.09-.06-.17-.1-.26a.89.89,0,0,0-.08-.13.74.74,0,0,1-.14-.28,2.85,2.85,0,0,1,.21-1c0-.11.07-.21.09-.28a.11.11,0,0,1,.08-.08.08.08,0,0,1,.09.05c.43,1,.66,1.17.72,1.16s.06-.07.08-.29a2,2,0,0,0-.09-.7c0-.12-.06-.24-.08-.37a.72.72,0,0,1,0-.47.62.62,0,0,1,.45-.26l.24-.09c.22-.1.46-.21.62-.12a.36.36,0,0,1,.19.3.85.85,0,0,1-.27.59,1.63,1.63,0,0,0-.49.95,1.28,1.28,0,0,0,.2.85.79.79,0,0,1,.07,1,2.91,2.91,0,0,0-.32.93,1.41,1.41,0,0,0,.51-.7l0-.1a1.49,1.49,0,0,1,.4-.76l.18-.15a1,1,0,0,0,.37-.42,1.5,1.5,0,0,0,0-.61c0-.08,0-.16,0-.23s0-.26,0-.38,0-.45,0-.67,0-.19,0-.28a1.8,1.8,0,0,1,0-.75.62.62,0,0,1,.72-.47.52.52,0,0,1,.34.65,2.67,2.67,0,0,1-.16.53,2.28,2.28,0,0,0-.15.46,1.5,1.5,0,0,0,0,.65l0,0a2.16,2.16,0,0,1,.31-.45,1,1,0,0,1,.26-.18,1,1,0,0,0,.17-.11l.06,0a2.08,2.08,0,0,0,.61-1.08,1.56,1.56,0,0,0-.06-.57,1.33,1.33,0,0,1,0-.72.1.1,0,0,1,.07-.07,4,4,0,0,1,.88.05c.8.09,2.14.24,2.47-.12a.22.22,0,0,0,0-.07,1.93,1.93,0,0,0-.58,0,2.48,2.48,0,0,1-.55,0h0l-.2,0a1.66,1.66,0,0,1-.86-.27.1.1,0,0,1,0-.08.13.13,0,0,1,0-.09c.28-.36,1-.32,1.51-.3h.25a5,5,0,0,1,1,.07,1.22,1.22,0,0,1,.32.14.84.84,0,0,0,.3.12c.33,0,.6-.73.76-1.18l.08-.22.12-.3c.11-.28.22-.54.3-.82,0-.08,0-.16.06-.25a2.09,2.09,0,0,1,.17-.53,1.94,1.94,0,0,1,.94-.67,3.78,3.78,0,0,0,.36-.18,3.73,3.73,0,0,1,.67-.3,2.9,2.9,0,0,0,.77-.37,1.48,1.48,0,0,0,.29-.43c.13-.23.26-.48.45-.55s.47.1.64.29.23.24.34.24a.73.73,0,0,0,.24,0,.93.93,0,0,1,.27-.06h.14A1,1,0,0,0,120,55l.13-.06a2.21,2.21,0,0,1,1-.28,2.85,2.85,0,0,0-.29-.7l-.12-.25a1.85,1.85,0,0,1-.53-.73,2.58,2.58,0,0,1-.09-1.5c0-.1,0-.22.06-.34a2.25,2.25,0,0,0,0-1.43,1,1,0,0,0-.78-.33,2.08,2.08,0,0,1-.48-.1,1.19,1.19,0,0,1-.33-.21c-.17-.14-.27-.22-.51,0l-.15.12c-.31.25-.6.49-.89.77a1.39,1.39,0,0,0-.35.67,3.47,3.47,0,0,1-.15.42,1.6,1.6,0,0,1-.32.43l-.18.2a2.72,2.72,0,0,0-.2.33,2.29,2.29,0,0,1-.24.39,1.45,1.45,0,0,1-.57.43.54.54,0,0,1-.47-.09l-.17-.08c-.11,0-.15,0-.16,0a.65.65,0,0,0-.07.24.46.46,0,0,1-.13.29c-.12.11-.29.07-.45,0l-.06,0c-.6-.14-1.23-.25-1.86-.34h-.06a22.77,22.77,0,0,1-2.37-.4h0a1.26,1.26,0,0,0-1,0c-.27.14-.54.3-.8.45l-.29.17c-.16.09-.33.17-.49.25l-.42.21-.1.06-.19.1a1.72,1.72,0,0,1-.37,1.33,1.87,1.87,0,0,1-2,.71l-.5,0a3.32,3.32,0,0,1-1.63-.39c-.26,1.5-.78,1.75-2,2l-.76.19a7.7,7.7,0,0,1-2.9.41,1.77,1.77,0,0,1-.94-.41,2,2,0,0,1-.58-1.36,2,2,0,0,1,.59-1.31c.21-.28.42-.55.4-.74a.42.42,0,0,0-.24-.29l-.06,0a1.17,1.17,0,0,1-.73-1.38,3.54,3.54,0,0,1,.79-1.7c.23-.82-.8-1.36-1.3-1.62a1,1,0,0,0-1.07,0c-.29.17-.32.29-.38.6,0,.09,0,.18-.06.29a.1.1,0,0,1-.1.08h0c-.51-.08-.68.36-.9.92A2.39,2.39,0,0,1,90.5,52c-.51.39-1.73,1.26-2.21.84-.64-.56,0-2.08.28-2.73A2.6,2.6,0,0,1,90,48.7c.17-.09.35-.19.54-.31s.41-.29.59-.43a2.88,2.88,0,0,1,1.65-.76.52.52,0,0,0-.09-.29c-.26-.39-1-.43-1.56-.46l-.42,0-.24,0a1.36,1.36,0,0,1-.88-.3,2.56,2.56,0,0,1-.36-.58,2.13,2.13,0,0,0-.44-.66c-.28-.19-.93.17-1.45.47a4.41,4.41,0,0,1-.67.34,1.77,1.77,0,0,0-.76.54,1,1,0,0,1-1.07.4,3.86,3.86,0,0,1-1-.57c-.19-.13-.36-.25-.5-.32a1.9,1.9,0,0,0-.36-.13,1.15,1.15,0,0,1-.67-.36.12.12,0,0,1,0-.09.13.13,0,0,1,0-.08,4.57,4.57,0,0,1,1.63-.82c.26-.09.51-.18.74-.28l.55-.22c.25-.1.48-.19.71-.3a1.86,1.86,0,0,0,.42-.33,2.92,2.92,0,0,1,.29-.25l-.14,0-.16,0a1.57,1.57,0,0,1-.29-.09l-.21-.07h0a.38.38,0,0,1-.32-.23.88.88,0,0,0-.26-.26c-.09-.06-.09-.06-.2.06l0,0-.16.14a1.17,1.17,0,0,0-.17.16.09.09,0,0,1-.07,0,.08.08,0,0,1-.06,0A2,2,0,0,0,84,42c-.09-.06-.18,0-.32.06l-.17.09-.06,0a.43.43,0,0,1-.23.07h0c-.11,0-.2-.14-.3-.26l-.1-.11a2.62,2.62,0,0,0-.6-.41L82,41.26a3.76,3.76,0,0,0-1.3-.59.59.59,0,0,0-.34.06l-.18.07a.69.69,0,0,1-.66-.21,1.28,1.28,0,0,0-.54-.27h-.07a.49.49,0,0,1-.29-.11,1.46,1.46,0,0,1-.38-.92,3,3,0,0,0-.1-.47.36.36,0,0,0-.19-.2l-.08-.05s0,.08,0,.13,0,.15,0,.23a.59.59,0,0,1-.11.36c-.1.11-.23.11-.39.11h0l-.44,0-.38,0a9.58,9.58,0,0,1-1.17-.14l-.64-.1-1.39-.21-.91-.11c-.37,0-.76-.08-1.14-.15s-.64-.13-1-.19-.78-.17-1.18-.23L67.78,38c-.89-.11-1.78-.29-2.63-.47l-1.08-.22a10.21,10.21,0,0,0-1.12-.13c-.33,0-.68-.06-1-.11L61.65,37a3.75,3.75,0,0,0-.61-.09,6,6,0,0,1-.64-.07l-.4-.05c-.37,0-.75-.1-1.11-.16s-.77-.13-1.16-.17A26.59,26.59,0,0,1,54.83,36c-.63-.13-1.29-.27-1.94-.36h0l-.3-.05a3.91,3.91,0,0,0-.84-.09,1.18,1.18,0,0,1-.58-.11,1,1,0,0,0-.37-.06h-.12c-.37,0-.75-.08-1.11-.14l-.25,0c-.93-.14-1.87-.29-2.82-.4-.71-.08-1.43-.22-2.12-.36l-1.29-.24c-.7-.12-1.41-.21-2.1-.29l-1.63-.22c-.7-.1-1.38-.22-2-.32l-.72-.15a9.25,9.25,0,0,0-1-.19H35.5l-1-.12s-.05,0-.06-.08l-.15-.06a1.55,1.55,0,0,0-.48-.16l-.19,0h-.09l.06.06a1.52,1.52,0,0,1,.36.65,2.9,2.9,0,0,0,.11.3l.07.12a.55.55,0,0,1,.12.41.4.4,0,0,1-.13.25.24.24,0,0,1-.11.05.49.49,0,0,0,0,.08,1.25,1.25,0,0,0,.09.39,1.22,1.22,0,0,1,.09.61c-.06.37-.29.76-.61.79s-.51-.21-.54-.61a3,3,0,0,1,.05-.78l0-.16a1,1,0,0,0,0-.38c0-.19-.41-.26-.61-.29l-.15,0L32,33.84a5.58,5.58,0,0,0-1.08-.23c-.17,0-.46,0-.52.15s0,0,0,.11a1.05,1.05,0,0,0,.16.24l.11.16c.1.17.2.35.28.52l0,0a1.46,1.46,0,0,1,.2,1.13l0,.13c0,.31.13.49.56.59a.08.08,0,0,1,.06.06.14.14,0,0,1,0,.1,1.09,1.09,0,0,1-.36.41.94.94,0,0,0-.32.36,2.46,2.46,0,0,0-.16.93,4,4,0,0,1-.08.72c-.11.45-.17,1-.24,1.44A5.63,5.63,0,0,1,29.44,44l0,0a.69.69,0,0,0-.27.48c0,.06,0,.12,0,.17a.56.56,0,0,0,0,.25,4.27,4.27,0,0,1,.18,1.48c0,.25,0,.49-.07.73s0,.37-.06.56,0,.19,0,.28a1.25,1.25,0,0,1-.29.94,2.3,2.3,0,0,1,.2.51,3.13,3.13,0,0,0,.12.35,1.36,1.36,0,0,0,.14.24.88.88,0,0,1,.21.65,1.44,1.44,0,0,1-.1.36.93.93,0,0,0-.09.36,2.8,2.8,0,0,0,.08.52,3.87,3.87,0,0,1,.07.43c0,.09,0,.17,0,.26a1.61,1.61,0,0,0,.17.75,5.65,5.65,0,0,0,.33.48l.21.29.08.13a.72.72,0,0,0,.24.28,2.36,2.36,0,0,0,1,.2,3.68,3.68,0,0,1,.68.09l.11,0c.16,0,.32.07.39.22a.43.43,0,0,1,0,.31,1.87,1.87,0,0,1-.29.47l-.1.14a3.52,3.52,0,0,0-.65,1.5,2.64,2.64,0,0,0,0,1.24,5.34,5.34,0,0,0,.83,1.47l.13.15a1.42,1.42,0,0,1,.31.47,1.08,1.08,0,0,1,0,.48.84.84,0,0,0,0,.3c.07.25.3.32.52.39l.2.07.17.07a3.84,3.84,0,0,1,.8.42l.4.27a4.68,4.68,0,0,1,.66.48,2,2,0,0,0,.32.23,1.15,1.15,0,0,1,.54.57,3.58,3.58,0,0,0,.37.62,4.59,4.59,0,0,1,.33.53,2.26,2.26,0,0,0,.35.51l.13.13a1.21,1.21,0,0,1,.36.49.07.07,0,0,1,.07,0,.1.1,0,0,1,.05.11Z"/><path class="cls-2" d="M80.33,70.34a.23.23,0,0,1-.22.11c0,.2,0,.27.2.37a.11.11,0,0,1,0,.08.14.14,0,0,1,0,.1,3.74,3.74,0,0,1-1.13.86l-.14.07c-.13.06-.25.11-.29.23a.39.39,0,0,0,.19.46,5.58,5.58,0,0,1,.78-.77,2.08,2.08,0,0,1,.31-.18c.23-.12.49-.26.56-.49a1.17,1.17,0,0,0,0-.49,1.82,1.82,0,0,1-.05-.44c0-.34,0-1.42-.5-1.64,0,.06.06.21.11.35C80.33,69.57,80.49,70.11,80.33,70.34Z"/><path class="cls-2" d="M79.42,69.78c-.1.3.29.61.58.84a2.61,2.61,0,0,1,.27.23.13.13,0,0,1,0,.14.09.09,0,0,1-.11.05,1.61,1.61,0,0,1-.26-.16,1,1,0,0,0-.36-.18h-.11a2,2,0,0,0-.56.31.29.29,0,0,0-.11.15.53.53,0,0,0,.11.29l.08.15a1,1,0,0,1,.1.33.82.82,0,0,1,.33-.21l.12-.06a3.87,3.87,0,0,0,1-.7c-.17-.13-.25-.31-.15-.66,0-.06.06-.1.11-.08s.1,0,.12,0-.13-.86-.24-1.17l-.06-.19a1.74,1.74,0,0,1-.42.42A1.11,1.11,0,0,0,79.42,69.78Z"/><text class="cls-3" transform="translate(4.2 170.72)">Estados Unidos</text><line class="cls-4" x1="3.29" y1="187.5" x2="146.71" y2="187.5"/></svg>
