<svg id="Layer_1" data-name="Layer 1" xmlns="http://www.w3.org/2000/svg" viewBox="0 0 150 200"><defs><style>.cls-1{fill:#c49c5c;}.cls-2{fill:#ededed;}.cls-3{font-size:19.66px;fill:#7e7565;font-family:Helvetica-Bold, Helvetica;font-weight:700;}.cls-4{fill:none;stroke:#c49c5c;stroke-linecap:round;stroke-linejoin:round;stroke-width:1.64px;}</style></defs><title>mexico</title><path class="cls-1" d="M98.31,94.56a4.79,4.79,0,0,1,1.42-1.64,3.17,3.17,0,0,1,1.65-.17c.85.06,1.65.12,2.11-.8a1.48,1.48,0,0,0,.2-.94c-.1-.48-.62-.78-1.14-1.06a2.87,2.87,0,0,1-1.15-.94,2.81,2.81,0,0,1-.29-1.06.26.26,0,0,1,.06-.2.15.15,0,0,1,.16-.06,1.32,1.32,0,0,1,.44.27c.21.16.4.32.59.24s.21-.22.16-.65a2.59,2.59,0,0,1,0-.32,1.4,1.4,0,0,1,.27-1,1,1,0,0,1,1-.27c.69.1,1.41.16,2.1.23l.6.06a5.26,5.26,0,0,1,1.11.28,5.44,5.44,0,0,0,.89.24,2.25,2.25,0,0,0,0-.27,2.78,2.78,0,0,1,.07-.55.19.19,0,0,1,.19-.16c.21,0,.39.22.54.41s.29.34.44.33.62-.51.86-.83l.18-.24c.11-.13.2-.26.29-.39a2.85,2.85,0,0,1,.69-.78,6,6,0,0,1,1.27-.67.14.14,0,0,1,.15,0,.23.23,0,0,1,.05.18,3.76,3.76,0,0,1-.23.91,4.58,4.58,0,0,0-.15.52l.25,0s0,0,0,0a.21.21,0,0,1,.14-.19c.29-.88.53-1.76.76-2.68l.33-1.26a10.54,10.54,0,0,1,2-3.58l.39-.53a4,4,0,0,0,1-2.28,1.17,1.17,0,0,0-.54-.86c-1.09-.79-2.63-.76-4-.73h-.33c-2.5,0-5.93.1-7,3.57-.12.39-.22.8-.31,1.2a7.1,7.1,0,0,1-1.5,3.44,4.53,4.53,0,0,1-2.84,1.35c-.48,0-.89-.13-1.33-.1a5.91,5.91,0,0,0-1.31.31l-.23.07a4.82,4.82,0,0,1-1.77.13,6.78,6.78,0,0,0-1.1,0c-.26,0-.51.07-.76.12A2.72,2.72,0,0,1,92.3,83a5.77,5.77,0,0,1-.91-.87A3.27,3.27,0,0,0,90,81.09h0a2.8,2.8,0,0,1-2.22-1.87,12.75,12.75,0,0,1-.51-2.06,12.9,12.9,0,0,0-.48-1.95c-.16-.43-.33-.85-.5-1.26a14.47,14.47,0,0,1-.88-2.55c-.18-.84-.31-1.71-.43-2.55-.08-.57-.16-1.14-.26-1.7a9.43,9.43,0,0,1-.14-3.69,31,31,0,0,1,1-3.45l.2-.61c.13-.39.24-.79.36-1.19s.28-1,.44-1.43.31-1,.46-1.56l.1-.37a8.53,8.53,0,0,1,.9-2l.25-.46a2,2,0,0,1-.56-.41,1.87,1.87,0,0,0-.2-.17,4.21,4.21,0,0,0-.6-.33,4.73,4.73,0,0,1-.67-.38,1.84,1.84,0,0,0-.89-.4h0a2.12,2.12,0,0,1-1.21-.89l-.2-.22a6.77,6.77,0,0,0-.78-.77L83,48.79a.91.91,0,0,1-.35-.33,2.84,2.84,0,0,1-.14-1.18c0-.16,0-.31,0-.43s0-.47,0-.71a8.59,8.59,0,0,0-.06-1,4.1,4.1,0,0,0-.88-1.76,8,8,0,0,1-.61-.94l-.19-.36a4.61,4.61,0,0,1-.54-1.24c-.06-.26-.1-.52-.15-.78a7.84,7.84,0,0,0-.27-1.2A7.2,7.2,0,0,0,78,36l-.16-.17a2.9,2.9,0,0,0-1.18-.92,1.91,1.91,0,0,0-.6,0,2.91,2.91,0,0,1-.58,0c-1.11-.23-1.77.06-2.12.89-.05.12-.1.26-.15.41a2.74,2.74,0,0,1-.65,1.2c-.38.32-.67,0-.89-.22a1.56,1.56,0,0,0-.22-.21,2.91,2.91,0,0,0-.73-.33A2.39,2.39,0,0,1,69.62,36a10.48,10.48,0,0,1-1.05-1.43l-.4-.6a4.32,4.32,0,0,1-.56-1.66,4.61,4.61,0,0,0-.46-1.48,10.87,10.87,0,0,0-1.27-1.64,10.76,10.76,0,0,1-1.42-1.87l-.22-.41c-.42-.8-.76-1.43-1.59-1.66a14,14,0,0,0-1.87-.34,14,14,0,0,1-2-.38c0,.11,0,.24,0,.37,0,.64-.09,1.45-.59,1.77a1.47,1.47,0,0,1-1.13,0l-.27-.07c-.7-.13-1.4-.23-2.05-.32-.38-.05-.77-.09-1.16-.13A9.34,9.34,0,0,1,49.3,25a12.49,12.49,0,0,0-2.67-1.19,10.13,10.13,0,0,1-3.35-1.68,10.65,10.65,0,0,1-.89-.89,9.81,9.81,0,0,0-.93-.93,3.21,3.21,0,0,0-.76-.41,2.32,2.32,0,0,1-1.13-.78c-.15-.21-.26-.43-.38-.65A2.43,2.43,0,0,0,38,17.16a1.21,1.21,0,0,0-.86.16,2.63,2.63,0,0,1-.64.21,6.67,6.67,0,0,1-1.54,0l-.45,0A8.91,8.91,0,0,1,32.64,17l0,0c0,.26-.08.51-.11.78l0,.4a1,1,0,0,0,.28,1l.12.16a2.08,2.08,0,0,1,.4,1.46,3.59,3.59,0,0,1-.17.76,2.14,2.14,0,0,0-.15.8c0,.46.52,1.44.84,1.5h0a.16.16,0,0,1,.1.07.24.24,0,0,1,0,.16c0,.13,0,.26-.06.39a3,3,0,0,0-.07.7,1.11,1.11,0,0,0,.21.54,2.35,2.35,0,0,1,.19.37,2.75,2.75,0,0,1,.17.92,1.39,1.39,0,0,0,.28.92l.18.22a18.33,18.33,0,0,1,1.11,1.46c.14.21.26.44.38.65a5.36,5.36,0,0,0,.54.87,8.45,8.45,0,0,1,.84,1.21,18.68,18.68,0,0,1,1,2.07.27.27,0,0,1,0,.19.2.2,0,0,1-.12.12,4.07,4.07,0,0,0-2.08,1.69c-.44.65-.16,1,.37,1.66a5,5,0,0,1,.44.59,14.4,14.4,0,0,0,2,2.35l.63.66a15.24,15.24,0,0,0,2.31,2.14l.11.07a1.64,1.64,0,0,1,.91,1.37,7.7,7.7,0,0,1-.27,2.55c0,.23-.1.46-.15.69a4.68,4.68,0,0,1-.15.53,2.45,2.45,0,0,0-.19.87c.09.52.86,1,1.42,1.36a6.53,6.53,0,0,1,.6.41A9.5,9.5,0,0,1,47.39,57c.11.56.18.61.66.7a7.84,7.84,0,0,1,.79.22l.36.11a3.25,3.25,0,0,0-.7-2.89,5.56,5.56,0,0,1-.78-1.89c0-.09,0-.18-.06-.27a2.81,2.81,0,0,1-.11-.59,2,2,0,0,1,.06-.53,1.59,1.59,0,0,0,0-.39c0-.07,0-.08,0-.08s-.19.06-.65.66l-.07.1a.16.16,0,0,1-.19.06.2.2,0,0,1-.1-.19,8.71,8.71,0,0,0,0-.92,6.42,6.42,0,0,1,0-1.55,3,3,0,0,1,.38-1l.07-.13a.8.8,0,0,0-.17-.11.85.85,0,0,1-.36-.31,1.25,1.25,0,0,1-.14-.71,1.38,1.38,0,0,0,0-.32.87.87,0,0,0-.24-.46,1.07,1.07,0,0,1-.27-1v-.12a2,2,0,0,0-.24-1.63,3.6,3.6,0,0,1-.39-1,2.81,2.81,0,0,0-.35-.91c-.07-.09-.13-.1-.25-.11a.9.9,0,0,1-.31-.09,1.51,1.51,0,0,1-.6-.83l-.08-.19c-.16-.34-.32-.67-.49-1s-.39-.77-.56-1.17a8.22,8.22,0,0,1-.66-2.49,5.68,5.68,0,0,0-.25-1c-.06-.19-.12-.38-.17-.59a3,3,0,0,1,.11-2.34,1.29,1.29,0,0,0-.46-1.77.2.2,0,0,1,0-.08l-.4-.14a5,5,0,0,1-1.85-1,5.78,5.78,0,0,1-1.31-3.1,6.59,6.59,0,0,1,.21-3.52,2.24,2.24,0,0,1,1-1.39.87.87,0,0,1,.91.18l.17.13a13,13,0,0,0,2.5,1.63c1.29.6,1.52,1.83,1.46,3.49v.15a11.06,11.06,0,0,0,.35,4.09c.24.71.44,1.45.63,2.16s.36,1.34.57,2a4.51,4.51,0,0,0,1.25,1.84l.3.32.33.37c.47.54,1,1.1,1.61,1a2.28,2.28,0,0,0,.48-.12.14.14,0,0,1,.15,0,.22.22,0,0,1,0,.18,6,6,0,0,0,.18,3,3,3,0,0,0,1.49,1.39,6.44,6.44,0,0,1,.77.49,2.12,2.12,0,0,1,.55.77l.14.26A1.2,1.2,0,0,1,52.55,46c-.62.82-.82,1.23-.28,2l.22.32a3.82,3.82,0,0,0,1.21,1.32,4.11,4.11,0,0,0,.41.17,1.84,1.84,0,0,1,1.12.82,2.26,2.26,0,0,1,.14,1,2.2,2.2,0,0,0,.09.87,1.89,1.89,0,0,0,.5.63,2.24,2.24,0,0,1,.64.86c.1.25.17.49.25.71a2.73,2.73,0,0,0,.86,1.51l.21.17a4,4,0,0,1,1.29,1.42A15.65,15.65,0,0,1,60,59.94l.26.75A10.38,10.38,0,0,0,61,62.07a5.69,5.69,0,0,1,1,3.47,3.39,3.39,0,0,1-.76,1.66l-.3.43a3.26,3.26,0,0,0-.33,1.72c0,.17,0,.34,0,.5a.27.27,0,0,1-.06.16.17.17,0,0,1-.13.06c-.2,0-.33,0-.39.16-.21.46.37,1.81.67,2.29a7.76,7.76,0,0,1,.46.92c.32.72.6,1.34,1.26,1.53,1,.3,1.59,1.21,2.18,2.17l.15.25c.16.25.29.5.42.73.42.78.76,1.4,1.58,1.66.2.06.4.11.6.15a3.33,3.33,0,0,1,1.24.45c.18.12.36.24.55.35a8.85,8.85,0,0,1,.83.56h0l.12.11.12.09s0,0,0,0c.44.41.86.86,1.26,1.3a15.76,15.76,0,0,0,1.9,1.85,15.17,15.17,0,0,0,2.76,1.57c.49.24,1,.48,1.51.76a8.45,8.45,0,0,1,1.75,1.43,9.75,9.75,0,0,0,1.49,1.26c.3.19.59.39.89.58a7.19,7.19,0,0,0,3.17,1.51,4.64,4.64,0,0,0,3-.88l.61-.33a2.29,2.29,0,0,1,2.17-.27,7.62,7.62,0,0,1,1.55,1.21c.26.25.51.48.77.69l.37.29a9.17,9.17,0,0,1,2.22,2.22,4.58,4.58,0,0,1,.27.54c.08.19.17.38.27.55a.14.14,0,0,1,.14.08l.12.24a.43.43,0,0,0,.15.09h0C97.15,96.32,97.74,95.43,98.31,94.56Z"/><ellipse class="cls-2" cx="75" cy="129.58" rx="35.4" ry="3.57"/><ellipse class="cls-2" cx="75" cy="129.58" rx="35.4" ry="3.57"/><text class="cls-3" transform="translate(41.67 169.25)">México</text><line class="cls-4" x1="37.79" y1="186.97" x2="112.21" y2="186.97"/></svg>
