<svg id="Layer_1" data-name="Layer 1" xmlns="http://www.w3.org/2000/svg" viewBox="0 0 100 100"><defs><style>.cls-1{font-size:10.86px;fill:#c49c5c;font-family:Helvetica-Bold, Helvetica;font-weight:700;}.cls-2{fill:#7e7565;}.cls-3{fill:none;}</style></defs><title>productos</title><text class="cls-1" transform="translate(2.31 89.05)">Nuevos productos</text><path class="cls-2" d="M50.54,53.49a9.81,9.81,0,0,0,2.21-.25l8.65-2V66.32c0,1.47-3.87,2.66-8.64,2.66s-8.64-1.19-8.64-2.66V51.86L47.41,53a9.78,9.78,0,0,0,3.13.51"/><path class="cls-2" d="M47.34,48.44l-.48-1.25c-.29.16-.45.34-.45.52s.34.52.93.73m5.41.67c3.5,0,6.34-.63,6.34-1.41s-2.84-1.41-6.34-1.41a26,26,0,0,0-2.76.14l1,2.62c.56,0,1.15.05,1.75.05M40.52,47.78A.63.63,0,0,1,41,47.2L46.4,46l-.82-2.13-2.52-6.59a1.58,1.58,0,0,1,.93-2,1.6,1.6,0,0,1,2.06.92l2.68,7,.82,2.13,3.74-.86a7.51,7.51,0,0,1,4.09.2L64.57,47a.63.63,0,0,1-.06,1.21L52.23,51a7.5,7.5,0,0,1-4.09-.2l-7.2-2.43a.63.63,0,0,1-.43-.63"/><path class="cls-2" d="M15.32,48.16a.77.77,0,0,1,.77.77,2.31,2.31,0,0,0,2.31,2.31.77.77,0,1,1,0,1.54,3.86,3.86,0,0,1-3.86-3.86.77.77,0,0,1,.77-.77m3.08,5.4a4.62,4.62,0,0,0,2.11-8.74.77.77,0,0,1-.57.25H16.86a.77.77,0,0,1-.57-.25,4.62,4.62,0,0,0,2.11,8.74"/><rect class="cls-3" x="10.69" y="25.79" width="77.81" height="43.18"/><polygon class="cls-2" points="25.34 25.8 25.34 28.88 23.8 28.88 23.8 25.8 22.26 25.8 22.26 28.88 20.71 28.88 20.71 25.8 19.17 25.8 19.17 30.42 26.89 30.42 26.89 25.8 25.34 25.8"/><polygon class="cls-2" points="34.28 31.96 28.75 31.96 31.51 34.73 34.28 31.96"/><path class="cls-2" d="M19.53,43.53l.51-.77h-.87a.77.77,0,0,1-.69-.43l-.08-.16-.08.16a.77.77,0,0,1-.69.43h-.87l.51.77Z"/><path class="cls-2" d="M15.42,43.53l-.74-1.11a.77.77,0,0,1,.64-1.2h1.84l.56-1.12a.8.8,0,0,1,1.38,0l.56,1.12h1.84a.77.77,0,0,1,.64,1.2l-.74,1.11a6.17,6.17,0,1,1-6,0M23.8,58.18H22.26V56.64H23.8Zm-3.08,0H19.17V56.64h1.54Zm-3.08,0H16.09V56.64h1.54Zm-3.08,0H13V56.64h1.54ZM10.69,69H26.11V32H10.69Z"/><path class="cls-2" d="M33.83,59.73H29.2V58.18h4.63Zm0,3.08H29.2V61.27h4.63Zm0,3.08H29.2V64.35h4.63ZM32.06,36.37a.77.77,0,0,1-1.09,0l-3.31-3.31V69h7.71V33.05Z"/><path class="cls-2" d="M73.11,49.6a1,1,0,0,0,.45-.65h0a1,1,0,0,0-1.23.8h0a1,1,0,0,0,.78-.14"/><path class="cls-2" d="M79.48,54.73a18.4,18.4,0,0,0,1-4.67,2.73,2.73,0,1,0-5.47,0,18.36,18.36,0,0,0,1,4.67Z"/><path class="cls-2" d="M82.33,49.6a1,1,0,0,0,.78.14h0a1,1,0,0,0-1.23-.8h0a1,1,0,0,0,.45.65"/><path class="cls-2" d="M81.78,33.67H73.65V32.11h8.12ZM72,47.91a2.43,2.43,0,0,1,1.84-.34,2.32,2.32,0,0,1,.46.15l.16-.22a2.6,2.6,0,0,1-1.12-2.65.7.7,0,0,1,1.39.19,1.22,1.22,0,0,0,.86,1.47,4.1,4.1,0,0,1,4.23,0A1.22,1.22,0,0,0,80.69,45a.7.7,0,0,1,1.39-.19A2.6,2.6,0,0,1,81,47.5l.16.22a2.33,2.33,0,0,1,.46-.15,2.44,2.44,0,0,1,2.9,1.88,2.46,2.46,0,0,1,0,.85.71.71,0,0,1-.32.5,2.43,2.43,0,0,1-.79.33,2.5,2.5,0,0,1-.51.05,2.41,2.41,0,0,1-1.09-.26,22.74,22.74,0,0,1-1.16,4.76.7.7,0,0,1-.66.46H75.46a.7.7,0,0,1-.66-.46,22.74,22.74,0,0,1-1.16-4.76,2.41,2.41,0,0,1-1.09.26,2.5,2.5,0,0,1-.51-.05,2.43,2.43,0,0,1-.79-.33.71.71,0,0,1-.32-.5,2.46,2.46,0,0,1,0-.85A2.43,2.43,0,0,1,72,47.91M70.88,69H84.55A4,4,0,0,0,88.5,65V43.1a10.6,10.6,0,0,0-3-7.45,9.13,9.13,0,0,0-2.34-1.71V32.11h.94a.7.7,0,0,0,.7-.7V26.56a.7.7,0,0,0-.7-.7H71.31a.7.7,0,0,0-.7.7V31.4a.7.7,0,0,0,.7.7h.94v1.83a9.13,9.13,0,0,0-2.34,1.71,10.6,10.6,0,0,0-3,7.45V65A4,4,0,0,0,70.88,69"/></svg>
