<svg id="Layer_1" data-name="Layer 1" xmlns="http://www.w3.org/2000/svg" viewBox="0 0 100 100"><defs><style>.cls-1{font-size:11px;fill:#c49c5c;font-family:Helvetica-Bold, Helvetica;font-weight:700;}.cls-2{fill:#7e7565;}</style></defs><title>rutas</title><text class="cls-1" transform="translate(6.29 88.32)">Rutas de reparto</text><path class="cls-2" d="M16.89,48.95H54.67a3.42,3.42,0,0,0,3.42-3.42V22.18a3.42,3.42,0,0,0-3.42-3.42H16.89a3.42,3.42,0,0,0-3.42,3.42V45.53A3.42,3.42,0,0,0,16.89,48.95Z"/><path class="cls-2" d="M77.39,28.7H61.06v22H11.89v9.11h5.47a7.53,7.53,0,0,1,15.06,0H66.75a7.5,7.5,0,1,1,15,0h4.56V42.18ZM61.06,57.94h-1.9V52.62h1.9ZM82.89,46,64.48,44V32.12H75.55l7.34,11.09V46Z"/><circle class="cls-2" cx="74.31" cy="59.83" r="5.79"/><circle class="cls-2" cx="24.89" cy="59.83" r="5.79"/></svg>
