<svg xmlns="http://www.w3.org/2000/svg" xmlns:xlink="http://www.w3.org/1999/xlink" viewBox="0 0 111.2 118.03"><defs><style>.cls-1{fill:#004899;}.cls-2,.cls-50,.cls-51{fill:#fff;}.cls-3,.cls-4{fill:#99d7f7;}.cls-104,.cls-105,.cls-106,.cls-107,.cls-108,.cls-3,.cls-46,.cls-47,.cls-48,.cls-49,.cls-50,.cls-51,.cls-86,.cls-87,.cls-88,.cls-89,.cls-90,.cls-91,.cls-92,.cls-93,.cls-94,.cls-95,.cls-96,.cls-97{fill-rule:evenodd;}.cls-5{fill:#9cd8f7;}.cls-6{fill:#a0d9f8;}.cls-7{fill:#a3daf8;}.cls-8{fill:#a7dcf8;}.cls-9{fill:#aaddf9;}.cls-10{fill:#addef9;}.cls-11{fill:#b1dff9;}.cls-12{fill:#b4e1fa;}.cls-13{fill:#b7e2fa;}.cls-14{fill:#bbe3fa;}.cls-15{fill:#bee4fa;}.cls-16{fill:#c1e5fb;}.cls-17{fill:#c4e7fb;}.cls-18{fill:#c7e8fb;}.cls-19{fill:#cae9fb;}.cls-20{fill:#cdeafc;}.cls-21{fill:#cfebfc;}.cls-22{fill:#d2ecfc;}.cls-23{fill:#d5edfc;}.cls-24{fill:#d8eefd;}.cls-25{fill:#daf0fd;}.cls-26{fill:#ddf1fd;}.cls-27{fill:#e0f2fd;}.cls-28{fill:#e3f3fe;}.cls-29{fill:#e5f4fe;}.cls-30{fill:#e8f5fe;}.cls-31{fill:#eaf7fe;}.cls-32{fill:#edf8fe;}.cls-33{fill:#f0f9fe;}.cls-34{fill:#f2faff;}.cls-35{fill:#f5fbff;}.cls-36{fill:#f8fcff;}.cls-37{fill:#fafdff;}.cls-38{fill:#fdfeff;}.cls-39{fill:#e30613;}.cls-40{fill:#f39200;}.cls-41{fill:#ffed00;}.cls-42{fill:#3aaa35;}.cls-43{fill:#0070ba;}.cls-44{fill:#213a8f;}.cls-45{fill:#76398d;}.cls-46{fill:url(#linear-gradient);}.cls-47{fill:url(#linear-gradient-2);}.cls-48{fill:url(#linear-gradient-3);}.cls-49{fill:url(#linear-gradient-4);}.cls-51{opacity:0.48;}.cls-52{fill:url(#linear-gradient-5);}.cls-53{fill:url(#linear-gradient-6);}.cls-54{fill:url(#linear-gradient-7);}.cls-55{fill:url(#linear-gradient-8);}.cls-56{fill:url(#linear-gradient-9);}.cls-57{fill:url(#linear-gradient-10);}.cls-58{fill:url(#linear-gradient-11);}.cls-59{fill:url(#linear-gradient-12);}.cls-60{fill:url(#linear-gradient-13);}.cls-61{fill:url(#linear-gradient-14);}.cls-62{fill:url(#linear-gradient-15);}.cls-63{fill:url(#linear-gradient-16);}.cls-64{fill:url(#linear-gradient-17);}.cls-65{fill:url(#linear-gradient-18);}.cls-66{fill:url(#linear-gradient-19);}.cls-67{fill:url(#linear-gradient-20);}.cls-68{fill:url(#linear-gradient-21);}.cls-69{fill:url(#linear-gradient-22);}.cls-70{fill:url(#linear-gradient-23);}.cls-71{fill:url(#linear-gradient-24);}.cls-72{fill:url(#linear-gradient-25);}.cls-73{fill:url(#linear-gradient-26);}.cls-74{fill:url(#linear-gradient-27);}.cls-75{fill:url(#linear-gradient-28);}.cls-76{fill:url(#linear-gradient-29);}.cls-77{fill:url(#linear-gradient-30);}.cls-78{fill:url(#linear-gradient-31);}.cls-79{fill:url(#linear-gradient-32);}.cls-80{fill:url(#linear-gradient-33);}.cls-81{fill:url(#linear-gradient-34);}.cls-82{fill:url(#linear-gradient-35);}.cls-83{fill:url(#linear-gradient-36);}.cls-84{fill:url(#linear-gradient-37);}.cls-85{fill:url(#linear-gradient-38);}.cls-86{fill:#51ae32;}.cls-87{fill:#53ad35;}.cls-88{fill:#faef84;}.cls-89{fill:url(#linear-gradient-39);}.cls-90{fill:url(#linear-gradient-40);}.cls-91{fill:url(#linear-gradient-41);}.cls-92{fill:url(#linear-gradient-42);}.cls-93{fill:url(#linear-gradient-43);}.cls-94{fill:url(#linear-gradient-44);}.cls-95{fill:url(#linear-gradient-45);}.cls-96{fill:url(#linear-gradient-46);}.cls-97{fill:url(#linear-gradient-47);}.cls-98{fill:#e40230;}.cls-100,.cls-101,.cls-102,.cls-98{stroke:#bc0b26;}.cls-100,.cls-101,.cls-103,.cls-98{stroke-width:0.02px;}.cls-99{fill:#c90c0f;}.cls-100,.cls-102{fill:#e52b1f;}.cls-101{fill:url(#linear-gradient-48);}.cls-102{stroke-width:0.02px;}.cls-103{fill:none;stroke:#c84440;}.cls-104{fill:url(#linear-gradient-49);}.cls-105{fill:url(#linear-gradient-50);}.cls-106{fill:url(#linear-gradient-51);}.cls-107{fill:url(#linear-gradient-52);}.cls-108{fill:url(#linear-gradient-53);}.cls-109{fill:url(#linear-gradient-54);}.cls-110{fill:url(#linear-gradient-55);}.cls-111{fill:url(#linear-gradient-56);}.cls-112{fill:#ededed;}.cls-113{fill:#b7b7b7;}</style><linearGradient id="linear-gradient" x1="56.06" y1="34.09" x2="56.06" y2="33.43" gradientUnits="userSpaceOnUse"><stop offset="0" stop-color="#309dd8"/><stop offset="1" stop-color="#0067b2"/></linearGradient><linearGradient id="linear-gradient-2" x1="56.05" y1="34.24" x2="56.05" y2="33.08" gradientUnits="userSpaceOnUse"><stop offset="0" stop-color="#00a3e2"/><stop offset="1" stop-color="#0067b2"/></linearGradient><linearGradient id="linear-gradient-3" x1="56.03" y1="34.45" x2="56.03" y2="33.77" xlink:href="#linear-gradient"/><linearGradient id="linear-gradient-4" x1="56.07" y1="34.53" x2="56.07" y2="34.06" gradientUnits="userSpaceOnUse"><stop offset="0" stop-color="#309dd8"/><stop offset="1" stop-color="#0060ac"/></linearGradient><linearGradient id="linear-gradient-5" x1="45.62" y1="33.56" x2="69.81" y2="26.3" gradientUnits="userSpaceOnUse"><stop offset="0" stop-color="#98681b"/><stop offset="0.5" stop-color="#d9c600"/><stop offset="1" stop-color="#98681b"/></linearGradient><linearGradient id="linear-gradient-6" x1="45.26" y1="32.37" x2="69.45" y2="25.1" xlink:href="#linear-gradient-5"/><linearGradient id="linear-gradient-7" x1="44.95" y1="31.34" x2="69.14" y2="24.08" xlink:href="#linear-gradient-5"/><linearGradient id="linear-gradient-8" x1="44.57" y1="30.09" x2="68.76" y2="22.82" xlink:href="#linear-gradient-5"/><linearGradient id="linear-gradient-9" x1="44.33" y1="29.28" x2="68.52" y2="22.01" xlink:href="#linear-gradient-5"/><linearGradient id="linear-gradient-10" x1="44.14" y1="28.65" x2="68.33" y2="21.38" xlink:href="#linear-gradient-5"/><linearGradient id="linear-gradient-11" x1="43.99" y1="28.15" x2="68.18" y2="20.88" xlink:href="#linear-gradient-5"/><linearGradient id="linear-gradient-12" x1="43.88" y1="27.77" x2="68.07" y2="20.5" xlink:href="#linear-gradient-5"/><linearGradient id="linear-gradient-13" x1="43.82" y1="27.58" x2="68.01" y2="20.31" xlink:href="#linear-gradient-5"/><linearGradient id="linear-gradient-14" x1="43.82" y1="27.57" x2="68.01" y2="20.31" xlink:href="#linear-gradient-5"/><linearGradient id="linear-gradient-15" x1="43.93" y1="27.94" x2="68.12" y2="20.67" xlink:href="#linear-gradient-5"/><linearGradient id="linear-gradient-16" x1="44.15" y1="28.7" x2="68.35" y2="21.43" xlink:href="#linear-gradient-5"/><linearGradient id="linear-gradient-17" x1="44.34" y1="29.32" x2="68.54" y2="22.05" xlink:href="#linear-gradient-5"/><linearGradient id="linear-gradient-18" x1="44.58" y1="30.11" x2="68.77" y2="22.84" xlink:href="#linear-gradient-5"/><linearGradient id="linear-gradient-19" x1="44.94" y1="31.27" x2="69.12" y2="24" xlink:href="#linear-gradient-5"/><linearGradient id="linear-gradient-20" x1="45.25" y1="32.34" x2="69.44" y2="25.07" xlink:href="#linear-gradient-5"/><linearGradient id="linear-gradient-21" x1="45.67" y1="33.75" x2="69.87" y2="26.48" xlink:href="#linear-gradient-5"/><linearGradient id="linear-gradient-22" x1="46.05" y1="35" x2="70.24" y2="27.73" xlink:href="#linear-gradient-5"/><linearGradient id="linear-gradient-23" x1="46.52" y1="36.54" x2="70.7" y2="29.28" xlink:href="#linear-gradient-5"/><linearGradient id="linear-gradient-24" x1="46.84" y1="37.63" x2="71.03" y2="30.37" xlink:href="#linear-gradient-5"/><linearGradient id="linear-gradient-25" x1="46.52" y1="36.56" x2="70.71" y2="29.29" xlink:href="#linear-gradient-5"/><linearGradient id="linear-gradient-26" x1="46.97" y1="38.06" x2="71.16" y2="30.79" xlink:href="#linear-gradient-5"/><linearGradient id="linear-gradient-27" x1="47.37" y1="39.38" x2="71.55" y2="32.11" xlink:href="#linear-gradient-5"/><linearGradient id="linear-gradient-28" x1="47.66" y1="40.36" x2="71.85" y2="33.09" xlink:href="#linear-gradient-5"/><linearGradient id="linear-gradient-29" x1="47.84" y1="40.97" x2="72.03" y2="33.7" xlink:href="#linear-gradient-5"/><linearGradient id="linear-gradient-30" x1="48.05" y1="41.66" x2="72.24" y2="34.4" xlink:href="#linear-gradient-5"/><linearGradient id="linear-gradient-31" x1="48.24" y1="42.3" x2="72.43" y2="35.04" xlink:href="#linear-gradient-5"/><linearGradient id="linear-gradient-32" x1="48.39" y1="42.77" x2="72.57" y2="35.51" xlink:href="#linear-gradient-5"/><linearGradient id="linear-gradient-33" x1="48.41" y1="42.85" x2="72.59" y2="35.59" xlink:href="#linear-gradient-5"/><linearGradient id="linear-gradient-34" x1="48.38" y1="42.75" x2="72.57" y2="35.48" xlink:href="#linear-gradient-5"/><linearGradient id="linear-gradient-35" x1="48.26" y1="42.35" x2="72.45" y2="35.08" xlink:href="#linear-gradient-5"/><linearGradient id="linear-gradient-36" x1="48.15" y1="41.97" x2="72.33" y2="34.7" xlink:href="#linear-gradient-5"/><linearGradient id="linear-gradient-37" x1="47.94" y1="41.29" x2="72.13" y2="34.03" xlink:href="#linear-gradient-5"/><linearGradient id="linear-gradient-38" x1="47.69" y1="40.46" x2="71.88" y2="33.19" xlink:href="#linear-gradient-5"/><linearGradient id="linear-gradient-39" x1="58.96" y1="33.82" x2="59.23" y2="33.36" gradientUnits="userSpaceOnUse"><stop offset="0" stop-color="#009c3d"/><stop offset="1" stop-color="#65b32e"/></linearGradient><linearGradient id="linear-gradient-40" x1="57.42" y1="34.14" x2="58.27" y2="33.38" xlink:href="#linear-gradient-39"/><linearGradient id="linear-gradient-41" x1="56.34" y1="34.37" x2="57.07" y2="33.58" xlink:href="#linear-gradient-39"/><linearGradient id="linear-gradient-42" x1="55.45" y1="33.81" x2="55.81" y2="33.14" xlink:href="#linear-gradient-39"/><linearGradient id="linear-gradient-43" x1="53.51" y1="34.29" x2="54.46" y2="33.51" xlink:href="#linear-gradient-39"/><linearGradient id="linear-gradient-44" x1="56.06" y1="35.21" x2="56.06" y2="34.52" xlink:href="#linear-gradient"/><linearGradient id="linear-gradient-45" x1="56.04" y1="35.33" x2="56.04" y2="34.81" xlink:href="#linear-gradient"/><linearGradient id="linear-gradient-46" x1="56.06" y1="35.35" x2="56.06" y2="35.04" xlink:href="#linear-gradient"/><linearGradient id="linear-gradient-47" x1="-128.97" y1="29.51" x2="-146.5" y2="40.59" gradientTransform="translate(189.62)" gradientUnits="userSpaceOnUse"><stop offset="0" stop-color="#98681b"/><stop offset="0.15" stop-color="#fe0"/><stop offset="0.32" stop-color="#98681b"/><stop offset="0.5" stop-color="#fe0"/><stop offset="0.64" stop-color="#98681b"/><stop offset="0.84" stop-color="#fe0"/><stop offset="1" stop-color="#98681b"/></linearGradient><linearGradient id="linear-gradient-48" x1="56.31" y1="31.21" x2="55.9" y2="31.18" gradientUnits="userSpaceOnUse"><stop offset="0" stop-color="#e30613"/><stop offset="1" stop-color="#ac0f09"/></linearGradient><linearGradient id="linear-gradient-49" x1="53.62" y1="31.93" x2="53.84" y2="31.86" gradientUnits="userSpaceOnUse"><stop offset="0" stop-color="#009c3d"/><stop offset="1" stop-color="#70b62c"/></linearGradient><linearGradient id="linear-gradient-50" x1="54.92" y1="31.93" x2="55.14" y2="31.86" xlink:href="#linear-gradient-49"/><linearGradient id="linear-gradient-51" x1="55.9" y1="31.93" x2="56.12" y2="31.87" xlink:href="#linear-gradient-49"/><linearGradient id="linear-gradient-52" x1="57.08" y1="31.88" x2="57.17" y2="31.93" xlink:href="#linear-gradient-49"/><linearGradient id="linear-gradient-53" x1="58.41" y1="31.88" x2="58.5" y2="31.93" xlink:href="#linear-gradient-49"/><linearGradient id="linear-gradient-54" x1="53.79" y1="32.66" x2="54.99" y2="32.66" gradientUnits="userSpaceOnUse"><stop offset="0" stop-color="#ffed00"/><stop offset="1" stop-color="#3aaa35"/></linearGradient><linearGradient id="linear-gradient-55" x1="55" y1="32.66" x2="56.26" y2="32.66" xlink:href="#linear-gradient-54"/><linearGradient id="linear-gradient-56" x1="56.27" y1="32.17" x2="56.79" y2="32.99" xlink:href="#linear-gradient-54"/></defs><title>nicaragua</title><g id="Layer_2" data-name="Layer 2"><g id="Layer_1-2" data-name="Layer 1"><rect class="cls-1" x="12.63" y="41.86" width="89.39" height="19.61"/><rect class="cls-1" x="12.63" y="2.38" width="89.68" height="19.74"/><rect class="cls-2" x="12.63" y="22.12" width="89.68" height="19.74"/><polygon class="cls-3" points="50.41 35.48 56.06 25.69 61.71 35.48 50.41 35.48"/><circle class="cls-4" cx="56.04" cy="30.86" r="2.1"/><circle class="cls-5" cx="56.04" cy="30.86" r="2.06"/><circle class="cls-6" cx="56.04" cy="30.86" r="2.02"/><circle class="cls-7" cx="56.04" cy="30.86" r="1.98"/><circle class="cls-8" cx="56.04" cy="30.86" r="1.94"/><circle class="cls-9" cx="56.04" cy="30.86" r="1.9"/><circle class="cls-10" cx="56.04" cy="30.86" r="1.86"/><circle class="cls-11" cx="56.04" cy="30.86" r="1.82"/><circle class="cls-12" cx="56.04" cy="30.86" r="1.78"/><circle class="cls-13" cx="56.04" cy="30.86" r="1.74"/><circle class="cls-14" cx="56.04" cy="30.86" r="1.7"/><circle class="cls-15" cx="56.04" cy="30.86" r="1.66"/><circle class="cls-16" cx="56.04" cy="30.86" r="1.62"/><circle class="cls-17" cx="56.04" cy="30.86" r="1.58"/><circle class="cls-18" cx="56.04" cy="30.86" r="1.54"/><circle class="cls-19" cx="56.04" cy="30.86" r="1.5"/><circle class="cls-20" cx="56.04" cy="30.86" r="1.46"/><circle class="cls-21" cx="56.04" cy="30.86" r="1.42"/><circle class="cls-22" cx="56.04" cy="30.86" r="1.38"/><circle class="cls-23" cx="56.04" cy="30.86" r="1.34"/><circle class="cls-24" cx="56.04" cy="30.86" r="1.3"/><circle class="cls-25" cx="56.04" cy="30.86" r="1.26"/><circle class="cls-26" cx="56.04" cy="30.86" r="1.22"/><circle class="cls-27" cx="56.04" cy="30.86" r="1.18"/><circle class="cls-28" cx="56.04" cy="30.86" r="1.14"/><circle class="cls-29" cx="56.04" cy="30.86" r="1.1"/><circle class="cls-30" cx="56.04" cy="30.86" r="1.06"/><circle class="cls-31" cx="56.04" cy="30.86" r="1.02"/><circle class="cls-32" cx="56.04" cy="30.86" r="0.98"/><circle class="cls-33" cx="56.04" cy="30.86" r="0.94"/><circle class="cls-34" cx="56.04" cy="30.86" r="0.9"/><circle class="cls-35" cx="56.04" cy="30.86" r="0.86"/><circle class="cls-36" cx="56.04" cy="30.86" r="0.82"/><circle class="cls-37" cx="56.04" cy="30.86" r="0.78"/><circle class="cls-38" cx="56.04" cy="30.86" r="0.74"/><circle class="cls-2" cx="56.04" cy="30.86" r="0.7"/><polygon class="cls-2" points="56.77 26.93 56.42 26.32 56.06 30.68 56.77 26.93"/><polygon class="cls-2" points="55.72 26.31 55.36 26.88 56.05 30.67 55.72 26.31"/><polygon class="cls-2" points="54.96 27.61 54.73 27.97 56.03 30.67 54.96 27.61"/><polygon class="cls-2" points="54.48 28.4 54.33 28.66 56.02 30.67 54.48 28.4"/><polygon class="cls-2" points="54.12 29.03 53.99 29.26 56 30.68 54.12 29.03"/><polygon class="cls-2" points="53.79 29.6 53.66 29.83 55.99 30.69 53.79 29.6"/><polygon class="cls-2" points="53.45 30.19 53.3 30.45 55.98 30.7 53.45 30.19"/><polygon class="cls-2" points="53.04 30.89 52.84 31.24 55.97 30.71 53.04 30.89"/><polygon class="cls-2" points="52.47 31.89 52.13 32.47 55.97 30.73 52.47 31.89"/><polygon class="cls-2" points="51.39 33.75 50.63 35.08 55.97 30.75 51.39 33.75"/><polygon class="cls-2" points="51.76 35.47 52.58 35.47 55.97 30.76 51.76 35.47"/><polygon class="cls-2" points="53.6 35.47 54.19 35.47 55.98 30.78 53.6 35.47"/><polygon class="cls-2" points="54.99 35.47 55.5 35.47 55.99 30.79 54.99 35.47"/><polygon class="cls-2" points="56.24 35.47 56.74 35.47 56.01 30.8 56.24 35.47"/><polygon class="cls-2" points="57.52 35.47 58.08 35.47 56.02 30.8 57.52 35.47"/><polygon class="cls-2" points="59.03 35.47 59.78 35.47 56.04 30.8 59.03 35.47"/><polygon class="cls-2" points="61.25 35.47 61.7 35.47 61.23 34.66 56.06 30.79 61.25 35.47"/><polygon class="cls-2" points="60.26 32.98 59.86 32.28 56.07 30.78 60.26 32.98"/><polygon class="cls-2" points="59.43 31.53 59.2 31.14 56.08 30.77 59.43 31.53"/><polygon class="cls-2" points="58.92 30.65 58.76 30.37 56.09 30.76 58.92 30.65"/><polygon class="cls-2" points="58.54 29.99 58.4 29.76 56.09 30.74 58.54 29.99"/><polygon class="cls-2" points="58.2 29.41 58.07 29.18 56.09 30.72 58.2 29.41"/><polygon class="cls-2" points="57.85 28.79 57.62 28.42 56.09 30.71 57.85 28.79"/><polygon class="cls-2" points="57.4 28.02 57.19 27.61 56.08 30.69 57.4 28.02"/><path class="cls-39" d="M56,28.48a4.14,4.14,0,0,1,1.87.44l-.21-.37a4.41,4.41,0,0,0-3.28,0l-.21.36A4.15,4.15,0,0,1,56,28.48Z"/><path class="cls-39" d="M60.12,33.55h.26q0-.14,0-.29l-.21-.37A4.26,4.26,0,0,1,60.12,33.55Z"/><path class="cls-39" d="M52,33.55a4.52,4.52,0,0,1-.09-.64l-.23.39c0,.09,0,.17,0,.25Z"/><path class="cls-40" d="M60,32.46q0,.09,0,.18a3.91,3.91,0,0,1-.11.9l.25,0a3.08,3.08,0,0,0,.11-.66Z"/><path class="cls-40" d="M52.13,32.51l-.22.4a4.46,4.46,0,0,0,.09.64h.23a3.93,3.93,0,0,1-.11-.9S52.13,32.55,52.13,32.51Z"/><path class="cls-40" d="M56,28.73a3.9,3.9,0,0,1,2.12.62l-.25-.43a4.17,4.17,0,0,0-3.7,0l-.24.42A3.9,3.9,0,0,1,56,28.73Z"/><path class="cls-41" d="M56,28.73a3.9,3.9,0,0,0-2.07.59l-.31.53a3.67,3.67,0,0,1,4.82,0l-.32-.55A3.9,3.9,0,0,0,56,28.73Z"/><path class="cls-41" d="M52.44,32l-.31.53s0,.09,0,.13a3.93,3.93,0,0,0,.11.9h.26A3.66,3.66,0,0,1,52.44,32Z"/><path class="cls-41" d="M60,32.46l-.32-.55a3.72,3.72,0,0,1,.07.74,3.67,3.67,0,0,1-.11.9h.26a3.91,3.91,0,0,0,.11-.9Q60,32.55,60,32.46Z"/><path class="cls-42" d="M59.64,31.91l-1.16-2a3.67,3.67,0,0,0-4.82,0L52.44,32a3.66,3.66,0,0,0,.05,1.57h.26a3.42,3.42,0,1,1,6.6,0h.26a3.67,3.67,0,0,0,.11-.9A3.72,3.72,0,0,0,59.64,31.91Z"/><path class="cls-43" d="M56,29.22a3.42,3.42,0,0,0-3.3,4.32H53a3.17,3.17,0,1,1,6.08,0h.26A3.42,3.42,0,0,0,56,29.22Z"/><path class="cls-44" d="M56,29.47a3.17,3.17,0,0,0-3,4.07h.26a2.92,2.92,0,1,1,5.56,0h.26a3.17,3.17,0,0,0-3-4.07Z"/><path class="cls-45" d="M56,29.72a2.92,2.92,0,0,0-2.78,3.83h.26a2.67,2.67,0,1,1,5,0h.26A2.92,2.92,0,0,0,56,29.72Z"/><path class="cls-46" d="M51.75,33.14h8.69l.74,1.4L51,34.52Z"/><path class="cls-47" d="M51.68,33.27a4.62,4.62,0,0,1,1.53.14,4.13,4.13,0,0,0,2.05,0,3.52,3.52,0,0,1,1.54.09c.54.11,1.17-.18,1.7-.08,1,.19,1.36-.26,2.07,0l.62,1.08H50.92Z"/><path class="cls-48" d="M51.51,33.5a6.5,6.5,0,0,1,1.68.12,5,5,0,0,0,2.05,0,4.26,4.26,0,0,1,1.53.08c.54.09,1.17-.15,1.69-.06,1,.16,1.48-.24,2.19,0l.49.9H50.9Z"/><path class="cls-49" d="M51.37,33.88a11.23,11.23,0,0,1,1.86.08,7.06,7.06,0,0,0,2,0A6,6,0,0,1,56.8,34c.53.06,1.16-.1,1.69,0,1,.11,1.62-.16,2.33,0l.38.63H51Z"/><path class="cls-50" d="M52.42,33.29a3.88,3.88,0,0,0-.73,0l-.06.1A1.62,1.62,0,0,1,52.42,33.29Z"/><path class="cls-51" d="M58.87,35.08A3,3,0,0,0,60.24,35,9.07,9.07,0,0,1,58.87,35.08Z"/><path class="cls-52" d="M47.37,33.32a2.35,2.35,0,0,1-.06-.39.64.64,0,0,1,.09-.45.39.39,0,0,1,.29-.15.4.4,0,0,1,.4.23h0a.38.38,0,0,1,.28-.22,3.25,3.25,0,0,0,.41-.14l0,.27a2.25,2.25,0,0,1-.35.12c-.19.05-.25.13-.24.28V33l.62,0,0,.26ZM48,33v-.16c0-.18-.12-.28-.27-.27s-.23.13-.22.3a.71.71,0,0,0,0,.16Z"/><path class="cls-53" d="M48.19,31.15l0,.54.44,0,.05-.6.23,0-.07.86-1.51-.12.07-.83.23,0,0,.57.39,0,0-.54Z"/><path class="cls-54" d="M47.45,30.56a2.17,2.17,0,0,1,.06-.4.63.63,0,0,1,.22-.38.44.44,0,0,1,.36-.06.47.47,0,0,1,.3.2.62.62,0,0,1,0,.48.68.68,0,0,1,0,.12l.55.14-.06.25Zm.75-.08a.48.48,0,0,0,0-.12A.27.27,0,0,0,48,30c-.16,0-.28,0-.32.22a.68.68,0,0,0,0,.15Z"/><path class="cls-55" d="M47.93,28.9l.8.36c.27.12.44.07.51-.09s0-.33-.27-.45l-.8-.36.11-.24.79.35c.43.19.52.48.38.8s-.4.42-.84.23l-.79-.35Z"/><path class="cls-56" d="M48.59,27.63a2,2,0,0,1,.19-.33.65.65,0,0,1,.31-.28.32.32,0,0,1,.32,0,.35.35,0,0,1,.13.38h0a.38.38,0,0,1,.47,0,.4.4,0,0,1,.18.29.77.77,0,0,1-.19.52,2.42,2.42,0,0,1-.2.25Zm.64.12.08-.11c.1-.15.09-.28,0-.36s-.23,0-.32.1a.66.66,0,0,0-.08.13Zm.57.39.08-.11c.1-.14.12-.3,0-.41s-.29,0-.39.13l-.07.11Z"/><path class="cls-57" d="M49.44,26.44l.18-.19.93.88L51,26.7l.17.16-.59.62Z"/><path class="cls-58" d="M50.51,25.42l1,1.16-.2.17-1-1.15Z"/><path class="cls-59" d="M52.55,25.78a.87.87,0,0,1-.27.26.7.7,0,0,1-1-.24.74.74,0,0,1,.21-1.09.8.8,0,0,1,.33-.13l.07.22a.67.67,0,0,0-.27.1.49.49,0,0,0-.12.74.48.48,0,0,0,.72.18.7.7,0,0,0,.21-.2Z"/><path class="cls-60" d="M52.89,25.2l.05.44-.25.1-.16-1.57.31-.13,1,1.22-.26.11L53.31,25Zm.3-.35-.25-.3-.18-.23h0c0,.09,0,.19,0,.29l0,.39Z"/><path class="cls-61" d="M54.27,23.62a2.53,2.53,0,0,1,.41-.09.85.85,0,0,1,.61.09.69.69,0,0,1,.3.52.8.8,0,0,1-.14.63.93.93,0,0,1-.61.29l-.35,0Zm.44,1.23h.14a.5.5,0,0,0,.46-.65.47.47,0,0,0-.58-.45l-.18,0Z"/><path class="cls-62" d="M56.75,24.29l-.54,0,0,.44.6,0V25l-.87,0L56,23.42l.83,0v.23l-.57,0V24l.54,0Z"/><path class="cls-63" d="M57.46,25.05l.4-1.46.29.08.19.72a4.32,4.32,0,0,1,.1.55h0c0-.2.08-.39.14-.61l.14-.51.23.06-.4,1.46-.26-.07-.19-.74A5.14,5.14,0,0,1,58,24h0c0,.19-.09.38-.16.62l-.14.52Z"/><path class="cls-64" d="M59.67,24.2l-.6,1.39-.24-.1.6-1.39Z"/><path class="cls-65" d="M60.26,26.19a.86.86,0,0,1-.35-.13.7.7,0,0,1-.24-1,.74.74,0,0,1,1.07-.3A.79.79,0,0,1,61,25l-.16.16a.67.67,0,0,0-.21-.19.49.49,0,0,0-.72.22.48.48,0,0,0,.15.72.71.71,0,0,0,.27.1Z"/><path class="cls-66" d="M60.93,26.24l-.37.24-.2-.18,1.34-.84.25.22-.64,1.45-.21-.18.18-.41Zm.45.11.16-.36.13-.26h0l-.24.17-.33.21Z"/><path class="cls-67" d="M62.59,26.35a2.28,2.28,0,0,1,.27.29.64.64,0,0,1,.19.42.39.39,0,0,1-.16.29.4.4,0,0,1-.46,0h0a.38.38,0,0,1-.1.34,3.14,3.14,0,0,0-.26.35l-.17-.21a2.22,2.22,0,0,1,.22-.3c.13-.16.13-.25,0-.37l-.08-.1-.48.39-.16-.2Zm-.36.62.1.12a.25.25,0,0,0,.37.07.24.24,0,0,0,0-.37.68.68,0,0,0-.11-.12Z"/><path class="cls-68" d="M62.71,28.3l-.44.1-.13-.24,1.55-.33.16.29-1.1,1.14L62.61,29l.31-.32Zm.38.26.27-.28.21-.2h0l-.28.08-.38.08Z"/><path class="cls-69" d="M63.23,30.48a1.37,1.37,0,0,1-.23-.41.75.75,0,0,1,0-.6.77.77,0,0,1,.47-.36.75.75,0,0,1,1,.51.91.91,0,0,1,.05.38H64.3a.75.75,0,0,0,0-.33.49.49,0,0,0-.68-.33.49.49,0,0,0-.36.64.47.47,0,0,0,.09.18l.36-.12-.08-.24.21-.07.16.48Z"/><path class="cls-70" d="M64.75,30.85l-.87.11c-.29,0-.42.17-.39.34s.17.28.47.25l.88-.11,0,.26-.86.1c-.46.06-.69-.15-.74-.49s.13-.57.6-.62l.86-.1Z"/><path class="cls-71" d="M63.77,32.43l-.42-.15,0-.27,1.48.55,0,.33-1.54.38,0-.28.44-.1Zm.18.42.38-.09.29-.06h0l-.28-.08L64,32.48Z"/><path class="cls-72" d="M48.5,35.65l-.44.08-.12-.24,1.56-.25.15.3-1.15,1.08-.12-.25.33-.3Zm.37.28.28-.27.22-.19h0l-.28.06-.38.06Z"/><path class="cls-73" d="M50,37.63c.15-.13.33-.28.49-.41h0l-.56.23-.64.24-.13-.16.39-.55c.12-.16.25-.33.37-.48h0l-.52.38-.5.35L48.74,37,50,36.17l.21.27-.36.52c-.11.15-.22.3-.33.43h0l.5-.22.6-.22.21.27-1.13,1-.16-.2Z"/><path class="cls-74" d="M51.14,38.62l-.41-.35-.29.34.46.39-.15.17-.66-.56,1-1.15.64.54-.15.17-.44-.37-.25.3.41.35Z"/><path class="cls-75" d="M51.91,38.17a2.46,2.46,0,0,1,.35.18.64.64,0,0,1,.31.33.39.39,0,0,1-.05.32.4.4,0,0,1-.42.19h0a.38.38,0,0,1,0,.35A3.08,3.08,0,0,0,52,40l-.23-.14a2.19,2.19,0,0,1,.1-.35c.07-.19,0-.28-.08-.36L51.68,39l-.32.53-.22-.14Zm-.13.71.13.08a.25.25,0,0,0,.38-.06c.09-.14,0-.26-.11-.35L52,38.47Z"/><path class="cls-76" d="M53.21,38.85l-.62,1.38-.24-.11L53,38.75Z"/><path class="cls-77" d="M54,40.69a.85.85,0,0,1-.38,0,.7.7,0,0,1-.48-.94.74.74,0,0,1,1-.54.79.79,0,0,1,.31.17l-.12.19a.68.68,0,0,0-.25-.14.49.49,0,0,0-.64.38.48.48,0,0,0,.32.67.71.71,0,0,0,.29,0Z"/><path class="cls-78" d="M54.85,40.44l-.17.41-.27,0L55,39.37l.33,0L55.66,41l-.28,0-.08-.44Zm.43-.16-.07-.38c0-.09,0-.2,0-.29h0c0,.08-.07.19-.1.27l-.15.36Z"/><path class="cls-79" d="M57.66,40.78a.87.87,0,0,1-.36.11.7.7,0,0,1-.82-.67.74.74,0,0,1,.67-.88.79.79,0,0,1,.36,0l0,.23a.68.68,0,0,0-.29,0,.49.49,0,0,0-.43.61.49.49,0,0,0,.56.48.7.7,0,0,0,.28-.09Z"/><path class="cls-80" d="M58.71,39.85l-.52.15.12.43.58-.17.06.22-.83.24-.42-1.45.8-.23.06.22-.55.16.11.37.52-.15Z"/><path class="cls-81" d="M59.42,40.31,58.75,39l.27-.13.62.42a4.12,4.12,0,0,1,.44.35h0c-.1-.17-.2-.35-.3-.55l-.23-.47.22-.11.67,1.36-.24.12-.63-.43a5,5,0,0,1-.46-.35h0c.1.17.19.35.3.57l.24.48Z"/><path class="cls-82" d="M60.37,38.31l-.33.24-.14-.19.87-.64.14.19-.33.24.76,1-.21.16Z"/><path class="cls-83" d="M60.91,37.62a2.41,2.41,0,0,1,.26-.3.64.64,0,0,1,.4-.23.39.39,0,0,1,.3.12.4.4,0,0,1,.09.45h0a.38.38,0,0,1,.35.06,3.18,3.18,0,0,0,.38.22l-.19.19a2.25,2.25,0,0,1-.32-.18c-.17-.11-.26-.11-.37,0l-.09.09.44.44-.18.19Zm.66.28.11-.11a.25.25,0,0,0,0-.38c-.12-.12-.25-.09-.37,0a.74.74,0,0,0-.1.12Z"/><path class="cls-84" d="M62.8,37.1l.28.34-.15.22-1-1.23.19-.28,1.51.47-.16.23-.43-.13Zm.06-.46-.37-.12-.27-.1h0l.19.22.24.3Z"/><path class="cls-85" d="M62.47,35.59l.11-.24,1.16.54.25-.54.21.1-.36.77Z"/><path class="cls-86" d="M59,34H55.07a5.52,5.52,0,0,1,.54-.52,8.66,8.66,0,0,0,.93-1,4,4,0,0,0,.38-.55c0-.1.09-.13.14-.12s.13,0,.14.11a2,2,0,0,0,.32.59,2.84,2.84,0,0,1,.28.42,2.16,2.16,0,0,0,.58.62A2.49,2.49,0,0,1,59,34Z"/><path class="cls-87" d="M57,31.86a.09.09,0,0,1,.08,0,.19.19,0,0,1,.1,0s0,.05,0,0S57,31.89,57,31.86Z"/><path class="cls-88" d="M57.1,31.85s.06,0,.09.11a1.59,1.59,0,0,0,.17.36,1.35,1.35,0,0,0,.18.26,1.5,1.5,0,0,1,.24.37c.07.17.06.16,0,0,0,0-.1-.16-.15-.23a2.63,2.63,0,0,0-.18-.24,1,1,0,0,1-.18-.28A1.69,1.69,0,0,0,57.1,31.85Z"/><path class="cls-87" d="M57,31.91a4.16,4.16,0,0,1-.65.92S56.67,32.68,57,31.91Z"/><path class="cls-87" d="M57,31.92a3.46,3.46,0,0,0-.07,1.14A7.5,7.5,0,0,1,57,31.92Z"/><path class="cls-87" d="M57.07,31.93a2.92,2.92,0,0,0,.32,1.25A5.26,5.26,0,0,1,57.07,31.93Z"/><path class="cls-87" d="M57.12,31.95a2.27,2.27,0,0,0,.66,1.14A4.69,4.69,0,0,1,57.12,31.95Z"/><path class="cls-87" d="M57,32a2.3,2.3,0,0,1-.21.59S56.9,32.21,57,32Z"/><path class="cls-87" d="M57,31.95a3.15,3.15,0,0,0,0,.72S57,32.26,57,31.95Z"/><path class="cls-87" d="M57.09,32a2.77,2.77,0,0,0,.24.63A1.49,1.49,0,0,1,57.09,32Z"/><path class="cls-89" d="M61.15,34.37s-1.33.12-2.45.12A6.66,6.66,0,0,1,56.38,34a5.53,5.53,0,0,1,.54-.52,8.74,8.74,0,0,0,.93-1,4.1,4.1,0,0,0,.38-.55c0-.1.09-.13.14-.12s.2.08.2.15.19.3.24.35l.42.52a1.92,1.92,0,0,0,.57.57C60.51,33.78,60.94,33.8,61.15,34.37Z"/><path class="cls-87" d="M58.35,31.92a4.15,4.15,0,0,1-.6.95S58.09,32.7,58.35,31.92Z"/><path class="cls-87" d="M58.36,31.92a3.46,3.46,0,0,0,0,1.14A7.54,7.54,0,0,1,58.36,31.92Z"/><path class="cls-87" d="M58.43,31.92a2.93,2.93,0,0,0,.38,1.23A5.27,5.27,0,0,1,58.43,31.92Z"/><path class="cls-87" d="M58.5,31.91a2.27,2.27,0,0,0,.71,1.1A4.66,4.66,0,0,1,58.5,31.91Z"/><path class="cls-87" d="M58.33,32a2.31,2.31,0,0,1-.18.6S58.27,32.21,58.33,32Z"/><path class="cls-87" d="M58.39,31.95a3.17,3.17,0,0,0,.06.72S58.41,32.26,58.39,31.95Z"/><path class="cls-87" d="M58.44,31.95a2.79,2.79,0,0,0,.27.62A1.49,1.49,0,0,1,58.44,31.95Z"/><path class="cls-90" d="M60.13,34.44s-1.93.11-2.86.11A6.5,6.5,0,0,1,55.07,34a5.52,5.52,0,0,1,.54-.52,8.66,8.66,0,0,0,.93-1,4,4,0,0,0,.38-.55c0-.1.09-.13.14-.12s.17.07.18.14a1.75,1.75,0,0,0,.28.56,2.35,2.35,0,0,1,.33.4,2.45,2.45,0,0,0,.68.56A17.2,17.2,0,0,1,60.13,34.44Z"/><path class="cls-87" d="M57,31.91a4.16,4.16,0,0,1-.65.92S56.72,32.68,57,31.91Z"/><path class="cls-87" d="M57.11,31.93a2.93,2.93,0,0,0,.32,1.25A5.28,5.28,0,0,1,57.11,31.93Z"/><path class="cls-87" d="M57.16,31.95a2.27,2.27,0,0,0,.66,1.14A4.69,4.69,0,0,1,57.16,31.95Z"/><path class="cls-87" d="M57,32a2.3,2.3,0,0,1-.21.59S56.95,32.21,57,32Z"/><path class="cls-87" d="M57.07,31.95a3.15,3.15,0,0,0,0,.72S57.08,32.26,57.07,31.95Z"/><path class="cls-87" d="M57.13,32a2.79,2.79,0,0,0,.24.63A1.49,1.49,0,0,1,57.13,32Z"/><path class="cls-86" d="M56.93,34H53a5.52,5.52,0,0,1,.54-.52,8.7,8.7,0,0,0,.93-1,4.07,4.07,0,0,0,.38-.55c0-.1.09-.13.14-.12s.13,0,.14.11a1.94,1.94,0,0,0,.32.59,2.9,2.9,0,0,1,.28.42,2.16,2.16,0,0,0,.58.62A2.51,2.51,0,0,1,56.93,34Z"/><path class="cls-87" d="M54.91,31.86a.09.09,0,0,1,.08,0,.19.19,0,0,1,.1,0s0,.05,0,0S55,31.89,54.91,31.86Z"/><path class="cls-88" d="M55,31.85s.06,0,.09.11a1.61,1.61,0,0,0,.17.36,1.35,1.35,0,0,0,.19.26,1.52,1.52,0,0,1,.24.37c.07.17.06.16,0,0,0,0-.1-.16-.15-.23a2.58,2.58,0,0,0-.19-.24,1,1,0,0,1-.17-.28A1.69,1.69,0,0,0,55,31.85Z"/><path class="cls-87" d="M54.92,31.91a4.16,4.16,0,0,1-.65.92S54.62,32.68,54.92,31.91Z"/><path class="cls-87" d="M54.94,31.92a3.47,3.47,0,0,0-.07,1.14A7.56,7.56,0,0,1,54.94,31.92Z"/><path class="cls-87" d="M55,31.93a2.93,2.93,0,0,0,.32,1.25A5.28,5.28,0,0,1,55,31.93Z"/><path class="cls-87" d="M55.06,31.95a2.27,2.27,0,0,0,.66,1.14A4.68,4.68,0,0,1,55.06,31.95Z"/><path class="cls-87" d="M54.92,32a2.3,2.3,0,0,1-.21.59S54.85,32.21,54.92,32Z"/><path class="cls-87" d="M55,31.95a3.15,3.15,0,0,0,0,.72S55,32.26,55,31.95Z"/><path class="cls-87" d="M55,32a2.8,2.8,0,0,0,.24.63A1.49,1.49,0,0,1,55,32Z"/><path class="cls-86" d="M57.91,34H54a5.55,5.55,0,0,1,.54-.52,8.73,8.73,0,0,0,.93-1,4,4,0,0,0,.38-.55c0-.1.09-.13.14-.12s.13,0,.14.11a2,2,0,0,0,.32.59,2.89,2.89,0,0,1,.29.42,2.14,2.14,0,0,0,.58.62A2.5,2.5,0,0,1,57.91,34Z"/><path class="cls-87" d="M55.89,31.86a.09.09,0,0,1,.08,0,.19.19,0,0,1,.1,0s0,.05,0,0S55.94,31.89,55.89,31.86Z"/><path class="cls-88" d="M56,31.85s.06,0,.09.11a1.6,1.6,0,0,0,.17.36,1.34,1.34,0,0,0,.19.26,1.51,1.51,0,0,1,.24.37c.07.17.06.16,0,0,0,0-.1-.16-.15-.23a2.78,2.78,0,0,0-.19-.24,1,1,0,0,1-.18-.28A1.64,1.64,0,0,0,56,31.85Z"/><path class="cls-87" d="M55.9,31.91a4.14,4.14,0,0,1-.65.92S55.6,32.68,55.9,31.91Z"/><path class="cls-87" d="M55.92,31.92a3.46,3.46,0,0,0-.07,1.14A7.54,7.54,0,0,1,55.92,31.92Z"/><path class="cls-87" d="M56,31.93a2.93,2.93,0,0,0,.32,1.25A5.26,5.26,0,0,1,56,31.93Z"/><path class="cls-87" d="M56,31.95a2.27,2.27,0,0,0,.66,1.14A4.65,4.65,0,0,1,56,31.95Z"/><path class="cls-87" d="M55.9,32a2.31,2.31,0,0,1-.21.59S55.82,32.21,55.9,32Z"/><path class="cls-87" d="M56,31.95a3.16,3.16,0,0,0,0,.72S56,32.26,56,31.95Z"/><path class="cls-87" d="M56,32a2.77,2.77,0,0,0,.24.63A1.49,1.49,0,0,1,56,32Z"/><path class="cls-91" d="M58.88,34.66a13.81,13.81,0,0,0-2.64-.27A5.14,5.14,0,0,1,54,34a5.55,5.55,0,0,1,.54-.52,8.73,8.73,0,0,0,.93-1,4,4,0,0,0,.38-.55c0-.1.09-.13.14-.12s.19.07.19.14a1.76,1.76,0,0,0,.27.56,2.89,2.89,0,0,1,.29.42,2.14,2.14,0,0,0,.58.62A16.87,16.87,0,0,1,58.88,34.66Z"/><path class="cls-87" d="M55.9,31.91a4.14,4.14,0,0,1-.65.92S55.6,32.68,55.9,31.91Z"/><path class="cls-87" d="M55.92,31.92a3.46,3.46,0,0,0-.07,1.14A7.54,7.54,0,0,1,55.92,31.92Z"/><path class="cls-87" d="M56,31.93a2.93,2.93,0,0,0,.32,1.25A5.26,5.26,0,0,1,56,31.93Z"/><path class="cls-87" d="M56,31.95a2.27,2.27,0,0,0,.66,1.14A4.65,4.65,0,0,1,56,31.95Z"/><path class="cls-87" d="M55.9,32a2.31,2.31,0,0,1-.21.59S55.82,32.21,55.9,32Z"/><path class="cls-87" d="M56,31.95a3.16,3.16,0,0,0,0,.72S56,32.26,56,31.95Z"/><path class="cls-87" d="M56,32a2.77,2.77,0,0,0,.24.63A1.49,1.49,0,0,1,56,32Z"/><path class="cls-92" d="M57.42,34.51A21.28,21.28,0,0,0,55,34.33,5.81,5.81,0,0,1,53,34a5.52,5.52,0,0,1,.54-.52,8.7,8.7,0,0,0,.93-1,4.07,4.07,0,0,0,.38-.55c0-.1.09-.13.14-.12s.19.08.2.15a1.67,1.67,0,0,0,.26.55,2.9,2.9,0,0,1,.28.42,2.16,2.16,0,0,0,.58.62A8.82,8.82,0,0,1,57.42,34.51Z"/><path class="cls-87" d="M54.92,31.91a4.16,4.16,0,0,1-.65.92S54.62,32.68,54.92,31.91Z"/><path class="cls-87" d="M54.94,31.92a3.47,3.47,0,0,0-.07,1.14A7.56,7.56,0,0,1,54.94,31.92Z"/><path class="cls-87" d="M55,31.93a2.93,2.93,0,0,0,.32,1.25A5.28,5.28,0,0,1,55,31.93Z"/><path class="cls-87" d="M55.06,31.95a2.27,2.27,0,0,0,.66,1.14A4.68,4.68,0,0,1,55.06,31.95Z"/><path class="cls-87" d="M54.92,32a2.3,2.3,0,0,1-.21.59S54.85,32.21,54.92,32Z"/><path class="cls-87" d="M55,31.95a3.15,3.15,0,0,0,0,.72S55,32.26,55,31.95Z"/><path class="cls-87" d="M55,32a2.8,2.8,0,0,0,.24.63A1.49,1.49,0,0,1,55,32Z"/><path class="cls-93" d="M56.33,34.36s-1.29.12-2.75.12a11.52,11.52,0,0,1-2.5-.25s-.14-.31,1.12-.78a5.38,5.38,0,0,0,.94-1,5.26,5.26,0,0,0,.43-.61c0-.1.11-.08.16-.07s.19.05.2.12a1.83,1.83,0,0,0,.26.58,2.9,2.9,0,0,1,.28.42,2.15,2.15,0,0,0,.58.62A11.16,11.16,0,0,1,56.33,34.36Z"/><path class="cls-87" d="M53.65,31.91a4.17,4.17,0,0,1-.65.92S53.34,32.68,53.65,31.91Z"/><path class="cls-87" d="M53.67,31.92a3.47,3.47,0,0,0-.07,1.14A7.49,7.49,0,0,1,53.67,31.92Z"/><path class="cls-87" d="M53.74,31.93a2.93,2.93,0,0,0,.32,1.25A5.26,5.26,0,0,1,53.74,31.93Z"/><path class="cls-87" d="M53.79,31.95a2.27,2.27,0,0,0,.66,1.14A4.68,4.68,0,0,1,53.79,31.95Z"/><path class="cls-87" d="M53.64,32a2.31,2.31,0,0,1-.21.59S53.57,32.21,53.64,32Z"/><path class="cls-87" d="M53.7,31.95a3.15,3.15,0,0,0,0,.72S53.7,32.26,53.7,31.95Z"/><path class="cls-87" d="M53.75,32a2.79,2.79,0,0,0,.24.63A1.49,1.49,0,0,1,53.75,32Z"/><path class="cls-94" d="M51.2,34.13a5.19,5.19,0,0,1,1.69.15,4.78,4.78,0,0,0,2.28,0,4.09,4.09,0,0,1,1.71.1c.6.12,1.3-.19,1.89-.08,1.07.2,1.49-.27,2.28,0l.7,1.13H50.38Z"/><path class="cls-95" d="M51,34.52a6.61,6.61,0,0,1,1.92.15,4.78,4.78,0,0,0,2.28,0,4.07,4.07,0,0,1,1.71.1c.6.12,1.3-.19,1.89-.08,1.07.2,1.49-.27,2.52,0l.47.74-11.42,0Z"/><path class="cls-96" d="M50.76,34.85a8.38,8.38,0,0,1,2.12.17,4.77,4.77,0,0,0,2.28,0,4.08,4.08,0,0,1,1.71.1c.6.12,1.3-.19,1.89-.08,1.07.2,1.49-.27,2.74,0l.24.4H50.38Z"/><path class="cls-50" d="M51.12,34.52a3.59,3.59,0,0,1,1.72.18A9.34,9.34,0,0,0,51.12,34.52Z"/><path class="cls-50" d="M55.22,35.09a3.59,3.59,0,0,1,1.72.18A9.25,9.25,0,0,0,55.22,35.09Z"/><path class="cls-50" d="M59.83,34.77a2.42,2.42,0,0,1,1.41,0A6.24,6.24,0,0,0,59.83,34.77Z"/><path class="cls-50" d="M59.66,34.43a2.4,2.4,0,0,1,1.44,0A6.91,6.91,0,0,0,59.66,34.43Z"/><path class="cls-50" d="M57.29,34.52s.44-.1.74-.13a5.16,5.16,0,0,1,1.09.05A10.09,10.09,0,0,0,57.29,34.52Z"/><path class="cls-50" d="M53.22,35a3.59,3.59,0,0,0,1.54,0A2.5,2.5,0,0,1,53.22,35Z"/><path class="cls-50" d="M53.16,34.43a3.59,3.59,0,0,0,1.54,0A2.49,2.49,0,0,1,53.16,34.43Z"/><path class="cls-50" d="M50.66,35.36a3.5,3.5,0,0,1,2,0A2.51,2.51,0,0,0,50.66,35.36Z"/><path class="cls-50" d="M56.42,34.71a4,4,0,0,0,1.54,0A10.29,10.29,0,0,1,56.42,34.71Z"/><path class="cls-97" d="M56.06,25.45,50.18,35.64H61.95Zm0,.27,5.62,9.73H50.44Z"/><path class="cls-98" d="M56.37,31.07a.25.25,0,0,0,0-.1.14.14,0,0,1,0-.05.28.28,0,0,0,0-.12.3.3,0,0,1,0-.12.26.26,0,0,0-.13-.16c-.08,0-.1-.06-.14-.06a.34.34,0,0,0-.17.06.38.38,0,0,0-.1.12.15.15,0,0,0,0,.09s0,0,0,0,.06,0,.08,0a0,0,0,0,1,0,0,.5.5,0,0,1-.05.12.18.18,0,0,0,0,.16A1,1,0,0,1,56.37,31.07Z"/><path class="cls-99" d="M55.86,30.75s0,0-.08,0l0-.05c0-.1,0-.09.08-.07s.06.05.06.1-.05.15,0,.19a.61.61,0,0,1,0,.08l-.14,0a.18.18,0,0,1,0-.16.5.5,0,0,0,.05-.12A0,0,0,0,0,55.86,30.75Z"/><path class="cls-100" d="M55.78,31.14s0,.07.07.08.1,0,.14,0h.11c.05,0,.07,0,.12,0l.16-.05s0,0,0-.07,0,0,0,0A.49.49,0,0,0,56,31c-.24,0-.29.05-.31.07A.27.27,0,0,1,55.78,31.14Z"/><path class="cls-101" d="M56,31.13c.06,0,.13,0,.17,0a.69.69,0,0,1,.16,0l0,0-.15.05c-.05,0-.07,0-.12,0H56s-.09,0-.14,0-.07,0-.07,0A.84.84,0,0,1,56,31.13Z"/><path class="cls-102" d="M55.88,31.12s.14,0,.17.11,0,.22,0,.25.13,0,.13-.14a.26.26,0,0,1,.12-.19"/><path class="cls-99" d="M56.09,30.51s.14,0,.18.17,0,.11-.05.13S56.32,30.81,56.09,30.51Z"/><path class="cls-103" d="M56.41,31.07A.49.49,0,0,0,56,31c-.24,0-.29.05-.31.07"/><path class="cls-50" d="M59.79,33.39a.9.9,0,0,1,.67,0A3.05,3.05,0,0,0,59.79,33.39Z"/><path class="cls-50" d="M60.06,35a3.32,3.32,0,0,1-1.31,0A11.45,11.45,0,0,0,60.06,35Z"/><path class="cls-104" d="M53.62,31.87h.07s0,0,.09,0a.08.08,0,0,1,.07,0,.13.13,0,0,0-.12-.11C53.68,31.82,53.62,31.84,53.62,31.87Z"/><path class="cls-105" d="M54.92,31.87H55s0,0,.09,0a.08.08,0,0,1,.07,0,.13.13,0,0,0-.12-.11C55,31.82,54.92,31.84,54.92,31.87Z"/><path class="cls-106" d="M55.9,31.87H56s0,0,.09,0a.08.08,0,0,1,.07,0,.14.14,0,0,0-.12-.11C56,31.83,55.9,31.84,55.9,31.87Z"/><path class="cls-107" d="M57,31.87H57s0,0,.09,0a.08.08,0,0,1,.07,0,.14.14,0,0,0-.12-.11C57,31.83,57,31.84,57,31.87Z"/><path class="cls-108" d="M58.3,31.88h.07s0,0,.09,0a.08.08,0,0,1,.07,0,.13.13,0,0,0-.12-.11C58.36,31.83,58.3,31.85,58.3,31.88Z"/><path class="cls-109" d="M53.79,31.82s.11,0,.13.08a2.35,2.35,0,0,0,.13.35,1.42,1.42,0,0,0,.16.27,2,2,0,0,1,.26.35l.07.1a3.64,3.64,0,0,0,.45.54,2.78,2.78,0,0,1-.8-.88,1.4,1.4,0,0,1-.23-.36c-.05-.16,0-.35-.16-.42Z"/><path class="cls-110" d="M55,31.8s.14,0,.19.11.08.27.13.35a1.38,1.38,0,0,0,.16.26,2,2,0,0,1,.25.36l.07.1a3.57,3.57,0,0,0,.45.54,2.76,2.76,0,0,1-.79-.88,1.91,1.91,0,0,1-.23-.36c-.09-.23-.06-.33-.11-.37Z"/><path class="cls-111" d="M56,31.82s.12,0,.14.1a2.52,2.52,0,0,0,.14.35,1.37,1.37,0,0,0,.16.26,2,2,0,0,1,.25.36l.07.1a2.61,2.61,0,0,0,.45.52,2.35,2.35,0,0,1-.8-.86,1.39,1.39,0,0,1-.23-.36c-.05-.16-.07-.35-.12-.38Z"/><path class="cls-41" d="M57.09,31.81s-.09,0-.14,0a2,2,0,0,1-.1.18l-.22.32a1.46,1.46,0,0,1-.16.2l.05.06a2.62,2.62,0,0,0,.23-.32.92.92,0,0,1,.13-.23,1.18,1.18,0,0,0,.11-.18A.15.15,0,0,1,57.09,31.81Z"/><path class="cls-41" d="M57.67,32.67l.13-.14.13-.18.14-.19a1.1,1.1,0,0,0,.14-.23c0-.06.05-.13.1-.14a.18.18,0,0,1,.14,0s0,0-.06,0a.13.13,0,0,0-.1.06,1.64,1.64,0,0,1-.07.15c0,.07-.11.14-.15.2s-.12.15-.16.21-.2.27-.2.27Z"/><ellipse class="cls-112" cx="55.6" cy="113.81" rx="55.6" ry="4.21"/><rect class="cls-113" x="9.3" width="3.32" height="113.52" rx="1.66" ry="1.66"/></g></g></svg>
