<!-- Generator: Adobe Illustrator 23.0.1, SVG Export Plug-In  -->
<svg version="1.1" xmlns="http://www.w3.org/2000/svg" xmlns:xlink="http://www.w3.org/1999/xlink" x="0px" y="0px" width="199.2px"
	 height="88px" viewBox="0 0 199.2 88" style="enable-background:new 0 0 199.2 88;" xml:space="preserve">
<style type="text/css">
	.st0{fill:#D4A453;}
</style>
<defs>
</defs>
<path class="st0" d="M191.7,6.8h0.9c0.6,0,1.1,0.1,1.3,0.2c0.4,0.3,0.6,0.8,0.6,1.5v0.5l0,0.2c0,0,0,0.1,0,0.1c0,0,0,0,0,0.1h1.1
	l0-0.1c0-0.1,0-0.2-0.1-0.3c0-0.2,0-0.3,0-0.5V8c0-0.3-0.1-0.7-0.4-1c-0.2-0.4-0.6-0.6-1.2-0.7c0.4-0.1,0.7-0.2,1-0.3
	c0.4-0.3,0.7-0.7,0.7-1.3c0-0.8-0.3-1.4-1-1.7c-0.4-0.2-1-0.2-1.8-0.2h-2.3l0,0v6.7h1.2V6.8z M191.7,3.5h1c0.7,0,1.1,0.1,1.4,0.2
	c0.3,0.2,0.4,0.5,0.4,1c0,0.5-0.2,0.9-0.7,1.1c-0.3,0.1-0.6,0.2-1.1,0.2h-1.1V3.5z M85.9,78.4L85.9,78.4c9.4-2.4,13-6,13.9-9.8
	c2.1,6.3,10.2,8.2,23.5,2.9c17.4-6.9,49.4-22.5,61.8-6.6l0,0c15.6-3.9,15.1-11.3,13.2-17c-4.2-12.2-12.4-32.9-12.5-33.1
	c-2.5-6.2-7.3-9.9-14-9.1c-5.3,0.6-10.6,1.4-10.6,1.4C156.1,8,152.7,11,149.4,18l-16.5,34c0,0,0,0,0,0c6.4-3.9,12-8.2,20-12.3
	c1.9-1,3.6-2.2,4.3-4.1c0,0,6.8-16.4,7.5-18.2c0.7-1.7,1.7-3.4,3-3.6c0.9-0.1,2,1,2.7,3.1c0.6,1.9,7.1,24.5,7.5,26.3c0,0,0,0,0,0
	c-20.5-6.3-35.2,11.9-51.3,19.3c-6.1,2.8-8.4-0.6-7.7-5.3c0.7-4.7,7.2-37.5,7.2-37.5c0.4-2,0-3.7-1.1-5c-1.5-1.7-4.1-2.5-7.1-2
	l-9.8,1.6l0,0l-8.7,47.9c0,0,0,0.1,0,0.1c-0.1-0.4-0.2-0.8-0.4-1.2c-4.2-12.2-12.4-32.9-12.5-33.1c-2.5-6.2-7.3-9.9-14-9.1
	C67.3,19.8,62,20.6,62,20.6c-5.1,0.8-8.5,3.8-11.8,10.8l-16.5,34c0,0,0,0,0,0c6.4-3.9,12-8.2,20-12.3c1.9-1,3.6-2.2,4.3-4.1
	c0,0,6.8-16.4,7.5-18.2c0.7-1.7,1.7-3.4,3-3.6c0.9-0.1,2,1,2.7,3.1c0.6,1.9,7.1,24.5,7.5,26.3l0,0c-20.5-6.3-35.2,11.9-51.3,19.3
	c-6.1,2.8-8.4-0.6-7.7-5.3c0.7-4.7,7.2-37.5,7.2-37.5c0.4-2,0-3.7-1.1-5c-1.5-1.7-4.1-2.5-7.1-2L9,28l0,0L0.2,75.8
	C-1.6,86.7,7,91.8,24.1,84.9C41.4,78,73.5,62.5,85.9,78.4z M182,52.5L182,52.5c-2.3-3.8-14.9-6-25.6-3.6c0,0,0,0,0,0
	C162.7,45.2,182.7,43.1,182,52.5z M57.3,62.3C57.3,62.3,57.3,62.3,57.3,62.3c6.3-3.7,26.3-5.7,25.6,3.6c0,0,0,0,0,0
	C80.6,62.1,67.9,60,57.3,62.3z M189.5,11.2c0.7,0.6,1.6,0.9,2.5,1c2.5,0.3,4.5-0.5,6-2.5c0.6-0.7,0.9-1.6,1-2.5
	c0.3-2.5-0.5-4.5-2.5-6c-0.7-0.5-1.6-0.9-2.5-1c-2.5-0.3-4.6,0.5-6.1,2.5c-0.5,0.7-0.9,1.6-1,2.5C186.6,7.6,187.5,9.6,189.5,11.2z
	 M189.7,2c0.9-0.8,2-1.2,3.3-1.2c1.3,0,2.4,0.4,3.3,1.2c1.4,1.2,2.2,3.1,1.9,4.9c-0.2,1.1-0.6,2.1-1.5,3c-0.9,0.9-1.9,1.4-3.2,1.5
	c-1.8,0.2-3.7-0.6-4.8-2.1c-0.5-0.7-0.9-1.5-1-2.4C187.5,5.1,188.3,3.2,189.7,2z"/>
</svg>
