<svg xmlns="http://www.w3.org/2000/svg" viewBox="0 0 87.38 102.99"><defs><style>.cls-1{fill:#2f5a46;}.cls-2{fill:#59b169;}</style></defs><title>50porcentaje</title><g id="Layer_2" data-name="Layer 2"><g id="_ÎÓÈ_1" data-name="—ÎÓÈ_1"><path class="cls-1" d="M18.45,38.83h6.92a.68.68,0,0,1,.7.7v1a.68.68,0,0,1-.7.7h-5v6.66a3.1,3.1,0,0,1,1.93-.7c2.85,0,4,2.41,4,7.81S25,62.78,21.78,62.78c-3.48,0-4.44-2.11-4.44-5.92a.88.88,0,0,1,.93-1h.89c.55,0,.78.45.74,1.22-.07,1.15-.3,3.41,1.78,3.41,1.22,0,2.07-.85,2.07-5.52s-.67-5.59-2-5.59-1.78,1-1.78,2.22c0,.7-.15,1.11-.67,1.11h-.63a.81.81,0,0,1-.89-.89V39.53A.68.68,0,0,1,18.45,38.83Z"/><path class="cls-1" d="M28.19,50.67c0-10,1.67-12.07,4.74-12.07s4.74,2.07,4.74,12.07S36,62.78,32.93,62.78,28.19,60.67,28.19,50.67Zm6.81,0c0-8.85-.74-9.66-2.07-9.66s-2.07.82-2.07,9.66.74,9.7,2.07,9.7S35,59.52,35,50.67Z"/><path class="cls-1" d="M39.37,44.27c0-3.85,1.22-5.81,3.67-5.81s3.66,2,3.66,5.81S45.55,50.08,43,50.08,39.37,48.08,39.37,44.27Zm1.56,17.59,10.4-22.33a1.07,1.07,0,0,1,.93-.7H53c.41,0,.67.3.48.7L43.07,61.85a1.06,1.06,0,0,1-.92.7h-.74C41,62.56,40.74,62.26,40.93,61.85Zm3.59-17.59c0-2.52-.26-3.81-1.48-3.81s-1.48,1.3-1.48,3.81.3,3.81,1.48,3.81S44.52,46.75,44.52,44.27ZM47.7,57.11c0-3.85,1.22-5.81,3.67-5.81s3.66,2,3.66,5.81-1.15,5.81-3.66,5.81S47.7,60.93,47.7,57.11Zm5.15,0c0-2.52-.26-3.81-1.48-3.81s-1.48,1.3-1.48,3.81.3,3.81,1.48,3.81S52.85,59.6,52.85,57.11Z"/><path class="cls-2" d="M35.89,103V85.82a34.33,34.33,0,0,0,0-68.66V0a51.49,51.49,0,0,1,0,103Z"/><path class="cls-1" d="M35.89,87.38A35.89,35.89,0,1,1,71.78,51.49,35.93,35.93,0,0,1,35.89,87.38Zm0-68.66A32.77,32.77,0,1,0,68.66,51.49,32.81,32.81,0,0,0,35.89,18.72Z"/></g></g></svg>
