<svg xmlns="http://www.w3.org/2000/svg" viewBox="0 0 465.82 327.37"><defs><style>.cls-1{fill:#438359;}.cls-2{fill:#408258;}.cls-3{fill:#8ac38a;}.cls-4{fill:#59b169;}.cls-5{fill:#2f5a46;}.cls-6,.cls-7{fill:#8bc38c;}.cls-6{opacity:0.4;}</style></defs><title>certificacion</title><g id="Layer_2" data-name="Layer 2"><g id="_ÎÓÈ_1" data-name="—ÎÓÈ_1"><path class="cls-1" d="M69,193.26c.48-.13,1-.24,1.46-.33,5-.87,19.76-7,23.28-13l-1.21-.17a19.85,19.85,0,0,1-3.47,3.13c.61-1.73,1.27-4.19.57-5.37a12.78,12.78,0,0,1-1.85,6.27,44.44,44.44,0,0,1-17.59,6.54c5.79-13.45,14.18-25.87,16.55-35.95l-6.17-.65s-.92,2.49-2.35,6h0c-1.06,2.63-2.41,5.83-3.86,9l-.19.42-.24.51-.46,1-.08.16-.47,1-.09.18c-.38.77-.75,1.52-1.13,2.26h0c-.78,1.51-1.57,2.93-2.34,4.17h0c-.38.61-.75,1.18-1.12,1.69l0,.06q-.52.74-1,1.32l-.1.11c-.16.18-.32.36-.48.52l0-.12v0l0-.13v-.07l0-.18,0-.11.12-.92,0-.13,0-.34,0-.21,0-.37,0-.19c.06-.49.12-1,.19-1.62l0-.15.06-.53,0-.26.06-.53,0-.31.06-.56,0-.25q.05-.53.1-1.09l0-.38,0-.51,0-.47,0-.51,0-.52,0-.48,0-.67,0-.36q0-.51.06-1l0-.28q0-.41,0-.82l0-.32q0-.41,0-.81v-.28q0-.49,0-1v-.1c0-.77,0-1.54,0-2.3,0,0,0,0,0-.07q0-.54,0-1.07V162c0-.76,0-1.51-.07-2.24h0a30.46,30.46,0,0,0-.78-5.83c-2.28-8.77-7.9,5.42-7.9,5.42s4.39,1.22-3.4,35.81c-1.43,6.35-2.51,12.38-3.32,18a73.31,73.31,0,0,1-15.72-8c-6.09-12-1.92-25.27-1.92-25.27-4.48,4.13-3,18.68-2.6,21.85-8.13-6.81-10.53-12.88-10.53-12.88l-1.55-.26c1.71,6.91,12.39,16.77,19.48,21.81.92,1.62.74,1.2.19.14a33.65,33.65,0,0,0,4,2.51,29.25,29.25,0,0,1,7.85,6.08c-2.53,21.63-1,35.74-1,35.74H74s-10.81-21.67-9.5-43.12A60.5,60.5,0,0,1,69,193.26Z"/><path class="cls-2" d="M131.65,122a10.32,10.32,0,0,0,.58-3.41,10.81,10.81,0,0,0-13.76-10.42,21,21,0,0,0-13.12-10.09,12.57,12.57,0,0,0,.4-3.17A13.1,13.1,0,0,0,92.64,81.77a6.79,6.79,0,0,0-1.07.07,20.9,20.9,0,0,0-40,7.52c-.18,0-.35,0-.56,0a10.83,10.83,0,0,0-10.81,10.3,15.17,15.17,0,0,0-5.31-1,15.41,15.41,0,0,0-15,12,20.92,20.92,0,0,0,1.88,41.75,20.64,20.64,0,0,0,8.39-1.77,17.35,17.35,0,0,0,25.39,9.68,40.24,40.24,0,0,0,47.59-8.88A20.91,20.91,0,0,0,131.65,122Z"/><path class="cls-3" d="M126.19,121.56a9.8,9.8,0,0,0,.5-3.13,9.86,9.86,0,0,0-12.56-9.53,19.12,19.12,0,0,0-12-9.21,11,11,0,0,0,.39-2.92,12,12,0,0,0-12-12,9.55,9.55,0,0,0-1,.06A19.11,19.11,0,0,0,53,91.73l-.51,0a9.88,9.88,0,0,0-9.87,9.41,14,14,0,0,0-18.57,10,19.12,19.12,0,1,0,9.37,36.56,15.91,15.91,0,0,0,23.23,8.84,36.85,36.85,0,0,0,43.5-8.12,19.11,19.11,0,0,0,26-26.87Z"/><path class="cls-4" d="M118.31,118.17a8,8,0,0,0,.44-2.62,8.36,8.36,0,0,0-8.34-8.35,7.84,7.84,0,0,0-2.23.32,16.14,16.14,0,0,0-10.11-7.76,10.34,10.34,0,0,0,.31-2.44,10.1,10.1,0,0,0-10.11-10.1c-.25,0-.54,0-.8,0a16.1,16.1,0,0,0-30.78,5.82,2.87,2.87,0,0,0-.41,0A8.34,8.34,0,0,0,47.93,101a11.81,11.81,0,0,0-15.63,8.43,16.11,16.11,0,0,0,1.43,32.16,16.34,16.34,0,0,0,6.47-1.35,13.41,13.41,0,0,0,12.74,9.32,13.13,13.13,0,0,0,6.79-1.88,31.07,31.07,0,0,0,36.68-6.83A16,16,0,0,0,105,143.3a16.09,16.09,0,0,0,13.34-25.12Z"/><path class="cls-2" d="M52.07,180.91a4.47,4.47,0,0,0,.22-1.37A4.32,4.32,0,0,0,48,175.21a4.82,4.82,0,0,0-1.14.16,8.38,8.38,0,0,0-5.24-4,6,6,0,0,0,.16-1.28,5.22,5.22,0,0,0-5.22-5.22,3.32,3.32,0,0,0-.43,0,8.32,8.32,0,0,0-15.92,3l-.23,0a4.29,4.29,0,0,0-4.28,4.1,6.27,6.27,0,0,0-2.14-.38,6.11,6.11,0,0,0-6,4.76A8.33,8.33,0,0,0,8.32,193a8.13,8.13,0,0,0,3.33-.71,7,7,0,0,0,6.61,4.82,6.86,6.86,0,0,0,3.5-1,16.07,16.07,0,0,0,19-3.52,8.4,8.4,0,0,0,4.43,1.26,8.33,8.33,0,0,0,6.9-13Z"/><path class="cls-2" d="M51.23,180.83a3.94,3.94,0,0,0,.2-1.3,4.11,4.11,0,0,0-5.27-4,8.06,8.06,0,0,0-5.06-3.87,5.14,5.14,0,0,0,.16-1.23,5.05,5.05,0,0,0-5-5l-.41,0a8.06,8.06,0,0,0-15.41,2.9l-.2,0a4.15,4.15,0,0,0-4.15,4,5.7,5.7,0,0,0-2.05-.37,5.92,5.92,0,0,0-5.75,4.58A8,8,0,0,0,9,192.5a8.26,8.26,0,0,0,3.23-.65A6.71,6.71,0,0,0,22,195.56a15.28,15.28,0,0,0,6.87,1.63,15.5,15.5,0,0,0,11.43-5,8.2,8.2,0,0,0,4.28,1.23,8.06,8.06,0,0,0,6.69-12.56Z"/><path class="cls-3" d="M49.39,179.75a3.54,3.54,0,0,0,.21-1.2,3.8,3.8,0,0,0-3.8-3.79,3.62,3.62,0,0,0-1,.14,7.24,7.24,0,0,0-4.59-3.51,4.77,4.77,0,0,0,.15-1.13,4.6,4.6,0,0,0-4.6-4.6c-.13,0-.23,0-.36,0a7.32,7.32,0,0,0-14,2.65l-.13,0a3.8,3.8,0,0,0-3.85,3.62,5,5,0,0,0-1.87-.34,5.37,5.37,0,0,0-5.24,4.17,7.32,7.32,0,0,0,.66,14.61,7.48,7.48,0,0,0,2.93-.61A6.13,6.13,0,0,0,19.69,194a5.77,5.77,0,0,0,3.08-.87A13.8,13.8,0,0,0,29,194.62a14.14,14.14,0,0,0,10.43-4.57,7.31,7.31,0,0,0,9.94-10.3Z"/><path class="cls-2" d="M113,177.18a2.65,2.65,0,0,0,.12-.83,2.62,2.62,0,0,0-2.61-2.62,3.41,3.41,0,0,0-.7.09,5.08,5.08,0,0,0-3.19-2.43,3.12,3.12,0,0,0,.11-.78,3.19,3.19,0,0,0-3.2-3.16h-.23a5.06,5.06,0,0,0-9.68,1.82h-.1a2.65,2.65,0,0,0-2.68,2.49,3.86,3.86,0,0,0-1.28-.22A3.72,3.72,0,0,0,86,174.42a5.06,5.06,0,0,0,.45,10.11,4.94,4.94,0,0,0,2-.41,4.24,4.24,0,0,0,4,2.92,4.34,4.34,0,0,0,2.14-.57,9.65,9.65,0,0,0,4.33,1,9.76,9.76,0,0,0,7.2-3.16,5.07,5.07,0,0,0,7.78-4.31A5,5,0,0,0,113,177.18Z"/><path class="cls-2" d="M112.51,177.15a2.21,2.21,0,0,0,.13-.8,2.54,2.54,0,0,0-2.53-2.55,2.16,2.16,0,0,0-.69.12,4.82,4.82,0,0,0-3.06-2.38,4.32,4.32,0,0,0,.08-.73,3.07,3.07,0,0,0-3.06-3.09l-.24,0a4.91,4.91,0,0,0-9.37,1.77h-.12a2.53,2.53,0,0,0-2.54,2.41,3.17,3.17,0,0,0-1.24-.24,3.62,3.62,0,0,0-3.53,2.79,4.9,4.9,0,1,0,2.41,9.37,4.08,4.08,0,0,0,3.89,2.82,3.84,3.84,0,0,0,2-.55A9.46,9.46,0,0,0,105.86,184a4.65,4.65,0,0,0,2.6.77,4.91,4.91,0,0,0,4.9-4.9A4.85,4.85,0,0,0,112.51,177.15Z"/><path class="cls-3" d="M111.43,176.51a4.06,4.06,0,0,0,.11-.75,2.32,2.32,0,0,0-2.32-2.32,2.19,2.19,0,0,0-.61.09,4.47,4.47,0,0,0-2.81-2.15,2.66,2.66,0,0,0,.09-.69,2.79,2.79,0,0,0-2.78-2.79.86.86,0,0,0-.24,0,4.45,4.45,0,0,0-8.53,1.59h-.12a2.33,2.33,0,0,0-2.31,2.2,2.94,2.94,0,0,0-1.12-.22,3.28,3.28,0,0,0-3.19,2.55A4.46,4.46,0,0,0,88,183a4.52,4.52,0,0,0,1.78-.38,3.71,3.71,0,0,0,5.42,2.06,8.7,8.7,0,0,0,3.81.88,8.59,8.59,0,0,0,6.34-2.77,4.35,4.35,0,0,0,2.35.69,4.47,4.47,0,0,0,4.48-4.46A4.53,4.53,0,0,0,111.43,176.51Z"/><path class="cls-5" d="M375.27,106.27l.57-.13c2-.34,7.72-2.75,9.1-5.06l-.47-.07a7.76,7.76,0,0,1-1.36,1.22c.24-.68.5-1.64.22-2.1a5,5,0,0,1-.72,2.45,17.37,17.37,0,0,1-6.88,2.56C378,99.89,381.28,95,382.2,91.1l-2.41-.25s-.36,1-.92,2.35h0c-.42,1-.94,2.28-1.51,3.52l-.08.16-.09.2-.18.38,0,.06-.18.38,0,.07-.44.88h0c-.31.59-.61,1.15-.91,1.63h0c-.15.24-.29.46-.44.66l0,0q-.2.29-.4.52l0,0-.19.2v-.26l0-.36v-.05l0-.13v-.08l0-.15v-.08l.07-.63v-.06l0-.21v-.1l0-.21v-.12l0-.22v-.1l0-.43v-.15l0-.2,0-.18,0-.2,0-.2v-.19l0-.26v-.14l0-.4v-.11l0-.32v-.56q0-.19,0-.39v0c0-.3,0-.6,0-.9v0q0-.21,0-.42v0c0-.3,0-.59,0-.88h0a11.93,11.93,0,0,0-.3-2.28C373.7,87.48,371.5,93,371.5,93s1.72.48-1.33,14c-.56,2.48-1,4.84-1.3,7a28.65,28.65,0,0,1-6.15-3.13A14.5,14.5,0,0,1,362,101c-1.75,1.61-1.17,7.3-1,8.54a14.42,14.42,0,0,1-4.12-5l-.61-.1c.67,2.7,4.84,6.55,7.62,8.52.36.64.29.47.08.05a13.16,13.16,0,0,0,1.57,1,11.43,11.43,0,0,1,3.07,2.38,69.23,69.23,0,0,0-.4,14h9s-4.22-8.47-3.71-16.85A23.64,23.64,0,0,1,375.27,106.27Z"/><path class="cls-5" d="M399.75,78.41a4,4,0,0,0,.22-1.33A4.23,4.23,0,0,0,394.6,73a8.2,8.2,0,0,0-5.13-3.95,4.91,4.91,0,0,0,.16-1.24,5.12,5.12,0,0,0-5.12-5.12,2.65,2.65,0,0,0-.42,0,8.17,8.17,0,0,0-15.63,2.94h-.22a4.23,4.23,0,0,0-4.22,4,5.93,5.93,0,0,0-2.08-.38A6,6,0,0,0,356.08,74a8.18,8.18,0,0,0,.73,16.32,8.07,8.07,0,0,0,3.28-.69A6.78,6.78,0,0,0,370,93.38a15.73,15.73,0,0,0,18.6-3.47,8.17,8.17,0,0,0,11.13-11.5Z"/><path class="cls-5" d="M397.62,78.25a3.83,3.83,0,0,0,.2-1.22,3.85,3.85,0,0,0-4.91-3.73,7.47,7.47,0,0,0-4.7-3.6,4.31,4.31,0,0,0,.15-1.14,4.69,4.69,0,0,0-4.69-4.69l-.37,0A7.47,7.47,0,0,0,369,66.59h-.2A3.86,3.86,0,0,0,365,70.26a5.46,5.46,0,0,0-7.26,3.92,7.47,7.47,0,1,0,3.66,14.29,6.22,6.22,0,0,0,9.08,3.45,14.4,14.4,0,0,0,17-3.17,7.47,7.47,0,0,0,10.17-10.5Z"/><path class="cls-5" d="M394.54,76.92a3.11,3.11,0,0,0,.17-1,3.27,3.27,0,0,0-3.26-3.26,3.06,3.06,0,0,0-.87.13,6.31,6.31,0,0,0-4-3,4,4,0,0,0,.12-1,4,4,0,0,0-4-3.95h-.31a6.29,6.29,0,0,0-12,2.27h-.16A3.26,3.26,0,0,0,367,70.2a4.61,4.61,0,0,0-6.11,3.3,6.3,6.3,0,0,0,.56,12.57,6.39,6.39,0,0,0,2.53-.53,5.24,5.24,0,0,0,5,3.64,5.13,5.13,0,0,0,2.65-.73A12.15,12.15,0,0,0,386,85.77a6.23,6.23,0,0,0,3.34,1,6.29,6.29,0,0,0,5.21-9.82Z"/><path class="cls-5" d="M368.65,101.44a1.75,1.75,0,0,0,.09-.53,1.69,1.69,0,0,0-1.69-1.69,1.88,1.88,0,0,0-.45.06,3.28,3.28,0,0,0-2-1.56,2.33,2.33,0,0,0,.06-.5,2,2,0,0,0-2-2h-.17a3.25,3.25,0,0,0-6.22,1.17h-.09a1.68,1.68,0,0,0-1.67,1.6,2.45,2.45,0,0,0-.84-.15,2.39,2.39,0,0,0-2.33,1.86,3.26,3.26,0,0,0,.29,6.5,3.18,3.18,0,0,0,1.3-.28,2.72,2.72,0,0,0,2.59,1.88,2.68,2.68,0,0,0,1.37-.38,6.28,6.28,0,0,0,7.42-1.38,3.28,3.28,0,0,0,1.73.49,3.26,3.26,0,0,0,2.7-5.07Z"/><path class="cls-5" d="M368.32,101.41a1.54,1.54,0,0,0,.08-.51,1.63,1.63,0,0,0-1.63-1.64,1.61,1.61,0,0,0-.43.07,3.15,3.15,0,0,0-2-1.51,2,2,0,0,0,.06-.48,2,2,0,0,0-2-2h-.16a3.15,3.15,0,0,0-6,1.13h-.08a1.62,1.62,0,0,0-1.62,1.55,2.23,2.23,0,0,0-.8-.15,2.31,2.31,0,0,0-2.25,1.79,3.14,3.14,0,0,0,.28,6.28,3.23,3.23,0,0,0,1.26-.26,2.62,2.62,0,0,0,3.82,1.45,6,6,0,0,0,2.69.64,6.06,6.06,0,0,0,4.47-2,3.2,3.2,0,0,0,1.67.48,3.15,3.15,0,0,0,2.61-4.91Z"/><path class="cls-5" d="M367.6,101a1.38,1.38,0,0,0,.08-.47A1.48,1.48,0,0,0,366.2,99a1.41,1.41,0,0,0-.4.05,2.83,2.83,0,0,0-1.8-1.37,1.87,1.87,0,0,0,.06-.44,1.8,1.8,0,0,0-1.8-1.8h-.14a2.86,2.86,0,0,0-5.47,1h-.05a1.48,1.48,0,0,0-1.51,1.42,1.94,1.94,0,0,0-.73-.13,2.1,2.1,0,0,0-2,1.63,2.86,2.86,0,0,0,.26,5.71,2.92,2.92,0,0,0,1.14-.24,2.39,2.39,0,0,0,2.28,1.66,2.25,2.25,0,0,0,1.2-.34,5.39,5.39,0,0,0,2.44.58,5.53,5.53,0,0,0,4.08-1.78,2.86,2.86,0,0,0,3.88-4Z"/><path class="cls-5" d="M392.48,100a1,1,0,0,0,0-.33,1,1,0,0,0-1-1,1.33,1.33,0,0,0-.27,0,2,2,0,0,0-1.25-1,1.22,1.22,0,0,0,0-.31,1.25,1.25,0,0,0-1.25-1.24h-.09a2,2,0,0,0-3.78.71h0a1,1,0,0,0-1,1,1.51,1.51,0,0,0-.5-.09,1.45,1.45,0,0,0-1.42,1.13,2,2,0,0,0,.18,4,1.93,1.93,0,0,0,.79-.16,1.66,1.66,0,0,0,1.57,1.14,1.7,1.7,0,0,0,.83-.22A3.77,3.77,0,0,0,387,104a3.82,3.82,0,0,0,2.81-1.24,2,2,0,0,0,3-1.68A1.94,1.94,0,0,0,392.48,100Z"/><path class="cls-5" d="M392.28,100a.86.86,0,0,0,0-.31,1,1,0,0,0-1-1,.84.84,0,0,0-.27,0,1.88,1.88,0,0,0-1.19-.93,1.69,1.69,0,0,0,0-.29,1.2,1.2,0,0,0-1.2-1.21h-.09A1.92,1.92,0,0,0,385,97h0a1,1,0,0,0-1,.94,1.24,1.24,0,0,0-.48-.09A1.41,1.41,0,0,0,382,98.93a1.92,1.92,0,1,0,.94,3.66,1.59,1.59,0,0,0,1.52,1.1,1.5,1.5,0,0,0,.8-.22,3.7,3.7,0,0,0,4.37-.82,1.82,1.82,0,0,0,1,.3,1.92,1.92,0,0,0,1.91-1.91A1.9,1.9,0,0,0,392.28,100Z"/><path class="cls-5" d="M391.85,99.72a1.59,1.59,0,0,0,0-.29.91.91,0,0,0-.91-.9.86.86,0,0,0-.24,0,1.75,1.75,0,0,0-1.1-.84,1,1,0,0,0,0-.27,1.09,1.09,0,0,0-1.09-1.09h-.09a1.74,1.74,0,0,0-3.33.62h0a.91.91,0,0,0-.9.86,1.15,1.15,0,0,0-.44-.08,1.28,1.28,0,0,0-1.25,1,1.74,1.74,0,0,0,.16,3.48,1.77,1.77,0,0,0,.7-.15,1.45,1.45,0,0,0,2.12.81,3.4,3.4,0,0,0,1.49.34,3.36,3.36,0,0,0,2.48-1.08,1.7,1.7,0,0,0,.92.27,1.75,1.75,0,0,0,1.75-1.74A1.77,1.77,0,0,0,391.85,99.72Z"/><path class="cls-6" d="M323.75,53.17l-.42,0a5.51,5.51,0,0,0-3.53-2.81,7.83,7.83,0,0,0-14.87-1.92,6.25,6.25,0,0,0-5.07,4.7h-.08a3.87,3.87,0,0,0,0,7.74,3.77,3.77,0,0,0,2.58-1,6.14,6.14,0,0,0,7.57-.41h0a5.2,5.2,0,0,0,4,1.89,5.12,5.12,0,0,0,2.2-.5,5.43,5.43,0,0,0,5.52-.58,3.75,3.75,0,0,0,2,.61,3.87,3.87,0,0,0,0-7.74Z"/><path class="cls-6" d="M134.22,16.54a4.41,4.41,0,0,0-.52,0,6.84,6.84,0,0,0-4.38-3.49,9.72,9.72,0,0,0-18.46-2.38,7.75,7.75,0,0,0-6.29,5.84h-.1a4.81,4.81,0,0,0,0,9.61,4.68,4.68,0,0,0,3.21-1.28,7.62,7.62,0,0,0,9.39-.5h0a6.46,6.46,0,0,0,5,2.35,6.36,6.36,0,0,0,2.73-.62,6.74,6.74,0,0,0,6.85-.72,4.66,4.66,0,0,0,2.54.75,4.81,4.81,0,0,0,0-9.61Z"/><path class="cls-5" d="M143.78,36.23V175.71h63.45V36.23Zm18.17,113.19H151.21V134.93h10.73Zm18,0H169.21V134.93h10.73Zm18,0H187.2V134.93h10.73Zm-36-19.71H151.21V115.22h10.73Zm18,0H169.21V115.22h10.73Zm18,0H187.2V115.22h10.73Zm-36-19.71H151.21V95.51h10.73Zm18,0H169.21V95.51h10.73Zm18,0H187.2V95.51h10.73Zm-36-19.71H151.21V75.81h10.73Zm18,0H169.21V75.81h10.73Zm18,0H187.2V75.81h10.73Zm-36-19.71H151.21V56.1h10.73Zm18,0H169.21V56.1h10.73Zm18,0H187.2V56.1h10.73Z"/><path class="cls-3" d="M283.37,99.78v61.77h28.1V99.78Zm8,50.13h-4.75V143.5h4.75Zm8,0h-4.75V143.5h4.75Zm8,0H302.6V143.5h4.75Zm-15.94-8.73h-4.75v-6.41h4.75Zm8,0h-4.75v-6.41h4.75Zm8,0H302.6v-6.41h4.75Zm-15.94-8.73h-4.75V126h4.75Zm8,0h-4.75V126h4.75Zm8,0H302.6V126h4.75Zm-15.94-8.73h-4.75v-6.41h4.75Zm8,0h-4.75v-6.41h4.75Zm8,0H302.6v-6.41h4.75ZM291.41,115h-4.75v-6.41h4.75Zm8,0h-4.75v-6.41h4.75Zm8,0H302.6v-6.41h4.75Z"/><path class="cls-5" d="M243.12,14.05V141.88h31.6V0Zm10.52,89.34h-5.53V92.83h5.53Zm0-13.45h-5.53V79.39h5.53Zm0-13.45h-5.53V65.94h5.53Zm0-13.45h-5.53V52.5h5.53Zm0-13.45h-5.53V39.05h5.53Zm0-13.45h-5.53V25.61h5.53Zm8,67.23h-5.53V92.83h5.53Zm0-13.45h-5.53V79.39h5.53Zm0-13.45h-5.53V65.94h5.53Zm0-13.45h-5.53V52.5h5.53Zm0-13.45h-5.53V39.05h5.53Zm0-13.45h-5.53V25.61h5.53Zm8,67.23H264.2V92.83h5.53Zm0-13.45H264.2V79.39h5.53Zm0-13.45H264.2V65.94h5.53Zm0-13.45H264.2V52.5h5.53Zm0-13.45H264.2V39.05h5.53Zm0-13.45H264.2V25.61h5.53Z"/><path class="cls-3" d="M212.46,67.59v74.89h28.28V80.31ZM236,130.76H216.79v-4H236Zm0-5.81H216.79v-4H236Zm0-5.81H216.79v-4H236Zm0-5.81H216.79v-4H236Zm0-5.81H216.79v-4H236Zm0-5.81H216.79v-4H236Zm0-5.81H216.79v-4H236Zm0-5.81H216.79v-4H236Z"/><polygon class="cls-7" points="420.08 139.14 413.74 139.13 415.68 93.72 418.4 93.73 420.08 139.14"/><polygon class="cls-7" points="418.63 94.9 415.08 94.89 416.07 71.77 417.76 71.78 418.63 94.9"/><polygon class="cls-7" points="414.39 95.24 415.85 92.41 439.44 102.75 438.74 104.11 414.39 95.24"/><polygon class="cls-7" points="418.22 92.67 419.45 95.59 394.44 102.92 393.85 101.53 418.22 92.67"/><polygon class="cls-7" points="430.97 144.72 427.23 144.71 428.37 117.97 429.98 117.97 430.97 144.72"/><polygon class="cls-7" points="430.11 118.66 428.02 118.65 428.6 105.04 429.6 105.04 430.11 118.66"/><polygon class="cls-7" points="427.61 118.86 428.47 117.19 442.37 123.28 441.96 124.08 427.61 118.86"/><polygon class="cls-7" points="429.87 117.35 430.59 119.06 415.86 123.38 415.51 122.56 429.87 117.35"/><polygon class="cls-4" points="344.52 153.54 338.71 153.53 340.49 111.96 342.98 111.97 344.52 153.54"/><polygon class="cls-4" points="343.19 113.04 339.94 113.03 340.84 91.87 342.39 91.87 343.19 113.04"/><polygon class="cls-4" points="339.3 113.35 340.64 110.76 362.24 120.23 361.6 121.47 339.3 113.35"/><polygon class="cls-4" points="342.81 111 343.94 113.67 321.04 120.38 320.5 119.11 342.81 111"/><polygon class="cls-4" points="332.5 159.75 329.2 159.74 330.21 136.11 331.62 136.11 332.5 159.75"/><polygon class="cls-4" points="331.74 136.72 329.9 136.71 330.41 124.68 331.29 124.68 331.74 136.72"/><polygon class="cls-4" points="329.54 136.9 330.3 135.42 342.57 140.81 342.21 141.51 329.54 136.9"/><polygon class="cls-4" points="331.53 135.56 332.17 137.08 319.15 140.89 318.84 140.17 331.53 135.56"/><path class="cls-7" d="M442.27,186.42c-.25.78-9.76,29.26-34.28,59.25-2.59,3.16-5.34,6.34-8.27,9.51A192.06,192.06,0,0,1,371,280.7a179.29,179.29,0,0,1-51.25,25.7c-92.91,29.23-156.88-34.26-178.28-60S100.05,200.78,83,197.19a34.39,34.39,0,0,0,5.07-.67,114.6,114.6,0,0,0,22.23-7s10.08-2.81,26.94-12.76a251.18,251.18,0,0,0,22.26-14.9l1.89-1.42c39.52-30,89.44-39.61,126.47-17.45s76,72.89,116.94,65.09C431,203,441.87,187,442.27,186.42Z"/><path class="cls-4" d="M442.27,186.42c-.25.78-9.76,29.26-34.28,59.25-2.59,3.16-5.34,6.34-8.27,9.51a178.75,178.75,0,0,1-44.86,21.3C262,305.7,198,242.21,176.58,216.47c-13.85-16.64-27.1-30.84-39.35-39.76a251.18,251.18,0,0,0,22.26-14.9l1.89-1.42c39.52-30,89.44-39.61,126.47-17.45s76,72.89,116.94,65.09C431,203,441.87,187,442.27,186.42Z"/><path class="cls-4" d="M465.82,134.65A83.7,83.7,0,0,1,454,162.93a74.36,74.36,0,0,1-30.07,26.92c-35.39,17.17-64.7-4.42-74.78-13.43s-19.23-15.78-26.27-16.21c0,0,3.64-.61,10.45-4.7,0,0,5.16-2.3,13-9.27,1.75-1.54,3.64-3.32,5.64-5.37,14-14.32,33.4-21.12,49.5-14.45s34.67,24.63,50.57,19.09C462.48,141.9,465.82,134.65,465.82,134.65Z"/><path class="cls-5" d="M465.82,134.65A83.7,83.7,0,0,1,454,162.93a72,72,0,0,1-15.33,10c-35.4,17.17-64.7-4.42-74.78-13.43-6.29-5.63-12.23-10.38-17.51-13.26,1.75-1.54,3.64-3.32,5.64-5.37,14-14.32,33.4-21.12,49.5-14.45s34.67,24.63,50.57,19.09C462.48,141.9,465.82,134.65,465.82,134.65Z"/><path class="cls-5" d="M105.83,222.91a8.12,8.12,0,0,0-2,1.42l-.9-.88a.41.41,0,0,0-.18-.18l-1.11-1.08v0a.87.87,0,0,1,.06-1.14.55.55,0,0,0,.34-.94.7.7,0,0,0-.42-.23,3,3,0,0,0-3-.81l-.11-.23a.22.22,0,0,0-.27-.07l0,0c-.08,0-.28.24-.24.32l.19.38-2,1c-.26.13-.46.28-.35.51s.35.16.61,0l2.23-1.1h0l.07,0,0,0c.06,0,.14-.07.15-.12a.33.33,0,0,0,.09-.14,2.41,2.41,0,0,1,2,.57,2.05,2.05,0,0,0,.23,2.69l.09,0,.82.8-.16.43-12.58,6.21a2.18,2.18,0,0,0,.52-1c.33-1.28,2-1.19,2-2.1s-1-.43-3.19.76-3.4.67-3.48,1.78,1.84,2,3.37,1a1.27,1.27,0,0,0,.24-.08h0a.41.41,0,0,0,.09.4l1.38,1.51-.14.33-3.51-1.19a.2.2,0,0,0-.14,0l-7.81,3.85a.21.21,0,0,0,.18.36l7.75-3.82,3.39,1.13-.35.84a8.13,8.13,0,1,0,4.85,7.13l.77-.18a.66.66,0,0,0,.38.66l1.35.62a.66.66,0,0,0,.55-1.2l-.9-.41.89-.21a2.73,2.73,0,0,0,1-.23h0l.1,0a2.74,2.74,0,0,0,0-4.92l4-10.49.52-.26.26.25a8.13,8.13,0,1,0,2.56-2ZM90.57,233.51h0a.17.17,0,0,0,.08-.1.16.16,0,0,0,0-.14l0,0,3.07,3.35L93,237a8.08,8.08,0,0,0-2.8-2.5Zm-1.22,14.28a6.89,6.89,0,1,1-.25-12.48l-1.88,4.48-.76.37a1.45,1.45,0,1,0,1,2.73l0,.05,5.72-1.35A6.89,6.89,0,0,1,89.35,247.79Zm2.49-10.27-3.72,1.83,1.57-3.74A6.85,6.85,0,0,1,91.84,237.51Zm5.91-2.38a2.73,2.73,0,0,0-1.65.25,2.77,2.77,0,0,0-.32.19l-1.26.62-4.65-5.07,11.54-5.69Zm14.72,1.25a6.89,6.89,0,0,1-8.31-10.63l4.25,4.13a1.19,1.19,0,1,0,.57-.61l-.07,0-4.23-4.12a6.89,6.89,0,1,1,7.79,11.19Z"/><path class="cls-1" d="M248.09,274.17c-4,.25-8.48,1.88-13.32,4.57-6.8,3.77-14.32,9.61-22.29,16.57-1,.9-2.08,1.83-3.13,2.76-14.86,13.3-58.08,45.13-110.28,19.81s-61.75-81.39-61.75-81.39,4.92,10.69,20.21,16a30.88,30.88,0,0,0,16.24.85c19.27-3.71,39.89-21.37,58.34-29,23.75-9.84,52.32.19,73,21.31,16.18,16.52,27.56,21.59,27.56,21.59a77.69,77.69,0,0,0,9.71,5A29.45,29.45,0,0,0,248.09,274.17Z"/><path class="cls-5" d="M242.38,272.25c-2.49,2-5,4.2-7.62,6.48l-2,1.77a127.84,127.84,0,0,1-20.29,14.8c-21.09,12.38-53.33,22.8-90,5-24.48-11.87-39.58-30.51-48.71-47,19.27-3.71,39.89-21.37,58.34-29,23.75-9.84,52.32.19,73,21.31,16.18,16.52,27.56,21.59,27.56,21.59A77.69,77.69,0,0,0,242.38,272.25Z"/><polygon class="cls-5" points="149 207.87 178.43 183.47 207.87 207.87 149 207.87"/><path class="cls-5" d="M158.33,202.32v31.34l40.21,7.08V202.32Zm32,33-10.64-3V213.19h10.64Z"/><rect class="cls-5" x="161.76" y="190.13" width="4.43" height="8.2"/><path class="cls-5" d="M220.9,197v-.2l-.13.1-.13-.1v.2c-25.17,19.75-8.67,39.51-1.89,46l-1.21,20.34,5.77,0-1.11-19.1C227.58,239.27,248.24,217.73,220.9,197Z"/><path class="cls-5" d="M233.27,240.43v-.09l-.06,0-.06,0v.09c-11,8.63-3.79,17.26-.83,20.09l-.53,8.88,2.52,0-.48-8.34C236.18,258.91,245.21,249.51,233.27,240.43Z"/><path class="cls-5" d="M141.78,195.24v-.08l-.05,0-.05,0v.08c-10.35,8.12-3.56,16.24-.78,18.91l-.5,8.36,2.37,0-.46-7.85C144.52,212.64,153,203.79,141.78,195.24Z"/><path class="cls-5" d="M132.95,208V208l0,0,0,0V208c-6.48,5.09-2.23,10.18-.49,11.85l-.31,5.24h1.49l-.29-4.92C134.67,218.93,140,213.38,132.95,208Z"/></g></g></svg>
