<svg xmlns="http://www.w3.org/2000/svg" xmlns:xlink="http://www.w3.org/1999/xlink" viewBox="0 0 330.25 291.96"><defs><style>.cls-1{fill:url(#radial-gradient);}.cls-2{isolation:isolate;}.cls-15,.cls-16,.cls-17,.cls-19,.cls-20,.cls-3,.cls-4{mix-blend-mode:multiply;}.cls-3{fill:url(#radial-gradient-2);}.cls-4{fill:url(#radial-gradient-3);}.cls-5{mask:url(#mask);}.cls-12,.cls-6{fill:#fff;}.cls-6{opacity:0.6;mix-blend-mode:lighten;}.cls-23,.cls-24,.cls-7{fill:#2f5a46;}.cls-25,.cls-8{fill:#408258;}.cls-9{fill:#6ebb7e;}.cls-10,.cls-26{fill:#8ac38a;}.cls-11{fill:#ef7a1a;}.cls-12{font-size:8.99px;}.cls-12,.cls-23,.cls-24,.cls-25,.cls-26,.cls-27{font-family:Helvetica-Bold, Helvetica;font-weight:700;}.cls-13{fill:#010101;}.cls-14{fill:none;stroke:#59b169;stroke-miterlimit:10;}.cls-15{fill:url(#radial-gradient-4);}.cls-16{fill:url(#radial-gradient-5);}.cls-17{fill:url(#radial-gradient-6);}.cls-18,.cls-27{fill:#59b169;}.cls-19{fill:url(#radial-gradient-7);}.cls-20{fill:url(#radial-gradient-8);}.cls-21{fill:url(#linear-gradient);}.cls-22{fill:url(#linear-gradient-2);}.cls-23{font-size:12px;}.cls-24,.cls-25,.cls-26,.cls-27{font-size:14px;}</style><radialGradient id="radial-gradient" cx="-417.95" cy="228.56" r="71.47" gradientTransform="translate(397.74 547.92) rotate(90)" gradientUnits="userSpaceOnUse"><stop offset="0" stop-color="#fff"/><stop offset="0.16" stop-color="#fcfcfc"/><stop offset="0.29" stop-color="#f1f1f1"/><stop offset="0.42" stop-color="#e0dfdf"/><stop offset="0.55" stop-color="#c7c6c6"/><stop offset="0.67" stop-color="#a7a5a6"/><stop offset="0.78" stop-color="#807d7e"/><stop offset="0.9" stop-color="#524f50"/><stop offset="1" stop-color="#231f20"/></radialGradient><radialGradient id="radial-gradient-2" cx="-391.65" cy="250.49" r="137.31" gradientTransform="matrix(0.99, 0.11, -0.11, 0.99, 609.6, -51.54)" gradientUnits="userSpaceOnUse"><stop offset="0" stop-color="#929497"/><stop offset="0.18" stop-color="#9fa1a3"/><stop offset="0.51" stop-color="#c1c2c4"/><stop offset="0.95" stop-color="#f8f9f9"/><stop offset="1" stop-color="#fff"/></radialGradient><radialGradient id="radial-gradient-3" cx="-404.54" cy="244.82" r="128.82" gradientTransform="translate(425.55 552.15) rotate(90)" gradientUnits="userSpaceOnUse"><stop offset="0" stop-color="#c8cacb"/><stop offset="0.31" stop-color="#d5d6d7"/><stop offset="0.88" stop-color="#f7f7f8"/><stop offset="1" stop-color="#fff"/></radialGradient><mask id="mask" x="97.7" y="58.5" width="142.96" height="142.96" maskUnits="userSpaceOnUse"><circle class="cls-1" cx="169.18" cy="129.97" r="71.47" transform="translate(21.49 283.93) rotate(-83.72)"/></mask><radialGradient id="radial-gradient-4" cx="-384.37" cy="258.11" r="77.84" gradientTransform="translate(457.44 547.38) rotate(90)" gradientUnits="userSpaceOnUse"><stop offset="0" stop-color="#808284"/><stop offset="0.45" stop-color="#bfc0c1"/><stop offset="0.82" stop-color="#edeeee"/><stop offset="1" stop-color="#fff"/></radialGradient><radialGradient id="radial-gradient-5" cx="-386.74" cy="251.72" r="63.78" gradientTransform="translate(449.38 543.13) rotate(90)" xlink:href="#radial-gradient-4"/><radialGradient id="radial-gradient-6" cx="-403.72" cy="239.29" r="72.9" gradientTransform="matrix(0.99, 0.11, -0.11, 0.99, 609.6, -51.54)" gradientUnits="userSpaceOnUse"><stop offset="0" stop-color="#929497"/><stop offset="0.27" stop-color="#95979a"/><stop offset="0.46" stop-color="#9e9fa2"/><stop offset="0.61" stop-color="#adaeb0"/><stop offset="0.75" stop-color="#c2c3c5"/><stop offset="0.88" stop-color="#dddedf"/><stop offset="1" stop-color="#fefefe"/><stop offset="1" stop-color="#fff"/></radialGradient><radialGradient id="radial-gradient-7" cx="-398.89" cy="244.8" r="57.19" gradientTransform="matrix(0.99, 0.11, -0.11, 0.99, 609.6, -51.54)" xlink:href="#radial-gradient-4"/><radialGradient id="radial-gradient-8" cx="-391.47" cy="251.46" r="47.4" gradientTransform="translate(444.45 547.1) rotate(90)" gradientUnits="userSpaceOnUse"><stop offset="0" stop-color="#525355"/><stop offset="0.18" stop-color="#767678"/><stop offset="0.57" stop-color="#bfc0c0"/><stop offset="0.86" stop-color="#ededee"/><stop offset="1" stop-color="#fff"/></radialGradient><linearGradient id="linear-gradient" x1="-380.65" y1="276.34" x2="-433.31" y2="194.87" gradientTransform="matrix(0.99, 0.11, -0.11, 0.99, 609.6, -51.54)" gradientUnits="userSpaceOnUse"><stop offset="0" stop-color="#fff"/><stop offset="0.41" stop-color="#eaebeb"/><stop offset="0.49" stop-color="#e5e6e7"/><stop offset="1" stop-color="#c7ccd0"/></linearGradient><linearGradient id="linear-gradient-2" x1="-432.77" y1="197.09" x2="-381.13" y2="274.2" xlink:href="#linear-gradient"/></defs><title>recuperar</title><g class="cls-2"><g id="Layer_2" data-name="Layer 2"><g id="Capa_1" data-name="Capa 1"><path class="cls-3" d="M329.41,169.66A137.31,137.31,0,1,1,207.93,18.16,137.31,137.31,0,0,1,329.41,169.66Z"/><ellipse class="cls-4" cx="180.72" cy="147.6" rx="128.82" ry="128.82" transform="translate(14.25 311.11) rotate(-83.72)"/><g class="cls-5"><circle class="cls-6" cx="169.18" cy="129.97" r="71.47" transform="translate(21.49 283.93) rotate(-83.72)"/></g><path class="cls-7" d="M121.48,237.38A111.91,111.91,0,0,0,165.88,252l6-54.8a57,57,0,0,1-22.08-7.15"/><path class="cls-8" d="M82.76,199.69a111.8,111.8,0,0,1-16.76-53l55.09-2.46a56.92,56.92,0,0,0,8.05,25.67Z"/><path class="cls-7" d="M124.13,159.17a57.17,57.17,0,0,0,5,10.69L82.76,199.69a112.29,112.29,0,0,1-11.45-24.57"/><path class="cls-8" d="M121.09,144.19a57.53,57.53,0,0,1,.23-10l-54.8-6A113.09,113.09,0,0,0,66,146.66"/><path class="cls-9" d="M171.9,197.24"/><path class="cls-7" d="M82.76,199.69a112.7,112.7,0,0,0,38.71,37.71l28.35-47.31a57.37,57.37,0,0,1-20.68-20.23Z"/><path class="cls-10" d="M129.15,39.24a111.77,111.77,0,0,1,27.3-9.14l9.43,54.35a56.91,56.91,0,0,0-13.19,4.64L129.15,39.24"/><path class="cls-8" d="M74.17,97.82A111.91,111.91,0,0,1,99.43,60.2l38.43,39.51a56.85,56.85,0,0,0-12.56,18.76Z"/><path class="cls-11" d="M129.15,39.24"/><path class="cls-10" d="M179.16,28a111.89,111.89,0,0,0-22.72,2.09l9.43,54.35a57.09,57.09,0,0,1,12.63-1.31Z"/><path class="cls-7" d="M179.16,28q5.59.06,11.27.68A112.16,112.16,0,0,1,289.79,152.6l-54.8-6a58.11,58.11,0,0,0,.3-8.7A57.06,57.06,0,0,0,184.41,83.5a58.21,58.21,0,0,0-5.91-.35"/><path class="cls-10" d="M137.86,99.71a57.23,57.23,0,0,1,14.83-10.61L129.15,39.24a112.77,112.77,0,0,0-29.72,21Z"/><path class="cls-8" d="M110.65,50.54A112.82,112.82,0,0,0,99.43,60.2l38.43,39.51a57.23,57.23,0,0,1,5.86-5.07"/><path class="cls-8" d="M74.17,97.82a112.57,112.57,0,0,0-7.64,30.23l54.8,6a57.55,57.55,0,0,1,4-15.61"/><path class="cls-7" d="M180.72,252.7a112.33,112.33,0,0,0,109.06-100l-54.8-6a57.18,57.18,0,0,1-55.82,50.92,57.73,57.73,0,0,1-7.26-.34"/><path class="cls-7" d="M179.16,197.58a57.73,57.73,0,0,1-7.26-.34l-6,54.8a113.35,113.35,0,0,0,14.85.66"/><path class="cls-7" d="M255.05,222.26a111.87,111.87,0,0,0,34.73-69.58l-54.8-6A57,57,0,0,1,217.35,182"/><text class="cls-12" transform="translate(238.03 191.18)">71.44%</text><text class="cls-12" transform="translate(80.29 114.48)">19.66%</text><text class="cls-12" transform="translate(140.2 58.87)">8.63%</text><path class="cls-13" d="M178.5,73.16"/><line class="cls-14" x1="179.16" y1="28.02" x2="178.5" y2="74.27"/><circle class="cls-15" cx="199.33" cy="163.02" r="77.84" transform="translate(15.5 343.33) rotate(-83.72)"/><ellipse class="cls-16" cx="197.67" cy="156.4" rx="63.78" ry="63.78" transform="matrix(0.11, -0.99, 0.99, 0.11, 20.6, 335.79)"/><path class="cls-17" d="M254.6,150.17a72.9,72.9,0,1,1-64.5-80.44A72.91,72.91,0,0,1,254.6,150.17Z"/><circle class="cls-18" cx="179.17" cy="137.88" r="64.72" transform="translate(22.53 300.9) rotate(-83.72)"/><path class="cls-19" d="M243.19,154.44a57.19,57.19,0,1,1-50.59-63.1A57.19,57.19,0,0,1,243.19,154.44Z"/><circle class="cls-20" cx="192.99" cy="155.63" r="47.4" transform="translate(17.2 330.45) rotate(-83.72)"/><path class="cls-21" d="M225.58,143a46.69,46.69,0,1,1-41.3-51.52A46.7,46.7,0,0,1,225.58,143Z"/><path class="cls-22" d="M174,185a47.39,47.39,0,1,1,52.27-41.92A47.43,47.43,0,0,1,174,185ZM184.2,92.14a46,46,0,1,0,40.69,50.77A46.07,46.07,0,0,0,184.2,92.14Z"/><text class="cls-23" transform="translate(141.8 136.25)">Residuos NO<tspan x="7.33" y="13">peligrosos</tspan></text><text class="cls-24" transform="translate(286.84 203.06)">Otro</text><text class="cls-25" transform="translate(0 112.87)">Reciclar</text><text class="cls-26" transform="translate(89.7 22.07)">Reutilizar</text><text class="cls-27" transform="translate(258.74 28.99)">0.26%</text><text class="cls-27" transform="translate(205.85 12.04)">Recuperación</text><polyline class="cls-14" points="179.16 28.96 184.12 14.08 202.63 14.08"/></g></g></g></svg>
