<svg xmlns="http://www.w3.org/2000/svg" viewBox="0 0 44.92 45.1"><defs><style>.cls-1{fill:#2c5a46;}</style></defs><title>Asset 1</title><g id="Layer_2" data-name="Layer 2"><g id="Capa_1" data-name="Capa 1"><path class="cls-1" d="M43.12,0a1.76,1.76,0,0,1,1.8,1.9V0Z"/><path class="cls-1" d="M43.12,0a2.14,2.14,0,0,0-1.2.5c-3.1,2.6-17.8,15.3-22.7,28l-4.7-7.6a2.38,2.38,0,0,0-3.1-.8L1,26.1a1.78,1.78,0,0,0-1,1.6,2.09,2.09,0,0,0,.7,1.8c2.1,1.8,12.9,11.5,16.2,14.9a1.78,1.78,0,0,0,.91.6,2.26,2.26,0,0,0,.69.1,1.86,1.86,0,0,0,.61-.1,2.82,2.82,0,0,0,1.09-.7c8.2-9.7,19.1-21.9,23.2-24.1a2.92,2.92,0,0,0,1.5-2.4V1.9A1.76,1.76,0,0,0,43.12,0Z"/></g></g></svg>
