<svg xmlns="http://www.w3.org/2000/svg" viewBox="0 0 95.84 93.75"><defs><style>.cls-1{fill:none;stroke:#c49c5c;}.cls-2{fill:#7e7565;}</style></defs><title>engrane4</title><g id="Layer_2" data-name="Layer 2"><g id="Layer_1-2" data-name="Layer 1"><ellipse class="cls-1" cx="47.92" cy="46.87" rx="47.42" ry="46.37"/><path class="cls-2" d="M46.19,31.33A15.65,15.65,0,1,1,32.35,48.61,15.67,15.67,0,0,1,46.19,31.33M7.11,55.78c.25,2.25,2,2.19,5.19,2.11s6.08.54,7.67,3.24c.26.51.53,1,.82,1.53,0,0,0,0,0,.08,1.46,2.8.45,5.57-1.34,8.24s-2.77,4.1-1,5.51l3.41,2.72.08.06L25.37,82c1.77,1.42,3,.15,5.17-2.18s4.65-3.88,7.66-3.14c.55.19,1.12.35,1.69.5,0,0,.06,0,.11.06,3,.95,4.26,3.62,4.88,6.77s.94,4.85,3.19,4.6l4.34-.48h.1l4.33-.48c2.25-.25,2.19-2,2.11-5.19s.54-6.06,3.24-7.65c.51-.26,1-.53,1.53-.82a.28.28,0,0,0,.09,0c2.79-1.45,5.58-.44,8.24,1.34s4.1,2.76,5.52,1,.45-.57,2.73-3.4l0-.05,0,0c2.27-2.84,1.32-1.66,2.72-3.41s.15-3-2.18-5.15S77,59.57,77.77,56.56q.26-.81.48-1.64c0-.06.05-.07.07-.13.95-3,3.63-4.25,6.78-4.86S90,49,89.71,46.73s-.08-.71-.48-4.33a.41.41,0,0,0,0-.06.18.18,0,0,0,0,0c-.41-3.62-.25-2.1-.49-4.33s-2-2.19-5.19-2.1-6.1-.54-7.68-3.26c-.26-.51-.51-1-.8-1.49,0,0,0-.06,0-.1-1.45-2.8-.44-5.57,1.35-8.23s2.76-4.1,1-5.51L74,14.55l-.05,0,0,0c-2.85-2.27-1.66-1.32-3.41-2.72s-3-.15-5.17,2.18-4.68,3.91-7.71,3.12q-.79-.25-1.6-.47c-.06,0-.07-.05-.15-.07-3-.95-4.25-3.63-4.87-6.77S50,4.91,47.78,5.15l-4.34.48h-.1L39,6.13c-2.25.25-2.19,2-2.1,5.19s-.54,6.09-3.27,7.67h0c-.5.26-1,.51-1.48.79l-.1,0c-2.8,1.45-5.58.45-8.25-1.34s-4.1-2.76-5.52-1l-2.72,3.4-.05.07h0c-2.28,2.84-1.32,1.66-2.72,3.41s-.15,2.94,2.18,5.16,3.91,4.66,3.13,7.68c-.17.53-.33,1.08-.47,1.62,0,.06-.05.07-.07.14-.95,3-3.63,4.25-6.78,4.87S5.89,44.77,6.13,47l.49,4.43c.4,3.62.24,2.1.49,4.33"/></g></g></svg>
