<svg xmlns="http://www.w3.org/2000/svg" viewBox="0 0 125.56 122.89"><defs><style>.cls-1{fill:none;stroke:#c49c5c;}.cls-2{fill:#7e7565;}</style></defs><title>engrane2</title><g id="Layer_2" data-name="Layer 2"><g id="Layer_1-2" data-name="Layer 1"><ellipse class="cls-1" cx="62.78" cy="61.45" rx="62.28" ry="60.94"/><path class="cls-2" d="M61.72,40.07a21.28,21.28,0,1,1-18.8,23.5,21.28,21.28,0,0,1,18.8-23.5M8.66,73.32c.34,3.06,2.69,3,7.05,2.86s8.26.73,10.41,4.41c.36.7.72,1.39,1.11,2.07,0,0,0,.06,0,.11,2,3.8.61,7.57-1.82,11.2s-3.76,5.57-1.36,7.49l4.62,3.7.11.09,4.63,3.7c2.41,1.92,4,.2,7-3s6.32-5.28,10.39-4.26c.75.25,1.52.47,2.29.67.06,0,.08.05.15.08,4.09,1.29,5.78,4.93,6.63,9.2s1.28,6.59,4.34,6.26l5.89-.65.14,0,5.89-.65c3.06-.34,3-2.69,2.86-7.05s.73-8.24,4.4-10.4c.7-.36,1.4-.72,2.08-1.12a.38.38,0,0,0,.12,0c3.79-2,7.57-.6,11.19,1.82s5.57,3.75,7.5,1.37.61-.77,3.71-4.63l.06-.07,0,0c3.09-3.86,1.79-2.25,3.69-4.64s.2-4-3-7-5.3-6.34-4.25-10.43q.36-1.1.65-2.23c0-.08.07-.1.09-.18,1.28-4.08,4.93-5.78,9.2-6.62s6.59-1.29,6.26-4.35-.11-1-.65-5.89a.59.59,0,0,0,0-.08.27.27,0,0,0,0-.05c-.56-4.92-.34-2.85-.67-5.89s-2.7-3-7.05-2.86S104.14,45.5,102,41.8c-.35-.68-.7-1.36-1.08-2,0,0,0-.08,0-.13-2-3.8-.6-7.58,1.83-11.2s3.75-5.57,1.36-7.49l-4.63-3.7-.07-.06,0,0c-3.87-3.09-2.26-1.79-4.64-3.7s-4-.2-7,3-6.35,5.32-10.46,4.25Q76.13,20.33,75,20c-.08,0-.1-.07-.2-.1-4.08-1.29-5.78-4.93-6.62-9.2s-1.29-6.59-4.34-6.26L58,5.13h-.14L52,5.81c-3.05.34-3,2.69-2.86,7.05s-.74,8.29-4.44,10.43h0c-.68.36-1.35.69-2,1.08a1,1,0,0,0-.14,0c-3.8,2-7.58.61-11.2-1.83s-5.57-3.75-7.49-1.36l-3.7,4.62L20,26h0c-3.09,3.86-1.79,2.25-3.69,4.64s-.2,4,3,7S24.59,44,23.53,48.07c-.23.73-.44,1.46-.64,2.2,0,.08-.07.1-.1.18-1.29,4.09-4.93,5.79-9.21,6.62S7,58.35,7.33,61.41s.1.9.67,6c.55,4.92.32,2.86.66,5.89"/></g></g></svg>
