<svg xmlns="http://www.w3.org/2000/svg" viewBox="0 0 127.24 124.59"><defs><style>.cls-1{fill:none;stroke:#7e7565;stroke-linecap:round;stroke-linejoin:round;stroke-width:3px;stroke-dasharray:0 8.8;}.cls-2{fill:#c49c5c;}</style></defs><title>engrane3</title><g id="Layer_2" data-name="Layer 2"><g id="Layer_1-2" data-name="Layer 1"><path class="cls-1" d="M72.39,122.64c28.79-4,51.25-27.2,53.35-55.95"/><path class="cls-1" d="M125.26,53.53C121.12,25.41,97.37,3.5,68,1.5"/><path class="cls-1" d="M54.85,2C26.06,5.92,3.59,29.15,1.5,57.9"/><path class="cls-1" d="M2,71.06c4.14,28.11,27.89,50,57.24,52"/><path class="cls-2" d="M61.56,44.08a18.64,18.64,0,0,1,20.67,16.2A18.43,18.43,0,0,1,65.69,80.52,18.63,18.63,0,0,1,45,64.33,18.43,18.43,0,0,1,61.56,44.08M14.86,72.74c.3,2.63,2.37,2.56,6.2,2.47s7.27.63,9.16,3.8c.32.6.63,1.2,1,1.79,0,0,0,.06,0,.1,1.74,3.28.54,6.53-1.6,9.65s-3.31,4.8-1.19,6.46l4.07,3.19.1.07,4.07,3.19c2.12,1.66,3.53.17,6.17-2.55s5.56-4.55,9.15-3.68c.66.22,1.34.41,2,.58.06,0,.07,0,.13.07,3.6,1.11,5.09,4.25,5.83,7.93s1.12,5.68,3.82,5.39l5.18-.56.13,0,5.18-.56c2.69-.29,2.62-2.32,2.52-6.08s.65-7.1,3.87-9c.61-.31,1.23-.62,1.83-1a.35.35,0,0,0,.11,0c3.34-1.7,6.67-.52,9.85,1.57s4.9,3.24,6.6,1.18.54-.67,3.26-4l.05-.06,0,0c2.72-3.33,1.57-1.94,3.25-4s.18-3.46-2.61-6-4.67-5.46-3.74-9q.31-.95.57-1.92c0-.07.06-.08.08-.15,1.13-3.51,4.34-5,8.1-5.7s5.8-1.11,5.51-3.74-.1-.84-.57-5.08a.43.43,0,0,0,0-.07.19.19,0,0,0,0,0c-.49-4.24-.29-2.46-.59-5.08s-2.37-2.57-6.21-2.46-7.29-.63-9.18-3.82c-.31-.59-.62-1.17-1-1.74,0,0,0-.07,0-.12-1.74-3.28-.53-6.53,1.61-9.65s3.3-4.8,1.2-6.46l-4.08-3.19-.06-.05,0,0c-3.41-2.66-2-1.54-4.08-3.19S87,21,84.39,23.7s-5.59,4.59-9.21,3.66q-.95-.3-1.92-.55c-.07,0-.09-.06-.17-.08C69.5,25.62,68,22.48,67.27,18.8s-1.13-5.68-3.82-5.4L58.26,14h-.12L53,14.55c-2.69.29-2.62,2.32-2.51,6.08s-.65,7.14-3.91,9h0c-.6.31-1.19.6-1.77.93l-.12,0c-3.35,1.7-6.67.52-9.85-1.58s-4.9-3.24-6.59-1.17l-3.26,4-.06.08h0c-2.72,3.33-1.58,1.94-3.25,4s-.18,3.45,2.61,6,4.67,5.47,3.73,9c-.2.63-.39,1.26-.56,1.89,0,.07-.06.09-.08.16-1.14,3.52-4.34,5-8.1,5.71s-5.8,1.1-5.5,3.74l.59,5.19c.48,4.24.29,2.46.58,5.08"/></g></g></svg>
