<svg xmlns="http://www.w3.org/2000/svg" viewBox="0 0 158.5 158.5"><defs><style>.cls-1{fill:none;stroke:#7e7565;stroke-linecap:round;stroke-linejoin:round;stroke-width:3px;stroke-dasharray:0 8.74;}.cls-2{fill:#c49c5c;}</style></defs><title>engrane1</title><g id="Layer_2" data-name="Layer 2"><g id="Layer_1-2" data-name="Layer 1"><path class="cls-1" d="M88,156.64a77.89,77.89,0,0,0,69-73"/><path class="cls-1" d="M156.64,70.53a77.89,77.89,0,0,0-73-69"/><path class="cls-1" d="M70.53,1.86a77.89,77.89,0,0,0-69,73"/><path class="cls-1" d="M1.86,88a77.89,77.89,0,0,0,73,69"/><path class="cls-2" d="M70.67,56.25A25.27,25.27,0,1,1,56.06,88.87,25.26,25.26,0,0,1,70.67,56.25m-51.08,54c1.3,3.41,4,2.62,9,1.2s9.71-1.62,13.28,2c.63.7,1.24,1.39,1.89,2a.7.7,0,0,1,.08.12c3.41,3.79,3,8.53,1.25,13.42s-2.66,7.52.67,9,1.06.49,6.42,2.88l.15.07,6.41,2.88c3.34,1.49,4.68-1,7.18-5.5s5.68-8,10.68-8c.94.06,1.88.09,2.83.09.08,0,.11,0,.19,0,5.09.26,8.12,3.94,10.37,8.6s3.44,7.21,6.85,5.9l6.58-2.51.15-.06c5.5-2.09,3.19-1.21,6.57-2.51s2.63-4,1.19-9-1.62-9.69,1.94-13.27c.71-.62,1.4-1.24,2.06-1.9,0,0,.09,0,.13-.09,3.77-3.39,8.53-2.95,13.4-1.24s7.52,2.65,9-.67.47-1.07,2.88-6.43l.05-.1,0-.05c2.4-5.36,1.38-3.11,2.88-6.43s-1-4.66-5.51-7.17-8-5.7-8-10.73c.06-.91.09-1.83.08-2.74,0-.1.06-.13.06-.24.27-5.07,3.95-8.11,8.6-10.35s7.2-3.44,5.9-6.85-.42-1.09-2.51-6.58l0-.09a.22.22,0,0,0,0-.06c-2.09-5.49-1.23-3.19-2.51-6.58s-4-2.62-9-1.18-9.74,1.63-13.31-2c-.61-.68-1.21-1.35-1.84-2-.05,0,0-.09-.1-.15-3.4-3.78-2.95-8.52-1.24-13.41s2.65-7.52-.67-9-1.05-.47-6.42-2.89l-.09,0-.06,0-6.43-2.87c-3.33-1.48-4.67,1-7.18,5.5s-5.71,8-10.76,8c-.9-.05-1.79-.08-2.69-.08a2.09,2.09,0,0,0-.25-.06c-5.08-.27-8.11-3.94-10.35-8.61s-3.45-7.19-6.86-5.9-1.08.43-6.58,2.51l-.09,0-.06,0c-5.49,2.1-3.18,1.22-6.58,2.51s-2.61,4-1.18,9,1.62,9.75-2,13.3h0c-.68.61-1.35,1.2-2,1.84-.05,0-.09,0-.15.09-3.77,3.4-8.52,3-13.41,1.24s-7.52-2.65-9,.67L18.6,52.33a1,1,0,0,1-.05.13s0,0,0,0c-2.41,5.37-1.39,3.13-2.87,6.43s1,4.67,5.5,7.18,8,5.71,8,10.75c-.06.9-.08,1.81-.08,2.72,0,.1-.06.13-.06.22-.26,5.09-3.93,8.13-8.61,10.37S13.23,93.6,14.52,97l2.57,6.73c2.09,5.48,1.22,3.18,2.5,6.57"/></g></g></svg>
