<svg id="Layer_1" data-name="Layer 1" xmlns="http://www.w3.org/2000/svg" viewBox="0 0 1159.36 680.89"><defs><style>.cls-1,.cls-4{fill:#5373b8;}.cls-2{fill:#e6e7e8;}.cls-3{fill:#bc9660;}.cls-10,.cls-4{font-size:13px;font-family:Helvetica-Bold, Helvetica;font-weight:700;}.cls-5{letter-spacing:-0.02em;}.cls-6{letter-spacing:-0.04em;}.cls-7{letter-spacing:-0.04em;}.cls-8{letter-spacing:0em;}.cls-9{letter-spacing:-0.07em;}.cls-10{fill:#2e3d5c;}.cls-11,.cls-12{fill:none;stroke-linecap:round;stroke-linejoin:round;}.cls-11{stroke:#5373b8;}.cls-12{stroke:#2e3d5c;}</style></defs><title>Artboard 1</title><path class="cls-1" d="M260.26,162a2.92,2.92,0,0,1,.87-1,1.94,1.94,0,0,1,1-.1c.52,0,1,.07,1.29-.49a.9.9,0,0,0,.12-.57c-.06-.29-.38-.47-.69-.65a1.75,1.75,0,0,1-.7-.57A1.72,1.72,0,0,1,262,158a.16.16,0,0,1,0-.12.09.09,0,0,1,.1,0,.81.81,0,0,1,.27.17c.13.1.24.19.36.14s.13-.13.09-.4a1.58,1.58,0,0,1,0-.19A.85.85,0,0,1,263,157a.61.61,0,0,1,.58-.17c.42.06.86.1,1.28.14l.36,0a3.21,3.21,0,0,1,.68.17,3.32,3.32,0,0,0,.54.15,1.37,1.37,0,0,0,0-.17,1.7,1.7,0,0,1,0-.33.12.12,0,0,1,.12-.1c.13,0,.24.13.33.25s.18.21.27.2.38-.31.53-.51l.11-.15.18-.24a1.74,1.74,0,0,1,.42-.48,3.66,3.66,0,0,1,.77-.41.09.09,0,0,1,.09,0,.14.14,0,0,1,0,.11,2.3,2.3,0,0,1-.14.55,2.8,2.8,0,0,0-.09.32l.15,0v0a.13.13,0,0,1,.08-.11c.18-.54.32-1.07.47-1.64l.2-.77a6.43,6.43,0,0,1,1.2-2.18l.24-.32A2.45,2.45,0,0,0,272,150a.71.71,0,0,0-.33-.53,4,4,0,0,0-2.43-.45h-.2c-1.53,0-3.62.06-4.25,2.18-.07.24-.13.49-.19.73a4.33,4.33,0,0,1-.92,2.1,2.76,2.76,0,0,1-1.74.82c-.29,0-.55-.08-.81-.06a3.6,3.6,0,0,0-.8.19l-.14,0a2.94,2.94,0,0,1-1.08.08,4.14,4.14,0,0,0-.67,0l-.46.07a1.66,1.66,0,0,1-1.4-.15,3.52,3.52,0,0,1-.56-.53,2,2,0,0,0-.83-.65h0a1.71,1.71,0,0,1-1.36-1.14,7.78,7.78,0,0,1-.31-1.26,7.87,7.87,0,0,0-.29-1.19c-.1-.26-.2-.52-.31-.77a8.83,8.83,0,0,1-.54-1.56c-.11-.51-.19-1-.26-1.56-.05-.35-.1-.69-.16-1a5.75,5.75,0,0,1-.08-2.25,18.89,18.89,0,0,1,.6-2.1l.12-.37c.08-.24.15-.48.22-.73s.17-.58.27-.87.19-.62.28-1l.06-.22a5.2,5.2,0,0,1,.55-1.19l.15-.28a1.24,1.24,0,0,1-.34-.25l-.12-.1a2.57,2.57,0,0,0-.37-.2,2.88,2.88,0,0,1-.41-.23,1.12,1.12,0,0,0-.54-.24h0a1.29,1.29,0,0,1-.74-.54l-.12-.14a4.13,4.13,0,0,0-.48-.47l-.07,0a.56.56,0,0,1-.22-.2,1.73,1.73,0,0,1-.09-.72c0-.1,0-.19,0-.26s0-.29,0-.44a5.24,5.24,0,0,0,0-.6,2.5,2.5,0,0,0-.54-1.07,4.85,4.85,0,0,1-.37-.58l-.12-.22a2.82,2.82,0,0,1-.33-.75c0-.16-.06-.32-.09-.47A4.79,4.79,0,0,0,249,128a4.39,4.39,0,0,0-1.07-1.73l-.1-.1a1.77,1.77,0,0,0-.72-.56,1.17,1.17,0,0,0-.37,0,1.78,1.78,0,0,1-.35,0c-.68-.14-1.08,0-1.29.54,0,.07-.06.16-.09.25a1.67,1.67,0,0,1-.4.73c-.23.2-.41,0-.54-.13a1,1,0,0,0-.13-.13,1.78,1.78,0,0,0-.45-.2,1.46,1.46,0,0,1-.68-.39,6.39,6.39,0,0,1-.64-.87l-.24-.37a2.63,2.63,0,0,1-.34-1,2.81,2.81,0,0,0-.28-.9,6.63,6.63,0,0,0-.77-1,6.57,6.57,0,0,1-.86-1.14l-.13-.25c-.26-.49-.46-.87-1-1a8.57,8.57,0,0,0-1.14-.21,8.55,8.55,0,0,1-1.22-.23c0,.07,0,.15,0,.23,0,.39-.05.88-.36,1.08a.9.9,0,0,1-.69,0l-.16,0c-.43-.08-.85-.14-1.25-.19l-.71-.08a5.7,5.7,0,0,1-2.6-.69,7.62,7.62,0,0,0-1.63-.73,6.19,6.19,0,0,1-2-1,6.5,6.5,0,0,1-.54-.54,6,6,0,0,0-.57-.57,2,2,0,0,0-.46-.25,1.42,1.42,0,0,1-.69-.48c-.09-.13-.16-.26-.23-.39a1.48,1.48,0,0,0-.74-.8.74.74,0,0,0-.53.1,1.6,1.6,0,0,1-.39.13,4.07,4.07,0,0,1-.94,0l-.27,0a5.44,5.44,0,0,1-1.13-.27h0c0,.16-.05.31-.07.48l0,.24a.62.62,0,0,0,.17.62l.08.1a1.27,1.27,0,0,1,.25.89,2.19,2.19,0,0,1-.1.46,1.3,1.3,0,0,0-.09.49c0,.28.32.88.51.91h0a.1.1,0,0,1,.06,0,.15.15,0,0,1,0,.1c0,.08,0,.16,0,.24a1.83,1.83,0,0,0,0,.43.68.68,0,0,0,.13.33,1.44,1.44,0,0,1,.12.23,1.68,1.68,0,0,1,.1.56.85.85,0,0,0,.17.56l.11.13a11.19,11.19,0,0,1,.68.89c.09.13.16.27.23.4a3.27,3.27,0,0,0,.33.53,5.16,5.16,0,0,1,.51.74,11.4,11.4,0,0,1,.59,1.27.16.16,0,0,1,0,.12.12.12,0,0,1-.08.07,2.48,2.48,0,0,0-1.27,1c-.27.4-.1.63.23,1a3.08,3.08,0,0,1,.27.36,8.79,8.79,0,0,0,1.19,1.43l.39.41a9.3,9.3,0,0,0,1.41,1.31l.06,0a1,1,0,0,1,.56.84,4.7,4.7,0,0,1-.17,1.56l-.09.42a2.85,2.85,0,0,1-.09.32,1.5,1.5,0,0,0-.11.53c.06.32.52.61.87.83a4,4,0,0,1,.37.25,5.8,5.8,0,0,1,1.78,3.24c.07.34.11.37.4.43a4.78,4.78,0,0,1,.48.13l.22.07a2,2,0,0,0-.43-1.76,3.39,3.39,0,0,1-.48-1.15c0-.05,0-.11,0-.16a1.72,1.72,0,0,1-.07-.36,1.24,1.24,0,0,1,0-.32,1,1,0,0,0,0-.24s0,0,0,0-.12,0-.39.41l0,.06a.1.1,0,0,1-.12,0,.12.12,0,0,1-.06-.12,5.32,5.32,0,0,0,0-.56,3.92,3.92,0,0,1,0-.94,1.85,1.85,0,0,1,.23-.63l0-.08-.1-.07a.52.52,0,0,1-.22-.19.76.76,0,0,1-.08-.43.84.84,0,0,0,0-.2.53.53,0,0,0-.15-.28.65.65,0,0,1-.17-.59V132a1.24,1.24,0,0,0-.14-1,2.2,2.2,0,0,1-.24-.63,1.71,1.71,0,0,0-.21-.56c0-.06-.08-.06-.15-.07a.55.55,0,0,1-.19-.05.92.92,0,0,1-.36-.51l-.05-.12c-.09-.21-.2-.41-.3-.61s-.24-.47-.34-.71a5,5,0,0,1-.4-1.52,3.46,3.46,0,0,0-.15-.64c0-.12-.07-.23-.1-.36a1.85,1.85,0,0,1,.07-1.43.79.79,0,0,0-.28-1.08.12.12,0,0,1,0,0l-.24-.09A3,3,0,0,1,224,122a3.53,3.53,0,0,1-.8-1.89,4,4,0,0,1,.13-2.15,1.37,1.37,0,0,1,.6-.85.53.53,0,0,1,.55.11l.11.08a7.93,7.93,0,0,0,1.53,1c.79.37.93,1.12.89,2.13v.09a6.75,6.75,0,0,0,.21,2.5c.14.43.27.88.38,1.32s.22.82.35,1.21a2.75,2.75,0,0,0,.76,1.12l.18.19.2.23c.29.33.58.67,1,.64a1.39,1.39,0,0,0,.29-.07.08.08,0,0,1,.09,0,.14.14,0,0,1,0,.11,3.63,3.63,0,0,0,.11,1.81,1.8,1.8,0,0,0,.91.85,3.93,3.93,0,0,1,.47.3,1.29,1.29,0,0,1,.34.47l.09.16a.74.74,0,0,1,0,1c-.38.5-.5.75-.17,1.23l.13.19a2.33,2.33,0,0,0,.74.8l.25.11a1.12,1.12,0,0,1,.68.5,1.38,1.38,0,0,1,.08.64,1.35,1.35,0,0,0,.06.53,1.15,1.15,0,0,0,.31.38,1.37,1.37,0,0,1,.39.52c.06.15.11.3.15.44a1.67,1.67,0,0,0,.52.92l.13.1a2.46,2.46,0,0,1,.79.87,9.55,9.55,0,0,1,.51,1.29l.16.46a6.34,6.34,0,0,0,.4.84,3.48,3.48,0,0,1,.59,2.12,2.07,2.07,0,0,1-.46,1l-.18.26a2,2,0,0,0-.2,1c0,.1,0,.21,0,.31a.17.17,0,0,1,0,.1.1.1,0,0,1-.08,0c-.12,0-.2,0-.24.1-.13.28.23,1.11.41,1.4a4.74,4.74,0,0,1,.28.56c.2.44.36.82.77.94.63.19,1,.74,1.33,1.33l.09.15c.1.15.18.3.26.44.26.48.46.85,1,1l.37.09a2,2,0,0,1,.75.28l.34.21a5.4,5.4,0,0,1,.51.34h0l.07.07.07.06v0c.27.25.52.52.77.79A9.62,9.62,0,0,0,245,156a9.26,9.26,0,0,0,1.68,1c.3.15.61.3.92.46a5.16,5.16,0,0,1,1.07.87,6,6,0,0,0,.91.77l.54.36a4.39,4.39,0,0,0,1.93.92,2.83,2.83,0,0,0,1.85-.54l.37-.2a1.4,1.4,0,0,1,1.33-.17,4.65,4.65,0,0,1,.94.74c.16.15.31.29.47.42l.22.18a5.6,5.6,0,0,1,1.35,1.35,2.8,2.8,0,0,1,.16.33c.05.11.1.23.16.33a.09.09,0,0,1,.09,0l.07.15a.26.26,0,0,0,.09.05h0C259.56,163.11,259.92,162.57,260.26,162Z"/><ellipse class="cls-2" cx="246.04" cy="173.37" rx="21.61" ry="2.18"/><ellipse class="cls-2" cx="246.04" cy="173.37" rx="21.61" ry="2.18"/><ellipse class="cls-2" cx="624.45" cy="187.65" rx="21.61" ry="2.18"/><path class="cls-1" d="M622.35,128.2a1.33,1.33,0,0,0-.3.22,1.79,1.79,0,0,1-.44.32,2,2,0,0,1-.92.09h-.22a.14.14,0,0,1-.11,0,.16.16,0,0,0,0,.13.89.89,0,0,0,.78.33c.48-.13,1-.28,1.65-.4a.8.8,0,0,0-.09-.61C622.63,128.12,622.51,128.12,622.35,128.2Z"/><path class="cls-1" d="M624.48,128.41h0a.61.61,0,0,0,0-.35.79.79,0,0,0-.59-.38.67.67,0,0,0,0,.42A.72.72,0,0,0,624.48,128.41Z"/><path class="cls-1" d="M636,142.95a1.77,1.77,0,0,1,.15.2c.15.21.17.21.22.18a1.52,1.52,0,0,0,.35-.66.38.38,0,0,0,0-.06h-.16a1.2,1.2,0,0,1-.26,0,.72.72,0,0,1-.2-.11l-.14-.09h0C635.81,142.73,635.81,142.79,636,142.95Z"/><path class="cls-1" d="M632.69,137.68a.48.48,0,0,0-.13-.1,1.81,1.81,0,0,1-.19.33,1.81,1.81,0,0,0-.1.17.19.19,0,0,1-.18.11,1,1,0,0,0,.12.54s0,0,.13,0,.15-.14.23-.26a1.42,1.42,0,0,1,.34-.4A1,1,0,0,0,632.69,137.68Z"/><path class="cls-1" d="M630.68,146.26c-.2-.12-.26-.08-.26-.08s0,0,0,.11a.26.26,0,0,1-.08.16c0,.11-.08.21-.13.32a2,2,0,0,0-.2.57.42.42,0,0,0,.47,0c.17-.08.33-.34.46-.77.06-.19.06-.19-.14-.31Z"/><path class="cls-1" d="M630.37,124.27a4.27,4.27,0,0,1-.16.41c-.14.34-.23.55-.16.72a4,4,0,0,0,.49.68,3,3,0,0,0,.27-1.21A2.57,2.57,0,0,0,630.37,124.27Z"/><path class="cls-1" d="M609.06,136.37a1.84,1.84,0,0,1,.5-.54,3.92,3.92,0,0,1,.89-.39,2.43,2.43,0,0,0,1.21-.7,2.48,2.48,0,0,0,.39-1.09,2.15,2.15,0,0,1,1-1.73,4,4,0,0,1,.52-.21,1.87,1.87,0,0,0,.89-.52,3.09,3.09,0,0,0,.5-.84.17.17,0,0,1-.09-.09.26.26,0,0,1,.08-.31,1.39,1.39,0,0,1,.17-.06l.09-.24a4.1,4.1,0,0,0-1.51-.41,1.33,1.33,0,0,1-.72.08l-.13,0a.19.19,0,0,1-.13-.16,7.46,7.46,0,0,1,.31-3c.08-.32.15-.63.21-.93s.14-.76.22-1.13.15-.72.22-1.08c0-.19.06-.42.08-.66a6.6,6.6,0,0,1,.18-1,6.59,6.59,0,0,1-.93-.24,4.94,4.94,0,0,0-1.1-.27l-.62-.06c-.72-.07-1.47-.14-2.2-.24a.75.75,0,0,0-.7.16,1,1,0,0,0-.16.64c0,.09,0,.18,0,.28,0,.36.11,1-.42,1.2-.37.16-.67-.09-.92-.29l0,0a1.75,1.75,0,0,0,.17.46,2.8,2.8,0,0,0,1.07.84c.6.34,1.22.69,1.37,1.38a2,2,0,0,1-.26,1.34c-.6,1.2-1.63,1.13-2.54,1.07a3.12,3.12,0,0,0-1.56.14,5,5,0,0,0-1.32,1.57c-.61.94-1.25,1.89-2,1.91.07.15.16.3.23.45a13.61,13.61,0,0,0,1.54,2.64,9.76,9.76,0,0,0,3.46,2.47,1.7,1.7,0,0,0,1.55.09A1.32,1.32,0,0,0,609.06,136.37Z"/><path class="cls-1" d="M628,161.31a2.53,2.53,0,0,1,.41-.45c.3-.23.34-.36.28-.86a4.19,4.19,0,0,0-.09-.48,3.11,3.11,0,0,1-.08-1.34.94.94,0,0,1,.82-.77l.11,0c.35-.1.4-.23.41-.25.05-.2-.35-.65-.57-.9a4.2,4.2,0,0,1-.31-.37,5.92,5.92,0,0,1-1.33-3,.5.5,0,0,1,0-.06,2.13,2.13,0,0,0-.75-.24l-.36-.08a3.29,3.29,0,0,1-1.48-.77.26.26,0,0,1-.06-.21,2,2,0,0,1,.28-.68h0a1.83,1.83,0,0,0-1.16-.25,1.39,1.39,0,0,0-.39.27c-.32.26-.7.59-1.11.26a.71.71,0,0,1-.21-.39.47.47,0,0,0-.09-.19.74.74,0,0,0-.39-.11l-.28,0-.26-.08-.36-.11a8.14,8.14,0,0,1-.3.93,3.62,3.62,0,0,0-.36,1.74,5.42,5.42,0,0,0,1.5,2.63,7.08,7.08,0,0,0,2,1.41l.39.22a2.2,2.2,0,0,0,.8.36c.45.07.65.29.78.84a5,5,0,0,1,0,1.79,6.57,6.57,0,0,0-.07,1.1l.36.06a3.32,3.32,0,0,1,.83.2,1.59,1.59,0,0,1,.28.17c.18.13.29.21.41.15A1.75,1.75,0,0,0,628,161.31Z"/><path class="cls-1" d="M621.81,149.86l.23,0a1,1,0,0,1,.56.19.86.86,0,0,1,.19.39.42.42,0,0,0,.08.19c.2.16.4,0,.71-.24a1.79,1.79,0,0,1,.5-.34,2,2,0,0,1,1.37.26l.23.1a.18.18,0,0,1,.1.14.26.26,0,0,1,0,.19l-.1.17a2.67,2.67,0,0,0-.22.45,3.22,3.22,0,0,0,1.26.6l.33.08a2.4,2.4,0,0,1,.83.27c0-.23,0-.46,0-.71a7.53,7.53,0,0,1,0-1c.06-.66.18-1.33.28-2l0-.18c.09-.55.22-1.07.34-1.56a13.81,13.81,0,0,0,.43-2.36,7.61,7.61,0,0,1,.12-.82,5.76,5.76,0,0,0,.12-.85,4.85,4.85,0,0,0,0-.58,2.43,2.43,0,0,1,.17-1.25,10,10,0,0,1,1.48-2.58c.37-.49.4-.56.19-1.13a4.59,4.59,0,0,1-.34-1.63,2.08,2.08,0,0,1-1.52.62,4.15,4.15,0,0,0-.63.11,2.14,2.14,0,0,1-1.4,0,1.69,1.69,0,0,1-.48-.45c-.27-.32-.37-.42-.65-.18l-.73.64c-.36.33-.74.66-1.13,1a4.32,4.32,0,0,0-.51.53c-.41.46-.83.93-1.26.91s-.44-.26-.55-.43-.13-.2-.19-.22a2,2,0,0,0-.28.19,1.86,1.86,0,0,1-.37.22,1.69,1.69,0,0,1-.6,0c-.22,0-.62,0-.7.08a.72.72,0,0,0,.13.3,1.48,1.48,0,0,1,.23.54,1.2,1.2,0,0,1-.43,1.26,2.42,2.42,0,0,1-2.26.52,3.81,3.81,0,0,0-.54-.05l-.41,0a8.46,8.46,0,0,1,.31,1.15,5.15,5.15,0,0,0,.48,1.52,1.33,1.33,0,0,0,.6.52,3.77,3.77,0,0,1,.38.23,2.73,2.73,0,0,1,1,1.38,7.36,7.36,0,0,1,.28,1.21,4.51,4.51,0,0,0,.49,1.62,2.9,2.9,0,0,0,1.59.84Z"/><path class="cls-1" d="M616.86,140.9a4.05,4.05,0,0,1,.58.06,2.08,2.08,0,0,0,2-.45c.26-.22.32-.37.26-.79a1.07,1.07,0,0,0-.17-.35,1.15,1.15,0,0,1-.2-.46.6.6,0,0,1,.11-.42c.2-.27.58-.25,1-.23a1.7,1.7,0,0,0,.49,0,1.59,1.59,0,0,0,.27-.17c.21-.15.39-.27.54-.24a.67.67,0,0,1,.39.37c.1.17.17.26.29.27.28,0,.66-.41,1-.78a4.88,4.88,0,0,1,.58-.58c.38-.29.75-.62,1.11-.94s.49-.44.74-.65c.54-.45.84-.08,1.1.22a1.6,1.6,0,0,0,.38.37,2.06,2.06,0,0,0,1.2-.06,4.33,4.33,0,0,1,.68-.12,2.13,2.13,0,0,0,1.23-.4.2.2,0,0,1,0-.08l.08-.08a.55.55,0,0,0,.09-.27.23.23,0,0,1,.13-.18,1.81,1.81,0,0,0-.47-.55,11,11,0,0,1-1.46-1.63,8,8,0,0,0-1.77-1.67,3,3,0,0,0-1.41-.36c-.2,0-.4,0-.59-.07l-.2,0a2.09,2.09,0,0,1-.72-.18,1,1,0,0,1-.35-.34.86.86,0,0,0-.17-.2c-.28-.2-.8.11-1.22.35l-.35.2a1.55,1.55,0,0,1-1.76,0,3.78,3.78,0,0,0-1.28-.31l-.63-.1a2.83,2.83,0,0,0-1.72.13,1.92,1.92,0,0,1-.77.05,1.89,1.89,0,0,0-.5,0,3.85,3.85,0,0,1-.7,1.27,2.25,2.25,0,0,1-1,.63,3.88,3.88,0,0,0-.48.19c-.53.27-.63.79-.75,1.39,0,0,0,.07,0,.11a2,2,0,0,1-.06.46,1.26,1.26,0,0,0,0,.36c0,.08.07.14.17.23a1.27,1.27,0,0,1,.18.18,3,3,0,0,1,.28.45,3.2,3.2,0,0,0,.19.33.54.54,0,0,0,.15.11.65.65,0,0,1,.28.27,1.52,1.52,0,0,1,0,1l0,.11c.36.18.56.15,1-.11a1.21,1.21,0,0,1,1.36.12,1,1,0,0,1,.54,1.07l0,.16c0,.33-.09.65-.13,1l-.07.38a1.36,1.36,0,0,0,0,.75.22.22,0,0,1,.06.18v0C616.37,140.87,616.65,140.89,616.86,140.9Z"/><path class="cls-1" d="M645.31,167.3a4.26,4.26,0,0,0,.57-.25,3.63,3.63,0,0,1,.67-.29,1.24,1.24,0,0,1,.26,0c.16,0,.26,0,.3-.08a1.27,1.27,0,0,0-.06-.44,2,2,0,0,1-.07-.39,2.22,2.22,0,0,1,0-.23.13.13,0,0,1-.12,0,.22.22,0,0,1-.12-.27,1.9,1.9,0,0,1,.21-.48,2.57,2.57,0,0,1-.81-.86,4.56,4.56,0,0,1-.26-.67,1.84,1.84,0,0,0-.37-.77,4,4,0,0,0-.42-.32c-.63-.45-1.55-1.11-1.53-2l-.62-.1c-.27,0-.53-.07-.79-.13a.14.14,0,0,1-.09-.06,2.63,2.63,0,0,0-3-.45l-.2.11a4.29,4.29,0,0,0-1.86,1.53l-.12.2c-.28.48-.44.71-1.06.69h-.14a1.85,1.85,0,0,1-1.71-.63,1.82,1.82,0,0,0-1.14-1,2.53,2.53,0,0,0-.59-.07c-.55,0-1.13-.07-1.34-.46a.87.87,0,0,1,.1-.89.68.68,0,0,0,.14-.41c-.06-.4-.75-.89-1.1-1a1.14,1.14,0,0,1-.5.27l-.12,0c-.31.08-.45.13-.52.43a2.64,2.64,0,0,0,.09,1.1c0,.19.08.36.1.53a1.23,1.23,0,0,1-.46,1.34,2.24,2.24,0,0,0-.34.37,2,2,0,0,1-.5.51.47.47,0,0,1-.28.05,3.59,3.59,0,0,0,.22.42,3.4,3.4,0,0,1,.35.68,2.53,2.53,0,0,1,2.87.27l.29.21a3.32,3.32,0,0,1,.81.71,3.35,3.35,0,0,1,.45,1,3,3,0,0,0,.35.84c.12-.06.2-.24.31-.51s.26-.65.55-.73a.14.14,0,0,1,.14,0,.23.23,0,0,1,.07.15c0,.12,0,.26,0,.41a3.82,3.82,0,0,0,.16,1.28,1.82,1.82,0,0,0,.82.8l0-.07a9.36,9.36,0,0,0,1-3c0-.11,0-.2,0-.29a1.17,1.17,0,0,1,.37-1,2.73,2.73,0,0,1,.89-.5l.42-.19c.27-.14.54-.32.82-.51a6.44,6.44,0,0,1,1.46-.8,1.45,1.45,0,0,1,1.46.22,1.48,1.48,0,0,1,.29.57,1.59,1.59,0,0,0,.16.37,5.34,5.34,0,0,0,2,1.29.17.17,0,0,1,.09.12.23.23,0,0,1,0,.17l-.12.33a6.62,6.62,0,0,0-.48,1.74c0,.59.08,1.54.44,1.77l.05,0a.18.18,0,0,1,.08,0h0a.68.68,0,0,1,.15-.15,3.46,3.46,0,0,1,1-.45Z"/><path class="cls-1" d="M618.23,119.55a3.39,3.39,0,0,1,.22-.87c.05-.16.1-.31.15-.48a5.56,5.56,0,0,0-1,.54,2.67,2.67,0,0,0-.62.71c-.1.14-.2.29-.32.43l-.18.23c-.33.44-.73,1-1.15,1s-.53-.23-.72-.46a2.08,2.08,0,0,0-.21-.23c0,.06,0,.13,0,.2a2.73,2.73,0,0,1-.07.59l0,0a4.76,4.76,0,0,0-.21,1.13c0,.26-.05.5-.09.72s-.14.72-.22,1.09l-.22,1.12c-.06.31-.13.63-.21,1a7.51,7.51,0,0,0-.32,2.6c.07,0,.12,0,.18,0s.09-.1.15-.1l.29,0a3.48,3.48,0,0,0,1.22-1.46,8,8,0,0,1,.85-1.25,9.58,9.58,0,0,0,1-1.48l.34-.55.16-.25a3.65,3.65,0,0,0,.73-1.74l0-.16a4.7,4.7,0,0,1,.37-1.45c.05-.12.12-.23.19-.34l.14-.27a3.82,3.82,0,0,1-.38-.06A.2.2,0,0,1,618.23,119.55Z"/><path class="cls-1" d="M615.76,139.79a3,3,0,0,0,.06-.32c0-.33.09-.65.14-1l0-.16c0-.29,0-.42-.36-.62s-.74-.31-1-.12a1.14,1.14,0,0,1-1.42.05.22.22,0,0,1-.09-.22,3.24,3.24,0,0,1,.07-.34,1.36,1.36,0,0,0,.07-.59.42.42,0,0,0-.16-.13.83.83,0,0,1-.25-.21,3.58,3.58,0,0,1-.21-.37,3,3,0,0,0-.24-.39.84.84,0,0,0-.13-.13,1,1,0,0,1-.24-.32l-.08.12a2.73,2.73,0,0,1-1.38.82,3.71,3.71,0,0,0-.82.36,1.5,1.5,0,0,0-.39.42,1.65,1.65,0,0,1-.64.62,1.85,1.85,0,0,1-.44.14l.41.17c.2.08.41.16.62.25a8.13,8.13,0,0,0,1.2.41,5,5,0,0,1,2.19,1.06A2.48,2.48,0,0,0,614,140a2.27,2.27,0,0,1,.52.23,2.08,2.08,0,0,0,.43.2,2.25,2.25,0,0,0,.28,0h0a.14.14,0,0,1,.21,0l.19,0h.06A2.64,2.64,0,0,1,615.76,139.79Z"/><ellipse class="cls-2" cx="624.62" cy="319.99" rx="21.61" ry="2.18"/><path class="cls-3" d="M597.19,532.79a1.2,1.2,0,0,0,1.71-.18,1.91,1.91,0,0,0,.17-.41,1.38,1.38,0,0,1,.29-.56c-.09-.15-.31-.12-.5-.09h-.18s0,0-.05-.06-.13-.45-.26-.48a.71.71,0,0,1-.33.39.32.32,0,0,1-.32-.09c-.13-.12-.42-.29-.55-.23a.09.09,0,0,1,0,.05,4.77,4.77,0,0,1-.14.5c0,.15-.1.31-.13.47A.68.68,0,0,0,597.19,532.79Z"/><path class="cls-1" d="M644.37,270.7l0-.15a3.65,3.65,0,0,0,.1-.6,1.31,1.31,0,0,0-.17-.72.49.49,0,0,1,0-.54.29.29,0,0,0,0-.17.08.08,0,0,0-.05,0,.78.78,0,0,0-.28,0,.86.86,0,0,1-.3,0l-.2-.08-.16-.07-.12,0a1,1,0,0,1-.44-.21,1.62,1.62,0,0,0-.26-.18l-.14-.09a.73.73,0,0,1-.18-.2l-.09-.12-.18-.19a1.81,1.81,0,0,1-.46-.63,1,1,0,0,1-.05-.28.71.71,0,0,0-.26-.55,3.37,3.37,0,0,0-.39-.34l-.29-.24a2.47,2.47,0,0,1-.26-.28l0-.06a.38.38,0,0,0-.08-.1.51.51,0,0,0-.25,0h-.09a.75.75,0,0,0-.22,0l-.17,0h-.15a.73.73,0,0,0-.27,0,.09.09,0,0,1,0,0,0,0,0,0,1-.08,0l-.07-.08c-.16-.19-.37-.43-.58-.46h0a.28.28,0,0,0-.2.1.36.36,0,0,1-.32.12.07.07,0,0,1,0-.08.34.34,0,0,1,.05-.14s0-.06,0-.08-.15-.1-.2-.13l-.11-.06a2.21,2.21,0,0,1-.4-.38l0-.07s0,0-.08-.06a.51.51,0,0,0-.32.13.84.84,0,0,1-.26.14c-.15,0-.25-.08-.34-.18a.78.78,0,0,0-.11-.11v.08a.73.73,0,0,1-.11.38.9.9,0,0,1-.17.16c-.09.08-.19.16-.2.26v0a.07.07,0,0,1-.06.07h0a.06.06,0,0,1,0-.07v-.11a1.1,1.1,0,0,1,.05-.36,1.87,1.87,0,0,1,.11-.24,1.22,1.22,0,0,0,.12-.26,1.55,1.55,0,0,0,.09-.87.6.6,0,0,0-.41-.28,1.24,1.24,0,0,1-.24-.1l-.11-.06a1.25,1.25,0,0,1-.31-.22,1.33,1.33,0,0,1-.19-.28l-.07-.13,0-.06c-.05-.09-.08-.13-.16-.15h-.1c-.11,0-.29,0-.31-.19a1.26,1.26,0,0,0-.35-.1L633,261a1.56,1.56,0,0,0-.63,0H632a2.69,2.69,0,0,0,0,.33c0,.29,0,.62-.23.77a.79.79,0,0,1-.66.09l-.12,0a2.23,2.23,0,0,1-.18.32,2.3,2.3,0,0,0-.18.32.07.07,0,0,1-.05,0,.06.06,0,0,1-.05,0,.53.53,0,0,1,.09-.47c.09-.17.12-.22,0-.3a.79.79,0,0,0-.52-.11c-.31,0-.66,0-.71-.45a1.45,1.45,0,0,1,0-.25c0-.15,0-.24-.11-.33a.77.77,0,0,0-.34-.11,1,1,0,0,1-.33-.1.08.08,0,0,1,0-.09l.06-.18a1.76,1.76,0,0,1,.39-.75,1.37,1.37,0,0,1,.82-.31.28.28,0,0,1,.06-.19c.09-.1.26,0,.42,0s.21.07.24,0a.4.4,0,0,0,0-.18.59.59,0,0,1,.11-.7.38.38,0,0,0,0-.49l-.15-.21a3.15,3.15,0,0,1-.5-.86,1.37,1.37,0,0,1-.06-.52c0-.08,0-.16,0-.25a2.13,2.13,0,0,0,0-.23,1.6,1.6,0,0,1,0-.41,2.74,2.74,0,0,1,0-.27,1.11,1.11,0,0,0,0-.47,1.29,1.29,0,0,1,0-.21c0-.17,0-.28-.12-.32a.07.07,0,0,1,0-.07,1,1,0,0,1,0-.12v-.06h-.18a1,1,0,0,1-.33.48,1.48,1.48,0,0,0-.15.16,3.62,3.62,0,0,0-.38.71c-.21.47-.42,1-.89,1.11a2.29,2.29,0,0,1-1.08,0h-.06c-.16,0-.33-.07-.38-.22a.29.29,0,0,1,0-.14.41.41,0,0,1-.17-.11l0,0,0,0a.12.12,0,0,0-.07,0l-.11,0h-.18c-.14,0-.3,0-.35-.12a.23.23,0,0,1,0-.15l-.09,0c-.18,0-.37-.1-.5,0s-.06.13,0,.27l0,0c.1.16.09.22-.05.38l0,0-.08,0a.5.5,0,0,1-.23,0h0a.59.59,0,0,1-.18-.08.44.44,0,0,0-.14-.06H624a.65.65,0,0,1-.29-.09l-.13-.06a.34.34,0,0,1-.08.18.32.32,0,0,1-.3.06.34.34,0,0,0-.32.07l0,0c-.11.13-.16.17-.34.09l-.06,0c-.12-.06-.21-.09-.32,0l-.09.09a.31.31,0,0,1-.28.15h0a1.12,1.12,0,0,1-.41-.19.91.91,0,0,1-.52-.77c0-.06,0-.12,0-.18a.58.58,0,0,0,0-.31.83.83,0,0,0-.08-.15.62.62,0,0,1-.12-.39.63.63,0,0,1,.17-.33.81.81,0,0,0,.1-.14.87.87,0,0,0,.07-.29,1.78,1.78,0,0,1,0-.21.77.77,0,0,1,.25-.37.49.49,0,0,0,.2-.4.55.55,0,0,0-.24-.47l-.06,0c-.1-.06-.26-.14-.21-.32a.34.34,0,0,1,.2-.2.35.35,0,0,0,.11-.07.49.49,0,0,0,0-.41.26.26,0,0,0-.15-.19.63.63,0,0,0-.53.16l0,0a.81.81,0,0,1-.18.69.33.33,0,0,1-.4.09.31.31,0,0,0-.32,0l-.2.13c-.26.18-.51.35-.65.32h0l-.12,0-.42-.07a1.12,1.12,0,0,0-.06.2.81.81,0,0,1-.14.34.05.05,0,0,1-.06,0,.77.77,0,0,1-.24-.26.8.8,0,0,0-.19-.23.4.4,0,0,0-.15-.06.35.35,0,0,1-.2-.1.36.36,0,0,1-.07-.18.57.57,0,0,0,0-.09s-.09,0-.13,0a.34.34,0,0,1-.23,0,2,2,0,0,1-.37-.25.8.8,0,0,0,.07.41.33.33,0,0,0,.13.14.33.33,0,0,1,.17.3.79.79,0,0,1-.06.22.72.72,0,0,0-.05.19.54.54,0,0,1,0,.12.26.26,0,0,0,0,.11,1,1,0,0,1,0,.59l0,.11h.21a.89.89,0,0,1,.43,0,.19.19,0,0,1,.12.2c0,.17-.27.29-.36.32s-.23.06-.35.25l0,0a.72.72,0,0,1-.23.22.5.5,0,0,0-.19.2l0,.1c0,.12-.07.16-.22.18a.66.66,0,0,1-.3-.06l-.17-.05a.61.61,0,0,1-.26.25.8.8,0,0,0-.17.13.56.56,0,0,0-.09.15c0,.11-.11.24-.24.26h0l0,0a.07.07,0,0,1,0-.06.28.28,0,0,0,0-.23c-.11-.13-.43,0-.62,0l-.17,0,0,0a.08.08,0,0,1,0-.05c0-.23-.12-.27-.34-.32s-.29-.06-.33-.21a1,1,0,0,1,.07-.36,2.2,2.2,0,0,0,.06-.22v-.1a2.09,2.09,0,0,0,0-.37,1,1,0,0,1-.15-.2s-.06,0-.09.08a.71.71,0,0,1-.14.14.79.79,0,0,1-.58.12.07.07,0,0,1,0-.08l0-.12a.47.47,0,0,1-.5.12l-.32,0-.38,0a.89.89,0,0,1-.26-.14c-.08-.05-.23-.14-.26-.13a1.62,1.62,0,0,0-.08.81c0,.18.18.2.39.21H611a.05.05,0,0,1,0,0,1,1,0,0,1,0,.46v.05a.07.07,0,0,1-.06.06l-.18,0a.64.64,0,0,0-.25,0l-.11,0a.48.48,0,0,1-.34,0,3.25,3.25,0,0,1,0,.4c0,.1,0,.21,0,.31a.51.51,0,0,0,.18.42l.06.07c.47.56.13,1.39-.17,2.13a4.76,4.76,0,0,0-.31.92c0,.1,0,.24,0,.38a2.92,2.92,0,0,1-.27,1.16.27.27,0,0,1-.28.13s0,.05,0,.05a2.24,2.24,0,0,0-.37.1,1.3,1.3,0,0,1-.7.1l-.21-.06a.85.85,0,0,0-.49-.06c-.13,0-.19.14-.27.27l-.08.13a.92.92,0,0,1-.55.36.91.91,0,0,0-.42.22,2.63,2.63,0,0,0-.46,1.12l-.05.2a.93.93,0,0,1-.41.56,1.21,1.21,0,0,0-.3.28c-.2.29-.08.87,0,1.22v.07a2.46,2.46,0,0,0,.18.5,1.5,1.5,0,0,1,.19,1,1,1,0,0,1,0,.12c0,.07,0,.07,0,.13a.44.44,0,0,0,.23.1.57.57,0,0,1,.28.14.7.7,0,0,1,.16.35,1.47,1.47,0,0,0,.06.19.47.47,0,0,0,.41.27h0c.41.06.61-.09.9-.44l.22-.26a0,0,0,0,1,.06,0,.06.06,0,0,1,0,0,2.91,2.91,0,0,1-.13,1.1c0,.17-.08.34-.11.49s0,.11,0,.17-.08.34,0,.4.11,0,.17-.08.12-.18.24-.18a.87.87,0,0,1,.46.24l.1.08c.1-.11.26-.05.36,0h0a.83.83,0,0,1,.35.22l0,0c.09.09.14.14.23.11a.58.58,0,0,0,.22-.21c.11-.14.23-.3.42-.21l.11.07c.09.06.11.08.18,0l.09-.15a1.17,1.17,0,0,1,.17-.24l.08-.09a.94.94,0,0,1,.27-.24l.2-.09a1.12,1.12,0,0,0,.35-.2h0a1.26,1.26,0,0,1,.48.09l.07,0a.45.45,0,0,0,.25,0,.48.48,0,0,0,.13-.08.37.37,0,0,1,.25-.1.26.26,0,0,1,.24.12.65.65,0,0,1,0,.43v.08c0,.11,0,.28-.14.34a.15.15,0,0,1-.16,0h0a.37.37,0,0,0,.12.32l.09.12c.09.14.06.24,0,.38a.33.33,0,0,1-.13.12,1.91,1.91,0,0,1,.11.4,2.36,2.36,0,0,0,.06.25s0,.1,0,.16a.76.76,0,0,0,.06.23.27.27,0,0,0,.11,0l.08,0a.52.52,0,0,1,.37.55v.07a.37.37,0,0,0,0,.21.08.08,0,0,0,.07,0,.15.15,0,0,1,.07-.07c.13-.07.36,0,.43.1a.51.51,0,0,0,.16.11l.06,0a.22.22,0,0,1,.15.2.65.65,0,0,1,.46.1l0,0a1.87,1.87,0,0,1,.35.32.5.5,0,0,1,.06.13.29.29,0,0,0,.06.12s0,0,0,0a.19.19,0,0,1,.08,0,.21.21,0,0,1,.19.07.34.34,0,0,1,0,.23.83.83,0,0,0,0,.13.17.17,0,0,0,0,.1s.07,0,.11,0a.44.44,0,0,1,.15,0h0a1.47,1.47,0,0,1,.4.15,2,2,0,0,0,.28.12l.09,0a.35.35,0,0,1,.19.06.22.22,0,0,1,.08.15.3.3,0,0,0,0,.06.59.59,0,0,0,.09.13.46.46,0,0,1,.14.35.41.41,0,0,1-.15.28.4.4,0,0,0-.09.11.86.86,0,0,0,0,.3s0,.08,0,.11a.87.87,0,0,1,0,.36.61.61,0,0,0,0,.26.32.32,0,0,0,.05.11.39.39,0,0,1,.08.18,1.48,1.48,0,0,1,0,.45v0a1.11,1.11,0,0,1,0,.12.57.57,0,0,0,0,.26.37.37,0,0,0,.11.13l.07.06a.79.79,0,0,0,.5.21l.22,0a4.9,4.9,0,0,0,.82.17s0,0,0,0a.56.56,0,0,1-.11.47.32.32,0,0,0-.08.25.89.89,0,0,0,.06.19c0,.05,0,.11.06.16a.72.72,0,0,0,.14.3.33.33,0,0,0,.17.09l.08,0c.16.06.18.09.16.29a1.19,1.19,0,0,0,.06.44,1.79,1.79,0,0,1,.07.33,1,1,0,0,1-.18.55l0,.06a1.6,1.6,0,0,1-.26.55l-.09.14-.06.11a.86.86,0,0,1-.15.22l0,0a.53.53,0,0,0-.12.14.41.41,0,0,1,0,.12.94.94,0,0,1,0,.3,1.13,1.13,0,0,0,0,.2,1.93,1.93,0,0,0,.06.48l0,.13a2.47,2.47,0,0,1,0,1,1.4,1.4,0,0,1-.14.31c-.06.11-.16.3-.14.35a.55.55,0,0,0,.14.11.72.72,0,0,1,.13.1.54.54,0,0,0,.29.2,3.75,3.75,0,0,1,.51.16c.13.05.2.08.27,0l0,0a.33.33,0,0,1,.17.05l.1,0h.1a.27.27,0,0,1,.26.07,1.49,1.49,0,0,1,.33.59.87.87,0,0,1,0,.28,1.07,1.07,0,0,0,0,.18l0,.12a.76.76,0,0,1,0,.43v0c-.06.18-.22.66-.09.8s.13,0,.24,0l.14,0h0c.15,0,.21,0,.27-.21a.07.07,0,0,1,.05,0,.61.61,0,0,1,.49.46.77.77,0,0,1-.16.48.84.84,0,0,0-.15.35,0,0,0,0,1,0,0l-.05.27a.83.83,0,0,1-.14.35l0,.07,0,.06a.43.43,0,0,1-.1.15.21.21,0,0,1-.08,0l-.05,0a.26.26,0,0,0,0,.16.17.17,0,0,0,0,.07.31.31,0,0,1,.05-.08.91.91,0,0,1,.2-.11l.13-.07c.13-.08.24-.13.34.08l.05.1a1,1,0,0,1,.13.31.89.89,0,0,1-.05.37,1.5,1.5,0,0,0,0,.17,1,1,0,0,0,0,.28,1.3,1.3,0,0,1,0,.24.41.41,0,0,1-.12.26.48.48,0,0,0-.09.13.22.22,0,0,0,0,.06.36.36,0,0,1,0,.14.25.25,0,0,1-.08.1l0,0-.05.07a.62.62,0,0,1-.19.19.65.65,0,0,1-.2.06l-.13,0,0,0a.22.22,0,0,1-.1.05.2.2,0,0,1-.1,0h0a.27.27,0,0,0-.21,0l-.1.11a.64.64,0,0,1-.18.16l-.25.11-.19.06a1.74,1.74,0,0,0-.27.1v0a.47.47,0,0,1-.16.35l-.06,0a2.37,2.37,0,0,1-.45.28l-.09,0a.84.84,0,0,0-.34.2.41.41,0,0,0-.07.15l0,.09a1.47,1.47,0,0,1-.19.31.91.91,0,0,1-.43.34.61.61,0,0,0-.35.3l0,0a1,1,0,0,0-.11.21h0a.05.05,0,0,1,.06,0l.1,0a.55.55,0,0,1,.14-.06.29.29,0,0,1,.2,0l.08,0c.06,0,.08,0,.14,0l0,0,0,0c.08-.06.11,0,.15,0h0l.05.11a.29.29,0,0,0,.09.13l.05,0a.24.24,0,0,1,.15.16.44.44,0,0,1,0,.21.43.43,0,0,0,0,.11.18.18,0,0,0,.06.12l.06.08a.22.22,0,0,1,0,.29l.13,0,.08,0h.07l0,0a.25.25,0,0,1,.28.09l.05,0,.08,0a.31.31,0,0,1,.14.1.3.3,0,0,1,0,.14.23.23,0,0,0,0,.08.4.4,0,0,0,.22.13h.06c.14,0,.18,0,.23.27a.64.64,0,0,0,.13.25l0,.05a1.63,1.63,0,0,0,.18.2,2,2,0,0,1,.19.22.84.84,0,0,0,.14.14.74.74,0,0,1,.2.23.4.4,0,0,1,0,.15.28.28,0,0,0,0,.08s0,0,0,0l.07,0a.24.24,0,0,1,.08.12l0,.06.05,0a.2.2,0,0,1,.12.15.17.17,0,0,1,0,.11.11.11,0,0,1-.09,0h0l-.08.06-.08.06a.3.3,0,0,1-.12,0,.17.17,0,0,0-.09,0,.44.44,0,0,0-.06.22v0a.1.1,0,0,1,0,.05s0,0,0,.06c0,.21,0,.46.14.57l0,0h0a.23.23,0,0,0,.16,0,.28.28,0,0,0,.08-.12.54.54,0,0,1,.08-.13l.12-.11a.63.63,0,0,0,.15-.17,1.92,1.92,0,0,1,.2-.3l.07-.13.07-.13.1-.12a.53.53,0,0,0,.11-.14.79.79,0,0,0,0-.15.75.75,0,0,1,.08-.23h0a.09.09,0,0,1,0-.06,1,1,0,0,0,.1-.33,1.55,1.55,0,0,1,.1-.33l0,0a1.33,1.33,0,0,1,.3-.46.47.47,0,0,1,.29-.07.42.42,0,0,0,.22,0,.44.44,0,0,0,.14-.23l.08-.19.09-.22a1.27,1.27,0,0,0,.08-.39.75.75,0,0,0,0-.1.58.58,0,0,1,0-.25.08.08,0,0,1,0,0h0a1.28,1.28,0,0,1,.37.39l.11.15a.85.85,0,0,0,.2.17h0a.29.29,0,0,1,.12.14,1,1,0,0,0,.35-.48l0-.09a.71.71,0,0,1,.14-.19.44.44,0,0,0,.12-.18v0a.3.3,0,0,1,.09-.17.21.21,0,0,0,.06-.09l0-.05a.36.36,0,0,1,.19-.18.39.39,0,0,0,.12-.08l0-.06a.51.51,0,0,1,.07-.11.24.24,0,0,1,.14-.05h.06c.06,0,.08-.06.11-.13l.06-.1.06-.1a.52.52,0,0,1,.21-.25h0l0,0,0-.06s0-.1,0-.14v-.08s0,0,0,0a.35.35,0,0,1,0-.09l0-.07h0a.81.81,0,0,0,0-.11.51.51,0,0,1,.08-.25.42.42,0,0,1,.13-.12.36.36,0,0,0,.09-.08s0,0,0-.11v-.07a.55.55,0,0,1,0-.1.25.25,0,0,0,0-.06.24.24,0,0,0,0-.05l0-.06a2,2,0,0,1,0-.35.41.41,0,0,1,.06-.17l0-.05a.77.77,0,0,0,0-.2.43.43,0,0,0,0-.12.43.43,0,0,1,0-.23.21.21,0,0,1,.07-.1l0,0v0a.34.34,0,0,1,0-.09l0-.07,0,0a.72.72,0,0,0,.05-.16.87.87,0,0,1,.07-.2l0,0a.21.21,0,0,1-.08-.11.44.44,0,0,1,0-.36.3.3,0,0,1,.15-.13l.05,0,.05-.07a.27.27,0,0,1,.13-.11c.07,0,.14,0,.21.08a.29.29,0,0,0,.1.07s0,0,0,0l0-.05.11-.1.05,0,.08-.08a1.08,1.08,0,0,1,.28-.22l.07,0a.3.3,0,0,0,.12-.06l.13-.11.12-.11.09-.09a.47.47,0,0,1,.29-.19h.2l.17-.06h0l.09-.05a.4.4,0,0,1,.12-.07h0a.15.15,0,0,1,.07-.09.07.07,0,0,1,.07,0,.07.07,0,0,1,0,0h0a.1.1,0,0,1,.07-.05.16.16,0,0,1,.09,0h0l.18,0a.27.27,0,0,1,.16.05.29.29,0,0,1,.06.12h0a.13.13,0,0,0,0-.06.39.39,0,0,0,0-.07.31.31,0,0,1,0-.18c0-.08.1-.21.22-.21a.34.34,0,0,1,.12,0,.12.12,0,0,0,.13,0l.06-.07.06-.08,0,0a.19.19,0,0,0,.07-.09.28.28,0,0,1,.15-.2.34.34,0,0,0,.12-.11h0a.37.37,0,0,1,.3-.15l.14,0a.18.18,0,0,1,.19,0l.07,0a.18.18,0,0,0,.1,0,.27.27,0,0,1,.16,0l.09,0a.28.28,0,0,0,.13,0h0c.1,0,.24,0,.29.12a.42.42,0,0,1,0,.11c0,.05,0,.07,0,.09s0,0,.08,0l.07,0a.3.3,0,0,1,.14,0h.06a.34.34,0,0,1,.3.1s0,0,.06,0a.17.17,0,0,1,.11,0,.22.22,0,0,1,.08.06l0,0a1.54,1.54,0,0,1,.19-.57.83.83,0,0,1,.25-.28l.05,0,.07,0,0-.06a.36.36,0,0,1,.12-.13h0a.06.06,0,0,1,0,0,.05.05,0,0,0,.06,0l0,0a.23.23,0,0,1,.1-.1l.11,0c.05,0,.1,0,.13,0a.52.52,0,0,0,0-.22.9.9,0,0,1,0-.19c0-.07,0-.13,0-.2a2.23,2.23,0,0,1,0-.23.77.77,0,0,1,.06-.15.42.42,0,0,0,.05-.16.36.36,0,0,1,.21-.35.48.48,0,0,0,.26-.16,1.34,1.34,0,0,1,.15-.15l.09-.08a1.06,1.06,0,0,0,.11-.16l.09-.13.19-.21.09-.1a.49.49,0,0,0,.07-.11.58.58,0,0,1,.1-.15,1,1,0,0,0,.21-.55,2.07,2.07,0,0,0,0-.32s0-.08,0-.11a2.4,2.4,0,0,1,.12-.59l0-.1a.81.81,0,0,1,.13-.32.4.4,0,0,1,.13-.1.26.26,0,0,0,.1-.08l0,0a.15.15,0,0,1,.14-.09h.1c.07,0,.07,0,.1-.14v-.07a2.19,2.19,0,0,1,.06-.27l.07-.22.06-.17a2.2,2.2,0,0,0,.07-.35,2.05,2.05,0,0,1,.1-.45,1.74,1.74,0,0,1,.15-.27,1.74,1.74,0,0,0,.12-.22,1.57,1.57,0,0,0,.09-.31,2.19,2.19,0,0,1,.05-.23l0-.06c.06-.18.08-.25,0-.39l0,0a.23.23,0,0,1-.06-.15.62.62,0,0,1,0-.2l0-.07a1.17,1.17,0,0,0,0-.3v-.08a1.24,1.24,0,0,1,.05-.35,1.94,1.94,0,0,0,0-.21c0-.07,0-.14,0-.21s0-.2,0-.29,0-.1,0-.15,0-.17,0-.25a4.18,4.18,0,0,1,.1-.5c0-.09,0-.19.06-.28a.78.78,0,0,0,0-.08.5.5,0,0,1,0-.18.07.07,0,0,1,.07,0,.9.9,0,0,1,.21.07l.18.06.16,0,.16,0c.05,0,.13,0,.16,0a.67.67,0,0,0,.13-.17l.06-.09a1.6,1.6,0,0,0,.28-.57.65.65,0,0,1,.19-.34.44.44,0,0,0,.06-.1.55.55,0,0,1,.09-.12l.11-.06a.6.6,0,0,0,.17-.11l0,0a.08.08,0,0,1,0-.06.74.74,0,0,1,.28-.58,2.73,2.73,0,0,1,.76-.43.78.78,0,0,0,.33-.27l.09-.14,0-.07.08-.1.06-.08s0,0,0-.09a.56.56,0,0,1,0-.1.5.5,0,0,1,.08-.23l0-.06a.06.06,0,0,1,.06,0h0a.65.65,0,0,0,.54-.18,1.86,1.86,0,0,0,.52-.58,1.36,1.36,0,0,0,.08-.44,1.33,1.33,0,0,1,.11-.56,2.06,2.06,0,0,0,.14-1A2,2,0,0,1,644.37,270.7Z"/><text class="cls-4" transform="translate(385.72 145.31)">Certificado CB<tspan class="cls-5" x="90.29" y="0">P</tspan><tspan x="-0.96" y="16">por SENANSIC</tspan><tspan class="cls-6" x="90.77" y="16">A</tspan></text><text class="cls-4" transform="translate(366.32 284.24)">Inspección de fábricas<tspan x="7.25" y="16">en conformidad por </tspan><tspan x="-19.25" y="32">Departamento de</tspan><tspan class="cls-7" x="86.94" y="32"> </tspan><tspan class="cls-8" x="90.07" y="32">Agricultura</tspan></text><text class="cls-4" transform="translate(735.99 123.02)">Certificado<tspan class="cls-6" x="67.9" y="0"> </tspan><tspan x="71.04" y="0">APPC / HACC</tspan><tspan class="cls-5" x="155.54" y="0">P</tspan><tspan x="-14.21" y="16">por IPS</tspan><tspan class="cls-6" x="31.3" y="16">A</tspan><tspan x="40.21" y="16" xml:space="preserve"> Nicaragua Certificado</tspan><tspan x="6.39" y="32">Exportador por SENAS</tspan><tspan class="cls-6" x="148.68" y="32">A</tspan><tspan x="39.01" y="48">de Costa Rica</tspan></text><text class="cls-4" transform="translate(710.01 287.78)">Certificado SIF emitido por la MA<tspan class="cls-9" x="204.41" y="0">P</tspan><tspan class="cls-6" x="212.12" y="0">A</tspan><tspan x="29.86" y="16">(Ministerio de</tspan><tspan class="cls-6" x="114.37" y="16"> </tspan><tspan x="117.5" y="16">Agricultura)</tspan></text><text class="cls-4" transform="translate(357.52 333.76)">Certificación SQF Nivel 3</text><text class="cls-4" transform="translate(359.11 179.25)">Certificación SQF Nivel 3</text><text class="cls-4" transform="translate(765.33 189.64)">Certificación SQF <tspan x="-7.25" y="16">Nivel 3 / FSSC 22000</tspan></text><text class="cls-4" transform="translate(771.33 320.93)">Por certificarse</text><text class="cls-10" transform="translate(225.7 202.92)">México</text><text class="cls-10" transform="translate(607.95 344.31)">Brasil</text><text class="cls-10" transform="translate(579.23 211.86)">Centroamérica</text><ellipse class="cls-2" cx="249" cy="315.91" rx="21.61" ry="2.18"/><path class="cls-1" d="M225.48,277.68a2.76,2.76,0,0,0,.6.14l.15,0a2.09,2.09,0,0,0,.49,0,.71.71,0,0,0,.19-.06.48.48,0,0,1,.36-.05.91.91,0,0,1,.46.48l.12.21a.68.68,0,0,0,.33.22,1.13,1.13,0,0,1,.28.15,3.12,3.12,0,0,1,.32.32,3.55,3.55,0,0,0,.29.29,3.3,3.3,0,0,0,1.08.54,4.15,4.15,0,0,1,.91.41,3,3,0,0,0,1.38.36l.39,0,.69.11.1,0c.1,0,.23.06.3,0s.12-.28.13-.46a2,2,0,0,1,0-.22.09.09,0,0,1,0,0h0a4.15,4.15,0,0,0,.71.14,5,5,0,0,1,.63.12c.32.09.45.33.59.61l.07.13a3.39,3.39,0,0,0,.46.6,3.82,3.82,0,0,1,.43.56,1.66,1.66,0,0,1,.17.54,1.3,1.3,0,0,0,.16.49l.13.2a3.27,3.27,0,0,0,.33.46.71.71,0,0,0,.33.19,1,1,0,0,1,.27.12l.09.09c.08.09.11.11.16.07a.8.8,0,0,0,.17-.33l.05-.15a.66.66,0,0,1,.83-.38h.17a.7.7,0,0,1,.23,0,1,1,0,0,1,.44.33l.05.06a2.54,2.54,0,0,1,.61,1,2.79,2.79,0,0,1,.1.42c0,.08,0,.17,0,.25a1.46,1.46,0,0,0,.16.37l.07.12a2.49,2.49,0,0,0,.19.3,1.48,1.48,0,0,1,.32.65,3.11,3.11,0,0,1,0,.35c0,.08,0,.15,0,.23s0,.1,0,.16a.89.89,0,0,0,0,.32.22.22,0,0,0,.08.07l0,0a2.22,2.22,0,0,1,.27.27l.07.08a.62.62,0,0,0,.34.26h0a.71.71,0,0,1,.34.15l.21.12.21.12.08.07a.49.49,0,0,0,.18.12l.06-.13h0a1.63,1.63,0,0,0,0-.2V289a1.57,1.57,0,0,1,.08-.55v0c.07-.27.13-.51.18-.76l0-.12a1.31,1.31,0,0,1,.13-.46.61.61,0,0,1,.28-.23l0,0a3.21,3.21,0,0,0,.4-.27l.31-.21a4.63,4.63,0,0,1,.6-.29l.25-.11a5.53,5.53,0,0,0,.84-.52,6.81,6.81,0,0,1,.71-.45h0c.12-.06.29-.15.43-.09a.39.39,0,0,1,.16.18.58.58,0,0,0,.07.1.57.57,0,0,0,.41.14h0a3.61,3.61,0,0,1,.66.1l.06,0a.76.76,0,0,0,.35,0l.16,0a.79.79,0,0,1,.27-.06.33.33,0,0,1,.29.17.84.84,0,0,1,.06.53.94.94,0,0,1,.38.15l0,0c.06,0,.09.07.14,0l.07-.05c.07-.06.13-.12.19-.09s.1.13.12.2v0h0c0-.15.07-.34.2-.39s.19,0,.23.09l0,0a.32.32,0,0,0,.23.1h0v0a1,1,0,0,0,.1-.25,1.5,1.5,0,0,1,.07-.21,1.65,1.65,0,0,0,.06-.17c0-.08,0-.09-.08-.13l-.18-.07a.68.68,0,0,1-.41-.26.08.08,0,0,1,0-.07.06.06,0,0,1,.05,0,.87.87,0,0,1,.32,0l.15,0,.32,0,.27,0,.58.06h.06a.34.34,0,0,1,.2,0l0,0a.11.11,0,0,0,.06,0,1.56,1.56,0,0,0,.29,0,2.27,2.27,0,0,1,.34,0l.13,0a.29.29,0,0,0,.16,0,.4.4,0,0,1,.21-.06,1.9,1.9,0,0,1,.51.11.48.48,0,0,1,.23.16l.05.1a.49.49,0,0,0,.06.1l.1.07.06,0h0c.14-.14.41-.38.55-.15a.41.41,0,0,1,0,.31.29.29,0,0,0,0,.17c0,.05.16.12.25.16l.12.06a.28.28,0,0,0,.27,0h.05a1.13,1.13,0,0,1,.44-.19h0l.11,0a.38.38,0,0,1,.32,0,.67.67,0,0,1,.22.34,1.09,1.09,0,0,0,.06.14,2.69,2.69,0,0,0,.18.27l.12.17.12.16a1.26,1.26,0,0,1,.37.87,1.49,1.49,0,0,1-.18.45,1,1,0,0,0-.16.56c0,.18,0,.37.06.55s.06.42.07.64l.1.06c.06,0,.14.09.18.07l0,0c.09,0,.15-.05.24.09a.41.41,0,0,1,0,.41.61.61,0,0,0-.06.22,1,1,0,0,0,.08.37,1.9,1.9,0,0,1,.06.18c.07.23.12.41.19.6a1.37,1.37,0,0,1,.06.45q0,.09,0,.18c.52.18.84.16,1-.46,0-.1.06-.2.08-.29a3.39,3.39,0,0,1,.11-.4l0-.1a1.15,1.15,0,0,0,.11-.57,6.27,6.27,0,0,1-.05-.76,2.82,2.82,0,0,0-.08-.61c0-.11,0-.22-.06-.34a1.6,1.6,0,0,1,0-.41,1.85,1.85,0,0,0,0-.3,2.37,2.37,0,0,0-.1-.48,3.38,3.38,0,0,1-.08-.34c0-.23-.08-.46-.13-.69s-.08-.42-.12-.64a2.25,2.25,0,0,1,0-.85.08.08,0,0,1,0-.05.86.86,0,0,1,.07-.26v0a.07.07,0,0,1,0-.05,1.91,1.91,0,0,1,.14-.21l.13-.18.11-.19a2.11,2.11,0,0,1,.34-.5,1.59,1.59,0,0,1,.56-.34l.1,0a3.81,3.81,0,0,0,.67-.41l0,0c.14-.1.28-.22.42-.34a4.1,4.1,0,0,1,.68-.5,2.55,2.55,0,0,0,.5-.34,1,1,0,0,0,.17-.22,1.09,1.09,0,0,1,.19-.24,1.51,1.51,0,0,1,.46-.21l.08,0a.63.63,0,0,1,.27,0h.16a.18.18,0,0,0,.13-.07.5.5,0,0,1,.12-.1.49.49,0,0,1,.35,0l.07,0a.62.62,0,0,0,0-.42l0-.09a.43.43,0,0,1-.09-.29.33.33,0,0,1,.13-.19,1.37,1.37,0,0,1,.4-.22h.06a.48.48,0,0,1-.17-.49.84.84,0,0,1,.33-.4.74.74,0,0,0,.29-.35h0a.07.07,0,0,1,0,0c0-.08-.19-.19-.29-.24l-.15-.1-.06,0a1.52,1.52,0,0,1-.34-.37.09.09,0,0,1,0-.07.07.07,0,0,1,.05,0h0c.11,0,.28,0,.31-.13a.55.55,0,0,0-.09-.32l0-.1,0-.13c0-.06,0-.11-.06-.16l-.05-.08a.47.47,0,0,1-.09-.18,1.83,1.83,0,0,1,.14-.63l.06-.18a.07.07,0,0,1,0-.05.05.05,0,0,1,.06,0c.28.64.42.75.46.74s0,0,0-.19a1.27,1.27,0,0,0-.06-.45c0-.07,0-.15-.05-.24a.46.46,0,0,1,0-.3.4.4,0,0,1,.29-.16l.16-.06c.14-.06.3-.13.4-.08a.23.23,0,0,1,.12.19.54.54,0,0,1-.17.38,1,1,0,0,0-.32.61.82.82,0,0,0,.13.55.5.5,0,0,1,0,.61,1.87,1.87,0,0,0-.2.6.9.9,0,0,0,.32-.45l0-.07a1,1,0,0,1,.26-.49l.12-.1a.66.66,0,0,0,.24-.27,1,1,0,0,0,0-.39c0-.05,0-.1,0-.15s0-.16,0-.25,0-.29,0-.43,0-.12,0-.18a1.15,1.15,0,0,1,0-.48.4.4,0,0,1,.46-.3.33.33,0,0,1,.22.41,1.71,1.71,0,0,1-.1.34,1.46,1.46,0,0,0-.09.29,1,1,0,0,0,0,.42l0,0a1.38,1.38,0,0,1,.2-.29.66.66,0,0,1,.16-.12l.11-.07h0a1.33,1.33,0,0,0,.39-.69,1,1,0,0,0,0-.37.85.85,0,0,1,0-.46.06.06,0,0,1,0,0,2.58,2.58,0,0,1,.56,0c.51.06,1.37.15,1.58-.08l0,0a1.24,1.24,0,0,0-.37,0,1.59,1.59,0,0,1-.35,0h0l-.13,0a1.06,1.06,0,0,1-.55-.17.07.07,0,0,1,0-.05.08.08,0,0,1,0-.06c.18-.23.66-.21,1-.19h.16a3.17,3.17,0,0,1,.63,0,.78.78,0,0,1,.21.09.54.54,0,0,0,.19.08c.21,0,.38-.46.49-.75l.05-.14.08-.19c.07-.18.14-.34.19-.53l0-.16a1.34,1.34,0,0,1,.11-.34,1.24,1.24,0,0,1,.6-.43l.23-.12a2.39,2.39,0,0,1,.43-.19,1.85,1.85,0,0,0,.49-.24,1,1,0,0,0,.19-.27c.08-.15.17-.31.29-.35s.3.06.41.18.15.15.22.15a.47.47,0,0,0,.15,0,.6.6,0,0,1,.17,0h.09a.63.63,0,0,0,.31,0l.08,0a1.42,1.42,0,0,1,.66-.18,1.83,1.83,0,0,0-.19-.45l-.08-.16a1.19,1.19,0,0,1-.34-.47,1.65,1.65,0,0,1-.06-1c0-.06,0-.14,0-.22a1.44,1.44,0,0,0,0-.92.66.66,0,0,0-.5-.21,1.33,1.33,0,0,1-.31-.06.76.76,0,0,1-.21-.13c-.11-.09-.17-.14-.33,0l-.1.08c-.2.16-.38.32-.57.49a.89.89,0,0,0-.23.43,2.22,2.22,0,0,1-.1.27,1,1,0,0,1-.21.27l-.11.13a1.74,1.74,0,0,0-.13.21,1.47,1.47,0,0,1-.16.25.93.93,0,0,1-.37.27.35.35,0,0,1-.3-.05l-.11,0c-.07,0-.09,0-.1,0a.41.41,0,0,0,0,.15.29.29,0,0,1-.09.18c-.08.07-.18,0-.29,0h0c-.39-.09-.79-.16-1.19-.22h0a14.58,14.58,0,0,1-1.52-.25h0a.8.8,0,0,0-.63,0c-.17.09-.35.19-.51.29l-.19.11-.31.16-.27.13-.06,0-.12.07a1.1,1.1,0,0,1-.24.85,1.2,1.2,0,0,1-1.26.45l-.32,0a2.13,2.13,0,0,1-1-.25c-.17,1-.5,1.12-1.29,1.28l-.48.12a4.93,4.93,0,0,1-1.86.26,1.14,1.14,0,0,1-.6-.26,1.25,1.25,0,0,1-.37-.87,1.31,1.31,0,0,1,.38-.84c.14-.18.27-.35.25-.47a.27.27,0,0,0-.16-.19l0,0a.75.75,0,0,1-.47-.88,2.27,2.27,0,0,1,.51-1.09c.15-.52-.51-.87-.83-1a.64.64,0,0,0-.69,0c-.19.11-.2.19-.24.38s0,.12,0,.18a.06.06,0,0,1-.06.05h0c-.33-.05-.44.23-.58.59a1.53,1.53,0,0,1-.41.69c-.32.25-1.11.81-1.42.54s0-1.33.18-1.75a1.66,1.66,0,0,1,.89-.92l.34-.2.38-.27a1.84,1.84,0,0,1,1.06-.48.34.34,0,0,0-.06-.19c-.16-.25-.67-.27-1-.29l-.27,0-.15,0a.87.87,0,0,1-.56-.19,1.64,1.64,0,0,1-.23-.37,1.36,1.36,0,0,0-.28-.42c-.18-.12-.59.11-.93.3a2.82,2.82,0,0,1-.43.22,1.13,1.13,0,0,0-.49.35.62.62,0,0,1-.68.25,2.47,2.47,0,0,1-.65-.37l-.32-.21a1.22,1.22,0,0,0-.23-.08.74.74,0,0,1-.43-.23.08.08,0,0,1,0-.05.08.08,0,0,1,0-.05,2.93,2.93,0,0,1,1-.53l.48-.18.35-.14c.16-.06.31-.12.45-.19a1.19,1.19,0,0,0,.27-.21l.18-.16h-.19l-.18-.06-.13,0h0a.25.25,0,0,1-.2-.15.56.56,0,0,0-.17-.17c-.06,0-.06,0-.13,0l0,0-.1.09-.11.1,0,0a0,0,0,0,1,0,0,1.29,1.29,0,0,0-.34-.38c-.06,0-.11,0-.2,0l-.11.06,0,0a.28.28,0,0,1-.15,0h0c-.07,0-.13-.09-.19-.17l-.06-.07a1.68,1.68,0,0,0-.38-.26l-.18-.1a2.41,2.41,0,0,0-.83-.38.38.38,0,0,0-.22,0l-.12,0a.44.44,0,0,1-.42-.14.82.82,0,0,0-.34-.17h0a.32.32,0,0,1-.18-.07.93.93,0,0,1-.24-.59,1.89,1.89,0,0,0-.07-.3.23.23,0,0,0-.12-.13l-.05,0s0,.05,0,.08,0,.1,0,.15a.38.38,0,0,1-.07.23c-.06.07-.15.07-.25.07h0l-.28,0-.25,0a6.13,6.13,0,0,1-.75-.09l-.41-.07-.89-.13-.58-.07c-.24,0-.49-.05-.73-.09l-.61-.12-.75-.15-.85-.12c-.57-.07-1.14-.19-1.69-.3L242,259a6.54,6.54,0,0,0-.72-.08c-.21,0-.44,0-.66-.07l-.18,0a2.4,2.4,0,0,0-.39-.06l-.41,0-.26,0c-.24,0-.48-.07-.71-.1s-.49-.09-.74-.11a17,17,0,0,1-1.85-.31c-.41-.08-.82-.17-1.24-.23h0l-.19,0a2.5,2.5,0,0,0-.54-.06.76.76,0,0,1-.37-.07.65.65,0,0,0-.24,0h-.08c-.24,0-.48-.05-.71-.09l-.16,0c-.59-.09-1.2-.18-1.8-.25s-.92-.14-1.36-.23l-.82-.15c-.45-.07-.9-.13-1.34-.19l-1-.14-1.25-.2-.46-.1a5.93,5.93,0,0,0-.66-.12h-.08l-.63-.08s0,0,0,0l-.1,0a1,1,0,0,0-.31-.1h-.18l0,0a1,1,0,0,1,.23.42,1.86,1.86,0,0,0,.07.19l0,.07a.35.35,0,0,1,.08.26.26.26,0,0,1-.08.16l-.07,0a.32.32,0,0,0,0,0,.8.8,0,0,0,.06.25.78.78,0,0,1,.06.39c0,.24-.18.49-.39.5s-.32-.13-.35-.39a1.9,1.9,0,0,1,0-.5l0-.1a.67.67,0,0,0,0-.24c0-.12-.26-.17-.39-.19l-.1,0-.28-.08a3.57,3.57,0,0,0-.69-.15c-.11,0-.29,0-.33.09s0,0,0,.07a.67.67,0,0,0,.1.16l.07.1c.07.11.13.22.18.34v0a.94.94,0,0,1,.13.73v.08c0,.2.08.31.36.38a.05.05,0,0,1,0,0,.09.09,0,0,1,0,.06.7.7,0,0,1-.23.27.6.6,0,0,0-.21.23,1.57,1.57,0,0,0-.1.6,2.58,2.58,0,0,1-.05.46c-.07.29-.11.61-.15.92a3.6,3.6,0,0,1-.74,2.13l0,0a.44.44,0,0,0-.17.31s0,.07,0,.11a.36.36,0,0,0,0,.16,2.73,2.73,0,0,1,.12.95c0,.16,0,.31,0,.47s0,.24,0,.36,0,.12,0,.18a.8.8,0,0,1-.19.6,1.47,1.47,0,0,1,.13.33,2,2,0,0,0,.08.22.87.87,0,0,0,.09.15.56.56,0,0,1,.13.42.92.92,0,0,1-.06.23.59.59,0,0,0-.05.23,1.79,1.79,0,0,0,0,.33,2.48,2.48,0,0,1,0,.28c0,.06,0,.11,0,.16a1,1,0,0,0,.11.48,3.62,3.62,0,0,0,.21.31l.13.18.05.08a.46.46,0,0,0,.15.18,1.51,1.51,0,0,0,.61.13,2.36,2.36,0,0,1,.44.06l.07,0c.1,0,.21,0,.25.14a.28.28,0,0,1,0,.2,1.2,1.2,0,0,1-.19.3l-.07.09a2.25,2.25,0,0,0-.42,1,1.69,1.69,0,0,0,0,.79,3.42,3.42,0,0,0,.53.94l.08.09a.91.91,0,0,1,.2.3.69.69,0,0,1,0,.31.54.54,0,0,0,0,.2c0,.16.19.21.33.25l.13,0,.11,0a2.46,2.46,0,0,1,.51.27l.26.17a3,3,0,0,1,.42.31,1.29,1.29,0,0,0,.2.15.74.74,0,0,1,.35.36,2.29,2.29,0,0,0,.24.4,2.94,2.94,0,0,1,.21.34,1.45,1.45,0,0,0,.22.33l.09.08a.77.77,0,0,1,.23.31h0a.07.07,0,0,1,0,.07Z"/><path class="cls-1" d="M252.41,275.85a.15.15,0,0,1-.14.07c0,.13,0,.17.13.24a.07.07,0,0,1,0,.05.09.09,0,0,1,0,.06,2.4,2.4,0,0,1-.73.55l-.09,0c-.08,0-.16.07-.19.15a.25.25,0,0,0,.12.29,3.57,3.57,0,0,1,.5-.49,1.33,1.33,0,0,1,.2-.12c.15-.08.32-.17.36-.31a.75.75,0,0,0,0-.32,1.16,1.16,0,0,1,0-.28c0-.22,0-.91-.32-1.05,0,0,0,.14.07.22C252.42,275.35,252.52,275.7,252.41,275.85Z"/><path class="cls-1" d="M251.83,275.49c-.07.19.19.39.37.54l.18.15a.08.08,0,0,1,0,.09.05.05,0,0,1-.07,0l-.17-.1a.62.62,0,0,0-.23-.12h-.07a1.28,1.28,0,0,0-.36.2.18.18,0,0,0-.07.1.34.34,0,0,0,.07.18l.05.09a.64.64,0,0,1,.07.21.53.53,0,0,1,.21-.14l.08,0a2.48,2.48,0,0,0,.63-.45c-.11-.08-.16-.2-.1-.42,0,0,0-.06.07-.05s.07,0,.08,0-.09-.55-.15-.75l0-.12a1.11,1.11,0,0,1-.27.27A.71.71,0,0,0,251.83,275.49Z"/><text class="cls-10" transform="translate(200.46 340.13)">Estados Unidos</text><line class="cls-11" x1="582.03" y1="224.13" x2="670.08" y2="224.13"/><line class="cls-11" x1="581.7" y1="223.88" x2="670" y2="223.88"/><line class="cls-11" x1="200.31" y1="223.88" x2="288.61" y2="223.88"/><line class="cls-11" x1="203.08" y1="358.06" x2="294.92" y2="358.06"/><line class="cls-11" x1="580.78" y1="358.06" x2="672.62" y2="358.06"/><line class="cls-12" x1="324.15" y1="98.97" x2="324.15" y2="364.67"/><line class="cls-12" x1="552.89" y1="98.97" x2="552.89" y2="371.85"/><line class="cls-12" x1="528.65" y1="224.32" x2="345.74" y2="224.32"/><line class="cls-12" x1="694.43" y1="98.97" x2="694.43" y2="364.67"/><line class="cls-12" x1="919.37" y1="224.32" x2="716.02" y2="224.32"/></svg>