<svg id="Layer_1" data-name="Layer 1" xmlns="http://www.w3.org/2000/svg" viewBox="0 0 150 200"><defs><style>.cls-1{fill:#5373b8;}.cls-2{font-size:18.12px;fill:#2e3d5c;font-family:Helvetica-Bold, Helvetica;font-weight:700;}.cls-3{fill:#e6e7e8;}</style></defs><title>centroamerica</title><path class="cls-1" d="M71.3,30.8a2.34,2.34,0,0,0-.52.39,3.14,3.14,0,0,1-.77.55,3.49,3.49,0,0,1-1.62.16l-.39,0a.24.24,0,0,1-.19-.09.28.28,0,0,0,0,.22,1.55,1.55,0,0,0,1.37.57c.85-.24,1.79-.49,2.89-.71a1.4,1.4,0,0,0-.16-1.08C71.8,30.66,71.59,30.65,71.3,30.8Z"/><path class="cls-1" d="M75,31.17h0a1.08,1.08,0,0,0-.07-.62,1.38,1.38,0,0,0-1-.66,1.17,1.17,0,0,0,.09.73A1.26,1.26,0,0,0,75,31.17Z"/><path class="cls-1" d="M95.18,56.67a3.11,3.11,0,0,1,.26.36c.25.36.31.37.38.32a2.66,2.66,0,0,0,.61-1.16.66.66,0,0,0,0-.11,1.62,1.62,0,0,1-.29,0,2.11,2.11,0,0,1-.46,0,1.26,1.26,0,0,1-.34-.19l-.24-.15v0C94.92,56.27,94.92,56.39,95.18,56.67Z"/><path class="cls-1" d="M89.45,47.42a.84.84,0,0,0-.23-.18,3.17,3.17,0,0,1-.33.57,3.17,3.17,0,0,0-.18.29.33.33,0,0,1-.32.2,1.72,1.72,0,0,0,.21.94s.08.08.24,0,.26-.24.4-.46a2.49,2.49,0,0,1,.59-.7A1.84,1.84,0,0,0,89.45,47.42Z"/><path class="cls-1" d="M85.92,62.48c-.36-.22-.45-.15-.46-.14s0,.06-.05.19a.46.46,0,0,1-.15.29c-.07.19-.15.37-.23.56a3.53,3.53,0,0,0-.35,1,.73.73,0,0,0,.82.08c.3-.14.58-.6.81-1.36.11-.34.11-.34-.25-.54Z"/><path class="cls-1" d="M85.37,23.91a7.49,7.49,0,0,1-.28.72c-.25.6-.4,1-.28,1.26a7,7,0,0,0,.86,1.18A5.27,5.27,0,0,0,86.15,25,4.5,4.5,0,0,0,85.37,23.91Z"/><path class="cls-1" d="M48,45.13a3.23,3.23,0,0,1,.88-.94,6.88,6.88,0,0,1,1.57-.69,4.27,4.27,0,0,0,2.12-1.23,4.34,4.34,0,0,0,.68-1.92c.22-1.12.48-2.39,1.73-3a6.93,6.93,0,0,1,.91-.36A3.28,3.28,0,0,0,57.45,36a5.42,5.42,0,0,0,.88-1.47.29.29,0,0,1-.16-.17.46.46,0,0,1,.14-.54,2.45,2.45,0,0,1,.31-.11c0-.14.11-.29.16-.43a7.18,7.18,0,0,0-2.65-.71,2.33,2.33,0,0,1-1.26.14l-.23,0a.33.33,0,0,1-.23-.27,13.08,13.08,0,0,1,.54-5.2c.14-.56.27-1.11.37-1.63s.25-1.33.39-2,.26-1.27.38-1.9c.07-.34.11-.74.15-1.17a11.57,11.57,0,0,1,.31-1.78,11.56,11.56,0,0,1-1.64-.43A8.66,8.66,0,0,0,53,17.89l-1.09-.11c-1.27-.12-2.58-.25-3.85-.42a1.31,1.31,0,0,0-1.23.28,1.71,1.71,0,0,0-.27,1.12c0,.15,0,.31,0,.49.07.63.2,1.7-.74,2.1-.64.28-1.18-.15-1.61-.51l-.08-.06a3.07,3.07,0,0,0,.29.81,4.92,4.92,0,0,0,1.87,1.48c1.06.6,2.15,1.22,2.4,2.42a3.55,3.55,0,0,1-.45,2.35c-1.06,2.11-2.86,2-4.46,1.87a5.47,5.47,0,0,0-2.74.25,8.72,8.72,0,0,0-2.31,2.75c-1.08,1.64-2.19,3.31-3.49,3.34.13.26.28.53.4.79a23.87,23.87,0,0,0,2.7,4.64,17.11,17.11,0,0,0,6.07,4.34,3,3,0,0,0,2.71.15A2.32,2.32,0,0,0,48,45.13Z"/><path class="cls-1" d="M81.3,88.86a4.44,4.44,0,0,1,.72-.79c.52-.4.6-.64.49-1.51a7.35,7.35,0,0,0-.16-.85,5.45,5.45,0,0,1-.13-2.35A1.64,1.64,0,0,1,83.65,82l.19,0c.62-.18.7-.4.71-.44.09-.35-.61-1.14-1-1.57a7.36,7.36,0,0,1-.54-.65A10.38,10.38,0,0,1,80.67,74a.88.88,0,0,1,0-.11,3.74,3.74,0,0,0-1.31-.42c-.23,0-.44-.09-.63-.15A5.77,5.77,0,0,1,76.15,72a.45.45,0,0,1-.1-.37,3.52,3.52,0,0,1,.49-1.2l0,0a3.22,3.22,0,0,0-2-.44,2.44,2.44,0,0,0-.69.48c-.56.46-1.24,1-1.95.45a1.25,1.25,0,0,1-.36-.69.83.83,0,0,0-.15-.34,1.3,1.3,0,0,0-.68-.2,3.23,3.23,0,0,1-.49-.09l-.45-.15c-.2-.05-.42-.12-.64-.19a14.27,14.27,0,0,1-.52,1.63,6.35,6.35,0,0,0-.64,3.06,9.5,9.5,0,0,0,2.63,4.61A12.41,12.41,0,0,0,74,81c.24.12.45.25.68.38a3.86,3.86,0,0,0,1.4.63c.79.13,1.14.5,1.38,1.48a8.8,8.8,0,0,1,0,3.14,11.52,11.52,0,0,0-.13,1.93l.64.11a5.83,5.83,0,0,1,1.46.35,2.78,2.78,0,0,1,.49.31c.31.24.5.37.71.26A3.07,3.07,0,0,0,81.3,88.86Z"/><path class="cls-1" d="M70.36,68.78a3.53,3.53,0,0,0,.4.07,1.73,1.73,0,0,1,1,.33,1.51,1.51,0,0,1,.34.68.74.74,0,0,0,.14.33c.34.29.7,0,1.25-.43a3.14,3.14,0,0,1,.88-.59,3.51,3.51,0,0,1,2.4.46l.41.17a.32.32,0,0,1,.18.24.45.45,0,0,1,0,.34c-.05.1-.11.2-.17.3a4.69,4.69,0,0,0-.39.79,5.65,5.65,0,0,0,2.21,1.05,4.81,4.81,0,0,0,.58.14,4.21,4.21,0,0,1,1.45.47c0-.4,0-.81,0-1.24a13.2,13.2,0,0,1,0-1.71c.1-1.16.31-2.32.5-3.46l.05-.31c.16-1,.39-1.87.59-2.74a24.22,24.22,0,0,0,.76-4.13,13.34,13.34,0,0,1,.21-1.45,10.11,10.11,0,0,0,.21-1.49,8.5,8.5,0,0,0,0-1,4.26,4.26,0,0,1,.3-2.19,17.45,17.45,0,0,1,2.59-4.52c.65-.87.7-1,.33-2a8,8,0,0,1-.6-2.86,3.64,3.64,0,0,1-2.67,1.08,7.29,7.29,0,0,0-1.1.2,3.76,3.76,0,0,1-2.46.07,3,3,0,0,1-.84-.78c-.47-.56-.66-.73-1.15-.32s-.86.74-1.28,1.13c-.64.57-1.29,1.16-2,1.69a7.58,7.58,0,0,0-.9.92c-.72.81-1.46,1.64-2.22,1.59-.53,0-.78-.46-1-.76s-.22-.35-.33-.38a3.43,3.43,0,0,0-.5.33,3.25,3.25,0,0,1-.64.39,3,3,0,0,1-1,.05c-.38,0-1.09,0-1.22.14a1.25,1.25,0,0,0,.22.52,2.6,2.6,0,0,1,.41.94A2.11,2.11,0,0,1,66.52,53a4.25,4.25,0,0,1-4,.92,6.68,6.68,0,0,0-.94-.09l-.72-.07a14.84,14.84,0,0,1,.55,2,9,9,0,0,0,.83,2.67,2.34,2.34,0,0,0,1.06.91,6.62,6.62,0,0,1,.67.4,4.78,4.78,0,0,1,1.76,2.43,12.9,12.9,0,0,1,.49,2.12,7.9,7.9,0,0,0,.86,2.84c.51.8,1.82,1.19,2.79,1.47Z"/><path class="cls-1" d="M61.69,53.08a7.11,7.11,0,0,1,1,.1,3.65,3.65,0,0,0,3.48-.79c.46-.38.56-.65.45-1.38a1.87,1.87,0,0,0-.3-.62,2,2,0,0,1-.35-.81,1,1,0,0,1,.19-.74c.34-.47,1-.44,1.73-.41a3,3,0,0,0,.87,0,2.78,2.78,0,0,0,.48-.3c.36-.26.68-.48.94-.42a1.17,1.17,0,0,1,.69.65c.17.29.3.45.51.47.49,0,1.15-.71,1.74-1.37a8.57,8.57,0,0,1,1-1c.67-.51,1.32-1.1,1.94-1.65.43-.39.86-.78,1.31-1.15.95-.79,1.48-.14,1.92.38a2.8,2.8,0,0,0,.67.64,3.62,3.62,0,0,0,2.11-.11,7.59,7.59,0,0,1,1.19-.21,3.73,3.73,0,0,0,2.16-.7.35.35,0,0,1,.08-.14l.13-.14a1,1,0,0,0,.17-.48.4.4,0,0,1,.23-.32,3.18,3.18,0,0,0-.83-1,19.37,19.37,0,0,1-2.56-2.86,14,14,0,0,0-3.11-2.92,5.26,5.26,0,0,0-2.47-.64c-.35,0-.7-.06-1-.12L75.7,35a3.66,3.66,0,0,1-1.27-.32,1.83,1.83,0,0,1-.61-.6,1.5,1.5,0,0,0-.3-.34c-.49-.34-1.4.2-2.14.62-.22.13-.43.25-.62.35a2.71,2.71,0,0,1-3.08.08,6.63,6.63,0,0,0-2.24-.55c-.37-.05-.73-.1-1.1-.17a5,5,0,0,0-3,.23,3.37,3.37,0,0,1-1.36.09,3.32,3.32,0,0,0-.88,0,6.75,6.75,0,0,1-1.22,2.22A4,4,0,0,1,56,37.71a6.8,6.8,0,0,0-.84.34c-.93.47-1.11,1.38-1.32,2.43,0,.07,0,.13,0,.19a3.41,3.41,0,0,1-.11.81,2.21,2.21,0,0,0-.08.63c0,.13.13.24.3.4a2.24,2.24,0,0,1,.31.32,5.19,5.19,0,0,1,.48.78,5.62,5.62,0,0,0,.34.58,1,1,0,0,0,.26.2,1.13,1.13,0,0,1,.5.47,2.67,2.67,0,0,1-.06,1.68c0,.07,0,.13,0,.2.63.32,1,.26,1.73-.19a2.12,2.12,0,0,1,2.39.21,1.7,1.7,0,0,1,.94,1.88l0,.28c-.08.57-.16,1.14-.23,1.71,0,.21-.08.43-.12.66a2.38,2.38,0,0,0-.07,1.31.38.38,0,0,1,.1.32.08.08,0,0,0,0,0C60.83,53,61.32,53,61.69,53.08Z"/><path class="cls-1" d="M111.58,99.37a7.46,7.46,0,0,0,1-.45,6.36,6.36,0,0,1,1.17-.5,2.17,2.17,0,0,1,.45-.06c.28,0,.46,0,.52-.14a2.22,2.22,0,0,0-.1-.77,3.5,3.5,0,0,1-.12-.69,3.89,3.89,0,0,1,0-.4.23.23,0,0,1-.22,0,.39.39,0,0,1-.21-.47,3.33,3.33,0,0,1,.36-.85,4.51,4.51,0,0,1-1.42-1.51,8,8,0,0,1-.45-1.18A3.23,3.23,0,0,0,112,91a7,7,0,0,0-.74-.57c-1.1-.78-2.72-1.94-2.68-3.48-.36-.07-.73-.11-1.09-.17s-.94-.13-1.39-.23a.25.25,0,0,1-.16-.11c-1-1.4-3.79-1.6-5.28-.78l-.34.19A7.53,7.53,0,0,0,97,88.58l-.2.35c-.49.84-.77,1.24-1.86,1.21h-.25c-1,0-2.33,0-3-1.1a3.19,3.19,0,0,0-2-1.79,4.43,4.43,0,0,0-1-.13c-1-.05-2-.12-2.36-.81a1.52,1.52,0,0,1,.18-1.56,1.2,1.2,0,0,0,.24-.72c-.11-.7-1.32-1.56-1.92-1.78a2,2,0,0,1-.88.48l-.21.06c-.55.15-.79.23-.92.76A4.63,4.63,0,0,0,83,85.46c.07.33.13.63.17.93a2.16,2.16,0,0,1-.81,2.35,3.93,3.93,0,0,0-.59.65,3.51,3.51,0,0,1-.88.89.83.83,0,0,1-.5.09,6.29,6.29,0,0,0,.39.73,6,6,0,0,1,.61,1.2,4.44,4.44,0,0,1,5,.47l.52.37a5.82,5.82,0,0,1,1.42,1.24,5.88,5.88,0,0,1,.78,1.77,5.25,5.25,0,0,0,.62,1.47c.21-.1.35-.42.54-.89s.45-1.14,1-1.29a.25.25,0,0,1,.24.06.4.4,0,0,1,.12.27c0,.21,0,.46,0,.72a6.7,6.7,0,0,0,.28,2.25,3.19,3.19,0,0,0,1.44,1.4l.05-.12a16.41,16.41,0,0,0,1.79-5.26c0-.19,0-.36,0-.52a2.06,2.06,0,0,1,.65-1.78,4.78,4.78,0,0,1,1.57-.88c.26-.11.51-.21.74-.33.47-.25.94-.56,1.44-.89a11.29,11.29,0,0,1,2.56-1.4,2.55,2.55,0,0,1,2.56.39,2.59,2.59,0,0,1,.51,1,2.79,2.79,0,0,0,.29.66,9.37,9.37,0,0,0,3.5,2.26.29.29,0,0,1,.17.21.4.4,0,0,1,0,.3l-.22.59a11.61,11.61,0,0,0-.84,3c-.06,1,.14,2.7.78,3.11l.09,0a.31.31,0,0,1,.14-.05h0a1.19,1.19,0,0,1,.26-.26,6.06,6.06,0,0,1,1.82-.78Z"/><path class="cls-1" d="M64.08,15.62a6,6,0,0,1,.38-1.53c.09-.27.18-.55.26-.84a9.75,9.75,0,0,0-1.7.95,4.69,4.69,0,0,0-1.08,1.24c-.17.24-.35.5-.56.76s-.19.26-.31.41c-.57.77-1.28,1.72-2,1.8-.56.07-.93-.4-1.27-.8a3.65,3.65,0,0,0-.36-.4c0,.11,0,.24,0,.36a4.78,4.78,0,0,1-.13,1s0,0,0,0a8.35,8.35,0,0,0-.37,2c0,.45-.09.87-.16,1.26-.12.63-.25,1.26-.38,1.91l-.39,2c-.1.54-.24,1.1-.37,1.68A13.17,13.17,0,0,0,55,32c.12,0,.2,0,.31,0s.15-.18.26-.17l.51,0a6.11,6.11,0,0,0,2.15-2.56,14,14,0,0,1,1.5-2.18,16.8,16.8,0,0,0,1.83-2.6l.6-1,.28-.43A6.4,6.4,0,0,0,63.71,20l0-.29a8.25,8.25,0,0,1,.65-2.54c.1-.21.21-.41.32-.6s.17-.32.25-.48a6.7,6.7,0,0,1-.67-.1A.35.35,0,0,1,64.08,15.62Z"/><path class="cls-1" d="M59.75,51.12a5.2,5.2,0,0,0,.11-.57c.08-.58.16-1.15.24-1.72l0-.28c.07-.51-.06-.73-.63-1.08-.77-.48-1.3-.55-1.84-.21a2,2,0,0,1-2.48.09.38.38,0,0,1-.16-.39,5.68,5.68,0,0,1,.12-.59,2.39,2.39,0,0,0,.13-1A.74.74,0,0,0,55,45.1a1.46,1.46,0,0,1-.43-.37,6.29,6.29,0,0,1-.38-.65,5.29,5.29,0,0,0-.42-.69,1.47,1.47,0,0,0-.23-.24,1.71,1.71,0,0,1-.41-.57c0,.07-.08.14-.13.21a4.79,4.79,0,0,1-2.42,1.45,6.51,6.51,0,0,0-1.43.63,2.64,2.64,0,0,0-.68.74,2.89,2.89,0,0,1-1.13,1.09,3.24,3.24,0,0,1-.76.24c.24.1.47.2.73.29s.72.27,1.08.44a14.26,14.26,0,0,0,2.1.72,8.83,8.83,0,0,1,3.84,1.85,4.35,4.35,0,0,0,2.31,1.18,4,4,0,0,1,.91.4,3.65,3.65,0,0,0,.76.35,4,4,0,0,0,.49.08v0a.25.25,0,0,1,.37.09l.34.06h.1A4.63,4.63,0,0,1,59.75,51.12Z"/><text class="cls-2" transform="translate(11.56 186.32)">Centroamérica</text><ellipse class="cls-3" cx="75" cy="128.12" rx="46.57" ry="4.7"/></svg>
