<svg id="Layer_1" data-name="Layer 1" xmlns="http://www.w3.org/2000/svg" viewBox="0 0 150 200"><defs><style>.cls-1{fill:#e6e7e8;}.cls-2{fill:#5373b8;}.cls-3{font-size:17.96px;fill:#2e3d5c;font-family:Helvetica-Bold, Helvetica;font-weight:700;}</style></defs><title>eu</title><ellipse class="cls-1" cx="74.28" cy="128.63" rx="46.57" ry="4.7"/><path class="cls-2" d="M23.56,62.22a6,6,0,0,0,1.28.3l.33,0a4.51,4.51,0,0,0,1.05,0,1.53,1.53,0,0,0,.4-.13,1,1,0,0,1,.77-.12,2,2,0,0,1,1,1c.08.15.16.3.26.44a1.47,1.47,0,0,0,.71.48,2.43,2.43,0,0,1,.59.32,6.73,6.73,0,0,1,.69.69,7.65,7.65,0,0,0,.62.62,7.11,7.11,0,0,0,2.33,1.17,9,9,0,0,1,2,.88,6.56,6.56,0,0,0,3,.78l.84.09c.47.07,1,.14,1.48.23l.2.05c.21.06.5.13.64,0s.26-.6.28-1a4.21,4.21,0,0,1,0-.48.19.19,0,0,1,.06-.11.12.12,0,0,1,.1,0,9,9,0,0,0,1.53.31,10.77,10.77,0,0,1,1.36.25c.69.19,1,.71,1.28,1.31l.15.29a7.31,7.31,0,0,0,1,1.3,8.24,8.24,0,0,1,.94,1.21,3.58,3.58,0,0,1,.37,1.16,2.79,2.79,0,0,0,.35,1.07l.29.44a7,7,0,0,0,.72,1,1.53,1.53,0,0,0,.71.41,2.16,2.16,0,0,1,.57.25,1.28,1.28,0,0,1,.2.19c.17.18.24.23.34.14a1.73,1.73,0,0,0,.36-.71c0-.11.08-.22.12-.31A1.43,1.43,0,0,1,54.23,75a1.53,1.53,0,0,0,.37,0,1.52,1.52,0,0,1,.5,0,2.22,2.22,0,0,1,.94.72l.11.12A5.46,5.46,0,0,1,57.47,78a6,6,0,0,1,.21.92c0,.18.06.36.1.53a3.14,3.14,0,0,0,.35.8l.14.26a5.36,5.36,0,0,0,.42.64,3.2,3.2,0,0,1,.68,1.4,6.7,6.7,0,0,1,0,.75c0,.16,0,.33,0,.49s0,.21,0,.34a1.93,1.93,0,0,0,.06.68.48.48,0,0,0,.17.14l.1.07a4.79,4.79,0,0,1,.59.58l.15.17a1.35,1.35,0,0,0,.74.56h0a1.53,1.53,0,0,1,.72.32,3.64,3.64,0,0,0,.45.25,3.34,3.34,0,0,1,.45.25l.17.14a1.05,1.05,0,0,0,.39.27c0-.09.09-.18.13-.27h0a3.52,3.52,0,0,0,0-.43c0-.07,0-.14,0-.19a3.38,3.38,0,0,1,.17-1.18v0c.15-.58.29-1.1.4-1.64,0-.08,0-.17.05-.26a2.83,2.83,0,0,1,.29-1,1.32,1.32,0,0,1,.6-.49l.08,0a6.92,6.92,0,0,0,.87-.57c.21-.16.44-.32.67-.46A10,10,0,0,1,68,80.4l.54-.23a11.92,11.92,0,0,0,1.82-1.12,14.68,14.68,0,0,1,1.54-1l0,0c.26-.14.63-.33.92-.19a.84.84,0,0,1,.34.4,1.25,1.25,0,0,0,.14.22,1.23,1.23,0,0,0,.88.3h.08a7.79,7.79,0,0,1,1.42.21l.13,0a1.64,1.64,0,0,0,.76.1,2.38,2.38,0,0,0,.34-.1,1.69,1.69,0,0,1,.59-.12.71.71,0,0,1,.63.36,1.82,1.82,0,0,1,.14,1.15,2,2,0,0,1,.83.32l.11.09c.12.11.19.15.31.1a.86.86,0,0,0,.14-.12c.14-.13.28-.25.42-.2s.22.27.26.44l0,0v0c.07-.32.15-.72.44-.85s.4.07.5.2l.07.09a.7.7,0,0,0,.5.21h0l0-.05a2.2,2.2,0,0,0,.21-.53,3.24,3.24,0,0,1,.15-.45,3.56,3.56,0,0,0,.12-.36c0-.18,0-.19-.16-.29a2.61,2.61,0,0,0-.38-.14,1.46,1.46,0,0,1-.89-.56.18.18,0,0,1,0-.16.14.14,0,0,1,.11-.09,1.87,1.87,0,0,1,.7.11l.33.08a5.53,5.53,0,0,0,.7.07l.58,0c.4.06.82.1,1.25.13h.13a.73.73,0,0,1,.42.08l.08.06a.24.24,0,0,0,.13.07,3.37,3.37,0,0,0,.62.06,4.89,4.89,0,0,1,.73.06l.28,0a.62.62,0,0,0,.33-.1.86.86,0,0,1,.45-.12,4.1,4.1,0,0,1,1.11.24,1,1,0,0,1,.5.34,1.47,1.47,0,0,1,.12.21,1.05,1.05,0,0,0,.14.22,1.11,1.11,0,0,0,.21.15l.12.08,0,0c.31-.29.89-.83,1.18-.32a.88.88,0,0,1,0,.67.63.63,0,0,0,0,.38c.05.11.35.26.53.35l.25.13a.61.61,0,0,0,.57.1l.11,0a2.43,2.43,0,0,1,.95-.41h.05l.24-.09a.81.81,0,0,1,.7-.09,1.44,1.44,0,0,1,.47.73,2.34,2.34,0,0,0,.14.31,5.8,5.8,0,0,0,.39.59l.26.37c.07.1.16.22.26.35a2.72,2.72,0,0,1,.81,1.87,3.2,3.2,0,0,1-.38,1,2.11,2.11,0,0,0-.35,1.2c0,.4.08.79.13,1.18s.13.91.15,1.38l.22.13c.13.08.3.19.39.16l.09,0c.19-.08.32-.11.52.2a.87.87,0,0,1,0,.89,1.31,1.31,0,0,0-.13.47,2.1,2.1,0,0,0,.18.8,4.09,4.09,0,0,1,.13.39c.14.5.27.89.41,1.29a3,3,0,0,1,.13,1q0,.19,0,.39c1.13.39,1.82.34,2.24-1,.06-.21.12-.42.17-.63a7.31,7.31,0,0,1,.24-.85l.08-.21a2.48,2.48,0,0,0,.24-1.23,13.52,13.52,0,0,1-.11-1.63,6.07,6.07,0,0,0-.18-1.31c0-.23-.1-.48-.14-.74a3.45,3.45,0,0,1,0-.89,4,4,0,0,0,0-.64,5.1,5.1,0,0,0-.21-1,7.29,7.29,0,0,1-.18-.74c-.08-.5-.18-1-.28-1.48s-.18-.92-.26-1.38a4.85,4.85,0,0,1,.06-1.83.17.17,0,0,1,0-.11,1.86,1.86,0,0,1,.14-.56v-.06a.15.15,0,0,1,.07-.11,4.11,4.11,0,0,1,.3-.46,4.8,4.8,0,0,0,.28-.4l.23-.42a4.55,4.55,0,0,1,.73-1.07,3.44,3.44,0,0,1,1.21-.73l.22-.09a8.22,8.22,0,0,0,1.44-.89l.06,0c.31-.22.61-.48.91-.73a8.84,8.84,0,0,1,1.47-1.08,5.49,5.49,0,0,0,1.08-.74,2.17,2.17,0,0,0,.36-.46,2.36,2.36,0,0,1,.42-.52,3.25,3.25,0,0,1,1-.46l.16-.05a1.35,1.35,0,0,1,.59,0,1.72,1.72,0,0,0,.35,0,.38.38,0,0,0,.29-.15,1.08,1.08,0,0,1,.25-.21,1,1,0,0,1,.76,0l.16,0a1.34,1.34,0,0,0-.08-.9l-.1-.19a.93.93,0,0,1-.19-.63.71.71,0,0,1,.27-.42,3,3,0,0,1,.87-.47l.12,0a1,1,0,0,1-.36-1.07,1.81,1.81,0,0,1,.71-.86,1.6,1.6,0,0,0,.63-.75h0a.15.15,0,0,1,.08-.1c0-.16-.42-.4-.62-.51a2.24,2.24,0,0,1-.33-.21l-.12-.1a3.27,3.27,0,0,1-.73-.79.19.19,0,0,1,0-.16.14.14,0,0,1,.11-.09h.06c.24,0,.6,0,.67-.28a1.19,1.19,0,0,0-.19-.68l-.1-.22-.1-.29c0-.12-.08-.24-.13-.36a1.23,1.23,0,0,0-.11-.18,1,1,0,0,1-.19-.38,3.93,3.93,0,0,1,.29-1.35c.05-.16.1-.3.12-.39a.15.15,0,0,1,.11-.12.12.12,0,0,1,.12.07c.6,1.38.91,1.62,1,1.6s.08-.09.11-.41a2.73,2.73,0,0,0-.12-1c0-.16-.08-.33-.11-.51a1,1,0,0,1,.06-.65.85.85,0,0,1,.62-.35,2.27,2.27,0,0,0,.34-.13c.3-.13.64-.28.86-.16a.49.49,0,0,1,.26.41,1.17,1.17,0,0,1-.37.82,2.25,2.25,0,0,0-.68,1.31,1.77,1.77,0,0,0,.27,1.18,1.08,1.08,0,0,1,.09,1.32,4,4,0,0,0-.44,1.28,2,2,0,0,0,.7-1l0-.14a2.06,2.06,0,0,1,.55-1l.25-.21a1.43,1.43,0,0,0,.51-.59,2.08,2.08,0,0,0,.06-.84c0-.11,0-.22,0-.32s0-.35,0-.53,0-.62,0-.92c0-.12,0-.26-.05-.39a2.49,2.49,0,0,1,0-1,.86.86,0,0,1,1-.65.72.72,0,0,1,.47.89,3.68,3.68,0,0,1-.22.73,3.15,3.15,0,0,0-.2.63,2.07,2.07,0,0,0,.06.9l0-.05a3,3,0,0,1,.43-.62,1.41,1.41,0,0,1,.35-.25,1.44,1.44,0,0,0,.24-.15.11.11,0,0,1,.08,0,2.87,2.87,0,0,0,.84-1.49,2.16,2.16,0,0,0-.09-.79,1.84,1.84,0,0,1,0-1,.14.14,0,0,1,.1-.1,5.55,5.55,0,0,1,1.21.07c1.11.12,3,.33,3.4-.17a.3.3,0,0,0,.06-.1,2.66,2.66,0,0,0-.8,0,3.43,3.43,0,0,1-.75,0h0l-.27,0A2.28,2.28,0,0,1,122,54a.14.14,0,0,1-.05-.11.18.18,0,0,1,0-.13c.39-.49,1.41-.45,2.09-.42h.35a6.84,6.84,0,0,1,1.35.09,1.69,1.69,0,0,1,.45.19,1.16,1.16,0,0,0,.41.17c.45,0,.82-1,1-1.63l.11-.3.16-.41c.15-.38.3-.74.42-1.13,0-.11.06-.22.08-.34a2.89,2.89,0,0,1,.23-.73,2.67,2.67,0,0,1,1.29-.93,5.22,5.22,0,0,0,.5-.25,5.14,5.14,0,0,1,.93-.41,4,4,0,0,0,1.06-.51,2,2,0,0,0,.41-.59c.18-.32.36-.66.62-.76s.64.14.89.4.32.33.47.33a1,1,0,0,0,.33-.07,1.28,1.28,0,0,1,.37-.08h.19a1.35,1.35,0,0,0,.67-.1l.17-.08a3.06,3.06,0,0,1,1.43-.38,3.94,3.94,0,0,0-.4-1l-.17-.34a2.56,2.56,0,0,1-.73-1,3.56,3.56,0,0,1-.13-2.07c0-.14,0-.3.08-.47a3.1,3.1,0,0,0,0-2,1.43,1.43,0,0,0-1.08-.45,2.87,2.87,0,0,1-.66-.14,1.64,1.64,0,0,1-.45-.29c-.24-.2-.38-.31-.71,0l-.21.17c-.43.35-.83.68-1.23,1.06a1.92,1.92,0,0,0-.49.93,4.79,4.79,0,0,1-.21.59,2.21,2.21,0,0,1-.44.59,3.16,3.16,0,0,0-.24.28,3.75,3.75,0,0,0-.27.45,3.16,3.16,0,0,1-.34.53,2,2,0,0,1-.79.59.75.75,0,0,1-.64-.12l-.23-.11c-.15,0-.2,0-.22,0a.89.89,0,0,0-.09.33.63.63,0,0,1-.19.4c-.17.15-.4.09-.62,0l-.09,0c-.83-.19-1.7-.35-2.57-.47h-.08a31.43,31.43,0,0,1-3.28-.55h0a1.73,1.73,0,0,0-1.35,0c-.38.19-.75.41-1.11.62l-.4.24c-.22.13-.45.24-.67.34s-.39.18-.58.29l-.14.09a1.37,1.37,0,0,1-.27.14,2.37,2.37,0,0,1-.51,1.83,2.58,2.58,0,0,1-2.71,1l-.69-.06a4.59,4.59,0,0,1-2.25-.54c-.36,2.07-1.08,2.41-2.77,2.77-.29.06-.66.16-1,.26a10.63,10.63,0,0,1-4,.56,2.45,2.45,0,0,1-1.29-.56,2.7,2.7,0,0,1-.8-1.88,2.82,2.82,0,0,1,.82-1.81c.3-.39.58-.75.55-1a.59.59,0,0,0-.33-.4l-.08-.05a1.62,1.62,0,0,1-1-1.91,4.89,4.89,0,0,1,1.09-2.34c.32-1.13-1.11-1.87-1.79-2.23a1.37,1.37,0,0,0-1.48,0c-.41.23-.44.4-.52.83,0,.12,0,.25-.09.4a.14.14,0,0,1-.14.12h0c-.71-.11-.94.5-1.24,1.28a3.31,3.31,0,0,1-.88,1.49c-.7.54-2.39,1.74-3.05,1.16-.89-.78,0-2.87.38-3.76a3.59,3.59,0,0,1,1.93-2c.23-.13.48-.26.74-.43s.56-.39.82-.59a4,4,0,0,1,2.28-1,.72.72,0,0,0-.12-.4c-.36-.54-1.43-.59-2.15-.63-.23,0-.43,0-.57,0l-.33,0A1.88,1.88,0,0,1,94.39,34a3.54,3.54,0,0,1-.5-.8,2.94,2.94,0,0,0-.61-.91c-.39-.27-1.28.24-2,.65a6.09,6.09,0,0,1-.93.47,2.44,2.44,0,0,0-1.05.74,1.34,1.34,0,0,1-1.47.55,5.33,5.33,0,0,1-1.4-.79c-.26-.18-.5-.34-.69-.44a2.62,2.62,0,0,0-.5-.18,1.59,1.59,0,0,1-.92-.5.17.17,0,0,1,0-.12.18.18,0,0,1,.05-.11,6.31,6.31,0,0,1,2.25-1.14c.36-.13.7-.24,1-.39s.51-.21.76-.31.67-.26,1-.41A2.57,2.57,0,0,0,90,29.9a4,4,0,0,1,.39-.34l-.19,0-.22,0a2.17,2.17,0,0,1-.39-.12l-.28-.09h0a.53.53,0,0,1-.44-.32,1.21,1.21,0,0,0-.36-.36c-.12-.08-.12-.08-.28.08l0,0a2.24,2.24,0,0,1-.22.2,1.62,1.62,0,0,0-.24.22.12.12,0,0,1-.1.05.1.1,0,0,1-.09-.06,2.77,2.77,0,0,0-.73-.81c-.13-.08-.24,0-.44.08l-.23.12-.09,0a.59.59,0,0,1-.32.1h0c-.14,0-.28-.2-.41-.36l-.13-.16a3.61,3.61,0,0,0-.83-.57l-.38-.22a5.19,5.19,0,0,0-1.79-.81.81.81,0,0,0-.46.08l-.26.09a1,1,0,0,1-.91-.29,1.77,1.77,0,0,0-.74-.37l-.1,0a.68.68,0,0,1-.39-.15,2,2,0,0,1-.53-1.27,4.08,4.08,0,0,0-.14-.65.49.49,0,0,0-.27-.27l-.12-.07c0,.06,0,.12,0,.17s0,.21,0,.32a.81.81,0,0,1-.15.5c-.13.16-.32.15-.54.15h0l-.61,0-.53,0a13.22,13.22,0,0,1-1.62-.19l-.89-.14-1.92-.29c-.42-.06-.84-.11-1.26-.16s-1.05-.11-1.57-.2-.89-.17-1.32-.27-1.08-.23-1.62-.31l-1.84-.26c-1.23-.16-2.45-.41-3.64-.65l-1.48-.3a14.1,14.1,0,0,0-1.54-.18c-.46,0-.94-.08-1.41-.16l-.38-.07A5.18,5.18,0,0,0,55,21.4a8.33,8.33,0,0,1-.88-.1l-.56-.07c-.51,0-1-.14-1.53-.23s-1.07-.18-1.6-.23a36.71,36.71,0,0,1-4-.67c-.87-.18-1.77-.37-2.67-.5h0l-.41-.07a5.39,5.39,0,0,0-1.17-.13,1.63,1.63,0,0,1-.8-.15,1.4,1.4,0,0,0-.52-.08h-.16c-.52,0-1-.11-1.53-.19l-.34-.05c-1.28-.2-2.59-.4-3.89-.55-1-.11-2-.31-2.93-.49-.58-.11-1.18-.23-1.78-.33-1-.16-1.95-.29-2.9-.41-.75-.1-1.5-.19-2.25-.31-1-.14-1.91-.3-2.7-.44-.34-.06-.67-.13-1-.2a12.77,12.77,0,0,0-1.42-.26l-.18,0-1.35-.17s-.07-.05-.08-.11l-.21-.08a2.14,2.14,0,0,0-.66-.22l-.27,0-.12,0,.08.09a2.09,2.09,0,0,1,.5.9,4,4,0,0,0,.16.41,1.06,1.06,0,0,0,.09.16.76.76,0,0,1,.17.57.56.56,0,0,1-.18.34.33.33,0,0,1-.15.08.68.68,0,0,0,0,.11,1.72,1.72,0,0,0,.12.54,1.69,1.69,0,0,1,.13.84c-.08.51-.39,1.05-.85,1.09s-.7-.28-.75-.85a4.1,4.1,0,0,1,.07-1.07c0-.07,0-.14,0-.22a1.44,1.44,0,0,0,.06-.53c-.05-.27-.57-.36-.85-.4l-.21,0-.6-.16a7.7,7.7,0,0,0-1.49-.32c-.23,0-.63.05-.71.2s0,.05,0,.15a1.45,1.45,0,0,0,.22.34l.16.22c.14.23.27.48.39.72l0,.05a2.54,2.54,0,0,1,.31.87,2.54,2.54,0,0,1,0,.7l0,.18c-.06.43.17.67.77.81a.11.11,0,0,1,.08.08.19.19,0,0,1,0,.14,1.51,1.51,0,0,1-.5.57,1.3,1.3,0,0,0-.44.5,3.39,3.39,0,0,0-.22,1.28,5.56,5.56,0,0,1-.11,1c-.15.63-.24,1.32-.33,2-.22,1.68-.45,3.41-1.59,4.58l0,0a1,1,0,0,0-.38.67c0,.08,0,.16,0,.23a.77.77,0,0,0,0,.35,5.89,5.89,0,0,1,.25,2c0,.34-.06.68-.09,1S11,36,11,36.3s0,.26,0,.38a1.73,1.73,0,0,1-.4,1.3,3.18,3.18,0,0,1,.27.71,4.32,4.32,0,0,0,.17.48,1.88,1.88,0,0,0,.19.33,1.21,1.21,0,0,1,.29.9,2,2,0,0,1-.14.5,1.28,1.28,0,0,0-.12.5,3.87,3.87,0,0,0,.11.72,5.34,5.34,0,0,1,.1.6c0,.12,0,.24,0,.35a2.22,2.22,0,0,0,.23,1,7.8,7.8,0,0,0,.45.66l.28.4.11.18a1,1,0,0,0,.33.39,3.26,3.26,0,0,0,1.32.27,5.09,5.09,0,0,1,.94.12l.15,0c.22,0,.45.09.53.31a.6.6,0,0,1,0,.43,2.58,2.58,0,0,1-.4.65l-.14.19a4.85,4.85,0,0,0-.9,2.07,3.65,3.65,0,0,0,0,1.71,7.37,7.37,0,0,0,1.15,2l.17.2a2,2,0,0,1,.43.64,1.5,1.5,0,0,1,0,.67,1.16,1.16,0,0,0,0,.42c.1.34.41.44.71.54l.27.1.23.1a5.3,5.3,0,0,1,1.11.58c.18.13.36.25.55.37a6.46,6.46,0,0,1,.91.66,2.77,2.77,0,0,0,.44.32,1.59,1.59,0,0,1,.75.78,4.94,4.94,0,0,0,.51.86,6.34,6.34,0,0,1,.45.73,3.12,3.12,0,0,0,.48.7l.18.18a1.67,1.67,0,0,1,.5.67.09.09,0,0,1,.1,0,.14.14,0,0,1,.07.15Z"/><path class="cls-2" d="M78.54,68.37a.19.19,0,0,1-.17.08c0,.16,0,.22.16.3a.09.09,0,0,1,0,.06.11.11,0,0,1,0,.08,3,3,0,0,1-.91.69l-.11.05c-.1,0-.2.09-.23.18a.31.31,0,0,0,.15.37,4.47,4.47,0,0,1,.62-.62,1.67,1.67,0,0,1,.25-.15c.19-.1.4-.21.45-.39a.94.94,0,0,0,0-.4,1.46,1.46,0,0,1,0-.35c0-.27,0-1.14-.4-1.32,0,0,0,.17.09.28C78.55,67.75,78.67,68.18,78.54,68.37Z"/><path class="cls-2" d="M77.82,67.92c-.08.24.23.49.46.67a2.09,2.09,0,0,1,.22.19.1.1,0,0,1,0,.11.07.07,0,0,1-.09,0,1.29,1.29,0,0,1-.21-.13.77.77,0,0,0-.29-.15h-.09a1.61,1.61,0,0,0-.45.25.23.23,0,0,0-.09.12.43.43,0,0,0,.09.23l.06.12a.8.8,0,0,1,.08.26.66.66,0,0,1,.26-.17l.1,0a3.1,3.1,0,0,0,.78-.56c-.14-.1-.2-.25-.12-.53,0,0,0-.08.09-.06s.08,0,.1,0-.11-.69-.19-.93l0-.15a1.39,1.39,0,0,1-.34.33A.89.89,0,0,0,77.82,67.92Z"/><text class="cls-3" transform="translate(7.14 185.85)">Estados Unidos</text></svg>
