<svg xmlns="http://www.w3.org/2000/svg" viewBox="0 0 137.56 48.18"><defs><style>.cls-1{fill:#343e5d;}.cls-2{fill:#5770b4;}</style></defs><title>libros</title><g id="Layer_2" data-name="Layer 2"><g id="_ÎÓÈ_1" data-name="—ÎÓÈ_1"><rect class="cls-1" x="61.96" y="6.32" width="5.35" height="10.7" transform="translate(42.22 73.4) rotate(-80.27)"/><path class="cls-1" d="M24.08,0H13.38V32.11h10.7Zm-4,26.76a1.34,1.34,0,0,1-2.68,0V8a1.34,1.34,0,0,1,2.68,0ZM20.07,4H17.39a1.34,1.34,0,1,1,0-2.68h2.68a1.34,1.34,0,1,1,0,2.68Z"/><polygon class="cls-2" points="40.14 16.59 40.14 48.17 52.77 48.17 40.14 16.59"/><rect class="cls-2" x="26.76" y="9.37" width="10.7" height="5.35"/><path class="cls-2" d="M37.46,17.39H26.76V40.14h10.7Zm-4,18.73a1.34,1.34,0,1,1-2.68,0V21.41a1.34,1.34,0,1,1,2.68,0Z"/><rect class="cls-2" x="26.76" y="42.82" width="10.7" height="5.35"/><rect class="cls-1" x="13.38" y="34.79" width="10.7" height="2.68"/><rect class="cls-2" y="40.14" width="10.7" height="8.03"/><rect class="cls-1" x="13.38" y="40.14" width="10.7" height="8.03"/><rect class="cls-2" y="34.79" width="10.7" height="2.68"/><path class="cls-1" d="M53.26,46.37l10.55,1.81L69,17.85,58.46,16Zm10-26.79a1.34,1.34,0,0,1,1.09,1.54h0L61.89,35.63a1.34,1.34,0,1,1-2.64-.45l2.49-14.51a1.34,1.34,0,0,1,1.54-1.09Z"/><path class="cls-2" d="M10.7,0H0V32.11H10.7Zm-4,26.76a1.34,1.34,0,1,1-2.68,0V8A1.34,1.34,0,0,1,6.69,8ZM6.69,4H4A1.34,1.34,0,1,1,4,1.34H6.69A1.34,1.34,0,0,1,6.69,4Z"/><rect class="cls-1" x="113.82" y="8.89" width="10.7" height="5.35" transform="translate(4.23 45.09) rotate(-21.8)"/><path class="cls-2" d="M96.48,0H85.78V32.11h10.7Zm-4,26.76a1.34,1.34,0,1,1-2.68,0V8a1.34,1.34,0,0,1,2.68,0ZM92.47,4H89.79a1.34,1.34,0,1,1,0-2.68h2.68a1.34,1.34,0,1,1,0,2.68Z"/><polygon class="cls-2" points="112.53 16.59 112.53 48.17 125.16 48.17 112.53 16.59"/><rect class="cls-1" x="99.16" y="9.37" width="10.7" height="5.35"/><path class="cls-1" d="M109.86,17.39H99.16V40.14h10.7Zm-4,18.73a1.34,1.34,0,1,1-2.68,0V21.41a1.34,1.34,0,1,1,2.68,0Z"/><rect class="cls-1" x="99.16" y="42.82" width="10.7" height="5.35"/><rect class="cls-2" x="85.78" y="34.79" width="10.7" height="2.68"/><rect class="cls-1" x="72.4" y="40.14" width="10.7" height="8.03"/><rect class="cls-2" x="85.78" y="40.14" width="10.7" height="8.03"/><rect class="cls-1" x="72.4" y="34.79" width="10.7" height="2.68"/><path class="cls-1" d="M127.62,47.1l9.94-4L126.13,14.55l-9.94,4ZM122.15,19a1.34,1.34,0,0,1,1.74.75h0l5.47,13.66a1.34,1.34,0,0,1-2.48,1l-5.47-13.67a1.34,1.34,0,0,1,.75-1.74Z"/><path class="cls-1" d="M83.1,0H72.4V32.11H83.1Zm-4,26.76a1.34,1.34,0,1,1-2.68,0V8a1.34,1.34,0,1,1,2.68,0ZM79.09,4H76.41a1.34,1.34,0,1,1,0-2.68h2.68a1.34,1.34,0,1,1,0,2.68Z"/></g></g></svg>
