<svg xmlns="http://www.w3.org/2000/svg" viewBox="0 0 100.69 44.99"><defs><style>.cls-1{fill:#343e5d;}</style></defs><title>trailer2</title><g id="Layer_2" data-name="Layer 2"><g id="_ÎÓÈ_1" data-name="—ÎÓÈ_1"><path class="cls-1" d="M12.72,32.62a6.27,6.27,0,1,0,5.39,3.2A6.17,6.17,0,0,0,12.72,32.62Zm3.16,6.55a3.18,3.18,0,0,1-6.33,0,3.3,3.3,0,0,1,0-.36,3.2,3.2,0,0,1,6.4,0A2.61,2.61,0,0,1,15.88,39.17Z"/><path class="cls-1" d="M30.82,32.62a6.27,6.27,0,1,0,5.39,3.2A6.17,6.17,0,0,0,30.82,32.62ZM34,39.17a3.18,3.18,0,0,1-6.33,0,3.3,3.3,0,0,1,0-.36,3.2,3.2,0,0,1,6.4,0A3,3,0,0,1,34,39.17Z"/><path class="cls-1" d="M85.82,32.62a6.19,6.19,0,0,0-6.19,6.19,5.92,5.92,0,0,0,.07.71,6.17,6.17,0,1,0,6.12-6.89ZM89,39.17a3.18,3.18,0,0,1-6.33,0,3,3,0,0,1,0-.36,3.2,3.2,0,0,1,6.4,0A3.62,3.62,0,0,1,89,39.17Z"/><path class="cls-1" d="M99.72,25.73,98,13.46h.65V11.4H84.52A1.58,1.58,0,0,0,82.68,13V26.81a8.15,8.15,0,0,0-1.85.18V14.84a1.58,1.58,0,0,0-1.05-1.48V8.79a.54.54,0,1,0-1.08,0v4.56a1.58,1.58,0,0,0-1.05,1.48V28.37s0,0,0,0A7.34,7.34,0,0,0,76.11,30h-.7V0H0V30H1.81v5.86H6.35a7,7,0,0,1,12.74,0h5.37a7,7,0,0,1,12.74,0h9.65a2.66,2.66,0,0,0,2.45,3.69h10a2.66,2.66,0,0,0,2.45-3.69H75.3v3.69h3.54a6.84,6.84,0,0,1-.07-.71,7.06,7.06,0,0,1,14.11,0,6.84,6.84,0,0,1-.07.71h4.74l3.15-3.36V26.49Zm-13.9-.54V14.49H96l1.47,10.69Z"/></g></g></svg>
