<svg xmlns="http://www.w3.org/2000/svg" viewBox="0 0 109.23 55.69"><defs><style>.cls-1{fill:#5770b4;fill-rule:evenodd;}</style></defs><title>vaquita1</title><g id="Layer_2" data-name="Layer 2"><g id="_ÎÓÈ_1" data-name="—ÎÓÈ_1"><path class="cls-1" d="M105,51.37a9.07,9.07,0,0,1,2.16-5.4,24.49,24.49,0,0,0-4.32,3c.14-.27.27-.68.41-.95-.54.41-1.08.95-1.62,1.35.14-1.22.27-2.3.41-3.38-.54,1.62-1.22,3.11-1.89,4.73A9.8,9.8,0,0,0,96.4,44.2,10.33,10.33,0,0,1,97.48,51a15.77,15.77,0,0,0-2.72-2.74.94.94,0,0,0,.12-.61l-1.67-9.93a5.05,5.05,0,0,0-1.28-7.52c-.7-4.07-1.41-8.21-2-11.79V18.2c0-.49.07-1,.07-1.5A9.4,9.4,0,0,1,90.42,14l2.23,12.3a1,1,0,0,0,.94.78h.14a1,1,0,0,0,.81-1.05L92.38,7.37a14.54,14.54,0,0,0,.22-2.45C92.6.35,89.52,0,88.58,0a4.75,4.75,0,0,0-.92.09h-53c-.88,0-2.41.7-5,1.95-2.24,1.06-5.31,2.51-6.5,2.51a2.65,2.65,0,0,0-1.7.62,26,26,0,0,1-3.25-.5,3.19,3.19,0,0,0-3.21-2.34C13.21,2.32,12.05,4,11.5,5a22.89,22.89,0,0,0-4.71-.86C5.09,4.18,5,5.2,5,5.51,5,6.52,6,6.94,7,7.34a10.37,10.37,0,0,1,1,.44,4.48,4.48,0,0,1,1.06.78c-.12,1.11-.42,3.93-.41,4.76A17.83,17.83,0,0,1,7.13,16c-1.39,2.17-2.24,3.56-2.24,4.5a4,4,0,0,0,4.38,4A8.21,8.21,0,0,0,14,22.7a28.55,28.55,0,0,1,2.57-1.53A24.23,24.23,0,0,1,19,20.11l4.16,1.43c3.95,9.19,6.53,11.09,8.21,11.39.26.82.5,1.63.72,2.43a4.19,4.19,0,0,0,1.15,6,5.94,5.94,0,0,1,0,.77c-.11,1.25-.23,2.17-.34,2.85h0c-.28-.27-.56-.53-.85-.77l.25.56a25.36,25.36,0,0,0-2.71-.83,36.44,36.44,0,0,1,2.84,2.95,1.75,1.75,0,0,0-.09.62c0,.53.19,1,.72,1h.23A8.72,8.72,0,0,1,33.1,51c-2.7-3.51-6.35-5.27-10.27-6.49A9.21,9.21,0,0,1,28,50.55,28.34,28.34,0,0,0,16.75,44.2c2.84,2.3,5.68,4.73,6.49,8C19.59,48.26,15,45.69,9.86,43.66A16.21,16.21,0,0,1,15.94,51a86,86,0,0,0-7-7c1.49,2.3,3,4.46,2.84,6.76A23.64,23.64,0,0,0,0,43.93,40.2,40.2,0,0,1,8.65,55.69H70.51a7.72,7.72,0,0,1,.94-2.89c.55.93,1.08,1.89,1.58,2.89h32.29c.14-2,1.76-4.59,3.92-7.3A31.88,31.88,0,0,0,105,51.37Zm-63.73-.68c-.17-.18-.35-.34-.53-.51a7.36,7.36,0,0,1,.34-1.23A5.55,5.55,0,0,1,41.32,50.69Zm2.15-1.92h.79l-.49.31ZM38.08,34.52l.18-3.68.86-.52A46.68,46.68,0,0,1,41.19,36a4.17,4.17,0,0,0-.8,2.46,4.22,4.22,0,0,0,2,3.55,5.9,5.9,0,0,1,0,.77c-.07.82-.15,1.5-.22,2.06-.88-.4-1.77-.79-2.68-1.15A22.42,22.42,0,0,1,42,45.78c-.05.3-.1.55-.15.76l-.33.2c-1-1-2-1.93-3-2.81a32.22,32.22,0,0,1,2.05,3.44c-.53.38-1,.78-1.55,1.18l-.23-.19c.05-.13.11-.27.16-.37l-.31.26c-.36-.28-.72-.54-1.09-.79L37.7,46c-.07.21-.16.4-.23.61l.27-5.2a4.19,4.19,0,0,0,.34-6.86Zm6,14.89.4-.52a13.37,13.37,0,0,1,1,2.08C45,50.42,44.55,49.91,44.07,49.4Zm2.5-2.25.14-2.63c2.7,2.2,5.32,4.56,6.1,7.65A29.34,29.34,0,0,0,46.57,47.15ZM62.67,51c-2.7-3.51-6.35-5.27-10.27-6.49a9.21,9.21,0,0,1,5.13,6.08,28.28,28.28,0,0,0-10.82-6.22L46.84,42a4.19,4.19,0,0,0,.34-6.86c.1-2,.19-3.94.28-5.78l1.54.54a33.1,33.1,0,0,0,11.83,2.44c5.65,0,8-1.2,8.89-2.18.43.26,1,.6,1.63.94,0,.36,0,.72,0,1.09a5.06,5.06,0,0,0-.8,6.66,14.25,14.25,0,0,1-.77,2.63q-.92,2.16-1.7,3.68a25,25,0,0,0-3.69-1.21A36.39,36.39,0,0,1,67,46.64C66.51,48,66,49.3,65.37,50.69a9.8,9.8,0,0,0-3.78-6.49A10.33,10.33,0,0,1,62.67,51ZM67,48.47a1,1,0,0,0,.6.28c-.23.2-.47.41-.7.58C66.89,49,66.92,48.76,67,48.47Zm1.19.29h.14l-.21.17Zm2.09,2.6c0-.16,0-.31,0-.47l.18.29Zm3.86-2.55.33-.42-.47.3-.52-.43a.93.93,0,0,0,.06-.1l.94-2.44a8.81,8.81,0,0,1,1.7,5A25.35,25.35,0,0,0,74.1,48.81Zm.55-3.65.36-.92A15.68,15.68,0,0,1,80.32,51C78.36,48.79,76.5,46.89,74.64,45.17ZM75.09,44l1.25-3.24a5.05,5.05,0,0,0,2.81-7.29l.4-1.05A13.53,13.53,0,0,0,83,31.09c.44.78.86,1.57,1.27,2.34a5,5,0,0,0,0,2.14A5.09,5.09,0,0,0,86.93,39a18.21,18.21,0,0,1,1.22,4.12c.08.62.15,1.19.21,1.75l-1.15-.38a13.43,13.43,0,0,1,1.18.67c.1.92.17,1.76.2,2.5a28.76,28.76,0,0,0-7.47-3.44c2.84,2.3,5.68,4.73,6.49,8A34.57,34.57,0,0,0,75.09,44Zm15,4.71h1.48a11.07,11.07,0,0,1,.73,1.83A28.65,28.65,0,0,0,90.13,48.72Z"/></g></g></svg>
