<?xml version="1.0" encoding="utf-8"?>
<!-- Generator: Adobe Illustrator 23.0.3, SVG Export Plug-In . SVG Version: 6.00 Build 0)  -->
<svg version="1.1" id="Layer_1" xmlns="http://www.w3.org/2000/svg" xmlns:xlink="http://www.w3.org/1999/xlink" x="0px" y="0px"
	 viewBox="0 0 510.3 510.3" style="enable-background:new 0 0 510.3 510.3;" xml:space="preserve">
<style type="text/css">
	.st0{fill:#D8DAD9;}
	.st1{fill:#808184;}
</style>
<title>circulo-exterior</title>
<g>
	<path class="st0" d="M255.1,2.6C115.7,2.6,2.6,115.7,2.6,255.1s113,252.5,252.5,252.5s252.5-113,252.5-252.5S394.6,2.6,255.1,2.6z
		 M255.1,490.5c-130,0-235.4-105.4-235.4-235.4S125.2,19.8,255.1,19.8s235.4,105.4,235.4,235.4S385.1,490.5,255.1,490.5z"/>
	<g>
		<path class="st1" d="M34.3,350l-1.2,0.5l-0.8-2l-5.5,2.3l-0.6-1.4l5.5-2.3l-0.8-2l1.2-0.5L34.3,350z"/>
		<path class="st1" d="M32.9,362.7c-0.7-0.3-1.3-0.8-1.8-1.8c-0.4-0.9-0.5-1.8-0.2-2.5c0.3-1,1.1-1.7,2.2-2.3
			c1.2-0.6,2.3-0.7,3.2-0.3c0.7,0.3,1.3,0.8,1.8,1.8c0.4,0.9,0.5,1.8,0.2,2.5c-0.3,0.9-1,1.7-2.2,2.3C34.9,363,33.8,363,32.9,362.7z
			 M33.5,361.4c0.6,0.1,1.2,0,1.9-0.3c0.7-0.3,1.2-0.8,1.5-1.3c0.3-0.5,0.2-1,0-1.6c-0.3-0.5-0.7-0.9-1.2-1c-0.6-0.1-1.2,0-1.9,0.3
			c-0.7,0.3-1.2,0.8-1.5,1.3c-0.2,0.5-0.2,1,0,1.6C32.5,360.9,32.9,361.2,33.5,361.4z"/>
		<path class="st1" d="M47.5,377.7c-0.2,0.3-0.4,0.6-0.8,0.8c-0.4,0.2-0.7,0.3-1.1,0.2c-0.2,0-0.4-0.1-0.6-0.3c0.1,0.4,0,0.7-0.1,1
			c-0.2,0.3-0.4,0.6-0.8,0.8c-0.4,0.2-0.8,0.3-1.2,0.3c-0.3,0-0.5-0.1-0.7-0.2c-0.3-0.1-0.5-0.3-0.7-0.5c-0.2-0.2-0.4-0.5-0.6-0.8
			l-1.6-2.8l6.3-3.6l1.8,3C47.7,376.4,47.8,377.1,47.5,377.7z M42.7,375.9l-1.7,1l0.9,1.5c0.2,0.3,0.3,0.5,0.5,0.6
			c0.3,0.2,0.6,0.2,1,0c0.3-0.2,0.5-0.5,0.4-0.8c0-0.2-0.1-0.4-0.3-0.7L42.7,375.9z M45.1,374.5l-1.4,0.8l0.9,1.5
			c0.2,0.3,0.3,0.5,0.5,0.6c0.2,0.1,0.4,0.1,0.7-0.1c0.3-0.2,0.4-0.4,0.4-0.7c0-0.2-0.2-0.5-0.3-0.8L45.1,374.5z"/>
		<path class="st1" d="M53.4,388l-2.1-3.2l-1.3,0.8l1.9,3l-1.1,0.7l-1.9-3l-1.6,1l2.2,3.4l-1.1,0.7l-3-4.6l6.1-3.9l2.9,4.5L53.4,388
			z"/>
		<path class="st1" d="M62.2,398.4l1,1.3l-2.3,5.3l4-3.1l0.9,1.1l-5.8,4.4l-0.9-1.2l2.3-5.5l-4.1,3.1l-0.9-1.1L62.2,398.4z"/>
		<path class="st1" d="M68.1,416.2c-0.8-0.1-1.5-0.5-2.2-1.3c-0.7-0.8-1-1.6-0.9-2.4c0.1-1,0.6-1.9,1.6-2.8c1-0.9,2-1.2,3-1.1
			c0.8,0.1,1.5,0.5,2.2,1.3c0.7,0.8,1,1.6,0.9,2.4c0,1-0.6,1.9-1.6,2.8C70.1,416,69.1,416.4,68.1,416.2z M68.3,414.8
			c0.6,0,1.2-0.3,1.8-0.8c0.6-0.5,1-1.1,1.1-1.6c0.1-0.6,0-1.1-0.4-1.5c-0.4-0.5-0.9-0.7-1.4-0.7c-0.6,0-1.2,0.3-1.8,0.8
			c-0.6,0.5-1,1.1-1.1,1.6c-0.1,0.6,0,1.1,0.4,1.5C67.3,414.6,67.7,414.8,68.3,414.8z"/>
		<path class="st1" d="M80.7,420.6c0.1,0.3,0.1,0.6,0.1,0.8c0,0.2-0.1,0.5-0.2,0.7c-0.1,0.2-0.3,0.4-0.5,0.6
			c-0.3,0.2-0.6,0.4-0.9,0.5c-0.4,0.1-0.7,0.1-1.1-0.1c0.1,0.3,0.2,0.6,0.1,0.9c-0.1,0.3-0.3,0.6-0.7,0.9l-0.4,0.3
			c-0.2,0.2-0.4,0.4-0.5,0.5c-0.1,0.2-0.1,0.3-0.1,0.5l-0.1,0.1l-1.1-1.2c0.1-0.1,0.2-0.3,0.2-0.3c0.1-0.2,0.3-0.3,0.4-0.5l0.5-0.5
			c0.3-0.3,0.5-0.6,0.5-0.8c0-0.2-0.1-0.5-0.4-0.8l-1-1.1l-2.1,1.9l-1-1.1l5.3-4.9l2.4,2.5C80.4,420,80.6,420.3,80.7,420.6z
			 M77.8,419.1l-1.4,1.3l1.1,1.2c0.2,0.2,0.4,0.4,0.6,0.5c0.3,0.1,0.6,0,0.9-0.2c0.3-0.3,0.4-0.6,0.4-0.9c0-0.2-0.2-0.4-0.4-0.6
			L77.8,419.1z"/>
		<path class="st1" d="M89.7,429.4l-0.9,0.9l-1.6-1.5L83,433L82,432l4.2-4.3l-1.6-1.5l0.9-0.9L89.7,429.4z"/>
		<path class="st1" d="M88.9,438.5l4.8-5.4l1.1,1l-1.8,2.1l2.1,1.9l1.8-2.1l1.1,1l-4.8,5.4l-1.1-1l2.1-2.4l-2.1-1.9l-2.1,2.4
			L88.9,438.5z"/>
		<path class="st1" d="M109.9,446.6l1.4,1l-2.3,7.3l-1.3-1l0.5-1.5l-2.1-1.6l-1.3,0.9l-1.3-1L109.9,446.6z M107.1,450.1l1.5,1.1
			l1-2.8L107.1,450.1z"/>
		<path class="st1" d="M117.8,452.3l1.3,0.9l-0.5,5.8l2.8-4.2l1.2,0.8l-4.1,6l-1.3-0.9l0.5-5.9l-2.9,4.3l-1.2-0.8L117.8,452.3z"/>
		<path class="st1" d="M131.3,461.3c0.3,0.4,0.5,0.9,0.6,1.4c0,0.4,0,0.9-0.2,1.3c-0.1,0.4-0.3,0.8-0.5,1.1
			c-0.5,0.8-1.1,1.4-1.8,1.8c-0.9,0.5-1.8,0.5-2.8-0.1l-2.7-1.6l3.8-6.2l2.7,1.6C130.8,460.8,131.1,461,131.3,461.3z M128.3,460.7
			l-2.5,4l1.2,0.7c0.6,0.4,1.2,0.3,1.8-0.1c0.3-0.3,0.6-0.6,0.9-1.1c0.4-0.6,0.6-1.2,0.6-1.6c0-0.5-0.3-0.9-0.9-1.2L128.3,460.7z"/>
		<path class="st1" d="M143.3,473.5c-0.1,0.3-0.1,0.6-0.1,0.8c0.1,0.4,0.4,0.7,0.9,1c0.3,0.2,0.6,0.3,0.8,0.3c0.5,0.1,0.8-0.1,1-0.5
			c0.1-0.2,0.1-0.4,0-0.6c-0.1-0.2-0.4-0.5-0.7-0.8l-0.6-0.5c-0.6-0.5-1-0.9-1.2-1.2c-0.3-0.5-0.3-1.1,0.1-1.7
			c0.3-0.6,0.7-1,1.4-1.1c0.6-0.2,1.3,0,2.2,0.4c0.7,0.3,1.2,0.8,1.5,1.4c0.3,0.6,0.3,1.3,0,2l-1.3-0.7c0.2-0.4,0.1-0.8-0.1-1.1
			c-0.2-0.2-0.4-0.4-0.7-0.6c-0.4-0.2-0.7-0.3-1-0.2c-0.3,0-0.5,0.2-0.6,0.4c-0.1,0.2-0.1,0.5,0.1,0.7c0.1,0.1,0.3,0.4,0.7,0.7
			l1,0.8c0.4,0.4,0.7,0.7,0.9,1c0.2,0.5,0.2,1-0.1,1.6c-0.3,0.6-0.8,1-1.4,1.1c-0.7,0.2-1.4,0-2.2-0.4c-0.9-0.4-1.4-1-1.7-1.6
			c-0.3-0.6-0.3-1.3,0.1-2L143.3,473.5z"/>
		<path class="st1" d="M157.1,481.8c-0.7,0.3-1.6,0.2-2.5-0.2c-0.9-0.4-1.6-1-1.8-1.7c-0.4-0.9-0.3-2,0.2-3.2c0.5-1.2,1.3-2,2.2-2.3
			c0.7-0.3,1.6-0.2,2.5,0.2c0.9,0.4,1.6,1,1.8,1.7c0.4,0.9,0.3,2-0.2,3.2C158.8,480.7,158.1,481.5,157.1,481.8z M156.7,480.4
			c0.5-0.3,0.9-0.8,1.2-1.5c0.3-0.7,0.4-1.4,0.3-1.9c-0.1-0.5-0.5-0.9-1-1.2c-0.5-0.2-1.1-0.2-1.6,0c-0.5,0.3-0.9,0.8-1.3,1.5
			c-0.3,0.7-0.4,1.4-0.3,1.9c0.1,0.5,0.5,0.9,1,1.2C155.7,480.7,156.2,480.7,156.7,480.4z"/>
		<path class="st1" d="M166.1,478.4l1.4,0.6l-1.6,4.2c-0.2,0.5-0.3,0.8-0.2,1.1c0,0.4,0.3,0.8,0.9,1c0.6,0.2,1,0.2,1.3-0.1
			c0.2-0.2,0.4-0.5,0.6-1l1.6-4.2l1.4,0.6l-1.6,4.2c-0.3,0.7-0.6,1.2-1,1.6c-0.7,0.6-1.6,0.6-2.8,0.2c-1.2-0.5-1.8-1.1-2-2
			c-0.1-0.5,0-1.1,0.3-1.8L166.1,478.4z"/>
		<path class="st1" d="M182.3,484.2l-0.4,1.2l-2.1-0.7l-1.9,5.7l-1.4-0.5l1.9-5.7l-2.1-0.7l0.4-1.2L182.3,484.2z"/>
		<path class="st1" d="M185.6,492.8l2-7l1.4,0.4l-0.7,2.7l2.7,0.8l0.7-2.7l1.4,0.4l-2,7l-1.4-0.4l0.9-3.1l-2.7-0.8l-0.9,3.1
			L185.6,492.8z"/>
		<path class="st1" d="M208.1,490.8l1.7,0.3l1.1,7.6l-1.6-0.3l-0.2-1.6l-2.6-0.5l-0.8,1.4l-1.6-0.3L208.1,490.8z M207.1,495.2
			l1.8,0.4l-0.4-3L207.1,495.2z"/>
		<path class="st1" d="M222.4,493.2l2.2,0.3l-1,7.2l-1.4-0.2l0.7-4.9c0-0.1,0-0.3,0.1-0.6c0-0.3,0.1-0.4,0.1-0.6l-2.2,5.8l-1.5-0.2
			l-0.5-6.2c0,0.1,0,0.3-0.1,0.6c0,0.3-0.1,0.4-0.1,0.6l-0.7,4.9l-1.4-0.2l1-7.2l2.2,0.3l0.5,5.8L222.4,493.2z"/>
		<path class="st1" d="M235.7,495.9l-3.8-0.3l-0.1,1.5l3.5,0.3l-0.1,1.3l-3.5-0.3l-0.2,1.9l4,0.4l-0.1,1.3l-5.5-0.5l0.7-7.2l5.3,0.5
			L235.7,495.9z"/>
		<path class="st1" d="M246.4,495.5c0.3,0.1,0.5,0.3,0.7,0.5c0.1,0.2,0.3,0.4,0.3,0.6c0.1,0.2,0.1,0.5,0.1,0.8c0,0.3-0.1,0.7-0.3,1
			c-0.2,0.3-0.5,0.5-0.9,0.7c0.3,0.1,0.6,0.3,0.7,0.6c0.1,0.3,0.2,0.6,0.2,1.1l0,0.5c0,0.3,0,0.6,0,0.7c0,0.2,0.1,0.3,0.3,0.4l0,0.2
			l-1.7-0.1c0-0.2-0.1-0.3-0.1-0.4c0-0.2,0-0.4,0-0.6l0-0.7c0-0.5-0.1-0.8-0.2-0.9c-0.1-0.2-0.4-0.2-0.9-0.3l-1.5-0.1l-0.1,2.8
			l-1.5-0.1l0.3-7.2l3.5,0.1C245.8,495.2,246.2,495.3,246.4,495.5z M243.2,496.4l-0.1,1.9l1.6,0.1c0.3,0,0.6,0,0.7-0.1
			c0.3-0.1,0.4-0.4,0.5-0.8c0-0.4-0.1-0.7-0.4-0.9c-0.2-0.1-0.4-0.1-0.7-0.2L243.2,496.4z"/>
		<path class="st1" d="M255.1,502.7l-1.5,0l0.1-7.2l1.5,0L255.1,502.7z"/>
		<path class="st1" d="M262.1,496.1c0.6-0.6,1.3-0.9,2.2-1c1.2,0,2.1,0.3,2.7,1.1c0.3,0.4,0.5,0.9,0.5,1.3l-1.5,0.1
			c-0.1-0.3-0.2-0.6-0.4-0.8c-0.3-0.3-0.7-0.4-1.2-0.4c-0.5,0-1,0.3-1.3,0.7c-0.3,0.5-0.4,1.1-0.4,1.9c0,0.8,0.2,1.4,0.6,1.8
			s0.8,0.6,1.3,0.6c0.5,0,0.9-0.2,1.2-0.6c0.1-0.2,0.3-0.5,0.3-0.9l1.5-0.1c-0.1,0.8-0.4,1.4-0.9,2c-0.5,0.5-1.2,0.8-2,0.8
			c-1,0-1.9-0.3-2.5-0.9c-0.6-0.6-0.9-1.6-1-2.7C261.2,497.8,261.5,496.8,262.1,496.1z"/>
		<path class="st1" d="M275.3,494.6l1.7-0.1l3.2,7l-1.6,0.1l-0.6-1.4l-2.7,0.2l-0.4,1.5l-1.6,0.1L275.3,494.6z M275.6,499.1l1.8-0.2
			l-1.2-2.8L275.6,499.1z"/>
		<path class="st1" d="M287.4,493l-1.3,1.6l-1,0.1l0.7-1.6L287.4,493z"/>
		<path class="st1" d="M295,497.2c0.1,0.3,0.2,0.5,0.4,0.7c0.3,0.3,0.7,0.3,1.3,0.2c0.4-0.1,0.6-0.1,0.9-0.3
			c0.4-0.2,0.6-0.5,0.5-0.9c0-0.2-0.2-0.4-0.4-0.5c-0.2-0.1-0.6-0.1-1-0.2l-0.8,0c-0.8,0-1.3-0.1-1.7-0.3c-0.5-0.2-0.9-0.7-1-1.4
			c-0.1-0.6,0-1.2,0.4-1.7c0.4-0.5,1.1-0.8,2-1c0.8-0.1,1.4,0,2.1,0.3c0.6,0.3,1,0.8,1.1,1.6l-1.4,0.2c-0.1-0.4-0.3-0.7-0.7-0.8
			c-0.3-0.1-0.6-0.1-0.9,0c-0.4,0.1-0.7,0.2-0.9,0.4c-0.2,0.2-0.3,0.4-0.2,0.7c0,0.3,0.2,0.4,0.4,0.5c0.2,0.1,0.5,0.1,1,0.1l1.3,0.1
			c0.6,0,1,0.1,1.3,0.3c0.5,0.3,0.8,0.7,0.9,1.4c0.1,0.7,0,1.2-0.5,1.8c-0.4,0.5-1.1,0.9-2,1c-0.9,0.2-1.7,0.1-2.3-0.3
			c-0.6-0.3-1-0.9-1.1-1.6L295,497.2z"/>
		<path class="st1" d="M311.6,488.8l5-1.3l0.3,1.2l-3.6,0.9l0.4,1.6l3.1-0.8l0.3,1.2l-3.1,0.8l0.7,2.9l-1.5,0.4L311.6,488.8z"/>
		<path class="st1" d="M323.5,485.6l1.6-0.5l4.5,6.2l-1.6,0.5l-0.9-1.3l-2.6,0.8l0,1.6l-1.5,0.5L323.5,485.6z M324.6,489.9l1.8-0.5
			l-1.7-2.5L324.6,489.9z"/>
		<path class="st1" d="M336.1,481.4l1.5-0.5l0.1,7.7l-1.4,0.5l-4.7-6l1.5-0.5l3.3,4.7L336.1,481.4z"/>
		<path class="st1" d="M350.4,483c-0.3,0.7-0.9,1.3-1.9,1.7c-1,0.4-1.8,0.4-2.5,0.1c-0.9-0.4-1.7-1.1-2.1-2.4
			c-0.5-1.2-0.5-2.3-0.1-3.2c0.3-0.7,0.9-1.3,1.9-1.7c1-0.4,1.8-0.4,2.5-0.1c0.9,0.3,1.6,1.1,2.1,2.4
			C350.8,481,350.8,482.1,350.4,483z M349.1,482.3c0.2-0.5,0.1-1.2-0.2-1.9c-0.3-0.8-0.7-1.3-1.2-1.5s-1-0.3-1.6-0.1
			c-0.6,0.2-0.9,0.6-1.1,1.2c-0.2,0.5-0.1,1.2,0.2,2c0.3,0.8,0.7,1.3,1.2,1.5c0.5,0.3,1,0.3,1.6,0.1
			C348.6,483.2,349,482.9,349.1,482.3z"/>
		<path class="st1" d="M358.4,472.4c0.3,0,0.6,0,0.8,0.2c0.2,0.1,0.4,0.2,0.6,0.4c0.2,0.2,0.3,0.4,0.4,0.6c0.1,0.3,0.2,0.7,0.2,1
			c0,0.4-0.2,0.7-0.5,1c0.4,0,0.7,0.1,0.9,0.2c0.2,0.2,0.5,0.5,0.7,0.9l0.2,0.4c0.1,0.3,0.2,0.5,0.3,0.6c0.1,0.2,0.3,0.2,0.4,0.3
			l0.1,0.2l-1.5,0.7c-0.1-0.1-0.2-0.2-0.3-0.3c-0.1-0.2-0.2-0.3-0.3-0.5l-0.3-0.6c-0.2-0.4-0.4-0.7-0.6-0.7c-0.2-0.1-0.5,0-0.9,0.2
			l-1.3,0.6l1.2,2.6l-1.3,0.6l-3.1-6.6l3.1-1.5C357.8,472.5,358.2,472.4,358.4,472.4z M356.1,474.7l0.8,1.8l1.5-0.7
			c0.3-0.1,0.5-0.3,0.6-0.4c0.2-0.2,0.2-0.6,0-0.9c-0.2-0.4-0.4-0.6-0.8-0.6c-0.2,0-0.4,0-0.7,0.2L356.1,474.7z"/>
		<path class="st1" d="M369.5,474.7l-1.3,0.7l-3.3-6.4l1.3-0.7L369.5,474.7z"/>
		<path class="st1" d="M376.1,462.8l0.6,1.1l-1.9,1.1l2.9,5.2l-1.3,0.8l-2.9-5.2l-1.9,1.1l-0.6-1.1L376.1,462.8z"/>
		<path class="st1" d="M386,458.2l-3.2,2l0.8,1.3l3-1.9l0.7,1.1l-3,1.9l1,1.6l3.4-2.1l0.7,1.1l-4.6,2.9l-3.9-6.1l4.5-2.8L386,458.2z
			"/>
		<path class="st1" d="M400,447.1c0.5-0.2,1-0.2,1.5,0c0.4,0.1,0.8,0.3,1.1,0.6c0.3,0.3,0.6,0.6,0.8,0.9c0.6,0.8,0.9,1.5,1,2.3
			c0.1,1-0.3,1.9-1.1,2.5l-2.5,1.9l-4.3-5.8l2.5-1.9C399.4,447.4,399.7,447.2,400,447.1z M398.4,449.6l2.8,3.8l1.1-0.8
			c0.6-0.4,0.8-1,0.6-1.7c-0.1-0.4-0.3-0.8-0.6-1.2c-0.4-0.6-0.9-1-1.3-1.2s-0.9-0.1-1.5,0.4L398.4,449.6z"/>
		<path class="st1" d="M407.5,440.9l1.3-1.1l6.6,4l-1.3,1l-1.3-0.8l-2.1,1.7l0.6,1.5l-1.2,1L407.5,440.9z M410.3,444.5l1.4-1.2
			l-2.5-1.6L410.3,444.5z"/>
		<path class="st1" d="M420.9,439l-1.1,1l-4.8-5.4l1.1-1L420.9,439z"/>
		<path class="st1" d="M424,426.4c0.3-0.1,0.6-0.1,0.8-0.1c0.2,0,0.5,0.1,0.7,0.2c0.2,0.1,0.4,0.2,0.6,0.5c0.2,0.2,0.4,0.5,0.5,0.9
			s0.1,0.7-0.1,1.1c0.3-0.1,0.6-0.2,0.9-0.1c0.3,0.1,0.6,0.3,0.9,0.7l0.3,0.3c0.2,0.2,0.4,0.4,0.5,0.5c0.2,0.1,0.3,0.1,0.5,0.1
			l0.1,0.1l-1.2,1.2c-0.1-0.1-0.3-0.2-0.3-0.2c-0.2-0.1-0.3-0.3-0.5-0.4l-0.5-0.5c-0.3-0.3-0.6-0.5-0.8-0.5c-0.2,0-0.5,0.1-0.8,0.4
			l-1.1,1l2,2l-1.1,1l-5-5.2l2.5-2.4C423.4,426.7,423.7,426.5,424,426.4z M422.5,429.3l1.4,1.4l1.2-1.1c0.2-0.2,0.4-0.4,0.4-0.6
			c0.1-0.3,0-0.6-0.3-0.9c-0.3-0.3-0.6-0.4-0.9-0.3c-0.2,0-0.4,0.2-0.6,0.4L422.5,429.3z"/>
		<path class="st1" d="M431.5,418.3l1.2-1.3l1.6,4.9l2,1.9l-1,1.1l-2-1.9l-5-1.3l1.2-1.3l3.3,1.1L431.5,418.3z"/>
		<path class="st1" d="M442.1,407.3c-0.1-0.8,0.1-1.6,0.7-2.3c0.8-0.9,1.6-1.4,2.6-1.3c0.5,0,1,0.2,1.4,0.5l-0.9,1.2
			c-0.3-0.1-0.6-0.2-0.8-0.2c-0.4,0-0.8,0.2-1.1,0.6c-0.3,0.4-0.4,0.9-0.3,1.4c0.2,0.5,0.5,1,1.2,1.5c0.6,0.5,1.2,0.8,1.7,0.8
			c0.5,0,0.9-0.2,1.3-0.6c0.3-0.4,0.4-0.8,0.3-1.3c-0.1-0.2-0.2-0.5-0.4-0.8l0.9-1.2c0.5,0.6,0.8,1.3,0.9,2c0.1,0.7-0.2,1.4-0.7,2.1
			c-0.6,0.8-1.4,1.2-2.3,1.3c-0.9,0-1.8-0.3-2.7-1C442.8,409.1,442.2,408.2,442.1,407.3z"/>
		<path class="st1" d="M457,397.3c0.1,0.8-0.1,1.6-0.7,2.4c-0.6,0.8-1.3,1.3-2.1,1.4c-1,0.2-2-0.1-3.1-0.9c-1.1-0.8-1.7-1.7-1.8-2.6
			c-0.1-0.8,0.1-1.6,0.7-2.4c0.6-0.8,1.3-1.3,2.1-1.4c1-0.2,2,0.1,3.1,0.9C456.3,395.5,456.9,396.4,457,397.3z M455.5,397.5
			c-0.2-0.5-0.6-1.1-1.2-1.5c-0.7-0.5-1.3-0.7-1.8-0.7c-0.6,0-1,0.3-1.4,0.8c-0.4,0.5-0.5,1-0.3,1.6c0.1,0.5,0.6,1.1,1.2,1.5
			c0.7,0.5,1.3,0.7,1.8,0.7c0.6,0,1-0.3,1.4-0.8C455.6,398.5,455.7,398,455.5,397.5z"/>
		<path class="st1" d="M458.1,383.8l1.2-1.8l6.1,3.9l-0.8,1.2l-4.1-2.7c-0.1-0.1-0.3-0.2-0.5-0.3c-0.2-0.1-0.4-0.2-0.5-0.3l4.4,4.4
			l-0.8,1.2l-5.8-2.1c0.1,0.1,0.3,0.2,0.5,0.3c0.2,0.1,0.4,0.2,0.5,0.3l4.1,2.7l-0.8,1.2l-6.1-3.9l1.2-1.9l5.5,2L458.1,383.8z"/>
		<path class="st1" d="M468.3,374.7c0.1,0.5-0.1,1.2-0.4,1.8l-0.8,1.3l2.3,1.3l-0.7,1.3l-6.3-3.6l1.5-2.7c0.4-0.6,0.8-1,1.3-1.2
			c0.5-0.2,1.1-0.1,1.8,0.3C467.8,373.7,468.3,374.2,468.3,374.7z M465.5,374.4c-0.2,0.1-0.4,0.3-0.6,0.6l-0.7,1.2l1.8,1.1l0.7-1.2
			c0.2-0.3,0.2-0.6,0.2-0.8c-0.1-0.3-0.2-0.5-0.6-0.7C466,374.4,465.7,374.3,465.5,374.4z"/>
		<path class="st1" d="M468.5,365.8l0.8-1.5l7.6,1l-0.8,1.5l-1.5-0.3l-1.2,2.4l1.1,1.1l-0.7,1.4L468.5,365.8z M472.4,368l0.9-1.6
			l-3-0.5L472.4,368z"/>
		<path class="st1" d="M472.8,357l0.7-1.4l5.8-0.5l-4.6-2.1l0.6-1.3l6.6,3l-0.6,1.4l-5.9,0.6l4.7,2.1l-0.6,1.3L472.8,357z"/>
		<path class="st1" d="M479.1,342.3l0.6-1.6l3.3,3.9l2.5,1l-0.6,1.4l-2.5-1l-5.1,0.7l0.7-1.7l3.5-0.2L479.1,342.3z"/>
	</g>
</g>
</svg>
