<?xml version="1.0" encoding="utf-8"?>
<!-- Generator: Adobe Illustrator 23.0.3, SVG Export Plug-In . SVG Version: 6.00 Build 0)  -->
<svg version="1.1" id="Layer_1" xmlns="http://www.w3.org/2000/svg" xmlns:xlink="http://www.w3.org/1999/xlink" x="0px" y="0px"
	 viewBox="0 0 420.9 420.9" style="enable-background:new 0 0 420.9 420.9;" xml:space="preserve">
<style type="text/css">
	.st0{fill:#736F62;}
	.st1{fill:#FFFFFF;}
</style>
<title>consumidores-inversionistas</title>
<g>
	<g>
		<path class="st0" d="M24,210.6c0-42.2,14-81.2,37.6-112.4l-18-14.3C16.9,119,1,162.9,1,210.6c0,14.2,1.4,28.1,4.1,41.5l22.4-5.2
			C25.2,235.2,24,223,24,210.6z"/>
		<path class="st0" d="M416.4,252.2c2.7-13.4,4.1-27.4,4.1-41.6c0-47.8-16-91.8-42.8-127l-18,14.3c23.7,31.3,37.8,70.4,37.8,112.7
			c0,12.5-1.2,24.7-3.6,36.4L416.4,252.2z"/>
		<path class="st0" d="M215.6,23.8c55.2,1.4,104.5,26.8,137.8,66.1l18-14.3C333.8,31,278.1,2.3,215.6,0.9V23.8z"/>
		<path class="st0" d="M287.1,381.1c-23.3,10.5-49.2,16.3-76.4,16.3c-27.3,0-53.3-5.9-76.7-16.4l-10,20.7
			c26.4,12,55.8,18.7,86.7,18.7c30.8,0,60-6.6,86.3-18.5L287.1,381.1z"/>
		<path class="st0" d="M67.9,90.2c33.2-39.3,82.4-64.8,137.5-66.3v-23C143,2.4,87.4,31.2,49.9,75.9L67.9,90.2z"/>
		<path class="st0" d="M391.7,256.9c-13.3,52.2-48.6,95.6-95.5,119.8l10,20.7c53.1-27.2,93-76.3,107.9-135.3L391.7,256.9z"/>
		<path class="st0" d="M124.9,376.5C78.2,352.3,43,308.9,29.8,256.8L7.3,262C22.2,321,62,370,114.9,397.2L124.9,376.5z"/>
	</g>
	<g>
		<g>
			<path class="st1" d="M11.9,186.4l-0.4,3.8l1.5,0.2l0.4-3.5l1.3,0.1l-0.4,3.5l1.9,0.2l0.4-4l1.3,0.1l-0.6,5.5l-7.3-0.8l0.6-5.3
				L11.9,186.4z"/>
			<path class="st1" d="M13.7,177.9c0.1-0.2,0.3-0.4,0.6-0.6c0.2-0.1,0.5-0.2,0.7-0.2c0.2,0,0.4,0,0.8,0.1l3.4,0.5l-0.2,1.4
				l-3.4-0.5c-0.2,0-0.4,0-0.5,0c-0.3,0.1-0.4,0.3-0.5,0.6c-0.1,0.4,0.1,0.7,0.4,0.9c0.2,0.1,0.4,0.2,0.6,0.2l3.2,0.5l-0.2,1.4
				l-3.2-0.5c-0.3,0-0.6,0-0.7,0c-0.3,0.1-0.4,0.3-0.5,0.6c-0.1,0.4,0,0.7,0.3,0.9c0.1,0.1,0.3,0.2,0.6,0.2l3.2,0.5l-0.2,1.4
				l-5.3-0.8l0.2-1.4l0.8,0.1c-0.3-0.2-0.4-0.4-0.5-0.6c-0.2-0.3-0.2-0.7-0.2-1.1c0.1-0.4,0.2-0.7,0.4-0.9c0.2-0.2,0.4-0.3,0.7-0.4
				c-0.3-0.2-0.5-0.5-0.6-0.8c-0.1-0.3-0.1-0.6-0.1-1C13.5,178.4,13.6,178.1,13.7,177.9z"/>
			<path class="st1" d="M15.6,170.7c0.5-0.3,1.3-0.4,2.1-0.3c0.9,0.2,1.6,0.5,2,1c0.4,0.5,0.5,1.1,0.4,1.8c-0.1,0.4-0.3,0.8-0.5,1
				c-0.1,0.1-0.3,0.2-0.6,0.4l2.8,0.5l-0.3,1.4l-7.4-1.4l0.3-1.3l0.8,0.2c-0.2-0.2-0.4-0.4-0.5-0.6c-0.2-0.4-0.2-0.7-0.1-1.2
				C14.7,171.5,15.1,171,15.6,170.7z M16.4,171.9c-0.4,0.1-0.6,0.4-0.6,0.8c-0.1,0.5,0.1,0.9,0.5,1.2c0.2,0.1,0.5,0.3,0.9,0.3
				c0.6,0.1,1.1,0,1.4-0.2c0.2-0.2,0.3-0.4,0.4-0.7c0.1-0.4,0-0.7-0.3-1c-0.3-0.3-0.6-0.4-1.1-0.5C17.1,171.8,16.8,171.8,16.4,171.9
				z"/>
			<path class="st1" d="M21.1,168.1l-0.3,1.4l-7.1-1.6l0.3-1.4L21.1,168.1z"/>
			<path class="st1" d="M21.9,161.8c0.4,0.6,0.5,1.3,0.3,2.2c-0.2,0.9-0.7,1.5-1.3,1.8c-0.7,0.3-1.4,0.4-2.1,0.2
				c-0.8-0.2-1.4-0.6-1.8-1.1c-0.4-0.6-0.6-1.3-0.3-2.2c0.2-0.9,0.7-1.5,1.3-1.8s1.4-0.4,2.1-0.2C20.9,160.8,21.5,161.2,21.9,161.8z
				 M20.9,162.7c-0.2-0.3-0.6-0.5-1.1-0.6c-0.5-0.1-1-0.1-1.3,0c-0.3,0.1-0.6,0.4-0.7,0.8c-0.1,0.4,0,0.7,0.2,1
				c0.2,0.3,0.6,0.5,1.1,0.6c0.5,0.1,1,0.1,1.3,0c0.3-0.1,0.6-0.4,0.7-0.8C21.2,163.3,21.1,163,20.9,162.7z"/>
			<path class="st1" d="M24.2,159.9l0.1-0.2c0-0.1,0.1-0.3,0.1-0.4c0-0.1,0-0.2,0-0.3c0-0.1-0.1-0.2-0.3-0.3
				c-0.2-0.1-0.2-0.2-0.3-0.2l-6,0.4l0.4-1.5l4.2-0.1l-3.5-2.1l0.4-1.4l4.6,3.2c0.9,0.6,1.4,1.1,1.6,1.3c0.2,0.3,0.2,0.7,0,1.3
				c0,0.1-0.1,0.2-0.1,0.3c0,0.1-0.1,0.2-0.1,0.3L24.2,159.9z"/>
			<path class="st1" d="M20.8,149.1c0.3-0.3,0.6-0.5,1-0.6c0.4-0.1,0.8-0.1,1.2-0.1c0.2,0,0.6,0.1,1,0.3l-1.2,3.7
				c0.5,0.1,0.9,0.1,1.3-0.2c0.2-0.2,0.3-0.4,0.4-0.7c0.1-0.3,0.1-0.6,0-0.8c-0.1-0.1-0.1-0.3-0.3-0.4l0.4-1.4
				c0.3,0.1,0.6,0.4,0.8,0.8c0.4,0.6,0.4,1.3,0.1,2.2c-0.2,0.7-0.6,1.2-1.2,1.6c-0.6,0.4-1.4,0.4-2.3,0.1c-0.9-0.3-1.5-0.7-1.8-1.4
				c-0.3-0.6-0.4-1.3-0.1-2.1C20.3,149.8,20.5,149.4,20.8,149.1z M21.3,151.5c0.1,0.3,0.4,0.5,0.7,0.6l0.7-2.3
				c-0.4-0.1-0.7-0.1-0.9,0.1c-0.3,0.2-0.4,0.4-0.5,0.7C21.2,150.9,21.2,151.2,21.3,151.5z"/>
			<path class="st1" d="M22.8,143.2c0.3-0.3,0.6-0.5,1.1-0.6c0.4-0.1,0.8-0.1,1.2,0c0.2,0,0.6,0.1,1,0.3l-1.3,3.7
				c0.5,0.2,0.9,0.1,1.3-0.2c0.2-0.2,0.3-0.4,0.4-0.7c0.1-0.3,0.1-0.6,0-0.8c0-0.1-0.1-0.3-0.3-0.4l0.5-1.4c0.3,0.1,0.5,0.4,0.7,0.8
				c0.3,0.6,0.4,1.4,0.1,2.2c-0.2,0.7-0.7,1.2-1.3,1.6c-0.6,0.4-1.4,0.4-2.3,0.1c-0.9-0.3-1.5-0.8-1.8-1.4c-0.3-0.6-0.3-1.3-0.1-2.1
				C22.3,143.8,22.5,143.5,22.8,143.2z M23.2,145.6c0.1,0.3,0.3,0.5,0.7,0.6l0.8-2.3c-0.4-0.1-0.7-0.1-0.9,0.1
				c-0.3,0.1-0.4,0.4-0.6,0.7C23.1,145,23.1,145.3,23.2,145.6z"/>
			<path class="st1" d="M27.4,140.8c0.2,0.1,0.4,0.1,0.6,0c0.2-0.1,0.4-0.4,0.6-0.8c0.1-0.3,0.1-0.5,0.1-0.7c0-0.2-0.1-0.3-0.3-0.4
				c-0.1-0.1-0.3,0-0.4,0.1c-0.1,0.1-0.4,0.5-0.9,1.2c-0.4,0.5-0.7,0.9-1,1c-0.3,0.2-0.6,0.2-1,0c-0.5-0.2-0.8-0.5-1-1
				c-0.2-0.5-0.2-1.1,0.1-1.7c0.2-0.6,0.6-1.1,1-1.4c0.4-0.3,0.9-0.4,1.6-0.2l-0.5,1.3c-0.2,0-0.3-0.1-0.5,0
				c-0.2,0.1-0.4,0.3-0.6,0.6c-0.1,0.3-0.1,0.5-0.1,0.7c0,0.2,0.1,0.3,0.2,0.3c0.2,0.1,0.3,0,0.4-0.1c0.1-0.1,0.4-0.5,0.9-1.2
				c0.3-0.5,0.7-0.8,1-1c0.4-0.2,0.7-0.2,1.1,0c0.5,0.2,0.8,0.5,1,1s0.1,1.1-0.2,1.9c-0.3,0.8-0.7,1.3-1.2,1.6
				c-0.5,0.2-1,0.3-1.5,0.1L27.4,140.8z"/>
		</g>
	</g>
	<g>
		<g>
			<path class="st1" d="M43.2,311.1c0.8,0.2,1.5,0.7,1.9,1.4c0.6,1,0.8,2,0.4,2.9c-0.2,0.5-0.5,0.9-0.9,1.1l-0.8-1.3
				c0.2-0.3,0.4-0.5,0.5-0.7c0.1-0.4,0-0.8-0.2-1.3c-0.3-0.5-0.7-0.7-1.2-0.7c-0.5,0-1.2,0.2-1.9,0.6c-0.7,0.4-1.1,0.9-1.3,1.4
				c-0.2,0.5-0.1,1,0.1,1.4c0.3,0.4,0.6,0.7,1.1,0.7c0.2,0,0.5,0,0.9-0.1l0.8,1.3c-0.7,0.3-1.5,0.4-2.2,0.2
				c-0.7-0.2-1.3-0.7-1.7-1.4c-0.5-0.9-0.7-1.8-0.4-2.6c0.3-0.9,0.9-1.6,1.9-2.2C41.2,311.1,42.2,310.9,43.2,311.1z"/>
			<path class="st1" d="M44.3,323.8c-0.7-0.1-1.3-0.5-1.9-1.3c-0.5-0.8-0.7-1.5-0.5-2.2c0.2-0.7,0.7-1.3,1.3-1.7
				c0.6-0.4,1.3-0.6,2.1-0.6c0.7,0.1,1.3,0.5,1.9,1.2c0.5,0.8,0.7,1.5,0.4,2.2c-0.2,0.7-0.7,1.3-1.3,1.7
				C45.7,323.7,45.1,323.8,44.3,323.8z M44.4,322.4c0.4,0,0.8-0.1,1.2-0.4c0.4-0.3,0.7-0.6,0.9-1c0.1-0.3,0.1-0.7-0.2-1
				c-0.2-0.3-0.5-0.5-0.9-0.5c-0.4,0-0.8,0.1-1.2,0.4c-0.4,0.3-0.7,0.6-0.9,1c-0.1,0.3-0.1,0.7,0.2,1
				C43.7,322.2,44,322.4,44.4,322.4z"/>
			<path class="st1" d="M53.3,328.2c0.1,0.2,0.1,0.5,0,0.8c-0.1,0.2-0.2,0.5-0.4,0.7c-0.1,0.1-0.3,0.3-0.6,0.5l-2.8,2l-0.9-1.2
				l2.8-2c0.2-0.1,0.3-0.2,0.4-0.4c0.1-0.2,0.1-0.5-0.1-0.8c-0.2-0.3-0.5-0.4-0.9-0.4c-0.2,0-0.4,0.1-0.6,0.3l-2.6,1.9l-0.8-1.1
				l2.6-1.9c0.3-0.2,0.4-0.4,0.5-0.5c0.1-0.2,0.1-0.5-0.1-0.8c-0.2-0.3-0.5-0.5-0.8-0.4c-0.2,0-0.4,0.1-0.6,0.3l-2.6,1.9l-0.8-1.2
				l4.4-3.2l0.8,1.1l-0.6,0.5c0.3,0,0.6,0,0.8,0c0.3,0.1,0.6,0.3,0.9,0.7c0.2,0.3,0.4,0.7,0.4,1c0,0.3-0.1,0.5-0.3,0.8
				c0.4,0,0.7,0,1,0.1c0.3,0.1,0.5,0.4,0.8,0.7C53.1,327.7,53.2,328,53.3,328.2z"/>
			<path class="st1" d="M59,335.4c0.1,0.2,0.1,0.5,0,0.8c-0.1,0.2-0.2,0.5-0.3,0.7c-0.1,0.1-0.3,0.3-0.6,0.5l-2.7,2.1l-0.9-1.1
				l2.7-2.1c0.2-0.1,0.3-0.3,0.3-0.4c0.1-0.3,0.1-0.5-0.1-0.8c-0.2-0.3-0.5-0.4-0.9-0.3c-0.2,0-0.4,0.1-0.6,0.3l-2.5,2l-0.9-1.1
				l2.5-2c0.2-0.2,0.4-0.4,0.5-0.5c0.1-0.3,0.1-0.5-0.1-0.8c-0.3-0.3-0.5-0.4-0.8-0.4c-0.2,0-0.4,0.1-0.6,0.3l-2.5,2l-0.9-1.1
				l4.2-3.4l0.9,1.1l-0.6,0.5c0.3,0,0.6,0,0.8,0c0.3,0.1,0.6,0.3,0.9,0.6c0.3,0.3,0.4,0.6,0.4,0.9c0,0.3-0.1,0.5-0.2,0.8
				c0.4-0.1,0.7,0,1,0.1c0.3,0.1,0.6,0.3,0.8,0.6C58.8,335,58.9,335.2,59,335.4z"/>
			<path class="st1" d="M61.5,338.4l-2.5,2.1c-0.2,0.2-0.4,0.4-0.5,0.5c-0.1,0.3-0.1,0.6,0.2,0.8c0.3,0.4,0.7,0.5,1.1,0.4
				c0.2-0.1,0.5-0.2,0.7-0.4l2.2-1.9l0.9,1.1l-4.1,3.5l-0.9-1l0.6-0.5c0,0-0.1,0-0.2,0c-0.1,0-0.2,0-0.3,0c-0.3,0-0.5-0.1-0.7-0.2
				c-0.2-0.1-0.4-0.3-0.6-0.5c-0.5-0.6-0.7-1.2-0.4-1.8c0.1-0.3,0.4-0.7,0.9-1.1l2.5-2.1L61.5,338.4z"/>
			<path class="st1" d="M67.6,345.6c0,0.5-0.2,0.9-0.7,1.4l-2.7,2.5l-1-1.1l2.4-2.2c0.2-0.2,0.3-0.4,0.4-0.5c0.1-0.3,0-0.6-0.2-0.9
				c-0.3-0.3-0.7-0.4-1.1-0.3c-0.2,0.1-0.5,0.2-0.7,0.5l-2.1,2l-1-1l3.9-3.7l0.9,1l-0.6,0.5c0.3-0.1,0.6-0.1,0.8,0
				c0.4,0.1,0.7,0.3,1,0.6C67.4,344.7,67.6,345.1,67.6,345.6z"/>
			<path class="st1" d="M69.4,347l1,1l-3.9,3.8l-1-1L69.4,347z M70.8,347.5l-1-1l0.9-0.9l1,1L70.8,347.5z"/>
			<path class="st1" d="M70.5,349.6l0.7-0.7l0.5,0.5l1.1-1.1l1,1l-1.1,1.1l0.6,0.6l-0.7,0.7l-0.6-0.6l-2,2c-0.2,0.2-0.2,0.3-0.2,0.4
				c0,0.1,0.1,0.2,0.3,0.4c0,0,0.1,0.1,0.1,0.1c0,0,0.1,0.1,0.1,0.1l-0.7,0.8l-0.5-0.5c-0.5-0.5-0.7-0.9-0.7-1.2
				c0-0.2,0.1-0.5,0.4-0.7l2.3-2.4L70.5,349.6z"/>
			<path class="st1" d="M70,356.6l0.1,0.1c0.1,0.1,0.2,0.2,0.3,0.3c0.1,0.1,0.2,0.1,0.3,0.1c0.1,0,0.2,0,0.4-0.1
				c0.2-0.1,0.3-0.1,0.3-0.2l2.4-5.5l1.1,1.1l-1.9,3.7l3.5-2.1l1.1,1l-5,2.6c-1,0.5-1.6,0.8-1.9,0.8c-0.3,0-0.7-0.2-1.2-0.6
				c-0.1-0.1-0.2-0.2-0.2-0.2c-0.1-0.1-0.1-0.1-0.2-0.2L70,356.6z"/>
		</g>
	</g>
	<g>
		<g>
			<path class="st1" d="M189.1,408.6c0,0.3,0.1,0.6,0.2,0.8c0.2,0.3,0.6,0.5,1.2,0.6c0.4,0,0.7,0,0.9,0c0.4-0.1,0.7-0.4,0.7-0.8
				c0-0.2-0.1-0.4-0.3-0.6c-0.2-0.1-0.5-0.3-1-0.4l-0.8-0.3c-0.8-0.2-1.3-0.5-1.5-0.7c-0.5-0.4-0.6-0.9-0.6-1.6
				c0.1-0.7,0.4-1.2,0.9-1.5c0.5-0.4,1.2-0.5,2.2-0.4c0.8,0.1,1.4,0.3,1.9,0.8c0.5,0.5,0.7,1.1,0.7,1.9l-1.5-0.1
				c0-0.4-0.1-0.8-0.5-1c-0.2-0.1-0.5-0.2-0.9-0.3c-0.4,0-0.7,0-1,0.1c-0.3,0.1-0.4,0.3-0.4,0.6c0,0.3,0.1,0.5,0.3,0.6
				c0.1,0.1,0.5,0.2,0.9,0.4l1.2,0.4c0.5,0.2,0.9,0.4,1.2,0.7c0.4,0.4,0.6,0.9,0.5,1.5c-0.1,0.7-0.4,1.2-0.9,1.6
				c-0.6,0.4-1.3,0.5-2.2,0.4c-1-0.1-1.7-0.4-2.2-0.9c-0.5-0.5-0.7-1.1-0.6-1.9L189.1,408.6z"/>
			<path class="st1" d="M196.6,406.1l-0.2,3.2c0,0.3,0,0.5,0.1,0.7c0.1,0.3,0.4,0.4,0.7,0.5c0.5,0,0.8-0.1,1-0.5
				c0.1-0.2,0.2-0.5,0.2-0.8l0.2-2.9l1.4,0.1l-0.4,5.4l-1.4-0.1l0-0.8c0,0,0,0.1-0.1,0.1c-0.1,0.1-0.1,0.1-0.2,0.2
				c-0.2,0.2-0.5,0.3-0.7,0.4c-0.2,0.1-0.5,0.1-0.7,0.1c-0.8-0.1-1.3-0.4-1.5-1c-0.1-0.3-0.2-0.8-0.1-1.4l0.2-3.2L196.6,406.1z"/>
			<path class="st1" d="M206.1,407.2c0.4,0.5,0.6,1.2,0.6,2.1c0,0.9-0.3,1.7-0.7,2.2c-0.4,0.5-1,0.7-1.7,0.7c-0.4,0-0.8-0.1-1.1-0.4
				c-0.2-0.1-0.3-0.3-0.4-0.5l-0.1,2.8l-1.4,0l0.3-7.5l1.4,0l0,0.8c0.2-0.2,0.3-0.4,0.5-0.5c0.3-0.2,0.7-0.3,1.1-0.3
				C205.2,406.5,205.7,406.7,206.1,407.2z M205,408.2c-0.2-0.3-0.5-0.5-0.9-0.5c-0.5,0-0.9,0.2-1.1,0.7c-0.1,0.3-0.2,0.6-0.2,1
				c0,0.6,0.1,1.1,0.5,1.3c0.2,0.2,0.4,0.2,0.7,0.2c0.4,0,0.7-0.1,0.9-0.4c0.2-0.3,0.3-0.7,0.4-1.2
				C205.3,408.9,205.2,408.5,205,408.2z"/>
			<path class="st1" d="M212.6,407.2c0.4,0.5,0.7,1.1,0.7,2c0,1-0.2,1.7-0.6,2.2c-0.4,0.5-1,0.7-1.7,0.7c-0.4,0-0.8-0.1-1.1-0.3
				c-0.2-0.1-0.3-0.3-0.5-0.5v2.8l-1.4,0l0-7.5h1.4v0.8c0.2-0.2,0.3-0.4,0.5-0.6c0.3-0.2,0.7-0.4,1.1-0.4
				C211.7,406.5,212.2,406.8,212.6,407.2z M211.5,408.2c-0.2-0.3-0.5-0.5-0.9-0.5c-0.5,0-0.9,0.2-1.1,0.7c-0.1,0.3-0.1,0.6-0.1,1
				c0,0.6,0.2,1.1,0.5,1.3c0.2,0.1,0.4,0.2,0.7,0.2c0.4,0,0.7-0.2,0.9-0.5c0.2-0.3,0.3-0.7,0.3-1.2
				C211.8,408.9,211.7,408.6,211.5,408.2z"/>
			<path class="st1" d="M216.2,412l-1.4,0l-0.2-7.3l1.4,0L216.2,412z"/>
			<path class="st1" d="M219.2,405.8l-1.4,0.1l-0.1-1.3l1.4-0.1L219.2,405.8z M217.8,406.5l1.4-0.1l0.2,5.4l-1.4,0.1L217.8,406.5z"
				/>
			<path class="st1" d="M224.5,406.3c0.4,0.1,0.7,0.4,1,0.7c0.2,0.3,0.4,0.7,0.5,1.1c0.1,0.2,0.1,0.6,0.1,1.1l-3.9,0.3
				c0.1,0.5,0.3,0.9,0.6,1.1c0.2,0.1,0.5,0.2,0.8,0.2c0.3,0,0.6-0.1,0.8-0.3c0.1-0.1,0.2-0.2,0.3-0.4l1.4-0.1c0,0.3-0.2,0.7-0.5,1
				c-0.4,0.6-1.1,0.9-2,0.9c-0.7,0-1.4-0.1-1.9-0.5c-0.6-0.4-0.9-1.1-1-2.1c-0.1-0.9,0.1-1.7,0.6-2.2c0.5-0.5,1.1-0.8,1.9-0.9
				C223.7,406.1,224.1,406.1,224.5,406.3z M222.4,407.6c-0.2,0.2-0.3,0.5-0.3,0.9l2.4-0.2c0-0.4-0.2-0.6-0.4-0.8
				c-0.2-0.2-0.5-0.3-0.9-0.2C222.9,407.3,222.6,407.4,222.4,407.6z"/>
			<path class="st1" d="M229.9,405.6c0,0,0.1,0,0.1,0l0.1,1.4c-0.1,0-0.2,0-0.2,0c-0.1,0-0.1,0-0.2,0c-0.6,0-0.9,0.3-1.1,0.7
				c-0.1,0.2-0.1,0.5-0.1,1l0.2,2.6l-1.4,0.1l-0.5-5.4l1.3-0.1l0.1,0.9c0.2-0.4,0.4-0.6,0.5-0.8
				C229.1,405.8,229.4,405.6,229.9,405.6C229.8,405.6,229.9,405.6,229.9,405.6z"/>
			<path class="st1" d="M232.7,409.1c0.1,0.2,0.1,0.4,0.3,0.5c0.2,0.2,0.5,0.2,1,0.2c0.3,0,0.5-0.1,0.6-0.2c0.2-0.1,0.2-0.2,0.2-0.4
				c0-0.2-0.1-0.3-0.2-0.3c-0.1-0.1-0.6-0.1-1.5-0.3c-0.6-0.1-1.1-0.2-1.4-0.4c-0.3-0.2-0.4-0.5-0.5-0.9c-0.1-0.5,0.1-0.9,0.4-1.3
				c0.3-0.4,0.9-0.6,1.6-0.7c0.7-0.1,1.2,0,1.7,0.2c0.5,0.2,0.7,0.7,0.9,1.3l-1.4,0.2c0-0.2-0.1-0.3-0.2-0.4
				c-0.2-0.2-0.5-0.2-0.8-0.2c-0.3,0-0.5,0.1-0.6,0.2c-0.1,0.1-0.2,0.2-0.2,0.4c0,0.2,0.1,0.3,0.2,0.3c0.1,0.1,0.6,0.1,1.5,0.2
				c0.6,0.1,1,0.2,1.3,0.4c0.3,0.2,0.5,0.6,0.5,1c0.1,0.5-0.1,1-0.4,1.4c-0.4,0.4-0.9,0.6-1.8,0.7c-0.8,0.1-1.5,0-1.9-0.3
				c-0.4-0.3-0.7-0.7-0.8-1.3L232.7,409.1z"/>
		</g>
	</g>
	<g>
		<path class="st1" d="M345.1,350.8l1.2-1.2l6.9,3.5l-1.2,1.1l-1.4-0.7l-1.9,1.9l0.7,1.4l-1.2,1.1L345.1,350.8z M348.2,354.1
			l1.3-1.3l-2.7-1.4L348.2,354.1z"/>
		<path class="st1" d="M351.3,347.4l2.3,2.3c0.2,0.2,0.4,0.3,0.6,0.4c0.3,0.1,0.6,0,0.8-0.3c0.3-0.3,0.4-0.7,0.3-1.1
			c-0.1-0.2-0.3-0.4-0.5-0.7l-2.1-2l1-1l3.9,3.8l-1,1l-0.5-0.5c0,0,0,0.1,0,0.2c0,0.1,0,0.2,0,0.3c0,0.3-0.1,0.5-0.2,0.7
			c-0.1,0.2-0.2,0.4-0.4,0.6c-0.6,0.6-1.1,0.8-1.7,0.6c-0.3-0.1-0.7-0.4-1.2-0.8l-2.3-2.3L351.3,347.4z"/>
		<path class="st1" d="M355.2,344.8l-0.7-0.7l0.5-0.6l-1.1-1l0.9-1l1.1,1l0.6-0.6l0.7,0.7l-0.6,0.6l2.1,1.9c0.2,0.1,0.3,0.2,0.4,0.2
			c0.1,0,0.2-0.1,0.4-0.3c0,0,0.1-0.1,0.1-0.1c0,0,0.1-0.1,0.1-0.1l0.8,0.7l-0.4,0.5c-0.4,0.5-0.8,0.8-1.2,0.8
			c-0.2,0-0.5-0.1-0.7-0.3l-2.4-2.2L355.2,344.8z"/>
		<path class="st1" d="M359.8,338.1c0.3-0.1,0.5-0.2,0.8-0.2c0.2,0,0.5,0.1,0.6,0.2c0.2,0.1,0.5,0.3,0.8,0.6l2.4,2.1l-0.9,1.1
			l-2.5-2.2c-0.2-0.2-0.4-0.3-0.6-0.4c-0.3-0.1-0.5,0-0.8,0.3c-0.2,0.3-0.3,0.6-0.3,0.9c0.1,0.3,0.3,0.6,0.6,0.9l2.2,1.9l-0.9,1.1
			l-5.5-4.8l0.9-1.1l1.9,1.7c-0.1-0.4-0.1-0.7,0-1c0.1-0.3,0.2-0.5,0.4-0.8C359.3,338.4,359.6,338.2,359.8,338.1z"/>
		<path class="st1" d="M368,335.6c0.1,0.7-0.1,1.4-0.7,2.1c-0.6,0.7-1.2,1.1-2,1.1c-0.7,0-1.4-0.3-2-0.8c-0.6-0.5-1-1.1-1.1-1.8
			c-0.2-0.7,0.1-1.4,0.6-2.1c0.6-0.7,1.2-1.1,2-1.1s1.4,0.3,2,0.7C367.5,334.3,367.9,334.9,368,335.6z M366.7,336
			c-0.1-0.4-0.3-0.7-0.8-1c-0.4-0.3-0.8-0.5-1.2-0.5c-0.4,0-0.7,0.1-0.9,0.5c-0.3,0.3-0.3,0.7-0.3,1c0.1,0.4,0.3,0.7,0.8,1
			c0.4,0.3,0.8,0.5,1.2,0.5c0.4,0,0.7-0.1,0.9-0.5C366.7,336.7,366.8,336.3,366.7,336z"/>
		<path class="st1" d="M367.3,328.6C367.3,328.5,367.4,328.5,367.3,328.6l1.2,0.8c-0.1,0.1-0.1,0.1-0.2,0.2c0,0.1-0.1,0.1-0.1,0.1
			c-0.3,0.4-0.4,0.9-0.3,1.2c0.1,0.2,0.3,0.5,0.7,0.7l2,1.6l-0.9,1.1l-4.3-3.3l0.8-1.1l0.7,0.6c-0.2-0.4-0.2-0.7-0.2-0.9
			C366.9,329.3,367,328.9,367.3,328.6C367.3,328.6,367.3,328.6,367.3,328.6z"/>
		<path class="st1" d="M368.5,326l-0.9,1.1l-1-0.8l0.9-1.1L368.5,326z M368.2,327.6l0.9-1.2l4.3,3.2l-0.9,1.2L368.2,327.6z"/>
		<path class="st1" d="M370.6,326l-0.8-0.6l0.4-0.6L369,324l0.8-1.1l1.2,0.9l0.5-0.7l0.8,0.6l-0.5,0.7l2.3,1.7
			c0.2,0.1,0.3,0.2,0.4,0.2c0.1,0,0.2-0.1,0.4-0.4c0,0,0.1-0.1,0.1-0.1c0,0,0.1-0.1,0.1-0.1l0.9,0.6l-0.4,0.6
			c-0.4,0.6-0.7,0.9-1.1,0.9c-0.2,0-0.5,0-0.7-0.2l-2.7-1.9L370.6,326z"/>
		<path class="st1" d="M372.5,320.4l-0.8,1.2l-1.1-0.7l0.8-1.2L372.5,320.4z M372.3,321.9l0.8-1.2l4.4,3.1l-0.8,1.2L372.3,321.9z"/>
		<path class="st1" d="M376,316.4c0.3-0.2,0.7-0.3,1.2-0.3c0.4,0,0.8,0.1,1.2,0.2c0.2,0.1,0.5,0.3,0.9,0.5l-2.1,3.3
			c0.5,0.3,0.9,0.3,1.3,0.1c0.2-0.1,0.4-0.3,0.6-0.5c0.2-0.3,0.2-0.5,0.2-0.8c0-0.1-0.1-0.3-0.2-0.4l0.8-1.2c0.2,0.2,0.4,0.5,0.5,1
			c0.2,0.7,0,1.4-0.4,2.1c-0.4,0.6-0.9,1-1.6,1.2c-0.7,0.2-1.4,0.1-2.3-0.5c-0.8-0.5-1.2-1.1-1.4-1.8c-0.1-0.7,0-1.4,0.4-2
			C375.4,317,375.7,316.7,376,316.4z M375.9,318.9c0.1,0.3,0.2,0.5,0.5,0.8l1.3-2c-0.3-0.2-0.6-0.2-0.9-0.2
			c-0.3,0.1-0.5,0.3-0.7,0.5C375.9,318.3,375.8,318.6,375.9,318.9z"/>
		<path class="st1" d="M381,315.3c0.2,0.1,0.4,0.1,0.6,0.1c0.3-0.1,0.5-0.3,0.7-0.7c0.1-0.2,0.2-0.4,0.2-0.6c0-0.2,0-0.3-0.2-0.4
			c-0.1-0.1-0.3-0.1-0.4,0c-0.1,0.1-0.5,0.4-1.1,1c-0.4,0.4-0.8,0.7-1.2,0.8c-0.3,0.1-0.7,0-1-0.2c-0.4-0.3-0.7-0.6-0.8-1.2
			c-0.1-0.5,0-1.1,0.4-1.7c0.4-0.6,0.8-1,1.2-1.2c0.5-0.2,1-0.2,1.6,0.1l-0.7,1.2c-0.2-0.1-0.3-0.1-0.4-0.1c-0.2,0-0.5,0.2-0.7,0.5
			c-0.2,0.3-0.2,0.5-0.2,0.6c0,0.2,0.1,0.3,0.2,0.3c0.1,0.1,0.3,0.1,0.4,0c0.1-0.1,0.5-0.4,1.1-1.1c0.4-0.4,0.8-0.7,1.2-0.8
			c0.4-0.1,0.7,0,1.1,0.2c0.5,0.3,0.7,0.7,0.8,1.2c0.1,0.5-0.1,1.1-0.5,1.8c-0.4,0.7-0.9,1.2-1.4,1.3c-0.5,0.2-1,0.1-1.5-0.2
			L381,315.3z"/>
	</g>
	<g>
		<g>
			<path class="st1" d="M98.6,43.7c0.2-0.8,0.6-1.5,1.4-2c1-0.7,2-0.8,2.9-0.5c0.5,0.2,0.9,0.5,1.2,0.9l-1.3,0.8
				c-0.3-0.2-0.5-0.4-0.7-0.5c-0.4-0.1-0.8,0-1.3,0.3c-0.5,0.3-0.7,0.7-0.7,1.3c0,0.5,0.2,1.2,0.7,1.8s0.9,1.1,1.4,1.3
				c0.5,0.2,1,0.1,1.4-0.2c0.4-0.3,0.7-0.7,0.7-1.1c0-0.2,0-0.5-0.1-0.9l1.3-0.8c0.3,0.7,0.4,1.5,0.2,2.2c-0.2,0.7-0.6,1.3-1.3,1.8
				c-0.9,0.6-1.7,0.7-2.6,0.5c-0.9-0.2-1.6-0.9-2.3-1.8C98.6,45.6,98.4,44.6,98.6,43.7z"/>
			<path class="st1" d="M111.5,42.5c-0.1,0.7-0.5,1.3-1.3,1.8c-0.8,0.5-1.5,0.6-2.2,0.4c-0.7-0.2-1.2-0.7-1.6-1.4
				c-0.4-0.7-0.6-1.4-0.5-2.1c0.1-0.7,0.5-1.3,1.3-1.8c0.8-0.5,1.5-0.6,2.2-0.3c0.7,0.3,1.2,0.7,1.6,1.4
				C111.4,41.1,111.6,41.8,111.5,42.5z M110.1,42.4c0-0.4-0.1-0.8-0.4-1.2c-0.3-0.5-0.6-0.8-0.9-0.9c-0.3-0.1-0.7-0.1-1,0.1
				c-0.4,0.2-0.5,0.5-0.6,0.9s0.1,0.8,0.4,1.2c0.3,0.5,0.6,0.8,0.9,0.9c0.3,0.1,0.7,0.1,1-0.1C109.9,43,110.1,42.8,110.1,42.4z"/>
			<path class="st1" d="M115,35.4c0.5,0.1,0.8,0.4,1.2,1l1.8,3.2l-1.3,0.7l-1.6-2.9c-0.1-0.2-0.3-0.4-0.4-0.5
				c-0.3-0.2-0.6-0.2-0.9,0c-0.4,0.2-0.6,0.6-0.6,1c0,0.2,0.1,0.5,0.3,0.8l1.4,2.5l-1.2,0.7l-2.6-4.7l1.2-0.7l0.4,0.7
				c0-0.3,0.1-0.6,0.2-0.8c0.1-0.3,0.4-0.6,0.8-0.8C114.1,35.4,114.6,35.3,115,35.4z"/>
			<path class="st1" d="M119.7,36.7c0.1,0.2,0.3,0.3,0.4,0.4c0.2,0.1,0.6,0,1-0.2c0.2-0.1,0.4-0.3,0.5-0.4c0.1-0.1,0.1-0.3,0-0.4
				c-0.1-0.1-0.2-0.2-0.3-0.2c-0.2,0-0.7,0.1-1.5,0.3c-0.6,0.1-1.1,0.2-1.4,0.1c-0.3-0.1-0.6-0.3-0.8-0.7c-0.2-0.4-0.3-0.9-0.1-1.4
				c0.2-0.5,0.6-0.9,1.2-1.2c0.6-0.3,1.1-0.4,1.7-0.4c0.5,0,0.9,0.3,1.3,0.9l-1.3,0.6c-0.1-0.2-0.2-0.3-0.3-0.3
				c-0.2-0.1-0.5-0.1-0.8,0.1c-0.3,0.1-0.4,0.3-0.5,0.4c-0.1,0.1-0.1,0.3,0,0.4c0.1,0.1,0.2,0.2,0.3,0.2c0.2,0,0.7-0.1,1.5-0.3
				c0.6-0.1,1-0.2,1.4,0c0.4,0.1,0.6,0.3,0.8,0.7c0.2,0.5,0.3,1,0.1,1.4c-0.2,0.5-0.7,0.9-1.4,1.3c-0.8,0.4-1.4,0.5-1.9,0.4
				c-0.5-0.1-0.9-0.4-1.2-0.9L119.7,36.7z"/>
			<path class="st1" d="M123.9,30.5l1.4,2.9c0.1,0.3,0.3,0.5,0.4,0.6c0.2,0.2,0.5,0.2,0.9,0c0.4-0.2,0.6-0.5,0.6-0.9
				c0-0.2-0.1-0.5-0.2-0.8l-1.3-2.7L127,29l2.3,4.9l-1.2,0.6l-0.3-0.7c0,0,0,0.1,0,0.2c0,0.1,0,0.2-0.1,0.3
				c-0.1,0.3-0.2,0.5-0.4,0.6c-0.2,0.2-0.4,0.3-0.6,0.4c-0.7,0.3-1.3,0.3-1.8-0.1c-0.3-0.2-0.5-0.6-0.8-1.2l-1.4-2.9L123.9,30.5z"/>
			<path class="st1" d="M135,25.5c0.2,0,0.5,0.1,0.8,0.2c0.2,0.1,0.4,0.3,0.6,0.5c0.1,0.2,0.2,0.4,0.4,0.7l1.3,3.1l-1.3,0.6
				l-1.3-3.2c-0.1-0.2-0.2-0.3-0.3-0.4c-0.2-0.2-0.5-0.2-0.8-0.1c-0.4,0.2-0.5,0.4-0.6,0.8c0,0.2,0,0.4,0.1,0.6l1.3,3l-1.3,0.6
				l-1.3-3c-0.1-0.3-0.2-0.5-0.4-0.6c-0.2-0.2-0.5-0.2-0.8-0.1c-0.4,0.2-0.6,0.4-0.6,0.7c0,0.2,0,0.4,0.2,0.7l1.3,3l-1.3,0.6l-2.1-5
				l1.3-0.5l0.3,0.7c0.1-0.3,0.1-0.6,0.2-0.7c0.2-0.3,0.5-0.5,0.9-0.7c0.4-0.2,0.7-0.2,1-0.1c0.3,0.1,0.5,0.2,0.7,0.4
				c0-0.4,0.2-0.7,0.4-0.9c0.2-0.3,0.5-0.4,0.8-0.6C134.5,25.6,134.7,25.5,135,25.5z"/>
			<path class="st1" d="M141,23.3c0.4,0,0.8,0.2,1.2,0.4c0.3,0.2,0.6,0.5,0.8,0.9c0.1,0.2,0.3,0.5,0.4,1l-3.7,1.4
				c0.2,0.5,0.5,0.8,0.9,0.9c0.2,0.1,0.5,0,0.8-0.1c0.3-0.1,0.5-0.3,0.6-0.5c0.1-0.1,0.1-0.3,0.1-0.4l1.3-0.5c0.1,0.3,0,0.7-0.1,1.1
				c-0.3,0.7-0.8,1.1-1.6,1.5c-0.7,0.3-1.3,0.3-2,0.1c-0.7-0.2-1.2-0.8-1.5-1.7c-0.3-0.9-0.4-1.6-0.1-2.3c0.3-0.6,0.8-1.1,1.5-1.4
				C140.2,23.4,140.6,23.3,141,23.3z M139.5,25.2c-0.1,0.3-0.1,0.6-0.1,0.9l2.3-0.9c-0.2-0.3-0.4-0.6-0.7-0.7
				c-0.3-0.1-0.6-0.1-0.9,0C139.8,24.7,139.6,24.9,139.5,25.2z"/>
			<path class="st1" d="M146.4,21.2c0,0,0.1,0,0.1,0l0.5,1.4c-0.1,0-0.2,0-0.2,0.1c-0.1,0-0.1,0-0.2,0.1c-0.5,0.2-0.8,0.5-0.9,0.9
				c0,0.2,0,0.6,0.2,1l0.8,2.4l-1.3,0.5l-1.8-5.1l1.3-0.4l0.3,0.9c0.1-0.4,0.2-0.7,0.3-0.9C145.6,21.5,145.9,21.3,146.4,21.2
				C146.3,21.2,146.3,21.2,146.4,21.2z"/>
			<path class="st1" d="M150,24c0.1,0.2,0.2,0.4,0.3,0.5c0.2,0.1,0.6,0.1,1,0c0.3-0.1,0.5-0.2,0.6-0.3c0.1-0.1,0.2-0.3,0.1-0.4
				c0-0.2-0.1-0.2-0.3-0.3c-0.2,0-0.7,0-1.5,0c-0.6,0-1.1,0-1.4-0.1c-0.3-0.1-0.5-0.4-0.7-0.8c-0.2-0.5-0.1-0.9,0.2-1.4
				c0.3-0.5,0.7-0.8,1.4-1c0.6-0.2,1.2-0.2,1.7-0.1c0.5,0.1,0.9,0.5,1.1,1.1l-1.3,0.4c-0.1-0.2-0.2-0.3-0.3-0.4
				c-0.2-0.1-0.5-0.1-0.8,0c-0.3,0.1-0.5,0.2-0.6,0.3c-0.1,0.1-0.1,0.3-0.1,0.4c0,0.2,0.1,0.2,0.3,0.3c0.2,0,0.7,0,1.5-0.1
				c0.6,0,1,0,1.4,0.2c0.3,0.2,0.6,0.5,0.7,0.8c0.2,0.5,0.1,1-0.2,1.4s-0.8,0.8-1.6,1c-0.8,0.3-1.5,0.3-2,0.1
				c-0.5-0.2-0.8-0.6-1-1.1L150,24z"/>
		</g>
	</g>
	<g>
		<g>
			<path class="st1" d="M275.1,27.1l-1.4-0.5l2.4-6.9l1.4,0.5L275.1,27.1z"/>
			<path class="st1" d="M282.7,24.5c0.2,0.4,0.2,0.9,0,1.5l-1.3,3.4l-1.4-0.5l1.2-3.1c0.1-0.3,0.1-0.5,0.1-0.7
				c0-0.3-0.2-0.5-0.6-0.7c-0.4-0.2-0.8-0.1-1.1,0.2c-0.2,0.2-0.3,0.4-0.4,0.7l-1,2.7l-1.3-0.5l1.9-5l1.3,0.5l-0.3,0.7
				c0.3-0.2,0.5-0.3,0.7-0.4c0.3-0.1,0.7-0.1,1.1,0.1C282.1,23.8,282.5,24.1,282.7,24.5z"/>
			<path class="st1" d="M288.2,26.4l1.4,0.6l-3.9,4.2l-1.4-0.6l0.3-5.7l1.5,0.6l-0.5,4.1L288.2,26.4z"/>
			<path class="st1" d="M294,29.1c0.3,0.3,0.4,0.7,0.5,1.1c0.1,0.4,0,0.8-0.1,1.2c-0.1,0.2-0.2,0.6-0.4,1l-3.6-1.6
				c-0.2,0.5-0.2,0.9,0,1.3c0.1,0.2,0.3,0.4,0.6,0.5c0.3,0.1,0.6,0.2,0.8,0.1c0.1,0,0.3-0.1,0.4-0.2l1.3,0.6
				c-0.2,0.3-0.5,0.5-0.9,0.7c-0.7,0.3-1.4,0.2-2.2-0.1c-0.7-0.3-1.1-0.8-1.5-1.4c-0.3-0.6-0.3-1.4,0.1-2.3c0.4-0.9,0.9-1.4,1.6-1.7
				c0.7-0.2,1.3-0.2,2.1,0.1C293.4,28.5,293.7,28.8,294,29.1z M291.6,29.3c-0.3,0.1-0.5,0.3-0.7,0.6l2.2,1c0.1-0.4,0.1-0.7,0-0.9
				c-0.1-0.3-0.3-0.5-0.6-0.6C292.1,29.2,291.8,29.2,291.6,29.3z"/>
			<path class="st1" d="M295.9,33.9c-0.1,0.2-0.1,0.4-0.1,0.6c0.1,0.2,0.3,0.5,0.8,0.7c0.2,0.1,0.5,0.2,0.6,0.2
				c0.2,0,0.3-0.1,0.4-0.2c0.1-0.1,0.1-0.3,0-0.4c-0.1-0.1-0.5-0.5-1.1-1c-0.5-0.4-0.8-0.8-0.9-1.1c-0.1-0.3-0.1-0.7,0.1-1
				c0.2-0.4,0.6-0.7,1.1-0.9c0.5-0.1,1.1-0.1,1.7,0.2c0.6,0.3,1,0.7,1.3,1.1c0.3,0.4,0.3,1,0,1.6l-1.3-0.6c0.1-0.2,0.1-0.3,0.1-0.5
				c-0.1-0.2-0.3-0.4-0.6-0.6c-0.3-0.1-0.5-0.2-0.7-0.2c-0.2,0-0.3,0.1-0.3,0.2c-0.1,0.1-0.1,0.3,0,0.4c0.1,0.1,0.5,0.5,1.1,1
				c0.4,0.4,0.7,0.7,0.9,1.1c0.1,0.4,0.1,0.7-0.1,1.1c-0.2,0.5-0.6,0.8-1.1,0.9c-0.5,0.1-1.1,0-1.9-0.4c-0.8-0.4-1.2-0.8-1.5-1.3
				c-0.2-0.5-0.2-1,0.1-1.5L295.9,33.9z"/>
			<path class="st1" d="M301.1,33.6l0.5-0.9l0.7,0.3l0.7-1.3l1.2,0.6l-0.7,1.3l0.8,0.4l-0.5,0.9l-0.8-0.4l-1.3,2.5
				c-0.1,0.2-0.1,0.3-0.1,0.4c0,0.1,0.2,0.2,0.4,0.3c0,0,0.1,0,0.1,0.1c0,0,0.1,0,0.1,0.1l-0.5,0.9l-0.6-0.3c-0.6-0.3-1-0.6-1-0.9
				c-0.1-0.2,0-0.5,0.1-0.8l1.5-2.9L301.1,33.6z"/>
			<path class="st1" d="M307.3,41.1c-0.7,0.3-1.4,0.2-2.2-0.3c-0.8-0.5-1.3-1-1.4-1.7c-0.1-0.7,0-1.4,0.4-2.1
				c0.4-0.7,0.9-1.2,1.6-1.4c0.7-0.3,1.4-0.2,2.2,0.3c0.8,0.5,1.3,1,1.4,1.8c0.1,0.7,0,1.4-0.4,2.1
				C308.5,40.4,307.9,40.9,307.3,41.1z M306.7,39.9c0.3-0.1,0.6-0.5,0.9-0.9c0.3-0.5,0.4-0.9,0.3-1.3c-0.1-0.4-0.3-0.6-0.6-0.8
				c-0.4-0.2-0.7-0.2-1-0.1c-0.3,0.1-0.6,0.5-0.9,0.9c-0.3,0.5-0.4,0.9-0.3,1.3c0.1,0.4,0.3,0.6,0.6,0.8C306,40,306.3,40,306.7,39.9
				z"/>
			<path class="st1" d="M314.2,39.6c0,0,0,0,0.1,0.1l-0.7,1.2c-0.1-0.1-0.1-0.1-0.2-0.1c-0.1,0-0.1-0.1-0.1-0.1
				c-0.5-0.3-0.9-0.3-1.3-0.1c-0.2,0.1-0.4,0.4-0.6,0.7l-1.3,2.2l-1.2-0.7l2.8-4.6l1.2,0.7l-0.5,0.8c0.4-0.2,0.7-0.3,0.9-0.3
				C313.4,39.2,313.8,39.3,314.2,39.6C314.2,39.6,314.2,39.6,314.2,39.6z"/>
			<path class="st1" d="M314.4,44.2c-0.1,0.2-0.1,0.4-0.1,0.6c0,0.3,0.3,0.5,0.7,0.8c0.2,0.1,0.4,0.2,0.6,0.3c0.2,0,0.3,0,0.4-0.2
				c0.1-0.1,0.1-0.3,0-0.4c-0.1-0.1-0.4-0.5-1-1.2c-0.4-0.5-0.7-0.8-0.8-1.2c-0.1-0.3,0-0.7,0.2-1c0.3-0.4,0.7-0.7,1.2-0.8
				c0.5-0.1,1.1,0.1,1.7,0.4c0.6,0.4,1,0.8,1.2,1.2c0.2,0.5,0.2,1-0.1,1.6l-1.2-0.8c0.1-0.2,0.1-0.3,0.1-0.4c0-0.2-0.2-0.5-0.5-0.7
				c-0.3-0.2-0.5-0.2-0.6-0.2c-0.2,0-0.3,0.1-0.3,0.2c-0.1,0.1-0.1,0.3,0,0.4c0.1,0.1,0.4,0.5,1,1.1c0.4,0.4,0.7,0.8,0.7,1.2
				c0.1,0.4,0,0.7-0.2,1.1c-0.3,0.5-0.7,0.7-1.2,0.8c-0.5,0.1-1.1-0.1-1.8-0.6c-0.7-0.5-1.2-0.9-1.3-1.5c-0.1-0.5-0.1-1,0.2-1.5
				L314.4,44.2z"/>
		</g>
	</g>
	<g>
		<path class="st1" d="M401.9,147.5l0.5,1.5l-4,4.3l4.9-1.5l0.4,1.4l-7,2.2l-0.5-1.5l4.1-4.4l-4.9,1.5l-0.4-1.4L401.9,147.5z"/>
		<path class="st1" d="M403.3,160.5c0.5-0.2,0.7-0.6,0.8-1.1c0-0.3,0-0.6-0.1-0.8c-0.2-0.6-0.5-1-1-1.2c-0.5-0.3-1.2-0.3-2.1,0
			c-0.9,0.2-1.4,0.6-1.7,1.1c-0.3,0.5-0.3,1-0.2,1.5c0.1,0.5,0.4,0.9,0.7,1.1c0.4,0.2,0.8,0.3,1.3,0.3l-0.4-1.6l1.2-0.3l0.8,2.9
			l-3.8,1l-0.3-1l0.8-0.4c-0.4-0.2-0.7-0.4-0.9-0.6c-0.3-0.3-0.6-0.8-0.7-1.3c-0.2-0.9-0.1-1.8,0.4-2.6c0.5-0.8,1.3-1.3,2.4-1.6
			c1.1-0.3,2.1-0.2,3,0.2c0.9,0.4,1.4,1.2,1.7,2.2c0.2,0.9,0.2,1.7-0.1,2.3c-0.3,0.7-0.8,1.1-1.5,1.4L403.3,160.5z"/>
		<path class="st1" d="M401.1,170.4c-0.7-0.4-1.1-1.1-1.3-2.2c-0.2-1-0.1-1.9,0.3-2.5c0.5-0.9,1.4-1.4,2.7-1.7
			c1.3-0.3,2.4-0.1,3.2,0.4c0.7,0.4,1.1,1.1,1.3,2.2c0.2,1,0.1,1.9-0.3,2.5c-0.5,0.9-1.4,1.4-2.7,1.7
			C403,171.2,401.9,171,401.1,170.4z M402,169.3c0.5,0.3,1.2,0.3,2,0.1c0.8-0.2,1.4-0.5,1.7-0.9c0.4-0.4,0.5-1,0.3-1.5
			c-0.1-0.6-0.5-1-1-1.3c-0.5-0.3-1.2-0.3-2-0.1c-0.8,0.2-1.4,0.5-1.7,0.9c-0.4,0.4-0.5,1-0.3,1.6C401.1,168.6,401.5,169,402,169.3z
			"/>
		<path class="st1" d="M408.9,174.1l-1.7-1.2l-0.2-1l1.6,0.7L408.9,174.1z"/>
		<path class="st1" d="M403.5,177.7c-0.2,0.1-0.4,0.2-0.5,0.3c-0.2,0.2-0.2,0.5-0.1,1c0,0.3,0.1,0.5,0.2,0.6
			c0.1,0.1,0.2,0.2,0.4,0.2c0.2,0,0.3-0.1,0.3-0.3c0.1-0.1,0.1-0.7,0.2-1.5c0.1-0.6,0.2-1.1,0.4-1.4c0.2-0.3,0.5-0.5,0.9-0.5
			c0.5-0.1,0.9,0,1.4,0.4c0.4,0.3,0.7,0.8,0.8,1.5c0.1,0.7,0.1,1.2-0.1,1.7c-0.2,0.5-0.6,0.8-1.3,0.9l-0.2-1.4
			c0.2,0,0.3-0.1,0.4-0.2c0.2-0.2,0.2-0.5,0.2-0.8c0-0.3-0.1-0.5-0.2-0.6c-0.1-0.1-0.2-0.2-0.4-0.1c-0.2,0-0.3,0.1-0.3,0.3
			c-0.1,0.1-0.1,0.7-0.2,1.5c0,0.6-0.2,1-0.4,1.3c-0.2,0.3-0.5,0.5-0.9,0.6c-0.5,0.1-1,0-1.4-0.4c-0.4-0.3-0.7-0.9-0.8-1.7
			c-0.1-0.8-0.1-1.5,0.2-1.9c0.3-0.5,0.7-0.7,1.3-0.8L403.5,177.7z"/>
	</g>
</g>
</svg>
