<?xml version="1.0" encoding="utf-8"?>
<!-- Generator: Adobe Illustrator 23.0.3, SVG Export Plug-In . SVG Version: 6.00 Build 0)  -->
<svg version="1.1" id="Layer_1" xmlns="http://www.w3.org/2000/svg" xmlns:xlink="http://www.w3.org/1999/xlink" x="0px" y="0px"
	 viewBox="0 0 106.2 124.7" style="enable-background:new 0 0 106.2 124.7;" xml:space="preserve">
<style type="text/css">
	.st0{fill:#5DB1B9;}
	.st1{fill:#FFFFFF;}
</style>
<title>consumidores</title>
<g>
	<circle class="st0" cx="25.5" cy="25.4" r="24.5"/>
	<g>
		<path class="st1" d="M25.8,22c0.5,0,1,0.1,1.5,0.3c0-0.7,0.3-1.4,0.7-2c-0.3-0.1-0.6-0.1-0.9-0.1h-2.9c-0.3,0-0.6,0-0.9,0.1
			c0.4,0.6,0.7,1.4,0.7,2.2C24.5,22.2,25.1,22,25.8,22L25.8,22z M25.8,22"/>
		<path class="st1" d="M29.1,16.5c0,1.9-1.5,3.4-3.4,3.4c-1.9,0-3.4-1.5-3.4-3.4c0-1.9,1.5-3.4,3.4-3.4
			C27.5,13.1,29.1,14.6,29.1,16.5L29.1,16.5z M29.1,16.5"/>
		<path class="st1" d="M31,25.8c1.7,0,3.2-1.4,3.2-3.2c0-1.7-1.4-3.2-3.2-3.2c-1.7,0-3.1,1.4-3.2,3.1c1,0.6,1.7,1.7,1.8,2.9
			C30.1,25.7,30.5,25.8,31,25.8L31,25.8z M31,25.8"/>
		<path class="st1" d="M20.2,19.5c-1.7,0-3.2,1.4-3.2,3.2c0,1.7,1.4,3.2,3.2,3.2c0.6,0,1.2-0.2,1.7-0.5c0.2-1,0.7-1.9,1.5-2.5
			c0-0.1,0-0.1,0-0.2C23.4,20.9,22,19.5,20.2,19.5L20.2,19.5z M20.2,19.5"/>
		<path class="st1" d="M33.1,19.4c1,0.6,1.7,1.7,1.8,2.9c0.4,0.2,0.9,0.3,1.3,0.3c1.7,0,3.2-1.4,3.2-3.2c0-1.7-1.4-3.2-3.2-3.2
			C34.5,16.3,33.1,17.7,33.1,19.4L33.1,19.4z M33.1,19.4"/>
		<path class="st1" d="M28.9,25.9c0,1.7-1.4,3.2-3.2,3.2c-1.7,0-3.2-1.4-3.2-3.2c0-1.7,1.4-3.2,3.2-3.2
			C27.5,22.8,28.9,24.2,28.9,25.9L28.9,25.9z M28.9,25.9"/>
		<path class="st1" d="M32.4,26h-2.7c0,1.1-0.5,2-1.2,2.7c2,0.6,3.4,2.4,3.4,4.6v1c2.6-0.1,4.1-0.8,4.2-0.9l0.2-0.1h0v-3.3
			C36.4,27.9,34.6,26,32.4,26L32.4,26z M32.4,26"/>
		<path class="st1" d="M37.6,22.9h-2.7c0,1.1-0.5,2-1.2,2.7c2,0.6,3.4,2.4,3.4,4.6v1c2.6-0.1,4.1-0.8,4.2-0.9l0.2-0.1h0v-3.3
			C41.6,24.7,39.8,22.9,37.6,22.9L37.6,22.9z M37.6,22.9"/>
		<path class="st1" d="M23.1,28.7c-0.7-0.7-1.2-1.6-1.2-2.7c-0.1,0-0.2,0-0.3,0h-2.7c-2.2,0-4,1.8-4,4v3.3l0,0l0.2,0.1
			c1.7,0.5,3.2,0.8,4.6,0.9v-1C19.6,31.2,21.1,29.3,23.1,28.7L23.1,28.7z M23.1,28.7"/>
		<path class="st1" d="M27.1,29.3h-2.7c-2.2,0-4,1.8-4,4v3.3l0,0.1l0.2,0.1c2.1,0.7,4,0.9,5.5,0.9c3,0,4.7-0.8,4.8-0.9l0.2-0.1h0
			v-3.3C31.2,31.1,29.4,29.3,27.1,29.3L27.1,29.3z M27.1,29.3"/>
		<path class="st1" d="M15,22.7c0.5,0,0.9-0.1,1.3-0.3c0.1-1.2,0.8-2.3,1.8-2.9c0-1.7-1.4-3.1-3.2-3.1c-1.7,0-3.2,1.4-3.2,3.2
			C11.8,21.3,13.2,22.7,15,22.7L15,22.7z M15,22.7"/>
		<path class="st1" d="M17.5,25.7C16.8,25,16.3,24,16.3,23h-2.7c-2.2,0-4,1.8-4,4v3.3h0l0.2,0.1c0.1,0.1,1.6,0.8,4.2,0.9v-1
			C14.1,28.1,15.5,26.3,17.5,25.7L17.5,25.7z M17.5,25.7"/>
		<path class="st1" d="M18.7,19.2c0.4-0.2,1-0.3,1.5-0.3c0.6,0,1.3,0.2,1.8,0.5c0.1-0.1,0.2-0.3,0.3-0.4c-0.5-0.7-0.8-1.6-0.8-2.4
			c0-0.6,0.1-1.2,0.4-1.7c-0.6-0.5-1.3-0.8-2.1-0.8c-1.4,0-2.7,1-3,2.3C17.9,16.9,18.6,18,18.7,19.2L18.7,19.2z M18.7,19.2"/>
		<path class="st1" d="M28.9,18.8c0.1,0.2,0.2,0.3,0.4,0.5c0.5-0.3,1.1-0.4,1.7-0.4c0.6,0,1.1,0.1,1.5,0.3c0.1-1.3,0.9-2.5,2.1-3.1
			c-0.4-1.2-1.6-2.1-2.9-2.1c-0.9,0-1.7,0.4-2.3,1c0.2,0.5,0.3,1,0.3,1.5C29.6,17.3,29.4,18.1,28.9,18.8L28.9,18.8z M28.9,18.8"/>
	</g>
</g>
<g>
	<path class="st0" d="M6.3,60.9c0.5-0.5,1.1-0.7,1.8-0.7c1,0,1.7,0.3,2.1,1c0.2,0.4,0.4,0.7,0.4,1.1H9.4c-0.1-0.3-0.2-0.5-0.3-0.6
		c-0.2-0.3-0.5-0.4-1-0.4c-0.4,0-0.8,0.2-1,0.5c-0.3,0.4-0.4,0.9-0.4,1.5s0.1,1.1,0.4,1.5c0.3,0.3,0.6,0.5,1,0.5
		c0.4,0,0.7-0.1,1-0.4c0.1-0.2,0.2-0.4,0.3-0.7h1.2c-0.1,0.6-0.4,1.2-0.8,1.6c-0.4,0.4-1,0.6-1.7,0.6c-0.8,0-1.5-0.3-2-0.8
		c-0.5-0.5-0.7-1.3-0.7-2.2C5.5,62.2,5.7,61.4,6.3,60.9z"/>
	<path class="st0" d="M15.1,65.6c-0.4,0.4-0.9,0.7-1.7,0.7c-0.7,0-1.3-0.2-1.7-0.7c-0.4-0.5-0.5-1-0.5-1.6c0-0.6,0.2-1.2,0.5-1.6
		c0.4-0.5,0.9-0.7,1.7-0.7c0.7,0,1.3,0.2,1.7,0.7c0.4,0.5,0.5,1,0.5,1.6C15.6,64.6,15.5,65.1,15.1,65.6z M14.2,65
		c0.2-0.2,0.3-0.6,0.3-1c0-0.4-0.1-0.8-0.3-1c-0.2-0.2-0.4-0.4-0.8-0.4c-0.3,0-0.6,0.1-0.8,0.4c-0.2,0.2-0.3,0.6-0.3,1
		c0,0.4,0.1,0.8,0.3,1c0.2,0.2,0.4,0.4,0.8,0.4C13.8,65.3,14,65.2,14.2,65z"/>
	<path class="st0" d="M19.9,62c0.3,0.2,0.4,0.6,0.4,1.2v2.9h-1.2v-2.6c0-0.2,0-0.4-0.1-0.5c-0.1-0.2-0.3-0.3-0.6-0.3
		c-0.4,0-0.6,0.2-0.8,0.5c-0.1,0.2-0.1,0.4-0.1,0.7v2.3h-1.1v-4.3h1.1v0.6c0.1-0.2,0.3-0.4,0.4-0.5c0.2-0.2,0.5-0.3,0.9-0.3
		C19.3,61.7,19.6,61.8,19.9,62z"/>
	<path class="st0" d="M22.3,64.7c0,0.2,0.1,0.3,0.2,0.4c0.1,0.2,0.4,0.2,0.8,0.2c0.2,0,0.4,0,0.5-0.1c0.1-0.1,0.2-0.2,0.2-0.3
		c0-0.1-0.1-0.2-0.2-0.3c-0.1-0.1-0.5-0.2-1.2-0.3c-0.5-0.1-0.8-0.3-1-0.5c-0.2-0.2-0.3-0.4-0.3-0.8c0-0.4,0.2-0.7,0.5-1
		c0.3-0.3,0.8-0.4,1.3-0.4c0.5,0,1,0.1,1.3,0.3c0.3,0.2,0.5,0.6,0.6,1.1h-1.1c0-0.1-0.1-0.3-0.1-0.3c-0.1-0.2-0.3-0.2-0.6-0.2
		c-0.2,0-0.4,0-0.5,0.1c-0.1,0.1-0.2,0.2-0.2,0.3c0,0.1,0.1,0.2,0.2,0.3c0.1,0.1,0.5,0.2,1.2,0.3c0.5,0.1,0.8,0.3,1,0.5
		c0.2,0.2,0.3,0.5,0.3,0.8c0,0.4-0.2,0.8-0.5,1c-0.3,0.3-0.8,0.4-1.5,0.4c-0.7,0-1.2-0.1-1.5-0.4s-0.5-0.7-0.5-1.1H22.3z"/>
	<path class="st0" d="M27,61.8v2.6c0,0.2,0,0.4,0.1,0.6c0.1,0.2,0.3,0.3,0.6,0.3c0.4,0,0.6-0.2,0.8-0.5c0.1-0.2,0.1-0.4,0.1-0.7
		v-2.3h1.1v4.3h-1.1v-0.6c0,0,0,0.1-0.1,0.1c0,0.1-0.1,0.1-0.2,0.2c-0.2,0.2-0.3,0.3-0.5,0.3c-0.2,0.1-0.4,0.1-0.6,0.1
		c-0.6,0-1.1-0.2-1.3-0.7c-0.1-0.3-0.2-0.6-0.2-1.1v-2.6H27z"/>
	<path class="st0" d="M36.3,61.8c0.2,0.1,0.4,0.2,0.5,0.4c0.1,0.2,0.2,0.3,0.2,0.6c0,0.1,0,0.4,0,0.6l0,2.7h-1.2v-2.7
		c0-0.2,0-0.3-0.1-0.4c-0.1-0.2-0.3-0.3-0.6-0.3c-0.3,0-0.5,0.1-0.6,0.4c-0.1,0.1-0.1,0.3-0.1,0.5v2.6h-1.1v-2.6
		c0-0.3,0-0.4-0.1-0.6c-0.1-0.2-0.3-0.3-0.6-0.3c-0.3,0-0.5,0.1-0.6,0.3C32,63.1,32,63.3,32,63.5v2.6h-1.1v-4.3H32v0.6
		c0.1-0.2,0.3-0.4,0.4-0.5c0.2-0.2,0.5-0.3,0.9-0.3c0.3,0,0.6,0.1,0.8,0.2c0.2,0.1,0.3,0.3,0.4,0.5c0.1-0.3,0.3-0.4,0.6-0.6
		c0.2-0.1,0.5-0.2,0.8-0.2C35.9,61.7,36.1,61.7,36.3,61.8z"/>
	<path class="st0" d="M40.9,61.9c0.3,0.1,0.6,0.3,0.7,0.6c0.2,0.3,0.3,0.6,0.3,0.9c0,0.2,0,0.5,0,0.9h-3.1c0,0.4,0.2,0.7,0.5,0.9
		c0.2,0.1,0.4,0.2,0.6,0.2c0.3,0,0.5-0.1,0.6-0.2c0.1-0.1,0.2-0.2,0.2-0.3H42c0,0.3-0.2,0.5-0.4,0.8c-0.4,0.4-0.9,0.6-1.6,0.6
		c-0.6,0-1.1-0.2-1.5-0.5c-0.4-0.4-0.7-0.9-0.7-1.7c0-0.7,0.2-1.3,0.6-1.7c0.4-0.4,0.9-0.6,1.5-0.6C40.3,61.7,40.6,61.7,40.9,61.9z
		 M39.2,62.9c-0.2,0.2-0.3,0.4-0.3,0.7h1.9c0-0.3-0.1-0.5-0.3-0.7c-0.2-0.2-0.4-0.2-0.7-0.2C39.6,62.6,39.4,62.7,39.2,62.9z"/>
	<path class="st0" d="M45,61.7C45,61.7,45,61.7,45,61.7l0.1,1.2c-0.1,0-0.1,0-0.2,0c-0.1,0-0.1,0-0.1,0c-0.5,0-0.8,0.1-0.9,0.4
		c-0.1,0.2-0.1,0.4-0.1,0.8v2.1h-1.1v-4.3h1.1v0.8c0.2-0.3,0.3-0.5,0.5-0.6C44.3,61.8,44.6,61.7,45,61.7C45,61.7,45,61.7,45,61.7z"
		/>
	<path class="st0" d="M46.6,64.7c0,0.2,0.1,0.3,0.2,0.4c0.1,0.2,0.4,0.2,0.8,0.2c0.2,0,0.4,0,0.5-0.1c0.1-0.1,0.2-0.2,0.2-0.3
		c0-0.1-0.1-0.2-0.2-0.3c-0.1-0.1-0.5-0.2-1.2-0.3c-0.5-0.1-0.8-0.3-1-0.5c-0.2-0.2-0.3-0.4-0.3-0.8c0-0.4,0.2-0.7,0.5-1
		c0.3-0.3,0.8-0.4,1.3-0.4c0.5,0,1,0.1,1.3,0.3c0.3,0.2,0.5,0.6,0.6,1.1h-1.1c0-0.1-0.1-0.3-0.1-0.3c-0.1-0.2-0.3-0.2-0.6-0.2
		c-0.2,0-0.4,0-0.5,0.1c-0.1,0.1-0.2,0.2-0.2,0.3c0,0.1,0.1,0.2,0.2,0.3c0.1,0.1,0.5,0.2,1.2,0.3c0.5,0.1,0.8,0.3,1,0.5
		c0.2,0.2,0.3,0.5,0.3,0.8c0,0.4-0.2,0.8-0.5,1c-0.3,0.3-0.8,0.4-1.5,0.4c-0.7,0-1.2-0.1-1.5-0.4s-0.5-0.7-0.5-1.1H46.6z"/>
	<path class="st0" d="M5.9,70.9v-0.5c0.5-0.1,0.9-0.1,1.1-0.3c0.2-0.1,0.4-0.4,0.5-0.8H8v5.6H7.2v-4H5.9z"/>
	<path class="st0" d="M10.3,74h0.8v0.9h-0.8V74z"/>
	<path class="st0" d="M20.1,74.9l-0.4,0.5l-0.9-0.7c-0.2,0.1-0.5,0.2-0.7,0.3c-0.3,0.1-0.5,0.1-0.8,0.1c-0.9,0-1.6-0.3-2.1-0.9
		c-0.5-0.6-0.7-1.3-0.7-2.2c0-0.8,0.2-1.5,0.6-2c0.5-0.7,1.2-1.1,2.2-1.1c1,0,1.8,0.3,2.3,1c0.4,0.5,0.6,1.2,0.6,2
		c0,0.4,0,0.7-0.1,1.1c-0.1,0.5-0.4,1-0.7,1.3L20.1,74.9z M17.8,74.3c0.1,0,0.3-0.1,0.4-0.1l-0.6-0.5l0.4-0.5l0.8,0.6
		c0.2-0.3,0.4-0.6,0.5-0.9c0.1-0.3,0.1-0.7,0.1-1c0-0.7-0.2-1.2-0.5-1.7c-0.4-0.4-0.8-0.6-1.5-0.6c-0.6,0-1.1,0.2-1.5,0.6
		c-0.4,0.4-0.6,1-0.6,1.8c0,0.7,0.2,1.3,0.5,1.7c0.4,0.4,0.9,0.6,1.6,0.6C17.5,74.4,17.7,74.4,17.8,74.3z"/>
	<path class="st0" d="M21.7,70.7v2.8c0,0.2,0,0.4,0.1,0.5c0.1,0.3,0.4,0.4,0.7,0.4c0.5,0,0.8-0.2,1-0.7c0.1-0.2,0.1-0.6,0.1-1v-2.1
		h0.7v4.2h-0.7l0-0.6c-0.1,0.2-0.2,0.3-0.3,0.4c-0.3,0.2-0.6,0.3-1,0.3c-0.6,0-1-0.2-1.2-0.6c-0.1-0.2-0.2-0.5-0.2-0.9v-2.9H21.7z"
		/>
	<path class="st0" d="M27.7,72.3c0.2,0,0.3-0.1,0.3-0.2c0-0.1,0-0.2,0-0.3c0-0.2-0.1-0.4-0.3-0.5c-0.2-0.1-0.4-0.2-0.7-0.2
		c-0.4,0-0.6,0.1-0.8,0.3c-0.1,0.1-0.1,0.3-0.2,0.5h-0.7c0-0.5,0.2-0.9,0.5-1.1c0.3-0.2,0.7-0.3,1.1-0.3c0.5,0,0.9,0.1,1.2,0.3
		c0.3,0.2,0.5,0.5,0.5,0.9v2.4c0,0.1,0,0.1,0,0.2c0,0,0.1,0.1,0.2,0.1c0,0,0.1,0,0.1,0c0,0,0.1,0,0.1,0v0.5C29.2,75,29.1,75,29,75
		c-0.1,0-0.1,0-0.2,0c-0.2,0-0.4-0.1-0.5-0.3c-0.1-0.1-0.1-0.2-0.1-0.4c-0.1,0.2-0.4,0.4-0.6,0.5S26.9,75,26.6,75
		c-0.4,0-0.7-0.1-1-0.4c-0.2-0.2-0.4-0.5-0.4-0.9c0-0.4,0.1-0.7,0.4-0.9c0.2-0.2,0.6-0.3,1-0.4L27.7,72.3z M26.2,74.3
		c0.2,0.1,0.3,0.2,0.5,0.2c0.3,0,0.5-0.1,0.7-0.2c0.4-0.2,0.6-0.5,0.6-0.9v-0.6c-0.1,0.1-0.2,0.1-0.3,0.1c-0.1,0-0.3,0.1-0.4,0.1
		L26.9,73c-0.3,0-0.5,0.1-0.6,0.2c-0.2,0.1-0.3,0.3-0.3,0.6C26,74,26.1,74.1,26.2,74.3z"/>
	<path class="st0" d="M30,69.1h0.7v5.8H30V69.1z"/>
	<path class="st0" d="M31.8,69.1h0.7v0.8h-0.7V69.1z M31.8,70.7h0.7v4.2h-0.7V70.7z"/>
	<path class="st0" d="M33.7,69.5h0.7v1.2h0.7v0.6h-0.7V74c0,0.1,0.1,0.2,0.2,0.3c0.1,0,0.1,0,0.3,0c0,0,0.1,0,0.1,0c0,0,0.1,0,0.1,0
		v0.6c-0.1,0-0.2,0-0.3,0.1c-0.1,0-0.2,0-0.3,0c-0.3,0-0.6-0.1-0.7-0.3c-0.1-0.2-0.2-0.4-0.2-0.7v-2.8h-0.6v-0.6h0.6V69.5z"/>
	<path class="st0" d="M38.5,70.7h0.8c-0.1,0.3-0.3,0.9-0.7,1.9c-0.3,0.7-0.5,1.3-0.6,1.8c-0.4,1.1-0.7,1.7-0.9,2
		c-0.2,0.2-0.5,0.4-0.9,0.4c-0.1,0-0.2,0-0.2,0c-0.1,0-0.1,0-0.2,0v-0.6c0.1,0,0.2,0.1,0.3,0.1c0.1,0,0.1,0,0.1,0
		c0.1,0,0.2,0,0.3-0.1c0.1,0,0.1-0.1,0.2-0.2c0,0,0.1-0.1,0.1-0.3c0.1-0.2,0.1-0.3,0.2-0.4l-1.6-4.4h0.8l1.1,3.5L38.5,70.7z"/>
	<path class="st0" d="M5.7,82.4c0.2-0.4,0.5-0.7,1-1L7.5,81c0.3-0.2,0.6-0.4,0.7-0.5c0.2-0.2,0.3-0.5,0.3-0.8c0-0.3-0.1-0.6-0.3-0.8
		c-0.2-0.2-0.5-0.3-0.8-0.3c-0.5,0-0.8,0.2-1,0.6c-0.1,0.2-0.2,0.5-0.2,0.8H5.5c0-0.5,0.1-0.9,0.3-1.2C6.1,78.3,6.6,78,7.4,78
		c0.6,0,1.1,0.2,1.4,0.5c0.3,0.4,0.4,0.7,0.4,1.2c0,0.5-0.2,0.8-0.5,1.2c-0.2,0.2-0.5,0.4-1,0.7l-0.5,0.3C7,82,6.8,82.1,6.7,82.3
		c-0.3,0.2-0.4,0.5-0.5,0.8h3.1v0.7H5.4C5.4,83.2,5.5,82.8,5.7,82.4z"/>
	<path class="st0" d="M10.3,82.8h0.8v0.9h-0.8V82.8z"/>
	<path class="st0" d="M14.9,77.9h0.8v5.8h-0.8V77.9z"/>
	<path class="st0" d="M16.9,79.4h0.7V80c0.2-0.2,0.4-0.4,0.6-0.5c0.2-0.1,0.5-0.2,0.7-0.2c0.6,0,1,0.2,1.2,0.6
		c0.1,0.2,0.2,0.6,0.2,1v2.7h-0.7V81c0-0.3,0-0.5-0.1-0.6c-0.1-0.3-0.4-0.4-0.7-0.4c-0.2,0-0.3,0-0.4,0.1c-0.2,0.1-0.4,0.2-0.5,0.3
		c-0.1,0.1-0.2,0.3-0.2,0.4c0,0.1-0.1,0.4-0.1,0.6v2.2h-0.7V79.4z"/>
	<path class="st0" d="M21.4,79.4h0.7V80c0.2-0.2,0.4-0.4,0.6-0.5c0.2-0.1,0.5-0.2,0.7-0.2c0.6,0,1,0.2,1.2,0.6
		c0.1,0.2,0.2,0.6,0.2,1v2.7h-0.7V81c0-0.3,0-0.5-0.1-0.6c-0.1-0.3-0.4-0.4-0.7-0.4c-0.2,0-0.3,0-0.4,0.1c-0.2,0.1-0.4,0.2-0.5,0.3
		c-0.1,0.1-0.2,0.3-0.2,0.4c0,0.1-0.1,0.4-0.1,0.6v2.2h-0.7V79.4z"/>
	<path class="st0" d="M29,79.9c0.4,0.4,0.6,0.9,0.6,1.6c0,0.7-0.2,1.2-0.5,1.7c-0.3,0.4-0.8,0.7-1.5,0.7c-0.6,0-1-0.2-1.4-0.6
		c-0.3-0.4-0.5-0.9-0.5-1.6c0-0.7,0.2-1.3,0.5-1.7c0.4-0.4,0.8-0.6,1.4-0.6C28.2,79.3,28.6,79.5,29,79.9z M28.6,82.7
		c0.2-0.4,0.3-0.8,0.3-1.2c0-0.4-0.1-0.7-0.2-1c-0.2-0.4-0.5-0.6-1-0.6c-0.4,0-0.7,0.2-0.9,0.5c-0.2,0.3-0.3,0.7-0.3,1.2
		c0,0.5,0.1,0.8,0.3,1.1c0.2,0.3,0.5,0.5,0.9,0.5C28.1,83.2,28.4,83,28.6,82.7z"/>
	<path class="st0" d="M30.8,79.4l1.1,3.5l1.2-3.5h0.8l-1.6,4.2h-0.8L30,79.4H30.8z"/>
	<path class="st0" d="M36.8,81.1c0.2,0,0.3-0.1,0.3-0.2c0-0.1,0-0.2,0-0.3c0-0.2-0.1-0.4-0.3-0.5c-0.2-0.1-0.4-0.2-0.7-0.2
		c-0.4,0-0.6,0.1-0.8,0.3c-0.1,0.1-0.1,0.3-0.2,0.5h-0.7c0-0.5,0.2-0.9,0.5-1.1c0.3-0.2,0.7-0.3,1.1-0.3c0.5,0,0.9,0.1,1.2,0.3
		c0.3,0.2,0.5,0.5,0.5,0.9V83c0,0.1,0,0.1,0,0.2c0,0,0.1,0.1,0.2,0.1c0,0,0.1,0,0.1,0c0,0,0.1,0,0.1,0v0.5c-0.1,0-0.2,0.1-0.3,0.1
		c-0.1,0-0.1,0-0.2,0c-0.2,0-0.4-0.1-0.5-0.3c-0.1-0.1-0.1-0.2-0.1-0.4c-0.1,0.2-0.4,0.4-0.6,0.5s-0.6,0.2-0.9,0.2
		c-0.4,0-0.7-0.1-1-0.4c-0.2-0.2-0.4-0.5-0.4-0.9c0-0.4,0.1-0.7,0.4-0.9c0.2-0.2,0.6-0.3,1-0.4L36.8,81.1z M35.3,83
		c0.2,0.1,0.3,0.2,0.5,0.2c0.3,0,0.5-0.1,0.7-0.2c0.4-0.2,0.6-0.5,0.6-0.9v-0.6c-0.1,0.1-0.2,0.1-0.3,0.1c-0.1,0-0.3,0.1-0.4,0.1
		L36,81.8c-0.3,0-0.5,0.1-0.6,0.2c-0.2,0.1-0.3,0.3-0.3,0.6C35,82.8,35.1,82.9,35.3,83z"/>
	<path class="st0" d="M39.2,78.3h0.7v1.2h0.7V80h-0.7v2.8c0,0.1,0.1,0.2,0.2,0.3c0.1,0,0.1,0,0.3,0c0,0,0.1,0,0.1,0c0,0,0.1,0,0.1,0
		v0.6c-0.1,0-0.2,0-0.3,0.1c-0.1,0-0.2,0-0.3,0c-0.3,0-0.6-0.1-0.7-0.3c-0.1-0.2-0.2-0.4-0.2-0.7V80h-0.6v-0.6h0.6V78.3z"/>
	<path class="st0" d="M41.3,77.9H42v0.8h-0.7V77.9z M41.3,79.5H42v4.2h-0.7V79.5z"/>
	<path class="st0" d="M46.1,79.9c0.4,0.4,0.6,0.9,0.6,1.6c0,0.7-0.2,1.2-0.5,1.7s-0.8,0.7-1.5,0.7c-0.6,0-1-0.2-1.4-0.6
		c-0.3-0.4-0.5-0.9-0.5-1.6c0-0.7,0.2-1.3,0.5-1.7c0.4-0.4,0.8-0.6,1.4-0.6C45.3,79.3,45.8,79.5,46.1,79.9z M45.7,82.7
		c0.2-0.4,0.3-0.8,0.3-1.2c0-0.4-0.1-0.7-0.2-1c-0.2-0.4-0.5-0.6-1-0.6c-0.4,0-0.7,0.2-0.9,0.5c-0.2,0.3-0.3,0.7-0.3,1.2
		c0,0.5,0.1,0.8,0.3,1.1c0.2,0.3,0.5,0.5,0.9,0.5C45.2,83.2,45.5,83,45.7,82.7z"/>
	<path class="st0" d="M47.6,79.4h0.7V80c0.2-0.2,0.4-0.4,0.6-0.5c0.2-0.1,0.5-0.2,0.7-0.2c0.6,0,1,0.2,1.2,0.6
		c0.1,0.2,0.2,0.6,0.2,1v2.7h-0.7V81c0-0.3,0-0.5-0.1-0.6c-0.1-0.3-0.4-0.4-0.7-0.4c-0.2,0-0.3,0-0.4,0.1c-0.2,0.1-0.4,0.2-0.5,0.3
		c-0.1,0.1-0.2,0.3-0.2,0.4c0,0.1-0.1,0.4-0.1,0.6v2.2h-0.7V79.4z"/>
	<path class="st0" d="M5.8,92.1c-0.3-0.4-0.5-0.8-0.5-1.3H6c0,0.4,0.1,0.6,0.2,0.8c0.2,0.3,0.5,0.4,1,0.4c0.4,0,0.7-0.1,0.9-0.3
		s0.3-0.5,0.3-0.8c0-0.4-0.1-0.7-0.4-0.8c-0.2-0.2-0.6-0.2-1-0.2c0,0-0.1,0-0.1,0c0,0-0.1,0-0.1,0v-0.6c0.1,0,0.1,0,0.2,0
		c0.1,0,0.1,0,0.2,0c0.3,0,0.5,0,0.7-0.1c0.3-0.1,0.5-0.4,0.5-0.8c0-0.3-0.1-0.5-0.3-0.7c-0.2-0.2-0.4-0.2-0.7-0.2
		c-0.5,0-0.8,0.2-1,0.5c-0.1,0.2-0.2,0.4-0.2,0.7H5.4c0-0.4,0.1-0.8,0.3-1.1c0.3-0.5,0.8-0.8,1.5-0.8c0.6,0,1,0.1,1.3,0.4
		C8.9,87.4,9,87.8,9,88.3c0,0.3-0.1,0.6-0.3,0.8c-0.1,0.1-0.3,0.2-0.5,0.3c0.3,0.1,0.5,0.2,0.7,0.5c0.2,0.2,0.3,0.5,0.3,0.9
		c0,0.5-0.2,1-0.5,1.3c-0.4,0.3-0.9,0.5-1.5,0.5C6.5,92.6,6.1,92.5,5.8,92.1z"/>
	<path class="st0" d="M10.3,91.6h0.8v0.9h-0.8V91.6z"/>
	<path class="st0" d="M14.8,86.7h2.6c0.5,0,0.9,0.1,1.2,0.4c0.3,0.3,0.5,0.7,0.5,1.2c0,0.5-0.1,0.8-0.4,1.2C18.4,89.9,18,90,17.4,90
		h-1.8v2.5h-0.8V86.7z M17.9,87.5c-0.2-0.1-0.4-0.1-0.7-0.1h-1.6v2h1.6c0.4,0,0.6-0.1,0.9-0.2c0.2-0.2,0.3-0.4,0.3-0.8
		C18.4,87.9,18.2,87.6,17.9,87.5z"/>
	<path class="st0" d="M20.1,88.2h0.7V89c0.1-0.1,0.2-0.3,0.4-0.5c0.2-0.2,0.5-0.3,0.7-0.3c0,0,0,0,0.1,0c0,0,0.1,0,0.2,0v0.8
		c0,0-0.1,0-0.1,0c0,0-0.1,0-0.1,0c-0.4,0-0.6,0.1-0.8,0.3c-0.2,0.2-0.3,0.5-0.3,0.8v2.4h-0.7V88.2z"/>
	<path class="st0" d="M25.8,88.7c0.4,0.4,0.6,0.9,0.6,1.6c0,0.7-0.2,1.2-0.5,1.7c-0.3,0.4-0.8,0.7-1.5,0.7c-0.6,0-1-0.2-1.4-0.6
		c-0.3-0.4-0.5-0.9-0.5-1.6c0-0.7,0.2-1.3,0.5-1.7c0.4-0.4,0.8-0.6,1.4-0.6C25,88.1,25.5,88.3,25.8,88.7z M25.4,91.5
		c0.2-0.4,0.3-0.8,0.3-1.2c0-0.4-0.1-0.7-0.2-1c-0.2-0.4-0.5-0.6-1-0.6c-0.4,0-0.7,0.2-0.9,0.5s-0.3,0.7-0.3,1.2
		c0,0.5,0.1,0.8,0.3,1.1S24,92,24.4,92C24.9,92,25.2,91.8,25.4,91.5z"/>
	<path class="st0" d="M29.6,88.4c0.1,0.1,0.3,0.2,0.4,0.4v-2.1h0.7v5.8h-0.6v-0.6c-0.2,0.3-0.4,0.5-0.6,0.6
		c-0.2,0.1-0.5,0.2-0.8,0.2c-0.5,0-0.9-0.2-1.2-0.6c-0.3-0.4-0.5-0.9-0.5-1.6c0-0.6,0.2-1.2,0.5-1.6c0.3-0.5,0.8-0.7,1.3-0.7
		C29.1,88.2,29.4,88.2,29.6,88.4z M28,91.5c0.2,0.3,0.5,0.5,0.9,0.5c0.3,0,0.6-0.1,0.8-0.4c0.2-0.3,0.3-0.7,0.3-1.2
		c0-0.5-0.1-0.9-0.3-1.2c-0.2-0.3-0.5-0.4-0.8-0.4c-0.4,0-0.6,0.1-0.9,0.4c-0.2,0.3-0.3,0.7-0.3,1.2C27.7,90.9,27.8,91.2,28,91.5z"
		/>
	<path class="st0" d="M32.5,88.2v2.8c0,0.2,0,0.4,0.1,0.5c0.1,0.3,0.4,0.4,0.7,0.4c0.5,0,0.8-0.2,1-0.7c0.1-0.2,0.1-0.6,0.1-1v-2.1
		h0.7v4.2h-0.7l0-0.6c-0.1,0.2-0.2,0.3-0.3,0.4c-0.3,0.2-0.6,0.3-1,0.3c-0.6,0-1-0.2-1.2-0.6c-0.1-0.2-0.2-0.5-0.2-0.9v-2.9H32.5z"
		/>
	<path class="st0" d="M39.1,88.5c0.3,0.2,0.5,0.6,0.5,1.2H39c0-0.3-0.1-0.5-0.3-0.7c-0.2-0.2-0.4-0.3-0.7-0.3c-0.5,0-0.8,0.2-1,0.7
		c-0.1,0.3-0.2,0.6-0.2,1.1c0,0.4,0.1,0.8,0.3,1.1c0.2,0.3,0.5,0.4,0.8,0.4c0.3,0,0.5-0.1,0.7-0.3c0.2-0.2,0.3-0.4,0.4-0.7h0.7
		c-0.1,0.6-0.3,1-0.6,1.2c-0.3,0.3-0.7,0.4-1.2,0.4c-0.6,0-1-0.2-1.3-0.6c-0.3-0.4-0.5-0.9-0.5-1.5c0-0.7,0.2-1.3,0.5-1.7
		c0.4-0.4,0.8-0.6,1.4-0.6C38.4,88.1,38.8,88.2,39.1,88.5z"/>
	<path class="st0" d="M40.5,87.1h0.7v1.2h0.7v0.6h-0.7v2.8c0,0.1,0.1,0.2,0.2,0.3c0.1,0,0.1,0,0.3,0c0,0,0.1,0,0.1,0
		c0,0,0.1,0,0.1,0v0.6c-0.1,0-0.2,0-0.3,0.1c-0.1,0-0.2,0-0.3,0c-0.3,0-0.6-0.1-0.7-0.3c-0.1-0.2-0.2-0.4-0.2-0.7v-2.8h-0.6v-0.6
		h0.6V87.1z"/>
	<path class="st0" d="M44.8,88.3h0.7v0.6c0.1-0.2,0.3-0.3,0.5-0.4c0.2-0.2,0.5-0.2,0.9-0.2c0.5,0,0.9,0.2,1.2,0.6
		c0.3,0.4,0.5,0.9,0.5,1.6c0,0.9-0.2,1.6-0.7,2c-0.3,0.3-0.7,0.4-1.1,0.4c-0.3,0-0.6-0.1-0.8-0.2c-0.1-0.1-0.3-0.2-0.4-0.4v2.2h-0.7
		V88.3z M47.5,91.6c0.2-0.3,0.3-0.7,0.3-1.2c0-0.3,0-0.6-0.1-0.9c-0.2-0.5-0.5-0.7-1-0.7c-0.5,0-0.8,0.2-1,0.7
		c-0.1,0.3-0.1,0.6-0.1,1c0,0.3,0,0.6,0.1,0.8c0.2,0.4,0.5,0.7,1,0.7C47,92,47.3,91.9,47.5,91.6z"/>
	<path class="st0" d="M52.5,88.7c0.4,0.4,0.6,0.9,0.6,1.6c0,0.7-0.2,1.2-0.5,1.7c-0.3,0.4-0.8,0.7-1.5,0.7c-0.6,0-1-0.2-1.4-0.6
		c-0.3-0.4-0.5-0.9-0.5-1.6c0-0.7,0.2-1.3,0.5-1.7c0.4-0.4,0.8-0.6,1.4-0.6C51.6,88.1,52.1,88.3,52.5,88.7z M52,91.5
		c0.2-0.4,0.3-0.8,0.3-1.2c0-0.4-0.1-0.7-0.2-1c-0.2-0.4-0.5-0.6-1-0.6c-0.4,0-0.7,0.2-0.9,0.5c-0.2,0.3-0.3,0.7-0.3,1.2
		c0,0.5,0.1,0.8,0.3,1.1c0.2,0.3,0.5,0.5,0.9,0.5C51.5,92,51.8,91.8,52,91.5z"/>
	<path class="st0" d="M53.9,88.2h0.7V89c0.1-0.1,0.2-0.3,0.4-0.5c0.2-0.2,0.5-0.3,0.7-0.3c0,0,0,0,0.1,0s0.1,0,0.2,0v0.8
		c0,0-0.1,0-0.1,0c0,0-0.1,0-0.1,0c-0.4,0-0.6,0.1-0.8,0.3c-0.2,0.2-0.3,0.5-0.3,0.8v2.4h-0.7V88.2z"/>
	<path class="st0" d="M56.7,87.1h0.7v1.2h0.7v0.6h-0.7v2.8c0,0.1,0,0.2,0.2,0.3c0.1,0,0.1,0,0.3,0c0,0,0.1,0,0.1,0c0,0,0.1,0,0.1,0
		v0.6c-0.1,0-0.2,0-0.3,0.1c-0.1,0-0.2,0-0.3,0c-0.3,0-0.6-0.1-0.7-0.3c-0.1-0.2-0.2-0.4-0.2-0.7v-2.8h-0.6v-0.6h0.6V87.1z"/>
	<path class="st0" d="M59.2,86.9c0.2-0.2,0.5-0.4,1-0.4c0,0,0.1,0,0.1,0c0,0,0.1,0,0.2,0v0.6c-0.1,0-0.1,0-0.2,0c0,0-0.1,0-0.1,0
		c-0.2,0-0.4,0.1-0.4,0.2c0,0.1-0.1,0.4-0.1,0.9h0.7v0.6h-0.7v3.7H59v-3.7h-0.6v-0.6H59v-0.7C59,87.3,59.1,87.1,59.2,86.9z"/>
	<path class="st0" d="M64.2,88.7c0.4,0.4,0.6,0.9,0.6,1.6c0,0.7-0.2,1.2-0.5,1.7c-0.3,0.4-0.8,0.7-1.5,0.7c-0.6,0-1-0.2-1.4-0.6
		c-0.3-0.4-0.5-0.9-0.5-1.6c0-0.7,0.2-1.3,0.5-1.7c0.4-0.4,0.8-0.6,1.4-0.6C63.3,88.1,63.8,88.3,64.2,88.7z M63.7,91.5
		c0.2-0.4,0.3-0.8,0.3-1.2c0-0.4-0.1-0.7-0.2-1c-0.2-0.4-0.5-0.6-1-0.6c-0.4,0-0.7,0.2-0.9,0.5c-0.2,0.3-0.3,0.7-0.3,1.2
		c0,0.5,0.1,0.8,0.3,1.1c0.2,0.3,0.5,0.5,0.9,0.5C63.2,92,63.6,91.8,63.7,91.5z"/>
	<path class="st0" d="M65.6,86.7h0.7v5.8h-0.7V86.7z"/>
	<path class="st0" d="M67.4,86.7h0.7v0.8h-0.7V86.7z M67.4,88.3h0.7v4.2h-0.7V88.3z"/>
	<path class="st0" d="M72.3,88.7c0.4,0.4,0.6,0.9,0.6,1.6c0,0.7-0.2,1.2-0.5,1.7c-0.3,0.4-0.8,0.7-1.5,0.7c-0.6,0-1-0.2-1.4-0.6
		c-0.3-0.4-0.5-0.9-0.5-1.6c0-0.7,0.2-1.3,0.5-1.7c0.4-0.4,0.8-0.6,1.4-0.6C71.5,88.1,71.9,88.3,72.3,88.7z M71.9,91.5
		c0.2-0.4,0.3-0.8,0.3-1.2c0-0.4-0.1-0.7-0.2-1c-0.2-0.4-0.5-0.6-1-0.6c-0.4,0-0.7,0.2-0.9,0.5c-0.2,0.3-0.3,0.7-0.3,1.2
		c0,0.5,0.1,0.8,0.3,1.1c0.2,0.3,0.5,0.5,0.9,0.5C71.4,92,71.7,91.8,71.9,91.5z"/>
	<path class="st0" d="M7.8,101.3v-1.4H5.3v-0.7l2.6-3.6h0.6v3.7h0.8v0.6H8.5v1.4H7.8z M7.8,99.3v-2.6L6,99.3H7.8z"/>
	<path class="st0" d="M10.3,100.4h0.8v0.9h-0.8V100.4z"/>
	<path class="st0" d="M14.7,95.5h0.9l2.9,4.7v-4.7h0.8v5.8h-0.9l-2.9-4.7v4.7h-0.8V95.5z"/>
	<path class="st0" d="M21.2,97v2.8c0,0.2,0,0.4,0.1,0.5c0.1,0.3,0.4,0.4,0.7,0.4c0.5,0,0.8-0.2,1-0.7c0.1-0.2,0.1-0.6,0.1-1V97h0.7
		v4.2h-0.7l0-0.6c-0.1,0.2-0.2,0.3-0.3,0.4c-0.3,0.2-0.6,0.3-1,0.3c-0.6,0-1-0.2-1.2-0.6c-0.1-0.2-0.2-0.5-0.2-0.9V97H21.2z"/>
	<path class="st0" d="M25.2,95.8h0.7V97h0.7v0.6h-0.7v2.8c0,0.1,0.1,0.2,0.2,0.3c0.1,0,0.1,0,0.3,0c0,0,0.1,0,0.1,0c0,0,0.1,0,0.1,0
		v0.6c-0.1,0-0.2,0-0.3,0.1c-0.1,0-0.2,0-0.3,0c-0.3,0-0.6-0.1-0.7-0.3c-0.1-0.2-0.2-0.4-0.2-0.7v-2.8h-0.6V97h0.6V95.8z"/>
	<path class="st0" d="M27.3,97H28v0.7c0.1-0.1,0.2-0.3,0.4-0.5c0.2-0.2,0.5-0.3,0.7-0.3c0,0,0,0,0.1,0c0,0,0.1,0,0.2,0v0.8
		c0,0-0.1,0-0.1,0c0,0-0.1,0-0.1,0c-0.4,0-0.6,0.1-0.8,0.3c-0.2,0.2-0.3,0.5-0.3,0.8v2.4h-0.7V97z"/>
	<path class="st0" d="M30,95.5h0.7v0.8H30V95.5z M30,97h0.7v4.2H30V97z"/>
	<path class="st0" d="M34.6,97.3c0.3,0.2,0.5,0.6,0.5,1.2h-0.7c0-0.3-0.1-0.5-0.3-0.7c-0.2-0.2-0.4-0.3-0.7-0.3
		c-0.5,0-0.8,0.2-1,0.7c-0.1,0.3-0.2,0.6-0.2,1.1c0,0.4,0.1,0.8,0.3,1.1c0.2,0.3,0.5,0.4,0.8,0.4c0.3,0,0.5-0.1,0.7-0.3
		c0.2-0.2,0.3-0.4,0.4-0.7h0.7c-0.1,0.6-0.3,1-0.6,1.2c-0.3,0.3-0.7,0.4-1.2,0.4c-0.6,0-1-0.2-1.3-0.6c-0.3-0.4-0.5-0.9-0.5-1.5
		c0-0.7,0.2-1.3,0.5-1.7c0.4-0.4,0.8-0.6,1.4-0.6C33.9,96.9,34.3,97,34.6,97.3z"/>
	<path class="st0" d="M35.8,95.5h0.7v0.8h-0.7V95.5z M35.8,97h0.7v4.2h-0.7V97z"/>
	<path class="st0" d="M40.7,97.5c0.4,0.4,0.6,0.9,0.6,1.6c0,0.7-0.2,1.2-0.5,1.7c-0.3,0.4-0.8,0.7-1.5,0.7c-0.6,0-1-0.2-1.4-0.6
		c-0.3-0.4-0.5-0.9-0.5-1.6c0-0.7,0.2-1.3,0.5-1.7c0.4-0.4,0.8-0.6,1.4-0.6C39.9,96.9,40.3,97.1,40.7,97.5z M40.3,100.3
		c0.2-0.4,0.3-0.8,0.3-1.2c0-0.4-0.1-0.7-0.2-1c-0.2-0.4-0.5-0.6-1-0.6c-0.4,0-0.7,0.2-0.9,0.5c-0.2,0.3-0.3,0.7-0.3,1.2
		c0,0.5,0.1,0.8,0.3,1.1c0.2,0.3,0.5,0.5,0.9,0.5C39.8,100.8,40.1,100.6,40.3,100.3z"/>
	<path class="st0" d="M42.2,97h0.7v0.6c0.2-0.2,0.4-0.4,0.6-0.5c0.2-0.1,0.5-0.2,0.7-0.2c0.6,0,1,0.2,1.2,0.6c0.1,0.2,0.2,0.6,0.2,1
		v2.7h-0.7v-2.7c0-0.3,0-0.5-0.1-0.6c-0.1-0.3-0.4-0.4-0.7-0.4c-0.2,0-0.3,0-0.4,0.1c-0.2,0.1-0.4,0.2-0.5,0.3
		c-0.1,0.1-0.2,0.3-0.2,0.4c0,0.1-0.1,0.4-0.1,0.6v2.2h-0.7V97z"/>
	<path class="st0" d="M48.9,98.7c0.2,0,0.3-0.1,0.3-0.2c0-0.1,0-0.2,0-0.3c0-0.2-0.1-0.4-0.3-0.5c-0.2-0.1-0.4-0.2-0.7-0.2
		c-0.4,0-0.6,0.1-0.8,0.3c-0.1,0.1-0.1,0.3-0.2,0.5h-0.7c0-0.5,0.2-0.9,0.5-1.1c0.3-0.2,0.7-0.3,1.1-0.3c0.5,0,0.9,0.1,1.2,0.3
		c0.3,0.2,0.5,0.5,0.5,0.9v2.4c0,0.1,0,0.1,0,0.2c0,0,0.1,0.1,0.2,0.1c0,0,0.1,0,0.1,0s0.1,0,0.1,0v0.5c-0.1,0-0.2,0.1-0.3,0.1
		s-0.1,0-0.2,0c-0.2,0-0.4-0.1-0.5-0.3c-0.1-0.1-0.1-0.2-0.1-0.4c-0.1,0.2-0.4,0.4-0.6,0.5c-0.3,0.1-0.6,0.2-0.9,0.2
		c-0.4,0-0.7-0.1-1-0.4c-0.2-0.2-0.4-0.5-0.4-0.9c0-0.4,0.1-0.7,0.4-0.9c0.2-0.2,0.6-0.3,1-0.4L48.9,98.7z M47.4,100.6
		c0.2,0.1,0.3,0.2,0.5,0.2c0.3,0,0.5-0.1,0.7-0.2c0.4-0.2,0.6-0.5,0.6-0.9v-0.6c-0.1,0.1-0.2,0.1-0.3,0.1c-0.1,0-0.3,0.1-0.4,0.1
		l-0.4,0.1c-0.3,0-0.5,0.1-0.6,0.2c-0.2,0.1-0.3,0.3-0.3,0.6C47.2,100.3,47.3,100.5,47.4,100.6z"/>
	<path class="st0" d="M51.2,95.5h0.7v5.8h-0.7V95.5z"/>
	<path class="st0" d="M55.2,95.5H56v0.8h-0.7V95.5z M55.2,97H56v4.2h-0.7V97z"/>
	<path class="st0" d="M57,97h0.7v0.6c0.2-0.2,0.4-0.4,0.6-0.5c0.2-0.1,0.5-0.2,0.7-0.2c0.6,0,1,0.2,1.2,0.6c0.1,0.2,0.2,0.6,0.2,1
		v2.7h-0.7v-2.7c0-0.3,0-0.5-0.1-0.6c-0.1-0.3-0.4-0.4-0.7-0.4c-0.2,0-0.3,0-0.4,0.1c-0.2,0.1-0.4,0.2-0.5,0.3
		c-0.1,0.1-0.2,0.3-0.2,0.4c0,0.1-0.1,0.4-0.1,0.6v2.2H57V97z"/>
	<path class="st0" d="M61.9,95.7c0.2-0.2,0.5-0.4,1-0.4c0,0,0.1,0,0.1,0c0,0,0.1,0,0.2,0V96c-0.1,0-0.1,0-0.2,0c0,0-0.1,0-0.1,0
		c-0.2,0-0.4,0.1-0.4,0.2c0,0.1-0.1,0.4-0.1,0.9h0.7v0.6h-0.7v3.7h-0.7v-3.7h-0.6V97h0.6v-0.7C61.7,96.1,61.8,95.9,61.9,95.7z"/>
	<path class="st0" d="M66.9,97.5c0.4,0.4,0.6,0.9,0.6,1.6c0,0.7-0.2,1.2-0.5,1.7c-0.3,0.4-0.8,0.7-1.5,0.7c-0.6,0-1-0.2-1.4-0.6
		c-0.3-0.4-0.5-0.9-0.5-1.6c0-0.7,0.2-1.3,0.5-1.7c0.4-0.4,0.8-0.6,1.4-0.6C66,96.9,66.5,97.1,66.9,97.5z M66.4,100.3
		c0.2-0.4,0.3-0.8,0.3-1.2c0-0.4-0.1-0.7-0.2-1c-0.2-0.4-0.5-0.6-1-0.6c-0.4,0-0.7,0.2-0.9,0.5c-0.2,0.3-0.3,0.7-0.3,1.2
		c0,0.5,0.1,0.8,0.3,1.1c0.2,0.3,0.5,0.5,0.9,0.5C65.9,100.8,66.3,100.6,66.4,100.3z"/>
	<path class="st0" d="M68.3,97H69v0.7c0.1-0.1,0.2-0.3,0.4-0.5c0.2-0.2,0.5-0.3,0.7-0.3c0,0,0,0,0.1,0c0,0,0.1,0,0.2,0v0.8
		c0,0-0.1,0-0.1,0c0,0-0.1,0-0.1,0c-0.4,0-0.6,0.1-0.8,0.3c-0.2,0.2-0.3,0.5-0.3,0.8v2.4h-0.7V97z"/>
	<path class="st0" d="M71,97h0.7v0.6c0.2-0.2,0.3-0.4,0.5-0.5c0.2-0.2,0.5-0.2,0.8-0.2c0.3,0,0.6,0.1,0.8,0.2
		c0.1,0.1,0.2,0.2,0.3,0.4c0.2-0.2,0.3-0.4,0.6-0.5c0.2-0.1,0.5-0.2,0.7-0.2c0.6,0,1,0.2,1.2,0.6c0.1,0.2,0.2,0.5,0.2,0.9v2.8H76
		v-2.9c0-0.3-0.1-0.5-0.2-0.6c-0.1-0.1-0.3-0.2-0.5-0.2c-0.3,0-0.5,0.1-0.7,0.3c-0.2,0.2-0.3,0.5-0.3,0.9v2.5h-0.7v-2.8
		c0-0.3,0-0.5-0.1-0.6c-0.1-0.2-0.3-0.3-0.6-0.3c-0.3,0-0.5,0.1-0.7,0.3c-0.2,0.2-0.3,0.6-0.3,1.1v2.3H71V97z"/>
	<path class="st0" d="M80.1,98.7c0.2,0,0.3-0.1,0.3-0.2c0-0.1,0-0.2,0-0.3c0-0.2-0.1-0.4-0.3-0.5c-0.2-0.1-0.4-0.2-0.7-0.2
		c-0.4,0-0.6,0.1-0.8,0.3c-0.1,0.1-0.1,0.3-0.2,0.5h-0.7c0-0.5,0.2-0.9,0.5-1.1c0.3-0.2,0.7-0.3,1.1-0.3c0.5,0,0.9,0.1,1.2,0.3
		c0.3,0.2,0.5,0.5,0.5,0.9v2.4c0,0.1,0,0.1,0,0.2c0,0,0.1,0.1,0.2,0.1c0,0,0.1,0,0.1,0c0,0,0.1,0,0.1,0v0.5c-0.1,0-0.2,0.1-0.3,0.1
		c-0.1,0-0.1,0-0.2,0c-0.2,0-0.4-0.1-0.5-0.3c-0.1-0.1-0.1-0.2-0.1-0.4c-0.1,0.2-0.4,0.4-0.6,0.5c-0.3,0.1-0.6,0.2-0.9,0.2
		c-0.4,0-0.7-0.1-1-0.4c-0.2-0.2-0.4-0.5-0.4-0.9c0-0.4,0.1-0.7,0.4-0.9c0.2-0.2,0.6-0.3,1-0.4L80.1,98.7z M78.6,100.6
		c0.2,0.1,0.3,0.2,0.5,0.2c0.3,0,0.5-0.1,0.7-0.2c0.4-0.2,0.6-0.5,0.6-0.9v-0.6c-0.1,0.1-0.2,0.1-0.3,0.1c-0.1,0-0.3,0.1-0.4,0.1
		l-0.4,0.1c-0.3,0-0.5,0.1-0.6,0.2c-0.2,0.1-0.3,0.3-0.3,0.6C78.3,100.3,78.4,100.5,78.6,100.6z"/>
	<path class="st0" d="M82.4,95.8h0.7V97h0.7v0.6h-0.7v2.8c0,0.1,0,0.2,0.2,0.3c0.1,0,0.1,0,0.3,0c0,0,0.1,0,0.1,0c0,0,0.1,0,0.1,0
		v0.6c-0.1,0-0.2,0-0.3,0.1c-0.1,0-0.2,0-0.3,0c-0.3,0-0.6-0.1-0.7-0.3c-0.1-0.2-0.2-0.4-0.2-0.7v-2.8h-0.6V97h0.6V95.8z"/>
	<path class="st0" d="M84.6,95.5h0.7v0.8h-0.7V95.5z M84.6,97h0.7v4.2h-0.7V97z"/>
	<path class="st0" d="M89.4,97.5c0.4,0.4,0.6,0.9,0.6,1.6c0,0.7-0.2,1.2-0.5,1.7c-0.3,0.4-0.8,0.7-1.5,0.7c-0.6,0-1-0.2-1.4-0.6
		c-0.3-0.4-0.5-0.9-0.5-1.6c0-0.7,0.2-1.3,0.5-1.7c0.4-0.4,0.8-0.6,1.4-0.6C88.6,96.9,89.1,97.1,89.4,97.5z M89,100.3
		c0.2-0.4,0.3-0.8,0.3-1.2c0-0.4-0.1-0.7-0.2-1c-0.2-0.4-0.5-0.6-1-0.6c-0.4,0-0.7,0.2-0.9,0.5c-0.2,0.3-0.3,0.7-0.3,1.2
		c0,0.5,0.1,0.8,0.3,1.1c0.2,0.3,0.5,0.5,0.9,0.5C88.5,100.8,88.8,100.6,89,100.3z"/>
	<path class="st0" d="M90.9,97h0.7v0.6c0.2-0.2,0.4-0.4,0.6-0.5c0.2-0.1,0.5-0.2,0.7-0.2c0.6,0,1,0.2,1.2,0.6c0.1,0.2,0.2,0.6,0.2,1
		v2.7h-0.7v-2.7c0-0.3,0-0.5-0.1-0.6c-0.1-0.3-0.4-0.4-0.7-0.4c-0.2,0-0.3,0-0.4,0.1c-0.2,0.1-0.4,0.2-0.5,0.3
		c-0.1,0.1-0.2,0.3-0.2,0.4c0,0.1-0.1,0.4-0.1,0.6v2.2h-0.7V97z"/>
	<path class="st0" d="M6.1,108.6c0,0.4,0.2,0.7,0.6,0.8c0.2,0.1,0.4,0.1,0.6,0.1c0.4,0,0.7-0.1,0.9-0.4c0.2-0.3,0.3-0.6,0.3-0.9
		c0-0.4-0.1-0.7-0.4-0.9c-0.2-0.2-0.5-0.3-0.9-0.3c-0.2,0-0.5,0-0.6,0.1c-0.2,0.1-0.3,0.2-0.4,0.4l-0.6,0l0.4-3.1H9v0.7H6.5
		l-0.2,1.6c0.1-0.1,0.3-0.2,0.4-0.2c0.2-0.1,0.5-0.1,0.7-0.1c0.5,0,1,0.2,1.3,0.5c0.4,0.3,0.5,0.8,0.5,1.3c0,0.5-0.2,1-0.5,1.4
		c-0.3,0.4-0.9,0.6-1.6,0.6c-0.5,0-0.9-0.1-1.2-0.4c-0.4-0.3-0.6-0.7-0.6-1.2H6.1z"/>
	<path class="st0" d="M10.3,109.2h0.8v0.9h-0.8V109.2z"/>
	<path class="st0" d="M14.8,104.2h0.8v2.4h3v-2.4h0.8v5.8h-0.8v-2.7h-3v2.7h-0.8V104.2z"/>
	<path class="st0" d="M23.1,105.9c0.3,0.1,0.5,0.3,0.6,0.5c0.1,0.2,0.2,0.5,0.3,0.7c0,0.2,0.1,0.5,0.1,0.9H21c0,0.4,0.1,0.8,0.3,1
		c0.2,0.3,0.5,0.4,0.9,0.4c0.4,0,0.7-0.1,0.9-0.4c0.1-0.1,0.2-0.3,0.3-0.5h0.7c0,0.2-0.1,0.3-0.2,0.5c-0.1,0.2-0.2,0.3-0.3,0.5
		c-0.2,0.2-0.5,0.4-0.8,0.4c-0.2,0-0.4,0.1-0.6,0.1c-0.5,0-1-0.2-1.3-0.6c-0.4-0.4-0.5-0.9-0.5-1.6c0-0.7,0.2-1.2,0.6-1.7
		c0.4-0.4,0.8-0.6,1.4-0.6C22.6,105.7,22.9,105.8,23.1,105.9z M23.4,107.6c0-0.3-0.1-0.6-0.2-0.7c-0.2-0.3-0.5-0.5-1-0.5
		c-0.3,0-0.6,0.1-0.8,0.4c-0.2,0.2-0.3,0.5-0.3,0.9H23.4z"/>
	<path class="st0" d="M27.3,107.5c0.2,0,0.3-0.1,0.3-0.2c0-0.1,0-0.2,0-0.3c0-0.2-0.1-0.4-0.3-0.5c-0.2-0.1-0.4-0.2-0.7-0.2
		c-0.4,0-0.6,0.1-0.8,0.3c-0.1,0.1-0.1,0.3-0.2,0.5H25c0-0.5,0.2-0.9,0.5-1.1c0.3-0.2,0.7-0.3,1.1-0.3c0.5,0,0.9,0.1,1.2,0.3
		c0.3,0.2,0.5,0.5,0.5,0.9v2.4c0,0.1,0,0.1,0,0.2c0,0,0.1,0.1,0.2,0.1c0,0,0.1,0,0.1,0c0,0,0.1,0,0.1,0v0.5c-0.1,0-0.2,0.1-0.3,0.1
		c-0.1,0-0.1,0-0.2,0c-0.2,0-0.4-0.1-0.5-0.3c-0.1-0.1-0.1-0.2-0.1-0.4c-0.1,0.2-0.4,0.4-0.6,0.5c-0.3,0.1-0.6,0.2-0.9,0.2
		c-0.4,0-0.7-0.1-1-0.4c-0.2-0.2-0.4-0.5-0.4-0.9c0-0.4,0.1-0.7,0.4-0.9c0.2-0.2,0.6-0.3,1-0.4L27.3,107.5z M25.8,109.4
		c0.2,0.1,0.3,0.2,0.5,0.2c0.3,0,0.5-0.1,0.7-0.2c0.4-0.2,0.6-0.5,0.6-0.9v-0.6c-0.1,0.1-0.2,0.1-0.3,0.1c-0.1,0-0.3,0.1-0.4,0.1
		l-0.4,0.1c-0.3,0-0.5,0.1-0.6,0.2c-0.2,0.1-0.3,0.3-0.3,0.6C25.6,109.1,25.6,109.3,25.8,109.4z"/>
	<path class="st0" d="M29.6,104.2h0.7v5.8h-0.7V104.2z"/>
	<path class="st0" d="M31.5,104.6h0.7v1.2h0.7v0.6h-0.7v2.8c0,0.1,0.1,0.2,0.2,0.3c0.1,0,0.1,0,0.3,0c0,0,0.1,0,0.1,0
		c0,0,0.1,0,0.1,0v0.6c-0.1,0-0.2,0-0.3,0.1c-0.1,0-0.2,0-0.3,0c-0.3,0-0.6-0.1-0.7-0.3c-0.1-0.2-0.2-0.4-0.2-0.7v-2.8h-0.6v-0.6
		h0.6V104.6z"/>
	<path class="st0" d="M33.6,104.2h0.7v2.2c0.2-0.2,0.3-0.4,0.5-0.5c0.2-0.2,0.5-0.2,0.9-0.2c0.6,0,1,0.2,1.3,0.6
		c0.1,0.2,0.2,0.6,0.2,1v2.7h-0.7v-2.7c0-0.3,0-0.5-0.1-0.7c-0.1-0.2-0.4-0.3-0.7-0.3c-0.3,0-0.6,0.1-0.8,0.3s-0.4,0.6-0.4,1.2v2.3
		h-0.7V104.2z"/>
	<path class="st0" d="M40.8,105.8h0.8c-0.1,0.3-0.3,0.9-0.7,1.9c-0.3,0.7-0.5,1.3-0.6,1.8c-0.4,1.1-0.7,1.7-0.9,2
		c-0.2,0.2-0.5,0.4-0.9,0.4c-0.1,0-0.2,0-0.2,0c-0.1,0-0.1,0-0.2,0v-0.6c0.1,0,0.2,0.1,0.3,0.1c0.1,0,0.1,0,0.1,0
		c0.1,0,0.2,0,0.3-0.1c0.1,0,0.1-0.1,0.2-0.2c0,0,0.1-0.1,0.1-0.3c0.1-0.2,0.1-0.3,0.2-0.4l-1.6-4.4h0.8l1.1,3.5L40.8,105.8z"/>
	<path class="st0" d="M44.4,105.8h0.7v0.6c0.1-0.2,0.3-0.3,0.5-0.4c0.2-0.2,0.5-0.2,0.9-0.2c0.5,0,0.9,0.2,1.2,0.6
		c0.3,0.4,0.5,0.9,0.5,1.6c0,0.9-0.2,1.6-0.7,2c-0.3,0.3-0.7,0.4-1.1,0.4c-0.3,0-0.6-0.1-0.8-0.2c-0.1-0.1-0.3-0.2-0.4-0.4v2.2h-0.7
		V105.8z M47,109.2c0.2-0.3,0.3-0.7,0.3-1.2c0-0.3,0-0.6-0.1-0.9c-0.2-0.5-0.5-0.7-1-0.7c-0.5,0-0.8,0.2-1,0.7
		c-0.1,0.3-0.1,0.6-0.1,1c0,0.3,0,0.6,0.1,0.8c0.2,0.4,0.5,0.7,1,0.7C46.5,109.6,46.8,109.4,47,109.2z"/>
	<path class="st0" d="M49,105.8h0.7v0.7c0.1-0.1,0.2-0.3,0.4-0.5c0.2-0.2,0.5-0.3,0.7-0.3c0,0,0,0,0.1,0c0,0,0.1,0,0.2,0v0.8
		c0,0-0.1,0-0.1,0c0,0-0.1,0-0.1,0c-0.4,0-0.6,0.1-0.8,0.3c-0.2,0.2-0.3,0.5-0.3,0.8v2.4H49V105.8z"/>
	<path class="st0" d="M54.7,106.2c0.4,0.4,0.6,0.9,0.6,1.6c0,0.7-0.2,1.2-0.5,1.7c-0.3,0.4-0.8,0.7-1.5,0.7c-0.6,0-1-0.2-1.4-0.6
		c-0.3-0.4-0.5-0.9-0.5-1.6c0-0.7,0.2-1.3,0.5-1.7c0.4-0.4,0.8-0.6,1.4-0.6C53.9,105.7,54.3,105.9,54.7,106.2z M54.3,109.1
		c0.2-0.4,0.3-0.8,0.3-1.2c0-0.4-0.1-0.7-0.2-1c-0.2-0.4-0.5-0.6-1-0.6c-0.4,0-0.7,0.2-0.9,0.5c-0.2,0.3-0.3,0.7-0.3,1.2
		c0,0.5,0.1,0.8,0.3,1.1c0.2,0.3,0.5,0.5,0.9,0.5C53.8,109.6,54.1,109.4,54.3,109.1z"/>
	<path class="st0" d="M58.5,105.9c0.1,0.1,0.3,0.2,0.4,0.4v-2.1h0.7v5.8H59v-0.6c-0.2,0.3-0.4,0.5-0.6,0.6s-0.5,0.2-0.8,0.2
		c-0.5,0-0.9-0.2-1.2-0.6c-0.3-0.4-0.5-0.9-0.5-1.6c0-0.6,0.2-1.2,0.5-1.6s0.8-0.7,1.3-0.7C58,105.7,58.3,105.8,58.5,105.9z
		 M56.9,109.1c0.2,0.3,0.5,0.5,0.9,0.5c0.3,0,0.6-0.1,0.8-0.4c0.2-0.3,0.3-0.7,0.3-1.2c0-0.5-0.1-0.9-0.3-1.2
		c-0.2-0.3-0.5-0.4-0.8-0.4c-0.4,0-0.6,0.1-0.9,0.4c-0.2,0.3-0.3,0.7-0.3,1.2C56.6,108.4,56.7,108.8,56.9,109.1z"/>
	<path class="st0" d="M61.4,105.8v2.8c0,0.2,0,0.4,0.1,0.5c0.1,0.3,0.4,0.4,0.7,0.4c0.5,0,0.8-0.2,1-0.7c0.1-0.2,0.1-0.6,0.1-1v-2.1
		H64v4.2h-0.7l0-0.6c-0.1,0.2-0.2,0.3-0.3,0.4c-0.3,0.2-0.6,0.3-1,0.3c-0.6,0-1-0.2-1.2-0.6c-0.1-0.2-0.2-0.5-0.2-0.9v-2.9H61.4z"/>
	<path class="st0" d="M68,106c0.3,0.2,0.5,0.6,0.5,1.2h-0.7c0-0.3-0.1-0.5-0.3-0.7c-0.2-0.2-0.4-0.3-0.7-0.3c-0.5,0-0.8,0.2-1,0.7
		c-0.1,0.3-0.2,0.6-0.2,1.1c0,0.4,0.1,0.8,0.3,1.1c0.2,0.3,0.5,0.4,0.8,0.4c0.3,0,0.5-0.1,0.7-0.3c0.2-0.2,0.3-0.4,0.4-0.7h0.7
		c-0.1,0.6-0.3,1-0.6,1.2c-0.3,0.3-0.7,0.4-1.2,0.4c-0.6,0-1-0.2-1.3-0.6c-0.3-0.4-0.5-0.9-0.5-1.5c0-0.7,0.2-1.3,0.5-1.7
		c0.4-0.4,0.8-0.6,1.4-0.6C67.3,105.7,67.7,105.8,68,106z"/>
	<path class="st0" d="M69.4,104.6h0.7v1.2h0.7v0.6h-0.7v2.8c0,0.1,0,0.2,0.2,0.3c0.1,0,0.1,0,0.3,0c0,0,0.1,0,0.1,0c0,0,0.1,0,0.1,0
		v0.6c-0.1,0-0.2,0-0.3,0.1c-0.1,0-0.2,0-0.3,0c-0.3,0-0.6-0.1-0.7-0.3c-0.1-0.2-0.2-0.4-0.2-0.7v-2.8h-0.6v-0.6h0.6V104.6z"/>
	<path class="st0" d="M71.9,108.7c0,0.2,0.1,0.4,0.2,0.5c0.2,0.2,0.5,0.3,1,0.3c0.3,0,0.5-0.1,0.7-0.2c0.2-0.1,0.3-0.3,0.3-0.5
		c0-0.2-0.1-0.3-0.2-0.4c-0.1-0.1-0.3-0.1-0.6-0.2l-0.6-0.1c-0.4-0.1-0.6-0.2-0.8-0.3c-0.3-0.2-0.5-0.5-0.5-0.8c0-0.4,0.1-0.7,0.4-1
		c0.3-0.2,0.7-0.4,1.2-0.4c0.6,0,1.1,0.2,1.4,0.6c0.2,0.2,0.3,0.5,0.3,0.8H74c0-0.2-0.1-0.3-0.2-0.4c-0.2-0.2-0.5-0.3-0.9-0.3
		c-0.3,0-0.5,0.1-0.6,0.2c-0.1,0.1-0.2,0.2-0.2,0.4c0,0.2,0.1,0.3,0.3,0.4c0.1,0.1,0.3,0.1,0.5,0.2l0.5,0.1c0.5,0.1,0.9,0.2,1,0.4
		c0.3,0.2,0.4,0.5,0.4,0.9c0,0.4-0.1,0.7-0.4,1c-0.3,0.3-0.7,0.4-1.3,0.4c-0.6,0-1.1-0.1-1.4-0.4c-0.3-0.3-0.4-0.6-0.4-1.1H71.9z"/>
</g>
</svg>
