<?xml version="1.0" encoding="utf-8"?>
<!-- Generator: Adobe Illustrator 23.0.3, SVG Export Plug-In . SVG Version: 6.00 Build 0)  -->
<svg version="1.1" id="Layer_1" xmlns="http://www.w3.org/2000/svg" xmlns:xlink="http://www.w3.org/1999/xlink" x="0px" y="0px"
	 viewBox="0 0 435.8 444.1" style="enable-background:new 0 0 435.8 444.1;" xml:space="preserve">
<style type="text/css">
	.st0{fill:none;stroke:#A6A8AB;stroke-width:0.4985;stroke-miterlimit:10;}
	.st1{fill:#808184;}
</style>
<title>creacion-de-valor</title>
<g>
	<ellipse class="st0" cx="218.7" cy="225" rx="215.8" ry="218.2"/>
	<g>
		<path class="st1" d="M76.4,48.8l1-0.8l2.1,5.8l-0.9,0.7l-5.2-3.3l1-0.8l3.8,2.7L76.4,48.8z"/>
		<path class="st1" d="M99.2,32.6l1.2-0.7l4.8,3.9l-1.1,0.7l-1-0.8l-1.8,1.1l0.3,1.2l-1.1,0.7L99.2,32.6z M101,35.8l1.3-0.8
			l-1.8-1.6L101,35.8z"/>
		<path class="st1" d="M124.9,18.9l1.1-0.5l1.9,4.4l2.7-1.2l0.4,1l-3.8,1.7L124.9,18.9z"/>
		<path class="st1" d="M152.8,8.4l1.2-0.3l1,3.5c0.1,0.4,0.2,0.7,0.4,0.8c0.2,0.3,0.6,0.3,1.1,0.2c0.5-0.1,0.7-0.4,0.8-0.7
			c0-0.2,0-0.5-0.1-0.9l-1-3.5l1.2-0.3l1,3.5c0.2,0.6,0.2,1.1,0.1,1.5c-0.2,0.7-0.7,1.2-1.7,1.5c-1,0.3-1.7,0.2-2.2-0.3
			c-0.3-0.3-0.5-0.7-0.7-1.3L152.8,8.4z"/>
		<path class="st1" d="M187.1,2l-3,0.4l0.2,1.2l2.8-0.4l0.1,1l-2.8,0.4l0.2,1.5l3.2-0.5l0.2,1l-4.4,0.6l-0.8-5.8l4.2-0.6L187.1,2z"
			/>
		<path class="st1" d="M240.3,0.7c0.5-0.4,1.1-0.6,1.9-0.5c1,0.1,1.6,0.5,2,1.2c0.2,0.4,0.3,0.8,0.3,1.1l-1.2-0.1
			c0-0.3-0.1-0.5-0.2-0.7c-0.2-0.3-0.5-0.4-0.9-0.5c-0.4,0-0.8,0.1-1.1,0.4c-0.3,0.3-0.5,0.8-0.5,1.5c-0.1,0.7,0,1.2,0.2,1.5
			c0.2,0.4,0.5,0.6,0.9,0.6c0.4,0,0.7-0.1,1-0.3c0.1-0.1,0.3-0.4,0.4-0.6l1.2,0.1c-0.2,0.6-0.5,1.1-1,1.5c-0.5,0.4-1,0.5-1.7,0.4
			c-0.8-0.1-1.4-0.4-1.9-1c-0.4-0.6-0.6-1.4-0.5-2.3C239.3,1.9,239.7,1.2,240.3,0.7z"/>
		<path class="st1" d="M273.6,6.2c0.2,0.1,0.3,0.3,0.4,0.5c0.1,0.2,0.1,0.4,0.2,0.6s0,0.4,0,0.6c-0.1,0.3-0.2,0.5-0.4,0.7
			C273.6,8.9,273.3,9,273,9c0.2,0.2,0.4,0.4,0.4,0.6c0.1,0.2,0,0.5-0.1,0.9l-0.1,0.4c-0.1,0.3-0.1,0.4-0.1,0.5c0,0.2,0,0.3,0.1,0.4
			l0,0.1l-1.3-0.3c0-0.1,0-0.2,0-0.3c0-0.2,0-0.3,0.1-0.5l0.1-0.5c0.1-0.4,0.1-0.6,0-0.8c-0.1-0.2-0.3-0.3-0.6-0.4l-1.2-0.3
			l-0.5,2.2l-1.2-0.3l1.4-5.7l2.7,0.7C273.1,5.9,273.4,6.1,273.6,6.2z M271,6.4L270.6,8l1.3,0.3c0.3,0.1,0.4,0.1,0.6,0
			c0.2-0.1,0.4-0.2,0.5-0.6c0.1-0.3,0-0.6-0.2-0.8c-0.1-0.1-0.3-0.2-0.5-0.2L271,6.4z"/>
		<path class="st1" d="M302.9,16.9l-2.9-1.1l-0.5,1.2l2.6,1.1l-0.4,1l-2.6-1.1l-0.6,1.4l3,1.2l-0.4,1l-4.1-1.6l2.1-5.5l4,1.6
			L302.9,16.9z"/>
		<path class="st1" d="M328.2,28.1l1.2,0.7l-1.1,6.1l-1.1-0.7l0.3-1.2l-1.9-1.1l-0.9,0.9l-1.1-0.6L328.2,28.1z M326.3,31.2l1.3,0.7
			l0.5-2.4L326.3,31.2z"/>
		<path class="st1" d="M355.4,46.2l-0.6,0.8l-1.4-1.1l-2.9,3.9l-1-0.7l2.9-3.9l-1.4-1.1l0.6-0.8L355.4,46.2z"/>
		<path class="st1" d="M371.5,68.1l-0.9-0.9l4.1-4.2l0.9,0.9L371.5,68.1z"/>
		<path class="st1" d="M391.7,90.1c-0.6-0.1-1.2-0.4-1.7-1.1c-0.5-0.7-0.7-1.3-0.7-1.9c0.1-0.8,0.5-1.6,1.3-2.2
			c0.8-0.7,1.6-0.9,2.4-0.8c0.6,0.1,1.2,0.4,1.7,1.1c0.5,0.7,0.7,1.3,0.7,1.9c-0.1,0.8-0.5,1.5-1.3,2.2
			C393.3,89.9,392.5,90.2,391.7,90.1z M391.9,88.9c0.5,0,0.9-0.2,1.5-0.6c0.5-0.4,0.8-0.8,0.9-1.3c0.1-0.4,0-0.9-0.3-1.2
			c-0.3-0.4-0.7-0.6-1.1-0.6c-0.5,0-0.9,0.2-1.5,0.6c-0.5,0.4-0.8,0.8-0.9,1.3c-0.1,0.5,0,0.9,0.3,1.2
			C391.1,88.8,391.4,88.9,391.9,88.9z"/>
		<path class="st1" d="M411,108.9l0.7,1.1l-2.3,4.1l3.5-2.1l0.6,1l-5,3l-0.6-1.1l2.3-4.2l-3.5,2.1l-0.6-1L411,108.9z"/>
	</g>
</g>
</svg>
