<?xml version="1.0" encoding="utf-8"?>
<!-- Generator: Adobe Illustrator 23.0.3, SVG Export Plug-In . SVG Version: 6.00 Build 0)  -->
<svg version="1.1" id="Layer_1" xmlns="http://www.w3.org/2000/svg" xmlns:xlink="http://www.w3.org/1999/xlink" x="0px" y="0px"
	 viewBox="0 0 213.2 211.6" style="enable-background:new 0 0 213.2 211.6;" xml:space="preserve">
<style type="text/css">
	.st0{display:none;}
	.st1{display:inline;}
	.st2{fill:none;stroke:#B2B2B2;stroke-width:0.5;stroke-miterlimit:10;}
	.st3{fill:#878787;}
	.st4{fill:none;stroke:#A6A8AB;stroke-width:0.473;stroke-miterlimit:10;}
	.st5{fill:#808184;}
</style>
<title>cumplimiento</title>
<g class="st0">
	<g id="Capa_1" class="st1">
		<circle class="st2" cx="106.8" cy="110.4" r="100.9"/>
		<path class="st3" d="M1.1,78.5l0.5,0.7c-0.3,0.2-0.6,0.5-0.7,0.9c-0.2,0.8,0.2,1.5,1.6,1.9s2.2,0,2.4-0.8C5,80.8,5,80.4,4.8,80
			l0.8-0.3c0.3,0.6,0.4,1.2,0.2,1.8c-0.4,1.4-1.7,2.1-3.5,1.6s-2.5-1.8-2.2-3.2C0.2,79.3,0.6,78.8,1.1,78.5z"/>
		<path class="st3" d="M14.4,56.3c0.9,0.5,1.3,1.6,0.8,2.6c0,0.1-0.1,0.1-0.1,0.2c-0.4,1-1.5,1.4-2.4,1c-0.1,0-0.2-0.1-0.3-0.2
			L9.1,58l0.5-0.9l3.2,1.8c0.7,0.4,1.2,0.3,1.5-0.3s0.2-1.1-0.5-1.5l-3.2-1.8l0.5-0.9L14.4,56.3z"/>
		<path class="st3" d="M32.2,36.2l-0.7,0.8l-1.8-1.5c-0.6-0.5-1.3-1.1-1.7-1.5l2.2,3.5l-0.7,0.7l-3.7-2c0.6,0.5,1.1,1.1,1.7,1.6
			l1.6,1.7l-0.7,0.8L24.6,36l1-1l3.5,2l-2.2-3.4l1-1L32.2,36.2z"/>
		<path class="st3" d="M49.7,17.5c0.7,1.1,0.2,2.1-0.8,2.8l-0.5,0.4l1.1,1.6l-0.9,0.6l-3-4.7l1.4-0.9C48,16.4,49,16.5,49.7,17.5z
			 M48.7,18.1c-0.4-0.6-0.9-0.6-1.5-0.2l-0.5,0.3l1.1,1.7l0.5-0.3C48.9,19.2,49.2,18.8,48.7,18.1L48.7,18.1z"/>
		<path class="st3" d="M71.2,10.4l2.1-0.8l0.2,0.9l-3,1.1l-1.9-5.3l1-0.4L71.2,10.4z"/>
		<path class="st3" d="M95,5.8L93.9,6l-0.7-5.6l1.1-0.1L95,5.8z"/>
		<path class="st3" d="M121.6,6.2l-1-0.1l0.1-2.3c0-0.8,0.1-1.7,0.2-2.3l-1.5,3.9l-1-0.1L117.8,1c-0.1,0.8-0.2,1.6-0.3,2.3l-0.4,2.3
			l-1-0.1l1-5.5l1.4,0.2l0.6,4l1.4-3.8l1.4,0.2L121.6,6.2z"/>
		<path class="st3" d="M143,11.6l-1-0.4l1.9-5.3l1,0.4L143,11.6z"/>
		<path class="st3" d="M167.4,18.5l-1.8-1.1l-0.9,1.3l1.5,1l-0.4,0.7l-1.5-1l-0.9,1.4l1.9,1.2l-0.4,0.7l-2.8-1.8l3-4.7l2.8,1.8
			L167.4,18.5z"/>
		<path class="st3" d="M184.1,38.9l-1-1l1.9-4.5c-0.5,0.6-1,1.1-1.5,1.7l-1.6,1.6l-0.7-0.7l4-3.9l0.9,1l-1.9,4.6
			c0.4-0.5,0.8-1,1.3-1.4l1.9-1.8l0.7,0.7L184.1,38.9z"/>
		<path class="st3" d="M202.8,56.5l-0.8-1.3l-4.1,2.4l-0.6-0.9l4.1-2.4l-0.8-1.3l0.7-0.4l2.1,3.6L202.8,56.5z"/>
		<path class="st3" d="M211,81.3c-1.8,0.5-3.1-0.1-3.5-1.5s0.3-2.7,2.1-3.2s3.1,0.1,3.5,1.5S212.8,80.8,211,81.3z M209.9,77.7
			c-1.4,0.4-1.9,1.1-1.6,1.9s1,1.1,2.4,0.7s1.9-1.1,1.6-1.9S211.3,77.3,209.9,77.7L209.9,77.7z"/>
	</g>
</g>
<circle class="st4" cx="106.6" cy="105.8" r="95.5"/>
<g>
	<path class="st5" d="M27.6,175.1l-0.7-0.9l1.7-1.5l-3.1-0.2l-1-1.1l3.2,0.3l1-3.9l1,1.1l-0.8,2.9l0.8,0.1l1.4-1.2l0.7,0.9
		L27.6,175.1z"/>
	<path class="st5" d="M12.1,149.7l1.3,2.6l1.1-0.5l-1.2-2.4l0.9-0.4l1.2,2.4l1.3-0.6l-1.4-2.8l0.9-0.4l1.8,3.8l-5,2.4l-1.8-3.6
		L12.1,149.7z"/>
	<path class="st5" d="M4.4,125.8l0.6,2.9l1.1-0.2l-0.6-2.6l0.9-0.2l0.6,2.6l1.4-0.3l-0.6-3l1-0.2l0.9,4.1L4.3,130l-0.9-4L4.4,125.8z
		"/>
	<path class="st5" d="M4.7,101.3c0.3,0.3,0.4,0.8,0.4,1.4l0,1.2l2,0.1l0,1.1l-5.5-0.1l0.1-2.4c0-0.5,0.2-1,0.5-1.3
		c0.3-0.3,0.7-0.5,1.3-0.5C4,100.8,4.5,100.9,4.7,101.3z M2.7,102.1c-0.1,0.1-0.2,0.3-0.2,0.6l0,1l1.6,0l0-1c0-0.3-0.1-0.5-0.2-0.6
		c-0.1-0.2-0.3-0.2-0.6-0.2S2.8,102,2.7,102.1z"/>
	<path class="st5" d="M10.3,80.2l-0.3,1.1L4.7,80L5,78.9L10.3,80.2z"/>
	<path class="st5" d="M12.4,59l0.6-1.1l4.4-0.2L14,56l0.5-1l4.9,2.6l-0.5,1l-4.5,0.2l3.5,1.8l-0.5,1L12.4,59z"/>
	<path class="st5" d="M30.5,35.9c-0.3-0.2-0.7-0.2-1-0.1c-0.2,0.1-0.4,0.2-0.5,0.4c-0.3,0.3-0.4,0.7-0.4,1.2
		c0.1,0.4,0.3,0.9,0.8,1.3c0.5,0.5,1,0.7,1.4,0.6c0.4,0,0.8-0.2,1-0.5c0.3-0.3,0.4-0.6,0.4-0.9c0-0.3-0.1-0.6-0.3-0.9l-0.9,1
		l-0.7-0.6l1.5-1.7l2.2,2l-0.5,0.6L33,37.7c0,0.3,0,0.6,0,0.8c-0.1,0.4-0.2,0.7-0.5,1c-0.5,0.5-1.1,0.8-1.8,0.8
		c-0.7,0-1.4-0.3-2-0.9c-0.7-0.6-1-1.3-1.1-2c-0.1-0.7,0.2-1.4,0.7-2c0.5-0.5,1-0.8,1.5-0.9c0.6-0.1,1,0,1.5,0.3L30.5,35.9z"/>
	<path class="st5" d="M71.3,12.1c-0.2,0.6-0.7,1-1.4,1.3c-0.7,0.3-1.4,0.3-1.9,0.1c-0.7-0.3-1.3-0.9-1.6-1.8
		c-0.4-0.9-0.4-1.8-0.1-2.4c0.2-0.6,0.7-1,1.4-1.3s1.4-0.3,1.9-0.1c0.7,0.3,1.2,0.9,1.6,1.8C71.6,10.6,71.6,11.4,71.3,12.1z
		 M70.3,11.6c0.1-0.4,0.1-0.9-0.2-1.5c-0.2-0.6-0.5-1-0.9-1.2c-0.4-0.2-0.8-0.2-1.2-0.1c-0.4,0.2-0.7,0.5-0.8,0.9
		c-0.1,0.4-0.1,0.9,0.2,1.5c0.2,0.6,0.5,1,0.9,1.2c0.4,0.2,0.8,0.2,1.2,0.1C69.9,12.3,70.2,12,70.3,11.6z"/>
	<path class="st5" d="M90.7,1.9l1.2-0.2l0.4,3.4c0,0.4,0.1,0.6,0.2,0.8c0.2,0.3,0.5,0.4,1,0.3C94,6.2,94.2,6,94.3,5.7
		c0.1-0.2,0.1-0.5,0-0.8l-0.4-3.4l1.2-0.2l0.4,3.4c0.1,0.6,0,1.1-0.1,1.4c-0.3,0.6-0.9,1-1.8,1.1c-1,0.1-1.6-0.1-2.1-0.6
		c-0.2-0.3-0.4-0.7-0.4-1.3L90.7,1.9z"/>
	<path class="st5" d="M119.9,1.7c0.2,0.1,0.3,0.3,0.5,0.4c0.1,0.2,0.2,0.3,0.2,0.5c0,0.2,0.1,0.4,0,0.6c0,0.3-0.1,0.5-0.3,0.7
		c-0.2,0.2-0.4,0.4-0.7,0.5c0.2,0.1,0.4,0.3,0.5,0.5c0.1,0.2,0.1,0.5,0.1,0.9l0,0.4c0,0.3,0,0.4,0,0.5c0,0.1,0.1,0.3,0.2,0.3l0,0.1
		L119,7c0-0.1,0-0.2,0-0.3c0-0.2,0-0.3,0-0.5l0.1-0.5c0-0.4,0-0.6-0.1-0.7c-0.1-0.1-0.3-0.2-0.6-0.2l-1.1-0.1l-0.2,2.2l-1.1-0.1
		l0.6-5.5l2.6,0.3C119.5,1.5,119.7,1.6,119.9,1.7z M117.5,2.2l-0.2,1.5l1.2,0.1c0.2,0,0.4,0,0.6,0c0.2-0.1,0.4-0.3,0.4-0.6
		c0-0.3,0-0.6-0.2-0.7c-0.1-0.1-0.3-0.1-0.5-0.2L117.5,2.2z"/>
	<path class="st5" d="M163.1,20.9c-0.4,0.1-0.9-0.1-1.4-0.4l-1-0.6l-1.1,1.7l-1-0.6l3-4.7l2,1.3c0.5,0.3,0.8,0.7,0.9,1.1
		c0.1,0.4,0,0.9-0.3,1.4C163.9,20.5,163.5,20.8,163.1,20.9z M163.4,18.7c-0.1-0.2-0.2-0.3-0.4-0.5l-0.9-0.6l-0.9,1.4l0.9,0.6
		c0.2,0.1,0.4,0.2,0.6,0.2s0.4-0.2,0.5-0.4C163.4,19.1,163.4,18.9,163.4,18.7z"/>
	<path class="st5" d="M183.8,34.7c0.1,0.2,0.1,0.4,0.1,0.6c0,0.2-0.1,0.4-0.1,0.5c-0.1,0.2-0.2,0.3-0.4,0.5
		c-0.2,0.2-0.4,0.3-0.7,0.4c-0.3,0.1-0.6,0-0.8-0.1c0.1,0.3,0.1,0.5,0.1,0.7s-0.2,0.4-0.5,0.7l-0.3,0.3c-0.2,0.2-0.3,0.3-0.4,0.4
		c-0.1,0.1-0.1,0.2-0.1,0.4l-0.1,0.1l-0.9-0.9c0.1-0.1,0.1-0.2,0.2-0.3c0.1-0.1,0.2-0.2,0.3-0.4l0.4-0.4c0.3-0.2,0.4-0.5,0.4-0.6
		c0-0.2-0.1-0.4-0.3-0.6l-0.8-0.8l-1.6,1.5l-0.8-0.8l4-3.8l1.8,1.9C183.5,34.2,183.7,34.5,183.8,34.7z M181.5,33.5l-1.1,1l0.9,0.9
		c0.2,0.2,0.3,0.3,0.4,0.3c0.2,0.1,0.5,0,0.7-0.2c0.2-0.2,0.3-0.5,0.3-0.7c0-0.1-0.1-0.3-0.3-0.5L181.5,33.5z"/>
	<path class="st5" d="M194.8,58.6c-0.6-0.2-1.1-0.6-1.5-1.3c-0.4-0.7-0.5-1.3-0.3-1.9c0.2-0.7,0.7-1.4,1.6-1.9
		c0.9-0.5,1.7-0.6,2.4-0.4c0.6,0.2,1.1,0.6,1.5,1.3c0.4,0.7,0.5,1.3,0.3,1.9c-0.2,0.7-0.7,1.4-1.6,1.8
		C196.4,58.7,195.6,58.8,194.8,58.6z M195.2,57.6c0.4,0.1,0.9,0,1.5-0.4c0.5-0.3,0.9-0.7,1.1-1.1c0.2-0.4,0.1-0.8-0.1-1.2
		c-0.2-0.4-0.5-0.6-1-0.7c-0.4-0.1-0.9,0-1.5,0.3c-0.5,0.3-0.9,0.7-1.1,1.1c-0.2,0.4-0.1,0.8,0.1,1.2
		C194.5,57.3,194.8,57.5,195.2,57.6z"/>
	<path class="st5" d="M208.5,80l0.4,1.6l-5.4,1.4l-0.3-1l3.6-1c0.1,0,0.3-0.1,0.4-0.1s0.3-0.1,0.4-0.1L203,81l-0.3-1.1l4.2-2.2
		c-0.1,0-0.2,0.1-0.4,0.1c-0.2,0.1-0.3,0.1-0.4,0.1l-3.6,1l-0.3-1l5.4-1.4l0.4,1.6l-4,2.1L208.5,80z"/>
	<path class="st5" d="M206.1,103.9l0-1.1l5.5-0.1l0,1.1L206.1,103.9z"/>
	<path class="st5" d="M206,125c-0.3,0-0.5,0-0.6,0.1c-0.3,0.1-0.4,0.4-0.5,0.9c-0.1,0.3-0.1,0.5,0,0.7c0,0.3,0.2,0.6,0.5,0.6
		c0.2,0,0.3,0,0.5-0.2c0.1-0.1,0.3-0.4,0.4-0.7l0.2-0.6c0.2-0.6,0.5-0.9,0.7-1.1c0.3-0.3,0.8-0.4,1.3-0.3c0.5,0.1,0.9,0.4,1.1,0.8
		c0.2,0.4,0.3,1,0.2,1.7c-0.1,0.6-0.4,1-0.8,1.4s-0.9,0.5-1.5,0.4l0.2-1.1c0.3,0,0.6-0.1,0.8-0.3c0.1-0.2,0.2-0.4,0.3-0.6
		c0.1-0.3,0.1-0.6,0-0.8c-0.1-0.2-0.2-0.3-0.4-0.4c-0.2,0-0.4,0-0.5,0.2c-0.1,0.1-0.2,0.3-0.4,0.7l-0.4,0.9
		c-0.2,0.4-0.4,0.7-0.6,0.9c-0.3,0.3-0.7,0.4-1.2,0.3c-0.5-0.1-0.9-0.4-1.1-0.8c-0.2-0.5-0.3-1-0.2-1.7c0.1-0.7,0.4-1.2,0.8-1.6
		c0.4-0.3,0.9-0.5,1.5-0.3L206,125z"/>
	<path class="st5" d="M199.7,152.4l1.3-2.6l-1.1-0.5l-1.2,2.4l-0.9-0.4l1.2-2.4l-1.3-0.6l-1.3,2.8l-0.9-0.4l1.8-3.8l5,2.4l-1.7,3.7
		L199.7,152.4z"/>
	<path class="st5" d="M185.7,169c-0.2-0.1-0.4-0.2-0.6-0.2c-0.3,0-0.6,0.2-0.9,0.5c-0.2,0.2-0.3,0.4-0.4,0.6
		c-0.1,0.3-0.1,0.6,0.2,0.8c0.1,0.1,0.3,0.1,0.5,0.1c0.2-0.1,0.4-0.2,0.7-0.4l0.5-0.4c0.5-0.4,0.8-0.6,1.1-0.7
		c0.4-0.1,0.9,0,1.3,0.3c0.4,0.3,0.6,0.7,0.6,1.2c0,0.5-0.2,1-0.6,1.6c-0.4,0.5-0.8,0.7-1.3,0.9c-0.5,0.1-1,0-1.5-0.3l0.7-0.9
		c0.3,0.2,0.5,0.2,0.8,0.1c0.2-0.1,0.4-0.2,0.5-0.4c0.2-0.2,0.3-0.5,0.3-0.7c0-0.2,0-0.4-0.2-0.5c-0.2-0.1-0.3-0.1-0.5-0.1
		c-0.1,0-0.3,0.2-0.6,0.4l-0.8,0.6c-0.3,0.3-0.7,0.4-0.9,0.5c-0.4,0.1-0.8,0-1.2-0.3c-0.4-0.3-0.6-0.7-0.6-1.3c0-0.5,0.2-1,0.7-1.6
		c0.5-0.6,1-0.9,1.5-1c0.5-0.1,1,0,1.4,0.4L185.7,169z"/>
</g>
</svg>
