<?xml version="1.0" encoding="utf-8"?>
<!-- Generator: Adobe Illustrator 23.0.3, SVG Export Plug-In . SVG Version: 6.00 Build 0)  -->
<svg version="1.1" id="Layer_1" xmlns="http://www.w3.org/2000/svg" xmlns:xlink="http://www.w3.org/1999/xlink" x="0px" y="0px"
	 viewBox="0 0 337.3 341.7" style="enable-background:new 0 0 337.3 341.7;" xml:space="preserve">
<style type="text/css">
	.st0{fill:none;stroke:#A6A8AB;stroke-width:0.482;stroke-miterlimit:10;}
	.st1{fill:#808184;}
</style>
<title>desarrollo-sustentable</title>
<g>
	<circle class="st0" cx="168.6" cy="175.2" r="159.8"/>
	<g>
		<path class="st1" d="M5.3,146.5c0.3,0,0.5,0,0.6-0.1c0.3-0.2,0.4-0.5,0.5-0.9c0.1-0.3,0.1-0.5,0-0.7c-0.1-0.4-0.2-0.6-0.6-0.6
			c-0.2,0-0.3,0-0.5,0.2c-0.1,0.1-0.3,0.4-0.4,0.7l-0.2,0.6c-0.2,0.6-0.5,0.9-0.6,1.1c-0.3,0.3-0.8,0.4-1.3,0.3
			c-0.5-0.1-0.9-0.3-1.1-0.8c-0.3-0.4-0.3-1-0.2-1.7c0.1-0.6,0.4-1.1,0.7-1.4c0.4-0.4,0.9-0.5,1.5-0.4l-0.2,1.1
			c-0.3,0-0.6,0.1-0.8,0.3c-0.1,0.2-0.2,0.4-0.3,0.7c-0.1,0.3,0,0.6,0,0.8c0.1,0.2,0.2,0.3,0.5,0.4c0.2,0,0.4,0,0.5-0.2
			c0.1-0.1,0.2-0.3,0.4-0.7l0.4-0.9c0.2-0.4,0.4-0.7,0.6-0.9c0.3-0.3,0.7-0.4,1.2-0.3c0.5,0.1,0.9,0.4,1.2,0.8
			c0.3,0.5,0.3,1,0.2,1.8c-0.1,0.7-0.4,1.3-0.8,1.6c-0.4,0.4-0.9,0.5-1.5,0.4L5.3,146.5z"/>
		<path class="st1" d="M6.3,125.8l0.4-1.1l3.3,1.1c0.4,0.1,0.7,0.2,0.9,0.1c0.3,0,0.6-0.3,0.7-0.7c0.1-0.5,0.1-0.8-0.2-1
			c-0.1-0.1-0.4-0.3-0.8-0.4l-3.3-1.1l0.4-1.1l3.3,1.1c0.6,0.2,1,0.4,1.3,0.7c0.5,0.5,0.6,1.2,0.3,2.2c-0.3,0.9-0.8,1.5-1.5,1.6
			c-0.4,0.1-0.8,0-1.4-0.2L6.3,125.8z"/>
		<path class="st1" d="M17.9,106.2c0.2,0.1,0.5,0.1,0.6,0c0.3-0.1,0.5-0.3,0.7-0.8c0.1-0.3,0.2-0.5,0.2-0.7c0-0.4-0.1-0.6-0.4-0.7
			c-0.2-0.1-0.3-0.1-0.5,0c-0.2,0.1-0.4,0.3-0.6,0.6l-0.4,0.5c-0.4,0.5-0.7,0.8-0.9,0.9c-0.4,0.2-0.8,0.2-1.3,0
			c-0.5-0.2-0.8-0.6-0.9-1c-0.1-0.5-0.1-1,0.2-1.7c0.3-0.5,0.6-0.9,1.1-1.2c0.5-0.3,1-0.3,1.5,0l-0.5,1c-0.3-0.1-0.6-0.1-0.8,0.1
			c-0.2,0.1-0.3,0.3-0.4,0.6c-0.1,0.3-0.2,0.5-0.1,0.8c0,0.2,0.1,0.4,0.3,0.5c0.2,0.1,0.4,0.1,0.5-0.1c0.1-0.1,0.3-0.3,0.5-0.6
			l0.6-0.8c0.3-0.4,0.5-0.6,0.8-0.7c0.4-0.2,0.8-0.2,1.3,0c0.5,0.2,0.8,0.6,0.9,1.1c0.1,0.5,0.1,1.1-0.3,1.7
			c-0.3,0.7-0.7,1.1-1.2,1.4c-0.5,0.2-1,0.2-1.5,0L17.9,106.2z"/>
		<path class="st1" d="M26.2,82.9l0.8,0.5l-0.9,1.4l3.9,2.5l-0.6,1l-3.9-2.5l-0.9,1.4l-0.8-0.5L26.2,82.9z"/>
		<path class="st1" d="M36.8,68.4l0.8-1l5.6,2l-0.8,1l-1.1-0.4L40,71.5l0.7,1l-0.8,1L36.8,68.4z M39.5,70.7l0.9-1.1l-2.2-0.9
			L39.5,70.7z"/>
		<path class="st1" d="M55.1,56.8l-0.8,0.8l-3.9-4.1l0.8-0.8L55.1,56.8z"/>
		<path class="st1" d="M64.3,41.4l1-0.7l4.2,1.8L67,39.3l0.9-0.7l3.4,4.5l-0.9,0.7L66.1,42l2.4,3.2l-0.9,0.7L64.3,41.4z"/>
		<path class="st1" d="M83.8,28.2l1.2-0.7l4.5,3.9l-1.1,0.6l-0.9-0.8l-1.8,1l0.2,1.2l-1.1,0.6L83.8,28.2z M85.4,31.3l1.3-0.7L85,29
			L85.4,31.3z"/>
		<path class="st1" d="M106,18.1c0.3,0.2,0.4,0.4,0.6,0.7c0.1,0.3,0.2,0.6,0.1,0.9c0,0.1-0.1,0.3-0.3,0.5c0.3,0,0.6,0.1,0.8,0.2
			c0.2,0.2,0.4,0.4,0.5,0.7c0.1,0.3,0.2,0.6,0.1,0.9c0,0.2-0.1,0.4-0.2,0.6c-0.1,0.2-0.3,0.4-0.5,0.5c-0.2,0.1-0.4,0.3-0.7,0.4
			l-2.4,1l-2.2-5.2l2.5-1C105.1,17.8,105.6,17.8,106,18.1z M103.3,19.6l0.5,1.2l1.3-0.5c0.2-0.1,0.4-0.2,0.5-0.4
			c0.1-0.1,0.1-0.3,0-0.5c-0.1-0.2-0.3-0.4-0.5-0.4c-0.2,0-0.4,0.1-0.7,0.2L103.3,19.6z M104.1,21.6l0.6,1.4l1.3-0.5
			c0.2-0.1,0.4-0.2,0.5-0.3c0.2-0.2,0.2-0.5,0.1-0.8c-0.1-0.3-0.3-0.4-0.6-0.4c-0.1,0-0.3,0-0.6,0.1L104.1,21.6z"/>
		<path class="st1" d="M122.5,11.8l1.1-0.3l1.2,4.5l2.7-0.7l0.3,1l-3.9,1L122.5,11.8z"/>
		<path class="st1" d="M147.3,7.8l-3,0.4l0.2,1.2l2.7-0.4l0.1,1l-2.7,0.4l0.2,1.4l3.1-0.4l0.1,1l-4.2,0.6l-0.8-5.6l4.1-0.6
			L147.3,7.8z"/>
		<path class="st1" d="M186,6.5c0.4,0.2,0.7,0.4,0.9,0.8c0.2,0.3,0.3,0.6,0.3,0.9c0,0.3,0,0.6,0,0.9c-0.1,0.7-0.3,1.4-0.6,1.9
			c-0.5,0.7-1.1,0.9-2,0.9l-2.4-0.2l0.5-5.6l2.4,0.2C185.5,6.4,185.8,6.4,186,6.5z M183.8,7.2l-0.4,3.7l1.1,0.1
			c0.6,0.1,1-0.2,1.2-0.7c0.1-0.3,0.2-0.6,0.3-1.1c0.1-0.6,0-1-0.1-1.3c-0.1-0.3-0.5-0.5-1-0.6L183.8,7.2z"/>
		<path class="st1" d="M208.2,11.2l-2.9-0.7l-0.3,1.2l2.7,0.6l-0.2,1l-2.7-0.6l-0.3,1.4l3,0.7l-0.2,1l-4.2-0.9l1.3-5.5l4,0.9
			L208.2,11.2z"/>
		<path class="st1" d="M228.2,16.3l1.2,0.4l-3.7,4.6l-1-0.4l0.1-6l1.2,0.4l-0.3,4.4L228.2,16.3z"/>
		<path class="st1" d="M248,26.3l-2.7-1.4l-0.6,1.1l2.4,1.3l-0.5,0.9l-2.4-1.3l-0.7,1.3l2.8,1.4l-0.5,0.9l-3.8-2l2.6-5l3.7,1.9
			L248,26.3z"/>
		<path class="st1" d="M263.3,34.4l1,0.7l-2.6,3.8l2.3,1.6l-0.6,0.8l-3.3-2.3L263.3,34.4z"/>
		<path class="st1" d="M279.8,53.9c-0.6,0-1.2-0.2-1.8-0.7c-0.6-0.5-0.9-1.1-0.9-1.7c-0.1-0.8,0.2-1.6,0.9-2.3
			c0.7-0.8,1.4-1.2,2.2-1.2c0.6,0,1.2,0.2,1.8,0.7c0.6,0.5,0.9,1.1,0.9,1.7c0.1,0.8-0.2,1.5-0.9,2.3
			C281.3,53.5,280.5,53.9,279.8,53.9z M279.8,52.8c0.4-0.1,0.9-0.3,1.3-0.8c0.4-0.5,0.6-0.9,0.7-1.4c0-0.4-0.1-0.8-0.5-1.1
			c-0.3-0.3-0.7-0.4-1.2-0.4c-0.4,0.1-0.9,0.3-1.3,0.8c-0.4,0.5-0.6,0.9-0.7,1.4c0,0.4,0.1,0.8,0.5,1.1
			C279,52.7,279.4,52.8,279.8,52.8z"/>
		<path class="st1" d="M295.8,67.9c-0.4-0.1-0.8-0.3-1.2-0.8l-0.8-0.9l-1.5,1.3l-0.8-0.9l4.3-3.7l1.6,1.8c0.4,0.4,0.5,0.9,0.5,1.3
			c0,0.4-0.2,0.9-0.7,1.3C296.7,67.7,296.3,67.9,295.8,67.9z M296.8,65.9c0-0.2-0.1-0.4-0.3-0.6l-0.7-0.8l-1.3,1.1l0.7,0.8
			c0.2,0.2,0.4,0.3,0.6,0.3c0.2,0,0.4-0.1,0.6-0.3C296.7,66.2,296.8,66,296.8,65.9z"/>
		<path class="st1" d="M311,83l0.9,1.4l-4.7,3.1l-0.6-0.9l3.2-2.1c0.1-0.1,0.2-0.1,0.4-0.2c0.2-0.1,0.3-0.2,0.4-0.2l-4.5,1.7l-0.6-1
			l3.4-3.5c-0.1,0.1-0.2,0.1-0.4,0.3c-0.2,0.1-0.3,0.2-0.4,0.3l-3.2,2.1l-0.6-0.9l4.7-3.1l0.9,1.4l-3.1,3.3L311,83z"/>
		<path class="st1" d="M321.4,103.7l-1.3-2.7l-1.1,0.5l1.2,2.5l-0.9,0.4l-1.2-2.5l-1.3,0.6l1.4,2.8l-0.9,0.4l-1.9-3.9l5.1-2.5
			l1.8,3.7L321.4,103.7z"/>
		<path class="st1" d="M328.8,119.3l0.4,1.2l-3,3.4l3.7-1.2l0.3,1l-5.4,1.8l-0.4-1.1l3.1-3.4l-3.8,1.3l-0.3-1L328.8,119.3z"/>
		<path class="st1" d="M335.5,144.4l-1,0.2l-0.3-1.7l-4.6,0.9l-0.2-1.2l4.6-0.9l-0.3-1.7l1-0.2L335.5,144.4z"/>
	</g>
</g>
</svg>
