<svg xmlns="http://www.w3.org/2000/svg" viewBox="0 0 85.03 103.57"><defs><style>.cls-1,.cls-2{fill:#5a4494;}.cls-2{font-size:8.83px;font-family:FiraSans-Medium, Fira Sans;letter-spacing:-0.02em;}.cls-3{letter-spacing:-0.03em;}.cls-4{letter-spacing:-0.04em;}.cls-5{letter-spacing:-0.03em;}.cls-6{letter-spacing:-0.04em;}.cls-7{font-size:7.95px;font-family:FiraSans-Light, Fira Sans;letter-spacing:-0.02em;}.cls-8{letter-spacing:-0.1em;}.cls-9{letter-spacing:-0.05em;}.cls-10{letter-spacing:-0.04em;}.cls-11{letter-spacing:-0.03em;}.cls-12{fill:#fff;}</style></defs><title>gobierno</title><g id="Layer_2" data-name="Layer 2"><g id="Capa_1" data-name="Capa 1"><circle class="cls-1" cx="33.42" cy="25.04" r="25.04"/><text class="cls-2" transform="translate(0 64.18)">Gobierno <tspan class="cls-3" x="37.42" y="0">C</tspan><tspan x="42.13" y="0">orpo</tspan><tspan class="cls-4" x="60.31" y="0">r</tspan><tspan class="cls-5" x="63.39" y="0">ati</tspan><tspan class="cls-6" x="73.35" y="0">v</tspan><tspan x="77.5" y="0">o</tspan><tspan class="cls-7"><tspan x="0" y="12.37">1. </tspan><tspan class="cls-8" x="6.55" y="12.37">T</tspan><tspan class="cls-9" x="9.65" y="12.37">r</tspan><tspan x="12.26" y="12.37">anspa</tspan><tspan class="cls-10" x="32.74" y="12.37">r</tspan><tspan x="35.43" y="12.37">encia</tspan><tspan x="0" y="22.97">2. In</tspan><tspan class="cls-10" x="13.56" y="22.97">d</tspan><tspan x="17.94" y="22.97">epen</tspan><tspan class="cls-11" x="34.96" y="22.97">d</tspan><tspan x="39.33" y="22.97">encia</tspan><tspan x="0" y="33.57">3. Equidad</tspan></tspan></text><path class="cls-12" d="M49,17.76v9.44s-2,.4-2.44.45a2.89,2.89,0,0,1-2.66-.43c-1.46-1.4-6.63-6.54-6.63-6.54a2,2,0,0,0-2.33-.12c-1.32.69-3.27,1.71-4.08,2.1a1.87,1.87,0,0,1-2.82-1.47,1.92,1.92,0,0,1,1.16-1.67c1.86-1.13,5.77-3.32,7.4-4.19,1-.53,1.7-.57,3.06.57,1.68,1.41,3.17,2.69,3.17,2.69a1.55,1.55,0,0,0,1.26.24C46,18.43,49,17.76,49,17.76Zm-20.6,16a1.65,1.65,0,0,0-2-2.28,1.7,1.7,0,0,0-.36-1.68,1.74,1.74,0,0,0-1.66-.42A1.7,1.7,0,0,0,24,27.69a1.88,1.88,0,0,0-2.63.07c-.77.74-1.26,2.07-.58,2.86s1.47.31,2.07.17c-.17.6-.67,1.15-.05,1.93s1.47.31,2.07.17c-.17.59-.65,1.2-.05,1.92s1.58.34,2.22.14c-.25.64-.78,1.33-.1,2.11s2.27.42,3-.32a1.84,1.84,0,0,0,.17-2.61,1.76,1.76,0,0,0-1.81-.39Zm14.11-4.91-6-6a2,2,0,0,0-2.1-.38c-.84.37-1.91.87-2.72,1.25a4.5,4.5,0,0,1-1.83.61,3.11,3.11,0,0,1-1.64-5.75c1.24-.86,4.1-2.38,4.1-2.38a3.59,3.59,0,0,0-2.78-1.1c-1.91,0-5.89,2.61-5.89,2.61a3.11,3.11,0,0,1-2.74.07l-3.11-1.08V27.5s.89.26,1.68.58a3.55,3.55,0,0,1,.87-1.38,3.44,3.44,0,0,1,4.72,0A3,3,0,0,1,25.85,28a3,3,0,0,1,1.28.78,3,3,0,0,1,.75,1.32,3,3,0,0,1,2.07,2.23,3.06,3.06,0,0,1,1.33.8,3.14,3.14,0,0,1,.82,2.72h0s.45.5.72.78a1.37,1.37,0,1,0,1.94-1.94s-1.92-2-1.77-2.16,2.58,2.37,2.62,2.42A1.37,1.37,0,0,0,37.54,33l-.18-.17S35,30.68,35.15,30.5s3.17,2.6,3.18,2.6a1.35,1.35,0,0,0,1.95-1.87s-2.28-2.4-2.1-2.58,2.42,2.13,2.43,2.13a1.37,1.37,0,1,0,1.94-1.94Zm0,0"/></g></g></svg>
