<?xml version="1.0" encoding="utf-8"?>
<!-- Generator: Adobe Illustrator 23.0.3, SVG Export Plug-In . SVG Version: 6.00 Build 0)  -->
<svg version="1.1" id="Layer_1" xmlns="http://www.w3.org/2000/svg" xmlns:xlink="http://www.w3.org/1999/xlink" x="0px" y="0px"
	 viewBox="0 0 187.4 187.3" style="enable-background:new 0 0 187.4 187.3;" xml:space="preserve">
<style type="text/css">
	.st0{fill:#BB955F;}
	.st1{fill:#FFFFFF;}
</style>
<title>innovacion-disruptiva</title>
<g>
	<path class="st0" d="M29.9,93.6c0-33.5,25.8-61,58.7-63.6l0-28.4c-48.5,2.7-87,42.8-87,92c0,14.9,3.5,29,9.8,41.4L36,120.8
		C32.1,112.5,29.9,103.3,29.9,93.6z"/>
	<path class="st0" d="M93.7,157.4c-21.9,0-41.2-11-52.7-27.9l-24.6,14.2c16.4,25.3,44.9,42,77.3,42c32.3,0,60.7-16.6,77.1-41.7
		l-24.6-14.2C134.7,146.4,115.5,157.4,93.7,157.4z"/>
	<path class="st0" d="M157.5,93.6c0,9.9-2.2,19.2-6.2,27.5l24.6,14.2c6.4-12.5,10-26.7,10-41.7c0-49.3-38.7-89.5-87.3-92l0,28.4
		C131.5,32.5,157.5,60,157.5,93.6z"/>
</g>
<g>
	<path class="st1" d="M143.4,21.8l-2.2,4.9l4.3-3.3l0.8,0.6l-2,5.1l4.1-3.5l0.8,0.6l-5.2,4.2l-0.7-0.5l2-5.2l-4.4,3.4l-0.7-0.6
		l2.5-6.2L143.4,21.8z"/>
	<path class="st1" d="M148.8,28.2l0.6,0.5l-3,3.6l-0.6-0.5L148.8,28.2z M149.9,26.9l0.6,0.5l-0.6,0.7l-0.6-0.5L149.9,26.9z"/>
	<path class="st1" d="M151.3,28.7l0.6,0.5l-0.9,1l0.6,0.5l-0.4,0.5l-0.6-0.5l-2.1,2.3c-0.1,0.1-0.1,0.2-0.1,0.4
		c0,0.1,0.1,0.1,0.2,0.2c0,0,0.1,0.1,0.1,0.1c0,0,0.1,0.1,0.1,0.1l-0.4,0.5c-0.1,0-0.2-0.1-0.2-0.1c-0.1-0.1-0.2-0.1-0.2-0.2
		c-0.3-0.2-0.4-0.5-0.4-0.7c0-0.2,0.1-0.5,0.3-0.7l2.1-2.3l-0.5-0.4l0.4-0.5l0.5,0.4L151.3,28.7z"/>
	<path class="st1" d="M153.6,30.1l0.6,0.6l-1.7,1.7c0.3,0,0.5,0,0.7,0c0.3,0.1,0.6,0.2,0.9,0.5c0.5,0.5,0.6,1,0.5,1.5
		c-0.1,0.3-0.3,0.6-0.6,0.9l-2.1,2.1l-0.6-0.6l2.1-2.1c0.2-0.2,0.4-0.5,0.4-0.6c0.1-0.3,0-0.6-0.3-0.8c-0.2-0.2-0.5-0.4-0.9-0.4
		c-0.3,0-0.7,0.2-1.2,0.6l-1.8,1.8l-0.6-0.6L153.6,30.1z"/>
	<path class="st1" d="M159,36.3c0.3,0,0.7,0.1,1,0.5c0,0,0.1,0.1,0.1,0.1c0,0,0.1,0.1,0.1,0.1l-0.5,0.5c0-0.1-0.1-0.1-0.1-0.1
		c0,0,0-0.1-0.1-0.1c-0.2-0.2-0.3-0.3-0.4-0.2c-0.1,0-0.4,0.2-0.8,0.6l0.5,0.6l-0.5,0.4l-0.5-0.6l-3.1,2.7l-0.5-0.6l3.1-2.7
		l-0.4-0.5l0.5-0.4l0.4,0.5l0.6-0.5C158.6,36.4,158.8,36.3,159,36.3z"/>
	<path class="st1" d="M159.4,38.9l0.5,0.6l-0.6,0.5c0.2-0.1,0.4-0.1,0.7,0s0.6,0.2,0.8,0.4c0,0,0,0,0,0.1c0,0,0.1,0.1,0.1,0.1
		l-0.6,0.5c0,0,0-0.1-0.1-0.1c0,0,0-0.1-0.1-0.1c-0.3-0.3-0.5-0.5-0.9-0.5c-0.3,0-0.6,0.1-0.9,0.3l-2.1,1.7l-0.5-0.6L159.4,38.9z"/>
	<path class="st1" d="M163,43.8c0.1,0.3,0,0.7-0.1,0.9c-0.1,0.3-0.3,0.5-0.5,0.7c-0.1,0.2-0.4,0.4-0.8,0.7l-2-2.8
		c-0.4,0.3-0.6,0.6-0.7,1c-0.1,0.3,0,0.7,0.2,1c0.2,0.3,0.5,0.5,0.9,0.5c0.2,0,0.4,0,0.6-0.1l0.5,0.6c-0.2,0.1-0.3,0.1-0.6,0.2
		c-0.2,0-0.5,0-0.6,0c-0.3-0.1-0.6-0.2-0.9-0.4c-0.1-0.1-0.3-0.3-0.4-0.5c-0.3-0.5-0.5-1-0.4-1.6c0.1-0.6,0.5-1.1,1.1-1.5
		c0.6-0.4,1.2-0.6,1.8-0.6c0.6,0,1.1,0.3,1.5,0.9C162.8,43.1,162.9,43.4,163,43.8z M161.7,45.1c0.3-0.2,0.4-0.5,0.5-0.7
		c0.2-0.4,0.1-0.8-0.2-1.2c-0.2-0.3-0.5-0.5-0.9-0.5c-0.4,0-0.7,0.1-1,0.3L161.7,45.1z"/>
	<path class="st1" d="M161.9,47.7c-0.2,0.2-0.3,0.3-0.4,0.5c-0.1,0.3,0,0.7,0.3,1.1c0.2,0.2,0.4,0.4,0.6,0.6c0.2,0.1,0.5,0.1,0.7,0
		c0.2-0.1,0.2-0.3,0.2-0.5c0-0.1-0.1-0.4-0.2-0.7l-0.2-0.6c-0.1-0.4-0.2-0.7-0.2-0.9c0-0.4,0.1-0.7,0.5-0.9c0.4-0.2,0.8-0.3,1.2-0.2
		c0.4,0.1,0.8,0.4,1.1,0.9c0.4,0.6,0.5,1.1,0.3,1.6c-0.1,0.3-0.3,0.5-0.6,0.7l-0.4-0.6c0.1-0.1,0.2-0.3,0.3-0.4c0.1-0.3,0-0.6-0.3-1
		c-0.2-0.3-0.3-0.4-0.5-0.5c-0.2-0.1-0.3-0.1-0.5,0c-0.2,0.1-0.3,0.3-0.2,0.5c0,0.1,0,0.3,0.1,0.5l0.2,0.5c0.2,0.6,0.3,1,0.3,1.2
		c0,0.4-0.2,0.7-0.5,0.9c-0.4,0.2-0.7,0.3-1.2,0.2c-0.4-0.1-0.8-0.4-1.2-1c-0.4-0.6-0.5-1.1-0.4-1.5c0.1-0.4,0.3-0.8,0.7-1
		L161.9,47.7z"/>
	<path class="st1" d="M168.4,48.6l0.4,0.7l-2.1,1.2c0.3,0,0.5,0.1,0.7,0.2c0.3,0.1,0.5,0.4,0.7,0.7c0.3,0.6,0.4,1.1,0.1,1.6
		c-0.2,0.2-0.4,0.5-0.8,0.7l-2.6,1.5l-0.4-0.7l2.6-1.5c0.3-0.2,0.5-0.3,0.6-0.5c0.1-0.3,0.1-0.6-0.1-0.9c-0.2-0.3-0.4-0.5-0.7-0.6
		c-0.3-0.1-0.8,0-1.3,0.3l-2.2,1.3l-0.4-0.7L168.4,48.6z"/>
	<path class="st1" d="M164.5,56.7c0.1,0.2,0.3,0.2,0.6,0.2c0.1,0,0.3-0.1,0.4-0.1c0,0,0,0,0,0c0,0,0,0,0,0l-0.2-0.4l0.9-0.4l0.4,0.8
		l-0.8,0.4c-0.3,0.2-0.6,0.2-0.9,0.2c-0.3,0-0.6-0.1-0.8-0.4L164.5,56.7z"/>
	<path class="st1" d="M171.7,58.7l0.3,0.7l-0.6,0.3c0.3,0.1,0.6,0.2,0.8,0.4c0.2,0.2,0.4,0.4,0.5,0.7c0.3,0.6,0.2,1.1-0.1,1.5
		c-0.2,0.2-0.5,0.4-0.9,0.6l-2.8,1.2l-0.3-0.7l2.7-1.2c0.3-0.1,0.5-0.2,0.6-0.4c0.2-0.2,0.2-0.5,0.1-0.9c-0.1-0.2-0.2-0.3-0.2-0.4
		c-0.1-0.2-0.3-0.3-0.6-0.4c-0.2-0.1-0.4-0.1-0.5,0c-0.2,0-0.4,0.1-0.7,0.2l-2.3,1l-0.3-0.7L171.7,58.7z"/>
	<path class="st1" d="M172.8,66.5c0.1,0.2,0.2,0.3,0.3,0.3c0.1,0,0.2,0,0.3-0.1c0.3-0.1,0.4-0.2,0.5-0.5s0-0.5-0.1-0.8
		c-0.1-0.4-0.3-0.6-0.6-0.7c-0.1-0.1-0.3,0-0.6,0l-0.2-0.7c0.6-0.2,1-0.1,1.3,0.1c0.3,0.3,0.6,0.6,0.7,1.1c0.2,0.5,0.2,1,0.1,1.4
		c-0.1,0.4-0.3,0.7-0.8,0.8l-2.6,0.9c-0.1,0-0.1,0.1-0.2,0.1c0,0,0,0.1,0,0.2c0,0,0,0.1,0,0.1c0,0,0,0.1,0.1,0.1l-0.6,0.2
		c-0.1-0.1-0.1-0.2-0.2-0.2c0-0.1-0.1-0.1-0.1-0.2c-0.1-0.3-0.1-0.5,0.1-0.7c0.1-0.1,0.2-0.2,0.4-0.3c-0.3-0.1-0.5-0.2-0.7-0.5
		c-0.2-0.2-0.4-0.5-0.6-0.9c-0.1-0.4-0.1-0.8,0-1.1c0.2-0.3,0.4-0.6,0.8-0.7c0.4-0.1,0.8-0.1,1.1,0s0.6,0.5,0.8,0.9L172.8,66.5z
		 M170.2,65.6c-0.1,0.2-0.1,0.4,0,0.6c0.1,0.3,0.2,0.5,0.5,0.7c0.3,0.3,0.8,0.4,1.2,0.3l0.6-0.2c-0.1-0.1-0.2-0.2-0.3-0.3
		c-0.1-0.1-0.2-0.3-0.2-0.4l-0.2-0.4c-0.1-0.3-0.3-0.4-0.4-0.5c-0.2-0.2-0.5-0.2-0.7-0.1C170.4,65.3,170.3,65.4,170.2,65.6z"/>
	<path class="st1" d="M176.7,68.1l0.2,0.8l-1.3,0.4l0.2,0.7l-0.6,0.2l-0.2-0.7l-2.9,0.9c-0.2,0-0.2,0.1-0.3,0.3c0,0.1,0,0.2,0,0.3
		c0,0,0,0.1,0,0.1c0,0,0,0.1,0.1,0.1l-0.6,0.2c-0.1-0.1-0.1-0.2-0.1-0.3c0-0.1-0.1-0.2-0.1-0.3c-0.1-0.4-0.1-0.6,0.1-0.8
		c0.1-0.2,0.4-0.3,0.6-0.4l3-0.9l-0.2-0.6l0.6-0.2l0.2,0.6L176.7,68.1z"/>
	<path class="st1" d="M176.3,71.6l-3,0.8c-0.2,0.1-0.4,0.1-0.5,0.3c-0.2,0.2-0.3,0.5-0.2,0.8c0.1,0.5,0.5,0.8,1,0.9
		c0.3,0,0.6,0,1.1-0.1l2.2-0.6l0.2,0.8l-4.6,1.2l-0.2-0.7l0.7-0.2c-0.2-0.1-0.4-0.1-0.5-0.3c-0.3-0.2-0.5-0.5-0.6-1
		c-0.2-0.6-0.1-1.1,0.3-1.5c0.2-0.2,0.5-0.3,0.9-0.4l3.1-0.8L176.3,71.6z"/>
	<path class="st1" d="M177.3,75.9l0.1,0.7l-0.8,0.2c0.2,0,0.4,0.1,0.7,0.3c0.3,0.2,0.4,0.4,0.5,0.7c0,0,0,0,0,0.1c0,0,0,0.1,0,0.2
		l-0.8,0.2c0,0,0-0.1,0-0.1c0,0,0-0.1,0-0.1c-0.1-0.4-0.3-0.7-0.6-0.8c-0.3-0.2-0.6-0.2-0.9-0.1l-2.7,0.5l-0.2-0.8L177.3,75.9z"/>
	<path class="st1" d="M176.5,81.8c0,0.2,0.1,0.3,0.3,0.3c0.1,0,0.2,0,0.3,0c0.3,0,0.4-0.2,0.5-0.4c0.1-0.2,0.1-0.5,0.1-0.8
		c-0.1-0.4-0.2-0.7-0.5-0.8c-0.1-0.1-0.3-0.1-0.6-0.1l-0.1-0.7c0.6-0.1,1,0.1,1.3,0.4c0.3,0.3,0.5,0.7,0.5,1.2c0.1,0.5,0,1-0.1,1.4
		c-0.2,0.4-0.5,0.6-0.9,0.7l-2.7,0.4c-0.1,0-0.1,0-0.2,0.1c0,0-0.1,0.1,0,0.2c0,0,0,0.1,0,0.1c0,0,0,0.1,0,0.1l-0.6,0.1
		c-0.1-0.1-0.1-0.2-0.1-0.3c0-0.1,0-0.1-0.1-0.3c0-0.3,0-0.5,0.2-0.6c0.1-0.1,0.2-0.1,0.4-0.2c-0.2-0.1-0.4-0.3-0.6-0.6
		c-0.2-0.3-0.3-0.6-0.4-1c-0.1-0.4,0-0.8,0.2-1.1s0.5-0.5,0.9-0.6c0.4-0.1,0.8,0,1.1,0.3c0.3,0.2,0.5,0.6,0.6,1L176.5,81.8z
		 M174.1,80.4c-0.1,0.2-0.1,0.4-0.1,0.6c0,0.3,0.1,0.5,0.3,0.8c0.3,0.4,0.7,0.6,1.1,0.5l0.6-0.1c-0.1-0.1-0.1-0.2-0.2-0.3
		c-0.1-0.1-0.1-0.3-0.2-0.4l-0.1-0.5c-0.1-0.3-0.2-0.5-0.3-0.6c-0.2-0.2-0.4-0.3-0.7-0.3C174.4,80.2,174.2,80.3,174.1,80.4z"/>
	<path class="st1" d="M180.4,83.9l0.1,0.8l-6.4,0.7l-0.1-0.8L180.4,83.9z"/>
	<path class="st1" d="M173.3,86.8c0.1,0.2,0.2,0.3,0.5,0.4c0.1,0,0.3,0,0.4,0c0,0,0,0,0.1,0c0,0,0,0,0.1,0l0-0.5l1-0.1l0.1,0.9
		l-0.9,0.1c-0.3,0-0.7,0-0.9-0.1c-0.3-0.1-0.5-0.3-0.5-0.7L173.3,86.8z"/>
</g>
<g>
	<path class="st1" d="M131.7,27.6l0.7,0.4l-0.7,1.1l0.6,0.4l-0.3,0.6l-0.6-0.4l-1.5,2.7c-0.1,0.1-0.1,0.3,0,0.4
		c0,0.1,0.1,0.1,0.2,0.2c0,0,0.1,0,0.1,0.1c0,0,0.1,0,0.1,0.1l-0.3,0.5c-0.1,0-0.2-0.1-0.3-0.1c-0.1,0-0.2-0.1-0.3-0.1
		c-0.3-0.2-0.5-0.4-0.5-0.6c0-0.2,0-0.5,0.2-0.7l1.6-2.7l-0.5-0.3l0.3-0.6l0.5,0.3L131.7,27.6z"/>
	<path class="st1" d="M135.8,32.3c0.1,0.6,0,1.2-0.5,1.8c-0.4,0.6-0.9,1.1-1.5,1.3c-0.6,0.2-1.2,0.1-1.8-0.3
		c-0.5-0.4-0.8-0.8-0.9-1.4c-0.1-0.6,0.1-1.2,0.5-1.8c0.4-0.7,0.9-1.1,1.5-1.3c0.6-0.2,1.2-0.1,1.7,0.3
		C135.3,31.3,135.7,31.7,135.8,32.3z M133.7,34.6c0.4-0.2,0.7-0.5,1-0.9c0.2-0.4,0.4-0.7,0.4-1c0.1-0.5-0.1-0.9-0.6-1.2
		c-0.4-0.3-0.8-0.3-1.2-0.1c-0.4,0.2-0.7,0.5-1,0.9c-0.3,0.4-0.4,0.8-0.4,1.2c0,0.4,0.2,0.7,0.6,1C132.9,34.8,133.3,34.8,133.7,34.6
		z"/>
	<path class="st1" d="M137.5,32.9l0.6,0.5l-0.4,0.5c0.3-0.1,0.5-0.1,0.7-0.1c0.3,0,0.6,0.1,0.9,0.4c0.4,0.3,0.7,0.8,0.7,1.3
		c0,0.6-0.2,1.1-0.6,1.7c-0.6,0.8-1.3,1.2-2,1.3c-0.4,0-0.8-0.1-1.2-0.4c-0.3-0.2-0.5-0.5-0.6-0.7c-0.1-0.2-0.1-0.4-0.1-0.6
		l-1.5,1.9l-0.6-0.5L137.5,32.9z M137.6,37.6c0.4-0.1,0.8-0.4,1.1-0.9c0.2-0.3,0.4-0.6,0.5-0.9c0.1-0.5,0-1-0.4-1.3
		c-0.4-0.3-0.9-0.3-1.4,0c-0.3,0.2-0.5,0.4-0.8,0.8c-0.2,0.3-0.4,0.6-0.4,0.8c-0.1,0.5,0,0.9,0.5,1.3
		C136.9,37.7,137.2,37.7,137.6,37.6z"/>
	<path class="st1" d="M140.3,37.3l1.7,1.4l-0.5,0.6l-1.7-1.4L140.3,37.3z"/>
	<path class="st1" d="M145.8,40.1c0,0.2,0,0.4,0,0.6l0.5-0.5l0.5,0.5l-4.5,4.8l-0.6-0.5l1.7-1.7c-0.2,0.1-0.5,0.1-0.7,0
		c-0.3-0.1-0.5-0.2-0.8-0.5c-0.4-0.3-0.6-0.8-0.6-1.4c0-0.6,0.3-1.1,0.8-1.7c0.5-0.5,1.1-0.9,1.7-1c0.6-0.1,1.1,0.1,1.5,0.5
		C145.6,39.5,145.7,39.8,145.8,40.1z M142.1,41.1c-0.2,0.5-0.1,0.9,0.3,1.3c0.4,0.4,0.9,0.5,1.4,0.2c0.3-0.1,0.6-0.4,0.9-0.7
		c0.3-0.3,0.5-0.6,0.6-0.9c0.2-0.5,0.1-0.9-0.3-1.3c-0.2-0.2-0.6-0.3-0.9-0.3c-0.4,0-0.8,0.3-1.2,0.7
		C142.4,40.5,142.2,40.8,142.1,41.1z"/>
	<path class="st1" d="M148.3,42.4l-2.3,2.1c-0.2,0.2-0.3,0.3-0.4,0.5c-0.1,0.3,0,0.6,0.2,0.9c0.4,0.4,0.8,0.5,1.3,0.3
		c0.3-0.1,0.6-0.3,0.9-0.6l1.7-1.6l0.5,0.6l-3.5,3.2l-0.5-0.6l0.5-0.5c-0.2,0-0.4,0.1-0.6,0c-0.4-0.1-0.7-0.2-1-0.5
		c-0.4-0.5-0.6-1-0.4-1.4c0.1-0.3,0.3-0.5,0.6-0.8l2.4-2.2L148.3,42.4z"/>
	<path class="st1" d="M151.3,48.8c0.1,0.1,0.3,0.2,0.4,0.1c0.1,0,0.2-0.1,0.3-0.1c0.2-0.2,0.3-0.4,0.3-0.6c0-0.2-0.1-0.5-0.4-0.8
		c-0.3-0.3-0.5-0.5-0.8-0.5c-0.2,0-0.3,0.1-0.6,0.2l-0.5-0.6c0.5-0.3,0.9-0.5,1.3-0.3c0.4,0.1,0.8,0.4,1,0.8
		c0.3,0.4,0.5,0.9,0.6,1.3c0,0.4-0.1,0.7-0.5,1l-2.1,1.7c-0.1,0.1-0.1,0.1-0.1,0.2c0,0.1,0,0.1,0.1,0.2c0,0,0,0.1,0.1,0.1
		c0,0,0.1,0.1,0.1,0.1l-0.5,0.4c-0.1-0.1-0.2-0.1-0.2-0.2c0,0-0.1-0.1-0.2-0.2c-0.2-0.2-0.2-0.4-0.1-0.6c0-0.1,0.1-0.2,0.3-0.4
		c-0.3,0-0.6-0.1-0.9-0.2c-0.3-0.1-0.6-0.4-0.8-0.6c-0.3-0.3-0.4-0.7-0.4-1.1c0-0.4,0.2-0.7,0.5-0.9c0.3-0.3,0.7-0.4,1-0.3
		c0.4,0.1,0.7,0.3,1,0.6L151.3,48.8z M148.6,48.8c0,0.2,0.1,0.4,0.2,0.6c0.2,0.2,0.4,0.4,0.7,0.5c0.4,0.2,0.9,0.2,1.2-0.1l0.5-0.4
		c-0.1,0-0.2-0.1-0.4-0.2c-0.1-0.1-0.2-0.2-0.3-0.3l-0.3-0.3c-0.2-0.2-0.4-0.3-0.5-0.4c-0.3-0.1-0.5-0.1-0.7,0.1
		C148.7,48.4,148.6,48.6,148.6,48.8z"/>
	<path class="st1" d="M155.8,48.8l0.5,0.6l-5.3,3.7l-0.5-0.6L155.8,48.8z"/>
	<path class="st1" d="M155.6,51.5l0.4,0.7l-3.9,2.6l-0.4-0.7L155.6,51.5z M157,50.5l0.4,0.7l-0.7,0.5l-0.4-0.7L157,50.5z"/>
	<path class="st1" d="M157.9,52.7l0.4,0.7l-1.1,0.7l0.4,0.6l-0.5,0.3l-0.4-0.6l-2.6,1.6c-0.1,0.1-0.2,0.2-0.2,0.3
		c0,0.1,0,0.2,0.1,0.3c0,0,0,0.1,0.1,0.1s0.1,0.1,0.1,0.1l-0.5,0.3c-0.1-0.1-0.1-0.1-0.2-0.2c-0.1-0.1-0.1-0.2-0.2-0.3
		c-0.2-0.3-0.2-0.6-0.2-0.8s0.3-0.4,0.5-0.6l2.6-1.7l-0.3-0.5l0.5-0.3l0.3,0.5L157.9,52.7z"/>
	<path class="st1" d="M159.6,58.1l0.4,0.8c-0.3,0-1,0.2-2.2,0.3c-0.8,0.1-1.5,0.2-2.1,0.3c-1.3,0.2-2.1,0.3-2.4,0.2
		c-0.3,0-0.6-0.3-0.8-0.7c-0.1-0.1-0.1-0.2-0.1-0.2c0-0.1,0-0.1-0.1-0.2l0.6-0.3c0,0.1,0.1,0.2,0.1,0.3c0,0.1,0,0.1,0.1,0.1
		c0.1,0.1,0.1,0.2,0.2,0.2c0.1,0,0.2,0.1,0.2,0.1c0,0,0.2,0,0.4,0c0.2,0,0.4,0,0.5-0.1l3.4-3.9l0.4,0.8l-2.7,3L159.6,58.1z"/>
	<path class="st1" d="M161.5,61.9l0.3,0.7l-0.6,0.3c0.3,0.1,0.5,0.2,0.7,0.3c0.3,0.2,0.5,0.4,0.6,0.8c0.2,0.5,0.2,1,0,1.5
		c-0.2,0.5-0.7,0.9-1.4,1.2c-0.9,0.4-1.7,0.5-2.3,0.1c-0.4-0.2-0.7-0.5-0.9-0.9c-0.1-0.3-0.2-0.6-0.1-0.9c0-0.2,0.1-0.4,0.2-0.6
		l-2.2,1l-0.3-0.7L161.5,61.9z M159.3,66.1c0.4,0.1,0.9,0,1.4-0.2c0.3-0.2,0.6-0.3,0.8-0.5c0.4-0.4,0.5-0.8,0.3-1.3
		c-0.2-0.5-0.6-0.7-1.2-0.7c-0.3,0-0.7,0.1-1.1,0.3c-0.3,0.1-0.6,0.3-0.8,0.5c-0.4,0.4-0.4,0.8-0.2,1.3
		C158.7,65.8,158.9,66,159.3,66.1z"/>
	<path class="st1" d="M163.6,66.7l0.3,0.7l-0.8,0.3c0.2,0,0.4,0.1,0.7,0.2c0.3,0.1,0.5,0.4,0.6,0.7c0,0,0,0,0,0.1c0,0,0,0.1,0,0.2
		l-0.8,0.3c0,0,0-0.1,0-0.1c0,0,0-0.1,0-0.1c-0.1-0.4-0.4-0.6-0.7-0.7c-0.3-0.1-0.6-0.1-0.9,0l-2.5,0.9l-0.3-0.7L163.6,66.7z"/>
	<path class="st1" d="M165.2,73.1c-0.3,0.5-0.8,0.9-1.5,1.1c-0.7,0.2-1.4,0.2-2,0c-0.6-0.2-1-0.7-1.2-1.4c-0.2-0.6-0.1-1.2,0.2-1.7
		c0.3-0.5,0.8-0.8,1.5-1.1c0.8-0.2,1.4-0.2,2,0s0.9,0.7,1.1,1.3C165.5,72,165.5,72.6,165.2,73.1z M162.1,73.6c0.4,0.1,0.9,0,1.4-0.1
		c0.4-0.1,0.7-0.3,1-0.5c0.3-0.3,0.4-0.8,0.3-1.3c-0.1-0.5-0.4-0.7-0.8-0.8c-0.4-0.1-0.9-0.1-1.4,0.1c-0.5,0.1-0.8,0.4-1.1,0.7
		c-0.3,0.3-0.3,0.7-0.2,1.1C161.4,73.2,161.7,73.5,162.1,73.6z"/>
	<path class="st1" d="M166.6,77.2c-0.1,0.2-0.2,0.3-0.3,0.6l2.3-0.5l0.2,0.7l-6.3,1.5l-0.2-0.7l0.6-0.1c-0.3-0.1-0.6-0.3-0.8-0.5
		c-0.2-0.2-0.3-0.5-0.4-0.8c-0.1-0.5,0-1,0.3-1.5c0.3-0.5,0.9-0.8,1.6-1c0.7-0.2,1.3-0.1,1.9,0.1c0.6,0.2,0.9,0.7,1.1,1.3
		C166.7,76.7,166.7,77,166.6,77.2z M162.8,76.3c-0.3,0.3-0.4,0.7-0.3,1.1c0.1,0.4,0.3,0.6,0.7,0.8c0.4,0.2,0.8,0.2,1.4,0
		c0.6-0.1,1-0.4,1.2-0.7c0.2-0.3,0.3-0.6,0.2-1c-0.1-0.4-0.3-0.7-0.7-0.8c-0.4-0.2-0.8-0.2-1.4-0.1C163.5,75.8,163.1,76,162.8,76.3z
		"/>
	<path class="st1" d="M167.4,80.6l-3.1,0.5c-0.2,0-0.4,0.1-0.6,0.2c-0.3,0.2-0.4,0.5-0.3,0.8c0.1,0.5,0.4,0.9,0.9,1
		c0.3,0.1,0.6,0.1,1.1,0l2.3-0.4l0.1,0.8l-4.6,0.8l-0.1-0.7l0.7-0.1c-0.2-0.1-0.4-0.2-0.5-0.3c-0.3-0.3-0.5-0.6-0.5-1
		c-0.1-0.6,0-1.1,0.4-1.4c0.2-0.2,0.5-0.3,0.9-0.3l3.2-0.5L167.4,80.6z"/>
	<path class="st1" d="M168.1,88.1c-0.2,0.4-0.6,0.6-1.3,0.7l-0.1-0.8c0.3-0.1,0.5-0.2,0.7-0.4c0.2-0.2,0.2-0.5,0.2-0.8
		c0-0.5-0.3-0.8-0.8-1c-0.3-0.1-0.7-0.1-1.2-0.1c-0.5,0-0.9,0.2-1.2,0.4c-0.3,0.2-0.4,0.6-0.4,1c0,0.3,0.2,0.6,0.4,0.7
		c0.2,0.2,0.5,0.3,0.9,0.3l0.1,0.8c-0.6,0-1.1-0.2-1.4-0.5c-0.3-0.3-0.5-0.8-0.6-1.3c-0.1-0.6,0.1-1.1,0.5-1.5
		c0.4-0.4,1-0.6,1.6-0.7c0.8-0.1,1.5,0.1,2,0.4c0.5,0.4,0.8,0.8,0.8,1.5C168.5,87.3,168.4,87.7,168.1,88.1z"/>
	<path class="st1" d="M169.8,89.7l0,0.8l-1.3,0.1l0,0.8l-0.6,0l0-0.8l-3.1,0.1c-0.2,0-0.3,0.1-0.3,0.2c0,0.1,0,0.2,0,0.3
		c0,0,0,0.1,0,0.1c0,0,0,0.1,0,0.2l-0.6,0c0-0.1-0.1-0.2-0.1-0.3c0-0.1,0-0.2,0-0.3c0-0.4,0.1-0.6,0.2-0.8s0.4-0.2,0.7-0.2l3.1-0.1
		l0-0.6l0.6,0l0,0.6L169.8,89.7z"/>
	<path class="st1" d="M165.4,92.7c-0.3,0-0.5,0.1-0.6,0.2c-0.3,0.2-0.4,0.6-0.4,1.1c0,0.3,0.1,0.6,0.2,0.8c0.1,0.2,0.3,0.3,0.6,0.3
		c0.2,0,0.4-0.1,0.5-0.3c0.1-0.1,0.1-0.3,0.2-0.7l0.2-0.6c0.1-0.4,0.2-0.7,0.3-0.9c0.2-0.3,0.5-0.5,0.9-0.5c0.4,0,0.8,0.2,1.1,0.5
		c0.3,0.3,0.4,0.8,0.4,1.3c0,0.7-0.2,1.2-0.6,1.6c-0.3,0.2-0.5,0.3-0.9,0.3l0-0.7c0.2,0,0.3-0.1,0.5-0.2c0.2-0.2,0.3-0.5,0.3-1
		c0-0.3-0.1-0.5-0.2-0.7s-0.3-0.2-0.4-0.2c-0.2,0-0.4,0.1-0.5,0.3c-0.1,0.1-0.1,0.3-0.2,0.5l-0.1,0.5c-0.1,0.6-0.3,1-0.4,1.2
		c-0.2,0.3-0.5,0.5-1,0.5c-0.4,0-0.8-0.2-1.1-0.5c-0.3-0.3-0.5-0.8-0.5-1.5c0-0.7,0.2-1.2,0.5-1.5c0.3-0.3,0.7-0.4,1.2-0.5
		L165.4,92.7z"/>
</g>
<g>
	<path class="st1" d="M14.4,129.8l4.3-3.1l-5.3,0.6l-0.4-0.9l4.2-3.3l-5.2,0.9l-0.4-0.9l6.5-0.9l0.3,0.8l-4.3,3.4l5.4-0.7l0.3,0.8
		l-5.2,4L14.4,129.8z"/>
	<path class="st1" d="M11.4,122.3l-0.3-0.7l0.8-0.3l0.3,0.7L11.4,122.3z M13.1,121.7l-0.3-0.7l4.4-1.5l0.3,0.7L13.1,121.7z"/>
	<path class="st1" d="M11.1,120l-0.2-0.8l1.2-0.4l-0.2-0.7l0.6-0.2l0.2,0.7l2.9-0.9c0.2,0,0.2-0.1,0.3-0.3c0-0.1,0-0.2,0-0.3
		c0,0,0-0.1,0-0.1c0,0,0-0.1-0.1-0.1l0.6-0.2c0.1,0.1,0.1,0.2,0.1,0.2c0,0.1,0.1,0.2,0.1,0.3c0.1,0.3,0.1,0.6,0,0.8
		c-0.1,0.2-0.3,0.3-0.6,0.4l-2.9,0.9l0.2,0.6l-0.6,0.2l-0.2-0.6L11.1,120z"/>
	<path class="st1" d="M9.9,117.8L9.7,117l2.3-0.6c-0.3-0.1-0.5-0.2-0.6-0.4c-0.2-0.2-0.4-0.5-0.5-0.8c-0.2-0.6-0.1-1.1,0.3-1.5
		c0.2-0.2,0.5-0.3,1-0.5l2.9-0.8l0.2,0.8l-2.8,0.7c-0.3,0.1-0.6,0.2-0.7,0.3c-0.2,0.2-0.3,0.5-0.2,0.9c0.1,0.3,0.3,0.6,0.5,0.8
		c0.3,0.2,0.7,0.2,1.3,0.1l2.4-0.6l0.2,0.8L9.9,117.8z"/>
	<path class="st1" d="M9.5,107.3c0.1-0.1,0.2-0.3,0.4-0.5l-2.3,0.4l-0.1-0.7l6.3-1.1l0.1,0.7l-0.6,0.1c0.3,0.1,0.6,0.3,0.7,0.5
		c0.2,0.2,0.3,0.5,0.3,0.8c0.1,0.5-0.1,1-0.4,1.4c-0.4,0.4-0.9,0.7-1.6,0.8c-0.7,0.1-1.3,0-1.8-0.2c-0.5-0.3-0.9-0.7-1-1.3
		C9.4,107.9,9.4,107.6,9.5,107.3z M13.2,108.5c0.3-0.3,0.4-0.6,0.3-1.1c-0.1-0.4-0.3-0.6-0.6-0.8c-0.3-0.2-0.8-0.2-1.4-0.1
		c-0.6,0.1-1,0.3-1.2,0.6c-0.2,0.3-0.3,0.6-0.3,0.9c0.1,0.4,0.3,0.7,0.6,0.9c0.3,0.2,0.8,0.2,1.4,0.1
		C12.6,108.9,12.9,108.7,13.2,108.5z"/>
	<path class="st1" d="M7.3,105.1l-0.1-0.8l0.9-0.1l0.1,0.8L7.3,105.1z M9,104.9l-0.1-0.8l4.6-0.6l0.1,0.8L9,104.9z"/>
	<path class="st1" d="M11.9,102.1c0.3,0,0.4-0.1,0.6-0.3c0.2-0.2,0.3-0.6,0.3-1.1c0-0.3-0.1-0.5-0.3-0.8c-0.1-0.2-0.3-0.3-0.6-0.3
		c-0.2,0-0.3,0.1-0.4,0.3c-0.1,0.1-0.1,0.4-0.2,0.7l-0.1,0.6c-0.1,0.4-0.1,0.7-0.2,0.9c-0.2,0.4-0.5,0.6-0.8,0.6
		c-0.4,0-0.8-0.1-1.1-0.4c-0.3-0.3-0.5-0.7-0.5-1.2c-0.1-0.7,0.1-1.2,0.5-1.6c0.2-0.2,0.5-0.3,0.8-0.4l0.1,0.7
		c-0.2,0-0.3,0.1-0.5,0.2c-0.2,0.2-0.3,0.5-0.2,1c0,0.3,0.1,0.5,0.2,0.7s0.3,0.2,0.5,0.2c0.2,0,0.4-0.1,0.5-0.3
		c0.1-0.1,0.1-0.3,0.1-0.5l0.1-0.5c0.1-0.6,0.2-1,0.3-1.2c0.2-0.3,0.5-0.5,0.9-0.5c0.4,0,0.8,0.1,1.1,0.4c0.3,0.3,0.5,0.8,0.6,1.4
		c0.1,0.7,0,1.2-0.3,1.5c-0.3,0.3-0.7,0.5-1.1,0.6L11.9,102.1z"/>
	<path class="st1" d="M8.4,98.3l0-0.7l0.8,0c-0.2-0.1-0.4-0.2-0.6-0.4c-0.2-0.2-0.4-0.5-0.4-0.8c0,0,0,0,0-0.1c0,0,0-0.1,0-0.2L9,96
		c0,0,0,0.1,0,0.1c0,0,0,0.1,0,0.1c0,0.4,0.2,0.7,0.4,0.9s0.6,0.3,0.9,0.3l2.7-0.1l0,0.8L8.4,98.3z"/>
	<path class="st1" d="M8.3,94.4l3.1,0c0.2,0,0.4,0,0.6-0.1c0.3-0.1,0.4-0.4,0.4-0.8c0-0.5-0.2-0.9-0.7-1.1c-0.3-0.1-0.6-0.2-1.1-0.2
		l-2.3,0l0-0.8l4.6,0l0,0.7l-0.7,0c0.2,0.1,0.3,0.2,0.4,0.4c0.2,0.3,0.4,0.6,0.4,1.1c0,0.6-0.2,1.1-0.7,1.3
		c-0.2,0.1-0.6,0.2-0.9,0.2l-3.1,0L8.3,94.4z"/>
	<path class="st1" d="M8.3,90.2l0-0.8l0.6,0c-0.2-0.2-0.4-0.3-0.5-0.5c-0.2-0.3-0.2-0.6-0.2-0.9c0-0.5,0.3-1,0.7-1.3s1-0.5,1.8-0.4
		c1,0.1,1.7,0.4,2.1,0.9c0.3,0.4,0.4,0.8,0.3,1.2c0,0.3-0.1,0.6-0.3,0.9c-0.1,0.1-0.3,0.3-0.5,0.4l2.4,0.1l0,0.8L8.3,90.2z
		 M12.1,87.5c-0.3-0.3-0.7-0.4-1.3-0.4c-0.4,0-0.7,0-1,0.1C9.3,87.3,9,87.7,9,88.2c0,0.5,0.2,0.9,0.7,1.2c0.3,0.1,0.6,0.2,1.1,0.2
		c0.4,0,0.7,0,0.9-0.1c0.5-0.2,0.8-0.5,0.8-1.1C12.5,88.1,12.4,87.7,12.1,87.5z"/>
	<path class="st1" d="M7.4,84.8L7.5,84l1.3,0.1l0.1-0.7l0.6,0.1l-0.1,0.7l3,0.3c0.2,0,0.3,0,0.3-0.1c0-0.1,0.1-0.2,0.1-0.3
		c0,0,0-0.1,0-0.1c0,0,0-0.1,0-0.2l0.6,0.1c0,0.1,0,0.2,0,0.3c0,0.1,0,0.2,0,0.3c0,0.4-0.2,0.6-0.4,0.7c-0.2,0.1-0.4,0.1-0.7,0.1
		l-3-0.3l-0.1,0.6l-0.6-0.1l0.1-0.6L7.4,84.8z"/>
	<path class="st1" d="M7.3,82.3l0.1-0.8l0.9,0.1l-0.1,0.8L7.3,82.3z M9,82.5l0.1-0.8l4.6,0.6l-0.1,0.8L9,82.5z"/>
	<path class="st1" d="M9.3,80.1l3.9-0.6l-3.5-1.9l0.1-0.8l4.3,2.5L14,80.1L9.2,81L9.3,80.1z"/>
	<path class="st1" d="M10.9,73.2c0.2-0.3,0.5-0.4,0.7-0.5c0.3-0.1,0.6-0.1,0.9-0.1c0.2,0,0.6,0.1,1,0.2L12.7,76
		c0.5,0.1,0.9,0.1,1.2-0.1c0.3-0.1,0.5-0.4,0.6-0.8c0.1-0.4,0-0.7-0.2-1c-0.1-0.2-0.3-0.3-0.5-0.4l0.2-0.7c0.2,0.1,0.3,0.2,0.5,0.3
		c0.2,0.2,0.3,0.3,0.4,0.5c0.2,0.3,0.3,0.6,0.3,1c0,0.2,0,0.4-0.1,0.6c-0.1,0.6-0.4,1-0.9,1.3c-0.5,0.3-1.1,0.4-1.9,0.2
		c-0.7-0.2-1.3-0.5-1.6-1c-0.4-0.5-0.5-1.1-0.3-1.7C10.5,73.7,10.6,73.4,10.9,73.2z M12.7,73.3c-0.3,0-0.6,0-0.8,0
		c-0.4,0.1-0.7,0.4-0.8,0.9c-0.1,0.3,0,0.7,0.2,1c0.2,0.3,0.5,0.5,0.9,0.6L12.7,73.3z"/>
	<path class="st1" d="M10.4,68.1l0.2-0.8l0.8,0.3l-0.2,0.8L10.4,68.1z M12,68.6l0.2-0.8l4.4,1.4L16.4,70L12,68.6z"/>
	<path class="st1" d="M12.6,66.6l0.2-0.7l0.6,0.2c-0.2-0.3-0.3-0.6-0.3-0.9c0-0.3,0-0.5,0.1-0.8c0.2-0.6,0.6-1,1.1-1
		c0.3,0,0.6,0,1.1,0.2l2.8,1L18,65.4l-2.7-1c-0.3-0.1-0.5-0.1-0.7-0.1c-0.3,0-0.5,0.2-0.7,0.6c-0.1,0.2-0.1,0.3-0.1,0.4
		c0,0.2,0,0.4,0.2,0.7c0.1,0.2,0.2,0.3,0.4,0.4c0.1,0.1,0.4,0.2,0.6,0.3l2.3,0.8L17,68.2L12.6,66.6z"/>
	<path class="st1" d="M14.4,61.8l0.3-0.7l0.6,0.3c-0.2-0.3-0.3-0.6-0.3-0.9c0-0.3,0-0.5,0.2-0.8c0.3-0.6,0.6-0.9,1.2-1
		c0.3,0,0.6,0.1,1.1,0.2l2.7,1.2l-0.3,0.7l-2.7-1.1c-0.3-0.1-0.5-0.2-0.7-0.2c-0.3,0-0.5,0.2-0.7,0.5c-0.1,0.2-0.1,0.3-0.1,0.4
		c0,0.2,0,0.4,0.1,0.7c0.1,0.2,0.2,0.3,0.3,0.4c0.1,0.1,0.3,0.2,0.6,0.3l2.2,1l-0.3,0.7L14.4,61.8z"/>
	<path class="st1" d="M18.3,54.3c0.5-0.2,1.2-0.1,1.8,0.2c0.7,0.3,1.1,0.8,1.4,1.3c0.3,0.5,0.2,1.1-0.1,1.8
		c-0.3,0.6-0.7,0.9-1.3,1.1c-0.6,0.1-1.2,0-1.8-0.3c-0.7-0.3-1.2-0.8-1.4-1.4c-0.2-0.6-0.2-1.1,0.1-1.7
		C17.4,54.9,17.8,54.5,18.3,54.3z M20.9,56.2c-0.3-0.3-0.6-0.6-1-0.8c-0.4-0.2-0.7-0.3-1-0.3c-0.5,0-0.8,0.2-1.1,0.7
		c-0.2,0.4-0.2,0.8,0,1.2s0.6,0.6,1,0.9c0.4,0.2,0.9,0.3,1.2,0.3c0.4,0,0.7-0.3,0.9-0.7C21.2,56.9,21.1,56.5,20.9,56.2z"/>
	<path class="st1" d="M18.9,52.3l3.9,0.8l-2.6-3l0.4-0.7l3.2,3.8l-0.4,0.7l-4.9-0.8L18.9,52.3z"/>
	<path class="st1" d="M23.9,47.5c0.1-0.2,0.1-0.3,0-0.4c0-0.1-0.1-0.1-0.2-0.2c-0.2-0.1-0.4-0.2-0.6-0.1c-0.2,0.1-0.4,0.3-0.6,0.6
		c-0.2,0.3-0.3,0.6-0.2,0.9c0,0.1,0.2,0.3,0.4,0.5l-0.4,0.6c-0.5-0.3-0.7-0.7-0.7-1.1c0-0.4,0.1-0.8,0.4-1.2c0.3-0.5,0.6-0.8,1-0.9
		c0.4-0.2,0.7-0.1,1.1,0.1l2.2,1.5c0.1,0,0.1,0.1,0.2,0.1c0.1,0,0.1,0,0.2-0.1c0,0,0-0.1,0.1-0.1c0,0,0-0.1,0.1-0.1l0.5,0.3
		c0,0.1-0.1,0.2-0.1,0.3c0,0.1-0.1,0.1-0.1,0.2c-0.1,0.2-0.3,0.3-0.6,0.3c-0.1,0-0.3,0-0.4-0.1c0.1,0.2,0.1,0.5,0.1,0.9
		c0,0.3-0.1,0.6-0.3,0.9c-0.2,0.4-0.5,0.6-0.9,0.7c-0.4,0.1-0.7,0-1-0.2c-0.4-0.2-0.6-0.5-0.6-0.9c-0.1-0.4,0-0.7,0.2-1.1L23.9,47.5
		z M24.8,50.1c0.2-0.1,0.4-0.2,0.5-0.4c0.1-0.2,0.2-0.5,0.3-0.8c0.1-0.5-0.1-0.8-0.5-1.1l-0.5-0.3c0,0.1,0,0.2-0.1,0.4
		c0,0.1-0.1,0.3-0.2,0.4l-0.2,0.4c-0.1,0.3-0.2,0.5-0.2,0.6c0,0.3,0.1,0.5,0.3,0.7C24.4,50.1,24.6,50.1,24.8,50.1z"/>
	<path class="st1" d="M22.9,43.5l0.5-0.6l1.1,0.8l0.4-0.6l0.5,0.4L24.9,44l2.5,1.8c0.1,0.1,0.3,0.1,0.4,0.1c0.1,0,0.1-0.1,0.2-0.2
		c0,0,0-0.1,0.1-0.1c0,0,0-0.1,0.1-0.1l0.5,0.4c0,0.1-0.1,0.2-0.1,0.3c0,0.1-0.1,0.2-0.2,0.3c-0.2,0.3-0.4,0.4-0.7,0.4
		s-0.5-0.1-0.7-0.3l-2.5-1.8l-0.4,0.5l-0.5-0.4l0.4-0.5L22.9,43.5z"/>
	<path class="st1" d="M24,41.3l0.5-0.6l0.7,0.5l-0.5,0.6L24,41.3z M25.4,42.4l0.5-0.6l3.7,2.8L29,45.1L25.4,42.4z"/>
	<path class="st1" d="M29.1,38.4c0.6-0.1,1.1,0.1,1.7,0.6c0.6,0.5,0.9,1,1.1,1.6c0.1,0.6,0,1.2-0.5,1.8c-0.4,0.5-0.9,0.7-1.5,0.8
		c-0.6,0-1.1-0.2-1.7-0.7c-0.6-0.5-1-1-1.1-1.6c-0.1-0.6,0.1-1.1,0.5-1.7C28.1,38.7,28.5,38.5,29.1,38.4z M31.2,40.7
		c-0.2-0.4-0.5-0.7-0.8-1c-0.3-0.3-0.6-0.4-0.9-0.5c-0.5-0.1-0.9,0-1.2,0.5c-0.3,0.4-0.4,0.7-0.2,1.1c0.1,0.4,0.4,0.8,0.8,1.1
		c0.4,0.3,0.8,0.5,1.2,0.5c0.4,0,0.7-0.1,1-0.5C31.3,41.5,31.3,41.1,31.2,40.7z"/>
	<path class="st1" d="M29.9,36.8l0.5-0.5l0.5,0.4c0-0.3,0-0.6,0-0.9c0.1-0.3,0.2-0.5,0.4-0.7c0.4-0.5,0.9-0.6,1.4-0.5
		c0.3,0.1,0.6,0.3,0.9,0.6l2.2,2l-0.5,0.6l-2.1-2c-0.2-0.2-0.4-0.3-0.6-0.4c-0.3-0.1-0.6,0-0.8,0.3c-0.1,0.1-0.2,0.3-0.3,0.4
		c-0.1,0.2-0.1,0.4-0.1,0.7c0,0.2,0.1,0.4,0.2,0.5c0.1,0.1,0.2,0.3,0.5,0.5l1.8,1.6l-0.5,0.6L29.9,36.8z"/>
	<path class="st1" d="M34.4,30.3l0.6-0.5l0.9,0.9l0.5-0.5l0.4,0.5l-0.5,0.5l2.1,2.2c0.1,0.1,0.2,0.2,0.3,0.1c0.1,0,0.2-0.1,0.3-0.2
		c0,0,0.1-0.1,0.1-0.1c0,0,0.1-0.1,0.1-0.1l0.4,0.5c0,0.1-0.1,0.2-0.2,0.2c-0.1,0.1-0.1,0.1-0.2,0.2c-0.3,0.2-0.5,0.3-0.7,0.3
		c-0.2,0-0.4-0.2-0.6-0.4l-2.1-2.2l-0.5,0.4l-0.4-0.5l0.5-0.4L34.4,30.3z"/>
	<path class="st1" d="M40,27.8c0.6,0,1.1,0.4,1.6,0.9c0.5,0.6,0.7,1.2,0.8,1.8c0,0.6-0.2,1.2-0.8,1.6c-0.5,0.4-1,0.6-1.6,0.5
		c-0.6-0.1-1.1-0.4-1.5-1c-0.5-0.6-0.8-1.2-0.7-1.8c0-0.6,0.3-1.1,0.8-1.5C38.9,27.9,39.4,27.7,40,27.8z M41.6,30.4
		c-0.1-0.4-0.3-0.8-0.6-1.2c-0.3-0.3-0.6-0.6-0.8-0.7c-0.4-0.2-0.9-0.1-1.3,0.2c-0.4,0.3-0.5,0.7-0.4,1.1c0.1,0.4,0.3,0.8,0.6,1.2
		c0.3,0.4,0.7,0.6,1,0.7c0.4,0.1,0.7,0,1.1-0.3C41.5,31.2,41.7,30.8,41.6,30.4z"/>
	<path class="st1" d="M45.7,23.2c0.4,0,0.8,0.3,1.2,0.7l-0.6,0.4c-0.2-0.2-0.4-0.3-0.7-0.4c-0.2-0.1-0.5,0-0.8,0.2
		c-0.4,0.3-0.6,0.7-0.5,1.2c0.1,0.3,0.2,0.7,0.5,1.1c0.3,0.4,0.6,0.6,0.9,0.8c0.3,0.1,0.7,0.1,1-0.1c0.3-0.2,0.4-0.4,0.5-0.7
		c0-0.3,0-0.6-0.1-0.9l0.6-0.4c0.3,0.6,0.4,1,0.2,1.5c-0.1,0.4-0.4,0.8-0.8,1.1c-0.5,0.3-1,0.4-1.6,0.3c-0.5-0.2-1-0.5-1.4-1
		c-0.5-0.7-0.7-1.3-0.6-1.9c0.1-0.6,0.3-1.1,0.8-1.4C44.9,23.3,45.3,23.2,45.7,23.2z"/>
	<path class="st1" d="M49.9,22.4c0.1-0.1,0.2-0.2,0.2-0.4c0-0.1,0-0.2-0.1-0.3c-0.1-0.2-0.3-0.3-0.5-0.3c-0.2,0-0.5,0.1-0.8,0.3
		c-0.3,0.2-0.5,0.5-0.6,0.7c0,0.2,0,0.3,0.1,0.6l-0.6,0.4c-0.3-0.5-0.3-0.9-0.2-1.3c0.2-0.4,0.5-0.7,0.9-0.9
		c0.5-0.3,0.9-0.4,1.3-0.4c0.4,0,0.7,0.2,0.9,0.6l1.4,2.3c0,0.1,0.1,0.1,0.1,0.1c0.1,0,0.1,0,0.2,0c0,0,0.1,0,0.1-0.1
		c0,0,0.1-0.1,0.1-0.1l0.3,0.5c-0.1,0.1-0.2,0.2-0.2,0.2c0,0-0.1,0.1-0.2,0.1c-0.2,0.1-0.4,0.2-0.6,0.1c-0.1-0.1-0.2-0.1-0.3-0.3
		c0,0.3-0.1,0.5-0.3,0.8c-0.2,0.3-0.4,0.5-0.7,0.7c-0.4,0.2-0.7,0.3-1.1,0.2c-0.4-0.1-0.7-0.3-0.9-0.6c-0.2-0.4-0.3-0.7-0.2-1.1
		c0.1-0.3,0.3-0.7,0.7-0.9L49.9,22.4z M49.6,25c0.2,0,0.4,0,0.6-0.1c0.2-0.1,0.4-0.3,0.6-0.6c0.3-0.4,0.3-0.8,0-1.2l-0.3-0.5
		c0,0.1-0.1,0.2-0.2,0.3c-0.1,0.1-0.2,0.2-0.3,0.3l-0.4,0.3c-0.2,0.2-0.4,0.3-0.4,0.5c-0.1,0.2-0.1,0.5,0,0.7
		C49.3,24.9,49.4,25,49.6,25z"/>
	<path class="st1" d="M51.2,19.5l0.6-0.4l0.4,0.7c0-0.2,0-0.4,0.1-0.7c0.1-0.3,0.3-0.5,0.5-0.7c0,0,0,0,0.1,0c0,0,0.1,0,0.2-0.1
		l0.4,0.7c0,0-0.1,0-0.1,0c0,0-0.1,0-0.1,0.1c-0.3,0.2-0.5,0.4-0.6,0.8c-0.1,0.3,0,0.6,0.1,0.9l1.3,2.3l-0.7,0.4L51.2,19.5z"/>
	<path class="st1" d="M56.5,16.9c0.3,0,0.6,0.1,0.9,0.2c0.2,0.1,0.5,0.3,0.6,0.6c0.1,0.2,0.3,0.5,0.5,0.9l-3,1.5
		c0.2,0.4,0.5,0.7,0.8,0.9c0.3,0.2,0.7,0.1,1,0c0.4-0.2,0.6-0.4,0.7-0.8c0.1-0.2,0.1-0.4,0-0.6l0.7-0.3c0.1,0.2,0.1,0.4,0.1,0.6
		c0,0.2,0,0.4-0.1,0.6c-0.1,0.3-0.3,0.6-0.6,0.8c-0.1,0.1-0.3,0.2-0.5,0.3c-0.5,0.3-1,0.3-1.6,0.1c-0.5-0.2-1-0.6-1.3-1.3
		c-0.3-0.7-0.4-1.3-0.3-1.9c0.2-0.6,0.5-1,1.1-1.3C55.8,16.9,56.1,16.9,56.5,16.9z M57.5,18.4c-0.2-0.3-0.4-0.5-0.6-0.6
		c-0.4-0.2-0.8-0.3-1.2,0c-0.3,0.2-0.5,0.4-0.6,0.7c-0.1,0.3-0.1,0.7,0.1,1.1L57.5,18.4z"/>
	<path class="st1" d="M60.5,13.4c0.1-0.3,0.3-0.6,0.8-0.8c0,0,0.1,0,0.1-0.1c0,0,0.1,0,0.2-0.1l0.3,0.7c-0.1,0-0.1,0-0.2,0.1
		c0,0-0.1,0-0.1,0c-0.2,0.1-0.3,0.2-0.3,0.3c0,0.1,0.1,0.4,0.3,0.9l0.7-0.3l0.2,0.6L61.9,15l1.5,3.7L62.7,19l-1.5-3.7l-0.6,0.2
		L60.3,15l0.6-0.2l-0.3-0.7C60.5,13.8,60.5,13.5,60.5,13.4z"/>
	<path class="st1" d="M66.4,13.1c0.5,0.2,0.9,0.7,1.2,1.4c0.3,0.7,0.3,1.3,0.1,1.9c-0.2,0.6-0.6,1-1.3,1.3c-0.6,0.2-1.1,0.2-1.6-0.1
		c-0.5-0.3-0.9-0.8-1.1-1.4c-0.3-0.7-0.3-1.4-0.1-1.9c0.2-0.6,0.6-1,1.3-1.2C65.4,12.9,65.9,12.9,66.4,13.1z M67,16.2
		c0-0.4,0-0.9-0.2-1.3c-0.1-0.4-0.3-0.7-0.5-0.9c-0.3-0.3-0.8-0.4-1.3-0.2c-0.4,0.2-0.7,0.4-0.8,0.9s0,0.9,0.1,1.3
		c0.2,0.5,0.4,0.8,0.7,1.1s0.7,0.3,1.1,0.1C66.7,16.9,67,16.6,67,16.2z"/>
	<path class="st1" d="M68,12.2l0.7-0.2l0.2,0.8c0-0.2,0.1-0.4,0.3-0.7c0.2-0.3,0.4-0.5,0.7-0.6c0,0,0,0,0.1,0c0,0,0.1,0,0.2,0
		l0.2,0.8c0,0-0.1,0-0.1,0s-0.1,0-0.1,0c-0.4,0.1-0.6,0.3-0.8,0.6c-0.1,0.3-0.1,0.6,0,0.9l0.8,2.5l-0.7,0.2L68,12.2z"/>
	<path class="st1" d="M76.2,10L77,9.8c0,0.3-0.1,1-0.3,2.1c-0.1,0.8-0.2,1.5-0.3,2.1c-0.2,1.2-0.3,2-0.5,2.3
		c-0.1,0.3-0.4,0.5-0.8,0.6c-0.1,0-0.2,0-0.2,0c-0.1,0-0.1,0-0.2,0l-0.2-0.7c0.1,0,0.2,0,0.3,0c0.1,0,0.1,0,0.2,0
		c0.1,0,0.2-0.1,0.3-0.1c0.1-0.1,0.1-0.1,0.1-0.2c0,0,0-0.2,0.1-0.4c0-0.2,0.1-0.4,0.1-0.5l-2.7-4.3l0.9-0.2l2,3.4L76.2,10z"/>
	<path class="st1" d="M81.2,9.6c0.5,0.3,0.8,0.9,0.9,1.6c0.1,0.7,0,1.4-0.2,1.9s-0.8,0.9-1.5,1c-0.6,0.1-1.2,0-1.6-0.4
		c-0.4-0.4-0.7-0.9-0.8-1.6c-0.1-0.8,0-1.4,0.3-1.9s0.8-0.8,1.4-0.9C80.2,9.1,80.8,9.2,81.2,9.6z M81.3,12.7
		c0.1-0.4,0.1-0.9,0.1-1.3c-0.1-0.4-0.2-0.8-0.4-1c-0.3-0.4-0.7-0.5-1.2-0.4c-0.5,0.1-0.8,0.3-0.9,0.7c-0.2,0.4-0.2,0.8-0.1,1.3
		c0.1,0.5,0.3,0.9,0.5,1.2c0.3,0.3,0.6,0.4,1.1,0.3C80.8,13.3,81.1,13.1,81.3,12.7z"/>
	<path class="st1" d="M83.7,8.8l0.3,3.1c0,0.2,0.1,0.4,0.2,0.6c0.2,0.3,0.4,0.4,0.8,0.3c0.5-0.1,0.9-0.3,1-0.8
		c0.1-0.3,0.1-0.6,0-1.1l-0.2-2.3l0.8-0.1l0.5,4.6l-0.7,0.1l-0.1-0.7c-0.1,0.2-0.2,0.3-0.3,0.5c-0.3,0.3-0.6,0.4-1,0.5
		c-0.6,0.1-1.1-0.1-1.4-0.5c-0.2-0.2-0.2-0.5-0.3-0.9l-0.3-3.1L83.7,8.8z"/>
</g>
<g>
	<path class="st1" d="M24.8,117.8c-0.1-0.2-0.2-0.3-0.3-0.3c-0.1,0-0.2,0-0.3,0.1c-0.3,0.1-0.4,0.2-0.5,0.5s0,0.5,0.1,0.8
		c0.1,0.4,0.3,0.6,0.6,0.7c0.1,0,0.3,0,0.6,0l0.2,0.7c-0.6,0.2-1,0.1-1.3-0.1c-0.3-0.3-0.6-0.6-0.7-1.1c-0.2-0.5-0.2-1-0.2-1.4
		c0.1-0.4,0.3-0.7,0.8-0.8l2.6-0.9c0.1,0,0.1-0.1,0.2-0.1c0,0,0-0.1,0-0.2c0,0,0-0.1,0-0.1c0,0,0-0.1-0.1-0.1l0.5-0.2
		c0.1,0.1,0.1,0.2,0.2,0.2c0,0.1,0.1,0.1,0.1,0.2c0.1,0.3,0.1,0.5-0.1,0.7c-0.1,0.1-0.2,0.2-0.4,0.3c0.3,0.1,0.5,0.2,0.8,0.5
		c0.2,0.2,0.4,0.5,0.6,0.9c0.1,0.4,0.1,0.8,0,1.1c-0.2,0.3-0.4,0.6-0.8,0.7c-0.4,0.1-0.8,0.1-1.1,0c-0.3-0.2-0.6-0.5-0.8-0.9
		L24.8,117.8z M27.4,118.6c0.1-0.2,0.1-0.4,0-0.6c-0.1-0.3-0.2-0.5-0.5-0.7c-0.3-0.3-0.8-0.4-1.2-0.3l-0.6,0.2
		c0.1,0.1,0.2,0.2,0.3,0.3c0.1,0.1,0.2,0.3,0.2,0.4l0.2,0.4c0.1,0.3,0.3,0.4,0.4,0.5c0.2,0.2,0.5,0.2,0.7,0.1
		C27.2,119,27.3,118.8,27.4,118.6z"/>
	<path class="st1" d="M22.2,115.9l-0.2-0.7l0.6-0.2c-0.3-0.1-0.6-0.3-0.8-0.5c-0.2-0.2-0.3-0.5-0.4-0.8c-0.2-0.6-0.1-1.1,0.3-1.5
		c0.2-0.2,0.5-0.4,1-0.5l2.9-0.8l0.2,0.8l-2.9,0.8c-0.3,0.1-0.5,0.2-0.6,0.3c-0.2,0.2-0.3,0.5-0.2,0.9c0.1,0.2,0.1,0.3,0.2,0.4
		c0.1,0.2,0.3,0.3,0.5,0.4c0.2,0.1,0.4,0.1,0.5,0.1c0.2,0,0.4-0.1,0.7-0.1l2.4-0.7l0.2,0.8L22.2,115.9z"/>
	<path class="st1" d="M20.4,108.3c0.1-0.2,0.2-0.3,0.4-0.6l-2.3,0.5l-0.2-0.7l6.3-1.3l0.1,0.7l-0.6,0.1c0.3,0.1,0.6,0.3,0.7,0.5
		s0.3,0.5,0.4,0.8c0.1,0.5,0,1-0.4,1.5c-0.4,0.5-0.9,0.8-1.6,0.9c-0.7,0.1-1.3,0.1-1.9-0.1c-0.6-0.2-0.9-0.7-1-1.3
		C20.3,108.8,20.3,108.5,20.4,108.3z M24.2,109.3c0.3-0.3,0.4-0.6,0.3-1.1c-0.1-0.4-0.3-0.6-0.6-0.8s-0.8-0.2-1.4-0.1
		c-0.6,0.1-1,0.3-1.2,0.6c-0.2,0.3-0.3,0.6-0.2,1c0.1,0.4,0.3,0.7,0.6,0.8c0.3,0.2,0.8,0.2,1.4,0.1C23.6,109.7,24,109.5,24.2,109.3z
		"/>
	<path class="st1" d="M19.4,103.1l-0.1-0.8l0.7-0.1c-0.2-0.2-0.4-0.3-0.5-0.5c-0.2-0.2-0.3-0.5-0.3-0.9c0-0.4,0-0.7,0.2-0.9
		c0.1-0.1,0.2-0.3,0.4-0.4c-0.3-0.2-0.5-0.3-0.6-0.6c-0.1-0.2-0.2-0.5-0.2-0.8c-0.1-0.6,0.1-1.1,0.6-1.3c0.2-0.1,0.6-0.2,1-0.3
		l3.1-0.3l0.1,0.8l-3.3,0.3c-0.3,0-0.5,0.1-0.6,0.3c-0.1,0.2-0.1,0.4-0.1,0.6c0,0.3,0.2,0.6,0.4,0.8c0.2,0.2,0.6,0.3,1.1,0.2
		l2.7-0.2l0.1,0.8l-3.1,0.3c-0.3,0-0.5,0.1-0.7,0.2c-0.2,0.1-0.3,0.4-0.3,0.7c0,0.3,0.2,0.6,0.4,0.8c0.3,0.2,0.7,0.3,1.3,0.3
		l2.5-0.2l0.1,0.8L19.4,103.1z"/>
	<path class="st1" d="M20.7,92.8c0-0.2-0.1-0.3-0.2-0.4c-0.1,0-0.2-0.1-0.3-0.1c-0.3,0-0.5,0.1-0.6,0.3c-0.1,0.2-0.2,0.5-0.2,0.8
		c0,0.4,0.1,0.7,0.3,0.9c0.1,0.1,0.3,0.2,0.6,0.2l0,0.7c-0.6,0-1-0.2-1.2-0.6c-0.2-0.4-0.3-0.8-0.3-1.3c0-0.6,0.1-1,0.3-1.3
		c0.2-0.3,0.5-0.5,1-0.5l2.7,0c0.1,0,0.1,0,0.2-0.1c0,0,0.1-0.1,0.1-0.2c0,0,0-0.1,0-0.1c0,0,0-0.1,0-0.1l0.6,0
		c0,0.1,0.1,0.2,0.1,0.3c0,0.1,0,0.2,0,0.3c0,0.3-0.1,0.5-0.3,0.6c-0.1,0.1-0.2,0.1-0.4,0.1c0.2,0.2,0.4,0.4,0.5,0.7
		c0.2,0.3,0.2,0.6,0.2,1c0,0.4-0.1,0.8-0.4,1.1c-0.3,0.3-0.6,0.4-1,0.4c-0.4,0-0.8-0.1-1-0.4c-0.2-0.3-0.4-0.6-0.4-1.1L20.7,92.8z
		 M22.8,94.5c0.1-0.2,0.2-0.4,0.2-0.6c0-0.3-0.1-0.5-0.2-0.8c-0.2-0.4-0.6-0.7-1-0.7l-0.6,0c0.1,0.1,0.1,0.2,0.2,0.4
		c0,0.2,0.1,0.3,0.1,0.4l0.1,0.5c0,0.3,0.1,0.5,0.2,0.6c0.1,0.2,0.4,0.4,0.7,0.4C22.5,94.7,22.7,94.7,22.8,94.5z"/>
	<path class="st1" d="M17.1,90l0.1-0.8l3.7,0.3l-1.9-2.2l0.1-1l1.6,1.9l3.1-1.7l-0.1,1l-2.5,1.3l0.6,0.7l1.8,0.1l-0.1,0.8L17.1,90z"
		/>
	<path class="st1" d="M19.8,82.6c0.2-0.3,0.4-0.5,0.7-0.6c0.3-0.1,0.5-0.2,0.9-0.2c0.2,0,0.6,0,1,0.1l-0.5,3.4c0.5,0,0.9,0,1.2-0.2
		c0.3-0.2,0.5-0.5,0.6-0.9c0.1-0.4,0-0.7-0.3-1c-0.1-0.2-0.3-0.3-0.5-0.4L23,82c0.2,0,0.3,0.1,0.5,0.3c0.2,0.1,0.3,0.3,0.5,0.5
		c0.2,0.3,0.3,0.6,0.4,0.9c0,0.2,0,0.4,0,0.6c-0.1,0.6-0.4,1-0.8,1.4C23,86,22.4,86.1,21.6,86c-0.7-0.1-1.3-0.4-1.7-0.9
		c-0.4-0.5-0.6-1-0.5-1.7C19.5,83.2,19.6,82.8,19.8,82.6z M21.6,82.5c-0.3,0-0.6,0-0.8,0.1c-0.4,0.2-0.6,0.5-0.7,1
		c0,0.4,0,0.7,0.3,1c0.2,0.3,0.5,0.5,0.9,0.5L21.6,82.5z"/>
	<path class="st1" d="M21.2,74.8l0.2-0.8c0.3,0.2,0.9,0.6,1.8,1.2c0.7,0.5,1.3,0.9,1.8,1.2c1.1,0.7,1.7,1.2,1.9,1.5
		c0.2,0.2,0.3,0.6,0.2,1C27,79,27,79,27,79.1s-0.1,0.1-0.1,0.2l-0.7-0.2c0.1-0.1,0.1-0.2,0.1-0.3c0-0.1,0-0.1,0-0.2
		c0-0.1,0-0.3,0-0.3c0-0.1-0.1-0.1-0.1-0.2c0,0-0.1-0.1-0.3-0.2c-0.2-0.1-0.3-0.2-0.4-0.3l-5.1,0.6l0.2-0.9l4-0.3L21.2,74.8z"/>
	<path class="st1" d="M23.1,70c0.5-0.3,1.1-0.3,1.9-0.1c0.7,0.2,1.3,0.6,1.6,1.1c0.4,0.5,0.4,1.1,0.2,1.9c-0.2,0.6-0.6,1-1.1,1.3
		c-0.5,0.2-1.1,0.2-1.9,0c-0.8-0.2-1.3-0.6-1.6-1.1c-0.3-0.5-0.4-1.1-0.2-1.7C22.3,70.7,22.6,70.3,23.1,70z M26,71.4
		c-0.3-0.3-0.7-0.5-1.2-0.7c-0.4-0.1-0.8-0.2-1.1-0.1c-0.5,0.1-0.8,0.4-1,0.9c-0.1,0.5-0.1,0.8,0.2,1.2c0.3,0.3,0.7,0.6,1.2,0.7
		c0.5,0.1,0.9,0.2,1.3,0.1c0.4-0.1,0.6-0.4,0.8-0.8C26.4,72.1,26.3,71.7,26,71.4z"/>
	<path class="st1" d="M23.6,67.4l2.9,1.1c0.2,0.1,0.4,0.1,0.6,0.1c0.3,0,0.5-0.2,0.7-0.6c0.2-0.5,0.1-0.9-0.3-1.3
		c-0.2-0.2-0.5-0.4-1-0.5l-2.2-0.8l0.3-0.7l4.4,1.7l-0.3,0.7l-0.6-0.3c0.1,0.2,0.2,0.3,0.3,0.5c0.1,0.4,0.1,0.7,0,1.1
		c-0.2,0.6-0.6,0.9-1.1,1c-0.3,0-0.6,0-1-0.2l-3-1.2L23.6,67.4z"/>
	<path class="st1" d="M25.2,63.3l0.3-0.7l0.7,0.3c-0.1-0.1-0.2-0.3-0.3-0.7c-0.1-0.3-0.1-0.6,0-0.9c0,0,0,0,0-0.1c0,0,0-0.1,0.1-0.2
		l0.8,0.3c0,0-0.1,0.1-0.1,0.1c0,0,0,0.1-0.1,0.1c-0.2,0.4-0.2,0.7,0,1c0.1,0.3,0.4,0.5,0.7,0.7l2.5,1.1l-0.3,0.7L25.2,63.3z"/>
	<path class="st1" d="M29.1,56c0.1-0.1,0.4-0.1,0.6-0.2l-2.1-1.2l0.4-0.7l5.6,3.2l-0.3,0.6l-0.6-0.3c0.2,0.3,0.2,0.6,0.2,0.9
		c0,0.3-0.1,0.6-0.3,0.8c-0.3,0.5-0.7,0.7-1.2,0.9c-0.6,0.1-1.2,0-1.8-0.4c-0.6-0.3-1-0.8-1.3-1.3c-0.3-0.6-0.2-1.1,0.1-1.7
		C28.7,56.4,28.9,56.2,29.1,56z M31.3,59.3c0.4,0,0.7-0.2,0.9-0.6c0.2-0.3,0.2-0.7,0-1c-0.2-0.4-0.5-0.7-1-1c-0.5-0.3-1-0.4-1.3-0.3
		c-0.4,0.1-0.6,0.3-0.8,0.6c-0.2,0.3-0.2,0.7-0.1,1.1c0.1,0.4,0.5,0.7,1,1C30.5,59.2,30.9,59.3,31.3,59.3z"/>
	<path class="st1" d="M33.3,52.6c0.1-0.2,0.1-0.3,0-0.4c0-0.1-0.1-0.1-0.2-0.2c-0.2-0.2-0.4-0.2-0.7-0.1c-0.2,0.1-0.4,0.3-0.6,0.6
		c-0.2,0.3-0.3,0.6-0.2,0.9c0.1,0.1,0.2,0.3,0.4,0.5l-0.4,0.6c-0.5-0.3-0.7-0.7-0.7-1.1c0-0.4,0.1-0.8,0.4-1.2
		c0.3-0.5,0.6-0.8,1-0.9c0.4-0.2,0.7-0.1,1.1,0.1l2.3,1.5c0.1,0,0.1,0.1,0.2,0.1c0.1,0,0.1,0,0.2-0.1c0,0,0-0.1,0.1-0.1
		c0,0,0-0.1,0.1-0.1l0.5,0.3c0,0.1-0.1,0.2-0.1,0.3s-0.1,0.1-0.1,0.2c-0.1,0.2-0.3,0.3-0.6,0.3c-0.1,0-0.3,0-0.4-0.1
		c0.1,0.3,0.1,0.5,0.1,0.9c0,0.3-0.2,0.7-0.4,1c-0.2,0.4-0.6,0.6-0.9,0.7c-0.4,0.1-0.7,0-1.1-0.2c-0.4-0.2-0.6-0.5-0.6-0.9
		c0-0.4,0-0.7,0.2-1.1L33.3,52.6z M34.2,55.2c0.2-0.1,0.4-0.2,0.5-0.4c0.2-0.2,0.2-0.5,0.3-0.8c0.1-0.5-0.1-0.9-0.5-1.1l-0.5-0.4
		c0,0.1,0,0.2-0.1,0.4c-0.1,0.1-0.1,0.3-0.2,0.4l-0.2,0.4c-0.1,0.3-0.2,0.5-0.2,0.6c0,0.3,0.1,0.5,0.3,0.7
		C33.8,55.2,34,55.2,34.2,55.2z"/>
	<path class="st1" d="M35.1,47l0.5-0.7c0.2,0.3,0.6,0.9,1.2,1.8c0.5,0.7,0.8,1.3,1.1,1.8c0.7,1.1,1.1,1.8,1.2,2.1
		c0.1,0.3,0,0.6-0.3,1c-0.1,0.1-0.1,0.2-0.2,0.2c0,0-0.1,0.1-0.2,0.1L37.9,53c0.1-0.1,0.2-0.2,0.2-0.2c0,0,0.1-0.1,0.1-0.1
		c0.1-0.1,0.1-0.2,0.1-0.3c0-0.1,0-0.2,0-0.2c0,0-0.1-0.1-0.2-0.3s-0.2-0.4-0.3-0.5L33,49.8l0.5-0.7l3.8,1.3L35.1,47z"/>
	<path class="st1" d="M37.4,47l1.4-1.7l0.6,0.5L38,47.5L37.4,47z"/>
	<path class="st1" d="M37.4,42.3l0.5-0.6l1,0.9l0.5-0.6l0.5,0.4l-0.5,0.6l2.3,2.1c0.1,0.1,0.2,0.1,0.4,0.1c0.1,0,0.1-0.1,0.2-0.2
		c0,0,0.1-0.1,0.1-0.1c0,0,0.1-0.1,0.1-0.1l0.5,0.4c0,0.1-0.1,0.2-0.1,0.2c-0.1,0.1-0.1,0.2-0.2,0.2c-0.3,0.3-0.5,0.4-0.7,0.4
		c-0.2,0-0.5-0.1-0.7-0.4l-2.3-2.1l-0.4,0.5l-0.5-0.4l0.4-0.5L37.4,42.3z"/>
	<path class="st1" d="M42.8,39.3c0.6,0,1.1,0.3,1.7,0.8c0.5,0.5,0.8,1.1,0.9,1.7c0.1,0.6-0.2,1.2-0.7,1.7c-0.5,0.4-1,0.6-1.6,0.6
		c-0.6,0-1.1-0.3-1.6-0.9c-0.6-0.6-0.8-1.2-0.9-1.8c0-0.6,0.2-1.2,0.7-1.6C41.7,39.5,42.2,39.3,42.8,39.3z M44.6,41.9
		c-0.1-0.4-0.4-0.8-0.7-1.1c-0.3-0.3-0.6-0.5-0.9-0.6c-0.5-0.2-0.9,0-1.3,0.3c-0.3,0.3-0.5,0.7-0.4,1.1c0.1,0.4,0.3,0.8,0.7,1.2
		c0.4,0.4,0.7,0.6,1.1,0.7c0.4,0.1,0.8,0,1.1-0.4C44.7,42.7,44.8,42.3,44.6,41.9z"/>
	<path class="st1" d="M44.8,39.3l1.7-1.5l0.5,0.6l-1.7,1.5L44.8,39.3z"/>
	<path class="st1" d="M48.3,34.3c0.2,0,0.4,0,0.7,0.1l-1.5-1.9l0.6-0.5l4,5.1l-0.6,0.4L51.1,37c0,0.3,0,0.6-0.1,0.9
		c-0.1,0.3-0.3,0.5-0.6,0.7c-0.4,0.3-0.9,0.4-1.5,0.3c-0.6-0.1-1.1-0.5-1.5-1c-0.4-0.5-0.6-1.1-0.7-1.7c0-0.6,0.2-1.1,0.7-1.5
		C47.7,34.4,48,34.3,48.3,34.3z M49.1,38.1c0.4,0.1,0.8,0.1,1.1-0.2c0.3-0.2,0.4-0.5,0.4-0.9c0-0.4-0.2-0.8-0.6-1.3
		c-0.4-0.5-0.7-0.7-1.1-0.8s-0.7,0-1,0.2c-0.3,0.2-0.5,0.6-0.5,1c0,0.4,0.2,0.8,0.5,1.3C48.3,37.7,48.7,38,49.1,38.1z"/>
	<path class="st1" d="M53.5,32.7c0.1-0.1,0.2-0.3,0.2-0.4c0-0.1-0.1-0.2-0.1-0.3c-0.2-0.2-0.3-0.3-0.6-0.3c-0.2,0-0.5,0.1-0.8,0.3
		c-0.3,0.2-0.5,0.5-0.5,0.8c0,0.2,0,0.3,0.2,0.6l-0.6,0.4c-0.3-0.5-0.4-0.9-0.2-1.3c0.2-0.4,0.5-0.7,0.9-1c0.5-0.3,0.9-0.5,1.3-0.5
		c0.4,0,0.7,0.2,1,0.5l1.5,2.3c0,0.1,0.1,0.1,0.2,0.1c0.1,0,0.1,0,0.2-0.1c0,0,0.1,0,0.1-0.1c0,0,0.1-0.1,0.1-0.1l0.3,0.5
		c-0.1,0.1-0.1,0.2-0.2,0.2c0,0-0.1,0.1-0.2,0.2c-0.2,0.2-0.4,0.2-0.7,0.1c-0.1,0-0.2-0.1-0.4-0.3c0,0.3-0.1,0.5-0.3,0.8
		s-0.4,0.5-0.7,0.7c-0.4,0.2-0.7,0.3-1.1,0.3c-0.4-0.1-0.7-0.3-0.9-0.6c-0.2-0.4-0.3-0.7-0.2-1.1s0.3-0.7,0.6-1L53.5,32.7z
		 M53.3,35.4c0.2,0,0.4,0,0.6-0.2c0.2-0.2,0.4-0.4,0.6-0.6c0.2-0.4,0.2-0.8,0-1.2L54,32.9c0,0.1-0.1,0.2-0.2,0.3s-0.2,0.2-0.3,0.3
		l-0.4,0.3c-0.2,0.2-0.4,0.4-0.4,0.5c-0.1,0.3-0.1,0.5,0.1,0.8C52.9,35.3,53.1,35.4,53.3,35.4z"/>
	<path class="st1" d="M57.2,28.2l0.8-0.4c0.1,0.3,0.2,1,0.4,2.2c0.2,0.8,0.3,1.5,0.4,2.1c0.2,1.3,0.3,2.1,0.3,2.4
		c0,0.3-0.2,0.6-0.6,0.8c-0.1,0.1-0.2,0.1-0.2,0.1c-0.1,0-0.1,0-0.2,0.1l-0.4-0.6c0.1,0,0.2-0.1,0.3-0.1c0.1,0,0.1,0,0.1-0.1
		c0.1-0.1,0.2-0.1,0.2-0.2c0-0.1,0.1-0.2,0.1-0.2c0,0,0-0.2,0-0.4c0-0.2-0.1-0.4-0.1-0.5L54.3,30l0.8-0.4l3,2.7L57.2,28.2z"/>
	<path class="st1" d="M63.8,25.1c0.3,0,0.6,0.1,0.9,0.3c0.2,0.2,0.5,0.4,0.6,0.6c0.1,0.2,0.3,0.5,0.5,0.9l-3.1,1.4
		c0.2,0.4,0.5,0.7,0.8,0.9c0.3,0.2,0.7,0.2,1.1,0c0.4-0.2,0.6-0.4,0.7-0.8c0.1-0.2,0.1-0.4,0-0.6l0.7-0.3c0.1,0.2,0.1,0.4,0.1,0.6
		c0,0.2-0.1,0.5-0.1,0.6c-0.1,0.3-0.3,0.6-0.6,0.8c-0.2,0.1-0.3,0.2-0.6,0.3c-0.5,0.2-1.1,0.2-1.6,0c-0.5-0.2-1-0.7-1.3-1.4
		c-0.3-0.7-0.4-1.3-0.2-1.9c0.2-0.6,0.6-1,1.2-1.3C63.1,25.2,63.5,25.1,63.8,25.1z M64.8,26.7c-0.2-0.3-0.4-0.5-0.5-0.7
		c-0.4-0.3-0.8-0.3-1.2-0.1c-0.3,0.1-0.6,0.4-0.7,0.7c-0.1,0.3-0.1,0.7,0.1,1.1L64.8,26.7z"/>
	<path class="st1" d="M68.9,25c0.2-0.1,0.3-0.2,0.3-0.3c0-0.1,0-0.2-0.1-0.3c-0.1-0.3-0.3-0.4-0.5-0.5c-0.2,0-0.5,0-0.8,0.1
		c-0.4,0.1-0.6,0.3-0.7,0.6c0,0.1,0,0.3,0,0.6l-0.7,0.3c-0.2-0.6-0.2-1,0.1-1.3c0.3-0.3,0.6-0.6,1.1-0.8c0.5-0.2,1-0.2,1.4-0.2
		c0.4,0.1,0.7,0.3,0.8,0.7l0.9,2.5c0,0.1,0.1,0.1,0.1,0.2c0,0,0.1,0,0.2,0c0,0,0.1,0,0.1,0c0,0,0.1,0,0.1-0.1l0.2,0.5
		c-0.1,0.1-0.2,0.1-0.2,0.2c-0.1,0-0.1,0.1-0.2,0.1c-0.3,0.1-0.5,0.1-0.7-0.1c-0.1-0.1-0.2-0.2-0.3-0.4c-0.1,0.3-0.2,0.5-0.5,0.8
		c-0.2,0.2-0.5,0.4-0.9,0.6c-0.4,0.2-0.8,0.2-1.1,0c-0.4-0.2-0.6-0.4-0.7-0.8c-0.2-0.4-0.1-0.8,0-1.1c0.2-0.3,0.5-0.6,0.9-0.8
		L68.9,25z M68.1,27.5c0.2,0.1,0.4,0.1,0.6,0c0.3-0.1,0.5-0.2,0.7-0.5c0.3-0.4,0.4-0.8,0.3-1.2l-0.2-0.6c-0.1,0.1-0.2,0.2-0.3,0.3
		c-0.1,0.1-0.3,0.2-0.4,0.2L68.3,26c-0.3,0.1-0.4,0.3-0.5,0.4c-0.2,0.2-0.2,0.5-0.1,0.7C67.7,27.3,67.9,27.5,68.1,27.5z"/>
	<path class="st1" d="M72.2,25.3c0.1,0.2,0.2,0.4,0.4,0.5c0.3,0.2,0.6,0.2,1.1,0.1c0.3-0.1,0.5-0.2,0.7-0.4c0.2-0.2,0.2-0.4,0.2-0.7
		c-0.1-0.2-0.2-0.3-0.4-0.4c-0.1,0-0.4,0-0.7,0l-0.7,0c-0.4,0-0.7,0-1-0.1c-0.4-0.1-0.6-0.3-0.7-0.7c-0.1-0.4-0.1-0.8,0.2-1.2
		c0.2-0.4,0.6-0.6,1.1-0.8c0.7-0.2,1.2-0.2,1.7,0.2c0.3,0.2,0.4,0.4,0.5,0.7l-0.7,0.2c-0.1-0.2-0.2-0.3-0.3-0.4
		c-0.2-0.1-0.6-0.2-1,0c-0.3,0.1-0.5,0.2-0.6,0.4c-0.1,0.2-0.2,0.3-0.1,0.5c0.1,0.2,0.2,0.3,0.4,0.4c0.1,0,0.3,0,0.6,0l0.5,0
		c0.6,0,1,0,1.2,0.1c0.4,0.1,0.6,0.4,0.7,0.8c0.1,0.4,0.1,0.8-0.2,1.2c-0.2,0.4-0.6,0.7-1.3,0.9c-0.7,0.2-1.2,0.2-1.6,0
		c-0.4-0.2-0.6-0.6-0.8-1L72.2,25.3z"/>
	<path class="st1" d="M74.8,19.4l0.8-0.2l0.2,0.9l-0.8,0.2L74.8,19.4z M75.3,21.1l0.8-0.2l1.1,4.5l-0.8,0.2L75.3,21.1z"/>
	<path class="st1" d="M80.2,20.1c0.3,0.1,0.6,0.2,0.8,0.5c0.2,0.2,0.4,0.5,0.5,0.8c0.1,0.2,0.2,0.5,0.3,1L78.4,23
		c0.1,0.5,0.3,0.8,0.6,1.1c0.3,0.2,0.6,0.3,1,0.2c0.4-0.1,0.7-0.3,0.9-0.6c0.1-0.2,0.2-0.4,0.2-0.6l0.8-0.2c0,0.2,0,0.4-0.1,0.6
		c-0.1,0.2-0.2,0.4-0.3,0.6c-0.2,0.3-0.4,0.5-0.8,0.6c-0.2,0.1-0.4,0.1-0.6,0.2c-0.6,0.1-1.1,0-1.6-0.3c-0.5-0.3-0.8-0.9-0.9-1.6
		c-0.1-0.7-0.1-1.4,0.2-1.9c0.3-0.5,0.8-0.9,1.4-1C79.6,20,79.9,20,80.2,20.1z M80.9,21.9c-0.1-0.3-0.2-0.6-0.4-0.8
		c-0.3-0.3-0.7-0.4-1.2-0.4c-0.4,0.1-0.6,0.3-0.8,0.6c-0.2,0.3-0.3,0.7-0.2,1.1L80.9,21.9z"/>
	<path class="st1" d="M82.5,19.6l0.7-0.1l0.1,0.8c0-0.2,0.2-0.4,0.4-0.6c0.2-0.3,0.5-0.4,0.8-0.5c0,0,0,0,0.1,0c0,0,0.1,0,0.2,0
		l0.1,0.8c0,0-0.1,0-0.1,0c0,0-0.1,0-0.1,0c-0.4,0.1-0.7,0.2-0.9,0.5c-0.2,0.3-0.2,0.6-0.2,0.9l0.4,2.7l-0.8,0.1L82.5,19.6z"/>
</g>
<g>
	<path class="st1" d="M36.5,151.3c0,0.4-0.1,0.9-0.5,1.4l-0.5-0.6c0.2-0.2,0.3-0.5,0.3-0.7c0-0.3-0.1-0.5-0.4-0.8
		c-0.4-0.4-0.8-0.4-1.3-0.3c-0.3,0.1-0.7,0.3-1,0.7c-0.3,0.3-0.6,0.7-0.6,1c-0.1,0.4,0,0.7,0.3,1c0.2,0.2,0.5,0.4,0.8,0.4
		c0.3,0,0.6-0.1,0.9-0.3l0.5,0.6c-0.5,0.4-1,0.5-1.4,0.5c-0.5-0.1-0.9-0.3-1.3-0.7c-0.4-0.4-0.6-1-0.5-1.5s0.3-1.1,0.8-1.6
		c0.6-0.6,1.2-0.9,1.8-0.9s1.1,0.2,1.6,0.6C36.3,150.5,36.5,150.9,36.5,151.3z"/>
	<path class="st1" d="M39.6,154.5c0,0.6-0.2,1.2-0.8,1.7c-0.5,0.6-1.1,0.9-1.7,1c-0.6,0.1-1.2-0.1-1.8-0.6c-0.5-0.4-0.7-0.9-0.7-1.5
		c0-0.6,0.3-1.1,0.8-1.7c0.5-0.6,1.1-0.9,1.7-1c0.6-0.1,1.2,0.1,1.7,0.6C39.3,153.4,39.5,153.9,39.6,154.5z M37.1,156.4
		c0.4-0.2,0.8-0.4,1.1-0.8c0.3-0.3,0.5-0.6,0.6-0.9c0.1-0.5,0-0.9-0.4-1.2c-0.4-0.3-0.7-0.4-1.1-0.3c-0.4,0.1-0.8,0.4-1.1,0.8
		c-0.3,0.4-0.5,0.7-0.6,1.1c-0.1,0.4,0.1,0.8,0.4,1.1C36.3,156.5,36.7,156.6,37.1,156.4z"/>
	<path class="st1" d="M40.7,154.9l0.6,0.5l-0.4,0.5c0.3-0.1,0.5-0.1,0.7-0.1c0.3,0,0.6,0.1,0.9,0.3c0.3,0.2,0.5,0.5,0.5,0.8
		c0,0.2,0,0.4,0,0.6c0.3-0.1,0.6-0.1,0.8,0c0.3,0.1,0.5,0.2,0.7,0.4c0.5,0.4,0.7,0.8,0.6,1.3c-0.1,0.3-0.2,0.6-0.5,0.9l-2,2.4
		l-0.6-0.5l2-2.6c0.2-0.2,0.3-0.5,0.2-0.7c0-0.2-0.2-0.4-0.3-0.5c-0.2-0.2-0.5-0.3-0.8-0.3c-0.3,0-0.6,0.2-0.9,0.6l-1.7,2.1
		l-0.6-0.5l1.9-2.4c0.2-0.2,0.3-0.5,0.3-0.6c0-0.2-0.1-0.5-0.3-0.7c-0.2-0.2-0.5-0.3-0.9-0.2c-0.3,0-0.7,0.3-1.1,0.8l-1.6,1.9
		l-0.6-0.5L40.7,154.9z"/>
	<path class="st1" d="M46.2,159.3l0.7,0.4l-0.4,0.6c0.3-0.1,0.5-0.1,0.7-0.1c0.3,0,0.6,0.1,0.9,0.3c0.3,0.2,0.5,0.5,0.6,0.7
		c0,0.2,0.1,0.4,0,0.6c0.3-0.1,0.6-0.2,0.8-0.1c0.3,0,0.5,0.1,0.8,0.3c0.5,0.4,0.8,0.8,0.7,1.3c0,0.3-0.2,0.6-0.4,0.9l-1.7,2.6
		l-0.7-0.5l1.8-2.7c0.2-0.3,0.2-0.5,0.2-0.7c-0.1-0.2-0.2-0.3-0.4-0.5c-0.3-0.2-0.5-0.2-0.8-0.2c-0.3,0-0.6,0.3-0.9,0.7l-1.5,2.3
		l-0.7-0.4l1.7-2.6c0.2-0.3,0.3-0.5,0.3-0.6c0-0.2-0.1-0.5-0.4-0.6c-0.2-0.2-0.5-0.2-0.9-0.2s-0.7,0.3-1,0.8l-1.4,2.1l-0.7-0.4
		L46.2,159.3z"/>
	<path class="st1" d="M52.1,163.2l0.7,0.4l-2.4,4l-0.7-0.4L52.1,163.2z M53,161.7l0.7,0.4l-0.5,0.8l-0.7-0.4L53,161.7z"/>
	<path class="st1" d="M54.3,162.9l0.7,0.4l-0.6,1.1l0.7,0.4l-0.3,0.6L54,165l-1.5,2.7c-0.1,0.1-0.1,0.3,0,0.4c0,0.1,0.1,0.1,0.2,0.2
		c0,0,0.1,0,0.1,0.1s0.1,0,0.1,0.1l-0.3,0.5c-0.1,0-0.2-0.1-0.3-0.1c-0.1,0-0.2-0.1-0.3-0.1c-0.3-0.2-0.5-0.4-0.5-0.6
		c0-0.2,0-0.5,0.2-0.7l1.5-2.7l-0.6-0.3l0.3-0.6l0.6,0.3L54.3,162.9z"/>
	<path class="st1" d="M56.1,163.9l0.7,0.4l-0.6,1.2l0.7,0.4l-0.3,0.6l-0.7-0.4l-1.4,2.7c-0.1,0.1-0.1,0.3,0,0.4
		c0,0.1,0.1,0.1,0.2,0.2c0,0,0.1,0,0.1,0.1c0,0,0.1,0,0.1,0.1l-0.3,0.6c-0.1,0-0.2,0-0.3-0.1s-0.2-0.1-0.3-0.1
		c-0.3-0.2-0.5-0.4-0.5-0.6c0-0.2,0-0.5,0.2-0.7l1.5-2.8l-0.6-0.3l0.3-0.6l0.6,0.3L56.1,163.9z"/>
	<path class="st1" d="M59.7,167.3c0.2,0.3,0.3,0.6,0.4,0.9c0,0.3,0,0.6-0.1,0.9c-0.1,0.2-0.2,0.5-0.4,1l-3.1-1.5
		c-0.2,0.4-0.3,0.8-0.2,1.2c0.1,0.4,0.3,0.6,0.7,0.8c0.4,0.2,0.7,0.2,1.1,0.1c0.2-0.1,0.4-0.2,0.5-0.4l0.7,0.3
		c-0.1,0.1-0.2,0.3-0.4,0.4c-0.2,0.1-0.4,0.2-0.6,0.3c-0.3,0.1-0.7,0.1-1,0c-0.2,0-0.4-0.1-0.6-0.2c-0.5-0.2-0.9-0.7-1.1-1.2
		s-0.1-1.2,0.2-1.9c0.3-0.7,0.8-1.1,1.3-1.4c0.6-0.2,1.2-0.2,1.7,0.1C59.2,166.8,59.5,167,59.7,167.3z M59.2,169.1
		c0.1-0.3,0.2-0.6,0.2-0.8c0-0.4-0.3-0.8-0.7-1c-0.3-0.2-0.7-0.2-1,0c-0.3,0.1-0.6,0.4-0.8,0.7L59.2,169.1z"/>
	<path class="st1" d="M63.6,169c0.1,0.1,0.2,0.3,0.3,0.6l0.9-2.2l0.7,0.3l-2.5,6l-0.7-0.3l0.2-0.6c-0.3,0.2-0.6,0.3-0.8,0.3
		c-0.3,0-0.6,0-0.9-0.1c-0.5-0.2-0.8-0.6-1-1.1c-0.2-0.6-0.1-1.2,0.1-1.8c0.3-0.6,0.6-1.1,1.2-1.5c0.5-0.3,1.1-0.4,1.7-0.1
		C63.2,168.6,63.4,168.8,63.6,169z M60.6,171.6c0.1,0.4,0.3,0.7,0.8,0.9c0.3,0.1,0.7,0.1,1-0.1s0.6-0.6,0.8-1.1
		c0.2-0.5,0.3-1,0.2-1.4c-0.1-0.4-0.3-0.6-0.7-0.7c-0.4-0.2-0.7-0.1-1.1,0.1c-0.3,0.2-0.6,0.6-0.9,1.1
		C60.6,170.8,60.6,171.2,60.6,171.6z"/>
	<path class="st1" d="M68,169.1l0.8,0.3l-0.4,1.2l0.7,0.2l-0.2,0.6l-0.7-0.2l-1,2.9c-0.1,0.2,0,0.3,0.1,0.4c0,0,0.1,0.1,0.3,0.1
		c0,0,0.1,0,0.1,0c0,0,0.1,0,0.2,0l-0.2,0.6c-0.1,0-0.2,0-0.3,0c-0.1,0-0.2,0-0.3-0.1c-0.3-0.1-0.6-0.3-0.6-0.5s0-0.5,0-0.8l1-3
		l-0.6-0.2l0.2-0.6l0.6,0.2L68,169.1z"/>
	<path class="st1" d="M72.6,172.4c0.3,0.5,0.3,1.1,0.1,1.9c-0.2,0.7-0.6,1.3-1,1.7c-0.5,0.4-1.1,0.5-1.8,0.2c-0.6-0.2-1-0.5-1.3-1.1
		c-0.2-0.5-0.3-1.1-0.1-1.9c0.2-0.8,0.6-1.3,1.1-1.6c0.5-0.3,1.1-0.4,1.7-0.2C71.8,171.5,72.3,171.9,72.6,172.4z M71.2,175.2
		c0.3-0.3,0.5-0.7,0.6-1.2c0.1-0.4,0.2-0.8,0.1-1.1c-0.1-0.5-0.4-0.8-0.9-0.9c-0.5-0.1-0.8-0.1-1.2,0.2c-0.3,0.3-0.5,0.7-0.7,1.2
		c-0.1,0.5-0.1,0.9,0,1.3c0.1,0.4,0.4,0.6,0.9,0.8C70.5,175.6,70.9,175.6,71.2,175.2z"/>
	<path class="st1" d="M78.7,173.3l0.9,0.2c-0.2,0.3-0.6,0.9-1.1,1.9c-0.4,0.7-0.8,1.3-1.1,1.8c-0.7,1.1-1.1,1.7-1.4,2
		c-0.2,0.2-0.6,0.3-1,0.2c-0.1,0-0.2,0-0.2-0.1c-0.1,0-0.1-0.1-0.2-0.1l0.1-0.7c0.1,0.1,0.2,0.1,0.3,0.1c0.1,0,0.1,0,0.2,0
		c0.1,0,0.3,0,0.3,0c0.1,0,0.1-0.1,0.2-0.1c0,0,0.1-0.1,0.2-0.3c0.1-0.2,0.2-0.3,0.3-0.4l-0.7-5.1l0.9,0.2l0.5,4L78.7,173.3z"/>
	<path class="st1" d="M83.1,174.5c0.4,0.5,0.5,1.1,0.4,1.9c-0.1,0.8-0.4,1.3-0.8,1.8c-0.4,0.4-1,0.6-1.8,0.5
		c-0.6-0.1-1.1-0.4-1.4-0.9c-0.3-0.5-0.4-1.1-0.3-1.8c0.1-0.8,0.4-1.4,0.9-1.8c0.5-0.4,1-0.6,1.7-0.5
		C82.3,173.7,82.8,174,83.1,174.5z M82.2,177.5c0.2-0.4,0.4-0.8,0.5-1.3c0.1-0.4,0-0.8,0-1.1c-0.2-0.5-0.5-0.7-1-0.8
		c-0.5-0.1-0.8,0.1-1.1,0.4c-0.3,0.3-0.4,0.8-0.5,1.3c-0.1,0.5,0,0.9,0.1,1.3c0.2,0.4,0.5,0.6,0.9,0.6
		C81.5,178,81.9,177.8,82.2,177.5z"/>
	<path class="st1" d="M85.1,174.2l-0.3,3.1c0,0.2,0,0.4,0.1,0.6c0.1,0.3,0.4,0.5,0.7,0.5c0.5,0,0.9-0.2,1.2-0.6
		c0.1-0.3,0.2-0.6,0.3-1.1l0.2-2.3l0.8,0.1l-0.4,4.7l-0.7-0.1l0.1-0.7c-0.1,0.2-0.3,0.3-0.4,0.4c-0.3,0.2-0.7,0.3-1.1,0.3
		c-0.7-0.1-1.1-0.3-1.3-0.8c-0.1-0.3-0.1-0.6-0.1-1l0.3-3.2L85.1,174.2z"/>
	<path class="st1" d="M88.9,174.5l0.8,0l0,0.8c0.1-0.2,0.2-0.3,0.5-0.6c0.3-0.2,0.5-0.3,0.8-0.3c0,0,0,0,0.1,0c0,0,0.1,0,0.2,0
		l0,0.8c0,0-0.1,0-0.1,0c0,0-0.1,0-0.1,0c-0.4,0-0.7,0.1-0.9,0.3c-0.2,0.2-0.3,0.5-0.4,0.9l-0.1,2.7l-0.8,0L88.9,174.5z"/>
	<path class="st1" d="M93.5,172.9l0.8,0l0,2.4c0.2-0.2,0.3-0.4,0.5-0.5c0.3-0.2,0.6-0.3,0.9-0.3c0.7,0,1.2,0.2,1.4,0.7
		c0.1,0.3,0.2,0.6,0.2,1.1l0.1,3l-0.8,0l-0.1-3c0-0.3-0.1-0.6-0.1-0.8c-0.1-0.3-0.4-0.4-0.8-0.4c-0.3,0-0.6,0.1-0.9,0.4
		c-0.3,0.2-0.4,0.7-0.4,1.3l0.1,2.5l-0.8,0L93.5,172.9z"/>
	<path class="st1" d="M101,174.5c0.3,0.1,0.6,0.3,0.8,0.6c0.2,0.2,0.3,0.5,0.4,0.8c0.1,0.2,0.1,0.6,0.1,1l-3.4,0.3
		c0.1,0.5,0.2,0.9,0.4,1.1c0.2,0.3,0.6,0.4,1,0.4c0.4,0,0.7-0.2,0.9-0.5c0.1-0.2,0.2-0.4,0.2-0.6l0.8-0.1c0,0.2-0.1,0.4-0.2,0.6
		c-0.1,0.2-0.2,0.4-0.3,0.5c-0.2,0.3-0.5,0.4-0.8,0.5c-0.2,0.1-0.4,0.1-0.6,0.1c-0.6,0-1.1-0.1-1.5-0.5c-0.4-0.4-0.7-1-0.7-1.7
		c-0.1-0.8,0.1-1.4,0.5-1.9c0.4-0.5,0.9-0.8,1.5-0.8C100.3,174.3,100.7,174.3,101,174.5z M101.4,176.3c-0.1-0.3-0.2-0.6-0.3-0.8
		c-0.2-0.4-0.6-0.5-1.1-0.5c-0.4,0-0.7,0.2-0.9,0.5c-0.2,0.3-0.3,0.6-0.3,1L101.4,176.3z"/>
	<path class="st1" d="M105.4,175.7c0.2,0,0.3-0.1,0.3-0.3c0-0.1,0-0.2,0-0.3c0-0.3-0.2-0.5-0.4-0.5c-0.2-0.1-0.5-0.1-0.8-0.1
		c-0.4,0.1-0.7,0.2-0.8,0.4c-0.1,0.1-0.1,0.3-0.1,0.6l-0.7,0.1c-0.1-0.6,0.1-1,0.4-1.3c0.3-0.3,0.7-0.4,1.2-0.5c0.5-0.1,1,0,1.4,0.1
		c0.4,0.2,0.6,0.5,0.6,0.9l0.4,2.7c0,0.1,0,0.1,0.1,0.2s0.1,0.1,0.2,0c0,0,0.1,0,0.1,0s0.1,0,0.1,0l0.1,0.6
		c-0.1,0.1-0.2,0.1-0.3,0.1c-0.1,0-0.1,0-0.3,0c-0.3,0-0.5,0-0.6-0.2c-0.1-0.1-0.1-0.2-0.2-0.4c-0.1,0.2-0.3,0.4-0.6,0.6
		c-0.3,0.2-0.6,0.3-1,0.4c-0.4,0.1-0.8,0-1.1-0.3c-0.3-0.2-0.5-0.5-0.5-0.9c-0.1-0.4,0-0.8,0.3-1.1c0.2-0.3,0.6-0.5,1-0.6
		L105.4,175.7z M104,178.1c0.2,0.1,0.4,0.1,0.6,0.1c0.3,0,0.5-0.1,0.8-0.3c0.4-0.3,0.6-0.6,0.5-1.1l-0.1-0.6
		c-0.1,0.1-0.2,0.1-0.3,0.2s-0.3,0.1-0.4,0.1l-0.5,0.1c-0.3,0.1-0.5,0.2-0.6,0.3c-0.2,0.2-0.3,0.4-0.3,0.7
		C103.7,177.8,103.8,177.9,104,178.1z"/>
	<path class="st1" d="M106.9,171.8l0.8-0.1l1.1,6.4l-0.8,0.1L106.9,171.8z"/>
	<path class="st1" d="M108.6,172l0.8-0.2l0.3,1.3l0.7-0.1l0.1,0.6l-0.7,0.1l0.6,3c0,0.2,0.1,0.3,0.2,0.3c0.1,0,0.2,0,0.3,0
		c0,0,0.1,0,0.1,0s0.1,0,0.1,0l0.1,0.6c-0.1,0-0.2,0.1-0.3,0.1c-0.1,0-0.2,0.1-0.3,0.1c-0.4,0.1-0.6,0-0.8-0.1
		c-0.2-0.2-0.3-0.4-0.3-0.7l-0.6-3.1l-0.6,0.1l-0.1-0.6l0.6-0.1L108.6,172z"/>
	<path class="st1" d="M110.3,171.2l0.8-0.2l0.6,2.3c0.1-0.3,0.3-0.5,0.4-0.6c0.2-0.2,0.5-0.4,0.9-0.5c0.7-0.2,1.2,0,1.5,0.4
		c0.2,0.2,0.3,0.6,0.4,1l0.7,2.9l-0.8,0.2l-0.7-2.9c-0.1-0.3-0.2-0.6-0.3-0.7c-0.2-0.2-0.5-0.3-0.9-0.2c-0.3,0.1-0.6,0.3-0.8,0.5
		c-0.2,0.3-0.2,0.7-0.1,1.3l0.6,2.4l-0.8,0.2L110.3,171.2z"/>
	<path class="st1" d="M120.2,172.2c0.2-0.1,0.3-0.2,0.3-0.3c0-0.1,0-0.2,0-0.3c-0.1-0.3-0.2-0.4-0.5-0.5c-0.2-0.1-0.5,0-0.8,0.1
		c-0.4,0.1-0.6,0.3-0.7,0.6c-0.1,0.1-0.1,0.3,0,0.6l-0.7,0.2c-0.2-0.6-0.1-1,0.2-1.3c0.3-0.3,0.6-0.6,1.1-0.7c0.5-0.2,1-0.2,1.4-0.1
		c0.4,0.1,0.7,0.4,0.8,0.8l0.8,2.6c0,0.1,0.1,0.1,0.1,0.2c0,0,0.1,0,0.2,0c0,0,0.1,0,0.1,0c0,0,0.1,0,0.1-0.1l0.2,0.6
		c-0.1,0.1-0.2,0.1-0.2,0.1c-0.1,0-0.1,0.1-0.2,0.1c-0.3,0.1-0.5,0.1-0.7-0.1c-0.1-0.1-0.2-0.2-0.3-0.4c-0.1,0.2-0.2,0.5-0.5,0.7
		s-0.5,0.4-0.9,0.5c-0.4,0.1-0.8,0.1-1.1,0c-0.3-0.2-0.6-0.4-0.7-0.8c-0.1-0.4-0.1-0.8,0.1-1.1c0.2-0.3,0.5-0.6,0.9-0.8L120.2,172.2
		z M119.2,174.8c0.2,0.1,0.4,0.1,0.6,0c0.3-0.1,0.5-0.2,0.7-0.4c0.4-0.3,0.5-0.7,0.3-1.2l-0.2-0.6c-0.1,0.1-0.2,0.2-0.3,0.3
		s-0.3,0.2-0.4,0.2l-0.4,0.2c-0.3,0.1-0.4,0.2-0.6,0.4c-0.2,0.2-0.2,0.5-0.1,0.7C118.9,174.6,119,174.7,119.2,174.8z"/>
	<path class="st1" d="M121.5,169.8l0.7-0.3l0.2,0.6c0.1-0.3,0.3-0.6,0.4-0.8c0.2-0.2,0.4-0.4,0.7-0.5c0.6-0.2,1.1-0.2,1.5,0.2
		c0.2,0.2,0.4,0.5,0.6,0.9l1.1,2.8l-0.7,0.3l-1.1-2.8c-0.1-0.3-0.2-0.5-0.4-0.6c-0.2-0.2-0.5-0.3-0.9-0.1c-0.2,0.1-0.3,0.1-0.4,0.2
		c-0.2,0.1-0.3,0.3-0.4,0.6c-0.1,0.2-0.1,0.4-0.1,0.5c0,0.2,0.1,0.4,0.2,0.7l0.9,2.3l-0.7,0.3L121.5,169.8z"/>
	<path class="st1" d="M128.1,167.2c0.2,0,0.4,0.1,0.6,0.2l-1-2.2l0.7-0.3l2.7,5.9l-0.6,0.3l-0.3-0.6c0,0.3-0.2,0.6-0.3,0.8
		s-0.4,0.4-0.7,0.5c-0.5,0.2-1,0.2-1.5,0c-0.5-0.2-0.9-0.7-1.3-1.4c-0.3-0.6-0.4-1.2-0.3-1.8c0.1-0.6,0.5-1,1-1.3
		C127.6,167.2,127.9,167.1,128.1,167.2z M128,171.1c0.3,0.2,0.7,0.2,1.1,0c0.3-0.2,0.5-0.4,0.6-0.8s0-0.8-0.2-1.4
		c-0.2-0.5-0.5-0.9-0.9-1c-0.3-0.2-0.7-0.2-1,0c-0.4,0.2-0.6,0.4-0.7,0.8c-0.1,0.4,0,0.8,0.2,1.4C127.4,170.6,127.7,170.9,128,171.1
		z"/>
	<path class="st1" d="M134.1,164.1c0.2,0,0.4,0.1,0.6,0.2l-0.3-0.5l0.6-0.4l2.1,3.7c0.3,0.5,0.4,1,0.5,1.4c0,0.7-0.4,1.3-1.1,1.7
		c-0.4,0.2-0.9,0.4-1.3,0.3c-0.4,0-0.8-0.2-1-0.6l0.7-0.4c0.1,0.2,0.3,0.3,0.4,0.3c0.2,0.1,0.5,0,0.9-0.2c0.5-0.3,0.8-0.7,0.7-1.1
		c0-0.3-0.2-0.7-0.5-1.3c0,0.3-0.1,0.5-0.2,0.7s-0.4,0.4-0.7,0.6c-0.4,0.2-0.9,0.3-1.4,0.2c-0.5-0.1-1-0.6-1.4-1.3
		c-0.4-0.7-0.5-1.3-0.4-1.9c0.1-0.6,0.4-1,0.9-1.3C133.5,164.2,133.8,164.1,134.1,164.1z M134.6,164.8c-0.3-0.1-0.7-0.1-1,0.1
		c-0.5,0.3-0.7,0.7-0.6,1.2c0,0.3,0.2,0.6,0.4,1c0.3,0.5,0.6,0.8,0.9,0.9c0.3,0.1,0.6,0.1,1-0.1c0.5-0.3,0.7-0.7,0.7-1.3
		c0-0.3-0.1-0.6-0.3-1C135.3,165.3,135,165,134.6,164.8z"/>
	<path class="st1" d="M135.7,163l0.6-0.4l0.4,0.7c0-0.2,0-0.4,0.1-0.7c0.1-0.3,0.3-0.6,0.5-0.7c0,0,0,0,0.1,0s0.1,0,0.2-0.1l0.4,0.7
		c0,0-0.1,0-0.1,0.1c0,0-0.1,0-0.1,0.1c-0.3,0.2-0.5,0.5-0.6,0.8c0,0.3,0,0.6,0.2,0.9l1.4,2.3l-0.7,0.4L135.7,163z"/>
	<path class="st1" d="M141,160.1c0.6,0.1,1.1,0.5,1.5,1.1c0.4,0.6,0.6,1.2,0.6,1.9s-0.4,1.1-1,1.6c-0.5,0.4-1.1,0.5-1.6,0.3
		s-1-0.5-1.5-1.1c-0.4-0.7-0.6-1.3-0.6-1.9c0.1-0.6,0.4-1.1,0.9-1.5C139.9,160.1,140.4,160,141,160.1z M142.3,162.9
		c-0.1-0.4-0.2-0.9-0.5-1.3c-0.2-0.4-0.5-0.6-0.8-0.8c-0.4-0.2-0.9-0.2-1.3,0.1c-0.4,0.3-0.6,0.6-0.5,1c0,0.4,0.2,0.9,0.5,1.3
		c0.3,0.4,0.6,0.7,1,0.8s0.7,0.1,1.1-0.2C142.2,163.7,142.4,163.4,142.3,162.9z"/>
	<path class="st1" d="M141.9,158.8l3,2.4l-1.6-3.5l0.7-0.5l3,2.3l-1.5-3.5l0.6-0.5l1.8,4.5l-0.6,0.5l-3-2.3l1.5,3.4l-0.6,0.5l-4-2.9
		L141.9,158.8z"/>
	<path class="st1" d="M145.6,154.2l0.6-0.5l0.9,1l0.6-0.5l0.4,0.5l-0.6,0.5l2,2.3c0.1,0.1,0.2,0.2,0.3,0.1c0.1,0,0.2-0.1,0.3-0.2
		c0,0,0.1-0.1,0.1-0.1c0,0,0.1-0.1,0.1-0.1l0.4,0.5c-0.1,0.1-0.1,0.2-0.2,0.2c-0.1,0.1-0.1,0.1-0.2,0.2c-0.3,0.2-0.5,0.3-0.8,0.3
		s-0.4-0.2-0.6-0.4l-2-2.4l-0.5,0.4l-0.4-0.5l0.5-0.4L145.6,154.2z"/>
	<path class="st1" d="M146.7,152.6l0.6-0.5l1.7,1.8c0-0.3,0-0.5,0-0.7c0.1-0.3,0.2-0.6,0.5-0.8c0.5-0.5,1-0.6,1.5-0.4
		c0.3,0.1,0.6,0.3,0.9,0.7l2.1,2.2l-0.6,0.6l-2-2.2c-0.2-0.3-0.4-0.4-0.6-0.5c-0.3-0.1-0.6,0-0.9,0.3c-0.2,0.2-0.4,0.5-0.4,0.9
		s0.2,0.7,0.6,1.2l1.7,1.8l-0.6,0.5L146.7,152.6z"/>
	<path class="st1" d="M154,153.8l-0.5-4.4l-1.8,1.9l-0.5-0.5l2.5-2.6l0.5,0.4l0.5,4.3l2-2.1l0.5,0.5l-2.7,2.9L154,153.8z"/>
</g>
<g>
	<path class="st1" d="M55.9,151.3l-1.6,5.1l3.9-3.8l0.8,0.5l-1.4,5.3l3.7-3.9l0.8,0.5l-4.8,4.7l-0.8-0.5l1.5-5.4l-4,3.8l-0.8-0.5
		l1.8-6.4L55.9,151.3z"/>
	<path class="st1" d="M62.6,155.1l0.7,0.3l-1,2.2c0.3-0.1,0.5-0.2,0.7-0.2c0.3,0,0.6,0,1,0.2c0.6,0.3,0.9,0.7,1,1.2
		c0,0.3-0.1,0.6-0.3,1.1l-1.3,2.7l-0.7-0.3l1.3-2.7c0.1-0.3,0.2-0.6,0.2-0.7c0-0.3-0.2-0.5-0.6-0.7c-0.3-0.1-0.6-0.2-1-0.1
		c-0.3,0.1-0.6,0.4-0.9,1l-1.1,2.3l-0.7-0.3L62.6,155.1z"/>
	<path class="st1" d="M66.3,158.8l0.7,0.3l-1.8,4.3l-0.7-0.3L66.3,158.8z M67,157.2l0.7,0.3l-0.3,0.8l-0.7-0.3L67,157.2z"/>
	<path class="st1" d="M68.8,158.4l0.7,0.3l-0.5,1.2l0.7,0.3l-0.2,0.6l-0.7-0.3l-1.1,2.9c-0.1,0.2,0,0.3,0,0.4c0,0.1,0.1,0.1,0.3,0.2
		c0,0,0.1,0,0.1,0c0,0,0.1,0,0.1,0l-0.2,0.6c-0.1,0-0.2,0-0.3,0c-0.1,0-0.2-0.1-0.3-0.1c-0.3-0.1-0.5-0.3-0.6-0.5
		c-0.1-0.2,0-0.5,0.1-0.8l1.1-2.9l-0.6-0.2l0.2-0.6l0.6,0.2L68.8,158.4z"/>
	<path class="st1" d="M74.8,163.7c0.2,0,0.3,0,0.4-0.1c0.1-0.1,0.1-0.2,0.1-0.3c0.1-0.3,0-0.5-0.1-0.6c-0.2-0.2-0.4-0.3-0.7-0.4
		c-0.4-0.1-0.7-0.1-0.9,0.1c-0.1,0.1-0.2,0.3-0.3,0.5l-0.7-0.2c0.2-0.6,0.5-0.9,0.9-1c0.4-0.1,0.8-0.1,1.3,0
		c0.5,0.1,0.9,0.4,1.2,0.7c0.3,0.3,0.4,0.7,0.2,1.1l-0.7,2.6c0,0.1,0,0.1,0,0.2c0,0.1,0.1,0.1,0.2,0.1c0,0,0.1,0,0.1,0
		c0,0,0.1,0,0.1,0l-0.2,0.6c-0.1,0-0.2,0-0.3,0c-0.1,0-0.1,0-0.3-0.1c-0.3-0.1-0.4-0.2-0.5-0.4c0-0.1,0-0.3,0-0.5
		c-0.2,0.2-0.5,0.3-0.8,0.3c-0.3,0.1-0.7,0.1-1,0c-0.4-0.1-0.7-0.3-0.9-0.7c-0.2-0.3-0.2-0.7-0.1-1.1c0.1-0.4,0.3-0.7,0.7-0.9
		s0.7-0.2,1.2-0.1L74.8,163.7z M72.6,165.3c0.1,0.2,0.3,0.3,0.5,0.3c0.3,0.1,0.5,0.1,0.8,0c0.5-0.1,0.8-0.4,0.9-0.8l0.2-0.6
		c-0.1,0-0.2,0-0.4,0c-0.2,0-0.3,0-0.5,0l-0.5-0.1c-0.3,0-0.5,0-0.7,0c-0.3,0.1-0.4,0.2-0.5,0.5C72.4,164.9,72.5,165.1,72.6,165.3z"
		/>
	<path class="st1" d="M83.1,163.8c0.3,0.3,0.4,0.8,0.4,1.4l-0.8-0.1c0-0.3-0.1-0.5-0.2-0.8c-0.1-0.2-0.4-0.4-0.7-0.4
		c-0.5-0.1-0.9,0.1-1.2,0.5c-0.2,0.3-0.3,0.7-0.4,1.1c-0.1,0.5,0,0.9,0.1,1.2c0.1,0.4,0.4,0.6,0.8,0.6c0.3,0.1,0.6,0,0.8-0.2
		s0.4-0.4,0.5-0.7l0.8,0.1c-0.2,0.6-0.5,1-0.9,1.2c-0.4,0.2-0.9,0.3-1.4,0.2c-0.6-0.1-1.1-0.4-1.3-0.9c-0.3-0.5-0.4-1.1-0.3-1.8
		c0.1-0.8,0.4-1.4,0.9-1.8c0.5-0.4,1-0.5,1.6-0.4C82.4,163.3,82.8,163.5,83.1,163.8z"/>
	<path class="st1" d="M86.8,165.8c0.2,0,0.3-0.1,0.4-0.2c0-0.1,0.1-0.2,0.1-0.3c0-0.3,0-0.5-0.2-0.6s-0.4-0.2-0.8-0.3
		c-0.4,0-0.7,0-0.9,0.2c-0.1,0.1-0.2,0.3-0.2,0.5l-0.7-0.1c0.1-0.6,0.3-1,0.7-1.2c0.4-0.2,0.8-0.3,1.3-0.2c0.6,0.1,1,0.2,1.3,0.5
		c0.3,0.2,0.5,0.6,0.4,1l-0.3,2.7c0,0.1,0,0.1,0,0.2s0.1,0.1,0.2,0.1c0,0,0.1,0,0.1,0s0.1,0,0.1,0l-0.1,0.6c-0.1,0-0.2,0-0.3,0
		c-0.1,0-0.2,0-0.3,0c-0.3,0-0.5-0.1-0.6-0.3c-0.1-0.1-0.1-0.3-0.1-0.4c-0.2,0.2-0.4,0.4-0.7,0.5c-0.3,0.1-0.7,0.2-1,0.1
		c-0.4,0-0.8-0.2-1-0.5c-0.2-0.3-0.4-0.6-0.3-1c0-0.4,0.2-0.8,0.5-1c0.3-0.2,0.7-0.3,1.1-0.3L86.8,165.8z M84.9,167.8
		c0.2,0.1,0.3,0.2,0.6,0.3c0.3,0,0.6,0,0.8-0.1c0.5-0.2,0.7-0.5,0.8-1l0.1-0.6c-0.1,0.1-0.2,0.1-0.4,0.1c-0.2,0-0.3,0-0.5,0l-0.5,0
		c-0.3,0-0.5,0-0.7,0.1c-0.3,0.1-0.4,0.3-0.4,0.6C84.7,167.4,84.8,167.6,84.9,167.8z"/>
	<path class="st1" d="M89.3,164.2l0.8,0l0,0.6c0.2-0.2,0.3-0.4,0.5-0.5c0.3-0.2,0.6-0.2,1-0.2c0.5,0,1,0.2,1.3,0.7s0.5,1,0.5,1.8
		c0,1-0.3,1.7-0.9,2.2c-0.4,0.3-0.8,0.4-1.2,0.4c-0.4,0-0.7-0.1-0.9-0.3c-0.1-0.1-0.3-0.2-0.5-0.5l-0.1,2.4l-0.8,0L89.3,164.2z
		 M92.2,168c0.3-0.3,0.4-0.8,0.4-1.4c0-0.4,0-0.7-0.1-1c-0.2-0.5-0.6-0.8-1.1-0.8c-0.5,0-0.9,0.2-1.2,0.8c-0.1,0.3-0.2,0.7-0.2,1.1
		c0,0.4,0,0.7,0.1,0.9c0.2,0.5,0.6,0.7,1.1,0.8C91.6,168.4,91.9,168.3,92.2,168z"/>
	<path class="st1" d="M96.9,166.1c0.2,0,0.3-0.1,0.4-0.2c0-0.1,0-0.2,0-0.3c0-0.3-0.1-0.5-0.3-0.6c-0.2-0.1-0.5-0.2-0.8-0.2
		c-0.4,0-0.7,0.1-0.9,0.4c-0.1,0.1-0.1,0.3-0.2,0.6l-0.7,0c0-0.6,0.2-1,0.5-1.2c0.4-0.2,0.8-0.4,1.2-0.4c0.6,0,1,0.1,1.4,0.3
		c0.3,0.2,0.5,0.5,0.5,1l0.1,2.7c0,0.1,0,0.1,0.1,0.2c0,0,0.1,0.1,0.2,0.1c0,0,0.1,0,0.1,0s0.1,0,0.1,0l0,0.6
		c-0.1,0-0.2,0.1-0.3,0.1c-0.1,0-0.2,0-0.3,0c-0.3,0-0.5-0.1-0.6-0.3c-0.1-0.1-0.1-0.2-0.2-0.4c-0.2,0.2-0.4,0.4-0.7,0.6
		c-0.3,0.2-0.6,0.3-1,0.3c-0.4,0-0.8-0.1-1.1-0.4s-0.4-0.6-0.5-1c0-0.4,0.1-0.8,0.4-1c0.3-0.2,0.6-0.4,1.1-0.5L96.9,166.1z
		 M95.3,168.3c0.2,0.1,0.4,0.2,0.6,0.2c0.3,0,0.5-0.1,0.8-0.2c0.4-0.2,0.6-0.6,0.6-1.1l0-0.6c-0.1,0.1-0.2,0.1-0.4,0.2
		s-0.3,0.1-0.4,0.1l-0.5,0.1c-0.3,0-0.5,0.1-0.6,0.2c-0.2,0.1-0.4,0.4-0.3,0.7C95.1,168,95.2,168.1,95.3,168.3z"/>
	<path class="st1" d="M99,162.3l0.8-0.1l0.2,2.3c0.1-0.2,0.3-0.4,0.6-0.6c0.2-0.1,0.5-0.2,0.8-0.3c0.6-0.1,1.1,0.1,1.5,0.5
		s0.7,0.9,0.7,1.7c0.1,0.7,0,1.4-0.3,1.9c-0.3,0.5-0.8,0.8-1.4,0.9c-0.4,0-0.7,0-0.9-0.2c-0.2-0.1-0.3-0.2-0.5-0.4l0.1,0.6l-0.7,0.1
		L99,162.3z M102.6,167.4c0.2-0.4,0.2-0.8,0.2-1.4c-0.1-0.5-0.2-0.9-0.4-1.2c-0.2-0.3-0.6-0.4-1-0.4c-0.4,0-0.7,0.2-0.9,0.5
		c-0.2,0.3-0.3,0.7-0.3,1.4c0,0.4,0.1,0.8,0.3,1.1c0.3,0.5,0.7,0.7,1.2,0.7C102.1,168,102.4,167.8,102.6,167.4z"/>
	<path class="st1" d="M104,161.8l0.8-0.1l1,6.4l-0.8,0.1L104,161.8z"/>
	<path class="st1" d="M109,162.8c0.3,0.1,0.6,0.2,0.8,0.5c0.2,0.2,0.4,0.5,0.5,0.8c0.1,0.2,0.2,0.5,0.3,1l-3.4,0.7
		c0.1,0.5,0.3,0.8,0.6,1.1c0.3,0.2,0.6,0.3,1,0.2c0.4-0.1,0.7-0.3,0.9-0.6c0.1-0.2,0.2-0.4,0.2-0.6l0.8-0.2c0,0.2,0,0.4-0.1,0.6
		c-0.1,0.2-0.2,0.4-0.3,0.6c-0.2,0.3-0.4,0.5-0.8,0.6c-0.2,0.1-0.4,0.2-0.6,0.2c-0.6,0.1-1.1,0-1.6-0.3c-0.5-0.3-0.8-0.9-1-1.6
		c-0.2-0.7-0.1-1.4,0.2-1.9c0.3-0.5,0.8-0.9,1.4-1C108.4,162.7,108.7,162.7,109,162.8z M109.7,164.5c-0.1-0.3-0.2-0.6-0.4-0.8
		c-0.3-0.3-0.7-0.4-1.2-0.3c-0.4,0.1-0.6,0.3-0.8,0.6c-0.2,0.3-0.2,0.7-0.2,1.1L109.7,164.5z"/>
	<path class="st1" d="M113.2,160.2l0.8-0.2l0.4,1.3l0.7-0.2l0.2,0.6l-0.7,0.2l0.9,2.9c0,0.2,0.1,0.2,0.3,0.3c0.1,0,0.2,0,0.3,0
		c0,0,0.1,0,0.1,0c0,0,0.1,0,0.1-0.1l0.2,0.6c-0.1,0.1-0.2,0.1-0.3,0.1c-0.1,0-0.2,0.1-0.3,0.1c-0.4,0.1-0.6,0.1-0.8-0.1
		c-0.2-0.1-0.3-0.4-0.4-0.6l-0.9-3l-0.6,0.2l-0.2-0.6l0.6-0.2L113.2,160.2z"/>
	<path class="st1" d="M118.6,159.9c0.3,0,0.6,0.2,0.9,0.3c0.2,0.2,0.4,0.4,0.6,0.7c0.1,0.2,0.3,0.5,0.4,1l-3.2,1.2
		c0.2,0.4,0.4,0.8,0.7,1c0.3,0.2,0.6,0.2,1.1,0.1c0.4-0.1,0.6-0.4,0.8-0.7c0.1-0.2,0.1-0.4,0.1-0.6l0.7-0.3c0,0.2,0,0.4,0,0.6
		c0,0.2-0.1,0.4-0.2,0.6c-0.1,0.3-0.4,0.5-0.7,0.7c-0.2,0.1-0.4,0.2-0.6,0.3c-0.5,0.2-1.1,0.2-1.6-0.1c-0.5-0.3-0.9-0.8-1.2-1.5
		c-0.3-0.7-0.3-1.4,0-1.9c0.2-0.6,0.6-1,1.3-1.2C117.9,159.9,118.2,159.9,118.6,159.9z M119.4,161.6c-0.1-0.3-0.3-0.5-0.5-0.7
		c-0.3-0.3-0.7-0.3-1.2-0.2c-0.3,0.1-0.6,0.3-0.7,0.7c-0.1,0.3-0.2,0.7,0,1.1L119.4,161.6z"/>
	<path class="st1" d="M123.5,159.8c0.2-0.1,0.2-0.2,0.2-0.4c0-0.1,0-0.2-0.1-0.3c-0.1-0.2-0.3-0.4-0.5-0.4c-0.2,0-0.5,0-0.8,0.2
		c-0.4,0.2-0.6,0.4-0.7,0.7c0,0.2,0,0.3,0.1,0.6l-0.7,0.3c-0.2-0.5-0.2-1,0-1.3c0.2-0.4,0.6-0.6,1-0.8c0.5-0.2,1-0.3,1.4-0.3
		c0.4,0.1,0.7,0.3,0.9,0.7l1.1,2.5c0,0.1,0.1,0.1,0.1,0.2c0,0,0.1,0,0.2,0c0,0,0.1,0,0.1-0.1c0,0,0.1,0,0.1-0.1l0.2,0.5
		c-0.1,0.1-0.2,0.1-0.2,0.2s-0.1,0.1-0.2,0.1c-0.2,0.1-0.5,0.1-0.7,0c-0.1-0.1-0.2-0.2-0.3-0.3c-0.1,0.3-0.2,0.5-0.4,0.8
		c-0.2,0.3-0.5,0.5-0.8,0.6c-0.4,0.2-0.8,0.2-1.1,0.1c-0.4-0.1-0.6-0.4-0.8-0.7c-0.2-0.4-0.2-0.8,0-1.1c0.2-0.3,0.4-0.6,0.8-0.8
		L123.5,159.8z M122.8,162.4c0.2,0.1,0.4,0,0.6-0.1c0.3-0.1,0.5-0.3,0.7-0.5c0.3-0.4,0.4-0.8,0.2-1.2L124,160
		c-0.1,0.1-0.2,0.2-0.3,0.3c-0.1,0.1-0.2,0.2-0.4,0.3l-0.4,0.2c-0.2,0.2-0.4,0.3-0.5,0.4c-0.2,0.2-0.2,0.5-0.1,0.8
		C122.5,162.2,122.6,162.3,122.8,162.4z"/>
	<path class="st1" d="M125,157.1l0.7-0.4l0.3,0.6c0.1-0.3,0.1-0.5,0.2-0.7c0.1-0.3,0.4-0.5,0.6-0.7c0.3-0.2,0.6-0.2,0.9-0.2
		c0.2,0,0.3,0.1,0.5,0.2c0-0.3,0.1-0.6,0.3-0.8c0.1-0.2,0.4-0.4,0.6-0.5c0.6-0.3,1-0.3,1.5,0c0.2,0.2,0.4,0.4,0.6,0.8l1.5,2.7
		l-0.7,0.4l-1.6-2.9c-0.2-0.3-0.3-0.4-0.5-0.5c-0.2,0-0.4,0-0.6,0.1c-0.3,0.2-0.5,0.4-0.6,0.7c-0.1,0.3,0,0.6,0.2,1.1l1.3,2.4
		l-0.7,0.4l-1.5-2.7c-0.2-0.3-0.3-0.5-0.4-0.6c-0.2-0.1-0.5-0.1-0.7,0c-0.3,0.1-0.4,0.4-0.5,0.7c-0.1,0.3,0,0.7,0.3,1.3l1.2,2.2
		l-0.7,0.4L125,157.1z"/>
</g>
</svg>
