<?xml version="1.0" encoding="utf-8"?>
<!-- Generator: Adobe Illustrator 23.0.1, SVG Export Plug-In . SVG Version: 6.00 Build 0)  -->
<svg version="1.1" id="Layer_1" xmlns="http://www.w3.org/2000/svg" xmlns:xlink="http://www.w3.org/1999/xlink" x="0px" y="0px"
	 viewBox="0 0 113.4 50.8" style="enable-background:new 0 0 113.4 50.8;" xml:space="preserve">
<style type="text/css">
	.st0{fill:#D4A453;}
</style>
<title>lala-centro</title>
<g>
	<g>
		<path class="st0" d="M111.7,8.9c-0.8-0.7-2.8,1.6-3.7,1.9c-0.2,0.1-0.5,0-0.6-0.2c-0.3-0.5-1-1.5-1.7-2.4
			c-1.5-1.8-4.1-3.6-5.6-2.7c-2.5,1.2,1,5.9,0.9,7s-2.3,2.5-1.1,4.2c1.1,1.7,5.5-1.5,7.1-0.2c0.3,0.2,0.5,0.2,0.8-0.1
			C109.6,14.8,112.4,9.4,111.7,8.9z M106.7,15.9c-2-1-5.1,1.2-5.5-0.2c-0.6-1.8,4.1-3.6,5.8-0.2C107.2,15.8,107,16,106.7,15.9z
			 M107.1,14.8c-0.9-1.5-2.9-2.4-4.3-3c-1.7-0.9-2.4-2.7-1.6-3.5c1.2-1.4,5.8,1.4,6.3,6.4C107.5,15.1,107.3,15.1,107.1,14.8z"/>
		<path class="st0" d="M102.3,18.4c3.5-0.5,4.3,2.6,7.6-2C106.8,18.4,105.8,15,102.3,18.4z M103.1,18c2.3-1,3.4,0.2,5-0.5
			C106.1,18.6,105.3,17.2,103.1,18z"/>
	</g>
	<path class="st0" d="M93.3,9.4h0.3c0.2,0,0.5,0,0.5,0.1c0.1,0.1,0.2,0.3,0.2,0.6v0.2v0.1l0,0l0,0h0.5l0,0v-0.1c0-0.1,0-0.1,0-0.2
		V9.9c0-0.1,0-0.2-0.1-0.5c-0.1-0.1-0.2-0.2-0.5-0.2c0.1,0,0.3-0.1,0.3-0.1c0.1-0.1,0.2-0.2,0.2-0.6S94.6,8,94.3,7.9
		c-0.1-0.1-0.3-0.1-0.7-0.1h-0.9l0,0v2.6h0.5V9.4H93.3z M93.3,8.2h0.3c0.2,0,0.5,0,0.6,0.1c0.1,0.1,0.2,0.2,0.2,0.3
		c0,0.2-0.1,0.3-0.2,0.5c-0.1,0-0.2,0.1-0.5,0.1h-0.5V8.2z M52.6,36.9L52.6,36.9c3.6-0.9,5-2.3,5.3-3.7c0.8,2.4,4,3.2,9,1.1
		c6.7-2.7,19-8.6,23.7-2.5l0,0c6-1.5,5.8-4.3,5.1-6.6C94.2,20.6,91,12.6,91,12.6c-0.9-2.4-2.8-3.8-5.3-3.5c-2,0.2-4.1,0.6-4.1,0.6
		c-1.9,0.3-3.3,1.5-4.5,4.2L70.8,27l0,0c2.5-1.5,4.6-3.2,7.7-4.7c0.7-0.3,1.4-0.8,1.7-1.6c0,0,2.6-6.3,2.8-7
		c0.2-0.7,0.7-1.4,1.1-1.4c0.3,0,0.8,0.3,1,1.2c0.2,0.7,2.7,9.4,2.8,10.1l0,0c-7.9-2.4-13.4,4.5-19.7,7.5c-2.4,1.1-3.3-0.2-2.9-2
		s2.8-14.3,2.8-14.3c0.1-0.8,0-1.5-0.5-1.9c-0.6-0.7-1.6-0.9-2.7-0.8l-3.7,0.6l0,0l-3.4,18.4l0,0c0-0.1-0.1-0.3-0.1-0.5
		c-1.6-4.6-4.7-12.7-4.7-12.7c-0.9-2.4-2.8-3.8-5.3-3.5c-2,0.2-4.1,0.6-4.1,0.6c-1.9,0.3-3.3,1.5-4.5,4.2l-6.3,13.1l0,0
		c2.5-1.5,4.6-3.2,7.7-4.7c0.7-0.3,1.4-0.8,1.7-1.6c0,0,2.6-6.3,2.8-7c0.2-0.7,0.7-1.4,1.1-1.4c0.3,0,0.8,0.3,1,1.2
		c0.2,0.7,2.7,9.4,2.8,10.1l0,0c-7.9-2.4-13.4,4.5-19.7,7.5c-2.4,1.1-3.3-0.2-2.9-2c0.3-1.8,2.8-14.3,2.8-14.3
		c0.1-0.8,0-1.5-0.5-1.9c-0.6-0.7-1.6-0.9-2.7-0.8l-3.7,0.6l0,0L20,36.1c-0.7,4.2,2.6,6.1,9.1,3.5C35.6,36.8,47.9,30.8,52.6,36.9z
		 M89.6,27L89.6,27c-0.9-1.5-5.8-2.3-9.8-1.4l0,0C82.1,24.2,89.8,23.5,89.6,27z M41.7,30.8L41.7,30.8c2.4-1.4,10.1-2.3,9.8,1.4l0,0
		C50.6,30.7,45.7,29.9,41.7,30.8z M92.4,11.1c0.2,0.2,0.6,0.3,0.9,0.3c0.9,0.1,1.7-0.2,2.4-1c0.2-0.2,0.3-0.6,0.5-1
		c0.1-1-0.2-1.7-0.9-2.4c-0.2-0.2-0.6-0.3-0.9-0.5c-1-0.1-1.8,0.2-2.4,1c-0.2,0.2-0.3,0.6-0.3,0.9C91.4,9.8,91.6,10.6,92.4,11.1z
		 M92.5,7.6c0.3-0.3,0.8-0.5,1.2-0.5c0.5,0,0.9,0.1,1.2,0.5c0.6,0.5,0.8,1.1,0.7,1.9c-0.1,0.5-0.2,0.8-0.6,1.1s-0.8,0.6-1.2,0.6
		c-0.7,0.1-1.5-0.2-1.8-0.8c-0.2-0.2-0.3-0.6-0.3-0.9C91.7,8.8,91.9,8.1,92.5,7.6z"/>
	<path class="st0" d="M92,36.4c-0.7,0.5-1.4,0.9-2,1.2L89.4,38c-0.2,0.1-0.3,0.2-0.6,0.3l-0.6,0.3c-0.2,0.1-0.3,0.2-0.6,0.2
		c-1.4,0.8-2.9,1.4-4.4,1.9c-2.9,1.1-6.1,1.9-9.3,2.4c-3.2,0.6-6.3,0.8-9.6,0.9c-3.2,0.1-6.4,0-9.6-0.2c-1.6-0.1-3.2-0.3-4.9-0.5
		c-1.6-0.2-3.2-0.5-4.7-0.7c-1.6-0.2-3.2-0.6-4.7-0.9c-0.8-0.1-1.6-0.3-2.4-0.6c-0.8-0.2-1.6-0.3-2.4-0.6c1.5,0.6,3,1,4.6,1.5
		c1.6,0.5,3.2,0.8,4.7,1.1c3.2,0.7,6.4,1.2,9.6,1.6L56,45l1.2,0.1c0.8,0.1,1.6,0.1,2.5,0.1c1.6,0.1,3.3,0.1,4.9,0.1
		c1.6,0,3.3-0.1,4.9-0.2c1.6-0.1,3.3-0.3,4.9-0.6c3.3-0.6,6.4-1.4,9.5-2.6c3-1.2,6-2.7,8.6-4.7c1.4-1,2.6-2,3.7-3.2s2.3-2.4,3.2-3.7
		c1.9-2.6,3.5-5.5,4.6-8.6c-1.5,2.9-3,5.6-5.2,8.1C97,32.5,94.6,34.6,92,36.4z"/>
	<path class="st0" d="M13.4,31.7c-1.4-0.7-2.8-1.2-4.3-1.6C7.5,29.9,6,30,4.5,30.3c-0.5,0.1-0.8,0.2-1.1,0.5C3,31,2.7,31.3,2.5,31.6
		c-0.6,0.6-0.8,1.5-0.8,2.1l0,0l0,0c0.2-0.7,0.6-1.4,1.1-1.8c0.2-0.2,0.6-0.3,0.9-0.5s0.7-0.2,1-0.3c1.4-0.2,2.8-0.3,4.3-0.2
		c1.5,0.2,2.8,0.7,4.2,1.2c1.4,0.6,2.7,1.4,4,2c0,0,0,0,0.1,0c0,0,0,0,0-0.1C15.9,33.3,14.8,32.5,13.4,31.7z"/>
</g>
</svg>
