<svg xmlns="http://www.w3.org/2000/svg" viewBox="0 0 78.61 121.73"><defs><style>.cls-1{font-size:8.83px;font-family:FiraSans-Medium, Fira Sans;letter-spacing:-0.02em;}.cls-1,.cls-5{fill:#59b169;}.cls-2{font-size:7.95px;font-family:FiraSans-Light, Fira Sans;letter-spacing:-0.02em;}.cls-3{letter-spacing:-0.04em;}.cls-4{letter-spacing:-0.04em;}.cls-6{fill:#fff;}</style></defs><title>planeta</title><g id="Layer_2" data-name="Layer 2"><g id="Capa_1" data-name="Capa 1"><text class="cls-1" transform="translate(0 64.18)">Planeta<tspan class="cls-2"><tspan x="0" y="12.37">1. </tspan><tspan class="cls-3" x="6.55" y="12.37">A</tspan><tspan x="10.72" y="12.37">gua</tspan><tspan x="0" y="22.97">2. Cambio climati</tspan><tspan class="cls-4" x="57.27" y="22.97">c</tspan><tspan x="60.72" y="22.97">o</tspan><tspan x="0" y="33.57">3. Empaque</tspan><tspan x="0" y="44.17">4. Seguridad alimetaria</tspan></tspan></text><circle class="cls-5" cx="33.68" cy="25.04" r="25.04"/><path class="cls-6" d="M35.29,19.39a6.84,6.84,0,0,0,.51-2.27,7.21,7.21,0,0,0-1.48-4.82,6.23,6.23,0,0,0-1.91-1.66,4.11,4.11,0,0,0-1.94-.53,1.81,1.81,0,0,0-.6.1l-.2.06,0,.2c0,.13,0,.34.05.54a11.48,11.48,0,0,1-.08,1.53A9.74,9.74,0,0,0,30,16.28a8.77,8.77,0,0,0,.82,1.89A9.75,9.75,0,0,0,32,19.79c.38.42,1.23,1.39,1.54,1.64a14.45,14.45,0,0,0,.16-1.69c0-.4,0-.8,0-1.2s-.08-.78-.11-1.16-.16-.72-.23-1.06L33,15.4c-.15-.26-.28-.51-.4-.73a3,3,0,0,0-.37-.52l-.35-.44.38.41a3,3,0,0,1,.42.5l.45.71.41.91c.1.34.22.7.32,1.08s.17.77.21,1.18.09.82.09,1.24,0,.94,0,1.4L34.3,21a6.12,6.12,0,0,0,1-1.63Zm0,0"/><path class="cls-6" d="M31.6,22.83l.17.3a8.77,8.77,0,0,0-6.64,5.79l.2,0a10.23,10.23,0,0,1,1.32.18,1.06,1.06,0,0,1,.21-.55,2.52,2.52,0,0,1,2.08-1A13.86,13.86,0,0,1,33,28a3.36,3.36,0,0,0,2.25-.13,6,6,0,0,1,5.69.21l.6.4a8.76,8.76,0,0,0-6.73-5.44c.08-.15.16-.29.26-.44a1.63,1.63,0,0,0,.24-.6.89.89,0,0,1,0-.16c-.31.39-.6.79-.84,1.16L34,23c.08-.58.15-1.21.18-1.87l-.15.15a2.18,2.18,0,0,0-.29.8c-.05.31-.11.61-.18.89h-.16a8.78,8.78,0,0,0-1.32.1c-.22-.33-.45-.66-.72-1a.94.94,0,0,1,0,.16,1.66,1.66,0,0,0,.23.6Zm0,0"/><path class="cls-6" d="M36.67,20.42c.22-.21.48-.39.7-.57s.49-.31.72-.46l.69-.32.62-.18a2.34,2.34,0,0,1,.48-.08l.42,0-.42.08a2.18,2.18,0,0,0-.47.11l-.59.21-.65.36c-.21.16-.44.31-.66.49s-.44.38-.64.6a8.46,8.46,0,0,0-.6.69,10.1,10.1,0,0,0-.75,1c.3,0,1.27-.12,1.7-.17a7.13,7.13,0,0,0,1.47-.34,6.57,6.57,0,0,0,1.41-.66,7.29,7.29,0,0,0,2.06-2,9.59,9.59,0,0,1,.72-.91c.11-.1.22-.22.3-.28l.12-.09-.08-.14a1.34,1.34,0,0,0-.29-.35,3.1,3.1,0,0,0-1.37-.67,4.75,4.75,0,0,0-1.92,0,5.33,5.33,0,0,0-1.83.73,5.49,5.49,0,0,0-1.42,1.28,5.29,5.29,0,0,0-.84,1.55,4.68,4.68,0,0,0-.25,1.42s0,.08,0,.13c.21-.28.44-.54.69-.8a9.12,9.12,0,0,1,.67-.66Zm0,0"/><path class="cls-6" d="M23.81,18.51a8.75,8.75,0,0,1,.71.91,7.48,7.48,0,0,0,2.06,2A6.61,6.61,0,0,0,28,22a7.41,7.41,0,0,0,1.48.34c.42.05,1.4.18,1.7.16a10.54,10.54,0,0,0-.75-1c-.19-.25-.4-.46-.6-.69s-.43-.41-.64-.61-.45-.33-.67-.49l-.64-.36-.59-.22A2.1,2.1,0,0,0,26.8,19L26.39,19l.42,0a2,2,0,0,1,.48.08l.62.18.69.32c.23.14.48.29.72.46s.48.36.7.57a8.87,8.87,0,0,1,.67.66c.25.26.47.53.69.8,0,0,0-.08,0-.13a4.59,4.59,0,0,0-.25-1.43A5.25,5.25,0,0,0,30.3,19a5.42,5.42,0,0,0-1.42-1.28A5.34,5.34,0,0,0,27.05,17a4.67,4.67,0,0,0-1.92,0,3,3,0,0,0-1.37.67,1.38,1.38,0,0,0-.29.35l-.08.14.13.09c.08.06.19.18.3.28Zm0,0"/><path class="cls-6" d="M45.18,33a18.44,18.44,0,0,0-5-4.39,5.08,5.08,0,0,0-4.82-.13,4.22,4.22,0,0,1-2.88.15,12.91,12.91,0,0,0-3.8-.42,1.55,1.55,0,0,0-1.33.62c-.18.24,1.31,1.24,2.59,1.24-.24.47-4.38-.53-4.93-.49l-3.13-.4c-1.11-.09-1.11-.51-2.21.11a.22.22,0,0,1-.13,0,1.4,1.4,0,0,0-1.3.56.76.76,0,0,0-.08.79c.11.28.39.21.62.3a21.13,21.13,0,0,0,3.75,1.29c1.35.34,2.67.74,4,1a5.81,5.81,0,0,1,1.63.5,6.17,6.17,0,0,0,3.42.73c1.39-.06,2.78,0,4.17,0a5.93,5.93,0,0,1,5.54,3.11h7.84c-1.71-2-2.47-2.49-4-4.62Zm0,0"/></g></g></svg>
