<?xml version="1.0" encoding="utf-8"?>
<!-- Generator: Adobe Illustrator 23.0.3, SVG Export Plug-In . SVG Version: 6.00 Build 0)  -->
<svg version="1.1" id="Layer_1" xmlns="http://www.w3.org/2000/svg" xmlns:xlink="http://www.w3.org/1999/xlink" x="0px" y="0px"
	 viewBox="0 0 317.1 317" style="enable-background:new 0 0 317.1 317;" xml:space="preserve">
<style type="text/css">
	.st0{fill:#5473B7;}
	.st1{fill:#5DB1B9;}
	.st2{fill:#584E9E;}
	.st3{fill:#65BC56;}
	.st4{fill:#8D4599;}
	.st5{fill:#FFFFFF;}
</style>
<title>planeta-sociedad</title>
<g>
	<g>
		<path class="st0" d="M37.8,158.5c0-11.2,1.5-22,4.4-32.2L6.2,114.6c-4,13.9-6.2,28.7-6.2,43.9c0,50.8,23.9,96.1,61.1,125.1
			L83.3,253C55.6,230.8,37.8,196.7,37.8,158.5z"/>
		<path class="st1" d="M279.4,158.5c0,38.3-17.8,72.4-45.6,94.5l22.2,30.6c37.2-29,61.1-74.3,61.1-125.1c0-15.2-2.2-30-6.2-43.9
			L275,126.2C277.9,136.5,279.4,147.3,279.4,158.5z"/>
		<path class="st2" d="M225.2,259.3c-19.1,12.7-42,20-66.6,20s-47.5-7.4-66.6-20l-22.2,30.6C95.1,307,125.6,317,158.6,317
			s63.5-10,88.8-27.2L225.2,259.3z"/>
		<path class="st3" d="M45.4,116.1C62,71.9,103.7,39.9,153.2,37.8V0C87,2.2,31,45,9.5,104.4L45.4,116.1z"/>
		<path class="st4" d="M163.9,37.8c49.5,2.1,91.3,34.1,107.8,78.3l35.9-11.7C286.2,45,230.2,2.2,163.9,0V37.8z"/>
	</g>
	<g>
		<g>
			<path class="st5" d="M64.6,57.8c-0.1,0.8-0.5,1.6-1.3,2.3l-1.5,1.5l2.6,2.6l-1.5,1.5l-7.2-7.3l3.1-3.1c0.7-0.7,1.5-1.1,2.3-1.1
				s1.6,0.3,2.4,1.1C64.3,56.2,64.6,57,64.6,57.8z M60.8,56.3c-0.4,0-0.7,0.2-1.1,0.6l-1.4,1.3l2.1,2.2l1.4-1.3
				c0.4-0.3,0.5-0.7,0.6-1.1c0-0.4-0.2-0.7-0.5-1.1C61.5,56.4,61.2,56.3,60.8,56.3z"/>
			<path class="st5" d="M72,57.2l-1.5,1.3l-6.7-7.8l1.5-1.3L72,57.2z"/>
			<path class="st5" d="M74,49.6c0.3-0.3,0.4-0.5,0.5-0.6c0.2-0.3,0.1-0.5,0-0.7c-0.2-0.2-0.4-0.3-0.7-0.3c-0.2,0-0.5,0.2-0.9,0.4
				c-0.4,0.3-0.6,0.6-0.6,0.9c0,0.2,0.1,0.5,0.2,0.7l-1.5,1.2c-0.4-0.5-0.6-1.1-0.6-1.6c0-0.9,0.5-1.7,1.5-2.5
				c0.7-0.5,1.3-0.8,2.1-1c0.7-0.1,1.3,0.2,1.9,0.9l2.1,2.7c0.1,0.2,0.3,0.4,0.5,0.7c0.2,0.2,0.3,0.3,0.4,0.3c0.1,0,0.2,0,0.4,0
				l0.2,0.2L78,52.4c-0.1-0.1-0.3-0.2-0.4-0.3c-0.1-0.1-0.2-0.2-0.3-0.3c0,0.4-0.1,0.8-0.3,1.2c-0.2,0.5-0.5,0.9-0.9,1.2
				c-0.5,0.4-1.1,0.6-1.7,0.6c-0.6,0-1.1-0.3-1.6-0.9c-0.6-0.7-0.7-1.5-0.4-2.3c0.2-0.4,0.5-0.9,1.1-1.5L74,49.6z M75.5,49.6
				c-0.1,0.1-0.1,0.3-0.2,0.4c-0.1,0.1-0.2,0.3-0.3,0.4l-0.3,0.3c-0.3,0.3-0.5,0.6-0.6,0.8c-0.1,0.3-0.1,0.7,0.1,1
				c0.2,0.3,0.4,0.4,0.7,0.4c0.2,0,0.5-0.1,0.7-0.2c0.3-0.3,0.6-0.6,0.7-1c0.1-0.4,0-0.9-0.4-1.4L75.5,49.6z"/>
			<path class="st5" d="M82.9,40.2c0.6,0.1,1.2,0.5,1.8,1.3l2.8,4.2l-1.7,1.1L83.2,43c-0.2-0.3-0.4-0.6-0.6-0.7
				c-0.4-0.2-0.8-0.2-1.2,0.1c-0.6,0.4-0.8,0.9-0.7,1.5c0.1,0.3,0.2,0.7,0.5,1.1l2.3,3.4l-1.6,1.1l-4.2-6.3l1.6-1.1l0.6,0.9
				c0-0.5,0-0.8,0.1-1.1c0.2-0.5,0.5-0.9,1-1.2C81.6,40.3,82.2,40.1,82.9,40.2z"/>
			<path class="st5" d="M90.7,35.2c0.6-0.1,1.1,0.1,1.7,0.3c0.5,0.2,0.9,0.6,1.3,1.1c0.2,0.3,0.5,0.7,0.8,1.3l-4.8,2.7
				c0.4,0.6,0.9,1,1.5,1c0.4,0,0.7-0.1,1.1-0.3c0.4-0.2,0.7-0.5,0.8-0.8c0.1-0.2,0.1-0.4,0.1-0.7l1.8-1c0.2,0.4,0.2,0.9,0,1.6
				c-0.2,1-0.9,1.8-1.9,2.4c-0.9,0.5-1.8,0.7-2.8,0.5c-1-0.2-1.8-0.8-2.5-2.1C87.1,40,86.9,39,87.2,38c0.3-1,0.9-1.7,1.8-2.3
				C89.6,35.5,90.2,35.3,90.7,35.2z M89,38.2c-0.1,0.4-0.1,0.8,0.1,1.3l3-1.7c-0.3-0.4-0.6-0.7-1.1-0.8c-0.4-0.1-0.8,0-1.2,0.2
				C89.4,37.5,89.1,37.8,89,38.2z"/>
			<path class="st5" d="M94.8,34.6l-0.6-1.3l0.9-0.5l-0.9-1.9l1.8-0.9l0.9,1.9l1.1-0.5l0.6,1.3l-1.1,0.5l1.8,3.6
				c0.1,0.3,0.3,0.4,0.4,0.5c0.1,0,0.3,0,0.7-0.2c0.1,0,0.1-0.1,0.2-0.1c0.1,0,0.1-0.1,0.2-0.1l0.7,1.3l-0.8,0.4
				c-0.8,0.4-1.5,0.6-1.9,0.4c-0.3-0.1-0.6-0.4-0.8-0.8l-2.1-4.2L94.8,34.6z"/>
		</g>
	</g>
	<g>
		<path class="st5" d="M214.9,34.3c-0.1,0.5-0.2,0.8-0.1,1.1c0.1,0.5,0.6,1,1.4,1.4c0.5,0.2,0.9,0.4,1.2,0.4
			c0.6,0.1,1.1-0.2,1.3-0.7c0.1-0.3,0.1-0.6-0.1-0.9c-0.2-0.3-0.6-0.6-1.1-1l-0.9-0.7c-0.9-0.7-1.4-1.2-1.7-1.7
			c-0.4-0.7-0.4-1.5,0-2.4c0.4-0.8,1-1.4,1.9-1.6c0.9-0.3,1.9-0.1,3.1,0.5c1,0.5,1.7,1.1,2.2,2s0.5,1.8,0,2.8l-1.9-0.9
			c0.2-0.6,0.2-1.1-0.2-1.5c-0.2-0.3-0.6-0.6-1-0.8c-0.5-0.2-1-0.3-1.4-0.3c-0.4,0.1-0.7,0.3-0.9,0.6c-0.2,0.3-0.1,0.6,0.1,1
			c0.1,0.2,0.5,0.5,1,1l1.4,1.2c0.6,0.5,1.1,1,1.3,1.4c0.3,0.7,0.3,1.5-0.1,2.3c-0.4,0.8-1.1,1.4-2,1.6c-0.9,0.2-2,0.1-3.2-0.5
			c-1.2-0.6-2-1.3-2.5-2.2c-0.4-0.9-0.4-1.8,0-2.8L214.9,34.3z"/>
		<path class="st5" d="M227.6,43.5c-0.9,0.4-2,0.2-3.1-0.4c-1.1-0.6-1.8-1.5-1.9-2.5c-0.2-1,0-2,0.6-3c0.5-0.9,1.3-1.6,2.2-2
			s2-0.2,3.1,0.4c1.1,0.6,1.8,1.5,1.9,2.5c0.2,1,0,2-0.6,2.9C229.3,42.4,228.6,43.1,227.6,43.5z M226.8,41.7
			c0.5-0.2,0.9-0.6,1.3-1.3c0.4-0.7,0.5-1.2,0.5-1.8c-0.1-0.5-0.4-0.9-0.9-1.2c-0.5-0.3-1-0.3-1.5-0.1c-0.5,0.2-0.9,0.6-1.3,1.3
			c-0.4,0.7-0.5,1.2-0.5,1.8c0.1,0.5,0.4,0.9,0.9,1.2C225.8,41.9,226.3,41.9,226.8,41.7z"/>
		<path class="st5" d="M236.7,44.7c0.1-0.3,0.2-0.5,0.2-0.8c0-0.4-0.2-0.7-0.6-1c-0.6-0.4-1.1-0.4-1.7,0.1c-0.3,0.2-0.6,0.6-0.9,1.1
			c-0.3,0.5-0.5,0.9-0.6,1.2c-0.2,0.7,0,1.2,0.6,1.5c0.4,0.3,0.7,0.3,1,0.2c0.3-0.1,0.6-0.3,0.8-0.6l1.7,1.1
			c-0.4,0.5-0.9,0.8-1.5,1.1c-1,0.4-2,0.2-3-0.5c-1-0.7-1.6-1.5-1.6-2.4c-0.1-0.9,0.2-1.9,0.9-2.8c0.7-1.1,1.6-1.7,2.5-2
			c0.9-0.2,1.9-0.1,2.8,0.6c0.8,0.5,1.3,1.1,1.6,1.8c0.3,0.7,0.1,1.5-0.4,2.5L236.7,44.7z"/>
		<path class="st5" d="M242.4,45.4l1.6,1.2l-4.6,6l-1.6-1.2L242.4,45.4z M244.6,45.9l-1.6-1.2l1.1-1.5l1.6,1.2L244.6,45.9z"/>
		<path class="st5" d="M250.5,52.1c0.3,0.5,0.3,1.1,0.3,1.7c-0.1,0.5-0.2,1.1-0.5,1.6c-0.2,0.3-0.5,0.7-0.9,1.2l-4.2-3.5
			c-0.5,0.6-0.6,1.2-0.4,1.7c0.1,0.3,0.3,0.6,0.7,0.9c0.3,0.3,0.7,0.4,1.1,0.4c0.2,0,0.4,0,0.6-0.1l1.5,1.3
			c-0.3,0.3-0.8,0.5-1.4,0.6c-1,0.1-2-0.2-2.9-1c-0.8-0.6-1.3-1.5-1.4-2.4c-0.2-1,0.2-2,1.1-3.1c0.8-1,1.8-1.6,2.7-1.6
			s1.9,0.2,2.8,0.9C249.9,51.1,250.3,51.6,250.5,52.1z M247.2,51.5c-0.4,0-0.8,0.2-1.2,0.6l2.6,2.2c0.3-0.4,0.4-0.8,0.4-1.3
			c-0.1-0.4-0.3-0.8-0.6-1.1C248,51.6,247.6,51.4,247.2,51.5z"/>
		<path class="st5" d="M252.6,55.6l1-1l0.8,0.7l1.4-1.5l1.4,1.3l-1.4,1.5l0.9,0.8l-1,1l-0.9-0.8l-2.7,2.9c-0.2,0.2-0.3,0.4-0.3,0.5
			c0,0.1,0.2,0.3,0.4,0.6c0,0,0.1,0.1,0.1,0.1c0,0,0.1,0.1,0.2,0.1l-1,1.1l-0.7-0.6c-0.7-0.6-1.1-1.2-1.1-1.7c0-0.3,0.2-0.6,0.5-1
			l3.2-3.4L252.6,55.6z"/>
		<path class="st5" d="M252.5,66l0.2,0.2c0.1,0.1,0.3,0.3,0.4,0.4c0.1,0.1,0.3,0.2,0.4,0.2c0.1,0,0.3,0,0.6-0.1
			c0.2-0.1,0.4-0.2,0.4-0.2l3.8-7.5l1.5,1.6l-2.9,5l5.1-2.7l1.4,1.5l-7.2,3.2c-1.4,0.6-2.3,0.9-2.8,1c-0.5,0-1-0.3-1.6-0.9
			c-0.1-0.1-0.2-0.2-0.3-0.3c-0.1-0.1-0.2-0.2-0.3-0.4L252.5,66z"/>
	</g>
	<g>
		<g>
			<path class="st5" d="M267.1,239.3c-0.2-1.2,0.1-2.3,0.8-3.3c1-1.4,2.2-2.1,3.5-2.1c0.8,0,1.4,0.2,2,0.5l-1.2,1.7
				c-0.5-0.2-0.9-0.2-1.2-0.2c-0.6,0.1-1.1,0.4-1.5,1c-0.4,0.6-0.5,1.3-0.3,2c0.3,0.7,0.9,1.4,1.8,2.1c0.9,0.7,1.8,1,2.5,0.9
				c0.7,0,1.3-0.4,1.7-0.9c0.4-0.6,0.5-1.2,0.4-1.8c-0.1-0.3-0.3-0.7-0.7-1.1l1.2-1.7c0.8,0.8,1.3,1.7,1.4,2.7c0.1,1-0.1,2-0.8,3
				c-0.8,1.2-1.9,1.9-3.1,2c-1.3,0.1-2.6-0.3-3.9-1.2C268.2,241.8,267.3,240.6,267.1,239.3z"/>
			<path class="st5" d="M283.3,229.6c0.4,1,0.2,2-0.5,3.1c-0.7,1.1-1.5,1.8-2.5,1.9c-1,0.1-2-0.1-2.9-0.6c-0.9-0.6-1.6-1.3-1.9-2.3
				c-0.4-1-0.2-2,0.5-3.1c0.7-1.1,1.5-1.7,2.5-1.9s2,0.1,2.9,0.6C282.3,227.9,282.9,228.6,283.3,229.6z M281.5,230.4
				c-0.2-0.5-0.6-0.9-1.3-1.3c-0.7-0.4-1.2-0.6-1.7-0.5c-0.5,0.1-0.9,0.3-1.2,0.8s-0.3,1-0.2,1.5s0.6,0.9,1.3,1.3
				c0.7,0.4,1.2,0.6,1.7,0.5c0.5-0.1,0.9-0.3,1.2-0.8C281.7,231.4,281.7,230.9,281.5,230.4z"/>
			<path class="st5" d="M282.5,217.7c0.6-0.3,1.3-0.2,2.2,0.2l4.6,2.3l-0.9,1.8l-4.1-2.1c-0.4-0.2-0.7-0.3-0.9-0.3
				c-0.4,0-0.8,0.2-1,0.7c-0.3,0.6-0.2,1.1,0.2,1.6c0.2,0.2,0.5,0.5,0.9,0.7l3.7,1.8l-0.9,1.8l-6.8-3.4l0.9-1.7l1,0.5
				c-0.2-0.4-0.4-0.7-0.4-1c-0.1-0.5,0-1,0.3-1.6C281.4,218.4,281.9,217.9,282.5,217.7z"/>
			<path class="st5" d="M289.1,214.5c0.3,0.1,0.6,0.1,0.8,0c0.3-0.1,0.6-0.5,0.9-1.1c0.2-0.4,0.2-0.7,0.2-0.9c0-0.3-0.1-0.4-0.3-0.5
				c-0.2-0.1-0.4-0.1-0.6,0.1c-0.2,0.1-0.6,0.7-1.3,1.7c-0.5,0.7-1,1.2-1.4,1.4c-0.4,0.2-0.9,0.2-1.5,0c-0.6-0.3-1.1-0.8-1.3-1.5
				c-0.3-0.7-0.2-1.5,0.2-2.4c0.4-0.9,0.8-1.5,1.4-1.9c0.6-0.4,1.3-0.5,2.2-0.2l-0.8,1.8c-0.2-0.1-0.5-0.1-0.6,0
				c-0.3,0.1-0.6,0.4-0.8,0.9c-0.2,0.4-0.2,0.7-0.2,0.9s0.2,0.4,0.3,0.4c0.2,0.1,0.4,0.1,0.6-0.1c0.2-0.1,0.6-0.7,1.3-1.7
				c0.5-0.7,1-1.1,1.5-1.3c0.5-0.2,1-0.2,1.5,0c0.7,0.3,1.2,0.8,1.4,1.5c0.2,0.7,0.1,1.6-0.3,2.7c-0.5,1.1-1,1.8-1.7,2.2
				c-0.7,0.3-1.4,0.3-2.1,0.1L289.1,214.5z"/>
			<path class="st5" d="M287.8,203.5l4.3,1.4c0.4,0.1,0.7,0.2,1,0.2c0.4,0,0.7-0.3,0.9-0.8c0.2-0.6,0.1-1.2-0.3-1.6
				c-0.2-0.2-0.6-0.4-1.1-0.6l-3.9-1.3l0.6-1.9l7.2,2.4l-0.6,1.8l-1-0.3c0,0,0.1,0.1,0.2,0.2c0.1,0.1,0.2,0.2,0.2,0.3
				c0.2,0.4,0.3,0.7,0.3,1c0,0.3-0.1,0.6-0.2,1c-0.4,1.1-1,1.6-1.9,1.8c-0.5,0.1-1.1,0-2-0.3l-4.3-1.4L287.8,203.5z"/>
			<path class="st5" d="M292.6,186.7c0.2-0.3,0.5-0.5,0.9-0.7c0.3-0.1,0.7-0.2,1-0.2c0.3,0,0.6,0.1,1.1,0.2l4.6,1.1l-0.5,2l-4.7-1.1
				c-0.3-0.1-0.5-0.1-0.7,0c-0.4,0.1-0.6,0.4-0.7,0.8c-0.1,0.5,0,1,0.4,1.3c0.2,0.2,0.5,0.3,0.8,0.4l4.4,1.1l-0.5,1.9l-4.4-1.1
				c-0.4-0.1-0.8-0.1-1-0.1c-0.4,0.1-0.6,0.4-0.8,0.8c-0.1,0.5,0,1,0.3,1.2c0.2,0.2,0.5,0.3,0.9,0.4l4.4,1.1l-0.5,2l-7.4-1.8
				l0.5-1.9l1.1,0.3c-0.3-0.3-0.5-0.6-0.7-0.9c-0.2-0.4-0.2-1-0.1-1.6c0.1-0.6,0.4-1,0.7-1.3c0.3-0.2,0.6-0.4,1-0.4
				c-0.4-0.4-0.6-0.7-0.7-1.2c-0.1-0.4-0.1-0.9,0-1.4C292.2,187.3,292.4,187,292.6,186.7z"/>
			<path class="st5" d="M294.3,177.4c0.3-0.5,0.8-0.9,1.3-1.1c0.5-0.2,1-0.4,1.6-0.4c0.4,0,0.9,0.1,1.5,0.2l-0.8,5.5
				c0.8,0.1,1.3-0.1,1.7-0.5c0.2-0.3,0.4-0.6,0.4-1c0.1-0.4,0-0.8-0.2-1.1c-0.1-0.2-0.3-0.3-0.5-0.5l0.3-2c0.4,0.1,0.8,0.4,1.2,0.9
				c0.6,0.8,0.8,1.8,0.7,3c-0.2,1-0.6,1.8-1.3,2.5c-0.7,0.7-1.8,0.9-3.2,0.7c-1.3-0.2-2.2-0.7-2.8-1.5c-0.6-0.8-0.8-1.7-0.6-2.8
				C293.8,178.5,294,177.9,294.3,177.4z M295.5,180.6c0.2,0.3,0.6,0.6,1.1,0.7l0.5-3.4c-0.5,0-0.9,0.1-1.3,0.3s-0.5,0.6-0.6,1.1
				C295.2,179.9,295.3,180.3,295.5,180.6z"/>
			<path class="st5" d="M294.9,168.9c0,0,0-0.1,0-0.2l2,0.2c0,0.1,0,0.2-0.1,0.3c0,0.1,0,0.2,0,0.2c-0.1,0.8,0.1,1.4,0.6,1.7
				c0.3,0.2,0.7,0.3,1.3,0.4l3.6,0.3l-0.2,2l-7.5-0.7l0.2-1.9l1.3,0.1c-0.5-0.4-0.8-0.6-1-0.9C294.9,170.1,294.8,169.6,294.9,168.9
				C294.9,168.9,294.9,168.9,294.9,168.9z"/>
			<path class="st5" d="M300.5,164.9c0.4,0,0.6-0.1,0.8-0.2c0.3-0.2,0.4-0.7,0.4-1.4c0-0.4,0-0.7-0.1-0.9c-0.1-0.2-0.3-0.4-0.5-0.4
				c-0.2,0-0.4,0.1-0.5,0.3s-0.3,0.9-0.7,2.1c-0.2,0.9-0.5,1.5-0.9,1.8c-0.3,0.3-0.8,0.5-1.4,0.5c-0.7,0-1.3-0.3-1.8-0.9
				c-0.5-0.6-0.7-1.4-0.7-2.3c0-0.9,0.2-1.7,0.6-2.3s1.1-0.9,2-1l-0.1,2c-0.3,0-0.5,0.1-0.6,0.2c-0.3,0.2-0.4,0.6-0.4,1.1
				c0,0.4,0,0.7,0.2,0.9c0.1,0.2,0.3,0.3,0.5,0.3c0.2,0,0.4-0.1,0.5-0.3c0.1-0.2,0.3-0.9,0.6-2c0.2-0.8,0.5-1.4,0.9-1.7
				c0.4-0.4,0.9-0.6,1.4-0.5c0.8,0,1.4,0.3,1.8,0.9c0.5,0.6,0.7,1.4,0.6,2.6c0,1.2-0.3,2.1-0.8,2.6c-0.5,0.6-1.2,0.8-2,0.8
				L300.5,164.9z"/>
		</g>
	</g>
	<g>
		<path class="st5" d="M89,276c1-0.3,1.9-0.2,2.9,0.4c1.3,0.7,2,1.7,2.1,2.8c0.1,0.7,0,1.2-0.3,1.7l-1.6-0.9
			c0.1-0.4,0.1-0.8,0.1-1.1c-0.1-0.5-0.4-0.9-1-1.2c-0.6-0.3-1.2-0.3-1.7-0.1s-1.1,0.9-1.6,1.7c-0.5,0.9-0.7,1.6-0.6,2.2
			c0.1,0.6,0.4,1.1,1,1.4c0.5,0.3,1.1,0.4,1.6,0.2c0.3-0.1,0.6-0.3,0.9-0.7l1.6,0.9c-0.6,0.8-1.3,1.2-2.2,1.4
			c-0.9,0.2-1.7,0.1-2.6-0.4c-1.1-0.6-1.7-1.5-2-2.5c-0.2-1.1,0-2.2,0.7-3.4C87,277.1,87.9,276.3,89,276z"/>
		<path class="st5" d="M98.6,289c-0.8,0.4-1.7,0.3-2.7-0.2c-1-0.5-1.6-1.1-1.8-2c-0.2-0.8-0.1-1.7,0.3-2.6c0.4-0.8,1-1.5,1.8-1.8
			c0.8-0.4,1.7-0.3,2.7,0.2c1,0.5,1.6,1.2,1.8,2c0.2,0.9,0.1,1.7-0.3,2.6C100,288,99.4,288.6,98.6,289z M97.8,287.6
			c0.4-0.2,0.7-0.6,1-1.2c0.3-0.6,0.4-1.1,0.3-1.5c-0.1-0.4-0.4-0.8-0.8-1c-0.4-0.2-0.9-0.2-1.3,0c-0.4,0.2-0.7,0.6-1,1.2
			c-0.3,0.6-0.4,1.1-0.3,1.5c0.1,0.4,0.4,0.8,0.8,1C97,287.7,97.4,287.8,97.8,287.6z"/>
		<path class="st5" d="M107.4,286.4c0,0,0.1,0,0.1,0.1l-0.7,1.6c-0.1-0.1-0.2-0.1-0.3-0.1c-0.1,0-0.1-0.1-0.2-0.1
			c-0.6-0.3-1.1-0.2-1.5,0.1c-0.2,0.2-0.4,0.5-0.6,1l-1.2,2.9l-1.6-0.7l2.5-6l1.5,0.6l-0.4,1c0.4-0.3,0.7-0.5,1-0.6
			C106.4,286.1,106.9,286.2,107.4,286.4C107.4,286.4,107.4,286.4,107.4,286.4z"/>
		<path class="st5" d="M114.4,289.9c0.3,0.7,0.3,1.6-0.1,2.6c-0.4,1.1-0.9,1.8-1.6,2.2c-0.7,0.4-1.4,0.4-2.2,0.2
			c-0.5-0.2-0.9-0.4-1.1-0.8c-0.1-0.2-0.2-0.5-0.3-0.8l-1.1,3.2l-1.6-0.6l3-8.5l1.5,0.5l-0.3,0.9c0.3-0.2,0.5-0.3,0.8-0.4
			c0.5-0.1,0.9-0.1,1.4,0C113.6,288.7,114.1,289.2,114.4,289.9z M112.8,290.6c-0.1-0.4-0.4-0.7-0.9-0.9c-0.6-0.2-1.1-0.1-1.5,0.4
			c-0.2,0.3-0.4,0.6-0.6,1.1c-0.3,0.7-0.2,1.3,0,1.7c0.2,0.2,0.4,0.4,0.7,0.5c0.5,0.2,0.9,0.1,1.2-0.1c0.4-0.3,0.6-0.7,0.8-1.2
			C112.8,291.5,112.8,291,112.8,290.6z"/>
		<path class="st5" d="M121.2,297.1c-0.7,0.5-1.6,0.6-2.7,0.3c-1.1-0.3-1.8-0.9-2.1-1.7c-0.3-0.8-0.4-1.7-0.1-2.6
			c0.3-0.9,0.7-1.6,1.5-2.1c0.7-0.5,1.6-0.6,2.7-0.3c1.1,0.3,1.8,0.9,2.1,1.7s0.4,1.7,0.1,2.6C122.4,295.9,121.9,296.6,121.2,297.1z
			 M120.2,295.9c0.4-0.3,0.6-0.7,0.8-1.3c0.2-0.6,0.2-1.1,0-1.6c-0.2-0.4-0.5-0.7-1-0.8c-0.5-0.1-0.9-0.1-1.2,0.2
			c-0.4,0.3-0.6,0.7-0.8,1.3c-0.2,0.6-0.2,1.1,0,1.6s0.5,0.7,1,0.8C119.4,296.2,119.8,296.1,120.2,295.9z"/>
		<path class="st5" d="M129.5,293.1c0,0,0.1,0,0.1,0l-0.4,1.7c-0.1,0-0.2-0.1-0.3-0.1c-0.1,0-0.1,0-0.2-0.1c-0.7-0.2-1.2,0-1.5,0.3
			c-0.2,0.2-0.3,0.6-0.5,1.1l-0.7,3l-1.7-0.4l1.5-6.3l1.6,0.4l-0.3,1.1c0.4-0.4,0.6-0.6,0.9-0.7C128.4,293,128.9,293,129.5,293.1
			C129.4,293.1,129.4,293.1,129.5,293.1z"/>
		<path class="st5" d="M133.7,296.7c0.3,0,0.5,0,0.7,0c0.3-0.1,0.4-0.2,0.4-0.4c0-0.3,0-0.5-0.2-0.6c-0.2-0.1-0.4-0.2-0.8-0.3
			c-0.4-0.1-0.7,0-0.9,0.1c-0.1,0.1-0.3,0.3-0.3,0.5l-1.6-0.3c0.1-0.6,0.4-1,0.7-1.3c0.5-0.5,1.4-0.6,2.4-0.4
			c0.7,0.1,1.3,0.4,1.8,0.8c0.5,0.4,0.7,0.9,0.5,1.7l-0.5,2.9c0,0.2-0.1,0.5-0.1,0.7c0,0.2,0,0.4,0,0.5c0,0.1,0.1,0.2,0.2,0.2l0,0.2
			l-1.8-0.3c0-0.1,0-0.3,0-0.4c0-0.1,0-0.2,0-0.4c-0.3,0.2-0.6,0.4-0.9,0.5c-0.4,0.1-0.8,0.2-1.3,0.1c-0.6-0.1-1-0.4-1.4-0.8
			c-0.3-0.4-0.4-0.9-0.3-1.5c0.1-0.8,0.5-1.3,1.2-1.5c0.4-0.1,0.9-0.2,1.6-0.1L133.7,296.7z M134.6,297.6c-0.1,0-0.2,0.1-0.4,0.1
			c-0.1,0-0.3,0-0.5,0l-0.4,0c-0.4,0-0.6,0-0.8,0.1c-0.3,0.1-0.5,0.3-0.5,0.6c-0.1,0.3,0,0.5,0.1,0.7c0.1,0.2,0.3,0.3,0.6,0.3
			c0.4,0.1,0.7,0,1.1-0.1c0.3-0.2,0.6-0.5,0.7-1.1L134.6,297.6z"/>
		<path class="st5" d="M138.7,296.2l0.2-1.2l0.9,0.1l0.2-1.8l1.7,0.2l-0.2,1.8l1,0.1l-0.2,1.2l-1-0.1l-0.4,3.4c0,0.3,0,0.4,0,0.5
			c0.1,0.1,0.3,0.1,0.6,0.2c0.1,0,0.1,0,0.2,0c0.1,0,0.1,0,0.2,0l-0.2,1.3l-0.8-0.1c-0.8-0.1-1.3-0.3-1.6-0.6
			c-0.2-0.2-0.2-0.5-0.2-0.9l0.5-4L138.7,296.2z"/>
		<path class="st5" d="M148.9,296.1c0.4,0.2,0.8,0.6,1,1c0.2,0.4,0.4,0.9,0.4,1.4c0,0.3,0,0.7,0,1.3l-4.7-0.4c0,0.7,0.2,1.1,0.6,1.4
			c0.2,0.2,0.5,0.3,0.9,0.3c0.4,0,0.7,0,1-0.2c0.1-0.1,0.3-0.2,0.4-0.4l1.7,0.1c-0.1,0.4-0.3,0.8-0.7,1.1c-0.6,0.6-1.5,0.8-2.5,0.7
			c-0.9-0.1-1.6-0.4-2.2-1c-0.6-0.6-0.9-1.5-0.8-2.7c0.1-1.1,0.5-2,1.1-2.5c0.6-0.6,1.4-0.8,2.4-0.7
			C147.9,295.7,148.4,295.9,148.9,296.1z M146.2,297.4c-0.3,0.2-0.4,0.5-0.5,1l2.9,0.2c0-0.5-0.1-0.8-0.4-1.1
			c-0.3-0.3-0.6-0.4-1-0.4C146.8,297.1,146.5,297.2,146.2,297.4z"/>
		<path class="st5" d="M163.2,296.7c-0.2-0.6-0.5-1-1-1.2c-0.3-0.1-0.6-0.2-1-0.2c-0.7,0-1.3,0.3-1.7,0.8c-0.4,0.5-0.7,1.3-0.6,2.4
			c0,1.1,0.3,1.8,0.8,2.3c0.5,0.4,1.1,0.7,1.7,0.6c0.6,0,1.1-0.2,1.5-0.6c0.4-0.4,0.6-0.8,0.7-1.4l-2,0l0-1.5l3.7-0.1l0.1,4.7
			l-1.2,0l-0.2-1.1c-0.3,0.4-0.7,0.7-0.9,0.9c-0.5,0.3-1.1,0.5-1.8,0.5c-1.2,0-2.1-0.4-2.9-1.2c-0.8-0.8-1.2-1.9-1.2-3.3
			c0-1.4,0.3-2.6,1.1-3.4c0.8-0.9,1.8-1.3,3.1-1.3c1.1,0,2,0.2,2.7,0.8c0.7,0.6,1.1,1.3,1.2,2.1L163.2,296.7z"/>
		<path class="st5" d="M173.6,301.3c-0.5,0.7-1.3,1.1-2.4,1.2c-1.1,0.1-2-0.2-2.6-0.8c-0.6-0.6-0.9-1.4-1-2.4
			c-0.1-0.9,0.1-1.8,0.6-2.5s1.3-1.1,2.4-1.2c1.1-0.1,2,0.2,2.6,0.8c0.6,0.6,0.9,1.4,1,2.4C174.3,299.7,174.1,300.5,173.6,301.3z
			 M172.2,300.4c0.2-0.4,0.3-0.9,0.3-1.5c-0.1-0.6-0.2-1.1-0.5-1.5c-0.3-0.3-0.7-0.5-1.2-0.4c-0.5,0-0.9,0.3-1.1,0.6
			s-0.3,0.9-0.3,1.5s0.2,1.1,0.5,1.5c0.3,0.3,0.7,0.5,1.2,0.4C171.6,301,171.9,300.8,172.2,300.4z"/>
		<path class="st5" d="M180.2,294.6l1.8-0.3l-1.4,6.8l-1.8,0.3l-3.3-6.1l1.9-0.3l2,4.5L180.2,294.6z"/>
		<path class="st5" d="M188.3,293.2c0.5,0.1,0.9,0.3,1.3,0.7c0.3,0.3,0.6,0.7,0.8,1.2c0.1,0.3,0.2,0.7,0.3,1.3l-4.6,1
			c0.2,0.6,0.5,1,0.9,1.2c0.3,0.1,0.6,0.1,1,0c0.4-0.1,0.7-0.2,0.9-0.5c0.1-0.1,0.2-0.3,0.3-0.5l1.7-0.4c0,0.4-0.1,0.8-0.4,1.3
			c-0.4,0.7-1.2,1.2-2.2,1.4c-0.8,0.2-1.6,0.1-2.4-0.3s-1.3-1.2-1.5-2.3c-0.2-1.1-0.1-2,0.4-2.7c0.5-0.7,1.2-1.2,2.1-1.4
			C187.3,293.1,187.8,293.1,188.3,293.2z M186.1,295.2c-0.2,0.3-0.3,0.6-0.2,1.1l2.9-0.6c-0.1-0.4-0.3-0.7-0.7-0.9s-0.7-0.2-1.1-0.1
			C186.6,294.7,186.3,294.9,186.1,295.2z"/>
		<path class="st5" d="M195.3,291.2c0,0,0.1,0,0.1,0l0.4,1.7c-0.1,0-0.2,0-0.3,0c-0.1,0-0.1,0-0.2,0c-0.7,0.2-1,0.5-1.2,1
			c-0.1,0.3,0,0.7,0.1,1.2l0.8,3l-1.7,0.4l-1.6-6.3l1.6-0.4l0.3,1.1c0.1-0.5,0.3-0.8,0.4-1C194.4,291.6,194.7,291.4,195.3,291.2
			C195.3,291.2,195.3,291.2,195.3,291.2z"/>
		<path class="st5" d="M202.7,289.5c0.5,0.2,0.9,0.7,1.1,1.5l1.3,4.2l-1.7,0.5l-1.2-3.8c-0.1-0.3-0.2-0.6-0.4-0.7
			c-0.3-0.3-0.6-0.3-1.1-0.2c-0.5,0.2-0.8,0.5-0.9,1.1c0,0.3,0,0.6,0.1,1l1.1,3.4l-1.6,0.5l-2-6.2l1.6-0.5l0.3,0.9
			c0.1-0.4,0.2-0.7,0.4-0.9c0.3-0.4,0.6-0.6,1.1-0.8C201.6,289.3,202.1,289.3,202.7,289.5z"/>
		<path class="st5" d="M209,289.5c0.3-0.2,0.5-0.3,0.6-0.4c0.2-0.2,0.2-0.4,0.2-0.6c-0.1-0.2-0.2-0.4-0.5-0.4c-0.2,0-0.5,0-0.8,0.2
			c-0.4,0.1-0.6,0.3-0.7,0.6c-0.1,0.2-0.1,0.4,0,0.6l-1.5,0.6c-0.2-0.5-0.2-1-0.1-1.5c0.2-0.7,0.8-1.2,1.9-1.6
			c0.7-0.3,1.3-0.4,1.9-0.3s1.1,0.5,1.4,1.2l1.1,2.8c0.1,0.2,0.2,0.4,0.3,0.7c0.1,0.2,0.2,0.3,0.3,0.4c0.1,0.1,0.2,0.1,0.3,0.1
			l0.1,0.2l-1.7,0.7c-0.1-0.1-0.2-0.2-0.2-0.3c-0.1-0.1-0.1-0.2-0.2-0.3c-0.1,0.3-0.3,0.6-0.5,0.9c-0.3,0.3-0.6,0.6-1,0.7
			c-0.6,0.2-1.1,0.2-1.5,0.1c-0.5-0.2-0.8-0.5-1.1-1.1c-0.3-0.7-0.2-1.4,0.2-2c0.2-0.3,0.7-0.6,1.2-0.9L209,289.5z M210.3,289.9
			c-0.1,0.1-0.2,0.2-0.2,0.3c-0.1,0.1-0.2,0.2-0.4,0.3l-0.3,0.2c-0.3,0.2-0.5,0.4-0.6,0.5c-0.2,0.2-0.2,0.5-0.1,0.8
			c0.1,0.3,0.3,0.4,0.5,0.5s0.4,0.1,0.6,0c0.3-0.1,0.6-0.4,0.8-0.7c0.2-0.3,0.2-0.7,0-1.3L210.3,289.9z"/>
		<path class="st5" d="M218,283.3c0.5,0.1,1,0.6,1.3,1.3l1.8,4l-1.6,0.7l-1.6-3.6c-0.1-0.3-0.3-0.5-0.5-0.7
			c-0.3-0.2-0.6-0.3-1.1-0.1c-0.5,0.2-0.8,0.6-0.8,1.2c0,0.3,0.1,0.6,0.3,1l1.5,3.2l-1.5,0.7l-2.7-5.9l1.5-0.7l0.4,0.9
			c0.1-0.4,0.1-0.7,0.3-0.9c0.2-0.4,0.6-0.7,1-0.9C216.9,283.2,217.5,283.2,218,283.3z"/>
		<path class="st5" d="M225.4,281.7c-0.1-0.2-0.3-0.4-0.5-0.5c-0.3-0.1-0.6-0.1-1,0.1c-0.5,0.3-0.7,0.7-0.6,1.3
			c0,0.3,0.2,0.7,0.4,1.1c0.2,0.4,0.5,0.7,0.7,0.9c0.4,0.4,0.9,0.4,1.4,0.2c0.4-0.2,0.6-0.4,0.6-0.7c0-0.3,0-0.6-0.1-0.9l1.5-0.8
			c0.2,0.5,0.3,1,0.2,1.6c-0.1,0.9-0.6,1.6-1.6,2.1c-0.9,0.5-1.7,0.6-2.5,0.3c-0.7-0.3-1.3-0.9-1.8-1.8c-0.5-1-0.7-1.9-0.5-2.7
			c0.2-0.8,0.7-1.4,1.6-1.9c0.7-0.4,1.4-0.5,2-0.5c0.6,0.1,1.2,0.5,1.7,1.3L225.4,281.7z"/>
		<path class="st5" d="M231.5,275.6c0.5-0.1,1,0,1.5,0.2c0.4,0.2,0.8,0.5,1.1,0.9c0.2,0.2,0.4,0.6,0.7,1.1l-4,2.5
			c0.4,0.5,0.8,0.8,1.3,0.8c0.3,0,0.6-0.1,0.9-0.3c0.3-0.2,0.5-0.4,0.7-0.7c0.1-0.2,0.1-0.3,0.1-0.6l1.5-0.9
			c0.2,0.4,0.2,0.8,0.1,1.3c-0.2,0.8-0.7,1.5-1.6,2.1c-0.7,0.4-1.5,0.6-2.4,0.5c-0.8-0.1-1.6-0.7-2.2-1.7c-0.6-1-0.8-1.9-0.6-2.7
			c0.2-0.8,0.7-1.5,1.5-2C230.5,275.9,231,275.7,231.5,275.6z M230.1,278.2c-0.1,0.3,0,0.7,0.1,1.1l2.5-1.5
			c-0.3-0.4-0.6-0.6-0.9-0.6s-0.7,0-1,0.2C230.4,277.6,230.2,277.9,230.1,278.2z"/>
	</g>
	<g>
		<g>
			<path class="st5" d="M23.5,166.1c0.9,0.8,1.4,1.8,1.5,3c0.1,1.7-0.3,3-1.4,3.9c-0.6,0.5-1.2,0.8-1.9,0.9l-0.2-2.1
				c0.5-0.2,0.8-0.4,1.1-0.6c0.4-0.4,0.6-1,0.5-1.7c-0.1-0.8-0.4-1.3-1.1-1.7c-0.7-0.4-1.6-0.5-2.7-0.4c-1.1,0.1-2,0.4-2.5,0.9
				c-0.5,0.5-0.8,1.1-0.7,1.8c0.1,0.7,0.3,1.3,0.9,1.6c0.3,0.2,0.7,0.3,1.2,0.4l0.2,2.1c-1.1-0.1-2.1-0.5-2.8-1.2s-1.2-1.6-1.3-2.8
				c-0.1-1.5,0.3-2.6,1.1-3.5c0.9-0.9,2.1-1.4,3.8-1.6C21,164.8,22.4,165.2,23.5,166.1z"/>
			<path class="st5" d="M17.3,183.9c-0.9-0.5-1.4-1.4-1.6-2.7c-0.2-1.3,0-2.3,0.7-3.1c0.7-0.8,1.6-1.2,2.7-1.4c1.1-0.2,2.1,0,3,0.5
				c0.9,0.5,1.4,1.4,1.6,2.7c0.2,1.3,0,2.3-0.7,3.1c-0.7,0.8-1.6,1.2-2.7,1.4C19.2,184.5,18.2,184.4,17.3,183.9z M18.1,182.1
				c0.5,0.2,1.1,0.3,1.8,0.2c0.7-0.1,1.3-0.4,1.7-0.7c0.4-0.4,0.5-0.8,0.4-1.4c-0.1-0.6-0.4-1-0.8-1.2c-0.5-0.2-1.1-0.3-1.8-0.2
				c-0.8,0.1-1.3,0.4-1.7,0.7s-0.5,0.8-0.4,1.4C17.4,181.5,17.7,181.9,18.1,182.1z"/>
			<path class="st5" d="M26.8,195.6c0,0.3-0.2,0.7-0.4,1c-0.2,0.3-0.5,0.5-0.8,0.7c-0.2,0.1-0.6,0.2-1.1,0.3l-4.6,1.2l-0.5-2
				l4.7-1.2c0.3-0.1,0.5-0.2,0.7-0.3c0.3-0.3,0.4-0.6,0.3-1.1c-0.1-0.5-0.4-0.8-0.9-0.9c-0.3,0-0.6,0-0.9,0.1l-4.4,1.1l-0.5-1.9
				l4.4-1.1c0.4-0.1,0.7-0.2,0.9-0.4c0.3-0.3,0.4-0.6,0.3-1.1c-0.1-0.5-0.4-0.9-0.8-1c-0.2-0.1-0.5,0-0.9,0.1l-4.4,1.1l-0.5-1.9
				l7.3-1.8l0.5,1.9l-1.1,0.3c0.4,0.1,0.8,0.3,1,0.5c0.4,0.3,0.6,0.7,0.8,1.3c0.1,0.6,0.1,1,0,1.5c-0.2,0.3-0.4,0.6-0.7,0.9
				c0.5,0.1,0.9,0.4,1.2,0.7c0.3,0.3,0.5,0.8,0.6,1.2C26.8,194.9,26.8,195.3,26.8,195.6z"/>
			<path class="st5" d="M29.4,206.2c-0.4,0.8-1.2,1.4-2.4,1.8c-1.3,0.4-2.3,0.5-3.2,0.1c-0.9-0.3-1.4-1-1.8-1.9
				c-0.2-0.6-0.2-1.1-0.1-1.6c0.1-0.3,0.2-0.5,0.5-0.8l-3.7,1.3l-0.6-1.9l10-3.4l0.6,1.8l-1.1,0.4c0.4,0.1,0.7,0.2,1,0.4
				c0.5,0.3,0.8,0.8,1,1.3C29.9,204.6,29.9,205.4,29.4,206.2z M27.6,205.2c0.3-0.4,0.4-0.9,0.2-1.5c-0.2-0.7-0.7-1-1.5-1.1
				c-0.4,0-0.8,0.1-1.4,0.3c-0.8,0.3-1.3,0.7-1.5,1.3c-0.1,0.3-0.1,0.7,0,1c0.2,0.5,0.5,0.9,1,1c0.5,0.1,1.1,0.1,1.8-0.1
				C26.8,205.9,27.3,205.6,27.6,205.2z"/>
			<path class="st5" d="M30,213.3c0.2,0.3,0.3,0.5,0.5,0.7c0.2,0.2,0.5,0.3,0.7,0.2c0.3-0.1,0.4-0.3,0.5-0.6c0-0.2,0-0.6-0.2-1
				c-0.2-0.4-0.4-0.7-0.7-0.8c-0.2-0.1-0.5-0.1-0.8,0l-0.7-1.8c0.6-0.2,1.2-0.3,1.7-0.1c0.8,0.2,1.5,0.9,2,2.1
				c0.3,0.8,0.5,1.5,0.4,2.2c0,0.7-0.5,1.3-1.3,1.6l-3.2,1.4c-0.2,0.1-0.5,0.2-0.8,0.4c-0.2,0.1-0.4,0.2-0.4,0.3
				c-0.1,0.1-0.1,0.2-0.1,0.4l-0.3,0.1l-0.8-2c0.1-0.1,0.2-0.2,0.3-0.3c0.1-0.1,0.2-0.2,0.4-0.2c-0.4-0.1-0.7-0.3-1.1-0.6
				c-0.4-0.3-0.7-0.7-0.9-1.2c-0.3-0.6-0.3-1.2-0.1-1.8c0.2-0.6,0.6-1,1.3-1.3c0.9-0.4,1.6-0.3,2.3,0.2c0.4,0.3,0.7,0.8,1.1,1.4
				L30,213.3z M29.6,214.7c-0.1-0.1-0.2-0.2-0.3-0.3c-0.1-0.1-0.2-0.2-0.3-0.4l-0.3-0.4c-0.2-0.4-0.4-0.6-0.6-0.7
				c-0.3-0.2-0.6-0.2-1-0.1c-0.3,0.1-0.5,0.3-0.6,0.5c-0.1,0.2,0,0.5,0.1,0.7c0.2,0.4,0.4,0.7,0.8,1c0.4,0.2,0.9,0.2,1.5,0
				L29.6,214.7z"/>
			<path class="st5" d="M37.6,223.5c-0.1,0.6-0.6,1.2-1.5,1.6l-4.5,2.3l-0.9-1.8l4.1-2.1c0.4-0.2,0.6-0.4,0.7-0.6
				c0.3-0.4,0.3-0.8,0-1.2c-0.3-0.6-0.8-0.9-1.4-0.8c-0.3,0-0.7,0.1-1.1,0.4l-3.7,1.9l-0.9-1.8l6.7-3.4l0.9,1.7l-1,0.5
				c0.5,0,0.8,0.1,1.1,0.3c0.5,0.2,0.8,0.6,1.1,1.2C37.7,222.2,37.8,222.8,37.6,223.5z"/>
			<path class="st5" d="M32.3,231.6l0.1,0.2c0.1,0.2,0.2,0.3,0.3,0.5c0.1,0.1,0.2,0.2,0.4,0.3c0.1,0.1,0.3,0.1,0.6,0
				c0.3,0,0.4-0.1,0.5-0.1l5.3-6.5l1.1,1.9l-3.9,4.3l5.6-1.5l1.1,1.8l-7.7,1.6c-1.5,0.3-2.5,0.4-2.9,0.4s-0.9-0.5-1.3-1.2
				c-0.1-0.2-0.2-0.3-0.2-0.4c-0.1-0.1-0.1-0.2-0.2-0.4L32.3,231.6z"/>
		</g>
	</g>
</g>
</svg>
