<!-- Generator: Adobe Illustrator 23.0.1, SVG Export Plug-In  -->
<svg version="1.1" xmlns="http://www.w3.org/2000/svg" xmlns:xlink="http://www.w3.org/1999/xlink" x="0px" y="0px" width="33.2px"
	 height="35.5px" viewBox="0 0 33.2 35.5" style="enable-background:new 0 0 33.2 35.5;" xml:space="preserve">
<style type="text/css">
	.st0{fill:#D4A453;}
</style>
<defs>
</defs>
<g>
	<path class="st0" d="M32.9,9.2c-2-1.7-7.4,4-9.9,5c-0.6,0.2-1.2,0.1-1.6-0.5c-0.9-1.3-2.6-3.8-4.4-6.1C13.1,3.1,6.5-1.6,2.4,0.5
		c-6.6,3.4,2.7,15.4,2.3,18.3c-0.4,2.9-5.8,6.6-2.8,10.8c3.1,4.4,14.5-3.9,18.6-0.6c0.8,0.6,1.2,0.6,2.1-0.2
		C27.4,24.6,34.7,10.8,32.9,9.2z M20.1,27.4c-5.4-2.5-13.2,3.3-14.5-0.6c-1.6-4.6,10.5-9.3,15.1-0.5C21.1,27.1,20.8,27.7,20.1,27.4z
		 M21,24.4c-2.3-3.9-7.8-6.3-11.1-8c-4.4-2.2-6.2-6.9-4.2-9.1C8.8,3.7,20.6,10.8,22,24C22.2,25.3,21.6,25.4,21,24.4z"/>
	<path class="st0" d="M8.6,34c9.3-1.1,11.1,6.7,19.6-5.2C20.3,33.9,17.7,25,8.6,34z M10.6,33.1c6-2.8,8.7,0.5,13-1.1
		C18.3,34.4,16.2,31.1,10.6,33.1z"/>
</g>
</svg>
