<!-- Generator: Adobe Illustrator 23.0.1, SVG Export Plug-In  -->
<svg version="1.1" xmlns="http://www.w3.org/2000/svg" xmlns:xlink="http://www.w3.org/1999/xlink" x="0px" y="0px"
	 width="1732.3px" height="765.6px" viewBox="0 0 1732.3 765.6" style="enable-background:new 0 0 1732.3 765.6;"
	 xml:space="preserve">
<style type="text/css">
	.st0{fill:#D4A453;}
</style>
<defs>
</defs>
<path class="st0" d="M1667.3,59.2h8.1c5.5,0,9.3,0.6,11.5,1.9c3.7,2.2,5.5,6.6,5.5,13.4v4.6l0.2,1.9c0.1,0.2,0.1,0.5,0.2,0.7
	c0,0.2,0.1,0.4,0.2,0.6h9.6l-0.4-0.7c-0.2-0.5-0.4-1.5-0.5-3c-0.1-1.6-0.1-3-0.1-4.3v-4.3c0-2.9-1.1-5.9-3.2-9.1
	c-2.1-3.1-5.5-5-10-5.7c3.6-0.6,6.4-1.5,8.5-2.8c3.8-2.5,5.7-6.3,5.7-11.5c0-7.4-3-12.3-9.1-14.8c-3.4-1.4-8.7-2.1-16-2.1H1657l0,0
	v58.4h10.3V59.2z M1667.3,30.8h8.8c5.7,0,9.9,0.7,12.5,2.2c2.6,1.5,3.9,4.3,3.9,8.6c0,4.5-2,7.5-6,9.1c-2.2,0.9-5.5,1.3-9.8,1.3
	h-9.3V30.8z M746.8,681.8L746.8,681.8c82-20.5,112.8-52.1,120.6-84.9c18,54.5,88.7,71.5,204.5,25.3c151.1-60.4,429.6-195.4,537.5-57
	l0,0c135.3-33.9,131.6-97.9,114.5-148c-36.2-106-107.6-285.8-108.3-287.7c-21.6-53.8-63.6-86.2-121.4-79.5
	c-45.9,5.3-92.1,12.6-92.1,12.6c-44.6,7.3-74.1,33.2-102.3,93.8l-143.7,296c0,0,0,0.1,0,0.1c55.9-33.6,104.8-71.4,173.7-106.9
	c16.5-8.5,31.3-18.8,37.7-35.4c0,0,59.4-142.9,65.2-157.9c5.8-15,14.8-29.6,26-31.3c8-1.3,17.3,8.6,23.1,27.2
	c5.1,16.4,62,212.7,65.1,228.9c0,0,0,0,0,0C1368.5,322.1,1241.1,480.1,1101,545c-53.5,24.8-73.3-5.2-66.9-45.7
	c6.4-40.5,63-326.2,63-326.2c3.3-17.4-0.1-32.4-9.7-43.3c-13.1-14.9-35.7-21.3-61.7-17.1l-85.1,13.9l0,0l-76,416.4
	c-0.1,0.4-0.1,0.8-0.1,1.2c-1-3.5-2.1-7-3.2-10.4c-36.2-106-107.6-285.8-108.3-287.7c-21.6-53.8-63.6-86.2-121.4-79.5
	c-45.9,5.3-92.1,12.6-92.1,12.6c-44.6,7.3-74.1,33.2-102.3,93.8L293.4,569c0,0,0,0.1,0,0c55.8-33.6,104.8-71.4,173.7-106.8
	c16.5-8.5,31.3-18.8,37.7-35.4c0,0,59.4-142.9,65.2-157.9c5.8-15,14.8-29.6,26-31.3c8-1.3,17.3,8.6,23.1,27.2
	c5.1,16.5,62,212.7,65.1,228.9l0,0C506,438.7,378.5,596.7,238.5,661.6c-53.5,24.8-73.3-5.2-66.9-45.7c6.5-40.5,63-326.2,63-326.2
	c3.3-17.4-0.1-32.4-9.7-43.3c-13.1-14.9-35.6-21.3-61.7-17.1l-85.1,13.9l0,0l-76,416.4c-15.7,94.3,59.1,138.4,207.2,79.2
	C360.4,678.4,638.9,543.3,746.8,681.8z M1583.2,456.7L1583.2,456.7c-19.7-33.3-129.9-51.8-222.7-31.5c0,0-0.1,0,0-0.1
	C1414.9,393.2,1588.9,375.2,1583.2,456.7z M498,541.8C497.9,541.8,497.9,541.8,498,541.8c54.4-32,228.4-50,222.7,31.5c0,0,0,0-0.1,0
	C700.9,540,590.7,521.5,498,541.8z M1647.8,97c6.3,4.8,13.9,7.9,21.7,8.9c21.7,2.8,39.2-4.4,52.5-21.9c4.8-6.3,8-14,9.1-21.9
	c2.9-21.8-4.4-39.3-21.7-52.6c-6.3-4.8-13.8-7.9-21.6-9c-22-3-39.7,4.4-53.1,22.1c-4.7,6.3-7.8,13.9-8.8,21.7
	C1623.2,66.3,1630.5,83.8,1647.8,97z M1649.8,17.4c8.2-6.8,17.7-10.1,28.7-10.1c11,0,20.5,3.4,28.7,10.1
	c12.4,10.2,18.8,26.7,16.6,42.6c-1.3,9.9-5.6,18.5-12.9,25.8c-7.7,7.8-16.9,12.2-27.5,13.3c-15.9,1.6-32.2-5.5-41.8-18.3
	c-4.6-6.2-7.5-13.2-8.5-20.9C1631.1,44,1637.4,27.6,1649.8,17.4z"/>
</svg>
