<!-- Generator: Adobe Illustrator 23.0.1, SVG Export Plug-In  -->
<svg version="1.1" xmlns="http://www.w3.org/2000/svg" xmlns:xlink="http://www.w3.org/1999/xlink" x="0px" y="0px" width="177.6px"
	 height="61.5px" viewBox="0 0 177.6 61.5" style="enable-background:new 0 0 177.6 61.5;" xml:space="preserve">
<style type="text/css">
	.st0{fill:#D4A453;}
</style>
<defs>
</defs>
<path class="st0" d="M145.9,38.1c-1.7,1.1-3.5,2.3-5.3,3.3l-1.3,0.8c-0.4,0.3-0.9,0.5-1.4,0.8l-1.4,0.7c-0.5,0.3-0.9,0.5-1.4,0.7
	c-3.7,1.9-7.5,3.5-11.4,5c-7.8,2.9-15.9,4.9-24.1,6.3c-8.2,1.4-16.6,2.1-24.9,2.3c-8.4,0.2-16.7-0.1-25.1-0.7
	c-4.2-0.3-8.4-0.8-12.5-1.3c-4.2-0.5-8.3-1.1-12.5-1.8c-4.2-0.7-8.3-1.4-12.4-2.3c-2.1-0.4-4.1-0.9-6.2-1.3c-2.1-0.5-4.1-1-6.1-1.5
	c4,1.4,8,2.7,12.1,3.8c4.1,1.1,8.2,2.1,12.3,3.1c8.3,1.8,16.6,3.2,25.1,4.1l3.2,0.3l3.2,0.3c2.1,0.2,4.2,0.3,6.4,0.4
	c4.2,0.2,8.5,0.3,12.7,0.3c4.3,0,8.5-0.3,12.8-0.6c4.2-0.4,8.5-0.9,12.7-1.6c8.4-1.5,16.7-3.6,24.7-6.7c8-3.1,15.6-7.2,22.5-12.3
	c3.4-2.6,6.7-5.3,9.7-8.4c3-3,5.8-6.3,8.3-9.7c5.1-6.9,9-14.4,12-22.4c-3.7,7.6-8,14.8-13.4,21.3C159,27.7,152.7,33.4,145.9,38.1z"
	/>
</svg>
