<svg xmlns="http://www.w3.org/2000/svg" viewBox="0 0 248 142.38"><defs><style>.cls-1{fill:#1d1d1b;}.cls-2{fill:#7e7565;}.cls-3{fill:#ececec;}.cls-4{fill:#c49b5c;}.cls-5{font-size:18.72px;fill:#fff;font-family:BebasNeue-Bold, Bebas Neue;font-weight:700;}.cls-6{letter-spacing:0em;}</style></defs><title>carta-ceo</title><g id="Layer_2" data-name="Layer 2"><g id="Layer_1-2" data-name="Layer 1"><path class="cls-1" d="M105.12,100.48a4,4,0,1,1,4-4A4,4,0,0,1,105.12,100.48Zm0-6.51a2.52,2.52,0,1,0,2.52,2.52A2.52,2.52,0,0,0,105.12,94Z"/><path class="cls-2" d="M35,1.27,42.32,0A25.91,25.91,0,0,0,35,1.27Z"/><path class="cls-2" d="M49.13.73,28.76,4.25q-.94.61-1.82,1.3L51.27,1.34Q50.2,1,49.13.73Z"/><path class="cls-2" d="M54.55,2.68,24.31,7.91q-.55.57-1.07,1.17L56,3.41Q55.27,3,54.55,2.68Z"/><path class="cls-2" d="M58.39,4.9,21.55,11.27q-.37.54-.71,1.11L59.5,5.69Q59,5.28,58.39,4.9Z"/><path class="cls-2" d="M61.48,7.25,19.69,14.48q-.25.53-.48,1.07l43.33-7.5Z"/><path class="cls-2" d="M64.79,9.57l-46.34,8q-.17.51-.31,1l47.93-8.29Q65.43,10,64.79,9.57Z"/><path class="cls-2" d="M68.88,11.75l-51.2,8.86q-.09.5-.17,1l53-9.18Q69.72,12.12,68.88,11.75Z"/><path class="cls-2" d="M74.57,13.65,17.32,23.56q0,.49,0,1L77.33,14.16C76.42,14,75.5,13.86,74.57,13.65Z"/><path class="cls-2" d="M107.9,10.77,17.31,26.45q0,.48.07,1L112.54,11A22.27,22.27,0,0,0,107.9,10.77Z"/><path class="cls-2" d="M116.59,12.16l-99,17.13q.08.48.17,1L118,12.9A13.81,13.81,0,0,0,116.59,12.16Z"/><path class="cls-2" d="M120.2,14.42l-102,17.65q.13.47.27.94L121.24,15.22Q120.74,14.82,120.2,14.42Z"/><path class="cls-2" d="M123,16.82,19.1,34.8q.17.46.36.92L123.85,17.66Q123.46,17.24,123,16.82Z"/><path class="cls-2" d="M125.22,19.33l-105,18.17.44.91L125.82,20.21Q125.54,19.77,125.22,19.33Z"/><path class="cls-2" d="M126.77,21.95,21.58,40.15l.48.9L127.15,22.86Q127,22.41,126.77,21.95Z"/><path class="cls-2" d="M127.69,24.68,23,42.79l.52.89L127.86,25.63Q127.79,25.15,127.69,24.68Z"/><path class="cls-2" d="M128,27.52,24.58,45.41l.56.89L127.92,28.51Q128,28,128,27.52Z"/><path class="cls-2" d="M127.59,30.47,26.28,48l.61.88L127.31,31.5Q127.47,31,127.59,30.47Z"/><path class="cls-2" d="M126.52,33.54l-98.39,17,.66.87L126,34.62Q126.26,34.09,126.52,33.54Z"/><path class="cls-2" d="M124.65,36.75,30.12,53.11l.71.86,93-16.09Q124.25,37.33,124.65,36.75Z"/><path class="cls-2" d="M121.83,40.13,32.25,55.63l.75.85,87.59-15.16Q121.22,40.75,121.83,40.13Z"/><path class="cls-2" d="M117.58,43.75,34.46,58.14l.76.85,80.33-13.9C116.23,44.68,116.91,44.23,117.58,43.75Z"/><path class="cls-2" d="M107.46,48.39,36.68,60.64l.73.86L103.8,50A25.81,25.81,0,0,1,107.46,48.39Z"/><path class="cls-2" d="M100.12,52.55,38.74,63.17l.64.87L98.85,53.76Q99.45,53.13,100.12,52.55Z"/><path class="cls-2" d="M97,56,40.53,65.75q.27.44.52.89l55.22-9.56Q96.62,56.52,97,56Z"/><path class="cls-2" d="M95.11,59.2,41.94,68.4q.21.45.4.92l52.28-9Q94.85,59.72,95.11,59.2Z"/><path class="cls-2" d="M93.81,62.31,43,71.1q.15.46.28.94l50.2-8.69Q93.63,62.82,93.81,62.31Z"/><path class="cls-2" d="M92.87,65.36,43.7,73.87q.1.47.18,1l48.73-8.43Q92.73,65.87,92.87,65.36Z"/><path class="cls-2" d="M92.15,68.37l-48,8.31q.05.47.1,1l47.69-8.25Q92,68.88,92.15,68.37Z"/><path class="cls-2" d="M91.55,71.36,44.36,79.53q0,.48,0,1l47-8.13Z"/><path class="cls-2" d="M91,74.34,44.41,82.41q0,.49,0,1l46.46-8Z"/><path class="cls-2" d="M90.53,77.32l-46.21,8q0,.49-.06,1l46.1-8Z"/><path class="cls-2" d="M90,80.3,44.12,88.24c0,.33,0,.66,0,1l45.73-7.91Z"/><path class="cls-2" d="M89.44,83.28,44.11,91.13q0,.49.06,1l45.06-7.8Z"/><path class="cls-2" d="M88.78,86.28,44.39,94q.08.49.17,1l44-7.61Q88.66,86.8,88.78,86.28Z"/><path class="cls-2" d="M88,89.31,45,96.75q.14.48.3.93L87.7,90.34Q87.86,89.82,88,89.31Z"/><path class="cls-2" d="M87,92.56l.07-.2-41,7.1q.22.46.47.9l40.17-7C86.8,93.13,86.9,92.85,87,92.56Z"/><path class="cls-2" d="M85.76,95.47l-38.14,6.6q.33.45.68.87l36.86-6.38Q85.47,96,85.76,95.47Z"/><path class="cls-2" d="M83.7,98.72l-33.81,5.85q.48.43,1,.81l31.88-5.52Q83.25,99.3,83.7,98.72Z"/><path class="cls-2" d="M79,103.41q.79-.59,1.53-1.25l-27.2,4.71q.77.39,1.59.71Z"/><path class="cls-2" d="M63.79,108.92l6.41-1.11a28.26,28.26,0,0,0,4.46-1.76l-15.38,2.66A23.61,23.61,0,0,0,63.79,108.92Z"/><ellipse class="cls-3" cx="124.4" cy="134.32" rx="79.82" ry="8.06"/><path class="cls-1" d="M229.76,15.24a.68.68,0,0,1-.67-.68l0-7a.68.68,0,1,1,1.35,0l0,7A.68.68,0,0,1,229.76,15.24Z"/><path class="cls-1" d="M233.29,11.74l-7,0a.68.68,0,0,1,0-1.35l7,0a.68.68,0,1,1,0,1.35Z"/><rect class="cls-4" y="18.85" width="248" height="68" rx="34" ry="34"/><text class="cls-5" transform="translate(73.48 48.39)">CARTA DEL CEO &amp;<tspan x="-16.99" y="22.47">PRESIDENTE EJECUTI</tspan><tspan class="cls-6" x="97.59" y="22.47">V</tspan><tspan x="105.1" y="22.47">O</tspan></text></g></g></svg>
