<svg xmlns="http://www.w3.org/2000/svg" viewBox="0 0 248 139.18"><defs><style>.cls-1{fill:#2f5a46;}.cls-2{fill:#1d1d1b;}.cls-3{fill:#ececec;}.cls-4{fill:#59b069;}.cls-5{font-size:17.49px;fill:#fff;font-family:BebasNeue-Bold, Bebas Neue;font-weight:700;}.cls-6{letter-spacing:0em;}.cls-7{letter-spacing:0em;}</style></defs><title>sostenibilidad-por</title><g id="Layer_2" data-name="Layer 2"><g id="Layer_1-2" data-name="Layer 1"><path class="cls-1" d="M161.52,0l-9.95,3.24A19.86,19.86,0,0,0,149.33,5l15-4.89A20,20,0,0,0,161.52,0Z"/><path class="cls-1" d="M168,.78,146.76,7.71q-.48.62-.92,1.28l23.69-7.72Q168.78,1,168,.78Z"/><path class="cls-1" d="M172,2.38l-27.47,9q-.28.56-.53,1.15L173,3Q172.51,2.68,172,2.38Z"/><path class="cls-1" d="M174.9,4.3,143.17,14.64q-.17.53-.31,1.08L175.76,5Q175.34,4.64,174.9,4.3Z"/><path class="cls-1" d="M177.24,6.42,142.41,17.77q-.09.51-.16,1L177.93,7.18Q177.59,6.79,177.24,6.42Z"/><path class="cls-1" d="M179.14,8.68,142,20.77q0,.49-.05,1L179.72,9.48Z"/><path class="cls-1" d="M180.8,11,142,23.67s0,.06,0,.1c0,.29,0,.58,0,.88l39.33-12.82Z"/><path class="cls-1" d="M182.37,13.39,142.1,26.52q0,.48.05,1l40.73-13.27Z"/><path class="cls-1" d="M183.85,15.79,142.28,29.34q0,.48.08,1l42-13.68Z"/><path class="cls-1" d="M185.28,18.21,142.54,32.14q.05.48.1.95l43.11-14Z"/><path class="cls-1" d="M186.66,20.64l-43.8,14.27c0,.31.08.63.13.94l44.13-14.38Z"/><path class="cls-1" d="M188,23.07,143.28,37.66l.16.93L188.5,23.9Z"/><path class="cls-1" d="M189.4,25.51,143.76,40.38l.18.92,45.93-15Z"/><path class="cls-1" d="M190.82,27.92,144.33,43.07l.21.91,46.77-15.24Z"/><path class="cls-1" d="M192.32,30.32,145,45.74l.24.9,47.63-15.52Z"/><path class="cls-1" d="M193.94,32.67,145.73,48.38l.27.89,48.54-15.82Z"/><path class="cls-1" d="M195.78,34.95,146.56,51l.3.88,49.61-16.17Z"/><path class="cls-1" d="M197.94,37.13,147.48,53.57l.34.87,51-16.61Q198.35,37.49,197.94,37.13Z"/><path class="cls-1" d="M200.59,39.14l-52.1,17,.37.86,52.8-17.2Q201.11,39.48,200.59,39.14Z"/><path class="cls-1" d="M204.08,40.89,149.61,58.64l.4.85,55.57-18.11Q204.81,41.16,204.08,40.89Z"/><path class="cls-1" d="M211.39,42.24c-.75,0-1.46-.08-2.15-.15l-58.4,19,.44.84,60.47-19.71Z"/><path class="cls-1" d="M217.05,42.42,152.16,63.57l.48.83,67.05-21.85Z"/><path class="cls-1" d="M224.43,42.9,153.6,66l.52.81,72.5-23.63Q225.55,43,224.43,42.9Z"/><path class="cls-1" d="M230.33,43.86,155.17,68.35l.56.8L232,44.3Q231.18,44.06,230.33,43.86Z"/><path class="cls-1" d="M234.71,45.31,156.85,70.68l.6.78L235.9,45.9Q235.32,45.59,234.71,45.31Z"/><path class="cls-1" d="M237.86,47.16,158.67,73l.65.77,79.39-25.87Q238.3,47.5,237.86,47.16Z"/><path class="cls-1" d="M240.12,49.31l-79.49,25.9.7.75,79.39-25.87Q240.43,49.69,240.12,49.31Z"/><path class="cls-1" d="M241.71,51.67l-79,25.74.75.74,78.64-25.63C242,52.23,241.86,51.94,241.71,51.67Z"/><path class="cls-1" d="M242.81,54.19,165,79.55l.81.72L243.1,55.08Q243,54.63,242.81,54.19Z"/><path class="cls-1" d="M243.54,56.84,167.45,81.63l.88.7,75.39-24.57C243.66,57.45,243.6,57.14,243.54,56.84Z"/><path class="cls-1" d="M244,59.58,170.09,83.65l.95.67,73-23.8C244,60.21,244,59.89,244,59.58Z"/><path class="cls-1" d="M244.15,62.4,172.93,85.61l1,.65,70.19-22.87C244.15,63.05,244.15,62.73,244.15,62.4Z"/><path class="cls-1" d="M244,65.32,176,87.48l1.11.62,66.77-21.76Q244,65.83,244,65.32Z"/><path class="cls-1" d="M243.55,68.36,179.39,89.26l1.22.58,62.68-20.42C243.38,69.07,243.47,68.71,243.55,68.36Z"/><path class="cls-1" d="M242.63,71.54,183.08,90.94l1.34.54L242.2,72.66C242.35,72.29,242.5,71.91,242.63,71.54Z"/><path class="cls-1" d="M241.18,74.89l-54,17.6,1.51.49,51.86-16.9Q240.88,75.49,241.18,74.89Z"/><path class="cls-1" d="M239,78.46,191.81,93.86l1.74.41,44.56-14.52Q238.59,79.12,239,78.46Z"/><path class="cls-1" d="M235.87,82.38,197.24,95q1.09.17,2.14.28l35.06-11.42Q235.18,83.12,235.87,82.38Z"/><path class="cls-1" d="M228,88.8q1.42-.89,2.75-1.88l-26.45,8.62q1.69,0,3.36-.11Z"/><path class="cls-2" d="M102.75,8.92a.68.68,0,0,1-.67-.68l0-7a.68.68,0,1,1,1.35,0l0,7A.68.68,0,0,1,102.75,8.92Z"/><path class="cls-2" d="M106.27,5.42l-7,0a.68.68,0,0,1,0-1.35l7,0a.68.68,0,1,1,0,1.35Z"/><path class="cls-2" d="M105.08,97.27a4,4,0,1,1,4-4A4,4,0,0,1,105.08,97.27Zm0-6.51a2.52,2.52,0,1,0,2.52,2.52A2.52,2.52,0,0,0,105.09,90.76Z"/><ellipse class="cls-3" cx="124.34" cy="131.12" rx="79.82" ry="8.06"/><rect class="cls-4" y="15.65" width="248" height="68" rx="34" ry="34"/><text class="cls-5" transform="translate(34.94 49.39)">informe de sostenibili<tspan class="cls-6" x="128.79" y="0">d</tspan><tspan x="135.91" y="0">ad 2018</tspan><tspan class="cls-7" x="31.89" y="20.99">(</tspan><tspan x="36.33" y="20.99">versión portugués)</tspan></text></g></g></svg>
