<svg xmlns="http://www.w3.org/2000/svg" viewBox="0 0 71.78 87.38"><defs><style>.cls-1{fill:#2f5a46;}.cls-2{fill:#59b169;}</style></defs><title>10porcentaje</title><g id="Layer_2" data-name="Layer 2"><g id="_ÎÓÈ_1" data-name="—ÎÓÈ_1"><path class="cls-1" d="M22.65,62.56H21.39a.68.68,0,0,1-.7-.7V43.93H19.13a.68.68,0,0,1-.7-.7v-.81a.68.68,0,0,1,.7-.7h.33c1.11,0,1.74-.59,1.74-1.93v-.26a.68.68,0,0,1,.7-.7h.74a.68.68,0,0,1,.7.7V61.85A.68.68,0,0,1,22.65,62.56Z"/><path class="cls-1" d="M26.32,50.67c0-10,1.67-12.07,4.74-12.07s4.74,2.07,4.74,12.07-1.67,12.11-4.74,12.11S26.32,60.67,26.32,50.67Zm6.81,0c0-8.85-.74-9.66-2.07-9.66S29,41.82,29,50.67s.74,9.7,2.07,9.7S33.13,59.52,33.13,50.67Z"/><path class="cls-1" d="M37.5,44.27c0-3.85,1.22-5.81,3.67-5.81s3.66,2,3.66,5.81-1.15,5.81-3.66,5.81S37.5,48.08,37.5,44.27Zm1.56,17.59,10.4-22.33a1.07,1.07,0,0,1,.93-.7h.74c.41,0,.67.3.48.7L41.2,61.85a1.07,1.07,0,0,1-.92.7h-.74C39.13,62.56,38.87,62.26,39.05,61.85Zm3.59-17.59c0-2.52-.26-3.81-1.48-3.81s-1.48,1.3-1.48,3.81.3,3.81,1.48,3.81S42.65,46.75,42.65,44.27Zm3.18,12.85c0-3.85,1.22-5.81,3.67-5.81s3.66,2,3.66,5.81S52,62.93,49.5,62.93,45.83,60.93,45.83,57.11Zm5.15,0c0-2.52-.26-3.81-1.48-3.81S48,54.6,48,57.11s.3,3.81,1.48,3.81S51,59.59,51,57.11Z"/><path class="cls-2" d="M56.06,23.71a34.06,34.06,0,0,0-20.17-6.55V0A51.12,51.12,0,0,1,66.16,9.83Z"/><path class="cls-1" d="M35.89,87.38A35.89,35.89,0,1,1,71.78,51.49,35.93,35.93,0,0,1,35.89,87.38Zm0-68.66A32.77,32.77,0,1,0,68.66,51.49,32.81,32.81,0,0,0,35.89,18.72Z"/></g></g></svg>
