<svg xmlns="http://www.w3.org/2000/svg" viewBox="0 0 168.05 189.2"><defs><style>.cls-1,.cls-2{fill:none;stroke:#a5a4a8;stroke-linecap:round;stroke-linejoin:round;}.cls-1{stroke-width:3px;stroke-dasharray:0 12.06;}.cls-2{stroke-width:2px;}.cls-3{fill:#285746;}.cls-4{fill:#56b674;}.cls-5{fill:#fff;}</style></defs><title>alcance1</title><g id="Layer_2" data-name="Layer 2"><g id="Layer_1-2" data-name="Layer 1"><circle class="cls-1" cx="66.75" cy="90.21" r="65.24" transform="translate(-15.24 13.58) rotate(-10.44)"/><circle class="cls-2" cx="107.88" cy="28.79" r="27.78" transform="translate(-3.43 20.02) rotate(-10.44)"/><circle class="cls-3" cx="92.36" cy="89.64" r="75.7" transform="translate(-1.44 177.77) rotate(-87.36)"/><circle class="cls-4" cx="92.36" cy="89.64" r="63.27"/><circle class="cls-4" cx="151.48" cy="25.31" r="4.1"/><path class="cls-5" d="M69.34,50h2.3l3.44,9.72h-2.2l-.64-2H68.65l-.66,2H65.87Zm-.13,6H71.7l-1.23-3.83Z"/><path class="cls-5" d="M78.08,59.69H76.2V50h1.88Z"/><path class="cls-5" d="M84.22,55.08a1.66,1.66,0,0,0-.27-.73,1.14,1.14,0,0,0-1-.44,1.3,1.3,0,0,0-1.3.94,3.9,3.9,0,0,0-.19,1.33,3.58,3.58,0,0,0,.19,1.27,1.26,1.26,0,0,0,1.27.9,1.12,1.12,0,0,0,.94-.36,1.76,1.76,0,0,0,.34-.92h1.92a3.14,3.14,0,0,1-.62,1.62,3,3,0,0,1-2.62,1.23,3.07,3.07,0,0,1-2.55-1,4.16,4.16,0,0,1-.82-2.67,4.21,4.21,0,0,1,.9-2.88,3.15,3.15,0,0,1,2.49-1,3.76,3.76,0,0,1,2.21.61,2.82,2.82,0,0,1,1,2.14Z"/><path class="cls-5" d="M90.28,55.32a3,3,0,0,0,.75-.16.57.57,0,0,0,.41-.53.63.63,0,0,0-.31-.61,2,2,0,0,0-.91-.17,1.2,1.2,0,0,0-1,.33,1.36,1.36,0,0,0-.27.66H87.17a2.75,2.75,0,0,1,.53-1.55,3.09,3.09,0,0,1,2.57-.95,4.59,4.59,0,0,1,2.11.47,1.8,1.8,0,0,1,.92,1.77v3.3q0,.34,0,.83a1,1,0,0,0,.11.5.67.67,0,0,0,.28.22v.28h-2a2,2,0,0,1-.12-.41q0-.19-.05-.44a3.87,3.87,0,0,1-.9.72,2.72,2.72,0,0,1-1.38.35,2.38,2.38,0,0,1-1.62-.56,2,2,0,0,1-.64-1.58,2,2,0,0,1,1-1.92,4.6,4.6,0,0,1,1.66-.46Zm1.15.88a2.07,2.07,0,0,1-.36.18,3.07,3.07,0,0,1-.5.13l-.43.08a2.81,2.81,0,0,0-.86.26.86.86,0,0,0-.44.8.83.83,0,0,0,.27.7,1,1,0,0,0,.66.21,2,2,0,0,0,1.13-.36,1.51,1.51,0,0,0,.54-1.3Z"/><path class="cls-5" d="M100.74,52.91a2.38,2.38,0,0,1,.71,1.94v4.84H99.52V55.32a2,2,0,0,0-.15-.87,1.06,1.06,0,0,0-1-.55,1.3,1.3,0,0,0-1.3.81,2.81,2.81,0,0,0-.18,1.09v3.89H95V52.51h1.82v1a3.19,3.19,0,0,1,.68-.8,2.37,2.37,0,0,1,1.46-.44A2.76,2.76,0,0,1,100.74,52.91Z"/><path class="cls-5" d="M107.49,55.08a1.66,1.66,0,0,0-.27-.73,1.14,1.14,0,0,0-1-.44,1.3,1.3,0,0,0-1.3.94,3.9,3.9,0,0,0-.19,1.33,3.58,3.58,0,0,0,.19,1.27,1.26,1.26,0,0,0,1.27.9,1.12,1.12,0,0,0,.94-.36,1.76,1.76,0,0,0,.34-.92h1.92a3.14,3.14,0,0,1-.62,1.62,3,3,0,0,1-2.62,1.23,3.07,3.07,0,0,1-2.55-1,4.16,4.16,0,0,1-.82-2.67,4.21,4.21,0,0,1,.9-2.88,3.15,3.15,0,0,1,2.5-1,3.76,3.76,0,0,1,2.21.61,2.82,2.82,0,0,1,1,2.14Z"/><path class="cls-5" d="M115.39,52.65a2.93,2.93,0,0,1,1.24,1.06,3.53,3.53,0,0,1,.57,1.49,9.21,9.21,0,0,1,.06,1.43H112a1.72,1.72,0,0,0,.75,1.52,1.91,1.91,0,0,0,1,.27,1.46,1.46,0,0,0,1.43-.82h1.92a2.35,2.35,0,0,1-.7,1.3,3.49,3.49,0,0,1-2.71,1,3.92,3.92,0,0,1-2.53-.88,3.48,3.48,0,0,1-1.1-2.88,3.89,3.89,0,0,1,1-2.87,3.46,3.46,0,0,1,2.57-1A4.1,4.1,0,0,1,115.39,52.65Zm-2.81,1.62a2,2,0,0,0-.5,1.11h3.24a1.57,1.57,0,0,0-.5-1.14,1.65,1.65,0,0,0-1.12-.39A1.49,1.49,0,0,0,112.58,54.27Z"/><path class="cls-5" d="M85.17,74V71.2a18.43,18.43,0,0,0,2.76-.26,3.89,3.89,0,0,0,2-1.11,3.67,3.67,0,0,0,.82-1.52,3.5,3.5,0,0,0,.16-.85h3.49V88.69H90.17V74Z"/><path class="cls-5" d="M57.72,100a1.9,1.9,0,0,0-1.13-1.39,2.77,2.77,0,0,0-1.12-.22,2.42,2.42,0,0,0-1.93.89,4,4,0,0,0-.75,2.66,3.3,3.3,0,0,0,.82,2.53,2.69,2.69,0,0,0,1.86.74,2.41,2.41,0,0,0,1.67-.59,2.53,2.53,0,0,0,.8-1.54H55.7v-1.62h4v5.22H58.4l-.2-1.21a4.66,4.66,0,0,1-1.06,1,3.73,3.73,0,0,1-2,.49A4.11,4.11,0,0,1,52,105.6a5.1,5.1,0,0,1-1.29-3.68A5.4,5.4,0,0,1,52,98.14a4.43,4.43,0,0,1,3.44-1.42,4.49,4.49,0,0,1,3,.94A3.49,3.49,0,0,1,59.72,100Z"/><path class="cls-5" d="M68.88,98.69H63.73v2.06h4.72v1.69H63.73v2.5h5.38v1.75H61.75V97h7.13Z"/><path class="cls-5" d="M72.55,106.69h-2V97h2Z"/><path class="cls-5" d="M82.74,99.65A2.93,2.93,0,0,1,84,100.71a3.53,3.53,0,0,1,.57,1.49,9.21,9.21,0,0,1,.06,1.43H79.38a1.72,1.72,0,0,0,.75,1.52,1.91,1.91,0,0,0,1,.27,1.46,1.46,0,0,0,1.43-.82h1.92a2.35,2.35,0,0,1-.7,1.3,3.49,3.49,0,0,1-2.7,1,3.92,3.92,0,0,1-2.53-.88,3.48,3.48,0,0,1-1.1-2.88,3.89,3.89,0,0,1,1-2.87,3.46,3.46,0,0,1,2.57-1A4.09,4.09,0,0,1,82.74,99.65Zm-2.81,1.62a2,2,0,0,0-.5,1.11h3.24a1.57,1.57,0,0,0-.5-1.14,1.65,1.65,0,0,0-1.11-.39A1.49,1.49,0,0,0,79.93,101.27Z"/><path class="cls-5" d="M94.54,99.53a2.09,2.09,0,0,1,.84.65,2.07,2.07,0,0,1,.41.92,6.38,6.38,0,0,1,.07,1.06v4.53H93.91v-4.58a1.5,1.5,0,0,0-.13-.67.94.94,0,0,0-.92-.5,1.08,1.08,0,0,0-1.07.65,2,2,0,0,0-.15.82v4.28H89.73v-4.28a2.4,2.4,0,0,0-.13-.93.92.92,0,0,0-.93-.52,1.11,1.11,0,0,0-1.08.52,2,2,0,0,0-.15.88v4.33H85.53V99.51h1.83v1a3,3,0,0,1,.66-.8,2.61,2.61,0,0,1,2.75-.06,2.11,2.11,0,0,1,.62.86,2.39,2.39,0,0,1,.92-.93,2.8,2.8,0,0,1,1.29-.3A2.51,2.51,0,0,1,94.54,99.53Z"/><path class="cls-5" d="M99.51,98.64H97.6V96.91h1.91Zm-1.91.86h1.91v7.19H97.6Z"/><path class="cls-5" d="M100.59,100.91V99.57h1v-2h1.86v2h1.17v1.34h-1.17v3.8a.85.85,0,0,0,.11.55,1.23,1.23,0,0,0,.69.11h.37v1.4l-.89,0a2.39,2.39,0,0,1-1.82-.46,1.38,1.38,0,0,1-.32-1v-4.43Z"/><path class="cls-5" d="M107.76,98.64h-1.91V96.91h1.91Zm-1.91.86h1.91v7.19h-1.91Z"/><path class="cls-5" d="M113.39,99.62a2.28,2.28,0,0,1,.82.79V97h1.91v9.71H114.3v-1a2.64,2.64,0,0,1-.92.93,2.58,2.58,0,0,1-1.28.29,2.67,2.67,0,0,1-2.12-1,3.91,3.91,0,0,1-.86-2.62,4.5,4.5,0,0,1,.85-2.9,2.76,2.76,0,0,1,2.27-1.06A2.32,2.32,0,0,1,113.39,99.62Zm.46,5.12a2.62,2.62,0,0,0,.42-1.54,2.36,2.36,0,0,0-.67-1.89,1.43,1.43,0,0,0-.95-.34,1.32,1.32,0,0,0-1.21.62,2.89,2.89,0,0,0-.39,1.55,2.86,2.86,0,0,0,.39,1.59,1.33,1.33,0,0,0,1.19.6A1.39,1.39,0,0,0,113.85,104.74Z"/><path class="cls-5" d="M123.83,105.81a4,4,0,0,1-5.53,0,4.46,4.46,0,0,1,0-5.4,3.92,3.92,0,0,1,5.53,0,4.46,4.46,0,0,1,0,5.4Zm-1.5-1a3.36,3.36,0,0,0,0-3.33,1.67,1.67,0,0,0-2.54,0,3.33,3.33,0,0,0,0,3.33,1.67,1.67,0,0,0,2.54,0Z"/><path class="cls-5" d="M127.54,104.39a1.25,1.25,0,0,0,.26.71,1.75,1.75,0,0,0,1.3.38,2,2,0,0,0,.88-.17.53.53,0,0,0,.33-.49.53.53,0,0,0-.26-.48,10.81,10.81,0,0,0-2-.57,4.09,4.09,0,0,1-1.73-.76,1.64,1.64,0,0,1-.5-1.29,2.24,2.24,0,0,1,.78-1.71,3.15,3.15,0,0,1,2.2-.72,4.06,4.06,0,0,1,2.2.54,2.31,2.31,0,0,1,1,1.86h-1.88a1.11,1.11,0,0,0-.21-.57,1.29,1.29,0,0,0-1.06-.38,1.53,1.53,0,0,0-.88.19.55.55,0,0,0-.26.45.49.49,0,0,0,.28.47,12.06,12.06,0,0,0,2,.52,3.6,3.6,0,0,1,1.68.8,1.81,1.81,0,0,1,.55,1.35,2.18,2.18,0,0,1-.8,1.74,4.78,4.78,0,0,1-5,0,2.33,2.33,0,0,1-.81-1.82Z"/><path class="cls-5" d="M54.81,118.09v-1.28a8.29,8.29,0,0,0,1.24-.12,1.75,1.75,0,0,0,.92-.5,1.66,1.66,0,0,0,.37-.69,1.59,1.59,0,0,0,.07-.38H59v9.56H57.06v-6.6Z"/><path class="cls-5" d="M62.25,122.81a5.31,5.31,0,0,1,1.9-2,13.9,13.9,0,0,0,1.68-1.33,2,2,0,0,0,.59-1.37,1.52,1.52,0,0,0-.34-1,1.37,1.37,0,0,0-2.13.24,3.19,3.19,0,0,0-.21,1.17H61.92a4.63,4.63,0,0,1,.44-2A2.76,2.76,0,0,1,65,115.08a3.39,3.39,0,0,1,2.42.84,2.91,2.91,0,0,1,.9,2.23,3,3,0,0,1-.63,1.89,6.29,6.29,0,0,1-1.37,1.22l-.75.53q-.71.5-1,.73a2.11,2.11,0,0,0-.44.52h4.17v1.66H61.81A4.49,4.49,0,0,1,62.25,122.81Z"/><path class="cls-5" d="M69.62,120.58a2.31,2.31,0,0,1,1.07-1,2.24,2.24,0,0,1-.9-1,2.79,2.79,0,0,1-.21-1,2.34,2.34,0,0,1,.79-1.78,3.72,3.72,0,0,1,4.44,0,2.35,2.35,0,0,1,.79,1.78,2.79,2.79,0,0,1-.21,1,1.92,1.92,0,0,1-.9.93,2.65,2.65,0,0,1,1.07,1,3,3,0,0,1,.36,1.46,2.73,2.73,0,0,1-.89,2.05,3.49,3.49,0,0,1-2.5.85,3.24,3.24,0,0,1-2.43-.85,2.83,2.83,0,0,1-.83-2.05A3,3,0,0,1,69.62,120.58Zm2,2.43a1.51,1.51,0,0,0,2,0,1.83,1.83,0,0,0,0-2.21,1.52,1.52,0,0,0-2,0,1.83,1.83,0,0,0,0,2.21Zm.12-4.35a1.18,1.18,0,0,0,.89.33,1.17,1.17,0,0,0,.89-.33,1.18,1.18,0,0,0,.31-.85,1.21,1.21,0,0,0-.31-.89,1.19,1.19,0,0,0-.89-.32,1.11,1.11,0,0,0-1.21,1.21A1.17,1.17,0,0,0,71.7,118.65Z"/><path class="cls-5" d="M77.19,126.25a1.47,1.47,0,0,0,.83-.53,1.94,1.94,0,0,0,.31-1H77.19v-2h2v1.71a4,4,0,0,1-.12.94,1.9,1.9,0,0,1-.44.84,2.28,2.28,0,0,1-.82.58,2.13,2.13,0,0,1-.65.19Z"/><path class="cls-5" d="M81,122.81a5.31,5.31,0,0,1,1.9-2,13.9,13.9,0,0,0,1.68-1.33,2,2,0,0,0,.59-1.37,1.52,1.52,0,0,0-.34-1,1.37,1.37,0,0,0-2.13.24,3.19,3.19,0,0,0-.21,1.17H80.69a4.63,4.63,0,0,1,.44-2,2.76,2.76,0,0,1,2.67-1.43,3.39,3.39,0,0,1,2.42.84,2.91,2.91,0,0,1,.9,2.23,3,3,0,0,1-.63,1.89,6.29,6.29,0,0,1-1.37,1.22l-.75.53q-.71.5-1,.73A2.11,2.11,0,0,0,83,123h4.17v1.66H80.59A4.49,4.49,0,0,1,81,122.81Z"/><path class="cls-5" d="M94.74,122.63H93.66v2.06H91.82v-2.06H88V121l3.52-5.8h2.11v6h1.08Zm-2.92-1.47V117l-2.39,4.12Z"/><path class="cls-5" d="M95.91,120.58a2.31,2.31,0,0,1,1.07-1,2.24,2.24,0,0,1-.9-1,2.79,2.79,0,0,1-.21-1,2.34,2.34,0,0,1,.79-1.78,3.72,3.72,0,0,1,4.44,0,2.35,2.35,0,0,1,.79,1.78,2.79,2.79,0,0,1-.21,1,1.92,1.92,0,0,1-.9.93,2.65,2.65,0,0,1,1.07,1,3,3,0,0,1,.36,1.46,2.73,2.73,0,0,1-.89,2.05,3.49,3.49,0,0,1-2.5.85,3.24,3.24,0,0,1-2.43-.85,2.83,2.83,0,0,1-.83-2.05A3,3,0,0,1,95.91,120.58Zm2,2.43a1.51,1.51,0,0,0,2,0,1.83,1.83,0,0,0,0-2.21,1.52,1.52,0,0,0-2,0,1.83,1.83,0,0,0,0,2.21Zm.12-4.35a1.18,1.18,0,0,0,.89.33,1.17,1.17,0,0,0,.89-.33,1.18,1.18,0,0,0,.31-.85,1.21,1.21,0,0,0-.31-.89,1.19,1.19,0,0,0-.89-.32,1.11,1.11,0,0,0-1.21,1.21A1.17,1.17,0,0,0,98,118.65Z"/><path class="cls-5" d="M103.48,126.25a1.47,1.47,0,0,0,.83-.53,1.94,1.94,0,0,0,.31-1h-1.14v-2h2v1.71a4,4,0,0,1-.12.94,1.9,1.9,0,0,1-.44.84,2.28,2.28,0,0,1-.82.58,2.13,2.13,0,0,1-.65.19Z"/><path class="cls-5" d="M107.18,120.58a2.31,2.31,0,0,1,1.07-1,2.24,2.24,0,0,1-.9-1,2.79,2.79,0,0,1-.21-1,2.34,2.34,0,0,1,.79-1.78,3.72,3.72,0,0,1,4.44,0,2.35,2.35,0,0,1,.79,1.78,2.79,2.79,0,0,1-.21,1,1.92,1.92,0,0,1-.9.93,2.65,2.65,0,0,1,1.07,1,3,3,0,0,1,.36,1.46,2.73,2.73,0,0,1-.89,2.05,3.49,3.49,0,0,1-2.5.85,3.24,3.24,0,0,1-2.43-.85,2.83,2.83,0,0,1-.83-2.05A3,3,0,0,1,107.18,120.58Zm2,2.43a1.51,1.51,0,0,0,2,0,1.83,1.83,0,0,0,0-2.21,1.52,1.52,0,0,0-2,0,1.83,1.83,0,0,0,0,2.21Zm.12-4.35a1.18,1.18,0,0,0,.89.33,1.17,1.17,0,0,0,.89-.33,1.18,1.18,0,0,0,.31-.85,1.21,1.21,0,0,0-.31-.89,1.19,1.19,0,0,0-.89-.32,1.11,1.11,0,0,0-1.21,1.21A1.17,1.17,0,0,0,109.25,118.65Z"/><path class="cls-5" d="M114.84,122.81a5.31,5.31,0,0,1,1.9-2,13.9,13.9,0,0,0,1.68-1.33,2,2,0,0,0,.59-1.37,1.52,1.52,0,0,0-.34-1,1.37,1.37,0,0,0-2.13.24,3.19,3.19,0,0,0-.21,1.17H114.5a4.63,4.63,0,0,1,.44-2,2.76,2.76,0,0,1,2.67-1.43,3.39,3.39,0,0,1,2.42.84,2.91,2.91,0,0,1,.9,2.23,3,3,0,0,1-.63,1.89,6.29,6.29,0,0,1-1.37,1.22l-.75.53q-.71.5-1,.73a2.11,2.11,0,0,0-.44.52h4.17v1.66h-6.55A4.49,4.49,0,0,1,114.84,122.81Z"/><path class="cls-5" d="M128.55,122.63h-1.08v2.06h-1.84v-2.06h-3.79V121l3.52-5.8h2.11v6h1.08Zm-2.92-1.47V117l-2.39,4.12Z"/><path class="cls-4" d="M39.3,186.36a1.86,1.86,0,0,0,2,2,3.81,3.81,0,0,0,1.61-.3l.18.76a4.7,4.7,0,0,1-1.93.36,2.7,2.7,0,0,1-2.85-2.93c0-1.75,1-3.13,2.72-3.13a2.46,2.46,0,0,1,2.4,2.73,4,4,0,0,1,0,.49Zm3.09-.76a1.5,1.5,0,0,0-1.46-1.71,1.75,1.75,0,0,0-1.62,1.71Z"/><path class="cls-4" d="M44.73,184.84c0-.6,0-1.09,0-1.57h.92l0,.94h0a2,2,0,0,1,1.82-1.07,1.72,1.72,0,0,1,1.64,1.16h0a2.39,2.39,0,0,1,.65-.76,2,2,0,0,1,1.28-.41c.77,0,1.91.5,1.91,2.52v3.42H52v-3.29c0-1.12-.41-1.79-1.26-1.79a1.37,1.37,0,0,0-1.25,1,1.74,1.74,0,0,0-.08.53v3.59h-1v-3.48c0-.92-.41-1.6-1.21-1.6a1.44,1.44,0,0,0-1.31,1.06,1.46,1.46,0,0,0-.08.52v3.5h-1Z"/><path class="cls-4" d="M55.91,181.63a.65.65,0,0,1-1.31,0,.64.64,0,0,1,.66-.66A.63.63,0,0,1,55.91,181.63Zm-1.18,7.44v-5.8h1.06v5.8Z"/><path class="cls-4" d="M57.4,188a2.77,2.77,0,0,0,1.39.42c.77,0,1.13-.38,1.13-.86s-.3-.78-1.08-1.07c-1-.37-1.54-.95-1.54-1.64a1.79,1.79,0,0,1,2-1.7,2.9,2.9,0,0,1,1.43.36l-.26.77a2.26,2.26,0,0,0-1.19-.34c-.62,0-1,.36-1,.79s.35.7,1.1,1c1,.38,1.52.89,1.52,1.75,0,1-.79,1.74-2.17,1.74a3.31,3.31,0,0,1-1.63-.4Z"/><path class="cls-4" d="M63.47,181.63a.65.65,0,0,1-1.31,0,.64.64,0,0,1,.66-.66A.63.63,0,0,1,63.47,181.63Zm-1.18,7.44v-5.8h1.06v5.8Z"/><path class="cls-4" d="M70.36,186.12a2.84,2.84,0,0,1-2.89,3.08,2.76,2.76,0,0,1-2.78-3,2.83,2.83,0,0,1,2.88-3.08A2.75,2.75,0,0,1,70.36,186.12Zm-4.61.06c0,1.27.73,2.23,1.76,2.23s1.76-.95,1.76-2.25c0-1-.49-2.23-1.74-2.23S65.75,185.08,65.75,186.18Z"/><path class="cls-4" d="M71.69,184.84c0-.6,0-1.09,0-1.57h.94l.06,1h0a2.13,2.13,0,0,1,1.92-1.09c.8,0,2.05.48,2.05,2.47v3.47H75.58v-3.35c0-.94-.35-1.71-1.34-1.71a1.5,1.5,0,0,0-1.42,1.08,1.52,1.52,0,0,0-.07.49v3.49H71.69Z"/><path class="cls-4" d="M78.94,186.36a1.86,1.86,0,0,0,2,2,3.81,3.81,0,0,0,1.61-.3l.18.76a4.7,4.7,0,0,1-1.93.36,2.7,2.7,0,0,1-2.85-2.93c0-1.75,1-3.13,2.72-3.13a2.46,2.46,0,0,1,2.4,2.73,4,4,0,0,1,0,.49ZM82,185.6a1.5,1.5,0,0,0-1.46-1.71A1.75,1.75,0,0,0,79,185.6Z"/><path class="cls-4" d="M84.22,188a2.76,2.76,0,0,0,1.39.42c.77,0,1.13-.38,1.13-.86s-.3-.78-1.08-1.07c-1-.37-1.54-.95-1.54-1.64a1.79,1.79,0,0,1,2-1.7,2.9,2.9,0,0,1,1.43.36l-.26.77a2.26,2.26,0,0,0-1.19-.34c-.62,0-1,.36-1,.79s.35.7,1.1,1c1,.38,1.52.89,1.52,1.75,0,1-.79,1.74-2.17,1.74a3.31,3.31,0,0,1-1.63-.4Z"/><path class="cls-4" d="M96.67,180.56v7c0,.52,0,1.1,0,1.5h-.95l0-1h0a2.15,2.15,0,0,1-2,1.14c-1.4,0-2.48-1.19-2.48-3,0-1.93,1.19-3.12,2.6-3.12a1.94,1.94,0,0,1,1.75.89h0v-3.47Zm-1.06,5.07a1.85,1.85,0,0,0,0-.44A1.55,1.55,0,0,0,94,184c-1.09,0-1.74,1-1.74,2.24s.58,2.15,1.72,2.15a1.59,1.59,0,0,0,1.55-1.26,1.83,1.83,0,0,0,0-.46Z"/><path class="cls-4" d="M99.6,181.63a.65.65,0,0,1-1.31,0A.64.64,0,0,1,99,181,.63.63,0,0,1,99.6,181.63Zm-1.17,7.44v-5.8h1.06v5.8Z"/><path class="cls-4" d="M101.24,185.08c0-.68,0-1.27,0-1.81h.92l0,1.14h0a1.74,1.74,0,0,1,1.61-1.27,1.16,1.16,0,0,1,.3,0v1a1.6,1.6,0,0,0-.36,0,1.48,1.48,0,0,0-1.42,1.36,2.92,2.92,0,0,0,0,.49v3.09h-1Z"/><path class="cls-4" d="M105.63,186.36a1.86,1.86,0,0,0,2,2,3.81,3.81,0,0,0,1.61-.3l.18.76a4.7,4.7,0,0,1-1.93.36,2.7,2.7,0,0,1-2.85-2.93c0-1.75,1-3.13,2.72-3.13a2.46,2.46,0,0,1,2.4,2.73,4,4,0,0,1,0,.49Zm3.09-.76a1.5,1.5,0,0,0-1.46-1.71,1.75,1.75,0,0,0-1.62,1.71Z"/><path class="cls-4" d="M115.19,188.85a3.88,3.88,0,0,1-1.67.34,2.76,2.76,0,0,1-2.89-3,3,3,0,0,1,3.12-3.08,3.53,3.53,0,0,1,1.46.3l-.24.82a2.45,2.45,0,0,0-1.22-.28,2.19,2.19,0,0,0,0,4.37,3,3,0,0,0,1.29-.29Z"/><path class="cls-4" d="M117.85,181.6v1.67h1.51v.8h-1.51v3.13c0,.72.2,1.13.79,1.13a2.36,2.36,0,0,0,.61-.07l0,.79a2.58,2.58,0,0,1-.94.14,1.46,1.46,0,0,1-1.14-.44,2.15,2.15,0,0,1-.41-1.51v-3.17h-.9v-.8h.9v-1.39Z"/><path class="cls-4" d="M123.77,189.07l-.08-.73h0a2.16,2.16,0,0,1-1.78.86,1.65,1.65,0,0,1-1.77-1.67c0-1.4,1.25-2.17,3.49-2.16v-.12a1.2,1.2,0,0,0-1.32-1.34,2.9,2.9,0,0,0-1.51.43l-.24-.7a3.6,3.6,0,0,1,1.91-.52c1.78,0,2.21,1.21,2.21,2.37v2.17a8.15,8.15,0,0,0,.1,1.39Zm-.16-3c-1.15,0-2.46.18-2.46,1.31a.93.93,0,0,0,1,1,1.45,1.45,0,0,0,1.4-1,1.13,1.13,0,0,0,.06-.34Z"/><path class="cls-4" d="M126.2,188a2.76,2.76,0,0,0,1.39.42c.77,0,1.13-.38,1.13-.86s-.3-.78-1.08-1.07c-1-.37-1.54-.95-1.54-1.64a1.79,1.79,0,0,1,2-1.7,2.9,2.9,0,0,1,1.43.36l-.26.77a2.26,2.26,0,0,0-1.19-.34c-.62,0-1,.36-1,.79s.35.7,1.1,1c1,.38,1.52.89,1.52,1.75,0,1-.79,1.74-2.17,1.74a3.31,3.31,0,0,1-1.63-.4Z"/><path class="cls-4" d="M139.82,188.71a7.53,7.53,0,0,1-2.48.44,3.8,3.8,0,0,1-4.15-4.08,4.05,4.05,0,0,1,4.38-4.17,5,5,0,0,1,2,.37l-.25.85a4.19,4.19,0,0,0-1.79-.35A3,3,0,0,0,134.3,185a3,3,0,0,0,3.12,3.26,3.4,3.4,0,0,0,1.39-.22v-2.41h-1.64v-.84h2.66Z"/><path class="cls-4" d="M145.61,185.28h-3.14v2.91H146v.88h-4.55V181h4.37v.88h-3.32v2.55h3.14Z"/><path class="cls-4" d="M148.37,181v8.08h-1V181Z"/></g></g></svg>
