<svg xmlns="http://www.w3.org/2000/svg" viewBox="0 0 161.37 207.01"><defs><style>.cls-1,.cls-2{fill:none;stroke:#a5a4a8;stroke-linecap:round;stroke-linejoin:round;}.cls-1{stroke-width:3px;stroke-dasharray:0 12.06;}.cls-2{stroke-width:2px;}.cls-3{fill:#285746;}.cls-4{fill:#56b674;}.cls-5{fill:#fff;}</style></defs><title>alcance2</title><g id="Layer_2" data-name="Layer 2"><g id="Layer_1-2" data-name="Layer 1"><circle class="cls-1" cx="94.62" cy="86.07" r="65.24" transform="translate(-14.03 18.56) rotate(-10.44)"/><circle class="cls-2" cx="111.93" cy="28.79" r="27.78" transform="translate(-3.36 20.75) rotate(-10.44)"/><circle class="cls-3" cx="75.7" cy="83.42" r="75.7" transform="translate(-11.12 155.2) rotate(-87.36)"/><circle class="cls-4" cx="75.7" cy="83.42" r="63.27"/><circle class="cls-4" cx="120.33" cy="158.89" r="4.1"/><path class="cls-5" d="M55.79,45.83h2.3l3.44,9.72h-2.2l-.64-2H55.1l-.66,2H52.32Zm-.13,6h2.49L56.92,48Z"/><path class="cls-5" d="M64.53,55.55H62.65V45.83h1.88Z"/><path class="cls-5" d="M70.66,50.94a1.66,1.66,0,0,0-.27-.73,1.14,1.14,0,0,0-1-.44,1.3,1.3,0,0,0-1.3.94A3.9,3.9,0,0,0,67.92,52a3.58,3.58,0,0,0,.19,1.27,1.26,1.26,0,0,0,1.27.9,1.12,1.12,0,0,0,.94-.36,1.76,1.76,0,0,0,.34-.92h1.92a3.14,3.14,0,0,1-.62,1.62,3,3,0,0,1-2.62,1.23,3.07,3.07,0,0,1-2.55-1A4.16,4.16,0,0,1,66,52.1a4.21,4.21,0,0,1,.9-2.88,3.15,3.15,0,0,1,2.5-1,3.76,3.76,0,0,1,2.21.61,2.82,2.82,0,0,1,1,2.14Z"/><path class="cls-5" d="M76.72,51.18a3,3,0,0,0,.75-.16.57.57,0,0,0,.41-.53.63.63,0,0,0-.31-.61,2,2,0,0,0-.91-.17,1.2,1.2,0,0,0-1,.33,1.36,1.36,0,0,0-.27.66H73.62a2.75,2.75,0,0,1,.53-1.55,3.09,3.09,0,0,1,2.57-.95,4.59,4.59,0,0,1,2.11.47,1.8,1.8,0,0,1,.92,1.77v3.3q0,.34,0,.83a1,1,0,0,0,.11.5.67.67,0,0,0,.28.22v.28h-2a2,2,0,0,1-.12-.41q0-.19-.05-.44a3.87,3.87,0,0,1-.9.72,2.72,2.72,0,0,1-1.38.35A2.38,2.38,0,0,1,74,55.22a2,2,0,0,1-.64-1.58,2,2,0,0,1,1-1.92,4.6,4.6,0,0,1,1.66-.46Zm1.15.88a2.07,2.07,0,0,1-.36.18,3.07,3.07,0,0,1-.5.13l-.43.08a2.81,2.81,0,0,0-.86.26.86.86,0,0,0-.44.8.83.83,0,0,0,.27.7,1,1,0,0,0,.66.21,2,2,0,0,0,1.13-.36,1.51,1.51,0,0,0,.54-1.3Z"/><path class="cls-5" d="M87.19,48.77a2.38,2.38,0,0,1,.71,1.94v4.84H86V51.18a2,2,0,0,0-.15-.87,1.06,1.06,0,0,0-1-.55,1.3,1.3,0,0,0-1.3.81,2.81,2.81,0,0,0-.18,1.09v3.89H81.4V48.37h1.82v1a3.19,3.19,0,0,1,.68-.8,2.37,2.37,0,0,1,1.46-.44A2.76,2.76,0,0,1,87.19,48.77Z"/><path class="cls-5" d="M93.94,50.94a1.66,1.66,0,0,0-.27-.73,1.14,1.14,0,0,0-1-.44,1.3,1.3,0,0,0-1.3.94A3.9,3.9,0,0,0,91.2,52a3.58,3.58,0,0,0,.19,1.27,1.26,1.26,0,0,0,1.27.9,1.12,1.12,0,0,0,.94-.36,1.76,1.76,0,0,0,.34-.92h1.92a3.14,3.14,0,0,1-.62,1.62,3,3,0,0,1-2.62,1.23,3.07,3.07,0,0,1-2.55-1,4.16,4.16,0,0,1-.82-2.67,4.21,4.21,0,0,1,.9-2.88,3.15,3.15,0,0,1,2.5-1,3.76,3.76,0,0,1,2.21.61,2.82,2.82,0,0,1,1,2.14Z"/><path class="cls-5" d="M101.84,48.5a2.93,2.93,0,0,1,1.24,1.06,3.53,3.53,0,0,1,.57,1.49,9.21,9.21,0,0,1,.06,1.43H98.48A1.72,1.72,0,0,0,99.23,54a1.91,1.91,0,0,0,1,.27,1.46,1.46,0,0,0,1.43-.82h1.92a2.35,2.35,0,0,1-.7,1.3,3.49,3.49,0,0,1-2.71,1,3.92,3.92,0,0,1-2.53-.88A3.48,3.48,0,0,1,96.59,52a3.89,3.89,0,0,1,1-2.87,3.46,3.46,0,0,1,2.57-1A4.1,4.1,0,0,1,101.84,48.5ZM99,50.13a2,2,0,0,0-.5,1.11h3.24a1.57,1.57,0,0,0-.5-1.14,1.65,1.65,0,0,0-1.12-.39A1.49,1.49,0,0,0,99,50.13Z"/><path class="cls-5" d="M71.46,80.37q.89-2.12,4.22-4.5a30.94,30.94,0,0,0,3.74-3,4.37,4.37,0,0,0,1.3-3A3.38,3.38,0,0,0,80,67.63a3,3,0,0,0-4.73.53,7,7,0,0,0-.47,2.61H70.71a10.25,10.25,0,0,1,1-4.38q1.67-3.18,5.94-3.18A7.54,7.54,0,0,1,83,65.07,6.46,6.46,0,0,1,85,70a6.68,6.68,0,0,1-1.41,4.19,14,14,0,0,1-3,2.71L78.87,78.1q-1.57,1.11-2.15,1.61a4.7,4.7,0,0,0-1,1.16H85v3.68H70.48A10,10,0,0,1,71.46,80.37Z"/><path class="cls-5" d="M44.17,95.86A1.9,1.9,0,0,0,43,94.47a2.77,2.77,0,0,0-1.12-.22,2.42,2.42,0,0,0-1.93.89,4,4,0,0,0-.75,2.66,3.3,3.3,0,0,0,.82,2.53,2.69,2.69,0,0,0,1.86.74,2.41,2.41,0,0,0,1.67-.59A2.53,2.53,0,0,0,44.4,99H42.15V97.33h4v5.22H44.85l-.2-1.21a4.66,4.66,0,0,1-1.06,1,3.73,3.73,0,0,1-2,.49,4.11,4.11,0,0,1-3.17-1.34,5.1,5.1,0,0,1-1.29-3.68A5.4,5.4,0,0,1,38.46,94a4.43,4.43,0,0,1,3.44-1.42,4.49,4.49,0,0,1,3,.94,3.49,3.49,0,0,1,1.29,2.34Z"/><path class="cls-5" d="M55.33,94.55H50.18v2.06H54.9V98.3H50.18v2.5h5.38v1.75H48.2V92.83h7.13Z"/><path class="cls-5" d="M59,102.55H57V92.83h2Z"/><path class="cls-5" d="M69.19,95.5a2.93,2.93,0,0,1,1.24,1.06A3.53,3.53,0,0,1,71,98.05a9.21,9.21,0,0,1,.06,1.43H65.83a1.72,1.72,0,0,0,.75,1.52,1.91,1.91,0,0,0,1,.27,1.46,1.46,0,0,0,1.43-.82H71a2.35,2.35,0,0,1-.7,1.3,3.49,3.49,0,0,1-2.71,1,3.92,3.92,0,0,1-2.53-.88A3.48,3.48,0,0,1,63.93,99a3.89,3.89,0,0,1,1-2.87,3.46,3.46,0,0,1,2.57-1A4.1,4.1,0,0,1,69.19,95.5Zm-2.81,1.62a2,2,0,0,0-.5,1.11h3.24a1.57,1.57,0,0,0-.5-1.14,1.65,1.65,0,0,0-1.12-.39A1.49,1.49,0,0,0,66.37,97.13Z"/><path class="cls-5" d="M81,95.39a2.09,2.09,0,0,1,.84.65,2.07,2.07,0,0,1,.41.92A6.38,6.38,0,0,1,82.3,98v4.53H80.36V98a1.5,1.5,0,0,0-.13-.67.94.94,0,0,0-.92-.5,1.08,1.08,0,0,0-1.07.65,2,2,0,0,0-.15.82v4.28H76.18V98.27a2.4,2.4,0,0,0-.13-.93.92.92,0,0,0-.93-.52,1.11,1.11,0,0,0-1.08.52,2,2,0,0,0-.15.88v4.33H72V95.37h1.83v1a3,3,0,0,1,.66-.8,2.61,2.61,0,0,1,2.75-.06,2.11,2.11,0,0,1,.62.86,2.39,2.39,0,0,1,.92-.93A2.8,2.8,0,0,1,80,95.2,2.51,2.51,0,0,1,81,95.39Z"/><path class="cls-5" d="M86,94.5H84.05V92.77H86Zm-1.91.86H86v7.19H84.05Z"/><path class="cls-5" d="M87,96.76V95.42h1v-2H89.9v2h1.17v1.34H89.9v3.8a.85.85,0,0,0,.11.55,1.23,1.23,0,0,0,.69.11h.37v1.4l-.89,0a2.39,2.39,0,0,1-1.82-.46,1.38,1.38,0,0,1-.32-1V96.76Z"/><path class="cls-5" d="M94.21,94.5H92.3V92.77h1.91Zm-1.91.86h1.91v7.19H92.3Z"/><path class="cls-5" d="M99.84,95.47a2.28,2.28,0,0,1,.82.79V92.84h1.91v9.71h-1.83v-1a2.64,2.64,0,0,1-.92.93,2.58,2.58,0,0,1-1.28.29,2.67,2.67,0,0,1-2.12-1,3.91,3.91,0,0,1-.86-2.62,4.5,4.5,0,0,1,.85-2.9,2.76,2.76,0,0,1,2.27-1.06A2.32,2.32,0,0,1,99.84,95.47Zm.46,5.12a2.62,2.62,0,0,0,.42-1.54,2.36,2.36,0,0,0-.67-1.89,1.43,1.43,0,0,0-.95-.34,1.32,1.32,0,0,0-1.21.62A2.89,2.89,0,0,0,97.51,99a2.86,2.86,0,0,0,.39,1.59,1.33,1.33,0,0,0,1.19.6A1.39,1.39,0,0,0,100.3,100.6Z"/><path class="cls-5" d="M110.27,101.67a4,4,0,0,1-5.53,0,4.46,4.46,0,0,1,0-5.4,3.92,3.92,0,0,1,5.53,0,4.46,4.46,0,0,1,0,5.4Zm-1.5-1a3.36,3.36,0,0,0,0-3.33,1.67,1.67,0,0,0-2.54,0,3.33,3.33,0,0,0,0,3.33,1.67,1.67,0,0,0,2.54,0Z"/><path class="cls-5" d="M114,100.25a1.25,1.25,0,0,0,.26.71,1.75,1.75,0,0,0,1.3.38,2,2,0,0,0,.88-.17.53.53,0,0,0,.33-.49.53.53,0,0,0-.26-.48,10.81,10.81,0,0,0-2-.57,4.09,4.09,0,0,1-1.73-.76,1.64,1.64,0,0,1-.5-1.29,2.24,2.24,0,0,1,.78-1.71,3.15,3.15,0,0,1,2.2-.72,4.06,4.06,0,0,1,2.2.54,2.31,2.31,0,0,1,1,1.86h-1.88a1.11,1.11,0,0,0-.21-.57,1.29,1.29,0,0,0-1.06-.38,1.53,1.53,0,0,0-.88.19.55.55,0,0,0-.26.45.49.49,0,0,0,.28.47,12.06,12.06,0,0,0,2,.52,3.6,3.6,0,0,1,1.68.8,1.81,1.81,0,0,1,.55,1.35,2.18,2.18,0,0,1-.8,1.74,4.78,4.78,0,0,1-5,0,2.33,2.33,0,0,1-.81-1.82Z"/><path class="cls-5" d="M46.28,117.61a2.15,2.15,0,0,0,.18.95,1.26,1.26,0,0,0,1.24.69,1.38,1.38,0,0,0,1-.38,1.41,1.41,0,0,0,.41-1.09,1.23,1.23,0,0,0-.76-1.26,3.86,3.86,0,0,0-1.37-.18V115a3.53,3.53,0,0,0,1.27-.18,1.1,1.1,0,0,0,.63-1.12,1.26,1.26,0,0,0-.32-.89,1.17,1.17,0,0,0-.9-.34,1.14,1.14,0,0,0-1,.42,1.8,1.8,0,0,0-.3,1.13H44.61a4.74,4.74,0,0,1,.24-1.35,3,3,0,0,1,.72-1,2.53,2.53,0,0,1,.88-.51,3.78,3.78,0,0,1,1.25-.18,3.31,3.31,0,0,1,2.21.71,2.36,2.36,0,0,1,.84,1.9,2.1,2.1,0,0,1-.5,1.42,1.71,1.71,0,0,1-.66.49,1.36,1.36,0,0,1,.74.44,2.36,2.36,0,0,1,.72,1.82,3.07,3.07,0,0,1-.84,2.13,3.2,3.2,0,0,1-2.49.92,3,3,0,0,1-2.82-1.33,3.94,3.94,0,0,1-.46-1.85Z"/><path class="cls-5" d="M53.82,118a1.81,1.81,0,0,0,.43.95,1.21,1.21,0,0,0,.92.33,1.24,1.24,0,0,0,1.06-.49,2,2,0,0,0,.37-1.24,2.16,2.16,0,0,0-.34-1.24,1.2,1.2,0,0,0-1.07-.5,1.83,1.83,0,0,0-.59.09,1.18,1.18,0,0,0-.67.59l-1.68-.08.67-5.28h5.26v1.6H54.28l-.34,2.09a4,4,0,0,1,.68-.38,2.87,2.87,0,0,1,1-.15,2.89,2.89,0,0,1,3,3.12,3.65,3.65,0,0,1-.85,2.37,3.09,3.09,0,0,1-2.54,1,3.38,3.38,0,0,1-2.24-.73,2.84,2.84,0,0,1-1-2.08Z"/><path class="cls-5" d="M59.88,122.11a1.47,1.47,0,0,0,.83-.53,1.94,1.94,0,0,0,.31-1H59.88v-2h2v1.71a4,4,0,0,1-.12.94,1.9,1.9,0,0,1-.44.84,2.28,2.28,0,0,1-.82.58,2.13,2.13,0,0,1-.65.19Z"/><path class="cls-5" d="M63.72,118.67a5.31,5.31,0,0,1,1.9-2,13.9,13.9,0,0,0,1.68-1.33,2,2,0,0,0,.59-1.37,1.52,1.52,0,0,0-.34-1,1.37,1.37,0,0,0-2.13.24,3.19,3.19,0,0,0-.21,1.17H63.39a4.63,4.63,0,0,1,.44-2,2.76,2.76,0,0,1,2.67-1.43,3.39,3.39,0,0,1,2.42.84,2.91,2.91,0,0,1,.9,2.23,3,3,0,0,1-.63,1.89,6.29,6.29,0,0,1-1.37,1.22l-.75.53q-.71.5-1,.73a2.11,2.11,0,0,0-.44.52h4.17v1.66H63.28A4.49,4.49,0,0,1,63.72,118.67Z"/><path class="cls-5" d="M72.6,118a1.81,1.81,0,0,0,.43.95,1.21,1.21,0,0,0,.92.33,1.24,1.24,0,0,0,1.06-.49,2,2,0,0,0,.37-1.24A2.16,2.16,0,0,0,75,116.3a1.2,1.2,0,0,0-1.07-.5,1.83,1.83,0,0,0-.59.09,1.18,1.18,0,0,0-.67.59L71,116.39l.67-5.28H77v1.6H73.05l-.34,2.09a4,4,0,0,1,.68-.38,2.87,2.87,0,0,1,1-.15,2.89,2.89,0,0,1,3,3.12,3.65,3.65,0,0,1-.85,2.37,3.09,3.09,0,0,1-2.54,1,3.38,3.38,0,0,1-2.24-.73,2.84,2.84,0,0,1-1-2.08Z"/><path class="cls-5" d="M78.82,114v-1.28a8.29,8.29,0,0,0,1.24-.12,1.75,1.75,0,0,0,.92-.5,1.66,1.66,0,0,0,.37-.69,1.59,1.59,0,0,0,.07-.38H83v9.56H81.07V114Z"/><path class="cls-5" d="M86.18,122.11a1.47,1.47,0,0,0,.83-.53,1.94,1.94,0,0,0,.31-1H86.18v-2h2v1.71a4,4,0,0,1-.12.94,1.9,1.9,0,0,1-.44.84,2.28,2.28,0,0,1-.82.58,2.13,2.13,0,0,1-.65.19Z"/><path class="cls-5" d="M90,118.67a5.31,5.31,0,0,1,1.9-2,13.9,13.9,0,0,0,1.68-1.33,2,2,0,0,0,.59-1.37,1.52,1.52,0,0,0-.34-1,1.37,1.37,0,0,0-2.13.24,3.19,3.19,0,0,0-.21,1.17H89.68a4.63,4.63,0,0,1,.44-2,2.76,2.76,0,0,1,2.67-1.43,3.39,3.39,0,0,1,2.42.84,2.91,2.91,0,0,1,.9,2.23,3,3,0,0,1-.63,1.89,6.29,6.29,0,0,1-1.37,1.22l-.75.53q-.71.5-1,.73a2.11,2.11,0,0,0-.44.52h4.17v1.66H89.57A4.49,4.49,0,0,1,90,118.67Z"/><path class="cls-5" d="M98.87,117.61a2.15,2.15,0,0,0,.18.95,1.26,1.26,0,0,0,1.24.69,1.38,1.38,0,0,0,1-.38,1.41,1.41,0,0,0,.41-1.09,1.23,1.23,0,0,0-.76-1.26,3.86,3.86,0,0,0-1.37-.18V115a3.53,3.53,0,0,0,1.27-.18,1.1,1.1,0,0,0,.63-1.12,1.26,1.26,0,0,0-.32-.89,1.17,1.17,0,0,0-.9-.34,1.14,1.14,0,0,0-1,.42,1.8,1.8,0,0,0-.3,1.13H97.19a4.74,4.74,0,0,1,.24-1.35,3,3,0,0,1,.72-1,2.53,2.53,0,0,1,.88-.51,3.78,3.78,0,0,1,1.25-.18,3.31,3.31,0,0,1,2.21.71,2.36,2.36,0,0,1,.84,1.9,2.1,2.1,0,0,1-.5,1.42,1.71,1.71,0,0,1-.66.49,1.36,1.36,0,0,1,.74.44,2.36,2.36,0,0,1,.72,1.82,3.07,3.07,0,0,1-.84,2.13,3.2,3.2,0,0,1-2.49.92,3,3,0,0,1-2.82-1.33,3.94,3.94,0,0,1-.46-1.85Z"/><path class="cls-5" d="M111.3,112.58a12,12,0,0,0-1.18,1.48,12.16,12.16,0,0,0-2,4.38,9,9,0,0,0-.32,2.11h-2a11.49,11.49,0,0,1,1.69-5.35,12.66,12.66,0,0,1,1.74-2.4h-4.76l0-1.69h6.75Z"/><path class="cls-4" d="M22.48,187.4a1.86,1.86,0,0,0,2,2,3.81,3.81,0,0,0,1.61-.3l.18.76a4.7,4.7,0,0,1-1.93.36,2.7,2.7,0,0,1-2.85-2.93c0-1.75,1-3.13,2.72-3.13a2.46,2.46,0,0,1,2.4,2.73,4,4,0,0,1,0,.49Zm3.09-.76a1.5,1.5,0,0,0-1.46-1.71,1.75,1.75,0,0,0-1.62,1.71Z"/><path class="cls-4" d="M27.91,185.87c0-.6,0-1.09,0-1.57h.92l0,.94h0a2,2,0,0,1,1.82-1.07,1.72,1.72,0,0,1,1.64,1.16h0a2.39,2.39,0,0,1,.65-.76,2,2,0,0,1,1.28-.41c.77,0,1.91.5,1.91,2.52v3.42h-1v-3.29c0-1.12-.41-1.79-1.26-1.79a1.37,1.37,0,0,0-1.25,1,1.74,1.74,0,0,0-.08.53v3.59h-1v-3.48c0-.92-.41-1.6-1.21-1.6A1.44,1.44,0,0,0,29,186.09a1.46,1.46,0,0,0-.08.52v3.5h-1Z"/><path class="cls-4" d="M39.09,182.67a.65.65,0,0,1-1.31,0,.64.64,0,0,1,.66-.66A.63.63,0,0,1,39.09,182.67Zm-1.18,7.44v-5.8H39v5.8Z"/><path class="cls-4" d="M40.58,189a2.77,2.77,0,0,0,1.39.42c.77,0,1.13-.38,1.13-.86s-.3-.78-1.08-1.07c-1-.37-1.54-.95-1.54-1.64a1.79,1.79,0,0,1,2-1.7,2.9,2.9,0,0,1,1.43.36l-.26.77a2.26,2.26,0,0,0-1.19-.34c-.62,0-1,.36-1,.79s.35.7,1.1,1c1,.38,1.52.89,1.52,1.75,0,1-.79,1.74-2.17,1.74a3.31,3.31,0,0,1-1.63-.4Z"/><path class="cls-4" d="M46.65,182.67a.65.65,0,0,1-1.31,0A.64.64,0,0,1,46,182,.63.63,0,0,1,46.65,182.67Zm-1.18,7.44v-5.8h1.06v5.8Z"/><path class="cls-4" d="M53.54,187.16a2.84,2.84,0,0,1-2.89,3.08,2.76,2.76,0,0,1-2.78-3,2.83,2.83,0,0,1,2.88-3.08A2.75,2.75,0,0,1,53.54,187.16Zm-4.61.06c0,1.27.73,2.23,1.76,2.23s1.76-.95,1.76-2.25c0-1-.49-2.23-1.74-2.23S48.93,186.11,48.93,187.22Z"/><path class="cls-4" d="M54.87,185.87c0-.6,0-1.09,0-1.57h.94l.06,1h0a2.13,2.13,0,0,1,1.92-1.09c.8,0,2.05.48,2.05,2.47v3.47H58.76v-3.35c0-.94-.35-1.71-1.34-1.71A1.5,1.5,0,0,0,56,186.12a1.52,1.52,0,0,0-.07.49v3.49H54.87Z"/><path class="cls-4" d="M62.12,187.4a1.86,1.86,0,0,0,2,2,3.81,3.81,0,0,0,1.61-.3l.18.76a4.7,4.7,0,0,1-1.93.36,2.7,2.7,0,0,1-2.85-2.93c0-1.75,1-3.13,2.72-3.13a2.46,2.46,0,0,1,2.4,2.73,4,4,0,0,1,0,.49Zm3.09-.76a1.5,1.5,0,0,0-1.46-1.71,1.75,1.75,0,0,0-1.62,1.71Z"/><path class="cls-4" d="M67.4,189a2.76,2.76,0,0,0,1.39.42c.77,0,1.13-.38,1.13-.86s-.3-.78-1.08-1.07c-1-.37-1.54-.95-1.54-1.64a1.79,1.79,0,0,1,2-1.7,2.9,2.9,0,0,1,1.43.36l-.26.77a2.26,2.26,0,0,0-1.19-.34c-.62,0-1,.36-1,.79s.35.7,1.1,1c1,.38,1.52.89,1.52,1.75,0,1-.79,1.74-2.17,1.74a3.31,3.31,0,0,1-1.63-.4Z"/><path class="cls-4" d="M76,182.67a.65.65,0,0,1-1.31,0,.64.64,0,0,1,.66-.66A.63.63,0,0,1,76,182.67Zm-1.18,7.44v-5.8H75.9v5.8Z"/><path class="cls-4" d="M77.65,185.87c0-.6,0-1.09,0-1.57h.94l.06,1h0a2.13,2.13,0,0,1,1.92-1.09c.8,0,2.05.48,2.05,2.47v3.47H81.53v-3.35c0-.94-.35-1.71-1.34-1.71a1.5,1.5,0,0,0-1.42,1.08,1.52,1.52,0,0,0-.07.49v3.49H77.65Z"/><path class="cls-4" d="M89.32,181.59v7c0,.52,0,1.1,0,1.5h-.95l0-1h0a2.15,2.15,0,0,1-2,1.14c-1.4,0-2.48-1.19-2.48-3,0-1.93,1.19-3.12,2.6-3.12a1.94,1.94,0,0,1,1.75.89h0v-3.47Zm-1.06,5.07a1.85,1.85,0,0,0,0-.44A1.55,1.55,0,0,0,86.69,185c-1.09,0-1.74,1-1.74,2.24s.58,2.15,1.72,2.15a1.59,1.59,0,0,0,1.55-1.26,1.83,1.83,0,0,0,0-.46Z"/><path class="cls-4" d="M92.25,182.67a.65.65,0,0,1-1.31,0,.64.64,0,0,1,.66-.66A.63.63,0,0,1,92.25,182.67Zm-1.17,7.44v-5.8h1.06v5.8Z"/><path class="cls-4" d="M93.88,186.11c0-.68,0-1.27,0-1.81h.92l0,1.14h0a1.74,1.74,0,0,1,1.61-1.27,1.16,1.16,0,0,1,.3,0v1a1.6,1.6,0,0,0-.36,0A1.48,1.48,0,0,0,95,186.52a2.92,2.92,0,0,0,0,.49v3.09h-1Z"/><path class="cls-4" d="M98.28,187.4a1.86,1.86,0,0,0,2,2,3.81,3.81,0,0,0,1.61-.3l.18.76a4.7,4.7,0,0,1-1.93.36,2.7,2.7,0,0,1-2.85-2.93c0-1.75,1-3.13,2.72-3.13a2.46,2.46,0,0,1,2.4,2.73,4,4,0,0,1,0,.49Zm3.09-.76a1.5,1.5,0,0,0-1.46-1.71,1.75,1.75,0,0,0-1.62,1.71Z"/><path class="cls-4" d="M107.84,189.89a3.88,3.88,0,0,1-1.67.34,2.76,2.76,0,0,1-2.89-3,3,3,0,0,1,3.12-3.08,3.53,3.53,0,0,1,1.46.3l-.24.82a2.45,2.45,0,0,0-1.22-.28,2.19,2.19,0,0,0,0,4.37,3,3,0,0,0,1.29-.29Z"/><path class="cls-4" d="M110.5,182.63v1.67H112v.8H110.5v3.13c0,.72.2,1.13.79,1.13a2.36,2.36,0,0,0,.61-.07l0,.79a2.58,2.58,0,0,1-.94.14,1.46,1.46,0,0,1-1.14-.44,2.15,2.15,0,0,1-.41-1.51V185.1h-.9v-.8h.9v-1.39Z"/><path class="cls-4" d="M116.42,190.11l-.08-.73h0a2.16,2.16,0,0,1-1.78.86,1.65,1.65,0,0,1-1.77-1.67c0-1.4,1.25-2.17,3.49-2.16v-.12a1.2,1.2,0,0,0-1.32-1.34,2.9,2.9,0,0,0-1.51.43l-.24-.7a3.6,3.6,0,0,1,1.91-.52c1.78,0,2.21,1.21,2.21,2.37v2.17a8.15,8.15,0,0,0,.1,1.39Zm-.16-3c-1.15,0-2.46.18-2.46,1.31a.93.93,0,0,0,1,1,1.45,1.45,0,0,0,1.4-1,1.13,1.13,0,0,0,.06-.34Z"/><path class="cls-4" d="M118.84,189a2.76,2.76,0,0,0,1.39.42c.77,0,1.13-.38,1.13-.86s-.3-.78-1.08-1.07c-1-.37-1.54-.95-1.54-1.64a1.79,1.79,0,0,1,2-1.7,2.9,2.9,0,0,1,1.43.36l-.26.77a2.26,2.26,0,0,0-1.19-.34c-.62,0-1,.36-1,.79s.35.7,1.1,1c1,.38,1.52.89,1.52,1.75,0,1-.79,1.74-2.17,1.74a3.31,3.31,0,0,1-1.63-.4Z"/><path class="cls-4" d="M15.43,196v7c0,.52,0,1.1,0,1.5h-.95l0-1h0a2.15,2.15,0,0,1-2,1.14c-1.4,0-2.48-1.19-2.48-3,0-1.93,1.19-3.12,2.6-3.12a1.94,1.94,0,0,1,1.75.89h0V196Zm-1.06,5.07a1.85,1.85,0,0,0,0-.44,1.55,1.55,0,0,0-1.52-1.22c-1.09,0-1.74,1-1.74,2.24s.58,2.15,1.72,2.15a1.59,1.59,0,0,0,1.55-1.26,1.82,1.82,0,0,0,0-.46Z"/><path class="cls-4" d="M17.78,201.8a1.86,1.86,0,0,0,2,2,3.81,3.81,0,0,0,1.61-.3l.18.76a4.7,4.7,0,0,1-1.93.36,2.7,2.7,0,0,1-2.85-2.93c0-1.75,1-3.13,2.72-3.13a2.46,2.46,0,0,1,2.4,2.73,4,4,0,0,1,0,.49Zm3.09-.76a1.5,1.5,0,0,0-1.46-1.71A1.75,1.75,0,0,0,17.79,201Z"/><path class="cls-4" d="M31.93,204.15a7.53,7.53,0,0,1-2.48.44,3.8,3.8,0,0,1-4.15-4.08,4.05,4.05,0,0,1,4.38-4.17,5,5,0,0,1,2,.37l-.25.85a4.19,4.19,0,0,0-1.79-.35,3,3,0,0,0-3.25,3.25,3,3,0,0,0,3.12,3.26,3.4,3.4,0,0,0,1.39-.22V201.1H29.27v-.84h2.66Z"/><path class="cls-4" d="M37.72,200.72H34.57v2.91h3.5v.88H33.53v-8.08H37.9v.88H34.57v2.55h3.14Z"/><path class="cls-4" d="M40.48,196.42v8.08h-1v-8.08Z"/><path class="cls-4" d="M48,204.51l-.08-.73h0a2.16,2.16,0,0,1-1.77.86A1.65,1.65,0,0,1,44.36,203c0-1.4,1.25-2.17,3.49-2.16v-.12a1.2,1.2,0,0,0-1.32-1.34,2.89,2.89,0,0,0-1.51.43l-.24-.7a3.6,3.6,0,0,1,1.91-.52c1.77,0,2.21,1.21,2.21,2.37v2.17a8.14,8.14,0,0,0,.1,1.39Zm-.16-3c-1.15,0-2.46.18-2.46,1.31a.93.93,0,0,0,1,1,1.44,1.44,0,0,0,1.4-1,1.11,1.11,0,0,0,.06-.34Z"/><path class="cls-4" d="M50.59,196h1.06v8.52H50.59Z"/><path class="cls-4" d="M61,198.7c0,.42,0,.89,0,1.6v3.37a3.34,3.34,0,0,1-.83,2.65A3.08,3.08,0,0,1,58,207a3.75,3.75,0,0,1-1.93-.48l.26-.8a3.27,3.27,0,0,0,1.7.46c1.08,0,1.87-.56,1.87-2v-.65h0a2.07,2.07,0,0,1-1.85,1,2.6,2.6,0,0,1-2.47-2.83,2.79,2.79,0,0,1,2.61-3.08,1.93,1.93,0,0,1,1.81,1h0l0-.88ZM59.88,201a1.5,1.5,0,0,0-.06-.48,1.52,1.52,0,0,0-1.48-1.12c-1,0-1.73.85-1.73,2.19,0,1.14.58,2.09,1.72,2.09a1.54,1.54,0,0,0,1.46-1.08,1.84,1.84,0,0,0,.08-.56Z"/><path class="cls-4" d="M63.27,201.8a1.86,1.86,0,0,0,2,2,3.81,3.81,0,0,0,1.61-.3l.18.76a4.7,4.7,0,0,1-1.93.36,2.7,2.7,0,0,1-2.85-2.93c0-1.75,1-3.13,2.72-3.13a2.46,2.46,0,0,1,2.4,2.73,4,4,0,0,1,0,.49Zm3.09-.76a1.5,1.5,0,0,0-1.46-1.71A1.75,1.75,0,0,0,63.28,201Z"/><path class="cls-4" d="M68.69,200.27c0-.6,0-1.09,0-1.57h.94l.06,1h0a2.14,2.14,0,0,1,1.92-1.09c.8,0,2.05.48,2.05,2.47v3.47H72.58v-3.35c0-.94-.35-1.71-1.34-1.71a1.5,1.5,0,0,0-1.42,1.08,1.52,1.52,0,0,0-.07.49v3.49H68.69Z"/><path class="cls-4" d="M75.94,201.8a1.86,1.86,0,0,0,2,2,3.81,3.81,0,0,0,1.61-.3l.18.76a4.7,4.7,0,0,1-1.93.36,2.7,2.7,0,0,1-2.85-2.93c0-1.75,1-3.13,2.72-3.13a2.46,2.46,0,0,1,2.4,2.73,4,4,0,0,1,0,.49ZM79,201a1.5,1.5,0,0,0-1.46-1.71A1.75,1.75,0,0,0,76,201Z"/><path class="cls-4" d="M81.36,200.51c0-.68,0-1.27,0-1.81h.92l0,1.14h0a1.74,1.74,0,0,1,1.61-1.27,1.16,1.16,0,0,1,.3,0v1a1.6,1.6,0,0,0-.36,0,1.48,1.48,0,0,0-1.42,1.36,2.92,2.92,0,0,0,0,.49v3.09h-1Z"/><path class="cls-4" d="M88.44,204.51l-.08-.73h0a2.16,2.16,0,0,1-1.77.86A1.65,1.65,0,0,1,84.77,203c0-1.4,1.25-2.17,3.49-2.16v-.12a1.2,1.2,0,0,0-1.32-1.34,2.89,2.89,0,0,0-1.51.43l-.24-.7a3.6,3.6,0,0,1,1.91-.52c1.77,0,2.21,1.21,2.21,2.37v2.17a8.14,8.14,0,0,0,.1,1.39Zm-.16-3c-1.15,0-2.46.18-2.46,1.31a.93.93,0,0,0,1,1,1.44,1.44,0,0,0,1.4-1,1.1,1.1,0,0,0,.06-.34Z"/><path class="cls-4" d="M91,200.51c0-.68,0-1.27,0-1.81h.92l0,1.14h0a1.74,1.74,0,0,1,1.61-1.27,1.14,1.14,0,0,1,.3,0v1a1.59,1.59,0,0,0-.36,0,1.48,1.48,0,0,0-1.42,1.36,3,3,0,0,0,0,.49v3.09H91Z"/><path class="cls-4" d="M98.07,201.8a1.86,1.86,0,0,0,2,2,3.82,3.82,0,0,0,1.61-.3l.18.76a4.7,4.7,0,0,1-1.93.36,2.7,2.7,0,0,1-2.85-2.93c0-1.75,1-3.13,2.72-3.13a2.46,2.46,0,0,1,2.4,2.73,4,4,0,0,1,0,.49Zm3.09-.76a1.5,1.5,0,0,0-1.46-1.71A1.75,1.75,0,0,0,98.08,201Z"/><path class="cls-4" d="M103.49,200.27c0-.6,0-1.09,0-1.57h.94l.06,1h0a2.13,2.13,0,0,1,1.92-1.09c.8,0,2.05.48,2.05,2.47v3.47h-1.06v-3.35c0-.94-.35-1.71-1.34-1.71a1.5,1.5,0,0,0-1.42,1.08,1.52,1.52,0,0,0-.07.49v3.49h-1.06Z"/><path class="cls-4" d="M110.74,201.8a1.86,1.86,0,0,0,2,2,3.82,3.82,0,0,0,1.61-.3l.18.76a4.7,4.7,0,0,1-1.93.36,2.7,2.7,0,0,1-2.85-2.93c0-1.75,1-3.13,2.72-3.13a2.46,2.46,0,0,1,2.4,2.73,4,4,0,0,1,0,.49Zm3.09-.76a1.5,1.5,0,0,0-1.46-1.71,1.75,1.75,0,0,0-1.62,1.71Z"/><path class="cls-4" d="M116.16,200.51c0-.68,0-1.27,0-1.81H117l0,1.14h0a1.74,1.74,0,0,1,1.61-1.27,1.14,1.14,0,0,1,.3,0v1a1.59,1.59,0,0,0-.36,0,1.48,1.48,0,0,0-1.42,1.36,3,3,0,0,0,0,.49v3.09h-1Z"/><path class="cls-4" d="M125,198.7c0,.42,0,.89,0,1.6v3.37a3.34,3.34,0,0,1-.83,2.65,3.08,3.08,0,0,1-2.11.7,3.74,3.74,0,0,1-1.93-.48l.26-.8a3.27,3.27,0,0,0,1.7.46c1.08,0,1.87-.56,1.87-2v-.65h0a2.07,2.07,0,0,1-1.85,1,2.59,2.59,0,0,1-2.47-2.83,2.79,2.79,0,0,1,2.61-3.08,1.93,1.93,0,0,1,1.81,1h0l0-.88ZM123.9,201a1.5,1.5,0,0,0-.06-.48,1.52,1.52,0,0,0-1.48-1.12c-1,0-1.73.85-1.73,2.19,0,1.14.58,2.09,1.71,2.09a1.54,1.54,0,0,0,1.46-1.08,1.85,1.85,0,0,0,.08-.56Z"/><path class="cls-4" d="M128.77,196.19l-1.46,1.72h-.75l1.05-1.72Zm-2.15,8.31v-5.8h1.06v5.8Z"/><path class="cls-4" d="M132.65,204.51l-.08-.73h0a2.16,2.16,0,0,1-1.78.86A1.65,1.65,0,0,1,129,203c0-1.4,1.25-2.17,3.49-2.16v-.12a1.2,1.2,0,0,0-1.32-1.34,2.9,2.9,0,0,0-1.51.43l-.24-.7a3.6,3.6,0,0,1,1.91-.52c1.78,0,2.21,1.21,2.21,2.37v2.17a8.15,8.15,0,0,0,.1,1.39Zm-.16-3c-1.15,0-2.46.18-2.46,1.31a.93.93,0,0,0,1,1,1.45,1.45,0,0,0,1.4-1,1.13,1.13,0,0,0,.06-.34Z"/></g></g></svg>
