<svg xmlns="http://www.w3.org/2000/svg" viewBox="0 0 69.06 35.16"><defs><style>.cls-1{fill:#56b674;}</style></defs><title>camion1</title><g id="Layer_2" data-name="Layer 2"><g id="Layer_1-2" data-name="Layer 1"><path class="cls-1" d="M69.06,22.16V0H22.72V22h3.44v2.36h-6V10.61l-.17-1-.5-.87-.76-.64-1.43-.38h-13L3.41,8,3,8.46,0,17.63v11.6H4.54l.18-1.57.49-1.49L6,24.81l1.05-1.17,1.28-.91,1.44-.64,1.54-.33h1.58l1.54.33,1.44.64,1.28.91,1.05,1.17L19,26.17l.5,1.49.17,1.57H47l.17-1.58.49-1.51.94-1.68.92-.86,2-1.3L53,21.8l1.57-.15,1.58.15,1.51.5,1.37.79,1.19,1,.93,1.29.64,1.45.33,1.55,0,.79h6.7v-4.7H63.36V22.16Zm-53-4.54H3.61l2.3-7H16.1Z"/><path class="cls-1" d="M17.85,27.88l-.5-1.32-.82-1.17-1.05-.94-1.26-.67-1.39-.33-.72,0-.71,0L10,23.78l-1.26.67-1.07.94-.81,1.17-.52,1.32L6.21,29.3l.3,1.8L7,32.49,8.2,33.72l1.17.82.66.29,1.37.33h1.43l1.39-.33,1.26-.67,1.05-.94L17.35,32l.5-1.33L18,29.3Zm-2.9,1.92-.35.93L14,31.5l-.85.5-1,.17-1-.17-.87-.5-.64-.76-.33-.93,0-.5.17-1,.21-.46.29-.41.57-.53.65-.32.47-.12.5,0h0l.5,0,.93.33.41.29.64.76.35.93v1Z"/><path class="cls-1" d="M60.38,27.88l-.5-1.32-.82-1.17L58,24.45l-1.26-.67-1.39-.33-.72,0-.71,0-1.37.33-1.26.67-1.06.94-.81,1.17-.52,1.32-.17,1.42.3,1.8.51,1.39,1.19,1.23,1.17.82.66.29,1.37.33h1.43l1.39-.33L58,34.16l1.05-.94L59.87,32l.5-1.33.17-1.42Zm-2.91,1.92-.35.93-.64.76-.85.5-1,.17-1-.17-.87-.5-.64-.76-.34-.93,0-.5.17-1,.21-.46.29-.41.57-.53.65-.32.47-.12.5,0h0l.5,0,.93.33.41.29.64.76.35.93v1Z"/></g></g></svg>
