<svg xmlns="http://www.w3.org/2000/svg" xmlns:xlink="http://www.w3.org/1999/xlink" viewBox="0 0 184.57 232.39"><defs><style>.cls-1{fill:none;}.cls-2{clip-path:url(#clip-path);}.cls-3{fill:#59b169;}.cls-4{fill:#2f5a46;}</style><clipPath id="clip-path" transform="translate(0)"><rect class="cls-1" width="184.57" height="232.39"/></clipPath></defs><title>circle-green</title><g id="Layer_2" data-name="Layer 2"><g id="Layer_1-2" data-name="Layer 1"><g class="cls-2"><path class="cls-3" d="M152.51,221.26h0a1.4,1.4,0,0,1-1.95-.36L.25,2.2A1.4,1.4,0,1,1,2.56.61l150.31,218.7a1.4,1.4,0,0,1-.36,1.95" transform="translate(0)"/><path class="cls-3" d="M170,229.21h0a1.4,1.4,0,0,1-1.95-.36L38.22,40a1.4,1.4,0,0,1,2.31-1.59L170.32,227.26a1.4,1.4,0,0,1-.36,1.95" transform="translate(0)"/><path class="cls-3" d="M184,232.14h0a1.4,1.4,0,0,1-1.95-.36L52.23,42.94a1.4,1.4,0,1,1,2.31-1.59L184.32,230.19a1.4,1.4,0,0,1-.36,1.95" transform="translate(0)"/><path class="cls-3" d="M181.51,211.14h0a1.4,1.4,0,0,1-2-.36L49.77,21.93a1.4,1.4,0,0,1,2.31-1.59L181.87,209.19a1.4,1.4,0,0,1-.36,1.95" transform="translate(0)"/><path class="cls-4" d="M72.1,122.18q.93.17,1.85.3a.75.75,0,0,0,.23-1.48l-3.6-.67a.75.75,0,0,0-.32,1.47q.91.21,1.84.38" transform="translate(0)"/><path class="cls-4" d="M51.92,111.44l42.87,7.95a.77.77,0,0,0,.45-.06l1-.45a.75.75,0,0,0-.19-1.42l-44.53-8.25a.75.75,0,0,0-.69,1.25l.73.76a.76.76,0,0,0,.4.21" transform="translate(0)"/><path class="cls-4" d="M45.49,102.68l58.44,10.83a.76.76,0,0,0,.63-.17l.59-.52a.75.75,0,0,0-.37-1.3l-59.38-11a.75.75,0,0,0-.81,1.08l.36.7a.76.76,0,0,0,.53.38" transform="translate(0)"/><path class="cls-4" d="M42.28,94.52,109.86,107a.75.75,0,0,0,.75-.3l.4-.56a.75.75,0,0,0-.48-1.17L42.38,92.39a.75.75,0,0,0-.87.92l.17.67a.75.75,0,0,0,.59.54" transform="translate(0)"/><path class="cls-4" d="M41.06,86.73l72.72,13.48a.75.75,0,0,0,.82-.43l.25-.59a.75.75,0,0,0-.56-1l-73-13.53a.75.75,0,0,0-.89.77c0,.21,0,.43,0,.64a.75.75,0,0,0,.61.7" transform="translate(0)"/><path class="cls-4" d="M41.44,79.23l74.69,13.84a.75.75,0,0,0,.87-.57l.13-.62a.75.75,0,0,0-.6-.89L41.8,77.15a.75.75,0,0,0-.88.61c0,.21-.07.42-.1.62a.75.75,0,0,0,.61.84" transform="translate(0)"/><path class="cls-4" d="M43.25,72,117,85.67a.75.75,0,0,0,.89-.71c0-.21,0-.43,0-.64a.75.75,0,0,0-.62-.74L43.73,69.93a.75.75,0,0,0-.84.47l-.22.6a.75.75,0,0,0,.58,1" transform="translate(0)"/><path class="cls-4" d="M46.56,65,116.42,78a.75.75,0,0,0,.88-.87q-.06-.33-.13-.66a.75.75,0,0,0-.6-.59L47.18,63a.75.75,0,0,0-.77.33l-.35.57A.75.75,0,0,0,46.56,65" transform="translate(0)"/><path class="cls-4" d="M51.68,58.42,114,70a.75.75,0,0,0,.83-1l-.3-.69a.76.76,0,0,0-.55-.43L52.47,56.41a.75.75,0,0,0-.67.2l-.53.54a.75.75,0,0,0,.41,1.26" transform="translate(0)"/><path class="cls-4" d="M59.38,52.28,109,61.48a.75.75,0,0,0,.74-1.2l-.59-.74a.76.76,0,0,0-.45-.26L60.46,50.33a.77.77,0,0,0-.52.09l-.82.48a.75.75,0,0,0,.26,1.38" transform="translate(0)"/><path class="cls-4" d="M73.13,47.25,98,51.86a.75.75,0,0,0,.52-1.39q-.87-.5-1.78-1a.74.74,0,0,0-.21-.07L75.37,45.52a.75.75,0,0,0-.22,0q-1,.1-2,.26a.75.75,0,0,0,0,1.48" transform="translate(0)"/></g></g></g></svg>
