<svg xmlns="http://www.w3.org/2000/svg" xmlns:xlink="http://www.w3.org/1999/xlink" viewBox="0 0 215.47 202.64"><defs><style>.cls-1,.cls-3,.cls-4,.cls-5{fill:none;}.cls-2{clip-path:url(#clip-path);}.cls-3,.cls-4,.cls-5{stroke:#b2b0b3;stroke-linecap:round;stroke-linejoin:round;}.cls-3,.cls-4{stroke-width:2.67px;}.cls-3{stroke-dasharray:0.49 12.54;}.cls-5{stroke-width:0.89px;}.cls-6{fill:#2f5a46;}.cls-7{fill:#59b169;}.cls-8,.cls-9{fill:#fff;}.cls-9{font-size:10px;font-family:Helvetica-Bold, Helvetica;font-weight:700;}</style><clipPath id="clip-path"><rect class="cls-1" width="215.47" height="202.64"/></clipPath></defs><title>litros-agua</title><g id="Layer_2" data-name="Layer 2"><g id="Layer_1-2" data-name="Layer 1"><g class="cls-2"><path class="cls-3" d="M183.7,101.07a91.24,91.24,0,0,1-68.26,92.13"/><path class="cls-3" d="M96.39,196A91.24,91.24,0,0,1,4.26,127.78"/><path class="cls-3" d="M1.42,108.73A91.24,91.24,0,0,1,69.68,16.6"/><path class="cls-3" d="M88.73,13.76A91.24,91.24,0,0,1,180.86,82"/><path class="cls-4" d="M182.21,88.14l0,.24,0,.24M75.8,15.24l.24,0,.24,0M2.9,121.66l0-.24,0-.24m106.51,73.37-.24,0-.24,0"/><circle class="cls-5" cx="47.14" cy="47.77" r="44.67" transform="translate(-7.87 9.33) rotate(-10.44)"/><path class="cls-6" d="M92.62,9.22q-1.8,1-3.53,2A1.62,1.62,0,0,0,90.7,14l7-3.72A1.62,1.62,0,0,0,96.25,7.4q-1.82.86-3.62,1.82"/><path class="cls-6" d="M141.23.19,58,44.51a1.65,1.65,0,0,0-.69.7q-.52,1-1,2.05a1.63,1.63,0,0,0,2.24,2.13L145,3.37a1.63,1.63,0,0,0-.52-3Q143.34.15,142.2,0a1.64,1.64,0,0,0-1,.18"/><path class="cls-6" d="M163.91,6.36,50.44,66.76a1.63,1.63,0,0,0-.84,1.14q-.16.84-.3,1.69a1.63,1.63,0,0,0,2.37,1.69L167,9.9A1.63,1.63,0,0,0,166.88,7l-1.56-.69a1.63,1.63,0,0,0-1.41.06"/><path class="cls-6" d="M180.34,15.84,49.13,85.69a1.62,1.62,0,0,0-.86,1.51q0,.74.08,1.48A1.63,1.63,0,0,0,50.74,90L183,19.59a1.63,1.63,0,0,0,.23-2.72l-1.18-.9a1.63,1.63,0,0,0-1.73-.12"/><path class="cls-6" d="M192.9,27.39,51.71,102.56a1.62,1.62,0,0,0-.81,1.84q.18.67.36,1.33a1.63,1.63,0,0,0,2.33,1L195.31,31.28a1.63,1.63,0,0,0,.47-2.49l-.9-1a1.62,1.62,0,0,0-2-.35"/><path class="cls-6" d="M202.37,40.58l-145,77.2a1.63,1.63,0,0,0-.71,2.14l.61,1.22a1.63,1.63,0,0,0,2.21.69L204.55,44.6a1.63,1.63,0,0,0,.66-2.22l-.67-1.19a1.63,1.63,0,0,0-2.17-.61"/><path class="cls-6" d="M209.05,55.26,65.81,131.52a1.62,1.62,0,0,0-.54,2.41l.84,1.1a1.63,1.63,0,0,0,2,.42L211,59.4a1.63,1.63,0,0,0,.79-1.93q-.21-.66-.44-1.31a1.63,1.63,0,0,0-2.3-.89"/><path class="cls-6" d="M212.81,71.49,77.17,143.7a1.63,1.63,0,0,0-.31,2.66l1.1.94a1.62,1.62,0,0,0,1.81.19L214.51,75.77a1.63,1.63,0,0,0,.86-1.6q-.08-.72-.17-1.44a1.63,1.63,0,0,0-2.38-1.23"/><path class="cls-6" d="M213.07,89.59,92,154a1.63,1.63,0,0,0,0,2.86l1.44.76a1.63,1.63,0,0,0,1.51,0L214.43,94a1.63,1.63,0,0,0,.85-1.25q.09-.81.17-1.62a1.63,1.63,0,0,0-2.39-1.59"/><path class="cls-6" d="M208.31,110.36,43.07,198.18a1.63,1.63,0,0,0,.36,3l2,.46a1.65,1.65,0,0,0,1.12-.16l162.55-86.39a1.65,1.65,0,0,0,.76-.84q.38-1,.74-1.92a1.63,1.63,0,0,0-2.3-2"/><path class="cls-6" d="M191.81,137.38,74.7,199.58a1.63,1.63,0,0,0,1,3q2.15-.33,4.3-.77a1.73,1.73,0,0,0,.45-.16l109.91-58.37a1.64,1.64,0,0,0,.39-.28q1.57-1.53,3-3.14a1.63,1.63,0,0,0-2-2.52"/><path class="cls-7" d="M197.42,94A93.66,93.66,0,1,1,103.76.33,93.66,93.66,0,0,1,197.42,94"/><path class="cls-7" d="M180.37,177.73a6.59,6.59,0,1,1-6.59-6.59,6.59,6.59,0,0,1,6.59,6.59"/><path class="cls-8" d="M72,32a6.59,6.59,0,1,1-6.59-6.59A6.59,6.59,0,0,1,72,32"/></g><text class="cls-9" transform="translate(78.36 51.64)">Parte del agua fue </text><text class="cls-9" transform="translate(72.8 64.64)">reutilizada en otros </text><text class="cls-9" transform="translate(45.57 77.64)">procesos internos como, </text><text class="cls-9" transform="translate(44.99 90.64)">la operación de calderas, </text><text class="cls-9" transform="translate(47.78 103.64)">condensadores y lavado </text><text class="cls-9" transform="translate(47.25 116.64)">de pipas; o fue donada a </text><text class="cls-9" transform="translate(47.77 129.64)">organizaciones externas </text><text class="cls-9" transform="translate(41.11 142.64)">y para el riego de jardines </text><text class="cls-9" transform="translate(114.46 155.64)">y parques.</text></g></g></svg>
