<svg xmlns="http://www.w3.org/2000/svg" xmlns:xlink="http://www.w3.org/1999/xlink" viewBox="0 0 222.91 209.64"><defs><style>.cls-1,.cls-3,.cls-4,.cls-5{fill:none;}.cls-2{clip-path:url(#clip-path);}.cls-3,.cls-4,.cls-5{stroke:#b2b0b3;stroke-linecap:round;stroke-linejoin:round;}.cls-3,.cls-4{stroke-width:2.76px;}.cls-3{stroke-dasharray:0.15 12.2;}.cls-5{stroke-width:0.92px;}.cls-6{fill:#2f5a46;}.cls-7{fill:#59b169;}.cls-8,.cls-9{fill:#fff;}.cls-9{font-size:10px;font-family:Helvetica-Bold, Helvetica;font-weight:700;}</style><clipPath id="clip-path"><rect class="cls-1" width="222.91" height="209.64"/></clipPath></defs><title>planeta-verde</title><g id="Layer_2" data-name="Layer 2"><g id="Layer_1-2" data-name="Layer 1"><g class="cls-2"><path class="cls-3" d="M190,103.61A94.39,94.39,0,0,1,118.88,200"/><path class="cls-3" d="M100.66,202.76A94.39,94.39,0,0,1,4.27,131.65"/><path class="cls-3" d="M1.51,113.43A94.39,94.39,0,0,1,72.63,17"/><path class="cls-3" d="M90.85,14.28A94.39,94.39,0,0,1,187.24,85.4"/><path class="cls-4" d="M188.54,91.35v.15m-110-75.77h.15M3,125.69v-.15m110,75.77h-.15"/><circle class="cls-5" cx="48.77" cy="49.41" r="46.21" transform="translate(-8.14 9.65) rotate(-10.44)"/><path class="cls-6" d="M95.82,9.54q-1.86,1-3.66,2.06a1.68,1.68,0,0,0,1.67,2.92l7.23-3.85a1.68,1.68,0,0,0-1.49-3q-1.89.89-3.75,1.88"/><path class="cls-6" d="M146.1.2,60,46a1.7,1.7,0,0,0-.72.73q-.54,1.05-1,2.12a1.68,1.68,0,0,0,2.31,2.21L150,3.49a1.68,1.68,0,0,0-.54-3.15Q148.28.16,147.11,0a1.7,1.7,0,0,0-1,.19"/><path class="cls-6" d="M169.56,6.58,52.18,69.07a1.69,1.69,0,0,0-.87,1.18q-.16.87-.31,1.74a1.68,1.68,0,0,0,2.45,1.75L172.73,10.25a1.68,1.68,0,0,0-.08-3L171,6.51a1.69,1.69,0,0,0-1.46.06"/><path class="cls-6" d="M186.57,16.39,50.83,88.65a1.68,1.68,0,0,0-.89,1.56q0,.77.09,1.54a1.68,1.68,0,0,0,2.47,1.38L189.35,20.26a1.68,1.68,0,0,0,.24-2.82l-1.23-.93a1.68,1.68,0,0,0-1.79-.13"/><path class="cls-6" d="M199.55,28.34,53.49,106.1a1.68,1.68,0,0,0-.84,1.9c.12.46.25.92.38,1.38a1.68,1.68,0,0,0,2.41,1L202,32.36a1.69,1.69,0,0,0,.49-2.58l-.93-1.08a1.68,1.68,0,0,0-2-.36"/><path class="cls-6" d="M209.35,42l-150,79.86a1.68,1.68,0,0,0-.73,2.21l.63,1.26a1.68,1.68,0,0,0,2.29.71l150.08-79.9a1.68,1.68,0,0,0,.69-2.3l-.7-1.23a1.68,1.68,0,0,0-2.24-.63"/><path class="cls-6" d="M216.27,57.17,68.08,136.06a1.68,1.68,0,0,0-.56,2.49l.87,1.13a1.68,1.68,0,0,0,2.12.44L218.28,61.45a1.68,1.68,0,0,0,.82-2q-.22-.68-.45-1.36a1.68,1.68,0,0,0-2.38-.92"/><path class="cls-6" d="M220.16,74,79.84,148.66a1.68,1.68,0,0,0-.32,2.75l1.14,1a1.68,1.68,0,0,0,1.87.19l139.38-74.2a1.68,1.68,0,0,0,.88-1.66c-.05-.5-.11-1-.17-1.49A1.68,1.68,0,0,0,220.16,74"/><path class="cls-6" d="M220.43,92.68,95.21,159.34a1.68,1.68,0,0,0,0,3l1.49.79a1.69,1.69,0,0,0,1.57,0L221.84,97.29a1.69,1.69,0,0,0,.88-1.29q.1-.84.18-1.67a1.68,1.68,0,0,0-2.47-1.64"/><path class="cls-6" d="M215.5,114.17,44.56,205a1.68,1.68,0,0,0,.38,3.12l2.08.48a1.7,1.7,0,0,0,1.16-.16l168.16-89.37a1.7,1.7,0,0,0,.78-.87q.39-1,.76-2a1.68,1.68,0,0,0-2.37-2.05"/><path class="cls-6" d="M198.43,142.12,77.28,206.47a1.68,1.68,0,0,0,1,3.15q2.23-.34,4.45-.79a1.77,1.77,0,0,0,.47-.17l113.7-60.38a1.73,1.73,0,0,0,.4-.29q1.62-1.59,3.14-3.25a1.68,1.68,0,0,0-2-2.61"/><path class="cls-7" d="M204.23,97.23A96.89,96.89,0,1,1,107.34.34a96.89,96.89,0,0,1,96.89,96.89"/><path class="cls-7" d="M186.6,183.87a6.82,6.82,0,1,1-6.82-6.82,6.82,6.82,0,0,1,6.82,6.82"/><path class="cls-8" d="M74.44,33.06a6.82,6.82,0,1,1-6.82-6.82,6.82,6.82,0,0,1,6.82,6.82"/></g><text class="cls-9" transform="translate(40.43 56.63)">Gracias al uso de fuentes de </text><text class="cls-9" transform="translate(41.54 69.63)">energía renovable logramos </text><text class="cls-9" transform="translate(57.94 82.63)">eliminar un consumo </text><text class="cls-9" transform="translate(47.91 95.63)">energético de 29, 065,249 </text><text class="cls-9" transform="translate(35.99 108.63)">KWh*, procedentes de fuentes </text><text class="cls-9" transform="translate(43.76 121.63)">no renovables, siendo esto </text><text class="cls-9" transform="translate(38.76 134.63)">equivalente a un total de casi </text><text class="cls-9" transform="translate(42.65 147.63)">414,449 pinos piñoneros en </text><text class="cls-9" transform="translate(49.05 160.63)">edad adulta no cortados.</text></g></g></svg>
