<svg xmlns="http://www.w3.org/2000/svg" xmlns:xlink="http://www.w3.org/1999/xlink" viewBox="0 0 323.13 291.28"><defs><style>.cls-1{fill:url(#radial-gradient);}.cls-2{isolation:isolate;}.cls-14,.cls-15,.cls-16,.cls-18,.cls-19,.cls-3,.cls-4{mix-blend-mode:multiply;}.cls-3{fill:url(#radial-gradient-2);}.cls-4{fill:url(#radial-gradient-3);}.cls-5{mask:url(#mask);}.cls-11,.cls-6{fill:#fff;}.cls-6{opacity:0.6;mix-blend-mode:lighten;}.cls-22,.cls-24,.cls-7{fill:#2f5a46;}.cls-25,.cls-8{fill:#408258;}.cls-9{fill:#6ebb7e;}.cls-10,.cls-23{fill:#8ac38a;}.cls-11{font-size:8.99px;}.cls-11,.cls-22,.cls-23,.cls-24,.cls-25{font-family:Helvetica-Bold, Helvetica;font-weight:700;}.cls-12{fill:#010101;}.cls-13,.cls-26{fill:none;stroke:#8ac38a;}.cls-13{stroke-miterlimit:10;}.cls-14{fill:url(#radial-gradient-4);}.cls-15{fill:url(#radial-gradient-5);}.cls-16{fill:url(#radial-gradient-6);}.cls-17{fill:#59b169;}.cls-18{fill:url(#radial-gradient-7);}.cls-19{fill:url(#radial-gradient-8);}.cls-20{fill:url(#linear-gradient);}.cls-21{fill:url(#linear-gradient-2);}.cls-22{font-size:12px;}.cls-23,.cls-24,.cls-25{font-size:14px;}.cls-26{stroke-linecap:round;stroke-linejoin:round;}</style><radialGradient id="radial-gradient" cx="-456.74" cy="229.61" r="71.47" gradientTransform="translate(391.67 586.02) rotate(90)" gradientUnits="userSpaceOnUse"><stop offset="0" stop-color="#fff"/><stop offset="0.16" stop-color="#fcfcfc"/><stop offset="0.29" stop-color="#f1f1f1"/><stop offset="0.42" stop-color="#e0dfdf"/><stop offset="0.55" stop-color="#c7c6c6"/><stop offset="0.67" stop-color="#a7a5a6"/><stop offset="0.78" stop-color="#807d7e"/><stop offset="0.9" stop-color="#524f50"/><stop offset="1" stop-color="#231f20"/></radialGradient><radialGradient id="radial-gradient-2" cx="-430.44" cy="251.54" r="137.31" gradientTransform="matrix(0.99, 0.11, -0.11, 0.99, 641.15, -49.03)" gradientUnits="userSpaceOnUse"><stop offset="0" stop-color="#929497"/><stop offset="0.18" stop-color="#9fa1a3"/><stop offset="0.51" stop-color="#c1c2c4"/><stop offset="0.95" stop-color="#f8f9f9"/><stop offset="1" stop-color="#fff"/></radialGradient><radialGradient id="radial-gradient-3" cx="-443.33" cy="245.87" r="128.82" gradientTransform="translate(419.47 590.25) rotate(90)" gradientUnits="userSpaceOnUse"><stop offset="0" stop-color="#c8cacb"/><stop offset="0.31" stop-color="#d5d6d7"/><stop offset="0.88" stop-color="#f7f7f8"/><stop offset="1" stop-color="#fff"/></radialGradient><mask id="mask" x="90.58" y="57.81" width="142.96" height="142.96" maskUnits="userSpaceOnUse"><circle class="cls-1" cx="162.06" cy="129.29" r="71.47" transform="translate(15.83 276.24) rotate(-83.72)"/></mask><radialGradient id="radial-gradient-4" cx="-423.15" cy="259.16" r="77.84" gradientTransform="translate(451.37 585.48) rotate(90)" gradientUnits="userSpaceOnUse"><stop offset="0" stop-color="#808284"/><stop offset="0.45" stop-color="#bfc0c1"/><stop offset="0.82" stop-color="#edeeee"/><stop offset="1" stop-color="#fff"/></radialGradient><radialGradient id="radial-gradient-5" cx="-425.52" cy="252.76" r="63.78" gradientTransform="translate(443.31 581.23) rotate(90)" xlink:href="#radial-gradient-4"/><radialGradient id="radial-gradient-6" cx="-442.51" cy="240.34" r="72.9" gradientTransform="matrix(0.99, 0.11, -0.11, 0.99, 641.15, -49.03)" gradientUnits="userSpaceOnUse"><stop offset="0" stop-color="#929497"/><stop offset="0.27" stop-color="#95979a"/><stop offset="0.46" stop-color="#9e9fa2"/><stop offset="0.61" stop-color="#adaeb0"/><stop offset="0.75" stop-color="#c2c3c5"/><stop offset="0.88" stop-color="#dddedf"/><stop offset="1" stop-color="#fefefe"/><stop offset="1" stop-color="#fff"/></radialGradient><radialGradient id="radial-gradient-7" cx="-437.81" cy="245.86" r="57.19" gradientTransform="translate(638.92 -54.49) rotate(5.6)" xlink:href="#radial-gradient-4"/><radialGradient id="radial-gradient-8" cx="-430.4" cy="252.52" r="47.4" gradientTransform="translate(438.48 585.26) rotate(90)" gradientUnits="userSpaceOnUse"><stop offset="0" stop-color="#525355"/><stop offset="0.18" stop-color="#767678"/><stop offset="0.57" stop-color="#bfc0c0"/><stop offset="0.86" stop-color="#ededee"/><stop offset="1" stop-color="#fff"/></radialGradient><linearGradient id="linear-gradient" x1="-419.44" y1="277.39" x2="-472.1" y2="195.92" gradientTransform="matrix(0.99, 0.11, -0.11, 0.99, 641.15, -49.03)" gradientUnits="userSpaceOnUse"><stop offset="0" stop-color="#fff"/><stop offset="0.41" stop-color="#eaebeb"/><stop offset="0.49" stop-color="#e5e6e7"/><stop offset="1" stop-color="#c7ccd0"/></linearGradient><linearGradient id="linear-gradient-2" x1="-471.56" y1="198.13" x2="-419.92" y2="275.25" xlink:href="#linear-gradient"/></defs><title>reciclar</title><g class="cls-2"><g id="Layer_2" data-name="Layer 2"><g id="Capa_1" data-name="Capa 1"><path class="cls-3" d="M322.29,169A137.31,137.31,0,1,1,200.8,17.47,137.31,137.31,0,0,1,322.29,169Z"/><ellipse class="cls-4" cx="173.6" cy="146.92" rx="128.82" ry="128.82" transform="translate(8.59 303.42) rotate(-83.72)"/><g class="cls-5"><circle class="cls-6" cx="162.06" cy="129.29" r="71.47" transform="translate(15.83 276.24) rotate(-83.72)"/></g><path class="cls-7" d="M114.36,236.7a111.91,111.91,0,0,0,44.4,14.64l6-54.8a57,57,0,0,1-22.08-7.15"/><path class="cls-8" d="M75.64,199a111.8,111.8,0,0,1-16.76-53L114,143.5A56.9,56.9,0,0,0,122,169.17Z"/><path class="cls-8" d="M114,143.5a57.53,57.53,0,0,1,.23-10l-54.8-6A113.09,113.09,0,0,0,58.88,146"/><path class="cls-9" d="M164.78,196.55"/><path class="cls-8" d="M75.64,199a112.7,112.7,0,0,0,38.71,37.71L142.7,189.4A57.37,57.37,0,0,1,122,169.17Z"/><path class="cls-7" d="M122,38.56A111.87,111.87,0,0,1,142.6,31q3.33-.87,6.72-1.54l9.43,54.35a56.91,56.91,0,0,0-13.19,4.64L122,38.56"/><path class="cls-7" d="M143.2,30.8l-.6.15A111.87,111.87,0,0,0,122,38.56L145.57,88.4a56.94,56.94,0,0,1,9.76-3.78"/><path class="cls-10" d="M67,97.14A111.91,111.91,0,0,1,92.31,59.51L130.74,99a56.85,56.85,0,0,0-12.56,18.76Z"/><path class="cls-10" d="M172,27.33q-2.42,0-4.83.05a111.74,111.74,0,0,0-17.89,2l9.43,54.35a57.09,57.09,0,0,1,12.63-1.31Z"/><path class="cls-7" d="M167.11,27.49a111.74,111.74,0,0,0-17.89,2l9.43,54.35a57,57,0,0,1,9.15-1.23"/><path class="cls-7" d="M172,27.33q5.59.06,11.27.68a112.16,112.16,0,0,1,99.36,123.91l-54.8-6a58.11,58.11,0,0,0,.3-8.7,57.06,57.06,0,0,0-50.89-54.38,58.21,58.21,0,0,0-5.91-.35"/><path class="cls-10" d="M130.74,99A57.23,57.23,0,0,1,145.57,88.4L122,38.56a112.76,112.76,0,0,0-29.72,21Z"/><path class="cls-10" d="M67,97.14a112.57,112.57,0,0,0-7.64,30.23l54.8,6a57.55,57.55,0,0,1,4-15.61"/><path class="cls-7" d="M173.6,252A112.33,112.33,0,0,0,282.66,152l-54.8-6A57.18,57.18,0,0,1,172,196.89a57.73,57.73,0,0,1-7.26-.34"/><path class="cls-7" d="M172,196.89a57.73,57.73,0,0,1-7.26-.34l-6,54.8a113.35,113.35,0,0,0,14.85.66"/><path class="cls-7" d="M247.93,221.57A111.87,111.87,0,0,0,282.66,152l-54.8-6a57,57,0,0,1-17.63,35.37"/><text class="cls-11" transform="translate(242.69 165.99)">59.06%</text><text class="cls-11" transform="translate(85.74 92.96)">17.41%</text><text class="cls-11" transform="translate(139.92 54.87)">2.6%</text><path class="cls-12" d="M171.38,72.47"/><line class="cls-13" x1="172.04" y1="27.33" x2="171.38" y2="73.58"/><circle class="cls-14" cx="192.21" cy="162.33" r="77.84" transform="translate(9.84 335.64) rotate(-83.72)"/><ellipse class="cls-15" cx="190.55" cy="155.71" rx="63.78" ry="63.78" transform="matrix(0.11, -0.99, 0.99, 0.11, 14.95, 328.1)"/><path class="cls-16" d="M247.48,149.48A72.9,72.9,0,1,1,183,69,72.91,72.91,0,0,1,247.48,149.48Z"/><circle class="cls-17" cx="172.05" cy="137.19" r="64.72" transform="translate(16.87 293.21) rotate(-83.72)"/><path class="cls-18" d="M236.14,153.08a57.19,57.19,0,1,1-51.34-62.5A57.19,57.19,0,0,1,236.14,153.08Z"/><circle class="cls-19" cx="185.96" cy="154.86" r="47.4" transform="translate(13.7 324.83) rotate(-84.4)"/><path class="cls-20" d="M218.46,142.3a46.69,46.69,0,1,1-41.3-51.52A46.7,46.7,0,0,1,218.46,142.3Z"/><path class="cls-21" d="M166.87,184.29a47.39,47.39,0,1,1,52.27-41.92A47.43,47.43,0,0,1,166.87,184.29Zm10.21-92.84a46,46,0,1,0,40.69,50.77A46.07,46.07,0,0,0,177.08,91.45Z"/><text class="cls-22" transform="translate(145.35 133.7)">Residuos<tspan x="-3.33" y="13">peligrosos</tspan></text><text class="cls-11" transform="translate(79.19 181.73)">20.88%</text><text class="cls-23" transform="translate(221.62 28.26)">0.0028%</text><text class="cls-23" transform="translate(200.41 12.04)">Composta</text><text class="cls-24" transform="translate(290.96 162.87)">Otro</text><text class="cls-25" transform="translate(0 193.5)">Incinerar</text><text class="cls-23" transform="translate(10.2 70.97)">Reutilizar</text><text class="cls-24" transform="translate(100.24 19.97)">Reciclar</text><polyline class="cls-26" points="169.4 28.96 174.35 14.08 192.87 14.08"/></g></g></g></svg>
