<svg xmlns="http://www.w3.org/2000/svg" viewBox="0 0 117.51 129.72"><defs><style>.cls-1{fill:#bc9660;}</style></defs><title>hands</title><g id="Layer_2" data-name="Layer 2"><g id="_ÎÓÈ_1" data-name="—ÎÓÈ_1"><path class="cls-1" d="M50.34,38.06c-5.52,7.24-3.61,16.8.19,20.47a9.55,9.55,0,0,0,3.05,1.87,73.56,73.56,0,0,1,5.82-22.23l4.48,2A68.7,68.7,0,0,0,58.4,61.49a17,17,0,0,0,2.85,0,10.94,10.94,0,0,0,8-4c3.18-4.45,3.23-9.2,3.28-14.24A30.76,30.76,0,0,1,74.64,30C69.41,28.87,58.08,27.92,50.34,38.06Z"/><rect class="cls-1" x="7.35" y="105.24" width="29.37" height="14.69"/><rect class="cls-1" x="9.8" y="124.83" width="24.48" height="4.9"/><rect class="cls-1" x="80.78" y="105.24" width="29.37" height="14.69"/><path class="cls-1" d="M34.27,100.35V94.14a52.56,52.56,0,0,0-5.52-23.38A17.33,17.33,0,0,1,26.93,63v-19a3.67,3.67,0,0,0-7.25-.81c0,.32-.1.63-.1,1V73.42h-4.9V44.05h0s0-.1,0-.15a15.06,15.06,0,0,1,1.2-5.65l8.69-20.46a3.9,3.9,0,0,0,0-3.06,4,4,0,0,0-2.28-2.2,4.18,4.18,0,0,0-3.26.06,4.05,4.05,0,0,0-2.17,2.27L2.48,52.67a37.48,37.48,0,0,0,.3,27.56l8.36,20.12Z"/><path class="cls-1" d="M115,52.67,100.61,14.86a4.05,4.05,0,0,0-2.17-2.27,4.2,4.2,0,0,0-3.26-.06,4,4,0,0,0-2.28,2.2,3.9,3.9,0,0,0,0,3.06l8.69,20.46a15.06,15.06,0,0,1,1.2,5.65c0,.05,0,.1,0,.15h0V73.42H97.92V44.2c0-.33-.07-.64-.1-1a3.67,3.67,0,0,0-7.25.81V63a17.33,17.33,0,0,1-1.82,7.72,52.56,52.56,0,0,0-5.52,23.38v6.21h23.14l8.36-20.14A37.48,37.48,0,0,0,115,52.67Z"/><path class="cls-1" d="M85.68,63v-19a8.57,8.57,0,0,1,8.57-8.57,8.44,8.44,0,0,1,.9.09L88.41,19.7a8.75,8.75,0,0,1,0-6.85,9,9,0,0,1,.78-1.45,46.3,46.3,0,0,0-60.85,0,9,9,0,0,1,.78,1.45,8.76,8.76,0,0,1,0,6.85L22.37,35.57a8.44,8.44,0,0,1,.89-.09,8.57,8.57,0,0,1,8.57,8.57V63a12.43,12.43,0,0,0,1.31,5.53,57.46,57.46,0,0,1,5.74,20,46.44,46.44,0,0,0,39.77,0,57.46,57.46,0,0,1,5.74-20A12.43,12.43,0,0,0,85.68,63ZM58.75,4.89A41.23,41.23,0,0,1,77,9.07l-2.14,4.41a36.86,36.86,0,0,0-27.54-1.86L45.75,7A41.56,41.56,0,0,1,58.75,4.89ZM38.1,16.15l-2.76-4a41.49,41.49,0,0,1,5.2-3l2.14,4.41A36.75,36.75,0,0,0,38.1,16.15ZM80.34,29.91c-2.85,4.06-2.9,8.59-2.94,13.4-.06,5.31-.12,11.33-4.19,17a15.45,15.45,0,0,1-11.5,6c-.64.06-1.28.09-1.92.09s-1.09,0-1.64-.07c0,2.28,0,4.56.18,6.84l-4.88.4a72.78,72.78,0,0,1-.18-8.17,15.5,15.5,0,0,1-6.12-3.4c-5.78-5.59-7.48-18-.68-27,12.37-16.22,32.53-9,32.74-8.89a2.45,2.45,0,0,1,1.15,3.7Z"/><rect class="cls-1" x="83.23" y="124.83" width="24.48" height="4.9"/></g></g></svg>
