<svg xmlns="http://www.w3.org/2000/svg" viewBox="0 0 90.84 84.52"><defs><style>.cls-1{fill:#736e62;}</style></defs><title>mapa-republica</title><g id="Layer_2" data-name="Layer 2"><g id="_ÎÓÈ_1" data-name="—ÎÓÈ_1"><path class="cls-1" d="M70.28,82.74A5.11,5.11,0,0,1,71.79,81a3.39,3.39,0,0,1,1.76-.18c.91.06,1.76.13,2.25-.85A1.58,1.58,0,0,0,76,79c-.11-.51-.66-.83-1.21-1.14a3.06,3.06,0,0,1-1.23-1,3,3,0,0,1-.31-1.13.28.28,0,0,1,.06-.21.16.16,0,0,1,.17-.06,1.41,1.41,0,0,1,.46.29c.22.17.43.34.63.25s.22-.23.17-.7a2.77,2.77,0,0,1,0-.34,1.49,1.49,0,0,1,.29-1,1.07,1.07,0,0,1,1-.29c.74.1,1.5.17,2.24.24l.64.06a5.61,5.61,0,0,1,1.19.3,5.81,5.81,0,0,0,.95.26,2.4,2.4,0,0,0,0-.29,3,3,0,0,1,.08-.58.2.2,0,0,1,.2-.17c.23,0,.41.23.58.44s.31.37.47.35.67-.55.92-.89l.19-.26c.11-.14.21-.28.31-.42a3,3,0,0,1,.74-.83,6.39,6.39,0,0,1,1.35-.71.15.15,0,0,1,.16,0,.24.24,0,0,1,.06.19,4,4,0,0,1-.24,1,4.88,4.88,0,0,0-.16.56l.27,0s0,0,0,0a.23.23,0,0,1,.14-.2c.31-.94.56-1.88.81-2.86l.35-1.35a11.24,11.24,0,0,1,2.09-3.82l.41-.57a4.29,4.29,0,0,0,1-2.43,1.24,1.24,0,0,0-.58-.92c-1.17-.84-2.81-.81-4.25-.78h-.35c-2.67,0-6.33.1-7.43,3.8-.13.42-.23.86-.33,1.28a7.57,7.57,0,0,1-1.6,3.67,4.83,4.83,0,0,1-3,1.44c-.51,0-1-.14-1.42-.1a6.3,6.3,0,0,0-1.4.33l-.25.08a5.14,5.14,0,0,1-1.88.13,7.23,7.23,0,0,0-1.17,0c-.27,0-.54.08-.81.13a2.9,2.9,0,0,1-2.44-.26,6.16,6.16,0,0,1-1-.93,3.48,3.48,0,0,0-1.45-1.14l0,0a3,3,0,0,1-2.37-2,13.6,13.6,0,0,1-.55-2.2A13.75,13.75,0,0,0,58,62.08c-.17-.46-.36-.91-.54-1.34A15.43,15.43,0,0,1,56.5,58c-.2-.89-.33-1.82-.46-2.72-.09-.61-.17-1.21-.28-1.81a10.05,10.05,0,0,1-.14-3.94,33,33,0,0,1,1.05-3.68l.22-.65c.14-.42.26-.84.38-1.27s.29-1,.46-1.52.33-1.08.49-1.66l.1-.39a9.09,9.09,0,0,1,1-2.09l.27-.5a2.16,2.16,0,0,1-.6-.43,2,2,0,0,0-.21-.18,4.49,4.49,0,0,0-.64-.35,5,5,0,0,1-.72-.4,2,2,0,0,0-.95-.42h0a2.26,2.26,0,0,1-1.29-.95l-.21-.24a7.22,7.22,0,0,0-.83-.82L54,33.92a1,1,0,0,1-.38-.36,3,3,0,0,1-.15-1.26c0-.17,0-.34,0-.46s0-.5,0-.76a9.16,9.16,0,0,0-.06-1,4.37,4.37,0,0,0-.94-1.88,8.48,8.48,0,0,1-.65-1l-.21-.38A4.92,4.92,0,0,1,51,25.46c-.06-.28-.11-.55-.16-.83a8.37,8.37,0,0,0-.29-1.28,7.68,7.68,0,0,0-1.87-3l-.17-.18a3.09,3.09,0,0,0-1.26-1,2,2,0,0,0-.64,0,3.11,3.11,0,0,1-.61,0c-1.18-.24-1.89.06-2.26.95-.06.13-.11.28-.16.43a2.92,2.92,0,0,1-.69,1.28c-.41.34-.72,0-.95-.23a1.66,1.66,0,0,0-.23-.23,3.11,3.11,0,0,0-.78-.35,2.55,2.55,0,0,1-1.19-.68,11.17,11.17,0,0,1-1.12-1.52l-.42-.64a4.6,4.6,0,0,1-.6-1.77,4.91,4.91,0,0,0-.49-1.57A11.59,11.59,0,0,0,35.7,13a11.47,11.47,0,0,1-1.51-2L34,10.58c-.45-.85-.81-1.53-1.7-1.78a15,15,0,0,0-2-.37A15,15,0,0,1,28.14,8c0,.12,0,.26,0,.4,0,.69-.09,1.54-.63,1.89a1.57,1.57,0,0,1-1.21,0L26,10.24c-.75-.14-1.49-.24-2.19-.34-.4-.06-.82-.1-1.23-.14A10,10,0,0,1,18,8.55a13.32,13.32,0,0,0-2.85-1.27,10.81,10.81,0,0,1-3.58-1.8,11.36,11.36,0,0,1-.95-1,10.46,10.46,0,0,0-1-1,3.42,3.42,0,0,0-.81-.44,2.47,2.47,0,0,1-1.2-.83c-.16-.23-.28-.46-.41-.69A2.59,2.59,0,0,0,5.94.19,1.29,1.29,0,0,0,5,.36a2.8,2.8,0,0,1-.69.22A7.12,7.12,0,0,1,2.69.53l-.48,0A9.5,9.5,0,0,1,.24,0L.19,0C.14.27.1.55.07.84l0,.42a1.09,1.09,0,0,0,.3,1.09l.13.17A2.21,2.21,0,0,1,.88,4.07a3.83,3.83,0,0,1-.18.81,2.28,2.28,0,0,0-.16.85c0,.49.55,1.54.9,1.59h0a.17.17,0,0,1,.11.07.26.26,0,0,1,0,.17c0,.14,0,.28-.07.42a3.2,3.2,0,0,0-.07.75,1.18,1.18,0,0,0,.22.58,2.51,2.51,0,0,1,.21.4,2.93,2.93,0,0,1,.18,1,1.49,1.49,0,0,0,.3,1l.19.23a19.55,19.55,0,0,1,1.19,1.56c.15.23.28.47.41.7a5.72,5.72,0,0,0,.58.92,9,9,0,0,1,.9,1.29,19.92,19.92,0,0,1,1,2.21.29.29,0,0,1,0,.21.21.21,0,0,1-.13.13,4.34,4.34,0,0,0-2.21,1.8c-.47.69-.17,1.1.39,1.77a5.38,5.38,0,0,1,.47.63,15.36,15.36,0,0,0,2.08,2.51l.68.71a16.25,16.25,0,0,0,2.46,2.28l.11.08a1.74,1.74,0,0,1,1,1.46,8.21,8.21,0,0,1-.29,2.72c-.05.24-.11.49-.16.73a5,5,0,0,1-.16.57,2.62,2.62,0,0,0-.2.93c.1.55.92,1.07,1.51,1.45a7,7,0,0,1,.64.44A10.13,10.13,0,0,1,16,42.66c.12.6.19.65.7.75a8.36,8.36,0,0,1,.84.23l.38.12c.39-1.12-.11-2.06-.75-3.08a5.93,5.93,0,0,1-.84-2c0-.1,0-.19-.07-.28a3,3,0,0,1-.12-.62,2.17,2.17,0,0,1,.06-.56,1.7,1.7,0,0,0,0-.42c0-.08,0-.09,0-.09s-.2.06-.69.71l-.08.11a.17.17,0,0,1-.2.06.21.21,0,0,1-.11-.2,9.29,9.29,0,0,0,0-1,6.85,6.85,0,0,1,0-1.65,3.23,3.23,0,0,1,.4-1.11l.07-.14a.86.86,0,0,0-.18-.12A.91.91,0,0,1,15,33a1.34,1.34,0,0,1-.15-.75,1.47,1.47,0,0,0,0-.35.93.93,0,0,0-.26-.49,1.14,1.14,0,0,1-.29-1v-.13A2.17,2.17,0,0,0,14,28.53a3.84,3.84,0,0,1-.42-1.1,3,3,0,0,0-.37-1c-.08-.1-.14-.11-.26-.12a1,1,0,0,1-.33-.09,1.61,1.61,0,0,1-.64-.89l-.09-.2c-.17-.36-.35-.72-.52-1.07s-.41-.82-.6-1.24a8.77,8.77,0,0,1-.71-2.66,6.05,6.05,0,0,0-.27-1.12c-.07-.2-.13-.41-.18-.63a3.23,3.23,0,0,1,.12-2.49,1.37,1.37,0,0,0-.49-1.89.22.22,0,0,1,0-.08l-.43-.15a5.28,5.28,0,0,1-2-1,6.16,6.16,0,0,1-1.4-3.3,7,7,0,0,1,.22-3.75,2.39,2.39,0,0,1,1-1.48.93.93,0,0,1,1,.19l.18.14a13.86,13.86,0,0,0,2.67,1.74c1.38.64,1.62,2,1.55,3.72v.16a11.8,11.8,0,0,0,.37,4.36c.25.76.47,1.54.67,2.3s.39,1.43.61,2.12a4.81,4.81,0,0,0,1.33,2l.32.34.35.39c.5.58,1,1.17,1.71,1.12a2.44,2.44,0,0,0,.52-.13.15.15,0,0,1,.16,0,.24.24,0,0,1,.05.19,6.35,6.35,0,0,0,.19,3.16A3.14,3.14,0,0,0,20,27.53a6.87,6.87,0,0,1,.83.52,2.26,2.26,0,0,1,.59.82l.15.28a1.28,1.28,0,0,1-.05,1.77c-.66.87-.88,1.31-.29,2.14l.23.34a4.07,4.07,0,0,0,1.29,1.41,4.38,4.38,0,0,0,.44.19,2,2,0,0,1,1.19.87A2.41,2.41,0,0,1,24.49,37a2.35,2.35,0,0,0,.1.93,2,2,0,0,0,.54.67,2.39,2.39,0,0,1,.68.91c.1.27.19.52.26.76A2.92,2.92,0,0,0,27,41.86l.23.18a4.31,4.31,0,0,1,1.37,1.51,16.69,16.69,0,0,1,.89,2.26l.28.8a11.07,11.07,0,0,0,.7,1.47,6.07,6.07,0,0,1,1,3.71,3.62,3.62,0,0,1-.81,1.77l-.32.46A3.48,3.48,0,0,0,30,55.85c0,.18,0,.36,0,.54a.29.29,0,0,1-.07.17.18.18,0,0,1-.14.06c-.22,0-.35,0-.41.17-.22.49.4,1.93.71,2.44a8.28,8.28,0,0,1,.49,1c.34.77.63,1.43,1.34,1.64,1.09.32,1.69,1.29,2.32,2.32l.16.27c.17.27.31.53.45.78.45.83.81,1.49,1.69,1.77.22.07.43.11.64.16a3.55,3.55,0,0,1,1.32.48c.19.13.39.25.59.37a9.44,9.44,0,0,1,.89.6h0l.12.12.13.1s0,0,0,0c.47.44.92.91,1.34,1.38a16.81,16.81,0,0,0,2,2,16.18,16.18,0,0,0,2.94,1.68c.53.25,1.07.52,1.61.81a9,9,0,0,1,1.87,1.52,10.4,10.4,0,0,0,1.59,1.34c.32.2.63.41.95.62A7.66,7.66,0,0,0,56,79.81a5,5,0,0,0,3.23-.94l.65-.36a2.44,2.44,0,0,1,2.32-.29,8.13,8.13,0,0,1,1.65,1.29c.28.26.55.51.82.73l.39.31a9.78,9.78,0,0,1,2.36,2.37,4.89,4.89,0,0,1,.29.58c.09.2.18.4.28.58a.15.15,0,0,1,.15.08l.13.26a.45.45,0,0,0,.16.09h0C69,84.61,69.67,83.66,70.28,82.74Z"/></g></g></svg>
