<svg xmlns="http://www.w3.org/2000/svg" viewBox="0 0 62.07 62.07"><defs><style>.cls-1{isolation:isolate;}.cls-2{fill:#7e7565;opacity:0.5;mix-blend-mode:multiply;}</style></defs><title>reloj</title><g class="cls-1"><g id="Layer_2" data-name="Layer 2"><g id="_ÎÓÈ_1" data-name="—ÎÓÈ_1"><path class="cls-2" d="M31,0a31,31,0,1,0,31,31A31.08,31.08,0,0,0,31,0ZM12.26,12.26a1.35,1.35,0,0,1,1.36-.38c.08,0,.15.08.3.08s.15.08.3.15.15.15.23.15a1.49,1.49,0,0,1,.45,1.06v.3c0,.08-.08.15-.08.3s-.08.15-.15.23-.15.15-.15.23-.15.15-.23.15-.15.08-.3.15-.15.08-.3.08h-.3a1.49,1.49,0,0,1-1.06-.45c-.08-.08-.15-.15-.15-.23s-.08-.15-.15-.23-.08-.15-.08-.3v-.3A1.27,1.27,0,0,1,12.26,12.26ZM14.84,49c0,.08-.08.15-.08.3s-.08.15-.15.23-.15.15-.15.23a1.51,1.51,0,0,1-2.57-1.06v-.3c0-.08.08-.15.08-.3s.08-.15.15-.3.15-.15.15-.23.15-.15.23-.15.15-.08.23-.15.15-.08.3-.08h.61c.08,0,.15.08.3.08s.15.08.3.15.15.15.23.15.15.15.15.23.08.15.15.3a.46.46,0,0,1,.08.3v.3C14.91,48.82,14.91,48.9,14.84,49ZM32.4,56.62c-.08.15-.15.38-.3.45a1.49,1.49,0,0,1-1.06.45h-.3c-.08,0-.23-.08-.3-.08s-.15-.08-.23-.15L30,57.07A1.49,1.49,0,0,1,29.52,56v-.3c0-.08.08-.23.08-.3s.08-.15.15-.23.08-.15.15-.23.15-.15.23-.15.15-.08.23-.15.15-.08.3-.08A1.72,1.72,0,0,1,32,55c.08.08.15.15.15.23s.08.15.15.23.08.15.08.3V56A.46.46,0,0,1,32.4,56.62ZM32.55,31A1.52,1.52,0,0,1,31,32.55H5.75c-.08,0-.08,0-.15-.08H5.45c-.08,0-.08-.08-.15-.08a.07.07,0,0,1-.08-.08l-.08-.08c-.08,0-.08-.08-.15-.15A.07.07,0,0,0,4.92,32a1.65,1.65,0,0,1-.23-.38.07.07,0,0,0-.08-.08c0-.08,0-.08-.08-.15s0-.08-.08-.15V31a1,1,0,0,1,.08-.45v-.08h0a1.65,1.65,0,0,1,.23-.38L4.84,30h0a2.2,2.2,0,0,1,1.21-.45H29.52V5.75c0-.08,0-.08.08-.15V5.45c0-.08.08-.08.08-.15a.07.07,0,0,1,.08-.08.07.07,0,0,1,.08-.08C29.9,5.07,29.9,5,30,5l.08-.08c.15-.08.23-.23.38-.23h.08A.82.82,0,0,1,31,4.54h.15a.57.57,0,0,1,.3.08h.08c.08,0,.15.08.23.08a.07.07,0,0,1,.08.08c.08.08.15.08.23.15h.08c.08.08.08.15.15.15l.08.08.08.08c0,.08.08.08.08.15v.15c0,.08,0,.08.08.15V31ZM49.81,49.81a1.22,1.22,0,0,1-.53.3,1.48,1.48,0,0,1-.61.08,1.67,1.67,0,0,1-.61-.08,1.9,1.9,0,0,1-.53-.3c-.08-.08-.15-.15-.15-.23s-.08-.15-.15-.23-.08-.15-.08-.3v-.61c0-.08.08-.15.08-.3s.08-.15.15-.3.15-.15.15-.23.15-.15.23-.15.15-.08.3-.15a.46.46,0,0,1,.3-.08H49c.08,0,.15.08.3.08s.15.08.23.15.15.15.23.15.15.15.15.23.08.15.15.3a.46.46,0,0,1,.08.3v.3A1.36,1.36,0,0,1,49.81,49.81Zm.38-36.11c0,.08-.08.15-.08.3s-.08.15-.15.23-.15.15-.15.23-.15.15-.23.15-.15.08-.23.15-.15.08-.3.08h-.61c-.08,0-.15-.08-.3-.08s-.15-.08-.3-.15-.15-.15-.23-.15-.15-.15-.15-.23-.08-.15-.15-.23-.08-.15-.08-.3v-.3a1.49,1.49,0,0,1,.45-1.06c.08-.08.15-.15.23-.15s.15-.08.3-.15.15-.08.3-.08a1.72,1.72,0,0,1,1.36.38,1.49,1.49,0,0,1,.45,1.06C50.19,13.47,50.19,13.55,50.19,13.7Zm6.66,18.62c-.08.08-.15.08-.23.15s-.15.08-.3.08H56A1.55,1.55,0,0,1,54.5,31v-.3c0-.08.08-.15.08-.3s.08-.15.15-.23.08-.15.15-.23.15-.15.23-.15.15-.08.23-.15.15-.08.3-.08A1.72,1.72,0,0,1,57,30c.08.08.15.15.15.23s.08.15.15.23.08.15.08.3V31a1.49,1.49,0,0,1-.45,1.06C57,32.17,56.92,32.25,56.85,32.32Z"/></g></g></g></svg>
