<svg xmlns="http://www.w3.org/2000/svg" viewBox="0 0 103.96 51.38"><defs><style>.cls-1{isolation:isolate;}.cls-2{fill:none;stroke:#7e7565;stroke-linecap:round;stroke-linejoin:round;}.cls-3{fill:#7e7565;opacity:0.5;mix-blend-mode:multiply;}</style></defs><title>voluntarios</title><g class="cls-1"><g id="Layer_2" data-name="Layer 2"><g id="_ÎÓÈ_1" data-name="—ÎÓÈ_1"><line class="cls-2" x1="101.15" y1="50.88" x2="2.85" y2="50.88"/><path class="cls-3" d="M4.73,9.49H15a4.06,4.06,0,0,1,3.93,4.18h0V24.51a1.88,1.88,0,0,1-1.82,1.94h0a1.88,1.88,0,0,1-1.82-1.94V13.67H14.18v27a2.12,2.12,0,0,1-2.05,2.18h0a2.12,2.12,0,0,1-2.05-2.18V27.06H8.83V40.63a2.12,2.12,0,0,1-2.05,2.18h0a2.12,2.12,0,0,1-2.05-2.18v-27H3.64V24.51a1.88,1.88,0,0,1-1.82,1.94h0A1.88,1.88,0,0,1,0,24.51V13.67H0A4.06,4.06,0,0,1,3.93,9.49Z"/><circle class="cls-3" cx="9.45" cy="4.01" r="4.01"/><circle class="cls-3" cx="37.76" cy="5.01" r="4.01"/><path class="cls-3" d="M30,14.31l.21-1a3.48,3.48,0,0,1,3.41-2.79h8.24a3.48,3.48,0,0,1,3.41,2.79l.21,1L47.57,24.6a1.62,1.62,0,0,1-3.17.64L42.2,14.31h-1l.47,4.08a12.13,12.13,0,0,0,.38,1.92L45,29.81a.55.55,0,0,1-.53.71H42.12V41.74a1.83,1.83,0,1,1-3.65,0V30.52H37.06V41.74a1.83,1.83,0,1,1-3.65,0V30.52H31.09a.55.55,0,0,1-.53-.71l2.88-9.49a12.08,12.08,0,0,0,.38-1.92l.47-4.08h-1l-2.2,10.92A1.62,1.62,0,1,1,28,24.6Z"/><path class="cls-3" d="M61.08,9.49H71.33a4.06,4.06,0,0,1,3.93,4.18h0V24.51a1.88,1.88,0,0,1-1.82,1.94h0a1.88,1.88,0,0,1-1.82-1.94V13.67H70.54v27a2.12,2.12,0,0,1-2.05,2.18h0a2.12,2.12,0,0,1-2.05-2.18V27.06H65.18V40.63a2.12,2.12,0,0,1-2.05,2.18h0a2.12,2.12,0,0,1-2.05-2.18v-27H60V24.51a1.88,1.88,0,0,1-1.82,1.94h0a1.88,1.88,0,0,1-1.82-1.94V13.67h0a4.06,4.06,0,0,1,3.93-4.18Z"/><circle class="cls-3" cx="65.81" cy="4.01" r="4.01"/><circle class="cls-3" cx="94.12" cy="5.01" r="4.01"/><path class="cls-3" d="M86.38,14.31l.21-1A3.48,3.48,0,0,1,90,10.49h8.24a3.48,3.48,0,0,1,3.41,2.79l.21,1,2.07,10.28a1.62,1.62,0,1,1-3.17.64l-2.2-10.92h-1l.47,4.08a12.13,12.13,0,0,0,.38,1.92l2.88,9.49a.55.55,0,0,1-.53.71H98.47V41.74a1.83,1.83,0,1,1-3.65,0V30.52H93.41V41.74a1.83,1.83,0,1,1-3.65,0V30.52H87.44a.55.55,0,0,1-.53-.71l2.88-9.49a12.08,12.08,0,0,0,.38-1.92l.47-4.08h-1l-2.2,10.92a1.62,1.62,0,1,1-3.17-.64Z"/></g></g></g></svg>
