<svg id="Layer_1" data-name="Layer 1" xmlns="http://www.w3.org/2000/svg" viewBox="0 0 150 200"><defs><style>.cls-1{fill:#e6e7e8;}.cls-2{fill:#584e9f;}.cls-3{fill:#756bae;}</style></defs><title>brasil</title><ellipse class="cls-1" cx="75" cy="139.83" rx="39.51" ry="3.99"/><path class="cls-2" d="M111.1,70.47l.06-.27a6.68,6.68,0,0,0,.19-1.09,2.39,2.39,0,0,0-.3-1.31.89.89,0,0,1-.08-1,.53.53,0,0,0,.06-.31.14.14,0,0,0-.1-.08,1.43,1.43,0,0,0-.52,0,1.57,1.57,0,0,1-.56,0,2.42,2.42,0,0,1-.37-.15l-.3-.12-.22-.07a1.86,1.86,0,0,1-.81-.38,3,3,0,0,0-.47-.33l-.26-.16a1.33,1.33,0,0,1-.34-.37,2,2,0,0,0-.16-.21l-.32-.34a3.31,3.31,0,0,1-.84-1.15,1.9,1.9,0,0,1-.09-.52,1.3,1.3,0,0,0-.48-1,6.16,6.16,0,0,0-.71-.63c-.18-.14-.36-.28-.53-.44a4.51,4.51,0,0,1-.47-.51l-.08-.12a.69.69,0,0,0-.15-.19.94.94,0,0,0-.46-.06h-.16a1.37,1.37,0,0,0-.4.05l-.3.06h-.28a1.34,1.34,0,0,0-.49.06.16.16,0,0,1,0,.08.09.09,0,0,1-.15,0l-.12-.14c-.3-.35-.67-.79-1.06-.85h0a.52.52,0,0,0-.37.19.66.66,0,0,1-.58.23.12.12,0,0,1-.08-.14.62.62,0,0,1,.1-.26c0-.08.06-.11.05-.15s-.27-.19-.37-.24l-.2-.11a4,4,0,0,1-.73-.7l-.09-.12c-.05-.08-.06-.09-.15-.1a.93.93,0,0,0-.59.24,1.53,1.53,0,0,1-.47.25c-.28.06-.45-.14-.61-.32a1.42,1.42,0,0,0-.2-.2v.14a1.33,1.33,0,0,1-.2.7,1.65,1.65,0,0,1-.31.3c-.17.14-.35.3-.37.47,0,0,0,0,0,0a.13.13,0,0,1-.11.13h0a.12.12,0,0,1-.08-.12s0,0,0,0v-.15a2,2,0,0,1,.09-.66,3.42,3.42,0,0,1,.21-.44,2.23,2.23,0,0,0,.22-.48A2.83,2.83,0,0,0,95,55.78a1.1,1.1,0,0,0-.74-.51,2.27,2.27,0,0,1-.43-.19l-.2-.11a2.28,2.28,0,0,1-.57-.4,2.44,2.44,0,0,1-.34-.52l-.14-.24-.07-.12c-.09-.16-.14-.24-.3-.27H92c-.2,0-.52,0-.57-.35a2.3,2.3,0,0,0-.65-.18,3.78,3.78,0,0,1-.49-.11,2.85,2.85,0,0,0-1.16-.08,5.87,5.87,0,0,1-.64,0,4.92,4.92,0,0,0-.06.6c0,.53-.06,1.13-.41,1.41a1.44,1.44,0,0,1-1.2.16l-.22,0a4.08,4.08,0,0,1-.33.59A4.2,4.2,0,0,0,86,56a.12.12,0,0,1-.09.08.11.11,0,0,1-.09-.06,1,1,0,0,1,.17-.87c.17-.3.21-.41.06-.55a1.44,1.44,0,0,0-.95-.2c-.57,0-1.21,0-1.31-.83a2.64,2.64,0,0,1,0-.47c0-.28,0-.43-.19-.6a1.4,1.4,0,0,0-.62-.21,1.89,1.89,0,0,1-.61-.18.14.14,0,0,1,0-.17l.11-.33a3.22,3.22,0,0,1,.71-1.37,2.5,2.5,0,0,1,1.49-.57.51.51,0,0,1,.1-.34c.17-.19.47-.09.77,0,.13,0,.39.13.44.08a.73.73,0,0,0-.07-.34,1.07,1.07,0,0,1,.2-1.27.7.7,0,0,0,0-.9l-.28-.38A5.75,5.75,0,0,1,84.87,45a2.5,2.5,0,0,1-.12-.95c0-.14,0-.29,0-.46a3.89,3.89,0,0,0-.06-.41,2.93,2.93,0,0,1-.06-.75,5,5,0,0,1,.07-.5,2,2,0,0,0,0-.86,2.36,2.36,0,0,1-.05-.38c0-.32-.05-.52-.22-.59A.13.13,0,0,1,84.4,40a1.87,1.87,0,0,1,0-.21l0-.1a1.38,1.38,0,0,1-.33,0,1.91,1.91,0,0,1-.6.87,2.71,2.71,0,0,0-.28.29,6.62,6.62,0,0,0-.69,1.31c-.38.85-.76,1.74-1.63,2a4.19,4.19,0,0,1-2,0h-.11c-.29,0-.61-.12-.69-.4a.53.53,0,0,1,0-.25.74.74,0,0,1-.31-.19l-.09-.07-.06-.06a.21.21,0,0,0-.12-.08.61.61,0,0,0-.2,0H77c-.26,0-.55,0-.64-.22a.42.42,0,0,1,0-.27l-.16,0c-.32-.08-.68-.19-.91.07s-.12.24,0,.5l0,0c.18.3.16.4-.09.7l-.06,0-.14,0a.91.91,0,0,1-.42.06h0a1.08,1.08,0,0,1-.32-.14.81.81,0,0,0-.25-.12h0l-.17,0a1.19,1.19,0,0,1-.52-.17l-.24-.11a.62.62,0,0,1-.14.33.59.59,0,0,1-.55.11.62.62,0,0,0-.58.13l-.06.07c-.2.24-.29.31-.62.17l-.11,0c-.22-.1-.39-.17-.59,0l-.16.17a.57.57,0,0,1-.52.28h-.07a2,2,0,0,1-.74-.36,1.67,1.67,0,0,1-1-1.42c0-.12,0-.22,0-.32a1.06,1.06,0,0,0,0-.57,1.52,1.52,0,0,0-.14-.28A1.12,1.12,0,0,1,67.7,41a1.14,1.14,0,0,1,.31-.61,1.47,1.47,0,0,0,.18-.25,1.59,1.59,0,0,0,.14-.53,3.25,3.25,0,0,1,.07-.38,1.4,1.4,0,0,1,.45-.68.89.89,0,0,0,.37-.73,1,1,0,0,0-.44-.85l-.11-.07c-.19-.1-.47-.26-.39-.58a.63.63,0,0,1,.37-.37.63.63,0,0,0,.2-.14.89.89,0,0,0,.05-.74.47.47,0,0,0-.28-.35,1.14,1.14,0,0,0-1,.3l-.07.07a1.48,1.48,0,0,1-.33,1.26.61.61,0,0,1-.74.16.57.57,0,0,0-.59.05l-.36.24c-.48.32-.93.63-1.2.59h0l-.21,0-.77-.13a2,2,0,0,0-.11.37,1.48,1.48,0,0,1-.25.62.1.1,0,0,1-.12,0,1.4,1.4,0,0,1-.43-.48,1.47,1.47,0,0,0-.35-.42.72.72,0,0,0-.27-.1.64.64,0,0,1-.37-.18.66.66,0,0,1-.13-.33,1.05,1.05,0,0,0,0-.16s-.17,0-.25,0a.61.61,0,0,1-.43,0,3.66,3.66,0,0,1-.67-.46,1.46,1.46,0,0,0,.12.74.6.6,0,0,0,.23.25.61.61,0,0,1,.31.55,1.44,1.44,0,0,1-.1.41,1.32,1.32,0,0,0-.09.36,1,1,0,0,1,0,.22.47.47,0,0,0,0,.21,1.9,1.9,0,0,1,0,1.08c0,.06,0,.13,0,.2h.38a1.63,1.63,0,0,1,.79.06.36.36,0,0,1,.23.37c0,.32-.5.53-.66.58-.42.11-.42.11-.64.46l-.06.09a1.32,1.32,0,0,1-.41.41.91.91,0,0,0-.35.37,1.64,1.64,0,0,0-.07.19c-.07.21-.13.29-.41.32a1.21,1.21,0,0,1-.56-.12,1.81,1.81,0,0,0-.31-.1,1.11,1.11,0,0,1-.47.46,1.45,1.45,0,0,0-.31.24,1,1,0,0,0-.16.28c-.09.19-.21.44-.44.47h0l-.06,0a.13.13,0,0,1,0-.11.51.51,0,0,0-.07-.41c-.2-.24-.78-.08-1.13,0l-.3.07a.08.08,0,0,1-.08,0,.14.14,0,0,1,0-.1c0-.42-.23-.5-.62-.58s-.53-.11-.6-.39a1.73,1.73,0,0,1,.12-.65,4,4,0,0,0,.1-.41c0-.06,0-.12,0-.19a3.82,3.82,0,0,0,.05-.67,1.76,1.76,0,0,1-.28-.37c-.06,0-.11.06-.17.14a1.3,1.3,0,0,1-.26.25,1.44,1.44,0,0,1-1.07.22.13.13,0,0,1-.07-.15c0-.08,0-.15,0-.22a.86.86,0,0,1-.91.23l-.58-.06a6.91,6.91,0,0,1-.69-.08,1.64,1.64,0,0,1-.48-.25c-.15-.1-.41-.26-.48-.24a3,3,0,0,0-.15,1.47c.08.32.33.36.71.39l.17,0a.1.1,0,0,1,.08.08,1.89,1.89,0,0,1,0,.85l0,.09a.12.12,0,0,1-.12.11,2.27,2.27,0,0,1-.33-.07,1.17,1.17,0,0,0-.45-.05l-.21,0a.88.88,0,0,1-.63,0,6,6,0,0,1-.06.72c0,.19,0,.38-.05.58a.94.94,0,0,0,.33.78l.11.13c.85,1,.24,2.55-.31,3.9a8.7,8.7,0,0,0-.56,1.69c0,.19-.06.43-.09.69a5.33,5.33,0,0,1-.49,2.12.5.5,0,0,1-.51.25s0,.09-.08.1a4.1,4.1,0,0,0-.67.19,2.37,2.37,0,0,1-1.27.18l-.38-.11a1.56,1.56,0,0,0-.9-.11c-.24.07-.35.26-.49.49l-.15.23a1.68,1.68,0,0,1-1,.65,1.66,1.66,0,0,0-.77.41,4.81,4.81,0,0,0-.85,2l-.1.37a1.7,1.7,0,0,1-.74,1,2.22,2.22,0,0,0-.54.52c-.36.53-.14,1.59,0,2.23l0,.13a4.5,4.5,0,0,0,.34.92,2.74,2.74,0,0,1,.35,1.8,1.8,1.8,0,0,1-.07.23c0,.13,0,.13,0,.23a.8.8,0,0,0,.41.19,1,1,0,0,1,.52.25,1.27,1.27,0,0,1,.3.64,2.69,2.69,0,0,0,.1.34.86.86,0,0,0,.75.5h.05c.75.11,1.12-.16,1.64-.8l.4-.47a.09.09,0,0,1,.1,0,.11.11,0,0,1,.07.09,5.31,5.31,0,0,1-.24,2c-.08.31-.15.62-.19.9,0,.1,0,.21-.07.32-.1.38-.14.62,0,.72s.2,0,.3-.14.22-.33.44-.33a1.59,1.59,0,0,1,.85.44l.19.14c.18-.2.48-.1.66,0l.06,0a1.52,1.52,0,0,1,.64.41l.07.08c.16.17.25.25.41.2a1.06,1.06,0,0,0,.41-.39c.19-.26.41-.55.76-.39a1.16,1.16,0,0,1,.19.12c.16.11.21.14.33,0A3.1,3.1,0,0,0,48.9,70a2.13,2.13,0,0,1,.3-.44l.14-.16a1.72,1.72,0,0,1,.49-.45l.37-.16a2,2,0,0,0,.63-.36l.06,0a2.3,2.3,0,0,1,.87.16l.13,0a.82.82,0,0,0,.45,0,.88.88,0,0,0,.23-.14.67.67,0,0,1,.47-.18.48.48,0,0,1,.43.21,1.2,1.2,0,0,1,0,.79l0,.15c0,.2-.08.5-.25.61a.27.27,0,0,1-.29,0l-.06,0a.67.67,0,0,0,.22.59,2.49,2.49,0,0,1,.16.22c.17.26.11.43-.08.69a.6.6,0,0,1-.23.22,3.5,3.5,0,0,1,.2.74,4.32,4.32,0,0,0,.1.45c0,.08,0,.18.06.29a1.4,1.4,0,0,0,.12.43.49.49,0,0,0,.2.09l.15.05a1,1,0,0,1,.67,1l0,.13a.68.68,0,0,0,0,.38.14.14,0,0,0,.13.05.28.28,0,0,1,.13-.13c.23-.13.66.08.78.19a.93.93,0,0,0,.3.2l.11.05a.4.4,0,0,1,.27.37,1.19,1.19,0,0,1,.84.18l.08.06a3.42,3.42,0,0,1,.64.59.91.91,0,0,1,.11.24.52.52,0,0,0,.1.22s0,0,.08,0a.35.35,0,0,1,.16,0,.39.39,0,0,1,.35.13.63.63,0,0,1,0,.42,1.52,1.52,0,0,0,0,.24.31.31,0,0,0,0,.17s.12,0,.21,0a.8.8,0,0,1,.27,0h0a2.68,2.68,0,0,1,.73.28,3.62,3.62,0,0,0,.51.22l.16,0a.64.64,0,0,1,.35.11.41.41,0,0,1,.15.27.55.55,0,0,0,0,.11,1.07,1.07,0,0,0,.17.24.83.83,0,0,1,.25.64.74.74,0,0,1-.27.51.73.73,0,0,0-.16.2,1.58,1.58,0,0,0-.07.55c0,.07,0,.14,0,.21a1.58,1.58,0,0,1-.05.65,1.11,1.11,0,0,0,0,.48.58.58,0,0,0,.09.2.71.71,0,0,1,.14.33,2.7,2.7,0,0,1-.09.83l0,.09a2,2,0,0,1-.06.22,1,1,0,0,0-.07.48.68.68,0,0,0,.2.24l.12.12a1.44,1.44,0,0,0,.91.38l.4.08a9,9,0,0,0,1.51.31s.07,0,.09.09a1,1,0,0,1-.21.87.59.59,0,0,0-.15.46,1.64,1.64,0,0,0,.12.35c0,.1.08.2.1.29a1.31,1.31,0,0,0,.25.55.6.6,0,0,0,.32.16l.15,0c.3.11.32.16.3.53a2.17,2.17,0,0,0,.11.81,3.27,3.27,0,0,1,.13.6,1.9,1.9,0,0,1-.34,1l-.06.12a2.93,2.93,0,0,1-.48,1l-.17.26-.12.21a1.57,1.57,0,0,1-.27.4l-.07.07a1,1,0,0,0-.21.26.75.75,0,0,1,.06.21,1.72,1.72,0,0,1-.06.55,2.07,2.07,0,0,0-.06.37,3.54,3.54,0,0,0,.11.88c0,.08,0,.16,0,.24a4.52,4.52,0,0,1-.08,1.74,2.56,2.56,0,0,1-.25.57c-.11.2-.29.55-.25.64a1,1,0,0,0,.26.2,1.31,1.31,0,0,1,.25.18A1,1,0,0,0,64,100a6.86,6.86,0,0,1,.93.3c.23.1.37.14.5,0a.1.1,0,0,1,.08,0,.6.6,0,0,1,.3.09.59.59,0,0,0,.19.07.72.72,0,0,0,.19,0,.49.49,0,0,1,.47.13,2.73,2.73,0,0,1,.6,1.08,1.58,1.58,0,0,1,0,.5,2,2,0,0,0,0,.33c0,.08,0,.15,0,.22a1.39,1.39,0,0,1,0,.79v0c-.11.33-.41,1.21-.17,1.47s.23.08.43,0a1.2,1.2,0,0,1,.26-.07h0c.28,0,.38,0,.5-.38a.12.12,0,0,1,.1-.09,1.11,1.11,0,0,1,.89.84,1.4,1.4,0,0,1-.29.88,1.53,1.53,0,0,0-.27.64.09.09,0,0,1,0,0c0,.16-.06.33-.09.49a1.52,1.52,0,0,1-.26.64l-.08.13-.06.11a.79.79,0,0,1-.19.27.39.39,0,0,1-.15.09.24.24,0,0,0-.1.06.47.47,0,0,0-.07.29.32.32,0,0,0,.06.13.56.56,0,0,1,.1-.14,1.66,1.66,0,0,1,.36-.21,2,2,0,0,0,.24-.13c.24-.15.44-.24.62.15l.09.18a1.84,1.84,0,0,1,.23.57,1.62,1.62,0,0,1-.1.68,2.75,2.75,0,0,0-.08.32,1.79,1.79,0,0,0,0,.51,2.38,2.38,0,0,1,0,.44.76.76,0,0,1-.22.47.88.88,0,0,0-.16.24.4.4,0,0,0,0,.12.65.65,0,0,1,0,.25.45.45,0,0,1-.14.19l-.05.05-.1.13a1.13,1.13,0,0,1-.35.34,1.18,1.18,0,0,1-.36.1,1.29,1.29,0,0,0-.25.06l-.09.05a.4.4,0,0,1-.18.09.36.36,0,0,1-.18,0l-.07,0a.49.49,0,0,0-.38,0,1.44,1.44,0,0,0-.19.19,1.17,1.17,0,0,1-.34.3,4,4,0,0,1-.47.2l-.34.12a3.18,3.18,0,0,0-.5.19l0,.09a.86.86,0,0,1-.3.63l-.12.09a4.33,4.33,0,0,1-.82.51l-.16.07a1.53,1.53,0,0,0-.62.37.76.76,0,0,0-.13.27l-.06.17a2.69,2.69,0,0,1-.35.57,1.66,1.66,0,0,1-.79.62,1.12,1.12,0,0,0-.63.55l0,.05a1.78,1.78,0,0,0-.21.39h0a.1.1,0,0,1,.12.09.75.75,0,0,0,.18-.08,1,1,0,0,1,.26-.11.54.54,0,0,1,.36.05l.15,0c.12,0,.15,0,.25-.09l.08-.06.05,0c.14-.11.2-.05.27.06l0,0a1.67,1.67,0,0,1,.1.19.54.54,0,0,0,.16.23l.1.05a.44.44,0,0,1,.27.3.8.8,0,0,1,0,.38.79.79,0,0,0,0,.2.34.34,0,0,0,.11.21.91.91,0,0,1,.11.14.4.4,0,0,1-.05.52,1,1,0,0,1,.23.05l.15,0a.21.21,0,0,0,.14,0l.08,0a.46.46,0,0,1,.51.17l.1.09.14.07a.57.57,0,0,1,.26.18.54.54,0,0,1,.07.26.42.42,0,0,0,0,.15.72.72,0,0,0,.4.24l.11,0c.25,0,.33.08.42.49a1.18,1.18,0,0,0,.24.46l.07.1a3,3,0,0,0,.33.37,3.56,3.56,0,0,1,.35.4,1.54,1.54,0,0,0,.25.26,1.35,1.35,0,0,1,.36.43.74.74,0,0,1,.05.27.52.52,0,0,0,0,.15c0,.06,0,.06.07.07a.33.33,0,0,1,.13.06.45.45,0,0,1,.15.22.43.43,0,0,0,.05.11l.1.07a.37.37,0,0,1,.23.28.31.31,0,0,1,0,.21.2.2,0,0,1-.17.09h0a.6.6,0,0,0-.16.1l-.15.11a.56.56,0,0,1-.21.07.3.3,0,0,0-.17.06.81.81,0,0,0-.12.4v0a.18.18,0,0,1,0,.09s0,.07,0,.1c0,.39,0,.84.25,1l.09.06h0l0,0a.43.43,0,0,0,.3.06.51.51,0,0,0,.14-.21A1,1,0,0,1,68,128a2.29,2.29,0,0,1,.22-.21,1.16,1.16,0,0,0,.28-.31,3.51,3.51,0,0,1,.37-.55,1.62,1.62,0,0,0,.14-.24,1.93,1.93,0,0,1,.13-.23,1.55,1.55,0,0,1,.19-.21,1,1,0,0,0,.2-.26,1.44,1.44,0,0,0,.08-.28,1.37,1.37,0,0,1,.15-.41v0a.16.16,0,0,1,0-.11,1.85,1.85,0,0,0,.19-.6,2.83,2.83,0,0,1,.17-.6l0-.08a2.44,2.44,0,0,1,.54-.85.86.86,0,0,1,.54-.12.77.77,0,0,0,.4-.07.81.81,0,0,0,.26-.41c0-.12.09-.23.14-.35s.11-.26.16-.41a2.32,2.32,0,0,0,.15-.72,1.37,1.37,0,0,0,0-.18,1.07,1.07,0,0,1,0-.46.14.14,0,0,1,.06-.08.08.08,0,0,1,.08,0,2.35,2.35,0,0,1,.68.71l.21.27a1.55,1.55,0,0,0,.36.32h0a.53.53,0,0,1,.23.26,1.84,1.84,0,0,0,.63-.87l.08-.17a1.29,1.29,0,0,1,.26-.34.81.81,0,0,0,.22-.33l0-.09a.56.56,0,0,1,.17-.31.39.39,0,0,0,.12-.17l0-.09a.66.66,0,0,1,.36-.34.71.71,0,0,0,.22-.15.47.47,0,0,0,.07-.12.94.94,0,0,1,.13-.19.44.44,0,0,1,.25-.1l.11,0c.11,0,.15-.11.21-.23l.11-.19a1.42,1.42,0,0,0,.11-.19,1,1,0,0,1,.38-.45l.06,0,.06,0s0-.08,0-.11,0-.17,0-.26,0-.1,0-.15,0,0,0,0a.64.64,0,0,1,0-.17.53.53,0,0,1,.07-.12l0,0a1.48,1.48,0,0,0,0-.2.93.93,0,0,1,.15-.45.76.76,0,0,1,.24-.23.66.66,0,0,0,.17-.15s0-.09,0-.2l0-.13a1,1,0,0,1,0-.19.45.45,0,0,0,0-.11.43.43,0,0,0,0-.1l0-.11a3.69,3.69,0,0,1,0-.64.75.75,0,0,1,.1-.31l0-.1a1.4,1.4,0,0,0,.08-.36.78.78,0,0,0,0-.23.78.78,0,0,1,0-.41.38.38,0,0,1,.13-.19l.05-.06a.5.5,0,0,0,0-.07.63.63,0,0,1,0-.17.82.82,0,0,1,.08-.13l0-.06a1.31,1.31,0,0,0,.1-.29,1.59,1.59,0,0,1,.14-.37l0-.06a.38.38,0,0,1-.15-.19.81.81,0,0,1,0-.66.54.54,0,0,1,.27-.25l.09,0a.51.51,0,0,0,.1-.12.5.5,0,0,1,.23-.21c.13,0,.26.06.38.15a.53.53,0,0,0,.19.12s0,0,.07-.06l.07-.1a2,2,0,0,1,.21-.19l.1-.08.15-.14a2,2,0,0,1,.5-.4l.12,0a.54.54,0,0,0,.21-.11l.23-.21.22-.2.17-.16a.86.86,0,0,1,.52-.34h.17a.57.57,0,0,0,.2,0,2.39,2.39,0,0,0,.32-.1h0a.87.87,0,0,0,.16-.1.74.74,0,0,1,.23-.13.1.1,0,0,1,.09,0h0a.28.28,0,0,1,.12-.17.12.12,0,0,1,.13,0,.13.13,0,0,1,.06.08h0a.19.19,0,0,1,.13-.1.29.29,0,0,1,.17,0l.05,0a1.8,1.8,0,0,0,.32.06.49.49,0,0,1,.28.09.53.53,0,0,1,.11.22h0a.24.24,0,0,0,.08-.12.72.72,0,0,0,0-.13.57.57,0,0,1,.06-.33c.07-.14.18-.38.4-.39a.63.63,0,0,1,.22,0,.23.23,0,0,0,.24,0,.65.65,0,0,0,.11-.13l.11-.14.08-.07a.35.35,0,0,0,.13-.17.51.51,0,0,1,.27-.36.62.62,0,0,0,.21-.2l0,0a.67.67,0,0,1,.55-.27.89.89,0,0,0,.25,0,.34.34,0,0,1,.34,0,.4.4,0,0,0,.12.07.33.33,0,0,0,.19,0,.49.49,0,0,1,.3,0l.16.07a.51.51,0,0,0,.24.07h.07c.17,0,.44,0,.54.21a.77.77,0,0,1,.06.21c0,.09,0,.13.09.16s.08,0,.14,0l.13-.07a.55.55,0,0,1,.25,0H91a.62.62,0,0,1,.55.18s.06,0,.11,0a.3.3,0,0,1,.2,0,.41.41,0,0,1,.14.11l0,0a2.81,2.81,0,0,1,.35-1,1.52,1.52,0,0,1,.46-.52l.1-.06a.67.67,0,0,0,.12-.09.7.7,0,0,0,.09-.12.66.66,0,0,1,.22-.23.07.07,0,0,1,.08,0,.1.1,0,0,1,.05.07.1.1,0,0,0,.11.06s0,0,.05-.06a.42.42,0,0,1,.18-.18.77.77,0,0,1,.2-.05c.1,0,.18,0,.23-.08a1,1,0,0,0,.07-.4,1.64,1.64,0,0,1,0-.35c0-.12.05-.24.07-.37a4.07,4.07,0,0,1,.09-.42,1.41,1.41,0,0,1,.11-.27.77.77,0,0,0,.1-.3.66.66,0,0,1,.39-.65.88.88,0,0,0,.47-.3,2.46,2.46,0,0,1,.27-.27l.17-.15a1.93,1.93,0,0,0,.21-.28,2.83,2.83,0,0,1,.16-.24c.11-.14.23-.26.35-.38l.17-.18a.89.89,0,0,0,.13-.2,1.05,1.05,0,0,1,.19-.28,1.9,1.9,0,0,0,.39-1,3.79,3.79,0,0,0,0-.59c0-.07,0-.14,0-.21A4.39,4.39,0,0,1,98,96.32l0-.19a1.48,1.48,0,0,1,.23-.59.73.73,0,0,1,.24-.19.47.47,0,0,0,.18-.14l0-.05a.28.28,0,0,1,.26-.17h.19c.13,0,.13,0,.18-.25l0-.13a4,4,0,0,1,.11-.49c0-.13.09-.26.14-.4l.11-.32a4,4,0,0,0,.14-.64,3.75,3.75,0,0,1,.19-.83,3.19,3.19,0,0,1,.27-.5,3.19,3.19,0,0,0,.22-.4,2.87,2.87,0,0,0,.16-.57,4,4,0,0,1,.1-.42l0-.1c.1-.33.14-.45,0-.72l0-.06a.43.43,0,0,1-.11-.27,1.14,1.14,0,0,1,.05-.36s0-.09,0-.13a2.15,2.15,0,0,0,0-.55v-.15a2.27,2.27,0,0,1,.1-.64,3.54,3.54,0,0,0,.08-.38c0-.13,0-.25.05-.38s.05-.36.07-.53,0-.18,0-.27,0-.31,0-.46a7.64,7.64,0,0,1,.18-.92c0-.17.08-.34.12-.51a1.43,1.43,0,0,0,0-.15.92.92,0,0,1,.07-.33.12.12,0,0,1,.13-.06,1.65,1.65,0,0,1,.39.12,1.65,1.65,0,0,0,.33.11l.3,0,.3,0c.09,0,.23,0,.29,0a1.22,1.22,0,0,0,.24-.32l.11-.16a2.92,2.92,0,0,0,.52-1,1.19,1.19,0,0,1,.34-.63.8.8,0,0,0,.11-.17,1,1,0,0,1,.16-.23.77.77,0,0,1,.2-.12,1.09,1.09,0,0,0,.31-.19l0,0a.14.14,0,0,1,0-.11,1.36,1.36,0,0,1,.52-1.07,5,5,0,0,1,1.39-.78,1.42,1.42,0,0,0,.61-.49,2.56,2.56,0,0,0,.17-.26l.08-.13a1.16,1.16,0,0,1,.15-.18,1,1,0,0,0,.12-.15s0-.08,0-.17a1,1,0,0,1,0-.18.91.91,0,0,1,.14-.43l.05-.1a.1.1,0,0,1,.11-.07h.06a1.19,1.19,0,0,0,1-.33,3.4,3.4,0,0,0,.95-1.05,2.48,2.48,0,0,0,.14-.8,2.44,2.44,0,0,1,.2-1,3.76,3.76,0,0,0,.26-1.76A3.58,3.58,0,0,1,111.1,70.47Z"/><path class="cls-3" d="M58,170a4,4,0,0,1,.73,2.41,3.52,3.52,0,0,1-.73,2.33,3.78,3.78,0,0,1-1.2.9A3.52,3.52,0,0,1,58.57,177a4.18,4.18,0,0,1,.62,2.31,4.62,4.62,0,0,1-.7,2.52,4.35,4.35,0,0,1-2.9,2,10.92,10.92,0,0,1-2.23.21H46.23V168.31h7.63Q56.75,168.36,58,170Zm-8.57,1.06v3.48h3.84a3.17,3.17,0,0,0,1.67-.39,1.49,1.49,0,0,0,.64-1.39,1.41,1.41,0,0,0-.85-1.46,6,6,0,0,0-1.87-.25Zm0,6.1v4.21h3.83a3.72,3.72,0,0,0,1.6-.28,2,2,0,0,0,1-2,1.7,1.7,0,0,0-1-1.69,4,4,0,0,0-1.58-.27Z"/><path class="cls-3" d="M68.27,172.15l.26,0v3.13l-.51,0h-.36a2.53,2.53,0,0,0-2.48,1.2,4.67,4.67,0,0,0-.35,2.08v5.58H61.75V172.43h2.91v2a6.45,6.45,0,0,1,1.23-1.6,3.35,3.35,0,0,1,2.23-.72Z"/><path class="cls-3" d="M74.94,177a4.84,4.84,0,0,0,1.22-.27.92.92,0,0,0,.66-.87,1,1,0,0,0-.5-1,3.19,3.19,0,0,0-1.48-.27,2,2,0,0,0-1.55.54,2.21,2.21,0,0,0-.43,1.07H69.9a4.47,4.47,0,0,1,.86-2.52q1.22-1.54,4.18-1.54a7.45,7.45,0,0,1,3.42.76,2.92,2.92,0,0,1,1.5,2.87v5.36q0,.56,0,1.35a1.69,1.69,0,0,0,.18.81,1.09,1.09,0,0,0,.45.35v.45H77.18a3.41,3.41,0,0,1-.19-.66c0-.21-.06-.44-.09-.71a6.29,6.29,0,0,1-1.47,1.17,4.43,4.43,0,0,1-2.24.57,3.87,3.87,0,0,1-2.63-.91,3.22,3.22,0,0,1-1-2.57,3.32,3.32,0,0,1,1.67-3.12,7.46,7.46,0,0,1,2.7-.75Zm1.87,1.43a3.39,3.39,0,0,1-.59.29,5,5,0,0,1-.82.21l-.69.13a4.58,4.58,0,0,0-1.4.42,1.39,1.39,0,0,0-.72,1.3A1.35,1.35,0,0,0,73,181.9a1.67,1.67,0,0,0,1.07.35,3.19,3.19,0,0,0,1.84-.58,2.45,2.45,0,0,0,.88-2.11Z"/><path class="cls-3" d="M84.89,180.38a2,2,0,0,0,.42,1.16,2.85,2.85,0,0,0,2.11.61,3.23,3.23,0,0,0,1.44-.27.9.9,0,0,0,.1-1.59,17.49,17.49,0,0,0-3.19-.92,6.63,6.63,0,0,1-2.8-1.23,2.67,2.67,0,0,1-.81-2.1,3.64,3.64,0,0,1,1.27-2.78A5.12,5.12,0,0,1,87,172.1a6.58,6.58,0,0,1,3.57.87,3.74,3.74,0,0,1,1.58,3H89.1a1.81,1.81,0,0,0-.33-.93,2.1,2.1,0,0,0-1.72-.62,2.48,2.48,0,0,0-1.42.31.9.9,0,0,0-.42.73.8.8,0,0,0,.45.76,19.5,19.5,0,0,0,3.19.85,5.85,5.85,0,0,1,2.74,1.3,3,3,0,0,1,.9,2.2,3.54,3.54,0,0,1-1.29,2.83,6.09,6.09,0,0,1-4,1.1,6,6,0,0,1-4.07-1.16,3.78,3.78,0,0,1-1.32-3Z"/><path class="cls-3" d="M97.86,171h-3.1v-2.82h3.1Zm-3.1,1.39h3.1v11.68h-3.1Z"/><path class="cls-3" d="M103.94,184.11h-3.05V168.31h3.05Z"/></svg>
