<svg id="Layer_1" data-name="Layer 1" xmlns="http://www.w3.org/2000/svg" viewBox="0 0 150 200"><defs><style>.cls-1{fill:#e6e7e8;}.cls-2{fill:#584e9f;}.cls-3{fill:#5373b8;}.cls-4{fill:#756bae;}</style></defs><title>eu</title><ellipse class="cls-1" cx="74.6" cy="140.87" rx="33.74" ry="3.4"/><path class="cls-2" d="M34.87,85.13a4.71,4.71,0,0,0,1,.24l.26,0a3.57,3.57,0,0,0,.83,0,1.21,1.21,0,0,0,.32-.11.82.82,0,0,1,.61-.09,1.55,1.55,0,0,1,.78.83c.06.12.13.23.21.35a1.17,1.17,0,0,0,.56.38,1.92,1.92,0,0,1,.47.26,5.32,5.32,0,0,1,.55.54,6.05,6.05,0,0,0,.49.49A5.62,5.62,0,0,0,42.8,89a7.08,7.08,0,0,1,1.55.69,5.19,5.19,0,0,0,2.35.61l.66.07c.37.05.77.11,1.17.18l.16,0c.16,0,.39.1.51,0s.2-.47.22-.79a3.33,3.33,0,0,1,0-.38.15.15,0,0,1,0-.08.09.09,0,0,1,.08,0,7.09,7.09,0,0,0,1.21.24,8.52,8.52,0,0,1,1.08.2c.54.15.76.56,1,1l.12.23a5.78,5.78,0,0,0,.78,1,6.52,6.52,0,0,1,.74,1,2.83,2.83,0,0,1,.29.92,2.21,2.21,0,0,0,.28.84l.23.35a5.57,5.57,0,0,0,.57.78,1.21,1.21,0,0,0,.56.32,1.71,1.71,0,0,1,.45.2,1,1,0,0,1,.16.15c.14.15.19.18.27.11a1.37,1.37,0,0,0,.29-.56l.09-.25a1.13,1.13,0,0,1,1.42-.64,1.21,1.21,0,0,0,.29,0,1.2,1.2,0,0,1,.39,0,1.76,1.76,0,0,1,.75.57l.09.09a4.32,4.32,0,0,1,1,1.69,4.77,4.77,0,0,1,.17.72c0,.14,0,.28.08.42a2.49,2.49,0,0,0,.28.64l.11.21a4.25,4.25,0,0,0,.33.51,2.53,2.53,0,0,1,.54,1.11,5.3,5.3,0,0,1,0,.59c0,.13,0,.26,0,.39s0,.17,0,.27a1.53,1.53,0,0,0,.05.54.38.38,0,0,0,.13.11l.08.06a3.79,3.79,0,0,1,.46.46l.11.13a1.07,1.07,0,0,0,.59.45h0a1.21,1.21,0,0,1,.57.25,2.88,2.88,0,0,0,.36.2,2.64,2.64,0,0,1,.36.2l.13.11a.83.83,0,0,0,.31.21c0-.07.07-.14.1-.22h0a2.79,2.79,0,0,0,0-.34c0-.06,0-.11,0-.15a2.67,2.67,0,0,1,.13-.93v0c.12-.46.23-.87.31-1.3l0-.21a2.24,2.24,0,0,1,.23-.78,1,1,0,0,1,.48-.39l.06,0a5.48,5.48,0,0,0,.69-.45c.17-.12.35-.25.53-.36a7.89,7.89,0,0,1,1-.5l.42-.18a9.43,9.43,0,0,0,1.44-.88,11.62,11.62,0,0,1,1.21-.78l0,0c.21-.11.5-.26.73-.15a.66.66,0,0,1,.27.31,1,1,0,0,0,.11.17,1,1,0,0,0,.7.23H75a6.16,6.16,0,0,1,1.13.17l.1,0a1.3,1.3,0,0,0,.6.08l.27-.08a1.34,1.34,0,0,1,.47-.1.56.56,0,0,1,.5.29,1.44,1.44,0,0,1,.11.91,1.6,1.6,0,0,1,.65.25l.08.07c.1.08.15.12.24.08l.11-.09c.11-.1.22-.2.33-.16s.17.22.21.35v0c.05-.25.12-.57.35-.67s.32.06.4.16l.06.07a.55.55,0,0,0,.39.17h0l0,0a1.74,1.74,0,0,0,.17-.42,2.57,2.57,0,0,1,.12-.35,2.81,2.81,0,0,0,.1-.28c0-.14,0-.15-.13-.23a2.07,2.07,0,0,0-.3-.11,1.16,1.16,0,0,1-.71-.44.14.14,0,0,1,0-.12.11.11,0,0,1,.09-.07,1.48,1.48,0,0,1,.55.08l.26.07a4.37,4.37,0,0,0,.55.06l.46,0c.31,0,.65.08,1,.1h.11a.58.58,0,0,1,.33.07l.06.05a.19.19,0,0,0,.1.06,2.67,2.67,0,0,0,.49.05,3.87,3.87,0,0,1,.58,0l.22,0a.49.49,0,0,0,.26-.08.68.68,0,0,1,.35-.09,3.24,3.24,0,0,1,.88.19.81.81,0,0,1,.39.27,1.17,1.17,0,0,1,.09.16.83.83,0,0,0,.11.18.88.88,0,0,0,.17.12l.1.06,0,0c.25-.23.7-.66.93-.25a.69.69,0,0,1,0,.53.5.5,0,0,0,0,.3c0,.09.28.21.42.28l.2.1a.49.49,0,0,0,.45.08h.09a1.92,1.92,0,0,1,.75-.32h0l.19-.07a.64.64,0,0,1,.55-.07,1.14,1.14,0,0,1,.37.58,1.86,1.86,0,0,0,.11.24,4.59,4.59,0,0,0,.31.47l.21.29c.05.08.13.18.21.28a2.16,2.16,0,0,1,.64,1.48,2.53,2.53,0,0,1-.3.76,1.67,1.67,0,0,0-.28.95c0,.31.06.63.11.93s.1.72.12,1.1l.17.1c.1.06.24.15.31.13l.07,0c.15-.06.25-.09.41.15a.69.69,0,0,1,0,.7,1,1,0,0,0-.11.37,1.66,1.66,0,0,0,.14.64,3.24,3.24,0,0,1,.11.31c.11.39.21.71.33,1a2.34,2.34,0,0,1,.1.77q0,.15,0,.31c.89.31,1.44.27,1.77-.78.05-.16.09-.33.13-.5a5.78,5.78,0,0,1,.19-.68l.06-.16a2,2,0,0,0,.19-1,10.7,10.7,0,0,1-.09-1.29,4.8,4.8,0,0,0-.14-1c0-.19-.08-.38-.11-.58a2.73,2.73,0,0,1,0-.7,3.15,3.15,0,0,0,0-.51,4,4,0,0,0-.17-.82,5.77,5.77,0,0,1-.14-.59c-.07-.39-.14-.78-.22-1.17s-.14-.72-.21-1.09a3.84,3.84,0,0,1,.05-1.44.13.13,0,0,1,0-.09,1.47,1.47,0,0,1,.11-.44v0a.12.12,0,0,1,.05-.09,3.26,3.26,0,0,1,.24-.37,3.8,3.8,0,0,0,.22-.31l.18-.33a3.6,3.6,0,0,1,.57-.85,2.72,2.72,0,0,1,1-.57l.17-.07A6.51,6.51,0,0,0,99.07,95l0,0c.25-.18.49-.38.72-.58a7,7,0,0,1,1.16-.86,4.35,4.35,0,0,0,.86-.58,1.72,1.72,0,0,0,.28-.37,1.86,1.86,0,0,1,.33-.41,2.57,2.57,0,0,1,.78-.37l.13,0a1.07,1.07,0,0,1,.47,0,1.36,1.36,0,0,0,.27,0,.3.3,0,0,0,.23-.12.86.86,0,0,1,.2-.17.83.83,0,0,1,.6,0l.13,0a1.06,1.06,0,0,0-.07-.71l-.08-.15a.74.74,0,0,1-.15-.5.56.56,0,0,1,.21-.33,2.34,2.34,0,0,1,.69-.37h.1a.82.82,0,0,1-.28-.84,1.43,1.43,0,0,1,.56-.68,1.26,1.26,0,0,0,.49-.59h0a.12.12,0,0,1,.07-.08c0-.13-.33-.32-.49-.41a1.77,1.77,0,0,1-.26-.17l-.09-.08a2.59,2.59,0,0,1-.58-.63.15.15,0,0,1,0-.13.11.11,0,0,1,.09-.07h0c.19,0,.48,0,.53-.22a.94.94,0,0,0-.15-.54l-.08-.18-.08-.23c0-.1-.06-.19-.1-.28a1,1,0,0,0-.09-.14.81.81,0,0,1-.15-.3,3.11,3.11,0,0,1,.23-1.07c0-.13.08-.23.09-.31a.12.12,0,0,1,.08-.09.09.09,0,0,1,.1.06c.47,1.09.72,1.28.78,1.27s.06-.07.08-.32a2.16,2.16,0,0,0-.09-.77c0-.13-.07-.26-.09-.4a.79.79,0,0,1,.05-.51.68.68,0,0,1,.49-.28,1.79,1.79,0,0,0,.27-.1c.24-.11.51-.22.68-.13a.39.39,0,0,1,.21.33.93.93,0,0,1-.29.65,1.78,1.78,0,0,0-.54,1,1.4,1.4,0,0,0,.21.93.86.86,0,0,1,.07,1,3.18,3.18,0,0,0-.35,1,1.54,1.54,0,0,0,.55-.77l0-.11a1.63,1.63,0,0,1,.44-.83l.2-.17a1.13,1.13,0,0,0,.4-.46,1.64,1.64,0,0,0,.05-.66c0-.09,0-.17,0-.25s0-.28,0-.42,0-.49,0-.73,0-.2,0-.31a2,2,0,0,1,0-.82.68.68,0,0,1,.79-.51.57.57,0,0,1,.37.71,2.91,2.91,0,0,1-.18.58,2.49,2.49,0,0,0-.16.5,1.64,1.64,0,0,0,0,.71l0,0a2.35,2.35,0,0,1,.34-.49,1.12,1.12,0,0,1,.28-.2,1.14,1.14,0,0,0,.19-.12.09.09,0,0,1,.06,0,2.27,2.27,0,0,0,.66-1.18,1.71,1.71,0,0,0-.07-.62,1.45,1.45,0,0,1,0-.79.11.11,0,0,1,.08-.08,4.39,4.39,0,0,1,1,.06c.88.1,2.34.26,2.69-.13a.24.24,0,0,0,0-.08,2.11,2.11,0,0,0-.63,0,2.71,2.71,0,0,1-.6,0h0l-.22,0a1.81,1.81,0,0,1-.94-.29.11.11,0,0,1,0-.09.14.14,0,0,1,0-.1c.31-.39,1.12-.35,1.65-.33h.27a5.42,5.42,0,0,1,1.07.07,1.34,1.34,0,0,1,.35.15.92.92,0,0,0,.32.13c.36,0,.65-.79.83-1.29l.09-.24.13-.33c.12-.3.24-.59.33-.9,0-.08,0-.18.06-.27a2.28,2.28,0,0,1,.18-.58,2.12,2.12,0,0,1,1-.73,4.13,4.13,0,0,0,.4-.2,4.07,4.07,0,0,1,.73-.33,3.16,3.16,0,0,0,.84-.41,1.61,1.61,0,0,0,.32-.47c.14-.26.29-.52.49-.6s.51.11.7.31.25.26.37.26a.79.79,0,0,0,.26-.05,1,1,0,0,1,.3-.06h.15a1.07,1.07,0,0,0,.53-.08l.14-.06a2.42,2.42,0,0,1,1.13-.3,3.12,3.12,0,0,0-.32-.77l-.14-.27a2,2,0,0,1-.58-.79,2.82,2.82,0,0,1-.1-1.64c0-.11,0-.24.06-.37a2.46,2.46,0,0,0,0-1.56,1.13,1.13,0,0,0-.85-.36,2.27,2.27,0,0,1-.52-.11,1.29,1.29,0,0,1-.36-.23c-.19-.16-.3-.24-.56,0l-.16.13c-.34.28-.65.54-1,.84a1.52,1.52,0,0,0-.38.73,3.79,3.79,0,0,1-.17.46,1.75,1.75,0,0,1-.35.47l-.19.22a3,3,0,0,0-.22.36,2.5,2.5,0,0,1-.27.42,1.58,1.58,0,0,1-.62.47.59.59,0,0,1-.51-.09L118,70c-.12,0-.16,0-.17,0a.71.71,0,0,0-.07.26.5.5,0,0,1-.15.31c-.14.12-.31.07-.49,0l-.07,0c-.66-.15-1.35-.28-2-.37h-.06a24.87,24.87,0,0,1-2.59-.43h0a1.37,1.37,0,0,0-1.07,0c-.3.15-.59.32-.88.49l-.32.19c-.17.1-.36.19-.53.27l-.46.23-.11.07a1.08,1.08,0,0,1-.21.11,1.88,1.88,0,0,1-.4,1.45,2,2,0,0,1-2.14.78l-.54-.05a3.63,3.63,0,0,1-1.78-.43c-.29,1.64-.85,1.91-2.19,2.19l-.82.21a8.41,8.41,0,0,1-3.17.44,1.94,1.94,0,0,1-1-.45A2.14,2.14,0,0,1,96,73.77a2.23,2.23,0,0,1,.65-1.43c.23-.31.46-.6.43-.81a.46.46,0,0,0-.26-.32l-.06,0a1.28,1.28,0,0,1-.8-1.51,3.87,3.87,0,0,1,.86-1.85c.25-.89-.87-1.48-1.42-1.77a1.09,1.09,0,0,0-1.17,0c-.32.18-.35.32-.41.65,0,.09,0,.2-.07.32a.11.11,0,0,1-.11.09h0c-.56-.09-.75.4-1,1a2.62,2.62,0,0,1-.7,1.18c-.55.43-1.89,1.37-2.41.92-.7-.62,0-2.27.3-3a2.84,2.84,0,0,1,1.53-1.58c.18-.1.38-.21.59-.34s.45-.31.65-.46a3.15,3.15,0,0,1,1.8-.83.57.57,0,0,0-.1-.32c-.28-.42-1.14-.47-1.7-.5l-.45,0-.26,0a1.49,1.49,0,0,1-1-.33,2.8,2.8,0,0,1-.4-.64,2.33,2.33,0,0,0-.48-.72c-.3-.21-1,.19-1.58.51a4.82,4.82,0,0,1-.73.37,1.93,1.93,0,0,0-.83.59,1.06,1.06,0,0,1-1.16.43,4.22,4.22,0,0,1-1.11-.62c-.2-.14-.39-.27-.54-.35a2.08,2.08,0,0,0-.39-.14,1.26,1.26,0,0,1-.73-.39.13.13,0,0,1,0-.09.14.14,0,0,1,0-.09,5,5,0,0,1,1.78-.9c.28-.1.55-.19.81-.31l.6-.24c.27-.1.53-.2.78-.33a2,2,0,0,0,.46-.36,3.19,3.19,0,0,1,.31-.27l-.15,0-.18,0a1.72,1.72,0,0,1-.31-.1l-.23-.07h0a.42.42,0,0,1-.35-.26,1,1,0,0,0-.28-.29c-.1-.06-.1-.07-.22.06l0,0-.17.16a1.28,1.28,0,0,0-.19.17.09.09,0,0,1-.08,0,.08.08,0,0,1-.07,0,2.2,2.2,0,0,0-.58-.64c-.1-.06-.19,0-.35.07l-.19.09-.07,0a.47.47,0,0,1-.25.08h0c-.11,0-.22-.16-.32-.28l-.11-.12a2.86,2.86,0,0,0-.65-.45l-.3-.18a4.11,4.11,0,0,0-1.42-.64.64.64,0,0,0-.37.06l-.2.07a.76.76,0,0,1-.72-.23,1.4,1.4,0,0,0-.59-.29h-.08a.54.54,0,0,1-.31-.12,1.59,1.59,0,0,1-.42-1,3.23,3.23,0,0,0-.11-.51.39.39,0,0,0-.21-.22l-.09-.06s0,.09,0,.14,0,.17,0,.25a.64.64,0,0,1-.12.4c-.11.12-.25.12-.43.12h0l-.48,0-.42,0a10.46,10.46,0,0,1-1.28-.15l-.7-.11-1.52-.23-1-.12c-.41,0-.83-.09-1.24-.16s-.7-.14-1-.21-.85-.18-1.28-.25L67.11,54c-1-.12-1.94-.32-2.88-.51l-1.17-.24a11.16,11.16,0,0,0-1.22-.14c-.37,0-.74-.06-1.12-.12l-.3-.06a4.1,4.1,0,0,0-.67-.1,6.59,6.59,0,0,1-.7-.08l-.44-.06c-.41,0-.81-.11-1.21-.18s-.84-.15-1.27-.18A29,29,0,0,1,53,51.8c-.69-.14-1.4-.29-2.12-.4h0l-.32-.06a4.27,4.27,0,0,0-.92-.1,1.29,1.29,0,0,1-.63-.12,1.1,1.1,0,0,0-.41-.07H48.4c-.41,0-.82-.09-1.21-.15l-.27,0c-1-.15-2-.31-3.08-.43-.78-.09-1.56-.24-2.32-.39l-1.4-.26c-.76-.13-1.54-.23-2.29-.32L36,49.21c-.76-.11-1.51-.24-2.14-.35l-.78-.16A10.11,10.11,0,0,0,32,48.49l-.14,0-1.07-.13s-.06,0-.07-.08l-.16-.07A1.69,1.69,0,0,0,30,48l-.21,0h-.1l.06.07a1.66,1.66,0,0,1,.4.71,3.17,3.17,0,0,0,.13.32.84.84,0,0,0,.07.13.6.6,0,0,1,.14.45.44.44,0,0,1-.14.27.26.26,0,0,1-.12.06.54.54,0,0,0,0,.08,1.36,1.36,0,0,0,.1.42,1.34,1.34,0,0,1,.1.67c-.06.41-.31.83-.67.86s-.55-.22-.59-.67a3.24,3.24,0,0,1,.06-.85c0-.05,0-.11,0-.17a1.14,1.14,0,0,0,0-.42c0-.21-.45-.28-.67-.32l-.16,0L28,49.44a6.1,6.1,0,0,0-1.18-.25c-.19,0-.5,0-.56.16s0,0,0,.12a1.15,1.15,0,0,0,.17.27l.12.17c.11.18.21.38.31.57l0,0a1.6,1.6,0,0,1,.22,1.24l0,.14c0,.34.14.53.61.64a.09.09,0,0,1,.07.07.15.15,0,0,1,0,.11,1.19,1.19,0,0,1-.4.45,1,1,0,0,0-.35.39,2.68,2.68,0,0,0-.18,1,4.4,4.4,0,0,1-.09.78c-.12.5-.19,1-.26,1.57a6.14,6.14,0,0,1-1.26,3.63l0,0a.75.75,0,0,0-.3.53c0,.07,0,.13,0,.18a.61.61,0,0,0,0,.27,4.66,4.66,0,0,1,.2,1.62c0,.27,0,.54-.07.8s0,.41-.06.61,0,.2,0,.3a1.37,1.37,0,0,1-.32,1,2.51,2.51,0,0,1,.22.56,3.42,3.42,0,0,0,.13.38,1.49,1.49,0,0,0,.15.26,1,1,0,0,1,.23.71,1.57,1.57,0,0,1-.11.39,1,1,0,0,0-.09.39,3.06,3.06,0,0,0,.08.57,4.23,4.23,0,0,1,.08.47c0,.1,0,.19,0,.28a1.76,1.76,0,0,0,.18.82,6.17,6.17,0,0,0,.36.53l.22.31.09.14a.78.78,0,0,0,.26.31,2.58,2.58,0,0,0,1,.21,4,4,0,0,1,.75.1l.12,0c.17,0,.35.07.42.24a.47.47,0,0,1,0,.34,2,2,0,0,1-.32.52l-.11.15a3.84,3.84,0,0,0-.71,1.63,2.89,2.89,0,0,0,0,1.35,5.83,5.83,0,0,0,.91,1.6l.14.16a1.55,1.55,0,0,1,.34.51,1.18,1.18,0,0,1,0,.53.92.92,0,0,0,0,.33c.08.27.32.35.57.43l.21.08.18.08a4.19,4.19,0,0,1,.88.46c.14.1.29.2.44.29a5.11,5.11,0,0,1,.72.53,2.19,2.19,0,0,0,.35.25,1.26,1.26,0,0,1,.59.62,3.91,3.91,0,0,0,.4.68,5,5,0,0,1,.36.58,2.47,2.47,0,0,0,.38.55l.15.14a1.32,1.32,0,0,1,.4.53.07.07,0,0,1,.08,0,.11.11,0,0,1,.06.12Z"/><path class="cls-3" d="M79.92,123.05a.23.23,0,0,1-.22.11c0,.2,0,.27.2.37a.11.11,0,0,1,0,.08.14.14,0,0,1,0,.1,3.74,3.74,0,0,1-1.13.86l-.14.07c-.13.06-.25.11-.29.23a.39.39,0,0,0,.19.46,5.58,5.58,0,0,1,.78-.77,2.08,2.08,0,0,1,.31-.18c.23-.12.49-.26.56-.49a1.17,1.17,0,0,0,0-.49,1.82,1.82,0,0,1-.05-.44c0-.34,0-1.42-.5-1.64,0,.06.06.21.11.35C79.93,122.28,80.09,122.81,79.92,123.05Z"/><path class="cls-3" d="M79,122.49c-.1.3.29.61.58.84a2.61,2.61,0,0,1,.27.23.13.13,0,0,1,0,.14.09.09,0,0,1-.11.05,1.61,1.61,0,0,1-.26-.16,1,1,0,0,0-.36-.18H79a2,2,0,0,0-.56.31.29.29,0,0,0-.11.15.53.53,0,0,0,.11.29l.08.15a1,1,0,0,1,.1.33.82.82,0,0,1,.33-.21l.12-.06a3.87,3.87,0,0,0,1-.7c-.17-.13-.25-.31-.15-.66,0-.06.06-.1.11-.08s.1,0,.12,0-.13-.86-.24-1.17l-.06-.19a1.74,1.74,0,0,1-.42.42A1.11,1.11,0,0,0,79,122.49Z"/><path class="cls-4" d="M15.19,171H8.06v2.86h6.55v2.34H8.06v3.47h7.47v2.42H5.3V168.63h9.89Z"/><path class="cls-4" d="M19.53,178.94a1.74,1.74,0,0,0,.36,1,2.43,2.43,0,0,0,1.8.52,2.76,2.76,0,0,0,1.23-.23.73.73,0,0,0,.45-.69.74.74,0,0,0-.37-.67,15,15,0,0,0-2.73-.79,5.67,5.67,0,0,1-2.4-1.05,2.28,2.28,0,0,1-.7-1.79,3.11,3.11,0,0,1,1.09-2.37,4.38,4.38,0,0,1,3.06-1,5.62,5.62,0,0,1,3,.75,3.19,3.19,0,0,1,1.35,2.58H23.13a1.54,1.54,0,0,0-.28-.8,1.79,1.79,0,0,0-1.47-.53,2.11,2.11,0,0,0-1.22.27.76.76,0,0,0-.36.62.68.68,0,0,0,.39.65,16.66,16.66,0,0,0,2.72.72,5,5,0,0,1,2.34,1.11A2.51,2.51,0,0,1,26,179.1a3,3,0,0,1-1.1,2.42,5.2,5.2,0,0,1-3.42.94,5.15,5.15,0,0,1-3.48-1,3.23,3.23,0,0,1-1.12-2.53Z"/><path class="cls-4" d="M26.91,174.1v-1.86H28.3v-2.78h2.58v2.78H32.5v1.86H30.88v5.27a1.19,1.19,0,0,0,.16.76,1.71,1.71,0,0,0,1,.15h.51v1.95l-1.24,0a3.31,3.31,0,0,1-2.53-.64,1.91,1.91,0,0,1-.44-1.38V174.1Z"/><path class="cls-4" d="M38.12,176.05a4.11,4.11,0,0,0,1-.23.78.78,0,0,0,.56-.74.88.88,0,0,0-.43-.85A2.72,2.72,0,0,0,38,174a1.67,1.67,0,0,0-1.33.46,1.89,1.89,0,0,0-.37.92H33.81a3.82,3.82,0,0,1,.74-2.15,4.29,4.29,0,0,1,3.57-1.32,6.35,6.35,0,0,1,2.92.65A2.49,2.49,0,0,1,42.32,175v4.58q0,.48,0,1.15a1.45,1.45,0,0,0,.16.7.93.93,0,0,0,.38.3v.38H40a2.9,2.9,0,0,1-.16-.57q0-.27-.07-.6a5.37,5.37,0,0,1-1.25,1,3.78,3.78,0,0,1-1.91.48,3.31,3.31,0,0,1-2.25-.77,2.75,2.75,0,0,1-.89-2.19,2.84,2.84,0,0,1,1.43-2.66,6.37,6.37,0,0,1,2.3-.64Zm1.6,1.22a2.9,2.9,0,0,1-.51.25,4.23,4.23,0,0,1-.7.18l-.59.11a3.9,3.9,0,0,0-1.2.36,1.19,1.19,0,0,0-.62,1.11,1.15,1.15,0,0,0,.38,1,1.43,1.43,0,0,0,.92.3A2.73,2.73,0,0,0,39,180a2.09,2.09,0,0,0,.75-1.8Z"/><path class="cls-4" d="M49.88,172.31a3.17,3.17,0,0,1,1.14,1.1v-4.76h2.64v13.47H51.14v-1.38A3.68,3.68,0,0,1,49.86,182a3.57,3.57,0,0,1-1.78.4A3.71,3.71,0,0,1,45.15,181,5.43,5.43,0,0,1,44,177.39a6.24,6.24,0,0,1,1.18-4,3.83,3.83,0,0,1,3.14-1.46A3.22,3.22,0,0,1,49.88,172.31Zm.64,7.11a3.64,3.64,0,0,0,.58-2.13,3.27,3.27,0,0,0-.92-2.62,2,2,0,0,0-1.32-.48,1.83,1.83,0,0,0-1.68.86,4.66,4.66,0,0,0,0,4.36,1.84,1.84,0,0,0,1.65.83A1.93,1.93,0,0,0,50.52,179.41Z"/><path class="cls-4" d="M64.36,180.9a4.64,4.64,0,0,1-3.83,1.56,4.64,4.64,0,0,1-3.83-1.56,6.19,6.19,0,0,1,0-7.49,4.61,4.61,0,0,1,3.83-1.58,4.61,4.61,0,0,1,3.83,1.58,6.19,6.19,0,0,1,0,7.49Zm-2.09-1.44a4.66,4.66,0,0,0,0-4.62,2.32,2.32,0,0,0-3.52,0,4.63,4.63,0,0,0,0,4.62,2.31,2.31,0,0,0,3.52,0Z"/><path class="cls-4" d="M69.51,178.94a1.74,1.74,0,0,0,.36,1,2.43,2.43,0,0,0,1.8.52,2.76,2.76,0,0,0,1.23-.23.73.73,0,0,0,.45-.69.74.74,0,0,0-.37-.67,15,15,0,0,0-2.73-.79,5.67,5.67,0,0,1-2.4-1.05,2.28,2.28,0,0,1-.7-1.79,3.11,3.11,0,0,1,1.09-2.37,4.38,4.38,0,0,1,3.06-1,5.62,5.62,0,0,1,3,.75,3.19,3.19,0,0,1,1.35,2.58H73.11a1.54,1.54,0,0,0-.28-.8,1.79,1.79,0,0,0-1.47-.53,2.11,2.11,0,0,0-1.22.27.76.76,0,0,0-.36.62.68.68,0,0,0,.39.65,16.66,16.66,0,0,0,2.72.72,5,5,0,0,1,2.34,1.11A2.51,2.51,0,0,1,76,179.1a3,3,0,0,1-1.1,2.42,5.2,5.2,0,0,1-3.42.94,5.15,5.15,0,0,1-3.48-1,3.23,3.23,0,0,1-1.12-2.53Z"/><path class="cls-4" d="M83.33,168.63h2.86v8.28a4.7,4.7,0,0,0,.33,2,2.74,2.74,0,0,0,4.44,0,4.7,4.7,0,0,0,.33-2v-8.28h2.86v8.29a7,7,0,0,1-.67,3.35q-1.24,2.2-4.74,2.2T84,180.27a7,7,0,0,1-.67-3.35Z"/><path class="cls-4" d="M104.69,172.72a3.3,3.3,0,0,1,1,2.69v6.72H103v-6.07a2.79,2.79,0,0,0-.21-1.21,1.47,1.47,0,0,0-1.45-.77,1.8,1.8,0,0,0-1.81,1.13,3.9,3.9,0,0,0-.25,1.52v5.4H96.67v-10h2.53v1.45a4.42,4.42,0,0,1,.95-1.11,3.29,3.29,0,0,1,2-.6A3.83,3.83,0,0,1,104.69,172.72Z"/><path class="cls-4" d="M110.78,171h-2.64v-2.41h2.64Zm-2.64,1.19h2.64v10h-2.64Z"/><path class="cls-4" d="M118.59,172.31a3.17,3.17,0,0,1,1.14,1.1v-4.76h2.64v13.47h-2.53v-1.38a3.68,3.68,0,0,1-1.27,1.29,3.57,3.57,0,0,1-1.78.4,3.71,3.71,0,0,1-2.94-1.41,5.43,5.43,0,0,1-1.19-3.63,6.24,6.24,0,0,1,1.18-4,3.83,3.83,0,0,1,3.14-1.46A3.22,3.22,0,0,1,118.59,172.31Zm.64,7.11a3.64,3.64,0,0,0,.58-2.13,3.27,3.27,0,0,0-.92-2.62,2,2,0,0,0-1.32-.48,1.83,1.83,0,0,0-1.68.86,4.66,4.66,0,0,0,0,4.36,1.84,1.84,0,0,0,1.65.83A1.93,1.93,0,0,0,119.23,179.41Z"/><path class="cls-4" d="M133.07,180.9a5.49,5.49,0,0,1-7.67,0,6.19,6.19,0,0,1,0-7.49,5.44,5.44,0,0,1,7.67,0,6.19,6.19,0,0,1,0,7.49ZM131,179.46a4.66,4.66,0,0,0,0-4.62,2.32,2.32,0,0,0-3.52,0,4.63,4.63,0,0,0,0,4.62,2.31,2.31,0,0,0,3.52,0Z"/><path class="cls-4" d="M138.22,178.94a1.74,1.74,0,0,0,.36,1,2.43,2.43,0,0,0,1.8.52,2.76,2.76,0,0,0,1.23-.23.73.73,0,0,0,.45-.69.74.74,0,0,0-.37-.67,15,15,0,0,0-2.73-.79,5.67,5.67,0,0,1-2.4-1.05,2.28,2.28,0,0,1-.7-1.79,3.11,3.11,0,0,1,1.09-2.37,4.38,4.38,0,0,1,3.06-1,5.62,5.62,0,0,1,3,.75,3.19,3.19,0,0,1,1.35,2.58h-2.61a1.54,1.54,0,0,0-.28-.8,1.79,1.79,0,0,0-1.47-.53,2.11,2.11,0,0,0-1.22.27.76.76,0,0,0-.36.62.68.68,0,0,0,.39.65,16.66,16.66,0,0,0,2.72.72,5,5,0,0,1,2.34,1.11,2.51,2.51,0,0,1,.77,1.88,3,3,0,0,1-1.1,2.42,5.2,5.2,0,0,1-3.42.94,5.15,5.15,0,0,1-3.48-1,3.23,3.23,0,0,1-1.12-2.53Z"/></svg>
