<svg xmlns="http://www.w3.org/2000/svg" viewBox="0 0 107.03 42.81"><defs><style>.cls-1{isolation:isolate;}.cls-2{fill:#5a4494;opacity:0.5;mix-blend-mode:multiply;}</style></defs><title>hombres-grupo</title><g class="cls-1"><g id="Layer_2" data-name="Layer 2"><g id="_ÎÓÈ_1" data-name="—ÎÓÈ_1"><path class="cls-2" d="M4.73,9.49H15a4.06,4.06,0,0,1,3.93,4.18h0V24.51a1.88,1.88,0,0,1-1.82,1.94h0a1.88,1.88,0,0,1-1.82-1.94V13.67H14.18v27a2.12,2.12,0,0,1-2.05,2.18h0a2.12,2.12,0,0,1-2.05-2.18V27.06H8.83V40.63a2.12,2.12,0,0,1-2.05,2.18h0a2.12,2.12,0,0,1-2.05-2.18v-27H3.64V24.51a1.88,1.88,0,0,1-1.82,1.94h0A1.88,1.88,0,0,1,0,24.51V13.67H0A4.06,4.06,0,0,1,3.93,9.49Z"/><circle class="cls-2" cx="9.45" cy="4.01" r="4.01"/><path class="cls-2" d="M34.43,9.49H44.69a4.06,4.06,0,0,1,3.93,4.18h0V24.51a1.88,1.88,0,0,1-1.82,1.94h0A1.88,1.88,0,0,1,45,24.51V13.67H43.89v27a2.12,2.12,0,0,1-2.05,2.18h0a2.12,2.12,0,0,1-2.05-2.18V27.06H38.53V40.63a2.12,2.12,0,0,1-2.05,2.18h0a2.12,2.12,0,0,1-2.05-2.18v-27H33.35V24.51a1.88,1.88,0,0,1-1.82,1.94h0a1.88,1.88,0,0,1-1.82-1.94V13.67h0a4.06,4.06,0,0,1,3.93-4.18Z"/><circle class="cls-2" cx="39.16" cy="4.01" r="4.01"/><path class="cls-2" d="M64.08,9.49H74.33a4.06,4.06,0,0,1,3.93,4.18h0V24.51a1.88,1.88,0,0,1-1.82,1.94h0a1.88,1.88,0,0,1-1.82-1.94V13.67H73.54v27a2.12,2.12,0,0,1-2.05,2.18h0a2.12,2.12,0,0,1-2.05-2.18V27.06H68.18V40.63a2.12,2.12,0,0,1-2.05,2.18h0a2.12,2.12,0,0,1-2.05-2.18v-27H63V24.51a1.88,1.88,0,0,1-1.82,1.94h0a1.88,1.88,0,0,1-1.82-1.94V13.67h0a4.06,4.06,0,0,1,3.93-4.18Z"/><circle class="cls-2" cx="68.81" cy="4.01" r="4.01"/><path class="cls-2" d="M92.85,9.49H103.1A4.06,4.06,0,0,1,107,13.67h0V24.51a1.88,1.88,0,0,1-1.82,1.94h0a1.88,1.88,0,0,1-1.82-1.94V13.67h-1.08v27a2.12,2.12,0,0,1-2.05,2.18h0a2.12,2.12,0,0,1-2.05-2.18V27.06H97V40.63a2.12,2.12,0,0,1-2.05,2.18h0a2.12,2.12,0,0,1-2.05-2.18v-27H91.77V24.51a1.88,1.88,0,0,1-1.82,1.94h0a1.88,1.88,0,0,1-1.82-1.94V13.67h0a4.06,4.06,0,0,1,3.93-4.18Z"/><circle class="cls-2" cx="97.58" cy="4.01" r="4.01"/></g></g></g></svg>
