<svg id="Layer_1" data-name="Layer 1" xmlns="http://www.w3.org/2000/svg" viewBox="0 0 150 200"><defs><style>.cls-1{fill:#584e9f;}.cls-2{fill:#e6e7e8;}.cls-3{fill:#756bae;}</style></defs><title>mexico</title><path class="cls-1" d="M100.07,102.37a5.15,5.15,0,0,1,1.53-1.77,3.41,3.41,0,0,1,1.77-.18c.91.06,1.77.13,2.27-.86a1.59,1.59,0,0,0,.21-1c-.11-.51-.67-.83-1.22-1.14a3.08,3.08,0,0,1-1.24-1,3,3,0,0,1-.31-1.13.28.28,0,0,1,.06-.21.16.16,0,0,1,.17-.06,1.42,1.42,0,0,1,.47.29c.22.18.43.34.63.25s.22-.24.17-.7a2.79,2.79,0,0,1,0-.34,1.5,1.5,0,0,1,.29-1,1.08,1.08,0,0,1,1-.29c.75.1,1.51.18,2.26.24l.64.06a5.65,5.65,0,0,1,1.2.3,5.86,5.86,0,0,0,1,.26,2.42,2.42,0,0,0,0-.29,3,3,0,0,1,.08-.59.21.21,0,0,1,.2-.17c.23,0,.42.24.58.44s.31.37.47.35.67-.55.93-.89l.19-.26c.12-.14.21-.28.31-.42a3.06,3.06,0,0,1,.75-.84,6.44,6.44,0,0,1,1.36-.72.15.15,0,0,1,.17,0,.24.24,0,0,1,.06.19,4,4,0,0,1-.24,1,4.92,4.92,0,0,0-.16.56l.27,0s0,0,0,0a.23.23,0,0,1,.15-.2c.31-.95.57-1.89.82-2.89l.35-1.36a11.33,11.33,0,0,1,2.11-3.85l.41-.57a4.32,4.32,0,0,0,1-2.45,1.26,1.26,0,0,0-.58-.93c-1.18-.85-2.83-.81-4.28-.79h-.36c-2.69,0-6.38.1-7.5,3.84-.13.42-.23.86-.34,1.29a7.63,7.63,0,0,1-1.62,3.7,4.87,4.87,0,0,1-3.06,1.45c-.51,0-1-.14-1.43-.1a6.35,6.35,0,0,0-1.41.33L100,90a5.18,5.18,0,0,1-1.9.14,7.29,7.29,0,0,0-1.18,0c-.27,0-.55.08-.82.13A2.93,2.93,0,0,1,93.61,90a6.21,6.21,0,0,1-1-.94,3.51,3.51,0,0,0-1.46-1.15l0,0a3,3,0,0,1-2.39-2,13.72,13.72,0,0,1-.55-2.22,13.87,13.87,0,0,0-.51-2.09c-.17-.46-.36-.91-.54-1.35a15.56,15.56,0,0,1-1-2.74c-.2-.9-.33-1.83-.46-2.74-.09-.61-.18-1.22-.28-1.82a10.14,10.14,0,0,1-.15-4,33.28,33.28,0,0,1,1.06-3.71l.22-.66c.14-.42.26-.85.38-1.28s.3-1,.47-1.54.33-1.09.49-1.68l.1-.39a9.17,9.17,0,0,1,1-2.1l.27-.5a2.18,2.18,0,0,1-.6-.44,2,2,0,0,0-.21-.18,4.53,4.53,0,0,0-.64-.35,5.08,5.08,0,0,1-.72-.41,2,2,0,0,0-1-.43h0a2.27,2.27,0,0,1-1.3-1l-.21-.24a7.28,7.28,0,0,0-.84-.83l-.12-.09a1,1,0,0,1-.38-.36,3.05,3.05,0,0,1-.15-1.27c0-.17,0-.34,0-.47s0-.51,0-.77A9.24,9.24,0,0,0,83,49.23,4.41,4.41,0,0,0,82,47.33a8.55,8.55,0,0,1-.65-1l-.21-.39a5,5,0,0,1-.58-1.33c-.07-.28-.11-.56-.16-.84a8.44,8.44,0,0,0-.29-1.3,7.74,7.74,0,0,0-1.89-3.05l-.17-.18a3.12,3.12,0,0,0-1.27-1,2.06,2.06,0,0,0-.65,0,3.13,3.13,0,0,1-.62,0c-1.19-.25-1.91.06-2.28,1-.06.13-.11.28-.16.44a3,3,0,0,1-.7,1.29c-.41.34-.72,0-1-.23a1.68,1.68,0,0,0-.24-.23,3.13,3.13,0,0,0-.78-.35,2.57,2.57,0,0,1-1.2-.69,11.27,11.27,0,0,1-1.13-1.54l-.43-.65a4.64,4.64,0,0,1-.6-1.78,5,5,0,0,0-.5-1.59,11.69,11.69,0,0,0-1.36-1.76,11.57,11.57,0,0,1-1.52-2l-.23-.44c-.45-.86-.82-1.54-1.71-1.79a15.09,15.09,0,0,0-2-.37,15.07,15.07,0,0,1-2.14-.4c0,.12,0,.26,0,.4,0,.69-.09,1.56-.64,1.9a1.58,1.58,0,0,1-1.22,0l-.29-.07c-.75-.14-1.5-.25-2.21-.34-.4-.06-.82-.1-1.24-.14a10,10,0,0,1-4.59-1.22,13.43,13.43,0,0,0-2.87-1.28,10.9,10.9,0,0,1-3.61-1.81,11.45,11.45,0,0,1-1-1,10.55,10.55,0,0,0-1-1,3.45,3.45,0,0,0-.81-.44,2.49,2.49,0,0,1-1.21-.84c-.16-.23-.28-.47-.41-.7a2.61,2.61,0,0,0-1.3-1.4,1.3,1.3,0,0,0-.93.17,2.82,2.82,0,0,1-.69.23,7.18,7.18,0,0,1-1.65-.05l-.48,0a9.58,9.58,0,0,1-2-.47l-.05,0c0,.27-.09.55-.12.84l0,.43a1.1,1.1,0,0,0,.3,1.09l.13.17A2.23,2.23,0,0,1,30.09,23a3.86,3.86,0,0,1-.18.82,2.3,2.3,0,0,0-.16.86c0,.49.56,1.55.9,1.61h0a.17.17,0,0,1,.11.07.26.26,0,0,1,0,.17c0,.14,0,.28-.07.42a3.23,3.23,0,0,0-.07.75,1.19,1.19,0,0,0,.22.58,2.53,2.53,0,0,1,.21.4,3,3,0,0,1,.18,1,1.5,1.5,0,0,0,.3,1l.19.23A19.72,19.72,0,0,1,33,32.52c.15.23.28.47.41.7a5.77,5.77,0,0,0,.58.93,9.09,9.09,0,0,1,.9,1.3,20.08,20.08,0,0,1,1,2.23.29.29,0,0,1,0,.21.21.21,0,0,1-.13.13,4.37,4.37,0,0,0-2.23,1.81c-.47.7-.17,1.11.4,1.78a5.43,5.43,0,0,1,.48.63,15.48,15.48,0,0,0,2.1,2.53l.68.72a16.39,16.39,0,0,0,2.48,2.3l.11.08a1.76,1.76,0,0,1,1,1.48,8.28,8.28,0,0,1-.29,2.74c-.05.24-.11.49-.16.74a5,5,0,0,1-.16.57,2.64,2.64,0,0,0-.2.94c.1.56.92,1.08,1.53,1.46a7,7,0,0,1,.65.44,10.21,10.21,0,0,1,3.13,5.71c.12.61.19.65.71.76a8.43,8.43,0,0,1,.85.24l.39.12c.39-1.12-.11-2.07-.76-3.11a6,6,0,0,1-.84-2c0-.1,0-.19-.07-.29a3,3,0,0,1-.12-.63,2.19,2.19,0,0,1,.06-.57,1.71,1.71,0,0,0,0-.42c0-.08,0-.09,0-.09s-.21.06-.7.71l-.08.11a.17.17,0,0,1-.2.06.22.22,0,0,1-.11-.21,9.37,9.37,0,0,0,0-1,6.91,6.91,0,0,1,0-1.66,3.26,3.26,0,0,1,.4-1.12l.07-.14a.86.86,0,0,0-.18-.12.92.92,0,0,1-.38-.33,1.35,1.35,0,0,1-.15-.76,1.49,1.49,0,0,0,0-.35.94.94,0,0,0-.26-.5,1.15,1.15,0,0,1-.29-1v-.13a2.18,2.18,0,0,0-.25-1.76,3.87,3.87,0,0,1-.42-1.11,3,3,0,0,0-.38-1c-.08-.1-.14-.11-.27-.12A1,1,0,0,1,42,45.4a1.62,1.62,0,0,1-.64-.9l-.09-.21c-.17-.37-.35-.72-.53-1.08s-.42-.82-.61-1.26a8.84,8.84,0,0,1-.71-2.68,6.1,6.1,0,0,0-.27-1.13c-.07-.21-.13-.41-.18-.64A3.26,3.26,0,0,1,39.06,35a1.38,1.38,0,0,0-.49-1.9.22.22,0,0,1,0-.09l-.43-.16a5.33,5.33,0,0,1-2-1,6.21,6.21,0,0,1-1.41-3.33,7.09,7.09,0,0,1,.22-3.79A2.41,2.41,0,0,1,36,23.21a.93.93,0,0,1,1,.19l.19.14a14,14,0,0,0,2.69,1.76c1.39.65,1.63,2,1.57,3.75v.16a11.9,11.9,0,0,0,.37,4.4c.25.76.47,1.55.68,2.32s.39,1.44.62,2.13a4.85,4.85,0,0,0,1.35,2l.33.34.35.4c.5.59,1,1.18,1.73,1.13a2.46,2.46,0,0,0,.52-.13.15.15,0,0,1,.16,0,.24.24,0,0,1,.05.2,6.4,6.4,0,0,0,.19,3.18,3.17,3.17,0,0,0,1.6,1.49,6.93,6.93,0,0,1,.83.52,2.27,2.27,0,0,1,.6.82l.15.28a1.3,1.3,0,0,1-.05,1.78c-.67.88-.88,1.32-.3,2.16l.23.34A4.1,4.1,0,0,0,52.1,54a4.42,4.42,0,0,0,.45.19,2,2,0,0,1,1.2.88,2.43,2.43,0,0,1,.15,1.13,2.37,2.37,0,0,0,.1.93,2,2,0,0,0,.54.67,2.41,2.41,0,0,1,.69.92c.1.27.19.52.26.77a2.94,2.94,0,0,0,.92,1.63l.23.18A4.34,4.34,0,0,1,58,62.85a16.83,16.83,0,0,1,.9,2.28l.28.81a11.16,11.16,0,0,0,.71,1.48,6.12,6.12,0,0,1,1,3.74,3.65,3.65,0,0,1-.82,1.79l-.32.46a3.51,3.51,0,0,0-.36,1.85c0,.18,0,.37,0,.54a.29.29,0,0,1-.07.17.18.18,0,0,1-.14.06c-.22,0-.36,0-.41.17-.22.5.4,1.95.72,2.46a8.35,8.35,0,0,1,.49,1c.34.77.64,1.44,1.35,1.65,1.1.33,1.71,1.3,2.34,2.34l.16.27c.17.27.31.53.45.78.45.84.81,1.5,1.7,1.78.22.07.43.12.64.16a3.58,3.58,0,0,1,1.33.49c.19.13.39.25.59.38a9.52,9.52,0,0,1,.9.61h0l.12.12.13.1s0,0,0,0c.47.44.92.92,1.36,1.4a17,17,0,0,0,2,2,16.32,16.32,0,0,0,3,1.69c.53.26,1.08.52,1.62.82a9.09,9.09,0,0,1,1.88,1.53,10.49,10.49,0,0,0,1.6,1.35c.32.2.64.42,1,.63a7.73,7.73,0,0,0,3.41,1.63,5,5,0,0,0,3.26-1l.65-.36a2.47,2.47,0,0,1,2.34-.3,8.19,8.19,0,0,1,1.66,1.3c.28.27.55.52.83.74l.39.31a9.86,9.86,0,0,1,2.38,2.39,4.93,4.93,0,0,1,.29.59c.09.2.18.41.29.59a.15.15,0,0,1,.15.08l.13.26a.46.46,0,0,0,.17.09h0C98.83,104.25,99.46,103.3,100.07,102.37Z"/><ellipse class="cls-2" cx="75" cy="140.02" rx="38.07" ry="3.84"/><ellipse class="cls-2" cx="75" cy="140.02" rx="38.07" ry="3.84"/><path class="cls-3" d="M50.87,167.47h4.58v15.22h-3V172.39q0-.44,0-1.24t0-1.23l-2.88,12.77H46.53l-2.86-12.77q0,.43,0,1.23t0,1.24v10.29h-3V167.47h4.63l2.77,12Z"/><path class="cls-3" d="M65.48,171.66a4.58,4.58,0,0,1,1.94,1.66,5.54,5.54,0,0,1,.9,2.33,14.28,14.28,0,0,1,.1,2.23h-8.2a2.7,2.7,0,0,0,1.18,2.37,3,3,0,0,0,1.62.42,2.29,2.29,0,0,0,2.24-1.29h3a3.67,3.67,0,0,1-1.09,2,5.47,5.47,0,0,1-4.23,1.64,6.13,6.13,0,0,1-4-1.38q-1.72-1.38-1.72-4.51a6.09,6.09,0,0,1,1.55-4.48,5.43,5.43,0,0,1,4-1.56A6.4,6.4,0,0,1,65.48,171.66Zm-4.4,2.54a3.06,3.06,0,0,0-.78,1.74h5.07a2.45,2.45,0,0,0-.78-1.78,2.57,2.57,0,0,0-1.74-.61A2.33,2.33,0,0,0,61.08,174.2Zm5.23-7.37-3.14,3.09H61l2-3.09Z"/><path class="cls-3" d="M68.79,182.68l3.84-5.7L69,171.45h3.6l1.88,3.26,1.84-3.26h3.5l-3.7,5.48,3.84,5.75H76.25l-1.94-3.38-2,3.38Z"/><path class="cls-3" d="M84.69,170.09h-3v-2.72h3Zm-3,1.34h3v11.25h-3Z"/><path class="cls-3" d="M94.27,175.47a2.59,2.59,0,0,0-.43-1.14,1.78,1.78,0,0,0-1.54-.68,2,2,0,0,0-2,1.48,6.14,6.14,0,0,0-.29,2.08,5.64,5.64,0,0,0,.29,2,2,2,0,0,0,2,1.4,1.75,1.75,0,0,0,1.47-.56,2.76,2.76,0,0,0,.53-1.45h3a4.91,4.91,0,0,1-1,2.54,4.72,4.72,0,0,1-4.1,1.93,4.8,4.8,0,0,1-4-1.61,6.5,6.5,0,0,1-1.28-4.18,6.6,6.6,0,0,1,1.42-4.51,4.93,4.93,0,0,1,3.91-1.61,5.88,5.88,0,0,1,3.47.95,4.41,4.41,0,0,1,1.6,3.36Z"/><path class="cls-3" d="M108.68,181.31a6.2,6.2,0,0,1-8.65,0,7,7,0,0,1,0-8.45,6.14,6.14,0,0,1,8.65,0,7,7,0,0,1,0,8.45Zm-2.35-1.63a5.25,5.25,0,0,0,0-5.21,2.62,2.62,0,0,0-4,0,5.22,5.22,0,0,0,0,5.21,2.61,2.61,0,0,0,4,0Z"/></svg>
