<svg xmlns="http://www.w3.org/2000/svg" viewBox="0 0 112.89 42.56"><defs><style>.cls-1{isolation:isolate;}.cls-2{fill:#5a4494;opacity:0.5;mix-blend-mode:multiply;}</style></defs><title>mujeres-grupo</title><g class="cls-1"><g id="Layer_2" data-name="Layer 2"><g id="_ÎÓÈ_1" data-name="—ÎÓÈ_1"><circle class="cls-2" cx="9.84" cy="4.01" r="4.01"/><path class="cls-2" d="M2.1,13.31l.21-1A3.48,3.48,0,0,1,5.72,9.49H14a3.48,3.48,0,0,1,3.41,2.79l.21,1L19.65,23.6a1.62,1.62,0,1,1-3.17.64l-2.2-10.92h-1l.47,4.08a12.13,12.13,0,0,0,.38,1.92L17,28.81a.55.55,0,0,1-.53.71H14.2V40.74a1.83,1.83,0,1,1-3.65,0V29.52H9.14V40.74a1.83,1.83,0,1,1-3.65,0V29.52H3.17a.55.55,0,0,1-.53-.71l2.88-9.49A12.08,12.08,0,0,0,5.9,17.4l.47-4.08h-1L3.2,24.24A1.62,1.62,0,1,1,0,23.6Z"/><circle class="cls-2" cx="39.99" cy="4.01" r="4.01"/><path class="cls-2" d="M32.25,13.31l.21-1a3.48,3.48,0,0,1,3.41-2.79H44.1a3.48,3.48,0,0,1,3.41,2.79l.21,1L49.8,23.6a1.62,1.62,0,0,1-3.17.64l-2.2-10.92h-1l.47,4.08a12.13,12.13,0,0,0,.38,1.92l2.88,9.49a.55.55,0,0,1-.53.71H44.34V40.74a1.83,1.83,0,1,1-3.65,0V29.52H39.28V40.74a1.83,1.83,0,1,1-3.65,0V29.52H33.31a.55.55,0,0,1-.53-.71l2.88-9.49A12.08,12.08,0,0,0,36,17.4l.47-4.08h-1l-2.2,10.92a1.62,1.62,0,1,1-3.17-.64Z"/><circle class="cls-2" cx="71.49" cy="4.01" r="4.01"/><path class="cls-2" d="M63.75,13.31l.21-1a3.48,3.48,0,0,1,3.41-2.79h8.24A3.48,3.48,0,0,1,79,12.28l.21,1L81.3,23.6a1.62,1.62,0,1,1-3.17.64l-2.2-10.92H75l.47,4.08a12.13,12.13,0,0,0,.38,1.92l2.88,9.49a.55.55,0,0,1-.53.71H75.84V40.74a1.83,1.83,0,1,1-3.65,0V29.52H70.78V40.74a1.83,1.83,0,1,1-3.65,0V29.52H64.81a.55.55,0,0,1-.53-.71l2.88-9.49a12.08,12.08,0,0,0,.38-1.92L68,13.31H67l-2.2,10.92a1.62,1.62,0,1,1-3.17-.64Z"/><circle class="cls-2" cx="103.05" cy="4.01" r="4.01"/><path class="cls-2" d="M95.31,13.31l.21-1a3.48,3.48,0,0,1,3.41-2.79h8.24a3.48,3.48,0,0,1,3.41,2.79l.21,1,2.07,10.28a1.62,1.62,0,0,1-3.17.64l-2.2-10.92h-1L107,17.4a12.13,12.13,0,0,0,.38,1.92l2.88,9.49a.55.55,0,0,1-.53.71h-2.32V40.74a1.83,1.83,0,1,1-3.65,0V29.52h-1.41V40.74a1.83,1.83,0,1,1-3.65,0V29.52H96.38a.55.55,0,0,1-.53-.71l2.88-9.49a12.08,12.08,0,0,0,.38-1.92l.47-4.08h-1l-2.2,10.92a1.62,1.62,0,1,1-3.17-.64Z"/></g></g></g></svg>
