<svg xmlns="http://www.w3.org/2000/svg" viewBox="0 0 34.06 35.49"><defs><style>.cls-1{isolation:isolate;}.cls-2{fill:#5a4494;opacity:0.5;mix-blend-mode:multiply;}</style></defs><title>mujer-integran</title><g class="cls-1"><g id="Layer_2" data-name="Layer 2"><g id="_ÎÓÈ_1" data-name="—ÎÓÈ_1"><path class="cls-2" d="M34,35.49H.08a3.52,3.52,0,0,1,0-1.37,7.31,7.31,0,0,1,.59-2,4.25,4.25,0,0,1,1.64-1.75,22.21,22.21,0,0,1,4-2c1-.41,2-.81,3-1.22,2.78-1.25,3.15-2.21,3.19-2.36a2,2,0,0,0,0-.27c0-.21,0-.42,0-.63v-.54c-6,.05-7.77-2.52-7.77-2.52s3.43-.05,3.22-9.11S11.9,1.16,13.46.57c4.53-1.72,6.81,1,6.81,1,5.25-.49,6.7,5.25,6.06,11.79s2.94,7.55,2.94,7.55c-2.47,2.52-7.67,2.36-7.67,2.36v1.22a2.08,2.08,0,0,0,0,.27c0,.15.41,1.11,3.19,2.36,1,.42,2,.81,3,1.22a22.18,22.18,0,0,1,4,2,4.25,4.25,0,0,1,1.64,1.75,7.3,7.3,0,0,1,.59,2,3.49,3.49,0,0,1,0,1.37"/></g></g></g></svg>
