<svg id="Layer_1" data-name="Layer 1" xmlns="http://www.w3.org/2000/svg" viewBox="0 0 150 150"><defs><style>.cls-1{font-size:25.27px;font-family:Helvetica-Bold, Helvetica;font-weight:700;}.cls-1,.cls-2{fill:#584e9f;}</style></defs><title>mujeres</title><text class="cls-1" transform="translate(27.26 123.07)">Mujeres</text><path class="cls-2" d="M99.73,75.36H41.89A6,6,0,0,1,41.83,73a12.48,12.48,0,0,1,1-3.49,7.25,7.25,0,0,1,2.8-3,37.91,37.91,0,0,1,6.78-3.37c1.68-.7,3.37-1.38,5-2.09,4.74-2.13,5.37-3.77,5.45-4a3.49,3.49,0,0,0,.07-.46c0-.35.06-.71.08-1.07v-.92c-10.25.09-13.27-4.3-13.27-4.3s5.86-.09,5.49-15.55,6.76-18,9.42-19c7.73-2.94,11.62,1.74,11.62,1.74,9-.83,11.44,9,10.34,20.12s5,12.89,5,12.89c-4.21,4.3-13.09,4-13.09,4v1.9l0,.19a3.55,3.55,0,0,0,.07.46c.07.26.7,1.89,5.45,4,1.67.71,3.36,1.39,5,2.09A37.86,37.86,0,0,1,96,66.55a7.25,7.25,0,0,1,2.8,3,12.46,12.46,0,0,1,1,3.49,6,6,0,0,1-.06,2.33"/></svg>
