<svg id="Layer_1" data-name="Layer 1" xmlns="http://www.w3.org/2000/svg" viewBox="0 0 150 150"><defs><style>.cls-1{fill:#2f2e55;}</style></defs><title>totales</title><path class="cls-1" d="M48.14,104.51v3.1H42.9V122H39.22V107.61H34v-3.1Z"/><path class="cls-1" d="M59,120.43a6,6,0,0,1-5,2,6,6,0,0,1-5-2,8,8,0,0,1,0-9.73,6,6,0,0,1,5-2.05,6,6,0,0,1,5,2.05,8,8,0,0,1,0,9.73Zm-2.71-1.87a6,6,0,0,0,0-6,3,3,0,0,0-4.57,0,6,6,0,0,0,0,6,3,3,0,0,0,4.57,0Z"/><path class="cls-1" d="M61.75,111.6v-2.41h1.81v-3.61H66.9v3.61H69v2.41H66.9v6.84a1.54,1.54,0,0,0,.2,1,2.23,2.23,0,0,0,1.24.2h.33l.34,0v2.53l-1.6.06q-2.4.08-3.28-.83a2.48,2.48,0,0,1-.57-1.79v-8Z"/><path class="cls-1" d="M76.31,114.14a5.34,5.34,0,0,0,1.35-.3,1,1,0,0,0,.73-1,1.14,1.14,0,0,0-.56-1.1,3.54,3.54,0,0,0-1.64-.3,2.16,2.16,0,0,0-1.72.59,2.45,2.45,0,0,0-.48,1.19H70.72a5,5,0,0,1,1-2.79q1.35-1.71,4.63-1.71a8.25,8.25,0,0,1,3.79.84,3.23,3.23,0,0,1,1.66,3.18v5.94q0,.62,0,1.5a1.88,1.88,0,0,0,.2.9,1.21,1.21,0,0,0,.5.39v.5H78.8a3.76,3.76,0,0,1-.21-.74q-.06-.34-.09-.78a7,7,0,0,1-1.63,1.3,4.91,4.91,0,0,1-2.49.63,4.29,4.29,0,0,1-2.92-1,3.57,3.57,0,0,1-1.15-2.85,3.69,3.69,0,0,1,1.85-3.46,8.28,8.28,0,0,1,3-.83Zm2.07,1.58a3.73,3.73,0,0,1-.66.33,5.58,5.58,0,0,1-.91.23l-.77.14a5.07,5.07,0,0,0-1.56.46,1.55,1.55,0,0,0-.8,1.44,1.5,1.5,0,0,0,.49,1.25,1.86,1.86,0,0,0,1.19.39,3.54,3.54,0,0,0,2-.64,2.72,2.72,0,0,0,1-2.34Z"/><path class="cls-1" d="M88.17,122H84.78V104.51h3.39Z"/><path class="cls-1" d="M99.91,109.33a5.27,5.27,0,0,1,2.24,1.92,6.36,6.36,0,0,1,1,2.68,16.53,16.53,0,0,1,.11,2.57H93.86a3.11,3.11,0,0,0,1.35,2.73,3.44,3.44,0,0,0,1.87.49,2.63,2.63,0,0,0,2.58-1.49h3.46a4.23,4.23,0,0,1-1.26,2.34A6.29,6.29,0,0,1,97,122.46a7.06,7.06,0,0,1-4.56-1.59q-2-1.59-2-5.18a7,7,0,0,1,1.78-5.16,6.24,6.24,0,0,1,4.63-1.8A7.37,7.37,0,0,1,99.91,109.33Zm-5.07,2.93a3.52,3.52,0,0,0-.9,2h5.83a2.83,2.83,0,0,0-.9-2,3,3,0,0,0-2-.7A2.68,2.68,0,0,0,94.85,112.26Z"/><path class="cls-1" d="M107.63,117.88a2.25,2.25,0,0,0,.47,1.28,3.16,3.16,0,0,0,2.34.68,3.58,3.58,0,0,0,1.59-.3,1,1,0,0,0,.11-1.76,19.42,19.42,0,0,0-3.54-1,7.36,7.36,0,0,1-3.11-1.37,3,3,0,0,1-.9-2.33A4,4,0,0,1,106,110a5.68,5.68,0,0,1,4-1.29,7.3,7.3,0,0,1,4,1,4.15,4.15,0,0,1,1.76,3.34H112.3a2,2,0,0,0-.37-1,2.33,2.33,0,0,0-1.91-.69,2.75,2.75,0,0,0-1.58.34,1,1,0,0,0-.47.81.88.88,0,0,0,.5.84,21.68,21.68,0,0,0,3.54.94,6.49,6.49,0,0,1,3,1.44,3.26,3.26,0,0,1,1,2.44,3.93,3.93,0,0,1-1.43,3.14,8.62,8.62,0,0,1-9-.07,4.19,4.19,0,0,1-1.46-3.29Z"/></svg>
