<svg xmlns="http://www.w3.org/2000/svg" xmlns:xlink="http://www.w3.org/1999/xlink" viewBox="0 0 1920 1280"><defs><style>.cls-1{isolation:isolate;}.cls-2{fill:#f2f2f2;}.cls-3{fill:#ededed;}.cls-3,.cls-5,.cls-6,.cls-9{opacity:0.7;}.cls-3,.cls-4,.cls-6,.cls-7,.cls-8{mix-blend-mode:overlay;}.cls-4,.cls-5{fill:#f5f5f5;}.cls-4{opacity:0.5;}.cls-5{mix-blend-mode:multiply;}.cls-6{fill:#c2c2c2;}.cls-7{opacity:0.75;fill:url(#linear-gradient);}.cls-8{fill:#e0e0e0;opacity:0.57;}.cls-9{mix-blend-mode:screen;fill:url(#linear-gradient-2);}</style><linearGradient id="linear-gradient" x1="-2392.68" y1="-1465.28" x2="-2143.34" y2="-1084.15" gradientTransform="translate(-26.78 2236.37) rotate(90)" gradientUnits="userSpaceOnUse"><stop offset="0.23" stop-color="#fff"/><stop offset="0.3" stop-color="#f5f5f5"/><stop offset="0.42" stop-color="#dad9da"/><stop offset="0.59" stop-color="#aeadad"/><stop offset="0.78" stop-color="#716f70"/><stop offset="0.99" stop-color="#252122"/><stop offset="1" stop-color="#231f20"/></linearGradient><linearGradient id="linear-gradient-2" x1="-1624.23" y1="-1930.77" x2="-1579.55" y2="-417.04" gradientTransform="translate(2556.37 1626.78)" gradientUnits="userSpaceOnUse"><stop offset="0.06" stop-color="#fff"/><stop offset="0.15" stop-color="#f8f8f8"/><stop offset="0.29" stop-color="#e4e4e4"/><stop offset="0.44" stop-color="#c4c3c4"/><stop offset="0.62" stop-color="#989696"/><stop offset="0.82" stop-color="#605d5d"/><stop offset="1" stop-color="#231f20"/></linearGradient></defs><title>bg-lala</title><g class="cls-1"><g id="Layer_2" data-name="Layer 2"><g id="Layer_1-2" data-name="Layer 1"><path class="cls-2" d="M1358.78,0s756,1121.4-919.23,1280H0V0Z"/><path class="cls-3" d="M1358.78,0S-628,829.8,281.51,1280H1920V0Z"/><path class="cls-4" d="M465.36,0S-441,1143.33,1439.42,1280H1920V0Z"/><path class="cls-5" d="M0,144.44S1213.64,133.79,1920,790.6V1280H0Z"/><path class="cls-6" d="M1004,0S-76.51,998.56,1439.42,1280H1920V0Z"/><path class="cls-7" d="M1784.53,0S1326.22,1025.62,175.07,1280H0V0Z"/><path class="cls-8" d="M1805.16,1280S1278.38,529.66,465.36,0H1920V1280Z"/><rect class="cls-9" x="320" y="-320" width="1280" height="1920" transform="translate(1600 -320) rotate(90)"/></g></g></g></svg>
