<svg xmlns="http://www.w3.org/2000/svg" viewBox="0 0 340.5 124"><defs><style>.cls-1{fill:#d4a453;}</style></defs><title>logo-lala</title><g id="Layer_2" data-name="Layer 2"><g id="Capa_1" data-name="Capa 1"><path class="cls-1" d="M340.15,10.9c-2.37-2.06-8.74,4.74-11.69,6a1.5,1.5,0,0,1-1.86-.55,78.1,78.1,0,0,0-5.27-7.18C316.7,3.64,308.82-1.88,304,.62c-7.81,4,3.2,18.3,2.74,21.75s-6.83,7.83-3.35,12.85c3.64,5.27,17.22-4.65,22.06-.73.9.73,1.39.76,2.54-.26C333.67,29.15,342.37,12.83,340.15,10.9ZM325,32.47c-6.43-3-15.61,3.88-17.16-.72-1.87-5.51,12.51-11,17.87-.55C326.18,32.21,325.82,32.88,325,32.47Zm1.1-3.56c-2.7-4.58-9.21-7.44-13.22-9.5-5.17-2.66-7.35-8.23-5-10.81,3.83-4.24,17.73,4.16,19.45,19.9C327.42,30,326.79,30.14,326.06,28.91Z"/><path class="cls-1" d="M311.38,40.37c11-1.32,13.23,7.94,23.25-6.22C325.17,40.23,322.14,29.63,311.38,40.37Zm2.31-1.06C320.83,36,324,40,329.13,38,322.89,40.86,320.4,36.86,313.69,39.31Z"/><path class="cls-1" d="M283.34,12.73h1.11A3.44,3.44,0,0,1,286,13a2,2,0,0,1,.75,1.83v.63l0,.26s0,.06,0,.09a.19.19,0,0,0,0,.07h1.31l0-.1a1.29,1.29,0,0,1-.06-.41c0-.21,0-.41,0-.59v-.59a2.18,2.18,0,0,0-.44-1.23,1.93,1.93,0,0,0-1.37-.78,3,3,0,0,0,1.16-.39,1.74,1.74,0,0,0,.78-1.57,2,2,0,0,0-1.24-2,6.16,6.16,0,0,0-2.18-.28h-2.79v8h1.4Zm0-3.88h1.21a3.79,3.79,0,0,1,1.7.29,1.23,1.23,0,0,1,.53,1.17,1.22,1.22,0,0,1-.82,1.25,3.84,3.84,0,0,1-1.35.18h-1.27ZM157.77,97.66h0c11.18-2.8,15.38-7.11,16.45-11.59,2.46,7.44,12.11,9.76,27.9,3.45,20.61-8.23,58.6-26.66,73.32-7.77h0c18.46-4.62,17.95-13.35,15.62-20.19-4.93-14.46-14.68-39-14.78-39.25-2.95-7.34-8.67-11.77-16.56-10.85-6.26.72-12.57,1.71-12.57,1.71-6.08,1-10.1,4.54-14,12.81l-19.6,40.37h0c7.62-4.58,14.3-9.74,23.7-14.58,2.25-1.16,4.27-2.56,5.15-4.83,0,0,8.11-19.5,8.9-21.55s2-4,3.55-4.27c1.09-.17,2.36,1.18,3.15,3.71.7,2.24,8.46,29,8.89,31.22h0C242.59,48.6,225.21,70.15,206.1,79c-7.3,3.38-10-.72-9.13-6.24s8.6-44.5,8.6-44.5a6.74,6.74,0,0,0-1.32-5.91c-1.8-2-4.87-2.91-8.43-2.34l-11.6,1.9h0l-10.36,56.8c0,.06,0,.11,0,.17-.14-.48-.28-1-.44-1.41-4.94-14.46-14.68-39-14.78-39.26-3-7.33-8.68-11.76-16.56-10.84-6.26.72-12.57,1.71-12.57,1.71-6.08,1-10.1,4.53-14,12.8L95.92,82.27h0c7.62-4.57,14.3-9.73,23.7-14.57,2.25-1.16,4.27-2.56,5.15-4.84,0,0,8.1-19.49,8.89-21.54s2-4,3.56-4.27c1.09-.18,2.36,1.17,3.15,3.7.7,2.25,8.46,29,8.89,31.22h0c-24.33-7.47-41.71,14.08-60.82,22.93-7.3,3.38-10-.71-9.13-6.23s8.6-44.5,8.6-44.5a6.71,6.71,0,0,0-1.33-5.91c-1.79-2-4.86-2.91-8.42-2.34l-11.61,1.9h0L56.18,94.63C54,107.5,64.23,113.51,84.45,105.44,105.06,97.2,143.05,78.77,157.77,97.66ZM271.88,67h0c-2.68-4.54-17.72-7.07-30.37-4.29h0C248.92,58.29,272.66,55.84,271.88,67Zm-148,11.61h0c7.42-4.36,31.16-6.81,30.38,4.3h0C151.52,78.32,136.48,75.79,123.83,78.56ZM280.69,17.89a6.3,6.3,0,0,0,3,1.22,7.28,7.28,0,0,0,7.17-3,6.36,6.36,0,0,0,1.24-3,7.25,7.25,0,0,0-3-7.17,6.32,6.32,0,0,0-2.95-1.23,7.26,7.26,0,0,0-7.24,3,6.27,6.27,0,0,0-1.2,3A7.33,7.33,0,0,0,280.69,17.89ZM281,7a6.24,6.24,0,0,1,7.83,0,6.49,6.49,0,0,1,2.26,5.82,6,6,0,0,1-1.76,3.52,6,6,0,0,1-3.74,1.81,6.42,6.42,0,0,1-5.7-2.5,6.06,6.06,0,0,1-1.16-2.86A6.52,6.52,0,0,1,281,7Z"/><path class="cls-1" d="M279.47,96.22c-2.06,1.36-4.1,2.73-6.24,4l-1.58.94c-.53.31-1.08.6-1.61.9l-1.62.89c-.54.3-1.08.59-1.63.85a119.45,119.45,0,0,1-13.53,5.92,152.56,152.56,0,0,1-28.58,7.49,208.66,208.66,0,0,1-29.56,2.75,284.85,284.85,0,0,1-29.78-.83c-5-.38-9.91-.92-14.85-1.51s-9.88-1.31-14.8-2.13-9.84-1.71-14.73-2.71q-3.67-.73-7.33-1.58t-7.29-1.77c4.71,1.72,9.51,3.17,14.34,4.51s9.71,2.52,14.61,3.63a291.67,291.67,0,0,0,29.74,4.9l3.75.39,3.76.35c2.51.2,5,.37,7.54.49q7.54.39,15.12.33c5.05,0,10.09-.3,15.13-.72s10.06-1,15.06-1.84a152.23,152.23,0,0,0,29.32-7.93A115.5,115.5,0,0,0,281.42,99,105.05,105.05,0,0,0,293,89a102.11,102.11,0,0,0,9.9-11.5A107.85,107.85,0,0,0,317.08,51a123.3,123.3,0,0,1-15.89,25.22A106.7,106.7,0,0,1,279.47,96.22Z"/><path class="cls-1" d="M36.46,81.58a43.51,43.51,0,0,0-13.31-4.83,35.06,35.06,0,0,0-14.34.65,8.5,8.5,0,0,0-3.44,1.52A14.52,14.52,0,0,0,2.49,81.4,10.17,10.17,0,0,0,0,88.18a.15.15,0,0,0,.15.15.15.15,0,0,0,.15-.11A10.09,10.09,0,0,1,3.85,82.8,10.3,10.3,0,0,1,6.6,81.27c1-.33,2-.58,3-1A32.57,32.57,0,0,1,22.8,79.14a45.37,45.37,0,0,1,13,3.87C39.94,84.86,44,87.17,48,89.42a.15.15,0,0,0,.2-.06.16.16,0,0,0,0-.2A110.15,110.15,0,0,0,36.46,81.58Z"/></g></g></svg>
