<svg xmlns="http://www.w3.org/2000/svg" viewBox="0 0 52.74 52.9"><defs><style>.cls-1{isolation:isolate;}.cls-2{opacity:0.5;mix-blend-mode:multiply;}.cls-3{fill:#5a4494;}</style></defs><title>alarma</title><g class="cls-1"><g id="Layer_2" data-name="Layer 2"><g id="_ÎÓÈ_1" data-name="—ÎÓÈ_1"><g class="cls-2"><path class="cls-3" d="M14.19,42.63V30.09a12.18,12.18,0,1,1,24.37,0V42.64s.05,0,.05,0H14.15S14.19,42.64,14.19,42.63ZM41.3,52.9H11.44V45.3H41.3Z"/><path class="cls-3" d="M26.37,10.76a1.31,1.31,0,0,0,1.31-1.31V1.31a1.31,1.31,0,1,0-2.62,0V9.45A1.31,1.31,0,0,0,26.37,10.76Z"/><path class="cls-3" d="M51.43,22.36H43.3a1.31,1.31,0,0,0,0,2.62h8.14a1.31,1.31,0,0,0,1.31-1.31A1.3,1.3,0,0,0,51.43,22.36Z"/><path class="cls-3" d="M10.76,23.67a1.31,1.31,0,0,0-1.31-1.31H1.31a1.31,1.31,0,0,0,0,2.62H9.45A1.32,1.32,0,0,0,10.76,23.67Z"/><path class="cls-3" d="M15.1,14.44A1.31,1.31,0,0,0,17,12.59L11.2,6.84A1.31,1.31,0,1,0,9.35,8.69Z"/><path class="cls-3" d="M36.72,14.82a1.35,1.35,0,0,0,.93-.38L43.4,8.69a1.31,1.31,0,1,0-1.83-1.86h0L35.8,12.59a1.3,1.3,0,0,0,.92,2.23Z"/></g></g></g></g></svg>
