<svg id="Layer_1" data-name="Layer 1" xmlns="http://www.w3.org/2000/svg" viewBox="0 0 150 200"><defs><style>.cls-1{fill:#e6e7e8;}.cls-2{fill:#584e9f;}.cls-3{font-size:19.39px;fill:#756bae;font-family:Helvetica-Bold, Helvetica;font-weight:700;}</style></defs><title>centroamerica</title><ellipse class="cls-1" cx="75" cy="140.04" rx="34.92" ry="3.52"/><path class="cls-2" d="M71.59,39.56a2.16,2.16,0,0,0-.48.36,2.89,2.89,0,0,1-.71.51,3.22,3.22,0,0,1-1.49.15l-.36,0a.22.22,0,0,1-.17-.08.26.26,0,0,0,0,.21,1.43,1.43,0,0,0,1.26.53c.78-.22,1.65-.45,2.67-.65a1.29,1.29,0,0,0-.14-1C72.05,39.44,71.86,39.43,71.59,39.56Z"/><path class="cls-2" d="M75,39.9h0a1,1,0,0,0-.06-.57,1.27,1.27,0,0,0-1-.61,1.08,1.08,0,0,0,.08.67A1.16,1.16,0,0,0,75,39.9Z"/><path class="cls-2" d="M93.6,63.4a2.87,2.87,0,0,1,.24.33c.23.34.28.34.35.3A2.45,2.45,0,0,0,94.75,63a.61.61,0,0,0,0-.1,1.49,1.49,0,0,1-.26,0,1.94,1.94,0,0,1-.42,0,1.16,1.16,0,0,1-.32-.17l-.22-.14v0C93.35,63,93.36,63.14,93.6,63.4Z"/><path class="cls-2" d="M88.32,54.88a.78.78,0,0,0-.21-.16,2.92,2.92,0,0,1-.31.53,2.92,2.92,0,0,0-.17.27.31.31,0,0,1-.3.18,1.58,1.58,0,0,0,.2.87s.07.07.22,0,.24-.22.37-.42a2.29,2.29,0,0,1,.55-.64A1.69,1.69,0,0,0,88.32,54.88Z"/><path class="cls-2" d="M85.06,68.75c-.33-.2-.42-.14-.42-.13s0,.06,0,.18a.42.42,0,0,1-.13.27c-.06.18-.13.34-.21.51a3.25,3.25,0,0,0-.32.93.68.68,0,0,0,.76.08c.28-.13.53-.56.75-1.25.1-.31.1-.31-.23-.5Z"/><path class="cls-2" d="M84.56,33.22a6.9,6.9,0,0,1-.25.66c-.23.55-.37.89-.25,1.16a6.49,6.49,0,0,0,.8,1.09,4.86,4.86,0,0,0,.43-2A4.15,4.15,0,0,0,84.56,33.22Z"/><path class="cls-2" d="M50.13,52.77a3,3,0,0,1,.81-.87,6.34,6.34,0,0,1,1.44-.64,3.93,3.93,0,0,0,2-1.14A4,4,0,0,0,55,48.36a3.47,3.47,0,0,1,1.6-2.79,6.39,6.39,0,0,1,.83-.34,3,3,0,0,0,1.44-.84A5,5,0,0,0,59.63,43a.27.27,0,0,1-.15-.15.42.42,0,0,1,.13-.49,2.25,2.25,0,0,1,.28-.1c0-.13.1-.26.15-.4a6.62,6.62,0,0,0-2.44-.65,2.14,2.14,0,0,1-1.16.13l-.21,0a.3.3,0,0,1-.21-.25,12.05,12.05,0,0,1,.5-4.79c.13-.52.25-1,.34-1.5s.23-1.22.36-1.83.24-1.17.35-1.75c.06-.31.1-.68.14-1.07A10.66,10.66,0,0,1,58,28.51a10.65,10.65,0,0,1-1.51-.39,8,8,0,0,0-1.78-.44l-1-.1c-1.17-.11-2.37-.23-3.55-.38a1.21,1.21,0,0,0-1.13.26,1.57,1.57,0,0,0-.25,1c0,.14,0,.29,0,.45.06.58.18,1.56-.68,1.94-.59.25-1.09-.14-1.49-.47l-.07-.06a2.82,2.82,0,0,0,.27.75,4.53,4.53,0,0,0,1.73,1.36c1,.55,2,1.12,2.21,2.23a3.27,3.27,0,0,1-.41,2.16c-1,1.94-2.64,1.82-4.11,1.72a5,5,0,0,0-2.52.23,8,8,0,0,0-2.13,2.54c-1,1.51-2,3-3.22,3.08.12.24.25.49.37.73a22,22,0,0,0,2.49,4.27,15.77,15.77,0,0,0,5.6,4,2.74,2.74,0,0,0,2.5.14A2.14,2.14,0,0,0,50.13,52.77Z"/><path class="cls-2" d="M80.8,93.06a4.09,4.09,0,0,1,.66-.73c.48-.37.55-.59.45-1.39a6.77,6.77,0,0,0-.15-.78A5,5,0,0,1,81.64,88,1.51,1.51,0,0,1,83,86.75l.18,0c.57-.17.65-.37.66-.4.08-.32-.57-1.05-.92-1.45a6.78,6.78,0,0,1-.5-.6,9.56,9.56,0,0,1-2.16-4.91.81.81,0,0,1,0-.1A3.44,3.44,0,0,0,79,78.86c-.21,0-.41-.09-.58-.14a5.32,5.32,0,0,1-2.39-1.24.42.42,0,0,1-.09-.34,3.25,3.25,0,0,1,.46-1.1l0,0a3,3,0,0,0-1.87-.41,2.25,2.25,0,0,0-.63.44c-.52.43-1.14,1-1.79.42a1.15,1.15,0,0,1-.33-.64.76.76,0,0,0-.14-.31,1.2,1.2,0,0,0-.63-.18,3,3,0,0,1-.45-.08l-.41-.13c-.18,0-.39-.11-.59-.18a13.15,13.15,0,0,1-.48,1.5,5.85,5.85,0,0,0-.59,2.82,8.76,8.76,0,0,0,2.42,4.24,11.44,11.44,0,0,0,3.17,2.27c.22.11.42.23.62.35a3.55,3.55,0,0,0,1.29.58c.73.12,1.05.46,1.27,1.36a8.11,8.11,0,0,1,0,2.9,10.61,10.61,0,0,0-.12,1.78l.59.1a5.37,5.37,0,0,1,1.35.33,2.56,2.56,0,0,1,.45.28c.29.22.46.34.66.24A2.83,2.83,0,0,0,80.8,93.06Z"/><path class="cls-2" d="M70.72,74.56a3.25,3.25,0,0,0,.37.07,1.6,1.6,0,0,1,.9.3,1.39,1.39,0,0,1,.31.62.68.68,0,0,0,.13.3c.32.27.64,0,1.15-.4a2.9,2.9,0,0,1,.81-.54,3.23,3.23,0,0,1,2.21.43l.37.16a.29.29,0,0,1,.17.22.42.42,0,0,1,0,.31c0,.09-.1.18-.16.28a4.32,4.32,0,0,0-.36.73,5.2,5.2,0,0,0,2,1,4.43,4.43,0,0,0,.53.13,3.88,3.88,0,0,1,1.34.43c0-.37,0-.75,0-1.14a12.16,12.16,0,0,1,0-1.58c.09-1.07.28-2.14.46-3.19l0-.28c.15-.89.36-1.72.54-2.53A22.32,22.32,0,0,0,82.3,66a12.29,12.29,0,0,1,.2-1.33,9.32,9.32,0,0,0,.19-1.38,7.84,7.84,0,0,0,0-.94,3.93,3.93,0,0,1,.28-2,16.08,16.08,0,0,1,2.39-4.17c.6-.8.65-.9.3-1.83a7.41,7.41,0,0,1-.55-2.64,3.36,3.36,0,0,1-2.46,1,6.71,6.71,0,0,0-1,.18,3.46,3.46,0,0,1-2.27.06,2.73,2.73,0,0,1-.77-.72c-.43-.51-.61-.68-1.06-.3s-.79.69-1.18,1c-.59.53-1.19,1.07-1.83,1.55a7,7,0,0,0-.83.85c-.66.74-1.35,1.51-2,1.46-.49,0-.72-.42-.88-.7s-.2-.32-.3-.35a3.16,3.16,0,0,0-.46.3,3,3,0,0,1-.59.36,2.73,2.73,0,0,1-1,0c-.35,0-1,0-1.13.13a1.16,1.16,0,0,0,.21.48,2.39,2.39,0,0,1,.38.87,2,2,0,0,1-.69,2,3.91,3.91,0,0,1-3.64.84,6.15,6.15,0,0,0-.87-.08L62,60.76a13.67,13.67,0,0,1,.51,1.85,8.33,8.33,0,0,0,.77,2.46,2.15,2.15,0,0,0,1,.84,6.1,6.1,0,0,1,.62.37,4.41,4.41,0,0,1,1.62,2.24,11.89,11.89,0,0,1,.45,2,7.28,7.28,0,0,0,.79,2.61,4.69,4.69,0,0,0,2.57,1.36Z"/><path class="cls-2" d="M62.74,60.09a6.55,6.55,0,0,1,.94.1,3.36,3.36,0,0,0,3.21-.73c.43-.35.51-.6.42-1.27a1.72,1.72,0,0,0-.28-.57,1.86,1.86,0,0,1-.32-.75,1,1,0,0,1,.17-.68c.32-.43.94-.4,1.59-.38a2.75,2.75,0,0,0,.8,0,2.57,2.57,0,0,0,.44-.28c.34-.24.63-.44.87-.39a1.08,1.08,0,0,1,.63.6c.16.27.28.41.47.44.46,0,1.06-.66,1.6-1.26a7.89,7.89,0,0,1,.93-.94c.62-.47,1.21-1,1.79-1.52.4-.36.79-.71,1.2-1.06.87-.73,1.36-.13,1.77.35a2.58,2.58,0,0,0,.62.59,3.34,3.34,0,0,0,1.94-.1,7,7,0,0,1,1.09-.2,3.44,3.44,0,0,0,2-.65.32.32,0,0,1,.07-.13l.12-.13a.89.89,0,0,0,.15-.44.37.37,0,0,1,.21-.3,2.93,2.93,0,0,0-.76-.89,17.85,17.85,0,0,1-2.36-2.63,12.94,12.94,0,0,0-2.86-2.69,4.85,4.85,0,0,0-2.28-.59c-.33,0-.64-.05-1-.11l-.32,0a3.37,3.37,0,0,1-1.17-.3,1.69,1.69,0,0,1-.56-.55,1.38,1.38,0,0,0-.28-.32c-.45-.32-1.29.18-2,.57-.2.12-.39.23-.57.32a2.5,2.5,0,0,1-2.84.07,6.11,6.11,0,0,0-2.06-.5c-.34,0-.67-.09-1-.16a4.57,4.57,0,0,0-2.79.21,3.1,3.1,0,0,1-1.25.08,3.06,3.06,0,0,0-.81,0,6.22,6.22,0,0,1-1.13,2,3.64,3.64,0,0,1-1.69,1,6.27,6.27,0,0,0-.77.31c-.86.43-1,1.27-1.22,2.24,0,.06,0,.12,0,.18a3.14,3.14,0,0,1-.1.74,2,2,0,0,0-.07.58c0,.12.12.22.28.36a2.06,2.06,0,0,1,.28.29,4.78,4.78,0,0,1,.45.72,5.17,5.17,0,0,0,.31.53.87.87,0,0,0,.24.18,1,1,0,0,1,.46.44,2.46,2.46,0,0,1-.06,1.55c0,.06,0,.12,0,.18.58.3.91.24,1.6-.18a2,2,0,0,1,2.2.19A1.57,1.57,0,0,1,61.89,56l0,.26c-.07.53-.15,1-.22,1.57,0,.2-.07.39-.11.61a2.2,2.2,0,0,0-.06,1.21.35.35,0,0,1,.09.3l0,0C61.94,60,62.39,60.07,62.74,60.09Z"/><path class="cls-2" d="M108.71,102.75a6.88,6.88,0,0,0,.92-.41,5.86,5.86,0,0,1,1.08-.46,2,2,0,0,1,.42-.05c.25,0,.42,0,.48-.13a2,2,0,0,0-.09-.71,3.23,3.23,0,0,1-.11-.63,3.58,3.58,0,0,1,0-.37.21.21,0,0,1-.2,0,.36.36,0,0,1-.19-.44,3.07,3.07,0,0,1,.34-.78,4.15,4.15,0,0,1-1.31-1.39,7.38,7.38,0,0,1-.41-1.08,3,3,0,0,0-.6-1.25,6.48,6.48,0,0,0-.68-.52c-1-.72-2.5-1.79-2.47-3.21-.33-.07-.67-.11-1-.15s-.86-.12-1.28-.22a.23.23,0,0,1-.15-.1c-.92-1.29-3.49-1.48-4.87-.72l-.32.17a6.93,6.93,0,0,0-3,2.48l-.19.32c-.45.78-.71,1.15-1.71,1.12h-.23c-1,0-2.14,0-2.76-1a2.94,2.94,0,0,0-1.84-1.64,4.09,4.09,0,0,0-1-.12c-.89,0-1.82-.11-2.17-.74a1.4,1.4,0,0,1,.17-1.44,1.1,1.1,0,0,0,.22-.67C85.71,88,84.6,87.17,84,87a1.84,1.84,0,0,1-.81.44l-.19.05c-.5.14-.73.21-.85.7a4.27,4.27,0,0,0,.14,1.77c.06.3.12.58.15.86A2,2,0,0,1,81.74,93a3.62,3.62,0,0,0-.55.6,3.24,3.24,0,0,1-.81.82.76.76,0,0,1-.46.08,5.8,5.8,0,0,0,.36.68,5.5,5.5,0,0,1,.56,1.11,4.09,4.09,0,0,1,4.64.43L86,97a5.36,5.36,0,0,1,1.3,1.15A5.42,5.42,0,0,1,88,99.79a4.84,4.84,0,0,0,.57,1.35c.19-.09.32-.39.5-.82s.42-1.05.89-1.18a.23.23,0,0,1,.22.06.37.37,0,0,1,.11.25c0,.2,0,.42,0,.66a6.17,6.17,0,0,0,.26,2.07,2.94,2.94,0,0,0,1.32,1.29l0-.11a15.12,15.12,0,0,0,1.64-4.85c0-.18,0-.33,0-.47a1.89,1.89,0,0,1,.6-1.64,4.4,4.4,0,0,1,1.44-.81c.24-.1.47-.19.68-.3.44-.23.87-.52,1.32-.82A10.41,10.41,0,0,1,100,93.17a2.35,2.35,0,0,1,2.36.36,2.39,2.39,0,0,1,.47.92,2.58,2.58,0,0,0,.27.61,8.63,8.63,0,0,0,3.23,2.08.27.27,0,0,1,.15.19.37.37,0,0,1,0,.28l-.2.54a10.7,10.7,0,0,0-.78,2.81c-.06,1,.12,2.48.72,2.87l.08,0a.28.28,0,0,1,.12-.05h0a1.09,1.09,0,0,1,.24-.24,5.58,5.58,0,0,1,1.68-.72Z"/><path class="cls-2" d="M64.94,25.57a5.48,5.48,0,0,1,.35-1.41c.08-.25.17-.51.24-.77a9,9,0,0,0-1.56.88,4.32,4.32,0,0,0-1,1.14c-.15.23-.32.46-.51.7s-.18.24-.28.38c-.53.71-1.18,1.58-1.85,1.65-.51.06-.86-.36-1.17-.74a3.36,3.36,0,0,0-.34-.37c0,.1,0,.22,0,.33a4.41,4.41,0,0,1-.12.95s0,0,0,0a7.69,7.69,0,0,0-.34,1.83c0,.41-.08.8-.15,1.16-.11.58-.23,1.16-.35,1.76l-.36,1.82c-.09.49-.22,1-.34,1.54a12.14,12.14,0,0,0-.52,4.19c.11,0,.19,0,.29,0s.14-.16.24-.16l.47,0a5.63,5.63,0,0,0,2-2.36,12.91,12.91,0,0,1,1.38-2,15.48,15.48,0,0,0,1.69-2.4l.56-.89.26-.4a5.9,5.9,0,0,0,1.18-2.82l0-.26a7.6,7.6,0,0,1,.6-2.34c.09-.2.2-.37.3-.55s.16-.3.23-.44a6.17,6.17,0,0,1-.61-.09A.33.33,0,0,1,64.94,25.57Z"/><path class="cls-2" d="M61,58.29a4.79,4.79,0,0,0,.1-.52c.07-.53.15-1.06.22-1.59l0-.26c.06-.47-.06-.67-.58-1-.71-.44-1.2-.5-1.69-.2a1.84,1.84,0,0,1-2.29.08.35.35,0,0,1-.15-.36,5.23,5.23,0,0,1,.11-.54,2.2,2.2,0,0,0,.12-1,.68.68,0,0,0-.25-.21,1.34,1.34,0,0,1-.4-.34,5.79,5.79,0,0,1-.35-.6,4.87,4.87,0,0,0-.39-.63,1.36,1.36,0,0,0-.21-.22,1.58,1.58,0,0,1-.38-.52c0,.07-.07.13-.12.2A4.41,4.41,0,0,1,52.49,52a6,6,0,0,0-1.32.58,2.43,2.43,0,0,0-.63.68,2.66,2.66,0,0,1-1,1,3,3,0,0,1-.7.22c.22.09.44.19.67.27s.66.25,1,.41a13.14,13.14,0,0,0,1.94.67,8.13,8.13,0,0,1,3.54,1.71,4,4,0,0,0,2.12,1.09,3.66,3.66,0,0,1,.84.37,3.37,3.37,0,0,0,.7.32,3.64,3.64,0,0,0,.46.07v0a.23.23,0,0,1,.35.08l.31.05h.09A4.27,4.27,0,0,1,61,58.29Z"/><text class="cls-3" transform="translate(7.1 182.4)">Centroamérica</text></svg>
