<svg xmlns="http://www.w3.org/2000/svg" viewBox="0 0 231.35 143.27"><defs><style>.cls-1,.cls-2,.cls-3{fill:#7b69ab;}.cls-1{opacity:0.3;}.cls-2{opacity:0.63;}.cls-4{fill:#5a4494;}.cls-5{fill:#473a73;}.cls-6{fill:#352f54;}.cls-7{fill:#fff;}.cls-8{fill:none;stroke:#a3a2a2;stroke-miterlimit:10;stroke-width:0.5px;}</style></defs><title>contrato</title><g id="Layer_2" data-name="Layer 2"><g id="Layer_1-2" data-name="Layer 1"><rect class="cls-1" x="1.25" y="85.87" width="229.77" height="15.15" rx="7.58" ry="7.58"/><rect class="cls-2" x="0.62" y="128.11" width="230.4" height="15.15" rx="7.58" ry="7.58"/><path class="cls-3" d="M128.38,78.37V71h1.52v2.79h2.85V71h1.52v7.32h-1.52V75.1H129.9v3.27Z"/><path class="cls-3" d="M140.14,77.71a3,3,0,0,1-4.16,0,3.36,3.36,0,0,1,0-4.07,3,3,0,0,1,4.16,0,3.36,3.36,0,0,1,0,4.07ZM139,76.92a2.53,2.53,0,0,0,0-2.51,1.26,1.26,0,0,0-1.91,0,2.51,2.51,0,0,0,0,2.51,1.25,1.25,0,0,0,1.91,0Z"/><path class="cls-3" d="M148.59,73a1.59,1.59,0,0,1,.94,1.18,4.79,4.79,0,0,1,0,.8v3.41h-1.45V74.92a1.13,1.13,0,0,0-.1-.51.71.71,0,0,0-.7-.38.81.81,0,0,0-.81.49,1.53,1.53,0,0,0-.11.62v3.22H145V75.14a1.83,1.83,0,0,0-.1-.7.7.7,0,0,0-.7-.39.84.84,0,0,0-.81.39,1.51,1.51,0,0,0-.11.67v3.26h-1.44V73h1.38v.79a2.28,2.28,0,0,1,.5-.6,2,2,0,0,1,2.07,0,1.59,1.59,0,0,1,.47.65,1.8,1.8,0,0,1,.69-.7,2.1,2.1,0,0,1,1-.22A1.88,1.88,0,0,1,148.59,73Z"/><path class="cls-3" d="M155.51,73.6a3.12,3.12,0,0,1,.61,2,3.48,3.48,0,0,1-.6,2.09,2.17,2.17,0,0,1-2.76.56,2.14,2.14,0,0,1-.53-.56v.68h-1.4V71.06h1.42v2.6a2.08,2.08,0,0,1,.6-.58,1.78,1.78,0,0,1,1-.25A2,2,0,0,1,155.51,73.6Zm-1.18,3.3a2,2,0,0,0,.31-1.16,2.61,2.61,0,0,0-.15-1,1,1,0,0,0-1.05-.72,1.06,1.06,0,0,0-1.07.7,2.6,2.6,0,0,0-.15,1,2,2,0,0,0,.31,1.15,1.07,1.07,0,0,0,.95.46A1,1,0,0,0,154.32,76.9Z"/><path class="cls-3" d="M160.1,72.83h.12v1.45l-.24,0h-.17a1.18,1.18,0,0,0-1.15.56,2.17,2.17,0,0,0-.16,1v2.59h-1.43V73h1.35v.94a3,3,0,0,1,.57-.74,1.56,1.56,0,0,1,1-.33Z"/><path class="cls-3" d="M164.58,73.06a2.21,2.21,0,0,1,.94.8A2.66,2.66,0,0,1,166,75a6.92,6.92,0,0,1,0,1.07h-3.94a1.3,1.3,0,0,0,.57,1.14,1.44,1.44,0,0,0,.78.2,1.2,1.2,0,0,0,.79-.25,1.18,1.18,0,0,0,.29-.37h1.45a1.77,1.77,0,0,1-.52,1,2.63,2.63,0,0,1-2,.79,3,3,0,0,1-1.91-.67,2.62,2.62,0,0,1-.83-2.17,2.93,2.93,0,0,1,.75-2.16,2.61,2.61,0,0,1,1.94-.75A3.08,3.08,0,0,1,164.58,73.06Zm-2.12,1.22a1.47,1.47,0,0,0-.38.84h2.44a1.18,1.18,0,0,0-.38-.86,1.24,1.24,0,0,0-.84-.29A1.12,1.12,0,0,0,162.47,74.29Z"/><path class="cls-3" d="M167.81,76.64a.94.94,0,0,0,.19.54,1.32,1.32,0,0,0,1,.28,1.49,1.49,0,0,0,.67-.12.4.4,0,0,0,.25-.37.4.4,0,0,0-.2-.36,8.22,8.22,0,0,0-1.48-.43,3.08,3.08,0,0,1-1.3-.57,1.24,1.24,0,0,1-.38-1,1.69,1.69,0,0,1,.59-1.29,2.37,2.37,0,0,1,1.66-.54,3,3,0,0,1,1.65.41,1.73,1.73,0,0,1,.73,1.4h-1.42a.84.84,0,0,0-.15-.43,1,1,0,0,0-.8-.29,1.14,1.14,0,0,0-.66.14.41.41,0,0,0-.2.34.37.37,0,0,0,.21.35,9,9,0,0,0,1.48.39,2.71,2.71,0,0,1,1.27.6,1.36,1.36,0,0,1,.42,1,1.64,1.64,0,0,1-.6,1.31A3.61,3.61,0,0,1,167,78a1.75,1.75,0,0,1-.61-1.37Z"/><path class="cls-4" d="M190.34,71h2.2v7.32h-1.43v-5c0-.14,0-.34,0-.6s0-.45,0-.59l-1.39,6.14h-1.49l-1.38-6.14c0,.14,0,.34,0,.59s0,.46,0,.6v5h-1.43V71h2.23L189,76.8Z"/><path class="cls-4" d="M195.26,73v3.26a1.72,1.72,0,0,0,.11.7.75.75,0,0,0,.76.41,1,1,0,0,0,1-.59,2.12,2.12,0,0,0,.14-.84V73h1.44v5.41h-1.38V77.6l-.1.15A1,1,0,0,1,197,78a2,2,0,0,1-.64.41,2.17,2.17,0,0,1-.73.11,1.62,1.62,0,0,1-1.62-.86,3.31,3.31,0,0,1-.23-1.41V73Z"/><path class="cls-4" d="M199.45,79.41h.26a.44.44,0,0,0,.32-.1.54.54,0,0,0,.11-.39V73h1.42v6a1.89,1.89,0,0,1-.32,1.21,1.6,1.6,0,0,1-1.27.39h-.51Zm2.1-7.1h-1.42V71h1.42Z"/><path class="cls-4" d="M206.42,73.06a2.21,2.21,0,0,1,.94.8,2.66,2.66,0,0,1,.43,1.12,6.92,6.92,0,0,1,0,1.07h-3.94a1.3,1.3,0,0,0,.57,1.14,1.44,1.44,0,0,0,.78.2,1.2,1.2,0,0,0,.79-.25,1.18,1.18,0,0,0,.29-.37h1.45a1.77,1.77,0,0,1-.52,1,2.63,2.63,0,0,1-2,.79,3,3,0,0,1-1.91-.67,2.62,2.62,0,0,1-.83-2.17,2.93,2.93,0,0,1,.75-2.16,2.61,2.61,0,0,1,1.94-.75A3.08,3.08,0,0,1,206.42,73.06Zm-2.12,1.22a1.47,1.47,0,0,0-.38.84h2.44a1.18,1.18,0,0,0-.38-.86,1.24,1.24,0,0,0-.84-.29A1.12,1.12,0,0,0,204.3,74.29Z"/><path class="cls-4" d="M211.55,72.83h.12v1.45l-.24,0h-.17a1.18,1.18,0,0,0-1.15.56,2.17,2.17,0,0,0-.16,1v2.59h-1.43V73h1.35v.94a3,3,0,0,1,.57-.74,1.56,1.56,0,0,1,1-.33Z"/><path class="cls-4" d="M216,73.06a2.21,2.21,0,0,1,.94.8A2.66,2.66,0,0,1,217.4,75a6.92,6.92,0,0,1,0,1.07H213.5a1.3,1.3,0,0,0,.57,1.14,1.44,1.44,0,0,0,.78.2,1.2,1.2,0,0,0,.79-.25,1.18,1.18,0,0,0,.29-.37h1.45a1.77,1.77,0,0,1-.52,1,2.63,2.63,0,0,1-2,.79,3,3,0,0,1-1.91-.67,2.62,2.62,0,0,1-.83-2.17,2.93,2.93,0,0,1,.75-2.16,2.61,2.61,0,0,1,1.94-.75A3.08,3.08,0,0,1,216,73.06Zm-2.12,1.22a1.47,1.47,0,0,0-.38.84H216a1.18,1.18,0,0,0-.38-.86,1.24,1.24,0,0,0-.84-.29A1.12,1.12,0,0,0,213.92,74.29Z"/><path class="cls-4" d="M219.26,76.64a.94.94,0,0,0,.19.54,1.32,1.32,0,0,0,1,.28,1.49,1.49,0,0,0,.67-.12.4.4,0,0,0,.25-.37.4.4,0,0,0-.2-.36,8.22,8.22,0,0,0-1.48-.43,3.08,3.08,0,0,1-1.3-.57,1.24,1.24,0,0,1-.38-1,1.69,1.69,0,0,1,.59-1.29,2.37,2.37,0,0,1,1.66-.54,3,3,0,0,1,1.65.41,1.73,1.73,0,0,1,.73,1.4h-1.42a.84.84,0,0,0-.15-.43,1,1,0,0,0-.8-.29,1.14,1.14,0,0,0-.66.14.41.41,0,0,0-.2.34.37.37,0,0,0,.21.35,9,9,0,0,0,1.48.39,2.71,2.71,0,0,1,1.27.6,1.36,1.36,0,0,1,.42,1,1.64,1.64,0,0,1-.6,1.31,3.61,3.61,0,0,1-3.74,0,1.75,1.75,0,0,1-.61-1.37Z"/><path class="cls-5" d="M14.13,113.37a2.79,2.79,0,0,1-1.84.54H10.77v2.63H9.25v-7.32h3.14a2.54,2.54,0,0,1,1.73.57,2.21,2.21,0,0,1,.65,1.75A2.27,2.27,0,0,1,14.13,113.37ZM13,110.73a1.23,1.23,0,0,0-.81-.24H10.77v2.16h1.38a1.17,1.17,0,0,0,.81-.26,1.07,1.07,0,0,0,.29-.83A1,1,0,0,0,13,110.73Z"/><path class="cls-5" d="M18.85,111.23a2.2,2.2,0,0,1,.94.8,2.65,2.65,0,0,1,.43,1.12,6.94,6.94,0,0,1,0,1.07H16.32a1.3,1.3,0,0,0,.57,1.14,1.44,1.44,0,0,0,.78.2,1.2,1.2,0,0,0,.79-.25,1.18,1.18,0,0,0,.29-.37h1.45a1.77,1.77,0,0,1-.52,1,2.63,2.63,0,0,1-2,.79,3,3,0,0,1-1.91-.67,2.63,2.63,0,0,1-.83-2.17,2.93,2.93,0,0,1,.75-2.16,2.61,2.61,0,0,1,1.94-.75A3.07,3.07,0,0,1,18.85,111.23Zm-2.12,1.22a1.47,1.47,0,0,0-.38.84h2.44a1.18,1.18,0,0,0-.38-.86,1.24,1.24,0,0,0-.84-.29A1.12,1.12,0,0,0,16.73,112.45Z"/><path class="cls-5" d="M23.43,111h.12v1.45l-.24,0h-.17A1.17,1.17,0,0,0,22,113a2.16,2.16,0,0,0-.16,1v2.59H20.41v-5.42h1.35v.94a3,3,0,0,1,.57-.74,1.56,1.56,0,0,1,1-.33Z"/><path class="cls-5" d="M30.58,111.14a1.58,1.58,0,0,1,.94,1.18,4.8,4.8,0,0,1,0,.8v3.41H30.1v-3.45a1.13,1.13,0,0,0-.1-.51.71.71,0,0,0-.7-.38.81.81,0,0,0-.81.49,1.53,1.53,0,0,0-.11.62v3.22H27v-3.22a1.84,1.84,0,0,0-.1-.7.7.7,0,0,0-.7-.39.84.84,0,0,0-.81.39,1.51,1.51,0,0,0-.11.67v3.26H23.8v-5.4h1.38v.79a2.27,2.27,0,0,1,.5-.6,2,2,0,0,1,2.07,0,1.6,1.6,0,0,1,.47.65,1.81,1.81,0,0,1,.69-.7,2.11,2.11,0,0,1,1-.22A1.88,1.88,0,0,1,30.58,111.14Z"/><path class="cls-5" d="M34.45,113.24a2.26,2.26,0,0,0,.57-.12.43.43,0,0,0,.3-.4.47.47,0,0,0-.23-.46,1.47,1.47,0,0,0-.69-.13.91.91,0,0,0-.72.25,1,1,0,0,0-.2.5H32.11a2.07,2.07,0,0,1,.4-1.17,2.32,2.32,0,0,1,1.94-.72,3.45,3.45,0,0,1,1.59.35,1.35,1.35,0,0,1,.69,1.33v2.48q0,.26,0,.63a.79.79,0,0,0,.08.38.51.51,0,0,0,.21.16v.21H35.49a1.58,1.58,0,0,1-.09-.31c0-.1,0-.21,0-.33a2.9,2.9,0,0,1-.68.54,2.05,2.05,0,0,1-1,.26,1.8,1.8,0,0,1-1.22-.42,1.49,1.49,0,0,1-.48-1.19,1.54,1.54,0,0,1,.78-1.45A3.49,3.49,0,0,1,34,113.3Zm.87.66A1.6,1.6,0,0,1,35,114a2.45,2.45,0,0,1-.38.1l-.32.06a2.11,2.11,0,0,0-.65.19.65.65,0,0,0-.33.6.63.63,0,0,0,.2.52.77.77,0,0,0,.5.16,1.48,1.48,0,0,0,.85-.27,1.13,1.13,0,0,0,.41-1Z"/><path class="cls-5" d="M41.77,111.43a1.79,1.79,0,0,1,.53,1.46v3.65H40.85v-3.29a1.52,1.52,0,0,0-.11-.66.8.8,0,0,0-.79-.42,1,1,0,0,0-1,.61,2.12,2.12,0,0,0-.14.83v2.93H37.42v-5.4h1.37v.79a2.38,2.38,0,0,1,.51-.6,1.78,1.78,0,0,1,1.1-.33A2.07,2.07,0,0,1,41.77,111.43Z"/><path class="cls-5" d="M46.59,111.23a2.2,2.2,0,0,1,.94.8,2.65,2.65,0,0,1,.43,1.12,6.94,6.94,0,0,1,0,1.07H44.06a1.3,1.3,0,0,0,.57,1.14,1.44,1.44,0,0,0,.78.2,1.2,1.2,0,0,0,.79-.25,1.18,1.18,0,0,0,.29-.37h1.45a1.77,1.77,0,0,1-.52,1,2.63,2.63,0,0,1-2,.79,3,3,0,0,1-1.91-.67,2.63,2.63,0,0,1-.83-2.17,2.93,2.93,0,0,1,.75-2.16,2.61,2.61,0,0,1,1.94-.75A3.07,3.07,0,0,1,46.59,111.23Zm-2.12,1.22a1.47,1.47,0,0,0-.38.84h2.44a1.18,1.18,0,0,0-.38-.86,1.24,1.24,0,0,0-.84-.29A1.12,1.12,0,0,0,44.47,112.45Z"/><path class="cls-5" d="M52.52,111.43a1.79,1.79,0,0,1,.53,1.46v3.65H51.61v-3.29a1.52,1.52,0,0,0-.11-.66.8.8,0,0,0-.79-.42,1,1,0,0,0-1,.61,2.12,2.12,0,0,0-.14.83v2.93H48.17v-5.4h1.37v.79a2.38,2.38,0,0,1,.51-.6,1.78,1.78,0,0,1,1.1-.33A2.07,2.07,0,0,1,52.52,111.43Z"/><path class="cls-5" d="M53.26,112.18v-1H54v-1.51h1.4v1.51h.88v1h-.88V115a.64.64,0,0,0,.08.41.93.93,0,0,0,.52.08h.28v1.06l-.67,0a1.8,1.8,0,0,1-1.37-.35,1,1,0,0,1-.24-.75v-3.33Z"/><path class="cls-5" d="M60.17,111.23a2.2,2.2,0,0,1,.94.8,2.65,2.65,0,0,1,.43,1.12,6.94,6.94,0,0,1,0,1.07H57.64a1.3,1.3,0,0,0,.57,1.14,1.44,1.44,0,0,0,.78.2,1.2,1.2,0,0,0,.79-.25,1.18,1.18,0,0,0,.29-.37h1.45a1.77,1.77,0,0,1-.52,1,2.63,2.63,0,0,1-2,.79,3,3,0,0,1-1.91-.67,2.63,2.63,0,0,1-.83-2.17,2.93,2.93,0,0,1,.75-2.16A2.61,2.61,0,0,1,58.9,111,3.07,3.07,0,0,1,60.17,111.23Zm-2.12,1.22a1.47,1.47,0,0,0-.38.84h2.44a1.18,1.18,0,0,0-.38-.86,1.24,1.24,0,0,0-.84-.29A1.12,1.12,0,0,0,58.05,112.45Z"/><path class="cls-3" d="M136,116.32a2.57,2.57,0,0,1-.57-1.69h.93a2.3,2.3,0,0,0,.26,1,1.36,1.36,0,0,0,1.26.56,1.65,1.65,0,0,0,1.13-.38,1.24,1.24,0,0,0,.43-1,1.13,1.13,0,0,0-.45-1,2.28,2.28,0,0,0-1.25-.29h-.37v-.79l.23,0h.2a1.87,1.87,0,0,0,.82-.16,1,1,0,0,0,.57-1,1,1,0,0,0-.38-.82,1.41,1.41,0,0,0-.88-.29,1.3,1.3,0,0,0-1.24.6,2.06,2.06,0,0,0-.21.93h-.88a2.68,2.68,0,0,1,.32-1.35,2,2,0,0,1,1.92-1,2.6,2.6,0,0,1,1.68.48,1.7,1.7,0,0,1,.6,1.4,1.56,1.56,0,0,1-.35,1.06,1.48,1.48,0,0,1-.57.4,1.55,1.55,0,0,1,.88.59,1.8,1.8,0,0,1,.32,1.08,2.19,2.19,0,0,1-.67,1.66,2.64,2.64,0,0,1-1.9.64A2.23,2.23,0,0,1,136,116.32Z"/><path class="cls-3" d="M145.64,110.84a5.1,5.1,0,0,1,.48,2.41,5.8,5.8,0,0,1-.43,2.4,2.12,2.12,0,0,1-2,1.36,2,2,0,0,1-1.91-1.11,5.09,5.09,0,0,1-.52-2.49,6.16,6.16,0,0,1,.31-2.08,2.14,2.14,0,0,1,2.12-1.62A2.1,2.1,0,0,1,145.64,110.84Zm-.9,4.74a4.45,4.45,0,0,0,.41-2.29,5.68,5.68,0,0,0-.3-2,1.14,1.14,0,0,0-1.16-.78,1.21,1.21,0,0,0-1.16.74,5.11,5.11,0,0,0-.37,2.19,5.36,5.36,0,0,0,.23,1.75,1.27,1.27,0,0,0,2.33.39Z"/><path class="cls-3" d="M147.4,117.86a.63.63,0,0,0,.48-.48,1.38,1.38,0,0,0,.07-.43.62.62,0,0,0,0-.06.35.35,0,0,0,0-.06h-.54v-1.08h1.06v1a2.17,2.17,0,0,1-.24,1,1.09,1.09,0,0,1-.82.55Z"/><path class="cls-3" d="M154.13,110.84a5.1,5.1,0,0,1,.48,2.41,5.8,5.8,0,0,1-.43,2.4,2.12,2.12,0,0,1-2,1.36,2,2,0,0,1-1.91-1.11,5.09,5.09,0,0,1-.52-2.49,6.16,6.16,0,0,1,.31-2.08,2.14,2.14,0,0,1,2.12-1.62A2.1,2.1,0,0,1,154.13,110.84Zm-.9,4.74a4.45,4.45,0,0,0,.41-2.29,5.68,5.68,0,0,0-.3-2,1.14,1.14,0,0,0-1.16-.78,1.21,1.21,0,0,0-1.16.74,5.11,5.11,0,0,0-.37,2.19,5.36,5.36,0,0,0,.23,1.75,1.27,1.27,0,0,0,2.33.39Z"/><path class="cls-3" d="M159.78,110.84a5.1,5.1,0,0,1,.48,2.41,5.8,5.8,0,0,1-.43,2.4,2.12,2.12,0,0,1-2,1.36,2,2,0,0,1-1.91-1.11,5.09,5.09,0,0,1-.52-2.49,6.16,6.16,0,0,1,.31-2.08,2.14,2.14,0,0,1,2.12-1.62A2.1,2.1,0,0,1,159.78,110.84Zm-.9,4.74a4.45,4.45,0,0,0,.41-2.29,5.68,5.68,0,0,0-.3-2,1.14,1.14,0,0,0-1.16-.78,1.21,1.21,0,0,0-1.16.74,5.11,5.11,0,0,0-.37,2.19,5.36,5.36,0,0,0,.23,1.75,1.27,1.27,0,0,0,2.33.39Z"/><path class="cls-3" d="M161.51,116.32a2.57,2.57,0,0,1-.57-1.69h.93a2.3,2.3,0,0,0,.26,1,1.36,1.36,0,0,0,1.26.56,1.65,1.65,0,0,0,1.13-.38,1.24,1.24,0,0,0,.43-1,1.13,1.13,0,0,0-.45-1,2.28,2.28,0,0,0-1.25-.29h-.37v-.79l.23,0h.2a1.87,1.87,0,0,0,.82-.16,1,1,0,0,0,.57-1,1,1,0,0,0-.38-.82,1.41,1.41,0,0,0-.88-.29,1.3,1.3,0,0,0-1.24.6,2.06,2.06,0,0,0-.21.93h-.88a2.68,2.68,0,0,1,.32-1.35,2,2,0,0,1,1.92-1,2.6,2.6,0,0,1,1.68.48,1.7,1.7,0,0,1,.6,1.4,1.56,1.56,0,0,1-.35,1.06,1.48,1.48,0,0,1-.57.4,1.55,1.55,0,0,1,.88.59,1.8,1.8,0,0,1,.32,1.08,2.19,2.19,0,0,1-.67,1.66,2.64,2.64,0,0,1-1.9.64A2.23,2.23,0,0,1,161.51,116.32Z"/><path class="cls-4" d="M195.93,109.82v.78a8.33,8.33,0,0,0-.91,1.16,11.82,11.82,0,0,0-1,1.78,12,12,0,0,0-.66,1.69q-.14.49-.37,1.58h-1a12.17,12.17,0,0,1,1.49-4.05,12.89,12.89,0,0,1,1.43-2H191v-.9Z"/><path class="cls-4" d="M200.91,110.29a2.08,2.08,0,0,1,.47,1.27h-.88a1.64,1.64,0,0,0-.25-.66,1.13,1.13,0,0,0-1-.45,1.36,1.36,0,0,0-1.19.69,4,4,0,0,0-.49,2,2,2,0,0,1,.77-.68,2.24,2.24,0,0,1,1-.2,2.32,2.32,0,0,1,1.56.57,2.12,2.12,0,0,1,.67,1.7,2.59,2.59,0,0,1-.63,1.72,2.22,2.22,0,0,1-1.8.75,2.31,2.31,0,0,1-1.72-.76,3.63,3.63,0,0,1-.72-2.55,6.87,6.87,0,0,1,.32-2.25,2.29,2.29,0,0,1,2.27-1.77A2,2,0,0,1,200.91,110.29Zm-.67,5.44a1.83,1.83,0,0,0,.35-1.12,1.92,1.92,0,0,0-.31-1,1.24,1.24,0,0,0-1.14-.49,1.48,1.48,0,0,0-1,.38,1.45,1.45,0,0,0-.43,1.15,1.68,1.68,0,0,0,.39,1.13,1.37,1.37,0,0,0,1.1.46A1.23,1.23,0,0,0,200.24,115.73Z"/><path class="cls-4" d="M202.74,116.32a2.57,2.57,0,0,1-.57-1.69h.93a2.3,2.3,0,0,0,.26,1,1.36,1.36,0,0,0,1.26.56,1.65,1.65,0,0,0,1.13-.38,1.24,1.24,0,0,0,.43-1,1.13,1.13,0,0,0-.45-1,2.28,2.28,0,0,0-1.25-.29h-.37v-.79l.23,0h.2a1.87,1.87,0,0,0,.82-.16,1,1,0,0,0,.57-1,1,1,0,0,0-.38-.82,1.41,1.41,0,0,0-.88-.29,1.3,1.3,0,0,0-1.24.6,2.06,2.06,0,0,0-.21.93h-.88a2.68,2.68,0,0,1,.32-1.35,2,2,0,0,1,1.92-1,2.6,2.6,0,0,1,1.68.48,1.7,1.7,0,0,1,.6,1.4,1.56,1.56,0,0,1-.35,1.06,1.48,1.48,0,0,1-.57.4,1.55,1.55,0,0,1,.88.59,1.8,1.8,0,0,1,.32,1.08,2.19,2.19,0,0,1-.67,1.66,2.64,2.64,0,0,1-1.9.64A2.23,2.23,0,0,1,202.74,116.32Z"/><path class="cls-4" d="M208.4,116.32a2.57,2.57,0,0,1-.57-1.69h.93a2.3,2.3,0,0,0,.26,1,1.36,1.36,0,0,0,1.26.56,1.65,1.65,0,0,0,1.13-.38,1.24,1.24,0,0,0,.43-1,1.13,1.13,0,0,0-.45-1,2.28,2.28,0,0,0-1.25-.29h-.37v-.79l.23,0h.2a1.87,1.87,0,0,0,.82-.16,1,1,0,0,0,.57-1,1,1,0,0,0-.38-.82,1.41,1.41,0,0,0-.88-.29,1.3,1.3,0,0,0-1.24.6,2.06,2.06,0,0,0-.21.93H208a2.68,2.68,0,0,1,.32-1.35,2,2,0,0,1,1.92-1,2.6,2.6,0,0,1,1.68.48,1.7,1.7,0,0,1,.6,1.4,1.56,1.56,0,0,1-.35,1.06,1.48,1.48,0,0,1-.57.4,1.55,1.55,0,0,1,.88.59,1.8,1.8,0,0,1,.32,1.08,2.19,2.19,0,0,1-.67,1.66,2.64,2.64,0,0,1-1.9.64A2.23,2.23,0,0,1,208.4,116.32Z"/><path class="cls-5" d="M14.53,90.19v1.3H12.34v6H10.8v-6H8.6v-1.3Z"/><path class="cls-5" d="M18.28,92.21a2.2,2.2,0,0,1,.94.8,2.65,2.65,0,0,1,.43,1.12,6.94,6.94,0,0,1,0,1.07H15.75a1.3,1.3,0,0,0,.57,1.14,1.44,1.44,0,0,0,.78.2,1.2,1.2,0,0,0,.79-.25,1.18,1.18,0,0,0,.29-.37h1.45a1.77,1.77,0,0,1-.52,1,2.63,2.63,0,0,1-2,.79A3,3,0,0,1,15.15,97a2.63,2.63,0,0,1-.83-2.17,2.93,2.93,0,0,1,.75-2.16A2.61,2.61,0,0,1,17,92,3.07,3.07,0,0,1,18.28,92.21Zm-2.12,1.22a1.47,1.47,0,0,0-.38.84h2.44a1.18,1.18,0,0,0-.38-.86,1.24,1.24,0,0,0-.84-.29A1.12,1.12,0,0,0,16.16,93.43Z"/><path class="cls-5" d="M26.6,92.12a1.58,1.58,0,0,1,.94,1.18,4.8,4.8,0,0,1,0,.8v3.41H26.13V94.07a1.13,1.13,0,0,0-.1-.51.71.71,0,0,0-.7-.38.81.81,0,0,0-.81.49,1.53,1.53,0,0,0-.11.62v3.22H23V94.29a1.84,1.84,0,0,0-.1-.7.7.7,0,0,0-.7-.39.84.84,0,0,0-.81.39,1.51,1.51,0,0,0-.11.67v3.26H19.82v-5.4H21.2v.79a2.27,2.27,0,0,1,.5-.6,2,2,0,0,1,2.07,0,1.6,1.6,0,0,1,.47.65,1.81,1.81,0,0,1,.69-.7,2.11,2.11,0,0,1,1-.22A1.88,1.88,0,0,1,26.6,92.12Z"/><path class="cls-5" d="M32.89,92.68a2.89,2.89,0,0,1,.66,2.06,3.25,3.25,0,0,1-.65,2.18,2.1,2.1,0,0,1-1.67.75,1.75,1.75,0,0,1-1.08-.32,2.1,2.1,0,0,1-.46-.52v2.82H28.3V92.1h1.36v.8a2.3,2.3,0,0,1,.49-.56A1.81,1.81,0,0,1,31.27,92,2.14,2.14,0,0,1,32.89,92.68Zm-1.09,1a1,1,0,0,0-.94-.48,1.06,1.06,0,0,0-1.07.73,2.73,2.73,0,0,0-.15,1,1.56,1.56,0,0,0,.51,1.33,1.17,1.17,0,0,0,.71.22,1,1,0,0,0,.91-.46,2.4,2.4,0,0,0,0-2.33Z"/><path class="cls-5" d="M38.51,96.85a2.52,2.52,0,0,1-2.08.85,2.52,2.52,0,0,1-2.08-.85,3.36,3.36,0,0,1,0-4.07,2.5,2.5,0,0,1,2.08-.86,2.5,2.5,0,0,1,2.08.86,3.36,3.36,0,0,1,0,4.07Zm-1.13-.78a2.53,2.53,0,0,0,0-2.51,1.26,1.26,0,0,0-1.91,0,2.51,2.51,0,0,0,0,2.51,1.25,1.25,0,0,0,1.91,0Z"/><path class="cls-5" d="M42.65,92h.12v1.45l-.24,0h-.17a1.17,1.17,0,0,0-1.15.56,2.16,2.16,0,0,0-.16,1v2.59H39.63V92.1H41V93a3,3,0,0,1,.57-.74,1.56,1.56,0,0,1,1-.33Z"/><path class="cls-5" d="M45.19,94.22a2.26,2.26,0,0,0,.57-.12.43.43,0,0,0,.3-.4.47.47,0,0,0-.23-.46,1.47,1.47,0,0,0-.69-.13.91.91,0,0,0-.72.25,1,1,0,0,0-.2.5H42.85a2.07,2.07,0,0,1,.4-1.17A2.32,2.32,0,0,1,45.19,92a3.45,3.45,0,0,1,1.59.35,1.35,1.35,0,0,1,.69,1.33v2.48q0,.26,0,.63a.79.79,0,0,0,.08.38.51.51,0,0,0,.21.16v.21H46.23a1.58,1.58,0,0,1-.09-.31c0-.1,0-.21,0-.33a2.9,2.9,0,0,1-.68.54,2.05,2.05,0,0,1-1,.26,1.8,1.8,0,0,1-1.22-.42,1.49,1.49,0,0,1-.48-1.19,1.54,1.54,0,0,1,.78-1.45,3.49,3.49,0,0,1,1.25-.35Zm.87.66a1.6,1.6,0,0,1-.27.14,2.45,2.45,0,0,1-.38.1l-.32.06a2.11,2.11,0,0,0-.65.19.65.65,0,0,0-.33.6.63.63,0,0,0,.2.52.77.77,0,0,0,.5.16,1.48,1.48,0,0,0,.85-.27,1.13,1.13,0,0,0,.41-1Z"/><path class="cls-5" d="M49.59,97.51H48.17V90.19h1.42Z"/><path class="cls-3" d="M143.56,97.8V96.06h-3.12v-.87l3.26-4.52h.75v4.61h1v.78h-1V97.8Zm0-2.52V92l-2.28,3.23Z"/><path class="cls-3" d="M150.59,91.82a5.1,5.1,0,0,1,.48,2.41,5.8,5.8,0,0,1-.43,2.4,2.12,2.12,0,0,1-2,1.36,2,2,0,0,1-1.91-1.11,5.09,5.09,0,0,1-.52-2.49,6.16,6.16,0,0,1,.31-2.08,2.14,2.14,0,0,1,2.12-1.62A2.1,2.1,0,0,1,150.59,91.82Zm-.9,4.74a4.45,4.45,0,0,0,.41-2.29,5.68,5.68,0,0,0-.3-2,1.14,1.14,0,0,0-1.16-.78,1.21,1.21,0,0,0-1.16.74,5.11,5.11,0,0,0-.37,2.19,5.36,5.36,0,0,0,.23,1.75,1.27,1.27,0,0,0,2.33.39Z"/><path class="cls-3" d="M152.47,92.76v-.69a3.64,3.64,0,0,0,1.35-.32,1.55,1.55,0,0,0,.57-1h.71V97.8h-1v-5Z"/><path class="cls-4" d="M198.15,96.07a1.13,1.13,0,0,0,.57,1,1.26,1.26,0,0,0,.62.15,1.38,1.38,0,0,0,1.09-.53,4.38,4.38,0,0,0,.64-2.17,1.66,1.66,0,0,1-.74.66,2.35,2.35,0,0,1-.95.19,2.12,2.12,0,0,1-1.63-.64,2.32,2.32,0,0,1-.6-1.65,2.63,2.63,0,0,1,.59-1.7,2.1,2.1,0,0,1,1.74-.73,2.14,2.14,0,0,1,2.15,1.4A4.92,4.92,0,0,1,202,94a6.34,6.34,0,0,1-.39,2.31A2.27,2.27,0,0,1,199.37,98a2.14,2.14,0,0,1-1.58-.55,1.87,1.87,0,0,1-.54-1.37Zm2.33-1.81a1.48,1.48,0,0,0,.44-1.22,1.56,1.56,0,0,0-.4-1.17,1.38,1.38,0,0,0-1-.38,1.31,1.31,0,0,0-1,.44,1.71,1.71,0,0,0-.38,1.17,1.68,1.68,0,0,0,.34,1.1,1.32,1.32,0,0,0,1.08.41A1.53,1.53,0,0,0,200.48,94.26Z"/><path class="cls-4" d="M203.43,92.76v-.69a3.64,3.64,0,0,0,1.35-.32,1.55,1.55,0,0,0,.57-1h.71V97.8h-1v-5Z"/><path class="cls-6" d="M17,132.43v1.3H14.83v6H13.29v-6h-2.2v-1.3Z"/><path class="cls-6" d="M22.32,139.09a2.52,2.52,0,0,1-2.08.85,2.52,2.52,0,0,1-2.08-.85,3.36,3.36,0,0,1,0-4.07,2.5,2.5,0,0,1,2.08-.86,2.5,2.5,0,0,1,2.08.86,3.36,3.36,0,0,1,0,4.07Zm-1.13-.78a2.53,2.53,0,0,0,0-2.51,1.26,1.26,0,0,0-1.91,0,2.51,2.51,0,0,0,0,2.51,1.25,1.25,0,0,0,1.91,0Z"/><path class="cls-6" d="M23.46,135.39v-1h.75v-1.51h1.4v1.51h.88v1h-.88v2.86a.64.64,0,0,0,.08.42.93.93,0,0,0,.52.08h.28v1.06l-.67,0a1.8,1.8,0,0,1-1.37-.35,1,1,0,0,1-.24-.75v-3.33Z"/><path class="cls-6" d="M29.55,136.46a2.26,2.26,0,0,0,.57-.12.43.43,0,0,0,.3-.4.48.48,0,0,0-.23-.46,1.48,1.48,0,0,0-.69-.13.9.9,0,0,0-.72.25,1,1,0,0,0-.2.5H27.21a2.07,2.07,0,0,1,.4-1.17,2.33,2.33,0,0,1,1.94-.71,3.45,3.45,0,0,1,1.59.35,1.35,1.35,0,0,1,.69,1.33v2.48c0,.17,0,.38,0,.63a.79.79,0,0,0,.08.38.51.51,0,0,0,.21.16v.21H30.59a1.59,1.59,0,0,1-.09-.31c0-.1,0-.21,0-.33a2.92,2.92,0,0,1-.68.54,2.06,2.06,0,0,1-1,.26,1.79,1.79,0,0,1-1.22-.42,1.49,1.49,0,0,1-.48-1.19,1.54,1.54,0,0,1,.78-1.45,3.47,3.47,0,0,1,1.25-.35Zm.87.66a1.53,1.53,0,0,1-.27.14,2.24,2.24,0,0,1-.38.1l-.32.06a2.14,2.14,0,0,0-.65.19.65.65,0,0,0-.33.6.63.63,0,0,0,.2.52.78.78,0,0,0,.5.16,1.48,1.48,0,0,0,.85-.27,1.14,1.14,0,0,0,.41-1Z"/><path class="cls-6" d="M34.51,139.75H33.09v-7.32h1.42Z"/><path class="cls-6" d="M134.77,137.36a1.62,1.62,0,0,0,.14.71,1,1,0,0,0,.94.52,1,1,0,0,0,.73-.29,1.06,1.06,0,0,0,.31-.82.93.93,0,0,0-.57-.95,2.93,2.93,0,0,0-1-.13v-1a2.64,2.64,0,0,0,1-.13.83.83,0,0,0,.47-.84.94.94,0,0,0-.24-.67.88.88,0,0,0-.68-.26.85.85,0,0,0-.74.32,1.35,1.35,0,0,0-.23.85h-1.32a3.53,3.53,0,0,1,.18-1,2.29,2.29,0,0,1,.55-.78,1.91,1.91,0,0,1,.66-.39,2.86,2.86,0,0,1,.94-.13,2.49,2.49,0,0,1,1.67.53,1.78,1.78,0,0,1,.63,1.43,1.58,1.58,0,0,1-.38,1.07,1.29,1.29,0,0,1-.5.37,1,1,0,0,1,.56.33,1.78,1.78,0,0,1,.54,1.37,2.31,2.31,0,0,1-.63,1.61,2.41,2.41,0,0,1-1.87.69,2.27,2.27,0,0,1-2.12-1,3,3,0,0,1-.35-1.39Z"/><path class="cls-6" d="M143.5,133.29a7.1,7.1,0,0,1,0,5.5,2.42,2.42,0,0,1-3.86,0,7.1,7.1,0,0,1,0-5.5,2.41,2.41,0,0,1,3.86,0Zm-2.76,4.65a.82.82,0,0,0,.83.66.81.81,0,0,0,.83-.66,7,7,0,0,0,.2-1.9,7,7,0,0,0-.2-1.93.8.8,0,0,0-.83-.63.81.81,0,0,0-.83.63,6.71,6.71,0,0,0-.2,1.93A6.79,6.79,0,0,0,140.74,137.94Z"/><path class="cls-6" d="M145,140.75a1.12,1.12,0,0,0,.63-.4,1.47,1.47,0,0,0,.23-.78H145v-1.49h1.53v1.29a3,3,0,0,1-.09.71,1.43,1.43,0,0,1-.33.64,1.71,1.71,0,0,1-.62.43,1.59,1.59,0,0,1-.49.15Z"/><path class="cls-6" d="M152.58,138h-.81v1.55h-1.39V138h-2.85v-1.24l2.65-4.37h1.59v4.5h.81Zm-2.2-1.11v-3.1l-1.8,3.1Z"/><path class="cls-6" d="M157.64,133.29a7.1,7.1,0,0,1,0,5.5,2.42,2.42,0,0,1-3.86,0,7.1,7.1,0,0,1,0-5.5,2.41,2.41,0,0,1,3.86,0Zm-2.76,4.65a.82.82,0,0,0,.83.66.81.81,0,0,0,.83-.66,7,7,0,0,0,.2-1.9,7,7,0,0,0-.2-1.93.8.8,0,0,0-.83-.63.81.81,0,0,0-.83.63,6.71,6.71,0,0,0-.2,1.93A6.79,6.79,0,0,0,154.88,137.94Z"/><path class="cls-6" d="M163.89,138h-.81v1.55h-1.39V138h-2.85v-1.24l2.65-4.37h1.59v4.5h.81Zm-2.2-1.11v-3.1l-1.8,3.1Z"/><path class="cls-6" d="M194.21,133.57a8.87,8.87,0,0,0-.89,1.12,9.18,9.18,0,0,0-1.5,3.3,6.81,6.81,0,0,0-.24,1.59h-1.47a8.66,8.66,0,0,1,1.27-4,9.54,9.54,0,0,1,1.31-1.81h-3.59l0-1.27h5.09Z"/><path class="cls-6" d="M195.09,140.75a1.12,1.12,0,0,0,.63-.4,1.47,1.47,0,0,0,.23-.78h-.86v-1.49h1.53v1.29a3,3,0,0,1-.09.71,1.43,1.43,0,0,1-.33.64,1.71,1.71,0,0,1-.62.43,1.59,1.59,0,0,1-.49.15Z"/><path class="cls-6" d="M202.7,133.57a8.87,8.87,0,0,0-.89,1.12,9.18,9.18,0,0,0-1.5,3.3,6.81,6.81,0,0,0-.24,1.59H198.6a8.66,8.66,0,0,1,1.27-4,9.54,9.54,0,0,1,1.31-1.81h-3.59l0-1.27h5.09Z"/><path class="cls-6" d="M203.64,138.16a4,4,0,0,1,1.43-1.53,10.39,10.39,0,0,0,1.27-1,1.48,1.48,0,0,0,.44-1,1.15,1.15,0,0,0-.25-.76.89.89,0,0,0-.73-.3.88.88,0,0,0-.88.48,2.38,2.38,0,0,0-.16.88h-1.38a3.47,3.47,0,0,1,.33-1.49,2.07,2.07,0,0,1,2-1.08,2.55,2.55,0,0,1,1.82.63,2.19,2.19,0,0,1,.68,1.68,2.27,2.27,0,0,1-.48,1.42,4.75,4.75,0,0,1-1,.92l-.57.4q-.53.38-.73.55a1.58,1.58,0,0,0-.33.39h3.14v1.25h-4.93A3.38,3.38,0,0,1,203.64,138.16Z"/><path class="cls-6" d="M214,138h-.81v1.55h-1.39V138h-2.85v-1.24l2.65-4.37h1.59v4.5H214Zm-2.2-1.11v-3.1l-1.8,3.1Z"/><rect class="cls-4" width="231.35" height="29.21" rx="14.6" ry="14.6"/><path class="cls-7" d="M36.68,15.18a3.78,3.78,0,0,1-2.49.73H32.13v3.57H30.07V9.55h4.26a3.44,3.44,0,0,1,2.35.77,3,3,0,0,1,.88,2.38A3.08,3.08,0,0,1,36.68,15.18ZM35.1,11.6a1.67,1.67,0,0,0-1.1-.33H32.13v2.92H34a1.58,1.58,0,0,0,1.1-.36,1.46,1.46,0,0,0,.39-1.13A1.37,1.37,0,0,0,35.1,11.6Z"/><path class="cls-7" d="M46.86,18.59a4.33,4.33,0,0,1-3.25,1.16,4.33,4.33,0,0,1-3.25-1.16,5.35,5.35,0,0,1-1.51-4.09,5.25,5.25,0,0,1,1.51-4.09,4.33,4.33,0,0,1,3.25-1.16,4.33,4.33,0,0,1,3.25,1.16,5.26,5.26,0,0,1,1.5,4.09A5.37,5.37,0,0,1,46.86,18.59Zm-1.3-1.51a4.06,4.06,0,0,0,.72-2.59,4.07,4.07,0,0,0-.72-2.58,2.37,2.37,0,0,0-2-.91,2.4,2.4,0,0,0-2,.91,4,4,0,0,0-.73,2.59,4,4,0,0,0,.73,2.59,2.4,2.4,0,0,0,2,.91A2.37,2.37,0,0,0,45.57,17.08Z"/><path class="cls-7" d="M56.31,9.8a2.46,2.46,0,0,1,.93.69,3.11,3.11,0,0,1,.5.84,2.79,2.79,0,0,1,.18,1,3,3,0,0,1-.36,1.39,2,2,0,0,1-1.18,1,1.85,1.85,0,0,1,1,.79,3.26,3.26,0,0,1,.29,1.55v.67a5.06,5.06,0,0,0,.05.92.83.83,0,0,0,.38.57v.25H55.79q-.1-.33-.13-.53a4.93,4.93,0,0,1-.09-.85v-.92a1.87,1.87,0,0,0-.33-1.27A1.67,1.67,0,0,0,54,15.58H52v3.89H50V9.55h4.75A4.33,4.33,0,0,1,56.31,9.8ZM52,11.27v2.67h2.23a2.39,2.39,0,0,0,1-.16,1.12,1.12,0,0,0,.59-1.12,1.25,1.25,0,0,0-.57-1.21,2.05,2.05,0,0,0-1-.17Z"/><path class="cls-7" d="M71,9.55V11.3H68v8.17H65.9V11.3h-3V9.55Z"/><path class="cls-7" d="M74.06,19.47H72V9.55h2.06Z"/><path class="cls-7" d="M82.66,15.18a3.78,3.78,0,0,1-2.49.73H78.11v3.57H76V9.55h4.26a3.44,3.44,0,0,1,2.35.77,3,3,0,0,1,.88,2.38A3.08,3.08,0,0,1,82.66,15.18ZM81.08,11.6a1.67,1.67,0,0,0-1.1-.33H78.11v2.92H80a1.58,1.58,0,0,0,1.1-.36,1.46,1.46,0,0,0,.39-1.13A1.37,1.37,0,0,0,81.08,11.6Z"/><path class="cls-7" d="M92.84,18.59a5.15,5.15,0,0,1-6.51,0,5.35,5.35,0,0,1-1.51-4.09,5.25,5.25,0,0,1,1.51-4.09,5.15,5.15,0,0,1,6.51,0,5.26,5.26,0,0,1,1.5,4.09A5.37,5.37,0,0,1,92.84,18.59Zm-1.3-1.51a4.06,4.06,0,0,0,.72-2.59,4.07,4.07,0,0,0-.72-2.58,2.37,2.37,0,0,0-2-.91,2.4,2.4,0,0,0-2,.91,4,4,0,0,0-.73,2.59,4,4,0,0,0,.73,2.59,2.4,2.4,0,0,0,2,.91A2.37,2.37,0,0,0,91.55,17.08Z"/><path class="cls-7" d="M105.57,9.76A3.27,3.27,0,0,1,107.27,11a4.41,4.41,0,0,1,.71,1.6,7.67,7.67,0,0,1,.19,1.64,6.6,6.6,0,0,1-.79,3.35A3.59,3.59,0,0,1,104,19.47H99.76V9.55H104A5.21,5.21,0,0,1,105.57,9.76Zm-3.8,1.51v6.48h1.92a2.07,2.07,0,0,0,2.05-1.45,5.08,5.08,0,0,0,.32-1.89,4.66,4.66,0,0,0-.48-2.33,2,2,0,0,0-1.89-.81Z"/><path class="cls-7" d="M117.06,11.3h-5.25v2.11h4.82v1.72h-4.82v2.55h5.5v1.78h-7.52V9.55h7.28Z"/><path class="cls-7" d="M123.7,10.58a4.63,4.63,0,0,1,6.68.42,3.58,3.58,0,0,1,.68,1.85H129a2.83,2.83,0,0,0-.51-1.08,2.25,2.25,0,0,0-3.39.27,4.46,4.46,0,0,0-.64,2.58,3.91,3.91,0,0,0,.67,2.5,2.12,2.12,0,0,0,1.72.83,1.94,1.94,0,0,0,1.63-.71,3.14,3.14,0,0,0,.51-1.15H131a4.47,4.47,0,0,1-1.36,2.64,4,4,0,0,1-2.81,1,4.21,4.21,0,0,1-3.33-1.37,5.54,5.54,0,0,1-1.21-3.79A5.49,5.49,0,0,1,123.7,10.58Z"/><path class="cls-7" d="M140.35,18.59a5.15,5.15,0,0,1-6.51,0,5.35,5.35,0,0,1-1.51-4.09,5.25,5.25,0,0,1,1.51-4.09,5.15,5.15,0,0,1,6.51,0,5.26,5.26,0,0,1,1.5,4.09A5.37,5.37,0,0,1,140.35,18.59Zm-1.3-1.51a4.06,4.06,0,0,0,.72-2.59,4.07,4.07,0,0,0-.72-2.58,2.37,2.37,0,0,0-2-.91,2.4,2.4,0,0,0-2,.91,4,4,0,0,0-.73,2.59,4,4,0,0,0,.73,2.59,2.4,2.4,0,0,0,2,.91A2.37,2.37,0,0,0,139.06,17.08Z"/><path class="cls-7" d="M143.4,9.55h2.17l3.94,6.92V9.55h1.93v9.93h-2.07l-4-7v7H143.4Z"/><path class="cls-7" d="M160.61,9.55V11.3h-3v8.17h-2.09V11.3h-3V9.55Z"/><path class="cls-7" d="M168.19,9.8a2.46,2.46,0,0,1,.93.69,3.11,3.11,0,0,1,.5.84,2.79,2.79,0,0,1,.18,1,3,3,0,0,1-.36,1.39,2,2,0,0,1-1.18,1,1.85,1.85,0,0,1,1,.79,3.26,3.26,0,0,1,.29,1.55v.67a5.06,5.06,0,0,0,.05.92.83.83,0,0,0,.38.57v.25h-2.29q-.1-.33-.13-.53a4.93,4.93,0,0,1-.09-.85v-.92a1.87,1.87,0,0,0-.33-1.27,1.67,1.67,0,0,0-1.18-.32h-2v3.89h-2V9.55h4.75A4.33,4.33,0,0,1,168.19,9.8Zm-4.29,1.47v2.67h2.23a2.39,2.39,0,0,0,1-.16,1.12,1.12,0,0,0,.59-1.12,1.25,1.25,0,0,0-.57-1.21,2.05,2.05,0,0,0-1-.17Z"/><path class="cls-7" d="M174.62,9.55H177l3.51,9.93h-2.25l-.66-2h-3.66l-.67,2h-2.17Zm-.14,6.18H177l-1.25-3.91Z"/><path class="cls-7" d="M189,9.55V11.3h-3v8.17H183.9V11.3h-3V9.55Z"/><path class="cls-7" d="M197.81,18.59a5.15,5.15,0,0,1-6.51,0,5.35,5.35,0,0,1-1.51-4.09,5.25,5.25,0,0,1,1.51-4.09,5.15,5.15,0,0,1,6.51,0,5.26,5.26,0,0,1,1.5,4.09A5.37,5.37,0,0,1,197.81,18.59Zm-1.3-1.51a4.06,4.06,0,0,0,.72-2.59,4.07,4.07,0,0,0-.72-2.58,2.37,2.37,0,0,0-2-.91,2.4,2.4,0,0,0-2,.91,4,4,0,0,0-.73,2.59,4,4,0,0,0,.73,2.59,2.4,2.4,0,0,0,2,.91A2.37,2.37,0,0,0,196.52,17.08Z"/><line class="cls-8" x1="120.6" y1="85.69" x2="120.6" y2="127.97"/><line class="cls-8" x1="176.77" y1="85.69" x2="176.77" y2="127.97"/><path class="cls-4" d="M212.54,61.32H191a2.23,2.23,0,0,1,0-.87,4.65,4.65,0,0,1,.38-1.3,2.7,2.7,0,0,1,1-1.11,14.11,14.11,0,0,1,2.52-1.25l1.88-.78c1.76-.79,2-1.4,2-1.5a1.3,1.3,0,0,0,0-.17c0-.13,0-.26,0-.4V53.6c-3.81,0-4.94-1.6-4.94-1.6s2.18,0,2-5.79,2.52-6.7,3.51-7.08c2.88-1.09,4.33.65,4.33.65,3.34-.31,4.26,3.34,3.85,7.49s1.87,4.8,1.87,4.8c-1.57,1.6-4.87,1.5-4.87,1.5v.77a1.32,1.32,0,0,0,0,.17c0,.1.26.7,2,1.5l1.88.78A14.09,14.09,0,0,1,211.14,58a2.7,2.7,0,0,1,1,1.11,4.64,4.64,0,0,1,.38,1.3,2.22,2.22,0,0,1,0,.87"/><path class="cls-3" d="M160.63,61.78H138.51V58.66A2.2,2.2,0,0,1,139.3,57a35.8,35.8,0,0,1,6.49-4.16.2.2,0,0,0,.11-.18V50.52a5,5,0,0,1-.63-1.71c-.24,0-.56-.34-.9-1.56-.44-1.55,0-1.86.37-1.86-.21-.9-.75-4.06,1.59-5.49a1.26,1.26,0,0,1-.46-1,17.63,17.63,0,0,0,4,0,2.65,2.65,0,0,1,2.9,1.73s2.62,0,1.6,4.68c.41,0,.85.26.4,1.86-.34,1.2-.66,1.54-.9,1.56a5,5,0,0,1-.63,1.71v2.1a.2.2,0,0,0,.11.18A35.8,35.8,0,0,1,159.83,57a2.19,2.19,0,0,1,.79,1.71Z"/></g></g></svg>
