<svg xmlns="http://www.w3.org/2000/svg" viewBox="0 0 231.35 205.14"><defs><style>.cls-1,.cls-2,.cls-3{fill:#7b69ab;}.cls-1{opacity:0.3;}.cls-2{opacity:0.63;}.cls-4{fill:#5a4494;}.cls-5{fill:#473a73;}.cls-6{fill:#352f54;}.cls-7{fill:#fff;}.cls-8{fill:none;stroke:#a3a2a2;stroke-miterlimit:10;stroke-width:0.5px;}</style></defs><title>edad</title><g id="Layer_2" data-name="Layer 2"><g id="Layer_1-2" data-name="Layer 1"><rect class="cls-1" x="1.25" y="105.67" width="229.77" height="15.15" rx="7.58" ry="7.58"/><rect class="cls-1" x="1.25" y="145.26" width="229.77" height="15.15" rx="7.58" ry="7.58"/><rect class="cls-2" x="0.62" y="189.98" width="230.4" height="15.15" rx="7.58" ry="7.58"/><path class="cls-3" d="M128.38,78.37V71h1.52v2.79h2.85V71h1.52v7.32h-1.52V75.1H129.9v3.27Z"/><path class="cls-3" d="M140.14,77.71a3,3,0,0,1-4.16,0,3.36,3.36,0,0,1,0-4.07,3,3,0,0,1,4.16,0,3.36,3.36,0,0,1,0,4.07ZM139,76.92a2.53,2.53,0,0,0,0-2.51,1.26,1.26,0,0,0-1.91,0,2.51,2.51,0,0,0,0,2.51,1.25,1.25,0,0,0,1.91,0Z"/><path class="cls-3" d="M148.59,73a1.57,1.57,0,0,1,.63.49,1.55,1.55,0,0,1,.31.7,4.79,4.79,0,0,1,0,.8v3.41h-1.45V74.92a1.13,1.13,0,0,0-.1-.51.71.71,0,0,0-.7-.38.81.81,0,0,0-.81.49,1.53,1.53,0,0,0-.11.62v3.22H145V75.14a1.81,1.81,0,0,0-.1-.7.69.69,0,0,0-.7-.39.83.83,0,0,0-.81.39,1.51,1.51,0,0,0-.11.67v3.26h-1.44V73h1.38v.79a2.29,2.29,0,0,1,.5-.6,2,2,0,0,1,2.07,0,1.59,1.59,0,0,1,.47.65,1.8,1.8,0,0,1,.69-.7,2.11,2.11,0,0,1,1-.22A1.88,1.88,0,0,1,148.59,73Z"/><path class="cls-3" d="M155.51,73.6a3.11,3.11,0,0,1,.61,2,3.48,3.48,0,0,1-.6,2.09,2.18,2.18,0,0,1-2.76.56,2.15,2.15,0,0,1-.53-.56v.68h-1.4V71.06h1.42v2.6a2.06,2.06,0,0,1,.59-.58,1.78,1.78,0,0,1,1-.25A2,2,0,0,1,155.51,73.6Zm-1.18,3.3a2,2,0,0,0,.31-1.16,2.59,2.59,0,0,0-.15-1,1,1,0,0,0-1.05-.72,1.06,1.06,0,0,0-1.07.7,2.6,2.6,0,0,0-.15,1,2,2,0,0,0,.31,1.15,1.07,1.07,0,0,0,.95.46A1,1,0,0,0,154.32,76.9Z"/><path class="cls-3" d="M160.1,72.83h.12v1.45l-.24,0h-.17a1.17,1.17,0,0,0-1.15.56,2.16,2.16,0,0,0-.16,1v2.59h-1.43V73h1.35v.94a3,3,0,0,1,.57-.74,1.55,1.55,0,0,1,1-.33Z"/><path class="cls-3" d="M164.58,73.06a2.2,2.2,0,0,1,.94.8A2.66,2.66,0,0,1,166,75a6.93,6.93,0,0,1,0,1.07h-3.94a1.3,1.3,0,0,0,.57,1.14,1.44,1.44,0,0,0,.78.2,1.1,1.1,0,0,0,1.08-.62h1.45a1.77,1.77,0,0,1-.52,1,2.63,2.63,0,0,1-2,.79,3,3,0,0,1-1.91-.67,2.62,2.62,0,0,1-.83-2.17,2.93,2.93,0,0,1,.75-2.16,2.61,2.61,0,0,1,1.94-.75A3.08,3.08,0,0,1,164.58,73.06Zm-2.12,1.22a1.48,1.48,0,0,0-.38.84h2.44a1.18,1.18,0,0,0-.38-.86,1.24,1.24,0,0,0-.84-.29A1.13,1.13,0,0,0,162.47,74.29Z"/><path class="cls-3" d="M167.81,76.64a1,1,0,0,0,.19.54,1.32,1.32,0,0,0,1,.28,1.49,1.49,0,0,0,.67-.12.4.4,0,0,0,.25-.37.4.4,0,0,0-.2-.36,8.17,8.17,0,0,0-1.48-.43,3.08,3.08,0,0,1-1.3-.57,1.24,1.24,0,0,1-.38-1,1.69,1.69,0,0,1,.59-1.29,2.37,2.37,0,0,1,1.66-.54,3.05,3.05,0,0,1,1.66.4,1.74,1.74,0,0,1,.73,1.4h-1.42a.83.83,0,0,0-.15-.43,1,1,0,0,0-.8-.29,1.14,1.14,0,0,0-.66.14.42.42,0,0,0-.2.34.37.37,0,0,0,.21.35,9,9,0,0,0,1.48.39,2.71,2.71,0,0,1,1.27.6,1.37,1.37,0,0,1,.42,1,1.65,1.65,0,0,1-.6,1.31A3.61,3.61,0,0,1,167,78a1.75,1.75,0,0,1-.61-1.37Z"/><path class="cls-4" d="M190.34,71h2.2v7.32h-1.43v-5q0-.21,0-.6t0-.59l-1.39,6.14h-1.49l-1.38-6.14q0,.21,0,.59t0,.6v5h-1.43V71h2.23L189,76.8Z"/><path class="cls-4" d="M195.26,73v3.26a1.7,1.7,0,0,0,.11.7.75.75,0,0,0,.76.41,1,1,0,0,0,1-.59,2.12,2.12,0,0,0,.14-.84V73h1.44v5.41h-1.38V77.6l-.1.15A1,1,0,0,1,197,78a2,2,0,0,1-.64.41,2.18,2.18,0,0,1-.73.11,1.62,1.62,0,0,1-1.62-.86,3.32,3.32,0,0,1-.23-1.41V73Z"/><path class="cls-4" d="M199.45,79.41h.26a.44.44,0,0,0,.32-.1.55.55,0,0,0,.11-.4V73h1.42v6a1.89,1.89,0,0,1-.32,1.21,1.6,1.6,0,0,1-1.27.39h-.51Zm2.1-7.1h-1.42V71h1.42Z"/><path class="cls-4" d="M206.42,73.06a2.2,2.2,0,0,1,.94.8,2.66,2.66,0,0,1,.43,1.12,6.93,6.93,0,0,1,0,1.07h-3.94a1.3,1.3,0,0,0,.57,1.14,1.44,1.44,0,0,0,.78.2,1.1,1.1,0,0,0,1.08-.62h1.45a1.77,1.77,0,0,1-.52,1,2.63,2.63,0,0,1-2,.79,3,3,0,0,1-1.91-.67,2.62,2.62,0,0,1-.83-2.17,2.93,2.93,0,0,1,.75-2.16,2.61,2.61,0,0,1,1.94-.75A3.08,3.08,0,0,1,206.42,73.06Zm-2.12,1.22a1.48,1.48,0,0,0-.38.84h2.44a1.18,1.18,0,0,0-.38-.86,1.24,1.24,0,0,0-.84-.29A1.13,1.13,0,0,0,204.3,74.29Z"/><path class="cls-4" d="M211.55,72.83h.12v1.45l-.24,0h-.17a1.17,1.17,0,0,0-1.15.56,2.16,2.16,0,0,0-.16,1v2.59h-1.42V73h1.35v.94a3,3,0,0,1,.57-.74,1.56,1.56,0,0,1,1-.33Z"/><path class="cls-4" d="M216,73.06a2.2,2.2,0,0,1,.94.8A2.67,2.67,0,0,1,217.4,75a7,7,0,0,1,0,1.07H213.5a1.3,1.3,0,0,0,.57,1.14,1.44,1.44,0,0,0,.78.2,1.1,1.1,0,0,0,1.08-.62h1.45a1.77,1.77,0,0,1-.53,1,2.63,2.63,0,0,1-2,.79,3,3,0,0,1-1.91-.67,2.62,2.62,0,0,1-.83-2.17,2.93,2.93,0,0,1,.75-2.16,2.61,2.61,0,0,1,1.94-.75A3.08,3.08,0,0,1,216,73.06Zm-2.12,1.22a1.47,1.47,0,0,0-.38.84H216a1.18,1.18,0,0,0-.38-.86,1.24,1.24,0,0,0-.84-.29A1.12,1.12,0,0,0,213.92,74.29Z"/><path class="cls-4" d="M219.26,76.64a1,1,0,0,0,.2.54,1.32,1.32,0,0,0,1,.28,1.5,1.5,0,0,0,.67-.12.42.42,0,0,0,0-.74,8.15,8.15,0,0,0-1.48-.43,3.07,3.07,0,0,1-1.3-.57,1.24,1.24,0,0,1-.38-1,1.69,1.69,0,0,1,.59-1.29,2.37,2.37,0,0,1,1.66-.54,3,3,0,0,1,1.66.4,1.73,1.73,0,0,1,.73,1.4h-1.42a.83.83,0,0,0-.15-.43,1,1,0,0,0-.8-.29,1.15,1.15,0,0,0-.66.14.41.41,0,0,0-.2.34.37.37,0,0,0,.21.35,9,9,0,0,0,1.48.39,2.71,2.71,0,0,1,1.27.6,1.37,1.37,0,0,1,.42,1,1.65,1.65,0,0,1-.6,1.31,2.83,2.83,0,0,1-1.85.51,2.8,2.8,0,0,1-1.89-.54,1.75,1.75,0,0,1-.61-1.37Z"/><path class="cls-5" d="M14.63,110.51H10.75v1.55h3.56v1.27H10.75v1.88H14.8v1.32H9.26v-7.32h5.37Z"/><path class="cls-5" d="M19.69,111.43a1.79,1.79,0,0,1,.53,1.46v3.65H18.77v-3.29a1.52,1.52,0,0,0-.11-.66.8.8,0,0,0-.79-.42,1,1,0,0,0-1,.61,2.12,2.12,0,0,0-.14.82v2.93H15.33v-5.4H16.7v.79a2.41,2.41,0,0,1,.51-.6,1.78,1.78,0,0,1,1.1-.33A2.08,2.08,0,0,1,19.69,111.43Z"/><path class="cls-5" d="M20.42,112.18v-1h.75v-1.51h1.4v1.51h.88v1h-.88V115a.64.64,0,0,0,.08.42.93.93,0,0,0,.52.08h.28v1.06l-.67,0a1.8,1.8,0,0,1-1.37-.35,1,1,0,0,1-.24-.75v-3.33Z"/><path class="cls-5" d="M26.81,111h.12v1.45l-.24,0h-.17a1.17,1.17,0,0,0-1.15.56,2.17,2.17,0,0,0-.16,1v2.59H23.79v-5.41h1.35v.94a3,3,0,0,1,.57-.74,1.55,1.55,0,0,1,1-.33Z"/><path class="cls-5" d="M30.73,111.23a2.2,2.2,0,0,1,.94.8,2.66,2.66,0,0,1,.43,1.12,6.92,6.92,0,0,1,0,1.07H28.2a1.3,1.3,0,0,0,.57,1.14,1.44,1.44,0,0,0,.78.2,1.1,1.1,0,0,0,1.08-.62h1.45a1.77,1.77,0,0,1-.52,1,2.63,2.63,0,0,1-2,.79,3,3,0,0,1-1.91-.67,2.62,2.62,0,0,1-.83-2.17,2.93,2.93,0,0,1,.75-2.16,2.61,2.61,0,0,1,1.94-.75A3.09,3.09,0,0,1,30.73,111.23Zm-2.12,1.22a1.48,1.48,0,0,0-.38.84h2.44a1.18,1.18,0,0,0-.38-.86,1.24,1.24,0,0,0-.84-.29A1.12,1.12,0,0,0,28.62,112.45Z"/><path class="cls-5" d="M35.57,114.33a1.62,1.62,0,0,0,.14.71,1,1,0,0,0,.94.52,1,1,0,0,0,.73-.29,1.06,1.06,0,0,0,.31-.82.93.93,0,0,0-.57-.95,2.92,2.92,0,0,0-1-.13v-1a2.64,2.64,0,0,0,1-.13.83.83,0,0,0,.47-.84.94.94,0,0,0-.24-.67.88.88,0,0,0-.68-.26.85.85,0,0,0-.74.32,1.35,1.35,0,0,0-.23.85H34.31a3.53,3.53,0,0,1,.18-1,2.29,2.29,0,0,1,.55-.78,1.9,1.9,0,0,1,.66-.39,2.87,2.87,0,0,1,.94-.13,2.49,2.49,0,0,1,1.66.53,1.78,1.78,0,0,1,.63,1.43,1.59,1.59,0,0,1-.38,1.07,1.29,1.29,0,0,1-.5.37,1,1,0,0,1,.56.33,1.78,1.78,0,0,1,.54,1.37,2.31,2.31,0,0,1-.63,1.61,2.41,2.41,0,0,1-1.87.69,2.27,2.27,0,0,1-2.12-1,3,3,0,0,1-.35-1.39Z"/><path class="cls-5" d="M43.74,110.25a7.1,7.1,0,0,1,0,5.5,2.42,2.42,0,0,1-3.86,0,7.1,7.1,0,0,1,0-5.5,2.41,2.41,0,0,1,3.86,0ZM41,114.9a.82.82,0,0,0,.83.66.81.81,0,0,0,.83-.66,7,7,0,0,0,.2-1.9,7,7,0,0,0-.2-1.93.8.8,0,0,0-.83-.63.81.81,0,0,0-.83.63,6.67,6.67,0,0,0-.2,1.93A6.74,6.74,0,0,0,41,114.9Z"/><path class="cls-5" d="M47.25,117.57h.18a2.3,2.3,0,0,0,.4,0,.72.72,0,0,0,.32-.11.76.76,0,0,0,.23-.35.87.87,0,0,0,.09-.33l-2-5.65h1.57l1.18,4,1.12-4h1.5L50,116.45a7.51,7.51,0,0,1-.85,1.91,1.62,1.62,0,0,1-1.25.37h-.3l-.34,0Z"/><path class="cls-5" d="M55.4,114.33a1.63,1.63,0,0,0,.14.71,1,1,0,0,0,.94.52,1,1,0,0,0,.73-.29,1.06,1.06,0,0,0,.31-.82.93.93,0,0,0-.57-.95,2.92,2.92,0,0,0-1-.13v-1a2.64,2.64,0,0,0,1-.13.83.83,0,0,0,.47-.84.94.94,0,0,0-.24-.67.88.88,0,0,0-.68-.26.86.86,0,0,0-.74.32,1.35,1.35,0,0,0-.23.85H54.14a3.56,3.56,0,0,1,.18-1,2.3,2.3,0,0,1,.55-.78,1.91,1.91,0,0,1,.66-.39,2.87,2.87,0,0,1,.94-.13,2.49,2.49,0,0,1,1.67.53,1.78,1.78,0,0,1,.63,1.43,1.58,1.58,0,0,1-.38,1.07,1.29,1.29,0,0,1-.5.37,1,1,0,0,1,.56.33,1.78,1.78,0,0,1,.54,1.37,2.31,2.31,0,0,1-.63,1.61,2.41,2.41,0,0,1-1.87.69,2.26,2.26,0,0,1-2.12-1,3,3,0,0,1-.35-1.39Z"/><path class="cls-5" d="M64.16,115h-.81v1.55H62V115H59.11v-1.24l2.65-4.37h1.59v4.5h.81ZM62,113.88v-3.1l-1.8,3.1Z"/><path class="cls-5" d="M69,113.24a2.24,2.24,0,0,0,.57-.12.43.43,0,0,0,.3-.4.48.48,0,0,0-.23-.46,1.49,1.49,0,0,0-.69-.13.9.9,0,0,0-.72.25,1,1,0,0,0-.2.5H66.67a2.07,2.07,0,0,1,.4-1.17A2.33,2.33,0,0,1,69,111a3.45,3.45,0,0,1,1.59.35,1.35,1.35,0,0,1,.69,1.33v2.48c0,.17,0,.38,0,.63a.78.78,0,0,0,.08.38.5.5,0,0,0,.21.16v.21H70a1.59,1.59,0,0,1-.09-.31c0-.1,0-.21,0-.33a2.92,2.92,0,0,1-.68.54,2.06,2.06,0,0,1-1,.26,1.79,1.79,0,0,1-1.22-.42,1.49,1.49,0,0,1-.48-1.19,1.54,1.54,0,0,1,.78-1.45,3.46,3.46,0,0,1,1.25-.35Zm.87.66a1.5,1.5,0,0,1-.27.14,2.22,2.22,0,0,1-.38.1l-.32.06a2.13,2.13,0,0,0-.65.19.64.64,0,0,0-.33.6.63.63,0,0,0,.2.52.78.78,0,0,0,.5.16,1.48,1.48,0,0,0,.85-.27,1.14,1.14,0,0,0,.41-1Z"/><path class="cls-5" d="M76.33,111.43a1.79,1.79,0,0,1,.53,1.46v3.65H75.41v-3.29a1.51,1.51,0,0,0-.11-.66.8.8,0,0,0-.79-.42,1,1,0,0,0-1,.61,2.1,2.1,0,0,0-.14.82v2.93H72v-5.4h1.37v.79a2.43,2.43,0,0,1,.51-.6A1.78,1.78,0,0,1,75,111,2.08,2.08,0,0,1,76.33,111.43Zm-2.26-2.33.22.07.47.18.27.09.14,0a.39.39,0,0,0,.33-.13.8.8,0,0,0,.14-.3h.66a2,2,0,0,1-.36.88.91.91,0,0,1-.78.35,1.82,1.82,0,0,1-.44-.08l-.31-.09L74,110l-.16,0h-.16a.43.43,0,0,0-.31.11.65.65,0,0,0-.17.32h-.65a2.31,2.31,0,0,1,.28-.78,1.06,1.06,0,0,1,.94-.47A1.13,1.13,0,0,1,74.06,109.1Z"/><path class="cls-5" d="M82.13,115.87a3,3,0,0,1-4.16,0,3.36,3.36,0,0,1,0-4.07,3,3,0,0,1,4.16,0,3.36,3.36,0,0,1,0,4.07ZM81,115.09a2.53,2.53,0,0,0,0-2.51,1.26,1.26,0,0,0-1.91,0,2.51,2.51,0,0,0,0,2.51,1.25,1.25,0,0,0,1.91,0Z"/><path class="cls-5" d="M84.37,114.81a.94.94,0,0,0,.2.54,1.31,1.31,0,0,0,1,.28,1.5,1.5,0,0,0,.67-.12.4.4,0,0,0,.25-.37.4.4,0,0,0-.2-.36,8.21,8.21,0,0,0-1.48-.43,3.07,3.07,0,0,1-1.3-.57,1.24,1.24,0,0,1-.38-1,1.69,1.69,0,0,1,.59-1.29,2.37,2.37,0,0,1,1.66-.54,3,3,0,0,1,1.66.41,1.73,1.73,0,0,1,.73,1.4H86.32a.83.83,0,0,0-.15-.43,1,1,0,0,0-.8-.29,1.14,1.14,0,0,0-.66.14.41.41,0,0,0-.2.34.37.37,0,0,0,.21.35,9,9,0,0,0,1.48.39,2.71,2.71,0,0,1,1.27.6,1.37,1.37,0,0,1,.42,1,1.64,1.64,0,0,1-.6,1.31,3.61,3.61,0,0,1-3.74,0,1.75,1.75,0,0,1-.61-1.37Z"/><path class="cls-3" d="M137.67,115a1.24,1.24,0,0,0,.71,1.06,1.72,1.72,0,0,0,.73.15,1.38,1.38,0,0,0,1.18-.51,1.82,1.82,0,0,0,.38-1.12,1.47,1.47,0,0,0-.46-1.15,1.58,1.58,0,0,0-1.09-.41,1.65,1.65,0,0,0-.79.18,1.69,1.69,0,0,0-.56.5l-.78,0,.54-3.83h3.7v.86h-3l-.3,2a2.29,2.29,0,0,1,.47-.28,2.39,2.39,0,0,1,.92-.16,2.35,2.35,0,0,1,1.66.63,2.09,2.09,0,0,1,.68,1.6,2.74,2.74,0,0,1-.62,1.78,2.41,2.41,0,0,1-2,.77,2.53,2.53,0,0,1-1.54-.49,1.94,1.94,0,0,1-.75-1.5Z"/><path class="cls-3" d="M142.92,117.86a.63.63,0,0,0,.48-.48,1.37,1.37,0,0,0,.07-.43s0,0,0-.06a.35.35,0,0,0,0-.06h-.54v-1.08H144v1a2.17,2.17,0,0,1-.24,1,1.08,1.08,0,0,1-.83.55Z"/><path class="cls-3" d="M146.25,115.1a1.13,1.13,0,0,0,.57,1,1.27,1.27,0,0,0,.62.15,1.38,1.38,0,0,0,1.09-.53,4.4,4.4,0,0,0,.64-2.17,1.66,1.66,0,0,1-.74.66,2.34,2.34,0,0,1-.95.19,2.12,2.12,0,0,1-1.63-.64,2.31,2.31,0,0,1-.6-1.65,2.63,2.63,0,0,1,.59-1.7,2.1,2.1,0,0,1,1.74-.73,2.14,2.14,0,0,1,2.15,1.4,4.93,4.93,0,0,1,.33,1.93,6.36,6.36,0,0,1-.39,2.31,2.27,2.27,0,0,1-2.21,1.68,2.14,2.14,0,0,1-1.58-.55,1.87,1.87,0,0,1-.54-1.37Zm2.33-1.81a1.48,1.48,0,0,0,.44-1.22,1.57,1.57,0,0,0-.39-1.17,1.38,1.38,0,0,0-1-.38,1.32,1.32,0,0,0-1,.44,1.71,1.71,0,0,0-.38,1.17,1.68,1.68,0,0,0,.34,1.1,1.32,1.32,0,0,0,1.08.41A1.52,1.52,0,0,0,148.58,113.29Z"/><path class="cls-3" d="M155.88,109.83v.78a8.34,8.34,0,0,0-.91,1.16,11.68,11.68,0,0,0-1,1.78,12.08,12.08,0,0,0-.66,1.69q-.15.49-.37,1.58h-1a12.15,12.15,0,0,1,1.49-4.05,12.82,12.82,0,0,1,1.43-2h-3.93v-.9Z"/><path class="cls-3" d="M160.85,110.29a2.09,2.09,0,0,1,.47,1.27h-.88a1.62,1.62,0,0,0-.25-.66,1.12,1.12,0,0,0-1-.45,1.35,1.35,0,0,0-1.19.69,4,4,0,0,0-.49,2,1.94,1.94,0,0,1,.78-.68,2.23,2.23,0,0,1,1-.2,2.32,2.32,0,0,1,1.56.57,2.12,2.12,0,0,1,.67,1.7,2.58,2.58,0,0,1-.63,1.72,2.22,2.22,0,0,1-1.8.75,2.31,2.31,0,0,1-1.72-.76,3.63,3.63,0,0,1-.73-2.55,6.85,6.85,0,0,1,.32-2.25,2.29,2.29,0,0,1,2.27-1.77A2,2,0,0,1,160.85,110.29Zm-.67,5.44a1.83,1.83,0,0,0,.35-1.12,1.91,1.91,0,0,0-.31-1,1.24,1.24,0,0,0-1.14-.49,1.48,1.48,0,0,0-1,.38,1.45,1.45,0,0,0-.43,1.15,1.68,1.68,0,0,0,.39,1.14,1.37,1.37,0,0,0,1.1.46A1.23,1.23,0,0,0,160.18,115.73Z"/><path class="cls-4" d="M191.24,111.78v-.69a3.63,3.63,0,0,0,1.35-.32,1.56,1.56,0,0,0,.57-1h.71v7.08h-1v-5Z"/><path class="cls-4" d="M196.76,117.86a.63.63,0,0,0,.48-.48,1.37,1.37,0,0,0,.08-.43.58.58,0,0,0,0-.06.35.35,0,0,0,0-.06h-.54v-1.08h1.06v1a2.17,2.17,0,0,1-.24,1,1.08,1.08,0,0,1-.82.55Z"/><path class="cls-4" d="M200,115a1.24,1.24,0,0,0,.71,1.06,1.73,1.73,0,0,0,.74.15,1.38,1.38,0,0,0,1.18-.51,1.82,1.82,0,0,0,.38-1.12,1.47,1.47,0,0,0-.45-1.15,1.58,1.58,0,0,0-1.09-.41,1.64,1.64,0,0,0-.79.18,1.7,1.7,0,0,0-.56.5l-.77,0,.54-3.83h3.7v.86h-3l-.3,2a2.26,2.26,0,0,1,.47-.28,2.39,2.39,0,0,1,.92-.16,2.35,2.35,0,0,1,1.66.63,2.08,2.08,0,0,1,.68,1.6,2.74,2.74,0,0,1-.62,1.78,2.41,2.41,0,0,1-2,.77,2.53,2.53,0,0,1-1.54-.49,1.94,1.94,0,0,1-.75-1.5Z"/><path class="cls-4" d="M209,110.29a2.09,2.09,0,0,1,.47,1.27h-.88a1.62,1.62,0,0,0-.25-.66,1.12,1.12,0,0,0-1-.45,1.35,1.35,0,0,0-1.19.69,4,4,0,0,0-.49,2,1.94,1.94,0,0,1,.78-.68,2.23,2.23,0,0,1,1-.2,2.32,2.32,0,0,1,1.56.57,2.12,2.12,0,0,1,.67,1.7,2.58,2.58,0,0,1-.63,1.72,2.22,2.22,0,0,1-1.8.75,2.31,2.31,0,0,1-1.72-.76,3.63,3.63,0,0,1-.73-2.55,6.85,6.85,0,0,1,.32-2.25,2.29,2.29,0,0,1,2.27-1.77A2,2,0,0,1,209,110.29Zm-.67,5.44a1.83,1.83,0,0,0,.35-1.12,1.91,1.91,0,0,0-.31-1,1.24,1.24,0,0,0-1.14-.49,1.48,1.48,0,0,0-1,.38,1.45,1.45,0,0,0-.43,1.15,1.68,1.68,0,0,0,.39,1.14,1.37,1.37,0,0,0,1.1.46A1.23,1.23,0,0,0,208.37,115.73Z"/><path class="cls-4" d="M214.81,110.84a5.08,5.08,0,0,1,.48,2.41,5.8,5.8,0,0,1-.43,2.4,2.11,2.11,0,0,1-2,1.36,2,2,0,0,1-1.91-1.11,5.1,5.1,0,0,1-.52-2.49,6.18,6.18,0,0,1,.31-2.08,2.14,2.14,0,0,1,2.12-1.62A2.1,2.1,0,0,1,214.81,110.84Zm-.9,4.74a4.45,4.45,0,0,0,.41-2.29,5.66,5.66,0,0,0-.3-2,1.14,1.14,0,0,0-1.16-.78,1.21,1.21,0,0,0-1.16.74,5.12,5.12,0,0,0-.37,2.19,5.36,5.36,0,0,0,.23,1.75,1.27,1.27,0,0,0,2.33.39Z"/><path class="cls-5" d="M14.07,90.19h2.2v7.32H14.84v-5q0-.21,0-.6c0-.26,0-.45,0-.59l-1.39,6.14H12L10.6,91.37c0,.14,0,.34,0,.59s0,.46,0,.6v5H9.19V90.19h2.23l1.33,5.76Z"/><path class="cls-5" d="M20.54,92.21a2.2,2.2,0,0,1,.94.8,2.66,2.66,0,0,1,.43,1.12,6.92,6.92,0,0,1,0,1.07H18a1.3,1.3,0,0,0,.57,1.14,1.44,1.44,0,0,0,.78.2,1.1,1.1,0,0,0,1.08-.62h1.45a1.77,1.77,0,0,1-.52,1,2.63,2.63,0,0,1-2,.79A3,3,0,0,1,17.41,97a2.62,2.62,0,0,1-.83-2.17,2.93,2.93,0,0,1,.75-2.16A2.61,2.61,0,0,1,19.27,92,3.09,3.09,0,0,1,20.54,92.21Zm-2.12,1.22a1.48,1.48,0,0,0-.38.84h2.44a1.18,1.18,0,0,0-.38-.86,1.24,1.24,0,0,0-.84-.29A1.12,1.12,0,0,0,18.42,93.43Z"/><path class="cls-5" d="M26.48,92.41A1.79,1.79,0,0,1,27,93.87v3.65H25.56V94.22a1.52,1.52,0,0,0-.11-.66.8.8,0,0,0-.79-.42,1,1,0,0,0-1,.61,2.12,2.12,0,0,0-.14.82v2.93H22.12v-5.4h1.37v.79a2.41,2.41,0,0,1,.51-.6,1.78,1.78,0,0,1,1.1-.33A2.08,2.08,0,0,1,26.48,92.41Z"/><path class="cls-5" d="M32.28,96.85a2.52,2.52,0,0,1-2.08.85,2.52,2.52,0,0,1-2.08-.85,3.36,3.36,0,0,1,0-4.07,2.5,2.5,0,0,1,2.08-.86,2.5,2.5,0,0,1,2.08.86,3.36,3.36,0,0,1,0,4.07Zm-1.13-.78a2.53,2.53,0,0,0,0-2.51,1.26,1.26,0,0,0-1.91,0,2.51,2.51,0,0,0,0,2.51,1.25,1.25,0,0,0,1.91,0Z"/><path class="cls-5" d="M36.43,92h.12v1.45l-.24,0h-.17A1.18,1.18,0,0,0,35,94a2.17,2.17,0,0,0-.16,1v2.59H33.41V92.1h1.35V93a3,3,0,0,1,.57-.74,1.56,1.56,0,0,1,1-.33Z"/><path class="cls-5" d="M40.35,92.21a2.21,2.21,0,0,1,.94.8,2.68,2.68,0,0,1,.43,1.12,7,7,0,0,1,0,1.07H37.82a1.3,1.3,0,0,0,.57,1.14,1.44,1.44,0,0,0,.78.2,1.1,1.1,0,0,0,1.08-.62h1.45a1.77,1.77,0,0,1-.53,1,2.63,2.63,0,0,1-2,.79A3,3,0,0,1,37.22,97a2.62,2.62,0,0,1-.83-2.17,2.93,2.93,0,0,1,.75-2.16A2.61,2.61,0,0,1,39.07,92,3.09,3.09,0,0,1,40.35,92.21Zm-2.12,1.22a1.47,1.47,0,0,0-.38.84h2.44a1.18,1.18,0,0,0-.38-.86,1.24,1.24,0,0,0-.84-.29A1.12,1.12,0,0,0,38.23,93.43Z"/><path class="cls-5" d="M43,95.79a.94.94,0,0,0,.2.54,1.31,1.31,0,0,0,1,.28,1.5,1.5,0,0,0,.67-.12.4.4,0,0,0,.25-.37.4.4,0,0,0-.2-.36,8.21,8.21,0,0,0-1.48-.43,3.07,3.07,0,0,1-1.3-.57,1.24,1.24,0,0,1-.38-1,1.69,1.69,0,0,1,.59-1.29A2.37,2.37,0,0,1,44,91.95a3,3,0,0,1,1.66.41,1.73,1.73,0,0,1,.73,1.4H45a.83.83,0,0,0-.15-.43A1,1,0,0,0,44,93a1.14,1.14,0,0,0-.66.14.41.41,0,0,0-.2.34.37.37,0,0,0,.21.35,9,9,0,0,0,1.48.39,2.71,2.71,0,0,1,1.27.6,1.37,1.37,0,0,1,.42,1,1.64,1.64,0,0,1-.6,1.31,2.82,2.82,0,0,1-1.85.51,2.8,2.8,0,0,1-1.89-.54,1.75,1.75,0,0,1-.61-1.37Z"/><path class="cls-5" d="M52.15,92.19a1.72,1.72,0,0,1,.62.6V90.2h1.44v7.31H52.83v-.75a2,2,0,0,1-.69.7,1.93,1.93,0,0,1-1,.22,2,2,0,0,1-1.6-.77,2.94,2.94,0,0,1-.65-2,3.39,3.39,0,0,1,.64-2.18A2.08,2.08,0,0,1,51.28,92,1.74,1.74,0,0,1,52.15,92.19ZM52.5,96a2,2,0,0,0,.31-1.16,1.77,1.77,0,0,0-.5-1.42,1.08,1.08,0,0,0-.71-.26,1,1,0,0,0-.91.47,2.53,2.53,0,0,0,0,2.36,1,1,0,0,0,.9.45A1,1,0,0,0,52.5,96Z"/><path class="cls-5" d="M58.47,92.21a2.21,2.21,0,0,1,.94.8,2.68,2.68,0,0,1,.43,1.12,7,7,0,0,1,0,1.07H55.94a1.3,1.3,0,0,0,.57,1.14,1.44,1.44,0,0,0,.78.2,1.1,1.1,0,0,0,1.08-.62h1.45a1.77,1.77,0,0,1-.53,1,2.63,2.63,0,0,1-2,.79A3,3,0,0,1,55.34,97a2.62,2.62,0,0,1-.83-2.17,2.93,2.93,0,0,1,.75-2.16A2.61,2.61,0,0,1,57.19,92,3.09,3.09,0,0,1,58.47,92.21Zm-2.12,1.22a1.47,1.47,0,0,0-.38.84h2.44a1.18,1.18,0,0,0-.38-.86,1.24,1.24,0,0,0-.84-.29A1.12,1.12,0,0,0,56.35,93.43Z"/><path class="cls-5" d="M63.3,95.3a1.63,1.63,0,0,0,.14.71,1,1,0,0,0,.94.52,1,1,0,0,0,.73-.29,1.06,1.06,0,0,0,.31-.82.93.93,0,0,0-.57-.95,2.92,2.92,0,0,0-1-.13v-1a2.64,2.64,0,0,0,1-.13.83.83,0,0,0,.47-.84.94.94,0,0,0-.24-.67.88.88,0,0,0-.68-.26.86.86,0,0,0-.74.32,1.35,1.35,0,0,0-.23.85H62a3.56,3.56,0,0,1,.18-1,2.3,2.3,0,0,1,.55-.78,1.91,1.91,0,0,1,.66-.39,2.87,2.87,0,0,1,.94-.13,2.49,2.49,0,0,1,1.67.53,1.78,1.78,0,0,1,.63,1.43,1.58,1.58,0,0,1-.38,1.07,1.29,1.29,0,0,1-.5.37,1,1,0,0,1,.56.33,1.78,1.78,0,0,1,.54,1.37A2.31,2.31,0,0,1,66.26,97a2.41,2.41,0,0,1-1.87.69,2.26,2.26,0,0,1-2.12-1,3,3,0,0,1-.35-1.39Z"/><path class="cls-5" d="M71.47,91.23a7.1,7.1,0,0,1,0,5.5,2.42,2.42,0,0,1-3.86,0,7.1,7.1,0,0,1,0-5.5,2.41,2.41,0,0,1,3.86,0Zm-2.76,4.65a.82.82,0,0,0,.83.66.81.81,0,0,0,.83-.66,7.07,7.07,0,0,0,.2-1.9,7,7,0,0,0-.2-1.93.8.8,0,0,0-.83-.63.81.81,0,0,0-.83.63A6.71,6.71,0,0,0,68.5,94,6.78,6.78,0,0,0,68.71,95.88Z"/><path class="cls-5" d="M76.91,94.22a2.24,2.24,0,0,0,.57-.12.43.43,0,0,0,.31-.4.48.48,0,0,0-.23-.46,1.48,1.48,0,0,0-.69-.13.9.9,0,0,0-.72.25,1,1,0,0,0-.2.5H74.57a2.07,2.07,0,0,1,.4-1.17A2.33,2.33,0,0,1,76.91,92a3.45,3.45,0,0,1,1.59.35,1.35,1.35,0,0,1,.69,1.33v2.48c0,.17,0,.38,0,.63a.78.78,0,0,0,.08.38.5.5,0,0,0,.21.16v.21H78a1.59,1.59,0,0,1-.09-.31c0-.1,0-.21,0-.33a3,3,0,0,1-.68.54,2.06,2.06,0,0,1-1,.26,1.79,1.79,0,0,1-1.22-.42,1.49,1.49,0,0,1-.48-1.19,1.54,1.54,0,0,1,.78-1.45,3.47,3.47,0,0,1,1.25-.35Zm.87.66a1.53,1.53,0,0,1-.27.14,2.26,2.26,0,0,1-.38.1l-.32.06a2.14,2.14,0,0,0-.65.19.65.65,0,0,0-.33.6.63.63,0,0,0,.2.52.78.78,0,0,0,.5.16,1.48,1.48,0,0,0,.86-.27,1.14,1.14,0,0,0,.41-1Z"/><path class="cls-5" d="M84.23,92.41a1.79,1.79,0,0,1,.53,1.46v3.65H83.31V94.22a1.51,1.51,0,0,0-.11-.66.8.8,0,0,0-.79-.42,1,1,0,0,0-1,.61,2.1,2.1,0,0,0-.14.82v2.93H79.87v-5.4h1.37v.79a2.43,2.43,0,0,1,.51-.6,1.78,1.78,0,0,1,1.1-.33A2.08,2.08,0,0,1,84.23,92.41ZM82,90.08l.22.07.47.18.27.09.14,0a.39.39,0,0,0,.33-.13.8.8,0,0,0,.14-.3h.66a2,2,0,0,1-.36.88.91.91,0,0,1-.78.35,1.82,1.82,0,0,1-.44-.08l-.31-.09-.4-.14-.16,0H81.6a.43.43,0,0,0-.31.11.65.65,0,0,0-.17.32h-.65a2.31,2.31,0,0,1,.28-.78A1.06,1.06,0,0,1,81.7,90,1.13,1.13,0,0,1,82,90.08Z"/><path class="cls-5" d="M90,96.85a3,3,0,0,1-4.16,0,3.36,3.36,0,0,1,0-4.07,3,3,0,0,1,4.16,0,3.36,3.36,0,0,1,0,4.07Zm-1.13-.78a2.53,2.53,0,0,0,0-2.51,1.26,1.26,0,0,0-1.91,0,2.51,2.51,0,0,0,0,2.51,1.25,1.25,0,0,0,1.91,0Z"/><path class="cls-5" d="M92.27,95.79a.94.94,0,0,0,.19.54,1.32,1.32,0,0,0,1,.28,1.49,1.49,0,0,0,.67-.12.4.4,0,0,0,.25-.37.4.4,0,0,0-.2-.36,8.24,8.24,0,0,0-1.48-.43,3.08,3.08,0,0,1-1.3-.57,1.24,1.24,0,0,1-.38-1,1.69,1.69,0,0,1,.59-1.29,2.37,2.37,0,0,1,1.66-.54,3,3,0,0,1,1.66.41,1.73,1.73,0,0,1,.73,1.4H94.22a.83.83,0,0,0-.15-.43,1,1,0,0,0-.8-.29,1.14,1.14,0,0,0-.66.14.41.41,0,0,0-.2.34.37.37,0,0,0,.21.35,9,9,0,0,0,1.48.39,2.71,2.71,0,0,1,1.27.6,1.36,1.36,0,0,1,.42,1,1.64,1.64,0,0,1-.6,1.31,3.61,3.61,0,0,1-3.74,0,1.75,1.75,0,0,1-.61-1.37Z"/><path class="cls-3" d="M134.56,92.76v-.69a3.64,3.64,0,0,0,1.35-.32,1.56,1.56,0,0,0,.57-1h.71V97.8h-1v-5Z"/><path class="cls-3" d="M144,91.82a5.09,5.09,0,0,1,.48,2.41,5.8,5.8,0,0,1-.43,2.4A2.11,2.11,0,0,1,142,98a2.05,2.05,0,0,1-1.91-1.11,5.1,5.1,0,0,1-.52-2.49,6.15,6.15,0,0,1,.31-2.08A2.14,2.14,0,0,1,142,90.68,2.1,2.1,0,0,1,144,91.82Zm-.9,4.74a4.45,4.45,0,0,0,.41-2.29,5.66,5.66,0,0,0-.3-2,1.13,1.13,0,0,0-1.16-.78,1.21,1.21,0,0,0-1.16.74,5.12,5.12,0,0,0-.37,2.19,5.35,5.35,0,0,0,.23,1.75,1.27,1.27,0,0,0,2.33.39Z"/><path class="cls-3" d="M145.75,98.84a.63.63,0,0,0,.48-.48,1.37,1.37,0,0,0,.07-.43s0,0,0-.06a.35.35,0,0,0,0-.06h-.54V96.71h1.06v1a2.17,2.17,0,0,1-.24,1,1.08,1.08,0,0,1-.83.55Z"/><path class="cls-3" d="M153,90.8v.78a8.34,8.34,0,0,0-.91,1.16,11.68,11.68,0,0,0-1,1.78,12.08,12.08,0,0,0-.66,1.69q-.15.49-.37,1.58h-1a12.15,12.15,0,0,1,1.49-4.05,12.82,12.82,0,0,1,1.43-2H148.1v-.9Z"/><path class="cls-3" d="M158.13,91.82a5.08,5.08,0,0,1,.48,2.41,5.8,5.8,0,0,1-.43,2.4,2.11,2.11,0,0,1-2,1.36,2,2,0,0,1-1.91-1.11,5.1,5.1,0,0,1-.52-2.49A6.18,6.18,0,0,1,154,92.3a2.14,2.14,0,0,1,2.12-1.62A2.1,2.1,0,0,1,158.13,91.82Zm-.9,4.74a4.45,4.45,0,0,0,.41-2.29,5.66,5.66,0,0,0-.3-2,1.14,1.14,0,0,0-1.16-.78,1.21,1.21,0,0,0-1.16.74,5.12,5.12,0,0,0-.37,2.19,5.36,5.36,0,0,0,.23,1.75,1.27,1.27,0,0,0,2.33.39Z"/><path class="cls-3" d="M160.3,96A1.24,1.24,0,0,0,161,97a1.72,1.72,0,0,0,.73.15,1.38,1.38,0,0,0,1.18-.51,1.82,1.82,0,0,0,.38-1.12,1.47,1.47,0,0,0-.46-1.15,1.58,1.58,0,0,0-1.09-.41,1.65,1.65,0,0,0-.79.18,1.69,1.69,0,0,0-.56.5l-.78,0,.54-3.83h3.7v.86h-3l-.3,2a2.29,2.29,0,0,1,.47-.28,2.39,2.39,0,0,1,.92-.16,2.35,2.35,0,0,1,1.66.63,2.09,2.09,0,0,1,.68,1.6,2.74,2.74,0,0,1-.62,1.78,2.41,2.41,0,0,1-2,.77,2.53,2.53,0,0,1-1.54-.49,1.94,1.94,0,0,1-.75-1.5Z"/><path class="cls-4" d="M191,96.2A3.08,3.08,0,0,1,192.25,95l1-.55a4.54,4.54,0,0,0,.9-.64,1.39,1.39,0,0,0,0-1.93,1.35,1.35,0,0,0-1-.37,1.3,1.3,0,0,0-1.27.7,2.5,2.5,0,0,0-.21,1h-.91a3.19,3.19,0,0,1,.34-1.52,2.15,2.15,0,0,1,2.05-1,2.11,2.11,0,0,1,2.35,2.13,2,2,0,0,1-.6,1.46,5.91,5.91,0,0,1-1.25.85l-.68.38a4.44,4.44,0,0,0-.76.51,1.86,1.86,0,0,0-.63,1h3.88v.84h-4.88A4.15,4.15,0,0,1,191,96.2Z"/><path class="cls-4" d="M196.76,98.84a.63.63,0,0,0,.48-.48,1.37,1.37,0,0,0,.08-.43.58.58,0,0,0,0-.06.35.35,0,0,0,0-.06h-.54V96.71h1.06v1a2.17,2.17,0,0,1-.24,1,1.08,1.08,0,0,1-.82.55Z"/><path class="cls-4" d="M199.56,97.3a2.58,2.58,0,0,1-.57-1.69h.93a2.32,2.32,0,0,0,.26,1,1.36,1.36,0,0,0,1.26.56,1.64,1.64,0,0,0,1.13-.38,1.24,1.24,0,0,0,.43-1,1.14,1.14,0,0,0-.45-1,2.28,2.28,0,0,0-1.25-.29h-.37v-.79l.23,0h.2a1.86,1.86,0,0,0,.83-.16,1,1,0,0,0,.57-1,1,1,0,0,0-.38-.82,1.41,1.41,0,0,0-.88-.29,1.3,1.3,0,0,0-1.24.6,2.05,2.05,0,0,0-.21.93h-.88a2.68,2.68,0,0,1,.32-1.35,2,2,0,0,1,1.92-1,2.61,2.61,0,0,1,1.68.48,1.71,1.71,0,0,1,.6,1.4,1.57,1.57,0,0,1-.35,1.06,1.48,1.48,0,0,1-.57.4,1.55,1.55,0,0,1,.88.59,1.8,1.8,0,0,1,.32,1.08,2.19,2.19,0,0,1-.67,1.66,2.65,2.65,0,0,1-1.9.64A2.24,2.24,0,0,1,199.56,97.3Z"/><path class="cls-4" d="M205.66,96a1.24,1.24,0,0,0,.71,1.06,1.72,1.72,0,0,0,.73.15,1.38,1.38,0,0,0,1.18-.51,1.82,1.82,0,0,0,.38-1.12,1.47,1.47,0,0,0-.46-1.15,1.58,1.58,0,0,0-1.09-.41,1.65,1.65,0,0,0-.79.18,1.69,1.69,0,0,0-.56.5l-.78,0,.54-3.83h3.7v.86h-3l-.3,2a2.29,2.29,0,0,1,.47-.28,2.39,2.39,0,0,1,.92-.16,2.35,2.35,0,0,1,1.66.63,2.09,2.09,0,0,1,.68,1.6,2.74,2.74,0,0,1-.62,1.78,2.41,2.41,0,0,1-2,.77,2.53,2.53,0,0,1-1.54-.49,1.94,1.94,0,0,1-.75-1.5Z"/><path class="cls-4" d="M214.81,91.82a5.08,5.08,0,0,1,.48,2.41,5.8,5.8,0,0,1-.43,2.4,2.11,2.11,0,0,1-2,1.36,2,2,0,0,1-1.91-1.11,5.1,5.1,0,0,1-.52-2.49,6.18,6.18,0,0,1,.31-2.08,2.14,2.14,0,0,1,2.12-1.62A2.1,2.1,0,0,1,214.81,91.82Zm-.9,4.74a4.45,4.45,0,0,0,.41-2.29,5.66,5.66,0,0,0-.3-2,1.14,1.14,0,0,0-1.16-.78,1.21,1.21,0,0,0-1.16.74,5.12,5.12,0,0,0-.37,2.19,5.36,5.36,0,0,0,.23,1.75,1.27,1.27,0,0,0,2.33.39Z"/><path class="cls-5" d="M14.63,129.93H10.75v1.55h3.56v1.27H10.75v1.88H14.8V136H9.26v-7.32h5.37Z"/><path class="cls-5" d="M20.25,130.85a1.79,1.79,0,0,1,.53,1.46V136H19.33v-3.29a1.52,1.52,0,0,0-.11-.66.8.8,0,0,0-.79-.42,1,1,0,0,0-1,.61,2.11,2.11,0,0,0-.14.82V136H15.89v-5.4h1.37v.79a2.41,2.41,0,0,1,.51-.6,1.78,1.78,0,0,1,1.1-.33A2.07,2.07,0,0,1,20.25,130.85Z"/><path class="cls-5" d="M21.54,131.6v-1h.75v-1.51h1.4v1.51h.88v1H23.7v2.86a.64.64,0,0,0,.08.42.93.93,0,0,0,.52.08h.28V136l-.67,0a1.8,1.8,0,0,1-1.37-.35,1,1,0,0,1-.24-.75V131.6Z"/><path class="cls-5" d="M28.49,130.42h.12v1.45l-.24,0h-.17a1.17,1.17,0,0,0-1.15.56,2.17,2.17,0,0,0-.16,1V136H25.47v-5.41h1.35v.94a3,3,0,0,1,.57-.74,1.56,1.56,0,0,1,1-.33Z"/><path class="cls-5" d="M33,130.65a2.21,2.21,0,0,1,.94.8,2.68,2.68,0,0,1,.43,1.12,7,7,0,0,1,0,1.08H30.44a1.3,1.3,0,0,0,.57,1.14,1.44,1.44,0,0,0,.78.2,1.1,1.1,0,0,0,1.08-.62h1.45a1.77,1.77,0,0,1-.53,1,2.63,2.63,0,0,1-2,.79,3,3,0,0,1-1.91-.67,2.63,2.63,0,0,1-.83-2.17,2.93,2.93,0,0,1,.75-2.16,2.61,2.61,0,0,1,1.94-.75A3.09,3.09,0,0,1,33,130.65Zm-2.12,1.22a1.47,1.47,0,0,0-.38.84h2.44a1.18,1.18,0,0,0-.38-.86,1.24,1.24,0,0,0-.84-.29A1.12,1.12,0,0,0,30.85,131.88Z"/><path class="cls-5" d="M38.93,133.75a1.63,1.63,0,0,0,.14.72A1,1,0,0,0,40,135a1,1,0,0,0,.73-.29,1.06,1.06,0,0,0,.31-.82.93.93,0,0,0-.57-.95,2.92,2.92,0,0,0-1-.13v-1a2.66,2.66,0,0,0,1-.13.83.83,0,0,0,.47-.84,1,1,0,0,0-.24-.67.88.88,0,0,0-.68-.26.86.86,0,0,0-.74.32A1.35,1.35,0,0,0,39,131H37.66a3.57,3.57,0,0,1,.18-1,2.3,2.3,0,0,1,.55-.78,1.91,1.91,0,0,1,.66-.39,2.87,2.87,0,0,1,.94-.13,2.49,2.49,0,0,1,1.67.53,1.78,1.78,0,0,1,.63,1.43,1.59,1.59,0,0,1-.38,1.07,1.29,1.29,0,0,1-.5.37,1,1,0,0,1,.56.33,1.78,1.78,0,0,1,.54,1.37,2.31,2.31,0,0,1-.63,1.61,2.41,2.41,0,0,1-1.87.69,2.27,2.27,0,0,1-2.12-1,3,3,0,0,1-.35-1.39Z"/><path class="cls-5" d="M44.6,134a1.36,1.36,0,0,0,.32.71.91.91,0,0,0,.69.25.93.93,0,0,0,.8-.37,1.51,1.51,0,0,0,.28-.93,1.62,1.62,0,0,0-.26-.93.9.9,0,0,0-.8-.38,1.38,1.38,0,0,0-.45.06.89.89,0,0,0-.5.44l-1.27-.06.51-4h4v1.2H44.95l-.26,1.57a3,3,0,0,1,.51-.28,2.16,2.16,0,0,1,.75-.11,2.17,2.17,0,0,1,2.22,2.35,2.75,2.75,0,0,1-.64,1.78,2.33,2.33,0,0,1-1.92.78,2.54,2.54,0,0,1-1.69-.55,2.14,2.14,0,0,1-.73-1.57Z"/><path class="cls-5" d="M52.28,137h.18a2.21,2.21,0,0,0,.4,0,.72.72,0,0,0,.32-.11.76.76,0,0,0,.23-.35.87.87,0,0,0,.09-.33l-2-5.65h1.57l1.18,4,1.12-4h1.5L55,135.87a7.48,7.48,0,0,1-.85,1.91,1.62,1.62,0,0,1-1.25.37h-.3l-.34,0Z"/><path class="cls-5" d="M65.21,134.41H64.4V136H63v-1.55H60.16v-1.24l2.65-4.37H64.4v4.5h.82ZM63,133.3v-3.1l-1.8,3.1Z"/><path class="cls-5" d="M70.87,134.41h-.82V136H68.67v-1.55H65.82v-1.24l2.65-4.37h1.59v4.5h.82Zm-2.2-1.11v-3.1l-1.8,3.1Z"/><path class="cls-5" d="M76.84,132.66a2.23,2.23,0,0,0,.57-.12.43.43,0,0,0,.31-.4.47.47,0,0,0-.23-.46,1.47,1.47,0,0,0-.69-.13.9.9,0,0,0-.72.25,1,1,0,0,0-.2.5H74.5a2.06,2.06,0,0,1,.4-1.17,2.32,2.32,0,0,1,1.94-.72,3.46,3.46,0,0,1,1.59.35,1.35,1.35,0,0,1,.69,1.33v2.48q0,.26,0,.63a.78.78,0,0,0,.08.38.51.51,0,0,0,.21.16V136H77.88a1.59,1.59,0,0,1-.09-.31c0-.1,0-.21,0-.33a2.94,2.94,0,0,1-.68.54,2.05,2.05,0,0,1-1,.26,1.79,1.79,0,0,1-1.22-.42,1.49,1.49,0,0,1-.48-1.19,1.54,1.54,0,0,1,.78-1.45,3.47,3.47,0,0,1,1.25-.35Zm.87.66a1.6,1.6,0,0,1-.27.14,2.26,2.26,0,0,1-.38.1l-.32.06a2.11,2.11,0,0,0-.65.19.65.65,0,0,0-.33.6.63.63,0,0,0,.2.52.78.78,0,0,0,.5.16,1.48,1.48,0,0,0,.86-.27,1.14,1.14,0,0,0,.41-1Z"/><path class="cls-5" d="M84.72,130.85a1.79,1.79,0,0,1,.53,1.46V136H83.8v-3.29a1.52,1.52,0,0,0-.11-.66.8.8,0,0,0-.79-.42,1,1,0,0,0-1,.61,2.11,2.11,0,0,0-.14.82V136H80.36v-5.4h1.37v.79a2.41,2.41,0,0,1,.51-.6,1.78,1.78,0,0,1,1.1-.33A2.07,2.07,0,0,1,84.72,130.85Zm-2.27-2.33.22.07.47.18.27.09.14,0a.4.4,0,0,0,.33-.13.84.84,0,0,0,.14-.3h.66a2,2,0,0,1-.35.87.91.91,0,0,1-.78.35,1.81,1.81,0,0,1-.44-.08l-.31-.09-.4-.14-.16,0h-.16a.44.44,0,0,0-.31.11.64.64,0,0,0-.17.32H81a2.35,2.35,0,0,1,.28-.78,1.06,1.06,0,0,1,.94-.47A1.13,1.13,0,0,1,82.46,128.52Z"/><path class="cls-5" d="M91.08,135.3a3,3,0,0,1-4.16,0,3.36,3.36,0,0,1,0-4.07,3,3,0,0,1,4.16,0,3.36,3.36,0,0,1,0,4.07ZM90,134.51A2.53,2.53,0,0,0,90,132,1.26,1.26,0,0,0,88,132a2.51,2.51,0,0,0,0,2.51,1.25,1.25,0,0,0,1.91,0Z"/><path class="cls-5" d="M93.88,134.23a.94.94,0,0,0,.2.54,1.31,1.31,0,0,0,1,.28,1.5,1.5,0,0,0,.67-.12.42.42,0,0,0,0-.74,8.12,8.12,0,0,0-1.48-.43,3.07,3.07,0,0,1-1.3-.57,1.24,1.24,0,0,1-.38-1,1.69,1.69,0,0,1,.59-1.29,2.37,2.37,0,0,1,1.66-.54,3.05,3.05,0,0,1,1.66.4,1.73,1.73,0,0,1,.73,1.4H95.83a.83.83,0,0,0-.15-.43,1,1,0,0,0-.8-.29,1.15,1.15,0,0,0-.66.14.42.42,0,0,0-.2.34.37.37,0,0,0,.21.35,9.06,9.06,0,0,0,1.48.39,2.71,2.71,0,0,1,1.27.6,1.36,1.36,0,0,1,.42,1,1.65,1.65,0,0,1-.6,1.31,2.83,2.83,0,0,1-1.85.51,2.79,2.79,0,0,1-1.89-.54,1.75,1.75,0,0,1-.61-1.37Z"/><path class="cls-3" d="M137.77,134.05a1.13,1.13,0,0,0,.57,1,1.26,1.26,0,0,0,.62.15,1.39,1.39,0,0,0,1.09-.53,4.41,4.41,0,0,0,.64-2.17,1.66,1.66,0,0,1-.74.66,2.34,2.34,0,0,1-.95.19,2.12,2.12,0,0,1-1.63-.64,2.32,2.32,0,0,1-.6-1.65,2.63,2.63,0,0,1,.59-1.7,2.1,2.1,0,0,1,1.74-.73,2.15,2.15,0,0,1,2.15,1.4,4.93,4.93,0,0,1,.33,1.93,6.36,6.36,0,0,1-.39,2.31A2.27,2.27,0,0,1,139,136a2.14,2.14,0,0,1-1.58-.55,1.87,1.87,0,0,1-.54-1.37Zm2.33-1.81a1.48,1.48,0,0,0,.44-1.22,1.56,1.56,0,0,0-.39-1.17,1.38,1.38,0,0,0-1-.38,1.32,1.32,0,0,0-1,.44,1.72,1.72,0,0,0-.38,1.17,1.68,1.68,0,0,0,.34,1.1,1.32,1.32,0,0,0,1.08.41A1.52,1.52,0,0,0,140.09,132.24Z"/><path class="cls-3" d="M142.92,136.82a.63.63,0,0,0,.48-.48,1.37,1.37,0,0,0,.07-.43s0,0,0-.06a.35.35,0,0,0,0-.06h-.54v-1.08H144v1a2.17,2.17,0,0,1-.24,1,1.09,1.09,0,0,1-.83.55Z"/><path class="cls-3" d="M149.65,129.8a5.08,5.08,0,0,1,.48,2.41,5.8,5.8,0,0,1-.43,2.4,2.12,2.12,0,0,1-2,1.36,2,2,0,0,1-1.91-1.11,5.1,5.1,0,0,1-.52-2.49,6.18,6.18,0,0,1,.31-2.08,2.14,2.14,0,0,1,2.12-1.62A2.1,2.1,0,0,1,149.65,129.8Zm-.9,4.74a4.45,4.45,0,0,0,.41-2.29,5.66,5.66,0,0,0-.3-2,1.14,1.14,0,0,0-1.16-.78,1.21,1.21,0,0,0-1.16.74,5.12,5.12,0,0,0-.37,2.19,5.36,5.36,0,0,0,.23,1.75,1.27,1.27,0,0,0,2.33.39Z"/><path class="cls-3" d="M155.88,128.78v.78a8.26,8.26,0,0,0-.91,1.16,11.73,11.73,0,0,0-1,1.78,12.08,12.08,0,0,0-.66,1.69q-.15.49-.37,1.58h-1a12.16,12.16,0,0,1,1.49-4.05,12.77,12.77,0,0,1,1.43-2h-3.93v-.9Z"/><path class="cls-3" d="M160.85,129.25a2.09,2.09,0,0,1,.47,1.27h-.88a1.62,1.62,0,0,0-.25-.66,1.13,1.13,0,0,0-1-.45,1.35,1.35,0,0,0-1.19.69,4,4,0,0,0-.49,2,1.94,1.94,0,0,1,.78-.68,2.23,2.23,0,0,1,1-.2,2.32,2.32,0,0,1,1.56.57,2.12,2.12,0,0,1,.67,1.7,2.58,2.58,0,0,1-.63,1.72,2.22,2.22,0,0,1-1.8.75,2.3,2.3,0,0,1-1.72-.76,3.62,3.62,0,0,1-.73-2.55,6.85,6.85,0,0,1,.32-2.25,2.29,2.29,0,0,1,2.27-1.77A2,2,0,0,1,160.85,129.25Zm-.67,5.44a1.84,1.84,0,0,0,.35-1.12,1.91,1.91,0,0,0-.31-1,1.24,1.24,0,0,0-1.14-.49,1.48,1.48,0,0,0-1,.38,1.46,1.46,0,0,0-.43,1.15,1.68,1.68,0,0,0,.39,1.13,1.37,1.37,0,0,0,1.1.46A1.23,1.23,0,0,0,160.18,134.69Z"/><path class="cls-4" d="M191,134.18a3.08,3.08,0,0,1,1.29-1.24l1-.55a4.5,4.5,0,0,0,.9-.64,1.39,1.39,0,0,0,0-1.93,1.36,1.36,0,0,0-1-.37,1.3,1.3,0,0,0-1.27.7,2.51,2.51,0,0,0-.21,1h-.91a3.19,3.19,0,0,1,.34-1.51,2.15,2.15,0,0,1,2.05-1,2.11,2.11,0,0,1,2.35,2.13,2,2,0,0,1-.6,1.46,5.87,5.87,0,0,1-1.25.85l-.68.38a4.33,4.33,0,0,0-.76.51,1.86,1.86,0,0,0-.63,1h3.88v.84h-4.88A4.16,4.16,0,0,1,191,134.18Z"/><path class="cls-4" d="M196.76,136.82a.63.63,0,0,0,.48-.48,1.37,1.37,0,0,0,.08-.43.6.6,0,0,0,0-.06.35.35,0,0,0,0-.06h-.54v-1.08h1.06v1a2.17,2.17,0,0,1-.24,1,1.08,1.08,0,0,1-.82.55Z"/><path class="cls-4" d="M203.38,129.25a2.08,2.08,0,0,1,.47,1.27H203a1.62,1.62,0,0,0-.25-.66,1.13,1.13,0,0,0-1-.45,1.36,1.36,0,0,0-1.19.69,4,4,0,0,0-.49,2,1.94,1.94,0,0,1,.77-.68,2.23,2.23,0,0,1,1-.2,2.32,2.32,0,0,1,1.56.57,2.12,2.12,0,0,1,.67,1.7,2.58,2.58,0,0,1-.63,1.72,2.22,2.22,0,0,1-1.8.75,2.3,2.3,0,0,1-1.72-.76,3.63,3.63,0,0,1-.73-2.55,6.88,6.88,0,0,1,.32-2.25,2.29,2.29,0,0,1,2.27-1.77A2,2,0,0,1,203.38,129.25Zm-.67,5.44a1.84,1.84,0,0,0,.35-1.12,1.92,1.92,0,0,0-.31-1,1.24,1.24,0,0,0-1.14-.49,1.48,1.48,0,0,0-1,.38,1.46,1.46,0,0,0-.43,1.15,1.68,1.68,0,0,0,.39,1.13,1.36,1.36,0,0,0,1.1.46A1.23,1.23,0,0,0,202.71,134.69Z"/><path class="cls-4" d="M205.22,135.28a2.57,2.57,0,0,1-.57-1.69h.93a2.31,2.31,0,0,0,.26,1,1.36,1.36,0,0,0,1.26.56,1.65,1.65,0,0,0,1.13-.38,1.24,1.24,0,0,0,.43-1,1.13,1.13,0,0,0-.45-1,2.27,2.27,0,0,0-1.25-.29h-.37v-.79l.23,0h.2a1.87,1.87,0,0,0,.82-.16,1,1,0,0,0,.57-1,1,1,0,0,0-.38-.82,1.41,1.41,0,0,0-.88-.29,1.3,1.3,0,0,0-1.24.6,2.07,2.07,0,0,0-.21.93h-.88a2.68,2.68,0,0,1,.32-1.35,2,2,0,0,1,1.92-1,2.6,2.6,0,0,1,1.68.48,1.7,1.7,0,0,1,.6,1.4,1.56,1.56,0,0,1-.35,1.06,1.47,1.47,0,0,1-.57.4,1.54,1.54,0,0,1,.88.59,1.79,1.79,0,0,1,.32,1.08,2.19,2.19,0,0,1-.67,1.66,2.64,2.64,0,0,1-1.9.64A2.23,2.23,0,0,1,205.22,135.28Z"/><path class="cls-4" d="M211,130.74v-.69a3.64,3.64,0,0,0,1.35-.32,1.56,1.56,0,0,0,.57-1h.71v7.08h-1v-5Z"/><path class="cls-5" d="M14.63,150.83H10.75v1.55h3.56v1.27H10.75v1.88H14.8v1.32H9.26v-7.32h5.37Z"/><path class="cls-5" d="M20.25,151.76a1.79,1.79,0,0,1,.53,1.46v3.65H19.33v-3.29a1.52,1.52,0,0,0-.11-.66.8.8,0,0,0-.79-.42,1,1,0,0,0-1,.61,2.11,2.11,0,0,0-.14.82v2.93H15.89v-5.4h1.37v.79a2.41,2.41,0,0,1,.51-.6,1.78,1.78,0,0,1,1.1-.33A2.07,2.07,0,0,1,20.25,151.76Z"/><path class="cls-5" d="M21.54,152.5v-1h.75V150h1.4v1.51h.88v1H23.7v2.86a.64.64,0,0,0,.08.42.93.93,0,0,0,.52.08h.28v1.06l-.67,0a1.8,1.8,0,0,1-1.37-.35,1,1,0,0,1-.24-.75V152.5Z"/><path class="cls-5" d="M28.49,151.32h.12v1.45l-.24,0h-.17a1.17,1.17,0,0,0-1.15.56,2.17,2.17,0,0,0-.16,1v2.59H25.47v-5.41h1.35v.94a3,3,0,0,1,.57-.74,1.56,1.56,0,0,1,1-.33Z"/><path class="cls-5" d="M33,151.55a2.21,2.21,0,0,1,.94.8,2.68,2.68,0,0,1,.43,1.12,7,7,0,0,1,0,1.08H30.44a1.3,1.3,0,0,0,.57,1.14,1.44,1.44,0,0,0,.78.2,1.1,1.1,0,0,0,1.08-.62h1.45a1.77,1.77,0,0,1-.53,1,2.63,2.63,0,0,1-2,.79,3,3,0,0,1-1.91-.67,2.63,2.63,0,0,1-.83-2.17,2.93,2.93,0,0,1,.75-2.16,2.61,2.61,0,0,1,1.94-.75A3.09,3.09,0,0,1,33,151.55Zm-2.12,1.22a1.47,1.47,0,0,0-.38.84h2.44a1.18,1.18,0,0,0-.38-.86,1.24,1.24,0,0,0-.84-.29A1.12,1.12,0,0,0,30.85,152.78Z"/><path class="cls-5" d="M42.59,155.31h-.81v1.55H40.39v-1.55H37.54v-1.24l2.65-4.37h1.59v4.5h.81Zm-2.2-1.11v-3.1l-1.8,3.1Z"/><path class="cls-5" d="M44.6,154.93a1.36,1.36,0,0,0,.32.71.91.91,0,0,0,.69.25.93.93,0,0,0,.8-.37,1.51,1.51,0,0,0,.28-.93,1.62,1.62,0,0,0-.26-.93.9.9,0,0,0-.8-.38,1.38,1.38,0,0,0-.45.06.89.89,0,0,0-.5.44l-1.27-.06.51-4h4V151H44.95l-.26,1.57a3,3,0,0,1,.51-.28,2.16,2.16,0,0,1,.75-.11,2.17,2.17,0,0,1,2.22,2.35,2.75,2.75,0,0,1-.64,1.78,2.33,2.33,0,0,1-1.92.78,2.54,2.54,0,0,1-1.69-.55,2.14,2.14,0,0,1-.73-1.57Z"/><path class="cls-5" d="M52.28,157.9h.18a2.21,2.21,0,0,0,.4,0,.72.72,0,0,0,.32-.11.76.76,0,0,0,.23-.35.87.87,0,0,0,.09-.33l-2-5.65h1.57l1.18,4,1.12-4h1.5L55,156.77a7.48,7.48,0,0,1-.85,1.91,1.62,1.62,0,0,1-1.25.37h-.3l-.34,0Z"/><path class="cls-5" d="M61.57,154.93a1.36,1.36,0,0,0,.32.71.91.91,0,0,0,.69.25.94.94,0,0,0,.8-.37,1.51,1.51,0,0,0,.27-.93,1.62,1.62,0,0,0-.26-.93.9.9,0,0,0-.8-.38,1.38,1.38,0,0,0-.45.06.89.89,0,0,0-.5.44l-1.27-.06.5-4h4V151H61.91l-.26,1.57a3,3,0,0,1,.51-.28,2.16,2.16,0,0,1,.75-.11,2.17,2.17,0,0,1,2.22,2.35,2.75,2.75,0,0,1-.64,1.78,2.33,2.33,0,0,1-1.92.78,2.55,2.55,0,0,1-1.69-.55,2.15,2.15,0,0,1-.73-1.57Z"/><path class="cls-5" d="M70.87,155.31h-.82v1.55H68.67v-1.55H65.82v-1.24l2.65-4.37h1.59v4.5h.82Zm-2.2-1.11v-3.1l-1.8,3.1Z"/><path class="cls-5" d="M76.84,153.57a2.23,2.23,0,0,0,.57-.12.43.43,0,0,0,.31-.4.47.47,0,0,0-.23-.46,1.47,1.47,0,0,0-.69-.13.9.9,0,0,0-.72.25,1,1,0,0,0-.2.5H74.5a2.06,2.06,0,0,1,.4-1.17,2.32,2.32,0,0,1,1.94-.72,3.46,3.46,0,0,1,1.59.35,1.35,1.35,0,0,1,.69,1.33v2.48q0,.26,0,.63a.78.78,0,0,0,.08.38.51.51,0,0,0,.21.16v.21H77.88a1.59,1.59,0,0,1-.09-.31c0-.1,0-.21,0-.33a2.94,2.94,0,0,1-.68.54,2.05,2.05,0,0,1-1,.26,1.79,1.79,0,0,1-1.22-.42,1.49,1.49,0,0,1-.48-1.19A1.54,1.54,0,0,1,75.1,154a3.47,3.47,0,0,1,1.25-.35Zm.87.66a1.6,1.6,0,0,1-.27.14,2.26,2.26,0,0,1-.38.1l-.32.06a2.11,2.11,0,0,0-.65.19.65.65,0,0,0-.33.6.63.63,0,0,0,.2.52.78.78,0,0,0,.5.16,1.48,1.48,0,0,0,.86-.27,1.14,1.14,0,0,0,.41-1Z"/><path class="cls-5" d="M84.72,151.76a1.79,1.79,0,0,1,.53,1.46v3.65H83.8v-3.29a1.52,1.52,0,0,0-.11-.66.8.8,0,0,0-.79-.42,1,1,0,0,0-1,.61,2.11,2.11,0,0,0-.14.82v2.93H80.36v-5.4h1.37v.79a2.41,2.41,0,0,1,.51-.6,1.78,1.78,0,0,1,1.1-.33A2.07,2.07,0,0,1,84.72,151.76Zm-2.27-2.33.22.07.47.18.27.09.14,0a.4.4,0,0,0,.33-.13.84.84,0,0,0,.14-.3h.66a2,2,0,0,1-.35.87.91.91,0,0,1-.78.35,1.81,1.81,0,0,1-.44-.08l-.31-.09-.4-.14-.16,0h-.16a.44.44,0,0,0-.31.11.64.64,0,0,0-.17.32H81a2.35,2.35,0,0,1,.28-.78,1.06,1.06,0,0,1,.94-.47A1.13,1.13,0,0,1,82.46,149.42Z"/><path class="cls-5" d="M91.08,156.2a3,3,0,0,1-4.16,0,3.36,3.36,0,0,1,0-4.07,3,3,0,0,1,4.16,0,3.36,3.36,0,0,1,0,4.07ZM90,155.42a2.53,2.53,0,0,0,0-2.51,1.26,1.26,0,0,0-1.91,0,2.51,2.51,0,0,0,0,2.51,1.25,1.25,0,0,0,1.91,0Z"/><path class="cls-5" d="M93.88,155.13a.94.94,0,0,0,.2.54,1.31,1.31,0,0,0,1,.28,1.5,1.5,0,0,0,.67-.12.42.42,0,0,0,0-.74,8.12,8.12,0,0,0-1.48-.43,3.07,3.07,0,0,1-1.3-.57,1.24,1.24,0,0,1-.38-1,1.69,1.69,0,0,1,.59-1.29,2.37,2.37,0,0,1,1.66-.54,3.05,3.05,0,0,1,1.66.4,1.73,1.73,0,0,1,.73,1.4H95.83a.83.83,0,0,0-.15-.43,1,1,0,0,0-.8-.29,1.15,1.15,0,0,0-.66.14.42.42,0,0,0-.2.34.37.37,0,0,0,.21.35,9.06,9.06,0,0,0,1.48.39,2.71,2.71,0,0,1,1.27.6,1.36,1.36,0,0,1,.42,1,1.65,1.65,0,0,1-.6,1.31,2.83,2.83,0,0,1-1.85.51,2.79,2.79,0,0,1-1.89-.54,1.75,1.75,0,0,1-.61-1.37Z"/><path class="cls-3" d="M137.23,156.64a2.57,2.57,0,0,1-.57-1.69h.93a2.31,2.31,0,0,0,.26,1,1.36,1.36,0,0,0,1.26.56,1.65,1.65,0,0,0,1.13-.38,1.24,1.24,0,0,0,.43-1,1.13,1.13,0,0,0-.45-1,2.27,2.27,0,0,0-1.25-.29h-.37v-.79l.23,0h.2a1.87,1.87,0,0,0,.82-.16,1,1,0,0,0,.57-1,1,1,0,0,0-.38-.82,1.41,1.41,0,0,0-.88-.29,1.3,1.3,0,0,0-1.24.6,2.07,2.07,0,0,0-.21.93h-.88a2.68,2.68,0,0,1,.32-1.35,2,2,0,0,1,1.92-1,2.6,2.6,0,0,1,1.68.48,1.7,1.7,0,0,1,.6,1.4A1.56,1.56,0,0,1,141,153a1.47,1.47,0,0,1-.57.4,1.54,1.54,0,0,1,.88.59,1.79,1.79,0,0,1,.32,1.08,2.19,2.19,0,0,1-.67,1.66,2.64,2.64,0,0,1-1.9.64A2.23,2.23,0,0,1,137.23,156.64Z"/><path class="cls-3" d="M142.92,158.19a.63.63,0,0,0,.48-.48,1.37,1.37,0,0,0,.07-.43s0,0,0-.06a.35.35,0,0,0,0-.06h-.54v-1.08H144v1a2.17,2.17,0,0,1-.24,1,1.09,1.09,0,0,1-.83.55Z"/><path class="cls-3" d="M145.87,153a1.41,1.41,0,0,1-.39-1,1.86,1.86,0,0,1,.58-1.37,2.22,2.22,0,0,1,1.63-.57,2.26,2.26,0,0,1,1.6.54,1.67,1.67,0,0,1,.58,1.26,1.65,1.65,0,0,1-.34,1.08,2,2,0,0,1-.59.46,2.27,2.27,0,0,1,.7.47,1.8,1.8,0,0,1,.47,1.29,2.21,2.21,0,0,1-.63,1.59,2.36,2.36,0,0,1-1.78.65,2.75,2.75,0,0,1-1.76-.56,2,2,0,0,1-.72-1.64,1.82,1.82,0,0,1,1.22-1.79A1.78,1.78,0,0,1,145.87,153Zm2.88,3.22a1.22,1.22,0,0,0,.41-1,1.3,1.3,0,0,0-.42-1,1.62,1.62,0,0,0-1.08-.36,1.5,1.5,0,0,0-1,.36,1.29,1.29,0,0,0-.41,1,1.38,1.38,0,0,0,.37,1,1.48,1.48,0,0,0,1.14.4A1.58,1.58,0,0,0,148.75,156.2Zm-.17-3.52a1.07,1.07,0,0,0,.33-.79,1,1,0,0,0-.32-.73,1.28,1.28,0,0,0-1-.33,1.08,1.08,0,0,0-1.22,1.12.93.93,0,0,0,.37.79,1.41,1.41,0,0,0,.88.28A1.25,1.25,0,0,0,148.59,152.68Z"/><path class="cls-3" d="M151.81,155.33a1.24,1.24,0,0,0,.71,1.06,1.71,1.71,0,0,0,.74.15,1.38,1.38,0,0,0,1.18-.51,1.82,1.82,0,0,0,.38-1.12,1.47,1.47,0,0,0-.45-1.15,1.58,1.58,0,0,0-1.09-.41,1.64,1.64,0,0,0-.79.18,1.7,1.7,0,0,0-.56.5l-.77,0,.54-3.83h3.7V151h-3l-.3,2a2.18,2.18,0,0,1,.47-.28,2.39,2.39,0,0,1,.92-.16,2.35,2.35,0,0,1,1.66.63,2.08,2.08,0,0,1,.68,1.6,2.74,2.74,0,0,1-.62,1.78,2.41,2.41,0,0,1-2,.77,2.53,2.53,0,0,1-1.54-.49,1.94,1.94,0,0,1-.75-1.5Z"/><path class="cls-3" d="M157.47,155.33a1.24,1.24,0,0,0,.71,1.06,1.71,1.71,0,0,0,.73.15,1.38,1.38,0,0,0,1.18-.51,1.82,1.82,0,0,0,.38-1.12,1.47,1.47,0,0,0-.46-1.15,1.58,1.58,0,0,0-1.09-.41,1.65,1.65,0,0,0-.79.18,1.7,1.7,0,0,0-.56.5l-.78,0,.54-3.83H161V151h-3l-.3,2a2.2,2.2,0,0,1,.47-.28,2.39,2.39,0,0,1,.92-.16,2.35,2.35,0,0,1,1.66.63,2.09,2.09,0,0,1,.68,1.6,2.74,2.74,0,0,1-.62,1.78,2.41,2.41,0,0,1-2,.77,2.53,2.53,0,0,1-1.54-.49,1.94,1.94,0,0,1-.75-1.5Z"/><path class="cls-4" d="M191.23,152.11v-.69a3.64,3.64,0,0,0,1.35-.32,1.56,1.56,0,0,0,.57-1h.71v7.08h-1v-5Z"/><path class="cls-4" d="M196.76,158.19a.63.63,0,0,0,.48-.48,1.37,1.37,0,0,0,.07-.43s0,0,0-.06a.35.35,0,0,0,0-.06h-.54v-1.08h1.06v1a2.17,2.17,0,0,1-.24,1,1.09,1.09,0,0,1-.83.55Z"/><path class="cls-4" d="M203.49,151.17a5.08,5.08,0,0,1,.48,2.41,5.8,5.8,0,0,1-.43,2.4,2.12,2.12,0,0,1-2,1.36,2,2,0,0,1-1.91-1.11,5.1,5.1,0,0,1-.52-2.49,6.18,6.18,0,0,1,.31-2.08A2.14,2.14,0,0,1,201.5,150,2.1,2.1,0,0,1,203.49,151.17Zm-.9,4.74a4.45,4.45,0,0,0,.41-2.29,5.66,5.66,0,0,0-.3-2,1.14,1.14,0,0,0-1.16-.78,1.21,1.21,0,0,0-1.16.74,5.12,5.12,0,0,0-.37,2.19,5.36,5.36,0,0,0,.23,1.75,1.27,1.27,0,0,0,2.33.39Z"/><path class="cls-4" d="M209.15,151.17a5.09,5.09,0,0,1,.48,2.41,5.8,5.8,0,0,1-.43,2.4,2.11,2.11,0,0,1-2,1.36,2.05,2.05,0,0,1-1.91-1.11,5.1,5.1,0,0,1-.52-2.49,6.15,6.15,0,0,1,.31-2.08,2.14,2.14,0,0,1,2.12-1.62A2.1,2.1,0,0,1,209.15,151.17Zm-.9,4.74a4.45,4.45,0,0,0,.41-2.29,5.66,5.66,0,0,0-.3-2,1.13,1.13,0,0,0-1.16-.78,1.21,1.21,0,0,0-1.16.74,5.12,5.12,0,0,0-.37,2.19,5.36,5.36,0,0,0,.23,1.75,1.27,1.27,0,0,0,2.33.39Z"/><path class="cls-4" d="M215.38,150.15v.78a8.27,8.27,0,0,0-.91,1.16,11.65,11.65,0,0,0-1,1.78,12.21,12.21,0,0,0-.66,1.69q-.14.49-.37,1.58h-1a12.2,12.2,0,0,1,1.49-4.05,12.83,12.83,0,0,1,1.43-2h-3.93v-.9Z"/><path class="cls-5" d="M14.07,171.46h2.2v7.32H14.84v-5q0-.21,0-.6t0-.59l-1.39,6.14H12l-1.38-6.14c0,.14,0,.34,0,.59s0,.46,0,.6v5H9.19v-7.32h2.23l1.33,5.76Z"/><path class="cls-5" d="M19.72,175.48a2.23,2.23,0,0,0,.57-.12.43.43,0,0,0,.31-.4.47.47,0,0,0-.23-.46,1.47,1.47,0,0,0-.69-.13.9.9,0,0,0-.72.25,1,1,0,0,0-.2.5H17.38a2.06,2.06,0,0,1,.4-1.17,2.32,2.32,0,0,1,1.94-.72,3.46,3.46,0,0,1,1.59.35,1.35,1.35,0,0,1,.69,1.33v2.48q0,.26,0,.63a.78.78,0,0,0,.08.38.51.51,0,0,0,.21.16v.21H20.76a1.59,1.59,0,0,1-.09-.31c0-.1,0-.21,0-.33a2.94,2.94,0,0,1-.68.54,2.05,2.05,0,0,1-1,.26,1.79,1.79,0,0,1-1.22-.42,1.49,1.49,0,0,1-.48-1.19,1.54,1.54,0,0,1,.78-1.45,3.47,3.47,0,0,1,1.25-.35Zm.87.66a1.6,1.6,0,0,1-.27.14,2.26,2.26,0,0,1-.38.1l-.32.06a2.11,2.11,0,0,0-.65.19.65.65,0,0,0-.33.6.63.63,0,0,0,.2.52.78.78,0,0,0,.5.16,1.48,1.48,0,0,0,.86-.27,1.14,1.14,0,0,0,.41-1Z"/><path class="cls-5" d="M23.44,179.82h.18a2.21,2.21,0,0,0,.4,0,.72.72,0,0,0,.32-.11.76.76,0,0,0,.23-.35.87.87,0,0,0,.09-.33l-2-5.65h1.57l1.18,4,1.12-4h1.5l-1.86,5.32a7.48,7.48,0,0,1-.85,1.91,1.62,1.62,0,0,1-1.25.37h-.3l-.34,0Z"/><path class="cls-5" d="M33.4,178.12a2.52,2.52,0,0,1-2.08.85,2.52,2.52,0,0,1-2.08-.85,3.36,3.36,0,0,1,0-4.07,2.5,2.5,0,0,1,2.08-.86,2.5,2.5,0,0,1,2.08.86,3.36,3.36,0,0,1,0,4.07Zm-1.13-.78a2.53,2.53,0,0,0,0-2.51,1.26,1.26,0,0,0-1.91,0,2.51,2.51,0,0,0,0,2.51,1.25,1.25,0,0,0,1.91,0Z"/><path class="cls-5" d="M38.11,173.24h.12v1.45l-.24,0h-.17a1.17,1.17,0,0,0-1.15.56,2.17,2.17,0,0,0-.16,1v2.59H35.09v-5.41h1.35v.94a3,3,0,0,1,.57-.74,1.56,1.56,0,0,1,1-.33Z"/><path class="cls-5" d="M42.59,173.47a2.21,2.21,0,0,1,.94.8,2.68,2.68,0,0,1,.43,1.12,7,7,0,0,1,0,1.08H40.06a1.3,1.3,0,0,0,.57,1.14,1.44,1.44,0,0,0,.78.2,1.1,1.1,0,0,0,1.08-.62h1.45a1.77,1.77,0,0,1-.53,1,2.63,2.63,0,0,1-2,.79,3,3,0,0,1-1.91-.67,2.63,2.63,0,0,1-.83-2.17,2.93,2.93,0,0,1,.75-2.16,2.61,2.61,0,0,1,1.94-.75A3.09,3.09,0,0,1,42.59,173.47Zm-2.12,1.22a1.47,1.47,0,0,0-.38.84h2.44a1.18,1.18,0,0,0-.38-.86,1.24,1.24,0,0,0-.84-.29A1.12,1.12,0,0,0,40.47,174.7Z"/><path class="cls-5" d="M45.82,177a.94.94,0,0,0,.2.54,1.31,1.31,0,0,0,1,.28,1.5,1.5,0,0,0,.67-.12.42.42,0,0,0,0-.74,8.12,8.12,0,0,0-1.48-.43,3.07,3.07,0,0,1-1.3-.57,1.24,1.24,0,0,1-.38-1,1.69,1.69,0,0,1,.59-1.29,2.37,2.37,0,0,1,1.66-.54,3.05,3.05,0,0,1,1.66.4,1.73,1.73,0,0,1,.73,1.4H47.77a.83.83,0,0,0-.15-.43,1,1,0,0,0-.8-.29,1.15,1.15,0,0,0-.66.14.42.42,0,0,0-.2.34.37.37,0,0,0,.21.35,9.06,9.06,0,0,0,1.48.39,2.71,2.71,0,0,1,1.27.6,1.36,1.36,0,0,1,.42,1,1.65,1.65,0,0,1-.6,1.31,2.83,2.83,0,0,1-1.85.51,2.79,2.79,0,0,1-1.89-.54,1.75,1.75,0,0,1-.61-1.37Z"/><path class="cls-5" d="M56.07,173.45a1.71,1.71,0,0,1,.62.6v-2.58h1.44v7.31H56.75V178a2,2,0,0,1-.69.7,1.94,1.94,0,0,1-1,.22,2,2,0,0,1-1.6-.77,2.94,2.94,0,0,1-.65-2,3.39,3.39,0,0,1,.64-2.18,2.08,2.08,0,0,1,1.71-.79A1.74,1.74,0,0,1,56.07,173.45Zm.35,3.86a2,2,0,0,0,.31-1.16,1.77,1.77,0,0,0-.5-1.42,1.08,1.08,0,0,0-.71-.26,1,1,0,0,0-.91.47,2.53,2.53,0,0,0,0,2.36,1,1,0,0,0,.9.45A1,1,0,0,0,56.42,177.31Z"/><path class="cls-5" d="M62.95,173.47a2.21,2.21,0,0,1,.94.8,2.68,2.68,0,0,1,.43,1.12,7,7,0,0,1,0,1.08H60.42a1.3,1.3,0,0,0,.57,1.14,1.44,1.44,0,0,0,.78.2,1.1,1.1,0,0,0,1.08-.62h1.45a1.77,1.77,0,0,1-.53,1,2.63,2.63,0,0,1-2,.79,3,3,0,0,1-1.91-.67,2.63,2.63,0,0,1-.83-2.17,2.93,2.93,0,0,1,.75-2.16,2.61,2.61,0,0,1,1.94-.75A3.09,3.09,0,0,1,62.95,173.47Zm-2.12,1.22a1.47,1.47,0,0,0-.38.84h2.44a1.18,1.18,0,0,0-.38-.86,1.24,1.24,0,0,0-.84-.29A1.12,1.12,0,0,0,60.83,174.7Z"/><path class="cls-5" d="M68.92,176.85a1.36,1.36,0,0,0,.32.71.91.91,0,0,0,.69.25.93.93,0,0,0,.8-.37,1.51,1.51,0,0,0,.28-.93,1.62,1.62,0,0,0-.26-.93.9.9,0,0,0-.8-.38,1.38,1.38,0,0,0-.45.06.89.89,0,0,0-.5.44l-1.27-.06.51-4h4v1.2H69.26L69,174.45a3,3,0,0,1,.51-.28,2.16,2.16,0,0,1,.75-.11,2.17,2.17,0,0,1,2.22,2.35,2.75,2.75,0,0,1-.64,1.78,2.33,2.33,0,0,1-1.92.78,2.54,2.54,0,0,1-1.69-.55,2.14,2.14,0,0,1-.73-1.57Z"/><path class="cls-5" d="M74.58,176.85a1.36,1.36,0,0,0,.32.71.91.91,0,0,0,.69.25.94.94,0,0,0,.8-.37,1.51,1.51,0,0,0,.27-.93,1.62,1.62,0,0,0-.26-.93.9.9,0,0,0-.8-.38,1.38,1.38,0,0,0-.45.06.89.89,0,0,0-.5.44l-1.27-.06.5-4h4v1.2H74.92l-.26,1.57a3,3,0,0,1,.51-.28,2.16,2.16,0,0,1,.75-.11,2.17,2.17,0,0,1,2.22,2.35,2.75,2.75,0,0,1-.64,1.78,2.33,2.33,0,0,1-1.92.78,2.55,2.55,0,0,1-1.69-.55,2.15,2.15,0,0,1-.73-1.57Z"/><path class="cls-5" d="M84.19,175.48a2.23,2.23,0,0,0,.57-.12.43.43,0,0,0,.31-.4.47.47,0,0,0-.23-.46,1.47,1.47,0,0,0-.69-.13.9.9,0,0,0-.72.25,1,1,0,0,0-.2.5H81.85a2.06,2.06,0,0,1,.4-1.17,2.32,2.32,0,0,1,1.94-.72,3.46,3.46,0,0,1,1.59.35,1.35,1.35,0,0,1,.69,1.33v2.48q0,.26,0,.63a.78.78,0,0,0,.08.38.51.51,0,0,0,.21.16v.21H85.23a1.59,1.59,0,0,1-.09-.31c0-.1,0-.21,0-.33a2.94,2.94,0,0,1-.68.54,2.05,2.05,0,0,1-1,.26,1.79,1.79,0,0,1-1.22-.42,1.49,1.49,0,0,1-.48-1.19,1.54,1.54,0,0,1,.78-1.45,3.47,3.47,0,0,1,1.25-.35Zm.87.66a1.6,1.6,0,0,1-.27.14,2.26,2.26,0,0,1-.38.1l-.32.06a2.11,2.11,0,0,0-.65.19.65.65,0,0,0-.33.6.63.63,0,0,0,.2.52.78.78,0,0,0,.5.16,1.48,1.48,0,0,0,.86-.27,1.14,1.14,0,0,0,.41-1Z"/><path class="cls-5" d="M92.07,173.67a1.79,1.79,0,0,1,.53,1.46v3.65H91.15v-3.29a1.52,1.52,0,0,0-.11-.66.8.8,0,0,0-.79-.42,1,1,0,0,0-1,.61,2.11,2.11,0,0,0-.14.82v2.93H87.71v-5.4h1.37v.79a2.41,2.41,0,0,1,.51-.6,1.78,1.78,0,0,1,1.1-.33A2.07,2.07,0,0,1,92.07,173.67Zm-2.27-2.33.22.07.47.18.27.09.14,0a.4.4,0,0,0,.33-.13.84.84,0,0,0,.14-.3H92a2,2,0,0,1-.35.87.91.91,0,0,1-.78.35,1.81,1.81,0,0,1-.44-.08l-.31-.09-.4-.14-.16,0h-.16a.44.44,0,0,0-.31.11.64.64,0,0,0-.17.32h-.65a2.35,2.35,0,0,1,.28-.78,1.06,1.06,0,0,1,.94-.47A1.13,1.13,0,0,1,89.8,171.34Z"/><path class="cls-5" d="M98.43,178.12a3,3,0,0,1-4.16,0,3.36,3.36,0,0,1,0-4.07,3,3,0,0,1,4.16,0,3.36,3.36,0,0,1,0,4.07Zm-1.13-.78a2.53,2.53,0,0,0,0-2.51,1.26,1.26,0,0,0-1.91,0,2.51,2.51,0,0,0,0,2.51,1.25,1.25,0,0,0,1.91,0Z"/><path class="cls-5" d="M101.23,177a.94.94,0,0,0,.19.54,1.32,1.32,0,0,0,1,.28,1.49,1.49,0,0,0,.67-.12.4.4,0,0,0,.25-.37.4.4,0,0,0-.2-.36,8.15,8.15,0,0,0-1.48-.43,3.08,3.08,0,0,1-1.3-.57,1.24,1.24,0,0,1-.38-1,1.69,1.69,0,0,1,.59-1.29,2.37,2.37,0,0,1,1.66-.54,3.06,3.06,0,0,1,1.66.4,1.74,1.74,0,0,1,.73,1.4h-1.42a.83.83,0,0,0-.15-.43,1,1,0,0,0-.8-.29,1.15,1.15,0,0,0-.66.14.42.42,0,0,0-.2.34.37.37,0,0,0,.21.35,9,9,0,0,0,1.48.39,2.71,2.71,0,0,1,1.27.6,1.36,1.36,0,0,1,.42,1,1.65,1.65,0,0,1-.6,1.31,3.61,3.61,0,0,1-3.74,0,1.75,1.75,0,0,1-.61-1.37Z"/><path class="cls-3" d="M146,172.07v.78a8.27,8.27,0,0,0-.91,1.16,11.65,11.65,0,0,0-1,1.78,12.21,12.21,0,0,0-.66,1.69q-.14.49-.37,1.58h-1a12.2,12.2,0,0,1,1.49-4.05,12.83,12.83,0,0,1,1.43-2H141v-.9Z"/><path class="cls-3" d="M149.69,179.06v-1.74h-3.12v-.87l3.26-4.52h.75v4.61h1v.78h-1v1.74Zm0-2.52v-3.23l-2.28,3.23Z"/><path class="cls-3" d="M152.94,174.9a1.41,1.41,0,0,1-.39-1,1.86,1.86,0,0,1,.58-1.37,2.22,2.22,0,0,1,1.63-.57,2.26,2.26,0,0,1,1.6.54,1.75,1.75,0,0,1,.24,2.34,2,2,0,0,1-.59.46,2.28,2.28,0,0,1,.7.47,1.8,1.8,0,0,1,.47,1.29,2.21,2.21,0,0,1-.63,1.59,2.36,2.36,0,0,1-1.78.65,2.76,2.76,0,0,1-1.76-.56,2,2,0,0,1-.72-1.64,1.82,1.82,0,0,1,1.22-1.79A1.77,1.77,0,0,1,152.94,174.9Zm2.88,3.22a1.22,1.22,0,0,0,.41-1,1.3,1.3,0,0,0-.42-1,1.62,1.62,0,0,0-1.08-.36,1.5,1.5,0,0,0-1,.36,1.3,1.3,0,0,0-.4,1,1.38,1.38,0,0,0,.37,1,1.48,1.48,0,0,0,1.15.4A1.57,1.57,0,0,0,155.82,178.12Zm-.17-3.52a1.08,1.08,0,0,0,.33-.79,1,1,0,0,0-.32-.73,1.28,1.28,0,0,0-1-.33,1.17,1.17,0,0,0-.93.33,1.16,1.16,0,0,0-.29.78.93.93,0,0,0,.37.79,1.4,1.4,0,0,0,.88.28A1.25,1.25,0,0,0,155.66,174.6Z"/><path class="cls-4" d="M195.48,174v-.69a3.64,3.64,0,0,0,1.35-.32,1.56,1.56,0,0,0,.57-1h.71v7.08h-1v-5Z"/><path class="cls-4" d="M205.48,172.07v.78a8.26,8.26,0,0,0-.91,1.16,11.73,11.73,0,0,0-1,1.78,12.08,12.08,0,0,0-.66,1.69q-.15.49-.37,1.58h-1A12.16,12.16,0,0,1,203,175a12.77,12.77,0,0,1,1.43-2h-3.93v-.9Z"/><path class="cls-4" d="M207.08,177.25a1.24,1.24,0,0,0,.71,1.06,1.71,1.71,0,0,0,.74.15,1.38,1.38,0,0,0,1.18-.51,1.82,1.82,0,0,0,.38-1.12,1.47,1.47,0,0,0-.45-1.15,1.58,1.58,0,0,0-1.09-.41,1.64,1.64,0,0,0-.79.18,1.7,1.7,0,0,0-.56.5l-.77,0,.54-3.83h3.7v.86h-3l-.3,2a2.18,2.18,0,0,1,.47-.28,2.39,2.39,0,0,1,.92-.16,2.35,2.35,0,0,1,1.66.63,2.08,2.08,0,0,1,.68,1.6,2.74,2.74,0,0,1-.62,1.78,2.41,2.41,0,0,1-2,.77,2.53,2.53,0,0,1-1.54-.49,1.94,1.94,0,0,1-.75-1.5Z"/><path class="cls-6" d="M17,194.31v1.3H14.84v6H13.3v-6h-2.2v-1.3Z"/><path class="cls-6" d="M22.32,201a2.53,2.53,0,0,1-2.08.85,2.52,2.52,0,0,1-2.08-.85,3.36,3.36,0,0,1,0-4.07,2.5,2.5,0,0,1,2.08-.86,2.5,2.5,0,0,1,2.08.86,3.36,3.36,0,0,1,0,4.07Zm-1.13-.78a2.53,2.53,0,0,0,0-2.51,1.26,1.26,0,0,0-1.91,0,2.51,2.51,0,0,0,0,2.51,1.25,1.25,0,0,0,1.91,0Z"/><path class="cls-6" d="M23.46,197.27v-1h.75v-1.51h1.4v1.51h.88v1h-.88v2.86a.65.65,0,0,0,.08.42.93.93,0,0,0,.52.08h.28v1.06l-.67,0a1.8,1.8,0,0,1-1.37-.35,1,1,0,0,1-.24-.75v-3.33Z"/><path class="cls-6" d="M29.55,198.34a2.27,2.27,0,0,0,.57-.12.43.43,0,0,0,.3-.4.47.47,0,0,0-.23-.46,1.46,1.46,0,0,0-.69-.13.9.9,0,0,0-.72.25,1,1,0,0,0-.2.5H27.21a2.07,2.07,0,0,1,.4-1.17,2.32,2.32,0,0,1,1.94-.72,3.46,3.46,0,0,1,1.59.35,1.35,1.35,0,0,1,.69,1.33v2.48q0,.26,0,.63a.78.78,0,0,0,.08.38.5.5,0,0,0,.21.16v.21H30.59a1.6,1.6,0,0,1-.09-.31c0-.1,0-.21,0-.33a2.87,2.87,0,0,1-.68.54,2,2,0,0,1-1,.26,1.79,1.79,0,0,1-1.22-.42,1.49,1.49,0,0,1-.48-1.19,1.54,1.54,0,0,1,.78-1.45,3.48,3.48,0,0,1,1.25-.35Zm.87.66a1.56,1.56,0,0,1-.27.14,2.23,2.23,0,0,1-.38.1l-.32.06a2.11,2.11,0,0,0-.65.19.65.65,0,0,0-.33.6.63.63,0,0,0,.2.52.78.78,0,0,0,.5.16,1.47,1.47,0,0,0,.85-.27,1.13,1.13,0,0,0,.41-1Z"/><path class="cls-6" d="M34.51,201.63H33.09v-7.32h1.42Z"/><path class="cls-6" d="M135.24,198.8a1.63,1.63,0,0,0,.14.72,1,1,0,0,0,.94.52,1,1,0,0,0,.73-.29,1.06,1.06,0,0,0,.31-.82.93.93,0,0,0-.57-.95,2.92,2.92,0,0,0-1-.13v-1a2.66,2.66,0,0,0,1-.13.83.83,0,0,0,.47-.84,1,1,0,0,0-.24-.67.88.88,0,0,0-.68-.26.86.86,0,0,0-.74.32,1.35,1.35,0,0,0-.23.85H134a3.57,3.57,0,0,1,.18-1,2.3,2.3,0,0,1,.55-.78,1.91,1.91,0,0,1,.66-.39,2.87,2.87,0,0,1,.94-.13,2.49,2.49,0,0,1,1.67.53,1.78,1.78,0,0,1,.63,1.43,1.59,1.59,0,0,1-.38,1.07,1.29,1.29,0,0,1-.5.37,1,1,0,0,1,.56.33,1.78,1.78,0,0,1,.54,1.37,2.31,2.31,0,0,1-.63,1.61,2.41,2.41,0,0,1-1.87.69,2.27,2.27,0,0,1-2.12-1,3,3,0,0,1-.35-1.39Z"/><path class="cls-6" d="M144,194.73a7.1,7.1,0,0,1,0,5.5,2.41,2.41,0,0,1-3.86,0,7.1,7.1,0,0,1,0-5.5,2.41,2.41,0,0,1,3.86,0Zm-2.76,4.65a.82.82,0,0,0,.83.66.81.81,0,0,0,.83-.66,7.07,7.07,0,0,0,.2-1.9,7,7,0,0,0-.2-1.93.8.8,0,0,0-.83-.63.81.81,0,0,0-.83.63,6.7,6.7,0,0,0-.2,1.93A6.78,6.78,0,0,0,141.21,199.38Z"/><path class="cls-6" d="M145.49,202.19a1.11,1.11,0,0,0,.63-.4,1.46,1.46,0,0,0,.23-.78h-.86v-1.49H147v1.29a3,3,0,0,1-.09.71,1.43,1.43,0,0,1-.33.64,1.71,1.71,0,0,1-.62.43,1.59,1.59,0,0,1-.49.15Z"/><path class="cls-6" d="M153,199.46h-.82V201h-1.39v-1.55H148v-1.24l2.65-4.37h1.59v4.5H153Zm-2.2-1.11v-3.1l-1.8,3.1Z"/><path class="cls-6" d="M158.12,194.73a7.1,7.1,0,0,1,0,5.5,2.41,2.41,0,0,1-3.86,0,7.1,7.1,0,0,1,0-5.5,2.41,2.41,0,0,1,3.86,0Zm-2.76,4.65a.82.82,0,0,0,.83.66.81.81,0,0,0,.83-.66,7,7,0,0,0,.2-1.9,7,7,0,0,0-.2-1.93.8.8,0,0,0-.83-.63.81.81,0,0,0-.83.63,6.67,6.67,0,0,0-.2,1.93A6.75,6.75,0,0,0,155.35,199.38Z"/><path class="cls-6" d="M160.72,199.08a1.36,1.36,0,0,0,.32.71.91.91,0,0,0,.69.25.93.93,0,0,0,.8-.37,1.51,1.51,0,0,0,.28-.93,1.62,1.62,0,0,0-.26-.93.9.9,0,0,0-.8-.38,1.38,1.38,0,0,0-.45.06.89.89,0,0,0-.5.44l-1.27-.06.51-4h4v1.2h-2.94l-.26,1.57a3,3,0,0,1,.51-.28,2.16,2.16,0,0,1,.75-.11,2.17,2.17,0,0,1,2.22,2.35,2.75,2.75,0,0,1-.64,1.78,2.33,2.33,0,0,1-1.92.78,2.54,2.54,0,0,1-1.69-.55,2.14,2.14,0,0,1-.73-1.57Z"/><path class="cls-6" d="M195.63,195a9,9,0,0,0-.89,1.12,9.16,9.16,0,0,0-1.5,3.3A6.78,6.78,0,0,0,193,201h-1.47a8.64,8.64,0,0,1,1.27-4,9.55,9.55,0,0,1,1.31-1.81h-3.59l0-1.27h5.09Z"/><path class="cls-6" d="M196.51,202.19a1.11,1.11,0,0,0,.63-.4,1.46,1.46,0,0,0,.23-.78h-.86v-1.49H198v1.29a3,3,0,0,1-.09.71,1.43,1.43,0,0,1-.33.64,1.71,1.71,0,0,1-.62.43,1.59,1.59,0,0,1-.49.15Z"/><path class="cls-6" d="M204.11,195a9,9,0,0,0-.89,1.12,9.16,9.16,0,0,0-1.5,3.3,6.78,6.78,0,0,0-.24,1.59H200a8.64,8.64,0,0,1,1.27-4,9.55,9.55,0,0,1,1.31-1.81H199l0-1.27h5.09Z"/><path class="cls-6" d="M205.05,199.6a4,4,0,0,1,1.43-1.52,10.48,10.48,0,0,0,1.27-1,1.48,1.48,0,0,0,.44-1,1.14,1.14,0,0,0-.25-.76,1,1,0,0,0-1.6.18,2.41,2.41,0,0,0-.16.88H204.8a3.46,3.46,0,0,1,.33-1.48,2.07,2.07,0,0,1,2-1.08,2.56,2.56,0,0,1,1.82.63,2.19,2.19,0,0,1,.68,1.68,2.27,2.27,0,0,1-.48,1.42,4.78,4.78,0,0,1-1,.92l-.57.4q-.53.38-.73.55a1.64,1.64,0,0,0-.33.39h3.14V201h-4.93A3.39,3.39,0,0,1,205.05,199.6Z"/><path class="cls-6" d="M211.72,198.8a1.63,1.63,0,0,0,.14.72,1,1,0,0,0,.94.52,1,1,0,0,0,.73-.29,1.06,1.06,0,0,0,.31-.82.93.93,0,0,0-.57-.95,2.92,2.92,0,0,0-1-.13v-1a2.66,2.66,0,0,0,1-.13.83.83,0,0,0,.47-.84,1,1,0,0,0-.24-.67.88.88,0,0,0-.68-.26.86.86,0,0,0-.74.32,1.35,1.35,0,0,0-.23.85h-1.32a3.57,3.57,0,0,1,.18-1,2.3,2.3,0,0,1,.55-.78,1.91,1.91,0,0,1,.66-.39,2.87,2.87,0,0,1,.94-.13,2.49,2.49,0,0,1,1.67.53,1.78,1.78,0,0,1,.63,1.43,1.59,1.59,0,0,1-.38,1.07,1.29,1.29,0,0,1-.5.37,1,1,0,0,1,.56.33,1.78,1.78,0,0,1,.54,1.37,2.31,2.31,0,0,1-.63,1.61,2.41,2.41,0,0,1-1.87.69,2.27,2.27,0,0,1-2.12-1,3,3,0,0,1-.35-1.39Z"/><rect class="cls-4" width="231.35" height="29.21" rx="14.6" ry="14.6"/><path class="cls-7" d="M45.84,15.18a3.79,3.79,0,0,1-2.49.73H41.28v3.57H39.22V9.55h4.26a3.44,3.44,0,0,1,2.35.77,3,3,0,0,1,.88,2.38A3.08,3.08,0,0,1,45.84,15.18ZM44.25,11.6a1.67,1.67,0,0,0-1.1-.33H41.28v2.92h1.87a1.59,1.59,0,0,0,1.1-.36,1.46,1.46,0,0,0,.39-1.13A1.37,1.37,0,0,0,44.25,11.6Z"/><path class="cls-7" d="M56,18.59a4.33,4.33,0,0,1-3.25,1.16,4.33,4.33,0,0,1-3.25-1.16A5.35,5.35,0,0,1,48,14.49a5.25,5.25,0,0,1,1.51-4.09,4.33,4.33,0,0,1,3.25-1.16A4.33,4.33,0,0,1,56,10.4a5.26,5.26,0,0,1,1.5,4.09A5.37,5.37,0,0,1,56,18.59Zm-1.3-1.51a4.07,4.07,0,0,0,.72-2.59,4.07,4.07,0,0,0-.72-2.58,2.37,2.37,0,0,0-2-.91,2.4,2.4,0,0,0-2,.91,4,4,0,0,0-.73,2.59,4,4,0,0,0,.73,2.59,2.4,2.4,0,0,0,2,.91A2.37,2.37,0,0,0,54.72,17.08Z"/><path class="cls-7" d="M65.46,9.8a2.45,2.45,0,0,1,.93.69,3.07,3.07,0,0,1,.5.84,2.77,2.77,0,0,1,.18,1,3,3,0,0,1-.36,1.39,2,2,0,0,1-1.18,1,1.86,1.86,0,0,1,1,.78,3.27,3.27,0,0,1,.29,1.55v.67a5.05,5.05,0,0,0,.05.92.83.83,0,0,0,.38.57v.25H64.94q-.1-.33-.13-.53a4.75,4.75,0,0,1-.09-.85v-.92a1.88,1.88,0,0,0-.33-1.27,1.67,1.67,0,0,0-1.18-.32h-2v3.89h-2V9.55h4.75A4.32,4.32,0,0,1,65.46,9.8Zm-4.29,1.47v2.67h2.23a2.37,2.37,0,0,0,1-.16A1.12,1.12,0,0,0,65,12.66a1.25,1.25,0,0,0-.57-1.21,2.06,2.06,0,0,0-1-.17Z"/><path class="cls-7" d="M79.25,9.8a2.45,2.45,0,0,1,.93.69,3.12,3.12,0,0,1,.5.84,2.79,2.79,0,0,1,.18,1,3,3,0,0,1-.36,1.39,2,2,0,0,1-1.18,1,1.85,1.85,0,0,1,1,.78,3.26,3.26,0,0,1,.29,1.55v.67a5,5,0,0,0,.05.92.83.83,0,0,0,.38.57v.25H78.74q-.09-.33-.13-.53a4.94,4.94,0,0,1-.09-.85v-.92a1.88,1.88,0,0,0-.33-1.27A1.67,1.67,0,0,0,77,15.58H75v3.89h-2V9.55h4.75A4.32,4.32,0,0,1,79.25,9.8ZM75,11.27v2.67H77.2a2.37,2.37,0,0,0,1-.16,1.12,1.12,0,0,0,.59-1.12,1.25,1.25,0,0,0-.57-1.21,2.05,2.05,0,0,0-1-.17Z"/><path class="cls-7" d="M85.69,9.55H88l3.51,9.93H89.3l-.66-2H85l-.67,2H82.15Zm-.14,6.18H88.1l-1.25-3.91Z"/><path class="cls-7" d="M92.78,9.55H95l3.94,6.92V9.55h1.93v9.93H98.75l-4-7v7H92.78Z"/><path class="cls-7" d="M109.45,12.64a1.94,1.94,0,0,0-1.15-1.42,2.83,2.83,0,0,0-1.14-.22,2.47,2.47,0,0,0-2,.9,4.1,4.1,0,0,0-.77,2.72,3.37,3.37,0,0,0,.83,2.59,2.74,2.74,0,0,0,1.9.76,2.46,2.46,0,0,0,1.71-.6,2.59,2.59,0,0,0,.82-1.57h-2.3V14.14h4.13v5.33h-1.37l-.21-1.24a4.75,4.75,0,0,1-1.08,1,3.8,3.8,0,0,1-2,.5,4.2,4.2,0,0,1-3.23-1.37,5.21,5.21,0,0,1-1.31-3.76,5.51,5.51,0,0,1,1.33-3.86,4.52,4.52,0,0,1,3.51-1.45,4.59,4.59,0,0,1,3,1,3.57,3.57,0,0,1,1.32,2.39Z"/><path class="cls-7" d="M121.14,18.59a5.15,5.15,0,0,1-6.5,0,5.35,5.35,0,0,1-1.51-4.09,5.25,5.25,0,0,1,1.51-4.09,5.15,5.15,0,0,1,6.5,0,5.26,5.26,0,0,1,1.5,4.09A5.37,5.37,0,0,1,121.14,18.59Zm-1.3-1.51a4.07,4.07,0,0,0,.72-2.59,4.07,4.07,0,0,0-.72-2.58,2.37,2.37,0,0,0-2-.91,2.4,2.4,0,0,0-2,.91,4,4,0,0,0-.73,2.59,4,4,0,0,0,.73,2.59,2.4,2.4,0,0,0,2,.91A2.37,2.37,0,0,0,119.85,17.08Z"/><path class="cls-7" d="M125.72,16.41a2,2,0,0,0,.38,1,2.2,2.2,0,0,0,1.77.61,3.8,3.8,0,0,0,1.22-.16,1.16,1.16,0,0,0,.89-1.15.85.85,0,0,0-.43-.76,4.71,4.71,0,0,0-1.38-.46l-1.08-.24a6.7,6.7,0,0,1-2.18-.76,2.42,2.42,0,0,1-1-2.15,2.85,2.85,0,0,1,1-2.22,4.18,4.18,0,0,1,2.88-.88,4.42,4.42,0,0,1,2.71.83,3,3,0,0,1,1.18,2.41h-2a1.42,1.42,0,0,0-.8-1.27,2.75,2.75,0,0,0-1.24-.25,2.35,2.35,0,0,0-1.31.32,1,1,0,0,0-.49.9.85.85,0,0,0,.48.79,6,6,0,0,0,1.32.41l1.74.41a4.43,4.43,0,0,1,1.72.72,2.43,2.43,0,0,1,.89,2,2.85,2.85,0,0,1-1.05,2.26,4.44,4.44,0,0,1-3,.9,4.85,4.85,0,0,1-3.08-.89,2.93,2.93,0,0,1-1.12-2.43Z"/><path class="cls-7" d="M143.08,9.76A3.28,3.28,0,0,1,144.77,11a4.42,4.42,0,0,1,.71,1.6,7.68,7.68,0,0,1,.19,1.64,6.59,6.59,0,0,1-.8,3.35,3.59,3.59,0,0,1-3.33,1.85h-4.28V9.55h4.28A5.21,5.21,0,0,1,143.08,9.76Zm-3.8,1.51v6.48h1.92a2.07,2.07,0,0,0,2-1.45,5.09,5.09,0,0,0,.32-1.89,4.65,4.65,0,0,0-.48-2.33,2,2,0,0,0-1.89-.81Z"/><path class="cls-7" d="M154.56,11.3h-5.25v2.11h4.82v1.72h-4.82v2.55h5.5v1.78h-7.52V9.55h7.28Z"/><path class="cls-7" d="M167.59,11.3h-5.25v2.11h4.82v1.72h-4.82v2.55h5.5v1.78h-7.52V9.55h7.28Z"/><path class="cls-7" d="M175.27,9.76A3.28,3.28,0,0,1,177,11a4.42,4.42,0,0,1,.71,1.6,7.68,7.68,0,0,1,.19,1.64,6.59,6.59,0,0,1-.8,3.35,3.59,3.59,0,0,1-3.33,1.85h-4.28V9.55h4.28A5.21,5.21,0,0,1,175.27,9.76Zm-3.8,1.51v6.48h1.92a2.07,2.07,0,0,0,2-1.45,5.09,5.09,0,0,0,.32-1.89,4.65,4.65,0,0,0-.48-2.33,2,2,0,0,0-1.89-.81Z"/><path class="cls-7" d="M182.25,9.55h2.35l3.51,9.93h-2.25l-.66-2h-3.66l-.67,2h-2.17Zm-.14,6.18h2.54l-1.25-3.91Z"/><path class="cls-7" d="M195.19,9.76A3.28,3.28,0,0,1,196.88,11a4.43,4.43,0,0,1,.71,1.6,7.68,7.68,0,0,1,.19,1.64,6.59,6.59,0,0,1-.79,3.35,3.59,3.59,0,0,1-3.33,1.85h-4.28V9.55h4.28A5.22,5.22,0,0,1,195.19,9.76Zm-3.8,1.51v6.48h1.92a2.07,2.07,0,0,0,2.05-1.45,5.11,5.11,0,0,0,.32-1.89,4.66,4.66,0,0,0-.48-2.33,2,2,0,0,0-1.89-.81Z"/><line class="cls-8" x1="120.6" y1="85.69" x2="120.6" y2="189.81"/><line class="cls-8" x1="176.77" y1="85.69" x2="176.77" y2="189.81"/><path class="cls-4" d="M212.54,61.32H191a2.23,2.23,0,0,1,0-.87,4.65,4.65,0,0,1,.38-1.3,2.7,2.7,0,0,1,1-1.11,14.11,14.11,0,0,1,2.52-1.25l1.88-.78c1.76-.79,2-1.4,2-1.5a1.3,1.3,0,0,0,0-.17c0-.13,0-.26,0-.4V53.6c-3.81,0-4.94-1.6-4.94-1.6s2.18,0,2-5.79,2.52-6.7,3.51-7.08c2.88-1.09,4.33.65,4.33.65,3.34-.31,4.26,3.34,3.85,7.49s1.87,4.8,1.87,4.8c-1.57,1.6-4.87,1.5-4.87,1.5v.77a1.32,1.32,0,0,0,0,.17c0,.1.26.7,2,1.5l1.88.78A14.09,14.09,0,0,1,211.14,58a2.7,2.7,0,0,1,1,1.11,4.64,4.64,0,0,1,.38,1.3,2.22,2.22,0,0,1,0,.87"/><path class="cls-3" d="M160.63,61.78H138.51V58.66A2.2,2.2,0,0,1,139.3,57a35.8,35.8,0,0,1,6.49-4.16.2.2,0,0,0,.11-.18V50.52a5,5,0,0,1-.63-1.71c-.24,0-.56-.34-.9-1.56-.44-1.55,0-1.86.37-1.86-.21-.9-.75-4.06,1.59-5.49a1.26,1.26,0,0,1-.46-1,17.63,17.63,0,0,0,4,0,2.65,2.65,0,0,1,2.9,1.73s2.62,0,1.6,4.68c.41,0,.85.26.4,1.86-.34,1.2-.66,1.54-.9,1.56a5,5,0,0,1-.63,1.71v2.1a.2.2,0,0,0,.11.18A35.8,35.8,0,0,1,159.83,57a2.19,2.19,0,0,1,.79,1.71Z"/></g></g></svg>
