<svg xmlns="http://www.w3.org/2000/svg" viewBox="0 0 87.35 91.72"><defs><style>.cls-1{isolation:isolate;}.cls-2{opacity:0.5;mix-blend-mode:multiply;}.cls-3{fill:#5a4494;}</style></defs><title>examenes</title><g class="cls-1"><g id="Layer_2" data-name="Layer 2"><g id="_ÎÓÈ_1" data-name="—ÎÓÈ_1"><g class="cls-2"><path class="cls-3" d="M43.68,2.18A2.18,2.18,0,0,0,41.49,0H24a2.18,2.18,0,0,0-2.18,2.18V8.74H43.68Z"/><path class="cls-3" d="M80.8,4.37a6.56,6.56,0,0,0-6.55,6.55v6.55h13.1V10.92A6.56,6.56,0,0,0,80.8,4.37Z"/><path class="cls-3" d="M74.25,80.8a2.22,2.22,0,0,0,.23,1l4.37,8.74a2.18,2.18,0,0,0,3.91,0l4.37-8.74a2.22,2.22,0,0,0,.23-1v-59H74.25Z"/><path class="cls-3" d="M63.33,4.37H48v6.55a2.18,2.18,0,0,1-2.18,2.18H19.65a2.18,2.18,0,0,1-2.18-2.18V4.37H2.18A2.18,2.18,0,0,0,0,6.55v83a2.18,2.18,0,0,0,2.18,2.18H63.33a2.18,2.18,0,0,0,2.18-2.18v-83A2.18,2.18,0,0,0,63.33,4.37ZM19.65,78.62H15.29a2.18,2.18,0,0,1,0-4.37h4.37a2.18,2.18,0,0,1,0,4.37Zm0-13.1H15.29a2.18,2.18,0,1,1,0-4.37h4.37a2.18,2.18,0,0,1,0,4.37Zm0-13.1H15.29a2.18,2.18,0,1,1,0-4.37h4.37a2.18,2.18,0,1,1,0,4.37Zm0-13.1H15.29a2.18,2.18,0,0,1,0-4.37h4.37a2.18,2.18,0,0,1,0,4.37Zm0-13.1H15.29a2.18,2.18,0,0,1,0-4.37h4.37a2.18,2.18,0,0,1,0,4.37ZM50.23,78.62H28.39a2.18,2.18,0,0,1,0-4.37H50.23a2.18,2.18,0,0,1,0,4.37Zm0-13.1H28.39a2.18,2.18,0,1,1,0-4.37H50.23a2.18,2.18,0,0,1,0,4.37Zm0-13.1H28.39a2.18,2.18,0,1,1,0-4.37H50.23a2.18,2.18,0,0,1,0,4.37Zm0-13.1H28.39a2.18,2.18,0,0,1,0-4.37H50.23a2.18,2.18,0,0,1,0,4.37Zm0-13.1H28.39a2.18,2.18,0,0,1,0-4.37H50.23a2.18,2.18,0,0,1,0,4.37Z"/></g></g></g></g></svg>
