<svg xmlns="http://www.w3.org/2000/svg" xmlns:xlink="http://www.w3.org/1999/xlink" viewBox="0 0 205.56 216.94"><defs><style>.cls-1{fill:none;}.cls-2{clip-path:url(#clip-path);}.cls-3{fill:#ededed;}.cls-4{fill:#352f54;}.cls-5{fill:#7b69ab;}.cls-6{fill:#5a4494;}.cls-7{fill:#1d1d1b;}.cls-8{fill:#fff;}</style><clipPath id="clip-path" transform="translate(0 0)"><rect class="cls-1" width="205.56" height="216.94"/></clipPath></defs><title>formacion</title><g id="Layer_2" data-name="Layer 2"><g id="Layer_1-2" data-name="Layer 1"><g class="cls-2"><path class="cls-3" d="M184.92,208.35c0,4.74-38.09,8.59-85.08,8.59s-85.08-3.84-85.08-8.59,38.09-8.59,85.08-8.59,85.08,3.84,85.08,8.59" transform="translate(0 0)"/><path class="cls-4" d="M5.76,98.35c-19.42-35.74,14-66.49,44.45-51.26S97,86,124.6,73s48.3-23.46,64.1,3.9c15.91,27.54-2.11,66.38-34.62,82.29S49.74,179.3,5.76,98.35" transform="translate(0 0)"/><path class="cls-5" d="M26.19,19.75,13.55,32.4a33.82,33.82,0,0,0-2.09,4.34L30.55,17.65a34.25,34.25,0,0,0-4.35,2.1" transform="translate(0 0)"/><path class="cls-5" d="M36.71,15.86l-27,27q-.25,1.31-.41,2.67L39.36,15.45q-1.34.15-2.66.4" transform="translate(0 0)"/><path class="cls-5" d="M43.93,15.25,9,50.16q0,1.08.09,2.17l37-37q-1.08-.09-2.14-.11" transform="translate(0 0)"/><path class="cls-5" d="M49.91,15.9,9.57,56.23q.16.94.37,1.89L51.75,16.31c-.62-.15-1.23-.29-1.85-.41" transform="translate(0 0)"/><path class="cls-5" d="M55.11,17.31,10.84,61.59q.26.85.55,1.7L56.75,17.93q-.82-.33-1.64-.62" transform="translate(0 0)"/><path class="cls-5" d="M59.76,19.29,12.6,66.44q.33.78.69,1.56l48-48-1.49-.76" transform="translate(0 0)"/><path class="cls-5" d="M64.1,21.57,14.76,70.91l.08.14.72,1.31,50-50-1.45-.81" transform="translate(0 0)"/><path class="cls-5" d="M68.32,24,17.13,75.15,18,76.58,69.73,24.81,68.32,24" transform="translate(0 0)"/><path class="cls-5" d="M72.44,26.47,19.6,79.31l.86,1.4L73.82,27.34l-1.38-.87" transform="translate(0 0)"/><path class="cls-5" d="M76.48,29,22.15,83.37,23,84.74l54.8-54.8L76.48,29" transform="translate(0 0)"/><path class="cls-5" d="M80.47,31.67,24.8,87.34l.92,1.33,56.1-56.1-1.35-.9" transform="translate(0 0)"/><path class="cls-5" d="M84.44,34.32,27.55,91.21l1,1.29L85.79,35.23l-1.35-.9" transform="translate(0 0)"/><path class="cls-5" d="M88.42,37l-58,58,1,1.26L89.78,37.86,88.42,37" transform="translate(0 0)"/><path class="cls-5" d="M92.45,39.56,33.36,98.64l1,1.22L93.84,40.42l-1.39-.86" transform="translate(0 0)"/><path class="cls-5" d="M96.58,42,36.42,102.2l1.07,1.19L98,42.86,96.58,42" transform="translate(0 0)"/><path class="cls-5" d="M100.88,44.36,39.59,105.65l1.11,1.15,61.7-61.7-1.52-.74" transform="translate(0 0)"/><path class="cls-5" d="M105.45,46.41,42.88,109,44,110.09,107.09,47q-.82-.29-1.64-.62" transform="translate(0 0)"/><path class="cls-5" d="M110.42,48.06,46.28,112.2l1.19,1.07L112.24,48.5q-.92-.19-1.82-.43" transform="translate(0 0)"/><path class="cls-5" d="M116,49.08,49.81,115.3l1.23,1,67.11-67.11q-1.07,0-2.12-.14" transform="translate(0 0)"/><path class="cls-5" d="M122.7,49,53.46,118.27l1.27,1,70.63-70.63c-.9.17-1.79.31-2.67.41" transform="translate(0 0)"/><path class="cls-5" d="M134.88,45.43c-1.15.54-2.29,1-3.4,1.44L57.24,121.1l1.32.94,76.87-76.87-.55.26" transform="translate(0 0)"/><path class="cls-5" d="M143.64,41.32,61.17,123.8l1.37.89,85.23-85.23q-2,.9-4.12,1.87" transform="translate(0 0)"/><path class="cls-5" d="M155.25,36.33l-90,90,1.42.84L158.8,35q-1.75.6-3.55,1.29" transform="translate(0 0)"/><path class="cls-5" d="M165,33.22,69.45,128.76l1.47.78,96.93-96.93q-1.41.25-2.86.6" transform="translate(0 0)"/><path class="cls-5" d="M172.78,32l-99,99,1.53.73L175.06,32c-.75,0-1.51,0-2.27,0" transform="translate(0 0)"/><path class="cls-5" d="M179,32.43,78.36,133.09l1.59.67L180.86,32.84q-.91-.24-1.85-.41" transform="translate(0 0)"/><path class="cls-5" d="M184.12,34l-101,101,1.65.6L185.65,34.67q-.76-.39-1.53-.72" transform="translate(0 0)"/><path class="cls-5" d="M188.38,36.31,88,136.7l1.72.54,100-100c-.43-.34-.86-.66-1.3-1" transform="translate(0 0)"/><path class="cls-5" d="M192,39.3l-98.9,98.9,1.79.46,98.23-98.23c-.37-.39-.75-.77-1.12-1.13" transform="translate(0 0)"/><path class="cls-5" d="M195.16,42.77,98.45,139.48l1.87.38L196.14,44c-.32-.44-.65-.86-1-1.27" transform="translate(0 0)"/><path class="cls-5" d="M197.94,46.61,104,140.52l2,.29L198.81,48c-.29-.47-.58-.93-.87-1.38" transform="translate(0 0)"/><path class="cls-5" d="M200.4,50.77l-90.52,90.52,2.06.19,89.21-89.21c-.24-.5-.49-1-.75-1.5" transform="translate(0 0)"/><path class="cls-5" d="M202.48,55.31,116,141.75l2.17.08L203.08,57q-.29-.83-.61-1.65" transform="translate(0 0)"/><path class="cls-5" d="M204.1,60.31l-81.55,81.55,2.31-.05,79.67-79.67c-.13-.61-.27-1.22-.43-1.83" transform="translate(0 0)"/><path class="cls-5" d="M205.16,65.86l-75.7,75.69,2.47-.21L205.38,67.9c-.06-.68-.13-1.36-.22-2" transform="translate(0 0)"/><path class="cls-5" d="M205.56,72.09l-68.65,68.65q1.35-.2,2.68-.42L205.51,74.4q.05-1.16.05-2.31" transform="translate(0 0)"/><path class="cls-5" d="M205.07,79.2l-60,60q1.51-.34,3-.72l56.64-56.64q.25-1.35.44-2.69" transform="translate(0 0)"/><path class="cls-5" d="M203.27,87.62l-49.11,49.11q1.79-.59,3.48-1.23l44.56-44.56q.58-1.65,1.06-3.32" transform="translate(0 0)"/><path class="cls-5" d="M196.27,103.49q1.48-2.46,2.73-5l-33.62,33.62q2.58-1.3,5-2.78Z" transform="translate(0 0)"/><path class="cls-6" d="M136.85,30.63A36.82,36.82,0,0,0,112.22,2q-1.15-.38-2.32-.7C92-3.5,70.47,4.95,61.88,31.09c-9.53,29-14.64,37.25-38.31,59.6l-.78.75Q22,92.2,21.23,93C-.21,114.4-5.44,137.12,15.1,150.39c9.34,6,19.16,7.49,29.45,7.16l1.68-.07c23.3-1.16,49-10.58,76.94,3.67,19.08,9.73,42.18,4.27,58.26-8.14q.85-.65,1.67-1.33c16.31-13.49,24.52-34.29,12-52.91C172.28,64.95,147.23,86,136.85,30.63" transform="translate(0 0)"/><path class="cls-7" d="M121.63,17.65a1.83,1.83,0,1,1-1.83-1.83,1.83,1.83,0,0,1,1.83,1.83" transform="translate(0 0)"/><path class="cls-7" d="M108.48,18.37a3.43,3.43,0,1,0,3.43,3.43,3.43,3.43,0,0,0-3.43-3.43m0,8.3a4.87,4.87,0,1,1,4.87-4.87,4.88,4.88,0,0,1-4.87,4.87" transform="translate(0 0)"/><path class="cls-7" d="M76.3,174.73a.72.72,0,0,1-.72-.72V162.92a.72.72,0,0,1,1.44,0V174a.72.72,0,0,1-.72.72" transform="translate(0 0)"/><path class="cls-7" d="M81.85,169.19H70.76a.72.72,0,1,1,0-1.44H81.85a.72.72,0,0,1,0,1.44" transform="translate(0 0)"/><path class="cls-7" d="M184.91,98.77a.72.72,0,0,1-.72-.72V90.56a.72.72,0,0,1,1.44,0v7.49a.72.72,0,0,1-.72.72" transform="translate(0 0)"/><path class="cls-7" d="M188.66,95h-7.49a.72.72,0,0,1,0-1.44h7.49a.72.72,0,0,1,0,1.44" transform="translate(0 0)"/><path class="cls-4" d="M173.5,57.73c1.6,1.8,9,1,10.6,7.06.78,3,5.42,1.48,5-1.36-1-5.88-2.76-8.31-6.38-8.75-5.17-.63-10.7,1.32-9.17,3" transform="translate(0 0)"/><path class="cls-6" d="M189.56,72.53c-1.45-2.12.71-6,2.74-6.85a3.8,3.8,0,0,1,5.09,2.63A3.76,3.76,0,0,1,195.13,73c-1.38.54-4.77.65-5.57-.51" transform="translate(0 0)"/><path class="cls-5" d="M53.34,162.41c1.29,1,.71,3.85-.39,4.74a2.45,2.45,0,0,1-3.63-.65,2.42,2.42,0,0,1,.5-3.34c.74-.6,2.81-1.31,3.52-.74" transform="translate(0 0)"/><path class="cls-4" d="M33.47,168.9c2.61-4.44,7.76-6.86,10.33-5.87,2,.76,1.93,2.82,1,4.33-1.81,2.88-4.18,3.77-5.86,4.61-2.24,1.12-8,1.28-5.45-3.07" transform="translate(0 0)"/><path class="cls-7" d="M176.15,155.17a.81.81,0,0,1-.81-.81v-4.24a.81.81,0,1,1,1.61,0v4.24a.81.81,0,0,1-.81.81" transform="translate(0 0)"/><path class="cls-7" d="M178.93,156.53a.78.78,0,0,1-.55-1.34l2.91-2.91a.78.78,0,0,1,1.11,1.11l-2.91,2.91a.78.78,0,0,1-.55.23" transform="translate(0 0)"/><path class="cls-7" d="M184.31,159.58h-4.12a.78.78,0,1,1,0-1.57h4.12a.78.78,0,1,1,0,1.57" transform="translate(0 0)"/><path class="cls-7" d="M182.28,165.74a.8.8,0,0,1-.57-.24l-3-3a.81.81,0,1,1,1.14-1.14l3,3a.81.81,0,0,1-.57,1.38" transform="translate(0 0)"/><path class="cls-7" d="M176.15,168.28a.81.81,0,0,1-.81-.81v-4.24a.81.81,0,1,1,1.61,0v4.24a.81.81,0,0,1-.81.81" transform="translate(0 0)"/><path class="cls-7" d="M170,165.74a.81.81,0,0,1-.57-1.38l3-3a.81.81,0,1,1,1.14,1.14l-3,3a.8.8,0,0,1-.57.24" transform="translate(0 0)"/><path class="cls-7" d="M171.71,159.6h-4.24a.81.81,0,0,1,0-1.61h4.24a.81.81,0,0,1,0,1.61" transform="translate(0 0)"/><path class="cls-7" d="M173,156.47a.8.8,0,0,1-.57-.24l-3-3a.81.81,0,0,1,1.14-1.14l3,3a.81.81,0,0,1-.57,1.38" transform="translate(0 0)"/></g><path class="cls-8" d="M55.72,94.37a1.14,1.14,0,0,0-.21-.6,1.22,1.22,0,0,0-1.09-.53,1.6,1.6,0,0,0-1.55,1.22,7.55,7.55,0,0,0-.34,2,2.49,2.49,0,0,1,1-.72,3.52,3.52,0,0,1,3.72.8,3.67,3.67,0,0,1,1,2.62,4.42,4.42,0,0,1-.95,2.8,3.49,3.49,0,0,1-2.94,1.21,3.38,3.38,0,0,1-3.16-1.79,7.29,7.29,0,0,1-.79-3.61,16.36,16.36,0,0,1,.11-2.11,6.45,6.45,0,0,1,.76-2.41,3.87,3.87,0,0,1,1.27-1.32,3.43,3.43,0,0,1,1.88-.5,3.72,3.72,0,0,1,2.52.81,3.08,3.08,0,0,1,1.05,2.15Zm-2.64,6.38a1.57,1.57,0,0,0,1.25.58,1.39,1.39,0,0,0,1.17-.56,2.33,2.33,0,0,0,.43-1.45,2.17,2.17,0,0,0-.48-1.52,1.55,1.55,0,0,0-1.19-.53,1.58,1.58,0,0,0-1,.34,2,2,0,0,0-.66,1.64A2.22,2.22,0,0,0,53.08,100.76Z" transform="translate(0 0)"/><path class="cls-8" d="M59.86,95V93.52a9.82,9.82,0,0,0,1.47-.14,2.08,2.08,0,0,0,1.09-.59,2,2,0,0,0,.44-.81,1.85,1.85,0,0,0,.09-.45h1.86v11.33H62.53V95Z" transform="translate(0 0)"/><path class="cls-8" d="M70.26,99.37a2.54,2.54,0,0,0,.22,1.13,1.49,1.49,0,0,0,1.47.82,1.63,1.63,0,0,0,1.14-.45,1.67,1.67,0,0,0,.49-1.29,1.46,1.46,0,0,0-.9-1.49,4.57,4.57,0,0,0-1.62-.21V96.28a4.17,4.17,0,0,0,1.51-.21,1.3,1.3,0,0,0,.74-1.33,1.49,1.49,0,0,0-.38-1.05,1.38,1.38,0,0,0-1.06-.41,1.35,1.35,0,0,0-1.16.5,2.12,2.12,0,0,0-.35,1.34H68.28a5.58,5.58,0,0,1,.29-1.6,3.6,3.6,0,0,1,.86-1.23,3,3,0,0,1,1-.61,4.48,4.48,0,0,1,1.47-.21,3.92,3.92,0,0,1,2.62.84,2.8,2.8,0,0,1,1,2.25A2.49,2.49,0,0,1,75,96.25a2,2,0,0,1-.78.59,1.61,1.61,0,0,1,.88.52,2.8,2.8,0,0,1,.85,2.16,3.63,3.63,0,0,1-1,2.53A3.79,3.79,0,0,1,72,103.13a3.56,3.56,0,0,1-3.34-1.57,4.66,4.66,0,0,1-.55-2.19Z" transform="translate(0 0)"/><path class="cls-8" d="M77.47,104.7a1.75,1.75,0,0,0,1-.62,2.31,2.31,0,0,0,.36-1.23H77.47v-2.34h2.41v2a4.7,4.7,0,0,1-.14,1.11,2.26,2.26,0,0,1-.52,1,2.71,2.71,0,0,1-1,.68,2.53,2.53,0,0,1-.77.23Z" transform="translate(0 0)"/><path class="cls-8" d="M82.1,95V93.52a9.82,9.82,0,0,0,1.47-.14,2.08,2.08,0,0,0,1.09-.59A2,2,0,0,0,85.1,92a1.85,1.85,0,0,0,.09-.45H87v11.33H84.77V95Z" transform="translate(0 0)"/><path class="cls-8" d="M98.26,100.41H97v2.44H94.8v-2.44H90.31V98.47l4.16-6.87H97v7.08h1.28ZM94.8,98.67V93.79L92,98.67Z" transform="translate(0 0)"/><path class="cls-8" d="M99.64,98a2.74,2.74,0,0,1,1.26-1.16,2.65,2.65,0,0,1-1.07-1.18,3.3,3.3,0,0,1-.25-1.19,2.78,2.78,0,0,1,.93-2.11,4.41,4.41,0,0,1,5.26,0,2.78,2.78,0,0,1,.93,2.11,3.31,3.31,0,0,1-.25,1.19,2.27,2.27,0,0,1-1.07,1.11A3.15,3.15,0,0,1,106.66,98a3.54,3.54,0,0,1,.42,1.73,3.23,3.23,0,0,1-1.06,2.43,4.13,4.13,0,0,1-3,1,3.84,3.84,0,0,1-2.88-1,3.36,3.36,0,0,1-1-2.43A3.49,3.49,0,0,1,99.64,98Zm2.32,2.88a1.79,1.79,0,0,0,2.4,0,2.17,2.17,0,0,0,0-2.61,1.8,1.8,0,0,0-2.38,0,2.17,2.17,0,0,0,0,2.61Zm.14-5.16a1.4,1.4,0,0,0,1.05.39,1.39,1.39,0,0,0,1.05-.39,1.4,1.4,0,0,0,.37-1,1.44,1.44,0,0,0-.37-1.05,1.41,1.41,0,0,0-1.05-.38,1.31,1.31,0,0,0-1.43,1.43A1.39,1.39,0,0,0,102.1,95.7Z" transform="translate(0 0)"/><path class="cls-8" d="M119.29,94.38a2.5,2.5,0,0,1,1.05.84,2.23,2.23,0,0,1,.43,1,12.14,12.14,0,0,1,.08,1.65v5h-2.27V97.66a2.3,2.3,0,0,0-.23-1.11A1.17,1.17,0,0,0,117.2,96a1.57,1.57,0,0,0-1.33.59,2.72,2.72,0,0,0-.45,1.69v4.61h-2.23V91.37h2.23v4.06a2.72,2.72,0,0,1,1.12-1,3.14,3.14,0,0,1,1.33-.29A3.61,3.61,0,0,1,119.29,94.38Z" transform="translate(0 0)"/><path class="cls-8" d="M130,101.81a4.69,4.69,0,0,1-6.55,0,5.28,5.28,0,0,1,0-6.4,4.64,4.64,0,0,1,6.55,0,5.28,5.28,0,0,1,0,6.4Zm-1.78-1.23a4,4,0,0,0,0-3.94,2,2,0,0,0-3,0,3.95,3.95,0,0,0,0,3.94,2,2,0,0,0,3,0Z" transform="translate(0 0)"/><path class="cls-8" d="M137.45,94.14h.19v2.28l-.37,0H137a1.85,1.85,0,0,0-1.8.88,3.4,3.4,0,0,0-.26,1.52v4.07H132.7V94.33h2.13v1.48a4.73,4.73,0,0,1,.9-1.16,2.45,2.45,0,0,1,1.63-.52Z" transform="translate(0 0)"/><path class="cls-8" d="M142.32,97.67a3.5,3.5,0,0,0,.89-.2.67.67,0,0,0,.48-.63.75.75,0,0,0-.37-.72,2.33,2.33,0,0,0-1.08-.2,1.42,1.42,0,0,0-1.13.39,1.61,1.61,0,0,0-.32.78h-2.15a3.25,3.25,0,0,1,.63-1.84,3.66,3.66,0,0,1,3-1.12,5.43,5.43,0,0,1,2.5.55,2.13,2.13,0,0,1,1.09,2.09v3.91q0,.41,0,1a1.23,1.23,0,0,0,.13.59.8.8,0,0,0,.33.26v.33H144a2.52,2.52,0,0,1-.14-.48c0-.15,0-.32-.06-.52a4.58,4.58,0,0,1-1.07.85,3.23,3.23,0,0,1-1.63.41,2.82,2.82,0,0,1-1.92-.66,2.35,2.35,0,0,1-.76-1.87,2.42,2.42,0,0,1,1.22-2.27,5.46,5.46,0,0,1,2-.55Zm1.36,1a2.47,2.47,0,0,1-.43.21,3.67,3.67,0,0,1-.6.15l-.51.09a3.34,3.34,0,0,0-1,.3,1,1,0,0,0-.53.95,1,1,0,0,0,.32.82,1.22,1.22,0,0,0,.78.25,2.33,2.33,0,0,0,1.34-.42,1.79,1.79,0,0,0,.64-1.54Z" transform="translate(0 0)"/><path class="cls-8" d="M149.57,100.13a1.48,1.48,0,0,0,.31.84,2.08,2.08,0,0,0,1.54.45,2.35,2.35,0,0,0,1-.2.63.63,0,0,0,.39-.59.63.63,0,0,0-.31-.57,12.83,12.83,0,0,0-2.33-.67,4.83,4.83,0,0,1-2-.9,2,2,0,0,1-.59-1.53,2.66,2.66,0,0,1,.93-2,3.73,3.73,0,0,1,2.61-.85,4.8,4.8,0,0,1,2.6.64,2.73,2.73,0,0,1,1.16,2.2h-2.23a1.31,1.31,0,0,0-.24-.68,1.53,1.53,0,0,0-1.25-.45,1.8,1.8,0,0,0-1,.23.65.65,0,0,0-.31.53.58.58,0,0,0,.33.55,14.22,14.22,0,0,0,2.33.62,4.26,4.26,0,0,1,2,.95,2.15,2.15,0,0,1,.66,1.6,2.59,2.59,0,0,1-.94,2.07,5.67,5.67,0,0,1-5.89,0,2.75,2.75,0,0,1-1-2.16Z" transform="translate(0 0)"/><path class="cls-8" d="M25.67,111.89H24.25v-1.28h1.41Zm-1.41.63h1.41v5.32H24.25Z" transform="translate(0 0)"/><path class="cls-8" d="M31.3,112.83a1.77,1.77,0,0,1,.52,1.43v3.58H30.4v-3.24a1.49,1.49,0,0,0-.11-.64.78.78,0,0,0-.78-.41,1,1,0,0,0-1,.6,2.07,2.07,0,0,0-.14.81v2.88H27v-5.31h1.35v.78a2.36,2.36,0,0,1,.51-.59A1.75,1.75,0,0,1,30,112.4,2,2,0,0,1,31.3,112.83Z" transform="translate(0 0)"/><path class="cls-8" d="M36.4,112.53h1.49L36,117.85H34.5l-1.91-5.32h1.56l1.11,3.93Z" transform="translate(0 0)"/><path class="cls-8" d="M42.15,112.64a2.17,2.17,0,0,1,.92.79,2.6,2.6,0,0,1,.42,1.1,6.83,6.83,0,0,1,0,1.06H39.66a1.28,1.28,0,0,0,.56,1.12,1.41,1.41,0,0,0,.77.2,1.18,1.18,0,0,0,.77-.24,1.15,1.15,0,0,0,.29-.37h1.42a1.74,1.74,0,0,1-.52,1,2.58,2.58,0,0,1-2,.78,2.9,2.9,0,0,1-1.87-.66,2.58,2.58,0,0,1-.81-2.13,2.88,2.88,0,0,1,.73-2.12,2.56,2.56,0,0,1,1.9-.74A3,3,0,0,1,42.15,112.64Zm-2.08,1.2a1.45,1.45,0,0,0-.37.82h2.4a1.16,1.16,0,0,0-.37-.84,1.22,1.22,0,0,0-.83-.29A1.11,1.11,0,0,0,40.07,113.84Z" transform="translate(0 0)"/><path class="cls-8" d="M47.2,112.4h.12v1.43l-.23,0h-.17a1.15,1.15,0,0,0-1.13.55,2.13,2.13,0,0,0-.16.95v2.54h-1.4v-5.32h1.33v.93a2.93,2.93,0,0,1,.56-.73,1.53,1.53,0,0,1,1-.33Z" transform="translate(0 0)"/><path class="cls-8" d="M47.59,113.57v-1h.74v-1.48h1.38v1.48h.86v1h-.86v2.81a.63.63,0,0,0,.08.41.9.9,0,0,0,.51.08h.27v1l-.66,0a1.77,1.77,0,0,1-1.35-.34,1,1,0,0,1-.23-.74v-3.28Z" transform="translate(0 0)"/><path class="cls-8" d="M52.9,111.89H51.49v-1.28H52.9Zm-1.41.63H52.9v5.32H51.49Z" transform="translate(0 0)"/><path class="cls-8" d="M57.07,112.61a1.68,1.68,0,0,1,.61.59v-2.54h1.41v7.19H57.74v-.74a2,2,0,0,1-.68.69,1.9,1.9,0,0,1-.95.21,2,2,0,0,1-1.57-.75,2.9,2.9,0,0,1-.64-1.94,3.33,3.33,0,0,1,.63-2.14,2,2,0,0,1,1.68-.78A1.71,1.71,0,0,1,57.07,112.61Zm.34,3.79a1.94,1.94,0,0,0,.31-1.14,1.75,1.75,0,0,0-.49-1.4,1.06,1.06,0,0,0-.7-.25,1,1,0,0,0-.9.46,2.14,2.14,0,0,0-.29,1.14,2.12,2.12,0,0,0,.29,1.18,1,1,0,0,0,.88.44A1,1,0,0,0,57.41,116.4Z" transform="translate(0 0)"/><path class="cls-8" d="M62.46,114.61a2.18,2.18,0,0,0,.55-.12.42.42,0,0,0,.3-.4.47.47,0,0,0-.23-.45,1.47,1.47,0,0,0-.68-.12.88.88,0,0,0-.71.24,1,1,0,0,0-.2.49H60.16a2,2,0,0,1,.39-1.15,2.29,2.29,0,0,1,1.9-.7,3.39,3.39,0,0,1,1.56.35,1.33,1.33,0,0,1,.68,1.31v2.44q0,.25,0,.62a.78.78,0,0,0,.08.37.49.49,0,0,0,.21.16v.21H63.48a1.46,1.46,0,0,1-.09-.3c0-.09,0-.2,0-.32a2.89,2.89,0,0,1-.67.53,2,2,0,0,1-1,.26,1.77,1.77,0,0,1-1.2-.41,1.47,1.47,0,0,1-.47-1.17,1.51,1.51,0,0,1,.76-1.42,3.41,3.41,0,0,1,1.23-.34Zm.85.65a1.55,1.55,0,0,1-.27.13,2.36,2.36,0,0,1-.37.09l-.32.06a2.08,2.08,0,0,0-.64.19.64.64,0,0,0-.33.59.61.61,0,0,0,.2.51.76.76,0,0,0,.49.16,1.45,1.45,0,0,0,.84-.26,1.12,1.12,0,0,0,.4-1Z" transform="translate(0 0)"/><path class="cls-8" d="M67,116.15a.92.92,0,0,0,.19.53,1.3,1.3,0,0,0,1,.28,1.47,1.47,0,0,0,.65-.12.41.41,0,0,0,0-.72,8,8,0,0,0-1.46-.42,3,3,0,0,1-1.28-.56,1.22,1.22,0,0,1-.37-1,1.66,1.66,0,0,1,.58-1.27,2.33,2.33,0,0,1,1.63-.53,3,3,0,0,1,1.63.4,1.7,1.7,0,0,1,.72,1.38H68.91a.82.82,0,0,0-.15-.42,1,1,0,0,0-.78-.28,1.13,1.13,0,0,0-.65.14.41.41,0,0,0-.19.33.36.36,0,0,0,.21.35,9,9,0,0,0,1.45.39,2.66,2.66,0,0,1,1.25.59,1.34,1.34,0,0,1,.41,1,1.61,1.61,0,0,1-.59,1.29A2.77,2.77,0,0,1,68,118a2.74,2.74,0,0,1-1.86-.53,1.72,1.72,0,0,1-.6-1.35Z" transform="translate(0 0)"/><path class="cls-8" d="M77.72,112.64a2.16,2.16,0,0,1,.92.79,2.62,2.62,0,0,1,.42,1.1,6.76,6.76,0,0,1,0,1.06H75.24a1.28,1.28,0,0,0,.56,1.12,1.41,1.41,0,0,0,.77.2,1.08,1.08,0,0,0,1.06-.61H79a1.73,1.73,0,0,1-.52,1,2.59,2.59,0,0,1-2,.78,2.9,2.9,0,0,1-1.87-.66,2.58,2.58,0,0,1-.81-2.13,2.88,2.88,0,0,1,.73-2.12,2.56,2.56,0,0,1,1.9-.74A3,3,0,0,1,77.72,112.64Zm-2.08,1.2a1.45,1.45,0,0,0-.37.82h2.4a1.17,1.17,0,0,0-.37-.84,1.22,1.22,0,0,0-.83-.29A1.1,1.1,0,0,0,75.64,113.84Z" transform="translate(0 0)"/><path class="cls-8" d="M84.11,112.83a1.77,1.77,0,0,1,.52,1.43v3.58H83.2v-3.24a1.49,1.49,0,0,0-.11-.64.78.78,0,0,0-.78-.41,1,1,0,0,0-1,.6,2.07,2.07,0,0,0-.14.81v2.88H79.83v-5.31h1.35v.78a2.36,2.36,0,0,1,.51-.59,1.75,1.75,0,0,1,1.08-.32A2,2,0,0,1,84.11,112.83Z" transform="translate(0 0)"/><path class="cls-8" d="M90.9,110.59l.29,0v1.13l-.39,0a.45.45,0,0,0-.38.12.44.44,0,0,0-.11.29v.45h.91v1h-.91v4.29H88.94v-4.29h-.78v-1h.76v-.34a1.8,1.8,0,0,1,.29-1.18q.3-.48,1.46-.48Z" transform="translate(0 0)"/><path class="cls-8" d="M96.47,117.2a2.93,2.93,0,0,1-4.09,0,3.3,3.3,0,0,1,0-4,2.9,2.9,0,0,1,4.09,0,3.3,3.3,0,0,1,0,4Zm-1.11-.77a2.48,2.48,0,0,0,0-2.46,1.24,1.24,0,0,0-1.88,0,2.47,2.47,0,0,0,0,2.46,1.23,1.23,0,0,0,1.88,0Z" transform="translate(0 0)"/><path class="cls-8" d="M101.1,112.4h.12v1.43l-.23,0h-.17a1.15,1.15,0,0,0-1.13.55,2.13,2.13,0,0,0-.16.95v2.54h-1.4v-5.32h1.33v.93a2.93,2.93,0,0,1,.56-.73,1.53,1.53,0,0,1,1-.33Z" transform="translate(0 0)"/><path class="cls-8" d="M108.67,112.55a1.55,1.55,0,0,1,.62.48,1.53,1.53,0,0,1,.3.68,4.76,4.76,0,0,1,0,.79v3.35h-1.43v-3.39a1.11,1.11,0,0,0-.1-.5.69.69,0,0,0-.68-.37.8.8,0,0,0-.8.48,1.5,1.5,0,0,0-.11.61v3.17h-1.4v-3.17a1.78,1.78,0,0,0-.1-.69.68.68,0,0,0-.69-.39.82.82,0,0,0-.8.39,1.48,1.48,0,0,0-.11.65v3.2H102v-5.31h1.35v.78a2.24,2.24,0,0,1,.49-.59,1.93,1.93,0,0,1,2,0,1.56,1.56,0,0,1,.46.64,1.77,1.77,0,0,1,.68-.69,2.07,2.07,0,0,1,1-.22A1.86,1.86,0,0,1,108.67,112.55Z" transform="translate(0 0)"/><path class="cls-8" d="M113,114.61a2.19,2.19,0,0,0,.56-.12.42.42,0,0,0,.3-.4.47.47,0,0,0-.23-.45,1.47,1.47,0,0,0-.68-.12.88.88,0,0,0-.71.24,1,1,0,0,0-.2.49h-1.34a2,2,0,0,1,.39-1.15,2.29,2.29,0,0,1,1.9-.7,3.39,3.39,0,0,1,1.56.35,1.33,1.33,0,0,1,.68,1.31v2.44q0,.25,0,.62a.77.77,0,0,0,.08.37.5.5,0,0,0,.21.16v.21h-1.51a1.59,1.59,0,0,1-.09-.3c0-.09,0-.2,0-.32a2.89,2.89,0,0,1-.67.53,2,2,0,0,1-1,.26,1.77,1.77,0,0,1-1.2-.41,1.47,1.47,0,0,1-.47-1.17,1.51,1.51,0,0,1,.76-1.42,3.41,3.41,0,0,1,1.23-.34Zm.85.65a1.58,1.58,0,0,1-.27.13,2.41,2.41,0,0,1-.37.09l-.32.06a2.06,2.06,0,0,0-.64.19.64.64,0,0,0-.33.59.62.62,0,0,0,.2.51.76.76,0,0,0,.49.16,1.45,1.45,0,0,0,.84-.26,1.11,1.11,0,0,0,.4-1Z" transform="translate(0 0)"/><path class="cls-8" d="M119.67,114.44a1.24,1.24,0,0,0-.2-.54.84.84,0,0,0-.73-.32,1,1,0,0,0-1,.7,2.92,2.92,0,0,0-.14,1,2.68,2.68,0,0,0,.14.94.93.93,0,0,0,.94.66.83.83,0,0,0,.69-.26,1.3,1.3,0,0,0,.25-.68h1.42a2.33,2.33,0,0,1-.46,1.2,2.24,2.24,0,0,1-1.94.91,2.27,2.27,0,0,1-1.89-.76,3.08,3.08,0,0,1-.61-2,3.12,3.12,0,0,1,.67-2.13,2.33,2.33,0,0,1,1.85-.76,2.78,2.78,0,0,1,1.64.45,2.09,2.09,0,0,1,.75,1.59Z" transform="translate(0 0)"/><path class="cls-8" d="M123.48,111.89h-1.41v-1.28h1.41Zm-1.41.63h1.41v5.32h-1.41Z" transform="translate(0 0)"/><path class="cls-8" d="M129.26,117.2a2.93,2.93,0,0,1-4.09,0,3.3,3.3,0,0,1,0-4,2.9,2.9,0,0,1,4.09,0,3.3,3.3,0,0,1,0,4Zm-1.11-.77a2.48,2.48,0,0,0,0-2.46,1.24,1.24,0,0,0-1.88,0,2.47,2.47,0,0,0,0,2.46,1.23,1.23,0,0,0,1.88,0Zm.73-6.08-1.48,1.46h-1l.94-1.46Z" transform="translate(0 0)"/><path class="cls-8" d="M135.23,112.83a1.76,1.76,0,0,1,.52,1.43v3.58h-1.43v-3.24a1.49,1.49,0,0,0-.11-.64.78.78,0,0,0-.78-.41,1,1,0,0,0-1,.6,2.07,2.07,0,0,0-.14.81v2.88h-1.39v-5.31h1.35v.78a2.36,2.36,0,0,1,.51-.59,1.75,1.75,0,0,1,1.08-.32A2,2,0,0,1,135.23,112.83Z" transform="translate(0 0)"/><path class="cls-8" d="M139.27,113.57v-1H140v-1.48h1.38v1.48h.86v1h-.86v2.81a.63.63,0,0,0,.08.41.9.9,0,0,0,.51.08h.27v1l-.66,0a1.77,1.77,0,0,1-1.35-.34,1,1,0,0,1-.23-.74v-3.28Z" transform="translate(0 0)"/><path class="cls-8" d="M146.62,112.64a2.16,2.16,0,0,1,.92.79,2.61,2.61,0,0,1,.42,1.1,6.73,6.73,0,0,1,0,1.06h-3.88a1.28,1.28,0,0,0,.56,1.12,1.41,1.41,0,0,0,.77.2,1.08,1.08,0,0,0,1.06-.61h1.42a1.73,1.73,0,0,1-.52,1,2.59,2.59,0,0,1-2,.78,2.9,2.9,0,0,1-1.87-.66,2.58,2.58,0,0,1-.81-2.13,2.88,2.88,0,0,1,.73-2.12,2.56,2.56,0,0,1,1.9-.74A3,3,0,0,1,146.62,112.64Zm-2.08,1.2a1.45,1.45,0,0,0-.37.82h2.4a1.16,1.16,0,0,0-.37-.84,1.22,1.22,0,0,0-.83-.29A1.1,1.1,0,0,0,144.54,113.84Zm2.48-3.49-1.48,1.46h-1l.94-1.46Z" transform="translate(0 0)"/><path class="cls-8" d="M151.9,114.44a1.24,1.24,0,0,0-.2-.54.84.84,0,0,0-.73-.32,1,1,0,0,0-1,.7,2.92,2.92,0,0,0-.14,1,2.68,2.68,0,0,0,.14.94.93.93,0,0,0,.94.66.83.83,0,0,0,.69-.26,1.3,1.3,0,0,0,.25-.68h1.42a2.33,2.33,0,0,1-.46,1.2,2.24,2.24,0,0,1-1.94.91,2.27,2.27,0,0,1-1.89-.76,3.08,3.08,0,0,1-.61-2,3.12,3.12,0,0,1,.67-2.13,2.33,2.33,0,0,1,1.85-.76,2.78,2.78,0,0,1,1.64.45,2.09,2.09,0,0,1,.75,1.59Z" transform="translate(0 0)"/><path class="cls-8" d="M158.57,112.83a1.76,1.76,0,0,1,.52,1.43v3.58h-1.43v-3.24a1.49,1.49,0,0,0-.11-.64.78.78,0,0,0-.78-.41,1,1,0,0,0-1,.6,2.07,2.07,0,0,0-.14.81v2.88h-1.39v-5.31h1.35v.78a2.36,2.36,0,0,1,.51-.59,1.75,1.75,0,0,1,1.08-.32A2,2,0,0,1,158.57,112.83Z" transform="translate(0 0)"/><path class="cls-8" d="M161.81,111.89H160.4v-1.28h1.41Zm-1.41.63h1.41v5.32H160.4Z" transform="translate(0 0)"/><path class="cls-8" d="M166.34,114.44a1.24,1.24,0,0,0-.2-.54.84.84,0,0,0-.73-.32,1,1,0,0,0-1,.7,2.92,2.92,0,0,0-.14,1,2.68,2.68,0,0,0,.14.94.93.93,0,0,0,.94.66.83.83,0,0,0,.69-.26,1.3,1.3,0,0,0,.25-.68h1.42a2.33,2.33,0,0,1-.46,1.2,2.24,2.24,0,0,1-1.94.91,2.27,2.27,0,0,1-1.89-.76,3.08,3.08,0,0,1-.61-2,3.12,3.12,0,0,1,.67-2.13,2.33,2.33,0,0,1,1.85-.76,2.78,2.78,0,0,1,1.64.45,2.09,2.09,0,0,1,.75,1.59Z" transform="translate(0 0)"/><path class="cls-8" d="M170.83,114.61a2.19,2.19,0,0,0,.56-.12.42.42,0,0,0,.3-.4.47.47,0,0,0-.23-.45,1.47,1.47,0,0,0-.68-.12.88.88,0,0,0-.71.24,1,1,0,0,0-.2.49h-1.34a2,2,0,0,1,.39-1.15,2.29,2.29,0,0,1,1.9-.7,3.39,3.39,0,0,1,1.56.35,1.33,1.33,0,0,1,.68,1.31v2.44q0,.25,0,.62a.77.77,0,0,0,.08.37.5.5,0,0,0,.21.16v.21h-1.51a1.59,1.59,0,0,1-.09-.3c0-.09,0-.2,0-.32a2.89,2.89,0,0,1-.67.53,2,2,0,0,1-1,.26,1.77,1.77,0,0,1-1.2-.41,1.47,1.47,0,0,1-.47-1.17,1.51,1.51,0,0,1,.76-1.42,3.41,3.41,0,0,1,1.23-.34Zm.85.65a1.58,1.58,0,0,1-.27.13,2.41,2.41,0,0,1-.37.09l-.32.06a2.06,2.06,0,0,0-.64.19.64.64,0,0,0-.33.59.62.62,0,0,0,.2.51.76.76,0,0,0,.49.16,1.45,1.45,0,0,0,.84-.26,1.11,1.11,0,0,0,.4-1Z" transform="translate(0 0)"/><path class="cls-8" d="M177.27,118.87h.18a2.13,2.13,0,0,0,.39,0,.71.71,0,0,0,.31-.11.75.75,0,0,0,.23-.35.83.83,0,0,0,.09-.32l-2-5.56h1.55l1.16,3.93,1.1-3.93h1.48L180,117.76a7.36,7.36,0,0,1-.84,1.88,1.59,1.59,0,0,1-1.23.36h-.3l-.34,0Z" transform="translate(0 0)"/><path class="cls-8" d="M29.39,129.61a2.18,2.18,0,0,0,.56-.12.42.42,0,0,0,.3-.4.47.47,0,0,0-.23-.45,1.47,1.47,0,0,0-.68-.12.89.89,0,0,0-.71.24,1,1,0,0,0-.2.49H27.09a2,2,0,0,1,.39-1.15,2.29,2.29,0,0,1,1.9-.7,3.39,3.39,0,0,1,1.56.35,1.33,1.33,0,0,1,.68,1.31v2.44q0,.25,0,.62a.78.78,0,0,0,.08.37.5.5,0,0,0,.21.16v.21H30.41a1.59,1.59,0,0,1-.09-.3c0-.09,0-.2,0-.32a2.89,2.89,0,0,1-.67.53,2,2,0,0,1-1,.26,1.76,1.76,0,0,1-1.2-.41,1.47,1.47,0,0,1-.47-1.17,1.52,1.52,0,0,1,.76-1.42,3.42,3.42,0,0,1,1.23-.34Zm.85.65a1.62,1.62,0,0,1-.27.13,2.41,2.41,0,0,1-.37.09l-.32.06a2.07,2.07,0,0,0-.64.19.64.64,0,0,0-.33.59.62.62,0,0,0,.2.51A.76.76,0,0,0,29,132a1.45,1.45,0,0,0,.84-.26,1.11,1.11,0,0,0,.4-1Z" transform="translate(0 0)"/><path class="cls-8" d="M36,129.44a1.21,1.21,0,0,0-.2-.54.84.84,0,0,0-.73-.32,1,1,0,0,0-1,.7,2.89,2.89,0,0,0-.14,1,2.66,2.66,0,0,0,.14.94.93.93,0,0,0,.94.66.83.83,0,0,0,.7-.26,1.31,1.31,0,0,0,.25-.68h1.42a2.33,2.33,0,0,1-.46,1.2A2.23,2.23,0,0,1,35,133a2.27,2.27,0,0,1-1.89-.76,3.08,3.08,0,0,1-.61-2,3.12,3.12,0,0,1,.67-2.13,2.33,2.33,0,0,1,1.85-.76,2.78,2.78,0,0,1,1.64.45,2.09,2.09,0,0,1,.75,1.59Z" transform="translate(0 0)"/><path class="cls-8" d="M40.52,129.61a2.18,2.18,0,0,0,.56-.12.42.42,0,0,0,.3-.4.47.47,0,0,0-.23-.45,1.47,1.47,0,0,0-.68-.12.89.89,0,0,0-.71.24,1,1,0,0,0-.2.49H38.22a2,2,0,0,1,.39-1.15,2.29,2.29,0,0,1,1.9-.7,3.39,3.39,0,0,1,1.56.35,1.33,1.33,0,0,1,.68,1.31v2.44q0,.25,0,.62a.78.78,0,0,0,.08.37.5.5,0,0,0,.21.16v.21H41.54a1.59,1.59,0,0,1-.09-.3c0-.09,0-.2,0-.32a2.89,2.89,0,0,1-.67.53,2,2,0,0,1-1,.26,1.76,1.76,0,0,1-1.2-.41,1.47,1.47,0,0,1-.47-1.17,1.52,1.52,0,0,1,.76-1.42,3.42,3.42,0,0,1,1.23-.34Zm.85.65a1.62,1.62,0,0,1-.27.13,2.41,2.41,0,0,1-.37.09l-.32.06a2.07,2.07,0,0,0-.64.19.64.64,0,0,0-.33.59.62.62,0,0,0,.2.51.76.76,0,0,0,.49.16,1.45,1.45,0,0,0,.84-.26,1.11,1.11,0,0,0,.4-1Z" transform="translate(0 0)"/><path class="cls-8" d="M46.79,127.61a1.68,1.68,0,0,1,.61.59v-2.54h1.41v7.19H47.46v-.74a2,2,0,0,1-.68.69,1.9,1.9,0,0,1-.95.21,2,2,0,0,1-1.57-.75,2.9,2.9,0,0,1-.64-1.94,3.33,3.33,0,0,1,.63-2.14,2,2,0,0,1,1.68-.78A1.71,1.71,0,0,1,46.79,127.61Zm.34,3.79a1.94,1.94,0,0,0,.31-1.14,1.74,1.74,0,0,0-.49-1.4,1.06,1.06,0,0,0-.7-.25,1,1,0,0,0-.9.46,2.48,2.48,0,0,0,0,2.32,1,1,0,0,0,.88.44A1,1,0,0,0,47.13,131.4Z" transform="translate(0 0)"/><path class="cls-8" d="M53.55,127.64a2.16,2.16,0,0,1,.92.79,2.61,2.61,0,0,1,.42,1.1,6.73,6.73,0,0,1,0,1.06H51.06a1.28,1.28,0,0,0,.56,1.12,1.41,1.41,0,0,0,.77.2,1.18,1.18,0,0,0,.77-.24,1.16,1.16,0,0,0,.29-.37h1.42a1.74,1.74,0,0,1-.52,1,2.58,2.58,0,0,1-2,.78,2.9,2.9,0,0,1-1.87-.66,2.58,2.58,0,0,1-.81-2.13,2.88,2.88,0,0,1,.73-2.12,2.56,2.56,0,0,1,1.9-.74A3,3,0,0,1,53.55,127.64Zm-2.08,1.2a1.45,1.45,0,0,0-.37.82h2.4a1.16,1.16,0,0,0-.37-.84,1.22,1.22,0,0,0-.83-.29A1.11,1.11,0,0,0,51.46,128.84Zm2.48-3.49-1.48,1.46h-1l.94-1.46Z" transform="translate(0 0)"/><path class="cls-8" d="M62.28,127.55a1.56,1.56,0,0,1,.92,1.16,4.76,4.76,0,0,1,0,.79v3.35H61.82v-3.39a1.12,1.12,0,0,0-.1-.5.69.69,0,0,0-.68-.37.8.8,0,0,0-.8.48,1.51,1.51,0,0,0-.11.61v3.17h-1.4v-3.17a1.78,1.78,0,0,0-.1-.69.68.68,0,0,0-.69-.39.82.82,0,0,0-.8.39,1.48,1.48,0,0,0-.11.65v3.2H55.62v-5.31H57v.78a2.26,2.26,0,0,1,.49-.59,1.93,1.93,0,0,1,2,0,1.57,1.57,0,0,1,.46.64,1.77,1.77,0,0,1,.68-.69,2.07,2.07,0,0,1,1-.22A1.86,1.86,0,0,1,62.28,127.55Z" transform="translate(0 0)"/><path class="cls-8" d="M66,126.89H64.55v-1.28H66Zm-1.41.63H66v5.32H64.55Z" transform="translate(0 0)"/><path class="cls-8" d="M70.49,129.44a1.21,1.21,0,0,0-.2-.54.84.84,0,0,0-.73-.32,1,1,0,0,0-1,.7,2.89,2.89,0,0,0-.14,1,2.66,2.66,0,0,0,.14.94.93.93,0,0,0,.94.66.83.83,0,0,0,.7-.26,1.31,1.31,0,0,0,.25-.68H71.9a2.33,2.33,0,0,1-.46,1.2,2.23,2.23,0,0,1-1.94.91,2.27,2.27,0,0,1-1.89-.76,3.08,3.08,0,0,1-.61-2,3.12,3.12,0,0,1,.67-2.13,2.33,2.33,0,0,1,1.85-.76,2.78,2.78,0,0,1,1.64.45,2.09,2.09,0,0,1,.75,1.59Z" transform="translate(0 0)"/><path class="cls-8" d="M75,129.61a2.18,2.18,0,0,0,.56-.12.42.42,0,0,0,.3-.4.47.47,0,0,0-.23-.45,1.47,1.47,0,0,0-.68-.12.89.89,0,0,0-.71.24,1,1,0,0,0-.2.49H72.68a2,2,0,0,1,.39-1.15,2.29,2.29,0,0,1,1.9-.7,3.39,3.39,0,0,1,1.56.35,1.33,1.33,0,0,1,.68,1.31v2.44q0,.25,0,.62a.78.78,0,0,0,.08.37.5.5,0,0,0,.21.16v.21H76a1.59,1.59,0,0,1-.09-.3c0-.09,0-.2,0-.32a2.89,2.89,0,0,1-.67.53,2,2,0,0,1-1,.26,1.76,1.76,0,0,1-1.2-.41,1.47,1.47,0,0,1-.47-1.17,1.52,1.52,0,0,1,.76-1.42,3.42,3.42,0,0,1,1.23-.34Zm.85.65a1.62,1.62,0,0,1-.27.13,2.41,2.41,0,0,1-.37.09l-.32.06a2.07,2.07,0,0,0-.64.19.64.64,0,0,0-.33.59.62.62,0,0,0,.2.51.76.76,0,0,0,.49.16,1.45,1.45,0,0,0,.84-.26,1.11,1.11,0,0,0,.4-1Z" transform="translate(0 0)"/><path class="cls-8" d="M84,127.61a1.68,1.68,0,0,1,.61.59v-2.54h1.41v7.19H84.7v-.74a2,2,0,0,1-.68.69,1.9,1.9,0,0,1-.95.21,2,2,0,0,1-1.57-.75,2.9,2.9,0,0,1-.64-1.94,3.33,3.33,0,0,1,.63-2.14,2,2,0,0,1,1.68-.78A1.71,1.71,0,0,1,84,127.61Zm.34,3.79a1.94,1.94,0,0,0,.31-1.14,1.75,1.75,0,0,0-.49-1.4,1.06,1.06,0,0,0-.7-.25,1,1,0,0,0-.9.46,2.49,2.49,0,0,0,0,2.32,1,1,0,0,0,.88.44A1,1,0,0,0,84.38,131.4Z" transform="translate(0 0)"/><path class="cls-8" d="M90.79,127.64a2.17,2.17,0,0,1,.92.79,2.61,2.61,0,0,1,.42,1.1,6.86,6.86,0,0,1,0,1.06H88.3a1.28,1.28,0,0,0,.56,1.12,1.41,1.41,0,0,0,.77.2,1.08,1.08,0,0,0,1.06-.61H92.1a1.73,1.73,0,0,1-.52,1,2.59,2.59,0,0,1-2,.78,2.9,2.9,0,0,1-1.87-.66,2.58,2.58,0,0,1-.81-2.13,2.87,2.87,0,0,1,.73-2.12,2.56,2.56,0,0,1,1.9-.74A3,3,0,0,1,90.79,127.64Zm-2.08,1.2a1.45,1.45,0,0,0-.37.82h2.4a1.16,1.16,0,0,0-.37-.84,1.22,1.22,0,0,0-.83-.29A1.11,1.11,0,0,0,88.71,128.84Z" transform="translate(0 0)"/><path class="cls-8" d="M100,127.83a1.77,1.77,0,0,1,.52,1.43v3.58H99v-3.24a1.49,1.49,0,0,0-.11-.64.78.78,0,0,0-.78-.41,1,1,0,0,0-1,.6,2.09,2.09,0,0,0-.13.81v2.88H95.67v-5.31H97v.78a2.38,2.38,0,0,1,.51-.59,1.75,1.75,0,0,1,1.08-.32A2,2,0,0,1,100,127.83Z" transform="translate(0 0)"/><path class="cls-8" d="M103.15,127.53v3.21a1.71,1.71,0,0,0,.11.68.74.74,0,0,0,.74.41,1,1,0,0,0,1-.58,2.11,2.11,0,0,0,.13-.83v-2.9h1.41v5.32h-1.35v-.75l-.1.15a1,1,0,0,1-.18.21,1.94,1.94,0,0,1-.63.4,2.16,2.16,0,0,1-.71.11,1.59,1.59,0,0,1-1.59-.85,3.26,3.26,0,0,1-.23-1.38v-3.21Z" transform="translate(0 0)"/><path class="cls-8" d="M111.34,127.64a2.16,2.16,0,0,1,.92.79,2.61,2.61,0,0,1,.42,1.1,6.73,6.73,0,0,1,0,1.06h-3.88a1.28,1.28,0,0,0,.56,1.12,1.41,1.41,0,0,0,.77.2,1.08,1.08,0,0,0,1.06-.61h1.42a1.73,1.73,0,0,1-.52,1,2.59,2.59,0,0,1-2,.78,2.9,2.9,0,0,1-1.87-.66,2.58,2.58,0,0,1-.81-2.13,2.88,2.88,0,0,1,.73-2.12,2.56,2.56,0,0,1,1.9-.74A3,3,0,0,1,111.34,127.64Zm-2.08,1.2a1.45,1.45,0,0,0-.37.82h2.4a1.16,1.16,0,0,0-.37-.84,1.22,1.22,0,0,0-.83-.29A1.1,1.1,0,0,0,109.26,128.84Z" transform="translate(0 0)"/><path class="cls-8" d="M114.52,131.15a.92.92,0,0,0,.19.53,1.3,1.3,0,0,0,1,.28,1.47,1.47,0,0,0,.65-.12.39.39,0,0,0,.24-.37.4.4,0,0,0-.2-.36,8,8,0,0,0-1.46-.42,3,3,0,0,1-1.28-.56,1.22,1.22,0,0,1-.37-1,1.66,1.66,0,0,1,.58-1.27,2.33,2.33,0,0,1,1.63-.53,3,3,0,0,1,1.63.4,1.71,1.71,0,0,1,.72,1.37h-1.39a.83.83,0,0,0-.15-.42,1,1,0,0,0-.78-.28,1.12,1.12,0,0,0-.65.14.41.41,0,0,0-.19.33.36.36,0,0,0,.21.35,8.9,8.9,0,0,0,1.45.39,2.66,2.66,0,0,1,1.25.59,1.34,1.34,0,0,1,.41,1,1.61,1.61,0,0,1-.59,1.29,3.54,3.54,0,0,1-3.68,0,1.72,1.72,0,0,1-.6-1.35Z" transform="translate(0 0)"/><path class="cls-8" d="M118.45,128.57v-1h.74v-1.48h1.38v1.48h.86v1h-.86v2.81a.63.63,0,0,0,.08.41.9.9,0,0,0,.51.08h.27v1l-.66,0a1.77,1.77,0,0,1-1.35-.34,1,1,0,0,1-.23-.74v-3.28Z" transform="translate(0 0)"/><path class="cls-8" d="M125.29,127.4h.12v1.43l-.23,0H125a1.16,1.16,0,0,0-1.13.55,2.13,2.13,0,0,0-.16.95v2.54h-1.4v-5.32h1.33v.93a3,3,0,0,1,.56-.73,1.53,1.53,0,0,1,1-.33Z" transform="translate(0 0)"/><path class="cls-8" d="M130.66,132.2a2.93,2.93,0,0,1-4.09,0,3.3,3.3,0,0,1,0-4,2.9,2.9,0,0,1,4.09,0,3.3,3.3,0,0,1,0,4Zm-1.11-.77a2.48,2.48,0,0,0,0-2.46,1.24,1.24,0,0,0-1.88,0,2.47,2.47,0,0,0,0,2.46,1.23,1.23,0,0,0,1.88,0Z" transform="translate(0 0)"/><path class="cls-8" d="M139.58,128.1a2.83,2.83,0,0,1,.65,2,3.19,3.19,0,0,1-.64,2.14A2.07,2.07,0,0,1,138,133a1.72,1.72,0,0,1-1.06-.32,2,2,0,0,1-.45-.51v2.77h-1.38v-7.42h1.33v.79a2.24,2.24,0,0,1,.48-.55,1.78,1.78,0,0,1,1.11-.36A2.1,2.1,0,0,1,139.58,128.1Zm-1.07,1a1,1,0,0,0-.92-.47,1,1,0,0,0-1,.72,2.68,2.68,0,0,0-.15,1,1.54,1.54,0,0,0,.5,1.3,1.14,1.14,0,0,0,.7.22,1,1,0,0,0,.9-.45,2.35,2.35,0,0,0,0-2.29Z" transform="translate(0 0)"/><path class="cls-8" d="M144.68,127.64a2.16,2.16,0,0,1,.92.79,2.61,2.61,0,0,1,.42,1.1,6.73,6.73,0,0,1,0,1.06H142.2a1.28,1.28,0,0,0,.56,1.12,1.41,1.41,0,0,0,.77.2,1.08,1.08,0,0,0,1.06-.61H146a1.73,1.73,0,0,1-.52,1,2.59,2.59,0,0,1-2,.78,2.9,2.9,0,0,1-1.87-.66,2.58,2.58,0,0,1-.81-2.13,2.88,2.88,0,0,1,.73-2.12,2.56,2.56,0,0,1,1.9-.74A3,3,0,0,1,144.68,127.64Zm-2.08,1.2a1.45,1.45,0,0,0-.37.82h2.4a1.16,1.16,0,0,0-.37-.84,1.22,1.22,0,0,0-.83-.29A1.1,1.1,0,0,0,142.6,128.84Z" transform="translate(0 0)"/><path class="cls-8" d="M149.73,127.4h.12v1.43l-.23,0h-.17a1.16,1.16,0,0,0-1.13.55,2.13,2.13,0,0,0-.16.95v2.54h-1.4v-5.32h1.33v.93a3,3,0,0,1,.56-.73,1.53,1.53,0,0,1,1-.33Z" transform="translate(0 0)"/><path class="cls-8" d="M151.75,131.15a.92.92,0,0,0,.19.53,1.3,1.3,0,0,0,1,.28,1.47,1.47,0,0,0,.65-.12.39.39,0,0,0,.24-.37.4.4,0,0,0-.2-.36,8,8,0,0,0-1.46-.42,3,3,0,0,1-1.28-.56,1.22,1.22,0,0,1-.37-1,1.66,1.66,0,0,1,.58-1.27,2.33,2.33,0,0,1,1.63-.53,3,3,0,0,1,1.63.4,1.71,1.71,0,0,1,.72,1.37h-1.39a.83.83,0,0,0-.15-.42,1,1,0,0,0-.78-.28,1.12,1.12,0,0,0-.65.14.41.41,0,0,0-.19.33.36.36,0,0,0,.21.35,8.9,8.9,0,0,0,1.45.39,2.66,2.66,0,0,1,1.25.59,1.34,1.34,0,0,1,.41,1,1.61,1.61,0,0,1-.59,1.29,3.54,3.54,0,0,1-3.68,0,1.72,1.72,0,0,1-.6-1.35Z" transform="translate(0 0)"/><path class="cls-8" d="M160.67,132.2a2.93,2.93,0,0,1-4.09,0,3.3,3.3,0,0,1,0-4,2.9,2.9,0,0,1,4.09,0,3.3,3.3,0,0,1,0,4Zm-1.11-.77a2.48,2.48,0,0,0,0-2.46,1.24,1.24,0,0,0-1.88,0,2.47,2.47,0,0,0,0,2.46,1.23,1.23,0,0,0,1.88,0Z" transform="translate(0 0)"/><path class="cls-8" d="M166.63,127.83a1.76,1.76,0,0,1,.52,1.43v3.58h-1.43v-3.24a1.49,1.49,0,0,0-.11-.64.78.78,0,0,0-.78-.41,1,1,0,0,0-1,.6,2.07,2.07,0,0,0-.14.81v2.88h-1.39v-5.31h1.35v.78a2.36,2.36,0,0,1,.51-.59,1.75,1.75,0,0,1,1.08-.32A2,2,0,0,1,166.63,127.83Z" transform="translate(0 0)"/><path class="cls-8" d="M170.55,129.61a2.19,2.19,0,0,0,.56-.12.42.42,0,0,0,.3-.4.47.47,0,0,0-.23-.45,1.47,1.47,0,0,0-.68-.12.88.88,0,0,0-.71.24,1,1,0,0,0-.2.49h-1.34a2,2,0,0,1,.39-1.15,2.29,2.29,0,0,1,1.9-.7,3.39,3.39,0,0,1,1.56.35,1.33,1.33,0,0,1,.68,1.31v2.44q0,.25,0,.62a.77.77,0,0,0,.08.37.5.5,0,0,0,.21.16v.21h-1.51a1.59,1.59,0,0,1-.09-.3c0-.09,0-.2,0-.32a2.89,2.89,0,0,1-.67.53,2,2,0,0,1-1,.26,1.77,1.77,0,0,1-1.2-.41,1.47,1.47,0,0,1-.47-1.17,1.51,1.51,0,0,1,.76-1.42,3.41,3.41,0,0,1,1.23-.34Zm.85.65a1.58,1.58,0,0,1-.27.13,2.41,2.41,0,0,1-.37.09l-.32.06a2.06,2.06,0,0,0-.64.19.64.64,0,0,0-.33.59.62.62,0,0,0,.2.51.76.76,0,0,0,.49.16,1.45,1.45,0,0,0,.84-.26,1.11,1.11,0,0,0,.4-1Z" transform="translate(0 0)"/><path class="cls-8" d="M175.43,132.85H174v-7.2h1.39Z" transform="translate(0 0)"/><path class="cls-8" d="M176.76,131.39h1.48v1.46h-1.48Z" transform="translate(0 0)"/></g></g></svg>
