<svg id="Layer_1" data-name="Layer 1" xmlns="http://www.w3.org/2000/svg" viewBox="0 0 150 150"><defs><style>.cls-1{font-size:25.27px;font-family:Helvetica-Bold, Helvetica;font-weight:700;}.cls-1,.cls-2{fill:#756bae;}</style></defs><title>hombres</title><text class="cls-1" transform="translate(20.13 123.07)">Hombres</text><path class="cls-2" d="M104.76,76.18H45.31V67.8a5.9,5.9,0,0,1,2.13-4.59A96.18,96.18,0,0,1,64.87,52a.54.54,0,0,0,.3-.49v-5.6a13.54,13.54,0,0,1-1.69-4.59c-.64-.06-1.49-.92-2.41-4.2-1.18-4.16-.07-5,1-5-.57-2.43-2-10.9,4.28-14.74a3.38,3.38,0,0,1-1.23-2.61s7.18.82,10.66.09,7.22,2,7.8,4.64c0,0,7,0,4.31,12.58,1.1,0,2.29.71,1.08,5-.92,3.24-1.77,4.14-2.41,4.2a13.54,13.54,0,0,1-1.69,4.59v5.64a.54.54,0,0,0,.3.49,96.18,96.18,0,0,1,17.43,11.19,5.89,5.89,0,0,1,2.13,4.59Z"/></svg>
