<svg xmlns="http://www.w3.org/2000/svg" viewBox="0 0 36.61 37.82"><defs><style>.cls-1{isolation:isolate;}.cls-2{fill:#5a4494;opacity:0.5;mix-blend-mode:multiply;}</style></defs><title>hombre-integran</title><g class="cls-1"><g id="Layer_2" data-name="Layer 2"><g id="_ÎÓÈ_1" data-name="—ÎÓÈ_1"><path class="cls-2" d="M36.61,37.82H0V32.65a3.63,3.63,0,0,1,1.31-2.82A59.23,59.23,0,0,1,12,22.94a.33.33,0,0,0,.19-.3V19.19a8.34,8.34,0,0,1-1-2.82c-.4,0-.92-.57-1.49-2.59-.73-2.56,0-3.08.62-3.07C10,9.21,9.08,4,13,1.63A2.08,2.08,0,0,1,12.2,0a29.17,29.17,0,0,0,6.56.06,4.38,4.38,0,0,1,4.81,2.86s4.34,0,2.66,7.75c.68,0,1.41.43.67,3.07-.57,2-1.09,2.55-1.49,2.59a8.34,8.34,0,0,1-1,2.82v3.47a.33.33,0,0,0,.19.3,59.23,59.23,0,0,1,10.73,6.89,3.63,3.63,0,0,1,1.31,2.82Z"/></g></g></g></svg>
