<svg xmlns="http://www.w3.org/2000/svg" viewBox="0 0 183.08 68.33"><defs><style>.cls-1{isolation:isolate;}.cls-2{opacity:0.5;mix-blend-mode:multiply;}.cls-3{fill:#5a4494;}</style></defs><title>horas-hombre</title><g class="cls-1"><g id="Layer_2" data-name="Layer 2"><g id="_ÎÓÈ_1" data-name="—ÎÓÈ_1"><g class="cls-2"><path class="cls-3" d="M11.2,46.36,17,52.18,12,65.75a3.78,3.78,0,0,1-3.52,2.44A4.07,4.07,0,0,1,7.18,68a3.75,3.75,0,0,1-2.23-4.81Z"/><path class="cls-3" d="M.35,31.49,3.8,24.88a11,11,0,0,1,4-4.17c8-4.74,9-4.67,10-4.6l5.39.36c1.65.07,2.8.5,8.33,8.62a1.4,1.4,0,0,0,.93.57l6.61,1a3.27,3.27,0,1,1-1,6.46l-6.61-1a7.94,7.94,0,0,1-5.31-3.3c-.29-.43-.5-.79-.79-1.15L21,41.12,26.93,47a9.13,9.13,0,0,1,2,3.16l4.52,13.21a3.75,3.75,0,0,1-3.52,5,3.87,3.87,0,0,1-3.59-2.51L21.83,52.61c-.07-.14-.14-.22-.22-.36L11.13,41.69a6.05,6.05,0,0,1-1.65-5.6l2.3-10.2a6.32,6.32,0,0,1-.72.43A4,4,0,0,0,9.55,27.9L6.1,34.51a3.3,3.3,0,0,1-2.87,1.72,3.86,3.86,0,0,1-1.51-.36A3.3,3.3,0,0,1,.35,31.49Z"/><circle class="cls-3" cx="21.53" cy="7.25" r="7.25" transform="translate(11.99 27.87) rotate(-83.79)"/></g><g class="cls-2"><path class="cls-3" d="M58,46.36l5.82,5.82-5,13.57a3.78,3.78,0,0,1-3.52,2.44A4.07,4.07,0,0,1,54,68a3.75,3.75,0,0,1-2.23-4.81Z"/><path class="cls-3" d="M47.15,31.49l3.45-6.61a11,11,0,0,1,4-4.17c8-4.74,9-4.67,10-4.6l5.39.36c1.65.07,2.8.5,8.33,8.62a1.4,1.4,0,0,0,.93.57l6.61,1a3.27,3.27,0,1,1-1,6.46l-6.61-1a7.94,7.94,0,0,1-5.31-3.3c-.29-.43-.5-.79-.79-1.15L67.84,41.12,73.73,47a9.13,9.13,0,0,1,2,3.16l4.52,13.21a3.75,3.75,0,0,1-3.52,5,3.87,3.87,0,0,1-3.59-2.51L68.63,52.61c-.07-.14-.14-.22-.22-.36L57.93,41.69a6.05,6.05,0,0,1-1.65-5.6l2.3-10.2a6.32,6.32,0,0,1-.72.43,4,4,0,0,0-1.51,1.58L52.9,34.51A3.3,3.3,0,0,1,50,36.23a3.86,3.86,0,0,1-1.51-.36A3.3,3.3,0,0,1,47.15,31.49Z"/><circle class="cls-3" cx="68.33" cy="7.25" r="7.25" transform="translate(53.73 74.4) rotate(-83.79)"/></g><g class="cls-2"><path class="cls-3" d="M104.25,46.36l5.82,5.82-5,13.57a3.78,3.78,0,0,1-3.52,2.44,4.07,4.07,0,0,1-1.29-.22A3.75,3.75,0,0,1,98,63.16Z"/><path class="cls-3" d="M93.41,31.49l3.45-6.61a11,11,0,0,1,4-4.17c8-4.74,9-4.67,10-4.6l5.39.36c1.65.07,2.8.5,8.33,8.62a1.4,1.4,0,0,0,.93.57l6.61,1a3.27,3.27,0,1,1-1,6.46l-6.61-1a7.94,7.94,0,0,1-5.31-3.3c-.29-.43-.5-.79-.79-1.15l-4.24,13.43L120,47a9.13,9.13,0,0,1,2,3.16l4.52,13.21a3.75,3.75,0,0,1-3.52,5,3.87,3.87,0,0,1-3.59-2.51l-4.52-13.21c-.07-.14-.14-.22-.22-.36L104.18,41.69a6.05,6.05,0,0,1-1.65-5.6l2.3-10.2a6.32,6.32,0,0,1-.72.43,4,4,0,0,0-1.51,1.58l-3.45,6.61a3.3,3.3,0,0,1-2.87,1.72,3.86,3.86,0,0,1-1.51-.36A3.3,3.3,0,0,1,93.41,31.49Z"/><circle class="cls-3" cx="114.59" cy="7.25" r="7.25" transform="translate(94.98 120.38) rotate(-83.79)"/></g><g class="cls-2"><path class="cls-3" d="M152.51,46.36l5.82,5.82-5,13.57a3.78,3.78,0,0,1-3.52,2.44,4.07,4.07,0,0,1-1.29-.22,3.75,3.75,0,0,1-2.23-4.81Z"/><path class="cls-3" d="M141.67,31.49l3.45-6.61a11,11,0,0,1,4-4.17c8-4.74,9-4.67,10-4.6l5.39.36c1.65.07,2.8.5,8.33,8.62a1.4,1.4,0,0,0,.93.57l6.61,1a3.27,3.27,0,1,1-1,6.46l-6.61-1a7.94,7.94,0,0,1-5.31-3.3c-.29-.43-.5-.79-.79-1.15l-4.24,13.43L168.24,47a9.13,9.13,0,0,1,2,3.16l4.52,13.21a3.75,3.75,0,0,1-3.52,5,3.87,3.87,0,0,1-3.59-2.51l-4.52-13.21c-.07-.14-.14-.22-.22-.36L152.44,41.69a6.05,6.05,0,0,1-1.65-5.6l2.3-10.2a6.32,6.32,0,0,1-.72.43,4,4,0,0,0-1.51,1.58l-3.45,6.61a3.3,3.3,0,0,1-2.87,1.72,3.86,3.86,0,0,1-1.51-.36A3.3,3.3,0,0,1,141.67,31.49Z"/><circle class="cls-3" cx="162.85" cy="7.25" r="7.25" transform="translate(138.02 168.36) rotate(-83.79)"/></g></g></g></g></svg>
