<svg xmlns="http://www.w3.org/2000/svg" viewBox="0 0 251.98 515.67"><defs><style>.cls-1,.cls-2,.cls-5{fill:#7b69ab;}.cls-1{opacity:0.3;}.cls-3{fill:#5a4494;}.cls-4{fill:#473a73;}.cls-5{opacity:0.63;}.cls-6{fill:#352f54;}.cls-7{fill:#fff;}.cls-8{fill:none;stroke:#a3a2a2;stroke-miterlimit:10;stroke-width:0.5px;}</style></defs><title>inclusion</title><g id="Layer_2" data-name="Layer 2"><g id="Layer_1-2" data-name="Layer 1"><rect class="cls-1" x="1.36" y="84.02" width="250.45" height="32.84" rx="16.42" ry="16.42"/><rect class="cls-1" x="1.36" y="212.64" width="250.45" height="32.84" rx="16.42" ry="16.42"/><path class="cls-2" d="M126.87,67.82a8.65,8.65,0,0,1,3.09-3.3,22.62,22.62,0,0,0,2.74-2.17,3.2,3.2,0,0,0,1-2.23,2.48,2.48,0,0,0-.55-1.64,2.23,2.23,0,0,0-3.47.39,5.18,5.18,0,0,0-.34,1.91h-3a7.51,7.51,0,0,1,.72-3.21,4.49,4.49,0,0,1,4.36-2.33,5.53,5.53,0,0,1,3.94,1.37,4.73,4.73,0,0,1,1.46,3.63,4.9,4.9,0,0,1-1,3.07,10.28,10.28,0,0,1-2.23,2l-1.23.87q-1.15.82-1.58,1.18a3.46,3.46,0,0,0-.71.85h6.8v2.7H126.15A7.31,7.31,0,0,1,126.87,67.82Z"/><path class="cls-2" d="M147.93,57.3a12.13,12.13,0,0,1,1.2,6,12.06,12.06,0,0,1-1.2,5.94,5.22,5.22,0,0,1-8.35,0,12.05,12.05,0,0,1-1.2-5.94,12.12,12.12,0,0,1,1.2-6,5.2,5.2,0,0,1,8.35,0Zm-6,10.06a1.77,1.77,0,0,0,1.8,1.42,1.75,1.75,0,0,0,1.79-1.42,15.23,15.23,0,0,0,.42-4.11,15.06,15.06,0,0,0-.42-4.17,1.73,1.73,0,0,0-1.79-1.35,1.76,1.76,0,0,0-1.8,1.35,14.5,14.5,0,0,0-.44,4.17A14.66,14.66,0,0,0,142,67.36Z"/><path class="cls-2" d="M151.46,60.14V58.06a13.5,13.5,0,0,0,2-.19A2.85,2.85,0,0,0,155,57a2.68,2.68,0,0,0,.6-1.12,2.58,2.58,0,0,0,.12-.62h2.56V70.88h-3.14V60.14Z"/><path class="cls-2" d="M173.77,57.91a19.43,19.43,0,0,0-1.92,2.41,19.88,19.88,0,0,0-3.24,7.13,14.7,14.7,0,0,0-.53,3.44h-3.18a18.72,18.72,0,0,1,2.75-8.71,20.61,20.61,0,0,1,2.83-3.91h-7.76l0-2.75h11Z"/><path class="cls-3" d="M195.39,67.82a8.65,8.65,0,0,1,3.09-3.3,22.62,22.62,0,0,0,2.74-2.17,3.2,3.2,0,0,0,1-2.23,2.48,2.48,0,0,0-.55-1.64,2.23,2.23,0,0,0-3.47.39,5.18,5.18,0,0,0-.34,1.91h-3a7.51,7.51,0,0,1,.72-3.21,4.49,4.49,0,0,1,4.36-2.33,5.52,5.52,0,0,1,3.93,1.37,4.73,4.73,0,0,1,1.46,3.63,4.9,4.9,0,0,1-1,3.07,10.28,10.28,0,0,1-2.23,2l-1.23.87q-1.15.82-1.58,1.18a3.46,3.46,0,0,0-.71.85h6.8v2.7H194.67A7.31,7.31,0,0,1,195.39,67.82Z"/><path class="cls-3" d="M216.45,57.3a12.13,12.13,0,0,1,1.2,6,12.06,12.06,0,0,1-1.2,5.94,5.22,5.22,0,0,1-8.35,0,12.06,12.06,0,0,1-1.2-5.94,12.13,12.13,0,0,1,1.2-6,5.21,5.21,0,0,1,8.35,0Zm-6,10.06a1.77,1.77,0,0,0,1.8,1.42,1.75,1.75,0,0,0,1.79-1.42,15.23,15.23,0,0,0,.42-4.11,15.06,15.06,0,0,0-.42-4.17,1.73,1.73,0,0,0-1.79-1.35,1.76,1.76,0,0,0-1.8,1.35,14.5,14.5,0,0,0-.44,4.17A14.66,14.66,0,0,0,210.47,67.36Z"/><path class="cls-3" d="M220,60.14V58.06a13.51,13.51,0,0,0,2-.19,2.85,2.85,0,0,0,1.5-.82,2.69,2.69,0,0,0,.6-1.12,2.55,2.55,0,0,0,.12-.62h2.56V70.88h-3.14V60.14Z"/><path class="cls-3" d="M231.86,64.19a3.76,3.76,0,0,1,1.73-1.6A3.64,3.64,0,0,1,232.12,61a4.54,4.54,0,0,1-.34-1.64,3.82,3.82,0,0,1,1.28-2.9,6.06,6.06,0,0,1,7.23,0,3.82,3.82,0,0,1,1.28,2.9,4.58,4.58,0,0,1-.34,1.64,3.13,3.13,0,0,1-1.47,1.52,4.33,4.33,0,0,1,1.74,1.71,4.86,4.86,0,0,1,.58,2.37,4.44,4.44,0,0,1-1.46,3.35,5.68,5.68,0,0,1-4.07,1.38,5.28,5.28,0,0,1-4-1.38,4.62,4.62,0,0,1-1.34-3.35A4.79,4.79,0,0,1,231.86,64.19Zm3.18,4a2.46,2.46,0,0,0,3.3,0,2.51,2.51,0,0,0,.6-1.78,2.48,2.48,0,0,0-.61-1.81,2.48,2.48,0,0,0-3.28,0,2.48,2.48,0,0,0-.61,1.81A2.51,2.51,0,0,0,235,68.15Zm.2-7.09a1.93,1.93,0,0,0,1.45.54,1.9,1.9,0,0,0,1.45-.54,1.93,1.93,0,0,0,.51-1.39,2,2,0,0,0-.51-1.44,1.94,1.94,0,0,0-1.45-.52,1.81,1.81,0,0,0-2,2A1.9,1.9,0,0,0,235.24,61.06Z"/><path class="cls-4" d="M17.37,147.76A3.33,3.33,0,0,1,19.09,149a4.48,4.48,0,0,1,.72,1.63,7.85,7.85,0,0,1,.19,1.67,6.69,6.69,0,0,1-.81,3.4,3.64,3.64,0,0,1-3.38,1.88H11.46V147.54h4.34A5.31,5.31,0,0,1,17.37,147.76Zm-3.86,1.53v6.58h1.94a2.1,2.1,0,0,0,2.08-1.47,5.17,5.17,0,0,0,.32-1.92,4.72,4.72,0,0,0-.48-2.36,2,2,0,0,0-1.92-.82Z"/><path class="cls-4" d="M22.65,149.28h-2v-1.8h2Zm-2,.89h2v7.45h-2Z"/><path class="cls-4" d="M25.28,155.24a1.29,1.29,0,0,0,.27.74,1.82,1.82,0,0,0,1.35.39,2.07,2.07,0,0,0,.92-.17.55.55,0,0,0,.34-.51.55.55,0,0,0-.27-.5,11.16,11.16,0,0,0-2-.59,4.23,4.23,0,0,1-1.79-.79,1.7,1.7,0,0,1-.52-1.34,2.32,2.32,0,0,1,.81-1.77,3.26,3.26,0,0,1,2.29-.74,4.2,4.2,0,0,1,2.28.56,2.39,2.39,0,0,1,1,1.92H28a1.15,1.15,0,0,0-.21-.59,1.34,1.34,0,0,0-1.1-.4,1.58,1.58,0,0,0-.91.2.57.57,0,0,0-.27.46.51.51,0,0,0,.29.49,12.44,12.44,0,0,0,2,.54,3.73,3.73,0,0,1,1.75.83,1.88,1.88,0,0,1,.57,1.4,2.26,2.26,0,0,1-.83,1.81,3.88,3.88,0,0,1-2.55.7,3.85,3.85,0,0,1-2.6-.74,2.41,2.41,0,0,1-.84-1.89Z"/><path class="cls-4" d="M35.24,152.84a1.72,1.72,0,0,0-.28-.75,1.18,1.18,0,0,0-1-.45,1.34,1.34,0,0,0-1.35,1A4.06,4.06,0,0,0,32.4,154a3.73,3.73,0,0,0,.19,1.32,1.3,1.3,0,0,0,1.32.93,1.16,1.16,0,0,0,1-.37,1.83,1.83,0,0,0,.35-1h2a3.26,3.26,0,0,1-.64,1.68,3.13,3.13,0,0,1-2.72,1.28,3.18,3.18,0,0,1-2.65-1.07,4.31,4.31,0,0,1-.85-2.77,4.37,4.37,0,0,1,.94-3A3.27,3.27,0,0,1,33.88,150a3.9,3.9,0,0,1,2.3.63,2.93,2.93,0,0,1,1.06,2.22Z"/><path class="cls-4" d="M40.75,153.08a3.08,3.08,0,0,0,.78-.17.59.59,0,0,0,.42-.55.65.65,0,0,0-.32-.63,2,2,0,0,0-.95-.17,1.24,1.24,0,0,0-1,.34,1.41,1.41,0,0,0-.28.68H37.53a2.85,2.85,0,0,1,.55-1.61,3.2,3.2,0,0,1,2.66-1,4.75,4.75,0,0,1,2.18.49,1.86,1.86,0,0,1,1,1.83v3.42c0,.24,0,.52,0,.86a1.08,1.08,0,0,0,.12.52.69.69,0,0,0,.29.23v.29H42.18a2.12,2.12,0,0,1-.12-.42c0-.13,0-.28-.05-.45a4,4,0,0,1-.94.75,2.82,2.82,0,0,1-1.43.36,2.47,2.47,0,0,1-1.68-.58,2.05,2.05,0,0,1-.66-1.64,2.12,2.12,0,0,1,1.07-2,4.76,4.76,0,0,1,1.72-.48Zm1.19.91a2.16,2.16,0,0,1-.38.19,3.2,3.2,0,0,1-.52.13l-.44.08a2.91,2.91,0,0,0-.9.27.89.89,0,0,0-.46.83.86.86,0,0,0,.28.72,1.07,1.07,0,0,0,.68.22,2,2,0,0,0,1.18-.37,1.57,1.57,0,0,0,.56-1.35Z"/><path class="cls-4" d="M51.08,151a4,4,0,0,1,.91,2.83,4.47,4.47,0,0,1-.89,3,2.89,2.89,0,0,1-2.29,1,2.41,2.41,0,0,1-1.49-.44,2.9,2.9,0,0,1-.63-.72v3.88H44.76V150.16h1.87v1.1a3.12,3.12,0,0,1,.67-.77,2.49,2.49,0,0,1,1.55-.5A3,3,0,0,1,51.08,151Zm-1.5,1.4a1.39,1.39,0,0,0-1.29-.66,1.47,1.47,0,0,0-1.47,1,3.79,3.79,0,0,0-.21,1.35,2.15,2.15,0,0,0,.7,1.83,1.6,1.6,0,0,0,1,.31,1.43,1.43,0,0,0,1.25-.63,3.3,3.3,0,0,0,0-3.2Z"/><path class="cls-4" d="M55.55,153.08a3.08,3.08,0,0,0,.78-.17.59.59,0,0,0,.42-.55.65.65,0,0,0-.32-.63,2,2,0,0,0-.95-.17,1.24,1.24,0,0,0-1,.34,1.41,1.41,0,0,0-.28.68H52.33a2.85,2.85,0,0,1,.55-1.61,3.2,3.2,0,0,1,2.66-1,4.75,4.75,0,0,1,2.18.49,1.86,1.86,0,0,1,1,1.83v3.42c0,.24,0,.52,0,.86a1.08,1.08,0,0,0,.12.52.69.69,0,0,0,.29.23v.29H57a2.12,2.12,0,0,1-.12-.42c0-.13,0-.28-.05-.45a4,4,0,0,1-.94.75,2.82,2.82,0,0,1-1.43.36,2.47,2.47,0,0,1-1.68-.58,2.05,2.05,0,0,1-.66-1.64,2.12,2.12,0,0,1,1.07-2,4.76,4.76,0,0,1,1.72-.48Zm1.19.91a2.16,2.16,0,0,1-.38.19,3.2,3.2,0,0,1-.52.13l-.44.08a2.91,2.91,0,0,0-.9.27.89.89,0,0,0-.46.83.86.86,0,0,0,.28.72,1.07,1.07,0,0,0,.68.22,2,2,0,0,0,1.18-.37,1.57,1.57,0,0,0,.56-1.35Z"/><path class="cls-4" d="M64.07,152.84a1.72,1.72,0,0,0-.28-.75,1.18,1.18,0,0,0-1-.45,1.34,1.34,0,0,0-1.35,1,4.06,4.06,0,0,0-.19,1.38,3.73,3.73,0,0,0,.19,1.32,1.3,1.3,0,0,0,1.32.93,1.16,1.16,0,0,0,1-.37,1.83,1.83,0,0,0,.35-1h2a3.26,3.26,0,0,1-.64,1.68,3.13,3.13,0,0,1-2.72,1.28A3.18,3.18,0,0,1,60,156.8a4.31,4.31,0,0,1-.85-2.77,4.37,4.37,0,0,1,.94-3A3.27,3.27,0,0,1,62.71,150a3.9,3.9,0,0,1,2.3.63,2.93,2.93,0,0,1,1.06,2.22Z"/><path class="cls-4" d="M68.63,149.28h-2v-1.8h2Zm-2,.89h2v7.45h-2Z"/><path class="cls-4" d="M73.7,150.28a2.36,2.36,0,0,1,.85.82v-3.55h2v10.06H74.64v-1a2.75,2.75,0,0,1-1,1,2.66,2.66,0,0,1-1.33.3,2.77,2.77,0,0,1-2.2-1.06,4.06,4.06,0,0,1-.89-2.71,4.66,4.66,0,0,1,.88-3A2.86,2.86,0,0,1,72.5,150,2.4,2.4,0,0,1,73.7,150.28Zm.48,5.31a2.72,2.72,0,0,0,.43-1.59,2.44,2.44,0,0,0-.69-2,1.49,1.49,0,0,0-1-.36,1.37,1.37,0,0,0-1.25.65,3.48,3.48,0,0,0,0,3.25,1.37,1.37,0,0,0,1.23.62A1.44,1.44,0,0,0,74.18,155.59Z"/><path class="cls-4" d="M80.48,153.08a3.08,3.08,0,0,0,.78-.17.59.59,0,0,0,.42-.55.65.65,0,0,0-.32-.63,2,2,0,0,0-.95-.17,1.24,1.24,0,0,0-1,.34,1.41,1.41,0,0,0-.28.68H77.26a2.85,2.85,0,0,1,.55-1.61,3.2,3.2,0,0,1,2.66-1,4.75,4.75,0,0,1,2.18.49,1.86,1.86,0,0,1,1,1.83v3.42c0,.24,0,.52,0,.86a1.08,1.08,0,0,0,.12.52.69.69,0,0,0,.29.23v.29H81.91a2.12,2.12,0,0,1-.12-.42c0-.13,0-.28-.05-.45a4,4,0,0,1-.94.75,2.82,2.82,0,0,1-1.43.36,2.47,2.47,0,0,1-1.68-.58,2.05,2.05,0,0,1-.66-1.64,2.12,2.12,0,0,1,1.07-2,4.76,4.76,0,0,1,1.72-.48Zm1.19.91a2.16,2.16,0,0,1-.38.19,3.2,3.2,0,0,1-.52.13l-.44.08a2.91,2.91,0,0,0-.9.27.89.89,0,0,0-.46.83.86.86,0,0,0,.28.72,1.07,1.07,0,0,0,.68.22,2,2,0,0,0,1.18-.37,1.57,1.57,0,0,0,.56-1.35Z"/><path class="cls-4" d="M88.5,150.28a2.36,2.36,0,0,1,.85.82v-3.55h2v10.06H89.43v-1a2.75,2.75,0,0,1-1,1,2.66,2.66,0,0,1-1.33.3,2.77,2.77,0,0,1-2.2-1.06,4.06,4.06,0,0,1-.89-2.71,4.66,4.66,0,0,1,.88-3A2.86,2.86,0,0,1,87.29,150,2.4,2.4,0,0,1,88.5,150.28Zm.48,5.31a2.72,2.72,0,0,0,.43-1.59,2.44,2.44,0,0,0-.69-2,1.49,1.49,0,0,0-1-.36,1.37,1.37,0,0,0-1.25.65,3.48,3.48,0,0,0,0,3.25,1.37,1.37,0,0,0,1.23.62A1.44,1.44,0,0,0,89,155.59Z"/><path class="cls-4" d="M14.26,169.08a3.08,3.08,0,0,0,.78-.17.59.59,0,0,0,.42-.55.65.65,0,0,0-.32-.63,2,2,0,0,0-.95-.17,1.24,1.24,0,0,0-1,.34,1.41,1.41,0,0,0-.28.68H11a2.85,2.85,0,0,1,.55-1.61,3.2,3.2,0,0,1,2.66-1,4.75,4.75,0,0,1,2.18.49,1.86,1.86,0,0,1,1,1.83v3.42c0,.24,0,.52,0,.86a1.08,1.08,0,0,0,.12.52.69.69,0,0,0,.29.23v.29H15.69a2.12,2.12,0,0,1-.12-.42c0-.13,0-.28-.05-.45a4,4,0,0,1-.94.75,2.82,2.82,0,0,1-1.43.36,2.47,2.47,0,0,1-1.68-.58,2.05,2.05,0,0,1-.66-1.64,2.12,2.12,0,0,1,1.07-2,4.76,4.76,0,0,1,1.72-.48Zm1.19.91a2.16,2.16,0,0,1-.38.19,3.2,3.2,0,0,1-.52.13l-.44.08a2.91,2.91,0,0,0-.9.27.89.89,0,0,0-.46.83.86.86,0,0,0,.28.72,1.07,1.07,0,0,0,.68.22,2,2,0,0,0,1.18-.37,1.57,1.57,0,0,0,.56-1.35Z"/><path class="cls-4" d="M20.26,166.16v4.49a2.37,2.37,0,0,0,.15,1,1,1,0,0,0,1,.57,1.36,1.36,0,0,0,1.36-.81,2.93,2.93,0,0,0,.19-1.16v-4.05h2v7.45H23.09v-1.05l-.14.21a1.37,1.37,0,0,1-.26.3,2.69,2.69,0,0,1-.88.56,3,3,0,0,1-1,.15,2.23,2.23,0,0,1-2.22-1.19,4.57,4.57,0,0,1-.32-1.93v-4.49Z"/><path class="cls-4" d="M30.06,166.28a2.37,2.37,0,0,1,.85.82v-3.55h2v10.06H31v-1a2.75,2.75,0,0,1-1,1,2.67,2.67,0,0,1-1.33.3,2.77,2.77,0,0,1-2.2-1.06,4.06,4.06,0,0,1-.89-2.71,4.67,4.67,0,0,1,.88-3A2.86,2.86,0,0,1,28.85,166,2.4,2.4,0,0,1,30.06,166.28Zm.48,5.31A2.72,2.72,0,0,0,31,170a2.44,2.44,0,0,0-.69-2,1.49,1.49,0,0,0-1-.36,1.37,1.37,0,0,0-1.25.65,3.49,3.49,0,0,0,0,3.25,1.38,1.38,0,0,0,1.23.62A1.44,1.44,0,0,0,30.54,171.59Z"/><path class="cls-4" d="M35.89,165.28h-2v-1.8h2Zm-2,.89h2v7.45h-2Z"/><path class="cls-4" d="M36.24,167.62v-1.39h1v-2.08h1.93v2.08h1.21v1.39H39.21v3.94a.88.88,0,0,0,.12.57,1.28,1.28,0,0,0,.71.11h.38v1.46l-.92,0a2.48,2.48,0,0,1-1.89-.48,1.42,1.42,0,0,1-.33-1v-4.59Z"/><path class="cls-4" d="M42.9,165.28h-2v-1.8h2Zm-2,.89h2v7.45h-2Z"/><path class="cls-4" d="M48.61,166.16H50.7L48,173.62H46l-2.67-7.45h2.19l1.55,5.5Z"/><path class="cls-4" d="M54,169.08a3.07,3.07,0,0,0,.78-.17.59.59,0,0,0,.42-.55.65.65,0,0,0-.32-.63,2,2,0,0,0-.95-.17,1.24,1.24,0,0,0-1,.34,1.41,1.41,0,0,0-.28.68H50.77a2.85,2.85,0,0,1,.55-1.61A3.2,3.2,0,0,1,54,166a4.75,4.75,0,0,1,2.18.49,1.86,1.86,0,0,1,1,1.83v3.42q0,.36,0,.86a1.09,1.09,0,0,0,.12.52.7.7,0,0,0,.29.23v.29H55.42a2.26,2.26,0,0,1-.12-.42c0-.13,0-.28-.05-.45a4,4,0,0,1-.93.75,2.82,2.82,0,0,1-1.43.36,2.47,2.47,0,0,1-1.68-.58,2.05,2.05,0,0,1-.66-1.64,2.12,2.12,0,0,1,1.07-2,4.78,4.78,0,0,1,1.72-.48Zm1.19.91a2.16,2.16,0,0,1-.38.19,3.18,3.18,0,0,1-.52.13l-.44.08a2.9,2.9,0,0,0-.9.27.89.89,0,0,0-.46.83.86.86,0,0,0,.28.72,1.07,1.07,0,0,0,.68.22,2,2,0,0,0,1.18-.37,1.56,1.56,0,0,0,.56-1.35Z"/><path class="cls-2" d="M144.07,161.87a1.83,1.83,0,0,0,1,1.56,2.53,2.53,0,0,0,1.08.22,2,2,0,0,0,1.74-.75,2.68,2.68,0,0,0,.56-1.66,2.16,2.16,0,0,0-.67-1.7,2.33,2.33,0,0,0-1.61-.6,2.42,2.42,0,0,0-1.17.26,2.5,2.5,0,0,0-.83.73l-1.14-.07.8-5.65h5.45v1.27h-4.46l-.45,2.92a3.28,3.28,0,0,1,.7-.42,3.53,3.53,0,0,1,1.35-.24,3.47,3.47,0,0,1,2.45.93,3.08,3.08,0,0,1,1,2.36,4,4,0,0,1-.92,2.62,3.56,3.56,0,0,1-2.93,1.14,3.73,3.73,0,0,1-2.27-.72,2.86,2.86,0,0,1-1.1-2.22Z"/><path class="cls-2" d="M152.55,162a1.67,1.67,0,0,0,.84,1.51,1.87,1.87,0,0,0,.91.22,2,2,0,0,0,1.61-.79,6.47,6.47,0,0,0,.95-3.2,2.44,2.44,0,0,1-1.09,1,3.45,3.45,0,0,1-1.39.28,3.13,3.13,0,0,1-2.4-.94,3.42,3.42,0,0,1-.88-2.43,3.88,3.88,0,0,1,.87-2.51,3.1,3.1,0,0,1,2.57-1.08,3.16,3.16,0,0,1,3.16,2.06,7.27,7.27,0,0,1,.48,2.84,9.36,9.36,0,0,1-.58,3.41,3.35,3.35,0,0,1-3.25,2.47A3.15,3.15,0,0,1,152,164a2.75,2.75,0,0,1-.8-2Zm3.43-2.67a2.18,2.18,0,0,0,.65-1.8,2.3,2.3,0,0,0-.58-1.72,2,2,0,0,0-1.48-.57,1.94,1.94,0,0,0-1.53.65,2.53,2.53,0,0,0-.57,1.73,2.48,2.48,0,0,0,.5,1.63,2,2,0,0,0,1.59.6A2.25,2.25,0,0,0,156,159.33Z"/><path class="cls-3" d="M217.59,154.23v1.15a12.37,12.37,0,0,0-1.34,1.71,17.26,17.26,0,0,0-1.48,2.62,17.68,17.68,0,0,0-1,2.5q-.21.73-.55,2.34h-1.46a18,18,0,0,1,2.2-6,18.92,18.92,0,0,1,2.11-3h-5.8v-1.33Z"/><path class="cls-3" d="M223.07,164.54V162h-4.6v-1.29l4.8-6.67h1.11v6.8h1.54V162h-1.54v2.56Zm0-3.71v-4.76l-3.36,4.76Z"/><path class="cls-4" d="M20,87.77a3.33,3.33,0,0,1,1.72,1.28,4.48,4.48,0,0,1,.72,1.63,7.85,7.85,0,0,1,.19,1.67,6.69,6.69,0,0,1-.81,3.4,3.64,3.64,0,0,1-3.38,1.88H14.05V87.56H18.4A5.31,5.31,0,0,1,20,87.77ZM16.1,89.31v6.58H18a2.1,2.1,0,0,0,2.08-1.47,5.17,5.17,0,0,0,.32-1.92A4.72,4.72,0,0,0,20,90.13,2,2,0,0,0,18,89.31Z"/><path class="cls-4" d="M25.24,89.29h-2v-1.8h2Zm-2,.89h2v7.45h-2Z"/><path class="cls-4" d="M27.87,95.25a1.29,1.29,0,0,0,.27.74,1.82,1.82,0,0,0,1.35.39,2.07,2.07,0,0,0,.92-.17.55.55,0,0,0,.34-.51.55.55,0,0,0-.27-.5,11.16,11.16,0,0,0-2-.59,4.23,4.23,0,0,1-1.79-.79,1.7,1.7,0,0,1-.52-1.34,2.32,2.32,0,0,1,.81-1.77A3.26,3.26,0,0,1,29.21,90a4.2,4.2,0,0,1,2.28.56,2.39,2.39,0,0,1,1,1.92H30.55a1.15,1.15,0,0,0-.21-.59,1.34,1.34,0,0,0-1.1-.4,1.58,1.58,0,0,0-.91.2.57.57,0,0,0-.27.46.51.51,0,0,0,.29.49,12.44,12.44,0,0,0,2,.54,3.73,3.73,0,0,1,1.75.83,1.88,1.88,0,0,1,.57,1.4,2.26,2.26,0,0,1-.83,1.81,3.88,3.88,0,0,1-2.55.7,3.85,3.85,0,0,1-2.6-.74,2.41,2.41,0,0,1-.84-1.89Z"/><path class="cls-4" d="M37.83,92.85a1.72,1.72,0,0,0-.28-.75,1.18,1.18,0,0,0-1-.45,1.34,1.34,0,0,0-1.35,1A4.06,4.06,0,0,0,35,94a3.73,3.73,0,0,0,.19,1.32,1.3,1.3,0,0,0,1.32.93,1.16,1.16,0,0,0,1-.37,1.83,1.83,0,0,0,.35-1h2a3.26,3.26,0,0,1-.64,1.68,3.13,3.13,0,0,1-2.72,1.28,3.18,3.18,0,0,1-2.65-1.07,4.31,4.31,0,0,1-.85-2.77,4.37,4.37,0,0,1,.94-3A3.27,3.27,0,0,1,36.47,90a3.9,3.9,0,0,1,2.3.63,2.93,2.93,0,0,1,1.06,2.22Z"/><path class="cls-4" d="M43.34,93.1a3.08,3.08,0,0,0,.78-.17.59.59,0,0,0,.42-.55.65.65,0,0,0-.32-.63,2,2,0,0,0-.95-.17,1.24,1.24,0,0,0-1,.34,1.41,1.41,0,0,0-.28.68H40.12A2.85,2.85,0,0,1,40.67,91a3.2,3.2,0,0,1,2.66-1,4.75,4.75,0,0,1,2.18.49,1.86,1.86,0,0,1,1,1.83v3.42c0,.24,0,.52,0,.86a1.08,1.08,0,0,0,.12.52.69.69,0,0,0,.29.23v.29H44.77a2.12,2.12,0,0,1-.12-.42c0-.13,0-.28-.05-.45a4,4,0,0,1-.94.75,2.82,2.82,0,0,1-1.43.36,2.47,2.47,0,0,1-1.68-.58,2.05,2.05,0,0,1-.66-1.64,2.12,2.12,0,0,1,1.07-2,4.76,4.76,0,0,1,1.72-.48Zm1.19.91a2.16,2.16,0,0,1-.38.19,3.2,3.2,0,0,1-.52.13l-.44.08a2.91,2.91,0,0,0-.9.27.89.89,0,0,0-.46.83.86.86,0,0,0,.28.72,1.07,1.07,0,0,0,.68.22A2,2,0,0,0,44,96.08a1.57,1.57,0,0,0,.56-1.35Z"/><path class="cls-4" d="M53.67,91a4,4,0,0,1,.91,2.83,4.47,4.47,0,0,1-.89,3,2.89,2.89,0,0,1-2.29,1,2.41,2.41,0,0,1-1.49-.44,2.9,2.9,0,0,1-.63-.72v3.88H47.35V90.18h1.87v1.1a3.12,3.12,0,0,1,.67-.77,2.49,2.49,0,0,1,1.55-.5A3,3,0,0,1,53.67,91Zm-1.5,1.4a1.39,1.39,0,0,0-1.29-.66,1.47,1.47,0,0,0-1.47,1,3.79,3.79,0,0,0-.21,1.35,2.15,2.15,0,0,0,.7,1.83,1.6,1.6,0,0,0,1,.31,1.43,1.43,0,0,0,1.25-.63,3.3,3.3,0,0,0,0-3.2Z"/><path class="cls-4" d="M58.14,93.1a3.08,3.08,0,0,0,.78-.17.59.59,0,0,0,.42-.55.65.65,0,0,0-.32-.63,2,2,0,0,0-.95-.17,1.24,1.24,0,0,0-1,.34,1.41,1.41,0,0,0-.28.68H54.92A2.85,2.85,0,0,1,55.47,91a3.2,3.2,0,0,1,2.66-1,4.75,4.75,0,0,1,2.18.49,1.86,1.86,0,0,1,1,1.83v3.42c0,.24,0,.52,0,.86a1.08,1.08,0,0,0,.12.52.69.69,0,0,0,.29.23v.29H59.57a2.12,2.12,0,0,1-.12-.42c0-.13,0-.28-.05-.45a4,4,0,0,1-.94.75,2.82,2.82,0,0,1-1.43.36,2.47,2.47,0,0,1-1.68-.58,2.05,2.05,0,0,1-.66-1.64,2.12,2.12,0,0,1,1.07-2,4.76,4.76,0,0,1,1.72-.48Zm1.19.91a2.16,2.16,0,0,1-.38.19,3.2,3.2,0,0,1-.52.13l-.44.08a2.91,2.91,0,0,0-.9.27.89.89,0,0,0-.46.83.86.86,0,0,0,.28.72,1.07,1.07,0,0,0,.68.22,2,2,0,0,0,1.18-.37,1.57,1.57,0,0,0,.56-1.35Z"/><path class="cls-4" d="M66.66,92.85a1.72,1.72,0,0,0-.28-.75,1.18,1.18,0,0,0-1-.45,1.34,1.34,0,0,0-1.35,1A4.06,4.06,0,0,0,63.82,94,3.73,3.73,0,0,0,64,95.32a1.3,1.3,0,0,0,1.32.93,1.16,1.16,0,0,0,1-.37,1.83,1.83,0,0,0,.35-1h2A3.26,3.26,0,0,1,68,96.61a3.13,3.13,0,0,1-2.72,1.28,3.18,3.18,0,0,1-2.65-1.07,4.31,4.31,0,0,1-.85-2.77,4.37,4.37,0,0,1,.94-3A3.27,3.27,0,0,1,65.3,90a3.9,3.9,0,0,1,2.3.63,2.93,2.93,0,0,1,1.06,2.22Z"/><path class="cls-4" d="M71.22,89.29h-2v-1.8h2Zm-2,.89h2v7.45h-2Z"/><path class="cls-4" d="M76.29,90.3a2.36,2.36,0,0,1,.85.82V87.57h2V97.63H77.23v-1a2.75,2.75,0,0,1-1,1,2.66,2.66,0,0,1-1.33.3,2.77,2.77,0,0,1-2.2-1.06,4.06,4.06,0,0,1-.89-2.71,4.66,4.66,0,0,1,.88-3A2.86,2.86,0,0,1,75.09,90,2.4,2.4,0,0,1,76.29,90.3Zm.48,5.31A2.72,2.72,0,0,0,77.2,94a2.44,2.44,0,0,0-.69-2,1.49,1.49,0,0,0-1-.36,1.37,1.37,0,0,0-1.25.65,3.48,3.48,0,0,0,0,3.25,1.37,1.37,0,0,0,1.23.62A1.44,1.44,0,0,0,76.77,95.61Z"/><path class="cls-4" d="M83.07,93.1a3.08,3.08,0,0,0,.78-.17.59.59,0,0,0,.42-.55.65.65,0,0,0-.32-.63,2,2,0,0,0-.95-.17,1.24,1.24,0,0,0-1,.34,1.41,1.41,0,0,0-.28.68H79.85A2.85,2.85,0,0,1,80.4,91a3.2,3.2,0,0,1,2.66-1,4.75,4.75,0,0,1,2.18.49,1.86,1.86,0,0,1,1,1.83v3.42c0,.24,0,.52,0,.86a1.08,1.08,0,0,0,.12.52.69.69,0,0,0,.29.23v.29H84.5a2.12,2.12,0,0,1-.12-.42c0-.13,0-.28-.05-.45a4,4,0,0,1-.94.75,2.82,2.82,0,0,1-1.43.36,2.47,2.47,0,0,1-1.68-.58,2.05,2.05,0,0,1-.66-1.64,2.12,2.12,0,0,1,1.07-2,4.76,4.76,0,0,1,1.72-.48Zm1.19.91a2.16,2.16,0,0,1-.38.19,3.2,3.2,0,0,1-.52.13l-.44.08a2.91,2.91,0,0,0-.9.27.89.89,0,0,0-.46.83.86.86,0,0,0,.28.72,1.07,1.07,0,0,0,.68.22,2,2,0,0,0,1.18-.37,1.57,1.57,0,0,0,.56-1.35Z"/><path class="cls-4" d="M91.09,90.3a2.36,2.36,0,0,1,.85.82V87.57h2V97.63H92v-1a2.75,2.75,0,0,1-1,1,2.66,2.66,0,0,1-1.33.3,2.77,2.77,0,0,1-2.2-1.06,4.06,4.06,0,0,1-.89-2.71,4.66,4.66,0,0,1,.88-3A2.86,2.86,0,0,1,89.88,90,2.4,2.4,0,0,1,91.09,90.3Zm.48,5.31A2.72,2.72,0,0,0,92,94a2.44,2.44,0,0,0-.69-2,1.49,1.49,0,0,0-1-.36,1.37,1.37,0,0,0-1.25.65,3.48,3.48,0,0,0,0,3.25,1.37,1.37,0,0,0,1.23.62A1.44,1.44,0,0,0,91.57,95.61Z"/><path class="cls-4" d="M18.49,106.18h2.09l-2.69,7.45H15.83l-2.67-7.45h2.19l1.55,5.5Z"/><path class="cls-4" d="M22.92,105.29h-2v-1.8h2Zm-2,.89h2v7.45h-2Z"/><path class="cls-4" d="M25.54,111.25a1.29,1.29,0,0,0,.27.74,1.82,1.82,0,0,0,1.35.39,2.07,2.07,0,0,0,.92-.17.55.55,0,0,0,.34-.51.55.55,0,0,0-.27-.5,11.16,11.16,0,0,0-2-.59,4.23,4.23,0,0,1-1.79-.79,1.7,1.7,0,0,1-.52-1.34,2.32,2.32,0,0,1,.81-1.77,3.26,3.26,0,0,1,2.29-.74,4.2,4.2,0,0,1,2.28.56,2.39,2.39,0,0,1,1,1.92H28.23a1.15,1.15,0,0,0-.21-.59,1.34,1.34,0,0,0-1.1-.4,1.58,1.58,0,0,0-.91.2.57.57,0,0,0-.27.46.51.51,0,0,0,.29.49,12.44,12.44,0,0,0,2,.54,3.73,3.73,0,0,1,1.75.83,1.88,1.88,0,0,1,.57,1.4,2.26,2.26,0,0,1-.83,1.81,3.88,3.88,0,0,1-2.55.7,3.85,3.85,0,0,1-2.6-.74,2.41,2.41,0,0,1-.84-1.89Z"/><path class="cls-4" d="M33,106.18v4.49a2.37,2.37,0,0,0,.15,1,1,1,0,0,0,1,.57,1.36,1.36,0,0,0,1.36-.81,2.93,2.93,0,0,0,.19-1.16v-4.05h2v7.45H35.81v-1.05l-.14.21a1.37,1.37,0,0,1-.26.3,2.69,2.69,0,0,1-.88.56,3,3,0,0,1-1,.15,2.23,2.23,0,0,1-2.22-1.19,4.57,4.57,0,0,1-.32-1.93v-4.49Z"/><path class="cls-4" d="M41.78,109.1a3.08,3.08,0,0,0,.78-.17.59.59,0,0,0,.42-.55.65.65,0,0,0-.32-.63,2,2,0,0,0-.95-.17,1.24,1.24,0,0,0-1,.34,1.41,1.41,0,0,0-.28.68H38.56a2.85,2.85,0,0,1,.55-1.61,3.2,3.2,0,0,1,2.66-1,4.75,4.75,0,0,1,2.18.49,1.86,1.86,0,0,1,1,1.83v3.42c0,.24,0,.52,0,.86a1.08,1.08,0,0,0,.12.52.69.69,0,0,0,.29.23v.29H43.21a2.12,2.12,0,0,1-.12-.42c0-.13,0-.28-.05-.45a4,4,0,0,1-.94.75,2.82,2.82,0,0,1-1.43.36,2.47,2.47,0,0,1-1.68-.58,2.05,2.05,0,0,1-.66-1.64,2.12,2.12,0,0,1,1.07-2,4.76,4.76,0,0,1,1.72-.48ZM43,110a2.16,2.16,0,0,1-.38.19,3.2,3.2,0,0,1-.52.13l-.44.08a2.91,2.91,0,0,0-.9.27.89.89,0,0,0-.46.83.86.86,0,0,0,.28.72,1.07,1.07,0,0,0,.68.22,2,2,0,0,0,1.18-.37,1.57,1.57,0,0,0,.56-1.35Z"/><path class="cls-4" d="M47.84,113.63H45.89V103.56h1.95Z"/><path class="cls-2" d="M143.25,103.66a4.53,4.53,0,0,1,1.9-1.82l1.41-.81a6.6,6.6,0,0,0,1.33-.94,2.05,2.05,0,0,0,.05-2.85,2,2,0,0,0-1.46-.54,1.91,1.91,0,0,0-1.87,1,3.69,3.69,0,0,0-.31,1.53h-1.34a4.71,4.71,0,0,1,.5-2.23,3.17,3.17,0,0,1,3-1.52,3.11,3.11,0,0,1,3.46,3.14,3,3,0,0,1-.89,2.15,8.67,8.67,0,0,1-1.84,1.26l-1,.56a6.5,6.5,0,0,0-1.13.75,2.75,2.75,0,0,0-.92,1.41h5.73V106h-7.2A6.11,6.11,0,0,1,143.25,103.66Z"/><path class="cls-2" d="M151.76,105.29a3.79,3.79,0,0,1-.84-2.49h1.38a3.4,3.4,0,0,0,.38,1.48,2,2,0,0,0,1.85.83,2.43,2.43,0,0,0,1.67-.56,1.83,1.83,0,0,0,.63-1.44,1.67,1.67,0,0,0-.66-1.52,3.35,3.35,0,0,0-1.84-.43h-.54V100l.34,0h.3a2.75,2.75,0,0,0,1.22-.23,1.49,1.49,0,0,0,.83-1.46,1.43,1.43,0,0,0-.56-1.21,2.08,2.08,0,0,0-1.3-.42,1.92,1.92,0,0,0-1.82.88,3,3,0,0,0-.32,1.38h-1.3a4,4,0,0,1,.47-2,3,3,0,0,1,2.83-1.46,3.84,3.84,0,0,1,2.48.71,2.51,2.51,0,0,1,.88,2.07,2.31,2.31,0,0,1-.52,1.57,2.18,2.18,0,0,1-.83.59,2.28,2.28,0,0,1,1.29.88,2.65,2.65,0,0,1,.46,1.59,3.23,3.23,0,0,1-1,2.45,3.9,3.9,0,0,1-2.8.94A3.3,3.3,0,0,1,151.76,105.29Z"/><path class="cls-3" d="M210.94,105.29a3.79,3.79,0,0,1-.84-2.49h1.38a3.4,3.4,0,0,0,.38,1.48,2,2,0,0,0,1.85.83,2.43,2.43,0,0,0,1.67-.56,1.83,1.83,0,0,0,.63-1.44,1.67,1.67,0,0,0-.66-1.52,3.35,3.35,0,0,0-1.84-.43H213V100l.34,0h.3a2.75,2.75,0,0,0,1.22-.23,1.49,1.49,0,0,0,.83-1.46,1.43,1.43,0,0,0-.56-1.21,2.08,2.08,0,0,0-1.3-.42,1.92,1.92,0,0,0-1.82.88,3,3,0,0,0-.32,1.38h-1.3a4,4,0,0,1,.47-2,3,3,0,0,1,2.83-1.46,3.84,3.84,0,0,1,2.48.71A2.51,2.51,0,0,1,217,98.3a2.31,2.31,0,0,1-.52,1.57,2.18,2.18,0,0,1-.83.59,2.28,2.28,0,0,1,1.29.88,2.65,2.65,0,0,1,.46,1.59,3.23,3.23,0,0,1-1,2.45,3.9,3.9,0,0,1-2.8.94A3.3,3.3,0,0,1,210.94,105.29Z"/><path class="cls-3" d="M219.52,98.6v-1a5.37,5.37,0,0,0,2-.46,2.29,2.29,0,0,0,.84-1.54h1V106H222V98.6Z"/><path class="cls-4" d="M17.37,280.15a3.33,3.33,0,0,1,1.72,1.28,4.48,4.48,0,0,1,.72,1.63,7.85,7.85,0,0,1,.19,1.67,6.69,6.69,0,0,1-.81,3.4A3.64,3.64,0,0,1,15.81,290H11.46V279.94h4.34A5.31,5.31,0,0,1,17.37,280.15Zm-3.86,1.53v6.58h1.94a2.1,2.1,0,0,0,2.08-1.47,5.17,5.17,0,0,0,.32-1.92,4.72,4.72,0,0,0-.48-2.36,2,2,0,0,0-1.92-.82Z"/><path class="cls-4" d="M22.65,281.67h-2v-1.8h2Zm-2,.89h2V290h-2Z"/><path class="cls-4" d="M25.28,287.63a1.29,1.29,0,0,0,.27.74,1.82,1.82,0,0,0,1.35.39,2.07,2.07,0,0,0,.92-.17.55.55,0,0,0,.34-.51.55.55,0,0,0-.27-.5,11.16,11.16,0,0,0-2-.59A4.23,4.23,0,0,1,24,286.2a1.7,1.7,0,0,1-.52-1.34,2.32,2.32,0,0,1,.81-1.77,3.26,3.26,0,0,1,2.29-.74,4.2,4.2,0,0,1,2.28.56,2.39,2.39,0,0,1,1,1.92H28a1.15,1.15,0,0,0-.21-.59,1.34,1.34,0,0,0-1.1-.4,1.58,1.58,0,0,0-.91.2.57.57,0,0,0-.27.46.51.51,0,0,0,.29.49,12.44,12.44,0,0,0,2,.54,3.73,3.73,0,0,1,1.75.83,1.88,1.88,0,0,1,.57,1.4,2.26,2.26,0,0,1-.83,1.81,3.88,3.88,0,0,1-2.55.7,3.85,3.85,0,0,1-2.6-.74,2.41,2.41,0,0,1-.84-1.89Z"/><path class="cls-4" d="M35.24,285.23a1.72,1.72,0,0,0-.28-.75,1.18,1.18,0,0,0-1-.45,1.34,1.34,0,0,0-1.35,1,4.06,4.06,0,0,0-.19,1.38,3.73,3.73,0,0,0,.19,1.32,1.3,1.3,0,0,0,1.32.93,1.16,1.16,0,0,0,1-.37,1.83,1.83,0,0,0,.35-1h2a3.26,3.26,0,0,1-.64,1.68,3.13,3.13,0,0,1-2.72,1.28,3.18,3.18,0,0,1-2.65-1.07,4.31,4.31,0,0,1-.85-2.77,4.37,4.37,0,0,1,.94-3,3.27,3.27,0,0,1,2.59-1.07,3.9,3.9,0,0,1,2.3.63,2.93,2.93,0,0,1,1.06,2.22Z"/><path class="cls-4" d="M40.75,285.48a3.08,3.08,0,0,0,.78-.17.59.59,0,0,0,.42-.55.65.65,0,0,0-.32-.63,2,2,0,0,0-.95-.17,1.24,1.24,0,0,0-1,.34,1.41,1.41,0,0,0-.28.68H37.53a2.85,2.85,0,0,1,.55-1.61,3.2,3.2,0,0,1,2.66-1,4.75,4.75,0,0,1,2.18.49,1.86,1.86,0,0,1,1,1.83v3.42c0,.24,0,.52,0,.86a1.08,1.08,0,0,0,.12.52.69.69,0,0,0,.29.23V290H42.18a2.12,2.12,0,0,1-.12-.42c0-.13,0-.28-.05-.45a4,4,0,0,1-.94.75,2.82,2.82,0,0,1-1.43.36,2.47,2.47,0,0,1-1.68-.58,2.05,2.05,0,0,1-.66-1.64,2.12,2.12,0,0,1,1.07-2,4.76,4.76,0,0,1,1.72-.48Zm1.19.91a2.16,2.16,0,0,1-.38.19,3.2,3.2,0,0,1-.52.13l-.44.08a2.91,2.91,0,0,0-.9.27.89.89,0,0,0-.46.83.86.86,0,0,0,.28.72,1.07,1.07,0,0,0,.68.22,2,2,0,0,0,1.18-.37,1.57,1.57,0,0,0,.56-1.35Z"/><path class="cls-4" d="M51.08,283.36a4,4,0,0,1,.91,2.83,4.47,4.47,0,0,1-.89,3,2.89,2.89,0,0,1-2.29,1,2.41,2.41,0,0,1-1.49-.44,2.9,2.9,0,0,1-.63-.72v3.88H44.76V282.56h1.87v1.1a3.12,3.12,0,0,1,.67-.77,2.49,2.49,0,0,1,1.55-.5A3,3,0,0,1,51.08,283.36Zm-1.5,1.4a1.39,1.39,0,0,0-1.29-.66,1.47,1.47,0,0,0-1.47,1,3.79,3.79,0,0,0-.21,1.35,2.15,2.15,0,0,0,.7,1.83,1.6,1.6,0,0,0,1,.31,1.43,1.43,0,0,0,1.25-.63,3.3,3.3,0,0,0,0-3.2Z"/><path class="cls-4" d="M55.55,285.48a3.08,3.08,0,0,0,.78-.17.59.59,0,0,0,.42-.55.65.65,0,0,0-.32-.63,2,2,0,0,0-.95-.17,1.24,1.24,0,0,0-1,.34,1.41,1.41,0,0,0-.28.68H52.33a2.85,2.85,0,0,1,.55-1.61,3.2,3.2,0,0,1,2.66-1,4.75,4.75,0,0,1,2.18.49,1.86,1.86,0,0,1,1,1.83v3.42c0,.24,0,.52,0,.86a1.08,1.08,0,0,0,.12.52.69.69,0,0,0,.29.23V290H57a2.12,2.12,0,0,1-.12-.42c0-.13,0-.28-.05-.45a4,4,0,0,1-.94.75,2.82,2.82,0,0,1-1.43.36,2.47,2.47,0,0,1-1.68-.58,2.05,2.05,0,0,1-.66-1.64,2.12,2.12,0,0,1,1.07-2,4.76,4.76,0,0,1,1.72-.48Zm1.19.91a2.16,2.16,0,0,1-.38.19,3.2,3.2,0,0,1-.52.13l-.44.08a2.91,2.91,0,0,0-.9.27.89.89,0,0,0-.46.83.86.86,0,0,0,.28.72,1.07,1.07,0,0,0,.68.22,2,2,0,0,0,1.18-.37,1.57,1.57,0,0,0,.56-1.35Z"/><path class="cls-4" d="M64.07,285.23a1.72,1.72,0,0,0-.28-.75,1.18,1.18,0,0,0-1-.45,1.34,1.34,0,0,0-1.35,1,4.06,4.06,0,0,0-.19,1.38,3.73,3.73,0,0,0,.19,1.32,1.3,1.3,0,0,0,1.32.93,1.16,1.16,0,0,0,1-.37,1.83,1.83,0,0,0,.35-1h2A3.26,3.26,0,0,1,65.4,289a3.13,3.13,0,0,1-2.72,1.28A3.18,3.18,0,0,1,60,289.2a4.31,4.31,0,0,1-.85-2.77,4.37,4.37,0,0,1,.94-3,3.27,3.27,0,0,1,2.59-1.07A3.9,3.9,0,0,1,65,283a2.93,2.93,0,0,1,1.06,2.22Z"/><path class="cls-4" d="M68.63,281.67h-2v-1.8h2Zm-2,.89h2V290h-2Z"/><path class="cls-4" d="M73.7,282.68a2.36,2.36,0,0,1,.85.82v-3.55h2V290H74.64v-1a2.75,2.75,0,0,1-1,1,2.66,2.66,0,0,1-1.33.3,2.77,2.77,0,0,1-2.2-1.06,4.06,4.06,0,0,1-.89-2.71,4.66,4.66,0,0,1,.88-3,2.86,2.86,0,0,1,2.35-1.09A2.4,2.4,0,0,1,73.7,282.68Zm.48,5.31a2.72,2.72,0,0,0,.43-1.59,2.44,2.44,0,0,0-.69-2,1.49,1.49,0,0,0-1-.36,1.37,1.37,0,0,0-1.25.65,3.48,3.48,0,0,0,0,3.25,1.37,1.37,0,0,0,1.23.62A1.44,1.44,0,0,0,74.18,288Z"/><path class="cls-4" d="M80.48,285.48a3.08,3.08,0,0,0,.78-.17.59.59,0,0,0,.42-.55.65.65,0,0,0-.32-.63,2,2,0,0,0-.95-.17,1.24,1.24,0,0,0-1,.34,1.41,1.41,0,0,0-.28.68H77.26a2.85,2.85,0,0,1,.55-1.61,3.2,3.2,0,0,1,2.66-1,4.75,4.75,0,0,1,2.18.49,1.86,1.86,0,0,1,1,1.83v3.42c0,.24,0,.52,0,.86a1.08,1.08,0,0,0,.12.52.69.69,0,0,0,.29.23V290H81.91a2.12,2.12,0,0,1-.12-.42c0-.13,0-.28-.05-.45a4,4,0,0,1-.94.75,2.82,2.82,0,0,1-1.43.36,2.47,2.47,0,0,1-1.68-.58A2.05,2.05,0,0,1,77,288a2.12,2.12,0,0,1,1.07-2,4.76,4.76,0,0,1,1.72-.48Zm1.19.91a2.16,2.16,0,0,1-.38.19,3.2,3.2,0,0,1-.52.13l-.44.08a2.91,2.91,0,0,0-.9.27.89.89,0,0,0-.46.83.86.86,0,0,0,.28.72,1.07,1.07,0,0,0,.68.22,2,2,0,0,0,1.18-.37,1.57,1.57,0,0,0,.56-1.35Z"/><path class="cls-4" d="M88.5,282.68a2.36,2.36,0,0,1,.85.82v-3.55h2V290H89.43v-1a2.75,2.75,0,0,1-1,1,2.66,2.66,0,0,1-1.33.3,2.77,2.77,0,0,1-2.2-1.06,4.06,4.06,0,0,1-.89-2.71,4.66,4.66,0,0,1,.88-3,2.86,2.86,0,0,1,2.35-1.09A2.4,2.4,0,0,1,88.5,282.68ZM89,288a2.72,2.72,0,0,0,.43-1.59,2.44,2.44,0,0,0-.69-2,1.49,1.49,0,0,0-1-.36,1.37,1.37,0,0,0-1.25.65,3.48,3.48,0,0,0,0,3.25,1.37,1.37,0,0,0,1.23.62A1.44,1.44,0,0,0,89,288Z"/><path class="cls-4" d="M13.31,297.67h-2v-1.8h2Zm-2,.89h2V306h-2Z"/><path class="cls-4" d="M20.44,299a2.47,2.47,0,0,1,.73,2v5h-2v-4.53a2.07,2.07,0,0,0-.16-.9,1.1,1.1,0,0,0-1.08-.57,1.35,1.35,0,0,0-1.35.84,2.9,2.9,0,0,0-.19,1.13v4H14.44v-7.44h1.89v1.09a3.3,3.3,0,0,1,.71-.83,2.45,2.45,0,0,1,1.52-.45A2.86,2.86,0,0,1,20.44,299Z"/><path class="cls-4" d="M21.44,300v-1.39h1v-2.08h1.93v2.08h1.21V300H24.41V304a.88.88,0,0,0,.12.57,1.28,1.28,0,0,0,.71.11h.38v1.46l-.92,0a2.48,2.48,0,0,1-1.89-.48,1.42,1.42,0,0,1-.33-1V300Z"/><path class="cls-4" d="M31,298.71a3,3,0,0,1,1.29,1.1,3.67,3.67,0,0,1,.59,1.54,9.61,9.61,0,0,1,.06,1.48H27.47a1.79,1.79,0,0,0,.78,1.57,2,2,0,0,0,1.07.28,1.65,1.65,0,0,0,1.08-.34,1.62,1.62,0,0,0,.4-.51h2a2.43,2.43,0,0,1-.72,1.35,3.62,3.62,0,0,1-2.8,1.09,4.06,4.06,0,0,1-2.62-.92,3.61,3.61,0,0,1-1.14-3,4,4,0,0,1,1-3,3.59,3.59,0,0,1,2.67-1A4.24,4.24,0,0,1,31,298.71ZM28,300.4a2,2,0,0,0-.52,1.15h3.36a1.62,1.62,0,0,0-.52-1.18,1.71,1.71,0,0,0-1.16-.4A1.54,1.54,0,0,0,28,300.4Z"/><path class="cls-4" d="M35.11,306H33.16V295.94h1.95Z"/><path class="cls-4" d="M41.09,298.71a3,3,0,0,1,1.29,1.1,3.67,3.67,0,0,1,.59,1.54,9.61,9.61,0,0,1,.06,1.48H37.61a1.79,1.79,0,0,0,.78,1.57,2,2,0,0,0,1.07.28,1.65,1.65,0,0,0,1.08-.34,1.62,1.62,0,0,0,.4-.51h2a2.43,2.43,0,0,1-.72,1.35,3.62,3.62,0,0,1-2.8,1.09,4.06,4.06,0,0,1-2.62-.92,3.61,3.61,0,0,1-1.14-3,4,4,0,0,1,1-3,3.59,3.59,0,0,1,2.67-1A4.24,4.24,0,0,1,41.09,298.71Zm-2.91,1.68a2,2,0,0,0-.52,1.15H41a1.62,1.62,0,0,0-.52-1.18,1.71,1.71,0,0,0-1.16-.4A1.54,1.54,0,0,0,38.18,300.4Z"/><path class="cls-4" d="M47.71,301.23a1.74,1.74,0,0,0-.28-.75,1.18,1.18,0,0,0-1-.45,1.34,1.34,0,0,0-1.35,1,4.06,4.06,0,0,0-.19,1.38,3.73,3.73,0,0,0,.19,1.32,1.3,1.3,0,0,0,1.32.93,1.16,1.16,0,0,0,1-.37,1.84,1.84,0,0,0,.35-1h2A3.26,3.26,0,0,1,49,305a3.13,3.13,0,0,1-2.72,1.28,3.18,3.18,0,0,1-2.65-1.07,4.3,4.3,0,0,1-.85-2.77,4.37,4.37,0,0,1,.94-3,3.26,3.26,0,0,1,2.59-1.07,3.89,3.89,0,0,1,2.3.63,2.92,2.92,0,0,1,1.06,2.22Z"/><path class="cls-4" d="M49.5,300v-1.39h1v-2.08h1.93v2.08h1.21V300H52.47V304a.89.89,0,0,0,.12.57,1.28,1.28,0,0,0,.71.11h.38v1.46l-.92,0a2.48,2.48,0,0,1-1.89-.48,1.42,1.42,0,0,1-.33-1V300Z"/><path class="cls-4" d="M56.1,298.56v4.49a2.37,2.37,0,0,0,.15,1,1,1,0,0,0,1,.57,1.36,1.36,0,0,0,1.36-.81,2.93,2.93,0,0,0,.19-1.16v-4.05h2V306H58.93V305l-.14.21a1.37,1.37,0,0,1-.26.3,2.7,2.7,0,0,1-.88.56,3,3,0,0,1-1,.15A2.22,2.22,0,0,1,54.43,305a4.56,4.56,0,0,1-.32-1.93v-4.49Z"/><path class="cls-4" d="M63.93,306H62V295.94h1.95Z"/><path class="cls-4" d="M68,301.48a3.08,3.08,0,0,0,.78-.17.59.59,0,0,0,.42-.55.65.65,0,0,0-.32-.63,2,2,0,0,0-.95-.17,1.24,1.24,0,0,0-1,.34,1.41,1.41,0,0,0-.28.68H64.8a2.85,2.85,0,0,1,.55-1.61,3.2,3.2,0,0,1,2.66-1,4.75,4.75,0,0,1,2.18.49,1.86,1.86,0,0,1,1,1.83v3.42c0,.24,0,.52,0,.86a1.08,1.08,0,0,0,.12.52.69.69,0,0,0,.29.23V306H69.44a2.12,2.12,0,0,1-.12-.42c0-.13,0-.28-.05-.45a4,4,0,0,1-.94.75,2.82,2.82,0,0,1-1.43.36,2.47,2.47,0,0,1-1.68-.58,2.05,2.05,0,0,1-.66-1.64,2.12,2.12,0,0,1,1.07-2,4.76,4.76,0,0,1,1.72-.48Zm1.19.91a2.16,2.16,0,0,1-.38.19,3.2,3.2,0,0,1-.52.13l-.44.08a2.91,2.91,0,0,0-.9.27.89.89,0,0,0-.46.83.86.86,0,0,0,.28.72,1.07,1.07,0,0,0,.68.22,2,2,0,0,0,1.18-.37,1.57,1.57,0,0,0,.56-1.35Z"/><path class="cls-4" d="M74.07,306H72.12V295.94h1.95Z"/><path class="cls-2" d="M143.41,295.38a3.79,3.79,0,0,1-.84-2.49H144a3.42,3.42,0,0,0,.38,1.48,2,2,0,0,0,1.85.83,2.43,2.43,0,0,0,1.67-.56,1.83,1.83,0,0,0,.63-1.44,1.67,1.67,0,0,0-.66-1.52,3.35,3.35,0,0,0-1.84-.43h-.54v-1.16l.34,0h.3a2.75,2.75,0,0,0,1.22-.23,1.49,1.49,0,0,0,.83-1.46,1.43,1.43,0,0,0-.56-1.21,2.08,2.08,0,0,0-1.3-.42,1.92,1.92,0,0,0-1.82.88,3,3,0,0,0-.32,1.38h-1.3a4,4,0,0,1,.47-2,3,3,0,0,1,2.83-1.46,3.85,3.85,0,0,1,2.48.71,2.51,2.51,0,0,1,.88,2.07A2.31,2.31,0,0,1,149,290a2.18,2.18,0,0,1-.83.59,2.28,2.28,0,0,1,1.29.88,2.65,2.65,0,0,1,.46,1.59,3.23,3.23,0,0,1-1,2.45,3.9,3.9,0,0,1-2.81.94A3.29,3.29,0,0,1,143.41,295.38Z"/><path class="cls-2" d="M152.55,293.58a1.67,1.67,0,0,0,.84,1.51,1.87,1.87,0,0,0,.91.22,2,2,0,0,0,1.61-.79,6.47,6.47,0,0,0,.95-3.2,2.44,2.44,0,0,1-1.09,1,3.45,3.45,0,0,1-1.39.28,3.13,3.13,0,0,1-2.4-.94,3.42,3.42,0,0,1-.88-2.43,3.88,3.88,0,0,1,.87-2.51,3.1,3.1,0,0,1,2.57-1.08,3.16,3.16,0,0,1,3.16,2.06,7.27,7.27,0,0,1,.48,2.84,9.36,9.36,0,0,1-.58,3.41,3.35,3.35,0,0,1-3.25,2.47,3.15,3.15,0,0,1-2.34-.81,2.75,2.75,0,0,1-.8-2Zm3.43-2.67a2.18,2.18,0,0,0,.65-1.8,2.3,2.3,0,0,0-.58-1.72,2,2,0,0,0-1.48-.57,1.94,1.94,0,0,0-1.53.65,2.53,2.53,0,0,0-.57,1.73,2.48,2.48,0,0,0,.5,1.63,2,2,0,0,0,1.59.6A2.25,2.25,0,0,0,156,290.91Z"/><path class="cls-3" d="M215.09,293.44a1.83,1.83,0,0,0,1,1.56,2.53,2.53,0,0,0,1.08.22,2,2,0,0,0,1.74-.75,2.69,2.69,0,0,0,.56-1.66,2.16,2.16,0,0,0-.67-1.7,2.33,2.33,0,0,0-1.61-.6,2.42,2.42,0,0,0-1.17.26,2.51,2.51,0,0,0-.83.73l-1.14-.07.8-5.65h5.45v1.27h-4.46l-.45,2.92a3.25,3.25,0,0,1,.7-.42,3.53,3.53,0,0,1,1.36-.24,3.47,3.47,0,0,1,2.45.93,3.08,3.08,0,0,1,1,2.36,4,4,0,0,1-.92,2.62,3.56,3.56,0,0,1-2.93,1.14,3.73,3.73,0,0,1-2.27-.72,2.86,2.86,0,0,1-1.1-2.22Z"/><path class="cls-4" d="M17.37,215.91a3.33,3.33,0,0,1,1.72,1.28,4.48,4.48,0,0,1,.72,1.63,7.85,7.85,0,0,1,.19,1.67,6.69,6.69,0,0,1-.81,3.4,3.64,3.64,0,0,1-3.38,1.88H11.46V215.69h4.34A5.31,5.31,0,0,1,17.37,215.91Zm-3.86,1.53V224h1.94a2.1,2.1,0,0,0,2.08-1.47,5.17,5.17,0,0,0,.32-1.92,4.72,4.72,0,0,0-.48-2.36,2,2,0,0,0-1.92-.82Z"/><path class="cls-4" d="M22.65,217.43h-2v-1.8h2Zm-2,.89h2v7.45h-2Z"/><path class="cls-4" d="M25.28,223.39a1.29,1.29,0,0,0,.27.74,1.82,1.82,0,0,0,1.35.39,2.07,2.07,0,0,0,.92-.17.55.55,0,0,0,.34-.51.55.55,0,0,0-.27-.5,11.16,11.16,0,0,0-2-.59A4.23,4.23,0,0,1,24,222a1.7,1.7,0,0,1-.52-1.34,2.32,2.32,0,0,1,.81-1.77,3.26,3.26,0,0,1,2.29-.74,4.2,4.2,0,0,1,2.28.56,2.39,2.39,0,0,1,1,1.92H28a1.15,1.15,0,0,0-.21-.59,1.34,1.34,0,0,0-1.1-.4,1.58,1.58,0,0,0-.91.2.57.57,0,0,0-.27.46.51.51,0,0,0,.29.49,12.44,12.44,0,0,0,2,.54,3.73,3.73,0,0,1,1.75.83,1.88,1.88,0,0,1,.57,1.4,2.26,2.26,0,0,1-.83,1.81,3.88,3.88,0,0,1-2.55.7,3.85,3.85,0,0,1-2.6-.74,2.41,2.41,0,0,1-.84-1.89Z"/><path class="cls-4" d="M35.24,221a1.72,1.72,0,0,0-.28-.75,1.18,1.18,0,0,0-1-.45,1.34,1.34,0,0,0-1.35,1,4.06,4.06,0,0,0-.19,1.38,3.73,3.73,0,0,0,.19,1.32,1.3,1.3,0,0,0,1.32.93,1.16,1.16,0,0,0,1-.37,1.83,1.83,0,0,0,.35-1h2a3.26,3.26,0,0,1-.64,1.68A3.13,3.13,0,0,1,33.86,226,3.18,3.18,0,0,1,31.21,225a4.31,4.31,0,0,1-.85-2.77,4.37,4.37,0,0,1,.94-3,3.27,3.27,0,0,1,2.59-1.07,3.9,3.9,0,0,1,2.3.63A2.93,2.93,0,0,1,37.24,221Z"/><path class="cls-4" d="M40.75,221.23a3.08,3.08,0,0,0,.78-.17.59.59,0,0,0,.42-.55.65.65,0,0,0-.32-.63,2,2,0,0,0-.95-.17,1.24,1.24,0,0,0-1,.34,1.41,1.41,0,0,0-.28.68H37.53a2.85,2.85,0,0,1,.55-1.61,3.2,3.2,0,0,1,2.66-1,4.75,4.75,0,0,1,2.18.49,1.86,1.86,0,0,1,1,1.83v3.42c0,.24,0,.52,0,.86a1.08,1.08,0,0,0,.12.52.69.69,0,0,0,.29.23v.29H42.18a2.12,2.12,0,0,1-.12-.42c0-.13,0-.28-.05-.45a4,4,0,0,1-.94.75,2.82,2.82,0,0,1-1.43.36,2.47,2.47,0,0,1-1.68-.58,2.05,2.05,0,0,1-.66-1.64,2.12,2.12,0,0,1,1.07-2,4.76,4.76,0,0,1,1.72-.48Zm1.19.91a2.16,2.16,0,0,1-.38.19,3.2,3.2,0,0,1-.52.13l-.44.08a2.91,2.91,0,0,0-.9.27.89.89,0,0,0-.46.83.86.86,0,0,0,.28.72,1.07,1.07,0,0,0,.68.22,2,2,0,0,0,1.18-.37,1.57,1.57,0,0,0,.56-1.35Z"/><path class="cls-4" d="M51.08,219.12a4,4,0,0,1,.91,2.83,4.47,4.47,0,0,1-.89,3,2.89,2.89,0,0,1-2.29,1,2.41,2.41,0,0,1-1.49-.44,2.9,2.9,0,0,1-.63-.72v3.88H44.76V218.32h1.87v1.1a3.12,3.12,0,0,1,.67-.77,2.49,2.49,0,0,1,1.55-.5A3,3,0,0,1,51.08,219.12Zm-1.5,1.4a1.39,1.39,0,0,0-1.29-.66,1.47,1.47,0,0,0-1.47,1,3.79,3.79,0,0,0-.21,1.35,2.15,2.15,0,0,0,.7,1.83,1.6,1.6,0,0,0,1,.31,1.43,1.43,0,0,0,1.25-.63,3.3,3.3,0,0,0,0-3.2Z"/><path class="cls-4" d="M55.55,221.23a3.08,3.08,0,0,0,.78-.17.59.59,0,0,0,.42-.55.65.65,0,0,0-.32-.63,2,2,0,0,0-.95-.17,1.24,1.24,0,0,0-1,.34,1.41,1.41,0,0,0-.28.68H52.33a2.85,2.85,0,0,1,.55-1.61,3.2,3.2,0,0,1,2.66-1,4.75,4.75,0,0,1,2.18.49,1.86,1.86,0,0,1,1,1.83v3.42c0,.24,0,.52,0,.86a1.08,1.08,0,0,0,.12.52.69.69,0,0,0,.29.23v.29H57a2.12,2.12,0,0,1-.12-.42c0-.13,0-.28-.05-.45a4,4,0,0,1-.94.75,2.82,2.82,0,0,1-1.43.36,2.47,2.47,0,0,1-1.68-.58,2.05,2.05,0,0,1-.66-1.64,2.12,2.12,0,0,1,1.07-2,4.76,4.76,0,0,1,1.72-.48Zm1.19.91a2.16,2.16,0,0,1-.38.19,3.2,3.2,0,0,1-.52.13l-.44.08a2.91,2.91,0,0,0-.9.27.89.89,0,0,0-.46.83.86.86,0,0,0,.28.72,1.07,1.07,0,0,0,.68.22,2,2,0,0,0,1.18-.37,1.57,1.57,0,0,0,.56-1.35Z"/><path class="cls-4" d="M64.07,221a1.72,1.72,0,0,0-.28-.75,1.18,1.18,0,0,0-1-.45,1.34,1.34,0,0,0-1.35,1,4.06,4.06,0,0,0-.19,1.38,3.73,3.73,0,0,0,.19,1.32,1.3,1.3,0,0,0,1.32.93,1.16,1.16,0,0,0,1-.37,1.83,1.83,0,0,0,.35-1h2a3.26,3.26,0,0,1-.64,1.68A3.13,3.13,0,0,1,62.69,226,3.18,3.18,0,0,1,60,225a4.31,4.31,0,0,1-.85-2.77,4.37,4.37,0,0,1,.94-3,3.27,3.27,0,0,1,2.59-1.07,3.9,3.9,0,0,1,2.3.63A2.93,2.93,0,0,1,66.07,221Z"/><path class="cls-4" d="M68.63,217.43h-2v-1.8h2Zm-2,.89h2v7.45h-2Z"/><path class="cls-4" d="M73.7,218.44a2.36,2.36,0,0,1,.85.82V215.7h2v10.06H74.64v-1a2.75,2.75,0,0,1-1,1,2.66,2.66,0,0,1-1.33.3,2.77,2.77,0,0,1-2.2-1.06,4.06,4.06,0,0,1-.89-2.71,4.66,4.66,0,0,1,.88-3,2.86,2.86,0,0,1,2.35-1.09A2.4,2.4,0,0,1,73.7,218.44Zm.48,5.31a2.72,2.72,0,0,0,.43-1.59,2.44,2.44,0,0,0-.69-2,1.49,1.49,0,0,0-1-.36,1.37,1.37,0,0,0-1.25.65,3.48,3.48,0,0,0,0,3.25,1.37,1.37,0,0,0,1.23.62A1.44,1.44,0,0,0,74.18,223.74Z"/><path class="cls-4" d="M80.48,221.23a3.08,3.08,0,0,0,.78-.17.59.59,0,0,0,.42-.55.65.65,0,0,0-.32-.63,2,2,0,0,0-.95-.17,1.24,1.24,0,0,0-1,.34,1.41,1.41,0,0,0-.28.68H77.26a2.85,2.85,0,0,1,.55-1.61,3.2,3.2,0,0,1,2.66-1,4.75,4.75,0,0,1,2.18.49,1.86,1.86,0,0,1,1,1.83v3.42c0,.24,0,.52,0,.86a1.08,1.08,0,0,0,.12.52.69.69,0,0,0,.29.23v.29H81.91a2.12,2.12,0,0,1-.12-.42c0-.13,0-.28-.05-.45a4,4,0,0,1-.94.75,2.82,2.82,0,0,1-1.43.36,2.47,2.47,0,0,1-1.68-.58,2.05,2.05,0,0,1-.66-1.64,2.12,2.12,0,0,1,1.07-2,4.76,4.76,0,0,1,1.72-.48Zm1.19.91a2.16,2.16,0,0,1-.38.19,3.2,3.2,0,0,1-.52.13l-.44.08a2.91,2.91,0,0,0-.9.27.89.89,0,0,0-.46.83.86.86,0,0,0,.28.72,1.07,1.07,0,0,0,.68.22,2,2,0,0,0,1.18-.37,1.57,1.57,0,0,0,.56-1.35Z"/><path class="cls-4" d="M88.5,218.44a2.36,2.36,0,0,1,.85.82V215.7h2v10.06H89.43v-1a2.75,2.75,0,0,1-1,1,2.66,2.66,0,0,1-1.33.3,2.77,2.77,0,0,1-2.2-1.06,4.06,4.06,0,0,1-.89-2.71,4.66,4.66,0,0,1,.88-3,2.86,2.86,0,0,1,2.35-1.09A2.4,2.4,0,0,1,88.5,218.44Zm.48,5.31a2.72,2.72,0,0,0,.43-1.59,2.44,2.44,0,0,0-.69-2,1.49,1.49,0,0,0-1-.36,1.37,1.37,0,0,0-1.25.65,3.48,3.48,0,0,0,0,3.25,1.37,1.37,0,0,0,1.23.62A1.44,1.44,0,0,0,89,223.74Z"/><path class="cls-4" d="M20.6,234.34A2.18,2.18,0,0,1,21.9,236a6.69,6.69,0,0,1,.07,1.1v4.7H20V237a1.56,1.56,0,0,0-.14-.7,1,1,0,0,0-1-.52,1.12,1.12,0,0,0-1.11.67,2.09,2.09,0,0,0-.16.85v4.44h-2v-4.44a2.5,2.5,0,0,0-.14-1,1,1,0,0,0-1-.54,1.15,1.15,0,0,0-1.12.54,2.07,2.07,0,0,0-.16.92v4.48h-2v-7.44h1.89v1.09a3.12,3.12,0,0,1,.68-.83,2.34,2.34,0,0,1,1.47-.44,2.33,2.33,0,0,1,1.38.38,2.19,2.19,0,0,1,.64.9,2.47,2.47,0,0,1,1-1,2.9,2.9,0,0,1,1.34-.31A2.6,2.6,0,0,1,20.6,234.34Z"/><path class="cls-4" d="M29.2,240.86A3.47,3.47,0,0,1,26.33,242a3.47,3.47,0,0,1-2.86-1.16,4.62,4.62,0,0,1,0-5.6,3.44,3.44,0,0,1,2.86-1.18,3.44,3.44,0,0,1,2.86,1.18,4.62,4.62,0,0,1,0,5.6Zm-1.56-1.08a3.48,3.48,0,0,0,0-3.45,1.73,1.73,0,0,0-2.63,0,3.45,3.45,0,0,0,0,3.45,1.72,1.72,0,0,0,2.63,0Z"/><path class="cls-4" d="M30,235.77v-1.39h1v-2.08H33v2.08h1.21v1.39H33v3.94a.88.88,0,0,0,.12.57,1.28,1.28,0,0,0,.71.11h.38v1.46l-.92,0a2.48,2.48,0,0,1-1.89-.48,1.42,1.42,0,0,1-.33-1v-4.59Z"/><path class="cls-4" d="M38.8,234.14H39v2l-.33,0h-.23a1.62,1.62,0,0,0-1.58.77,3,3,0,0,0-.23,1.33v3.56h-2v-7.45H36.5v1.3a4.13,4.13,0,0,1,.79-1,2.14,2.14,0,0,1,1.42-.46Z"/><path class="cls-4" d="M41.34,233.43h-2v-1.8h2Zm-2,.89h2v7.45h-2Z"/><path class="cls-4" d="M42,235.9v-1.59h5.89v1.62l-3.66,4.23h3.79v1.6H41.77v-1.52l3.69-4.35Z"/><path class="cls-2" d="M147.2,234v-2.56h-4.6v-1.29l4.8-6.67h1.11v6.8h1.54v1.15h-1.54V234Zm0-3.71v-4.76l-3.36,4.76Z"/><path class="cls-2" d="M152,227.88a2.07,2.07,0,0,1-.58-1.52,2.74,2.74,0,0,1,.85-2,3.27,3.27,0,0,1,2.41-.84,3.34,3.34,0,0,1,2.36.79,2.46,2.46,0,0,1,.86,1.86,2.43,2.43,0,0,1-.5,1.59,3,3,0,0,1-.86.67,3.36,3.36,0,0,1,1,.69,2.64,2.64,0,0,1,.7,1.9,3.25,3.25,0,0,1-.93,2.35,3.48,3.48,0,0,1-2.63,1,4.06,4.06,0,0,1-2.59-.83,2.88,2.88,0,0,1-1.06-2.41,2.68,2.68,0,0,1,1.8-2.64A2.62,2.62,0,0,1,152,227.88Zm4.25,4.74a1.79,1.79,0,0,0,.6-1.48,1.91,1.91,0,0,0-.62-1.55,2.39,2.39,0,0,0-1.6-.53,2.21,2.21,0,0,0-1.54.54,1.9,1.9,0,0,0-.6,1.49,2,2,0,0,0,.55,1.42,2.18,2.18,0,0,0,1.69.6A2.32,2.32,0,0,0,156.24,232.63Zm-.24-5.19a1.59,1.59,0,0,0,.49-1.16,1.54,1.54,0,0,0-.47-1.08,1.88,1.88,0,0,0-1.42-.49,1.59,1.59,0,0,0-1.8,1.64,1.38,1.38,0,0,0,.55,1.16,2.07,2.07,0,0,0,1.29.42A1.84,1.84,0,0,0,156,227.44Z"/><path class="cls-3" d="M211.6,231.35a1.83,1.83,0,0,0,1,1.56,2.53,2.53,0,0,0,1.08.22,2,2,0,0,0,1.74-.75,2.69,2.69,0,0,0,.56-1.66,2.16,2.16,0,0,0-.67-1.7,2.33,2.33,0,0,0-1.61-.6,2.42,2.42,0,0,0-1.17.26,2.51,2.51,0,0,0-.83.73l-1.14-.07.8-5.65h5.45V225H212.4L212,227.9a3.25,3.25,0,0,1,.7-.42,3.53,3.53,0,0,1,1.36-.24,3.47,3.47,0,0,1,2.45.93,3.08,3.08,0,0,1,1,2.36,4,4,0,0,1-.92,2.62,3.56,3.56,0,0,1-2.93,1.14,3.73,3.73,0,0,1-2.27-.72,2.86,2.86,0,0,1-1.1-2.22Z"/><path class="cls-3" d="M219.52,227.88a2.07,2.07,0,0,1-.58-1.52,2.74,2.74,0,0,1,.85-2,3.27,3.27,0,0,1,2.41-.84,3.34,3.34,0,0,1,2.36.79,2.46,2.46,0,0,1,.86,1.86,2.43,2.43,0,0,1-.5,1.59,3,3,0,0,1-.86.67,3.36,3.36,0,0,1,1,.69,2.64,2.64,0,0,1,.7,1.9,3.25,3.25,0,0,1-.93,2.35,3.48,3.48,0,0,1-2.63,1,4.06,4.06,0,0,1-2.59-.83,2.88,2.88,0,0,1-1.06-2.41,2.68,2.68,0,0,1,1.8-2.64A2.62,2.62,0,0,1,219.52,227.88Zm4.25,4.74a1.79,1.79,0,0,0,.6-1.48,1.91,1.91,0,0,0-.62-1.55,2.39,2.39,0,0,0-1.6-.53,2.21,2.21,0,0,0-1.54.54,1.9,1.9,0,0,0-.6,1.49,2,2,0,0,0,.55,1.42,2.18,2.18,0,0,0,1.69.6A2.32,2.32,0,0,0,223.77,232.63Zm-.24-5.19a1.59,1.59,0,0,0,.49-1.16,1.54,1.54,0,0,0-.47-1.08,1.88,1.88,0,0,0-1.42-.49,1.59,1.59,0,0,0-1.8,1.64,1.38,1.38,0,0,0,.55,1.16,2.07,2.07,0,0,0,1.29.42A1.84,1.84,0,0,0,223.52,227.44Z"/><rect class="cls-1" x="1.36" y="349.89" width="250.45" height="32.84" rx="16.42" ry="16.42"/><rect class="cls-5" x="1.36" y="482.83" width="250.45" height="32.84" rx="16.42" ry="16.42"/><path class="cls-4" d="M17.37,419.77a3.33,3.33,0,0,1,1.72,1.28,4.49,4.49,0,0,1,.72,1.63,7.86,7.86,0,0,1,.19,1.67,6.69,6.69,0,0,1-.81,3.4,3.64,3.64,0,0,1-3.38,1.88H11.46V419.56h4.34A5.33,5.33,0,0,1,17.37,419.77Zm-3.86,1.53v6.58h1.94a2.1,2.1,0,0,0,2.08-1.47,5.17,5.17,0,0,0,.32-1.92,4.71,4.71,0,0,0-.48-2.36,2,2,0,0,0-1.92-.82Z"/><path class="cls-4" d="M22.65,421.29h-2v-1.8h2Zm-2,.89h2v7.45h-2Z"/><path class="cls-4" d="M25.28,427.25a1.29,1.29,0,0,0,.27.74,1.82,1.82,0,0,0,1.35.39,2.06,2.06,0,0,0,.92-.17.55.55,0,0,0,.34-.51.55.55,0,0,0-.27-.5,11.25,11.25,0,0,0-2-.59,4.22,4.22,0,0,1-1.79-.79,1.7,1.7,0,0,1-.52-1.34,2.32,2.32,0,0,1,.81-1.77,3.26,3.26,0,0,1,2.29-.74,4.19,4.19,0,0,1,2.28.56,2.38,2.38,0,0,1,1,1.92H28a1.15,1.15,0,0,0-.21-.59,1.34,1.34,0,0,0-1.1-.4,1.58,1.58,0,0,0-.91.2.57.57,0,0,0-.27.46.51.51,0,0,0,.29.49,12.33,12.33,0,0,0,2,.54,3.74,3.74,0,0,1,1.75.83,1.88,1.88,0,0,1,.57,1.4,2.27,2.27,0,0,1-.83,1.81,3.89,3.89,0,0,1-2.55.7,3.85,3.85,0,0,1-2.6-.74,2.41,2.41,0,0,1-.84-1.89Z"/><path class="cls-4" d="M35.24,424.85a1.73,1.73,0,0,0-.28-.75,1.18,1.18,0,0,0-1-.45,1.34,1.34,0,0,0-1.35,1A4.06,4.06,0,0,0,32.4,426a3.73,3.73,0,0,0,.19,1.32,1.3,1.3,0,0,0,1.32.93,1.16,1.16,0,0,0,1-.37,1.83,1.83,0,0,0,.35-1h2a3.26,3.26,0,0,1-.64,1.68,3.13,3.13,0,0,1-2.72,1.28,3.18,3.18,0,0,1-2.65-1.07,4.31,4.31,0,0,1-.85-2.76,4.37,4.37,0,0,1,.94-3A3.27,3.27,0,0,1,33.88,422a3.9,3.9,0,0,1,2.3.63,2.93,2.93,0,0,1,1.06,2.22Z"/><path class="cls-4" d="M40.75,425.1a3.06,3.06,0,0,0,.78-.17.59.59,0,0,0,.42-.55.65.65,0,0,0-.32-.63,2,2,0,0,0-.95-.17,1.24,1.24,0,0,0-1,.34,1.41,1.41,0,0,0-.28.68H37.53a2.85,2.85,0,0,1,.55-1.61,3.2,3.2,0,0,1,2.66-1,4.76,4.76,0,0,1,2.18.49,1.86,1.86,0,0,1,1,1.83v3.42c0,.24,0,.52,0,.86a1.07,1.07,0,0,0,.12.52.68.68,0,0,0,.29.23v.29H42.18a2.11,2.11,0,0,1-.12-.42c0-.13,0-.28-.05-.45a4,4,0,0,1-.94.75,2.82,2.82,0,0,1-1.43.36,2.47,2.47,0,0,1-1.68-.58,2.05,2.05,0,0,1-.66-1.64,2.12,2.12,0,0,1,1.07-2,4.77,4.77,0,0,1,1.72-.48Zm1.19.91a2.13,2.13,0,0,1-.38.19,3.2,3.2,0,0,1-.52.13l-.44.08a2.93,2.93,0,0,0-.9.27.89.89,0,0,0-.46.83.87.87,0,0,0,.28.72,1.07,1.07,0,0,0,.68.22,2,2,0,0,0,1.18-.37,1.57,1.57,0,0,0,.56-1.35Z"/><path class="cls-4" d="M51.08,423a4,4,0,0,1,.91,2.83,4.47,4.47,0,0,1-.89,3,2.89,2.89,0,0,1-2.29,1,2.4,2.4,0,0,1-1.49-.44,2.9,2.9,0,0,1-.63-.72v3.88H44.76V422.18h1.87v1.1a3.14,3.14,0,0,1,.67-.77,2.49,2.49,0,0,1,1.55-.5A3,3,0,0,1,51.08,423Zm-1.5,1.4a1.39,1.39,0,0,0-1.29-.66,1.47,1.47,0,0,0-1.47,1,3.79,3.79,0,0,0-.21,1.35,2.15,2.15,0,0,0,.7,1.83,1.6,1.6,0,0,0,1,.31,1.43,1.43,0,0,0,1.25-.63,3.3,3.3,0,0,0,0-3.2Z"/><path class="cls-4" d="M55.55,425.1a3.06,3.06,0,0,0,.78-.17.59.59,0,0,0,.42-.55.65.65,0,0,0-.32-.63,2,2,0,0,0-.95-.17,1.24,1.24,0,0,0-1,.34,1.41,1.41,0,0,0-.28.68H52.33a2.85,2.85,0,0,1,.55-1.61,3.2,3.2,0,0,1,2.66-1,4.76,4.76,0,0,1,2.18.49,1.86,1.86,0,0,1,1,1.83v3.42c0,.24,0,.52,0,.86a1.07,1.07,0,0,0,.12.52.68.68,0,0,0,.29.23v.29H57a2.11,2.11,0,0,1-.12-.42c0-.13,0-.28-.05-.45a4,4,0,0,1-.94.75,2.82,2.82,0,0,1-1.43.36,2.47,2.47,0,0,1-1.68-.58,2.05,2.05,0,0,1-.66-1.64,2.12,2.12,0,0,1,1.07-2,4.77,4.77,0,0,1,1.72-.48Zm1.19.91a2.13,2.13,0,0,1-.38.19,3.2,3.2,0,0,1-.52.13l-.44.08a2.93,2.93,0,0,0-.9.27.89.89,0,0,0-.46.83.87.87,0,0,0,.28.72,1.07,1.07,0,0,0,.68.22,2,2,0,0,0,1.18-.37,1.57,1.57,0,0,0,.56-1.35Z"/><path class="cls-4" d="M64.07,424.85a1.73,1.73,0,0,0-.28-.75,1.18,1.18,0,0,0-1-.45,1.34,1.34,0,0,0-1.35,1,4.06,4.06,0,0,0-.19,1.38,3.73,3.73,0,0,0,.19,1.32,1.3,1.3,0,0,0,1.32.93,1.16,1.16,0,0,0,1-.37,1.83,1.83,0,0,0,.35-1h2a3.26,3.26,0,0,1-.64,1.68,3.13,3.13,0,0,1-2.72,1.28A3.18,3.18,0,0,1,60,428.82a4.31,4.31,0,0,1-.85-2.76,4.37,4.37,0,0,1,.94-3A3.27,3.27,0,0,1,62.71,422a3.9,3.9,0,0,1,2.3.63,2.93,2.93,0,0,1,1.06,2.22Z"/><path class="cls-4" d="M68.63,421.29h-2v-1.8h2Zm-2,.89h2v7.45h-2Z"/><path class="cls-4" d="M73.7,422.3a2.36,2.36,0,0,1,.85.82v-3.55h2v10.06H74.64v-1a2.74,2.74,0,0,1-1,1,2.66,2.66,0,0,1-1.33.3,2.77,2.77,0,0,1-2.2-1.06,4.06,4.06,0,0,1-.89-2.71,4.66,4.66,0,0,1,.88-3A2.86,2.86,0,0,1,72.5,422,2.4,2.4,0,0,1,73.7,422.3Zm.48,5.31a2.72,2.72,0,0,0,.43-1.59,2.44,2.44,0,0,0-.69-2,1.49,1.49,0,0,0-1-.36,1.37,1.37,0,0,0-1.25.65,3.48,3.48,0,0,0,0,3.25,1.38,1.38,0,0,0,1.23.62A1.44,1.44,0,0,0,74.18,427.61Z"/><path class="cls-4" d="M80.48,425.1a3.06,3.06,0,0,0,.78-.17.59.59,0,0,0,.42-.55.65.65,0,0,0-.32-.63,2,2,0,0,0-.95-.17,1.24,1.24,0,0,0-1,.34,1.41,1.41,0,0,0-.28.68H77.26a2.85,2.85,0,0,1,.55-1.61,3.2,3.2,0,0,1,2.66-1,4.76,4.76,0,0,1,2.18.49,1.86,1.86,0,0,1,1,1.83v3.42c0,.24,0,.52,0,.86a1.07,1.07,0,0,0,.12.52.68.68,0,0,0,.29.23v.29H81.91a2.11,2.11,0,0,1-.12-.42c0-.13,0-.28-.05-.45a4,4,0,0,1-.94.75,2.82,2.82,0,0,1-1.43.36,2.47,2.47,0,0,1-1.68-.58,2.05,2.05,0,0,1-.66-1.64,2.12,2.12,0,0,1,1.07-2,4.77,4.77,0,0,1,1.72-.48Zm1.19.91a2.13,2.13,0,0,1-.38.19,3.2,3.2,0,0,1-.52.13l-.44.08a2.93,2.93,0,0,0-.9.27.89.89,0,0,0-.46.83.87.87,0,0,0,.28.72,1.07,1.07,0,0,0,.68.22,2,2,0,0,0,1.18-.37,1.57,1.57,0,0,0,.56-1.35Z"/><path class="cls-4" d="M88.5,422.3a2.36,2.36,0,0,1,.85.82v-3.55h2v10.06H89.43v-1a2.74,2.74,0,0,1-1,1,2.66,2.66,0,0,1-1.33.3,2.77,2.77,0,0,1-2.2-1.06,4.06,4.06,0,0,1-.89-2.71,4.66,4.66,0,0,1,.88-3A2.86,2.86,0,0,1,87.29,422,2.4,2.4,0,0,1,88.5,422.3Zm.48,5.31a2.72,2.72,0,0,0,.43-1.59,2.44,2.44,0,0,0-.69-2,1.49,1.49,0,0,0-1-.36,1.37,1.37,0,0,0-1.25.65,3.48,3.48,0,0,0,0,3.25,1.38,1.38,0,0,0,1.23.62A1.44,1.44,0,0,0,89,427.61Z"/><path class="cls-4" d="M15.45,438h.17v2l-.33,0h-.23a1.62,1.62,0,0,0-1.58.77,3,3,0,0,0-.23,1.33v3.56h-2v-7.45h1.86v1.3a4.13,4.13,0,0,1,.79-1,2.14,2.14,0,0,1,1.42-.46Z"/><path class="cls-4" d="M20.84,438.33a3,3,0,0,1,1.29,1.1,3.67,3.67,0,0,1,.59,1.54,9.6,9.6,0,0,1,.06,1.48H17.36a1.79,1.79,0,0,0,.78,1.57,2,2,0,0,0,1.07.28,1.65,1.65,0,0,0,1.08-.34,1.62,1.62,0,0,0,.4-.51h2A2.43,2.43,0,0,1,22,444.8a3.62,3.62,0,0,1-2.8,1.09,4.06,4.06,0,0,1-2.62-.92,3.61,3.61,0,0,1-1.14-3,4,4,0,0,1,1-3,3.6,3.6,0,0,1,2.67-1A4.23,4.23,0,0,1,20.84,438.33ZM17.93,440a2,2,0,0,0-.52,1.15h3.36a1.62,1.62,0,0,0-.52-1.18,1.7,1.7,0,0,0-1.16-.4A1.55,1.55,0,0,0,17.93,440Z"/><path class="cls-4" d="M28.36,438.22a2.19,2.19,0,0,1,.92.73,2,2,0,0,1,.37.86,10.7,10.7,0,0,1,.07,1.44v4.38h-2v-4.54a2,2,0,0,0-.2-1,1,1,0,0,0-1-.52,1.38,1.38,0,0,0-1.16.52,2.38,2.38,0,0,0-.4,1.48v4H23v-10H25v3.55a2.38,2.38,0,0,1,1-.91,2.75,2.75,0,0,1,1.17-.26A3.16,3.16,0,0,1,28.36,438.22Z"/><path class="cls-4" d="M33.73,441.1a3.05,3.05,0,0,0,.78-.17.59.59,0,0,0,.42-.55.65.65,0,0,0-.32-.63,2,2,0,0,0-.95-.17,1.24,1.24,0,0,0-1,.34,1.41,1.41,0,0,0-.28.68H30.52a2.85,2.85,0,0,1,.55-1.61,3.2,3.2,0,0,1,2.66-1,4.75,4.75,0,0,1,2.18.49,1.86,1.86,0,0,1,1,1.83v3.42q0,.36,0,.86a1.08,1.08,0,0,0,.12.52.7.7,0,0,0,.29.23v.29H35.16a2.25,2.25,0,0,1-.12-.42c0-.13,0-.28-.05-.45a4,4,0,0,1-.93.75,2.82,2.82,0,0,1-1.43.36,2.47,2.47,0,0,1-1.68-.58,2.06,2.06,0,0,1-.66-1.64,2.12,2.12,0,0,1,1.07-2,4.79,4.79,0,0,1,1.72-.48Zm1.19.91a2.13,2.13,0,0,1-.38.19,3.19,3.19,0,0,1-.52.13l-.44.08a2.93,2.93,0,0,0-.9.27.89.89,0,0,0-.46.83.87.87,0,0,0,.28.72,1.07,1.07,0,0,0,.68.22,2,2,0,0,0,1.18-.37,1.56,1.56,0,0,0,.56-1.35Z"/><path class="cls-4" d="M44.16,439.08a4.29,4.29,0,0,1,.84,2.73,4.79,4.79,0,0,1-.83,2.88,3,3,0,0,1-3.79.77,3,3,0,0,1-.73-.77v.94H37.73V435.57h1.95v3.58a2.86,2.86,0,0,1,.82-.79,2.45,2.45,0,0,1,1.35-.34A2.79,2.79,0,0,1,44.16,439.08Zm-1.63,4.54A2.76,2.76,0,0,0,43,442a3.58,3.58,0,0,0-.21-1.31,1.44,1.44,0,0,0-1.45-1,1.46,1.46,0,0,0-1.47,1,3.57,3.57,0,0,0-.21,1.33,2.76,2.76,0,0,0,.43,1.59,1.47,1.47,0,0,0,1.3.63A1.35,1.35,0,0,0,42.53,443.61Z"/><path class="cls-4" d="M47.58,437.29h-2v-1.8h2Zm-2,.89h2v7.45h-2Z"/><path class="cls-4" d="M50.69,445.63H48.74V435.56h1.95Z"/><path class="cls-4" d="M53.82,437.29h-2v-1.8h2Zm-2,.89h2v7.45h-2Z"/><path class="cls-4" d="M54.17,439.64v-1.39h1v-2.08h1.93v2.08h1.21v1.39H57.14v3.94a.88.88,0,0,0,.12.57,1.28,1.28,0,0,0,.71.11h.38v1.46l-.92,0a2.47,2.47,0,0,1-1.89-.48,1.42,1.42,0,0,1-.33-1v-4.59Z"/><path class="cls-4" d="M61.78,441.1a3.05,3.05,0,0,0,.78-.17.59.59,0,0,0,.42-.55.65.65,0,0,0-.32-.63,2,2,0,0,0-.95-.17,1.24,1.24,0,0,0-1,.34,1.41,1.41,0,0,0-.28.68H58.57a2.85,2.85,0,0,1,.55-1.61,3.2,3.2,0,0,1,2.66-1,4.75,4.75,0,0,1,2.18.49,1.86,1.86,0,0,1,1,1.83v3.42q0,.36,0,.86a1.08,1.08,0,0,0,.12.52.7.7,0,0,0,.29.23v.29H63.21a2.25,2.25,0,0,1-.12-.42c0-.13,0-.28-.05-.45a4,4,0,0,1-.93.75,2.82,2.82,0,0,1-1.43.36,2.47,2.47,0,0,1-1.68-.58,2.06,2.06,0,0,1-.66-1.64,2.12,2.12,0,0,1,1.07-2,4.79,4.79,0,0,1,1.72-.48ZM63,442a2.13,2.13,0,0,1-.38.19,3.19,3.19,0,0,1-.52.13l-.44.08a2.93,2.93,0,0,0-.9.27.89.89,0,0,0-.46.83.87.87,0,0,0,.28.72,1.07,1.07,0,0,0,.68.22,2,2,0,0,0,1.18-.37,1.56,1.56,0,0,0,.56-1.35Z"/><path class="cls-4" d="M69.8,438.3a2.37,2.37,0,0,1,.85.82v-3.55h2v10.06H70.74v-1a2.75,2.75,0,0,1-1,1,2.66,2.66,0,0,1-1.33.3,2.77,2.77,0,0,1-2.2-1.06,4.06,4.06,0,0,1-.89-2.71,4.67,4.67,0,0,1,.88-3A2.86,2.86,0,0,1,68.6,438,2.41,2.41,0,0,1,69.8,438.3Zm.48,5.31a2.72,2.72,0,0,0,.43-1.59,2.45,2.45,0,0,0-.69-2,1.49,1.49,0,0,0-1-.36,1.37,1.37,0,0,0-1.25.65,3.49,3.49,0,0,0,0,3.25,1.38,1.38,0,0,0,1.23.62A1.44,1.44,0,0,0,70.28,443.61Z"/><path class="cls-4" d="M79.84,444.72a4.11,4.11,0,0,1-5.73,0,4.62,4.62,0,0,1,0-5.6,4.06,4.06,0,0,1,5.73,0,4.62,4.62,0,0,1,0,5.6Zm-1.56-1.08a3.48,3.48,0,0,0,0-3.45,1.73,1.73,0,0,0-2.63,0,3.45,3.45,0,0,0,0,3.45,1.72,1.72,0,0,0,2.63,0Z"/><path class="cls-2" d="M147.56,437.18a1.83,1.83,0,0,0,1,1.56,2.53,2.53,0,0,0,1.08.22,2,2,0,0,0,1.74-.75,2.68,2.68,0,0,0,.56-1.66,2.16,2.16,0,0,0-.67-1.7,2.33,2.33,0,0,0-1.61-.6,2.43,2.43,0,0,0-1.17.26,2.51,2.51,0,0,0-.83.73l-1.14-.07.8-5.65h5.45v1.27h-4.46l-.45,2.92a3.27,3.27,0,0,1,.7-.42,3.53,3.53,0,0,1,1.36-.24,3.47,3.47,0,0,1,2.45.93,3.08,3.08,0,0,1,1,2.36,4,4,0,0,1-.92,2.62,3.56,3.56,0,0,1-2.93,1.13,3.73,3.73,0,0,1-2.27-.72,2.86,2.86,0,0,1-1.1-2.21Z"/><path class="cls-3" d="M221.08,429.54v1.15a12.35,12.35,0,0,0-1.34,1.71,17.26,17.26,0,0,0-1.48,2.62,17.68,17.68,0,0,0-1,2.5q-.21.73-.55,2.34h-1.46a18,18,0,0,1,2.2-6,18.91,18.91,0,0,1,2.11-3h-5.8v-1.33Z"/><path class="cls-4" d="M19,353.74A3.33,3.33,0,0,1,20.73,355a4.47,4.47,0,0,1,.72,1.63,7.85,7.85,0,0,1,.19,1.67,6.69,6.69,0,0,1-.81,3.4,3.64,3.64,0,0,1-3.38,1.88H13.11V353.53h4.34A5.3,5.3,0,0,1,19,353.74Zm-3.86,1.53v6.58H17.1a2.1,2.1,0,0,0,2.08-1.47,5.17,5.17,0,0,0,.32-1.92A4.72,4.72,0,0,0,19,356.1a2,2,0,0,0-1.92-.82Z"/><path class="cls-4" d="M24.29,355.26h-2v-1.8h2Zm-2,.89h2v7.45h-2Z"/><path class="cls-4" d="M26.92,361.22a1.3,1.3,0,0,0,.27.74,1.82,1.82,0,0,0,1.35.39,2.07,2.07,0,0,0,.92-.17.57.57,0,0,0,.07-1,11.07,11.07,0,0,0-2-.59,4.23,4.23,0,0,1-1.79-.79,1.7,1.7,0,0,1-.52-1.34,2.32,2.32,0,0,1,.81-1.77,3.27,3.27,0,0,1,2.29-.74,4.2,4.2,0,0,1,2.28.56,2.39,2.39,0,0,1,1,1.92H29.61a1.15,1.15,0,0,0-.21-.59,1.34,1.34,0,0,0-1.1-.4,1.57,1.57,0,0,0-.91.2.57.57,0,0,0-.27.46.51.51,0,0,0,.29.49,12.55,12.55,0,0,0,2,.54,3.73,3.73,0,0,1,1.75.83,1.88,1.88,0,0,1,.57,1.4,2.26,2.26,0,0,1-.83,1.81,3.88,3.88,0,0,1-2.55.7,3.84,3.84,0,0,1-2.6-.74,2.41,2.41,0,0,1-.84-1.89Z"/><path class="cls-4" d="M36.88,358.82a1.72,1.72,0,0,0-.28-.75,1.18,1.18,0,0,0-1-.45,1.34,1.34,0,0,0-1.35,1A4.06,4.06,0,0,0,34,360a3.73,3.73,0,0,0,.19,1.32,1.3,1.3,0,0,0,1.32.93,1.16,1.16,0,0,0,1-.37,1.83,1.83,0,0,0,.35-1h2a3.27,3.27,0,0,1-.64,1.68,3.13,3.13,0,0,1-2.72,1.28,3.18,3.18,0,0,1-2.65-1.07A4.31,4.31,0,0,1,32,360a4.37,4.37,0,0,1,.94-3A3.27,3.27,0,0,1,35.53,356a3.9,3.9,0,0,1,2.3.63,2.92,2.92,0,0,1,1.06,2.22Z"/><path class="cls-4" d="M42.4,359.07a3.1,3.1,0,0,0,.78-.17.59.59,0,0,0,.42-.55.66.66,0,0,0-.32-.63,2,2,0,0,0-.95-.17,1.24,1.24,0,0,0-1,.34,1.4,1.4,0,0,0-.28.68H39.18a2.85,2.85,0,0,1,.55-1.61,3.2,3.2,0,0,1,2.66-1,4.74,4.74,0,0,1,2.18.49,1.86,1.86,0,0,1,1,1.83v3.42c0,.24,0,.52,0,.86a1.08,1.08,0,0,0,.12.52.7.7,0,0,0,.29.23v.29H43.83a2.13,2.13,0,0,1-.12-.42c0-.13,0-.28-.05-.45a4,4,0,0,1-.94.75,2.83,2.83,0,0,1-1.43.36,2.47,2.47,0,0,1-1.68-.58,2.05,2.05,0,0,1-.66-1.64,2.12,2.12,0,0,1,1.07-2,4.75,4.75,0,0,1,1.72-.48Zm1.19.91a2.19,2.19,0,0,1-.38.19,3.19,3.19,0,0,1-.52.13l-.44.08a2.88,2.88,0,0,0-.9.27.89.89,0,0,0-.46.83.86.86,0,0,0,.28.72,1.06,1.06,0,0,0,.68.22,2,2,0,0,0,1.18-.37,1.57,1.57,0,0,0,.56-1.35Z"/><path class="cls-4" d="M52.73,357a4,4,0,0,1,.91,2.83,4.47,4.47,0,0,1-.89,3,2.89,2.89,0,0,1-2.29,1,2.41,2.41,0,0,1-1.49-.44,2.9,2.9,0,0,1-.63-.72v3.88H46.41V356.15h1.87v1.1a3.1,3.1,0,0,1,.67-.77,2.48,2.48,0,0,1,1.55-.5A3,3,0,0,1,52.73,357Zm-1.5,1.4a1.39,1.39,0,0,0-1.29-.66,1.47,1.47,0,0,0-1.47,1,3.79,3.79,0,0,0-.21,1.35,2.15,2.15,0,0,0,.7,1.83,1.6,1.6,0,0,0,1,.31,1.43,1.43,0,0,0,1.25-.63,3.3,3.3,0,0,0,0-3.2Z"/><path class="cls-4" d="M57.19,359.07a3.1,3.1,0,0,0,.78-.17.59.59,0,0,0,.42-.55.66.66,0,0,0-.32-.63,2,2,0,0,0-.95-.17,1.24,1.24,0,0,0-1,.34,1.4,1.4,0,0,0-.28.68H54a2.85,2.85,0,0,1,.55-1.61,3.2,3.2,0,0,1,2.66-1,4.74,4.74,0,0,1,2.18.49,1.86,1.86,0,0,1,1,1.83v3.42c0,.24,0,.52,0,.86a1.08,1.08,0,0,0,.12.52.7.7,0,0,0,.29.23v.29H58.62a2.13,2.13,0,0,1-.12-.42c0-.13,0-.28-.05-.45a4,4,0,0,1-.94.75,2.83,2.83,0,0,1-1.43.36,2.47,2.47,0,0,1-1.68-.58,2.05,2.05,0,0,1-.66-1.64,2.12,2.12,0,0,1,1.07-2,4.75,4.75,0,0,1,1.72-.48Zm1.19.91a2.19,2.19,0,0,1-.38.19,3.19,3.19,0,0,1-.52.13l-.44.08a2.88,2.88,0,0,0-.9.27.89.89,0,0,0-.46.83.86.86,0,0,0,.28.72,1.06,1.06,0,0,0,.68.22,2,2,0,0,0,1.18-.37,1.57,1.57,0,0,0,.56-1.35Z"/><path class="cls-4" d="M65.71,358.82a1.72,1.72,0,0,0-.28-.75,1.18,1.18,0,0,0-1-.45,1.34,1.34,0,0,0-1.35,1,4.06,4.06,0,0,0-.19,1.38,3.73,3.73,0,0,0,.19,1.32,1.3,1.3,0,0,0,1.32.93,1.16,1.16,0,0,0,1-.37,1.83,1.83,0,0,0,.35-1h2a3.27,3.27,0,0,1-.64,1.68,3.13,3.13,0,0,1-2.72,1.28,3.18,3.18,0,0,1-2.65-1.07,4.31,4.31,0,0,1-.85-2.77,4.37,4.37,0,0,1,.94-3A3.27,3.27,0,0,1,64.36,356a3.9,3.9,0,0,1,2.3.63,2.92,2.92,0,0,1,1.06,2.22Z"/><path class="cls-4" d="M70.28,355.26h-2v-1.8h2Zm-2,.89h2v7.45h-2Z"/><path class="cls-4" d="M75.34,356.27a2.36,2.36,0,0,1,.85.82v-3.55h2V363.6H76.28v-1a2.75,2.75,0,0,1-1,1,2.67,2.67,0,0,1-1.33.3,2.77,2.77,0,0,1-2.2-1.06,4.06,4.06,0,0,1-.89-2.71,4.66,4.66,0,0,1,.88-3A2.86,2.86,0,0,1,74.14,356,2.4,2.4,0,0,1,75.34,356.27Zm.48,5.31a2.72,2.72,0,0,0,.43-1.59,2.44,2.44,0,0,0-.69-2,1.48,1.48,0,0,0-1-.36,1.37,1.37,0,0,0-1.25.65,3,3,0,0,0-.4,1.6,3,3,0,0,0,.41,1.65,1.37,1.37,0,0,0,1.23.62A1.44,1.44,0,0,0,75.82,361.58Z"/><path class="cls-4" d="M82.13,359.07a3.1,3.1,0,0,0,.78-.17.59.59,0,0,0,.42-.55.66.66,0,0,0-.32-.63,2,2,0,0,0-.95-.17,1.24,1.24,0,0,0-1,.34,1.4,1.4,0,0,0-.28.68H78.91a2.85,2.85,0,0,1,.55-1.61,3.2,3.2,0,0,1,2.66-1,4.74,4.74,0,0,1,2.18.49,1.86,1.86,0,0,1,1,1.83v3.42c0,.24,0,.52,0,.86a1.08,1.08,0,0,0,.12.52.7.7,0,0,0,.29.23v.29H83.56a2.13,2.13,0,0,1-.12-.42c0-.13,0-.28-.05-.45a4,4,0,0,1-.94.75,2.83,2.83,0,0,1-1.43.36,2.47,2.47,0,0,1-1.68-.58,2.05,2.05,0,0,1-.66-1.64,2.12,2.12,0,0,1,1.07-2,4.75,4.75,0,0,1,1.72-.48Zm1.19.91a2.19,2.19,0,0,1-.38.19,3.19,3.19,0,0,1-.52.13l-.44.08a2.88,2.88,0,0,0-.9.27.89.89,0,0,0-.46.83.86.86,0,0,0,.28.72,1.06,1.06,0,0,0,.68.22,2,2,0,0,0,1.18-.37,1.57,1.57,0,0,0,.56-1.35Z"/><path class="cls-4" d="M90.14,356.27a2.36,2.36,0,0,1,.85.82v-3.55h2V363.6H91.08v-1a2.75,2.75,0,0,1-1,1,2.67,2.67,0,0,1-1.33.3,2.77,2.77,0,0,1-2.2-1.06,4.06,4.06,0,0,1-.89-2.71,4.66,4.66,0,0,1,.88-3A2.86,2.86,0,0,1,88.94,356,2.4,2.4,0,0,1,90.14,356.27Zm.48,5.31a2.72,2.72,0,0,0,.43-1.59,2.44,2.44,0,0,0-.69-2,1.48,1.48,0,0,0-1-.36,1.37,1.37,0,0,0-1.25.65,3,3,0,0,0-.4,1.6,3,3,0,0,0,.41,1.65,1.37,1.37,0,0,0,1.23.62A1.44,1.44,0,0,0,90.62,361.58Z"/><path class="cls-4" d="M19.22,373a4,4,0,0,1,.91,2.83,4.47,4.47,0,0,1-.89,3,2.89,2.89,0,0,1-2.29,1,2.41,2.41,0,0,1-1.49-.44,2.86,2.86,0,0,1-.63-.72v3.88H12.9V372.15h1.87v1.1a3.12,3.12,0,0,1,.67-.77A2.49,2.49,0,0,1,17,372,3,3,0,0,1,19.22,373Zm-1.5,1.4a1.39,1.39,0,0,0-1.29-.66,1.46,1.46,0,0,0-1.47,1,3.76,3.76,0,0,0-.21,1.35,2.15,2.15,0,0,0,.7,1.83,1.6,1.6,0,0,0,1,.31,1.43,1.43,0,0,0,1.25-.63,3.29,3.29,0,0,0,0-3.2Z"/><path class="cls-4" d="M22.24,377.22a1.3,1.3,0,0,0,.27.74,1.82,1.82,0,0,0,1.35.39,2.07,2.07,0,0,0,.92-.17.57.57,0,0,0,.07-1,11.1,11.1,0,0,0-2-.59,4.24,4.24,0,0,1-1.79-.79,1.71,1.71,0,0,1-.52-1.34,2.32,2.32,0,0,1,.81-1.77,3.27,3.27,0,0,1,2.29-.74,4.2,4.2,0,0,1,2.28.56,2.39,2.39,0,0,1,1,1.92H24.93a1.15,1.15,0,0,0-.21-.59,1.34,1.34,0,0,0-1.1-.4,1.57,1.57,0,0,0-.91.2.57.57,0,0,0-.27.46.51.51,0,0,0,.29.49,12.62,12.62,0,0,0,2,.54,3.72,3.72,0,0,1,1.75.83,1.88,1.88,0,0,1,.57,1.4,2.26,2.26,0,0,1-.83,1.81,3.88,3.88,0,0,1-2.55.7,3.85,3.85,0,0,1-2.6-.74,2.41,2.41,0,0,1-.84-1.89Z"/><path class="cls-4" d="M29.75,371.26h-2v-1.8h2Zm-2,.89h2v7.45h-2Z"/><path class="cls-4" d="M35.33,374.82a1.72,1.72,0,0,0-.28-.75,1.18,1.18,0,0,0-1-.45,1.34,1.34,0,0,0-1.35,1,4.06,4.06,0,0,0-.19,1.38,3.73,3.73,0,0,0,.19,1.32,1.3,1.3,0,0,0,1.32.93,1.16,1.16,0,0,0,1-.37,1.83,1.83,0,0,0,.35-1h2a3.27,3.27,0,0,1-.64,1.68,3.13,3.13,0,0,1-2.72,1.28,3.18,3.18,0,0,1-2.65-1.07,4.31,4.31,0,0,1-.85-2.77,4.37,4.37,0,0,1,.94-3A3.27,3.27,0,0,1,34,372a3.9,3.9,0,0,1,2.3.63,2.92,2.92,0,0,1,1.06,2.22Z"/><path class="cls-4" d="M44.1,378.69a3.47,3.47,0,0,1-2.86,1.17,3.47,3.47,0,0,1-2.86-1.17,4.62,4.62,0,0,1,0-5.6,3.44,3.44,0,0,1,2.86-1.18,3.44,3.44,0,0,1,2.86,1.18,4.62,4.62,0,0,1,0,5.6Zm-1.56-1.08a3.48,3.48,0,0,0,0-3.45,1.73,1.73,0,0,0-2.63,0,3.46,3.46,0,0,0,0,3.45,1.73,1.73,0,0,0,2.63,0Z"/><path class="cls-4" d="M47.18,377.22a1.3,1.3,0,0,0,.27.74,1.82,1.82,0,0,0,1.35.39,2.07,2.07,0,0,0,.92-.17.57.57,0,0,0,.07-1,11.1,11.1,0,0,0-2-.59,4.24,4.24,0,0,1-1.79-.79,1.71,1.71,0,0,1-.52-1.34,2.32,2.32,0,0,1,.81-1.77,3.27,3.27,0,0,1,2.29-.74,4.2,4.2,0,0,1,2.28.56,2.39,2.39,0,0,1,1,1.92H49.86a1.15,1.15,0,0,0-.21-.59,1.34,1.34,0,0,0-1.1-.4,1.57,1.57,0,0,0-.91.2.57.57,0,0,0-.27.46.51.51,0,0,0,.29.49,12.62,12.62,0,0,0,2,.54,3.72,3.72,0,0,1,1.75.83,1.88,1.88,0,0,1,.57,1.4,2.26,2.26,0,0,1-.83,1.81,3.88,3.88,0,0,1-2.55.7,3.85,3.85,0,0,1-2.6-.74,2.41,2.41,0,0,1-.84-1.89Z"/><path class="cls-4" d="M58.9,378.69a4.1,4.1,0,0,1-5.73,0,4.62,4.62,0,0,1,0-5.6,4.06,4.06,0,0,1,5.73,0,4.62,4.62,0,0,1,0,5.6Zm-1.56-1.08a3.48,3.48,0,0,0,0-3.45,1.73,1.73,0,0,0-2.63,0,3.46,3.46,0,0,0,0,3.45,1.73,1.73,0,0,0,2.63,0Z"/><path class="cls-4" d="M64.92,374.82a1.72,1.72,0,0,0-.28-.75,1.18,1.18,0,0,0-1-.45,1.34,1.34,0,0,0-1.35,1,4.06,4.06,0,0,0-.19,1.38,3.73,3.73,0,0,0,.19,1.32,1.3,1.3,0,0,0,1.32.93,1.16,1.16,0,0,0,1-.37,1.83,1.83,0,0,0,.35-1h2a3.27,3.27,0,0,1-.64,1.68,3.13,3.13,0,0,1-2.72,1.28,3.18,3.18,0,0,1-2.65-1.07A4.31,4.31,0,0,1,60,376a4.37,4.37,0,0,1,.94-3A3.27,3.27,0,0,1,63.57,372a3.9,3.9,0,0,1,2.3.63,2.92,2.92,0,0,1,1.06,2.22Z"/><path class="cls-4" d="M69.48,371.26h-2v-1.8h2Zm-2,.89h2v7.45h-2Z"/><path class="cls-4" d="M73.55,375.07a3.09,3.09,0,0,0,.78-.17.59.59,0,0,0,.42-.55.66.66,0,0,0-.32-.63,2,2,0,0,0-.95-.17,1.24,1.24,0,0,0-1,.34,1.4,1.4,0,0,0-.28.68H70.33a2.85,2.85,0,0,1,.55-1.61,3.2,3.2,0,0,1,2.66-1,4.74,4.74,0,0,1,2.18.49,1.86,1.86,0,0,1,1,1.83v3.42q0,.35,0,.86a1.09,1.09,0,0,0,.12.52.71.71,0,0,0,.29.23v.29H75a2.27,2.27,0,0,1-.12-.42c0-.13,0-.28-.05-.45a4,4,0,0,1-.93.75,2.83,2.83,0,0,1-1.43.36,2.46,2.46,0,0,1-1.68-.58,2.05,2.05,0,0,1-.66-1.64,2.12,2.12,0,0,1,1.07-2,4.77,4.77,0,0,1,1.72-.48Zm1.19.91a2.19,2.19,0,0,1-.38.19,3.17,3.17,0,0,1-.52.13l-.44.08a2.87,2.87,0,0,0-.9.27.89.89,0,0,0-.46.83.86.86,0,0,0,.28.72,1.07,1.07,0,0,0,.68.22,2,2,0,0,0,1.18-.37,1.56,1.56,0,0,0,.56-1.35Z"/><path class="cls-4" d="M79.61,379.6H77.66V369.53h1.95Z"/><path class="cls-2" d="M152.54,362.38a3.07,3.07,0,0,1,.69,1.88h-1.3a2.41,2.41,0,0,0-.37-1,1.66,1.66,0,0,0-1.44-.66,2,2,0,0,0-1.76,1,5.89,5.89,0,0,0-.73,2.93,2.87,2.87,0,0,1,1.14-1,3.29,3.29,0,0,1,1.41-.29,3.42,3.42,0,0,1,2.3.84,3.13,3.13,0,0,1,1,2.51,3.81,3.81,0,0,1-.93,2.53,3.28,3.28,0,0,1-2.65,1.1,3.4,3.4,0,0,1-2.54-1.12,5.35,5.35,0,0,1-1.07-3.76,10.12,10.12,0,0,1,.48-3.32,3.38,3.38,0,0,1,3.35-2.61A2.9,2.9,0,0,1,152.54,362.38Zm-1,8a2.71,2.71,0,0,0,.52-1.65,2.82,2.82,0,0,0-.46-1.53,1.83,1.83,0,0,0-1.68-.73,2.18,2.18,0,0,0-1.49.56,2.14,2.14,0,0,0-.64,1.7,2.48,2.48,0,0,0,.58,1.67,2,2,0,0,0,1.62.68A1.81,1.81,0,0,0,151.55,370.4Z"/><path class="cls-3" d="M210.94,371.26a3.79,3.79,0,0,1-.84-2.49h1.38a3.4,3.4,0,0,0,.38,1.48,2,2,0,0,0,1.85.83,2.43,2.43,0,0,0,1.67-.56,1.83,1.83,0,0,0,.63-1.44,1.67,1.67,0,0,0-.66-1.52,3.35,3.35,0,0,0-1.84-.43H213V366l.34,0h.3a2.75,2.75,0,0,0,1.22-.23,1.49,1.49,0,0,0,.83-1.46,1.43,1.43,0,0,0-.56-1.21,2.08,2.08,0,0,0-1.3-.42,1.92,1.92,0,0,0-1.82.88,3,3,0,0,0-.32,1.38h-1.3a4,4,0,0,1,.47-2,3,3,0,0,1,2.83-1.46,3.84,3.84,0,0,1,2.48.71,2.51,2.51,0,0,1,.88,2.07,2.31,2.31,0,0,1-.52,1.57,2.18,2.18,0,0,1-.83.59,2.28,2.28,0,0,1,1.29.88,2.65,2.65,0,0,1,.46,1.59,3.23,3.23,0,0,1-1,2.45,3.9,3.9,0,0,1-2.8.95A3.3,3.3,0,0,1,210.94,371.26Z"/><path class="cls-3" d="M224.93,362.38a3.07,3.07,0,0,1,.69,1.88h-1.3a2.41,2.41,0,0,0-.37-1,1.66,1.66,0,0,0-1.44-.66,2,2,0,0,0-1.76,1,5.89,5.89,0,0,0-.73,2.93,2.87,2.87,0,0,1,1.14-1,3.29,3.29,0,0,1,1.41-.29,3.42,3.42,0,0,1,2.3.84,3.13,3.13,0,0,1,1,2.51,3.81,3.81,0,0,1-.93,2.53,3.28,3.28,0,0,1-2.65,1.1,3.4,3.4,0,0,1-2.54-1.12,5.35,5.35,0,0,1-1.07-3.76,10.13,10.13,0,0,1,.48-3.32,3.38,3.38,0,0,1,3.35-2.61A2.9,2.9,0,0,1,224.93,362.38Zm-1,8a2.71,2.71,0,0,0,.52-1.65,2.82,2.82,0,0,0-.46-1.53,1.83,1.83,0,0,0-1.68-.73,2.19,2.19,0,0,0-1.49.56,2.15,2.15,0,0,0-.64,1.7,2.48,2.48,0,0,0,.58,1.67,2,2,0,0,0,1.62.68A1.81,1.81,0,0,0,223.94,370.4Z"/><path class="cls-4" d="M25.31,493.9v1.78h-3V504H20.18v-8.29h-3V493.9Z"/><path class="cls-4" d="M31.83,503.07A3.47,3.47,0,0,1,29,504.23a3.47,3.47,0,0,1-2.86-1.16,4.62,4.62,0,0,1,0-5.6A3.45,3.45,0,0,1,29,496.29a3.44,3.44,0,0,1,2.86,1.18,4.62,4.62,0,0,1,0,5.6ZM30.27,502a3.48,3.48,0,0,0,0-3.45,1.73,1.73,0,0,0-2.63,0,3.45,3.45,0,0,0,0,3.45,1.72,1.72,0,0,0,2.63,0Z"/><path class="cls-4" d="M32.63,498V496.6h1v-2.08H35.6v2.08h1.21V498H35.6v3.94a.88.88,0,0,0,.12.57,1.28,1.28,0,0,0,.71.11h.38V504l-.92,0A2.47,2.47,0,0,1,34,503.6a1.42,1.42,0,0,1-.33-1V498Z"/><path class="cls-4" d="M40.24,499.45a3.05,3.05,0,0,0,.78-.17.59.59,0,0,0,.42-.55.65.65,0,0,0-.32-.63,2,2,0,0,0-.95-.17,1.24,1.24,0,0,0-1,.34,1.41,1.41,0,0,0-.28.68H37a2.85,2.85,0,0,1,.55-1.61,3.2,3.2,0,0,1,2.66-1,4.75,4.75,0,0,1,2.18.49,1.86,1.86,0,0,1,1,1.83v3.42q0,.36,0,.86a1.08,1.08,0,0,0,.12.52.7.7,0,0,0,.29.23V504H41.67a2.25,2.25,0,0,1-.12-.42c0-.13,0-.28-.05-.45a4,4,0,0,1-.93.75,2.82,2.82,0,0,1-1.43.36,2.47,2.47,0,0,1-1.68-.58,2.06,2.06,0,0,1-.66-1.64,2.12,2.12,0,0,1,1.07-2,4.79,4.79,0,0,1,1.72-.48Zm1.19.91a2.13,2.13,0,0,1-.38.19,3.19,3.19,0,0,1-.52.13l-.44.08a2.93,2.93,0,0,0-.9.27.89.89,0,0,0-.46.83.87.87,0,0,0,.28.72,1.07,1.07,0,0,0,.68.22,2,2,0,0,0,1.18-.37,1.56,1.56,0,0,0,.56-1.35Z"/><path class="cls-4" d="M46.3,504H44.35V493.9H46.3Z"/><path class="cls-6" d="M136.32,496.43V495a9.21,9.21,0,0,0,1.38-.13,1.94,1.94,0,0,0,1-.56,1.83,1.83,0,0,0,.41-.76,1.76,1.76,0,0,0,.08-.42H141v10.62h-2.14v-7.32Z"/><path class="cls-6" d="M144.42,499.2a2.56,2.56,0,0,1,1.18-1.09,2.48,2.48,0,0,1-1-1.11,3.1,3.1,0,0,1-.23-1.12,2.6,2.6,0,0,1,.87-2,4.13,4.13,0,0,1,4.93,0,2.6,2.6,0,0,1,.87,2,3.12,3.12,0,0,1-.23,1.12,2.13,2.13,0,0,1-1,1A3,3,0,0,1,151,499.2a3.31,3.31,0,0,1,.4,1.62,3,3,0,0,1-1,2.28,3.87,3.87,0,0,1-2.78.94,3.6,3.6,0,0,1-2.7-.94,3.15,3.15,0,0,1-.92-2.28A3.26,3.26,0,0,1,144.42,499.2Zm2.17,2.7a1.68,1.68,0,0,0,2.25,0,1.71,1.71,0,0,0,.41-1.22,1.69,1.69,0,0,0-.41-1.23,1.69,1.69,0,0,0-2.23,0,1.69,1.69,0,0,0-.41,1.23A1.71,1.71,0,0,0,146.59,501.89Zm.13-4.83a1.32,1.32,0,0,0,1,.37,1.3,1.3,0,0,0,1-.37,1.32,1.32,0,0,0,.35-.95,1.35,1.35,0,0,0-.35-1,1.32,1.32,0,0,0-1-.35,1.23,1.23,0,0,0-1.34,1.34A1.3,1.3,0,0,0,146.72,497.06Z"/><path class="cls-6" d="M158.94,494.49a10.47,10.47,0,0,1,0,8.11,3.56,3.56,0,0,1-5.69,0,10.47,10.47,0,0,1,0-8.11,3.55,3.55,0,0,1,5.69,0Zm-4.08,6.86a1.21,1.21,0,0,0,1.23,1,1.19,1.19,0,0,0,1.22-1,10.38,10.38,0,0,0,.29-2.8,10.27,10.27,0,0,0-.29-2.84,1.18,1.18,0,0,0-1.22-.92,1.2,1.2,0,0,0-1.23.92,9.89,9.89,0,0,0-.3,2.84A10,10,0,0,0,154.86,501.35Z"/><path class="cls-6" d="M205.49,501.67a5.9,5.9,0,0,1,2.11-2.25,15.49,15.49,0,0,0,1.87-1.48,2.19,2.19,0,0,0,.65-1.52,1.69,1.69,0,0,0-.37-1.12,1.52,1.52,0,0,0-2.37.26,3.48,3.48,0,0,0-.23,1.3h-2a5.13,5.13,0,0,1,.49-2.19,3.06,3.06,0,0,1,3-1.59,3.76,3.76,0,0,1,2.68.93,3.22,3.22,0,0,1,1,2.47,3.34,3.34,0,0,1-.7,2.09,7,7,0,0,1-1.52,1.36l-.84.59q-.79.56-1.07.81a2.35,2.35,0,0,0-.49.58h4.64v1.84H205A5,5,0,0,1,205.49,501.67Z"/><path class="cls-6" d="M213.92,496.43V495a9.21,9.21,0,0,0,1.38-.13,1.94,1.94,0,0,0,1-.56,1.83,1.83,0,0,0,.41-.76,1.76,1.76,0,0,0,.08-.42h1.74v10.62h-2.14v-7.32Z"/><path class="cls-6" d="M222.26,496.43V495a9.21,9.21,0,0,0,1.38-.13,1.94,1.94,0,0,0,1-.56,1.83,1.83,0,0,0,.41-.76,1.76,1.76,0,0,0,.08-.42h1.74v10.62h-2.14v-7.32Z"/><rect class="cls-3" width="251.98" height="36" rx="18" ry="18"/><path class="cls-7" d="M36.26,24H33.72V11.76h2.54Z"/><path class="cls-7" d="M38.61,11.76h2.68l4.86,8.53V11.76h2.38V24H46l-5-8.68V24H38.61Z"/><path class="cls-7" d="M52.09,13a5,5,0,0,1,3.76-1.51,5.06,5.06,0,0,1,4.47,2,4.41,4.41,0,0,1,.84,2.28H58.6A3.48,3.48,0,0,0,58,14.51a2.78,2.78,0,0,0-4.18.33A5.5,5.5,0,0,0,53,18a4.82,4.82,0,0,0,.83,3.08,2.61,2.61,0,0,0,2.11,1,2.4,2.4,0,0,0,2-.88,3.85,3.85,0,0,0,.63-1.42h2.54a5.51,5.51,0,0,1-1.68,3.25A4.89,4.89,0,0,1,56,24.34a5.19,5.19,0,0,1-4.11-1.69A6.82,6.82,0,0,1,50.39,18,6.76,6.76,0,0,1,52.09,13Z"/><path class="cls-7" d="M63.2,11.76h2.56v10h6.11V24H63.2Z"/><path class="cls-7" d="M73.58,11.76h2.6v7.51a4.24,4.24,0,0,0,.3,1.84,2.49,2.49,0,0,0,4,0,4.24,4.24,0,0,0,.3-1.84V11.76h2.6v7.52a6.29,6.29,0,0,1-.61,3q-1.13,2-4.3,2t-4.31-2a6.31,6.31,0,0,1-.61-3Z"/><path class="cls-7" d="M87.7,20.22a2.48,2.48,0,0,0,.47,1.25,2.71,2.71,0,0,0,2.18.76,4.68,4.68,0,0,0,1.5-.2,1.42,1.42,0,0,0,1.09-1.42,1,1,0,0,0-.54-.94,5.79,5.79,0,0,0-1.7-.57l-1.32-.29a8.26,8.26,0,0,1-2.68-.94,3,3,0,0,1-1.24-2.65,3.52,3.52,0,0,1,1.21-2.73,5.16,5.16,0,0,1,3.55-1.09,5.45,5.45,0,0,1,3.34,1,3.65,3.65,0,0,1,1.45,3H92.56a1.75,1.75,0,0,0-1-1.57,3.37,3.37,0,0,0-1.52-.31,2.9,2.9,0,0,0-1.62.4,1.26,1.26,0,0,0-.6,1.11,1.05,1.05,0,0,0,.6,1,7.42,7.42,0,0,0,1.63.51L92.2,17a5.45,5.45,0,0,1,2.12.89,3,3,0,0,1,1.09,2.5,3.51,3.51,0,0,1-1.3,2.79,5.47,5.47,0,0,1-3.66,1.11,6,6,0,0,1-3.8-1.09,3.61,3.61,0,0,1-1.38-3Z"/><path class="cls-7" d="M99.53,24H97V11.76h2.54Z"/><path class="cls-7" d="M111.35,22.91a6.34,6.34,0,0,1-8,0,6.6,6.6,0,0,1-1.86-5,6.47,6.47,0,0,1,1.86-5,6.34,6.34,0,0,1,8,0,6.49,6.49,0,0,1,1.85,5A6.62,6.62,0,0,1,111.35,22.91Zm-1.6-1.86a5,5,0,0,0,.89-3.19,5,5,0,0,0-.89-3.18,2.91,2.91,0,0,0-2.41-1.12,3,3,0,0,0-2.42,1.12,5,5,0,0,0-.91,3.19,5,5,0,0,0,.91,3.19,3,3,0,0,0,2.42,1.12A2.92,2.92,0,0,0,109.75,21.05Zm.42-13.12-2.52,2.48h-1.71l1.59-2.48Z"/><path class="cls-7" d="M115.11,11.76h2.68l4.86,8.53V11.76H125V24h-2.56l-5-8.68V24h-2.38Z"/><path class="cls-7" d="M132.15,11.76h2.56v10h6.11V24h-8.67Z"/><path class="cls-7" d="M146,11.76h2.89L153.25,24h-2.77l-.81-2.52h-4.51L144.34,24h-2.67Zm-.17,7.61H149l-1.54-4.81Z"/><path class="cls-7" d="M163.93,13.07a3.12,3.12,0,0,1,.56,1.87,2.72,2.72,0,0,1-.57,1.8,2.9,2.9,0,0,1-.93.7,2.73,2.73,0,0,1,1.41,1.08,3.23,3.23,0,0,1,.48,1.79,3.58,3.58,0,0,1-.54,2,3.37,3.37,0,0,1-2.25,1.58,8.49,8.49,0,0,1-1.73.17h-5.51V11.76h5.91A3.75,3.75,0,0,1,163.93,13.07Zm-6.64.82v2.7h3a2.45,2.45,0,0,0,1.29-.3,1.15,1.15,0,0,0,.5-1.08,1.1,1.1,0,0,0-.66-1.13,4.61,4.61,0,0,0-1.45-.19Zm0,4.72v3.26h3a2.89,2.89,0,0,0,1.24-.22,1.54,1.54,0,0,0,.8-1.53,1.31,1.31,0,0,0-.78-1.31,3.08,3.08,0,0,0-1.22-.21Z"/><path class="cls-7" d="M176.51,22.91a6.34,6.34,0,0,1-8,0,6.6,6.6,0,0,1-1.86-5,6.47,6.47,0,0,1,1.86-5,6.34,6.34,0,0,1,8,0,6.49,6.49,0,0,1,1.85,5A6.61,6.61,0,0,1,176.51,22.91Zm-1.6-1.86a5,5,0,0,0,.89-3.19,5,5,0,0,0-.89-3.18,2.92,2.92,0,0,0-2.41-1.12,3,3,0,0,0-2.42,1.12,5,5,0,0,0-.9,3.19,5,5,0,0,0,.9,3.19,3,3,0,0,0,2.42,1.12A2.92,2.92,0,0,0,174.91,21.05Z"/><path class="cls-7" d="M188.15,12.08a3,3,0,0,1,1.15.86,3.8,3.8,0,0,1,.62,1,3.42,3.42,0,0,1,.23,1.29A3.66,3.66,0,0,1,189.7,17a2.46,2.46,0,0,1-1.45,1.19,2.28,2.28,0,0,1,1.2,1A4,4,0,0,1,189.8,21v.82a6.18,6.18,0,0,0,.07,1.14,1,1,0,0,0,.47.7V24h-2.82q-.12-.41-.17-.66a6.05,6.05,0,0,1-.11-1.05l0-1.14a2.32,2.32,0,0,0-.4-1.56,2.07,2.07,0,0,0-1.46-.39h-2.5V24h-2.5V11.76h5.85A5.34,5.34,0,0,1,188.15,12.08Zm-5.28,1.81v3.29h2.75a2.93,2.93,0,0,0,1.23-.2,1.38,1.38,0,0,0,.72-1.38,1.54,1.54,0,0,0-.7-1.49,2.54,2.54,0,0,0-1.18-.22Z"/><path class="cls-7" d="M196.08,11.76H199L203.31,24h-2.77l-.81-2.52h-4.51L194.39,24h-2.67Zm-.17,7.61H199l-1.55-4.81Z"/><path class="cls-7" d="M204.86,11.76h2.56v10h6.11V24h-8.67Z"/><line class="cls-8" x1="112.43" y1="85.85" x2="112.43" y2="491.26"/><line class="cls-8" x1="185.77" y1="85.85" x2="185.77" y2="491.26"/></g></g></svg>
