<svg xmlns="http://www.w3.org/2000/svg" viewBox="0 0 231.35 205.14"><defs><style>.cls-1,.cls-2,.cls-3{fill:#7b69ab;}.cls-1{opacity:0.3;}.cls-2{opacity:0.63;}.cls-4{fill:#5a4494;}.cls-5{fill:#473a73;}.cls-6{fill:#352f54;}.cls-7{fill:#fff;}.cls-8{fill:none;stroke:#a3a2a2;stroke-miterlimit:10;stroke-width:0.5px;}</style></defs><title>personal</title><g id="Layer_2" data-name="Layer 2"><g id="Layer_1-2" data-name="Layer 1"><rect class="cls-1" x="1.25" y="105.67" width="229.77" height="15.15" rx="7.58" ry="7.58"/><rect class="cls-1" x="1.25" y="145.26" width="229.77" height="15.15" rx="7.58" ry="7.58"/><rect class="cls-2" x="0.62" y="189.98" width="230.4" height="15.15" rx="7.58" ry="7.58"/><path class="cls-3" d="M128.38,78.37V71h1.52v2.79h2.85V71h1.52v7.32h-1.52V75.1H129.9v3.27Z"/><path class="cls-3" d="M140.14,77.71a3,3,0,0,1-4.16,0,3.36,3.36,0,0,1,0-4.07,3,3,0,0,1,4.16,0,3.36,3.36,0,0,1,0,4.07ZM139,76.92a2.53,2.53,0,0,0,0-2.51,1.26,1.26,0,0,0-1.91,0,2.51,2.51,0,0,0,0,2.51,1.25,1.25,0,0,0,1.91,0Z"/><path class="cls-3" d="M148.59,73a1.58,1.58,0,0,1,.63.49,1.55,1.55,0,0,1,.31.7,4.79,4.79,0,0,1,0,.8v3.41h-1.45V74.92a1.14,1.14,0,0,0-.1-.51.71.71,0,0,0-.7-.38.81.81,0,0,0-.81.49,1.53,1.53,0,0,0-.11.62v3.22H145V75.14a1.81,1.81,0,0,0-.1-.7.69.69,0,0,0-.7-.39.84.84,0,0,0-.82.39,1.51,1.51,0,0,0-.11.67v3.26h-1.44V73h1.38v.79a2.29,2.29,0,0,1,.5-.6,2,2,0,0,1,2.07,0,1.58,1.58,0,0,1,.47.65,1.8,1.8,0,0,1,.69-.7,2.11,2.11,0,0,1,1-.22A1.89,1.89,0,0,1,148.59,73Z"/><path class="cls-3" d="M155.51,73.6a3.11,3.11,0,0,1,.61,2,3.48,3.48,0,0,1-.6,2.09,2.18,2.18,0,0,1-2.76.56,2.15,2.15,0,0,1-.53-.56v.68h-1.4V71.06h1.42v2.6a2.06,2.06,0,0,1,.59-.58,1.78,1.78,0,0,1,1-.25A2,2,0,0,1,155.51,73.6Zm-1.18,3.3a2,2,0,0,0,.31-1.16,2.61,2.61,0,0,0-.15-1,1,1,0,0,0-1.05-.72,1.06,1.06,0,0,0-1.07.7,2.62,2.62,0,0,0-.15,1,2,2,0,0,0,.31,1.15,1.07,1.07,0,0,0,.95.46A1,1,0,0,0,154.32,76.9Z"/><path class="cls-3" d="M160.1,72.83h.12v1.45l-.24,0h-.17a1.17,1.17,0,0,0-1.15.56,2.16,2.16,0,0,0-.16,1v2.59h-1.42V73h1.35v.94a3,3,0,0,1,.57-.74,1.56,1.56,0,0,1,1-.33Z"/><path class="cls-3" d="M164.58,73.06a2.2,2.2,0,0,1,.94.8A2.67,2.67,0,0,1,166,75a7,7,0,0,1,0,1.07h-3.94a1.3,1.3,0,0,0,.57,1.14,1.44,1.44,0,0,0,.78.2,1.1,1.1,0,0,0,1.08-.62h1.45a1.77,1.77,0,0,1-.53,1,2.63,2.63,0,0,1-2,.79,3,3,0,0,1-1.91-.67,2.62,2.62,0,0,1-.83-2.17,2.93,2.93,0,0,1,.75-2.16,2.61,2.61,0,0,1,1.94-.75A3.08,3.08,0,0,1,164.58,73.06Zm-2.12,1.22a1.47,1.47,0,0,0-.38.84h2.44a1.18,1.18,0,0,0-.38-.86,1.24,1.24,0,0,0-.84-.29A1.12,1.12,0,0,0,162.47,74.29Z"/><path class="cls-3" d="M167.81,76.64a1,1,0,0,0,.2.54,1.32,1.32,0,0,0,1,.28,1.5,1.5,0,0,0,.67-.12.42.42,0,0,0,0-.74,8.15,8.15,0,0,0-1.48-.43,3.07,3.07,0,0,1-1.3-.57,1.24,1.24,0,0,1-.38-1,1.69,1.69,0,0,1,.59-1.29,2.37,2.37,0,0,1,1.66-.54,3,3,0,0,1,1.66.4,1.73,1.73,0,0,1,.73,1.4h-1.42a.83.83,0,0,0-.15-.43,1,1,0,0,0-.8-.29,1.15,1.15,0,0,0-.66.14.41.41,0,0,0-.2.34.37.37,0,0,0,.21.35,9,9,0,0,0,1.48.39,2.71,2.71,0,0,1,1.27.6,1.37,1.37,0,0,1,.42,1,1.65,1.65,0,0,1-.6,1.31,2.83,2.83,0,0,1-1.85.51A2.8,2.8,0,0,1,167,78a1.75,1.75,0,0,1-.61-1.37Z"/><path class="cls-4" d="M190.35,71h2.2v7.32h-1.43v-5q0-.21,0-.6t0-.59l-1.39,6.14h-1.49l-1.38-6.14q0,.21,0,.59t0,.6v5h-1.43V71h2.23L189,76.8Z"/><path class="cls-4" d="M195.26,73v3.26a1.7,1.7,0,0,0,.11.7.75.75,0,0,0,.76.41,1,1,0,0,0,1-.59,2.12,2.12,0,0,0,.14-.84V73h1.44v5.41h-1.38V77.6l-.1.15A1,1,0,0,1,197,78a2,2,0,0,1-.64.41,2.18,2.18,0,0,1-.73.11,1.62,1.62,0,0,1-1.62-.86,3.32,3.32,0,0,1-.23-1.41V73Z"/><path class="cls-4" d="M199.45,79.41h.26a.44.44,0,0,0,.32-.1.55.55,0,0,0,.11-.4V73h1.42v6a1.89,1.89,0,0,1-.32,1.21,1.6,1.6,0,0,1-1.27.39h-.51Zm2.1-7.1h-1.42V71h1.42Z"/><path class="cls-4" d="M206.42,73.06a2.2,2.2,0,0,1,.94.8,2.66,2.66,0,0,1,.43,1.12,6.93,6.93,0,0,1,0,1.07h-3.94a1.3,1.3,0,0,0,.57,1.14,1.44,1.44,0,0,0,.78.2,1.1,1.1,0,0,0,1.08-.62h1.45a1.77,1.77,0,0,1-.52,1,2.63,2.63,0,0,1-2,.79,3,3,0,0,1-1.91-.67,2.62,2.62,0,0,1-.83-2.17,2.93,2.93,0,0,1,.75-2.16,2.61,2.61,0,0,1,1.94-.75A3.08,3.08,0,0,1,206.42,73.06Zm-2.12,1.22a1.48,1.48,0,0,0-.38.84h2.44a1.18,1.18,0,0,0-.38-.86,1.24,1.24,0,0,0-.84-.29A1.13,1.13,0,0,0,204.3,74.29Z"/><path class="cls-4" d="M211.55,72.83h.12v1.45l-.24,0h-.17a1.17,1.17,0,0,0-1.15.56,2.16,2.16,0,0,0-.16,1v2.59h-1.42V73h1.35v.94a3,3,0,0,1,.57-.74,1.56,1.56,0,0,1,1-.33Z"/><path class="cls-4" d="M216,73.06a2.2,2.2,0,0,1,.94.8A2.67,2.67,0,0,1,217.4,75a7,7,0,0,1,0,1.07H213.5a1.3,1.3,0,0,0,.57,1.14,1.44,1.44,0,0,0,.78.2,1.1,1.1,0,0,0,1.08-.62h1.45a1.77,1.77,0,0,1-.53,1,2.63,2.63,0,0,1-2,.79,3,3,0,0,1-1.91-.67,2.62,2.62,0,0,1-.83-2.17,2.93,2.93,0,0,1,.75-2.16,2.61,2.61,0,0,1,1.94-.75A3.08,3.08,0,0,1,216,73.06Zm-2.12,1.22a1.47,1.47,0,0,0-.38.84H216a1.18,1.18,0,0,0-.38-.86,1.24,1.24,0,0,0-.84-.29A1.12,1.12,0,0,0,213.92,74.29Z"/><path class="cls-4" d="M219.26,76.64a1,1,0,0,0,.2.54,1.32,1.32,0,0,0,1,.28,1.5,1.5,0,0,0,.67-.12.42.42,0,0,0,0-.74,8.15,8.15,0,0,0-1.48-.43,3.07,3.07,0,0,1-1.3-.57,1.24,1.24,0,0,1-.38-1,1.69,1.69,0,0,1,.59-1.29,2.37,2.37,0,0,1,1.66-.54,3,3,0,0,1,1.66.4,1.73,1.73,0,0,1,.73,1.4h-1.42a.83.83,0,0,0-.15-.43,1,1,0,0,0-.8-.29,1.15,1.15,0,0,0-.66.14.41.41,0,0,0-.2.34.37.37,0,0,0,.21.35,9,9,0,0,0,1.48.39,2.71,2.71,0,0,1,1.27.6,1.37,1.37,0,0,1,.42,1,1.65,1.65,0,0,1-.6,1.31,2.83,2.83,0,0,1-1.85.51,2.8,2.8,0,0,1-1.89-.54,1.75,1.75,0,0,1-.61-1.37Z"/><path class="cls-5" d="M10.1,113.76v.17a3.4,3.4,0,0,0,.17,1.19.66.66,0,0,0,.67.35.66.66,0,0,0,.67-.38,2.06,2.06,0,0,0,.1-.76v-5.12h1.53v5.1a3,3,0,0,1-.32,1.48,2,2,0,0,1-1.93.92A2.05,2.05,0,0,1,9.14,116a3.77,3.77,0,0,1-.48-2v-.17Z"/><path class="cls-5" d="M17.72,111.23a2.2,2.2,0,0,1,.94.8,2.66,2.66,0,0,1,.43,1.12,6.93,6.93,0,0,1,0,1.07H15.19a1.3,1.3,0,0,0,.57,1.14,1.44,1.44,0,0,0,.78.2,1.1,1.1,0,0,0,1.08-.62h1.45a1.77,1.77,0,0,1-.52,1,2.63,2.63,0,0,1-2,.79,3,3,0,0,1-1.91-.67,2.62,2.62,0,0,1-.83-2.17,2.93,2.93,0,0,1,.75-2.16,2.61,2.61,0,0,1,1.94-.75A3.08,3.08,0,0,1,17.72,111.23Zm-2.12,1.22a1.48,1.48,0,0,0-.38.84h2.44a1.18,1.18,0,0,0-.38-.86,1.24,1.24,0,0,0-.84-.29A1.13,1.13,0,0,0,15.6,112.45Z"/><path class="cls-5" d="M21.53,109.15l.3,0v1.15l-.4,0a.46.46,0,0,0-.39.12.45.45,0,0,0-.11.29v.46h.93v1h-.93v4.37H19.53v-4.37h-.79v-1h.77v-.35a1.83,1.83,0,0,1,.29-1.2q.31-.49,1.49-.49Z"/><path class="cls-5" d="M24.27,113.24a2.24,2.24,0,0,0,.57-.12.43.43,0,0,0,.31-.4.48.48,0,0,0-.23-.46,1.48,1.48,0,0,0-.69-.13.9.9,0,0,0-.72.25,1,1,0,0,0-.2.5H21.93a2.07,2.07,0,0,1,.4-1.17,2.32,2.32,0,0,1,1.94-.72,3.45,3.45,0,0,1,1.59.35,1.35,1.35,0,0,1,.69,1.33v2.48q0,.26,0,.63a.78.78,0,0,0,.08.38.5.5,0,0,0,.21.16v.21H25.31a1.59,1.59,0,0,1-.09-.31c0-.1,0-.21,0-.33a3,3,0,0,1-.68.54,2.06,2.06,0,0,1-1,.26,1.79,1.79,0,0,1-1.22-.42,1.49,1.49,0,0,1-.48-1.19,1.54,1.54,0,0,1,.78-1.45,3.48,3.48,0,0,1,1.25-.35Zm.87.66a1.56,1.56,0,0,1-.27.14,2.36,2.36,0,0,1-.38.1l-.32.06a2.13,2.13,0,0,0-.65.19.65.65,0,0,0-.33.6.63.63,0,0,0,.2.52.77.77,0,0,0,.5.16,1.48,1.48,0,0,0,.86-.27,1.14,1.14,0,0,0,.41-1Z"/><path class="cls-5" d="M26.66,112.18v-1h.75v-1.51h1.4v1.51h.88v1h-.88V115a.64.64,0,0,0,.08.41.93.93,0,0,0,.52.08h.28v1.06l-.67,0a1.8,1.8,0,0,1-1.37-.35,1,1,0,0,1-.24-.75v-3.33Z"/><path class="cls-5" d="M31.46,111.12v3.26a1.72,1.72,0,0,0,.11.7.75.75,0,0,0,.76.41,1,1,0,0,0,1-.59,2.14,2.14,0,0,0,.14-.84v-2.95h1.44v5.41H33.51v-.77l-.1.15a1,1,0,0,1-.19.22,2,2,0,0,1-.64.41,2.19,2.19,0,0,1-.73.11,1.62,1.62,0,0,1-1.61-.86,3.32,3.32,0,0,1-.23-1.41v-3.26Z"/><path class="cls-5" d="M38.71,111h.12v1.45l-.24,0h-.17a1.17,1.17,0,0,0-1.15.56,2.16,2.16,0,0,0-.16,1v2.59H35.69v-5.41H37v.94a3,3,0,0,1,.57-.74,1.55,1.55,0,0,1,1-.33Z"/><path class="cls-5" d="M41.25,113.24a2.24,2.24,0,0,0,.57-.12.43.43,0,0,0,.3-.4.48.48,0,0,0-.23-.46,1.48,1.48,0,0,0-.69-.13.91.91,0,0,0-.72.25,1,1,0,0,0-.2.5H38.91a2.07,2.07,0,0,1,.4-1.17,2.33,2.33,0,0,1,1.94-.72,3.45,3.45,0,0,1,1.59.35,1.35,1.35,0,0,1,.69,1.33v2.48q0,.26,0,.63a.78.78,0,0,0,.08.38.5.5,0,0,0,.21.16v.21H42.29a1.58,1.58,0,0,1-.09-.31c0-.1,0-.21,0-.33a2.91,2.91,0,0,1-.68.54,2.05,2.05,0,0,1-1,.26,1.79,1.79,0,0,1-1.22-.42,1.49,1.49,0,0,1-.48-1.19,1.54,1.54,0,0,1,.78-1.45,3.47,3.47,0,0,1,1.25-.35Zm.87.66a1.53,1.53,0,0,1-.27.14,2.31,2.31,0,0,1-.38.1l-.32.06a2.12,2.12,0,0,0-.65.19.65.65,0,0,0-.33.6.63.63,0,0,0,.2.52.78.78,0,0,0,.5.16,1.48,1.48,0,0,0,.85-.27,1.14,1.14,0,0,0,.41-1Z"/><path class="cls-5" d="M45.3,114.81a1,1,0,0,0,.2.54,1.32,1.32,0,0,0,1,.28,1.5,1.5,0,0,0,.67-.12.42.42,0,0,0,0-.74,8.15,8.15,0,0,0-1.48-.43,3.07,3.07,0,0,1-1.3-.57,1.24,1.24,0,0,1-.38-1,1.69,1.69,0,0,1,.59-1.29,2.37,2.37,0,0,1,1.66-.54,3,3,0,0,1,1.66.4,1.73,1.73,0,0,1,.73,1.4H47.25a.83.83,0,0,0-.15-.43,1,1,0,0,0-.8-.29,1.15,1.15,0,0,0-.66.14.41.41,0,0,0-.2.34.37.37,0,0,0,.21.35,9,9,0,0,0,1.48.39,2.71,2.71,0,0,1,1.27.6,1.37,1.37,0,0,1,.42,1,1.65,1.65,0,0,1-.6,1.31,2.83,2.83,0,0,1-1.85.51,2.8,2.8,0,0,1-1.89-.54,1.75,1.75,0,0,1-.61-1.37Z"/><path class="cls-5" d="M53.19,109h1.18l-2.85,7.55H50.35Z"/><path class="cls-5" d="M57.32,114.28a1.48,1.48,0,0,0,.28.75,1.62,1.62,0,0,0,1.3.45,2.81,2.81,0,0,0,.9-.12.85.85,0,0,0,.65-.85.63.63,0,0,0-.32-.56,3.45,3.45,0,0,0-1-.34l-.79-.17a4.93,4.93,0,0,1-1.61-.56,1.78,1.78,0,0,1-.74-1.58,2.1,2.1,0,0,1,.72-1.63,3.08,3.08,0,0,1,2.13-.65,3.26,3.26,0,0,1,2,.61,2.18,2.18,0,0,1,.87,1.78H60.22a1,1,0,0,0-.59-.94,2,2,0,0,0-.91-.18,1.74,1.74,0,0,0-1,.24.76.76,0,0,0-.36.67.63.63,0,0,0,.36.59,4.46,4.46,0,0,0,1,.3l1.29.3a3.27,3.27,0,0,1,1.27.53,1.79,1.79,0,0,1,.65,1.5,2.1,2.1,0,0,1-.78,1.67,3.27,3.27,0,0,1-2.19.66,3.58,3.58,0,0,1-2.27-.65,2.16,2.16,0,0,1-.83-1.8Z"/><path class="cls-5" d="M63.74,111.12v3.26a1.72,1.72,0,0,0,.11.7.75.75,0,0,0,.76.41,1,1,0,0,0,1-.59,2.14,2.14,0,0,0,.14-.84v-2.95h1.44v5.41H65.79v-.77l-.1.15a1,1,0,0,1-.19.22,2,2,0,0,1-.64.41,2.19,2.19,0,0,1-.73.11,1.62,1.62,0,0,1-1.61-.86,3.32,3.32,0,0,1-.23-1.41v-3.26Z"/><path class="cls-5" d="M72.53,111.7a2.88,2.88,0,0,1,.66,2.06,3.25,3.25,0,0,1-.65,2.18,2.1,2.1,0,0,1-1.67.75,1.75,1.75,0,0,1-1.08-.32,2.08,2.08,0,0,1-.46-.52v2.82h-1.4v-7.55H69.3v.8a2.29,2.29,0,0,1,.49-.56,1.81,1.81,0,0,1,1.13-.36A2.14,2.14,0,0,1,72.53,111.7Zm-1.09,1a1,1,0,0,0-.94-.48,1.06,1.06,0,0,0-1.07.73,2.74,2.74,0,0,0-.15,1,1.56,1.56,0,0,0,.51,1.33,1.16,1.16,0,0,0,.71.22,1,1,0,0,0,.91-.46,2.4,2.4,0,0,0,0-2.32Z"/><path class="cls-5" d="M77.16,111.23a2.2,2.2,0,0,1,.94.8,2.66,2.66,0,0,1,.43,1.12,6.93,6.93,0,0,1,0,1.07H74.63a1.3,1.3,0,0,0,.57,1.14,1.44,1.44,0,0,0,.78.2,1.1,1.1,0,0,0,1.08-.62H78.5a1.77,1.77,0,0,1-.52,1,2.63,2.63,0,0,1-2,.79,3,3,0,0,1-1.91-.67,2.62,2.62,0,0,1-.83-2.17,2.93,2.93,0,0,1,.75-2.16,2.61,2.61,0,0,1,1.94-.75A3.08,3.08,0,0,1,77.16,111.23ZM75,112.45a1.48,1.48,0,0,0-.38.84h2.44a1.18,1.18,0,0,0-.38-.86,1.24,1.24,0,0,0-.84-.29A1.13,1.13,0,0,0,75,112.45Z"/><path class="cls-5" d="M81.74,111h.12v1.45l-.24,0h-.17a1.17,1.17,0,0,0-1.15.56,2.16,2.16,0,0,0-.16,1v2.59H78.72v-5.41h1.35v.94a3,3,0,0,1,.57-.74,1.56,1.56,0,0,1,1-.33Z"/><path class="cls-5" d="M85.47,111.12H87l-2,5.41H83.54l-1.94-5.41h1.59l1.13,4Z"/><path class="cls-5" d="M88.69,110.48H87.25v-1.31h1.44Zm-1.44.65h1.44v5.41H87.25Z"/><path class="cls-5" d="M90.6,114.81a1,1,0,0,0,.19.54,1.32,1.32,0,0,0,1,.28,1.49,1.49,0,0,0,.67-.12.4.4,0,0,0,.25-.37.4.4,0,0,0-.2-.36,8.17,8.17,0,0,0-1.48-.43,3.08,3.08,0,0,1-1.3-.57,1.24,1.24,0,0,1-.38-1,1.69,1.69,0,0,1,.59-1.29,2.37,2.37,0,0,1,1.66-.54,3.05,3.05,0,0,1,1.66.4,1.74,1.74,0,0,1,.73,1.4H92.55a.83.83,0,0,0-.15-.43,1,1,0,0,0-.8-.29,1.14,1.14,0,0,0-.66.14.42.42,0,0,0-.2.34.37.37,0,0,0,.21.35,9,9,0,0,0,1.48.39,2.71,2.71,0,0,1,1.27.6,1.37,1.37,0,0,1,.42,1,1.65,1.65,0,0,1-.6,1.31,3.61,3.61,0,0,1-3.74,0,1.75,1.75,0,0,1-.61-1.37Z"/><path class="cls-5" d="M96.05,110.48H94.62v-1.31h1.44Zm-1.44.65h1.44v5.41H94.62Z"/><path class="cls-5" d="M101.38,115.87a3,3,0,0,1-4.16,0,3.36,3.36,0,0,1,0-4.07,3,3,0,0,1,4.16,0,3.36,3.36,0,0,1,0,4.07Zm-1.13-.78a2.53,2.53,0,0,0,0-2.51,1.26,1.26,0,0,0-1.91,0,2.51,2.51,0,0,0,0,2.51,1.25,1.25,0,0,0,1.91,0Z"/><path class="cls-5" d="M106.88,111.43a1.79,1.79,0,0,1,.53,1.46v3.65H106v-3.29a1.51,1.51,0,0,0-.11-.66.8.8,0,0,0-.79-.42,1,1,0,0,0-1,.61,2.1,2.1,0,0,0-.14.82v2.93h-1.42v-5.4h1.37v.79a2.41,2.41,0,0,1,.51-.6,1.78,1.78,0,0,1,1.1-.33A2.08,2.08,0,0,1,106.88,111.43Z"/><path class="cls-5" d="M111.7,111.23a2.2,2.2,0,0,1,.94.8,2.67,2.67,0,0,1,.43,1.12,7,7,0,0,1,0,1.07h-3.94a1.3,1.3,0,0,0,.57,1.14,1.44,1.44,0,0,0,.78.2,1.1,1.1,0,0,0,1.08-.62H113a1.77,1.77,0,0,1-.53,1,2.63,2.63,0,0,1-2,.79,3,3,0,0,1-1.91-.67,2.62,2.62,0,0,1-.83-2.17,2.93,2.93,0,0,1,.75-2.16,2.61,2.61,0,0,1,1.94-.75A3.08,3.08,0,0,1,111.7,111.23Zm-2.12,1.22a1.47,1.47,0,0,0-.38.84h2.44a1.18,1.18,0,0,0-.38-.86,1.24,1.24,0,0,0-.84-.29A1.12,1.12,0,0,0,109.58,112.45Z"/><path class="cls-5" d="M114.37,114.81a1,1,0,0,0,.2.54,1.32,1.32,0,0,0,1,.28,1.5,1.5,0,0,0,.67-.12.42.42,0,0,0,0-.74,8.15,8.15,0,0,0-1.48-.43,3.07,3.07,0,0,1-1.3-.57,1.24,1.24,0,0,1-.38-1,1.69,1.69,0,0,1,.59-1.29,2.37,2.37,0,0,1,1.66-.54,3,3,0,0,1,1.66.4,1.73,1.73,0,0,1,.73,1.4h-1.42a.83.83,0,0,0-.15-.43,1,1,0,0,0-.8-.29,1.15,1.15,0,0,0-.66.14.41.41,0,0,0-.2.34.37.37,0,0,0,.21.35,9,9,0,0,0,1.48.39,2.71,2.71,0,0,1,1.27.6,1.37,1.37,0,0,1,.42,1,1.65,1.65,0,0,1-.6,1.31,2.83,2.83,0,0,1-1.85.51,2.8,2.8,0,0,1-1.89-.54,1.75,1.75,0,0,1-.61-1.37Z"/><path class="cls-3" d="M141,116.32a2.57,2.57,0,0,1-.57-1.69h.93a2.32,2.32,0,0,0,.26,1,1.36,1.36,0,0,0,1.26.56,1.64,1.64,0,0,0,1.13-.38,1.24,1.24,0,0,0,.43-1,1.14,1.14,0,0,0-.45-1,2.28,2.28,0,0,0-1.25-.29h-.37v-.79l.23,0h.2a1.87,1.87,0,0,0,.83-.16,1,1,0,0,0,.57-1,1,1,0,0,0-.38-.82,1.41,1.41,0,0,0-.88-.29,1.3,1.3,0,0,0-1.24.6,2.05,2.05,0,0,0-.21.93h-.88a2.68,2.68,0,0,1,.32-1.35,2,2,0,0,1,1.92-1,2.61,2.61,0,0,1,1.68.48,1.71,1.71,0,0,1,.6,1.4,1.56,1.56,0,0,1-.35,1.06,1.48,1.48,0,0,1-.57.4,1.55,1.55,0,0,1,.88.59,1.8,1.8,0,0,1,.32,1.08,2.19,2.19,0,0,1-.67,1.66,2.64,2.64,0,0,1-1.9.64A2.24,2.24,0,0,1,141,116.32Z"/><path class="cls-3" d="M150.59,110.84a5.08,5.08,0,0,1,.48,2.41,5.8,5.8,0,0,1-.43,2.4,2.12,2.12,0,0,1-2,1.36,2,2,0,0,1-1.91-1.11,5.1,5.1,0,0,1-.52-2.49,6.18,6.18,0,0,1,.31-2.08,2.14,2.14,0,0,1,2.12-1.62A2.1,2.1,0,0,1,150.59,110.84Zm-.9,4.74a4.45,4.45,0,0,0,.41-2.29,5.66,5.66,0,0,0-.3-2,1.14,1.14,0,0,0-1.16-.78,1.21,1.21,0,0,0-1.16.74,5.12,5.12,0,0,0-.37,2.19,5.36,5.36,0,0,0,.23,1.75,1.27,1.27,0,0,0,2.33.39Z"/><path class="cls-3" d="M156.82,109.82v.78a8.31,8.31,0,0,0-.91,1.16,11.63,11.63,0,0,0-1,1.78,12.19,12.19,0,0,0-.66,1.69q-.14.49-.37,1.58h-1a12.19,12.19,0,0,1,1.49-4.05,12.89,12.89,0,0,1,1.43-2h-3.93v-.9Z"/><path class="cls-4" d="M194.06,112.66a1.41,1.41,0,0,1-.39-1,1.86,1.86,0,0,1,.58-1.37,2.22,2.22,0,0,1,1.63-.57,2.26,2.26,0,0,1,1.6.54,1.67,1.67,0,0,1,.58,1.26,1.64,1.64,0,0,1-.34,1.08,2,2,0,0,1-.59.46,2.28,2.28,0,0,1,.7.47,1.8,1.8,0,0,1,.47,1.29,2.2,2.2,0,0,1-.63,1.59,2.36,2.36,0,0,1-1.78.65,2.75,2.75,0,0,1-1.76-.56,2,2,0,0,1-.72-1.64,1.82,1.82,0,0,1,1.22-1.79A1.77,1.77,0,0,1,194.06,112.66Zm2.88,3.22a1.22,1.22,0,0,0,.41-1,1.3,1.3,0,0,0-.42-1,1.62,1.62,0,0,0-1.08-.36,1.5,1.5,0,0,0-1,.37,1.29,1.29,0,0,0-.41,1,1.38,1.38,0,0,0,.37,1,1.48,1.48,0,0,0,1.14.4A1.58,1.58,0,0,0,196.94,115.87Zm-.17-3.52a1.07,1.07,0,0,0,.33-.79,1,1,0,0,0-.32-.73,1.27,1.27,0,0,0-1-.33,1.08,1.08,0,0,0-1.22,1.12.94.94,0,0,0,.37.79,1.41,1.41,0,0,0,.88.28A1.25,1.25,0,0,0,196.78,112.36Z"/><path class="cls-4" d="M200.1,115.1a1.13,1.13,0,0,0,.57,1,1.27,1.27,0,0,0,.62.15,1.39,1.39,0,0,0,1.09-.53,4.39,4.39,0,0,0,.64-2.17,1.65,1.65,0,0,1-.74.66,2.35,2.35,0,0,1-.95.19,2.12,2.12,0,0,1-1.63-.64,2.31,2.31,0,0,1-.6-1.65,2.64,2.64,0,0,1,.59-1.7,2.11,2.11,0,0,1,1.74-.73,2.14,2.14,0,0,1,2.15,1.4,4.93,4.93,0,0,1,.33,1.93,6.34,6.34,0,0,1-.39,2.31,2.27,2.27,0,0,1-2.21,1.68,2.14,2.14,0,0,1-1.58-.55,1.87,1.87,0,0,1-.54-1.37Zm2.33-1.81a1.48,1.48,0,0,0,.44-1.22,1.56,1.56,0,0,0-.4-1.17,1.38,1.38,0,0,0-1-.38,1.32,1.32,0,0,0-1,.44,1.72,1.72,0,0,0-.38,1.17,1.68,1.68,0,0,0,.34,1.1,1.32,1.32,0,0,0,1.08.41A1.52,1.52,0,0,0,202.43,113.29Z"/><path class="cls-4" d="M205.66,115a1.24,1.24,0,0,0,.71,1.06,1.72,1.72,0,0,0,.74.15,1.38,1.38,0,0,0,1.18-.51,1.82,1.82,0,0,0,.38-1.12,1.47,1.47,0,0,0-.45-1.15,1.58,1.58,0,0,0-1.09-.41,1.64,1.64,0,0,0-.79.18,1.7,1.7,0,0,0-.56.5l-.77,0,.54-3.83h3.7v.86h-3l-.3,2a2.22,2.22,0,0,1,.47-.28,2.39,2.39,0,0,1,.92-.16,2.35,2.35,0,0,1,1.66.63,2.08,2.08,0,0,1,.68,1.6,2.74,2.74,0,0,1-.62,1.78,2.41,2.41,0,0,1-2,.77,2.53,2.53,0,0,1-1.54-.49,1.94,1.94,0,0,1-.75-1.5Z"/><path class="cls-5" d="M13.5,90.35a2.42,2.42,0,0,1,1.25.93,3.26,3.26,0,0,1,.52,1.18,5.67,5.67,0,0,1,.14,1.21,4.86,4.86,0,0,1-.59,2.47,2.65,2.65,0,0,1-2.46,1.37H9.21V90.19h3.16A3.86,3.86,0,0,1,13.5,90.35Zm-2.8,1.11v4.78h1.41a1.53,1.53,0,0,0,1.51-1.07,3.75,3.75,0,0,0,.23-1.4,3.44,3.44,0,0,0-.35-1.72,1.48,1.48,0,0,0-1.4-.6Z"/><path class="cls-5" d="M17.34,91.45H15.9V90.15h1.44Zm-1.44.65h1.44v5.41H15.9Z"/><path class="cls-5" d="M21.16,92h.12v1.45l-.24,0h-.17a1.17,1.17,0,0,0-1.15.56,2.16,2.16,0,0,0-.16,1v2.59H18.14V92.1h1.35V93a3,3,0,0,1,.57-.74,1.55,1.55,0,0,1,1-.33Z"/><path class="cls-5" d="M25.08,92.21A2.2,2.2,0,0,1,26,93a2.66,2.66,0,0,1,.43,1.12,6.93,6.93,0,0,1,0,1.07H22.55a1.3,1.3,0,0,0,.57,1.14,1.44,1.44,0,0,0,.78.2A1.1,1.1,0,0,0,25,95.93h1.45a1.77,1.77,0,0,1-.52,1,2.63,2.63,0,0,1-2,.79A3,3,0,0,1,21.95,97a2.62,2.62,0,0,1-.83-2.17,2.93,2.93,0,0,1,.75-2.16A2.61,2.61,0,0,1,23.81,92,3.08,3.08,0,0,1,25.08,92.21ZM23,93.43a1.48,1.48,0,0,0-.38.84H25a1.18,1.18,0,0,0-.38-.86,1.24,1.24,0,0,0-.84-.29A1.13,1.13,0,0,0,23,93.43Z"/><path class="cls-5" d="M29.89,94a1.25,1.25,0,0,0-.2-.55.86.86,0,0,0-.74-.33,1,1,0,0,0-1,.71,3,3,0,0,0-.14,1,2.71,2.71,0,0,0,.14,1,1,1,0,0,0,1,.68.84.84,0,0,0,.71-.27,1.34,1.34,0,0,0,.25-.7h1.45a2.37,2.37,0,0,1-.47,1.22,2.27,2.27,0,0,1-2,.93A2.31,2.31,0,0,1,27,96.92a3.13,3.13,0,0,1-.62-2A3.18,3.18,0,0,1,27,92.75,2.37,2.37,0,0,1,28.9,92a2.83,2.83,0,0,1,1.67.46A2.13,2.13,0,0,1,31.34,94Z"/><path class="cls-5" d="M35,94a1.25,1.25,0,0,0-.2-.55.86.86,0,0,0-.74-.33,1,1,0,0,0-1,.71,3,3,0,0,0-.14,1,2.71,2.71,0,0,0,.14,1,1,1,0,0,0,1,.68.84.84,0,0,0,.71-.27,1.34,1.34,0,0,0,.25-.7h1.45A2.37,2.37,0,0,1,36,96.77a2.27,2.27,0,0,1-2,.93,2.31,2.31,0,0,1-1.92-.77,3.13,3.13,0,0,1-.62-2,3.18,3.18,0,0,1,.68-2.17A2.37,2.37,0,0,1,34,92a2.83,2.83,0,0,1,1.67.46A2.13,2.13,0,0,1,36.44,94Z"/><path class="cls-5" d="M38.3,91.45H36.87V90.15H38.3Zm-1.44.65H38.3v5.41H36.87Z"/><path class="cls-5" d="M43.63,96.85a3,3,0,0,1-4.16,0,3.36,3.36,0,0,1,0-4.07,3,3,0,0,1,4.16,0,3.36,3.36,0,0,1,0,4.07Zm-1.13-.78a2.53,2.53,0,0,0,0-2.51,1.26,1.26,0,0,0-1.91,0,2.51,2.51,0,0,0,0,2.51,1.25,1.25,0,0,0,1.91,0Z"/><path class="cls-5" d="M49.13,92.41a1.79,1.79,0,0,1,.53,1.46v3.65H48.21V94.22a1.51,1.51,0,0,0-.11-.66.8.8,0,0,0-.79-.42,1,1,0,0,0-1,.61,2.1,2.1,0,0,0-.14.82v2.93H44.78v-5.4h1.37v.79a2.41,2.41,0,0,1,.51-.6,1.78,1.78,0,0,1,1.1-.33A2.08,2.08,0,0,1,49.13,92.41Z"/><path class="cls-5" d="M53.95,92.21a2.2,2.2,0,0,1,.94.8,2.66,2.66,0,0,1,.43,1.12,6.93,6.93,0,0,1,0,1.07H51.42A1.3,1.3,0,0,0,52,96.35a1.44,1.44,0,0,0,.78.2,1.1,1.1,0,0,0,1.08-.62h1.45a1.77,1.77,0,0,1-.52,1,2.63,2.63,0,0,1-2,.79A3,3,0,0,1,50.82,97,2.62,2.62,0,0,1,50,94.86a2.93,2.93,0,0,1,.75-2.16A2.61,2.61,0,0,1,52.68,92,3.08,3.08,0,0,1,53.95,92.21Zm-2.12,1.22a1.48,1.48,0,0,0-.38.84h2.44a1.18,1.18,0,0,0-.38-.86,1.24,1.24,0,0,0-.84-.29A1.13,1.13,0,0,0,51.83,93.43Z"/><path class="cls-5" d="M56.62,95.79a1,1,0,0,0,.2.54,1.32,1.32,0,0,0,1,.28,1.5,1.5,0,0,0,.67-.12.42.42,0,0,0,0-.74A8.15,8.15,0,0,0,57,95.32a3.07,3.07,0,0,1-1.3-.57,1.24,1.24,0,0,1-.38-1,1.69,1.69,0,0,1,.59-1.29,2.37,2.37,0,0,1,1.66-.54,3,3,0,0,1,1.66.4,1.73,1.73,0,0,1,.73,1.4H58.57a.83.83,0,0,0-.15-.43,1,1,0,0,0-.8-.29,1.15,1.15,0,0,0-.66.14.41.41,0,0,0-.2.34.37.37,0,0,0,.21.35,9,9,0,0,0,1.48.39,2.71,2.71,0,0,1,1.27.6,1.37,1.37,0,0,1,.42,1,1.65,1.65,0,0,1-.6,1.31,2.83,2.83,0,0,1-1.85.51,2.8,2.8,0,0,1-1.89-.54,1.75,1.75,0,0,1-.61-1.37Z"/><path class="cls-5" d="M64.51,90h1.18l-2.85,7.55H61.67Z"/><path class="cls-5" d="M72.46,92.48a1.43,1.43,0,0,0-.85-1,2.09,2.09,0,0,0-.84-.16,1.83,1.83,0,0,0-1.45.67,3,3,0,0,0-.57,2,2.49,2.49,0,0,0,.62,1.91,2,2,0,0,0,1.4.56A1.82,1.82,0,0,0,72,96a1.91,1.91,0,0,0,.61-1.16H70.94V93.58h3v3.93H73l-.15-.91a3.5,3.5,0,0,1-.79.73,2.81,2.81,0,0,1-1.49.37,3.1,3.1,0,0,1-2.38-1,3.84,3.84,0,0,1-1-2.77,4.06,4.06,0,0,1,1-2.85A3.34,3.34,0,0,1,70.75,90a3.38,3.38,0,0,1,2.24.71,2.63,2.63,0,0,1,1,1.77Z"/><path class="cls-5" d="M78.3,92.21a2.2,2.2,0,0,1,.94.8,2.67,2.67,0,0,1,.43,1.12,7,7,0,0,1,0,1.07H75.77a1.3,1.3,0,0,0,.57,1.14,1.44,1.44,0,0,0,.78.2,1.1,1.1,0,0,0,1.08-.62h1.45a1.77,1.77,0,0,1-.53,1,2.63,2.63,0,0,1-2,.79A3,3,0,0,1,75.17,97a2.62,2.62,0,0,1-.83-2.17,2.93,2.93,0,0,1,.75-2.16A2.61,2.61,0,0,1,77,92,3.08,3.08,0,0,1,78.3,92.21Zm-2.12,1.22a1.47,1.47,0,0,0-.38.84h2.44a1.18,1.18,0,0,0-.38-.86,1.24,1.24,0,0,0-.84-.29A1.12,1.12,0,0,0,76.18,93.43Z"/><path class="cls-5" d="M82.88,92H83v1.45l-.24,0h-.17a1.17,1.17,0,0,0-1.15.56,2.16,2.16,0,0,0-.16,1v2.59H79.86V92.1h1.35V93a3,3,0,0,1,.57-.74,1.56,1.56,0,0,1,1-.33Z"/><path class="cls-5" d="M86.8,92.21a2.2,2.2,0,0,1,.94.8,2.67,2.67,0,0,1,.43,1.12,7,7,0,0,1,0,1.07H84.27a1.3,1.3,0,0,0,.57,1.14,1.44,1.44,0,0,0,.78.2,1.1,1.1,0,0,0,1.08-.62h1.45a1.77,1.77,0,0,1-.53,1,2.63,2.63,0,0,1-2,.79A3,3,0,0,1,83.67,97a2.62,2.62,0,0,1-.83-2.17,2.93,2.93,0,0,1,.75-2.16A2.61,2.61,0,0,1,85.53,92,3.08,3.08,0,0,1,86.8,92.21Zm-2.12,1.22a1.47,1.47,0,0,0-.38.84h2.44a1.18,1.18,0,0,0-.38-.86,1.24,1.24,0,0,0-.84-.29A1.12,1.12,0,0,0,84.68,93.43Z"/><path class="cls-5" d="M92.73,92.41a1.79,1.79,0,0,1,.53,1.46v3.65H91.82V94.22a1.51,1.51,0,0,0-.11-.66.8.8,0,0,0-.79-.42,1,1,0,0,0-1,.61,2.1,2.1,0,0,0-.14.82v2.93H88.38v-5.4h1.37v.79a2.41,2.41,0,0,1,.51-.6,1.78,1.78,0,0,1,1.1-.33A2.08,2.08,0,0,1,92.73,92.41Z"/><path class="cls-5" d="M97.26,94a1.25,1.25,0,0,0-.2-.55.86.86,0,0,0-.74-.33,1,1,0,0,0-1,.71,3,3,0,0,0-.14,1,2.71,2.71,0,0,0,.14,1,1,1,0,0,0,1,.68.84.84,0,0,0,.71-.27,1.34,1.34,0,0,0,.25-.7H98.7a2.37,2.37,0,0,1-.47,1.22,2.27,2.27,0,0,1-2,.93,2.31,2.31,0,0,1-1.92-.77,3.13,3.13,0,0,1-.62-2,3.18,3.18,0,0,1,.68-2.17A2.37,2.37,0,0,1,96.28,92a2.83,2.83,0,0,1,1.67.46A2.13,2.13,0,0,1,98.71,94Z"/><path class="cls-5" d="M100.58,91.45H99.14V90.15h1.44Zm-1.44.65h1.44v5.41H99.14Z"/><path class="cls-5" d="M103.53,94.22a2.24,2.24,0,0,0,.57-.12.43.43,0,0,0,.3-.4.48.48,0,0,0-.23-.46,1.48,1.48,0,0,0-.69-.13.91.91,0,0,0-.72.25,1,1,0,0,0-.2.5h-1.37a2.07,2.07,0,0,1,.4-1.17,2.33,2.33,0,0,1,1.94-.72,3.45,3.45,0,0,1,1.59.35,1.35,1.35,0,0,1,.69,1.33v2.48q0,.26,0,.63a.78.78,0,0,0,.08.38.5.5,0,0,0,.21.16v.21h-1.54a1.58,1.58,0,0,1-.09-.31c0-.1,0-.21,0-.33a2.91,2.91,0,0,1-.68.54,2.05,2.05,0,0,1-1,.26,1.79,1.79,0,0,1-1.22-.42,1.49,1.49,0,0,1-.48-1.19,1.54,1.54,0,0,1,.78-1.45,3.47,3.47,0,0,1,1.25-.35Zm.87.66a1.53,1.53,0,0,1-.27.14,2.31,2.31,0,0,1-.38.1l-.32.06a2.12,2.12,0,0,0-.65.19.65.65,0,0,0-.33.6.63.63,0,0,0,.2.52.78.78,0,0,0,.5.16,1.48,1.48,0,0,0,.85-.27,1.14,1.14,0,0,0,.41-1Z"/><path class="cls-5" d="M107.58,95.79a1,1,0,0,0,.2.54,1.32,1.32,0,0,0,1,.28,1.5,1.5,0,0,0,.67-.12.42.42,0,0,0,0-.74,8.15,8.15,0,0,0-1.48-.43,3.07,3.07,0,0,1-1.3-.57,1.24,1.24,0,0,1-.38-1,1.69,1.69,0,0,1,.59-1.29,2.37,2.37,0,0,1,1.66-.54,3,3,0,0,1,1.66.4,1.73,1.73,0,0,1,.73,1.4h-1.42a.83.83,0,0,0-.15-.43,1,1,0,0,0-.8-.29,1.15,1.15,0,0,0-.66.14.41.41,0,0,0-.2.34.37.37,0,0,0,.21.35,9,9,0,0,0,1.48.39,2.71,2.71,0,0,1,1.27.6,1.37,1.37,0,0,1,.42,1,1.65,1.65,0,0,1-.6,1.31,2.83,2.83,0,0,1-1.85.51,2.8,2.8,0,0,1-1.89-.54,1.75,1.75,0,0,1-.61-1.37Z"/><path class="cls-3" d="M143.56,97.8V96.06h-3.12v-.87l3.26-4.52h.75v4.61h1v.78h-1V97.8Zm0-2.52V92l-2.28,3.23Z"/><path class="cls-3" d="M150.59,91.82a5.08,5.08,0,0,1,.48,2.41,5.8,5.8,0,0,1-.43,2.4,2.12,2.12,0,0,1-2,1.36,2,2,0,0,1-1.91-1.11,5.1,5.1,0,0,1-.52-2.49,6.18,6.18,0,0,1,.31-2.08,2.14,2.14,0,0,1,2.12-1.62A2.1,2.1,0,0,1,150.59,91.82Zm-.9,4.74a4.45,4.45,0,0,0,.41-2.29,5.66,5.66,0,0,0-.3-2,1.14,1.14,0,0,0-1.16-.78,1.21,1.21,0,0,0-1.16.74,5.12,5.12,0,0,0-.37,2.19,5.36,5.36,0,0,0,.23,1.75,1.27,1.27,0,0,0,2.33.39Z"/><path class="cls-3" d="M156.82,90.8v.78a8.31,8.31,0,0,0-.91,1.16,11.63,11.63,0,0,0-1,1.78,12.19,12.19,0,0,0-.66,1.69q-.14.49-.37,1.58h-1a12.19,12.19,0,0,1,1.49-4.05,12.89,12.89,0,0,1,1.43-2h-3.93v-.9Z"/><path class="cls-4" d="M194.06,92.76v-.69a3.64,3.64,0,0,0,1.35-.32,1.55,1.55,0,0,0,.57-1h.71V97.8h-1v-5Z"/><path class="cls-4" d="M203.5,91.82a5.1,5.1,0,0,1,.48,2.41,5.8,5.8,0,0,1-.43,2.4,2.12,2.12,0,0,1-2,1.36,2.05,2.05,0,0,1-1.91-1.11,5.1,5.1,0,0,1-.52-2.49,6.15,6.15,0,0,1,.31-2.08,2.14,2.14,0,0,1,2.12-1.62A2.1,2.1,0,0,1,203.5,91.82Zm-.9,4.74a4.45,4.45,0,0,0,.41-2.29,5.66,5.66,0,0,0-.3-2,1.13,1.13,0,0,0-1.16-.78,1.21,1.21,0,0,0-1.16.74,5.11,5.11,0,0,0-.37,2.19,5.35,5.35,0,0,0,.23,1.75,1.27,1.27,0,0,0,2.33.39Z"/><path class="cls-4" d="M209.73,90.8v.78a8.3,8.3,0,0,0-.91,1.16,11.71,11.71,0,0,0-1,1.78,12.06,12.06,0,0,0-.66,1.69q-.15.49-.37,1.58h-1a12.15,12.15,0,0,1,1.49-4.05,12.82,12.82,0,0,1,1.43-2h-3.93v-.9Z"/><path class="cls-5" d="M11.31,128.64H13L15.63,136H14l-.48-1.5h-2.7l-.5,1.5H8.69Zm-.1,4.56h1.88l-.92-2.88Z"/><path class="cls-5" d="M19.31,130.63a1.72,1.72,0,0,1,.62.6v-2.58h1.44V136H20v-.75a2,2,0,0,1-.69.7,1.94,1.94,0,0,1-1,.22,2,2,0,0,1-1.6-.77,2.94,2.94,0,0,1-.65-2,3.39,3.39,0,0,1,.64-2.18,2.08,2.08,0,0,1,1.71-.79A1.75,1.75,0,0,1,19.31,130.63Zm.35,3.86a2,2,0,0,0,.31-1.16,1.78,1.78,0,0,0-.5-1.42,1.08,1.08,0,0,0-.72-.26,1,1,0,0,0-.91.47,2.53,2.53,0,0,0,0,2.36,1,1,0,0,0,.9.45A1,1,0,0,0,19.66,134.49Z"/><path class="cls-5" d="M29.41,130.56A1.57,1.57,0,0,1,30,131a1.55,1.55,0,0,1,.31.7,4.79,4.79,0,0,1,0,.8V136H28.94v-3.45a1.13,1.13,0,0,0-.1-.51.71.71,0,0,0-.7-.38.81.81,0,0,0-.81.49,1.53,1.53,0,0,0-.11.62V136H25.8v-3.22a1.81,1.81,0,0,0-.1-.7.69.69,0,0,0-.7-.39.83.83,0,0,0-.81.39,1.51,1.51,0,0,0-.11.67V136H22.63v-5.4H24v.79a2.29,2.29,0,0,1,.5-.6,2,2,0,0,1,2.07,0,1.59,1.59,0,0,1,.47.65,1.8,1.8,0,0,1,.69-.7,2.11,2.11,0,0,1,1-.22A1.88,1.88,0,0,1,29.41,130.56Z"/><path class="cls-5" d="M33.16,129.9H31.72v-1.31h1.44Zm-1.44.65h1.44V136H31.72Z"/><path class="cls-5" d="M38.9,130.85a1.79,1.79,0,0,1,.53,1.46V136H38v-3.29a1.51,1.51,0,0,0-.11-.66.8.8,0,0,0-.79-.42,1,1,0,0,0-1,.61A2.1,2.1,0,0,0,36,133V136H34.54v-5.4h1.37v.79a2.41,2.41,0,0,1,.51-.6,1.78,1.78,0,0,1,1.1-.33A2.08,2.08,0,0,1,38.9,130.85Z"/><path class="cls-5" d="M42.2,129.9H40.76v-1.31H42.2Zm-1.44.65H42.2V136H40.76Z"/><path class="cls-5" d="M44.67,134.23a1,1,0,0,0,.19.54,1.32,1.32,0,0,0,1,.28,1.49,1.49,0,0,0,.67-.12.4.4,0,0,0,.25-.37.4.4,0,0,0-.2-.36,8.17,8.17,0,0,0-1.48-.43,3.08,3.08,0,0,1-1.3-.57,1.24,1.24,0,0,1-.38-1,1.69,1.69,0,0,1,.59-1.29,2.37,2.37,0,0,1,1.66-.54,3.05,3.05,0,0,1,1.66.4,1.74,1.74,0,0,1,.73,1.4H46.62a.83.83,0,0,0-.15-.43,1,1,0,0,0-.8-.29,1.14,1.14,0,0,0-.66.14.42.42,0,0,0-.2.34.37.37,0,0,0,.21.35,9,9,0,0,0,1.48.39,2.71,2.71,0,0,1,1.27.6,1.37,1.37,0,0,1,.42,1,1.65,1.65,0,0,1-.6,1.31,3.61,3.61,0,0,1-3.74,0,1.75,1.75,0,0,1-.61-1.37Z"/><path class="cls-5" d="M48.67,131.6v-1h.75v-1.51h1.4v1.51h.88v1h-.88v2.86a.64.64,0,0,0,.08.41.93.93,0,0,0,.52.08h.28V136L51,136a1.8,1.8,0,0,1-1.37-.35,1,1,0,0,1-.24-.75V131.6Z"/><path class="cls-5" d="M55.62,130.42h.12v1.45l-.24,0h-.17a1.17,1.17,0,0,0-1.15.56,2.16,2.16,0,0,0-.16,1V136H52.6v-5.41H54v.94a3,3,0,0,1,.57-.74,1.56,1.56,0,0,1,1-.33Z"/><path class="cls-5" d="M58.72,132.66a2.24,2.24,0,0,0,.57-.12.43.43,0,0,0,.3-.4.48.48,0,0,0-.23-.46,1.48,1.48,0,0,0-.69-.13.91.91,0,0,0-.72.25,1,1,0,0,0-.2.5H56.38a2.07,2.07,0,0,1,.4-1.17,2.33,2.33,0,0,1,1.94-.72,3.45,3.45,0,0,1,1.59.35A1.35,1.35,0,0,1,61,132.1v2.48q0,.26,0,.63a.78.78,0,0,0,.08.38.5.5,0,0,0,.21.16V136H59.76a1.58,1.58,0,0,1-.09-.31c0-.1,0-.21,0-.33a2.91,2.91,0,0,1-.68.54,2.05,2.05,0,0,1-1,.26,1.79,1.79,0,0,1-1.22-.42,1.49,1.49,0,0,1-.48-1.19,1.54,1.54,0,0,1,.78-1.45,3.47,3.47,0,0,1,1.25-.35Zm.87.66a1.53,1.53,0,0,1-.27.14,2.31,2.31,0,0,1-.38.1l-.32.06a2.12,2.12,0,0,0-.65.19.65.65,0,0,0-.33.6.63.63,0,0,0,.2.52.78.78,0,0,0,.5.16,1.48,1.48,0,0,0,.85-.27,1.14,1.14,0,0,0,.41-1Z"/><path class="cls-5" d="M65.47,132.49a1.25,1.25,0,0,0-.2-.55.86.86,0,0,0-.74-.33,1,1,0,0,0-1,.71,3,3,0,0,0-.14,1,2.71,2.71,0,0,0,.14,1,1,1,0,0,0,1,.68.85.85,0,0,0,.71-.27,1.34,1.34,0,0,0,.25-.7h1.45a2.37,2.37,0,0,1-.47,1.22,2.27,2.27,0,0,1-2,.93,2.31,2.31,0,0,1-1.92-.77,3.13,3.13,0,0,1-.62-2,3.18,3.18,0,0,1,.68-2.17,2.37,2.37,0,0,1,1.88-.77,2.83,2.83,0,0,1,1.67.46,2.13,2.13,0,0,1,.77,1.61Z"/><path class="cls-5" d="M69.35,129.9H67.91v-1.31h1.44Zm-1.44.65h1.44V136H67.91Z"/><path class="cls-5" d="M75.23,135.3a3,3,0,0,1-4.16,0,3.36,3.36,0,0,1,0-4.07,3,3,0,0,1,4.16,0,3.36,3.36,0,0,1,0,4.07Zm-1.13-.78a2.53,2.53,0,0,0,0-2.51,1.26,1.26,0,0,0-1.91,0,2.51,2.51,0,0,0,0,2.51,1.25,1.25,0,0,0,1.91,0Zm.75-6.19-1.51,1.49h-1l1-1.49Z"/><path class="cls-5" d="M81.3,130.85a1.79,1.79,0,0,1,.53,1.46V136H80.38v-3.29a1.52,1.52,0,0,0-.11-.66.8.8,0,0,0-.79-.42,1,1,0,0,0-1,.61,2.12,2.12,0,0,0-.14.82V136H76.94v-5.4h1.37v.79a2.39,2.39,0,0,1,.51-.6,1.78,1.78,0,0,1,1.1-.33A2.08,2.08,0,0,1,81.3,130.85Z"/><path class="cls-3" d="M138.05,134.18a3.08,3.08,0,0,1,1.29-1.24l1-.55a4.52,4.52,0,0,0,.9-.64,1.39,1.39,0,0,0,0-1.93,1.35,1.35,0,0,0-1-.37,1.3,1.3,0,0,0-1.27.7,2.51,2.51,0,0,0-.21,1h-.91a3.19,3.19,0,0,1,.34-1.52,2.15,2.15,0,0,1,2.05-1,2.11,2.11,0,0,1,2.35,2.13,2,2,0,0,1-.6,1.46,5.89,5.89,0,0,1-1.25.85l-.68.38a4.41,4.41,0,0,0-.76.51,1.86,1.86,0,0,0-.63,1h3.88v.84h-4.88A4.16,4.16,0,0,1,138.05,134.18Z"/><path class="cls-3" d="M143.86,136.82a.63.63,0,0,0,.48-.48,1.37,1.37,0,0,0,.08-.43.59.59,0,0,0,0-.06.35.35,0,0,0,0-.06h-.54V134.7h1.06v1a2.17,2.17,0,0,1-.24,1,1.08,1.08,0,0,1-.82.55Z"/><path class="cls-3" d="M147.19,134.05a1.13,1.13,0,0,0,.57,1,1.27,1.27,0,0,0,.62.15,1.39,1.39,0,0,0,1.09-.53,4.39,4.39,0,0,0,.64-2.17,1.65,1.65,0,0,1-.74.66,2.35,2.35,0,0,1-.95.19,2.12,2.12,0,0,1-1.63-.64,2.31,2.31,0,0,1-.6-1.65,2.64,2.64,0,0,1,.59-1.7,2.11,2.11,0,0,1,1.74-.73,2.14,2.14,0,0,1,2.15,1.4A4.93,4.93,0,0,1,151,132a6.34,6.34,0,0,1-.39,2.31,2.27,2.27,0,0,1-2.21,1.68,2.14,2.14,0,0,1-1.58-.55,1.87,1.87,0,0,1-.54-1.37Zm2.33-1.81A1.48,1.48,0,0,0,150,131a1.56,1.56,0,0,0-.4-1.17,1.38,1.38,0,0,0-1-.38,1.32,1.32,0,0,0-1,.44,1.72,1.72,0,0,0-.38,1.17,1.68,1.68,0,0,0,.34,1.1,1.32,1.32,0,0,0,1.08.41A1.52,1.52,0,0,0,149.52,132.24Z"/><path class="cls-3" d="M152.2,134.18a3.07,3.07,0,0,1,1.29-1.24l1-.55a4.48,4.48,0,0,0,.9-.64,1.39,1.39,0,0,0,0-1.93,1.36,1.36,0,0,0-1-.37,1.3,1.3,0,0,0-1.27.7,2.49,2.49,0,0,0-.21,1H152a3.19,3.19,0,0,1,.34-1.52,2.15,2.15,0,0,1,2.05-1,2.11,2.11,0,0,1,2.35,2.13,2,2,0,0,1-.6,1.46,5.86,5.86,0,0,1-1.25.85l-.68.38a4.45,4.45,0,0,0-.76.51,1.86,1.86,0,0,0-.63,1h3.88v.84h-4.88A4.14,4.14,0,0,1,152.2,134.18Z"/><path class="cls-3" d="M158,135.28a2.57,2.57,0,0,1-.57-1.69h.93a2.32,2.32,0,0,0,.26,1,1.36,1.36,0,0,0,1.26.56,1.65,1.65,0,0,0,1.13-.38,1.24,1.24,0,0,0,.43-1,1.13,1.13,0,0,0-.45-1,2.27,2.27,0,0,0-1.25-.29h-.37v-.79l.23,0h.2a1.87,1.87,0,0,0,.82-.16,1,1,0,0,0,.57-1,1,1,0,0,0-.38-.82,1.41,1.41,0,0,0-.88-.29,1.3,1.3,0,0,0-1.24.6,2.06,2.06,0,0,0-.21.93h-.88a2.68,2.68,0,0,1,.32-1.35,2,2,0,0,1,1.92-1,2.61,2.61,0,0,1,1.68.48,1.7,1.7,0,0,1,.6,1.4,1.56,1.56,0,0,1-.35,1.06,1.47,1.47,0,0,1-.57.4,1.54,1.54,0,0,1,.88.59,1.79,1.79,0,0,1,.32,1.08,2.19,2.19,0,0,1-.67,1.66,2.65,2.65,0,0,1-1.9.64A2.23,2.23,0,0,1,158,135.28Z"/><path class="cls-4" d="M189.82,130.74v-.69a3.64,3.64,0,0,0,1.35-.32,1.55,1.55,0,0,0,.57-1h.71v7.08h-1v-5Z"/><path class="cls-4" d="M195.35,136.82a.63.63,0,0,0,.48-.48,1.37,1.37,0,0,0,.07-.43s0,0,0-.06a.35.35,0,0,0,0-.06h-.54V134.7h1.06v1a2.17,2.17,0,0,1-.24,1,1.09,1.09,0,0,1-.83.55Z"/><path class="cls-4" d="M198.59,134a1.24,1.24,0,0,0,.71,1.06,1.72,1.72,0,0,0,.73.15,1.38,1.38,0,0,0,1.18-.51,1.82,1.82,0,0,0,.38-1.12,1.47,1.47,0,0,0-.46-1.15A1.58,1.58,0,0,0,200,132a1.65,1.65,0,0,0-.79.18,1.7,1.7,0,0,0-.56.5l-.78,0,.54-3.83h3.7v.86h-3l-.3,2a2.24,2.24,0,0,1,.47-.28,2.39,2.39,0,0,1,.92-.16,2.35,2.35,0,0,1,1.66.63,2.09,2.09,0,0,1,.68,1.6,2.74,2.74,0,0,1-.62,1.78,2.41,2.41,0,0,1-2,.77,2.53,2.53,0,0,1-1.54-.49,1.94,1.94,0,0,1-.75-1.5Z"/><path class="cls-4" d="M207.74,129.8a5.1,5.1,0,0,1,.48,2.41,5.8,5.8,0,0,1-.43,2.4,2.12,2.12,0,0,1-2,1.36,2.05,2.05,0,0,1-1.91-1.11,5.1,5.1,0,0,1-.52-2.49,6.15,6.15,0,0,1,.31-2.08,2.14,2.14,0,0,1,2.12-1.62A2.1,2.1,0,0,1,207.74,129.8Zm-.9,4.74a4.45,4.45,0,0,0,.41-2.29,5.66,5.66,0,0,0-.3-2,1.13,1.13,0,0,0-1.16-.78,1.21,1.21,0,0,0-1.16.74,5.11,5.11,0,0,0-.37,2.19,5.35,5.35,0,0,0,.23,1.75,1.27,1.27,0,0,0,2.33.39Z"/><path class="cls-4" d="M209.35,134.18a3.07,3.07,0,0,1,1.29-1.24l1-.55a4.48,4.48,0,0,0,.9-.64,1.39,1.39,0,0,0,0-1.93,1.36,1.36,0,0,0-1-.37,1.3,1.3,0,0,0-1.27.7,2.49,2.49,0,0,0-.21,1h-.91a3.19,3.19,0,0,1,.34-1.52,2.15,2.15,0,0,1,2.05-1,2.11,2.11,0,0,1,2.35,2.13,2,2,0,0,1-.6,1.46,5.86,5.86,0,0,1-1.25.85l-.68.38a4.45,4.45,0,0,0-.76.51,1.86,1.86,0,0,0-.63,1h3.88v.84H209A4.14,4.14,0,0,1,209.35,134.18Z"/><path class="cls-5" d="M14.85,156.21a3.19,3.19,0,0,1-2.4.85,3.19,3.19,0,0,1-2.4-.85,4,4,0,0,1-1.11-3,3.87,3.87,0,0,1,1.11-3,3.19,3.19,0,0,1,2.4-.85,3.19,3.19,0,0,1,2.4.85,3.88,3.88,0,0,1,1.11,3A4,4,0,0,1,14.85,156.21Zm-1-1.11a3.67,3.67,0,0,0,0-3.81,1.75,1.75,0,0,0-1.44-.67,1.77,1.77,0,0,0-1.45.67,3.63,3.63,0,0,0,0,3.82,1.77,1.77,0,0,0,1.45.67A1.75,1.75,0,0,0,13.89,155.1Z"/><path class="cls-5" d="M21.56,152a2.88,2.88,0,0,1,.66,2.06,3.25,3.25,0,0,1-.65,2.18,2.1,2.1,0,0,1-1.67.75,1.75,1.75,0,0,1-1.08-.32,2.08,2.08,0,0,1-.46-.52V159H17v-7.55h1.36v.8a2.29,2.29,0,0,1,.49-.56,1.81,1.81,0,0,1,1.13-.36A2.14,2.14,0,0,1,21.56,152Zm-1.09,1a1,1,0,0,0-.94-.48,1.06,1.06,0,0,0-1.07.73,2.74,2.74,0,0,0-.15,1,1.56,1.56,0,0,0,.51,1.33,1.16,1.16,0,0,0,.71.22,1,1,0,0,0,.91-.46,2.4,2.4,0,0,0,0-2.32Z"/><path class="cls-5" d="M26.75,151.56a2.2,2.2,0,0,1,.94.8,2.66,2.66,0,0,1,.43,1.12,6.93,6.93,0,0,1,0,1.07H24.22a1.3,1.3,0,0,0,.57,1.14,1.44,1.44,0,0,0,.78.2,1.1,1.1,0,0,0,1.08-.62h1.45a1.77,1.77,0,0,1-.52,1,2.63,2.63,0,0,1-2,.79,3,3,0,0,1-1.91-.67,2.62,2.62,0,0,1-.83-2.17,2.93,2.93,0,0,1,.75-2.16,2.61,2.61,0,0,1,1.94-.75A3.08,3.08,0,0,1,26.75,151.56Zm-2.12,1.22a1.48,1.48,0,0,0-.38.84H26.7a1.18,1.18,0,0,0-.38-.86,1.24,1.24,0,0,0-.84-.29A1.13,1.13,0,0,0,24.63,152.78Z"/><path class="cls-5" d="M31.89,151.32H32v1.45l-.24,0H31.6a1.17,1.17,0,0,0-1.15.56,2.16,2.16,0,0,0-.16,1v2.59H28.87v-5.41h1.35v.94a3,3,0,0,1,.57-.74,1.56,1.56,0,0,1,1-.33Z"/><path class="cls-5" d="M35,153.57a2.24,2.24,0,0,0,.57-.12.43.43,0,0,0,.3-.4.48.48,0,0,0-.23-.46,1.48,1.48,0,0,0-.69-.13.91.91,0,0,0-.72.25,1,1,0,0,0-.2.5H32.65A2.07,2.07,0,0,1,33,152a2.33,2.33,0,0,1,1.94-.72,3.45,3.45,0,0,1,1.59.35,1.35,1.35,0,0,1,.69,1.33v2.48q0,.26,0,.63a.78.78,0,0,0,.08.38.5.5,0,0,0,.21.16v.21H36a1.58,1.58,0,0,1-.09-.31c0-.1,0-.21,0-.33a2.91,2.91,0,0,1-.68.54,2.05,2.05,0,0,1-1,.26,1.79,1.79,0,0,1-1.22-.42,1.49,1.49,0,0,1-.48-1.19,1.54,1.54,0,0,1,.78-1.45,3.47,3.47,0,0,1,1.25-.35Zm.87.66a1.53,1.53,0,0,1-.27.14,2.31,2.31,0,0,1-.38.1l-.32.06a2.12,2.12,0,0,0-.65.19.65.65,0,0,0-.33.6.63.63,0,0,0,.2.52.78.78,0,0,0,.5.16,1.48,1.48,0,0,0,.85-.27,1.14,1.14,0,0,0,.41-1Z"/><path class="cls-5" d="M41.74,153.39a1.25,1.25,0,0,0-.2-.55.86.86,0,0,0-.74-.33,1,1,0,0,0-1,.71,3,3,0,0,0-.14,1,2.71,2.71,0,0,0,.14,1,1,1,0,0,0,1,.68.85.85,0,0,0,.71-.27,1.34,1.34,0,0,0,.25-.7h1.45a2.37,2.37,0,0,1-.47,1.22,2.27,2.27,0,0,1-2,.93,2.31,2.31,0,0,1-1.92-.77,3.13,3.13,0,0,1-.62-2,3.18,3.18,0,0,1,.68-2.17,2.37,2.37,0,0,1,1.88-.77,2.83,2.83,0,0,1,1.67.46,2.13,2.13,0,0,1,.77,1.61Z"/><path class="cls-5" d="M45.61,150.8H44.18v-1.31h1.44Zm-1.44.65h1.44v5.41H44.18Z"/><path class="cls-5" d="M51.5,156.2a3,3,0,0,1-4.16,0,3.36,3.36,0,0,1,0-4.07,3,3,0,0,1,4.16,0,3.36,3.36,0,0,1,0,4.07Zm-1.13-.78a2.53,2.53,0,0,0,0-2.51,1.26,1.26,0,0,0-1.91,0,2.51,2.51,0,0,0,0,2.51,1.25,1.25,0,0,0,1.91,0Z"/><path class="cls-5" d="M57.56,151.76a1.79,1.79,0,0,1,.53,1.46v3.65H56.64v-3.29a1.52,1.52,0,0,0-.11-.66.8.8,0,0,0-.79-.42,1,1,0,0,0-1,.61,2.12,2.12,0,0,0-.14.82v2.93H53.21v-5.4h1.37v.79a2.39,2.39,0,0,1,.51-.6,1.78,1.78,0,0,1,1.1-.33A2.08,2.08,0,0,1,57.56,151.76Z"/><path class="cls-5" d="M62.94,151.56a2.2,2.2,0,0,1,.94.8,2.66,2.66,0,0,1,.43,1.12,6.93,6.93,0,0,1,0,1.07H60.41a1.3,1.3,0,0,0,.57,1.14,1.44,1.44,0,0,0,.78.2,1.1,1.1,0,0,0,1.08-.62h1.45a1.77,1.77,0,0,1-.52,1,2.63,2.63,0,0,1-2,.79,3,3,0,0,1-1.91-.67,2.62,2.62,0,0,1-.83-2.17,2.93,2.93,0,0,1,.75-2.16,2.61,2.61,0,0,1,1.94-.75A3.08,3.08,0,0,1,62.94,151.56Zm-2.12,1.22a1.48,1.48,0,0,0-.38.84h2.44a1.18,1.18,0,0,0-.38-.86,1.24,1.24,0,0,0-.84-.29A1.13,1.13,0,0,0,60.82,152.78Z"/><path class="cls-5" d="M66.17,155.13a1,1,0,0,0,.19.54,1.32,1.32,0,0,0,1,.28,1.49,1.49,0,0,0,.67-.12.4.4,0,0,0,.25-.37.4.4,0,0,0-.2-.36,8.17,8.17,0,0,0-1.48-.43,3.08,3.08,0,0,1-1.3-.57,1.24,1.24,0,0,1-.38-1,1.69,1.69,0,0,1,.59-1.29,2.37,2.37,0,0,1,1.66-.54,3.05,3.05,0,0,1,1.66.4,1.74,1.74,0,0,1,.73,1.4H68.12a.83.83,0,0,0-.15-.43,1,1,0,0,0-.8-.29,1.14,1.14,0,0,0-.66.14.42.42,0,0,0-.2.34.37.37,0,0,0,.21.35,9,9,0,0,0,1.48.39,2.71,2.71,0,0,1,1.27.6,1.37,1.37,0,0,1,.42,1,1.65,1.65,0,0,1-.6,1.31,3.61,3.61,0,0,1-3.74,0,1.75,1.75,0,0,1-.61-1.37Z"/><path class="cls-3" d="M134.09,152.11v-.69a3.63,3.63,0,0,0,1.35-.32,1.55,1.55,0,0,0,.57-1h.71v7.08h-1v-5Z"/><path class="cls-3" d="M139.75,152.11v-.69a3.64,3.64,0,0,0,1.35-.32,1.55,1.55,0,0,0,.57-1h.71v7.08h-1v-5Z"/><path class="cls-3" d="M145.27,158.19a.63.63,0,0,0,.48-.48,1.37,1.37,0,0,0,.08-.43.59.59,0,0,0,0-.06.35.35,0,0,0,0-.06h-.54v-1.08h1.06v1a2.17,2.17,0,0,1-.24,1,1.08,1.08,0,0,1-.82.55Z"/><path class="cls-3" d="M148.23,153a1.41,1.41,0,0,1-.39-1,1.86,1.86,0,0,1,.58-1.37A2.22,2.22,0,0,1,150,150a2.26,2.26,0,0,1,1.6.54,1.67,1.67,0,0,1,.58,1.26,1.64,1.64,0,0,1-.34,1.08,2,2,0,0,1-.59.46,2.28,2.28,0,0,1,.7.47,1.8,1.8,0,0,1,.47,1.29,2.2,2.2,0,0,1-.63,1.59,2.36,2.36,0,0,1-1.78.65,2.75,2.75,0,0,1-1.76-.56,2,2,0,0,1-.72-1.64,1.82,1.82,0,0,1,1.22-1.79A1.77,1.77,0,0,1,148.23,153Zm2.88,3.22a1.22,1.22,0,0,0,.41-1,1.3,1.3,0,0,0-.42-1,1.62,1.62,0,0,0-1.08-.36,1.5,1.5,0,0,0-1,.37,1.29,1.29,0,0,0-.41,1,1.38,1.38,0,0,0,.37,1,1.48,1.48,0,0,0,1.14.4A1.58,1.58,0,0,0,151.11,156.2Zm-.17-3.52a1.07,1.07,0,0,0,.33-.79,1,1,0,0,0-.32-.73,1.27,1.27,0,0,0-1-.33,1.08,1.08,0,0,0-1.22,1.12.94.94,0,0,0,.37.79,1.41,1.41,0,0,0,.88.28A1.25,1.25,0,0,0,150.94,152.68Z"/><path class="cls-3" d="M157.66,151.17a5.08,5.08,0,0,1,.48,2.41,5.8,5.8,0,0,1-.43,2.4,2.12,2.12,0,0,1-2,1.36,2,2,0,0,1-1.91-1.11,5.1,5.1,0,0,1-.52-2.49,6.18,6.18,0,0,1,.31-2.08,2.14,2.14,0,0,1,2.12-1.62A2.1,2.1,0,0,1,157.66,151.17Zm-.9,4.74a4.45,4.45,0,0,0,.41-2.29,5.66,5.66,0,0,0-.3-2,1.14,1.14,0,0,0-1.16-.78,1.21,1.21,0,0,0-1.16.74,5.12,5.12,0,0,0-.37,2.19,5.36,5.36,0,0,0,.23,1.75,1.27,1.27,0,0,0,2.33.39Z"/><path class="cls-3" d="M159.38,156.64a2.57,2.57,0,0,1-.57-1.69h.93a2.32,2.32,0,0,0,.26,1,1.36,1.36,0,0,0,1.26.56,1.64,1.64,0,0,0,1.13-.38,1.24,1.24,0,0,0,.43-1,1.14,1.14,0,0,0-.45-1,2.28,2.28,0,0,0-1.25-.29h-.37v-.79l.23,0h.2a1.87,1.87,0,0,0,.83-.16,1,1,0,0,0,.57-1,1,1,0,0,0-.38-.82,1.41,1.41,0,0,0-.88-.29,1.3,1.3,0,0,0-1.24.6,2.05,2.05,0,0,0-.21.93H159a2.68,2.68,0,0,1,.32-1.35,2,2,0,0,1,1.92-1,2.61,2.61,0,0,1,1.68.48,1.71,1.71,0,0,1,.6,1.4,1.56,1.56,0,0,1-.35,1.06,1.48,1.48,0,0,1-.57.4,1.55,1.55,0,0,1,.88.59,1.8,1.8,0,0,1,.32,1.08,2.19,2.19,0,0,1-.67,1.66,2.64,2.64,0,0,1-1.9.64A2.24,2.24,0,0,1,159.38,156.64Z"/><path class="cls-4" d="M192.23,157.14V155.4h-3.12v-.87l3.26-4.52h.75v4.61h1v.78h-1v1.74Zm0-2.52v-3.23l-2.28,3.23Z"/><path class="cls-4" d="M195.35,158.19a.63.63,0,0,0,.48-.48,1.37,1.37,0,0,0,.07-.43s0,0,0-.06a.35.35,0,0,0,0-.06h-.54v-1.08h1.06v1a2.17,2.17,0,0,1-.24,1,1.09,1.09,0,0,1-.83.55Z"/><path class="cls-4" d="M198,155.54a3.07,3.07,0,0,1,1.29-1.24l1-.55a4.48,4.48,0,0,0,.9-.64,1.39,1.39,0,0,0,0-1.93,1.36,1.36,0,0,0-1-.37,1.3,1.3,0,0,0-1.27.7,2.49,2.49,0,0,0-.21,1h-.91a3.19,3.19,0,0,1,.34-1.52,2.15,2.15,0,0,1,2.05-1,2.11,2.11,0,0,1,2.35,2.13,2,2,0,0,1-.6,1.46,5.86,5.86,0,0,1-1.25.85l-.68.38a4.45,4.45,0,0,0-.76.51,1.86,1.86,0,0,0-.63,1h3.88v.84h-4.88A4.14,4.14,0,0,1,198,155.54Z"/><path class="cls-4" d="M206.37,157.14V155.4h-3.12v-.87l3.26-4.52h.75v4.61h1v.78h-1v1.74Zm0-2.52v-3.23l-2.28,3.23Z"/><path class="cls-4" d="M209.62,153a1.41,1.41,0,0,1-.39-1,1.86,1.86,0,0,1,.58-1.37,2.22,2.22,0,0,1,1.63-.57,2.26,2.26,0,0,1,1.6.54,1.67,1.67,0,0,1,.58,1.26,1.64,1.64,0,0,1-.34,1.08,2,2,0,0,1-.59.46,2.28,2.28,0,0,1,.7.47,1.8,1.8,0,0,1,.47,1.29,2.2,2.2,0,0,1-.63,1.59,2.36,2.36,0,0,1-1.78.65,2.75,2.75,0,0,1-1.76-.56,2,2,0,0,1-.72-1.64,1.82,1.82,0,0,1,1.22-1.79A1.77,1.77,0,0,1,209.62,153Zm2.88,3.22a1.22,1.22,0,0,0,.41-1,1.3,1.3,0,0,0-.42-1,1.62,1.62,0,0,0-1.08-.36,1.5,1.5,0,0,0-1,.37,1.29,1.29,0,0,0-.41,1,1.38,1.38,0,0,0,.37,1,1.48,1.48,0,0,0,1.14.4A1.58,1.58,0,0,0,212.5,156.2Zm-.17-3.52a1.07,1.07,0,0,0,.33-.79,1,1,0,0,0-.32-.73,1.27,1.27,0,0,0-1-.33,1.08,1.08,0,0,0-1.22,1.12.94.94,0,0,0,.37.79,1.41,1.41,0,0,0,.88.28A1.25,1.25,0,0,0,212.33,152.68Z"/><path class="cls-5" d="M13.5,171.46h1.59l-2.5,7.32H11.14l-2.48-7.32H10.3L11.89,177Z"/><path class="cls-5" d="M19.41,173.47a2.2,2.2,0,0,1,.94.8,2.66,2.66,0,0,1,.43,1.12,6.93,6.93,0,0,1,0,1.07H16.88a1.3,1.3,0,0,0,.57,1.14,1.44,1.44,0,0,0,.78.2,1.1,1.1,0,0,0,1.08-.62h1.45a1.77,1.77,0,0,1-.52,1,2.63,2.63,0,0,1-2,.79,3,3,0,0,1-1.91-.67,2.62,2.62,0,0,1-.83-2.17A2.93,2.93,0,0,1,16.2,174a2.61,2.61,0,0,1,1.94-.75A3.08,3.08,0,0,1,19.41,173.47Zm-2.12,1.22a1.48,1.48,0,0,0-.38.84h2.44a1.18,1.18,0,0,0-.38-.86,1.24,1.24,0,0,0-.84-.29A1.13,1.13,0,0,0,17.29,174.7Z"/><path class="cls-5" d="M25.91,173.67a1.79,1.79,0,0,1,.53,1.46v3.65H25v-3.29a1.52,1.52,0,0,0-.11-.66.8.8,0,0,0-.79-.42,1,1,0,0,0-1,.61,2.12,2.12,0,0,0-.14.82v2.93H21.55v-5.4h1.37v.79a2.39,2.39,0,0,1,.51-.6,1.78,1.78,0,0,1,1.1-.33A2.08,2.08,0,0,1,25.91,173.67Z"/><path class="cls-5" d="M27.2,174.42v-1H28V171.9h1.4v1.51h.88v1h-.88v2.86a.64.64,0,0,0,.08.41.93.93,0,0,0,.52.08h.28v1.06l-.67,0a1.8,1.8,0,0,1-1.37-.35,1,1,0,0,1-.24-.75v-3.33Z"/><path class="cls-5" d="M33.29,175.48a2.24,2.24,0,0,0,.57-.12.43.43,0,0,0,.31-.4.48.48,0,0,0-.23-.46,1.48,1.48,0,0,0-.69-.13.9.9,0,0,0-.72.25,1,1,0,0,0-.2.5H30.95a2.07,2.07,0,0,1,.4-1.17,2.32,2.32,0,0,1,1.94-.72,3.45,3.45,0,0,1,1.59.35,1.35,1.35,0,0,1,.69,1.33v2.48q0,.26,0,.63a.78.78,0,0,0,.08.38.5.5,0,0,0,.21.16v.21H34.33a1.59,1.59,0,0,1-.09-.31c0-.1,0-.21,0-.33a3,3,0,0,1-.68.54,2.06,2.06,0,0,1-1,.26,1.79,1.79,0,0,1-1.22-.42,1.49,1.49,0,0,1-.48-1.19,1.54,1.54,0,0,1,.78-1.45,3.48,3.48,0,0,1,1.25-.35Zm.87.66a1.56,1.56,0,0,1-.27.14,2.36,2.36,0,0,1-.38.1l-.32.06a2.13,2.13,0,0,0-.65.19.65.65,0,0,0-.33.6.63.63,0,0,0,.2.52.77.77,0,0,0,.5.16,1.48,1.48,0,0,0,.86-.27,1.14,1.14,0,0,0,.41-1Z"/><path class="cls-5" d="M37.9,177a1,1,0,0,0,.19.54,1.32,1.32,0,0,0,1,.28,1.49,1.49,0,0,0,.67-.12.4.4,0,0,0,.25-.37.4.4,0,0,0-.2-.36,8.17,8.17,0,0,0-1.48-.43A3.08,3.08,0,0,1,37,176a1.24,1.24,0,0,1-.38-1,1.69,1.69,0,0,1,.59-1.29,2.37,2.37,0,0,1,1.66-.54,3.05,3.05,0,0,1,1.66.4,1.74,1.74,0,0,1,.73,1.4H39.85a.83.83,0,0,0-.15-.43,1,1,0,0,0-.8-.29,1.14,1.14,0,0,0-.66.14.42.42,0,0,0-.2.34.37.37,0,0,0,.21.35,9,9,0,0,0,1.48.39,2.71,2.71,0,0,1,1.27.6,1.37,1.37,0,0,1,.42,1,1.65,1.65,0,0,1-.6,1.31A2.82,2.82,0,0,1,39,179a2.8,2.8,0,0,1-1.89-.54,1.75,1.75,0,0,1-.61-1.37Z"/><path class="cls-3" d="M134.09,174v-.69a3.63,3.63,0,0,0,1.35-.32,1.55,1.55,0,0,0,.57-1h.71v7.08h-1v-5Z"/><path class="cls-3" d="M139.47,177.46a3.07,3.07,0,0,1,1.29-1.24l1-.55a4.48,4.48,0,0,0,.9-.64,1.39,1.39,0,0,0,0-1.93,1.36,1.36,0,0,0-1-.37,1.3,1.3,0,0,0-1.27.7,2.49,2.49,0,0,0-.21,1h-.91a3.19,3.19,0,0,1,.34-1.52,2.15,2.15,0,0,1,2.05-1,2.11,2.11,0,0,1,2.35,2.13,2,2,0,0,1-.6,1.46,5.86,5.86,0,0,1-1.25.85l-.68.38a4.45,4.45,0,0,0-.76.51,1.86,1.86,0,0,0-.63,1H144v.84h-4.88A4.14,4.14,0,0,1,139.47,177.46Z"/><path class="cls-3" d="M145.27,180.11a.63.63,0,0,0,.48-.48,1.37,1.37,0,0,0,.08-.43.59.59,0,0,0,0-.06.35.35,0,0,0,0-.06h-.54V178h1.06v1a2.17,2.17,0,0,1-.24,1,1.08,1.08,0,0,1-.82.55Z"/><path class="cls-3" d="M152.58,172.07v.78a8.31,8.31,0,0,0-.91,1.16,11.63,11.63,0,0,0-1,1.78,12.19,12.19,0,0,0-.66,1.69q-.14.49-.37,1.58h-1a12.19,12.19,0,0,1,1.49-4.05,12.89,12.89,0,0,1,1.43-2h-3.93v-.9Z"/><path class="cls-3" d="M153.89,174v-.69a3.64,3.64,0,0,0,1.35-.32,1.55,1.55,0,0,0,.57-1h.71v7.08h-1v-5Z"/><path class="cls-3" d="M159.38,178.56a2.57,2.57,0,0,1-.57-1.69h.93a2.32,2.32,0,0,0,.26,1,1.36,1.36,0,0,0,1.26.56,1.64,1.64,0,0,0,1.13-.38,1.24,1.24,0,0,0,.43-1,1.14,1.14,0,0,0-.45-1,2.28,2.28,0,0,0-1.25-.29h-.37V175l.23,0h.2a1.87,1.87,0,0,0,.83-.16,1,1,0,0,0,.57-1,1,1,0,0,0-.38-.82,1.41,1.41,0,0,0-.88-.29,1.3,1.3,0,0,0-1.24.6,2.05,2.05,0,0,0-.21.93H159a2.68,2.68,0,0,1,.32-1.35,2,2,0,0,1,1.92-1,2.61,2.61,0,0,1,1.68.48,1.71,1.71,0,0,1,.6,1.4,1.56,1.56,0,0,1-.35,1.06,1.48,1.48,0,0,1-.57.4,1.55,1.55,0,0,1,.88.59,1.8,1.8,0,0,1,.32,1.08,2.19,2.19,0,0,1-.67,1.66,2.64,2.64,0,0,1-1.9.64A2.24,2.24,0,0,1,159.38,178.56Z"/><path class="cls-4" d="M194.44,177.34a1.13,1.13,0,0,0,.57,1,1.27,1.27,0,0,0,.62.15,1.39,1.39,0,0,0,1.09-.53,4.4,4.4,0,0,0,.64-2.17,1.66,1.66,0,0,1-.74.66,2.35,2.35,0,0,1-.95.19,2.12,2.12,0,0,1-1.63-.64,2.31,2.31,0,0,1-.6-1.65,2.63,2.63,0,0,1,.59-1.7,2.1,2.1,0,0,1,1.74-.73,2.14,2.14,0,0,1,2.15,1.4,4.93,4.93,0,0,1,.33,1.93,6.36,6.36,0,0,1-.39,2.31,2.27,2.27,0,0,1-2.21,1.68,2.14,2.14,0,0,1-1.58-.55,1.87,1.87,0,0,1-.54-1.37Zm2.33-1.81a1.48,1.48,0,0,0,.44-1.22,1.56,1.56,0,0,0-.39-1.17,1.38,1.38,0,0,0-1-.38,1.31,1.31,0,0,0-1,.44,1.71,1.71,0,0,0-.38,1.17,1.68,1.68,0,0,0,.34,1.1,1.32,1.32,0,0,0,1.08.41A1.53,1.53,0,0,0,196.77,175.53Z"/><path class="cls-4" d="M204.07,172.07v.78a8.3,8.3,0,0,0-.91,1.16,11.71,11.71,0,0,0-1,1.78,12.06,12.06,0,0,0-.66,1.69q-.15.49-.37,1.58h-1a12.15,12.15,0,0,1,1.49-4.05,12.82,12.82,0,0,1,1.43-2h-3.93v-.9Z"/><path class="cls-4" d="M205.38,174v-.69a3.63,3.63,0,0,0,1.35-.32,1.55,1.55,0,0,0,.57-1H208v7.08h-1v-5Z"/><path class="cls-6" d="M17,194.3v1.3H14.83v6H13.29v-6h-2.2v-1.3Z"/><path class="cls-6" d="M22.32,201a2.52,2.52,0,0,1-2.08.85,2.52,2.52,0,0,1-2.08-.85,3.36,3.36,0,0,1,0-4.07,2.5,2.5,0,0,1,2.08-.86,2.5,2.5,0,0,1,2.08.86,3.36,3.36,0,0,1,0,4.07Zm-1.13-.78a2.53,2.53,0,0,0,0-2.51,1.26,1.26,0,0,0-1.91,0,2.51,2.51,0,0,0,0,2.51,1.25,1.25,0,0,0,1.91,0Z"/><path class="cls-6" d="M23.46,197.26v-1h.75v-1.51h1.4v1.51h.88v1h-.88v2.86a.64.64,0,0,0,.08.41.93.93,0,0,0,.52.08h.28v1.06l-.67,0a1.8,1.8,0,0,1-1.37-.35,1,1,0,0,1-.24-.75v-3.33Z"/><path class="cls-6" d="M29.55,198.33a2.24,2.24,0,0,0,.57-.12.43.43,0,0,0,.3-.4.48.48,0,0,0-.23-.46,1.48,1.48,0,0,0-.69-.13.91.91,0,0,0-.72.25,1,1,0,0,0-.2.5H27.21a2.07,2.07,0,0,1,.4-1.17,2.33,2.33,0,0,1,1.94-.72,3.45,3.45,0,0,1,1.59.35,1.35,1.35,0,0,1,.69,1.33v2.48q0,.26,0,.63a.78.78,0,0,0,.08.38.5.5,0,0,0,.21.16v.21H30.59a1.58,1.58,0,0,1-.09-.31c0-.1,0-.21,0-.33a2.91,2.91,0,0,1-.68.54,2.05,2.05,0,0,1-1,.26,1.79,1.79,0,0,1-1.22-.42,1.49,1.49,0,0,1-.48-1.19,1.54,1.54,0,0,1,.78-1.45,3.47,3.47,0,0,1,1.25-.35Zm.87.66a1.53,1.53,0,0,1-.27.14,2.31,2.31,0,0,1-.38.1l-.32.06a2.12,2.12,0,0,0-.65.19.65.65,0,0,0-.33.6.63.63,0,0,0,.2.52.78.78,0,0,0,.5.16,1.48,1.48,0,0,0,.85-.27,1.14,1.14,0,0,0,.41-1Z"/><path class="cls-6" d="M34.51,201.62H33.1V194.3h1.42Z"/><path class="cls-6" d="M134.77,199.23a1.62,1.62,0,0,0,.14.72,1,1,0,0,0,.94.52,1,1,0,0,0,.73-.29,1.06,1.06,0,0,0,.31-.82.93.93,0,0,0-.57-.95,2.91,2.91,0,0,0-1-.13v-1a2.67,2.67,0,0,0,1-.13.83.83,0,0,0,.47-.84,1,1,0,0,0-.24-.67.88.88,0,0,0-.68-.26.85.85,0,0,0-.74.32,1.35,1.35,0,0,0-.23.85h-1.32a3.53,3.53,0,0,1,.18-1,2.29,2.29,0,0,1,.55-.78,1.89,1.89,0,0,1,.66-.39,2.86,2.86,0,0,1,.94-.13,2.49,2.49,0,0,1,1.66.53,1.78,1.78,0,0,1,.63,1.43,1.59,1.59,0,0,1-.38,1.07,1.3,1.3,0,0,1-.5.37,1,1,0,0,1,.56.33,1.78,1.78,0,0,1,.54,1.37,2.31,2.31,0,0,1-.63,1.61,2.41,2.41,0,0,1-1.87.69,2.27,2.27,0,0,1-2.12-1,3,3,0,0,1-.35-1.39Z"/><path class="cls-6" d="M143.5,195.16a7.1,7.1,0,0,1,0,5.5,2.41,2.41,0,0,1-3.86,0,7.1,7.1,0,0,1,0-5.5,2.41,2.41,0,0,1,3.86,0Zm-2.76,4.65a.82.82,0,0,0,.83.66.81.81,0,0,0,.83-.66,7,7,0,0,0,.2-1.9,7,7,0,0,0-.2-1.93.8.8,0,0,0-.83-.63.81.81,0,0,0-.83.63,6.67,6.67,0,0,0-.2,1.93A6.75,6.75,0,0,0,140.74,199.81Z"/><path class="cls-6" d="M145,202.62a1.11,1.11,0,0,0,.63-.4,1.47,1.47,0,0,0,.23-.78H145V200h1.53v1.29a3,3,0,0,1-.09.71,1.44,1.44,0,0,1-.33.64,1.72,1.72,0,0,1-.62.43,1.61,1.61,0,0,1-.49.15Z"/><path class="cls-6" d="M152.58,199.89h-.81v1.55h-1.39v-1.55h-2.85v-1.24l2.65-4.37h1.59v4.5h.81Zm-2.2-1.11v-3.1l-1.8,3.1Z"/><path class="cls-6" d="M157.65,195.16a7.1,7.1,0,0,1,0,5.5,2.41,2.41,0,0,1-3.86,0,7.1,7.1,0,0,1,0-5.5,2.41,2.41,0,0,1,3.86,0Zm-2.76,4.65a.82.82,0,0,0,.83.66.81.81,0,0,0,.83-.66,7,7,0,0,0,.2-1.9,7,7,0,0,0-.2-1.93.8.8,0,0,0-.83-.63.81.81,0,0,0-.83.63,6.67,6.67,0,0,0-.2,1.93A6.75,6.75,0,0,0,154.88,199.81Z"/><path class="cls-6" d="M160.25,199.51a1.36,1.36,0,0,0,.32.71.91.91,0,0,0,.69.25.94.94,0,0,0,.8-.37,1.52,1.52,0,0,0,.27-.93,1.62,1.62,0,0,0-.26-.93.9.9,0,0,0-.8-.38,1.36,1.36,0,0,0-.45.06.89.89,0,0,0-.5.44l-1.27-.06.5-4h4v1.2h-2.94l-.26,1.57a3,3,0,0,1,.51-.28,2.16,2.16,0,0,1,.75-.11,2.17,2.17,0,0,1,2.22,2.35,2.74,2.74,0,0,1-.64,1.78,2.33,2.33,0,0,1-1.92.79,2.54,2.54,0,0,1-1.69-.55,2.14,2.14,0,0,1-.73-1.56Z"/><path class="cls-6" d="M194.21,195.44a8.83,8.83,0,0,0-.89,1.12,9.14,9.14,0,0,0-1.5,3.3,6.77,6.77,0,0,0-.24,1.59h-1.47a8.65,8.65,0,0,1,1.27-4,9.52,9.52,0,0,1,1.31-1.81h-3.59l0-1.27h5.09Z"/><path class="cls-6" d="M195.09,202.62a1.11,1.11,0,0,0,.63-.4,1.46,1.46,0,0,0,.23-.78h-.86V200h1.53v1.29a3,3,0,0,1-.09.71,1.44,1.44,0,0,1-.33.64,1.71,1.71,0,0,1-.62.43,1.59,1.59,0,0,1-.49.15Z"/><path class="cls-6" d="M202.7,195.44a8.83,8.83,0,0,0-.89,1.12,9.14,9.14,0,0,0-1.5,3.3,6.77,6.77,0,0,0-.24,1.59H198.6a8.65,8.65,0,0,1,1.27-4,9.52,9.52,0,0,1,1.31-1.81h-3.59l0-1.27h5.09Z"/><path class="cls-6" d="M203.64,200a4,4,0,0,1,1.43-1.53,10.49,10.49,0,0,0,1.27-1,1.48,1.48,0,0,0,.44-1,1.15,1.15,0,0,0-.25-.76,1,1,0,0,0-1.6.18,2.41,2.41,0,0,0-.16.88h-1.38a3.46,3.46,0,0,1,.33-1.49,2.08,2.08,0,0,1,2-1.08,2.56,2.56,0,0,1,1.82.63,2.19,2.19,0,0,1,.68,1.68,2.27,2.27,0,0,1-.48,1.42,4.76,4.76,0,0,1-1,.92l-.57.4q-.53.38-.73.55a1.6,1.6,0,0,0-.33.39h3.14v1.25h-4.93A3.39,3.39,0,0,1,203.64,200Z"/><path class="cls-6" d="M210.31,199.23a1.63,1.63,0,0,0,.14.72,1,1,0,0,0,.94.52,1,1,0,0,0,.73-.29,1.06,1.06,0,0,0,.31-.82.93.93,0,0,0-.57-.95,2.91,2.91,0,0,0-1-.13v-1a2.66,2.66,0,0,0,1-.13.83.83,0,0,0,.47-.84,1,1,0,0,0-.24-.67.88.88,0,0,0-.68-.26.86.86,0,0,0-.74.32,1.35,1.35,0,0,0-.23.85H209a3.56,3.56,0,0,1,.18-1,2.3,2.3,0,0,1,.55-.78,1.9,1.9,0,0,1,.66-.39,2.86,2.86,0,0,1,.94-.13,2.49,2.49,0,0,1,1.67.53,1.78,1.78,0,0,1,.63,1.43,1.58,1.58,0,0,1-.38,1.07,1.29,1.29,0,0,1-.5.37,1,1,0,0,1,.56.33,1.78,1.78,0,0,1,.54,1.37,2.31,2.31,0,0,1-.63,1.61,2.41,2.41,0,0,1-1.87.69,2.26,2.26,0,0,1-2.12-1,3,3,0,0,1-.35-1.39Z"/><rect class="cls-4" width="231.35" height="29.21" rx="14.6" ry="14.6"/><path class="cls-7" d="M36.69,15.18a3.79,3.79,0,0,1-2.49.73H32.13v3.57H30.07V9.55h4.26a3.44,3.44,0,0,1,2.35.77,3,3,0,0,1,.88,2.38A3.08,3.08,0,0,1,36.69,15.18ZM35.1,11.6a1.67,1.67,0,0,0-1.1-.33H32.13v2.92H34a1.59,1.59,0,0,0,1.1-.36,1.46,1.46,0,0,0,.39-1.13A1.37,1.37,0,0,0,35.1,11.6Z"/><path class="cls-7" d="M46.86,18.59a4.33,4.33,0,0,1-3.25,1.16,4.33,4.33,0,0,1-3.25-1.16,5.35,5.35,0,0,1-1.51-4.09,5.25,5.25,0,0,1,1.51-4.09,4.33,4.33,0,0,1,3.25-1.16,4.33,4.33,0,0,1,3.25,1.16,5.26,5.26,0,0,1,1.5,4.09A5.37,5.37,0,0,1,46.86,18.59Zm-1.3-1.51a4.07,4.07,0,0,0,.72-2.59,4.07,4.07,0,0,0-.72-2.58,2.37,2.37,0,0,0-2-.91,2.4,2.4,0,0,0-2,.91,4,4,0,0,0-.73,2.59,4,4,0,0,0,.73,2.59,2.4,2.4,0,0,0,2,.91A2.37,2.37,0,0,0,45.57,17.08Z"/><path class="cls-7" d="M56.31,9.8a2.45,2.45,0,0,1,.93.69,3.07,3.07,0,0,1,.5.84,2.77,2.77,0,0,1,.18,1,3,3,0,0,1-.36,1.39,2,2,0,0,1-1.18,1,1.86,1.86,0,0,1,1,.78,3.27,3.27,0,0,1,.29,1.55v.67a5.05,5.05,0,0,0,.05.92.83.83,0,0,0,.38.57v.25H55.8q-.1-.33-.13-.53a4.75,4.75,0,0,1-.09-.85v-.92a1.88,1.88,0,0,0-.33-1.27A1.67,1.67,0,0,0,54,15.58H52v3.89H50V9.55h4.75A4.32,4.32,0,0,1,56.31,9.8ZM52,11.27v2.67h2.23a2.37,2.37,0,0,0,1-.16,1.12,1.12,0,0,0,.59-1.12,1.25,1.25,0,0,0-.57-1.21,2.06,2.06,0,0,0-1-.17Z"/><path class="cls-7" d="M66.58,9.55h2.35l3.51,9.93H70.19l-.66-2H65.88l-.67,2H63Zm-.14,6.18H69l-1.25-3.91Zm3.59-9-2,2H66.6l1.29-2Z"/><path class="cls-7" d="M80.06,9.8a2.45,2.45,0,0,1,.93.69,3.12,3.12,0,0,1,.5.84,2.79,2.79,0,0,1,.18,1,3,3,0,0,1-.36,1.39,2,2,0,0,1-1.18,1,1.85,1.85,0,0,1,1,.78,3.26,3.26,0,0,1,.29,1.55v.67a5,5,0,0,0,.05.92.83.83,0,0,0,.38.57v.25H79.55q-.09-.33-.13-.53a4.94,4.94,0,0,1-.09-.85v-.92A1.88,1.88,0,0,0,79,15.9a1.67,1.67,0,0,0-1.18-.32h-2v3.89h-2V9.55H78.5A4.32,4.32,0,0,1,80.06,9.8Zm-4.29,1.47v2.67H78a2.37,2.37,0,0,0,1-.16,1.12,1.12,0,0,0,.59-1.12A1.25,1.25,0,0,0,79,11.44a2.05,2.05,0,0,0-1-.17Z"/><path class="cls-7" d="M91,11.3H85.75v2.11h4.82v1.72H85.75v2.55h5.5v1.78H83.72V9.55H91Z"/><path class="cls-7" d="M95.7,9.55H98l3.51,9.93H99.31l-.66-2H95l-.67,2H92.16Zm-.14,6.18h2.54l-1.25-3.91Z"/><path class="cls-7" d="M112.47,9.76A3.28,3.28,0,0,1,114.16,11a4.43,4.43,0,0,1,.71,1.6,7.68,7.68,0,0,1,.19,1.64,6.59,6.59,0,0,1-.79,3.35,3.59,3.59,0,0,1-3.33,1.85h-4.28V9.55h4.28A5.22,5.22,0,0,1,112.47,9.76Zm-3.8,1.51v6.48h1.92a2.07,2.07,0,0,0,2.05-1.45,5.11,5.11,0,0,0,.32-1.89,4.66,4.66,0,0,0-.48-2.33,2,2,0,0,0-1.89-.81Z"/><path class="cls-7" d="M124,11.3H118.7v2.11h4.82v1.72H118.7v2.55h5.5v1.78h-7.52V9.55H124Z"/><path class="cls-7" d="M136.31,15.18a3.79,3.79,0,0,1-2.49.73h-2.07v3.57h-2.06V9.55H134a3.44,3.44,0,0,1,2.35.77,3,3,0,0,1,.88,2.38A3.08,3.08,0,0,1,136.31,15.18Zm-1.58-3.58a1.67,1.67,0,0,0-1.1-.33h-1.87v2.92h1.87a1.59,1.59,0,0,0,1.1-.36,1.46,1.46,0,0,0,.39-1.13A1.37,1.37,0,0,0,134.73,11.6Z"/><path class="cls-7" d="M146.19,11.3h-5.25v2.11h4.82v1.72h-4.82v2.55h5.5v1.78h-7.52V9.55h7.28Z"/><path class="cls-7" d="M154.41,9.8a2.45,2.45,0,0,1,.93.69,3.12,3.12,0,0,1,.5.84,2.79,2.79,0,0,1,.18,1,3,3,0,0,1-.36,1.39,2,2,0,0,1-1.18,1,1.85,1.85,0,0,1,1,.78,3.26,3.26,0,0,1,.29,1.55v.67a5,5,0,0,0,.05.92.83.83,0,0,0,.38.57v.25h-2.29q-.09-.33-.13-.53a4.94,4.94,0,0,1-.09-.85v-.92a1.88,1.88,0,0,0-.33-1.27,1.67,1.67,0,0,0-1.18-.32h-2v3.89h-2V9.55h4.75A4.32,4.32,0,0,1,154.41,9.8Zm-4.29,1.47v2.67h2.23a2.37,2.37,0,0,0,1-.16,1.12,1.12,0,0,0,.59-1.12,1.25,1.25,0,0,0-.57-1.21,2.05,2.05,0,0,0-1-.17Z"/><path class="cls-7" d="M159.5,16.41a2,2,0,0,0,.38,1,2.2,2.2,0,0,0,1.77.61,3.8,3.8,0,0,0,1.22-.16,1.16,1.16,0,0,0,.89-1.15.85.85,0,0,0-.43-.76,4.71,4.71,0,0,0-1.38-.46l-1.08-.24a6.7,6.7,0,0,1-2.18-.76,2.42,2.42,0,0,1-1-2.15,2.85,2.85,0,0,1,1-2.22,4.18,4.18,0,0,1,2.88-.88,4.42,4.42,0,0,1,2.71.83,3,3,0,0,1,1.18,2.41h-2a1.42,1.42,0,0,0-.8-1.27A2.75,2.75,0,0,0,161.4,11a2.35,2.35,0,0,0-1.31.32,1,1,0,0,0-.49.9.85.85,0,0,0,.48.79,6,6,0,0,0,1.32.41l1.74.41a4.43,4.43,0,0,1,1.72.72,2.43,2.43,0,0,1,.89,2,2.85,2.85,0,0,1-1.05,2.26,4.44,4.44,0,0,1-3,.9,4.85,4.85,0,0,1-3.08-.89,2.93,2.93,0,0,1-1.12-2.43Z"/><path class="cls-7" d="M174.85,18.59a5.15,5.15,0,0,1-6.5,0,5.35,5.35,0,0,1-1.51-4.09,5.25,5.25,0,0,1,1.51-4.09,5.15,5.15,0,0,1,6.5,0,5.26,5.26,0,0,1,1.5,4.09A5.37,5.37,0,0,1,174.85,18.59Zm-1.3-1.51a4.07,4.07,0,0,0,.72-2.59,4.07,4.07,0,0,0-.72-2.58,2.37,2.37,0,0,0-2-.91,2.4,2.4,0,0,0-2,.91,4,4,0,0,0-.73,2.59,4,4,0,0,0,.73,2.59,2.4,2.4,0,0,0,2,.91A2.37,2.37,0,0,0,173.55,17.08Z"/><path class="cls-7" d="M177.9,9.55h2.17L184,16.47V9.55h1.93v9.93h-2.07l-4-7v7H177.9Z"/><path class="cls-7" d="M190.73,9.55h2.35l3.51,9.93h-2.25l-.66-2H190l-.67,2h-2.17Zm-.14,6.18h2.54l-1.25-3.91Z"/><path class="cls-7" d="M197.86,9.55h2.07v8.14h5v1.78h-7Z"/><line class="cls-8" x1="120.6" y1="85.69" x2="120.6" y2="189.9"/><line class="cls-8" x1="176.77" y1="85.69" x2="176.77" y2="189.9"/><path class="cls-4" d="M212.54,61.32H191a2.23,2.23,0,0,1,0-.87,4.65,4.65,0,0,1,.38-1.3,2.7,2.7,0,0,1,1-1.11,14.11,14.11,0,0,1,2.52-1.25l1.88-.78c1.76-.79,2-1.4,2-1.5a1.3,1.3,0,0,0,0-.17c0-.13,0-.26,0-.4V53.6c-3.81,0-4.94-1.6-4.94-1.6s2.18,0,2-5.79,2.52-6.7,3.51-7.08c2.88-1.09,4.33.65,4.33.65,3.34-.31,4.26,3.34,3.85,7.49s1.87,4.8,1.87,4.8c-1.57,1.6-4.87,1.5-4.87,1.5v.77a1.32,1.32,0,0,0,0,.17c0,.1.26.7,2,1.5l1.88.78A14.09,14.09,0,0,1,211.14,58a2.7,2.7,0,0,1,1,1.11,4.64,4.64,0,0,1,.38,1.3,2.22,2.22,0,0,1,0,.87"/><path class="cls-3" d="M160.63,61.78H138.51V58.66A2.2,2.2,0,0,1,139.3,57a35.8,35.8,0,0,1,6.49-4.16.2.2,0,0,0,.11-.18V50.52a5,5,0,0,1-.63-1.71c-.24,0-.56-.34-.9-1.56-.44-1.55,0-1.86.37-1.86-.21-.9-.75-4.06,1.59-5.49a1.26,1.26,0,0,1-.46-1,17.63,17.63,0,0,0,4,0,2.65,2.65,0,0,1,2.9,1.73s2.62,0,1.6,4.68c.41,0,.85.26.4,1.86-.34,1.2-.66,1.54-.9,1.56a5,5,0,0,1-.63,1.71v2.1a.2.2,0,0,0,.11.18A35.8,35.8,0,0,1,159.83,57a2.19,2.19,0,0,1,.79,1.71Z"/></g></g></svg>
