<svg xmlns="http://www.w3.org/2000/svg" viewBox="0 0 110.49 106.48"><defs><style>.cls-1{isolation:isolate;}.cls-2{fill:#5a4494;opacity:0.5;mix-blend-mode:multiply;}</style></defs><title>plantas-cedis</title><g class="cls-1"><g id="Layer_2" data-name="Layer 2"><g id="_ÎÓÈ_1" data-name="—ÎÓÈ_1"><path class="cls-2" d="M77.34,63.89H33.15v42.59h44.2Zm-22.1,37.27c-9.15,0-16.57-7.15-16.57-16s7.42-16,16.57-16,16.57,7.15,16.57,16S64.39,101.14,55.24,101.15Z"/><path class="cls-2" d="M36.83,62.11H73.66L70.9,58.78a19.78,19.78,0,0,1-4.6-12.64H44.2a19.78,19.78,0,0,1-4.6,12.64Z"/><rect class="cls-2" x="42.35" y="37.27" width="25.78" height="7.1"/><path class="cls-2" d="M103.12,76.31l-2-3.92a14.59,14.59,0,0,1-1.65-6.72h-11a14.59,14.59,0,0,1-1.65,6.72l-2,3.92Z"/><rect class="cls-2" x="86.55" y="58.56" width="14.73" height="5.32"/><path class="cls-2" d="M79.18,106.48h7.37v-7.1h14.73v7.1h7.37V78.08H79.18Zm11-21.3H97.6v7.1H90.23Z"/><rect class="cls-2" x="53.4" y="30.17" width="3.68" height="3.55"/><path class="cls-2" d="M93.92,7.1H46a7.24,7.24,0,0,0-7.37,7.1A7.24,7.24,0,0,0,46,21.3h3.68a3.62,3.62,0,0,1,3.68,3.55v1.77h3.68V24.84a7.24,7.24,0,0,0-7.37-7.1H46a3.55,3.55,0,1,1,0-7.1H93.92Z"/><rect class="cls-2" x="99.44" width="11.05" height="3.55"/><rect class="cls-2" x="92.07" y="51.46" width="3.68" height="3.55"/><path class="cls-2" d="M82.87,37.27a5.43,5.43,0,0,0,5.52,5.32h1.84a1.81,1.81,0,0,1,1.84,1.77v3.55h3.68V44.36A5.43,5.43,0,0,0,90.23,39H88.39a1.78,1.78,0,1,1,0-3.55h22.1V31.94H88.39A5.43,5.43,0,0,0,82.87,37.27Z"/><rect class="cls-2" x="16.57" y="49.69" width="3.68" height="3.55"/><path class="cls-2" d="M7.37,35.49a5.43,5.43,0,0,0,5.52,5.32h1.84a1.81,1.81,0,0,1,1.84,1.77v3.55h3.68V42.59a5.43,5.43,0,0,0-5.52-5.32H12.89a1.78,1.78,0,1,1,0-3.55H36.83V30.17H12.89A5.43,5.43,0,0,0,7.37,35.49Z"/><rect class="cls-2" y="3.55" width="11.05" height="3.55"/><path class="cls-2" d="M55.24,71A14.21,14.21,0,1,0,70,85.18,14.47,14.47,0,0,0,55.24,71Zm-5.52,14.2H46a9.06,9.06,0,0,1,9.21-8.87v3.55A5.43,5.43,0,0,0,49.72,85.18Zm5.52,8.87V90.5a5.43,5.43,0,0,0,5.52-5.32h3.68A9.06,9.06,0,0,1,55.24,94.05Z"/><path class="cls-2" d="M25.78,76.31l-2-3.92a14.59,14.59,0,0,1-1.65-6.72H11A14.59,14.59,0,0,1,9.4,72.38l-2,3.92Z"/><rect class="cls-2" x="9.21" y="58.56" width="14.73" height="5.32"/><path class="cls-2" d="M1.84,106.48H9.21v-7.1H23.94v7.1h7.37V78.08H1.84Zm11-21.3h7.37v7.1H12.89Z"/></g></g></g></svg>
