<svg xmlns="http://www.w3.org/2000/svg" viewBox="0 0 62.94 62.94"><defs><style>.cls-1{isolation:isolate;}.cls-2{fill:#5a4494;opacity:0.5;mix-blend-mode:multiply;}</style></defs><title>plus</title><g class="cls-1"><g id="Layer_2" data-name="Layer 2"><g id="_ÎÓÈ_1" data-name="—ÎÓÈ_1"><path class="cls-2" d="M25.17,0A4.19,4.19,0,0,0,21,4.2V21H4.2A4.19,4.19,0,0,0,0,25.17V37.76A4.19,4.19,0,0,0,4.2,42H21V58.74a4.19,4.19,0,0,0,4.2,4.2H37.76a4.19,4.19,0,0,0,4.2-4.2V42H58.74a4.19,4.19,0,0,0,4.2-4.2V25.17a4.19,4.19,0,0,0-4.2-4.2H42V4.2A4.19,4.19,0,0,0,37.76,0Z"/></g></g></g></svg>
