<svg xmlns="http://www.w3.org/2000/svg" viewBox="0 0 93.58 93.58"><defs><style>.cls-1{isolation:isolate;}.cls-2{fill:#5a4494;opacity:0.5;mix-blend-mode:multiply;}</style></defs><title>reloj</title><g class="cls-1"><g id="Layer_2" data-name="Layer 2"><g id="_ÎÓÈ_1" data-name="—ÎÓÈ_1"><path class="cls-2" d="M46.79,0A46.79,46.79,0,1,0,93.58,46.79,46.85,46.85,0,0,0,46.79,0ZM18.49,18.49a2,2,0,0,1,2.05-.57c.11,0,.23.11.46.11s.23.11.46.23.23.23.34.23a2.25,2.25,0,0,1,.68,1.6v.46c0,.11-.11.23-.11.46s-.11.23-.23.34-.23.23-.23.34-.23.23-.34.23-.23.11-.46.23-.23.11-.46.11H20.2a2.25,2.25,0,0,1-1.6-.68c-.11-.11-.23-.23-.23-.34s-.11-.23-.23-.34-.11-.23-.11-.46V20A1.92,1.92,0,0,1,18.49,18.49Zm3.88,55.35c0,.11-.11.23-.11.46s-.11.23-.23.34-.23.23-.23.34a2.28,2.28,0,0,1-3.88-1.6v-.46c0-.11.11-.23.11-.46s.11-.23.23-.46.23-.23.23-.34.23-.23.34-.23.23-.11.34-.23.23-.11.46-.11h.91c.11,0,.23.11.46.11s.23.11.46.23.23.23.34.23.23.23.23.34.11.23.23.46a.69.69,0,0,1,.11.46v.46C22.48,73.61,22.48,73.72,22.37,73.83ZM48.84,85.36c-.11.23-.23.57-.46.68a2.25,2.25,0,0,1-1.6.68h-.46c-.11,0-.34-.11-.46-.11s-.23-.11-.34-.23L45.19,86a2.25,2.25,0,0,1-.68-1.6V84c0-.11.11-.34.11-.46s.11-.23.23-.34.11-.23.23-.34.23-.23.34-.23.23-.11.34-.23.23-.11.46-.11a2.59,2.59,0,0,1,2.05.57c.11.11.23.23.23.34s.11.23.23.34.11.23.11.46v.46A.69.69,0,0,1,48.84,85.36Zm.23-38.57a2.29,2.29,0,0,1-2.28,2.28H8.67c-.11,0-.11,0-.23-.11H8.22c-.11,0-.11-.11-.23-.11a.11.11,0,0,1-.11-.11l-.11-.11c-.11,0-.11-.11-.23-.23a.11.11,0,0,0-.11-.11,2.49,2.49,0,0,1-.34-.57A.11.11,0,0,0,7,47.59c0-.11,0-.11-.11-.23s0-.11-.11-.23v-.46A1.45,1.45,0,0,1,6.85,46v-.11h0a2.49,2.49,0,0,1,.34-.57l.11-.11h0a3.31,3.31,0,0,1,1.83-.68H44.51V8.67c0-.11,0-.11.11-.23V8.22c0-.11.11-.11.11-.23a.11.11,0,0,1,.11-.11A.11.11,0,0,1,45,7.76c.11-.11.11-.23.23-.23l.11-.11c.23-.11.34-.34.57-.34H46a1.23,1.23,0,0,1,.8-.23H47a.86.86,0,0,1,.46.11h.11c.11,0,.23.11.34.11a.11.11,0,0,1,.11.11c.11.11.23.11.34.23h.11c.11.11.11.23.23.23l.11.11.11.11c0,.11.11.11.11.23v.23c0,.11,0,.11.11.23V46.79Zm26,28.3a1.84,1.84,0,0,1-.8.46,2.22,2.22,0,0,1-.91.11,2.51,2.51,0,0,1-.91-.11,2.86,2.86,0,0,1-.8-.46c-.11-.11-.23-.23-.23-.34s-.11-.23-.23-.34-.11-.23-.11-.46V73c0-.11.11-.23.11-.46s.11-.23.23-.46.23-.23.23-.34.23-.23.34-.23.23-.11.46-.23a.69.69,0,0,1,.46-.11h.91c.11,0,.23.11.46.11s.23.11.34.23.23.23.34.23.23.23.23.34.11.23.23.46a.69.69,0,0,1,.11.46v.46A2,2,0,0,1,75.09,75.09Zm.57-54.43c0,.11-.11.23-.11.46s-.11.23-.23.34-.23.23-.23.34-.23.23-.34.23-.23.11-.34.23-.23.11-.46.11H73c-.11,0-.23-.11-.46-.11s-.23-.11-.46-.23-.23-.23-.34-.23-.23-.23-.23-.34-.11-.23-.23-.34-.11-.23-.11-.46V20.2a2.25,2.25,0,0,1,.68-1.6c.11-.11.23-.23.34-.23s.23-.11.46-.23.23-.11.46-.11a2.59,2.59,0,0,1,2.05.57,2.25,2.25,0,0,1,.68,1.6C75.66,20.31,75.66,20.43,75.66,20.66Zm10,28.07c-.11.11-.23.11-.34.23s-.23.11-.46.11h-.46a2.34,2.34,0,0,1-2.28-2.28v-.46c0-.11.11-.23.11-.46s.11-.23.23-.34.11-.23.23-.34S83,45,83.08,45s.23-.11.34-.23.23-.11.46-.11a2.59,2.59,0,0,1,2.05.57c.11.11.23.23.23.34s.11.23.23.34.11.23.11.46v.46a2.25,2.25,0,0,1-.68,1.6C85.93,48.5,85.82,48.61,85.7,48.73Z"/></g></g></g></svg>
