<svg xmlns="http://www.w3.org/2000/svg" viewBox="0 0 431.73 431.73"><defs><style>.cls-1{fill:#2694b6;}.cls-2{fill:#fff;}</style></defs><title>ods16</title><g id="Layer_2" data-name="Layer 2"><g id="Capa_1" data-name="Capa 1"><g id="_Group_" data-name="&lt;Group&gt;"><path id="_Path_" data-name="&lt;Path&gt;" class="cls-1" d="M215.86,431.73c119.22,0,215.86-96.64,215.86-215.86S335.08,0,215.86,0,0,96.65,0,215.87,96.64,431.73,215.86,431.73"/><g id="_Group_2" data-name="&lt;Group&gt;"><path id="_Path_2" data-name="&lt;Path&gt;" class="cls-2" d="M256.52,256.89s-2.67,3.54-1.89,7,4.71,5.5,4.71,5.5,2.67-3.54,1.89-7-4.71-5.5-4.71-5.5"/><path id="_Path_3" data-name="&lt;Path&gt;" class="cls-2" d="M252.18,277.1s2.67-3.54,1.89-7-4.72-5.5-4.72-5.5-2.67,3.54-1.89,7,4.72,5.5,4.72,5.5"/><path id="_Path_4" data-name="&lt;Path&gt;" class="cls-2" d="M263.13,273.31s2.81,2.84,6,2.55,5.58-3.58,5.58-3.58-2.81-2.84-6-2.55-5.58,3.59-5.58,3.59"/><path id="_Path_5" data-name="&lt;Path&gt;" class="cls-2" d="M267.74,258.15c-2.6,2.65-2.24,7.32-2.24,7.32s4.59.4,7.21-2.24,2.24-7.32,2.24-7.32-4.6-.4-7.21,2.24"/><path id="_Path_6" data-name="&lt;Path&gt;" class="cls-2" d="M262,283.82c3.19.38,6.2-2.36,6.2-2.36s-2.18-3.35-5.37-3.73-6.2,2.37-6.2,2.37,2.18,3.35,5.37,3.73"/><path id="_Path_7" data-name="&lt;Path&gt;" class="cls-2" d="M264.84,335.16H241a3.38,3.38,0,1,0,0,6.75h23.87a3.38,3.38,0,0,0,0-6.75"/><path id="_Path_8" data-name="&lt;Path&gt;" class="cls-2" d="M264.84,372.38H241a3.38,3.38,0,1,0,0,6.75h23.87a3.38,3.38,0,0,0,0-6.75"/><path id="_Path_9" data-name="&lt;Path&gt;" class="cls-2" d="M157.5,327a16.31,16.31,0,0,0-1.66-.42s.61.19,1.66.42"/><path id="_Compound_Path_" data-name="&lt;Compound Path&gt;" class="cls-2" d="M196.18,341.57c1.57,0,3.15,0,4.73-.12v12.47l-4.73-.11Zm67.77,2.7H241.84a1.92,1.92,0,0,0-1.92,1.92v6.7l-14.44,1.59-21.1-.48V341.11a58.17,58.17,0,0,0,8.39-1.7c20.3-5.73,24.73-18.38,24.29-30-.44-11.83,3.34-16.42,8.78-18.46a25,25,0,0,1,4.51-1.2,36.26,36.26,0,0,0,1.95,10.31c.48,0,1-.06,1.44-.12a34.09,34.09,0,0,1-2-10.39,25.46,25.46,0,0,1,4.81-.14,30.87,30.87,0,0,1-4.58-3.26c.91-5.6,4.25-9,7.69-12.55a41.1,41.1,0,0,0,5.38-6.32l-1.2-.78a39.56,39.56,0,0,1-5.2,6.1c-3.35,3.43-6.73,6.93-7.88,12.5a47.15,47.15,0,0,1-3.47-3.5c-5-5.61-11.46-1.49-20.65,7.06s-20.76,8.85-32-2.71c-14.9-15.25-27.9-15.16-36.81-14.3,6.1,2.59,8.23,8.29,11.31,22.77,3.23,15.19,11.39,22.07,22.55,23-5.17.84-6.51,1.56-14.83,7.3-6.49,4.48-15.63,3.06-19.33,2.23,6.8,2.12,14.85,9.25,22.06,11.73a53.43,53.43,0,0,0,13.15,2.7v12.33l-40-.87v8.61l72.79-1.62,14.44,1.59v6.69a1.92,1.92,0,0,0,1.92,1.92H264a1.93,1.93,0,0,0,1.93-1.92V346.19a1.93,1.93,0,0,0-1.93-1.92"/><path id="_Path_10" data-name="&lt;Path&gt;" class="cls-2" d="M152.91,359.89a3.08,3.08,0,0,1-2.83,3.29h-1.7a3.09,3.09,0,0,1-2.83-3.29v-5.95a3.08,3.08,0,0,1,2.83-3.28h1.7a3.08,3.08,0,0,1,2.83,3.28Z"/><polygon id="_Path_11" data-name="&lt;Path&gt;" class="cls-2" points="298.18 144.81 298.18 161.3 298.32 161.3 309.4 149.8 309.54 149.8 309.54 221.7 325.34 221.7 325.34 127.77 312.73 127.77 298.18 144.81"/><path id="_Compound_Path_2" data-name="&lt;Compound Path&gt;" class="cls-2" d="M365,200.51c0,6-2.22,9.41-7.63,9.41s-7.33-3.6-7.33-9.41V183.33c.27-5.26,2.49-8.59,7.48-8.59,5.39,0,7.48,3.33,7.48,9.43Zm15.65-1.39V185.27c0-15.37-6.09-23.14-17.46-23.14-6.66,0-10.67,3-13,7.62H350V149.53c0-5.69,1.79-9.7,7.48-9.7s7.33,3.32,7.33,9.14v6.24h14.41v-5c0-13.86-4.56-23.55-22-23.55-16.62,0-22.86,10.67-22.86,25.36v45.71c0,14.55,6.37,25.07,23,25.07s23.28-9.14,23.28-23.68"/><path id="_Compound_Path_3" data-name="&lt;Compound Path&gt;" class="cls-2" d="M67.05,118.36V131h2c1.84,0,2.65-.9,2.65-2.65V121c0-1.75-.8-2.61-2.65-2.61Zm-5.41-4.41h8c5.45,0,7.44,2.71,7.44,7.21v6.78c0,4.51-2,7.26-7.44,7.26H67.05v10.91H61.64Z"/><path id="_Compound_Path_4" data-name="&lt;Compound Path&gt;" class="cls-2" d="M83.93,135.92h4.32L86.12,123h-.05Zm-6.79,10.2L83.22,114h6.17l6.12,32.16H90l-1-5.88H83.22l-1,5.88Z"/><polygon id="_Path_12" data-name="&lt;Path&gt;" class="cls-2" points="102.99 141.7 111.19 141.7 111.19 146.12 97.34 146.12 97.34 141.7 105.83 118.36 98.2 118.36 98.2 113.95 111.53 113.95 111.53 118.36 102.99 141.7"/><polygon id="_Path_13" data-name="&lt;Path&gt;" class="cls-2" points="114.8 140.94 114.13 148.63 117.17 148.63 119.92 141.37 119.92 140.94 114.8 140.94"/><path id="_Path_14" data-name="&lt;Path&gt;" class="cls-2" d="M142.35,113.95v24.86c0,4.65-2,7.68-7.45,7.68-5.59,0-7.11-3.08-7.11-7.15v-6.41h5.13v6.5c0,1.61.57,2.56,2,2.56s2-.95,2-2.61V113.95Z"/><path id="_Path_15" data-name="&lt;Path&gt;" class="cls-2" d="M161.08,113.95v24.34c0,5-2.13,8.2-7.64,8.2-5.7,0-8.06-3.22-8.06-8.2V113.95h5.4v24.86c0,1.9.76,3.18,2.66,3.18s2.65-1.28,2.65-3.18V113.95Z"/><path id="_Path_16" data-name="&lt;Path&gt;" class="cls-2" d="M163.86,139.18v-4.31h5v4.41c0,1.8.81,2.85,2.66,2.85S174,141,174,139.28V138c0-1.84-.76-3-2.42-4.54l-3.18-3.18c-3.08-3-4.51-4.89-4.51-8.58v-1.09c0-4,2.33-7.07,7.6-7.07s7.54,2.65,7.54,7.31v2.61h-4.93v-2.8c0-1.85-.86-2.75-2.56-2.75a2.38,2.38,0,0,0-2.56,2.66v.67c0,1.8,1,2.84,2.56,4.36L175,129c2.95,3,4.37,4.78,4.37,8.35v1.56c0,4.41-2.37,7.54-7.87,7.54s-7.64-3.08-7.64-7.31"/><polygon id="_Path_17" data-name="&lt;Path&gt;" class="cls-2" points="180.88 113.95 195.25 113.95 195.25 118.36 190.79 118.36 190.79 146.11 185.34 146.11 185.34 118.36 180.88 118.36 180.88 113.95"/><rect id="_Path_18" data-name="&lt;Path&gt;" class="cls-2" x="197.76" y="113.95" width="5.4" height="32.16"/><path id="_Path_19" data-name="&lt;Path&gt;" class="cls-2" d="M206.3,137.81V122.25c0-5,2.37-8.68,8.06-8.68,6,0,7.64,3.32,7.64,8.06v3.79h-4.93v-4.22c0-2-.66-3.14-2.61-3.14s-2.75,1.38-2.75,3.33v17.27c0,1.94.81,3.32,2.75,3.32s2.61-1.23,2.61-3.13v-5.93H222v5.55c0,4.61-1.9,8-7.64,8s-8.06-3.7-8.06-8.68"/><rect id="_Path_20" data-name="&lt;Path&gt;" class="cls-2" x="224.92" y="113.95" width="5.41" height="32.16"/><path id="_Compound_Path_5" data-name="&lt;Compound Path&gt;" class="cls-2" d="M239.39,135.92h4.32L241.58,123h-.05Zm-6.79,10.2L238.68,114h6.17L251,146.12h-5.55l-1-5.88h-5.74l-.95,5.88Z"/><polygon id="_Path_21" data-name="&lt;Path&gt;" class="cls-2" points="61.64 158.99 74.54 158.99 74.54 163.41 67.05 163.41 67.05 172.61 72.41 172.61 72.41 176.97 67.05 176.97 67.05 186.74 74.54 186.74 74.54 191.16 61.64 191.16 61.64 158.99"/><rect id="_Path_22" data-name="&lt;Path&gt;" class="cls-2" x="82.42" y="159" width="5.4" height="32.16"/><polygon id="_Path_23" data-name="&lt;Path&gt;" class="cls-2" points="95.5 170.95 95.5 191.16 90.94 191.16 90.94 158.99 96.26 158.99 102.1 177.44 102.1 158.99 106.6 158.99 106.6 191.16 101.86 191.16 95.5 170.95"/><path id="_Path_24" data-name="&lt;Path&gt;" class="cls-2" d="M109.39,184.23v-4.31h5v4.41c0,1.81.81,2.85,2.66,2.85s2.47-1.13,2.47-2.85v-1.23c0-1.84-.77-3-2.42-4.55l-3.18-3.18c-3.08-3-4.51-4.89-4.51-8.58v-1.09c0-4,2.33-7.07,7.59-7.07s7.54,2.65,7.54,7.31v2.61h-4.93v-2.81c0-1.84-.86-2.75-2.56-2.75a2.37,2.37,0,0,0-2.56,2.66v.67c0,1.8,1,2.84,2.56,4.36l3.47,3.41c2.94,3,4.36,4.79,4.36,8.35V184c0,4.41-2.36,7.54-7.87,7.54s-7.64-3.08-7.64-7.31"/><polygon id="_Path_25" data-name="&lt;Path&gt;" class="cls-2" points="126.41 158.99 140.78 158.99 140.78 163.41 136.32 163.41 136.32 191.16 130.87 191.16 130.87 163.41 126.41 163.41 126.41 158.99"/><rect id="_Path_26" data-name="&lt;Path&gt;" class="cls-2" x="143.29" y="159" width="5.4" height="32.16"/><polygon id="_Path_27" data-name="&lt;Path&gt;" class="cls-2" points="151.2 158.99 165.58 158.99 165.58 163.41 161.12 163.41 161.12 191.16 155.66 191.16 155.66 163.41 151.2 163.41 151.2 158.99"/><path id="_Path_28" data-name="&lt;Path&gt;" class="cls-2" d="M183.78,159v24.34c0,5-2.13,8.21-7.64,8.21-5.69,0-8.06-3.23-8.06-8.21V159h5.41v24.86c0,1.9.76,3.18,2.66,3.18s2.65-1.29,2.65-3.18V159Z"/><path id="_Path_29" data-name="&lt;Path&gt;" class="cls-2" d="M186.85,182.85V167.3c0-5,2.37-8.68,8.06-8.68,6,0,7.64,3.32,7.64,8.06v3.79h-4.93v-4.22c0-2-.67-3.13-2.61-3.13s-2.75,1.38-2.75,3.32V183.7c0,2,.8,3.33,2.75,3.33s2.61-1.23,2.61-3.13V178h4.93v5.55c0,4.61-1.9,8-7.64,8s-8.06-3.7-8.06-8.68"/><rect id="_Path_30" data-name="&lt;Path&gt;" class="cls-2" x="205.48" y="159" width="5.41" height="32.16"/><path id="_Compound_Path_6" data-name="&lt;Compound Path&gt;" class="cls-2" d="M225,183.71V166.45c0-2-.86-3.33-2.79-3.33s-2.76,1.38-2.76,3.33v17.26c0,1.94.86,3.32,2.76,3.32s2.79-1.38,2.79-3.32m-11-.85V167.3c0-5,2.46-8.68,8.16-8.68s8.2,3.66,8.2,8.68v15.56c0,5-2.46,8.68-8.2,8.68s-8.16-3.7-8.16-8.68"/><polygon id="_Path_31" data-name="&lt;Path&gt;" class="cls-2" points="238.02 170.95 238.02 191.16 233.46 191.16 233.46 158.99 238.77 158.99 244.61 177.44 244.61 158.99 249.12 158.99 249.12 191.16 244.37 191.16 238.02 170.95"/><polygon id="_Path_32" data-name="&lt;Path&gt;" class="cls-2" points="252.19 158.99 265.09 158.99 265.09 163.41 257.59 163.41 257.59 172.61 262.95 172.61 262.95 176.97 257.59 176.97 257.59 186.74 265.09 186.74 265.09 191.16 252.19 191.16 252.19 158.99"/><path id="_Path_33" data-name="&lt;Path&gt;" class="cls-2" d="M267.46,184.23v-4.31h5v4.41c0,1.81.81,2.85,2.66,2.85,1.7,0,2.46-1.13,2.46-2.85v-1.23c0-1.84-.77-3-2.42-4.55L272,175.36c-3.08-3-4.51-4.89-4.51-8.58v-1.09c0-4,2.33-7.07,7.59-7.07s7.54,2.65,7.54,7.31v2.61h-4.93v-2.81c0-1.84-.86-2.75-2.56-2.75a2.38,2.38,0,0,0-2.56,2.66v.67c0,1.8,1,2.84,2.56,4.36l3.46,3.41c2.94,3,4.36,4.79,4.36,8.35V184c0,4.41-2.36,7.54-7.87,7.54s-7.64-3.08-7.64-7.31"/><path id="_Path_34" data-name="&lt;Path&gt;" class="cls-2" d="M61.36,229.27V225h5v4.41c0,1.8.81,2.85,2.65,2.85s2.47-1.14,2.47-2.85v-1.24c0-1.84-.77-3-2.42-4.55l-3.18-3.17c-3.08-3-4.51-4.89-4.51-8.59v-1.09c0-4,2.33-7.07,7.59-7.07s7.54,2.65,7.54,7.31v2.61H71.6v-2.8c0-1.85-.86-2.75-2.56-2.75a2.37,2.37,0,0,0-2.56,2.66v.67c0,1.8,1,2.84,2.56,4.36l3.47,3.41c2.95,3,4.36,4.79,4.36,8.35V229c0,4.41-2.36,7.54-7.87,7.54s-7.64-3.08-7.64-7.31"/><path id="_Compound_Path_7" data-name="&lt;Compound Path&gt;" class="cls-2" d="M90.66,228.75V211.49c0-2-.85-3.32-2.79-3.32s-2.75,1.37-2.75,3.32v17.26c0,2,.85,3.32,2.75,3.32s2.79-1.37,2.79-3.32m1.61-27-8.49,1.09v-3L92.28,198ZM79.71,227.9V212.34c0-5,2.46-8.68,8.16-8.68s8.2,3.66,8.2,8.68V227.9c0,5-2.46,8.68-8.2,8.68s-8.16-3.7-8.16-8.68"/><polygon id="_Path_35" data-name="&lt;Path&gt;" class="cls-2" points="99.14 204.03 104.55 204.03 104.55 231.79 111 231.79 111 236.2 99.14 236.2 99.14 204.03"/><rect id="_Path_36" data-name="&lt;Path&gt;" class="cls-2" x="113.47" y="204.04" width="5.4" height="32.16"/><path id="_Compound_Path_8" data-name="&lt;Compound Path&gt;" class="cls-2" d="M129.68,231.79c2.23,0,3.08-1.33,3.08-3.27V211.68c0-1.9-.85-3.23-3.08-3.23h-2.27v23.34Zm8.49-19.12v14.9c0,4.93-2,8.64-7.83,8.64H122V204h8.35c5.78,0,7.83,3.66,7.83,8.64"/><path id="_Compound_Path_9" data-name="&lt;Compound Path&gt;" class="cls-2" d="M146.47,226h4.31l-2.13-12.91h0Zm-6.79,10.2L145.75,204h6.17L158,236.2h-5.55l-1-5.88h-5.74l-.95,5.88Z"/><path id="_Path_37" data-name="&lt;Path&gt;" class="cls-2" d="M159.5,229.27V225h5v4.41c0,1.8.81,2.85,2.66,2.85,1.7,0,2.46-1.14,2.46-2.85v-1.24c0-1.84-.77-3-2.42-4.55l-3.18-3.17c-3.08-3-4.51-4.89-4.51-8.59v-1.09c0-4,2.33-7.07,7.59-7.07s7.54,2.65,7.54,7.31v2.61h-4.93v-2.8c0-1.85-.86-2.75-2.56-2.75a2.38,2.38,0,0,0-2.56,2.66v.67c0,1.8,1,2.84,2.56,4.36l3.46,3.41c2.95,3,4.36,4.79,4.36,8.35V229c0,4.41-2.36,7.54-7.87,7.54s-7.64-3.08-7.64-7.31"/></g></g></g></g></svg>
