<svg xmlns="http://www.w3.org/2000/svg" viewBox="0 0 431.73 431.73"><defs><style>.cls-1{fill:#49773c;}.cls-2{fill:#fff;}</style></defs><title>ods13</title><g id="Layer_2" data-name="Layer 2"><g id="Capa_1" data-name="Capa 1"><g id="_Group_" data-name="&lt;Group&gt;"><path id="_Path_" data-name="&lt;Path&gt;" class="cls-1" d="M215.86,431.73c119.22,0,215.86-96.64,215.86-215.86S335.08,0,215.86,0,0,96.65,0,215.87,96.64,431.73,215.86,431.73"/><g id="_Group_2" data-name="&lt;Group&gt;"><path id="_Compound_Path_" data-name="&lt;Compound Path&gt;" class="cls-2" d="M243.42,343.34c-.75-.21-3.91-4.73-1.41-7.71.41-.49-.84-1.93-.5-2,1.37-.11,2.09.77,2.45,2,0,.56,0,1.12,0,1.69a30.29,30.29,0,0,1-.59,5.95M235.72,358a4.59,4.59,0,0,1-.88-.34c-1.53-.81-1.35.49-2.1.2s.85-2.11-1.42-.58-1.65-.24-2.63-2.83,1.14-5.55,2.91-6.23a34.21,34.21,0,0,1,5.1-1.39c3.37-.87,4.09-3,4.7-1.68l.33.67a4.74,4.74,0,0,1,.44,1.9A29.34,29.34,0,0,1,235.72,358m-19.81,8.48a27.18,27.18,0,0,1-7.89-1.17,1.23,1.23,0,0,1-.34-1.43c.87-2.35,3.46-3.27,5.5-3.47,4.56-.46,10.54,3.07,11.49,2.5s2.88-3.17,5.71-3.06a4.31,4.31,0,0,1,2.56.66,27.34,27.34,0,0,1-17,6m-3.82-19c-.38.65-1.44,5.55-2.15,5s.29-5.68.49-6.07c1.11-2.11,3.51-2,1.66,1.09m11.48-5.78a2.47,2.47,0,0,1-2.69-.25c-.71-.56.45-1.51.87-1.55.94-.09,2.36,1.28,1.82,1.8m12.39,0c-.3-.12-.56-.41-.79-1.13s.35-1.12.92-.83a2.78,2.78,0,0,1,1.32,1.67c0,.47-1.13.42-1.44.29m1.2.89c.94-.08,2.36,1.28,1.8,1.8a2.44,2.44,0,0,1-2.68-.25c-.71-.57.44-1.51.87-1.55M207,354.31A8.37,8.37,0,0,1,205.3,358a5.69,5.69,0,0,1-3.83,1.52c-1.28-.1-1.45-3.63-1.45-5.45,0-.63-.86,1.23-1.31-2.55-.29-2.42-1.79.25-1.89-1.37s-.86-1.29-1.65-2.3-1.76.1-2.85.61-.64.77-2.19.26l-.1,0a30,30,0,0,1-2.2-11.33c0-1,0-2,.14-2.91a1.49,1.49,0,0,1,.17-.27c1.49-1.82,1.45-2.25,1.45-2.25l1.65-.59a27,27,0,0,1,4.6,1.19c1.63.64,4.19,2.07,5.68,1.44,1.08-.46,1.93-1.07,1.82-2-.12-1.17-1-1.45-2.08-.66-.4.29-1.24-1.76-1.9-1.66s.82,2.41.26,2.51-1.7-2.4-1.89-2.81-1.06-1.41-1.85-.64c-1.66,1.63-4.35,1.53-4.89,2-1.65,1.27-2.08-.42-2-1.45.07-.24.13-.47.2-.71a3.27,3.27,0,0,1,3.13-.36c.72.5,1.25-.13,1.53-.43s.19-.78,0-1.18.37-.7.74-.8a20,20,0,0,0,2.13-1.32,6.76,6.76,0,0,1,4.27,0,2.2,2.2,0,0,0,2.8-.59,7.6,7.6,0,0,1,2-1.76c.41-.2-1-1.56-2.16-.07s-1.75,1.62-2.3,1.62-3.79-.84-4.19-1.9,1-1.85,2.21-2.46,4.47-.58,5.31-.78c1.7-.39,3.87-1.27,5-.5s-4.57,2.1-2.72,3.14c.66.38,3.66-1.79,4.69-2.34,2.41-1.29-2.34-1.72-1.73-4.34.7-3-5.84-1.82-9.09-1.57a27.21,27.21,0,0,1,15.12-4.59c13.25,0,24.35,9.52,27.31,22.32a4.7,4.7,0,0,1-.14,1.35,1.81,1.81,0,0,1-3.29.26c-.29-.43-1.49-1.61-1.45.41s1.89,2.23.09,3.43a6.81,6.81,0,0,1-3,1.23c-.83.3-1.63,2.38-1.43,3.49s2.76,4.15.86,4c-.44,0-3.8-2.41-4.36-3.94s-1.22-3.19-1.67-4.4a1.66,1.66,0,0,0-2.65-.81c-1,.71.28,1.42-.44,2.94s-1.23,2.87-2.28,1.62c-2.74-3.26-6.73-1.65-7.35-5.28-.34-2-2-1.78-3.34-2.89s-2.13-1.71-2.36-.91,4.29,4.4,4.61,5.35c.48,1.4-1.35,2.64-2.68,3s-1.91-.78-3.23-2.19-1.88-2.42-2-1.31a6.42,6.42,0,0,0,2.57,4.83c1.14.75,2.41,1.09,2,2.3s0,.53-1.28,1.83-1.51,1.73-1.42,3.54-.37,1.93-.64,3.44-.91.2-1.46,2.42m-15.09-32.1.15-.18a3.68,3.68,0,0,1,2.21-.84c.7-.12,1.63.24,1.74.72s-1.75,1.36-2.1,1.68c-1,.93-2.49,2.81-3.37,3a1,1,0,0,1-.73-.08,29.51,29.51,0,0,1,2.1-4.33m1.44-3c.36-.55,1.57-2.13,1.71-2.33a2.12,2.12,0,0,1,1.36-.58c.43-.08,1,.16,1.07.5a4,4,0,0,1-.38,1.85,4.63,4.63,0,0,1-3,1.39c-.65-.11-.91-.64-.78-.83m89.29,17.21c-4.79-7-26.49-34.81-66.8-34.81s-62,27.84-66.81,34.81l-.52.77c.14.22.32.48.52.78,4.8,7,26.49,34.81,66.81,34.81s62-27.84,66.8-34.81c.21-.3.38-.56.52-.78-.14-.21-.31-.47-.52-.77"/></g><polygon id="_Path_2" data-name="&lt;Path&gt;" class="cls-2" points="64.92 145.75 64.92 246.61 47.96 246.61 47.96 169.41 47.81 169.41 35.91 181.75 35.76 181.75 35.76 164.05 51.38 145.75 64.92 145.75"/><path id="_Path_3" data-name="&lt;Path&gt;" class="cls-2" d="M120.84,167.62v8.77c0,8.47-4.61,14.13-11.6,16.36,8.47,1.93,12.5,7.88,12.5,17.11v14.87c0,14-7.43,23.06-24.55,23.06S73.83,238,73.83,222.65V209.41H89.31v14.44c0,5.94,2.08,9.81,7.88,9.81,5.2,0,7.58-3.72,7.58-9.08V207.93c0-5.36-2.38-8.18-8.32-8.18H89.31V186.81h6.4c5.5,0,9.06-2.83,9.06-8.18V167.77c0-5.51-1.93-9.08-7.28-9.08s-7.29,3.57-7.29,9.82v10.26H74.73v-8.92c0-14.87,6.1-25.29,23.65-25.29,15.62,0,22.47,8.78,22.47,23.06"/><path id="_Compound_Path_2" data-name="&lt;Compound Path&gt;" class="cls-2" d="M166.55,181.82h5.69l-2.81-17h-.06Zm-8.95,13.45,8-42.41h8.13l8.06,42.41H174.5l-1.31-7.76h-7.57l-1.25,7.76Z"/><path id="_Path_4" data-name="&lt;Path&gt;" class="cls-2" d="M183.8,184.32V163.81c0-6.63,3.13-11.45,10.64-11.45,7.88,0,10.07,4.38,10.07,10.64v5H198v-5.57c0-2.62-.88-4.13-3.44-4.13s-3.63,1.82-3.63,4.38v22.77c0,2.57,1.07,4.38,3.63,4.38S198,188.2,198,185.7v-7.82h6.5v7.31c0,6.07-2.51,10.57-10.07,10.57s-10.64-4.88-10.64-11.45"/><path id="_Path_5" data-name="&lt;Path&gt;" class="cls-2" d="M208.37,184.32V163.81c0-6.63,3.13-11.45,10.64-11.45,7.88,0,10.07,4.38,10.07,10.64v5h-6.51v-5.57c0-2.62-.88-4.13-3.43-4.13s-3.63,1.82-3.63,4.38v22.77c0,2.57,1.07,4.38,3.63,4.38s3.43-1.63,3.43-4.13v-7.82h6.51v7.31c0,6.07-2.51,10.57-10.07,10.57s-10.64-4.88-10.64-11.45"/><rect id="_Path_6" data-name="&lt;Path&gt;" class="cls-2" x="232.94" y="152.86" width="7.13" height="42.41"/><path id="_Compound_Path_3" data-name="&lt;Compound Path&gt;" class="cls-2" d="M258.63,185.45V162.68c0-2.56-1.13-4.38-3.69-4.38s-3.63,1.82-3.63,4.38v22.77c0,2.57,1.12,4.37,3.63,4.37s3.69-1.81,3.69-4.37m2.13-35.59-11.2,1.44v-4l11.2-2.38Zm-16.58,34.46V163.81c0-6.63,3.25-11.45,10.76-11.45s10.82,4.82,10.82,11.45v20.51c0,6.57-3.26,11.45-10.82,11.45s-10.76-4.88-10.76-11.45"/><polygon id="_Path_7" data-name="&lt;Path&gt;" class="cls-2" points="275.82 168.62 275.82 195.27 269.82 195.27 269.82 152.86 276.82 152.86 284.51 177.19 284.51 152.86 290.45 152.86 290.45 195.27 284.21 195.27 275.82 168.62"/><path id="_Compound_Path_4" data-name="&lt;Compound Path&gt;" class="cls-2" d="M165.86,218.07v16.7h2.63c2.44,0,3.5-1.18,3.5-3.5v-9.76c0-2.32-1.07-3.43-3.5-3.43Zm-7.13-5.82H169.3c7.19,0,9.83,3.57,9.83,9.51v8.94c0,5.95-2.63,9.57-9.83,9.57h-3.44v14.39h-7.13Z"/><path id="_Compound_Path_5" data-name="&lt;Compound Path&gt;" class="cls-2" d="M197.25,244.84V222.08c0-2.57-1.13-4.38-3.69-4.38s-3.63,1.82-3.63,4.38v22.77c0,2.57,1.13,4.37,3.63,4.37s3.69-1.81,3.69-4.37m-14.45-1.12V223.2c0-6.63,3.25-11.45,10.76-11.45s10.82,4.82,10.82,11.45v20.52c0,6.56-3.26,11.45-10.82,11.45s-10.76-4.88-10.76-11.45"/><path id="_Compound_Path_6" data-name="&lt;Compound Path&gt;" class="cls-2" d="M215.56,218.07v13.19h2.38c2.44,0,3.5-1.24,3.5-3.49v-6.27c0-2.31-1.07-3.43-3.5-3.43Zm0,17.14v19.45h-7.13V212.25h10.39c7.19,0,9.82,3.57,9.82,9.51v5.45c0,4.56-1.63,7.25-5.69,8.19l6.82,19.26h-7.5Z"/><polygon id="_Path_8" data-name="&lt;Path&gt;" class="cls-2" points="239.06 212.25 256.08 212.25 256.08 218.07 246.19 218.07 246.19 230.21 253.26 230.21 253.26 235.96 246.19 235.96 246.19 248.84 256.08 248.84 256.08 254.66 239.06 254.66 239.06 212.25"/><polygon id="_Path_9" data-name="&lt;Path&gt;" class="cls-2" points="259.88 212.25 267.01 212.25 267.01 248.84 275.52 248.84 275.52 254.66 259.88 254.66 259.88 212.25"/><path id="_Path_10" data-name="&lt;Path&gt;" class="cls-2" d="M285.32,243.71V223.21c0-6.64,3.13-11.45,10.64-11.45,7.88,0,10.07,4.37,10.07,10.63v5h-6.5v-5.57c0-2.63-.88-4.13-3.44-4.13s-3.62,1.82-3.62,4.38v22.77c0,2.57,1.07,4.38,3.62,4.38s3.44-1.63,3.44-4.13v-7.82H306v7.31c0,6.07-2.51,10.57-10.07,10.57s-10.64-4.88-10.64-11.45"/><polygon id="_Path_11" data-name="&lt;Path&gt;" class="cls-2" points="309.89 212.25 317.02 212.25 317.02 248.84 325.53 248.84 325.53 254.66 309.89 254.66 309.89 212.25"/><rect id="_Path_12" data-name="&lt;Path&gt;" class="cls-2" x="328.77" y="212.25" width="7.13" height="42.41"/><polygon id="_Path_13" data-name="&lt;Path&gt;" class="cls-2" points="359.67 227.14 359.48 227.14 354.66 254.66 351.35 254.66 346.03 227.14 345.9 227.14 345.9 254.66 340.02 254.66 340.02 212.25 348.35 212.25 352.96 236.15 353.03 236.15 357.16 212.25 366.18 212.25 366.18 254.66 359.67 254.66 359.67 227.14"/><path id="_Compound_Path_7" data-name="&lt;Compound Path&gt;" class="cls-2" d="M378,241.21h5.69l-2.81-17h-.06Zm-8.95,13.45,8-42.41h8.13l8.06,42.41H386l-1.31-7.76H377.1l-1.25,7.76Z"/></g></g></g></svg>
