<svg xmlns="http://www.w3.org/2000/svg" viewBox="0 0 431.73 431.73"><defs><style>.cls-1{fill:#cf8c2a;}.cls-2{fill:#fff;}</style></defs><title>ods12</title><g id="Layer_2" data-name="Layer 2"><g id="Capa_1" data-name="Capa 1"><g id="_Group_" data-name="&lt;Group&gt;"><path id="_Path_" data-name="&lt;Path&gt;" class="cls-1" d="M215.86,431.73c119.22,0,215.86-96.64,215.86-215.86S335.08,0,215.86,0,0,96.65,0,215.87,96.64,431.73,215.86,431.73"/><path id="_Path_2" data-name="&lt;Path&gt;" class="cls-2" d="M276.54,316.15c-9.83-7.77-22.87-7.92-27.64-6.79l-.55.13c-5.51,1.3-14.27,3.45-24.51,16.18l-.17.21-.13.16a.83.83,0,0,0-.17.49.88.88,0,0,0,.11.42l.24.39c1.29,2.15,2.9,4.92,4.28,7.47l0,.08a.88.88,0,0,0,.78.48.85.85,0,0,0,.6-.25,2.87,2.87,0,0,0,.19-.26c9.1-12.58,16.25-14.32,21.09-15.46l.58-.13c2.51-.6,12.06-.57,19,4.87,5.38,4.24,8.11,11,8.11,20.08,0,15.23-7.41,21.19-13.62,23.5-9.63,3.6-18.87-1.21-18.93-1.25l-.41-.2c-5.29-2.3-13.19-7.07-20.63-22-15-30.11-27.54-32.95-35.83-34.83l-.45-.1c-3.78-.86-16.9-1.46-27.22,6.77-5.38,4.3-11.81,12.66-11.81,28.06,0,9.38,1.93,15.58,6.89,22.1,1.08,1.48,12.19,15.75,33.65,11.64a32.21,32.21,0,0,0,13.21-6.13l4.73,4.26A.77.77,0,0,0,209,376a.71.71,0,0,0,.19-.52v-.06l3.41-21v-.23a.75.75,0,0,0-.25-.56.69.69,0,0,0-.5-.19h-.15l-.22,0-20.09,5.62-.37.06a.75.75,0,0,0-.38.22.76.76,0,0,0,.06,1.09l.23.22,4.5,4.06a21.08,21.08,0,0,1-7.37,3.12c-15.54,3-23.2-7.21-23.49-7.61l-.11-.15c-3.6-4.74-4.83-8.77-4.83-16,0-9.11,2.68-15.86,8-20.09,6.72-5.36,16-5.39,18.6-4.79l.45.1c6.8,1.54,16.12,3.65,29,29.43,6.67,13.38,15,22.14,25.53,26.75a37.07,37.07,0,0,0,16,3.71,31.8,31.8,0,0,0,11.14-2c6.09-2.28,20.26-10,20.26-33.07,0-15.39-6.51-23.77-12-28.09"/><polygon id="_Path_3" data-name="&lt;Path&gt;" class="cls-2" points="296.57 136.21 296.72 136.21 296.72 213.86 313.77 213.86 313.77 112.42 300.15 112.42 284.45 130.82 284.45 148.63 284.59 148.63 296.57 136.21"/><path id="_Path_4" data-name="&lt;Path&gt;" class="cls-2" d="M323.95,133.37v12.26H339.5V132.92c0-6.13,3-7.93,6.58-7.93,3.3,0,6.14,1.34,6.14,7.64V141c0,8.39-.74,11.68-6.29,17.51l-9.57,10.17c-9.28,9.87-12.73,16.45-12.73,26.48v18.7h44.3V199.95h-28v-4.79c0-7.93,2.84-10.93,7.18-15.56L358,168.08c8.83-9.42,10.78-15.41,10.78-25.59v-9.86c0-14.52-7-21.4-22.29-21.4-15,0-22.59,7.92-22.59,22.14"/><g id="_Group_2" data-name="&lt;Group&gt;"><path id="_Compound_Path_" data-name="&lt;Compound Path&gt;" class="cls-2" d="M58.72,131.64v15.18H61.1c2.22,0,3.19-1.08,3.19-3.19v-8.86c0-2.1-1-3.13-3.19-3.13Zm-6.48-5.29h9.6c6.54,0,8.93,3.24,8.93,8.64v8.13c0,5.4-2.39,8.7-8.93,8.7H58.72v13.07H52.24Z"/><path id="_Compound_Path_2" data-name="&lt;Compound Path&gt;" class="cls-2" d="M80.59,131.63v12h2.16c2.22,0,3.19-1.14,3.19-3.19v-5.69c0-2.1-1-3.13-3.19-3.13Zm0,15.58v17.68H74.11V126.35h9.44c6.53,0,8.92,3.24,8.92,8.64v4.95c0,4.15-1.47,6.6-5.17,7.44l6.2,17.51H86.67Z"/><path id="_Compound_Path_3" data-name="&lt;Compound Path&gt;" class="cls-2" d="M109.11,156V135.27c0-2.33-1-4-3.35-4s-3.3,1.65-3.3,4V156c0,2.33,1,4,3.3,4s3.35-1.65,3.35-4m-13.13-1V136.3c0-6,3-10.41,9.78-10.41s9.83,4.38,9.83,10.41v18.64c0,6-3,10.41-9.83,10.41S96,160.91,96,154.94"/><path id="_Compound_Path_4" data-name="&lt;Compound Path&gt;" class="cls-2" d="M128.47,159.61c2.68,0,3.69-1.59,3.69-3.93V135.5c0-2.27-1-3.87-3.69-3.87h-2.73v28Zm10.18-22.91v17.85c0,5.9-2.45,10.34-9.38,10.34h-10V126.35h10c6.93,0,9.38,4.38,9.38,10.34"/><path id="_Path_5" data-name="&lt;Path&gt;" class="cls-2" d="M161.15,126.35v29.16c0,6-2.56,9.83-9.15,9.83-6.82,0-9.67-3.87-9.67-9.83V126.35h6.49v29.78c0,2.28.91,3.81,3.18,3.81s3.19-1.53,3.19-3.81V126.35Z"/><path id="_Path_6" data-name="&lt;Path&gt;" class="cls-2" d="M164.83,154.94V136.3c0-6,2.84-10.41,9.67-10.41,7.16,0,9.14,4,9.14,9.67v4.55h-5.9v-5.05c0-2.39-.8-3.76-3.13-3.76s-3.3,1.65-3.3,4V156c0,2.33,1,4,3.3,4s3.13-1.48,3.13-3.75v-7.11h5.9v6.64c0,5.51-2.27,9.61-9.14,9.61s-9.67-4.44-9.67-10.41"/><path id="_Path_7" data-name="&lt;Path&gt;" class="cls-2" d="M187.15,154.94V136.3c0-6,2.85-10.41,9.67-10.41,7.16,0,9.15,4,9.15,9.67v4.55h-5.91v-5.05c0-2.39-.79-3.76-3.13-3.76s-3.3,1.65-3.3,4V156c0,2.33,1,4,3.3,4s3.13-1.48,3.13-3.75v-7.11H206v6.64c0,5.51-2.27,9.61-9.15,9.61s-9.67-4.44-9.67-10.41"/><rect id="_Path_8" data-name="&lt;Path&gt;" class="cls-2" x="209.47" y="126.35" width="6.48" height="38.53"/><path id="_Compound_Path_5" data-name="&lt;Compound Path&gt;" class="cls-2" d="M232.83,156V135.27c0-2.33-1-4-3.35-4s-3.3,1.65-3.3,4V156c0,2.33,1,4,3.3,4s3.35-1.65,3.35-4m1.93-32.34-10.17,1.31v-3.64l10.17-2.15ZM219.7,154.94V136.3c0-6,3-10.41,9.78-10.41s9.83,4.38,9.83,10.41v18.64c0,6-3,10.41-9.83,10.41s-9.78-4.44-9.78-10.41"/><polygon id="_Path_9" data-name="&lt;Path&gt;" class="cls-2" points="248.45 140.68 248.45 164.89 242.99 164.89 242.99 126.35 249.36 126.35 256.35 148.46 256.35 126.35 261.75 126.35 261.75 164.89 256.07 164.89 248.45 140.68"/><polygon id="_Path_10" data-name="&lt;Path&gt;" class="cls-2" points="64.85 201.35 64.85 216.01 58.38 216.01 58.38 201.35 51.16 177.48 57.92 177.48 61.84 192.08 61.9 192.08 65.82 177.48 72.01 177.48 64.85 201.35"/><path id="_Path_11" data-name="&lt;Path&gt;" class="cls-2" d="M80.59,206.07V187.42c0-6,2.84-10.4,9.67-10.4,7.16,0,9.14,4,9.14,9.66v4.55h-5.9v-5.05c0-2.39-.8-3.76-3.13-3.76s-3.3,1.65-3.3,4v20.69c0,2.33,1,4,3.3,4s3.13-1.49,3.13-3.75v-7.11h5.9v6.64c0,5.51-2.26,9.6-9.14,9.6s-9.67-4.43-9.67-10.4"/><path id="_Compound_Path_6" data-name="&lt;Compound Path&gt;" class="cls-2" d="M116,207.09V186.4c0-2.32-1-4-3.35-4s-3.3,1.65-3.3,4v20.69c0,2.33,1,4,3.3,4s3.35-1.65,3.35-4m-13.13-1V187.42c0-6,3-10.4,9.78-10.4s9.83,4.38,9.83,10.4v18.65c0,6-3,10.4-9.83,10.4s-9.78-4.43-9.78-10.4"/><polygon id="_Path_12" data-name="&lt;Path&gt;" class="cls-2" points="131.66 191.8 131.66 216.02 126.2 216.02 126.2 177.48 132.58 177.48 139.56 199.59 139.56 177.48 144.96 177.48 144.96 216.02 139.28 216.02 131.66 191.8"/><path id="_Path_13" data-name="&lt;Path&gt;" class="cls-2" d="M148.3,207.72v-5.17h6v5.29c0,2.16,1,3.4,3.19,3.4,2,0,3-1.36,3-3.4v-1.48c0-2.21-.91-3.58-2.9-5.46l-3.81-3.81c-3.7-3.63-5.41-5.85-5.41-10.29v-1.31c0-4.77,2.79-8.46,9.1-8.46,6.48,0,9,3.18,9,8.75v3.13h-5.91v-3.35c0-2.22-1-3.3-3.06-3.3a2.85,2.85,0,0,0-3.07,3.19v.8c0,2.15,1.19,3.4,3.07,5.22l4.14,4.09c3.53,3.58,5.22,5.74,5.22,10v1.87c0,5.29-2.84,9-9.43,9s-9.15-3.69-9.15-8.75"/><path id="_Path_14" data-name="&lt;Path&gt;" class="cls-2" d="M189.1,177.48v29.15c0,6-2.56,9.84-9.15,9.84-6.82,0-9.67-3.87-9.67-9.84V177.48h6.49v29.78c0,2.27.91,3.81,3.18,3.81s3.19-1.54,3.19-3.81V177.48Z"/><polygon id="_Path_15" data-name="&lt;Path&gt;" class="cls-2" points="210.63 191 210.46 191 206.09 216.01 203.07 216.01 198.24 191 198.13 191 198.13 216.01 192.78 216.01 192.78 177.48 200.34 177.48 204.54 199.19 204.6 199.19 208.36 177.48 216.54 177.48 216.54 216.01 210.63 216.01 210.63 191"/><path id="_Compound_Path_7" data-name="&lt;Compound Path&gt;" class="cls-2" d="M233.34,207.09V186.4c0-2.32-1-4-3.34-4s-3.3,1.65-3.3,4v20.69c0,2.33,1,4,3.3,4s3.34-1.65,3.34-4m-13.12-1V187.42c0-6,3-10.4,9.78-10.4s9.83,4.38,9.83,10.4v18.65c0,6-3,10.4-9.83,10.4s-9.78-4.43-9.78-10.4"/><path id="_Compound_Path_8" data-name="&lt;Compound Path&gt;" class="cls-2" d="M58.72,233.89v12h2.16c2.22,0,3.18-1.14,3.18-3.19V237c0-2.1-1-3.13-3.18-3.13Zm0,15.58v17.68H52.24V228.6h9.44c6.53,0,8.92,3.24,8.92,8.64v4.95c0,4.15-1.48,6.6-5.17,7.45l6.2,17.5H64.8Z"/><polygon id="_Path_16" data-name="&lt;Path&gt;" class="cls-2" points="74.11 228.61 89.56 228.61 89.56 233.88 80.59 233.88 80.59 244.92 87.01 244.92 87.01 250.15 80.59 250.15 80.59 261.85 89.56 261.85 89.56 267.14 74.11 267.14 74.11 228.61"/><path id="_Path_17" data-name="&lt;Path&gt;" class="cls-2" d="M92.4,258.85v-5.17h6V259c0,2.16,1,3.4,3.18,3.4,2,0,3-1.36,3-3.4v-1.48c0-2.21-.91-3.58-2.89-5.46l-3.81-3.81c-3.69-3.64-5.4-5.86-5.4-10.29v-1.31c0-4.77,2.79-8.46,9.1-8.46,6.48,0,9,3.18,9,8.75V240h-5.9v-3.36c0-2.21-1-3.29-3.07-3.29a2.84,2.84,0,0,0-3.06,3.19v.8c0,2.15,1.19,3.4,3.06,5.22l4.15,4.09c3.52,3.58,5.22,5.74,5.22,10v1.87c0,5.29-2.84,9-9.43,9s-9.15-3.69-9.15-8.75"/><path id="_Compound_Path_9" data-name="&lt;Compound Path&gt;" class="cls-2" d="M120.86,233.89v15.18h2.39c2.21,0,3.18-1.08,3.18-3.19V237c0-2.11-1-3.13-3.18-3.13Zm-6.48-5.29H124c6.54,0,8.93,3.24,8.93,8.64v8.12c0,5.41-2.39,8.7-8.93,8.7h-3.13v13.07h-6.48Z"/><path id="_Compound_Path_10" data-name="&lt;Compound Path&gt;" class="cls-2" d="M149.38,258.22V237.53c0-2.33-1-4-3.34-4s-3.3,1.65-3.3,4v20.69c0,2.33,1,4,3.3,4s3.34-1.65,3.34-4m-13.12-1V238.55c0-6,3-10.4,9.78-10.4s9.83,4.38,9.83,10.4V257.2c0,6-3,10.41-9.83,10.41s-9.78-4.44-9.78-10.41"/><polygon id="_Path_18" data-name="&lt;Path&gt;" class="cls-2" points="165 242.93 165 267.14 159.54 267.14 159.54 228.61 165.91 228.61 172.9 250.72 172.9 228.61 178.3 228.61 178.3 267.14 172.62 267.14 165 242.93"/><path id="_Path_19" data-name="&lt;Path&gt;" class="cls-2" d="M181.65,258.85v-5.17h6V259c0,2.16,1,3.4,3.18,3.4,2,0,3-1.36,3-3.4v-1.48c0-2.21-.91-3.58-2.89-5.46l-3.81-3.81c-3.69-3.64-5.4-5.86-5.4-10.29v-1.31c0-4.77,2.79-8.46,9.1-8.46,6.48,0,9,3.18,9,8.75V240h-5.9v-3.36c0-2.21-1-3.29-3.07-3.29a2.84,2.84,0,0,0-3.06,3.19v.8c0,2.15,1.19,3.4,3.06,5.22l4.15,4.09c3.52,3.58,5.22,5.74,5.22,10v1.87c0,5.29-2.84,9-9.43,9s-9.15-3.69-9.15-8.75"/><path id="_Compound_Path_11" data-name="&lt;Compound Path&gt;" class="cls-2" d="M210.16,254.93h5.17l-2.56-15.46h-.05ZM202,267.14l7.28-38.54h7.39L224,267.14h-6.64l-1.19-7.05h-6.88l-1.14,7.05Z"/><path id="_Compound_Path_12" data-name="&lt;Compound Path&gt;" class="cls-2" d="M233.17,249.81v12H236c2.16,0,3.19-1.08,3.19-3.12v-5.81c0-2-1-3.12-3.24-3.12Zm0-4.95h2.27c2.11,0,3.06-1.08,3.06-3.13V237c0-2.11-1-3.13-3.13-3.13h-2.21Zm-6.48-16.26h9.38c6.48,0,8.64,3,8.64,8.47V241c0,3.24-1.19,5.29-3.86,6.14,3.23.74,4.82,2.89,4.82,6.43v5.11c0,5.45-2.45,8.46-8.92,8.46H226.69Z"/><polygon id="_Path_20" data-name="&lt;Path&gt;" class="cls-2" points="248.9 228.61 255.37 228.61 255.37 261.85 263.11 261.85 263.11 267.14 248.9 267.14 248.9 228.61"/><polygon id="_Path_21" data-name="&lt;Path&gt;" class="cls-2" points="266.05 228.61 281.5 228.61 281.5 233.88 272.53 233.88 272.53 244.92 278.95 244.92 278.95 250.15 272.53 250.15 272.53 261.85 281.5 261.85 281.5 267.14 266.05 267.14 266.05 228.61"/><path id="_Path_22" data-name="&lt;Path&gt;" class="cls-2" d="M284.34,258.85v-5.17h6V259c0,2.16,1,3.4,3.18,3.4,2,0,3-1.36,3-3.4v-1.48c0-2.21-.91-3.58-2.89-5.46l-3.81-3.81c-3.69-3.64-5.4-5.86-5.4-10.29v-1.31c0-4.77,2.79-8.46,9.1-8.46,6.48,0,9,3.18,9,8.75V240h-5.91v-3.36c0-2.21-1-3.29-3.07-3.29a2.84,2.84,0,0,0-3.06,3.19v.8c0,2.15,1.19,3.4,3.06,5.22l4.15,4.09c3.52,3.58,5.22,5.74,5.22,10v1.87c0,5.29-2.84,9-9.43,9s-9.15-3.69-9.15-8.75"/></g></g></g></g></svg>
