<svg xmlns="http://www.w3.org/2000/svg" viewBox="0 0 431.73 431.73"><defs><style>.cls-1{fill:#1d3766;}.cls-2{fill:#fff;}</style></defs><title>ods17</title><g id="Layer_2" data-name="Layer 2"><g id="Capa_1" data-name="Capa 1"><g id="_Group_" data-name="&lt;Group&gt;"><path id="_Path_" data-name="&lt;Path&gt;" class="cls-1" d="M215.86,431.73c119.22,0,215.86-96.64,215.86-215.86S335.08,0,215.86,0,0,96.65,0,215.87,96.64,431.73,215.86,431.73"/><path id="_Compound_Path_" data-name="&lt;Compound Path&gt;" class="cls-2" d="M227.46,335.05a28.05,28.05,0,0,0,9-20.61,28.68,28.68,0,0,0-.23-3.59,22.42,22.42,0,0,1,12.67,38.92,28.17,28.17,0,0,0-21.45-14.72M246.55,363A22.42,22.42,0,0,1,213,382.47a28,28,0,0,0,7.2-24.7,28,28,0,0,0,25.88.71,22.28,22.28,0,0,1,.45,4.49m-76.39.19a22,22,0,0,1,.49-4.65,28,28,0,0,0,25.8-.71,28,28,0,0,0,7.46,24.73,22.42,22.42,0,0,1-33.76-19.38m-9.74-30a22.49,22.49,0,0,1,20.05-22.33,27.76,27.76,0,0,0-.24,3.59,28.06,28.06,0,0,0,9.19,20.77,28.19,28.19,0,0,0-21.57,14.61,22.39,22.39,0,0,1-7.44-16.65M208.35,292a22.48,22.48,0,0,1,20.59,13.51,28.22,28.22,0,0,0-20.59,15.8,28.17,28.17,0,0,0-20.58-15.8A22.48,22.48,0,0,1,208.35,292m5.35,51.09a22.39,22.39,0,0,1,30.53,10,22.39,22.39,0,0,1-30.53-10m-10.76.15a22.37,22.37,0,0,1-30.37,9.88,22.37,22.37,0,0,1,30.37-9.88M186.19,311a22.47,22.47,0,0,1,19.15,22.19,23,23,0,0,1-.29,3.45A22.26,22.26,0,0,1,186.19,311m22.27,68.06a22.4,22.4,0,0,1-.21-32,22.39,22.39,0,0,1,.21,32m22.35-64.61a22.47,22.47,0,0,1-19.14,22.19A22.26,22.26,0,0,1,230.52,311a23.06,23.06,0,0,1,.29,3.45M262,333.18a28.15,28.15,0,0,0-27.09-28.1,28.12,28.12,0,0,0-53,0,28.1,28.1,0,0,0-16.23,50.27,28.1,28.1,0,0,0,42.88,31,28.1,28.1,0,0,0,42.66-31A28.09,28.09,0,0,0,262,333.18"/><polygon id="_Path_2" data-name="&lt;Path&gt;" class="cls-2" points="284.91 69.46 284.91 158.01 270.02 158.01 270.02 90.23 269.89 90.23 259.45 101.06 259.32 101.06 259.32 85.53 273.03 69.46 284.91 69.46"/><polygon id="_Path_3" data-name="&lt;Path&gt;" class="cls-2" points="291.7 69.46 329.05 69.46 329.05 83.18 309.6 158.01 294.83 158.01 314.68 81.61 291.7 81.61 291.7 69.46"/><path id="_Compound_Path_2" data-name="&lt;Compound Path&gt;" class="cls-2" d="M93.83,155.71h5.08L96.4,140.54h-.06Zm-8,12L93,129.89h7.25l7.19,37.81h-6.53l-1.17-6.91H93l-1.12,6.91Z"/><polygon id="_Path_4" data-name="&lt;Path&gt;" class="cls-2" points="110.04 129.89 116.39 129.89 116.39 162.51 123.98 162.51 123.98 167.71 110.04 167.71 110.04 129.89"/><rect id="_Path_5" data-name="&lt;Path&gt;" class="cls-2" x="126.87" y="129.9" width="6.35" height="37.8"/><path id="_Compound_Path_3" data-name="&lt;Compound Path&gt;" class="cls-2" d="M143.87,155.71H149l-2.51-15.17h-.06Zm-8,12L143,129.89h7.25l7.19,37.81H151l-1.17-6.91H143l-1.11,6.91Z"/><polygon id="_Path_6" data-name="&lt;Path&gt;" class="cls-2" points="165.44 143.94 165.44 167.7 160.08 167.7 160.08 129.89 166.33 129.89 173.19 151.59 173.19 129.89 178.49 129.89 178.49 167.7 172.92 167.7 165.44 143.94"/><polygon id="_Path_7" data-name="&lt;Path&gt;" class="cls-2" points="188.29 162.51 197.93 162.51 197.93 167.7 181.65 167.7 181.65 162.51 191.63 135.08 182.66 135.08 182.66 129.89 198.33 129.89 198.33 135.08 188.29 162.51"/><path id="_Compound_Path_4" data-name="&lt;Compound Path&gt;" class="cls-2" d="M208.35,155.71h5.08l-2.51-15.17h-.06Zm-8,12,7.14-37.81h7.25L222,167.7h-6.52l-1.18-6.91h-6.75l-1.11,6.91Z"/><path id="_Path_8" data-name="&lt;Path&gt;" class="cls-2" d="M223.67,159.55v-5.07h5.9v5.19c0,2.11,1,3.34,3.13,3.34,2,0,2.9-1.33,2.9-3.34v-1.46c0-2.17-.89-3.5-2.84-5.34L229,149.13c-3.62-3.57-5.3-5.75-5.3-10.1v-1.28c0-4.68,2.74-8.31,8.93-8.31,6.35,0,8.86,3.12,8.86,8.59v3.07h-5.8v-3.3c0-2.18-1-3.23-3-3.23a2.78,2.78,0,0,0-3,3.12v.78c0,2.11,1.17,3.34,3,5.12l4.07,4c3.46,3.52,5.12,5.63,5.12,9.82v1.83c0,5.19-2.78,8.87-9.25,8.87s-9-3.62-9-8.59"/><path id="_Compound_Path_5" data-name="&lt;Compound Path&gt;" class="cls-2" d="M94.18,186.06v14.88h2.33c2.18,0,3.12-1.05,3.12-3.12v-8.69c0-2.06-.95-3.06-3.12-3.06Zm-6.36-5.19h9.42c6.41,0,8.76,3.18,8.76,8.47v8c0,5.31-2.34,8.54-8.76,8.54H94.18v12.83H87.82Z"/><path id="_Compound_Path_6" data-name="&lt;Compound Path&gt;" class="cls-2" d="M114,206.69h5.08l-2.51-15.17h-.06Zm-8,12,7.14-37.81h7.25l7.19,37.81H121.1l-1.18-6.91h-6.75l-1.11,6.91Z"/><path id="_Compound_Path_7" data-name="&lt;Compound Path&gt;" class="cls-2" d="M136.59,186.06v11.76h2.12c2.18,0,3.11-1.11,3.11-3.11v-5.58c0-2.06-.94-3.06-3.11-3.06Zm0,15.27v17.34h-6.36V180.87h9.26c6.4,0,8.75,3.18,8.75,8.47v4.86c0,4.07-1.45,6.46-5.07,7.3l6.08,17.18h-6.69Z"/><path id="_Compound_Path_8" data-name="&lt;Compound Path&gt;" class="cls-2" d="M158.66,206.69h5.07l-2.5-15.17h-.06Zm-8,12,7.14-37.81h7.25l7.19,37.81h-6.53l-1.17-6.91h-6.75l-1.12,6.91Z"/><polygon id="_Path_9" data-name="&lt;Path&gt;" class="cls-2" points="190.52 180.05 196.87 180.05 196.87 212.68 204.46 212.68 204.46 217.86 190.52 217.86 190.52 180.05"/><path id="_Compound_Path_9" data-name="&lt;Compound Path&gt;" class="cls-2" d="M219.95,209.1V188.8c0-2.28-1-3.9-3.29-3.9s-3.23,1.61-3.23,3.9v20.3c0,2.29,1,3.9,3.23,3.9s3.29-1.61,3.29-3.9m-12.88-1V189.81c0-5.91,2.89-10.2,9.59-10.2s9.65,4.29,9.65,10.2v18.28c0,5.86-2.9,10.21-9.65,10.21s-9.59-4.35-9.59-10.21"/><path id="_Path_10" data-name="&lt;Path&gt;" class="cls-2" d="M239.51,197.67h9v20.19H244v-4.12a5.73,5.73,0,0,1-6.08,4.57c-5.47,0-8-4.35-8-10.21V189.81c0-5.91,2.84-10.2,9.54-10.2,7,0,9.08,3.9,9.08,9.47v3.34h-5.79v-3.84c0-2.34-.89-3.68-3.18-3.68s-3.29,1.61-3.29,3.9v20.3c0,2.29,1,3.9,3.12,3.9s3.12-1.17,3.12-3.62v-6.69h-3Z"/><path id="_Compound_Path_10" data-name="&lt;Compound Path&gt;" class="cls-2" d="M258.51,185.23V197h2.12c2.18,0,3.12-1.11,3.12-3.11V188.3c0-2.06-.95-3.07-3.12-3.07Zm0,15.28v17.34h-6.35V180h9.26c6.4,0,8.75,3.18,8.75,8.47v4.86c0,4.07-1.45,6.46-5.07,7.3l6.08,17.18h-6.69Z"/><path id="_Compound_Path_11" data-name="&lt;Compound Path&gt;" class="cls-2" d="M280.58,205.86h5.08l-2.51-15.16h-.06Zm-8,12L279.75,180H287l7.19,37.81h-6.53l-1.17-6.91h-6.75l-1.11,6.91Z"/><path id="_Compound_Path_12" data-name="&lt;Compound Path&gt;" class="cls-2" d="M303.15,185.23V197h2.12c2.18,0,3.11-1.11,3.11-3.11V188.3c0-2.06-.94-3.07-3.11-3.07Zm0,15.28v17.34H296.8V180h9.26c6.41,0,8.75,3.18,8.75,8.47v4.86c0,4.07-1.45,6.46-5.06,7.3l6.07,17.18h-6.68Z"/><polygon id="_Path_11" data-name="&lt;Path&gt;" class="cls-2" points="86.86 230.21 93.21 230.21 93.21 262.83 100.8 262.83 100.8 268.02 86.86 268.02 86.86 230.21"/><path id="_Compound_Path_13" data-name="&lt;Compound Path&gt;" class="cls-2" d="M116.29,259.26V239c0-2.29-1-3.9-3.29-3.9s-3.23,1.61-3.23,3.9v20.29c0,2.29,1,3.9,3.23,3.9s3.29-1.61,3.29-3.9m-12.88-1V240c0-5.91,2.89-10.2,9.59-10.2s9.65,4.29,9.65,10.2v18.29c0,5.85-2.9,10.21-9.65,10.21s-9.59-4.36-9.59-10.21"/><path id="_Path_12" data-name="&lt;Path&gt;" class="cls-2" d="M125.92,259.87V254.8h5.9V260c0,2.11,1,3.34,3.13,3.34,2,0,2.9-1.33,2.9-3.34v-1.46c0-2.17-.89-3.5-2.84-5.34l-3.74-3.74c-3.62-3.57-5.3-5.75-5.3-10.1v-1.28c0-4.68,2.74-8.31,8.93-8.31,6.35,0,8.86,3.12,8.86,8.59v3.06H138v-3.29c0-2.18-1-3.23-3-3.23a2.78,2.78,0,0,0-3,3.12v.78c0,2.11,1.17,3.34,3,5.12l4.07,4c3.46,3.52,5.13,5.63,5.13,9.82v1.83c0,5.19-2.79,8.87-9.26,8.87s-9-3.62-9-8.59"/><path id="_Compound_Path_14" data-name="&lt;Compound Path&gt;" class="cls-2" d="M166.23,259.26V239c0-2.29-1-3.9-3.29-3.9s-3.23,1.61-3.23,3.9v20.29c0,2.29,1,3.9,3.23,3.9s3.29-1.61,3.29-3.9m-12.88-1V240c0-5.91,2.89-10.2,9.59-10.2s9.65,4.29,9.65,10.2v18.29c0,5.85-2.9,10.21-9.65,10.21s-9.59-4.36-9.59-10.21"/><path id="_Compound_Path_15" data-name="&lt;Compound Path&gt;" class="cls-2" d="M182.55,251v11.82h2.79c2.12,0,3.12-1.05,3.12-3.06v-5.69c0-2-.95-3.06-3.18-3.06Zm0-4.85h2.24c2.06,0,3-1.05,3-3.06v-4.63c0-2.06-.95-3.07-3.07-3.07h-2.18Zm-6.35-15.95h9.19c6.36,0,8.48,3,8.48,8.31v3.85c0,3.18-1.18,5.18-3.79,6,3.18.73,4.74,2.84,4.74,6.3v5c0,5.35-2.4,8.31-8.76,8.31H176.2Z"/><path id="_Path_13" data-name="&lt;Path&gt;" class="cls-2" d="M214.88,230.21v29.22c0,5.47-2.4,9-8.76,9-6.58,0-8.37-3.62-8.37-8.41v-7.53h6v7.63c0,1.9.67,3,2.34,3s2.4-1.11,2.4-3.06V230.21Z"/><polygon id="_Path_14" data-name="&lt;Path&gt;" class="cls-2" points="218.44 230.21 233.61 230.21 233.61 235.4 224.79 235.4 224.79 246.22 231.1 246.22 231.1 251.34 224.79 251.34 224.79 262.83 233.61 262.83 233.61 268.02 218.44 268.02 218.44 230.21"/><polygon id="_Path_15" data-name="&lt;Path&gt;" class="cls-2" points="236.27 230.21 253.16 230.21 253.16 235.4 247.92 235.4 247.92 268.02 241.51 268.02 241.51 235.4 236.27 235.4 236.27 230.21"/><rect id="_Path_16" data-name="&lt;Path&gt;" class="cls-2" x="256.11" y="230.21" width="6.35" height="37.81"/><polygon id="_Path_17" data-name="&lt;Path&gt;" class="cls-2" points="286.49 230.21 279.3 268.02 272.39 268.02 265.19 230.21 271.66 230.21 276.01 256.59 276.06 256.59 280.52 230.21 286.49 230.21"/><path id="_Compound_Path_16" data-name="&lt;Compound Path&gt;" class="cls-2" d="M300.86,259.26V239c0-2.29-1-3.9-3.29-3.9s-3.24,1.61-3.24,3.9v20.29c0,2.29,1,3.9,3.24,3.9s3.29-1.61,3.29-3.9m-12.88-1V240c0-5.91,2.9-10.2,9.59-10.2s9.64,4.29,9.64,10.2v18.29c0,5.85-2.9,10.21-9.64,10.21S288,264.11,288,258.26"/><path id="_Path_18" data-name="&lt;Path&gt;" class="cls-2" d="M310.5,259.87V254.8h5.9V260c0,2.11,1,3.34,3.13,3.34,2,0,2.9-1.33,2.9-3.34v-1.46c0-2.17-.89-3.5-2.84-5.34l-3.74-3.74c-3.62-3.57-5.3-5.75-5.3-10.1v-1.28c0-4.68,2.74-8.31,8.92-8.31,6.36,0,8.87,3.12,8.87,8.59v3.06h-5.8v-3.29c0-2.18-1-3.23-3-3.23a2.78,2.78,0,0,0-3,3.12v.78c0,2.11,1.17,3.34,3,5.12l4.07,4c3.46,3.52,5.12,5.63,5.12,9.82v1.83c0,5.19-2.78,8.87-9.26,8.87s-9-3.62-9-8.59"/></g></g></g></svg>
