<svg xmlns="http://www.w3.org/2000/svg" viewBox="0 0 431.73 431.73"><defs><style>.cls-1{fill:#e52331;}.cls-2{fill:#fff;}.cls-3{fill:none;stroke:#fff;stroke-linecap:round;stroke-miterlimit:10;stroke-width:0.77px;}</style></defs><title>ods1</title><g id="Layer_2" data-name="Layer 2"><g id="Capa_1" data-name="Capa 1"><g id="_Group_" data-name="&lt;Group&gt;"><path id="_Path_" data-name="&lt;Path&gt;" class="cls-1" d="M215.86,431.73c119.22,0,215.86-96.64,215.86-215.86S335.08,0,215.86,0,0,96.65,0,215.87,96.64,431.73,215.86,431.73"/><polygon id="_Path_2" data-name="&lt;Path&gt;" class="cls-2" points="56.5 165.42 56.66 165.42 56.66 244.77 74.08 244.77 74.08 141.11 60.16 141.11 44.11 159.92 44.11 178.11 44.27 178.11 56.5 165.42"/><polygon id="_Path_3" data-name="&lt;Path&gt;" class="cls-2" points="106.24 141.33 123.41 141.33 123.41 147.31 113.57 147.31 113.57 159.77 120.89 159.77 120.89 165.69 113.57 165.69 113.57 184.9 106.24 184.9 106.24 141.33"/><rect id="_Path_4" data-name="&lt;Path&gt;" class="cls-2" x="126.6" y="141.34" width="7.32" height="43.56"/><polygon id="_Path_5" data-name="&lt;Path&gt;" class="cls-2" points="144.33 157.53 144.33 184.9 138.17 184.9 138.17 141.33 145.36 141.33 153.26 166.33 153.26 141.33 159.37 141.33 159.37 184.9 152.95 184.9 144.33 157.53"/><path id="_Compound_Path_" data-name="&lt;Compound Path&gt;" class="cls-2" d="M116.66,239.94c3,0,4.18-1.8,4.18-4.43V212.69c0-2.57-1.16-4.37-4.18-4.37h-3.09v31.62Zm11.5-25.9v20.18c0,6.69-2.77,11.7-10.6,11.7h-11.3V202.35h11.3c7.84,0,10.6,4.94,10.6,11.69"/><polygon id="_Path_6" data-name="&lt;Path&gt;" class="cls-2" points="132.32 202.34 149.8 202.34 149.8 208.32 139.64 208.32 139.64 220.79 146.91 220.79 146.91 226.71 139.64 226.71 139.64 239.93 149.8 239.93 149.8 245.92 132.32 245.92 132.32 202.34"/><polygon id="_Path_7" data-name="&lt;Path&gt;" class="cls-2" points="160.45 202.34 167.77 202.34 167.77 239.93 176.52 239.93 176.52 245.92 160.45 245.92 160.45 202.34"/><path id="_Compound_Path_2" data-name="&lt;Compound Path&gt;" class="cls-2" d="M187.87,232.1h5.85l-2.89-17.48h-.07Zm-9.19,13.82,8.23-43.57h8.35l8.29,43.57H196l-1.35-8h-7.77l-1.29,8Z"/><path id="_Compound_Path_3" data-name="&lt;Compound Path&gt;" class="cls-2" d="M220.63,208.32v17.15h2.7c2.51,0,3.59-1.22,3.59-3.59v-10c0-2.38-1.08-3.53-3.59-3.53Zm-7.33-6h10.86c7.38,0,10.09,3.66,10.09,9.77v9.19c0,6.11-2.71,9.84-10.09,9.84h-3.54v14.78H213.3Z"/><path id="_Compound_Path_4" data-name="&lt;Compound Path&gt;" class="cls-2" d="M252.87,235.82V212.43c0-2.63-1.15-4.49-3.79-4.49s-3.72,1.86-3.72,4.49v23.39c0,2.64,1.15,4.51,3.72,4.51s3.79-1.87,3.79-4.51M238,234.67V213.59c0-6.8,3.34-11.76,11-11.76s11.12,5,11.12,11.76v21.08c0,6.75-3.34,11.76-11.12,11.76s-11-5-11-11.76"/><path id="_Compound_Path_5" data-name="&lt;Compound Path&gt;" class="cls-2" d="M271.68,226.31v13.62h3.21c2.45,0,3.6-1.21,3.6-3.53v-6.56c0-2.31-1.09-3.53-3.66-3.53Zm0-5.59h2.57c2.38,0,3.47-1.22,3.47-3.53v-5.34c0-2.37-1.08-3.53-3.53-3.53h-2.5Zm-7.33-18.37H275c7.33,0,9.77,3.41,9.77,9.57v4.44c0,3.66-1.35,6-4.37,6.94,3.66.83,5.46,3.28,5.46,7.26v5.78c0,6.17-2.77,9.58-10.09,9.58H264.36Z"/><path id="_Compound_Path_6" data-name="&lt;Compound Path&gt;" class="cls-2" d="M296.8,208.31v13.57h2.44c2.51,0,3.6-1.29,3.6-3.6v-6.42c0-2.38-1.09-3.54-3.6-3.54Zm0,17.62v20h-7.33V202.35h10.67c7.38,0,10.08,3.66,10.08,9.76v5.6c0,4.69-1.66,7.44-5.85,8.41l7,19.79h-7.71Z"/><polygon id="_Path_8" data-name="&lt;Path&gt;" class="cls-2" points="314.2 202.34 331.68 202.34 331.68 208.32 321.52 208.32 321.52 220.79 328.78 220.79 328.78 226.71 321.52 226.71 321.52 239.93 331.68 239.93 331.68 245.92 314.2 245.92 314.2 202.34"/><polygon id="_Path_9" data-name="&lt;Path&gt;" class="cls-2" points="342.71 239.94 353.83 239.94 353.83 245.91 335.06 245.91 335.06 239.94 346.57 208.32 336.23 208.32 336.23 202.35 354.28 202.35 354.28 208.32 342.71 239.94"/><path id="_Compound_Path_7" data-name="&lt;Compound Path&gt;" class="cls-2" d="M365.83,232.1h5.85l-2.89-17.48h-.07Zm-9.19,13.82,8.22-43.57h8.36l8.29,43.57H374l-1.35-8h-7.78l-1.28,8Z"/><g id="_Group_2" data-name="&lt;Group&gt;"><path id="_Path_10" data-name="&lt;Path&gt;" class="cls-2" d="M290.27,286.73a6.9,6.9,0,1,1,6.91,6.9,6.91,6.91,0,0,1-6.91-6.9"/><path id="_Path_11" data-name="&lt;Path&gt;" class="cls-2" d="M305.24,296.29a9.2,9.2,0,0,1,8.35,9.17v19.13a2.67,2.67,0,0,1-5.35,0V308.16c0-.62-.18-1.45-1.31-1.45-.78,0-.94.83-1,1.35v49.25a3.85,3.85,0,0,1-7.69,0V328.93a1,1,0,0,0-1.09-1.13h0a1.06,1.06,0,0,0-1.11,1.13v28.38a3.84,3.84,0,1,1-7.69,0V308.06c0-.52-.19-1.35-1-1.35-1.14,0-1.31.83-1.31,1.45v16.43a2.67,2.67,0,0,1-5.35,0V305.46a9.2,9.2,0,0,1,8.36-9.17,3.88,3.88,0,0,1,.51,0h15.08a4.11,4.11,0,0,1,.52,0"/><path id="_Path_12" data-name="&lt;Path&gt;" class="cls-2" d="M249.23,290.35a6.53,6.53,0,1,0-6.53,6.54,6.53,6.53,0,0,0,6.53-6.54"/><path id="_Path_13" data-name="&lt;Path&gt;" class="cls-2" d="M229.53,305.16l-5.43,17.69s-1,3.24,1.78,4.05,3.57-2.36,3.57-2.36l4.38-14.76s.24-1.14,1.09-.89.53,1.46.53,1.46L227.83,338h7.09v19.81a3.41,3.41,0,0,0,6.81,0V338h1.93v19.81a3.41,3.41,0,0,0,6.82,0V338h7.09l-7.62-27.66s-.32-1.22.53-1.46,1.09.89,1.09.89L256,324.54s.83,3.17,3.57,2.36,1.78-4.05,1.78-4.05l-5.43-17.69s-1.94-5.11-6.24-5.11H235.78c-4.3,0-6.24,5.11-6.24,5.11"/><path id="_Path_14" data-name="&lt;Path&gt;" class="cls-2" d="M210.09,290.35a6.53,6.53,0,1,0-6.53,6.54,6.54,6.54,0,0,0,6.53-6.54"/><path id="_Path_15" data-name="&lt;Path&gt;" class="cls-2" d="M190.39,305.16,185,322.84s-1,3.24,1.79,4.05,3.56-2.36,3.56-2.36l4.38-14.76s.24-1.14,1.09-.89.53,1.46.53,1.46L188.69,338h7.09v19.81a3.41,3.41,0,0,0,6.81,0V338h1.94v19.81a3.4,3.4,0,0,0,6.81,0V338h7.09l-7.62-27.66s-.32-1.22.53-1.46,1.09.89,1.09.89l4.38,14.76s.83,3.17,3.57,2.36,1.78-4.05,1.78-4.05l-5.43-17.69s-1.94-5.11-6.24-5.11H196.63c-4.3,0-6.24,5.11-6.24,5.11"/><path id="_Path_16" data-name="&lt;Path&gt;" class="cls-2" d="M271.18,326.93a5.44,5.44,0,1,0-5.44-5.45,5.44,5.44,0,0,0,5.44,5.45"/><path id="_Path_17" data-name="&lt;Path&gt;" class="cls-2" d="M258.14,343.83a1.89,1.89,0,0,0,.79,2.57,1.81,1.81,0,0,0,2.33-.76l3-9.43s.51-.63.51,0v22.2h0a2.79,2.79,0,1,0,5.58,0v-8.76s-.16-1.24.84-1.24.84,1.24.84,1.24v8.76a2.8,2.8,0,0,0,5.59,0v-22.2c0-.65.35-.19.35-.19l2.32,6.46a15.6,15.6,0,0,0,1.32,3,2.06,2.06,0,0,0,2.69-1.11,2,2,0,0,0-.22-2l0,0c-.07-.21-3.46-8.54-3.86-9.71-1.23-3.58-3.46-3.55-5.61-3.61s-3.44,0-3.44,0-1.37-.06-4.21,0-3.73,1.54-6.86,9.59c-.45,1.16-2,4.91-2,5.13Z"/><path id="_Path_18" data-name="&lt;Path&gt;" class="cls-2" d="M151.72,286.73a6.9,6.9,0,1,0-6.91,6.9,6.91,6.91,0,0,0,6.91-6.9"/><path id="_Path_19" data-name="&lt;Path&gt;" class="cls-2" d="M136.76,296.29a9.2,9.2,0,0,0-8.36,9.17v19.13a2.68,2.68,0,0,0,5.36,0V308.16c0-.62.18-1.45,1.31-1.45.78,0,.94.83,1,1.35v49.25a3.84,3.84,0,0,0,7.69,0V328.93a1,1,0,0,1,1.09-1.13h0a1.05,1.05,0,0,1,1.1,1.13v28.38a3.84,3.84,0,1,0,7.69,0V308.06c0-.52.2-1.35,1-1.35,1.13,0,1.31.83,1.31,1.45v16.43a2.68,2.68,0,0,0,5.35,0V305.46a9.2,9.2,0,0,0-8.36-9.17,3.87,3.87,0,0,0-.51,0H137.28a4,4,0,0,0-.52,0"/><line id="_Path_20" data-name="&lt;Path&gt;" class="cls-3" x1="130.27" y1="327.84" x2="125.08" y2="359.38"/><path id="_Path_21" data-name="&lt;Path&gt;" class="cls-2" d="M164.51,324.08a2,2,0,0,0-3.66,1,3.58,3.58,0,0,0,.2.87l5.48,9.92a3.55,3.55,0,0,1,.33,1.31v21.31h0a2.68,2.68,0,1,0,5.36,0v-8.41s-.15-1.19.81-1.19.81,1.19.81,1.19v8.41a2.68,2.68,0,0,0,5.37,0V337.23a3.56,3.56,0,0,1,.33-1.31l5.07-9.16a9,9,0,0,0,.62-1.63,2,2,0,0,0-2-2,2,2,0,0,0-1.67.93h0c-.16.14-2.69,4.66-3.54,5.49a2.2,2.2,0,0,1-1.68.8h-6.59a2.21,2.21,0,0,1-1.68-.8c-.85-.84-3.38-5.36-3.54-5.49Z"/><path id="_Path_22" data-name="&lt;Path&gt;" class="cls-2" d="M173,326.93a5.44,5.44,0,1,0-5.44-5.45,5.44,5.44,0,0,0,5.44,5.45"/><polygon id="_Path_23" data-name="&lt;Path&gt;" class="cls-2" points="173.05 334.57 179.2 339.05 182.12 349.81 173.05 349.81 163.98 349.81 166.9 339.05 173.05 334.57"/></g></g></g></g></svg>
