<svg xmlns="http://www.w3.org/2000/svg" viewBox="0 0 431.73 431.73"><defs><style>.cls-1{fill:#df1f85;}.cls-2{fill:#fff;}</style></defs><title>ods10</title><g id="Layer_2" data-name="Layer 2"><g id="Capa_1" data-name="Capa 1"><g id="_Group_" data-name="&lt;Group&gt;"><path id="_Path_" data-name="&lt;Path&gt;" class="cls-1" d="M215.86,431.73c119.22,0,215.86-96.64,215.86-215.86S335.08,0,215.86,0,0,96.65,0,215.87,96.64,431.73,215.86,431.73"/><path id="_Path_2" data-name="&lt;Path&gt;" class="cls-2" d="M258.39,334.51A45.3,45.3,0,0,0,250,317.34l-.09.07a41.89,41.89,0,1,1-67,50.24A39.33,39.33,0,0,1,239.94,314l.25.22a1.48,1.48,0,0,0,.9.33,1.5,1.5,0,0,0,1-.38l.16-.16,5-4.93.33-.32a1.44,1.44,0,0,0-.08-1.9l-.16-.14a48.31,48.31,0,1,0-62.06,74,45.58,45.58,0,0,0,73.15-46.24"/><path id="_Path_3" data-name="&lt;Path&gt;" class="cls-2" d="M235.68,331a.43.43,0,0,0-.43-.43H196a.43.43,0,0,0-.42.43v8.89a.43.43,0,0,0,.42.43h39.24a.43.43,0,0,0,.43-.43Z"/><polygon id="_Path_4" data-name="&lt;Path&gt;" class="cls-2" points="298.1 128.3 298.1 202.23 314.33 202.23 314.33 105.65 301.37 105.65 286.42 123.17 286.42 140.12 286.56 140.12 297.95 128.3 298.1 128.3"/><path id="_Compound_Path_" data-name="&lt;Compound Path&gt;" class="cls-2" d="M341.83,179.87V128c0-5.84,2.14-10,7.69-10s7.83,4.13,7.83,10v51.86c0,5.85-2.14,10-7.83,10s-7.69-4.12-7.69-10m31.76-2.56V130.57c0-15.09-7.54-26.06-24.07-26.06-16.38,0-23.94,11-23.94,26.06V177.3c0,15,7.56,26.07,23.94,26.07,16.53,0,24.07-11.12,24.07-26.07"/><path id="_Compound_Path_2" data-name="&lt;Compound Path&gt;" class="cls-2" d="M45.23,170.17v12.17h2.19c2.25,0,3.23-1.15,3.23-3.23v-5.76c0-2.14-1-3.18-3.23-3.18Zm0,15.81v17.93H38.66v-39.1h9.57c6.64,0,9.05,3.28,9.05,8.76v5c0,4.21-1.5,6.69-5.24,7.55l6.28,17.76H51.4Z"/><polygon id="_Path_5" data-name="&lt;Path&gt;" class="cls-2" points="60.85 164.81 76.53 164.81 76.53 170.18 67.42 170.18 67.42 181.37 73.94 181.37 73.94 186.66 67.42 186.66 67.42 198.54 76.53 198.54 76.53 203.91 60.85 203.91 60.85 164.81"/><path id="_Compound_Path_3" data-name="&lt;Compound Path&gt;" class="cls-2" d="M89.38,198.55c2.71,0,3.75-1.62,3.75-4V174.1c0-2.31-1-3.92-3.75-3.92H86.61v28.37ZM99.7,175.31v18.11c0,6-2.48,10.49-9.52,10.49H80v-39.1H90.19c7,0,9.52,4.44,9.52,10.5"/><path id="_Path_6" data-name="&lt;Path&gt;" class="cls-2" d="M122.52,164.81v29.58c0,6.05-2.59,10-9.28,10-6.92,0-9.81-3.93-9.81-10V164.81H110V195c0,2.31.92,3.86,3.23,3.86s3.23-1.55,3.23-3.86V164.81Z"/><path id="_Path_7" data-name="&lt;Path&gt;" class="cls-2" d="M126.26,193.82V174.9c0-6.12,2.88-10.55,9.81-10.55,7.26,0,9.28,4,9.28,9.81v4.61h-6v-5.13c0-2.43-.81-3.81-3.17-3.81s-3.34,1.67-3.34,4v21c0,2.36,1,4,3.34,4s3.17-1.51,3.17-3.81v-7.21h6v6.74c0,5.59-2.31,9.74-9.28,9.74s-9.81-4.5-9.81-10.55"/><path id="_Path_8" data-name="&lt;Path&gt;" class="cls-2" d="M148.91,193.82V174.9c0-6.12,2.88-10.55,9.8-10.55,7.27,0,9.29,4,9.29,9.81v4.61h-6v-5.13c0-2.43-.81-3.81-3.17-3.81s-3.34,1.67-3.34,4v21c0,2.36,1,4,3.34,4s3.17-1.51,3.17-3.81v-7.21h6v6.74c0,5.59-2.31,9.74-9.29,9.74s-9.8-4.5-9.8-10.55"/><rect id="_Path_9" data-name="&lt;Path&gt;" class="cls-2" x="171.56" y="164.82" width="6.58" height="39.1"/><path id="_Compound_Path_4" data-name="&lt;Compound Path&gt;" class="cls-2" d="M195.25,194.85v-21c0-2.36-1-4-3.4-4s-3.35,1.67-3.35,4v21c0,2.36,1,4,3.35,4s3.4-1.68,3.4-4m2-32.81-10.32,1.33v-3.69l10.32-2.18Zm-15.28,31.78V174.9c0-6.12,3-10.55,9.92-10.55s10,4.44,10,10.55v18.92c0,6.05-3,10.55-10,10.55s-9.92-4.5-9.92-10.55"/><polygon id="_Path_10" data-name="&lt;Path&gt;" class="cls-2" points="211.09 179.34 211.09 203.9 205.55 203.9 205.55 164.81 212.01 164.81 219.1 187.24 219.1 164.81 224.58 164.81 224.58 203.9 218.82 203.9 211.09 179.34"/><path id="_Compound_Path_5" data-name="&lt;Compound Path&gt;" class="cls-2" d="M243.72,198.55c2.71,0,3.74-1.62,3.74-4V174.1c0-2.31-1-3.92-3.74-3.92h-2.77v28.37ZM254,175.31v18.11c0,6-2.48,10.49-9.52,10.49H234.38v-39.1h10.14c7,0,9.52,4.44,9.52,10.5"/><polygon id="_Path_11" data-name="&lt;Path&gt;" class="cls-2" points="257.77 164.81 273.45 164.81 273.45 170.18 264.35 170.18 264.35 181.37 270.86 181.37 270.86 186.66 264.35 186.66 264.35 198.54 273.45 198.54 273.45 203.91 257.77 203.91 257.77 164.81"/><polygon id="_Path_12" data-name="&lt;Path&gt;" class="cls-2" points="37.36 219.57 43.93 219.57 43.93 253.31 51.77 253.31 51.77 258.67 37.36 258.67 37.36 219.57"/><path id="_Compound_Path_6" data-name="&lt;Compound Path&gt;" class="cls-2" d="M62,246.27h5.25l-2.59-15.69h-.06Zm-8.24,12.4,7.38-39.1h7.5L76,258.67H69.29l-1.21-7.15h-7l-1.15,7.15Z"/><path id="_Path_13" data-name="&lt;Path&gt;" class="cls-2" d="M77.81,250.25V245h6.11v5.35c0,2.2,1,3.46,3.23,3.46,2.08,0,3-1.38,3-3.46v-1.5c0-2.25-.92-3.63-2.94-5.53l-3.86-3.86c-3.75-3.69-5.48-5.94-5.48-10.44v-1.32c0-4.85,2.83-8.6,9.23-8.6,6.58,0,9.17,3.23,9.17,8.88v3.17h-6v-3.41c0-2.25-1-3.34-3.12-3.34A2.88,2.88,0,0,0,84,227.64v.81c0,2.19,1.21,3.45,3.11,5.31l4.22,4.14c3.57,3.64,5.3,5.83,5.3,10.14V250c0,5.36-2.88,9.17-9.57,9.17s-9.28-3.75-9.28-8.88"/><path id="_Compound_Path_7" data-name="&lt;Compound Path&gt;" class="cls-2" d="M124.08,253.3c2.72,0,3.74-1.62,3.74-4V228.85c0-2.31-1-3.92-3.74-3.92h-2.76V253.3Zm10.33-23.24v18.11c0,6-2.48,10.5-9.52,10.5H114.74v-39.1h10.14c7,0,9.52,4.44,9.52,10.49"/><polygon id="_Path_14" data-name="&lt;Path&gt;" class="cls-2" points="138.13 219.56 153.82 219.56 153.82 224.93 144.71 224.93 144.71 236.12 151.22 236.12 151.22 241.42 144.71 241.42 144.71 253.3 153.82 253.3 153.82 258.66 138.13 258.66 138.13 219.56"/><path id="_Path_15" data-name="&lt;Path&gt;" class="cls-2" d="M156.69,250.24V245h6.11v5.36c0,2.19,1,3.45,3.24,3.45,2.07,0,3-1.38,3-3.45v-1.5c0-2.25-.92-3.64-2.94-5.54l-3.86-3.86c-3.75-3.69-5.48-5.95-5.48-10.44V227.7c0-4.84,2.83-8.6,9.23-8.6,6.57,0,9.17,3.23,9.17,8.88v3.17h-6v-3.4c0-2.25-1-3.34-3.12-3.34a2.88,2.88,0,0,0-3.12,3.23v.81c0,2.19,1.21,3.45,3.12,5.3l4.21,4.16c3.57,3.63,5.3,5.82,5.3,10.14V250c0,5.35-2.88,9.16-9.57,9.16s-9.28-3.75-9.28-8.88"/><rect id="_Path_16" data-name="&lt;Path&gt;" class="cls-2" x="179" y="219.56" width="6.57" height="39.1"/><path id="_Path_17" data-name="&lt;Path&gt;" class="cls-2" d="M199.29,237.78h9.34v20.88H203.9v-4.27c-.86,2.95-2.71,4.73-6.29,4.73-5.64,0-8.24-4.5-8.24-10.55V229.65c0-6.11,2.95-10.54,9.87-10.54,7.25,0,9.39,4,9.39,9.79v3.47h-6v-4c0-2.43-.93-3.81-3.29-3.81s-3.4,1.67-3.4,4v21c0,2.37,1,4,3.23,4s3.23-1.21,3.23-3.75V243h-3.11Z"/><path id="_Path_18" data-name="&lt;Path&gt;" class="cls-2" d="M231.45,219.56v29.58c0,6.05-2.59,10-9.28,10-6.93,0-9.81-3.92-9.81-10V219.56h6.57v30.21c0,2.3.92,3.86,3.24,3.86s3.23-1.56,3.23-3.86V219.56Z"/><path id="_Compound_Path_8" data-name="&lt;Compound Path&gt;" class="cls-2" d="M241.52,246.26h5.25l-2.59-15.69h-.06Zm-8.24,12.4,7.38-39.1h7.5l7.44,39.1h-6.74l-1.21-7.15h-7l-1.15,7.15Z"/><polygon id="_Path_19" data-name="&lt;Path&gt;" class="cls-2" points="258.29 219.56 264.87 219.56 264.87 253.3 272.71 253.3 272.71 258.66 258.29 258.66 258.29 219.56"/><path id="_Compound_Path_9" data-name="&lt;Compound Path&gt;" class="cls-2" d="M285,253.3c2.71,0,3.74-1.62,3.74-4V228.85c0-2.31-1-3.92-3.74-3.92h-2.77V253.3Zm10.32-23.24v18.11c0,6-2.48,10.5-9.52,10.5H275.7v-39.1h10.14c7,0,9.52,4.44,9.52,10.49"/><path id="_Compound_Path_10" data-name="&lt;Compound Path&gt;" class="cls-2" d="M305.43,246.26h5.25l-2.59-15.69H308Zm-8.24,12.4,7.38-39.1h7.5l7.44,39.1h-6.74l-1.21-7.15h-7l-1.15,7.15Z"/><path id="_Compound_Path_11" data-name="&lt;Compound Path&gt;" class="cls-2" d="M331.54,253.3c2.72,0,3.75-1.62,3.75-4V228.85c0-2.31-1-3.92-3.75-3.92h-2.76V253.3Zm10.33-23.24v18.11c0,6-2.48,10.5-9.52,10.5H322.21v-39.1h10.14c7,0,9.52,4.44,9.52,10.49"/><polygon id="_Path_20" data-name="&lt;Path&gt;" class="cls-2" points="345.6 219.56 361.28 219.56 361.28 224.93 352.17 224.93 352.17 236.12 358.69 236.12 358.69 241.42 352.17 241.42 352.17 253.3 361.28 253.3 361.28 258.66 345.6 258.66 345.6 219.56"/><path id="_Path_21" data-name="&lt;Path&gt;" class="cls-2" d="M364.16,250.24V245h6.11v5.36c0,2.19,1,3.45,3.24,3.45,2.07,0,3-1.38,3-3.45v-1.5c0-2.25-.92-3.64-2.94-5.54l-3.86-3.86c-3.75-3.69-5.48-5.95-5.48-10.44V227.7c0-4.84,2.83-8.6,9.23-8.6,6.58,0,9.17,3.23,9.17,8.88v3.17h-6v-3.4c0-2.25-1-3.34-3.12-3.34a2.88,2.88,0,0,0-3.12,3.23v.81c0,2.19,1.21,3.45,3.12,5.3l4.21,4.16c3.57,3.63,5.3,5.82,5.3,10.14V250c0,5.35-2.88,9.16-9.57,9.16s-9.28-3.75-9.28-8.88"/></g></g></g></svg>
