<svg xmlns="http://www.w3.org/2000/svg" viewBox="0 0 431.73 431.73"><defs><style>.cls-1{fill:#f59d29;}.cls-2{fill:#fff;}</style></defs><title>ods11</title><g id="Layer_2" data-name="Layer 2"><g id="Capa_1" data-name="Capa 1"><g id="_Group_" data-name="&lt;Group&gt;"><path id="_Path_" data-name="&lt;Path&gt;" class="cls-1" d="M215.86,431.73c119.22,0,215.86-96.64,215.86-215.86S335.08,0,215.86,0,0,96.65,0,215.87,96.64,431.73,215.86,431.73"/><g id="_Group_2" data-name="&lt;Group&gt;"><path id="_Path_2" data-name="&lt;Path&gt;" class="cls-2" d="M140.41,348.55h33.46a.82.82,0,0,0,.6-1.37l0,0-16.65-21.54-.16-.18a.82.82,0,0,0-.61-.27.87.87,0,0,0-.54.21l-.1.12-.15.18L140,347l-.25.31a.8.8,0,0,0-.14.46.83.83,0,0,0,.82.82"/><path id="_Path_3" data-name="&lt;Path&gt;" class="cls-2" d="M173.77,351.58H140.25a.82.82,0,0,0-.82.82v26.24a.82.82,0,0,0,.82.82H151V363a.82.82,0,0,1,.82-.82h10a.82.82,0,0,1,.82.82v16.5h11.08a.82.82,0,0,0,.82-.82V352.4a.82.82,0,0,0-.82-.82"/><path id="_Compound_Path_" data-name="&lt;Compound Path&gt;" class="cls-2" d="M286.65,355.46a.8.8,0,0,1-.81.79h-9.91a.8.8,0,0,1-.81-.79v-6a.8.8,0,0,1,.81-.79h9.91a.8.8,0,0,1,.81.79Zm0,11.13a.8.8,0,0,1-.81.79h-9.91a.8.8,0,0,1-.81-.79v-6a.8.8,0,0,1,.81-.79h9.91a.8.8,0,0,1,.81.79Zm-15.15-11.13a.8.8,0,0,1-.81.79h-9.91a.81.81,0,0,1-.82-.79v-6a.81.81,0,0,1,.82-.79h9.91a.8.8,0,0,1,.81.79Zm0,11.13a.8.8,0,0,1-.81.79h-9.91a.81.81,0,0,1-.82-.79v-6a.8.8,0,0,1,.82-.79h9.91a.8.8,0,0,1,.81.79Zm18.16-21.87H256.47a.8.8,0,0,0-.81.79V379a.8.8,0,0,0,.81.79h33.18a.8.8,0,0,0,.81-.79V345.5a.8.8,0,0,0-.81-.79"/><path id="_Compound_Path_2" data-name="&lt;Compound Path&gt;" class="cls-2" d="M207.77,290.75a.43.43,0,0,1-.43.43h-7.43a.43.43,0,0,1-.43-.43v-8.29a.43.43,0,0,1,.43-.43h7.43a.43.43,0,0,1,.43.43Zm0,19a.43.43,0,0,1-.43.43h-7.43a.43.43,0,0,1-.43-.43v-8.29a.43.43,0,0,1,.43-.43h7.43a.43.43,0,0,1,.43.43Zm0,19a.43.43,0,0,1-.43.43h-7.43a.42.42,0,0,1-.43-.43v-8.29a.43.43,0,0,1,.43-.43h7.43a.43.43,0,0,1,.43.43Zm0,19a.42.42,0,0,1-.43.43h-7.43a.42.42,0,0,1-.43-.43v-8.28a.42.42,0,0,1,.43-.43h7.43a.42.42,0,0,1,.43.43Zm0,19a.43.43,0,0,1-.43.43h-7.43a.43.43,0,0,1-.43-.43v-8.28a.43.43,0,0,1,.43-.43h7.43a.43.43,0,0,1,.43.43Zm-14.58-76.11a.43.43,0,0,1-.43.43h-7.43a.43.43,0,0,1-.43-.43v-8.29a.42.42,0,0,1,.43-.43h7.43a.42.42,0,0,1,.43.43Zm0,19a.43.43,0,0,1-.43.43h-7.43a.43.43,0,0,1-.43-.43v-8.29a.42.42,0,0,1,.43-.43h7.43a.42.42,0,0,1,.43.43Zm0,19a.42.42,0,0,1-.43.43h-7.43a.42.42,0,0,1-.43-.43v-8.29a.43.43,0,0,1,.43-.43h7.43a.43.43,0,0,1,.43.43Zm0,19a.42.42,0,0,1-.43.43h-7.43a.42.42,0,0,1-.43-.43v-8.28a.42.42,0,0,1,.43-.43h7.43a.42.42,0,0,1,.43.43Zm0,19a.42.42,0,0,1-.43.43h-7.43a.42.42,0,0,1-.43-.43v-8.28a.43.43,0,0,1,.43-.43h7.43a.43.43,0,0,1,.43.43Zm19.32-99.93H180a.79.79,0,0,0-.79.79v111a.8.8,0,0,0,.79.79h32.47a.81.81,0,0,0,.8-.79v-111a.8.8,0,0,0-.8-.79"/><path id="_Path_4" data-name="&lt;Path&gt;" class="cls-2" d="M290.43,341.34a.67.67,0,0,1-.67.67h-33.4a.66.66,0,0,1-.66-.67v-6.68a.66.66,0,0,1,.66-.66h33.4a.66.66,0,0,1,.67.66Z"/><path id="_Compound_Path_3" data-name="&lt;Compound Path&gt;" class="cls-2" d="M248,321.81a.79.79,0,0,1-.79.79h-9.67a.79.79,0,0,1-.8-.79v-6.06a.8.8,0,0,1,.8-.8h9.67a.8.8,0,0,1,.79.8ZM248,333a.79.79,0,0,1-.79.79h-9.67a.8.8,0,0,1-.8-.79v-6.06a.8.8,0,0,1,.8-.79h9.67a.79.79,0,0,1,.79.79Zm0,11.2a.79.79,0,0,1-.79.79h-9.67a.79.79,0,0,1-.8-.79v-6.06a.79.79,0,0,1,.8-.79h9.67a.79.79,0,0,1,.79.79Zm0,11.2a.79.79,0,0,1-.79.79h-9.67a.79.79,0,0,1-.8-.79v-6.06a.8.8,0,0,1,.8-.8h9.67a.8.8,0,0,1,.79.8Zm0,11.19a.8.8,0,0,1-.79.8h-9.67a.8.8,0,0,1-.8-.8v-6.05a.8.8,0,0,1,.8-.79h9.67a.79.79,0,0,1,.79.79Zm-14.77-46.91V333a.79.79,0,0,1-.79.79H222.8A.79.79,0,0,1,222,333v-1.68a.92.92,0,0,1,.06-.3.63.63,0,0,1,0-.09l.07-.11.09-.12c1.24-1.77,6.82-8.65,9.16-11.52l.24-.28a.91.91,0,0,1,1.6.4Zm0,24.53a.79.79,0,0,1-.79.79h-9.68a.79.79,0,0,1-.79-.79v-6.06a.79.79,0,0,1,.79-.79h9.68a.79.79,0,0,1,.79.79Zm0,11.2a.79.79,0,0,1-.79.79h-9.68a.79.79,0,0,1-.79-.79v-6.06a.8.8,0,0,1,.79-.8h9.68a.79.79,0,0,1,.79.8Zm0,11.19a.79.79,0,0,1-.79.8h-9.68a.8.8,0,0,1-.79-.8v-6.05a.79.79,0,0,1,.79-.79h9.68a.79.79,0,0,1,.79.79Zm5.05-56.69.23-.29c2.19-2.8,5.87-7.33,7.66-9.53l.23-.28a.93.93,0,0,1,.72-.34.9.9,0,0,1,.88.74v10.24a.92.92,0,0,1-.88.91H239a.92.92,0,0,1-.88-.91.9.9,0,0,1,.18-.55m13.44-22a.86.86,0,0,0-.82-.62.84.84,0,0,0-.46.15l-.06,0-.27.34L218.2,328.3l-.14.2a.92.92,0,0,0-.28.63v49.75a.79.79,0,0,0,.79.79H251a.79.79,0,0,0,.79-.79V288.22a.78.78,0,0,0-.08-.33"/></g><polygon id="_Path_5" data-name="&lt;Path&gt;" class="cls-2" points="51.11 150.33 51.11 165.97 51.24 165.97 61.75 155.05 61.88 155.05 61.88 223.29 76.87 223.29 76.87 134.16 64.9 134.16 51.11 150.33"/><polygon id="_Path_6" data-name="&lt;Path&gt;" class="cls-2" points="85.28 150.33 85.28 165.97 85.41 165.97 95.93 155.05 96.06 155.05 96.06 223.29 111.05 223.29 111.05 134.16 99.09 134.16 85.28 150.33"/><path id="_Path_7" data-name="&lt;Path&gt;" class="cls-2" d="M150.66,131.24V113.11c0-5.85,2.77-10.1,9.4-10.1,7,0,8.89,3.86,8.89,9.4v4.42h-5.74V111.9c0-2.32-.78-3.65-3-3.65s-3.21,1.6-3.21,3.87v20.11c0,2.27.94,3.87,3.21,3.87s3-1.43,3-3.65v-6.91H169V132c0,5.36-2.21,9.34-8.89,9.34s-9.4-4.31-9.4-10.11"/><rect id="_Path_8" data-name="&lt;Path&gt;" class="cls-2" x="172.38" y="103.44" width="6.3" height="37.47"/><path id="_Path_9" data-name="&lt;Path&gt;" class="cls-2" d="M200.6,103.44v28.34c0,5.8-2.49,9.57-8.89,9.57-6.63,0-9.4-3.76-9.4-9.57V103.44h6.3v28.95c0,2.21.89,3.7,3.1,3.7s3.09-1.49,3.09-3.7V103.44Z"/><path id="_Compound_Path_4" data-name="&lt;Compound Path&gt;" class="cls-2" d="M213.12,135.77c2.61,0,3.59-1.55,3.59-3.82V112.34c0-2.21-1-3.76-3.59-3.76h-2.65v27.18ZM223,113.5v17.35c0,5.74-2.37,10.06-9.12,10.06h-9.72V103.45h9.72c6.74,0,9.12,4.25,9.12,10.05"/><path id="_Compound_Path_5" data-name="&lt;Compound Path&gt;" class="cls-2" d="M232.67,129h5l-2.48-15h-.06Zm-7.9,11.88,7.08-37.46H239l7.13,37.46h-6.47l-1.16-6.85h-6.68l-1.11,6.85Z"/><path id="_Compound_Path_6" data-name="&lt;Compound Path&gt;" class="cls-2" d="M257.7,135.77c2.6,0,3.58-1.55,3.58-3.82V112.34c0-2.21-1-3.76-3.58-3.76H255v27.18Zm9.89-22.27v17.35c0,5.74-2.37,10.06-9.12,10.06h-9.73V103.45h9.73c6.74,0,9.12,4.25,9.12,10.05"/><polygon id="_Path_10" data-name="&lt;Path&gt;" class="cls-2" points="271.16 103.44 286.19 103.44 286.19 108.58 277.46 108.58 277.46 119.3 283.7 119.3 283.7 124.39 277.46 124.39 277.46 135.76 286.19 135.76 286.19 140.9 271.16 140.9 271.16 103.44"/><path id="_Path_11" data-name="&lt;Path&gt;" class="cls-2" d="M288.94,132.84v-5h5.86v5.13c0,2.1.94,3.31,3.09,3.31,2,0,2.87-1.33,2.87-3.31v-1.44c0-2.15-.88-3.48-2.81-5.3l-3.7-3.7c-3.59-3.53-5.25-5.7-5.25-10v-1.26c0-4.65,2.71-8.24,8.84-8.24,6.3,0,8.78,3.1,8.78,8.52v3h-5.74v-3.26c0-2.16-1-3.21-3-3.21a2.77,2.77,0,0,0-3,3.1V112c0,2.1,1.16,3.31,3,5.09l4,4c3.42,3.48,5.08,5.58,5.08,9.72v1.83c0,5.13-2.77,8.79-9.17,8.79s-8.89-3.59-8.89-8.51"/><polygon id="_Path_12" data-name="&lt;Path&gt;" class="cls-2" points="328.37 126.65 328.37 140.91 322.08 140.91 322.08 126.65 315.05 103.45 321.64 103.45 325.44 117.64 325.5 117.64 329.31 103.45 335.33 103.45 328.37 126.65"/><path id="_Path_13" data-name="&lt;Path&gt;" class="cls-2" d="M150.66,180.94V162.82c0-5.86,2.77-10.11,9.4-10.11,7,0,8.89,3.86,8.89,9.39v4.42h-5.74V161.6c0-2.32-.78-3.65-3-3.65s-3.21,1.6-3.21,3.86v20.12c0,2.27.94,3.87,3.21,3.87s3-1.44,3-3.65v-6.91H169v6.46c0,5.36-2.21,9.34-8.89,9.34s-9.4-4.31-9.4-10.11"/><path id="_Compound_Path_7" data-name="&lt;Compound Path&gt;" class="cls-2" d="M185.14,181.93V161.82c0-2.27-1-3.87-3.26-3.87s-3.21,1.6-3.21,3.87v20.11c0,2.27,1,3.88,3.21,3.88s3.26-1.6,3.26-3.88m-12.76-1V162.81c0-5.86,2.87-10.11,9.5-10.11s9.56,4.25,9.56,10.11v18.13c0,5.8-2.87,10.1-9.56,10.1s-9.5-4.31-9.5-10.1"/><polygon id="_Path_14" data-name="&lt;Path&gt;" class="cls-2" points="212.36 166.29 212.19 166.29 207.94 190.6 205.02 190.6 200.31 166.29 200.21 166.29 200.21 190.6 195.01 190.6 195.01 153.14 202.36 153.14 206.45 174.25 206.5 174.25 210.16 153.14 218.11 153.14 218.11 190.6 212.36 190.6 212.36 166.29"/><path id="_Path_15" data-name="&lt;Path&gt;" class="cls-2" d="M240,153.14v28.34c0,5.8-2.49,9.57-8.89,9.57-6.63,0-9.4-3.76-9.4-9.57V153.14H228v28.95c0,2.21.89,3.71,3.1,3.71s3.09-1.5,3.09-3.71V153.14Z"/><polygon id="_Path_16" data-name="&lt;Path&gt;" class="cls-2" points="248.85 167.07 248.85 190.61 243.55 190.61 243.55 153.15 249.74 153.15 256.54 174.64 256.54 153.15 261.78 153.15 261.78 190.61 256.25 190.61 248.85 167.07"/><rect id="_Path_17" data-name="&lt;Path&gt;" class="cls-2" x="265.36" y="153.14" width="6.3" height="37.46"/><path id="_Compound_Path_8" data-name="&lt;Compound Path&gt;" class="cls-2" d="M284.25,185.47c2.61,0,3.59-1.54,3.59-3.81V162c0-2.2-1-3.75-3.59-3.75H281.6v27.18Zm9.9-22.27v17.35c0,5.74-2.37,10.05-9.12,10.05h-9.72V153.14H285c6.74,0,9.12,4.25,9.12,10.06"/><path id="_Compound_Path_9" data-name="&lt;Compound Path&gt;" class="cls-2" d="M303.8,178.72h5l-2.48-15h-.06Zm-7.9,11.88L303,153.14h7.18l7.13,37.46h-6.47l-1.16-6.84H303l-1.11,6.84Z"/><path id="_Compound_Path_10" data-name="&lt;Compound Path&gt;" class="cls-2" d="M328.82,185.47c2.6,0,3.58-1.54,3.58-3.81V162c0-2.2-1-3.75-3.58-3.75h-2.66v27.18Zm9.89-22.27v17.35c0,5.74-2.37,10.05-9.12,10.05h-9.73V153.14h9.73c6.74,0,9.12,4.25,9.12,10.06"/><polygon id="_Path_18" data-name="&lt;Path&gt;" class="cls-2" points="342.28 153.14 357.31 153.14 357.31 158.28 348.58 158.28 348.58 169 354.82 169 354.82 174.09 348.58 174.09 348.58 185.47 357.31 185.47 357.31 190.6 342.28 190.6 342.28 153.14"/><path id="_Path_19" data-name="&lt;Path&gt;" class="cls-2" d="M360.07,182.54v-5h5.86v5.14c0,2.1.94,3.31,3.09,3.31,2,0,2.87-1.33,2.87-3.31v-1.43c0-2.16-.89-3.48-2.81-5.3l-3.71-3.71c-3.59-3.53-5.25-5.69-5.25-10v-1.26c0-4.64,2.71-8.24,8.84-8.24,6.3,0,8.79,3.1,8.79,8.52v3H372V161c0-2.16-1-3.21-3-3.21a2.77,2.77,0,0,0-3,3.1v.77c0,2.1,1.16,3.31,3,5.08l4,4c3.42,3.48,5.08,5.58,5.08,9.72v1.83c0,5.14-2.77,8.79-9.17,8.79s-8.89-3.59-8.89-8.51"/><path id="_Path_20" data-name="&lt;Path&gt;" class="cls-2" d="M150.33,232.24v-5h5.86v5.14c0,2.1.94,3.31,3.09,3.31,2,0,2.87-1.33,2.87-3.31v-1.44c0-2.15-.89-3.48-2.81-5.3l-3.71-3.71c-3.59-3.54-5.25-5.69-5.25-10v-1.26c0-4.64,2.71-8.24,8.84-8.24,6.3,0,8.79,3.1,8.79,8.52v3h-5.74v-3.27c0-2.15-1-3.2-3-3.2a2.77,2.77,0,0,0-3,3.1v.77c0,2.1,1.16,3.31,3,5.08l4,4c3.42,3.48,5.08,5.58,5.08,9.72V232c0,5.14-2.76,8.79-9.17,8.79s-8.89-3.59-8.89-8.51"/><path id="_Compound_Path_11" data-name="&lt;Compound Path&gt;" class="cls-2" d="M184.47,231.63V211.52c0-2.27-1-3.87-3.26-3.87s-3.21,1.6-3.21,3.87v20.11c0,2.27,1,3.87,3.21,3.87s3.26-1.6,3.26-3.87m-12.76-1V212.51c0-5.86,2.87-10.11,9.5-10.11s9.56,4.25,9.56,10.11v18.13c0,5.8-2.88,10.11-9.56,10.11s-9.5-4.32-9.5-10.11"/><path id="_Path_21" data-name="&lt;Path&gt;" class="cls-2" d="M194,232.24v-5h5.86v5.14c0,2.1.93,3.31,3.09,3.31,2,0,2.87-1.33,2.87-3.31v-1.44c0-2.15-.89-3.48-2.81-5.3l-3.71-3.71c-3.59-3.54-5.25-5.69-5.25-10v-1.26c0-4.64,2.71-8.24,8.84-8.24,6.3,0,8.78,3.1,8.78,8.52v3h-5.74v-3.27c0-2.15-1-3.2-3-3.2a2.77,2.77,0,0,0-3,3.1v.77c0,2.1,1.16,3.31,3,5.08l4,4c3.42,3.48,5.08,5.58,5.08,9.72V232c0,5.14-2.77,8.79-9.17,8.79s-8.89-3.59-8.89-8.51"/><polygon id="_Path_22" data-name="&lt;Path&gt;" class="cls-2" points="213.84 202.85 230.58 202.85 230.58 207.98 225.38 207.98 225.38 240.31 219.03 240.31 219.03 207.98 213.84 207.98 213.84 202.85"/><polygon id="_Path_23" data-name="&lt;Path&gt;" class="cls-2" points="233.5 202.85 248.53 202.85 248.53 207.98 239.79 207.98 239.79 218.7 246.04 218.7 246.04 223.79 239.79 223.79 239.79 235.16 248.53 235.16 248.53 240.31 233.5 240.31 233.5 202.85"/><polygon id="_Path_24" data-name="&lt;Path&gt;" class="cls-2" points="257.19 216.77 257.19 240.31 251.89 240.31 251.89 202.84 258.08 202.84 264.87 224.34 264.87 202.84 270.12 202.84 270.12 240.31 264.59 240.31 257.19 216.77"/><rect id="_Path_25" data-name="&lt;Path&gt;" class="cls-2" x="273.7" y="202.85" width="6.3" height="37.46"/><path id="_Compound_Path_12" data-name="&lt;Compound Path&gt;" class="cls-2" d="M289.94,223.46v11.71h2.77c2.1,0,3.09-1,3.09-3v-5.63c0-2-.94-3-3.14-3Zm0-4.81h2.21c2,0,3-1,3-3V211c0-2-.93-3-3-3h-2.16Zm-6.3-15.8h9.12c6.3,0,8.39,2.93,8.39,8.23v3.82c0,3.14-1.16,5.14-3.75,6,3.14.72,4.69,2.81,4.69,6.24v5c0,5.3-2.37,8.23-8.67,8.23h-9.78Z"/><polygon id="_Path_26" data-name="&lt;Path&gt;" class="cls-2" points="305.23 202.85 311.52 202.85 311.52 235.16 319.04 235.16 319.04 240.31 305.23 240.31 305.23 202.85"/><polygon id="_Path_27" data-name="&lt;Path&gt;" class="cls-2" points="321.9 202.85 336.93 202.85 336.93 207.98 328.2 207.98 328.2 218.7 334.45 218.7 334.45 223.79 328.2 223.79 328.2 235.16 336.93 235.16 336.93 240.31 321.9 240.31 321.9 202.85"/><path id="_Path_28" data-name="&lt;Path&gt;" class="cls-2" d="M339.69,232.24v-5h5.86v5.14c0,2.1.94,3.31,3.09,3.31,2,0,2.87-1.33,2.87-3.31v-1.44c0-2.15-.88-3.48-2.81-5.3L345,221.91c-3.59-3.54-5.25-5.69-5.25-10v-1.26c0-4.64,2.71-8.24,8.84-8.24,6.3,0,8.79,3.1,8.79,8.52v3h-5.75v-3.27c0-2.15-1-3.2-3-3.2a2.77,2.77,0,0,0-3,3.1v.77c0,2.1,1.16,3.31,3,5.08l4,4c3.42,3.48,5.08,5.58,5.08,9.72V232c0,5.14-2.76,8.79-9.17,8.79s-8.89-3.59-8.89-8.51"/></g></g></g></svg>
