<svg xmlns="http://www.w3.org/2000/svg" viewBox="0 0 431.73 431.73"><defs><style>.cls-1{fill:#0076b8;}.cls-2{fill:#fff;}</style></defs><title>ods14</title><g id="Layer_2" data-name="Layer 2"><g id="Capa_1" data-name="Capa 1"><g id="_Group_" data-name="&lt;Group&gt;"><path id="_Path_" data-name="&lt;Path&gt;" class="cls-1" d="M215.86,431.73c119.22,0,215.86-96.64,215.86-215.86S335.08,0,215.86,0,0,96.65,0,215.87,96.64,431.73,215.86,431.73"/><path id="_Compound_Path_" data-name="&lt;Compound Path&gt;" class="cls-2" d="M238,361.18a6.59,6.59,0,1,1,6.6-6.59,6.59,6.59,0,0,1-6.6,6.59m28.63-3.07c-2.5-3.37-18.6-23.9-41.18-23.9-19.62,0-40.59,17.78-40.59,17.78s-7.88-16.13-24-17.68l-.3,0h-.1a.66.66,0,0,0-.62.64,1.73,1.73,0,0,0,.25.59c2.08,3.45,7.38,13.26,7.38,23.07s-5.33,19.68-7.39,23.11l-.14.22a.7.7,0,0,0-.1.34.63.63,0,0,0,.59.63h.35c16.17-1.51,24.08-17.69,24.08-17.69S205.8,383,225.42,383c22.58,0,38.68-20.53,41.18-23.9.07-.09.12-.17.17-.23a.65.65,0,0,0,.06-.25.62.62,0,0,0-.06-.24l-.17-.23"/><path id="_Path_2" data-name="&lt;Path&gt;" class="cls-2" d="M183.35,315.8a.58.58,0,0,1,.17-.18.67.67,0,0,1,.35-.12.65.65,0,0,1,.45.18s0,0,0,0c12.31,11.74,25.23,2.22,27.92,0l.26-.25a.62.62,0,0,1,.24,0,.69.69,0,0,1,.26,0l.26.25c2.68,2.22,15.6,11.74,27.91,0l0,0a.62.62,0,0,1,.44-.18.63.63,0,0,1,.35.12.71.71,0,0,1,.18.18c2.39,2.35,12.7,11.23,23.6,1.74a.63.63,0,0,0,.19-.45v-4.51a.64.64,0,0,0-.64-.65l-.13,0-.33.16c-3.35,1.68-13.75,5.66-23.19-3.25l-.28-.26a.52.52,0,0,0-.28-.06.37.37,0,0,0-.2,0,.57.57,0,0,0-.33.24c-2.81,2.14-15.72,10.88-27.22.16l-.17-.17a.68.68,0,0,0-.92,0l-.18.17c-11.49,10.73-24.42,2-27.22-.16a.55.55,0,0,0-.32-.24.43.43,0,0,0-.21,0,.52.52,0,0,0-.27.06l-.28.26c-9.44,8.92-19.83,4.94-23.18,3.25l-.34-.16a.5.5,0,0,0-.12,0,.65.65,0,0,0-.65.65v4.51a.63.63,0,0,0,.19.45c10.9,9.48,21.23.61,23.61-1.74"/><path id="_Path_3" data-name="&lt;Path&gt;" class="cls-2" d="M160.32,295.6l-.12,0a.65.65,0,0,0-.65.65v4.49a.66.66,0,0,0,.19.46c10.9,9.47,21.22.59,23.61-1.75a.55.55,0,0,1,.17-.18.65.65,0,0,1,.36-.12.62.62,0,0,1,.44.17l0,0c12.32,11.75,25.23,2.23,27.91,0l.27-.24a.53.53,0,0,1,.24,0,.6.6,0,0,1,.26,0l.26.24c2.68,2.23,15.6,11.75,27.91,0l0,0a.61.61,0,0,1,.43-.17.65.65,0,0,1,.36.12.57.57,0,0,1,.18.18c2.39,2.34,12.7,11.22,23.61,1.75a.68.68,0,0,0,.19-.46v-4.49a.64.64,0,0,0-.64-.65l-.14,0-.32.17c-3.35,1.68-13.75,5.68-23.19-3.26a3.59,3.59,0,0,1-.28-.26.78.78,0,0,0-.28-.06.92.92,0,0,0-.2,0,.77.77,0,0,0-.33.25c-2.81,2.15-15.72,10.89-27.22.16l-.17-.16a.71.71,0,0,0-.46-.2.67.67,0,0,0-.45.2l-.18.16c-11.5,10.73-24.42,2-27.23-.16a.7.7,0,0,0-.32-.25,1.15,1.15,0,0,0-.2,0,.85.85,0,0,0-.28.06,2.2,2.2,0,0,1-.28.26c-9.44,8.93-19.83,4.93-23.19,3.26l-.33-.17"/><polygon id="_Path_4" data-name="&lt;Path&gt;" class="cls-2" points="75.12 138.32 75.12 246.5 56.93 246.5 56.93 163.69 56.77 163.69 44.01 176.94 43.84 176.94 43.84 157.95 60.59 138.32 75.12 138.32"/><path id="_Compound_Path_2" data-name="&lt;Compound Path&gt;" class="cls-2" d="M97.15,214.77l16.28-44.55h.17v44.55Zm33.36,31.76V229h7.34v-14.2h-7.34V138.3H112.64L81.19,217.8V229h32.07v17.56Z"/><polygon id="_Path_5" data-name="&lt;Path&gt;" class="cls-2" points="180.19 145.81 171.53 191.3 163.21 191.3 154.56 145.81 162.35 145.81 167.58 177.55 167.65 177.55 173.02 145.81 180.19 145.81"/><rect id="_Path_6" data-name="&lt;Path&gt;" class="cls-2" x="183.33" y="145.79" width="7.65" height="45.51"/><path id="_Compound_Path_3" data-name="&lt;Compound Path&gt;" class="cls-2" d="M206.27,185.06c3.15,0,4.36-1.87,4.36-4.62V156.61c0-2.68-1.21-4.57-4.36-4.57h-3.21v33Zm12-27v21.07c0,7-2.88,12.21-11.07,12.21H195.4V145.81h11.81c8.18,0,11.07,5.17,11.07,12.21"/><path id="_Compound_Path_4" data-name="&lt;Compound Path&gt;" class="cls-2" d="M230,176.87h6.11l-3-18.26H233Zm-9.59,14.43,8.6-45.49h8.71l8.66,45.49h-7.85L237.12,183H229l-1.36,8.32Z"/><path id="_Path_7" data-name="&lt;Path&gt;" class="cls-2" d="M155.3,245.21V239.1h7.11v6.25c0,2.55,1.14,4,3.76,4,2.42,0,3.5-1.61,3.5-4v-1.76c0-2.6-1.08-4.21-3.43-6.43l-4.49-4.49c-4.37-4.31-6.38-6.92-6.38-12.14V219c0-5.63,3.28-10,10.73-10,7.65,0,10.67,3.76,10.67,10.34V223h-7v-4c0-2.62-1.21-3.88-3.63-3.88-2.15,0-3.63,1.19-3.63,3.76v.93c0,2.55,1.41,4,3.63,6.18l4.9,4.82c4.16,4.24,6.16,6.78,6.16,11.81v2.22c0,6.23-3.35,10.67-11.13,10.67s-10.8-4.37-10.8-10.34"/><path id="_Path_8" data-name="&lt;Path&gt;" class="cls-2" d="M203.46,209.52v34.42c0,7-3,11.61-10.8,11.61-8.05,0-11.41-4.57-11.41-11.61V209.52h7.65v35.15c0,2.68,1.08,4.51,3.76,4.51s3.76-1.82,3.76-4.51V209.52Z"/><path id="_Compound_Path_5" data-name="&lt;Compound Path&gt;" class="cls-2" d="M215.46,234.55v14.21h3.35c2.55,0,3.76-1.28,3.76-3.68v-6.84c0-2.42-1.14-3.69-3.83-3.69Zm0-5.83h2.68c2.49,0,3.61-1.28,3.61-3.69v-5.58c0-2.47-1.13-3.68-3.68-3.68h-2.62Zm-7.65-19.2h11.07c7.65,0,10.21,3.56,10.21,10v4.62c0,3.83-1.41,6.25-4.57,7.24,3.83.88,5.71,3.43,5.71,7.59v6c0,6.43-2.88,10-10.54,10H207.81Z"/><polygon id="_Path_9" data-name="&lt;Path&gt;" class="cls-2" points="255.1 225.49 254.9 225.49 249.73 255.01 246.17 255.01 240.47 225.49 240.34 225.49 240.34 255.01 234.03 255.01 234.03 209.52 242.95 209.52 247.91 235.15 247.99 235.15 252.41 209.52 262.07 209.52 262.07 255.01 255.1 255.01 255.1 225.49"/><path id="_Compound_Path_6" data-name="&lt;Compound Path&gt;" class="cls-2" d="M274.8,240.58h6.11l-3-18.24h-.07ZM265.21,255l8.6-45.49h8.71L291.18,255h-7.85l-1.41-8.32H273.8L272.45,255Z"/><path id="_Compound_Path_7" data-name="&lt;Compound Path&gt;" class="cls-2" d="M302,215.76v14.16h2.55c2.62,0,3.76-1.34,3.76-3.76v-6.71c0-2.48-1.14-3.69-3.76-3.69Zm0,18.39V255H294.3V209.51h11.15c7.7,0,10.52,3.83,10.52,10.21v5.85c0,4.89-1.74,7.77-6.1,8.78L317.18,255h-8Z"/><rect id="_Path_10" data-name="&lt;Path&gt;" class="cls-2" x="320.14" y="209.51" width="7.65" height="45.51"/><polygon id="_Path_11" data-name="&lt;Path&gt;" class="cls-2" points="338.64 226.42 338.64 255.02 332.2 255.02 332.2 209.51 339.72 209.51 347.97 235.62 347.97 209.51 354.35 209.51 354.35 255.02 347.64 255.02 338.64 226.42"/><path id="_Compound_Path_8" data-name="&lt;Compound Path&gt;" class="cls-2" d="M367.07,240.58h6.11l-3-18.24h-.08ZM357.48,255l8.6-45.49h8.71L383.45,255H375.6l-1.41-8.32h-8.12L364.72,255Z"/></g></g></g></svg>
