<svg xmlns="http://www.w3.org/2000/svg" viewBox="0 0 431.73 431.73"><defs><style>.cls-1{fill:#3ea635;}.cls-2{fill:#fff;}</style></defs><title>ods15</title><g id="Layer_2" data-name="Layer 2"><g id="Capa_1" data-name="Capa 1"><g id="_Group_" data-name="&lt;Group&gt;"><path id="_Path_" data-name="&lt;Path&gt;" class="cls-1" d="M215.86,431.73c119.22,0,215.86-96.64,215.86-215.86S335.08,0,215.86,0,0,96.65,0,215.87,96.64,431.73,215.86,431.73"/><g id="_Group_2" data-name="&lt;Group&gt;"><rect id="_Path_2" data-name="&lt;Path&gt;" class="cls-2" x="199.88" y="315.16" width="6.41" height="14.63" rx="0.42" ry="0.42"/><path id="_Path_3" data-name="&lt;Path&gt;" class="cls-2" d="M267.18,335.71h-92a.43.43,0,0,0-.42.43v5.62a.41.41,0,0,0,.42.42h92a.42.42,0,0,0,.42-.42v-5.62a.43.43,0,0,0-.42-.43"/><path id="_Path_4" data-name="&lt;Path&gt;" class="cls-2" d="M267.18,346.89h-92a.42.42,0,0,0-.42.42v5.64a.42.42,0,0,0,.42.42h92a.42.42,0,0,0,.42-.42v-5.64a.42.42,0,0,0-.42-.42"/><path id="_Path_5" data-name="&lt;Path&gt;" class="cls-2" d="M249.67,299.89a13.62,13.62,0,0,0-8-3,10.65,10.65,0,0,0-7.39,3.14.79.79,0,0,0-.24.58v.5a.8.8,0,0,0,.26.63.74.74,0,0,0,.65.15l.17,0a1.19,1.19,0,0,0,.46-.29,7.46,7.46,0,0,1,3.69-.77,13.94,13.94,0,0,1,9.48,4l.08.08a1.11,1.11,0,0,0,1.58,0l.07-.08a14,14,0,0,1,9.5-4,7.4,7.4,0,0,1,3.69.77,1.34,1.34,0,0,0,.51.31,1,1,0,0,0,.53,0,.79.79,0,0,0,.58-.76v-.44a.8.8,0,0,0-.25-.57,10.64,10.64,0,0,0-7.48-3.22,13.51,13.51,0,0,0-7.94,3"/><path id="_Path_6" data-name="&lt;Path&gt;" class="cls-2" d="M244,263.23a.78.78,0,0,0-.4.49l-.09.31a.78.78,0,0,0,.12.69.75.75,0,0,0,.57.31h.12a1,1,0,0,0,.44-.12,2.67,2.67,0,0,1,.56-.06,8,8,0,0,1,6.57,4.29l0,.06a1,1,0,0,0,.59.47,1.36,1.36,0,0,0,.29,0,.93.93,0,0,0,.46-.12l.06,0a9.11,9.11,0,0,1,4.1-1,6.24,6.24,0,0,1,4.19,1.34,1.05,1.05,0,0,0,.31.34l.29.14.14,0h.08a.8.8,0,0,0,.76-.56l.07-.27a.61.61,0,0,0,0-.22.74.74,0,0,0-.1-.4,6.9,6.9,0,0,0-6.24-3.75,9.89,9.89,0,0,0-3.31.62,8,8,0,0,0-6.21-3.47,7.69,7.69,0,0,0-3.45.87"/><path id="_Path_7" data-name="&lt;Path&gt;" class="cls-2" d="M224.53,277.38l0,.42a.79.79,0,0,0,1,.71l.14,0a1.05,1.05,0,0,0,.4-.29,6.75,6.75,0,0,1,3.51-.8,11.4,11.4,0,0,1,7.28,2.75l.06.07a1.06,1.06,0,0,0,.71.27h.06a1.06,1.06,0,0,0,.72-.34l.07-.07a11,11,0,0,1,8.06-3.73,5.45,5.45,0,0,1,2.4.44,1.29,1.29,0,0,0,.48.25,1,1,0,0,0,.34,0l.19,0a.78.78,0,0,0,.52-.79l0-.36a.77.77,0,0,0-.28-.55,9,9,0,0,0-5.88-2.32,11,11,0,0,0-6.89,2.85,11.44,11.44,0,0,0-6.14-2,8.76,8.76,0,0,0-6.52,3,.83.83,0,0,0-.21.59"/><path id="_Path_8" data-name="&lt;Path&gt;" class="cls-2" d="M178,284.77a10,10,0,0,1,10-10c.21,0,.43,0,.64,0a13.49,13.49,0,1,1,25.57,6.9,15.08,15.08,0,0,1-3.27,29.79l-20.12-.12a10.67,10.67,0,0,1-7.77-18,10,10,0,0,1-5-8.65"/><polygon id="_Path_9" data-name="&lt;Path&gt;" class="cls-2" points="44.49 129.98 44.49 146.33 44.62 146.33 55.6 134.93 55.75 134.93 55.75 206.19 71.39 206.19 71.39 113.09 58.9 113.09 44.49 129.98"/><path id="_Path_10" data-name="&lt;Path&gt;" class="cls-2" d="M108.61,142.62c-6.17,0-10.7,2.19-13.18,6.46h-.14V125.86h26.92V113.1H81v52.45H95.29v-2.07c0-5.47,2.48-8.51,6.87-8.51,4.8,0,6.74,3.31,6.74,8.38v22.52c0,4.95-1.8,8.38-6.6,8.38-5.36,0-7.27-3.56-7.27-9.06V173.52H80.74V184.1c0,14.14,5.63,23.19,21.56,23.19s22.25-8.38,22.25-21.28v-22.8c0-14.69-7.55-20.59-15.93-20.59"/><polygon id="_Path_11" data-name="&lt;Path&gt;" class="cls-2" points="158.25 78.39 150.8 117.53 143.64 117.53 136.2 78.39 142.9 78.39 147.39 105.7 147.46 105.7 152.08 78.39 158.25 78.39"/><rect id="_Path_12" data-name="&lt;Path&gt;" class="cls-2" x="160.09" y="78.38" width="6.58" height="39.15"/><path id="_Compound_Path_" data-name="&lt;Compound Path&gt;" class="cls-2" d="M179,112.16c2.71,0,3.75-1.61,3.75-4V87.69c0-2.31-1-3.93-3.75-3.93h-2.76v28.4ZM189.29,88.9V107c0,6-2.48,10.5-9.52,10.5H169.61V78.39h10.16c7,0,9.52,4.45,9.52,10.5"/><path id="_Compound_Path_2" data-name="&lt;Compound Path&gt;" class="cls-2" d="M198.5,105.12h5.26l-2.59-15.71h-.06Zm-8.25,12.41,7.4-39.14h7.5l7.44,39.14h-6.74l-1.21-7.15h-7l-1.15,7.15Z"/><path id="_Compound_Path_3" data-name="&lt;Compound Path&gt;" class="cls-2" d="M146.53,164.08c2.71,0,3.75-1.61,3.75-4V139.61c0-2.31-1-3.92-3.75-3.92h-2.76v28.39Zm10.33-23.26v18.13c0,6-2.48,10.5-9.52,10.5H137.18V130.32h10.16c7,0,9.52,4.45,9.52,10.5"/><polygon id="_Path_13" data-name="&lt;Path&gt;" class="cls-2" points="159.74 130.31 175.44 130.31 175.44 135.68 166.32 135.68 166.32 146.89 172.83 146.89 172.83 152.19 166.32 152.19 166.32 164.09 175.44 164.09 175.44 169.45 159.74 169.45 159.74 130.31"/><polygon id="_Path_14" data-name="&lt;Path&gt;" class="cls-2" points="183.27 130.31 198.98 130.31 198.98 135.68 189.86 135.68 189.86 146.89 196.37 146.89 196.37 152.19 189.86 152.19 189.86 164.09 198.98 164.09 198.98 169.45 183.27 169.45 183.27 130.31"/><path id="_Path_15" data-name="&lt;Path&gt;" class="cls-2" d="M201,159.35V140.42c0-6.13,2.88-10.56,9.8-10.56,7.28,0,9.31,4,9.31,9.81v4.62h-6v-5.15c0-2.41-.8-3.81-3.16-3.81s-3.35,1.67-3.35,4v21c0,2.37,1,4,3.35,4s3.16-1.5,3.16-3.81v-7.21h6v6.76c0,5.59-2.31,9.75-9.31,9.75s-9.8-4.5-9.8-10.56"/><path id="_Compound_Path_4" data-name="&lt;Compound Path&gt;" class="cls-2" d="M236.18,160.39v-21c0-2.37-1-4-3.39-4s-3.35,1.67-3.35,4v21c0,2.37,1,4,3.35,4s3.39-1.68,3.39-4m-13.33-1V140.42c0-6.13,3-10.56,9.93-10.56s10,4.43,10,10.56v18.93c0,6.07-3,10.57-10,10.57s-9.93-4.5-9.93-10.57"/><path id="_Path_16" data-name="&lt;Path&gt;" class="cls-2" d="M245.29,161v-5.24h6.11v5.36c0,2.19,1,3.46,3.24,3.46,2.08,0,3-1.38,3-3.46v-1.5c0-2.25-.93-3.63-3-5.54l-3.86-3.86c-3.76-3.71-5.49-6-5.49-10.45v-1.33c0-4.86,2.84-8.61,9.24-8.61,6.58,0,9.18,3.24,9.18,8.89v3.18h-6V138.5c0-2.25-1-3.33-3.12-3.33a2.88,2.88,0,0,0-3.11,3.23v.8c0,2.19,1.21,3.46,3.11,5.32l4.22,4.16c3.58,3.63,5.3,5.81,5.3,10.15v1.91c0,5.37-2.88,9.18-9.58,9.18s-9.29-3.76-9.29-8.89"/><rect id="_Path_17" data-name="&lt;Path&gt;" class="cls-2" x="266.75" y="130.31" width="6.58" height="39.14"/><path id="_Path_18" data-name="&lt;Path&gt;" class="cls-2" d="M275.92,161v-5.24H282v5.36c0,2.19,1,3.46,3.23,3.46,2.08,0,3-1.38,3-3.46v-1.5c0-2.25-.93-3.63-2.95-5.54l-3.86-3.86c-3.76-3.71-5.49-6-5.49-10.45v-1.33c0-4.86,2.82-8.61,9.24-8.61,6.58,0,9.18,3.24,9.18,8.89v3.18h-6V138.5c0-2.25-1-3.33-3.12-3.33a2.89,2.89,0,0,0-3.12,3.23v.8c0,2.19,1.23,3.46,3.12,5.32l4.22,4.16c3.58,3.63,5.32,5.81,5.32,10.15v1.91c0,5.37-2.89,9.18-9.59,9.18s-9.29-3.76-9.29-8.89"/><polygon id="_Path_19" data-name="&lt;Path&gt;" class="cls-2" points="295.77 130.31 313.25 130.31 313.25 135.68 307.84 135.68 307.84 169.45 301.2 169.45 301.2 135.68 295.77 135.68 295.77 130.31"/><polygon id="_Path_20" data-name="&lt;Path&gt;" class="cls-2" points="315.44 130.31 331.14 130.31 331.14 135.68 322.02 135.68 322.02 146.89 328.54 146.89 328.54 152.19 322.02 152.19 322.02 164.09 331.14 164.09 331.14 169.45 315.44 169.45 315.44 130.31"/><polygon id="_Path_21" data-name="&lt;Path&gt;" class="cls-2" points="351.91 144.05 351.74 144.05 347.3 169.45 344.23 169.45 339.33 144.05 339.21 144.05 339.21 169.45 333.78 169.45 333.78 130.31 341.47 130.31 345.73 152.36 345.8 152.36 349.6 130.31 357.91 130.31 357.91 169.45 351.91 169.45 351.91 144.05"/><path id="_Compound_Path_5" data-name="&lt;Compound Path&gt;" class="cls-2" d="M368,157h5.26l-2.59-15.69h-.06Zm-8.25,12.41,7.4-39.14h7.5l7.45,39.14h-6.76l-1.21-7.15h-7L366,169.45Z"/><path id="_Path_22" data-name="&lt;Path&gt;" class="cls-2" d="M383,161v-5.24h6.11v5.36c0,2.19,1,3.46,3.24,3.46,2.08,0,3-1.38,3-3.46v-1.5c0-2.25-.93-3.63-3-5.54l-3.86-3.86c-3.76-3.71-5.49-6-5.49-10.45v-1.33c0-4.86,2.84-8.61,9.24-8.61,6.59,0,9.18,3.24,9.18,8.89v3.18h-6V138.5c0-2.25-1-3.33-3.12-3.33a2.89,2.89,0,0,0-3.12,3.23v.8c0,2.19,1.21,3.46,3.12,5.32l4.22,4.16c3.58,3.63,5.3,5.81,5.3,10.15v1.91c0,5.37-2.88,9.18-9.58,9.18S383,166.15,383,161"/><polygon id="_Path_23" data-name="&lt;Path&gt;" class="cls-2" points="136.43 182.24 153.92 182.24 153.92 187.61 148.49 187.61 148.49 221.37 141.86 221.37 141.86 187.61 136.43 187.61 136.43 182.24"/><polygon id="_Path_24" data-name="&lt;Path&gt;" class="cls-2" points="156.1 182.24 171.81 182.24 171.81 187.61 162.69 187.61 162.69 198.81 169.2 198.81 169.2 204.11 162.69 204.11 162.69 216.01 171.81 216.01 171.81 221.37 156.1 221.37 156.1 182.24"/><path id="_Compound_Path_6" data-name="&lt;Compound Path&gt;" class="cls-2" d="M181,187.6v12.19h2.19c2.25,0,3.23-1.15,3.23-3.23v-5.77c0-2.14-1-3.18-3.23-3.18Zm0,15.82v18h-6.59V182.23H184c6.63,0,9,3.29,9,8.78v5c0,4.2-1.5,6.68-5.25,7.55l6.29,17.79h-6.91Z"/><path id="_Compound_Path_7" data-name="&lt;Compound Path&gt;" class="cls-2" d="M202.37,187.6v12.19h2.2c2.25,0,3.23-1.15,3.23-3.23v-5.77c0-2.14-1-3.18-3.23-3.18Zm0,15.82v18h-6.58V182.23h9.59c6.63,0,9.06,3.29,9.06,8.78v5c0,4.2-1.51,6.68-5.26,7.55l6.28,17.79h-6.91Z"/><polygon id="_Path_25" data-name="&lt;Path&gt;" class="cls-2" points="217.14 182.24 232.84 182.24 232.84 187.61 223.71 187.61 223.71 198.81 230.24 198.81 230.24 204.11 223.71 204.11 223.71 216.01 232.84 216.01 232.84 221.37 217.14 221.37 217.14 182.24"/><path id="_Path_26" data-name="&lt;Path&gt;" class="cls-2" d="M234.85,212.94v-5.26H241v5.37c0,2.19,1,3.46,3.24,3.46,2.08,0,3-1.38,3-3.46v-1.5c0-2.25-.93-3.63-3-5.54l-3.86-3.86c-3.76-3.71-5.49-6-5.49-10.45v-1.34c0-4.85,2.82-8.59,9.24-8.59,6.58,0,9.18,3.23,9.18,8.89v3.16h-6v-3.41c0-2.25-1-3.33-3.12-3.33a2.89,2.89,0,0,0-3.12,3.23v.8c0,2.19,1.23,3.46,3.12,5.32l4.22,4.15c3.58,3.65,5.3,5.83,5.3,10.16v1.91c0,5.37-2.88,9.18-9.58,9.18s-9.29-3.76-9.29-8.89"/><polygon id="_Path_27" data-name="&lt;Path&gt;" class="cls-2" points="254.7 182.24 272.19 182.24 272.19 187.61 266.77 187.61 266.77 221.37 260.13 221.37 260.13 187.61 254.7 187.61 254.7 182.24"/><path id="_Compound_Path_8" data-name="&lt;Compound Path&gt;" class="cls-2" d="M280.95,187.6v12.19h2.19c2.25,0,3.23-1.15,3.23-3.23v-5.77c0-2.14-1-3.18-3.23-3.18Zm0,15.82v18h-6.58V182.23H284c6.63,0,9.05,3.29,9.05,8.78v5c0,4.2-1.5,6.68-5.24,7.55L294,221.38h-6.93Z"/><polygon id="_Path_28" data-name="&lt;Path&gt;" class="cls-2" points="295.71 182.24 311.42 182.24 311.42 187.61 302.3 187.61 302.3 198.81 308.81 198.81 308.81 204.11 302.3 204.11 302.3 216.01 311.42 216.01 311.42 221.37 295.71 221.37 295.71 182.24"/><path id="_Path_29" data-name="&lt;Path&gt;" class="cls-2" d="M313.43,212.94v-5.26h6.11v5.37c0,2.19,1,3.46,3.23,3.46,2.08,0,3-1.38,3-3.46v-1.5c0-2.25-.93-3.63-2.95-5.54L319,202.16c-3.76-3.71-5.49-6-5.49-10.45v-1.34c0-4.85,2.82-8.59,9.24-8.59,6.58,0,9.18,3.23,9.18,8.89v3.16h-6v-3.41c0-2.25-1-3.33-3.12-3.33a2.89,2.89,0,0,0-3.12,3.23v.8c0,2.19,1.21,3.46,3.12,5.32l4.22,4.15c3.58,3.65,5.3,5.83,5.3,10.16v1.91c0,5.37-2.88,9.18-9.58,9.18s-9.29-3.76-9.29-8.89"/></g></g></g></g></svg>
