<svg xmlns="http://www.w3.org/2000/svg" viewBox="0 0 431.73 431.73"><defs><style>.cls-1{fill:#d6a102;}.cls-2{fill:#fff;}</style></defs><title>ods2</title><g id="Layer_2" data-name="Layer 2"><g id="Capa_1" data-name="Capa 1"><g id="_Group_" data-name="&lt;Group&gt;"><path id="_Path_" data-name="&lt;Path&gt;" class="cls-1" d="M215.86,431.73c119.22,0,215.86-96.64,215.86-215.86S335.08,0,215.86,0,0,96.65,0,215.87,96.64,431.73,215.86,431.73"/><path id="_Path_2" data-name="&lt;Path&gt;" class="cls-2" d="M202.23,357.67v2.55s0,0,0,.06,0,0,0,.06a1.2,1.2,0,0,0,1.18,1.14h30.06a1.2,1.2,0,0,0,1.18-1.19h0v-2.89c16.87-5.53,29.5-19.2,32.28-35.85l0-.1a.86.86,0,0,0,0-.17,1.21,1.21,0,0,0-1.21-1.21H170.27a1.21,1.21,0,0,0-1.21,1.21l.06.54c2.92,16.82,15.9,30.56,33.11,35.87"/><path id="_Path_3" data-name="&lt;Path&gt;" class="cls-2" d="M234.63,279.31c-.39.56-9.62,13.84.21,24.58,4.51,4.93,4.11,9.28,2.83,12.21H244c1.28-4.33.75-9.77-4.36-15.36-7.24-7.91.09-18.61.2-18.77a2.37,2.37,0,0,0-1-3.53,3.35,3.35,0,0,0-4.15.87"/><path id="_Path_4" data-name="&lt;Path&gt;" class="cls-2" d="M218.67,316.1H225c1.27-4.34.75-9.77-4.37-15.37-7.24-7.91.08-18.6.2-18.78a2.36,2.36,0,0,0-1-3.52,3.34,3.34,0,0,0-4.14.87c-.4.56-9.63,13.84.2,24.58,4.51,4.93,4.11,9.28,2.83,12.21"/><path id="_Path_5" data-name="&lt;Path&gt;" class="cls-2" d="M248.27,279.31c-.4.56-9.62,13.84.2,24.58,4.51,4.93,4.12,9.28,2.84,12.21h6.3c1.28-4.33.75-9.77-4.37-15.36-7.24-7.91.09-18.61.21-18.78a2.37,2.37,0,0,0-1-3.53,3.33,3.33,0,0,0-4.14.87"/><path id="_Path_6" data-name="&lt;Path&gt;" class="cls-2" d="M152.27,221.24H123.34v-4.94c0-8.2,3-11.3,7.43-16.09l11.29-11.91c9.12-9.74,11.14-15.94,11.14-26.46V151.63c0-15-7.27-22.12-23.05-22.12-15.46,0-23.36,8.2-23.36,22.89v12.68h16.09V151.94c0-6.34,3.1-8.2,6.81-8.2,3.4,0,6.34,1.4,6.34,7.9v8.67c0,8.65-.77,12.06-6.49,18.09l-9.91,10.51c-9.6,10.23-13.15,17-13.15,27.39v19.33h45.79Z"/><polygon id="_Path_7" data-name="&lt;Path&gt;" class="cls-2" points="183.05 155.83 175.89 155.83 175.89 175.27 168.49 175.27 168.49 131.19 175.89 131.19 175.89 149.84 183.05 149.84 183.05 131.19 190.53 131.19 190.53 175.27 183.05 175.27 183.05 155.83"/><path id="_Compound_Path_" data-name="&lt;Compound Path&gt;" class="cls-2" d="M202.87,161.29h5.92l-2.92-17.69h-.08Zm-9.3,14,8.33-44.08h8.44l8.4,44.08h-7.61l-1.37-8.06H201.9l-1.32,8.06Z"/><polygon id="_Path_8" data-name="&lt;Path&gt;" class="cls-2" points="242.19 146.66 242 146.66 236.99 175.27 233.54 175.27 228.02 146.66 227.89 146.66 227.89 175.27 221.77 175.27 221.77 131.19 230.43 131.19 235.22 156.02 235.31 156.02 239.59 131.19 248.95 131.19 248.95 175.27 242.19 175.27 242.19 146.66"/><path id="_Compound_Path_2" data-name="&lt;Compound Path&gt;" class="cls-2" d="M260.58,155.45v13.77h3.24c2.47,0,3.64-1.24,3.64-3.56V159c0-2.33-1.11-3.56-3.71-3.56Zm0-5.67h2.6c2.41,0,3.5-1.24,3.5-3.58v-5.39c0-2.39-1.09-3.56-3.56-3.56h-2.54Zm-7.42-18.59h10.72c7.42,0,9.89,3.45,9.89,9.68v4.49c0,3.71-1.36,6-4.43,7,3.71.85,5.54,3.32,5.54,7.35v5.84c0,6.24-2.79,9.7-10.21,9.7H253.16Z"/><path id="_Compound_Path_3" data-name="&lt;Compound Path&gt;" class="cls-2" d="M286,137.23V151h2.47c2.54,0,3.64-1.3,3.64-3.64v-6.5c0-2.41-1.11-3.58-3.64-3.58Zm0,17.82v20.23h-7.42V131.2h10.8c7.46,0,10.19,3.69,10.19,9.87v5.67c0,4.74-1.69,7.53-5.91,8.51l7.08,20h-7.79Z"/><polygon id="_Path_9" data-name="&lt;Path&gt;" class="cls-2" points="303.58 131.19 321.28 131.19 321.28 137.24 311 137.24 311 149.84 318.34 149.84 318.34 155.83 311 155.83 311 169.22 321.28 169.22 321.28 175.27 303.58 175.27 303.58 131.19"/><path id="_Path_10" data-name="&lt;Path&gt;" class="cls-2" d="M168.49,225.63V204.31c0-6.9,3.24-11.91,11.06-11.91,8.19,0,10.47,4.56,10.47,11.06v5.2h-6.77v-5.78c0-2.75-.9-4.3-3.56-4.3s-3.77,1.89-3.77,4.56V226.8c0,2.66,1.11,4.56,3.77,4.56s3.56-1.7,3.56-4.3v-8.12H190v7.61c0,6.31-2.6,11-10.47,11s-11.06-5.07-11.06-11.9"/><polygon id="_Path_11" data-name="&lt;Path&gt;" class="cls-2" points="194.03 192.92 211.72 192.92 211.72 198.98 201.44 198.98 201.44 211.58 208.78 211.58 208.78 217.57 201.44 217.57 201.44 230.95 211.72 230.95 211.72 237.01 194.03 237.01 194.03 192.92"/><path id="_Compound_Path_4" data-name="&lt;Compound Path&gt;" class="cls-2" d="M223.08,199v13.73h2.47c2.54,0,3.64-1.3,3.64-3.64v-6.5c0-2.41-1.11-3.58-3.64-3.58Zm0,17.82V237h-7.42V192.93h10.8c7.46,0,10.21,3.69,10.21,9.87v5.67c0,4.74-1.7,7.53-5.92,8.51l7.08,20H230Z"/><path id="_Compound_Path_5" data-name="&lt;Compound Path&gt;" class="cls-2" d="M255.71,226.8V203.14c0-2.67-1.17-4.56-3.84-4.56s-3.77,1.89-3.77,4.56V226.8c0,2.66,1.17,4.56,3.77,4.56s3.84-1.89,3.84-4.56m-15-1.17V204.31c0-6.9,3.39-11.91,11.19-11.91s11.24,5,11.24,11.91v21.32c0,6.82-3.37,11.9-11.24,11.9s-11.19-5.07-11.19-11.9"/></g></g></g></svg>
