<svg xmlns="http://www.w3.org/2000/svg" viewBox="0 0 431.73 431.73"><defs><style>.cls-1{fill:#289438;}.cls-2{fill:#fff;}</style></defs><title>ods3</title><g id="Layer_2" data-name="Layer 2"><g id="Capa_1" data-name="Capa 1"><g id="_Group_" data-name="&lt;Group&gt;"><path id="_Path_" data-name="&lt;Path&gt;" class="cls-1" d="M215.86,431.73c119.22,0,215.86-96.64,215.86-215.86S335.08,0,215.86,0,0,96.65,0,215.87,96.64,431.73,215.86,431.73"/><g id="_Group_2" data-name="&lt;Group&gt;"><path id="_Path_2" data-name="&lt;Path&gt;" class="cls-2" d="M288.12,337.55c0-5.91-3.79-10.71-9.54-10.71-2.87,0-6.34,3.15-8.22,5.08-1.88-1.94-5.12-5.09-8-5.09-5.75,0-9.77,4.8-9.77,10.71a10.83,10.83,0,0,0,3,7.57l14.73,14.75,14.71-14.73h0a10.85,10.85,0,0,0,3-7.57"/><path id="_Path_3" data-name="&lt;Path&gt;" class="cls-2" d="M225.42,384h-.15a2.41,2.41,0,0,1-2.24-2l-7.48-43.57-11.33,21a2.42,2.42,0,0,1-4.52-.8L194.89,325l-8.8,19.77a2.43,2.43,0,0,1-2.21,1.43H149.66a2.42,2.42,0,0,1,0-4.84H182.3l11.58-26a2.42,2.42,0,0,1,4.6.64l5,34.67,11.17-20.72a2.42,2.42,0,0,1,4.51.74L226.06,371l25.25-83.87a2.42,2.42,0,0,1,4.49-.36l13.29,27.54a2.42,2.42,0,1,1-4.36,2.1l-10.58-21.94-26.42,87.76a2.42,2.42,0,0,1-2.31,1.72"/></g><path id="_Path_4" data-name="&lt;Path&gt;" class="cls-2" d="M96.12,237.55c17.49,0,25.1-9.28,25.1-23.57V198.77c0-9.42-4.1-15.52-12.77-17.49,7.14-2.27,11.86-8.07,11.86-16.73v-9c0-14.6-7-23.58-23-23.58-17.95,0-24.18,10.64-24.18,25.86V167H89v-10.5c0-6.38,2-10,7.45-10s7.45,3.65,7.45,9.27v11.11c0,5.48-3.65,8.35-9.27,8.35H88.05v13.24h7.31c6.08,0,8.51,2.89,8.51,8.37v17c0,5.48-2.43,9.28-7.75,9.28-5.94,0-8.07-4-8.07-10V198.31H72.25v13.53c0,15.67,6.22,25.71,23.87,25.71"/><path id="_Path_5" data-name="&lt;Path&gt;" class="cls-2" d="M141.11,167.49v-5.82h6.77v6c0,2.43,1.09,3.84,3.58,3.84,2.3,0,3.33-1.53,3.33-3.84V166c0-2.49-1-4-3.27-6.14l-4.28-4.28c-4.17-4.09-6.08-6.6-6.08-11.59V142.5c0-5.38,3.13-9.53,10.23-9.53,7.29,0,10.17,3.58,10.17,9.83v3.52h-6.65v-3.77c0-2.49-1.15-3.69-3.46-3.69-2.05,0-3.46,1.14-3.46,3.57v.9c0,2.43,1.34,3.84,3.46,5.89l4.67,4.59c4,4,5.87,6.46,5.87,11.26v2.12c0,5.94-3.19,10.17-10.61,10.17s-10.29-4.17-10.29-9.85"/><path id="_Compound_Path_" data-name="&lt;Compound Path&gt;" class="cls-2" d="M173.19,163.07H179l-2.87-17.4h-.08ZM164,176.82l8.19-43.35h8.3l8.24,43.35h-7.47L180,168.9h-7.73l-1.29,7.92Z"/><polygon id="_Path_6" data-name="&lt;Path&gt;" class="cls-2" points="191.78 133.47 199.07 133.47 199.07 170.87 207.77 170.87 207.77 176.82 191.78 176.82 191.78 133.47"/><path id="_Path_7" data-name="&lt;Path&gt;" class="cls-2" d="M231.61,133.47v32.8c0,6.71-2.87,11-10.29,11-7.67,0-10.88-4.34-10.88-11v-32.8h7.29V167c0,2.56,1,4.29,3.58,4.29s3.58-1.74,3.58-4.29v-33.5Z"/><path id="_Compound_Path_2" data-name="&lt;Compound Path&gt;" class="cls-2" d="M246.1,170.87c3,0,4.15-1.78,4.15-4.4v-22.7c0-2.56-1.15-4.34-4.15-4.34H243v31.44Zm11.44-25.76v20.08c0,6.65-2.75,11.63-10.54,11.63H235.75V133.48H247c7.8,0,10.54,4.93,10.54,11.63"/><polygon id="_Path_8" data-name="&lt;Path&gt;" class="cls-2" points="155.69 221.03 155.69 237.53 148.39 237.53 148.39 221.03 140.28 194.18 147.89 194.18 152.29 210.61 152.36 210.61 156.78 194.18 163.75 194.18 155.69 221.03"/><path id="_Compound_Path_3" data-name="&lt;Compound Path&gt;" class="cls-2" d="M180.67,218v13.54h3.19c2.43,0,3.58-1.22,3.58-3.5v-6.54c0-2.29-1.09-3.5-3.65-3.5Zm0-5.57h2.56c2.37,0,3.44-1.22,3.44-3.5v-5.32c0-2.35-1.07-3.5-3.5-3.5h-2.49Zm-7.29-18.28h10.54c7.29,0,9.72,3.39,9.72,9.52v4.42c0,3.65-1.34,5.94-4.36,6.9,3.65.84,5.45,3.27,5.45,7.23V228c0,6.12-2.75,9.52-10,9.52H173.38Z"/><rect id="_Path_9" data-name="&lt;Path&gt;" class="cls-2" x="198.37" y="194.17" width="7.29" height="43.35"/><polygon id="_Path_10" data-name="&lt;Path&gt;" class="cls-2" points="209.86 194.18 227.26 194.18 227.26 200.13 217.16 200.13 217.16 212.52 224.37 212.52 224.37 218.41 217.16 218.41 217.16 231.58 227.26 231.58 227.26 237.53 209.86 237.53 209.86 194.18"/><polygon id="_Path_11" data-name="&lt;Path&gt;" class="cls-2" points="237.28 210.29 237.28 237.52 231.14 237.52 231.14 194.18 238.31 194.18 246.17 219.05 246.17 194.18 252.25 194.18 252.25 237.52 245.85 237.52 237.28 210.29"/><polygon id="_Path_12" data-name="&lt;Path&gt;" class="cls-2" points="256.38 194.18 273.78 194.18 273.78 200.13 263.67 200.13 263.67 212.52 270.89 212.52 270.89 218.41 263.67 218.41 263.67 231.58 273.78 231.58 273.78 237.53 256.38 237.53 256.38 194.18"/><path id="_Path_13" data-name="&lt;Path&gt;" class="cls-2" d="M277,228.19v-5.83h6.77v6c0,2.43,1.09,3.84,3.58,3.84,2.3,0,3.33-1.53,3.33-3.84v-1.66c0-2.49-1-4-3.27-6.14l-4.28-4.28c-4.17-4.1-6.08-6.6-6.08-11.59v-1.47c0-5.37,3.13-9.52,10.23-9.52,7.29,0,10.17,3.58,10.17,9.85V207h-6.65v-3.77c0-2.49-1.15-3.71-3.46-3.71-2.05,0-3.46,1.15-3.46,3.58v.9c0,2.43,1.36,3.84,3.46,5.87l4.67,4.61c4,4,5.87,6.46,5.87,11.25v2.12c0,5.94-3.19,10.15-10.61,10.15S277,233.88,277,228.19"/><polygon id="_Path_14" data-name="&lt;Path&gt;" class="cls-2" points="299.9 194.18 319.27 194.18 319.27 200.13 313.27 200.13 313.27 237.53 305.91 237.53 305.91 200.13 299.9 200.13 299.9 194.18"/><path id="_Compound_Path_4" data-name="&lt;Compound Path&gt;" class="cls-2" d="M327.44,223.78h5.83l-2.87-17.4h-.06Zm-9.14,13.75,8.19-43.35h8.3l8.26,43.35h-7.48l-1.34-7.92h-7.74l-1.28,7.92Z"/></g></g></g></svg>
