<svg xmlns="http://www.w3.org/2000/svg" viewBox="0 0 431.72 431.73"><defs><style>.cls-1{fill:#c31f33;}.cls-2{fill:#fff;}</style></defs><title>ods4</title><g id="Layer_2" data-name="Layer 2"><g id="Capa_1" data-name="Capa 1"><g id="_Group_" data-name="&lt;Group&gt;"><path id="_Path_" data-name="&lt;Path&gt;" class="cls-1" d="M215.86,431.73c119.22,0,215.86-96.64,215.86-215.86S335.08,0,215.86,0,0,96.65,0,215.87,96.64,431.73,215.86,431.73"/><path id="_Compound_Path_" data-name="&lt;Compound Path&gt;" class="cls-2" d="M61.34,193.59l16.81-46h.16v46ZM78,226.38H95.77V208.25h7.59V193.59H95.77V114.64H77.32L44.86,196.72v11.53H78Z"/><polygon id="_Path_2" data-name="&lt;Path&gt;" class="cls-2" points="137.28 115.11 156.12 115.11 156.12 121.55 145.18 121.55 145.18 134.99 153 134.99 153 141.37 145.18 141.37 145.18 155.62 156.12 155.62 156.12 162.08 137.28 162.08 137.28 115.11"/><path id="_Compound_Path_2" data-name="&lt;Compound Path&gt;" class="cls-2" d="M171.56,155.63c3.26,0,4.5-1.94,4.5-4.78V126.26c0-2.77-1.24-4.71-4.5-4.71h-3.32v34.08ZM184,127.72v21.75c0,7.21-3,12.61-11.43,12.61H160.34v-47h12.19c8.46,0,11.43,5.33,11.43,12.6"/><path id="_Path_3" data-name="&lt;Path&gt;" class="cls-2" d="M211.37,115.11v35.53c0,7.27-3.11,12-11.14,12-8.31,0-11.78-4.71-11.78-12V115.11h7.9v36.3c0,2.77,1.1,4.64,3.88,4.64s3.87-1.87,3.87-4.64v-36.3Z"/><path id="_Path_4" data-name="&lt;Path&gt;" class="cls-2" d="M215.86,150V127.23c0-7.34,3.46-12.68,11.77-12.68,8.73,0,11.15,4.85,11.15,11.78v5.54h-7.21v-6.16c0-2.91-1-4.58-3.81-4.58s-4,2-4,4.85v25.21c0,2.84,1.18,4.85,4,4.85s3.81-1.8,3.81-4.58v-8.66h7.21v8.11c0,6.71-2.77,11.7-11.15,11.7s-11.77-5.4-11.77-12.68"/><path id="_Compound_Path_3" data-name="&lt;Compound Path&gt;" class="cls-2" d="M251,147.18h6.3l-3.11-18.84h-.07Zm-9.91,14.89,8.87-47h9l8.93,47h-8.1l-1.45-8.59H250l-1.39,8.59Z"/><path id="_Path_5" data-name="&lt;Path&gt;" class="cls-2" d="M270.13,150V127.23c0-7.34,3.46-12.68,11.77-12.68,8.73,0,11.15,4.85,11.15,11.78v5.54h-7.21v-6.16c0-2.91-1-4.58-3.8-4.58s-4,2-4,4.85v25.21c0,2.84,1.18,4.85,4,4.85s3.8-1.8,3.8-4.58v-8.66h7.21v8.11c0,6.71-2.76,11.7-11.15,11.7s-11.77-5.4-11.77-12.68"/><rect id="_Path_6" data-name="&lt;Path&gt;" class="cls-2" x="297.34" y="115.12" width="7.9" height="46.96"/><path id="_Compound_Path_4" data-name="&lt;Compound Path&gt;" class="cls-2" d="M325.81,151.19V126c0-2.84-1.25-4.85-4.08-4.85s-4,2-4,4.85v25.21c0,2.84,1.24,4.85,4,4.85s4.08-2,4.08-4.85m2.36-39.41-12.4,1.59v-4.43l12.4-2.63ZM309.81,150V127.23c0-7.34,3.6-12.68,11.92-12.68s12,5.34,12,12.68V150c0,7.27-3.6,12.68-12,12.68s-11.92-5.4-11.92-12.68"/><polygon id="_Path_7" data-name="&lt;Path&gt;" class="cls-2" points="344.84 132.57 344.84 162.07 338.18 162.07 338.18 115.11 345.95 115.11 354.46 142.06 354.46 115.11 361.04 115.11 361.04 162.07 354.12 162.07 344.84 132.57"/><path id="_Compound_Path_5" data-name="&lt;Compound Path&gt;" class="cls-2" d="M148.5,221.4c3.27,0,4.51-1.95,4.51-4.78V192c0-2.76-1.24-4.71-4.51-4.71h-3.32V221.4Zm12.41-27.92v21.75c0,7.21-3,12.61-11.43,12.61H137.28v-47h12.19c8.45,0,11.43,5.33,11.43,12.6"/><polygon id="_Path_8" data-name="&lt;Path&gt;" class="cls-2" points="165.39 180.88 184.23 180.88 184.23 187.32 173.29 187.32 173.29 200.76 181.11 200.76 181.11 207.14 173.29 207.14 173.29 221.4 184.23 221.4 184.23 227.85 165.39 227.85 165.39 180.88"/><path id="_Path_9" data-name="&lt;Path&gt;" class="cls-2" d="M195.71,215.72V193c0-7.34,3.47-12.68,11.78-12.68,8.73,0,11.14,4.85,11.14,11.78v5.54h-7.21v-6.17c0-2.91-1-4.58-3.8-4.58s-4,2-4,4.85V217c0,2.84,1.18,4.85,4,4.85s3.8-1.8,3.8-4.58v-8.66h7.21v8.11c0,6.72-2.76,11.7-11.14,11.7s-11.78-5.4-11.78-12.68"/><path id="_Compound_Path_6" data-name="&lt;Compound Path&gt;" class="cls-2" d="M230.89,213h6.3l-3.11-18.84H234ZM221,227.84l8.87-47h9l8.94,47h-8.1l-1.45-8.59h-8.38l-1.4,8.59Z"/><polygon id="_Path_10" data-name="&lt;Path&gt;" class="cls-2" points="251.03 180.88 258.93 180.88 258.93 221.4 268.35 221.4 268.35 227.85 251.03 227.85 251.03 180.88"/><rect id="_Path_11" data-name="&lt;Path&gt;" class="cls-2" x="271.94" y="180.88" width="7.9" height="46.96"/><path id="_Compound_Path_7" data-name="&lt;Compound Path&gt;" class="cls-2" d="M295.63,221.4c3.26,0,4.5-1.95,4.5-4.78V192c0-2.76-1.24-4.71-4.5-4.71h-3.33V221.4ZM308,193.49v21.75c0,7.21-3,12.61-11.43,12.61H284.4v-47h12.18c8.46,0,11.43,5.33,11.43,12.6"/><path id="_Compound_Path_8" data-name="&lt;Compound Path&gt;" class="cls-2" d="M320.12,213h6.3l-3.11-18.84h-.07Zm-9.91,14.89,8.87-47h9l8.94,47h-8.11l-1.45-8.59h-8.38l-1.39,8.59Z"/><path id="_Compound_Path_9" data-name="&lt;Compound Path&gt;" class="cls-2" d="M351.49,221.4c3.26,0,4.5-1.95,4.5-4.78V192c0-2.76-1.24-4.71-4.5-4.71h-3.33V221.4Zm12.4-27.92v21.75c0,7.21-3,12.61-11.43,12.61H340.27v-47h12.19c8.46,0,11.43,5.33,11.43,12.6"/><g id="_Group_2" data-name="&lt;Group&gt;"><polygon id="_Path_12" data-name="&lt;Path&gt;" class="cls-2" points="191.86 295.83 138.54 265.05 138.54 364.63 191.86 380.71 191.86 295.83"/><polygon id="_Path_13" data-name="&lt;Path&gt;" class="cls-2" points="197.72 296.03 197.72 380.75 251.38 364.61 251.38 265.05 197.72 296.03"/><polygon id="_Path_14" data-name="&lt;Path&gt;" class="cls-2" points="282.18 362.86 280.62 362.86 286.92 384.91 293.22 362.86 291.66 362.86 293.22 362.86 293.22 274.27 291.66 274.27 290.09 274.27 288.44 274.27 285.3 274.27 283.75 274.27 282.18 274.27 280.61 274.27 280.61 362.86 282.18 362.86"/><polygon id="_Path_15" data-name="&lt;Path&gt;" class="cls-2" points="262.83 269.32 257.12 264.81 257.12 367.33 197.88 386.47 195.14 386.47 194.6 386.47 191.86 386.47 132.89 369.99 132.89 264.81 127.17 269.32 127.17 374 191.59 391.84 194.6 391.84 195.14 391.84 198.15 391.84 257.58 372.97 262.83 371.43 262.83 269.32"/><path id="_Path_16" data-name="&lt;Path&gt;" class="cls-2" d="M293.23,262.53a6.31,6.31,0,1,0-12.62,0v6.8h12.62Z"/></g></g></g></g></svg>
