<svg xmlns="http://www.w3.org/2000/svg" viewBox="0 0 431.73 431.73"><defs><style>.cls-1{fill:#e8432e;}.cls-2{fill:#fff;}</style></defs><title>ods5</title><g id="Layer_2" data-name="Layer 2"><g id="Capa_1" data-name="Capa 1"><g id="_Group_" data-name="&lt;Group&gt;"><path id="_Path_" data-name="&lt;Path&gt;" class="cls-1" d="M215.86,431.73c119.22,0,215.86-96.64,215.86-215.86S335.08,0,215.86,0,0,96.65,0,215.87,96.64,431.73,215.86,431.73"/><g id="_Group_2" data-name="&lt;Group&gt;"><path id="_Compound_Path_" data-name="&lt;Compound Path&gt;" class="cls-2" d="M218.21,351a27,27,0,1,1,27-27,27,27,0,0,1-27,27M270,272.87H242a.36.36,0,0,0-.36.36v9.29a.36.36,0,0,0,.36.36h11.14l-12.36,12.36a36.61,36.61,0,1,0-27.31,65.11v10.71h-11a.35.35,0,0,0-.36.36v10a.35.35,0,0,0,.36.36h11v10.54a.35.35,0,0,0,.36.35h10a.36.36,0,0,0,.36-.35V381.73h11a.35.35,0,0,0,.36-.36v-10a.35.35,0,0,0-.36-.36h-11V360.18a36.58,36.58,0,0,0,24-57.19l12.19-12.19v10.4a.36.36,0,0,0,.36.36H270a.36.36,0,0,0,.36-.36v-28a.36.36,0,0,0-.36-.36"/><path id="_Path_2" data-name="&lt;Path&gt;" class="cls-2" d="M234.67,313H202a.34.34,0,0,0-.36.32v7.91a.34.34,0,0,0,.36.33h32.7a.34.34,0,0,0,.36-.33V313.3a.34.34,0,0,0-.36-.32"/><path id="_Path_3" data-name="&lt;Path&gt;" class="cls-2" d="M234.67,327.11H202a.35.35,0,0,0-.36.33v7.91a.34.34,0,0,0,.36.32h32.7a.34.34,0,0,0,.36-.32v-7.91a.35.35,0,0,0-.36-.33"/></g><g id="_Group_3" data-name="&lt;Group&gt;"><path id="_Path_4" data-name="&lt;Path&gt;" class="cls-2" d="M120.45,165.92c-6.91,0-12,2.46-14.75,7.22h-.16v-26h30.12V132.88H89.56v58.7h16v-2.31c0-6.14,2.78-9.53,7.68-9.53,5.38,0,7.54,3.7,7.54,9.38v25.2c0,5.53-2,9.38-7.38,9.38-6,0-8.14-4-8.14-10.15V200.5h-16v11.83c0,15.83,6.3,26,24.13,26,17.68,0,24.9-9.38,24.9-23.83V189c0-16.45-8.45-23.05-17.83-23.05"/><rect id="_Path_5" data-name="&lt;Path&gt;" class="cls-2" x="153.04" y="133.37" width="7.36" height="43.8"/><path id="_Path_6" data-name="&lt;Path&gt;" class="cls-2" d="M175.77,153.78h10.47v23.39h-5.3v-4.78c-1,3.29-3,5.3-7,5.3-6.33,0-9.23-5-9.23-11.82V144.67c0-6.85,3.29-11.82,11-11.82,8.14,0,10.53,4.52,10.53,11v3.88h-6.71v-4.46c0-2.71-1-4.26-3.69-4.26s-3.81,1.87-3.81,4.52V167c0,2.65,1.1,4.52,3.62,4.52s3.62-1.36,3.62-4.2V159.6h-3.49Z"/><path id="_Path_7" data-name="&lt;Path&gt;" class="cls-2" d="M211.8,133.37v33.14c0,6.79-2.9,11.18-10.4,11.18-7.75,0-11-4.39-11-11.18V133.37h7.37v33.85c0,2.59,1,4.33,3.61,4.33s3.62-1.74,3.62-4.33V133.37Z"/><path id="_Compound_Path_2" data-name="&lt;Compound Path&gt;" class="cls-2" d="M223.09,163.28H229l-2.9-17.57H226Zm-9.24,13.89,8.27-43.8h8.4l8.34,43.8H231.3l-1.36-8h-7.82l-1.29,8Z"/><polygon id="_Path_8" data-name="&lt;Path&gt;" class="cls-2" points="241.88 133.37 249.24 133.37 249.24 171.16 258.02 171.16 258.02 177.17 241.88 177.17 241.88 133.37"/><path id="_Compound_Path_3" data-name="&lt;Compound Path&gt;" class="cls-2" d="M271.84,171.16c3,0,4.2-1.81,4.2-4.46V143.77c0-2.58-1.16-4.39-4.2-4.39h-3.1v31.78Zm11.56-26v20.28c0,6.72-2.78,11.76-10.66,11.76H261.37v-43.8h11.37c7.88,0,10.66,5,10.66,11.76"/><path id="_Compound_Path_4" data-name="&lt;Compound Path&gt;" class="cls-2" d="M294.69,163.28h5.88l-2.9-17.57h-.07Zm-9.23,13.89,8.27-43.8h8.4l8.33,43.8H302.9l-1.36-8h-7.82l-1.3,8Z"/><path id="_Compound_Path_5" data-name="&lt;Compound Path&gt;" class="cls-2" d="M323.94,171.16c3,0,4.2-1.81,4.2-4.46V143.77c0-2.58-1.16-4.39-4.2-4.39h-3.11v31.78Zm11.56-26v20.28c0,6.72-2.78,11.76-10.66,11.76H313.48v-43.8h11.37c7.88,0,10.66,5,10.66,11.76"/><path id="_Compound_Path_6" data-name="&lt;Compound Path&gt;" class="cls-2" d="M163.51,232.49c3,0,4.2-1.81,4.2-4.46V205.1c0-2.58-1.16-4.39-4.2-4.39h-3.1v31.78Zm11.56-26v20.28c0,6.72-2.78,11.76-10.66,11.76H153V194.71h11.37c7.88,0,10.66,5,10.66,11.75"/><polygon id="_Path_9" data-name="&lt;Path&gt;" class="cls-2" points="179.25 194.71 196.82 194.71 196.82 200.71 186.61 200.71 186.61 213.24 193.92 213.24 193.92 219.19 186.61 219.19 186.61 232.49 196.82 232.49 196.82 238.5 179.25 238.5 179.25 194.71"/><path id="_Path_10" data-name="&lt;Path&gt;" class="cls-2" d="M218.65,215.12H229.1v23.39h-5.29v-4.79c-1,3.29-3,5.3-7,5.3-6.34,0-9.24-5-9.24-11.82V206c0-6.85,3.29-11.82,11-11.82,8.14,0,10.53,4.52,10.53,11V209h-6.71v-4.46c0-2.71-1-4.26-3.69-4.26s-3.81,1.87-3.81,4.52v23.51c0,2.65,1.1,4.52,3.62,4.52s3.61-1.36,3.61-4.2v-7.75h-3.49Z"/><path id="_Compound_Path_7" data-name="&lt;Compound Path&gt;" class="cls-2" d="M248.61,191.61,237,193.09V189l11.57-2.46Zm-15.31,3.1h17.57v6h-10.2v12.53H248v5.95h-7.3v13.3h10.2v6H233.3Z"/><polygon id="_Path_11" data-name="&lt;Path&gt;" class="cls-2" points="261 210.98 261 238.5 254.79 238.5 254.79 194.7 262.04 194.7 269.98 219.83 269.98 194.7 276.11 194.7 276.11 238.5 269.65 238.5 261 210.98"/><polygon id="_Path_12" data-name="&lt;Path&gt;" class="cls-2" points="280.29 194.71 297.86 194.71 297.86 200.71 287.65 200.71 287.65 213.24 294.96 213.24 294.96 219.19 287.65 219.19 287.65 232.49 297.86 232.49 297.86 238.5 280.29 238.5 280.29 194.71"/><path id="_Compound_Path_8" data-name="&lt;Compound Path&gt;" class="cls-2" d="M309.16,200.71v13.63h2.46c2.52,0,3.61-1.29,3.61-3.63v-6.45c0-2.4-1.09-3.55-3.61-3.55Zm0,17.7V238.5H301.8V194.7h10.72c7.43,0,10.14,3.68,10.14,9.82v5.62c0,4.71-1.69,7.49-5.88,8.47l7,19.89h-7.75Z"/><path id="_Compound_Path_9" data-name="&lt;Compound Path&gt;" class="cls-2" d="M341.57,228.36V204.85c0-2.65-1.16-4.52-3.81-4.52S334,202.2,334,204.85v23.51c0,2.65,1.16,4.52,3.75,4.52s3.81-1.87,3.81-4.52m-14.92-1.16V206c0-6.85,3.36-11.82,11.11-11.82s11.18,5,11.18,11.82V227.2c0,6.79-3.35,11.82-11.18,11.82s-11.11-5-11.11-11.82"/></g></g></g></g></svg>
