<svg xmlns="http://www.w3.org/2000/svg" viewBox="0 0 431.73 431.73"><defs><style>.cls-1{fill:#00a7d7;}.cls-2{fill:#fff;}</style></defs><title>ods6</title><g id="Layer_2" data-name="Layer 2"><g id="Capa_1" data-name="Capa 1"><g id="_Group_" data-name="&lt;Group&gt;"><path id="_Path_" data-name="&lt;Path&gt;" class="cls-1" d="M215.86,431.73c119.22,0,215.86-96.64,215.86-215.86S335.08,0,215.86,0,0,96.65,0,215.87,96.64,431.73,215.86,431.73"/><path id="_Compound_Path_" data-name="&lt;Compound Path&gt;" class="cls-2" d="M251.34,298.45c-2.15-1-4.88-.61-7.49.45-9.85,4-16.55,5.43-26.9,2.19-6.52-2-12.62-6.32-19.83-3.71-4.78,1.72-9.24,3.36-14.65,3.32l-3.13-16h74.24ZM226.18,346a15.24,15.24,0,0,1-18.94,0c-5.95-5.94-3.82-13.32-1.75-17.14,1.28-2.39,10.41-16.1,11.2-17.27v-.09l0,0,0,0v.09c.76,1.17,9.91,14.88,11.19,17.27,2.06,3.82,4.18,11.2-1.75,17.14m30.66-64.53a1,1,0,0,0-.72-.31H176.8a1,1,0,0,0-.72.31.93.93,0,0,0-.2.75l13.33,80.6a.92.92,0,0,0,.91.78h16.36l1.12,13.13h-6.88l16,16,16.05-16H225.9l1.12-13.1h16.64a.92.92,0,0,0,.91-.8L257,282.24a1,1,0,0,0-.21-.75"/><path id="_Compound_Path_2" data-name="&lt;Compound Path&gt;" class="cls-2" d="M60.79,201.59c.28-5.45,2.59-8.88,7.75-8.88,5.58,0,7.74,3.44,7.74,9.75v16.92c0,6.16-2.29,9.76-7.89,9.76s-7.6-3.73-7.6-9.76Zm7.6,40.87c17.35,0,24.09-9.46,24.09-24.52V203.6c0-15.92-6.31-23.94-18.08-23.94-6.87,0-11,3.15-13.47,7.89h-.15V166.61c0-5.88,1.87-10,7.75-10S76.13,160,76.13,166v6.44H91v-5.16C91,153,86.31,143,68.25,143,51,143,44.59,154,44.59,169.2v47.3c0,15.06,6.59,26,23.81,26"/><path id="_Compound_Path_3" data-name="&lt;Compound Path&gt;" class="cls-2" d="M122.14,172.28h5.49l-2.71-16.4h-.06Zm-8.62,13,7.72-40.86h7.83l7.78,40.86H129.8l-1.27-7.47h-7.29L120,185.24Z"/><path id="_Path_2" data-name="&lt;Path&gt;" class="cls-2" d="M149.13,163.42h9.76v21.81H154v-4.46c-.91,3.08-2.83,4.94-6.58,4.94-5.89,0-8.61-4.69-8.61-11V154.93c0-6.38,3.08-11,10.31-11,7.59,0,9.82,4.21,9.82,10.24v3.62h-6.26V153.6c0-2.53-1-4-3.44-4s-3.56,1.74-3.56,4.21v21.93c0,2.47,1,4.23,3.38,4.23s3.38-1.26,3.38-3.93v-7.22h-3.26Z"/><path id="_Path_3" data-name="&lt;Path&gt;" class="cls-2" d="M182.74,144.38V175.3c0,6.32-2.71,10.42-9.7,10.42-7.23,0-10.25-4.09-10.25-10.42V144.38h6.87V176c0,2.41,1,4,3.38,4s3.38-1.64,3.38-4V144.38Z"/><path id="_Compound_Path_4" data-name="&lt;Compound Path&gt;" class="cls-2" d="M193.27,172.28h5.49l-2.71-16.4H196Zm-8.62,13,7.72-40.86h7.83L208,185.24h-7.05l-1.27-7.47h-7.29l-1.22,7.47Z"/><polygon id="_Path_4" data-name="&lt;Path&gt;" class="cls-2" points="217.13 144.38 224 144.38 224 179.63 232.2 179.63 232.2 185.24 217.13 185.24 217.13 144.38"/><rect id="_Path_5" data-name="&lt;Path&gt;" class="cls-2" x="235.32" y="144.39" width="6.87" height="40.86"/><polygon id="_Path_6" data-name="&lt;Path&gt;" class="cls-2" points="265.08 158.72 264.9 158.72 260.26 185.24 257.06 185.24 251.94 158.72 251.82 158.72 251.82 185.24 246.15 185.24 246.15 144.38 254.17 144.38 258.64 167.4 258.7 167.4 262.67 144.38 271.36 144.38 271.36 185.24 265.08 185.24 265.08 158.72"/><path id="_Compound_Path_5" data-name="&lt;Compound Path&gt;" class="cls-2" d="M282.12,150v16.08h2.53c2.35,0,3.38-1.15,3.38-3.38v-9.4c0-2.22-1-3.3-3.38-3.3Zm-6.88-5.61h10.18c6.95,0,9.46,3.44,9.46,9.15v8.63c0,5.73-2.51,9.23-9.46,9.23h-3.3v13.85h-6.88Z"/><rect id="_Path_7" data-name="&lt;Path&gt;" class="cls-2" x="298.44" y="144.39" width="6.87" height="40.86"/><path id="_Compound_Path_6" data-name="&lt;Compound Path&gt;" class="cls-2" d="M316.8,172.28h5.49l-2.71-16.4h-.06Zm-8.62,13,7.72-40.86h7.83l7.78,40.86h-7.05l-1.27-7.47h-7.29l-1.22,7.47Z"/><polygon id="_Path_8" data-name="&lt;Path&gt;" class="cls-2" points="127.99 226.91 127.99 242.46 121.12 242.46 121.12 226.91 113.47 201.6 120.64 201.6 124.79 217.09 124.85 217.09 129.02 201.6 135.6 201.6 127.99 226.91"/><path id="_Path_9" data-name="&lt;Path&gt;" class="cls-2" d="M144.31,233.66v-5.49h6.38v5.61c0,2.29,1,3.62,3.38,3.62,2.17,0,3.14-1.44,3.14-3.62v-1.56c0-2.35-1-3.79-3.08-5.79l-4-4c-3.93-3.87-5.73-6.22-5.73-10.92v-1.38c0-5.06,3-9,9.64-9,6.87,0,9.58,3.38,9.58,9.29v3.3h-6.26v-3.56c0-2.35-1.09-3.5-3.26-3.5a3,3,0,0,0-3.26,3.38v.85c0,2.29,1.28,3.62,3.26,5.54l4.4,4.34c3.73,3.79,5.55,6.09,5.55,10.61v2c0,5.59-3,9.57-10,9.57s-9.7-3.91-9.7-9.27"/><path id="_Compound_Path_7" data-name="&lt;Compound Path&gt;" class="cls-2" d="M174.54,229.5H180l-2.71-16.4h-.06Zm-8.62,13,7.71-40.86h7.84l7.78,40.86h-7.05L180.94,235h-7.31l-1.21,7.47Z"/><polygon id="_Path_10" data-name="&lt;Path&gt;" class="cls-2" points="197.86 216.79 197.86 242.46 192.07 242.46 192.07 201.6 198.82 201.6 206.24 225.05 206.24 201.6 211.96 201.6 211.96 242.46 205.94 242.46 197.86 216.79"/><polygon id="_Path_11" data-name="&lt;Path&gt;" class="cls-2" points="215.86 201.6 232.26 201.6 232.26 207.21 222.74 207.21 222.74 218.89 229.55 218.89 229.55 224.44 222.74 224.44 222.74 236.85 232.26 236.85 232.26 242.46 215.86 242.46 215.86 201.6"/><path id="_Compound_Path_8" data-name="&lt;Compound Path&gt;" class="cls-2" d="M243.45,229.5h5.49l-2.71-16.4h-.06Zm-8.61,13,7.71-40.86h7.84l7.78,40.86h-7.05L249.85,235h-7.31l-1.21,7.47Z"/><polygon id="_Path_12" data-name="&lt;Path&gt;" class="cls-2" points="279.9 215.94 279.72 215.94 275.08 242.46 271.88 242.46 266.76 215.94 266.64 215.94 266.64 242.46 260.97 242.46 260.97 201.6 268.99 201.6 273.45 224.62 273.51 224.62 277.49 201.6 286.16 201.6 286.16 242.46 279.9 242.46 279.9 215.94"/><rect id="_Path_13" data-name="&lt;Path&gt;" class="cls-2" x="290.06" y="201.58" width="6.87" height="40.87"/><polygon id="_Path_14" data-name="&lt;Path&gt;" class="cls-2" points="300.9 201.6 317.3 201.6 317.3 207.21 307.76 207.21 307.76 218.89 314.58 218.89 314.58 224.44 307.76 224.44 307.76 236.85 317.3 236.85 317.3 242.46 300.9 242.46 300.9 201.6"/><polygon id="_Path_15" data-name="&lt;Path&gt;" class="cls-2" points="326.75 216.79 326.75 242.46 320.96 242.46 320.96 201.6 327.71 201.6 335.12 225.05 335.12 201.6 340.85 201.6 340.85 242.46 334.83 242.46 326.75 216.79"/><polygon id="_Path_16" data-name="&lt;Path&gt;" class="cls-2" points="343.97 201.6 362.23 201.6 362.23 207.21 356.56 207.21 356.56 242.46 349.64 242.46 349.64 207.21 343.97 207.21 343.97 201.6"/><path id="_Compound_Path_9" data-name="&lt;Compound Path&gt;" class="cls-2" d="M378.43,233V211.07c0-2.47-1.09-4.23-3.56-4.23s-3.5,1.76-3.5,4.23V233c0,2.47,1.07,4.23,3.5,4.23s3.56-1.76,3.56-4.23m-13.93-1.09V212.15c0-6.4,3.14-11,10.37-11s10.42,4.64,10.42,11v19.76c0,6.32-3.12,11-10.42,11s-10.37-4.7-10.37-11"/></g></g></g></svg>
