<svg xmlns="http://www.w3.org/2000/svg" viewBox="0 0 431.73 431.73"><defs><style>.cls-1{fill:#fab61b;}.cls-2{fill:#fff;}</style></defs><title>ods7</title><g id="Layer_2" data-name="Layer 2"><g id="Capa_1" data-name="Capa 1"><g id="_Group_" data-name="&lt;Group&gt;"><path id="_Path_" data-name="&lt;Path&gt;" class="cls-1" d="M215.86,431.73c119.22,0,215.86-96.64,215.86-215.86S335.08,0,215.86,0,0,96.65,0,215.87,96.64,431.73,215.86,431.73"/><path id="_Compound_Path_" data-name="&lt;Compound Path&gt;" class="cls-2" d="M217,349.78a17.46,17.46,0,0,1-5.18-34.13v6.5a11.43,11.43,0,1,0,10.34,0v-6.49A17.46,17.46,0,0,1,217,349.78m-2.49-37.5a2.5,2.5,0,0,1,5,0v11.52a2.5,2.5,0,0,1-5,0ZM217,299a33.56,33.56,0,1,0,33.56,33.56A33.56,33.56,0,0,0,217,299"/><path id="_Path_2" data-name="&lt;Path&gt;" class="cls-2" d="M178.52,332.29a2.81,2.81,0,0,0-2.58-2.75h-14.7a2.76,2.76,0,0,0,0,5.52h14.7a2.82,2.82,0,0,0,2.58-2.77"/><path id="_Path_3" data-name="&lt;Path&gt;" class="cls-2" d="M275.46,332.29a2.81,2.81,0,0,0-2.58-2.75h-14.7a2.76,2.76,0,0,0,0,5.52h14.7a2.82,2.82,0,0,0,2.58-2.77"/><path id="_Path_4" data-name="&lt;Path&gt;" class="cls-2" d="M217.06,390.7a2.81,2.81,0,0,0,2.75-2.58v-14.7a2.76,2.76,0,0,0-5.52,0v14.7a2.82,2.82,0,0,0,2.77,2.58"/><path id="_Path_5" data-name="&lt;Path&gt;" class="cls-2" d="M267.75,361.31a2.8,2.8,0,0,0-.87-3.67l-12.75-7.3a2.76,2.76,0,0,0-2.74,4.79l12.76,7.3a2.81,2.81,0,0,0,3.61-1.12"/><path id="_Path_6" data-name="&lt;Path&gt;" class="cls-2" d="M188,383a2.81,2.81,0,0,0,3.67-.87l7.3-12.76a2.77,2.77,0,0,0-4.79-2.74l-7.3,12.75A2.82,2.82,0,0,0,188,383"/><path id="_Path_7" data-name="&lt;Path&gt;" class="cls-2" d="M246.17,382.93a2.8,2.8,0,0,0,1.1-3.6l-7.33-12.74a2.76,2.76,0,0,0-4.78,2.75l7.33,12.74a2.81,2.81,0,0,0,3.68.86"/><path id="_Path_8" data-name="&lt;Path&gt;" class="cls-2" d="M166.42,361.42a2.81,2.81,0,0,0,3.6,1.1l12.74-7.33a2.77,2.77,0,0,0-2.75-4.79l-12.74,7.33a2.82,2.82,0,0,0-.86,3.69"/><path id="_Path_9" data-name="&lt;Path&gt;" class="cls-2" d="M217.06,293.77a2.8,2.8,0,0,0,2.75-2.58v-14.7a2.76,2.76,0,0,0-5.52,0v14.7a2.82,2.82,0,0,0,2.77,2.58"/><path id="_Path_10" data-name="&lt;Path&gt;" class="cls-2" d="M183.61,313.15a2.81,2.81,0,0,0-.87-3.67L170,302.18a2.76,2.76,0,0,0-2.74,4.79l12.76,7.3a2.81,2.81,0,0,0,3.61-1.12"/><path id="_Path_11" data-name="&lt;Path&gt;" class="cls-2" d="M236.2,298.86a2.8,2.8,0,0,0,3.67-.87l7.3-12.75a2.77,2.77,0,0,0-4.79-2.74l-7.3,12.75a2.82,2.82,0,0,0,1.12,3.61"/><path id="_Path_12" data-name="&lt;Path&gt;" class="cls-2" d="M197.85,298.89a2.81,2.81,0,0,0,1.1-3.61l-7.33-12.74a2.76,2.76,0,0,0-4.78,2.76L194.17,298a2.81,2.81,0,0,0,3.68.86"/><path id="_Path_13" data-name="&lt;Path&gt;" class="cls-2" d="M250.46,313.09a2.81,2.81,0,0,0,3.61,1.1l12.74-7.33a2.76,2.76,0,0,0-2.75-4.78l-12.74,7.32a2.82,2.82,0,0,0-.86,3.69"/><polygon id="_Path_14" data-name="&lt;Path&gt;" class="cls-2" points="41.99 168.34 64.78 168.34 45.1 244.08 59.73 244.08 79.02 169.9 79.02 156.3 41.99 156.3 41.99 168.34"/><polygon id="_Path_15" data-name="&lt;Path&gt;" class="cls-2" points="89.02 155.92 103.83 155.92 103.83 160.98 95.23 160.98 95.23 171.53 101.37 171.53 101.37 176.54 95.23 176.54 95.23 187.75 103.83 187.75 103.83 192.81 89.02 192.81 89.02 155.92"/><polygon id="_Path_16" data-name="&lt;Path&gt;" class="cls-2" points="112.03 169.63 112.03 192.81 106.81 192.81 106.81 155.92 112.9 155.92 119.6 177.09 119.6 155.92 124.77 155.92 124.77 192.81 119.32 192.81 112.03 169.63"/><polygon id="_Path_17" data-name="&lt;Path&gt;" class="cls-2" points="127.96 155.92 142.77 155.92 142.77 160.98 134.16 160.98 134.16 171.53 140.31 171.53 140.31 176.54 134.16 176.54 134.16 187.75 142.77 187.75 142.77 192.81 127.96 192.81 127.96 155.92"/><path id="_Compound_Path_2" data-name="&lt;Compound Path&gt;" class="cls-2" d="M151.95,161v11.48H154c2.12,0,3-1.09,3-3V164c0-2-.93-3-3-3Zm0,14.91v16.92h-6.2V155.91h9c6.25,0,8.54,3.11,8.54,8.28v4.73c0,4-1.42,6.31-5,7.12l5.93,16.76h-6.52Z"/><path id="_Path_18" data-name="&lt;Path&gt;" class="cls-2" d="M175.71,173.11h8.81v19.7h-4.46v-4c-.82,2.78-2.55,4.47-5.93,4.47-5.34,0-7.78-4.24-7.78-10V165.44c0-5.76,2.78-10,9.31-10,6.86,0,8.86,3.81,8.86,9.24V168h-5.65v-3.75c0-2.29-.87-3.59-3.11-3.59s-3.21,1.58-3.21,3.81v19.8c0,2.24.93,3.82,3,3.82s3-1.14,3-3.54V178h-2.94Z"/><path id="_Compound_Path_3" data-name="&lt;Compound Path&gt;" class="cls-2" d="M187.73,155.92h6.2v36.89h-6.2Zm8.16-2.61-9.74,1.25v-3.48l9.74-2.06Z"/><path id="_Compound_Path_4" data-name="&lt;Compound Path&gt;" class="cls-2" d="M204,181.11h5l-2.45-14.8h-.06Zm-7.78,11.7,7-36.89h7.07l7,36.89h-6.36l-1.14-6.75h-6.59l-1.09,6.75Z"/><path id="_Compound_Path_5" data-name="&lt;Compound Path&gt;" class="cls-2" d="M231.67,181.11h5l-2.45-14.8h-.06Zm-7.78,11.7,7-36.89h7.07l7,36.89h-6.36l-1.14-6.75h-6.58l-1.09,6.75Z"/><path id="_Path_19" data-name="&lt;Path&gt;" class="cls-2" d="M246.3,184.86v-5h5.77V185c0,2.06.92,3.27,3,3.27,2,0,2.84-1.31,2.84-3.27v-1.41c0-2.13-.88-3.43-2.78-5.23l-3.65-3.64c-3.53-3.48-5.17-5.61-5.17-9.85V163.6c0-4.58,2.67-8.12,8.71-8.12,6.2,0,8.65,3,8.65,8.38v3H258v-3.21c0-2.12-1-3.16-2.94-3.16a2.72,2.72,0,0,0-2.93,3v.76c0,2.06,1.14,3.27,2.93,5l4,3.91c3.37,3.43,5,5.5,5,9.58v1.8c0,5.06-2.72,8.66-9,8.66s-8.76-3.54-8.76-8.38"/><polygon id="_Path_20" data-name="&lt;Path&gt;" class="cls-2" points="267.01 155.92 281.82 155.92 281.82 160.98 273.22 160.98 273.22 171.53 279.37 171.53 279.37 176.54 273.22 176.54 273.22 187.75 281.82 187.75 281.82 192.81 267.01 192.81 267.01 155.92"/><path id="_Compound_Path_6" data-name="&lt;Compound Path&gt;" class="cls-2" d="M296.82,184.59V164.46c0-2.23-1-3.81-3.21-3.81s-3.16,1.58-3.16,3.81v20.13c0,2.18,1,3.81,3.16,3.81s3.21-1.63,3.21-3.81m-5.49,10.71v-2.5c-5-.87-7.07-4.52-7.07-9.53V165.45c0-5.77,2.83-10,9.36-10s9.41,4.19,9.41,10v17.84c0,4-1.41,7.19-4.57,8.71l4.57.87v4.63Z"/><path id="_Path_21" data-name="&lt;Path&gt;" class="cls-2" d="M324.24,155.92v27.92c0,5.7-2.46,9.41-8.76,9.41-6.53,0-9.25-3.71-9.25-9.41V155.92h6.2v28.51c0,2.18.87,3.65,3,3.65s3-1.47,3-3.65V155.92Z"/><rect id="_Path_22" data-name="&lt;Path&gt;" class="cls-2" x="327.44" y="155.92" width="6.2" height="36.89"/><path id="_Compound_Path_7" data-name="&lt;Compound Path&gt;" class="cls-2" d="M343.1,176.21v11.54h2.71c2.07,0,3.06-1,3.06-3v-5.55c0-2-.93-3-3.11-3Zm0-4.73h2.18c2,0,2.93-1,2.93-3V164c0-2-.92-3-3-3H343.1Zm-6.2-15.56h9c6.2,0,8.28,2.88,8.28,8.11v3.76c0,3.1-1.14,5.05-3.71,5.87,3.11.71,4.63,2.77,4.63,6.15v4.9c0,5.22-2.34,8.11-8.53,8.11H336.9Z"/><polygon id="_Path_23" data-name="&lt;Path&gt;" class="cls-2" points="357.84 155.92 364.04 155.92 364.04 187.75 371.44 187.75 371.44 192.81 357.84 192.81 357.84 155.92"/><polygon id="_Path_24" data-name="&lt;Path&gt;" class="cls-2" points="373.93 155.92 388.74 155.92 388.74 160.98 380.14 160.98 380.14 171.53 386.28 171.53 386.28 176.54 380.14 176.54 380.14 187.75 388.74 187.75 388.74 192.81 373.93 192.81 373.93 155.92"/><polygon id="_Path_25" data-name="&lt;Path&gt;" class="cls-2" points="101.1 230.43 101.1 244.47 94.9 244.47 94.9 230.43 87.99 207.59 94.46 207.59 98.22 221.56 98.27 221.56 102.03 207.59 107.96 207.59 101.1 230.43"/><polygon id="_Path_26" data-name="&lt;Path&gt;" class="cls-2" points="119.64 221.29 119.64 244.48 114.42 244.48 114.42 207.58 120.51 207.58 127.21 228.75 127.21 207.58 132.38 207.58 132.38 244.48 126.93 244.48 119.64 221.29"/><path id="_Compound_Path_8" data-name="&lt;Compound Path&gt;" class="cls-2" d="M147.6,235.93V216.12c0-2.23-1-3.81-3.21-3.81s-3.16,1.58-3.16,3.81v19.81c0,2.23,1,3.81,3.16,3.81s3.21-1.58,3.21-3.81M135,235V217.1c0-5.76,2.83-10,9.36-10s9.41,4.19,9.41,10V235c0,5.7-2.83,10-9.41,10S135,240.66,135,235"/><path id="_Path_27" data-name="&lt;Path&gt;" class="cls-2" d="M161.3,235V217.11c0-5.76,2.72-10,9.25-10,6.86,0,8.76,3.8,8.76,9.24v4.35h-5.66v-4.84c0-2.29-.76-3.6-3-3.6s-3.16,1.58-3.16,3.81v19.81c0,2.23.93,3.82,3.16,3.82s3-1.42,3-3.6v-6.8h5.66v6.36c0,5.28-2.18,9.19-8.76,9.19s-9.25-4.24-9.25-10"/><path id="_Compound_Path_9" data-name="&lt;Compound Path&gt;" class="cls-2" d="M194.37,235.93V216.12c0-2.23-1-3.81-3.21-3.81s-3.16,1.58-3.16,3.81v19.81c0,2.23,1,3.81,3.16,3.81s3.21-1.58,3.21-3.81m-12.57-1V217.1c0-5.76,2.83-10,9.36-10s9.41,4.19,9.41,10V235c0,5.7-2.83,10-9.41,10s-9.36-4.25-9.36-10"/><polygon id="_Path_28" data-name="&lt;Path&gt;" class="cls-2" points="208.45 221.29 208.45 244.48 203.23 244.48 203.23 207.58 209.32 207.58 216.01 228.75 216.01 207.58 221.18 207.58 221.18 244.48 215.74 244.48 208.45 221.29"/><polygon id="_Path_29" data-name="&lt;Path&gt;" class="cls-2" points="223.13 207.58 239.62 207.58 239.62 212.64 234.5 212.64 234.5 244.48 228.25 244.48 228.25 212.64 223.13 212.64 223.13 207.58"/><path id="_Compound_Path_10" data-name="&lt;Compound Path&gt;" class="cls-2" d="M245.7,232.77h5L248.21,218h-.06Zm-7.78,11.7,7-36.89H252l7,36.89h-6.36l-1.14-6.75h-6.59l-1.09,6.75Z"/><polygon id="_Path_30" data-name="&lt;Path&gt;" class="cls-2" points="277.74 220.53 277.57 220.53 273.39 244.47 270.5 244.47 265.87 220.53 265.76 220.53 265.76 244.47 260.65 244.47 260.65 207.58 267.89 207.58 271.91 228.37 271.97 228.37 275.56 207.58 283.4 207.58 283.4 244.47 277.74 244.47 277.74 220.53"/><rect id="_Path_31" data-name="&lt;Path&gt;" class="cls-2" x="286.05" y="207.58" width="6.2" height="36.89"/><polygon id="_Path_32" data-name="&lt;Path&gt;" class="cls-2" points="300.19 221.29 300.19 244.48 294.97 244.48 294.97 207.58 301.06 207.58 307.76 228.75 307.76 207.58 312.93 207.58 312.93 244.48 307.48 244.48 300.19 221.29"/><path id="_Compound_Path_11" data-name="&lt;Compound Path&gt;" class="cls-2" d="M322.38,232.77h5L324.89,218h-.06Zm-7.78,11.7,7-36.89h7.07l7,36.89H329.3l-1.14-6.75h-6.59l-1.09,6.75Z"/><polygon id="_Path_33" data-name="&lt;Path&gt;" class="cls-2" points="342.56 221.29 342.56 244.48 337.33 244.48 337.33 207.58 343.43 207.58 350.12 228.75 350.12 207.58 355.29 207.58 355.29 244.48 349.85 244.48 342.56 221.29"/><polygon id="_Path_34" data-name="&lt;Path&gt;" class="cls-2" points="357.23 207.58 373.73 207.58 373.73 212.64 368.61 212.64 368.61 244.48 362.35 244.48 362.35 212.64 357.23 212.64 357.23 207.58"/><polygon id="_Path_35" data-name="&lt;Path&gt;" class="cls-2" points="375.73 207.58 390.53 207.58 390.53 212.64 381.93 212.64 381.93 223.2 388.08 223.2 388.08 228.21 381.93 228.21 381.93 239.42 390.53 239.42 390.53 244.48 375.73 244.48 375.73 207.58"/></g></g></g></svg>
