<svg xmlns="http://www.w3.org/2000/svg" viewBox="0 0 431.73 431.73"><defs><style>.cls-1{fill:#901839;}.cls-2{fill:#fff;}</style></defs><title>ods8</title><g id="Layer_2" data-name="Layer 2"><g id="Capa_1" data-name="Capa 1"><g id="_Group_" data-name="&lt;Group&gt;"><path id="_Path_" data-name="&lt;Path&gt;" class="cls-1" d="M215.86,431.73c119.22,0,215.86-96.64,215.86-215.86S335.08,0,215.86,0,0,96.65,0,215.87,96.64,431.73,215.86,431.73"/><path id="_Path_2" data-name="&lt;Path&gt;" class="cls-2" d="M245.46,318.67l-17.55,16.69a2.9,2.9,0,0,0-1,2.5v46.78a1,1,0,0,0,1,1H246a1,1,0,0,0,1-1V319.09c0-.56-.43-1.56-1.58-.42"/><path id="_Path_3" data-name="&lt;Path&gt;" class="cls-2" d="M194.9,340.42l-17.55,16.69a2.9,2.9,0,0,0-1,2.5v25a1,1,0,0,0,1,1h18.13a1,1,0,0,0,1-1V340.84c0-.55-.44-1.56-1.57-.42"/><path id="_Path_4" data-name="&lt;Path&gt;" class="cls-2" d="M253.43,298.43a.52.52,0,0,0-.15-.38.54.54,0,0,0-.33-.14h-.24l-13.44,3-.24,0a.5.5,0,0,0-.26.14.51.51,0,0,0,0,.72l.15.15,3.06,3.07L211.55,335.5l-14.06-14.06a.4.4,0,0,0-.57,0l-3.82,3.82h0L170.56,347.8a.41.41,0,0,0,0,.57l3.82,3.82a.4.4,0,0,0,.57,0l22.26-22.26,10.21,10.21,0,0,3.82,3.81a.39.39,0,0,0,.57,0l34.56-34.55,3.22,3.22a.5.5,0,0,0,.72,0,.48.48,0,0,0,.15-.33v0l3-13.72Z"/><path id="_Path_5" data-name="&lt;Path&gt;" class="cls-2" d="M220.28,343.35l-8.49,8.56a.4.4,0,0,1-.55,0L203.55,344c-1.41-1.4-1.71-.27-1.71.28v40.32a1,1,0,0,0,1,1H221a1,1,0,0,0,1-1v-41c0-.56-.44-1.57-1.68-.32"/><path id="_Compound_Path_" data-name="&lt;Compound Path&gt;" class="cls-2" d="M345.9,273.68c0,6.09-2.24,10.4-8.32,10.4s-8.17-4.31-8.17-10.4V257.34c0-6.09,2.23-10.41,8.17-10.41s8.32,4.32,8.32,10.41ZM330,218c0-6.1,2.09-9.67,7.59-9.67s7.72,3.57,7.72,9.67v6.83c0,6.09-2.08,9.67-7.72,9.67S330,230.89,330,224.8Zm32.84,53.93v-11c0-9.66-3.41-16.65-11.29-20.21,6.68-3.26,9.8-9.21,9.8-17.53V219c0-15.75-8.17-24.22-23.77-24.22-15.44,0-23.48,8.46-23.48,24.22v4.16c0,8.17,3,14.27,9.51,17.53-7.88,3.57-11.14,10.55-11.14,20.21v11c0,15.31,7.29,26,25.11,26,18,0,25.26-10.7,25.26-26"/><polygon id="_Path_6" data-name="&lt;Path&gt;" class="cls-2" points="55.02 139.06 72.26 139.06 72.26 144.35 66.92 144.35 66.92 177.63 60.37 177.63 60.37 144.35 55.02 144.35 55.02 139.06"/><path id="_Compound_Path_2" data-name="&lt;Compound Path&gt;" class="cls-2" d="M81.75,144.35v12h2.16c2.22,0,3.19-1.14,3.19-3.19v-5.68c0-2.11-1-3.13-3.19-3.13Zm0,15.59v17.69H75.27V139.07h9.44c6.54,0,8.93,3.24,8.93,8.64v5c0,4.15-1.48,6.6-5.18,7.45l6.19,17.52H87.83Z"/><path id="_Compound_Path_3" data-name="&lt;Compound Path&gt;" class="cls-2" d="M104.27,165.4h5.18l-2.56-15.48h-.06Zm-8.14,12.23,7.28-38.57h7.4l7.34,38.57h-6.65l-1.2-7h-6.89l-1.14,7Z"/><path id="_Compound_Path_4" data-name="&lt;Compound Path&gt;" class="cls-2" d="M127.28,160.28v12.05h2.84c2.17,0,3.19-1.08,3.19-3.12v-5.81c0-2-1-3.12-3.24-3.12Zm0-5h2.28c2.11,0,3.07-1.08,3.07-3.12v-4.73c0-2.11-1-3.13-3.12-3.13h-2.22Zm-6.48-16.27h9.39c6.48,0,8.64,3,8.64,8.47v3.92c0,3.24-1.19,5.29-3.87,6.14,3.25.75,4.83,2.91,4.83,6.44v5.12c0,5.46-2.44,8.47-8.92,8.47H120.8Z"/><path id="_Compound_Path_5" data-name="&lt;Compound Path&gt;" class="cls-2" d="M149.86,165.4H155l-2.56-15.48h-.05Zm-8.14,12.23L149,139.06h7.4l7.34,38.57h-6.65l-1.2-7H149l-1.13,7Z"/><path id="_Path_7" data-name="&lt;Path&gt;" class="cls-2" d="M183.07,139.06v29.81c0,5.57-2.45,9.22-8.93,9.22-6.72,0-8.53-3.7-8.53-8.6v-7.67h6.15v7.8c0,1.94.68,3.07,2.39,3.07s2.45-1.13,2.45-3.13V139.06Z"/><path id="_Compound_Path_6" data-name="&lt;Compound Path&gt;" class="cls-2" d="M199.84,168.7V148c0-2.33-1-4-3.36-4s-3.3,1.65-3.3,4V168.7c0,2.33,1,4,3.3,4s3.36-1.65,3.36-4m-13.14-1V149c0-6,3-10.41,9.79-10.41s9.84,4.38,9.84,10.41v18.65c0,6-3,10.41-9.84,10.41s-9.79-4.43-9.79-10.41"/><path id="_Compound_Path_7" data-name="&lt;Compound Path&gt;" class="cls-2" d="M225.19,172.34c2.67,0,3.69-1.6,3.69-3.92v-20.2c0-2.27-1-3.86-3.69-3.86h-2.74v28Zm10.18-22.93v17.86c0,5.91-2.45,10.36-9.39,10.36H216V139.06h10c6.94,0,9.39,4.38,9.39,10.35"/><polygon id="_Path_8" data-name="&lt;Path&gt;" class="cls-2" points="239.06 139.06 254.53 139.06 254.53 144.35 245.54 144.35 245.54 155.39 251.97 155.39 251.97 160.62 245.54 160.62 245.54 172.34 254.53 172.34 254.53 177.63 239.06 177.63 239.06 139.06"/><path id="_Path_9" data-name="&lt;Path&gt;" class="cls-2" d="M257.42,167.67V149c0-6,2.84-10.41,9.67-10.41,7.17,0,9.16,4,9.16,9.67v4.55h-5.92v-5.06c0-2.39-.79-3.76-3.12-3.76s-3.3,1.66-3.3,4V168.7c0,2.33,1,4,3.3,4s3.12-1.48,3.12-3.75v-7.11h5.92v6.66c0,5.51-2.28,9.61-9.16,9.61s-9.67-4.43-9.67-10.41"/><polygon id="_Path_10" data-name="&lt;Path&gt;" class="cls-2" points="279.76 139.06 295.24 139.06 295.24 144.35 286.25 144.35 286.25 155.39 292.67 155.39 292.67 160.62 286.25 160.62 286.25 172.34 295.24 172.34 295.24 177.63 279.76 177.63 279.76 139.06"/><polygon id="_Path_11" data-name="&lt;Path&gt;" class="cls-2" points="304.16 153.4 304.16 177.63 298.69 177.63 298.69 139.06 305.07 139.06 312.07 161.19 312.07 139.06 317.47 139.06 317.47 177.63 311.78 177.63 304.16 153.4"/><polygon id="_Path_12" data-name="&lt;Path&gt;" class="cls-2" points="320.41 139.06 337.65 139.06 337.65 144.35 332.31 144.35 332.31 177.63 325.76 177.63 325.76 144.35 320.41 144.35 320.41 139.06"/><polygon id="_Path_13" data-name="&lt;Path&gt;" class="cls-2" points="340.65 139.06 356.13 139.06 356.13 144.35 347.13 144.35 347.13 155.39 353.56 155.39 353.56 160.62 347.13 160.62 347.13 172.34 356.13 172.34 356.13 177.63 340.65 177.63 340.65 139.06"/><polygon id="_Path_14" data-name="&lt;Path&gt;" class="cls-2" points="68.39 214.12 68.39 228.8 61.91 228.8 61.91 214.12 54.68 190.23 61.45 190.23 65.38 204.85 65.44 204.85 69.36 190.23 75.56 190.23 68.39 214.12"/><path id="_Path_15" data-name="&lt;Path&gt;" class="cls-2" d="M84.13,218.84V200.18c0-6,2.84-10.41,9.67-10.41,7.17,0,9.16,4,9.16,9.67V204H97v-5.07c0-2.39-.8-3.75-3.13-3.75s-3.3,1.65-3.3,4v20.71c0,2.33,1,4,3.3,4S97,222.36,97,220.09V213H103v6.66c0,5.51-2.28,9.61-9.16,9.61s-9.67-4.44-9.67-10.41"/><path id="_Compound_Path_8" data-name="&lt;Compound Path&gt;" class="cls-2" d="M113,195.52v12h2.17c2.21,0,3.18-1.14,3.18-3.19v-5.68c0-2.11-1-3.13-3.18-3.13Zm0,15.58v17.69h-6.48V190.23h9.44c6.54,0,8.93,3.24,8.93,8.64v5c0,4.15-1.48,6.59-5.18,7.45l6.2,17.52h-6.82Z"/><polygon id="_Path_16" data-name="&lt;Path&gt;" class="cls-2" points="128.36 190.23 143.84 190.23 143.84 195.52 134.85 195.52 134.85 206.56 141.27 206.56 141.27 211.79 134.85 211.79 134.85 223.51 143.84 223.51 143.84 228.79 128.36 228.79 128.36 190.23"/><path id="_Path_17" data-name="&lt;Path&gt;" class="cls-2" d="M146.73,218.84V200.18c0-6,2.84-10.41,9.67-10.41,7.17,0,9.16,4,9.16,9.67V204h-5.91v-5.07c0-2.39-.8-3.75-3.13-3.75s-3.3,1.65-3.3,4v20.71c0,2.33,1,4,3.3,4s3.13-1.48,3.13-3.75V213h5.91v6.66c0,5.51-2.28,9.61-9.16,9.61s-9.67-4.44-9.67-10.41"/><rect id="_Path_18" data-name="&lt;Path&gt;" class="cls-2" x="169.07" y="190.23" width="6.48" height="38.57"/><polygon id="_Path_19" data-name="&lt;Path&gt;" class="cls-2" points="197.16 203.77 196.99 203.77 192.62 228.8 189.6 228.8 184.76 203.77 184.65 203.77 184.65 228.8 179.3 228.8 179.3 190.23 186.87 190.23 191.08 211.96 191.13 211.96 194.89 190.23 203.08 190.23 203.08 228.8 197.16 228.8 197.16 203.77"/><rect id="_Path_20" data-name="&lt;Path&gt;" class="cls-2" x="206.76" y="190.23" width="6.48" height="38.57"/><polygon id="_Path_21" data-name="&lt;Path&gt;" class="cls-2" points="216.99 190.23 232.47 190.23 232.47 195.52 223.48 195.52 223.48 206.56 229.91 206.56 229.91 211.79 223.48 211.79 223.48 223.51 232.47 223.51 232.47 228.79 216.99 228.79 216.99 190.23"/><polygon id="_Path_22" data-name="&lt;Path&gt;" class="cls-2" points="241.39 204.56 241.39 228.8 235.93 228.8 235.93 190.23 242.3 190.23 249.3 212.36 249.3 190.23 254.7 190.23 254.7 228.8 249.01 228.8 241.39 204.56"/><polygon id="_Path_23" data-name="&lt;Path&gt;" class="cls-2" points="257.64 190.23 274.88 190.23 274.88 195.52 269.53 195.52 269.53 228.79 262.99 228.79 262.99 195.52 257.64 195.52 257.64 190.23"/><path id="_Compound_Path_9" data-name="&lt;Compound Path&gt;" class="cls-2" d="M290.17,219.86V199.16c0-2.33-1-4-3.36-4s-3.3,1.65-3.3,4v20.71c0,2.34,1,4,3.3,4s3.36-1.65,3.36-4m-13.14-1V200.18c0-6,3-10.41,9.79-10.41s9.84,4.38,9.84,10.41v18.66c0,6-3,10.41-9.84,10.41S277,224.81,277,218.84"/><polygon id="_Path_24" data-name="&lt;Path&gt;" class="cls-2" points="55.76 241.4 71.24 241.4 71.24 246.68 62.24 246.68 62.24 257.73 68.67 257.73 68.67 262.96 62.24 262.96 62.24 274.68 71.24 274.68 71.24 279.96 55.76 279.96 55.76 241.4"/><path id="_Path_25" data-name="&lt;Path&gt;" class="cls-2" d="M74.13,270V251.35c0-6,2.84-10.41,9.67-10.41,7.17,0,9.16,4,9.16,9.66v4.55H87V250.1c0-2.39-.8-3.75-3.13-3.75s-3.3,1.65-3.3,4V271c0,2.33,1,4,3.3,4S87,273.54,87,271.26v-7.1H93v6.65c0,5.52-2.28,9.61-9.16,9.61S74.13,276,74.13,270"/><path id="_Compound_Path_10" data-name="&lt;Compound Path&gt;" class="cls-2" d="M109.61,271v-20.7c0-2.33-1-4-3.35-4s-3.3,1.65-3.3,4V271c0,2.34,1,4,3.3,4s3.35-1.65,3.35-4m-13.13-1V251.35c0-6,3-10.41,9.79-10.41s9.84,4.38,9.84,10.41V270c0,6-3,10.41-9.84,10.41S96.47,276,96.47,270"/><polygon id="_Path_26" data-name="&lt;Path&gt;" class="cls-2" points="125.24 255.73 125.24 279.97 119.78 279.97 119.78 241.4 126.15 241.4 133.15 263.53 133.15 241.4 138.55 241.4 138.55 279.97 132.86 279.97 125.24 255.73"/><path id="_Compound_Path_11" data-name="&lt;Compound Path&gt;" class="cls-2" d="M155.38,271v-20.7c0-2.33-1-4-3.36-4s-3.3,1.65-3.3,4V271c0,2.34,1,4,3.3,4s3.36-1.65,3.36-4m1.93-32.36L147.12,240v-3.65l10.18-2.15ZM142.24,270V251.35c0-6,3-10.41,9.79-10.41s9.84,4.38,9.84,10.41V270c0,6-3,10.41-9.84,10.41S142.24,276,142.24,270"/><polygon id="_Path_27" data-name="&lt;Path&gt;" class="cls-2" points="183.41 254.94 183.24 254.94 178.85 279.96 175.84 279.96 171 254.94 170.9 254.94 170.9 279.96 165.55 279.96 165.55 241.4 173.11 241.4 177.31 263.13 177.38 263.13 181.13 241.4 189.32 241.4 189.32 279.96 183.41 279.96 183.41 254.94"/><rect id="_Path_28" data-name="&lt;Path&gt;" class="cls-2" x="193" y="241.4" width="6.48" height="38.57"/><path id="_Path_29" data-name="&lt;Path&gt;" class="cls-2" d="M203.24,270V251.35c0-6,2.84-10.41,9.67-10.41,7.17,0,9.16,4,9.16,9.66v4.55h-5.91V250.1c0-2.39-.8-3.75-3.13-3.75s-3.3,1.65-3.3,4V271c0,2.33,1,4,3.3,4s3.13-1.48,3.13-3.76v-7.1h5.91v6.65c0,5.52-2.28,9.61-9.16,9.61S203.24,276,203.24,270"/><path id="_Compound_Path_12" data-name="&lt;Compound Path&gt;" class="cls-2" d="M238.72,271v-20.7c0-2.33-1-4-3.35-4s-3.3,1.65-3.3,4V271c0,2.34,1,4,3.3,4s3.35-1.65,3.35-4m-13.14-1V251.35c0-6,3-10.41,9.79-10.41s9.84,4.38,9.84,10.41V270c0,6-3,10.41-9.84,10.41S225.58,276,225.58,270"/></g></g></g></svg>
