<svg xmlns="http://www.w3.org/2000/svg" viewBox="0 0 431.73 431.73"><defs><style>.cls-1{fill:#ff7b00;}.cls-2{fill:#fff;}</style></defs><title>ods9</title><g id="Layer_2" data-name="Layer 2"><g id="Capa_1" data-name="Capa 1"><g id="_Group_" data-name="&lt;Group&gt;"><path id="_Path_" data-name="&lt;Path&gt;" class="cls-1" d="M215.86,431.73c119.22,0,215.86-96.64,215.86-215.86S335.08,0,215.86,0,0,96.65,0,215.87,96.64,431.73,215.86,431.73"/><path id="_Compound_Path_" data-name="&lt;Compound Path&gt;" class="cls-2" d="M349.62,142.68c-.3,5.61-2.66,9.16-8,9.16-5.76,0-8-3.54-8-10V124.36c0-6.35,2.35-10,8.12-10s7.84,3.83,7.84,10Zm16.69-15.36c0-15.51-6.8-26.73-24.53-26.73S317,110.33,317,125.84v14.78c0,16.39,6.5,24.66,18.61,24.66,7.1,0,11.37-3.25,13.88-8.12h.15v21.56c0,6.05-2.37,10.34-8.42,10.34s-8.28-3.54-8.28-9.75v-6.65H317.57V178c0,14.76,5.32,25.1,23.93,25.1,17.71,0,24.82-11.37,24.82-27Z"/><g id="_Group_2" data-name="&lt;Group&gt;"><rect id="_Path_2" data-name="&lt;Path&gt;" class="cls-2" x="66.82" y="119.39" width="6.5" height="38.72"/><polygon id="_Path_3" data-name="&lt;Path&gt;" class="cls-2" points="82.57 133.78 82.57 158.1 77.09 158.1 77.09 119.39 83.49 119.39 90.51 141.6 90.51 119.39 95.94 119.39 95.94 158.1 90.22 158.1 82.57 133.78"/><path id="_Compound_Path_2" data-name="&lt;Compound Path&gt;" class="cls-2" d="M108.89,152.79c2.68,0,3.7-1.6,3.7-3.94V128.58c0-2.28-1-3.89-3.7-3.89h-2.74v28.09Zm10.22-23v17.93c0,5.94-2.46,10.4-9.43,10.4h-10V119.39h10c7,0,9.43,4.39,9.43,10.39"/><path id="_Path_4" data-name="&lt;Path&gt;" class="cls-2" d="M141.7,119.39v29.29c0,6-2.58,9.87-9.19,9.87-6.86,0-9.71-3.88-9.71-9.87V119.39h6.5v29.92c0,2.28.91,3.82,3.2,3.82s3.2-1.54,3.2-3.82V119.39Z"/><path id="_Path_5" data-name="&lt;Path&gt;" class="cls-2" d="M145.06,149.76v-5.2h6.06v5.31c0,2.17,1,3.43,3.19,3.43,2.06,0,3-1.37,3-3.43v-1.48c0-2.23-.92-3.59-2.92-5.49l-3.83-3.82c-3.71-3.65-5.43-5.88-5.43-10.34v-1.31c0-4.8,2.8-8.51,9.14-8.51,6.51,0,9.08,3.2,9.08,8.8v3.14h-5.94v-3.37c0-2.22-1-3.31-3.08-3.31a2.85,2.85,0,0,0-3.08,3.2v.8c0,2.16,1.2,3.42,3.08,5.26l4.17,4.1c3.54,3.6,5.26,5.77,5.26,10.05v1.89c0,5.31-2.85,9.08-9.48,9.08s-9.19-3.71-9.19-8.8"/><polygon id="_Path_6" data-name="&lt;Path&gt;" class="cls-2" points="165.54 119.39 182.84 119.39 182.84 124.69 177.47 124.69 177.47 158.09 170.91 158.09 170.91 124.69 165.54 124.69 165.54 119.39"/><path id="_Compound_Path_3" data-name="&lt;Compound Path&gt;" class="cls-2" d="M192.37,124.7v12h2.17c2.23,0,3.2-1.14,3.2-3.2v-5.71c0-2.11-1-3.14-3.2-3.14Zm0,15.65V158.1h-6.5V119.39h9.48c6.56,0,9,3.25,9,8.67v5c0,4.16-1.48,6.62-5.2,7.48l6.23,17.58h-6.86Z"/><rect id="_Path_7" data-name="&lt;Path&gt;" class="cls-2" x="207.83" y="119.39" width="6.5" height="38.72"/><path id="_Compound_Path_4" data-name="&lt;Compound Path&gt;" class="cls-2" d="M225.24,145.82h5.2l-2.57-15.53h-.06Zm-8.17,12.28,7.31-38.71h7.42l7.37,38.71h-6.68L231.3,151h-6.91l-1.15,7.08Z"/><polygon id="_Path_8" data-name="&lt;Path&gt;" class="cls-2" points="242.35 151.87 241.55 161.13 245.2 161.13 248.52 152.39 248.52 151.87 242.35 151.87"/><rect id="_Path_9" data-name="&lt;Path&gt;" class="cls-2" x="66.82" y="170.74" width="6.5" height="38.71"/><polygon id="_Path_10" data-name="&lt;Path&gt;" class="cls-2" points="82.57 185.13 82.57 209.45 77.09 209.45 77.09 170.75 83.49 170.75 90.51 192.96 90.51 170.75 95.94 170.75 95.94 209.45 90.22 209.45 82.57 185.13"/><polygon id="_Path_11" data-name="&lt;Path&gt;" class="cls-2" points="105.11 185.13 105.11 209.45 99.64 209.45 99.64 170.75 106.03 170.75 113.05 192.96 113.05 170.75 118.48 170.75 118.48 209.45 112.77 209.45 105.11 185.13"/><path id="_Compound_Path_5" data-name="&lt;Compound Path&gt;" class="cls-2" d="M135.37,200.49V179.7c0-2.34-1-4-3.37-4s-3.32,1.66-3.32,4v20.79c0,2.34,1,4,3.32,4s3.37-1.65,3.37-4m-13.19-1V180.74c0-6.06,3-10.45,9.82-10.45s9.87,4.39,9.87,10.45v18.73c0,6-3,10.44-9.87,10.44s-9.82-4.45-9.82-10.44"/><polygon id="_Path_12" data-name="&lt;Path&gt;" class="cls-2" points="165.27 170.74 157.9 209.45 150.82 209.45 143.46 170.74 150.08 170.74 154.53 197.75 154.58 197.75 159.16 170.74 165.27 170.74"/><path id="_Compound_Path_6" data-name="&lt;Compound Path&gt;" class="cls-2" d="M171.65,197.18h5.2l-2.57-15.53h-.06Zm-8.17,12.27,7.31-38.7h7.42l7.37,38.7h-6.68l-1.21-7.07h-6.9l-1.15,7.07Z"/><path id="_Path_13" data-name="&lt;Path&gt;" class="cls-2" d="M187.4,199.47V180.74c0-6.06,2.85-10.45,9.71-10.45,7.19,0,9.19,4,9.19,9.71v4.57h-5.94v-5.08c0-2.4-.8-3.77-3.14-3.77s-3.31,1.65-3.31,4v20.79c0,2.34,1,4,3.31,4s3.14-1.49,3.14-3.77v-7.13h5.94v6.69c0,5.53-2.28,9.65-9.19,9.65s-9.71-4.46-9.71-10.45"/><rect id="_Path_14" data-name="&lt;Path&gt;" class="cls-2" x="209.82" y="170.74" width="6.5" height="38.71"/><path id="_Compound_Path_7" data-name="&lt;Compound Path&gt;" class="cls-2" d="M233.29,200.49V179.7c0-2.34-1-4-3.37-4s-3.31,1.66-3.31,4v20.79c0,2.34,1,4,3.31,4s3.37-1.65,3.37-4M235.22,168,225,169.31v-3.65l10.22-2.17ZM220.1,199.47V180.74c0-6.06,3-10.45,9.82-10.45s9.87,4.39,9.87,10.45v18.73c0,6-3,10.44-9.87,10.44s-9.82-4.45-9.82-10.44"/><polygon id="_Path_15" data-name="&lt;Path&gt;" class="cls-2" points="248.97 185.13 248.97 209.45 243.5 209.45 243.5 170.74 249.89 170.74 256.91 192.96 256.91 170.74 262.34 170.74 262.34 209.45 256.63 209.45 248.97 185.13"/><polygon id="_Path_16" data-name="&lt;Path&gt;" class="cls-2" points="275.94 170.74 291.48 170.74 291.48 176.05 282.45 176.05 282.45 187.14 288.9 187.14 288.9 192.39 282.45 192.39 282.45 204.15 291.48 204.15 291.48 209.45 275.94 209.45 275.94 170.74"/><rect id="_Path_17" data-name="&lt;Path&gt;" class="cls-2" x="66.82" y="222.11" width="6.5" height="38.71"/><polygon id="_Path_18" data-name="&lt;Path&gt;" class="cls-2" points="82.57 236.5 82.57 260.82 77.09 260.82 77.09 222.11 83.49 222.11 90.51 244.32 90.51 222.11 95.94 222.11 95.94 260.82 90.22 260.82 82.57 236.5"/><polygon id="_Path_19" data-name="&lt;Path&gt;" class="cls-2" points="99.63 222.11 114.88 222.11 114.88 227.41 106.14 227.41 106.14 238.49 112.65 238.49 112.65 243.75 106.14 243.75 106.14 260.81 99.63 260.81 99.63 222.11"/><path id="_Compound_Path_8" data-name="&lt;Compound Path&gt;" class="cls-2" d="M124.23,227.42v12h2.17c2.23,0,3.2-1.14,3.2-3.2v-5.7c0-2.11-1-3.14-3.2-3.14Zm0,15.65v17.76h-6.5V222.11h9.48c6.57,0,9,3.26,9,8.68v5c0,4.17-1.48,6.63-5.19,7.48l6.23,17.58h-6.86Z"/><path id="_Compound_Path_9" data-name="&lt;Compound Path&gt;" class="cls-2" d="M146.83,248.54H152L149.46,233h-.06Zm-8.17,12.28L146,222.11h7.43l7.37,38.71h-6.68l-1.2-7.08H146l-1.14,7.08Z"/><polygon id="_Path_20" data-name="&lt;Path&gt;" class="cls-2" points="163.43 222.11 178.96 222.11 178.96 227.41 169.93 227.41 169.93 238.49 176.4 238.49 176.4 243.75 169.93 243.75 169.93 255.51 178.96 255.51 178.96 260.81 163.43 260.81 163.43 222.11"/><path id="_Path_21" data-name="&lt;Path&gt;" class="cls-2" d="M181.81,252.48v-5.2h6.06v5.32c0,2.17,1,3.43,3.19,3.43,2.06,0,3-1.37,3-3.43v-1.48c0-2.23-.92-3.59-2.92-5.49l-3.83-3.82c-3.71-3.66-5.43-5.88-5.43-10.34v-1.32c0-4.79,2.8-8.5,9.14-8.5,6.51,0,9.08,3.2,9.08,8.8v3.14h-5.94v-3.37c0-2.23-1-3.31-3.08-3.31a2.85,2.85,0,0,0-3.08,3.2v.8c0,2.16,1.2,3.42,3.08,5.25l4.17,4.11c3.54,3.6,5.26,5.77,5.26,10.05v1.89c0,5.31-2.85,9.07-9.48,9.07s-9.19-3.7-9.19-8.79"/><polygon id="_Path_22" data-name="&lt;Path&gt;" class="cls-2" points="202.29 222.11 219.59 222.11 219.59 227.41 214.23 227.41 214.23 260.81 207.66 260.81 207.66 227.41 202.29 227.41 202.29 222.11"/><path id="_Compound_Path_10" data-name="&lt;Compound Path&gt;" class="cls-2" d="M229.12,227.42v12h2.17c2.23,0,3.2-1.14,3.2-3.2v-5.7c0-2.11-1-3.14-3.2-3.14Zm0,15.65v17.76h-6.5V222.11h9.48c6.57,0,9,3.26,9,8.68v5c0,4.17-1.48,6.63-5.2,7.48l6.23,17.58h-6.85Z"/><path id="_Path_23" data-name="&lt;Path&gt;" class="cls-2" d="M263.48,222.11V251.4c0,6-2.58,9.87-9.19,9.87-6.86,0-9.71-3.88-9.71-9.87V222.11h6.5V252c0,2.27.92,3.83,3.2,3.83s3.2-1.55,3.2-3.83V222.11Z"/><path id="_Path_24" data-name="&lt;Path&gt;" class="cls-2" d="M267.18,250.83V232.1c0-6,2.85-10.45,9.71-10.45,7.19,0,9.19,4,9.19,9.7v4.57h-5.94v-5.08c0-2.4-.8-3.77-3.15-3.77s-3.32,1.65-3.32,4v20.79c0,2.34,1,4,3.32,4s3.15-1.49,3.15-3.77v-7.13h5.94v6.68c0,5.54-2.29,9.65-9.19,9.65s-9.71-4.45-9.71-10.44"/><polygon id="_Path_25" data-name="&lt;Path&gt;" class="cls-2" points="288.29 222.11 305.59 222.11 305.59 227.41 300.22 227.41 300.22 260.81 293.66 260.81 293.66 227.41 288.29 227.41 288.29 222.11"/><path id="_Path_26" data-name="&lt;Path&gt;" class="cls-2" d="M327.51,222.11V251.4c0,6-2.58,9.87-9.19,9.87-6.86,0-9.71-3.88-9.71-9.87V222.11h6.5V252c0,2.27.91,3.83,3.2,3.83s3.2-1.55,3.2-3.83V222.11Z"/><path id="_Compound_Path_11" data-name="&lt;Compound Path&gt;" class="cls-2" d="M337.72,227.42v12h2.17c2.22,0,3.2-1.14,3.2-3.2v-5.7c0-2.11-1-3.14-3.2-3.14Zm0,15.65v17.76h-6.5V222.11h9.48c6.57,0,9,3.26,9,8.68v5c0,4.17-1.48,6.63-5.2,7.48l6.22,17.58h-6.85Z"/><path id="_Compound_Path_12" data-name="&lt;Compound Path&gt;" class="cls-2" d="M360.32,248.54h5.2L362.94,233h-.06Zm-8.17,12.28,7.31-38.71h7.42l7.37,38.71h-6.68l-1.21-7.08h-6.9l-1.15,7.08Z"/></g><path id="_Compound_Path_13" data-name="&lt;Compound Path&gt;" class="cls-2" d="M265.77,373.79l-21.91,12.65V361.14l21.91-12.65Zm-72.36,12.65V363.07l20.24,11.69Zm-3.33,0-21.9-12.65V348.5l21.9,12.65Zm23.56-70-20.24,11.69V304.8Zm26.89,11.69L220.3,316.48l20.23-11.68ZM220.3,345.62,242.2,333l21.91,12.65L242.2,358.26Zm-5-2.89-20.24-11.68,20.24-11.68Zm23.56-11.68-20.24,11.68V319.37Zm-23.56,40.82-20.24-11.68,20.24-11.69Zm53-27.69-24.4-14.08V301.92a1.66,1.66,0,0,0-.83-1.44L217.8,285.91a1.69,1.69,0,0,0-1.66,0l-25.23,14.57a1.66,1.66,0,0,0-.83,1.44v28.18l-24.4,14.08a1.67,1.67,0,0,0-.83,1.45v29.13a1.66,1.66,0,0,0,.83,1.44l25.23,14.56a1.66,1.66,0,0,0,1.66,0L217,376.68l24.39,14.08a1.66,1.66,0,0,0,1.66,0l25.23-14.56a1.66,1.66,0,0,0,.83-1.44V345.62a1.67,1.67,0,0,0-.83-1.45"/></g></g></g></svg>
