<svg xmlns="http://www.w3.org/2000/svg" viewBox="0 0 510.3 510.3"><defs><style>.cls-1{fill:#e2e2e1;}.cls-2{font-size:10.17px;fill:#878787;font-family:FiraSans-Medium, Fira Sans;}</style></defs><title>circulo-exterior</title><g id="Layer_2" data-name="Layer 2"><g id="Capa_1" data-name="Capa 1"><path class="cls-1" d="M255.15,0C114.23,0,0,114.23,0,255.15S114.23,510.3,255.15,510.3,510.3,396.07,510.3,255.15,396.07,0,255.15,0Zm0,493C123.79,493,17.3,386.51,17.3,255.15S123.79,17.3,255.15,17.3,493,123.79,493,255.15,386.51,493,255.15,493Z"/><text class="cls-2" transform="matrix(0.64, 0.76, -0.76, 0.64, 62.06, 414.15)">S</text><text class="cls-2" transform="matrix(0.68, 0.74, -0.74, 0.68, 69.04, 422.25)">e</text><text class="cls-2" transform="translate(76.32 430.02) rotate(45.18)">r</text><text class="cls-2" transform="matrix(0.73, 0.69, -0.69, 0.73, 82.76, 436.35)"> </text><text class="cls-2" transform="translate(88.32 441.5) rotate(41.51)">l</text><text class="cls-2" transform="translate(94.39 446.77) rotate(39.39)">a</text><text class="cls-2" transform="translate(102.62 453.38) rotate(37.33)"> </text><text class="cls-2" transform="matrix(0.82, 0.58, -0.58, 0.82, 108.69, 457.93)">e</text><text class="cls-2" transform="translate(117.41 463.99) rotate(32.47)">m</text><text class="cls-2" transform="translate(129.01 471.18) rotate(29.64)">p</text><text class="cls-2" transform="translate(138.67 476.54) rotate(27.34)">r</text><text class="cls-2" transform="translate(146.64 480.57) rotate(25.1)">e</text><text class="cls-2" transform="matrix(0.92, 0.39, -0.39, 0.92, 156.31, 484.98)">s</text><text class="cls-2" transform="translate(165.43 488.7) rotate(20.39)">a</text><text class="cls-2" transform="translate(175.41 492.28) rotate(18.29)"> </text><text class="cls-2" transform="matrix(0.96, 0.28, -0.28, 0.96, 182.61, 494.59)">p</text><text class="cls-2" transform="matrix(0.97, 0.24, -0.24, 0.97, 193.28, 497.55)">r</text><text class="cls-2" transform="translate(201.95 499.6) rotate(11.58)">e</text><text class="cls-2" transform="translate(212.39 501.62) rotate(9.37)">f</text><text class="cls-2" transform="translate(220.76 502.93) rotate(7.19)">e</text><text class="cls-2" transform="translate(231.31 504.14) rotate(4.95)">r</text><text class="cls-2" transform="matrix(1, 0.05, -0.05, 1, 240.32, 504.83)">i</text><text class="cls-2" transform="translate(248.22 505.18) rotate(0.93)">d</text><text class="cls-2" transform="translate(259.51 505.23) rotate(-1.6)">a</text><text class="cls-2" transform="matrix(1, -0.06, 0.06, 1, 270.09, 504.82)"> </text><text class="cls-2" transform="matrix(0.99, -0.1, 0.1, 0.99, 277.62, 504.28)">d</text><text class="cls-2" transform="matrix(0.99, -0.14, 0.14, 0.99, 288.57, 503.06)">e</text><text class="cls-2" transform="translate(299.06 501.42) rotate(-10.34)"> </text><text class="cls-2" transform="translate(306.52 499.98) rotate(-12.14)">l</text><text class="cls-2" transform="translate(314.33 498.23) rotate(-14.28)">á</text><text class="cls-2" transform="translate(324.55 495.52) rotate(-16.64)">c</text><text class="cls-2" transform="matrix(0.95, -0.32, 0.32, 0.95, 333.99, 492.58)">t</text><text class="cls-2" transform="translate(342.24 489.69) rotate(-21.02)">e</text><text class="cls-2" transform="translate(352.12 485.78) rotate(-23.51)">o</text><text class="cls-2" transform="matrix(0.9, -0.44, 0.44, 0.9, 362.11, 481.31)">s</text><text class="cls-2" transform="matrix(0.88, -0.47, 0.47, 0.88, 370.93, 476.91)"> </text><text class="cls-2" transform="translate(377.58 473.31) rotate(-30)">e</text><text class="cls-2" transform="matrix(0.84, -0.54, 0.54, 0.84, 386.75, 467.9)">n</text><text class="cls-2" transform="translate(395.9 461.93) rotate(-34.59)"> </text><text class="cls-2" transform="translate(402.1 457.58) rotate(-36.7)">A</text><text class="cls-2" transform="translate(410.8 450.98) rotate(-39.5)">m</text><text class="cls-2" transform="translate(421.24 442.17) rotate(-42.27)">é</text><text class="cls-2" transform="matrix(0.71, -0.7, 0.7, 0.71, 429.02, 434.94)">r</text><text class="cls-2" transform="translate(435.4 428.54) rotate(-46.43)">i</text><text class="cls-2" transform="matrix(0.66, -0.75, 0.75, 0.66, 440.8, 422.76)">c</text><text class="cls-2" transform="translate(447.28 415.3) rotate(-50.79)">a</text></g></g></svg>
