<?xml version="1.0" encoding="utf-8"?>
<!-- Generator: Adobe Illustrator 23.0.3, SVG Export Plug-In . SVG Version: 6.00 Build 0)  -->
<svg version="1.1" id="Layer_1" xmlns="http://www.w3.org/2000/svg" xmlns:xlink="http://www.w3.org/1999/xlink" x="0px" y="0px"
	 viewBox="0 0 200 199.8" style="enable-background:new 0 0 200 199.8;" xml:space="preserve">
<style type="text/css">
	.st0{clip-path:url(#SVGID_2_);}
	.st1{fill:#35585F;}
	.st2{fill:#63B2BC;}
	.st3{fill:#1D1D1B;}
	.st4{clip-path:url(#SVGID_4_);}
	.st5{fill:#EDEDED;}
	.st6{fill:#FFFFFF;}
</style>
<title>compromiso</title>
<g>
	<g id="Layer_1-2">
		<g>
			<defs>
				<rect id="SVGID_1_" width="200" height="199.8"/>
			</defs>
			<clipPath id="SVGID_2_">
				<use xlink:href="#SVGID_1_"  style="overflow:visible;"/>
			</clipPath>
			<g class="st0">
				<path class="st1" d="M138.6,3.4c-25.1,0-35.2,44-78.9,38.8s-64.5,49.1-26.7,72.6s51.7,7.2,71.4,44.2c21.3,40,67.2,4.5,59.2-28.2
					c-7.4-30.1-29.9-51.6-7.5-76.2C167.4,42.3,177.6,3.4,138.6,3.4"/>
				<path class="st2" d="M82,15L93,4C88.1,6.3,84.7,10.2,82,15"/>
				<path class="st2" d="M99.6,1.4L78.4,22.7c-0.5,1.1-0.9,2.3-1.4,3.5l25.4-25.4C101.5,0.9,100.6,1.1,99.6,1.4"/>
				<path class="st2" d="M31.9,75.2L13,94.1c-0.6,1.2-1,2.4-1.5,3.6l24.1-24.1C34.4,74.1,33.1,74.6,31.9,75.2"/>
				<path class="st2" d="M107.1,0L74.6,32.6c-0.4,1.1-0.9,2.2-1.3,3.4l36-36C108.6,0,107.9,0,107.1,0"/>
				<path class="st2" d="M42,71.2l-32,32c-0.2,0.8-0.3,1.7-0.4,2.5l36.3-36.2C44.6,70.1,43.4,70.7,42,71.2"/>
				<path class="st2" d="M112.9,0.4L70.3,43c-0.7,1.4-1.4,2.8-2.1,4.2l46.3-46.3C114,0.7,113.4,0.5,112.9,0.4"/>
				<path class="st2" d="M117.5,1.9L9.2,110.2c0,0.7,0,1.4,0,2.1L118.8,2.7C118.4,2.4,117.9,2.2,117.5,1.9"/>
				<path class="st2" d="M121.2,4.3L9.5,116c0.1,0.6,0.2,1.2,0.3,1.8L122.3,5.3C122,4.9,121.6,4.6,121.2,4.3"/>
				<path class="st2" d="M124.3,7.3L10.5,121.2c0.1,0.5,0.3,1.1,0.5,1.6L125.2,8.5C124.9,8.1,124.6,7.7,124.3,7.3"/>
				<path class="st2" d="M126.8,10.9L12,125.8c0.2,0.5,0.4,1,0.6,1.5L127.6,12.3C127.3,11.8,127.1,11.4,126.8,10.9"/>
				<path class="st2" d="M128.9,15L14,129.9c0.2,0.4,0.5,0.9,0.8,1.3L129.4,16.5C129.2,16,129,15.5,128.9,15"/>
				<path class="st2" d="M130.4,19.6L16.3,133.7c0.3,0.4,0.6,0.8,0.9,1.2L130.8,21.2C130.7,20.7,130.6,20.1,130.4,19.6"/>
				<path class="st2" d="M131.5,24.6L19,137.1c0.3,0.4,0.7,0.7,1,1.1L131.8,26.4C131.7,25.8,131.6,25.2,131.5,24.6"/>
				<path class="st2" d="M132.1,30.1L22.1,140.1c0.4,0.3,0.8,0.6,1.1,0.9L132.1,32.2C132.1,31.5,132.1,30.8,132.1,30.1"/>
				<path class="st2" d="M132,36.4L25.6,142.8c0.4,0.3,0.8,0.6,1.3,0.8L131.7,38.7C131.8,38,131.9,37.2,132,36.4"/>
				<path class="st2" d="M130.4,44l-101,101c0.5,0.2,0.9,0.5,1.4,0.7l98.9-98.9C129.9,45.9,130.2,45,130.4,44"/>
				<path class="st2" d="M129,51.6l-95.4,95.4c0.5,0.2,1,0.4,1.5,0.6l93.7-93.7C128.9,53.1,128.9,52.3,129,51.6"/>
				<path class="st2" d="M129,57.7l-90.8,90.8c0.5,0.1,1.1,0.3,1.7,0.4l89.3-89.3C129.1,58.9,129.1,58.3,129,57.7"/>
				<path class="st2" d="M130,62.8l-86.7,86.6c0.5,0.1,1.1,0.2,1.7,0.2h0.2l85.3-85.3C130.3,63.9,130.1,63.4,130,62.8"/>
				<path class="st2" d="M131.6,67.3l-82.8,82.8l1.9,0.1l81.5-81.5C132.1,68.2,131.8,67.8,131.6,67.3"/>
				<path class="st2" d="M133.8,71.3l-79.2,79.2l2,0.1l78-78C134.3,72.1,134,71.7,133.8,71.3"/>
				<path class="st2" d="M136.3,74.9l-75.7,75.7h2.1L137.2,76C136.9,75.6,136.6,75.2,136.3,74.9"/>
				<path class="st2" d="M139.1,78.2L67,150.3l2.3-0.2l70.8-70.8L139.1,78.2"/>
				<path class="st2" d="M142,81.3l-68.2,68.3l2.4-0.3l66.9-66.9L142,81.3"/>
				<path class="st2" d="M145.1,84.4L81,148.5l2.5-0.4l62.8-62.8L145.1,84.4"/>
				<path class="st2" d="M148.3,87.3l-60.1,60c0.8-0.1,1.6-0.2,2.4-0.3l58.7-58.7L148.3,87.3"/>
				<path class="st2" d="M151.6,90.2l-56.4,56.4c0.7,0,1.4-0.1,2.1-0.1l55.4-55.4L151.6,90.2"/>
				<path class="st2" d="M154.8,93.1l-53.7,53.7c0.6,0.1,1.2,0.1,1.8,0.2l52.9-52.9L154.8,93.1"/>
				<path class="st2" d="M158,96l-51.7,51.7c0.5,0.1,1.1,0.3,1.6,0.4L159.1,97L158,96"/>
				<path class="st2" d="M161.1,99L111,149.1c0.5,0.2,1,0.4,1.5,0.6l49.7-49.7L161.1,99"/>
				<path class="st2" d="M164.2,102l-49,49l1.4,0.7l48.6-48.6L164.2,102"/>
				<path class="st2" d="M167.1,105.2l-47.9,47.9l1.3,0.8l47.6-47.6L167.1,105.2"/>
				<path class="st2" d="M170,108.6L170,108.6l-47.1,46.9l1.2,0.8l46.6-46.6C170.5,109.4,170.2,109,170,108.6"/>
				<path class="st2" d="M172.4,112.1L126.6,158l1.2,0.9l45.4-45.4C173,113,172.7,112.6,172.4,112.1"/>
				<path class="st2" d="M174.5,116.2l-44.4,44.4c0.4,0.3,0.8,0.6,1.3,0.8l43.7-43.7C175,117.1,174.8,116.6,174.5,116.2"/>
				<path class="st2" d="M176.1,120.7l-42.2,42.2c0.5,0.3,0.9,0.5,1.4,0.7l41.3-41.3C176.4,121.8,176.3,121.2,176.1,120.7"/>
				<path class="st2" d="M177.2,125.7l-39.1,39.1c0.5,0.2,1,0.4,1.5,0.6l37.8-37.8C177.3,127,177.3,126.4,177.2,125.7"/>
				<path class="st2" d="M177.5,131.5l-34.8,34.8c0.6,0.1,1.2,0.2,1.7,0.3l33-33C177.5,132.9,177.5,132.2,177.5,131.5"/>
				<path class="st2" d="M176.9,138.2L148.2,167c0.7,0,1.4,0,2.1-0.1l26.1-26.1C176.6,140,176.8,139.1,176.9,138.2"/>
				<path class="st2" d="M158.5,164.8l14.3-14.3c0.7-1.2,1.2-2.5,1.8-3.8l-19.3,19.3C156.3,165.7,157.4,165.3,158.5,164.8"/>
				<path class="st2" d="M143.9,129.1c-4-1-8.1-1.6-12.2-1.8C135.8,127.6,139.9,128.2,143.9,129.1c0.9,0.2,1.8,0.4,2.7,0.7
					C145.8,129.6,144.8,129.4,143.9,129.1 M185,56.3c-24.8-22.8-41.5-14.2-59.5-10.5l-1.9,0.4c-11.8,2.2-24.3,1.7-40.1-11.5
					c-7.2-6.1-16.2-9.6-25.6-9.9h-1.5C35.5,25.2,17.1,42.3,21,65.6c1.4,7.8,3.8,15.3,7.2,22.4c0.2,0.5,0.5,1,0.7,1.5
					c9.4,19.7,28,42.8,61.9,53.3l2.1,0.6c10.1,2.9,20.5,4.6,31,5C193.2,151.8,219.3,87.8,185,56.3"/>
				<path class="st3" d="M47.3,135.7c0,1.1-0.9,2-2,2s-2-0.9-2-2s0.9-2,2-2S47.3,134.6,47.3,135.7"/>
				<path class="st3" d="M34.6,122.7c-2.1,0-3.8,1.7-3.8,3.8c0,2.1,1.7,3.8,3.8,3.8c2.1,0,3.8-1.7,3.8-3.8l0,0
					C38.4,124.4,36.7,122.7,34.6,122.7 M34.6,131.7c-2.9,0-5.2-2.3-5.2-5.2c0-2.9,2.3-5.2,5.2-5.2c2.9,0,5.2,2.3,5.2,5.2l0,0
					C39.9,129.4,37.5,131.7,34.6,131.7"/>
				<path class="st3" d="M192.1,53.5c-1.8,0-3.3,1.5-3.3,3.3s1.5,3.3,3.3,3.3c1.8,0,3.3-1.5,3.3-3.3c0,0,0,0,0,0
					C195.4,54.9,194,53.5,192.1,53.5 M192.1,61.5c-2.6,0-4.8-2.1-4.8-4.8s2.1-4.8,4.8-4.8s4.8,2.1,4.8,4.8
					C196.9,59.3,194.8,61.4,192.1,61.5"/>
				<path class="st3" d="M84.8,16.2c-0.4,0-0.7-0.3-0.7-0.7v-12c0-0.4,0.4-0.7,0.8-0.6c0.3,0,0.6,0.3,0.6,0.6v12
					C85.5,15.8,85.2,16.2,84.8,16.2"/>
				<path class="st3" d="M90.8,10.2h-12c-0.4,0-0.8-0.2-0.8-0.6s0.2-0.8,0.6-0.8c0.1,0,0.1,0,0.2,0h12c0.4,0,0.8,0.2,0.8,0.6
					s-0.2,0.8-0.6,0.8C90.9,10.2,90.9,10.2,90.8,10.2"/>
				<path class="st3" d="M4.8,74.4c-0.4,0-0.7-0.3-0.7-0.7v-8.1c0-0.4,0.4-0.7,0.8-0.6c0.3,0,0.6,0.3,0.6,0.6v8.1
					C5.5,74.1,5.2,74.4,4.8,74.4"/>
				<path class="st3" d="M8.8,70.4H0.7c-0.4,0-0.8-0.2-0.8-0.6s0.2-0.8,0.6-0.8c0.1,0,0.1,0,0.2,0h8.1c0.4,0,0.8,0.2,0.8,0.6
					S9.4,70.3,9,70.4C9,70.4,8.9,70.4,8.8,70.4"/>
				<path class="st2" d="M168.9,41.4c1.7,2,9.8,1.1,11.5,7.7c0.9,3.3,5.9,1.6,5.4-1.5c-1-6.4-3-9-6.9-9.5
					C173.2,37.4,167.2,39.5,168.9,41.4"/>
				<path class="st2" d="M168.4,141.3c7,1.7,15.2,5.4,14.9,9.4c-0.2,2.4-2.2,3.1-5.2,2.5c-3.9-0.7-6.8-4-8.6-6
					C167.5,145,163.8,140.2,168.4,141.3"/>
				<path class="st1" d="M175.6,137.6c1.1-2.1,5.2-2.1,6.8-0.9c1.5,1.2,1.7,3.4,0.5,5c-0.1,0.1-0.2,0.2-0.3,0.4
					c-1.3,1.4-3.4,1.5-4.9,0.3C176.6,141.5,175,138.8,175.6,137.6"/>
				<path class="st1" d="M41.3,15.9c1.1-2.1,5.2-2.2,6.8-0.9c1.5,1.2,1.7,3.4,0.5,5c-0.1,0.1-0.2,0.2-0.3,0.4
					c-1.3,1.4-3.4,1.5-4.8,0.3C42.4,19.8,40.8,17.1,41.3,15.9"/>
				<path class="st2" d="M84.9,161.1c-0.9-5.5,1.7-11.1,4.6-12.1c2.2-0.7,3.6,1,3.8,2.9c0.5,3.7-0.9,6-1.7,7.9
					C90.5,162.4,85.8,166.5,84.9,161.1"/>
				<path class="st3" d="M191.3,118.1c-0.4,0-0.8-0.3-0.8-0.8v-4c0-0.4,0.3-0.8,0.8-0.8c0.4,0,0.8,0.3,0.8,0.8v4
					C192,117.8,191.7,118.1,191.3,118.1"/>
				<path class="st3" d="M193.9,119.4c-0.4,0-0.7-0.3-0.7-0.7c0-0.2,0.1-0.4,0.2-0.5l2.7-2.7c0.2-0.4,0.6-0.5,1-0.3s0.5,0.6,0.3,1
					c-0.1,0.1-0.2,0.2-0.3,0.3l-2.7,2.7C194.2,119.3,194,119.3,193.9,119.4"/>
				<path class="st3" d="M198.9,122.3h-3.9c-0.4,0-0.8-0.2-0.8-0.6s0.2-0.8,0.6-0.8c0.1,0,0.1,0,0.2,0h3.9c0.4,0,0.8,0.2,0.8,0.6
					s-0.2,0.8-0.6,0.8C199.1,122.3,199,122.3,198.9,122.3"/>
				<path class="st3" d="M197,128c-0.2,0-0.4-0.1-0.5-0.2l-2.8-2.8c-0.3-0.3-0.2-0.8,0.1-1.1c0.3-0.2,0.7-0.2,1,0l2.8,2.8
					c0.3,0.3,0.2,0.8-0.1,1.1C197.3,127.9,197.2,128,197,128"/>
				<path class="st3" d="M191.3,130.4c-0.4,0-0.8-0.3-0.8-0.8v-4c0-0.4,0.3-0.8,0.8-0.8c0.4,0,0.8,0.3,0.8,0.8l0,0v4
					C192,130.1,191.7,130.4,191.3,130.4"/>
				<path class="st3" d="M185.5,128c-0.4,0-0.8-0.3-0.8-0.8c0-0.2,0.1-0.4,0.2-0.5l2.8-2.8c0.3-0.3,0.8-0.2,1.1,0.1
					c0.2,0.3,0.2,0.7,0,1l-2.9,2.9C185.9,128,185.7,128,185.5,128"/>
				<path class="st3" d="M187.1,122.3h-4c-0.4,0-0.8-0.3-0.8-0.8c0-0.4,0.3-0.8,0.8-0.8h4c0.4,0,0.8,0.3,0.8,0.8
					C187.9,121.9,187.5,122.3,187.1,122.3"/>
				<path class="st3" d="M188.3,119.3c-0.2,0-0.4-0.1-0.5-0.2l-2.8-2.8c-0.3-0.3-0.2-0.8,0.1-1.1c0.3-0.2,0.7-0.2,1,0l2.8,2.8
					c0.3,0.3,0.3,0.8,0,1.1C188.7,119.3,188.5,119.3,188.3,119.3"/>
			</g>
		</g>
		<g>
			<defs>
				<rect id="SVGID_3_" width="200" height="199.8"/>
			</defs>
			<clipPath id="SVGID_4_">
				<use xlink:href="#SVGID_3_"  style="overflow:visible;"/>
			</clipPath>
			<g class="st4">
				<path class="st5" d="M167.4,193c0,3.7-29.8,6.7-66.5,6.7s-66.5-3-66.5-6.7s29.8-6.7,66.5-6.7S167.4,189.3,167.4,193"/>
			</g>
		</g>
	</g>
</g>
<g>
	<path class="st6" d="M64,62.3l1.1,4.7l0.2,1.3l0.2-1.3l0.9-4.7h1.8l1,4.7l0.3,1.3l0.3-1.3l1.1-4.8h1.8l-2.3,8.2h-1.6l-1-4.8
		l-0.3-1.6l-0.3,1.6l-1,4.8h-1.6l-2.3-8.2H64z"/>
	<path class="st6" d="M77.3,64.5c0.4,0.2,0.8,0.5,1.1,0.9c0.2,0.4,0.4,0.8,0.5,1.3c0,0.3,0.1,0.7,0.1,1.2h-4.4c0,0.6,0.2,1,0.6,1.3
		c0.2,0.2,0.5,0.2,0.9,0.2c0.4,0,0.7-0.1,0.9-0.3c0.1-0.1,0.2-0.2,0.3-0.4h1.6c0,0.4-0.2,0.7-0.6,1.1c-0.5,0.6-1.3,0.9-2.3,0.9
		c-0.8,0-1.5-0.2-2.1-0.8c-0.6-0.5-0.9-1.3-0.9-2.4c0-1.1,0.3-1.9,0.8-2.4c0.6-0.6,1.3-0.8,2.2-0.8C76.4,64.2,76.9,64.3,77.3,64.5z
		 M74.9,65.9c-0.2,0.2-0.4,0.5-0.4,0.9h2.7c0-0.4-0.2-0.7-0.4-1s-0.6-0.3-0.9-0.3C75.5,65.6,75.1,65.7,74.9,65.9z"/>
	<path class="st6" d="M85.8,64.4h1.6l0.9,4.4l1-4.4h1.7l-1.8,6.1h-1.6l-1-4.4l-1,4.4h-1.7l-1.7-6.1h1.7l1,4.4L85.8,64.4z"/>
	<path class="st6" d="M96.9,69.8c-0.5,0.6-1.3,1-2.3,1c-1,0-1.8-0.3-2.3-1c-0.5-0.6-0.8-1.4-0.8-2.3c0-0.9,0.3-1.6,0.8-2.3
		c0.5-0.6,1.3-1,2.3-1c1,0,1.8,0.3,2.3,1s0.8,1.4,0.8,2.3C97.6,68.4,97.4,69.1,96.9,69.8z M95.6,68.9c0.2-0.3,0.4-0.8,0.4-1.4
		c0-0.6-0.1-1.1-0.4-1.4c-0.2-0.3-0.6-0.5-1.1-0.5c-0.5,0-0.8,0.2-1.1,0.5c-0.3,0.3-0.4,0.8-0.4,1.4c0,0.6,0.1,1.1,0.4,1.4
		c0.3,0.3,0.6,0.5,1.1,0.5C95,69.4,95.4,69.2,95.6,68.9z"/>
	<path class="st6" d="M102.2,64.3c0,0,0.1,0,0.1,0v1.6c-0.1,0-0.2,0-0.3,0c-0.1,0-0.1,0-0.2,0c-0.6,0-1.1,0.2-1.3,0.6
		c-0.1,0.2-0.2,0.6-0.2,1.1v2.9h-1.6v-6.1h1.5v1.1c0.2-0.4,0.5-0.7,0.6-0.8C101.2,64.4,101.6,64.3,102.2,64.3
		C102.1,64.3,102.2,64.3,102.2,64.3z"/>
	<path class="st6" d="M103.2,62.3h1.6v4.4l2-2.3h2l-2.2,2.3l2.3,3.8h-1.9l-1.5-2.6l-0.7,0.7v1.9h-1.6V62.3z"/>
	<path class="st6" d="M113.6,64.5c0.4,0.2,0.8,0.5,1.1,0.9c0.2,0.4,0.4,0.8,0.5,1.3c0,0.3,0.1,0.7,0.1,1.2h-4.4c0,0.6,0.2,1,0.6,1.3
		c0.2,0.2,0.5,0.2,0.9,0.2c0.4,0,0.7-0.1,0.9-0.3c0.1-0.1,0.2-0.2,0.3-0.4h1.6c0,0.4-0.2,0.7-0.6,1.1c-0.5,0.6-1.3,0.9-2.3,0.9
		c-0.8,0-1.5-0.2-2.1-0.8s-0.9-1.3-0.9-2.4c0-1.1,0.3-1.9,0.8-2.4s1.3-0.8,2.2-0.8C112.7,64.2,113.2,64.3,113.6,64.5z M111.2,65.9
		c-0.2,0.2-0.4,0.5-0.4,0.9h2.7c0-0.4-0.2-0.7-0.4-1s-0.6-0.3-0.9-0.3C111.7,65.6,111.4,65.7,111.2,65.9z"/>
	<path class="st6" d="M119.2,64.5c0.3,0.2,0.5,0.4,0.7,0.7v-2.9h1.6v8.2H120v-0.8c-0.2,0.4-0.5,0.6-0.8,0.8
		c-0.3,0.2-0.7,0.2-1.1,0.2c-0.7,0-1.3-0.3-1.8-0.9s-0.7-1.3-0.7-2.2c0-1,0.2-1.9,0.7-2.5c0.5-0.6,1.1-0.9,1.9-0.9
		C118.6,64.3,118.9,64.3,119.2,64.5z M119.6,68.8c0.2-0.3,0.4-0.8,0.4-1.3c0-0.7-0.2-1.3-0.6-1.6c-0.2-0.2-0.5-0.3-0.8-0.3
		c-0.5,0-0.8,0.2-1,0.5c-0.2,0.4-0.3,0.8-0.3,1.3c0,0.6,0.1,1,0.3,1.4s0.6,0.5,1,0.5S119.4,69.2,119.6,68.8z"/>
	<path class="st6" d="M128.6,66.8c0.3,0,0.5-0.1,0.6-0.1c0.2-0.1,0.3-0.2,0.3-0.5c0-0.2-0.1-0.4-0.3-0.5c-0.2-0.1-0.4-0.1-0.8-0.1
		c-0.4,0-0.7,0.1-0.8,0.3c-0.1,0.1-0.2,0.3-0.2,0.6h-1.5c0-0.5,0.2-1,0.4-1.3c0.4-0.5,1.2-0.8,2.2-0.8c0.7,0,1.3,0.1,1.8,0.4
		s0.8,0.8,0.8,1.5V69c0,0.2,0,0.4,0,0.7c0,0.2,0,0.4,0.1,0.4c0.1,0.1,0.1,0.1,0.2,0.2v0.2h-1.7c0-0.1-0.1-0.2-0.1-0.3
		c0-0.1,0-0.2,0-0.4c-0.2,0.2-0.5,0.4-0.8,0.6c-0.3,0.2-0.7,0.3-1.2,0.3c-0.6,0-1-0.2-1.4-0.5c-0.4-0.3-0.5-0.8-0.5-1.3
		c0-0.7,0.3-1.3,0.9-1.6c0.3-0.2,0.8-0.3,1.4-0.4L128.6,66.8z M129.6,67.5c-0.1,0.1-0.2,0.1-0.3,0.2c-0.1,0-0.2,0.1-0.4,0.1
		l-0.4,0.1c-0.3,0.1-0.6,0.1-0.7,0.2c-0.3,0.1-0.4,0.4-0.4,0.7c0,0.3,0.1,0.5,0.2,0.6s0.3,0.2,0.6,0.2c0.3,0,0.7-0.1,1-0.3
		c0.3-0.2,0.4-0.6,0.5-1.1V67.5z"/>
	<path class="st6" d="M134.2,70.5h-1.6v-8.2h1.6V70.5z"/>
	<path class="st6" d="M140.8,69.8c-0.5,0.6-1.3,1-2.3,1s-1.8-0.3-2.3-1c-0.5-0.6-0.8-1.4-0.8-2.3c0-0.9,0.3-1.6,0.8-2.3s1.3-1,2.3-1
		s1.8,0.3,2.3,1c0.5,0.6,0.8,1.4,0.8,2.3C141.6,68.4,141.3,69.1,140.8,69.8z M139.5,68.9c0.2-0.3,0.4-0.8,0.4-1.4
		c0-0.6-0.1-1.1-0.4-1.4c-0.2-0.3-0.6-0.5-1.1-0.5s-0.8,0.2-1.1,0.5c-0.3,0.3-0.4,0.8-0.4,1.4c0,0.6,0.1,1.1,0.4,1.4
		c0.3,0.3,0.6,0.5,1.1,0.5S139.3,69.2,139.5,68.9z"/>
	<path class="st6" d="M147.6,64.8c0.4,0.3,0.6,0.9,0.6,1.6v4.1h-1.6v-3.7c0-0.3,0-0.6-0.1-0.7c-0.2-0.3-0.5-0.5-0.9-0.5
		c-0.5,0-0.9,0.2-1.1,0.7c-0.1,0.2-0.2,0.6-0.2,0.9v3.3h-1.6v-6.1h1.5v0.9c0.2-0.3,0.4-0.5,0.6-0.7c0.3-0.2,0.7-0.4,1.2-0.4
		C146.7,64.3,147.2,64.4,147.6,64.8z"/>
	<path class="st6" d="M152.7,64.4c0.4,0.2,0.7,0.5,0.9,0.9v-0.9h1.6v5.8c0,0.8-0.1,1.4-0.4,1.8c-0.5,0.7-1.3,1-2.6,1
		c-0.8,0-1.4-0.2-1.9-0.5s-0.8-0.8-0.8-1.4h1.7c0,0.2,0.1,0.3,0.2,0.4c0.2,0.1,0.5,0.2,0.9,0.2c0.6,0,1-0.2,1.2-0.6
		c0.1-0.2,0.2-0.7,0.2-1.2v-0.4c-0.2,0.3-0.3,0.5-0.5,0.6c-0.3,0.2-0.7,0.4-1.2,0.4c-0.8,0-1.4-0.3-1.9-0.8s-0.7-1.3-0.7-2.2
		c0-0.9,0.2-1.7,0.7-2.3s1.1-0.9,1.9-0.9C152.2,64.3,152.5,64.3,152.7,64.4z M153.3,68.8c0.3-0.3,0.4-0.7,0.4-1.3
		c0-0.6-0.1-1-0.4-1.3c-0.2-0.3-0.6-0.5-1-0.5c-0.6,0-0.9,0.3-1.2,0.8c-0.1,0.3-0.2,0.6-0.2,1c0,0.4,0.1,0.7,0.2,0.9
		c0.2,0.5,0.6,0.8,1.2,0.8C152.7,69.2,153,69.1,153.3,68.8z"/>
	<path class="st6" d="M157.9,68.6c0,0.3,0.1,0.5,0.2,0.6c0.2,0.2,0.6,0.3,1.1,0.3c0.3,0,0.6,0,0.8-0.1s0.3-0.2,0.3-0.4
		c0-0.2-0.1-0.3-0.2-0.4c-0.1-0.1-0.7-0.3-1.7-0.5c-0.7-0.2-1.2-0.4-1.5-0.6c-0.3-0.3-0.4-0.6-0.4-1.1c0-0.6,0.2-1,0.7-1.5
		c0.4-0.4,1.1-0.6,1.9-0.6c0.8,0,1.4,0.2,1.9,0.5c0.5,0.3,0.8,0.8,0.8,1.6h-1.6c0-0.2-0.1-0.4-0.2-0.5c-0.2-0.2-0.5-0.3-0.9-0.3
		c-0.3,0-0.6,0.1-0.7,0.2c-0.1,0.1-0.2,0.2-0.2,0.4c0,0.2,0.1,0.3,0.2,0.4c0.2,0.1,0.7,0.2,1.7,0.4c0.6,0.1,1.1,0.4,1.4,0.7
		c0.3,0.3,0.5,0.7,0.5,1.1c0,0.6-0.2,1.1-0.7,1.5c-0.5,0.4-1.1,0.6-2.1,0.6c-1,0-1.7-0.2-2.1-0.6c-0.5-0.4-0.7-0.9-0.7-1.5H157.9z"
		/>
	<path class="st6" d="M164.7,63.7h-1.6v-1.5h1.6V63.7z M163.1,64.4h1.6v6.1h-1.6V64.4z"/>
	<path class="st6" d="M169.5,64.5c0.3,0.2,0.5,0.4,0.7,0.7v-2.9h1.6v8.2h-1.5v-0.8c-0.2,0.4-0.5,0.6-0.8,0.8
		c-0.3,0.2-0.7,0.2-1.1,0.2c-0.7,0-1.3-0.3-1.8-0.9s-0.7-1.3-0.7-2.2c0-1,0.2-1.9,0.7-2.5c0.5-0.6,1.1-0.9,1.9-0.9
		C168.9,64.3,169.2,64.3,169.5,64.5z M169.9,68.8c0.2-0.3,0.4-0.8,0.4-1.3c0-0.7-0.2-1.3-0.6-1.6c-0.2-0.2-0.5-0.3-0.8-0.3
		c-0.5,0-0.8,0.2-1,0.5c-0.2,0.4-0.3,0.8-0.3,1.3c0,0.6,0.1,1,0.3,1.4s0.6,0.5,1,0.5S169.6,69.2,169.9,68.8z"/>
	<path class="st6" d="M177.2,64.5c0.4,0.2,0.8,0.5,1.1,0.9c0.2,0.4,0.4,0.8,0.5,1.3c0,0.3,0.1,0.7,0.1,1.2h-4.4c0,0.6,0.2,1,0.6,1.3
		c0.2,0.2,0.5,0.2,0.9,0.2c0.4,0,0.7-0.1,0.9-0.3c0.1-0.1,0.2-0.2,0.3-0.4h1.6c0,0.4-0.2,0.7-0.6,1.1c-0.5,0.6-1.3,0.9-2.3,0.9
		c-0.8,0-1.5-0.2-2.1-0.8s-0.9-1.3-0.9-2.4c0-1.1,0.3-1.9,0.8-2.4s1.3-0.8,2.2-0.8C176.3,64.2,176.8,64.3,177.2,64.5z M174.8,65.9
		c-0.2,0.2-0.4,0.5-0.4,0.9h2.7c0-0.4-0.2-0.7-0.4-1s-0.6-0.3-0.9-0.3C175.4,65.6,175.1,65.7,174.8,65.9z"/>
</g>
<g>
	<path class="st1" d="M40.7,82.9c0,0.3,0.1,0.6,0.2,0.8c0.2,0.4,0.5,0.6,1.1,0.6c0.3,0,0.6-0.1,0.8-0.3c0.2-0.2,0.3-0.5,0.3-0.9
		c0-0.5-0.2-0.9-0.6-1.1c-0.2-0.1-0.6-0.2-1.2-0.2v-1.1c0.5,0,0.9-0.1,1.1-0.2c0.4-0.2,0.5-0.5,0.5-1c0-0.3-0.1-0.6-0.3-0.8
		c-0.2-0.2-0.4-0.3-0.8-0.3c-0.4,0-0.7,0.1-0.8,0.4c-0.2,0.2-0.3,0.6-0.3,1h-1.5c0-0.4,0.1-0.8,0.2-1.1c0.1-0.3,0.3-0.6,0.6-0.9
		c0.2-0.2,0.5-0.3,0.7-0.4c0.3-0.1,0.6-0.2,1.1-0.2c0.8,0,1.4,0.2,1.9,0.6c0.5,0.4,0.7,0.9,0.7,1.6c0,0.5-0.1,0.9-0.4,1.2
		c-0.2,0.2-0.4,0.3-0.6,0.4c0.1,0,0.4,0.1,0.6,0.4c0.4,0.4,0.6,0.9,0.6,1.5c0,0.7-0.2,1.3-0.7,1.8c-0.5,0.5-1.2,0.8-2.1,0.8
		c-1.1,0-1.9-0.4-2.4-1.1c-0.2-0.4-0.4-0.9-0.4-1.6H40.7z"/>
	<path class="st1" d="M50.5,78.3c0.4,0.7,0.6,1.8,0.6,3.1c0,1.3-0.2,2.4-0.6,3.1c-0.4,0.7-1.1,1.1-2.2,1.1s-1.8-0.4-2.2-1.1
		c-0.4-0.7-0.6-1.8-0.6-3.1c0-1.3,0.2-2.4,0.6-3.1c0.4-0.7,1.1-1.1,2.2-1.1S50.1,77.6,50.5,78.3z M47.4,83.6
		c0.2,0.5,0.5,0.7,0.9,0.7s0.8-0.2,0.9-0.7c0.1-0.5,0.2-1.2,0.2-2.1c0-1-0.1-1.7-0.2-2.2s-0.5-0.7-0.9-0.7s-0.8,0.2-0.9,0.7
		s-0.2,1.2-0.2,2.2C47.2,82.3,47.2,83.1,47.4,83.6z"/>
	<path class="st1" d="M52.3,83.8c0.2-0.5,0.8-1.1,1.6-1.7c0.7-0.5,1.2-0.9,1.4-1.1c0.3-0.4,0.5-0.7,0.5-1.2c0-0.3-0.1-0.6-0.3-0.9
		c-0.2-0.2-0.5-0.3-0.8-0.3c-0.5,0-0.8,0.2-1,0.5c-0.1,0.2-0.2,0.5-0.2,1H52c0-0.7,0.2-1.2,0.4-1.7c0.4-0.8,1.2-1.2,2.3-1.2
		c0.9,0,1.5,0.2,2,0.7c0.5,0.5,0.8,1.1,0.8,1.9c0,0.6-0.2,1.1-0.5,1.6c-0.2,0.3-0.6,0.7-1.2,1l-0.6,0.5c-0.4,0.3-0.7,0.5-0.8,0.6
		c-0.1,0.1-0.3,0.3-0.4,0.4h3.5v1.4h-5.6C51.9,84.8,52,84.3,52.3,83.8z"/>
	<path class="st1" d="M67.4,77.1h2.5v8.2h-1.6v-5.6c0-0.2,0-0.4,0-0.7c0-0.3,0-0.5,0-0.7l-1.6,6.9h-1.7l-1.6-6.9c0,0.2,0,0.4,0,0.7
		c0,0.3,0,0.5,0,0.7v5.6h-1.6v-8.2h2.5l1.5,6.5L67.4,77.1z"/>
	<path class="st1" d="M75.4,79.4c0.4,0.2,0.8,0.5,1.1,0.9c0.2,0.4,0.4,0.8,0.5,1.3c0,0.3,0.1,0.7,0.1,1.2h-4.4c0,0.6,0.2,1,0.6,1.3
		c0.2,0.2,0.5,0.2,0.9,0.2c0.4,0,0.7-0.1,0.9-0.3c0.1-0.1,0.2-0.2,0.3-0.4h1.6c0,0.4-0.2,0.7-0.6,1.1c-0.5,0.6-1.3,0.9-2.3,0.9
		c-0.8,0-1.5-0.2-2.1-0.8c-0.6-0.5-0.9-1.3-0.9-2.4c0-1.1,0.3-1.9,0.8-2.4c0.6-0.6,1.3-0.8,2.2-0.8C74.5,79.1,74.9,79.2,75.4,79.4z
		 M73,80.8c-0.2,0.2-0.4,0.5-0.4,0.9h2.7c0-0.4-0.2-0.7-0.4-1s-0.6-0.3-0.9-0.3C73.5,80.4,73.2,80.6,73,80.8z"/>
	<path class="st1" d="M77.2,85.4l2.1-3.1l-2-3h2l1,1.8l1-1.8h1.9l-2,3l2.1,3.1h-2l-1-1.8l-1.1,1.8H77.2z"/>
	<path class="st1" d="M85.8,78.6h-1.6v-1.5h1.6V78.6z M84.2,79.3h1.6v6.1h-1.6V79.3z"/>
	<path class="st1" d="M91,81.5c0-0.2-0.1-0.4-0.2-0.6c-0.2-0.2-0.5-0.4-0.8-0.4c-0.5,0-0.9,0.3-1.1,0.8c-0.1,0.3-0.2,0.7-0.2,1.1
		c0,0.4,0.1,0.8,0.2,1.1c0.2,0.5,0.5,0.8,1.1,0.8c0.4,0,0.6-0.1,0.8-0.3c0.2-0.2,0.3-0.5,0.3-0.8h1.6c0,0.5-0.2,0.9-0.5,1.4
		c-0.5,0.7-1.2,1-2.2,1s-1.7-0.3-2.2-0.9S87,83.4,87,82.5c0-1,0.3-1.9,0.8-2.4s1.2-0.9,2.1-0.9c0.8,0,1.4,0.2,1.9,0.5
		c0.5,0.3,0.8,0.9,0.9,1.8H91z"/>
	<path class="st1" d="M96.1,81.7c0.3,0,0.5-0.1,0.6-0.1c0.2-0.1,0.3-0.2,0.3-0.5c0-0.2-0.1-0.4-0.3-0.5c-0.2-0.1-0.4-0.1-0.8-0.1
		c-0.4,0-0.7,0.1-0.8,0.3C95.1,80.8,95,81,95,81.3h-1.5c0-0.5,0.2-1,0.4-1.3c0.4-0.5,1.1-0.8,2.2-0.8c0.7,0,1.3,0.1,1.8,0.4
		s0.8,0.8,0.8,1.5v2.8c0,0.2,0,0.4,0,0.7c0,0.2,0,0.4,0.1,0.4s0.1,0.1,0.2,0.2v0.2h-1.7c0-0.1-0.1-0.2-0.1-0.3c0-0.1,0-0.2,0-0.4
		c-0.2,0.2-0.5,0.4-0.8,0.6c-0.3,0.2-0.7,0.3-1.2,0.3c-0.6,0-1-0.2-1.4-0.5c-0.4-0.3-0.5-0.8-0.5-1.3c0-0.7,0.3-1.3,0.9-1.6
		c0.3-0.2,0.8-0.3,1.4-0.4L96.1,81.7z M97.1,82.4c-0.1,0.1-0.2,0.1-0.3,0.2c-0.1,0-0.2,0.1-0.4,0.1L96,82.8
		c-0.3,0.1-0.6,0.1-0.7,0.2c-0.3,0.1-0.4,0.4-0.4,0.7c0,0.3,0.1,0.5,0.2,0.6s0.3,0.2,0.6,0.2c0.3,0,0.7-0.1,1-0.3s0.4-0.6,0.5-1.1
		V82.4z"/>
	<path class="st1" d="M105,79.6c0.4,0.3,0.6,0.9,0.6,1.6v4.1h-1.6v-3.7c0-0.3,0-0.6-0.1-0.7c-0.2-0.3-0.5-0.5-0.9-0.5
		c-0.5,0-0.9,0.2-1.1,0.7c-0.1,0.2-0.2,0.6-0.2,0.9v3.3h-1.6v-6.1h1.5v0.9c0.2-0.3,0.4-0.5,0.6-0.7c0.3-0.2,0.7-0.4,1.2-0.4
		C104.1,79.2,104.6,79.3,105,79.6z"/>
</g>
<g>
	<path class="st6" d="M112.7,81.7c0.3,0,0.5-0.1,0.6-0.1c0.2-0.1,0.3-0.2,0.3-0.5c0-0.2-0.1-0.4-0.3-0.5c-0.2-0.1-0.4-0.1-0.8-0.1
		c-0.4,0-0.7,0.1-0.8,0.3c-0.1,0.1-0.2,0.3-0.2,0.6H110c0-0.5,0.2-1,0.4-1.3c0.4-0.5,1.2-0.8,2.2-0.8c0.7,0,1.3,0.1,1.8,0.4
		s0.8,0.8,0.8,1.5v2.8c0,0.2,0,0.4,0,0.7c0,0.2,0,0.4,0.1,0.4c0.1,0.1,0.1,0.1,0.2,0.2v0.2h-1.7c0-0.1-0.1-0.2-0.1-0.3
		c0-0.1,0-0.2,0-0.4c-0.2,0.2-0.5,0.4-0.8,0.6c-0.3,0.2-0.7,0.3-1.2,0.3c-0.6,0-1-0.2-1.4-0.5c-0.4-0.3-0.5-0.8-0.5-1.3
		c0-0.7,0.3-1.3,0.9-1.6c0.3-0.2,0.8-0.3,1.4-0.4L112.7,81.7z M113.6,82.4c-0.1,0.1-0.2,0.1-0.3,0.2c-0.1,0-0.2,0.1-0.4,0.1
		l-0.4,0.1c-0.3,0.1-0.6,0.1-0.7,0.2c-0.3,0.1-0.4,0.4-0.4,0.7c0,0.3,0.1,0.5,0.2,0.6s0.3,0.2,0.6,0.2c0.3,0,0.7-0.1,1-0.3
		c0.3-0.2,0.4-0.6,0.5-1.1V82.4z"/>
	<path class="st6" d="M117.8,83.4c0,0.3,0.1,0.5,0.2,0.6c0.2,0.2,0.6,0.3,1.1,0.3c0.3,0,0.6,0,0.8-0.1s0.3-0.2,0.3-0.4
		c0-0.2-0.1-0.3-0.2-0.4c-0.1-0.1-0.7-0.3-1.7-0.5c-0.7-0.2-1.2-0.4-1.5-0.6c-0.3-0.3-0.4-0.6-0.4-1.1c0-0.6,0.2-1,0.7-1.5
		c0.4-0.4,1.1-0.6,1.9-0.6c0.8,0,1.4,0.2,1.9,0.5c0.5,0.3,0.8,0.8,0.8,1.6H120c0-0.2-0.1-0.4-0.2-0.5c-0.2-0.2-0.5-0.3-0.9-0.3
		c-0.3,0-0.6,0.1-0.7,0.2c-0.1,0.1-0.2,0.2-0.2,0.4c0,0.2,0.1,0.3,0.2,0.4c0.2,0.1,0.7,0.2,1.7,0.4c0.6,0.1,1.1,0.4,1.4,0.7
		c0.3,0.3,0.5,0.7,0.5,1.1c0,0.6-0.2,1.1-0.7,1.5c-0.5,0.4-1.1,0.6-2.1,0.6c-1,0-1.7-0.2-2.1-0.6c-0.5-0.4-0.7-0.9-0.7-1.5H117.8z"
		/>
	<path class="st6" d="M124.2,83.4c0,0.3,0.1,0.5,0.2,0.6c0.2,0.2,0.6,0.3,1.1,0.3c0.3,0,0.6,0,0.8-0.1s0.3-0.2,0.3-0.4
		c0-0.2-0.1-0.3-0.2-0.4c-0.1-0.1-0.7-0.3-1.7-0.5c-0.7-0.2-1.2-0.4-1.5-0.6c-0.3-0.3-0.4-0.6-0.4-1.1c0-0.6,0.2-1,0.7-1.5
		c0.4-0.4,1.1-0.6,1.9-0.6c0.8,0,1.4,0.2,1.9,0.5c0.5,0.3,0.8,0.8,0.8,1.6h-1.6c0-0.2-0.1-0.4-0.2-0.5c-0.2-0.2-0.5-0.3-0.9-0.3
		c-0.3,0-0.6,0.1-0.7,0.2c-0.1,0.1-0.2,0.2-0.2,0.4c0,0.2,0.1,0.3,0.2,0.4c0.2,0.1,0.7,0.2,1.7,0.4c0.6,0.1,1.1,0.4,1.4,0.7
		c0.3,0.3,0.5,0.7,0.5,1.1c0,0.6-0.2,1.1-0.7,1.5c-0.5,0.4-1.1,0.6-2.1,0.6c-1,0-1.7-0.2-2.1-0.6c-0.5-0.4-0.7-0.9-0.7-1.5H124.2z"
		/>
	<path class="st6" d="M134.4,84.6c-0.5,0.6-1.3,1-2.3,1s-1.8-0.3-2.3-1c-0.5-0.6-0.8-1.4-0.8-2.3c0-0.9,0.3-1.6,0.8-2.3s1.3-1,2.3-1
		s1.8,0.3,2.3,1c0.5,0.6,0.8,1.4,0.8,2.3C135.2,83.2,134.9,84,134.4,84.6z M133.2,83.8c0.2-0.3,0.4-0.8,0.4-1.4
		c0-0.6-0.1-1.1-0.4-1.4c-0.2-0.3-0.6-0.5-1.1-0.5s-0.8,0.2-1.1,0.5c-0.3,0.3-0.4,0.8-0.4,1.4c0,0.6,0.1,1.1,0.4,1.4
		c0.3,0.3,0.6,0.5,1.1,0.5S132.9,84.1,133.2,83.8z"/>
	<path class="st6" d="M140,81.5c0-0.2-0.1-0.4-0.2-0.6c-0.2-0.2-0.5-0.4-0.8-0.4c-0.5,0-0.9,0.3-1.1,0.8c-0.1,0.3-0.2,0.7-0.2,1.1
		c0,0.4,0.1,0.8,0.2,1.1c0.2,0.5,0.5,0.8,1.1,0.8c0.4,0,0.6-0.1,0.8-0.3c0.2-0.2,0.3-0.5,0.3-0.8h1.6c0,0.5-0.2,0.9-0.5,1.4
		c-0.5,0.7-1.2,1-2.2,1s-1.7-0.3-2.2-0.9c-0.5-0.6-0.7-1.3-0.7-2.3c0-1,0.3-1.9,0.8-2.4c0.5-0.6,1.2-0.9,2.1-0.9
		c0.8,0,1.4,0.2,1.9,0.5c0.5,0.3,0.8,0.9,0.9,1.8H140z"/>
	<path class="st6" d="M144.4,78.6h-1.6v-1.5h1.6V78.6z M142.7,79.3h1.6v6.1h-1.6V79.3z"/>
	<path class="st6" d="M148.3,81.7c0.3,0,0.5-0.1,0.6-0.1c0.2-0.1,0.3-0.2,0.3-0.5c0-0.2-0.1-0.4-0.3-0.5c-0.2-0.1-0.4-0.1-0.8-0.1
		c-0.4,0-0.7,0.1-0.8,0.3c-0.1,0.1-0.2,0.3-0.2,0.6h-1.5c0-0.5,0.2-1,0.4-1.3c0.4-0.5,1.2-0.8,2.2-0.8c0.7,0,1.3,0.1,1.8,0.4
		s0.8,0.8,0.8,1.5v2.8c0,0.2,0,0.4,0,0.7c0,0.2,0,0.4,0.1,0.4c0.1,0.1,0.1,0.1,0.2,0.2v0.2h-1.7c0-0.1-0.1-0.2-0.1-0.3
		c0-0.1,0-0.2,0-0.4c-0.2,0.2-0.5,0.4-0.8,0.6c-0.3,0.2-0.7,0.3-1.2,0.3c-0.6,0-1-0.2-1.4-0.5c-0.4-0.3-0.5-0.8-0.5-1.3
		c0-0.7,0.3-1.3,0.9-1.6c0.3-0.2,0.8-0.3,1.4-0.4L148.3,81.7z M149.3,82.4c-0.1,0.1-0.2,0.1-0.3,0.2c-0.1,0-0.2,0.1-0.4,0.1
		l-0.4,0.1c-0.3,0.1-0.6,0.1-0.7,0.2c-0.3,0.1-0.4,0.4-0.4,0.7c0,0.3,0.1,0.5,0.2,0.6s0.3,0.2,0.6,0.2c0.3,0,0.7-0.1,1-0.3
		c0.3-0.2,0.4-0.6,0.5-1.1V82.4z"/>
	<path class="st6" d="M151.6,80.5v-1.1h0.9v-1.7h1.6v1.7h1v1.1h-1v3.2c0,0.2,0,0.4,0.1,0.5s0.3,0.1,0.6,0.1c0,0,0.1,0,0.2,0
		c0.1,0,0.1,0,0.2,0v1.2l-0.8,0c-0.8,0-1.3-0.1-1.5-0.4c-0.2-0.2-0.3-0.5-0.3-0.8v-3.8H151.6z"/>
	<path class="st6" d="M157.7,78.6h-1.6v-1.5h1.6V78.6z M156.1,79.3h1.6v6.1h-1.6V79.3z"/>
	<path class="st6" d="M164.3,84.6c-0.5,0.6-1.3,1-2.3,1s-1.8-0.3-2.3-1c-0.5-0.6-0.8-1.4-0.8-2.3c0-0.9,0.3-1.6,0.8-2.3s1.3-1,2.3-1
		s1.8,0.3,2.3,1c0.5,0.6,0.8,1.4,0.8,2.3C165.1,83.2,164.9,84,164.3,84.6z M163.1,83.8c0.2-0.3,0.4-0.8,0.4-1.4
		c0-0.6-0.1-1.1-0.4-1.4c-0.2-0.3-0.6-0.5-1.1-0.5s-0.8,0.2-1.1,0.5c-0.3,0.3-0.4,0.8-0.4,1.4c0,0.6,0.1,1.1,0.4,1.4
		c0.3,0.3,0.6,0.5,1.1,0.5S162.8,84.1,163.1,83.8z"/>
	<path class="st6" d="M171.2,79.6c0.4,0.3,0.6,0.9,0.6,1.6v4.1h-1.6v-3.7c0-0.3,0-0.6-0.1-0.7c-0.2-0.3-0.5-0.5-0.9-0.5
		c-0.5,0-0.9,0.2-1.1,0.7c-0.1,0.2-0.2,0.6-0.2,0.9v3.3h-1.6v-6.1h1.5v0.9c0.2-0.3,0.4-0.5,0.6-0.7c0.3-0.2,0.7-0.4,1.2-0.4
		C170.3,79.2,170.8,79.3,171.2,79.6z"/>
	<path class="st6" d="M174.5,83.4c0,0.3,0.1,0.5,0.2,0.6c0.2,0.2,0.6,0.3,1.1,0.3c0.3,0,0.6,0,0.8-0.1s0.3-0.2,0.3-0.4
		c0-0.2-0.1-0.3-0.2-0.4c-0.1-0.1-0.7-0.3-1.7-0.5c-0.7-0.2-1.2-0.4-1.5-0.6c-0.3-0.3-0.4-0.6-0.4-1.1c0-0.6,0.2-1,0.7-1.5
		c0.4-0.4,1.1-0.6,1.9-0.6c0.8,0,1.4,0.2,1.9,0.5c0.5,0.3,0.8,0.8,0.8,1.6h-1.6c0-0.2-0.1-0.4-0.2-0.5c-0.2-0.2-0.5-0.3-0.9-0.3
		c-0.3,0-0.6,0.1-0.7,0.2c-0.1,0.1-0.2,0.2-0.2,0.4c0,0.2,0.1,0.3,0.2,0.4c0.2,0.1,0.7,0.2,1.7,0.4c0.6,0.1,1.1,0.4,1.4,0.7
		c0.3,0.3,0.5,0.7,0.5,1.1c0,0.6-0.2,1.1-0.7,1.5c-0.5,0.4-1.1,0.6-2.1,0.6c-1,0-1.7-0.2-2.1-0.6c-0.5-0.4-0.7-0.9-0.7-1.5H174.5z"
		/>
</g>
<g>
	<path class="st6" d="M77.6,96.6c0.3,0,0.5-0.1,0.6-0.1c0.2-0.1,0.3-0.2,0.3-0.5c0-0.2-0.1-0.4-0.3-0.5c-0.2-0.1-0.4-0.1-0.8-0.1
		c-0.4,0-0.7,0.1-0.8,0.3c-0.1,0.1-0.2,0.3-0.2,0.6H75c0-0.5,0.2-1,0.4-1.3c0.4-0.5,1.1-0.8,2.2-0.8c0.7,0,1.3,0.1,1.8,0.4
		s0.8,0.8,0.8,1.5v2.8c0,0.2,0,0.4,0,0.7c0,0.2,0,0.4,0.1,0.4s0.1,0.1,0.2,0.2v0.2h-1.7c0-0.1-0.1-0.2-0.1-0.3c0-0.1,0-0.2,0-0.4
		c-0.2,0.2-0.5,0.4-0.8,0.6c-0.3,0.2-0.7,0.3-1.2,0.3c-0.6,0-1-0.2-1.4-0.5c-0.4-0.3-0.5-0.8-0.5-1.3c0-0.7,0.3-1.3,0.9-1.6
		c0.3-0.2,0.8-0.3,1.4-0.4L77.6,96.6z M78.6,97.3c-0.1,0.1-0.2,0.1-0.3,0.2c-0.1,0-0.2,0.1-0.4,0.1l-0.4,0.1
		c-0.3,0.1-0.6,0.1-0.7,0.2c-0.3,0.1-0.4,0.4-0.4,0.7c0,0.3,0.1,0.5,0.2,0.6s0.3,0.2,0.6,0.2c0.3,0,0.7-0.1,1-0.3s0.4-0.6,0.5-1.1
		V97.3z"/>
	<path class="st6" d="M85.3,96.4c0-0.2-0.1-0.4-0.2-0.6c-0.2-0.2-0.5-0.4-0.8-0.4c-0.5,0-0.9,0.3-1.1,0.8c-0.1,0.3-0.2,0.7-0.2,1.1
		c0,0.4,0.1,0.8,0.2,1.1c0.2,0.5,0.5,0.8,1.1,0.8c0.4,0,0.6-0.1,0.8-0.3c0.2-0.2,0.3-0.5,0.3-0.8h1.6c0,0.5-0.2,0.9-0.5,1.4
		c-0.5,0.7-1.2,1-2.2,1s-1.7-0.3-2.2-0.9s-0.7-1.3-0.7-2.3c0-1,0.3-1.9,0.8-2.4s1.2-0.9,2.1-0.9c0.8,0,1.4,0.2,1.9,0.5
		c0.5,0.3,0.8,0.9,0.9,1.8H85.3z"/>
	<path class="st6" d="M87.3,95.4v-1.1h0.9v-1.7h1.6v1.7h1v1.1h-1v3.2c0,0.2,0,0.4,0.1,0.5s0.3,0.1,0.6,0.1c0,0,0.1,0,0.2,0
		c0.1,0,0.1,0,0.2,0v1.2l-0.8,0c-0.8,0-1.3-0.1-1.5-0.4c-0.2-0.2-0.3-0.5-0.3-0.8v-3.8H87.3z"/>
	<path class="st6" d="M93.4,93.5h-1.6V92h1.6V93.5z M91.8,94.2h1.6v6.1h-1.6V94.2z"/>
	<path class="st6" d="M98.7,94.2h1.7l-2.2,6.1h-1.7l-2.2-6.1h1.8l1.3,4.5L98.7,94.2z"/>
	<path class="st6" d="M105.3,94.3c0.4,0.2,0.8,0.5,1.1,0.9c0.2,0.4,0.4,0.8,0.5,1.3c0,0.3,0.1,0.7,0.1,1.2h-4.4c0,0.6,0.2,1,0.6,1.3
		c0.2,0.2,0.5,0.2,0.9,0.2c0.4,0,0.7-0.1,0.9-0.3c0.1-0.1,0.2-0.2,0.3-0.4h1.6c0,0.4-0.2,0.7-0.6,1.1c-0.5,0.6-1.3,0.9-2.3,0.9
		c-0.8,0-1.5-0.2-2.1-0.8c-0.6-0.5-0.9-1.3-0.9-2.4c0-1.1,0.3-1.9,0.8-2.4c0.6-0.6,1.3-0.8,2.2-0.8C104.4,94,104.9,94.1,105.3,94.3z
		 M102.9,95.7c-0.2,0.2-0.4,0.5-0.4,0.9h2.7c0-0.4-0.2-0.7-0.4-1s-0.6-0.3-0.9-0.3C103.5,95.3,103.2,95.5,102.9,95.7z"/>
	<path class="st6" d="M112.5,93.5h-1.6V92h1.6V93.5z M110.9,94.2h1.6v6.1h-1.6V94.2z"/>
	<path class="st6" d="M119,94.5c0.4,0.3,0.6,0.9,0.6,1.6v4.1H118v-3.7c0-0.3,0-0.6-0.1-0.7c-0.2-0.3-0.5-0.5-0.9-0.5
		c-0.5,0-0.9,0.2-1.1,0.7c-0.1,0.2-0.2,0.6-0.2,0.9v3.3h-1.6v-6.1h1.5v0.9c0.2-0.3,0.4-0.5,0.6-0.7c0.3-0.2,0.7-0.4,1.2-0.4
		C118.1,94,118.6,94.2,119,94.5z"/>
	<path class="st6" d="M131.9,94.2c0.3,0.1,0.5,0.3,0.7,0.5c0.2,0.2,0.3,0.5,0.3,0.8c0,0.2,0.1,0.5,0.1,0.9l0,3.8h-1.6v-3.9
		c0-0.2,0-0.4-0.1-0.6c-0.1-0.3-0.4-0.4-0.8-0.4c-0.4,0-0.7,0.2-0.9,0.5c-0.1,0.2-0.1,0.4-0.1,0.7v3.6h-1.6v-3.6
		c0-0.4,0-0.6-0.1-0.8c-0.1-0.3-0.4-0.4-0.8-0.4c-0.5,0-0.8,0.1-0.9,0.4c-0.1,0.2-0.1,0.4-0.1,0.7v3.7h-1.6v-6.1h1.5v0.9
		c0.2-0.3,0.4-0.5,0.6-0.7c0.3-0.2,0.7-0.4,1.2-0.4c0.5,0,0.8,0.1,1.1,0.3c0.2,0.2,0.4,0.4,0.5,0.7c0.2-0.4,0.5-0.6,0.8-0.8
		c0.3-0.2,0.7-0.3,1.1-0.3C131.3,94.1,131.6,94.1,131.9,94.2z"/>
	<path class="st6" d="M139.5,99.5c-0.5,0.6-1.3,1-2.3,1s-1.8-0.3-2.3-1c-0.5-0.6-0.8-1.4-0.8-2.3c0-0.9,0.3-1.6,0.8-2.3s1.3-1,2.3-1
		s1.8,0.3,2.3,1c0.5,0.6,0.8,1.4,0.8,2.3C140.3,98.1,140,98.9,139.5,99.5z M138.2,98.7c0.2-0.3,0.4-0.8,0.4-1.4
		c0-0.6-0.1-1.1-0.4-1.4c-0.2-0.3-0.6-0.5-1.1-0.5s-0.8,0.2-1.1,0.5c-0.3,0.3-0.4,0.8-0.4,1.4c0,0.6,0.1,1.1,0.4,1.4
		c0.3,0.3,0.6,0.5,1.1,0.5S138,99,138.2,98.7z"/>
	<path class="st6" d="M144.8,94c0,0,0.1,0,0.1,0v1.6c-0.1,0-0.2,0-0.3,0c-0.1,0-0.1,0-0.2,0c-0.6,0-1.1,0.2-1.3,0.6
		c-0.1,0.2-0.2,0.6-0.2,1.1v2.9h-1.6v-6.1h1.5v1.1c0.2-0.4,0.5-0.7,0.6-0.8C143.9,94.2,144.3,94,144.8,94
		C144.8,94,144.8,94,144.8,94z"/>
	<path class="st6" d="M149.9,94.3c0.4,0.2,0.8,0.5,1.1,0.9c0.2,0.4,0.4,0.8,0.5,1.3c0,0.3,0.1,0.7,0.1,1.2H147c0,0.6,0.2,1,0.6,1.3
		c0.2,0.2,0.5,0.2,0.9,0.2c0.4,0,0.7-0.1,0.9-0.3c0.1-0.1,0.2-0.2,0.3-0.4h1.6c0,0.4-0.2,0.7-0.6,1.1c-0.5,0.6-1.3,0.9-2.3,0.9
		c-0.8,0-1.5-0.2-2.1-0.8s-0.9-1.3-0.9-2.4c0-1.1,0.3-1.9,0.8-2.4s1.3-0.8,2.2-0.8C149,94,149.4,94.1,149.9,94.3z M147.5,95.7
		c-0.2,0.2-0.4,0.5-0.4,0.9h2.7c0-0.4-0.2-0.7-0.4-1s-0.6-0.3-0.9-0.3C148,95.3,147.7,95.5,147.5,95.7z"/>
	<path class="st6" d="M154.8,95.4v-1.1h0.9v-1.7h1.6v1.7h1v1.1h-1v3.2c0,0.2,0,0.4,0.1,0.5s0.3,0.1,0.6,0.1c0,0,0.1,0,0.2,0
		c0.1,0,0.1,0,0.2,0v1.2l-0.8,0c-0.8,0-1.3-0.1-1.5-0.4c-0.2-0.2-0.3-0.5-0.3-0.8v-3.8H154.8z"/>
	<path class="st6" d="M163.6,94.2c0.3,0.1,0.6,0.3,0.8,0.6c0.2,0.2,0.3,0.5,0.3,0.7s0.1,0.6,0.1,1.2v3.6h-1.6v-3.7
		c0-0.3-0.1-0.6-0.2-0.8c-0.1-0.3-0.4-0.4-0.8-0.4c-0.4,0-0.7,0.1-1,0.4c-0.2,0.3-0.3,0.7-0.3,1.2v3.3h-1.6v-8.2h1.6V95
		c0.2-0.4,0.5-0.6,0.8-0.7c0.3-0.1,0.6-0.2,1-0.2C163,94,163.3,94.1,163.6,94.2z"/>
	<path class="st6" d="M168.7,96.6c0.3,0,0.5-0.1,0.6-0.1c0.2-0.1,0.3-0.2,0.3-0.5c0-0.2-0.1-0.4-0.3-0.5c-0.2-0.1-0.4-0.1-0.8-0.1
		c-0.4,0-0.7,0.1-0.8,0.3c-0.1,0.1-0.2,0.3-0.2,0.6H166c0-0.5,0.2-1,0.4-1.3c0.4-0.5,1.2-0.8,2.2-0.8c0.7,0,1.3,0.1,1.8,0.4
		s0.8,0.8,0.8,1.5v2.8c0,0.2,0,0.4,0,0.7c0,0.2,0,0.4,0.1,0.4c0.1,0.1,0.1,0.1,0.2,0.2v0.2h-1.7c0-0.1-0.1-0.2-0.1-0.3
		c0-0.1,0-0.2,0-0.4c-0.2,0.2-0.5,0.4-0.8,0.6c-0.3,0.2-0.7,0.3-1.2,0.3c-0.6,0-1-0.2-1.4-0.5c-0.4-0.3-0.5-0.8-0.5-1.3
		c0-0.7,0.3-1.3,0.9-1.6c0.3-0.2,0.8-0.3,1.4-0.4L168.7,96.6z M169.6,97.3c-0.1,0.1-0.2,0.1-0.3,0.2c-0.1,0-0.2,0.1-0.4,0.1
		l-0.4,0.1c-0.3,0.1-0.6,0.1-0.7,0.2c-0.3,0.1-0.4,0.4-0.4,0.7c0,0.3,0.1,0.5,0.2,0.6s0.3,0.2,0.6,0.2c0.3,0,0.7-0.1,1-0.3
		c0.3-0.2,0.4-0.6,0.5-1.1V97.3z"/>
	<path class="st6" d="M177.5,94.5c0.4,0.3,0.6,0.9,0.6,1.6v4.1h-1.6v-3.7c0-0.3,0-0.6-0.1-0.7c-0.2-0.3-0.5-0.5-0.9-0.5
		c-0.5,0-0.9,0.2-1.1,0.7c-0.1,0.2-0.2,0.6-0.2,0.9v3.3h-1.6v-6.1h1.5v0.9c0.2-0.3,0.4-0.5,0.6-0.7c0.3-0.2,0.7-0.4,1.2-0.4
		C176.6,94,177.1,94.2,177.5,94.5z"/>
</g>
<g>
	<path class="st1" d="M78.9,113c0.1,0.3,0.2,0.6,0.4,0.8s0.4,0.3,0.8,0.3c0.4,0,0.7-0.1,0.9-0.4c0.2-0.3,0.3-0.6,0.3-1
		c0-0.4-0.1-0.8-0.3-1s-0.5-0.4-0.9-0.4c-0.2,0-0.4,0-0.5,0.1c-0.2,0.1-0.4,0.3-0.6,0.5l-1.4-0.1l0.6-4.5h4.5v1.4h-3.3l-0.3,1.8
		c0.2-0.2,0.4-0.3,0.6-0.3c0.2-0.1,0.5-0.1,0.8-0.1c0.7,0,1.3,0.2,1.8,0.7c0.5,0.5,0.7,1.1,0.7,2c0,0.7-0.2,1.4-0.7,2
		s-1.2,0.9-2.2,0.9c-0.8,0-1.4-0.2-1.9-0.6c-0.5-0.4-0.8-1-0.8-1.8H78.9z"/>
	<path class="st1" d="M84.5,107.8c0.5-0.5,1.2-0.8,2-0.8c1.2,0,2.1,0.5,2.5,1.6c0.3,0.6,0.4,1.4,0.4,2.4c0,1-0.1,1.8-0.4,2.5
		c-0.5,1.2-1.4,1.9-2.6,1.9c-0.6,0-1.2-0.2-1.6-0.5c-0.5-0.4-0.8-0.9-0.8-1.6h1.6c0,0.2,0.1,0.4,0.3,0.6c0.2,0.1,0.4,0.2,0.7,0.2
		c0.5,0,0.9-0.3,1.1-0.9c0.1-0.3,0.2-0.8,0.2-1.4c-0.1,0.2-0.3,0.3-0.5,0.4c-0.3,0.2-0.7,0.3-1.1,0.3c-0.6,0-1.2-0.2-1.7-0.7
		c-0.5-0.4-0.7-1.1-0.7-1.9C83.7,109,84,108.3,84.5,107.8z M87.2,111c0.4-0.2,0.5-0.6,0.5-1.2c0-0.5-0.1-0.8-0.3-1.1
		c-0.2-0.3-0.5-0.4-0.9-0.4c-0.3,0-0.5,0.1-0.7,0.2c-0.3,0.2-0.5,0.6-0.5,1.2c0,0.5,0.1,0.8,0.3,1.1s0.5,0.4,0.9,0.4
		C86.8,111.2,87,111.1,87.2,111z"/>
	<path class="st1" d="M95.1,108.1c0.4,0.7,0.6,1.8,0.6,3.1c0,1.3-0.2,2.4-0.6,3.1c-0.4,0.7-1.1,1.1-2.2,1.1s-1.8-0.4-2.2-1.1
		c-0.4-0.7-0.6-1.8-0.6-3.1c0-1.3,0.2-2.4,0.6-3.1c0.4-0.7,1.1-1.1,2.2-1.1S94.7,107.4,95.1,108.1z M92,113.3
		c0.2,0.5,0.5,0.7,0.9,0.7s0.8-0.2,0.9-0.7s0.2-1.2,0.2-2.1c0-1-0.1-1.7-0.2-2.2s-0.5-0.7-0.9-0.7s-0.8,0.2-0.9,0.7
		s-0.2,1.2-0.2,2.2C91.7,112.1,91.8,112.8,92,113.3z"/>
	<path class="st1" d="M107.7,109.1c0.3,0.1,0.5,0.3,0.7,0.5c0.2,0.2,0.3,0.5,0.3,0.8c0,0.2,0.1,0.5,0.1,0.9l0,3.8h-1.6v-3.9
		c0-0.2,0-0.4-0.1-0.6c-0.1-0.3-0.4-0.4-0.8-0.4c-0.4,0-0.7,0.2-0.9,0.5c-0.1,0.2-0.1,0.4-0.1,0.7v3.6h-1.6v-3.6
		c0-0.4,0-0.6-0.1-0.8c-0.1-0.3-0.4-0.4-0.8-0.4c-0.5,0-0.8,0.1-0.9,0.4c-0.1,0.2-0.1,0.4-0.1,0.7v3.7H100v-6.1h1.5v0.9
		c0.2-0.3,0.4-0.5,0.6-0.7c0.3-0.2,0.7-0.4,1.2-0.4c0.5,0,0.8,0.1,1.1,0.3c0.2,0.2,0.4,0.4,0.5,0.7c0.2-0.4,0.5-0.6,0.8-0.8
		c0.3-0.2,0.7-0.3,1.1-0.3C107.1,108.9,107.4,109,107.7,109.1z"/>
	<path class="st1" d="M111.8,109.1v3.7c0,0.3,0,0.6,0.1,0.8c0.1,0.3,0.4,0.5,0.9,0.5c0.5,0,0.9-0.2,1.1-0.7c0.1-0.2,0.2-0.6,0.2-0.9
		v-3.3h1.6v6.1h-1.5v-0.9c0,0-0.1,0.1-0.1,0.2c-0.1,0.1-0.1,0.2-0.2,0.2c-0.2,0.2-0.5,0.4-0.7,0.5c-0.2,0.1-0.5,0.1-0.8,0.1
		c-0.9,0-1.5-0.3-1.8-1c-0.2-0.4-0.3-0.9-0.3-1.6v-3.7H111.8z"/>
	<path class="st1" d="M122.2,109.4c0.4,0.3,0.6,0.9,0.6,1.6v4.1h-1.6v-3.7c0-0.3,0-0.6-0.1-0.7c-0.2-0.3-0.5-0.5-0.9-0.5
		c-0.5,0-0.9,0.2-1.1,0.7c-0.1,0.2-0.2,0.6-0.2,0.9v3.3h-1.6v-6.1h1.5v0.9c0.2-0.3,0.4-0.5,0.6-0.7c0.3-0.2,0.7-0.4,1.2-0.4
		C121.2,108.9,121.8,109.1,122.2,109.4z"/>
	<path class="st1" d="M125.9,108.3h-1.6v-1.5h1.6V108.3z M124.3,109.1h1.6v6.1h-1.6V109.1z"/>
	<path class="st1" d="M131.1,111.3c0-0.2-0.1-0.4-0.2-0.6c-0.2-0.2-0.5-0.4-0.8-0.4c-0.5,0-0.9,0.3-1.1,0.8
		c-0.1,0.3-0.2,0.7-0.2,1.1c0,0.4,0.1,0.8,0.2,1.1c0.2,0.5,0.5,0.8,1.1,0.8c0.4,0,0.6-0.1,0.8-0.3c0.2-0.2,0.3-0.5,0.3-0.8h1.6
		c0,0.5-0.2,0.9-0.5,1.4c-0.5,0.7-1.2,1-2.2,1s-1.7-0.3-2.2-0.9c-0.5-0.6-0.7-1.3-0.7-2.3c0-1,0.3-1.9,0.8-2.4
		c0.5-0.6,1.2-0.9,2.1-0.9c0.8,0,1.4,0.2,1.9,0.5c0.5,0.3,0.8,0.9,0.9,1.8H131.1z"/>
	<path class="st1" d="M135.4,108.3h-1.6v-1.5h1.6V108.3z M133.8,109.1h1.6v6.1h-1.6V109.1z"/>
	<path class="st1" d="M142.1,109.7c0.5,0.5,0.7,1.3,0.7,2.3c0,1.1-0.2,1.9-0.7,2.5c-0.5,0.6-1.1,0.8-1.9,0.8c-0.5,0-0.9-0.1-1.2-0.4
		c-0.2-0.1-0.3-0.3-0.5-0.6v3.2h-1.6v-8.5h1.5v0.9c0.2-0.3,0.4-0.5,0.6-0.6c0.4-0.3,0.8-0.4,1.3-0.4
		C141,108.9,141.6,109.2,142.1,109.7z M140.9,110.9c-0.2-0.4-0.6-0.5-1.1-0.5c-0.6,0-1,0.3-1.2,0.8c-0.1,0.3-0.2,0.7-0.2,1.1
		c0,0.7,0.2,1.2,0.6,1.5c0.2,0.2,0.5,0.3,0.8,0.3c0.4,0,0.8-0.2,1-0.5c0.2-0.3,0.4-0.8,0.4-1.4C141.2,111.7,141.1,111.2,140.9,110.9
		z"/>
	<path class="st1" d="M146.4,111.5c0.3,0,0.5-0.1,0.6-0.1c0.2-0.1,0.3-0.2,0.3-0.5c0-0.2-0.1-0.4-0.3-0.5c-0.2-0.1-0.4-0.1-0.8-0.1
		c-0.4,0-0.7,0.1-0.8,0.3c-0.1,0.1-0.2,0.3-0.2,0.6h-1.5c0-0.5,0.2-1,0.4-1.3c0.4-0.5,1.2-0.8,2.2-0.8c0.7,0,1.3,0.1,1.8,0.4
		s0.8,0.8,0.8,1.5v2.8c0,0.2,0,0.4,0,0.7c0,0.2,0,0.4,0.1,0.4c0.1,0.1,0.1,0.1,0.2,0.2v0.2h-1.7c0-0.1-0.1-0.2-0.1-0.3
		c0-0.1,0-0.2,0-0.4c-0.2,0.2-0.5,0.4-0.8,0.6c-0.3,0.2-0.7,0.3-1.2,0.3c-0.6,0-1-0.2-1.4-0.5c-0.4-0.3-0.5-0.8-0.5-1.3
		c0-0.7,0.3-1.3,0.9-1.6c0.3-0.2,0.8-0.3,1.4-0.4L146.4,111.5z M147.4,112.2c-0.1,0.1-0.2,0.1-0.3,0.2c-0.1,0-0.2,0.1-0.4,0.1
		l-0.4,0.1c-0.3,0.1-0.6,0.1-0.7,0.2c-0.3,0.1-0.4,0.4-0.4,0.7c0,0.3,0.1,0.5,0.2,0.6s0.3,0.2,0.6,0.2c0.3,0,0.7-0.1,1-0.3
		c0.3-0.2,0.4-0.6,0.5-1.1V112.2z"/>
	<path class="st1" d="M152,115.2h-1.6v-8.2h1.6V115.2z"/>
	<path class="st1" d="M155.2,108.3h-1.6v-1.5h1.6V108.3z M153.5,109.1h1.6v6.1h-1.6V109.1z"/>
	<path class="st1" d="M156.1,110.3v-1.1h0.9v-1.7h1.6v1.7h1v1.1h-1v3.2c0,0.2,0,0.4,0.1,0.5s0.3,0.1,0.6,0.1c0,0,0.1,0,0.2,0
		c0.1,0,0.1,0,0.2,0v1.2l-0.8,0c-0.8,0-1.3-0.1-1.5-0.4c-0.2-0.2-0.3-0.5-0.3-0.8v-3.8H156.1z"/>
	<path class="st1" d="M162.2,108.3h-1.6v-1.5h1.6V108.3z M160.5,109.1h1.6v6.1h-1.6V109.1z"/>
	<path class="st1" d="M167.7,109.2c0.4,0.2,0.8,0.5,1.1,0.9c0.2,0.4,0.4,0.8,0.5,1.3c0,0.3,0.1,0.7,0.1,1.2h-4.4
		c0,0.6,0.2,1,0.6,1.3c0.2,0.2,0.5,0.2,0.9,0.2c0.4,0,0.7-0.1,0.9-0.3c0.1-0.1,0.2-0.2,0.3-0.4h1.6c0,0.4-0.2,0.7-0.6,1.1
		c-0.5,0.6-1.3,0.9-2.3,0.9c-0.8,0-1.5-0.2-2.1-0.8s-0.9-1.3-0.9-2.4c0-1.1,0.3-1.9,0.8-2.4s1.3-0.8,2.2-0.8
		C166.8,108.9,167.2,109,167.7,109.2z M165.3,110.6c-0.2,0.2-0.4,0.5-0.4,0.9h2.7c0-0.4-0.2-0.7-0.4-1s-0.6-0.3-0.9-0.3
		C165.8,110.2,165.5,110.3,165.3,110.6z"/>
	<path class="st1" d="M171.3,113.2c0,0.3,0.1,0.5,0.2,0.6c0.2,0.2,0.6,0.3,1.1,0.3c0.3,0,0.6,0,0.8-0.1c0.2-0.1,0.3-0.2,0.3-0.4
		c0-0.2-0.1-0.3-0.2-0.4c-0.1-0.1-0.7-0.3-1.7-0.5c-0.7-0.2-1.2-0.4-1.5-0.6c-0.3-0.3-0.4-0.6-0.4-1.1c0-0.6,0.2-1,0.7-1.5
		c0.4-0.4,1.1-0.6,1.9-0.6c0.8,0,1.4,0.2,1.9,0.5c0.5,0.3,0.8,0.8,0.8,1.6h-1.6c0-0.2-0.1-0.4-0.2-0.5c-0.2-0.2-0.5-0.3-0.9-0.3
		c-0.3,0-0.6,0.1-0.7,0.2c-0.1,0.1-0.2,0.2-0.2,0.4c0,0.2,0.1,0.3,0.2,0.4c0.2,0.1,0.7,0.2,1.7,0.4c0.6,0.1,1.1,0.4,1.4,0.7
		c0.3,0.3,0.5,0.7,0.5,1.1c0,0.6-0.2,1.1-0.7,1.5c-0.5,0.4-1.1,0.6-2.1,0.6c-1,0-1.7-0.2-2.1-0.6c-0.5-0.4-0.7-0.9-0.7-1.5H171.3z"
		/>
	<path class="st1" d="M176.4,113.5h1.7v1.7h-1.7V113.5z"/>
</g>
</svg>
