<?xml version="1.0" encoding="utf-8"?>
<!-- Generator: Adobe Illustrator 23.0.3, SVG Export Plug-In . SVG Version: 6.00 Build 0)  -->
<svg version="1.1" id="Layer_1" xmlns="http://www.w3.org/2000/svg" xmlns:xlink="http://www.w3.org/1999/xlink" x="0px" y="0px"
	 viewBox="0 0 106.2 124.5" style="enable-background:new 0 0 106.2 124.5;" xml:space="preserve">
<style type="text/css">
	.st0{fill:#5DB1B9;}
	.st1{fill:#FFFFFF;}
</style>
<title>consumidores</title>
<g>
	<circle class="st0" cx="25.4" cy="25.1" r="23.4"/>
	<g>
		<path class="st1" d="M25.6,21.9c0.5,0,1,0.1,1.4,0.3c0-0.7,0.3-1.4,0.7-1.9c-0.3-0.1-0.6-0.1-0.9-0.1h-2.8c-0.3,0-0.6,0-0.9,0.1
			c0.4,0.6,0.7,1.3,0.7,2.1C24.4,22,25,21.9,25.6,21.9L25.6,21.9z M25.6,21.9"/>
		<path class="st1" d="M28.7,16.7c0,1.8-1.5,3.3-3.3,3.3c-1.8,0-3.3-1.5-3.3-3.3c0-1.8,1.5-3.3,3.3-3.3
			C27.3,13.4,28.7,14.9,28.7,16.7L28.7,16.7z M28.7,16.7"/>
		<path class="st1" d="M30.6,25.5c1.7,0,3-1.3,3-3c0-1.7-1.3-3-3-3c-1.6,0-3,1.3-3,3c1,0.6,1.6,1.6,1.7,2.8
			C29.7,25.4,30.1,25.5,30.6,25.5L30.6,25.5z M30.6,25.5"/>
		<path class="st1" d="M20.3,19.5c-1.7,0-3,1.3-3,3c0,1.7,1.3,3,3,3c0.6,0,1.1-0.2,1.6-0.5c0.1-1,0.7-1.8,1.4-2.4c0-0.1,0-0.1,0-0.2
			C23.3,20.8,22,19.5,20.3,19.5L20.3,19.5z M20.3,19.5"/>
		<path class="st1" d="M32.6,19.4c0.9,0.6,1.6,1.6,1.7,2.8c0.4,0.2,0.8,0.3,1.3,0.3c1.7,0,3-1.3,3-3c0-1.7-1.3-3-3-3
			C33.9,16.5,32.6,17.8,32.6,19.4L32.6,19.4z M32.6,19.4"/>
		<path class="st1" d="M28.6,25.6c0,1.7-1.3,3-3,3c-1.7,0-3-1.3-3-3c0-1.7,1.3-3,3-3C27.3,22.6,28.6,24,28.6,25.6L28.6,25.6z
			 M28.6,25.6"/>
		<path class="st1" d="M31.9,25.7h-2.5c0,1-0.5,1.9-1.1,2.6c1.9,0.6,3.3,2.3,3.3,4.4v1c2.5-0.1,3.9-0.8,4-0.8l0.2-0.1h0v-3.1
			C35.7,27.5,34,25.7,31.9,25.7L31.9,25.7z M31.9,25.7"/>
		<path class="st1" d="M36.8,22.7h-2.5c0,1-0.5,1.9-1.1,2.6c1.9,0.6,3.3,2.3,3.3,4.4v1c2.5-0.1,3.9-0.8,4-0.8l0.2-0.1h0v-3.1
			C40.7,24.4,39,22.7,36.8,22.7L36.8,22.7z M36.8,22.7"/>
		<path class="st1" d="M23,28.3c-0.7-0.7-1.1-1.6-1.1-2.6c-0.1,0-0.2,0-0.3,0h-2.6c-2.1,0-3.9,1.7-3.9,3.9v3.1l0,0l0.2,0.1
			c1.6,0.5,3.1,0.7,4.3,0.8v-0.9C19.8,30.6,21.2,28.9,23,28.3L23,28.3z M23,28.3"/>
		<path class="st1" d="M26.9,28.8h-2.6c-2.1,0-3.9,1.7-3.9,3.9v3.1l0,0l0.2,0.1c2,0.6,3.8,0.8,5.2,0.8c2.8,0,4.5-0.8,4.6-0.9
			l0.2-0.1h0v-3.1C30.8,30.6,29,28.8,26.9,28.8L26.9,28.8z M26.9,28.8"/>
		<path class="st1" d="M15.3,22.6c0.5,0,0.9-0.1,1.3-0.3c0.1-1.2,0.8-2.2,1.7-2.8c0-1.6-1.4-3-3-3c-1.7,0-3,1.3-3,3
			C12.3,21.2,13.7,22.6,15.3,22.6L15.3,22.6z M15.3,22.6"/>
		<path class="st1" d="M17.7,25.4c-0.7-0.7-1.1-1.6-1.1-2.6h-2.5c-2.1,0-3.9,1.7-3.9,3.9v3.1h0l0.2,0.1c0.1,0,1.5,0.8,4,0.8v-1
			C14.5,27.7,15.8,25.9,17.7,25.4L17.7,25.4z M17.7,25.4"/>
		<path class="st1" d="M18.9,19.2c0.4-0.1,0.9-0.3,1.4-0.3c0.6,0,1.2,0.2,1.7,0.5c0.1-0.1,0.2-0.2,0.3-0.4c-0.5-0.7-0.8-1.5-0.8-2.3
			c0-0.6,0.1-1.1,0.4-1.6c-0.5-0.5-1.2-0.8-2-0.8c-1.4,0-2.5,0.9-2.9,2.2C18.1,17,18.7,18.1,18.9,19.2L18.9,19.2z M18.9,19.2"/>
		<path class="st1" d="M28.6,18.8c0.1,0.2,0.2,0.3,0.4,0.5c0.5-0.2,1-0.4,1.6-0.4c0.5,0,1.1,0.1,1.4,0.3c0.1-1.2,0.9-2.4,2-2.9
			c-0.4-1.2-1.5-2-2.8-2c-0.8,0-1.6,0.3-2.2,0.9c0.2,0.5,0.3,1,0.3,1.5C29.3,17.4,29,18.1,28.6,18.8L28.6,18.8z M28.6,18.8"/>
	</g>
</g>
<g>
	<path class="st0" d="M3.4,54.3c0.5-0.5,1.2-0.8,2.1-0.8c1.1,0,1.9,0.4,2.4,1.1c0.3,0.4,0.4,0.8,0.5,1.2H6.9
		c-0.1-0.3-0.2-0.6-0.3-0.7c-0.2-0.3-0.6-0.4-1.1-0.4c-0.5,0-0.9,0.2-1.2,0.6c-0.3,0.4-0.4,1-0.4,1.7s0.2,1.3,0.5,1.7
		C4.6,59,5,59.2,5.5,59.2c0.5,0,0.8-0.2,1.1-0.5c0.1-0.2,0.3-0.4,0.3-0.8h1.4c-0.1,0.7-0.4,1.3-0.9,1.8c-0.5,0.5-1.1,0.7-1.9,0.7
		c-1,0-1.7-0.3-2.2-0.9C2.7,58.9,2.4,58,2.4,57C2.4,55.8,2.7,54.9,3.4,54.3z"/>
	<path class="st0" d="M13.4,59.6c-0.4,0.5-1,0.8-1.9,0.8s-1.5-0.3-1.9-0.8C9.2,59.1,9,58.5,9,57.8c0-0.7,0.2-1.3,0.6-1.9
		c0.4-0.5,1-0.8,1.9-0.8s1.5,0.3,1.9,0.8c0.4,0.5,0.6,1.1,0.6,1.9C14.1,58.5,13.9,59.1,13.4,59.6z M12.4,58.9
		c0.2-0.3,0.3-0.6,0.3-1.1s-0.1-0.9-0.3-1.1c-0.2-0.3-0.5-0.4-0.9-0.4s-0.7,0.1-0.9,0.4c-0.2,0.3-0.3,0.6-0.3,1.1s0.1,0.9,0.3,1.1
		c0.2,0.3,0.5,0.4,0.9,0.4S12.2,59.2,12.4,58.9z"/>
	<path class="st0" d="M19,55.6c0.3,0.3,0.5,0.7,0.5,1.3v3.3h-1.3v-3c0-0.3,0-0.5-0.1-0.6c-0.1-0.3-0.4-0.4-0.7-0.4
		c-0.4,0-0.7,0.2-0.9,0.6c-0.1,0.2-0.1,0.4-0.1,0.8v2.7H15v-4.9h1.2V56c0.2-0.3,0.3-0.4,0.5-0.5c0.3-0.2,0.6-0.3,1-0.3
		C18.2,55.2,18.6,55.3,19,55.6z"/>
	<path class="st0" d="M21.7,58.7c0,0.2,0.1,0.4,0.2,0.5c0.2,0.2,0.5,0.3,0.9,0.3c0.3,0,0.5,0,0.6-0.1c0.1-0.1,0.2-0.2,0.2-0.3
		c0-0.1-0.1-0.3-0.2-0.3c-0.1-0.1-0.6-0.2-1.4-0.4c-0.6-0.1-1-0.3-1.2-0.5c-0.2-0.2-0.3-0.5-0.3-0.9c0-0.5,0.2-0.8,0.5-1.2
		s0.9-0.5,1.5-0.5c0.6,0,1.1,0.1,1.5,0.4c0.4,0.2,0.6,0.7,0.7,1.3h-1.3c0-0.2-0.1-0.3-0.1-0.4c-0.1-0.2-0.4-0.3-0.7-0.3
		c-0.3,0-0.5,0-0.6,0.1s-0.2,0.2-0.2,0.3c0,0.1,0.1,0.3,0.2,0.3c0.1,0.1,0.6,0.2,1.3,0.4c0.5,0.1,0.9,0.3,1.2,0.5
		c0.3,0.2,0.4,0.6,0.4,0.9c0,0.5-0.2,0.9-0.5,1.2s-0.9,0.5-1.7,0.5c-0.8,0-1.4-0.2-1.7-0.5s-0.6-0.7-0.6-1.3H21.7z"/>
	<path class="st0" d="M27.1,55.3v3c0,0.3,0,0.5,0.1,0.6c0.1,0.3,0.3,0.4,0.7,0.4c0.4,0,0.7-0.2,0.9-0.5c0.1-0.2,0.1-0.4,0.1-0.8
		v-2.7h1.3v4.9H29v-0.7c0,0,0,0.1-0.1,0.1c0,0.1-0.1,0.1-0.2,0.2c-0.2,0.2-0.4,0.3-0.6,0.4c-0.2,0.1-0.4,0.1-0.7,0.1
		c-0.7,0-1.2-0.3-1.5-0.8c-0.1-0.3-0.2-0.7-0.2-1.3v-3H27.1z"/>
	<path class="st0" d="M37.6,55.3c0.2,0.1,0.4,0.2,0.6,0.4c0.1,0.2,0.2,0.4,0.3,0.6c0,0.2,0,0.4,0,0.7l0,3.1h-1.3v-3.1
		c0-0.2,0-0.3-0.1-0.5c-0.1-0.2-0.3-0.3-0.6-0.3c-0.4,0-0.6,0.1-0.7,0.4c-0.1,0.2-0.1,0.3-0.1,0.6v2.9h-1.3v-2.9
		c0-0.3,0-0.5-0.1-0.6c-0.1-0.2-0.3-0.4-0.6-0.4c-0.4,0-0.6,0.1-0.7,0.4c-0.1,0.1-0.1,0.3-0.1,0.6v3h-1.3v-4.9h1.3V56
		c0.2-0.3,0.3-0.4,0.5-0.5c0.3-0.2,0.6-0.3,1-0.3c0.4,0,0.7,0.1,0.9,0.2c0.2,0.2,0.3,0.4,0.4,0.6c0.2-0.3,0.4-0.5,0.6-0.6
		c0.3-0.1,0.6-0.2,0.9-0.2C37.2,55.2,37.4,55.2,37.6,55.3z"/>
	<path class="st0" d="M43,55.4c0.3,0.2,0.6,0.4,0.9,0.7c0.2,0.3,0.3,0.6,0.4,1c0,0.2,0,0.6,0,1h-3.6c0,0.5,0.2,0.8,0.5,1
		c0.2,0.1,0.4,0.2,0.7,0.2c0.3,0,0.5-0.1,0.7-0.2c0.1-0.1,0.2-0.2,0.3-0.3h1.3c0,0.3-0.2,0.6-0.5,0.9c-0.4,0.5-1.1,0.7-1.9,0.7
		c-0.7,0-1.2-0.2-1.7-0.6s-0.8-1.1-0.8-2c0-0.9,0.2-1.5,0.7-2s1-0.7,1.8-0.7C42.2,55.2,42.6,55.2,43,55.4z M41,56.5
		c-0.2,0.2-0.3,0.4-0.3,0.8h2.2c0-0.3-0.1-0.6-0.3-0.8c-0.2-0.2-0.5-0.3-0.8-0.3C41.5,56.2,41.2,56.3,41,56.5z"/>
	<path class="st0" d="M47.6,55.2c0,0,0.1,0,0.1,0v1.3c-0.1,0-0.2,0-0.2,0s-0.1,0-0.2,0c-0.5,0-0.9,0.2-1,0.5
		c-0.1,0.2-0.1,0.5-0.1,0.9v2.4h-1.3v-4.9h1.2v0.9c0.2-0.3,0.4-0.6,0.5-0.7C46.9,55.3,47.2,55.2,47.6,55.2
		C47.6,55.2,47.6,55.2,47.6,55.2z"/>
	<path class="st0" d="M49.5,58.7c0,0.2,0.1,0.4,0.2,0.5c0.2,0.2,0.5,0.3,0.9,0.3c0.3,0,0.5,0,0.6-0.1c0.1-0.1,0.2-0.2,0.2-0.3
		c0-0.1-0.1-0.3-0.2-0.3c-0.1-0.1-0.6-0.2-1.4-0.4c-0.6-0.1-1-0.3-1.2-0.5c-0.2-0.2-0.3-0.5-0.3-0.9c0-0.5,0.2-0.8,0.5-1.2
		s0.9-0.5,1.5-0.5c0.6,0,1.1,0.1,1.5,0.4c0.4,0.2,0.6,0.7,0.7,1.3h-1.3c0-0.2-0.1-0.3-0.1-0.4c-0.1-0.2-0.4-0.3-0.7-0.3
		c-0.3,0-0.5,0-0.6,0.1s-0.2,0.2-0.2,0.3c0,0.1,0.1,0.3,0.2,0.3c0.1,0.1,0.6,0.2,1.3,0.4c0.5,0.1,0.9,0.3,1.2,0.5
		c0.3,0.2,0.4,0.6,0.4,0.9c0,0.5-0.2,0.9-0.5,1.2s-0.9,0.5-1.7,0.5c-0.8,0-1.4-0.2-1.7-0.5s-0.6-0.7-0.6-1.3H49.5z"/>
	<path class="st0" d="M2.9,65.7v-0.6c0.6-0.1,1-0.2,1.2-0.3c0.2-0.1,0.4-0.5,0.5-1h0.6v6.5H4.4v-4.6H2.9z"/>
	<path class="st0" d="M8,69.3h0.9v1H8V69.3z"/>
	<path class="st0" d="M19.1,70.3l-0.5,0.5l-1-0.8c-0.2,0.1-0.5,0.2-0.8,0.3c-0.3,0.1-0.6,0.1-0.9,0.1c-1,0-1.8-0.3-2.4-1
		C13,68.8,12.7,68,12.7,67c0-0.9,0.2-1.7,0.7-2.3c0.6-0.8,1.4-1.2,2.5-1.2c1.2,0,2,0.4,2.6,1.1c0.4,0.6,0.7,1.3,0.7,2.3
		c0,0.4-0.1,0.8-0.2,1.2c-0.2,0.6-0.4,1.1-0.8,1.5L19.1,70.3z M16.5,69.6c0.2,0,0.3-0.1,0.4-0.2l-0.7-0.6l0.5-0.6l0.9,0.7
		c0.3-0.3,0.5-0.7,0.6-1.1c0.1-0.4,0.1-0.8,0.1-1.1c0-0.8-0.2-1.4-0.6-1.9c-0.4-0.5-1-0.7-1.7-0.7c-0.7,0-1.3,0.2-1.7,0.7
		s-0.6,1.2-0.6,2.1c0,0.8,0.2,1.4,0.6,1.9c0.4,0.5,1,0.7,1.8,0.7C16.2,69.7,16.4,69.7,16.5,69.6z"/>
	<path class="st0" d="M21,65.4v3.2c0,0.2,0,0.5,0.1,0.6c0.1,0.3,0.4,0.4,0.8,0.4c0.6,0,0.9-0.3,1.1-0.8c0.1-0.3,0.2-0.6,0.2-1.1
		v-2.4H24v4.9h-0.8l0-0.7c-0.1,0.2-0.2,0.3-0.4,0.5c-0.3,0.3-0.7,0.4-1.1,0.4c-0.7,0-1.1-0.2-1.4-0.7c-0.1-0.2-0.2-0.6-0.2-1v-3.3
		H21z"/>
	<path class="st0" d="M27.9,67.4c0.2,0,0.3-0.1,0.4-0.2c0-0.1,0.1-0.2,0.1-0.3c0-0.3-0.1-0.5-0.3-0.6c-0.2-0.1-0.5-0.2-0.8-0.2
		c-0.4,0-0.7,0.1-0.9,0.3c-0.1,0.1-0.2,0.3-0.2,0.6h-0.8c0-0.6,0.2-1,0.6-1.3c0.4-0.2,0.8-0.4,1.3-0.4c0.6,0,1,0.1,1.4,0.3
		c0.4,0.2,0.5,0.6,0.5,1v2.8c0,0.1,0,0.2,0.1,0.2c0,0.1,0.1,0.1,0.2,0.1c0,0,0.1,0,0.1,0c0,0,0.1,0,0.1,0v0.6
		c-0.1,0-0.2,0.1-0.3,0.1s-0.2,0-0.3,0c-0.3,0-0.5-0.1-0.6-0.3c-0.1-0.1-0.1-0.3-0.1-0.4c-0.2,0.2-0.4,0.4-0.7,0.6s-0.7,0.2-1,0.2
		c-0.5,0-0.8-0.1-1.1-0.4c-0.3-0.3-0.4-0.6-0.4-1c0-0.4,0.1-0.8,0.4-1c0.3-0.2,0.6-0.4,1.1-0.5L27.9,67.4z M26.2,69.6
		c0.2,0.1,0.4,0.2,0.6,0.2c0.3,0,0.6-0.1,0.8-0.2c0.5-0.2,0.7-0.6,0.7-1.1v-0.7c-0.1,0.1-0.2,0.1-0.4,0.2c-0.2,0-0.3,0.1-0.5,0.1
		L27,68.1c-0.3,0-0.5,0.1-0.7,0.2c-0.3,0.1-0.4,0.4-0.4,0.7C25.9,69.2,26,69.4,26.2,69.6z"/>
	<path class="st0" d="M30.5,63.6h0.8v6.7h-0.8V63.6z"/>
	<path class="st0" d="M32.5,63.6h0.8v0.9h-0.8V63.6z M32.5,65.5h0.8v4.8h-0.8V65.5z"/>
	<path class="st0" d="M34.8,64.1h0.8v1.4h0.8v0.7h-0.8v3.2c0,0.2,0.1,0.3,0.2,0.3c0.1,0,0.2,0,0.3,0c0,0,0.1,0,0.1,0s0.1,0,0.2,0
		v0.6c-0.1,0-0.2,0-0.3,0.1c-0.1,0-0.2,0-0.3,0c-0.4,0-0.6-0.1-0.8-0.3c-0.1-0.2-0.2-0.4-0.2-0.8v-3.2h-0.7v-0.7h0.7V64.1z"/>
	<path class="st0" d="M40.2,65.4h0.9c-0.1,0.3-0.4,1-0.8,2.1c-0.3,0.8-0.5,1.5-0.7,2c-0.5,1.2-0.8,2-1,2.3c-0.2,0.3-0.5,0.4-1,0.4
		c-0.1,0-0.2,0-0.3,0c-0.1,0-0.1,0-0.2,0v-0.7c0.1,0,0.2,0.1,0.3,0.1c0.1,0,0.1,0,0.2,0c0.2,0,0.3,0,0.3-0.1c0.1,0,0.1-0.1,0.2-0.2
		c0,0,0.1-0.1,0.2-0.4c0.1-0.2,0.2-0.4,0.2-0.5l-1.8-5h0.9l1.3,4L40.2,65.4z"/>
	<path class="st0" d="M2.7,78.9c0.2-0.4,0.6-0.8,1.2-1.1l0.9-0.5c0.4-0.2,0.7-0.4,0.8-0.6c0.2-0.3,0.4-0.5,0.4-0.9
		c0-0.4-0.1-0.7-0.3-0.9S5,74.6,4.6,74.6c-0.6,0-0.9,0.2-1.2,0.6c-0.1,0.2-0.2,0.5-0.2,0.9H2.5c0-0.6,0.1-1,0.3-1.4
		c0.4-0.6,1-0.9,1.9-0.9c0.7,0,1.3,0.2,1.6,0.6c0.3,0.4,0.5,0.8,0.5,1.3c0,0.5-0.2,1-0.5,1.3c-0.2,0.2-0.6,0.5-1.1,0.8l-0.6,0.3
		c-0.3,0.2-0.5,0.3-0.7,0.5c-0.3,0.3-0.5,0.6-0.6,0.9h3.5v0.8H2.3C2.3,79.8,2.5,79.3,2.7,78.9z"/>
	<path class="st0" d="M8,79.4h0.9v1H8V79.4z"/>
	<path class="st0" d="M13.2,73.7h0.9v6.7h-0.9V73.7z"/>
	<path class="st0" d="M15.5,75.5h0.8v0.7c0.2-0.3,0.5-0.5,0.7-0.6c0.3-0.1,0.5-0.2,0.9-0.2c0.7,0,1.2,0.2,1.4,0.7
		c0.1,0.3,0.2,0.6,0.2,1.1v3.1h-0.8v-3.1c0-0.3,0-0.5-0.1-0.7c-0.1-0.3-0.4-0.5-0.8-0.5c-0.2,0-0.4,0-0.5,0.1
		c-0.2,0.1-0.4,0.2-0.6,0.4c-0.1,0.2-0.2,0.3-0.3,0.5c0,0.2-0.1,0.4-0.1,0.7v2.5h-0.8V75.5z"/>
	<path class="st0" d="M20.7,75.5h0.8v0.7c0.2-0.3,0.5-0.5,0.7-0.6c0.3-0.1,0.5-0.2,0.9-0.2c0.7,0,1.2,0.2,1.4,0.7
		c0.1,0.3,0.2,0.6,0.2,1.1v3.1h-0.8v-3.1c0-0.3,0-0.5-0.1-0.7c-0.1-0.3-0.4-0.5-0.8-0.5c-0.2,0-0.4,0-0.5,0.1
		c-0.2,0.1-0.4,0.2-0.6,0.4c-0.1,0.2-0.2,0.3-0.3,0.5c0,0.2-0.1,0.4-0.1,0.7v2.5h-0.8V75.5z"/>
	<path class="st0" d="M29.3,76c0.4,0.4,0.6,1,0.6,1.8c0,0.8-0.2,1.4-0.6,1.9s-1,0.8-1.8,0.8c-0.7,0-1.2-0.2-1.6-0.7
		c-0.4-0.5-0.6-1.1-0.6-1.8c0-0.8,0.2-1.5,0.6-1.9c0.4-0.5,1-0.7,1.7-0.7C28.4,75.3,28.9,75.6,29.3,76z M28.8,79.2
		c0.2-0.4,0.3-0.9,0.3-1.4c0-0.5-0.1-0.8-0.2-1.1c-0.2-0.4-0.6-0.7-1.2-0.7c-0.5,0-0.9,0.2-1.1,0.6s-0.3,0.8-0.3,1.4
		c0,0.5,0.1,0.9,0.3,1.3s0.6,0.5,1.1,0.5C28.3,79.8,28.6,79.6,28.8,79.2z"/>
	<path class="st0" d="M31.4,75.5l1.3,4l1.4-4h0.9l-1.8,4.9h-0.9l-1.8-4.9H31.4z"/>
	<path class="st0" d="M38.2,77.4c0.2,0,0.3-0.1,0.4-0.2c0-0.1,0.1-0.2,0.1-0.3c0-0.3-0.1-0.5-0.3-0.6c-0.2-0.1-0.5-0.2-0.8-0.2
		c-0.4,0-0.7,0.1-0.9,0.3c-0.1,0.1-0.2,0.3-0.2,0.6h-0.8c0-0.6,0.2-1,0.6-1.3c0.4-0.2,0.8-0.4,1.3-0.4c0.6,0,1,0.1,1.4,0.3
		c0.4,0.2,0.5,0.6,0.5,1v2.8c0,0.1,0,0.2,0.1,0.2c0,0.1,0.1,0.1,0.2,0.1c0,0,0.1,0,0.1,0c0,0,0.1,0,0.1,0v0.6
		c-0.1,0-0.2,0.1-0.3,0.1s-0.2,0-0.3,0c-0.3,0-0.5-0.1-0.6-0.3c-0.1-0.1-0.1-0.3-0.1-0.4c-0.2,0.2-0.4,0.4-0.7,0.6s-0.7,0.2-1,0.2
		c-0.5,0-0.8-0.1-1.1-0.4c-0.3-0.3-0.4-0.6-0.4-1c0-0.4,0.1-0.8,0.4-1c0.3-0.2,0.6-0.4,1.1-0.5L38.2,77.4z M36.5,79.6
		c0.2,0.1,0.4,0.2,0.6,0.2c0.3,0,0.6-0.1,0.8-0.2c0.5-0.2,0.7-0.6,0.7-1.1v-0.7c-0.1,0.1-0.2,0.1-0.4,0.2c-0.2,0-0.3,0.1-0.5,0.1
		l-0.5,0.1c-0.3,0-0.5,0.1-0.7,0.2c-0.3,0.1-0.4,0.4-0.4,0.7C36.3,79.3,36.3,79.5,36.5,79.6z"/>
	<path class="st0" d="M41,74.1h0.8v1.4h0.8v0.7h-0.8v3.2c0,0.2,0.1,0.3,0.2,0.3c0.1,0,0.2,0,0.3,0c0,0,0.1,0,0.1,0s0.1,0,0.2,0v0.6
		c-0.1,0-0.2,0-0.3,0.1c-0.1,0-0.2,0-0.3,0c-0.4,0-0.6-0.1-0.8-0.3C41,79.9,41,79.7,41,79.4v-3.2h-0.7v-0.7H41V74.1z"/>
	<path class="st0" d="M43.4,73.7h0.8v0.9h-0.8V73.7z M43.4,75.5h0.8v4.8h-0.8V75.5z"/>
	<path class="st0" d="M48.9,76c0.4,0.4,0.6,1,0.6,1.8c0,0.8-0.2,1.4-0.6,1.9s-1,0.8-1.8,0.8c-0.7,0-1.2-0.2-1.6-0.7
		c-0.4-0.5-0.6-1.1-0.6-1.8c0-0.8,0.2-1.5,0.6-1.9c0.4-0.5,1-0.7,1.7-0.7C48,75.3,48.5,75.6,48.9,76z M48.4,79.2
		c0.2-0.4,0.3-0.9,0.3-1.4c0-0.5-0.1-0.8-0.2-1.1c-0.2-0.4-0.6-0.7-1.2-0.7c-0.5,0-0.9,0.2-1.1,0.6s-0.3,0.8-0.3,1.4
		c0,0.5,0.1,0.9,0.3,1.3s0.6,0.5,1.1,0.5C47.9,79.8,48.2,79.6,48.4,79.2z"/>
	<path class="st0" d="M50.6,75.5h0.8v0.7c0.2-0.3,0.5-0.5,0.7-0.6c0.3-0.1,0.5-0.2,0.9-0.2c0.7,0,1.2,0.2,1.4,0.7
		c0.1,0.3,0.2,0.6,0.2,1.1v3.1h-0.8v-3.1c0-0.3,0-0.5-0.1-0.7c-0.1-0.3-0.4-0.5-0.8-0.5c-0.2,0-0.4,0-0.5,0.1
		c-0.2,0.1-0.4,0.2-0.6,0.4c-0.1,0.2-0.2,0.3-0.3,0.5c0,0.2-0.1,0.4-0.1,0.7v2.5h-0.8V75.5z"/>
	<path class="st0" d="M2.8,89.9c-0.3-0.4-0.5-0.9-0.5-1.5h0.9c0,0.4,0.1,0.7,0.2,0.9c0.2,0.3,0.6,0.5,1.1,0.5c0.4,0,0.8-0.1,1-0.3
		s0.4-0.5,0.4-0.9c0-0.4-0.1-0.8-0.4-0.9c-0.3-0.2-0.7-0.3-1.1-0.3c-0.1,0-0.1,0-0.2,0c-0.1,0-0.1,0-0.2,0v-0.7c0.1,0,0.2,0,0.2,0
		c0.1,0,0.1,0,0.2,0c0.3,0,0.6,0,0.8-0.1c0.3-0.2,0.5-0.5,0.5-0.9c0-0.3-0.1-0.6-0.3-0.7c-0.2-0.2-0.5-0.3-0.8-0.3
		c-0.5,0-0.9,0.2-1.1,0.5c-0.1,0.2-0.2,0.5-0.2,0.9H2.4c0-0.5,0.1-0.9,0.3-1.2c0.3-0.6,0.9-0.9,1.8-0.9c0.7,0,1.2,0.1,1.5,0.4
		c0.4,0.3,0.5,0.7,0.5,1.3c0,0.4-0.1,0.7-0.3,1c-0.1,0.2-0.3,0.3-0.5,0.4C6,87,6.3,87.2,6.5,87.5c0.2,0.3,0.3,0.6,0.3,1
		c0,0.6-0.2,1.1-0.6,1.5c-0.4,0.4-1,0.6-1.7,0.6C3.7,90.6,3.1,90.4,2.8,89.9z"/>
	<path class="st0" d="M8,89.4h0.9v1H8V89.4z"/>
	<path class="st0" d="M13.1,83.7h3c0.6,0,1.1,0.2,1.4,0.5c0.4,0.3,0.5,0.8,0.5,1.4c0,0.5-0.2,1-0.5,1.4c-0.3,0.4-0.8,0.6-1.5,0.6H14
		v2.8h-0.9V83.7z M16.6,84.6c-0.2-0.1-0.5-0.1-0.8-0.1H14v2.3h1.8c0.4,0,0.7-0.1,1-0.3c0.3-0.2,0.4-0.5,0.4-0.9
		C17.2,85.2,17,84.8,16.6,84.6z"/>
	<path class="st0" d="M19.1,85.5h0.8v0.8c0.1-0.2,0.2-0.4,0.5-0.6c0.2-0.2,0.5-0.4,0.9-0.4c0,0,0,0,0.1,0c0,0,0.1,0,0.2,0v0.9
		c0,0-0.1,0-0.1,0c0,0-0.1,0-0.1,0c-0.4,0-0.7,0.1-0.9,0.4C20.1,87,20,87.3,20,87.6v2.8h-0.8V85.5z"/>
	<path class="st0" d="M25.7,86c0.4,0.4,0.6,1,0.6,1.8c0,0.8-0.2,1.4-0.6,1.9s-1,0.8-1.8,0.8c-0.7,0-1.2-0.2-1.6-0.7
		c-0.4-0.5-0.6-1.1-0.6-1.8c0-0.8,0.2-1.5,0.6-1.9c0.4-0.5,1-0.7,1.7-0.7C24.8,85.4,25.3,85.6,25.7,86z M25.2,89.2
		c0.2-0.4,0.3-0.9,0.3-1.4c0-0.5-0.1-0.8-0.2-1.1c-0.2-0.4-0.6-0.7-1.2-0.7c-0.5,0-0.9,0.2-1.1,0.6s-0.3,0.8-0.3,1.4
		c0,0.5,0.1,0.9,0.3,1.3s0.6,0.5,1.1,0.5C24.7,89.9,25,89.7,25.2,89.2z"/>
	<path class="st0" d="M30,85.7c0.1,0.1,0.3,0.2,0.5,0.5v-2.5h0.8v6.7h-0.7v-0.7c-0.2,0.3-0.4,0.5-0.7,0.6s-0.6,0.2-0.9,0.2
		c-0.5,0-1-0.2-1.4-0.7c-0.4-0.5-0.6-1.1-0.6-1.8c0-0.7,0.2-1.3,0.5-1.8s0.9-0.8,1.5-0.8C29.5,85.5,29.8,85.5,30,85.7z M28.2,89.3
		c0.2,0.4,0.6,0.5,1.1,0.5c0.4,0,0.7-0.2,0.9-0.5c0.2-0.3,0.4-0.8,0.4-1.4c0-0.6-0.1-1.1-0.4-1.4c-0.2-0.3-0.6-0.4-0.9-0.4
		c-0.4,0-0.7,0.2-1,0.5c-0.3,0.3-0.4,0.8-0.4,1.4C27.9,88.5,28,89,28.2,89.3z"/>
	<path class="st0" d="M33.3,85.5v3.2c0,0.2,0,0.5,0.1,0.6c0.1,0.3,0.4,0.4,0.8,0.4c0.6,0,0.9-0.3,1.1-0.8c0.1-0.3,0.2-0.6,0.2-1.1
		v-2.4h0.8v4.9h-0.8l0-0.7c-0.1,0.2-0.2,0.3-0.4,0.5c-0.3,0.3-0.7,0.4-1.1,0.4c-0.7,0-1.1-0.2-1.4-0.7c-0.1-0.2-0.2-0.6-0.2-1v-3.3
		H33.3z"/>
	<path class="st0" d="M40.9,85.8c0.3,0.3,0.5,0.7,0.6,1.4h-0.8c0-0.3-0.2-0.5-0.3-0.7c-0.2-0.2-0.4-0.3-0.8-0.3
		c-0.5,0-0.9,0.3-1.1,0.8c-0.1,0.3-0.2,0.7-0.2,1.2c0,0.5,0.1,0.9,0.3,1.2c0.2,0.3,0.5,0.5,1,0.5c0.3,0,0.6-0.1,0.8-0.3
		s0.3-0.5,0.4-0.8h0.8c-0.1,0.6-0.3,1.1-0.7,1.4c-0.4,0.3-0.8,0.4-1.4,0.4c-0.6,0-1.1-0.2-1.5-0.7c-0.4-0.5-0.6-1-0.6-1.7
		c0-0.9,0.2-1.5,0.6-2c0.4-0.5,0.9-0.7,1.6-0.7C40.1,85.4,40.6,85.5,40.9,85.8z"/>
	<path class="st0" d="M42.5,84.2h0.8v1.4h0.8v0.7h-0.8v3.2c0,0.2,0.1,0.3,0.2,0.3c0.1,0,0.2,0,0.3,0c0,0,0.1,0,0.1,0s0.1,0,0.2,0
		v0.6c-0.1,0-0.2,0-0.3,0.1c-0.1,0-0.2,0-0.3,0c-0.4,0-0.6-0.1-0.8-0.3c-0.1-0.2-0.2-0.4-0.2-0.8v-3.2h-0.7v-0.7h0.7V84.2z"/>
	<path class="st0" d="M47.4,85.6h0.8v0.6c0.2-0.2,0.3-0.4,0.5-0.5c0.3-0.2,0.6-0.3,1-0.3c0.6,0,1,0.2,1.4,0.6c0.4,0.4,0.6,1,0.6,1.8
		c0,1.1-0.3,1.8-0.8,2.3c-0.4,0.3-0.8,0.4-1.2,0.4c-0.4,0-0.7-0.1-0.9-0.2c-0.1-0.1-0.3-0.2-0.5-0.5v2.5h-0.8V85.6z M50.5,89.4
		c0.3-0.3,0.4-0.8,0.4-1.4c0-0.4-0.1-0.7-0.2-1c-0.2-0.5-0.6-0.8-1.2-0.8c-0.6,0-1,0.3-1.2,0.8c-0.1,0.3-0.2,0.7-0.2,1.2
		c0,0.4,0.1,0.7,0.2,1c0.2,0.5,0.6,0.8,1.2,0.8C49.9,89.8,50.2,89.7,50.5,89.4z"/>
	<path class="st0" d="M56.2,86c0.4,0.4,0.6,1,0.6,1.8c0,0.8-0.2,1.4-0.6,1.9c-0.4,0.5-1,0.8-1.8,0.8c-0.7,0-1.2-0.2-1.6-0.7
		s-0.6-1.1-0.6-1.8c0-0.8,0.2-1.5,0.6-1.9c0.4-0.5,1-0.7,1.7-0.7C55.2,85.4,55.7,85.6,56.2,86z M55.7,89.2c0.2-0.4,0.3-0.9,0.3-1.4
		c0-0.5-0.1-0.8-0.2-1.1c-0.2-0.4-0.6-0.7-1.2-0.7c-0.5,0-0.9,0.2-1.1,0.6c-0.2,0.4-0.3,0.8-0.3,1.4c0,0.5,0.1,0.9,0.3,1.3
		c0.2,0.3,0.6,0.5,1.1,0.5C55.1,89.9,55.5,89.7,55.7,89.2z"/>
	<path class="st0" d="M57.8,85.5h0.8v0.8c0.1-0.2,0.2-0.4,0.5-0.6c0.2-0.2,0.5-0.4,0.9-0.4c0,0,0,0,0.1,0s0.1,0,0.2,0v0.9
		c0,0-0.1,0-0.1,0c0,0-0.1,0-0.1,0c-0.4,0-0.7,0.1-0.9,0.4c-0.2,0.3-0.3,0.6-0.3,0.9v2.8h-0.8V85.5z"/>
	<path class="st0" d="M61.1,84.2h0.8v1.4h0.8v0.7h-0.8v3.2c0,0.2,0.1,0.3,0.2,0.3c0.1,0,0.2,0,0.3,0c0,0,0.1,0,0.1,0
		c0,0,0.1,0,0.2,0v0.6c-0.1,0-0.2,0-0.3,0.1c-0.1,0-0.2,0-0.3,0c-0.4,0-0.6-0.1-0.8-0.3c-0.1-0.2-0.2-0.4-0.2-0.8v-3.2h-0.7v-0.7
		h0.7V84.2z"/>
	<path class="st0" d="M63.9,84.1c0.2-0.3,0.6-0.4,1.1-0.4c0.1,0,0.1,0,0.2,0c0.1,0,0.1,0,0.2,0v0.7c-0.1,0-0.1,0-0.2,0
		c0,0-0.1,0-0.1,0c-0.3,0-0.4,0.1-0.4,0.2c0,0.1-0.1,0.5-0.1,1h0.8v0.6h-0.8v4.2h-0.8v-4.2H63v-0.6h0.7v-0.8
		C63.7,84.5,63.7,84.2,63.9,84.1z"/>
	<path class="st0" d="M69.6,86c0.4,0.4,0.6,1,0.6,1.8c0,0.8-0.2,1.4-0.6,1.9c-0.4,0.5-1,0.8-1.8,0.8c-0.7,0-1.2-0.2-1.6-0.7
		c-0.4-0.5-0.6-1.1-0.6-1.8c0-0.8,0.2-1.5,0.6-1.9c0.4-0.5,1-0.7,1.7-0.7C68.6,85.4,69.1,85.6,69.6,86z M69.1,89.2
		c0.2-0.4,0.3-0.9,0.3-1.4c0-0.5-0.1-0.8-0.2-1.1c-0.2-0.4-0.6-0.7-1.2-0.7c-0.5,0-0.9,0.2-1.1,0.6s-0.3,0.8-0.3,1.4
		c0,0.5,0.1,0.9,0.3,1.3s0.6,0.5,1.1,0.5C68.5,89.9,68.9,89.7,69.1,89.2z"/>
	<path class="st0" d="M71.2,83.7H72v6.7h-0.8V83.7z"/>
	<path class="st0" d="M73.3,83.7h0.8v0.9h-0.8V83.7z M73.3,85.6h0.8v4.8h-0.8V85.6z"/>
	<path class="st0" d="M78.8,86c0.4,0.4,0.6,1,0.6,1.8c0,0.8-0.2,1.4-0.6,1.9c-0.4,0.5-1,0.8-1.8,0.8c-0.7,0-1.2-0.2-1.6-0.7
		c-0.4-0.5-0.6-1.1-0.6-1.8c0-0.8,0.2-1.5,0.6-1.9c0.4-0.5,1-0.7,1.7-0.7C77.9,85.4,78.4,85.6,78.8,86z M78.3,89.2
		c0.2-0.4,0.3-0.9,0.3-1.4c0-0.5-0.1-0.8-0.2-1.1c-0.2-0.4-0.6-0.7-1.2-0.7c-0.5,0-0.9,0.2-1.1,0.6s-0.3,0.8-0.3,1.4
		c0,0.5,0.1,0.9,0.3,1.3s0.6,0.5,1.1,0.5C77.8,89.9,78.1,89.7,78.3,89.2z"/>
	<path class="st0" d="M5.1,100.4v-1.6H2.3v-0.8l3-4.1h0.7v4.2h1v0.7h-1v1.6H5.1z M5.1,98.1v-2.9L3,98.1H5.1z"/>
	<path class="st0" d="M8,99.5h0.9v1H8V99.5z"/>
	<path class="st0" d="M13,93.8h1.1l3.3,5.4v-5.4h0.9v6.7h-1l-3.4-5.4v5.4H13V93.8z"/>
	<path class="st0" d="M20.4,95.6v3.2c0,0.2,0,0.5,0.1,0.6c0.1,0.3,0.4,0.4,0.8,0.4c0.6,0,0.9-0.3,1.1-0.8c0.1-0.3,0.2-0.6,0.2-1.1
		v-2.4h0.8v4.9h-0.8l0-0.7c-0.1,0.2-0.2,0.3-0.4,0.5c-0.3,0.3-0.7,0.4-1.1,0.4c-0.7,0-1.1-0.2-1.4-0.7c-0.1-0.2-0.2-0.6-0.2-1v-3.3
		H20.4z"/>
	<path class="st0" d="M25,94.2h0.8v1.4h0.8v0.7h-0.8v3.2c0,0.2,0.1,0.3,0.2,0.3c0.1,0,0.2,0,0.3,0c0,0,0.1,0,0.1,0s0.1,0,0.2,0v0.6
		c-0.1,0-0.2,0-0.3,0.1c-0.1,0-0.2,0-0.3,0c-0.4,0-0.6-0.1-0.8-0.3C25,100,25,99.8,25,99.5v-3.2h-0.7v-0.7H25V94.2z"/>
	<path class="st0" d="M27.4,95.6h0.8v0.8c0.1-0.2,0.2-0.4,0.5-0.6c0.2-0.2,0.5-0.4,0.9-0.4c0,0,0,0,0.1,0c0,0,0.1,0,0.2,0v0.9
		c0,0-0.1,0-0.1,0c0,0-0.1,0-0.1,0c-0.4,0-0.7,0.1-0.9,0.4c-0.2,0.3-0.3,0.6-0.3,0.9v2.8h-0.8V95.6z"/>
	<path class="st0" d="M30.5,93.8h0.8v0.9h-0.8V93.8z M30.5,95.6h0.8v4.8h-0.8V95.6z"/>
	<path class="st0" d="M35.7,95.8c0.3,0.3,0.5,0.7,0.6,1.4h-0.8c0-0.3-0.2-0.5-0.3-0.7c-0.2-0.2-0.4-0.3-0.8-0.3
		c-0.5,0-0.9,0.3-1.1,0.8c-0.1,0.3-0.2,0.7-0.2,1.2c0,0.5,0.1,0.9,0.3,1.2c0.2,0.3,0.5,0.5,1,0.5c0.3,0,0.6-0.1,0.8-0.3
		s0.3-0.5,0.4-0.8h0.8c-0.1,0.6-0.3,1.1-0.7,1.4c-0.4,0.3-0.8,0.4-1.4,0.4c-0.6,0-1.1-0.2-1.5-0.7c-0.4-0.5-0.6-1-0.6-1.7
		c0-0.9,0.2-1.5,0.6-2c0.4-0.5,0.9-0.7,1.6-0.7C34.9,95.4,35.4,95.6,35.7,95.8z"/>
	<path class="st0" d="M37.2,93.8H38v0.9h-0.8V93.8z M37.2,95.6H38v4.8h-0.8V95.6z"/>
	<path class="st0" d="M42.7,96.1c0.4,0.4,0.6,1,0.6,1.8c0,0.8-0.2,1.4-0.6,1.9s-1,0.8-1.8,0.8c-0.7,0-1.2-0.2-1.6-0.7
		c-0.4-0.5-0.6-1.1-0.6-1.8c0-0.8,0.2-1.5,0.6-1.9c0.4-0.5,1-0.7,1.7-0.7C41.8,95.4,42.3,95.7,42.7,96.1z M42.2,99.3
		c0.2-0.4,0.3-0.9,0.3-1.4c0-0.5-0.1-0.8-0.2-1.1c-0.2-0.4-0.6-0.7-1.2-0.7c-0.5,0-0.9,0.2-1.1,0.6s-0.3,0.8-0.3,1.4
		c0,0.5,0.1,0.9,0.3,1.3s0.6,0.5,1.1,0.5C41.7,99.9,42,99.7,42.2,99.3z"/>
	<path class="st0" d="M44.4,95.6h0.8v0.7c0.2-0.3,0.5-0.5,0.7-0.6c0.3-0.1,0.5-0.2,0.9-0.2c0.7,0,1.2,0.2,1.4,0.7
		c0.1,0.3,0.2,0.6,0.2,1.1v3.1h-0.8v-3.1c0-0.3,0-0.5-0.1-0.7c-0.1-0.3-0.4-0.5-0.8-0.5c-0.2,0-0.4,0-0.5,0.1
		c-0.2,0.1-0.4,0.2-0.6,0.4c-0.1,0.2-0.2,0.3-0.3,0.5c0,0.2-0.1,0.4-0.1,0.7v2.5h-0.8V95.6z"/>
	<path class="st0" d="M52.1,97.5c0.2,0,0.3-0.1,0.4-0.2c0-0.1,0.1-0.2,0.1-0.3c0-0.3-0.1-0.5-0.3-0.6c-0.2-0.1-0.5-0.2-0.8-0.2
		c-0.4,0-0.7,0.1-0.9,0.3c-0.1,0.1-0.2,0.3-0.2,0.6h-0.8c0-0.6,0.2-1,0.6-1.3c0.4-0.2,0.8-0.4,1.3-0.4c0.6,0,1,0.1,1.4,0.3
		c0.4,0.2,0.5,0.6,0.5,1v2.8c0,0.1,0,0.2,0.1,0.2c0,0.1,0.1,0.1,0.2,0.1c0,0,0.1,0,0.1,0s0.1,0,0.1,0v0.6c-0.1,0-0.2,0.1-0.3,0.1
		s-0.2,0-0.3,0c-0.3,0-0.5-0.1-0.6-0.3c-0.1-0.1-0.1-0.3-0.1-0.4c-0.2,0.2-0.4,0.4-0.7,0.6s-0.7,0.2-1,0.2c-0.5,0-0.8-0.1-1.1-0.4
		c-0.3-0.3-0.4-0.6-0.4-1c0-0.4,0.1-0.8,0.4-1c0.3-0.2,0.6-0.4,1.1-0.5L52.1,97.5z M50.4,99.7c0.2,0.1,0.4,0.2,0.6,0.2
		c0.3,0,0.6-0.1,0.8-0.2c0.5-0.2,0.7-0.6,0.7-1.1V98c-0.1,0.1-0.2,0.1-0.4,0.2c-0.2,0-0.3,0.1-0.5,0.1l-0.5,0.1
		c-0.3,0-0.5,0.1-0.7,0.2c-0.3,0.1-0.4,0.4-0.4,0.7C50.2,99.4,50.3,99.6,50.4,99.7z"/>
	<path class="st0" d="M54.7,93.8h0.8v6.7h-0.8V93.8z"/>
	<path class="st0" d="M59.3,93.8h0.8v0.9h-0.8V93.8z M59.3,95.6h0.8v4.8h-0.8V95.6z"/>
	<path class="st0" d="M61.4,95.6h0.8v0.7c0.2-0.3,0.5-0.5,0.7-0.6c0.3-0.1,0.5-0.2,0.9-0.2c0.7,0,1.2,0.2,1.4,0.7
		c0.1,0.3,0.2,0.6,0.2,1.1v3.1h-0.8v-3.1c0-0.3,0-0.5-0.1-0.7c-0.1-0.3-0.4-0.5-0.8-0.5c-0.2,0-0.4,0-0.5,0.1
		c-0.2,0.1-0.4,0.2-0.6,0.4c-0.1,0.2-0.2,0.3-0.3,0.5c0,0.2-0.1,0.4-0.1,0.7v2.5h-0.8V95.6z"/>
	<path class="st0" d="M66.9,94.1c0.2-0.3,0.6-0.4,1.1-0.4c0.1,0,0.1,0,0.2,0c0.1,0,0.1,0,0.2,0v0.7c-0.1,0-0.1,0-0.2,0
		c0,0-0.1,0-0.1,0c-0.3,0-0.4,0.1-0.4,0.2c0,0.1-0.1,0.5-0.1,1h0.8v0.6h-0.8v4.2h-0.8v-4.2h-0.7v-0.6h0.7v-0.8
		C66.8,94.5,66.8,94.3,66.9,94.1z"/>
	<path class="st0" d="M72.7,96.1c0.4,0.4,0.6,1,0.6,1.8c0,0.8-0.2,1.4-0.6,1.9c-0.4,0.5-1,0.8-1.8,0.8c-0.7,0-1.2-0.2-1.6-0.7
		c-0.4-0.5-0.6-1.1-0.6-1.8c0-0.8,0.2-1.5,0.6-1.9c0.4-0.5,1-0.7,1.7-0.7C71.7,95.4,72.2,95.7,72.7,96.1z M72.1,99.3
		c0.2-0.4,0.3-0.9,0.3-1.4c0-0.5-0.1-0.8-0.2-1.1c-0.2-0.4-0.6-0.7-1.2-0.7c-0.5,0-0.9,0.2-1.1,0.6s-0.3,0.8-0.3,1.4
		c0,0.5,0.1,0.9,0.3,1.3s0.6,0.5,1.1,0.5C71.6,99.9,72,99.7,72.1,99.3z"/>
	<path class="st0" d="M74.3,95.6h0.8v0.8c0.1-0.2,0.2-0.4,0.5-0.6c0.2-0.2,0.5-0.4,0.9-0.4c0,0,0,0,0.1,0s0.1,0,0.2,0v0.9
		c0,0-0.1,0-0.1,0c0,0-0.1,0-0.1,0c-0.4,0-0.7,0.1-0.9,0.4c-0.2,0.3-0.3,0.6-0.3,0.9v2.8h-0.8V95.6z"/>
	<path class="st0" d="M77.4,95.6h0.8v0.7c0.2-0.2,0.4-0.4,0.5-0.5c0.3-0.2,0.6-0.3,0.9-0.3c0.4,0,0.7,0.1,0.9,0.3
		c0.1,0.1,0.3,0.3,0.4,0.5c0.2-0.3,0.4-0.5,0.6-0.6c0.2-0.1,0.5-0.2,0.8-0.2c0.7,0,1.1,0.2,1.3,0.7c0.1,0.3,0.2,0.6,0.2,1v3.2h-0.8
		v-3.4c0-0.3-0.1-0.5-0.2-0.7c-0.2-0.1-0.4-0.2-0.6-0.2c-0.3,0-0.6,0.1-0.8,0.3c-0.2,0.2-0.3,0.6-0.3,1.1v2.8h-0.8v-3.2
		c0-0.3,0-0.6-0.1-0.7c-0.1-0.2-0.4-0.3-0.7-0.3c-0.3,0-0.6,0.1-0.8,0.4c-0.3,0.2-0.4,0.7-0.4,1.3v2.6h-0.8V95.6z"/>
	<path class="st0" d="M87.7,97.5c0.2,0,0.3-0.1,0.4-0.2c0-0.1,0.1-0.2,0.1-0.3c0-0.3-0.1-0.5-0.3-0.6c-0.2-0.1-0.5-0.2-0.8-0.2
		c-0.4,0-0.7,0.1-0.9,0.3c-0.1,0.1-0.2,0.3-0.2,0.6h-0.8c0-0.6,0.2-1,0.6-1.3c0.4-0.2,0.8-0.4,1.3-0.4c0.6,0,1,0.1,1.4,0.3
		c0.4,0.2,0.5,0.6,0.5,1v2.8c0,0.1,0,0.2,0.1,0.2c0,0.1,0.1,0.1,0.2,0.1c0,0,0.1,0,0.1,0c0,0,0.1,0,0.1,0v0.6
		c-0.1,0-0.2,0.1-0.3,0.1s-0.2,0-0.3,0c-0.3,0-0.5-0.1-0.6-0.3c-0.1-0.1-0.1-0.3-0.1-0.4c-0.2,0.2-0.4,0.4-0.7,0.6
		c-0.3,0.2-0.7,0.2-1,0.2c-0.4,0-0.8-0.1-1.1-0.4c-0.3-0.3-0.4-0.6-0.4-1c0-0.4,0.1-0.8,0.4-1c0.3-0.2,0.6-0.4,1.1-0.5L87.7,97.5z
		 M86,99.7c0.2,0.1,0.4,0.2,0.6,0.2c0.3,0,0.6-0.1,0.8-0.2c0.5-0.2,0.7-0.6,0.7-1.1V98c-0.1,0.1-0.2,0.1-0.4,0.2
		c-0.2,0-0.3,0.1-0.5,0.1l-0.5,0.1c-0.3,0-0.5,0.1-0.7,0.2c-0.3,0.1-0.4,0.4-0.4,0.7C85.7,99.4,85.8,99.6,86,99.7z"/>
	<path class="st0" d="M90.4,94.2h0.8v1.4H92v0.7h-0.8v3.2c0,0.2,0.1,0.3,0.2,0.3c0.1,0,0.2,0,0.3,0c0,0,0.1,0,0.1,0c0,0,0.1,0,0.2,0
		v0.6c-0.1,0-0.2,0-0.3,0.1c-0.1,0-0.2,0-0.3,0c-0.4,0-0.6-0.1-0.8-0.3c-0.1-0.2-0.2-0.4-0.2-0.8v-3.2h-0.7v-0.7h0.7V94.2z"/>
	<path class="st0" d="M92.9,93.8h0.8v0.9h-0.8V93.8z M92.9,95.6h0.8v4.8h-0.8V95.6z"/>
	<path class="st0" d="M98.4,96.1c0.4,0.4,0.6,1,0.6,1.8c0,0.8-0.2,1.4-0.6,1.9c-0.4,0.5-1,0.8-1.8,0.8c-0.7,0-1.2-0.2-1.6-0.7
		c-0.4-0.5-0.6-1.1-0.6-1.8c0-0.8,0.2-1.5,0.6-1.9c0.4-0.5,1-0.7,1.7-0.7C97.5,95.4,98,95.7,98.4,96.1z M97.9,99.3
		c0.2-0.4,0.3-0.9,0.3-1.4c0-0.5-0.1-0.8-0.2-1.1c-0.2-0.4-0.6-0.7-1.2-0.7c-0.5,0-0.9,0.2-1.1,0.6s-0.3,0.8-0.3,1.4
		c0,0.5,0.1,0.9,0.3,1.3s0.6,0.5,1.1,0.5C97.4,99.9,97.7,99.7,97.9,99.3z"/>
	<path class="st0" d="M100.1,95.6h0.8v0.7c0.2-0.3,0.5-0.5,0.7-0.6c0.3-0.1,0.5-0.2,0.9-0.2c0.7,0,1.2,0.2,1.4,0.7
		c0.1,0.3,0.2,0.6,0.2,1.1v3.1h-0.8v-3.1c0-0.3,0-0.5-0.1-0.7c-0.1-0.3-0.4-0.5-0.8-0.5c-0.2,0-0.4,0-0.5,0.1
		c-0.2,0.1-0.4,0.2-0.6,0.4c-0.1,0.2-0.2,0.3-0.3,0.5c0,0.2-0.1,0.4-0.1,0.7v2.5h-0.8V95.6z"/>
	<path class="st0" d="M3.2,108.8c0.1,0.5,0.3,0.8,0.6,1c0.2,0.1,0.4,0.1,0.7,0.1c0.5,0,0.8-0.2,1.1-0.5c0.2-0.3,0.3-0.6,0.3-1
		c0-0.5-0.1-0.8-0.4-1.1c-0.3-0.2-0.6-0.4-1-0.4c-0.3,0-0.5,0.1-0.7,0.2c-0.2,0.1-0.4,0.3-0.5,0.5l-0.7,0l0.5-3.5h3.4v0.8H3.7
		l-0.3,1.8c0.2-0.1,0.3-0.2,0.4-0.3c0.2-0.1,0.5-0.1,0.8-0.1c0.6,0,1.1,0.2,1.5,0.6c0.4,0.4,0.6,0.9,0.6,1.5c0,0.6-0.2,1.2-0.6,1.6
		s-1,0.7-1.8,0.7c-0.5,0-1-0.1-1.4-0.4s-0.6-0.8-0.7-1.4H3.2z"/>
	<path class="st0" d="M8,109.5h0.9v1H8V109.5z"/>
	<path class="st0" d="M13.1,103.8H14v2.8h3.4v-2.8h0.9v6.7h-0.9v-3.1H14v3.1h-0.9V103.8z"/>
	<path class="st0" d="M22.6,105.8c0.3,0.2,0.6,0.4,0.7,0.6c0.2,0.2,0.3,0.5,0.3,0.9c0,0.2,0.1,0.6,0.1,1.1h-3.5
		c0,0.5,0.1,0.9,0.3,1.2c0.2,0.3,0.5,0.4,1,0.4c0.4,0,0.8-0.1,1-0.4c0.1-0.2,0.2-0.4,0.3-0.6h0.8c0,0.2-0.1,0.4-0.2,0.6
		c-0.1,0.2-0.3,0.4-0.4,0.5c-0.2,0.2-0.6,0.4-0.9,0.5c-0.2,0-0.4,0.1-0.7,0.1c-0.6,0-1.1-0.2-1.5-0.7c-0.4-0.4-0.6-1.1-0.6-1.8
		c0-0.8,0.2-1.4,0.6-1.9c0.4-0.5,1-0.7,1.6-0.7C22,105.5,22.3,105.6,22.6,105.8z M22.9,107.7c0-0.4-0.1-0.6-0.2-0.8
		c-0.2-0.4-0.6-0.6-1.1-0.6c-0.4,0-0.7,0.1-0.9,0.4c-0.3,0.3-0.4,0.6-0.4,1H22.9z"/>
	<path class="st0" d="M27.4,107.6c0.2,0,0.3-0.1,0.4-0.2c0-0.1,0.1-0.2,0.1-0.3c0-0.3-0.1-0.5-0.3-0.6c-0.2-0.1-0.5-0.2-0.8-0.2
		c-0.4,0-0.7,0.1-0.9,0.3c-0.1,0.1-0.2,0.3-0.2,0.6h-0.8c0-0.6,0.2-1,0.6-1.3c0.4-0.2,0.8-0.4,1.3-0.4c0.6,0,1,0.1,1.4,0.3
		c0.4,0.2,0.5,0.6,0.5,1v2.8c0,0.1,0,0.2,0.1,0.2c0,0.1,0.1,0.1,0.2,0.1c0,0,0.1,0,0.1,0c0,0,0.1,0,0.1,0v0.6
		c-0.1,0-0.2,0.1-0.3,0.1s-0.2,0-0.3,0c-0.3,0-0.5-0.1-0.6-0.3c-0.1-0.1-0.1-0.3-0.1-0.4c-0.2,0.2-0.4,0.4-0.7,0.6s-0.7,0.2-1,0.2
		c-0.5,0-0.8-0.1-1.1-0.4c-0.3-0.3-0.4-0.6-0.4-1c0-0.4,0.1-0.8,0.4-1c0.3-0.2,0.6-0.4,1.1-0.5L27.4,107.6z M25.7,109.8
		c0.2,0.1,0.4,0.2,0.6,0.2c0.3,0,0.6-0.1,0.8-0.2c0.5-0.2,0.7-0.6,0.7-1.1V108c-0.1,0.1-0.2,0.1-0.4,0.2c-0.2,0-0.3,0.1-0.5,0.1
		l-0.5,0.1c-0.3,0-0.5,0.1-0.7,0.2c-0.3,0.1-0.4,0.4-0.4,0.7C25.4,109.4,25.5,109.6,25.7,109.8z"/>
	<path class="st0" d="M30,103.8h0.8v6.7H30V103.8z"/>
	<path class="st0" d="M32.2,104.3H33v1.4h0.8v0.7H33v3.2c0,0.2,0.1,0.3,0.2,0.3c0.1,0,0.2,0,0.3,0c0,0,0.1,0,0.1,0s0.1,0,0.2,0v0.6
		c-0.1,0-0.2,0-0.3,0.1c-0.1,0-0.2,0-0.3,0c-0.4,0-0.6-0.1-0.8-0.3c-0.1-0.2-0.2-0.4-0.2-0.8v-3.2h-0.7v-0.7h0.7V104.3z"/>
	<path class="st0" d="M34.6,103.8h0.8v2.5c0.2-0.2,0.4-0.4,0.5-0.5c0.3-0.2,0.6-0.3,1-0.3c0.7,0,1.2,0.2,1.4,0.7
		c0.1,0.3,0.2,0.6,0.2,1.1v3.1h-0.8v-3.1c0-0.4,0-0.6-0.1-0.8c-0.1-0.3-0.4-0.4-0.8-0.4c-0.3,0-0.6,0.1-0.9,0.3s-0.4,0.7-0.4,1.3
		v2.6h-0.8V103.8z"/>
	<path class="st0" d="M42.8,105.6h0.9c-0.1,0.3-0.4,1-0.8,2.1c-0.3,0.8-0.5,1.5-0.7,2c-0.5,1.2-0.8,2-1,2.3c-0.2,0.3-0.5,0.4-1,0.4
		c-0.1,0-0.2,0-0.3,0c-0.1,0-0.1,0-0.2,0v-0.7c0.1,0,0.2,0.1,0.3,0.1c0.1,0,0.1,0,0.2,0c0.2,0,0.3,0,0.3-0.1c0.1,0,0.1-0.1,0.2-0.2
		c0,0,0.1-0.1,0.2-0.4c0.1-0.2,0.2-0.4,0.2-0.5l-1.8-5h0.9l1.3,4L42.8,105.6z"/>
	<path class="st0" d="M46.9,105.7h0.8v0.6c0.2-0.2,0.3-0.4,0.5-0.5c0.3-0.2,0.6-0.3,1-0.3c0.6,0,1,0.2,1.4,0.6
		c0.4,0.4,0.6,1,0.6,1.8c0,1.1-0.3,1.8-0.8,2.3c-0.4,0.3-0.8,0.4-1.2,0.4c-0.4,0-0.7-0.1-0.9-0.2c-0.1-0.1-0.3-0.2-0.5-0.5v2.5h-0.8
		V105.7z M50,109.5c0.3-0.3,0.4-0.8,0.4-1.4c0-0.4-0.1-0.7-0.2-1c-0.2-0.5-0.6-0.8-1.2-0.8c-0.6,0-1,0.3-1.2,0.8
		c-0.1,0.3-0.2,0.7-0.2,1.2c0,0.4,0.1,0.7,0.2,1c0.2,0.5,0.6,0.8,1.2,0.8C49.4,109.9,49.7,109.8,50,109.5z"/>
	<path class="st0" d="M52.2,105.6h0.8v0.8c0.1-0.2,0.2-0.4,0.5-0.6c0.2-0.2,0.5-0.4,0.9-0.4c0,0,0,0,0.1,0s0.1,0,0.2,0v0.9
		c0,0-0.1,0-0.1,0c0,0-0.1,0-0.1,0c-0.4,0-0.7,0.1-0.9,0.4c-0.2,0.3-0.3,0.6-0.3,0.9v2.8h-0.8V105.6z"/>
	<path class="st0" d="M58.7,106.1c0.4,0.4,0.6,1,0.6,1.8c0,0.8-0.2,1.4-0.6,1.9c-0.4,0.5-1,0.8-1.8,0.8c-0.7,0-1.2-0.2-1.6-0.7
		c-0.4-0.5-0.6-1.1-0.6-1.8c0-0.8,0.2-1.5,0.6-1.9c0.4-0.5,1-0.7,1.7-0.7C57.8,105.5,58.3,105.7,58.7,106.1z M58.2,109.3
		c0.2-0.4,0.3-0.9,0.3-1.4c0-0.5-0.1-0.8-0.2-1.1c-0.2-0.4-0.6-0.7-1.2-0.7c-0.5,0-0.9,0.2-1.1,0.6s-0.3,0.8-0.3,1.4
		c0,0.5,0.1,0.9,0.3,1.3s0.6,0.5,1.1,0.5C57.7,110,58,109.8,58.2,109.3z"/>
	<path class="st0" d="M63,105.8c0.1,0.1,0.3,0.2,0.5,0.5v-2.5h0.8v6.7h-0.7v-0.7c-0.2,0.3-0.4,0.5-0.7,0.6s-0.6,0.2-0.9,0.2
		c-0.5,0-1-0.2-1.4-0.7c-0.4-0.5-0.6-1.1-0.6-1.8c0-0.7,0.2-1.3,0.5-1.8s0.9-0.8,1.5-0.8C62.5,105.6,62.8,105.6,63,105.8z
		 M61.2,109.4c0.2,0.4,0.6,0.5,1.1,0.5c0.4,0,0.7-0.2,0.9-0.5c0.2-0.3,0.4-0.8,0.4-1.4c0-0.6-0.1-1.1-0.4-1.4
		c-0.2-0.3-0.6-0.4-0.9-0.4c-0.4,0-0.7,0.2-1,0.5c-0.3,0.3-0.4,0.8-0.4,1.4C60.9,108.6,61,109.1,61.2,109.4z"/>
	<path class="st0" d="M66.4,105.6v3.2c0,0.2,0,0.5,0.1,0.6c0.1,0.3,0.4,0.4,0.8,0.4c0.6,0,0.9-0.3,1.1-0.8c0.1-0.3,0.2-0.6,0.2-1.1
		v-2.4h0.8v4.9h-0.8l0-0.7c-0.1,0.2-0.2,0.3-0.4,0.5c-0.3,0.3-0.7,0.4-1.1,0.4c-0.7,0-1.1-0.2-1.4-0.7c-0.1-0.2-0.2-0.6-0.2-1v-3.3
		H66.4z"/>
	<path class="st0" d="M73.9,105.9c0.3,0.3,0.5,0.7,0.6,1.4h-0.8c0-0.3-0.2-0.5-0.3-0.7c-0.2-0.2-0.4-0.3-0.8-0.3
		c-0.5,0-0.9,0.3-1.1,0.8c-0.1,0.3-0.2,0.7-0.2,1.2c0,0.5,0.1,0.9,0.3,1.2s0.5,0.5,1,0.5c0.3,0,0.6-0.1,0.8-0.3s0.3-0.5,0.4-0.8h0.8
		c-0.1,0.6-0.3,1.1-0.7,1.4s-0.8,0.4-1.4,0.4c-0.6,0-1.1-0.2-1.5-0.7c-0.4-0.5-0.6-1-0.6-1.7c0-0.9,0.2-1.5,0.6-2
		c0.4-0.5,0.9-0.7,1.6-0.7C73.1,105.5,73.6,105.6,73.9,105.9z"/>
	<path class="st0" d="M75.5,104.3h0.8v1.4h0.8v0.7h-0.8v3.2c0,0.2,0.1,0.3,0.2,0.3c0.1,0,0.2,0,0.3,0c0,0,0.1,0,0.1,0
		c0,0,0.1,0,0.2,0v0.6c-0.1,0-0.2,0-0.3,0.1c-0.1,0-0.2,0-0.3,0c-0.4,0-0.6-0.1-0.8-0.3c-0.1-0.2-0.2-0.4-0.2-0.8v-3.2h-0.7v-0.7
		h0.7V104.3z"/>
	<path class="st0" d="M78.4,109c0,0.3,0.1,0.5,0.2,0.6c0.2,0.3,0.6,0.4,1.1,0.4c0.3,0,0.6-0.1,0.8-0.2c0.2-0.1,0.4-0.3,0.4-0.6
		c0-0.2-0.1-0.4-0.3-0.5c-0.1-0.1-0.4-0.1-0.7-0.2l-0.7-0.2c-0.4-0.1-0.7-0.2-0.9-0.3c-0.4-0.2-0.5-0.5-0.5-0.9
		c0-0.5,0.2-0.8,0.5-1.1c0.3-0.3,0.8-0.4,1.4-0.4c0.7,0,1.3,0.2,1.6,0.6c0.2,0.3,0.3,0.6,0.3,0.9h-0.8c0-0.2-0.1-0.3-0.2-0.5
		c-0.2-0.2-0.5-0.3-1-0.3c-0.3,0-0.6,0.1-0.7,0.2c-0.2,0.1-0.2,0.3-0.2,0.5c0,0.2,0.1,0.4,0.3,0.5c0.1,0.1,0.3,0.1,0.5,0.2l0.5,0.1
		c0.6,0.1,1,0.3,1.2,0.4c0.3,0.2,0.5,0.5,0.5,1c0,0.4-0.2,0.8-0.5,1.1c-0.3,0.3-0.8,0.5-1.5,0.5c-0.7,0-1.2-0.2-1.6-0.5
		c-0.3-0.3-0.5-0.7-0.5-1.2H78.4z"/>
</g>
</svg>
