<svg xmlns="http://www.w3.org/2000/svg" viewBox="0 0 344.09 347.06"><defs><style>.cls-1{fill:none;stroke:#b2b2b2;stroke-miterlimit:10;stroke-width:0.5px;}.cls-2{font-size:8.14px;fill:#878787;font-family:FiraSans-Medium, Fira Sans;}</style></defs><title>desarrollo-sustentable</title><g id="Layer_2" data-name="Layer 2"><g id="Capa_1" data-name="Capa 1"><g id="desarrollo-sustentable"><circle class="cls-1" cx="170.44" cy="176.96" r="165.78"/><text class="cls-2" transform="translate(6.59 131.03) rotate(-73.48)">D</text><text class="cls-2" transform="translate(13.65 110.85) rotate(-66.38)">E</text><text class="cls-2" transform="translate(22.7 92.56) rotate(-59.44)">S</text><text class="cls-2" transform="matrix(0.61, -0.79, 0.79, 0.61, 33.92, 75.44)">A</text><text class="cls-2" transform="translate(47.37 59.52) rotate(-45.5)">R</text><text class="cls-2" transform="translate(62.83 45.2) rotate(-38.44)">R</text><text class="cls-2" transform="matrix(0.85, -0.52, 0.52, 0.85, 79.84, 32.95)">O</text><text class="cls-2" transform="translate(98.91 22.57) rotate(-24.2)">L</text><text class="cls-2" transform="translate(117.71 15.18) rotate(-17.34)">L</text><text class="cls-2" transform="matrix(0.98, -0.18, 0.18, 0.98, 137.2, 10.08)">O</text><text class="cls-2" transform="matrix(1, -0.06, 0.06, 1, 158.74, 7.25)"> </text><text class="cls-2" transform="translate(176.85 6.96) rotate(2.88)">S</text><text class="cls-2" transform="matrix(0.98, 0.17, -0.17, 0.98, 197.42, 8.97)">U</text><text class="cls-2" transform="translate(218.32 13.68) rotate(17.09)">S</text><text class="cls-2" transform="translate(237.68 20.65) rotate(24.03)">T</text><text class="cls-2" transform="matrix(0.86, 0.51, -0.51, 0.86, 255.89, 29.83)">E</text><text class="cls-2" transform="translate(272.88 41.12) rotate(37.98)">N</text><text class="cls-2" transform="translate(289.22 55.18) rotate(45.01)">T</text><text class="cls-2" transform="translate(302.66 69.91) rotate(51.76)">A</text><text class="cls-2" transform="translate(314.76 86.84) rotate(58.8)">B</text><text class="cls-2" transform="translate(324.8 105.38) rotate(65.78)">L</text><text class="cls-2" transform="translate(332.21 124.2) rotate(72.68)">E</text></g></g></g></svg>
