<?xml version="1.0" encoding="utf-8"?>
<!-- Generator: Adobe Illustrator 23.0.3, SVG Export Plug-In . SVG Version: 6.00 Build 0)  -->
<svg version="1.1" id="Capa_1" xmlns="http://www.w3.org/2000/svg" xmlns:xlink="http://www.w3.org/1999/xlink" x="0px" y="0px"
	 viewBox="0 0 106.3 124.7" style="enable-background:new 0 0 106.3 124.7;" xml:space="preserve">
<style type="text/css">
	.st0{fill:#5473B7;}
	.st1{fill:#FFFFFF;}
</style>
<g>
	<path class="st0" d="M2.6,58.5c0.5-0.5,1.1-0.7,1.8-0.7c1,0,1.7,0.3,2.1,1c0.2,0.4,0.4,0.7,0.4,1.1H5.7c-0.1-0.3-0.2-0.5-0.3-0.6
		c-0.2-0.3-0.5-0.4-1-0.4c-0.4,0-0.8,0.2-1,0.5C3.1,59.7,3,60.2,3,60.9c0,0.7,0.1,1.1,0.4,1.5c0.3,0.3,0.6,0.5,1,0.5
		c0.4,0,0.7-0.1,1-0.4c0.1-0.1,0.2-0.4,0.3-0.7h1.2c-0.1,0.6-0.4,1.1-0.8,1.5c-0.4,0.4-1,0.6-1.6,0.6c-0.8,0-1.5-0.3-2-0.8
		c-0.5-0.5-0.7-1.3-0.7-2.2C1.8,59.9,2,59.1,2.6,58.5z"/>
	<path class="st0" d="M11.4,63.2c-0.4,0.4-0.9,0.7-1.7,0.7s-1.3-0.2-1.7-0.7c-0.4-0.4-0.5-1-0.5-1.6c0-0.6,0.2-1.2,0.5-1.6
		c0.4-0.5,0.9-0.7,1.7-0.7s1.3,0.2,1.7,0.7c0.4,0.5,0.5,1,0.5,1.6C11.9,62.2,11.7,62.8,11.4,63.2z M10.5,62.6c0.2-0.2,0.3-0.6,0.3-1
		c0-0.4-0.1-0.8-0.3-1c-0.2-0.2-0.4-0.3-0.8-0.3c-0.3,0-0.6,0.1-0.8,0.3c-0.2,0.2-0.3,0.6-0.3,1c0,0.4,0.1,0.8,0.3,1
		c0.2,0.2,0.4,0.4,0.8,0.4C10,62.9,10.3,62.8,10.5,62.6z"/>
	<path class="st0" d="M18.1,59.5c0.2,0.1,0.4,0.2,0.5,0.4c0.1,0.2,0.2,0.3,0.2,0.6c0,0.1,0,0.4,0,0.6l0,2.7h-1.2V61
		c0-0.2,0-0.3-0.1-0.4c-0.1-0.2-0.3-0.3-0.6-0.3c-0.3,0-0.5,0.1-0.6,0.4c-0.1,0.1-0.1,0.3-0.1,0.5v2.6h-1.1v-2.6
		c0-0.3,0-0.4-0.1-0.6c-0.1-0.2-0.3-0.3-0.6-0.3c-0.3,0-0.5,0.1-0.6,0.3c-0.1,0.1-0.1,0.3-0.1,0.5v2.6h-1.1v-4.3h1.1v0.6
		c0.1-0.2,0.3-0.4,0.4-0.5c0.2-0.2,0.5-0.3,0.8-0.3c0.3,0,0.6,0.1,0.8,0.2c0.2,0.1,0.3,0.3,0.4,0.5c0.1-0.3,0.3-0.4,0.5-0.6
		c0.2-0.1,0.5-0.2,0.8-0.2C17.7,59.3,17.9,59.4,18.1,59.5z"/>
	<path class="st0" d="M23.5,59.9c0.4,0.4,0.5,0.9,0.5,1.6c0,0.8-0.2,1.3-0.5,1.7c-0.3,0.4-0.8,0.6-1.3,0.6c-0.3,0-0.6-0.1-0.9-0.3
		c-0.1-0.1-0.2-0.2-0.4-0.4v2.2h-1.1v-6h1.1v0.6c0.1-0.2,0.3-0.3,0.4-0.4c0.3-0.2,0.6-0.3,0.9-0.3C22.7,59.3,23.1,59.5,23.5,59.9z
		 M22.6,60.7c-0.2-0.3-0.4-0.4-0.7-0.4c-0.4,0-0.7,0.2-0.8,0.6c-0.1,0.2-0.1,0.5-0.1,0.8c0,0.5,0.1,0.9,0.4,1.1
		c0.2,0.1,0.3,0.2,0.6,0.2c0.3,0,0.6-0.1,0.7-0.4c0.2-0.2,0.2-0.6,0.2-1C22.9,61.3,22.8,61,22.6,60.7z"/>
	<path class="st0" d="M26.5,61.1c0.2,0,0.4-0.1,0.4-0.1c0.2-0.1,0.2-0.2,0.2-0.3c0-0.2-0.1-0.3-0.2-0.4c-0.1-0.1-0.3-0.1-0.5-0.1
		c-0.3,0-0.5,0.1-0.6,0.2c-0.1,0.1-0.1,0.2-0.2,0.4h-1.1c0-0.4,0.1-0.7,0.3-0.9c0.3-0.4,0.8-0.6,1.5-0.6c0.5,0,0.9,0.1,1.3,0.3
		c0.4,0.2,0.6,0.5,0.6,1.1v2c0,0.1,0,0.3,0,0.5c0,0.1,0,0.2,0.1,0.3c0,0.1,0.1,0.1,0.2,0.1v0.2h-1.2c0-0.1-0.1-0.2-0.1-0.2
		c0-0.1,0-0.2,0-0.3c-0.2,0.2-0.3,0.3-0.5,0.4c-0.2,0.1-0.5,0.2-0.8,0.2c-0.4,0-0.7-0.1-1-0.3s-0.4-0.5-0.4-0.9
		c0-0.5,0.2-0.9,0.6-1.1c0.2-0.1,0.6-0.2,1-0.3L26.5,61.1z M27.2,61.6c-0.1,0-0.1,0.1-0.2,0.1c-0.1,0-0.2,0.1-0.3,0.1l-0.3,0
		c-0.2,0-0.4,0.1-0.5,0.2c-0.2,0.1-0.3,0.3-0.3,0.5c0,0.2,0.1,0.3,0.2,0.4c0.1,0.1,0.2,0.1,0.4,0.1c0.2,0,0.5-0.1,0.7-0.2
		c0.2-0.1,0.3-0.4,0.3-0.8V61.6z"/>
	<path class="st0" d="M32.8,59.7c0.3,0.2,0.4,0.6,0.4,1.2v2.9H32v-2.6c0-0.2,0-0.4-0.1-0.5c-0.1-0.2-0.3-0.3-0.6-0.3
		c-0.4,0-0.6,0.2-0.8,0.5c-0.1,0.2-0.1,0.4-0.1,0.7v2.3h-1.1v-4.3h1.1v0.6c0.1-0.2,0.3-0.4,0.4-0.5c0.2-0.2,0.5-0.3,0.9-0.3
		C32.1,59.3,32.5,59.5,32.8,59.7z"/>
	<path class="st0" d="M34.4,64.6l0.1,0c0.1,0,0.2,0,0.3,0c0.1,0,0.2,0,0.3-0.1c0.1,0,0.1-0.1,0.2-0.3c0.1-0.1,0.1-0.2,0.1-0.3
		l-1.6-4.5H35l0.9,3.2l0.9-3.2h1.2l-1.5,4.2c-0.3,0.8-0.5,1.3-0.7,1.5c-0.2,0.2-0.5,0.3-1,0.3c-0.1,0-0.2,0-0.2,0
		c-0.1,0-0.2,0-0.3,0V64.6z"/>
	<path class="st0" d="M2.2,68.5v-0.5c0.5,0,0.9-0.1,1.1-0.3c0.2-0.1,0.4-0.4,0.5-0.8h0.6v5.6H3.5v-4H2.2z"/>
	<path class="st0" d="M6.6,71.6h0.8v0.9H6.6V71.6z"/>
	<path class="st0" d="M11,66.7h0.8v2.4h3v-2.4h0.8v5.8h-0.8v-2.7h-3v2.7H11V66.7z"/>
	<path class="st0" d="M17.5,68.3v2.8c0,0.2,0,0.4,0.1,0.5c0.1,0.3,0.4,0.4,0.7,0.4c0.5,0,0.8-0.2,1-0.7c0.1-0.2,0.1-0.6,0.1-1v-2.1
		h0.7v4.2h-0.7l0-0.6c-0.1,0.2-0.2,0.3-0.3,0.4c-0.3,0.2-0.6,0.3-1,0.3c-0.6,0-1-0.2-1.2-0.6c-0.1-0.2-0.2-0.5-0.2-0.9v-2.9H17.5z"
		/>
	<path class="st0" d="M21.2,68.3h0.7v0.6c0.2-0.2,0.3-0.4,0.5-0.5c0.2-0.2,0.5-0.2,0.8-0.2c0.3,0,0.6,0.1,0.8,0.2
		c0.1,0.1,0.2,0.2,0.3,0.4c0.2-0.2,0.3-0.4,0.6-0.5c0.2-0.1,0.5-0.2,0.7-0.2c0.6,0,1,0.2,1.2,0.6c0.1,0.2,0.2,0.5,0.2,0.9v2.8h-0.7
		v-2.9c0-0.3-0.1-0.5-0.2-0.6c-0.1-0.1-0.3-0.2-0.5-0.2c-0.3,0-0.5,0.1-0.7,0.3c-0.2,0.2-0.3,0.5-0.3,0.9v2.5h-0.7v-2.8
		c0-0.3,0-0.5-0.1-0.6c-0.1-0.2-0.3-0.3-0.6-0.3c-0.3,0-0.5,0.1-0.7,0.3c-0.2,0.2-0.3,0.6-0.3,1.1v2.2h-0.7V68.3z"/>
	<path class="st0" d="M30.2,69.9c0.2,0,0.3-0.1,0.3-0.2c0-0.1,0-0.2,0-0.3c0-0.2-0.1-0.4-0.3-0.5c-0.2-0.1-0.4-0.2-0.7-0.2
		c-0.4,0-0.6,0.1-0.8,0.3c-0.1,0.1-0.1,0.3-0.2,0.5H28c0-0.5,0.2-0.9,0.5-1.1c0.3-0.2,0.7-0.3,1.1-0.3c0.5,0,0.9,0.1,1.2,0.3
		c0.3,0.2,0.5,0.5,0.5,0.9v2.4c0,0.1,0,0.1,0,0.2c0,0,0.1,0.1,0.2,0.1c0,0,0.1,0,0.1,0s0.1,0,0.1,0v0.5c-0.1,0-0.2,0.1-0.3,0.1
		s-0.1,0-0.2,0c-0.2,0-0.4-0.1-0.5-0.3c-0.1-0.1-0.1-0.2-0.1-0.4c-0.1,0.2-0.4,0.4-0.6,0.5c-0.3,0.1-0.6,0.2-0.9,0.2
		c-0.4,0-0.7-0.1-1-0.4c-0.2-0.2-0.4-0.5-0.4-0.9c0-0.4,0.1-0.7,0.4-0.9c0.2-0.2,0.6-0.3,1-0.4L30.2,69.9z M28.7,71.8
		c0.2,0.1,0.3,0.2,0.5,0.2c0.2,0,0.5-0.1,0.7-0.2c0.4-0.2,0.6-0.5,0.6-0.9v-0.6c-0.1,0.1-0.2,0.1-0.3,0.1c-0.1,0-0.3,0.1-0.4,0.1
		l-0.4,0.1c-0.3,0-0.5,0.1-0.6,0.2c-0.2,0.1-0.3,0.3-0.3,0.6C28.5,71.6,28.6,71.7,28.7,71.8z"/>
	<path class="st0" d="M32.5,68.3h0.7v0.6c0.2-0.2,0.4-0.4,0.6-0.5c0.2-0.1,0.5-0.2,0.7-0.2c0.6,0,1,0.2,1.2,0.6
		c0.1,0.2,0.2,0.6,0.2,1v2.7h-0.7v-2.7c0-0.3,0-0.5-0.1-0.6c-0.1-0.3-0.4-0.4-0.7-0.4c-0.2,0-0.3,0-0.4,0.1
		c-0.2,0.1-0.4,0.2-0.5,0.3c-0.1,0.1-0.2,0.3-0.2,0.4c0,0.1-0.1,0.4-0.1,0.6v2.2h-0.7V68.3z"/>
	<path class="st0" d="M39.4,66.7H42c0.4,0,0.8,0.1,1.1,0.2c0.5,0.2,0.8,0.7,0.8,1.4c0,0.3-0.1,0.6-0.2,0.9c-0.1,0.2-0.3,0.4-0.6,0.5
		c0.2,0.1,0.4,0.2,0.5,0.4c0.1,0.2,0.2,0.4,0.2,0.7l0,0.8c0,0.2,0,0.4,0.1,0.5c0,0.2,0.1,0.3,0.3,0.4v0.1h-1c0-0.1,0-0.1-0.1-0.2
		c0-0.1,0-0.2,0-0.5l0-1c0-0.4-0.2-0.6-0.4-0.8C42.4,70,42.2,70,41.9,70h-1.7v2.5h-0.8V66.7z M41.9,69.3c0.4,0,0.6-0.1,0.8-0.2
		c0.2-0.1,0.3-0.4,0.3-0.8c0-0.4-0.1-0.7-0.4-0.8c-0.2-0.1-0.4-0.1-0.6-0.1h-1.9v2H41.9z"/>
	<path class="st0" d="M45,66.7h0.7v0.8H45V66.7z M45,68.3h0.7v4.2H45V68.3z"/>
	<path class="st0" d="M49.2,68.4c0.1,0.1,0.3,0.2,0.4,0.4v-0.5h0.7v3.8c0,0.5-0.1,1-0.2,1.3c-0.3,0.6-0.8,0.9-1.7,0.9
		c-0.5,0-0.8-0.1-1.1-0.3c-0.3-0.2-0.5-0.5-0.5-1h0.7c0,0.2,0.1,0.3,0.2,0.4c0.2,0.2,0.4,0.2,0.8,0.2c0.5,0,0.9-0.2,1.1-0.6
		c0.1-0.2,0.1-0.6,0.1-1.2c-0.1,0.2-0.3,0.4-0.5,0.5c-0.2,0.1-0.5,0.2-0.8,0.2c-0.5,0-0.9-0.2-1.2-0.5c-0.3-0.3-0.5-0.9-0.5-1.6
		c0-0.7,0.2-1.3,0.5-1.7c0.3-0.4,0.8-0.6,1.2-0.6C48.6,68.2,48.9,68.3,49.2,68.4z M49.2,69.2c-0.2-0.3-0.5-0.4-0.8-0.4
		c-0.5,0-0.8,0.2-1,0.7c-0.1,0.2-0.1,0.6-0.1,1c0,0.5,0.1,0.8,0.3,1.1S48,72,48.3,72c0.5,0,0.9-0.2,1.1-0.7c0.1-0.3,0.2-0.6,0.2-0.9
		C49.6,69.8,49.5,69.4,49.2,69.2z"/>
	<path class="st0" d="M51.3,66.7H52v2.2c0.2-0.2,0.3-0.4,0.5-0.4c0.2-0.2,0.5-0.2,0.9-0.2c0.6,0,1,0.2,1.2,0.6
		c0.1,0.2,0.2,0.6,0.2,1v2.7H54v-2.7c0-0.3,0-0.5-0.1-0.7c-0.1-0.2-0.4-0.3-0.7-0.3c-0.3,0-0.6,0.1-0.8,0.3
		c-0.2,0.2-0.4,0.6-0.4,1.1v2.2h-0.7V66.7z"/>
	<path class="st0" d="M55.9,67.1h0.7v1.2h0.7v0.6h-0.7v2.8c0,0.1,0,0.2,0.1,0.3c0.1,0,0.1,0,0.3,0c0,0,0.1,0,0.1,0c0,0,0.1,0,0.1,0
		v0.6c-0.1,0-0.2,0-0.3,0.1c-0.1,0-0.2,0-0.3,0c-0.3,0-0.6-0.1-0.7-0.3c-0.1-0.2-0.2-0.4-0.2-0.7v-2.8h-0.6v-0.6h0.6V67.1z"/>
	<path class="st0" d="M58.5,71.2c0,0.2,0.1,0.4,0.2,0.5c0.2,0.2,0.5,0.3,0.9,0.3c0.3,0,0.5-0.1,0.7-0.2c0.2-0.1,0.3-0.3,0.3-0.5
		c0-0.2-0.1-0.3-0.2-0.4c-0.1-0.1-0.3-0.1-0.6-0.2l-0.6-0.1c-0.4-0.1-0.6-0.2-0.8-0.3c-0.3-0.2-0.5-0.5-0.5-0.8c0-0.4,0.1-0.7,0.4-1
		c0.3-0.2,0.7-0.4,1.2-0.4c0.6,0,1.1,0.2,1.4,0.6c0.2,0.2,0.3,0.5,0.3,0.8h-0.7c0-0.2-0.1-0.3-0.2-0.4c-0.2-0.2-0.5-0.3-0.9-0.3
		c-0.3,0-0.5,0.1-0.6,0.2c-0.1,0.1-0.2,0.2-0.2,0.4c0,0.2,0.1,0.3,0.3,0.4c0.1,0.1,0.3,0.1,0.5,0.2l0.5,0.1c0.5,0.1,0.9,0.2,1,0.4
		c0.3,0.2,0.4,0.5,0.4,0.9c0,0.4-0.1,0.7-0.4,1c-0.3,0.3-0.7,0.4-1.3,0.4c-0.6,0-1.1-0.1-1.4-0.4c-0.3-0.3-0.4-0.6-0.4-1.1H58.5z"/>
	<path class="st0" d="M2,80c0.2-0.4,0.5-0.7,1-1l0.8-0.4c0.3-0.2,0.6-0.4,0.7-0.5c0.2-0.2,0.3-0.5,0.3-0.8c0-0.3-0.1-0.6-0.3-0.8
		S4,76.2,3.7,76.2c-0.5,0-0.8,0.2-1,0.6c-0.1,0.2-0.2,0.5-0.2,0.8H1.8c0-0.5,0.1-0.9,0.3-1.2c0.3-0.5,0.9-0.8,1.6-0.8
		c0.6,0,1.1,0.2,1.4,0.5c0.3,0.3,0.4,0.7,0.4,1.2c0,0.5-0.2,0.8-0.5,1.2c-0.2,0.2-0.5,0.4-1,0.7l-0.5,0.3c-0.3,0.1-0.5,0.3-0.6,0.4
		c-0.3,0.2-0.4,0.5-0.5,0.8h3.1v0.7H1.7C1.7,80.7,1.8,80.3,2,80z"/>
	<path class="st0" d="M6.6,80.4h0.8v0.9H6.6V80.4z"/>
	<path class="st0" d="M15.1,75.4v0.7h-2v5.1h-0.8v-5.1h-2v-0.7H15.1z"/>
	<path class="st0" d="M15.4,77h0.7v0.7c0.1-0.1,0.2-0.3,0.4-0.5c0.2-0.2,0.5-0.3,0.7-0.3c0,0,0,0,0.1,0c0,0,0.1,0,0.2,0v0.7
		c0,0-0.1,0-0.1,0c0,0-0.1,0-0.1,0c-0.4,0-0.6,0.1-0.8,0.3c-0.2,0.2-0.3,0.5-0.3,0.8v2.4h-0.7V77z"/>
	<path class="st0" d="M20.4,78.7c0.2,0,0.3-0.1,0.3-0.2c0-0.1,0-0.2,0-0.3c0-0.2-0.1-0.4-0.3-0.5c-0.2-0.1-0.4-0.2-0.7-0.2
		c-0.4,0-0.6,0.1-0.8,0.3c-0.1,0.1-0.1,0.3-0.2,0.5h-0.7c0-0.5,0.2-0.9,0.5-1.1c0.3-0.2,0.7-0.3,1.1-0.3c0.5,0,0.9,0.1,1.2,0.3
		c0.3,0.2,0.5,0.5,0.5,0.9v2.4c0,0.1,0,0.1,0,0.2c0,0,0.1,0.1,0.2,0.1c0,0,0.1,0,0.1,0s0.1,0,0.1,0v0.5c-0.1,0-0.2,0.1-0.3,0.1
		c-0.1,0-0.1,0-0.2,0c-0.2,0-0.4-0.1-0.5-0.3c-0.1-0.1-0.1-0.2-0.1-0.4c-0.1,0.2-0.4,0.4-0.6,0.5c-0.3,0.1-0.6,0.2-0.9,0.2
		c-0.4,0-0.7-0.1-1-0.4c-0.2-0.2-0.4-0.5-0.4-0.9c0-0.4,0.1-0.7,0.4-0.9c0.2-0.2,0.6-0.3,1-0.4L20.4,78.7z M18.9,80.6
		c0.2,0.1,0.3,0.2,0.5,0.2c0.2,0,0.5-0.1,0.7-0.2c0.4-0.2,0.6-0.5,0.6-0.9v-0.6c-0.1,0.1-0.2,0.1-0.3,0.1c-0.1,0-0.3,0.1-0.4,0.1
		l-0.4,0.1c-0.3,0-0.5,0.1-0.6,0.2c-0.2,0.1-0.3,0.3-0.3,0.6C18.6,80.3,18.7,80.5,18.9,80.6z"/>
	<path class="st0" d="M22.6,75.4h0.7v0.8h-0.7V75.4z M22.6,77h0.7v4.2h-0.7V77z"/>
	<path class="st0" d="M24.4,77h0.7v0.6c0.2-0.2,0.4-0.4,0.6-0.5c0.2-0.1,0.5-0.2,0.7-0.2c0.6,0,1,0.2,1.2,0.6c0.1,0.2,0.2,0.6,0.2,1
		v2.7h-0.7v-2.7c0-0.3,0-0.5-0.1-0.6c-0.1-0.3-0.4-0.4-0.7-0.4c-0.2,0-0.3,0-0.4,0.1c-0.2,0.1-0.4,0.2-0.5,0.3
		c-0.1,0.1-0.2,0.3-0.2,0.4c0,0.1-0.1,0.4-0.1,0.6v2.2h-0.7V77z"/>
	<path class="st0" d="M28.9,75.4h0.7v0.8h-0.7V75.4z M28.9,77h0.7v4.2h-0.7V77z"/>
	<path class="st0" d="M30.7,77h0.7v0.6c0.2-0.2,0.4-0.4,0.6-0.5c0.2-0.1,0.5-0.2,0.7-0.2c0.6,0,1,0.2,1.2,0.6c0.1,0.2,0.2,0.6,0.2,1
		v2.7h-0.7v-2.7c0-0.3,0-0.5-0.1-0.6c-0.1-0.3-0.4-0.4-0.7-0.4c-0.2,0-0.3,0-0.4,0.1c-0.2,0.1-0.4,0.2-0.5,0.3
		c-0.1,0.1-0.2,0.3-0.2,0.4c0,0.1-0.1,0.4-0.1,0.6v2.2h-0.7V77z"/>
	<path class="st0" d="M37.5,77.2c0.1,0.1,0.3,0.2,0.4,0.4V77h0.7v3.8c0,0.5-0.1,1-0.2,1.3C38,82.7,37.5,83,36.7,83
		c-0.5,0-0.8-0.1-1.1-0.3c-0.3-0.2-0.5-0.5-0.5-1h0.7c0,0.2,0.1,0.3,0.2,0.4c0.2,0.2,0.4,0.2,0.8,0.2c0.5,0,0.9-0.2,1.1-0.6
		c0.1-0.2,0.1-0.6,0.1-1.2c-0.1,0.2-0.3,0.4-0.5,0.5c-0.2,0.1-0.5,0.2-0.8,0.2c-0.5,0-0.9-0.2-1.2-0.5c-0.3-0.3-0.5-0.9-0.5-1.6
		c0-0.7,0.2-1.3,0.5-1.7c0.3-0.4,0.8-0.6,1.2-0.6C37,76.9,37.3,77,37.5,77.2z M37.6,77.9c-0.2-0.3-0.5-0.4-0.8-0.4
		c-0.5,0-0.8,0.2-1,0.7c-0.1,0.2-0.1,0.6-0.1,1c0,0.5,0.1,0.8,0.3,1.1s0.5,0.4,0.8,0.4c0.5,0,0.9-0.2,1.1-0.7
		c0.1-0.3,0.2-0.6,0.2-0.9C37.9,78.6,37.8,78.2,37.6,77.9z"/>
	<path class="st0" d="M2.1,89.6c-0.3-0.4-0.5-0.8-0.5-1.3h0.7c0,0.4,0.1,0.6,0.2,0.8c0.2,0.3,0.5,0.4,1,0.4c0.4,0,0.7-0.1,0.9-0.3
		c0.2-0.2,0.3-0.5,0.3-0.8c0-0.4-0.1-0.7-0.4-0.8c-0.2-0.2-0.6-0.2-1-0.2c0,0-0.1,0-0.1,0c0,0-0.1,0-0.1,0v-0.6c0.1,0,0.1,0,0.2,0
		c0.1,0,0.1,0,0.2,0c0.3,0,0.5,0,0.7-0.1c0.3-0.1,0.4-0.4,0.4-0.8c0-0.3-0.1-0.5-0.3-0.7C4.1,85,3.9,85,3.6,85c-0.5,0-0.8,0.2-1,0.5
		c-0.1,0.2-0.2,0.4-0.2,0.7H1.8c0-0.4,0.1-0.8,0.3-1.1c0.3-0.5,0.8-0.8,1.5-0.8c0.6,0,1,0.1,1.3,0.4c0.3,0.3,0.5,0.6,0.5,1.1
		c0,0.3-0.1,0.6-0.3,0.8c-0.1,0.1-0.3,0.2-0.4,0.3c0.3,0.1,0.5,0.2,0.7,0.5c0.2,0.2,0.3,0.5,0.3,0.9c0,0.5-0.2,1-0.5,1.3
		c-0.4,0.3-0.9,0.5-1.5,0.5C2.8,90.1,2.4,89.9,2.1,89.6z"/>
	<path class="st0" d="M6.6,89.1h0.8V90H6.6V89.1z"/>
	<path class="st0" d="M11.1,84.2h2.6c0.4,0,0.8,0.1,1.1,0.2c0.5,0.2,0.8,0.7,0.8,1.4c0,0.3-0.1,0.6-0.2,0.9
		c-0.1,0.2-0.3,0.4-0.6,0.5c0.2,0.1,0.4,0.2,0.5,0.4c0.1,0.2,0.2,0.4,0.2,0.7l0,0.8c0,0.2,0,0.4,0.1,0.5c0,0.2,0.1,0.3,0.3,0.4V90
		h-1c0-0.1,0-0.1-0.1-0.2c0-0.1,0-0.2,0-0.5l0-1c0-0.4-0.2-0.6-0.4-0.8c-0.1-0.1-0.4-0.1-0.7-0.1h-1.7V90h-0.8V84.2z M13.7,86.8
		c0.4,0,0.6-0.1,0.8-0.2s0.3-0.4,0.3-0.8c0-0.4-0.1-0.7-0.4-0.8c-0.2-0.1-0.4-0.1-0.6-0.1h-1.9v2H13.7z"/>
	<path class="st0" d="M19.4,85.9c0.3,0.1,0.5,0.3,0.6,0.5c0.1,0.2,0.2,0.5,0.3,0.7c0,0.2,0.1,0.5,0.1,0.9h-3.1c0,0.4,0.1,0.8,0.3,1
		c0.2,0.3,0.5,0.4,0.9,0.4c0.4,0,0.7-0.1,0.9-0.4c0.1-0.1,0.2-0.3,0.3-0.5h0.7c0,0.2-0.1,0.3-0.2,0.5c-0.1,0.2-0.2,0.3-0.3,0.5
		c-0.2,0.2-0.5,0.4-0.8,0.4c-0.2,0-0.4,0.1-0.6,0.1c-0.5,0-1-0.2-1.3-0.6c-0.4-0.4-0.5-0.9-0.5-1.6c0-0.7,0.2-1.2,0.5-1.7
		c0.4-0.4,0.8-0.6,1.4-0.6C18.8,85.7,19.1,85.7,19.4,85.9z M19.6,87.5c0-0.3-0.1-0.6-0.2-0.7c-0.2-0.3-0.5-0.5-1-0.5
		c-0.3,0-0.6,0.1-0.8,0.4c-0.2,0.2-0.3,0.5-0.3,0.9H19.6z"/>
	<path class="st0" d="M24,86c0.3,0.2,0.5,0.6,0.5,1.2h-0.7c0-0.3-0.1-0.5-0.3-0.6c-0.2-0.2-0.4-0.3-0.7-0.3c-0.5,0-0.8,0.2-1,0.7
		c-0.1,0.3-0.2,0.6-0.2,1.1c0,0.4,0.1,0.8,0.3,1.1c0.2,0.3,0.5,0.4,0.8,0.4c0.3,0,0.5-0.1,0.7-0.3c0.2-0.2,0.3-0.4,0.4-0.7h0.7
		c-0.1,0.6-0.3,1-0.6,1.2c-0.3,0.3-0.7,0.4-1.2,0.4c-0.6,0-1-0.2-1.3-0.6c-0.3-0.4-0.5-0.9-0.5-1.5c0-0.7,0.2-1.3,0.5-1.7
		c0.4-0.4,0.8-0.6,1.4-0.6C23.3,85.6,23.7,85.7,24,86z"/>
	<path class="st0" d="M28.3,86.2c0.4,0.4,0.6,0.9,0.6,1.6c0,0.7-0.2,1.2-0.5,1.7c-0.3,0.4-0.8,0.7-1.5,0.7c-0.6,0-1-0.2-1.4-0.6
		C25.2,89.1,25,88.6,25,88c0-0.7,0.2-1.3,0.5-1.7s0.8-0.6,1.4-0.6C27.5,85.6,28,85.8,28.3,86.2z M27.9,89c0.2-0.4,0.3-0.8,0.3-1.2
		c0-0.4-0.1-0.7-0.2-1c-0.2-0.4-0.5-0.6-1-0.6c-0.4,0-0.7,0.2-0.9,0.5c-0.2,0.3-0.3,0.7-0.3,1.2c0,0.4,0.1,0.8,0.3,1.1
		c0.2,0.3,0.5,0.4,0.9,0.4C27.4,89.5,27.7,89.3,27.9,89z"/>
	<path class="st0" d="M32.1,85.9c0.1,0.1,0.3,0.2,0.4,0.4v-0.5h0.7v3.8c0,0.5-0.1,1-0.2,1.3c-0.3,0.6-0.8,0.9-1.7,0.9
		c-0.5,0-0.8-0.1-1.1-0.3c-0.3-0.2-0.5-0.5-0.5-1h0.7c0,0.2,0.1,0.3,0.2,0.4c0.2,0.2,0.4,0.2,0.8,0.2c0.5,0,0.9-0.2,1.1-0.6
		c0.1-0.2,0.1-0.6,0.1-1.2c-0.1,0.2-0.3,0.4-0.5,0.5C31.8,90,31.5,90,31.2,90c-0.5,0-0.9-0.2-1.2-0.5c-0.3-0.3-0.5-0.9-0.5-1.6
		c0-0.7,0.2-1.3,0.5-1.7c0.3-0.4,0.8-0.6,1.2-0.6C31.6,85.7,31.9,85.8,32.1,85.9z M32.2,86.7c-0.2-0.3-0.5-0.4-0.8-0.4
		c-0.5,0-0.8,0.2-1,0.7c-0.1,0.2-0.1,0.6-0.1,1c0,0.5,0.1,0.8,0.3,1.1s0.5,0.4,0.8,0.4c0.5,0,0.9-0.2,1.1-0.7
		c0.1-0.3,0.2-0.6,0.2-0.9C32.5,87.3,32.4,86.9,32.2,86.7z"/>
	<path class="st0" d="M34.3,85.8h0.7v0.6c0.2-0.2,0.4-0.4,0.6-0.5c0.2-0.1,0.5-0.2,0.7-0.2c0.6,0,1,0.2,1.2,0.6
		c0.1,0.2,0.2,0.6,0.2,1V90H37v-2.7c0-0.3,0-0.5-0.1-0.6c-0.1-0.3-0.4-0.4-0.7-0.4c-0.2,0-0.3,0-0.4,0.1c-0.2,0.1-0.4,0.2-0.5,0.3
		C35.1,86.8,35,87,35,87.1c0,0.1-0.1,0.4-0.1,0.6V90h-0.7V85.8z"/>
	<path class="st0" d="M38.7,84.2h0.7V85h-0.7V84.2z M38.7,85.8h0.7V90h-0.7V85.8z"/>
	<path class="st0" d="M40.7,84.6h0.7v1.2h0.7v0.6h-0.7v2.8c0,0.1,0,0.2,0.1,0.3c0.1,0,0.1,0,0.3,0c0,0,0.1,0,0.1,0c0,0,0.1,0,0.1,0
		V90c-0.1,0-0.2,0-0.3,0.1c-0.1,0-0.2,0-0.3,0c-0.3,0-0.6-0.1-0.7-0.3c-0.1-0.2-0.2-0.4-0.2-0.7v-2.8h-0.6v-0.6h0.6V84.6z"/>
	<path class="st0" d="M42.8,84.2h0.7V85h-0.7V84.2z M42.8,85.8h0.7V90h-0.7V85.8z"/>
	<path class="st0" d="M47.6,86.2c0.4,0.4,0.6,0.9,0.6,1.6c0,0.7-0.2,1.2-0.5,1.7c-0.3,0.4-0.8,0.7-1.5,0.7c-0.6,0-1-0.2-1.4-0.6
		c-0.3-0.4-0.5-0.9-0.5-1.6c0-0.7,0.2-1.3,0.5-1.7c0.4-0.4,0.8-0.6,1.4-0.6C46.8,85.6,47.3,85.8,47.6,86.2z M47.2,89
		c0.2-0.4,0.3-0.8,0.3-1.2c0-0.4-0.1-0.7-0.2-1c-0.2-0.4-0.5-0.6-1-0.6c-0.4,0-0.7,0.2-0.9,0.5c-0.2,0.3-0.3,0.7-0.3,1.2
		c0,0.4,0.1,0.8,0.3,1.1c0.2,0.3,0.5,0.4,0.9,0.4C46.7,89.5,47,89.3,47.2,89z"/>
	<path class="st0" d="M49.1,85.8h0.7v0.6c0.2-0.2,0.4-0.4,0.6-0.5c0.2-0.1,0.5-0.2,0.7-0.2c0.6,0,1,0.2,1.2,0.6
		c0.1,0.2,0.2,0.6,0.2,1V90h-0.7v-2.7c0-0.3,0-0.5-0.1-0.6c-0.1-0.3-0.4-0.4-0.7-0.4c-0.2,0-0.3,0-0.4,0.1c-0.2,0.1-0.4,0.2-0.5,0.3
		c-0.1,0.1-0.2,0.3-0.2,0.4c0,0.1-0.1,0.4-0.1,0.6V90h-0.7V85.8z"/>
	<path class="st0" d="M4.1,98.7v-1.4H1.6v-0.7l2.6-3.6h0.6v3.7h0.8v0.6H4.8v1.4H4.1z M4.1,96.7v-2.6l-1.8,2.6H4.1z"/>
	<path class="st0" d="M6.6,97.9h0.8v0.9H6.6V97.9z"/>
	<path class="st0" d="M11.1,92.9h4v0.7h-3.2v1.8h2.8v0.7h-2.8v2.6h-0.8V92.9z"/>
	<path class="st0" d="M18.1,96.2c0.2,0,0.3-0.1,0.3-0.2c0-0.1,0-0.2,0-0.3c0-0.2-0.1-0.4-0.3-0.5c-0.2-0.1-0.4-0.2-0.7-0.2
		c-0.4,0-0.6,0.1-0.8,0.3c-0.1,0.1-0.1,0.3-0.2,0.5h-0.7c0-0.5,0.2-0.9,0.5-1.1c0.3-0.2,0.7-0.3,1.1-0.3c0.5,0,0.9,0.1,1.2,0.3
		c0.3,0.2,0.5,0.5,0.5,0.9V98c0,0.1,0,0.1,0,0.2c0,0,0.1,0.1,0.2,0.1c0,0,0.1,0,0.1,0c0,0,0.1,0,0.1,0v0.5c-0.1,0-0.2,0.1-0.3,0.1
		s-0.1,0-0.2,0c-0.2,0-0.4-0.1-0.5-0.3c-0.1-0.1-0.1-0.2-0.1-0.4c-0.1,0.2-0.4,0.4-0.6,0.5c-0.3,0.1-0.6,0.2-0.9,0.2
		c-0.4,0-0.7-0.1-1-0.4c-0.2-0.2-0.4-0.5-0.4-0.9c0-0.4,0.1-0.7,0.4-0.9c0.2-0.2,0.6-0.3,1-0.4L18.1,96.2z M16.6,98.1
		c0.2,0.1,0.3,0.2,0.5,0.2c0.2,0,0.5-0.1,0.7-0.2c0.4-0.2,0.6-0.5,0.6-0.9v-0.6c-0.1,0.1-0.2,0.1-0.3,0.1c-0.1,0-0.3,0.1-0.4,0.1
		l-0.4,0.1c-0.3,0-0.5,0.1-0.6,0.2c-0.2,0.1-0.3,0.3-0.3,0.6C16.4,97.8,16.5,98,16.6,98.1z"/>
	<path class="st0" d="M20.3,92.9h0.7v0.8h-0.7V92.9z M20.3,94.5h0.7v4.2h-0.7V94.5z"/>
	<path class="st0" d="M22.1,94.5h0.7v0.7c0.1-0.1,0.2-0.3,0.4-0.5c0.2-0.2,0.5-0.3,0.7-0.3c0,0,0,0,0.1,0c0,0,0.1,0,0.2,0v0.7
		c0,0-0.1,0-0.1,0c0,0-0.1,0-0.1,0c-0.4,0-0.6,0.1-0.8,0.3c-0.2,0.2-0.3,0.5-0.3,0.8v2.4h-0.7V94.5z"/>
	<path class="st0" d="M27.2,93.3h0.7v1.2h0.7v0.6h-0.7v2.8c0,0.1,0,0.2,0.1,0.3c0.1,0,0.1,0,0.3,0c0,0,0.1,0,0.1,0c0,0,0.1,0,0.1,0
		v0.6c-0.1,0-0.2,0-0.3,0.1c-0.1,0-0.2,0-0.3,0c-0.3,0-0.6-0.1-0.7-0.3c-0.1-0.2-0.2-0.4-0.2-0.7v-2.8h-0.6v-0.6h0.6V93.3z"/>
	<path class="st0" d="M29.3,94.5H30v0.7c0.1-0.1,0.2-0.3,0.4-0.5c0.2-0.2,0.5-0.3,0.7-0.3c0,0,0,0,0.1,0c0,0,0.1,0,0.2,0v0.7
		c0,0-0.1,0-0.1,0c0,0-0.1,0-0.1,0c-0.4,0-0.6,0.1-0.8,0.3C30.1,95.7,30,96,30,96.3v2.4h-0.7V94.5z"/>
	<path class="st0" d="M34.3,96.2c0.2,0,0.3-0.1,0.3-0.2c0-0.1,0-0.2,0-0.3c0-0.2-0.1-0.4-0.3-0.5C34.2,95.1,34,95,33.6,95
		c-0.4,0-0.6,0.1-0.8,0.3c-0.1,0.1-0.1,0.3-0.2,0.5H32c0-0.5,0.2-0.9,0.5-1.1c0.3-0.2,0.7-0.3,1.1-0.3c0.5,0,0.9,0.1,1.2,0.3
		c0.3,0.2,0.5,0.5,0.5,0.9V98c0,0.1,0,0.1,0,0.2c0,0,0.1,0.1,0.2,0.1c0,0,0.1,0,0.1,0s0.1,0,0.1,0v0.5c-0.1,0-0.2,0.1-0.3,0.1
		c-0.1,0-0.1,0-0.2,0c-0.2,0-0.4-0.1-0.5-0.3c-0.1-0.1-0.1-0.2-0.1-0.4c-0.1,0.2-0.4,0.4-0.6,0.5c-0.3,0.1-0.6,0.2-0.9,0.2
		c-0.4,0-0.7-0.1-1-0.4c-0.2-0.2-0.4-0.5-0.4-0.9c0-0.4,0.1-0.7,0.4-0.9c0.2-0.2,0.6-0.3,1-0.4L34.3,96.2z M32.8,98.1
		c0.2,0.1,0.3,0.2,0.5,0.2c0.2,0,0.5-0.1,0.7-0.2c0.4-0.2,0.6-0.5,0.6-0.9v-0.6c-0.1,0.1-0.2,0.1-0.3,0.1c-0.1,0-0.3,0.1-0.4,0.1
		l-0.4,0.1c-0.3,0-0.5,0.1-0.6,0.2c-0.2,0.1-0.3,0.3-0.3,0.6C32.5,97.8,32.6,98,32.8,98.1z"/>
	<path class="st0" d="M38.8,94.6c0.1,0.1,0.3,0.2,0.4,0.4v-2.1h0.7v5.8h-0.6v-0.6c-0.2,0.3-0.4,0.4-0.6,0.6
		c-0.2,0.1-0.5,0.2-0.8,0.2c-0.5,0-0.9-0.2-1.2-0.6c-0.3-0.4-0.5-0.9-0.5-1.6c0-0.6,0.2-1.1,0.5-1.6c0.3-0.5,0.8-0.7,1.3-0.7
		C38.3,94.4,38.6,94.5,38.8,94.6z M37.2,97.8c0.2,0.3,0.5,0.5,0.9,0.5c0.3,0,0.6-0.1,0.8-0.4c0.2-0.3,0.3-0.7,0.3-1.2
		c0-0.5-0.1-0.9-0.3-1.2S38.4,95,38.1,95c-0.4,0-0.6,0.1-0.9,0.4c-0.2,0.3-0.3,0.7-0.3,1.2C36.9,97.1,37,97.5,37.2,97.8z"/>
	<path class="st0" d="M43.6,94.6c0.3,0.1,0.5,0.3,0.6,0.5c0.1,0.2,0.2,0.5,0.3,0.7c0,0.2,0.1,0.5,0.1,0.9h-3.1c0,0.4,0.1,0.8,0.3,1
		c0.2,0.3,0.5,0.4,0.9,0.4c0.4,0,0.7-0.1,0.9-0.4c0.1-0.1,0.2-0.3,0.3-0.5h0.7c0,0.2-0.1,0.3-0.2,0.5c-0.1,0.2-0.2,0.3-0.3,0.5
		c-0.2,0.2-0.5,0.4-0.8,0.4c-0.2,0-0.4,0.1-0.6,0.1c-0.5,0-1-0.2-1.3-0.6c-0.4-0.4-0.5-0.9-0.5-1.6c0-0.7,0.2-1.2,0.5-1.7
		c0.4-0.4,0.8-0.6,1.4-0.6C43,94.4,43.3,94.5,43.6,94.6z M43.8,96.3c0-0.3-0.1-0.6-0.2-0.7c-0.2-0.3-0.5-0.5-1-0.5
		c-0.3,0-0.6,0.1-0.8,0.4c-0.2,0.2-0.3,0.5-0.3,0.9H43.8z"/>
	<path class="st0" d="M2.4,106c0,0.4,0.2,0.7,0.6,0.8c0.2,0.1,0.4,0.1,0.6,0.1c0.4,0,0.7-0.1,0.9-0.4c0.2-0.3,0.3-0.6,0.3-0.9
		c0-0.4-0.1-0.7-0.4-0.9c-0.2-0.2-0.5-0.3-0.9-0.3c-0.2,0-0.5,0-0.6,0.1c-0.2,0.1-0.3,0.2-0.4,0.4l-0.6,0l0.4-3h2.9v0.7H2.8
		l-0.2,1.6c0.1-0.1,0.3-0.2,0.4-0.2c0.2-0.1,0.5-0.1,0.7-0.1c0.5,0,1,0.2,1.3,0.5c0.4,0.3,0.5,0.8,0.5,1.3c0,0.5-0.2,1-0.5,1.4
		c-0.3,0.4-0.9,0.6-1.6,0.6c-0.5,0-0.9-0.1-1.2-0.4c-0.4-0.3-0.6-0.7-0.6-1.2H2.4z"/>
	<path class="st0" d="M6.6,106.6h0.8v0.9H6.6V106.6z"/>
	<path class="st0" d="M11.1,101.7h2.6c0.5,0,0.9,0.1,1.2,0.4c0.3,0.3,0.5,0.7,0.5,1.2c0,0.5-0.1,0.8-0.4,1.2
		c-0.3,0.3-0.7,0.5-1.3,0.5h-1.8v2.4h-0.8V101.7z M14.1,102.5c-0.2-0.1-0.4-0.1-0.7-0.1h-1.5v2h1.5c0.3,0,0.6-0.1,0.9-0.2
		c0.2-0.2,0.3-0.4,0.3-0.8C14.6,102.9,14.4,102.6,14.1,102.5z"/>
	<path class="st0" d="M16.3,103.2H17v0.7c0.1-0.1,0.2-0.3,0.4-0.5c0.2-0.2,0.5-0.3,0.7-0.3c0,0,0,0,0.1,0c0,0,0.1,0,0.2,0v0.7
		c0,0-0.1,0-0.1,0c0,0-0.1,0-0.1,0c-0.4,0-0.6,0.1-0.8,0.3c-0.2,0.2-0.3,0.5-0.3,0.8v2.4h-0.7V103.2z"/>
	<path class="st0" d="M22,103.7c0.4,0.4,0.6,0.9,0.6,1.6c0,0.7-0.2,1.2-0.5,1.7c-0.3,0.4-0.8,0.7-1.5,0.7c-0.6,0-1-0.2-1.4-0.6
		c-0.3-0.4-0.5-0.9-0.5-1.6c0-0.7,0.2-1.3,0.5-1.7s0.8-0.6,1.4-0.6C21.2,103.1,21.7,103.3,22,103.7z M21.6,106.5
		c0.2-0.4,0.3-0.8,0.3-1.2c0-0.4-0.1-0.7-0.2-1c-0.2-0.4-0.5-0.6-1-0.6c-0.4,0-0.7,0.2-0.9,0.5c-0.2,0.3-0.3,0.7-0.3,1.2
		c0,0.4,0.1,0.8,0.3,1.1c0.2,0.3,0.5,0.4,0.9,0.4C21.1,107,21.4,106.8,21.6,106.5z"/>
	<path class="st0" d="M23.8,102c0.2-0.2,0.5-0.4,1-0.4c0,0,0.1,0,0.1,0c0,0,0.1,0,0.2,0v0.6c-0.1,0-0.1,0-0.2,0c0,0-0.1,0-0.1,0
		c-0.2,0-0.3,0.1-0.4,0.2c0,0.1-0.1,0.4-0.1,0.9h0.7v0.6h-0.7v3.6h-0.7v-3.6h-0.6v-0.6h0.6v-0.7C23.7,102.3,23.7,102.1,23.8,102z"/>
	<path class="st0" d="M25.7,101.7h0.7v0.8h-0.7V101.7z M25.7,103.3h0.7v4.2h-0.7V103.3z"/>
	<path class="st0" d="M27.7,102.1h0.7v1.2H29v0.6h-0.7v2.8c0,0.1,0,0.2,0.1,0.3c0.1,0,0.1,0,0.3,0c0,0,0.1,0,0.1,0c0,0,0.1,0,0.1,0
		v0.6c-0.1,0-0.2,0-0.3,0.1c-0.1,0-0.2,0-0.3,0c-0.3,0-0.6-0.1-0.7-0.3c-0.1-0.2-0.2-0.4-0.2-0.7v-2.8h-0.6v-0.6h0.6V102.1z"/>
	<path class="st0" d="M32,104.9c0.2,0,0.3-0.1,0.3-0.2c0-0.1,0-0.2,0-0.3c0-0.2-0.1-0.4-0.3-0.5c-0.2-0.1-0.4-0.2-0.7-0.2
		c-0.4,0-0.6,0.1-0.8,0.3c-0.1,0.1-0.1,0.3-0.2,0.5h-0.7c0-0.5,0.2-0.9,0.5-1.1c0.3-0.2,0.7-0.3,1.1-0.3c0.5,0,0.9,0.1,1.2,0.3
		c0.3,0.2,0.5,0.5,0.5,0.9v2.4c0,0.1,0,0.1,0,0.2c0,0,0.1,0.1,0.2,0.1c0,0,0.1,0,0.1,0s0.1,0,0.1,0v0.5c-0.1,0-0.2,0.1-0.3,0.1
		c-0.1,0-0.1,0-0.2,0c-0.2,0-0.4-0.1-0.5-0.3c-0.1-0.1-0.1-0.2-0.1-0.4c-0.1,0.2-0.4,0.4-0.6,0.5c-0.3,0.1-0.6,0.2-0.9,0.2
		c-0.4,0-0.7-0.1-1-0.4c-0.2-0.2-0.4-0.5-0.4-0.9c0-0.4,0.1-0.7,0.4-0.9c0.2-0.2,0.6-0.3,1-0.4L32,104.9z M30.5,106.8
		c0.2,0.1,0.3,0.2,0.5,0.2c0.2,0,0.5-0.1,0.7-0.2c0.4-0.2,0.6-0.5,0.6-0.9v-0.6c-0.1,0.1-0.2,0.1-0.3,0.1c-0.1,0-0.3,0.1-0.4,0.1
		l-0.4,0.1c-0.3,0-0.5,0.1-0.6,0.2c-0.2,0.1-0.3,0.3-0.3,0.6C30.3,106.6,30.4,106.7,30.5,106.8z"/>
	<path class="st0" d="M34.2,101.7h0.7v2.1c0.2-0.2,0.3-0.4,0.6-0.5c0.2-0.1,0.5-0.2,0.7-0.2c0.5,0,1,0.2,1.3,0.5
		c0.3,0.4,0.5,0.9,0.5,1.6c0,0.7-0.2,1.2-0.5,1.7c-0.3,0.4-0.8,0.7-1.3,0.7c-0.3,0-0.6-0.1-0.8-0.2c-0.1-0.1-0.3-0.2-0.4-0.4v0.5
		h-0.7V101.7z M36.9,106.5c0.2-0.3,0.3-0.7,0.3-1.2c0-0.4-0.1-0.8-0.3-1.1c-0.2-0.3-0.5-0.4-0.8-0.4c-0.3,0-0.6,0.1-0.9,0.4
		c-0.2,0.2-0.4,0.6-0.4,1.2c0,0.4,0.1,0.7,0.2,1c0.2,0.5,0.5,0.7,1,0.7C36.4,107,36.7,106.8,36.9,106.5z"/>
	<path class="st0" d="M38.7,101.7h0.7v0.8h-0.7V101.7z M38.7,103.3h0.7v4.2h-0.7V103.3z"/>
	<path class="st0" d="M40.6,101.7h0.7v5.8h-0.7V101.7z"/>
	<path class="st0" d="M42.3,101.7H43v0.8h-0.7V101.7z M42.3,103.3H43v4.2h-0.7V103.3z"/>
	<path class="st0" d="M44.3,102.1H45v1.2h0.7v0.6H45v2.8c0,0.1,0,0.2,0.1,0.3c0.1,0,0.1,0,0.3,0c0,0,0.1,0,0.1,0c0,0,0.1,0,0.1,0
		v0.6c-0.1,0-0.2,0-0.3,0.1c-0.1,0-0.2,0-0.3,0c-0.3,0-0.6-0.1-0.7-0.3c-0.1-0.2-0.2-0.4-0.2-0.7v-2.8h-0.6v-0.6h0.6V102.1z"/>
	<path class="st0" d="M49,103.2h0.8c-0.1,0.3-0.3,0.9-0.7,1.9c-0.3,0.7-0.5,1.3-0.6,1.8c-0.4,1.1-0.7,1.7-0.9,2
		c-0.2,0.2-0.5,0.4-0.9,0.4c-0.1,0-0.2,0-0.2,0c-0.1,0-0.1,0-0.2,0v-0.6c0.1,0,0.2,0.1,0.3,0.1c0.1,0,0.1,0,0.1,0
		c0.1,0,0.2,0,0.3-0.1c0.1,0,0.1-0.1,0.2-0.2c0,0,0.1-0.1,0.1-0.3c0.1-0.2,0.1-0.3,0.2-0.4l-1.6-4.3h0.8l1.1,3.4L49,103.2z"/>
	<path class="st0" d="M54.9,104.9c0.2,0,0.3-0.1,0.3-0.2c0-0.1,0-0.2,0-0.3c0-0.2-0.1-0.4-0.3-0.5c-0.2-0.1-0.4-0.2-0.7-0.2
		c-0.4,0-0.6,0.1-0.8,0.3c-0.1,0.1-0.1,0.3-0.2,0.5h-0.7c0-0.5,0.2-0.9,0.5-1.1c0.3-0.2,0.7-0.3,1.1-0.3c0.5,0,0.9,0.1,1.2,0.3
		c0.3,0.2,0.5,0.5,0.5,0.9v2.4c0,0.1,0,0.1,0,0.2c0,0,0.1,0.1,0.2,0.1c0,0,0.1,0,0.1,0s0.1,0,0.1,0v0.5c-0.1,0-0.2,0.1-0.3,0.1
		c-0.1,0-0.1,0-0.2,0c-0.2,0-0.4-0.1-0.5-0.3c-0.1-0.1-0.1-0.2-0.1-0.4c-0.1,0.2-0.4,0.4-0.6,0.5c-0.3,0.1-0.6,0.2-0.9,0.2
		c-0.4,0-0.7-0.1-1-0.4c-0.2-0.2-0.4-0.5-0.4-0.9c0-0.4,0.1-0.7,0.4-0.9c0.2-0.2,0.6-0.3,1-0.4L54.9,104.9z M53.4,106.8
		c0.2,0.1,0.3,0.2,0.5,0.2c0.2,0,0.5-0.1,0.7-0.2c0.4-0.2,0.6-0.5,0.6-0.9v-0.6c-0.1,0.1-0.2,0.1-0.3,0.1c-0.1,0-0.3,0.1-0.4,0.1
		l-0.4,0.1c-0.3,0-0.5,0.1-0.6,0.2c-0.2,0.1-0.3,0.3-0.3,0.6C53.2,106.6,53.3,106.7,53.4,106.8z"/>
	<path class="st0" d="M57.1,103.2h0.7v0.6c0.2-0.2,0.4-0.4,0.6-0.5c0.2-0.1,0.5-0.2,0.7-0.2c0.6,0,1,0.2,1.2,0.6
		c0.1,0.2,0.2,0.6,0.2,1v2.7h-0.7v-2.7c0-0.3,0-0.5-0.1-0.6c-0.1-0.3-0.4-0.4-0.7-0.4c-0.2,0-0.3,0-0.4,0.1
		c-0.2,0.1-0.4,0.2-0.5,0.3c-0.1,0.1-0.2,0.3-0.2,0.4c0,0.1-0.1,0.4-0.1,0.6v2.2h-0.7V103.2z"/>
	<path class="st0" d="M63.9,103.4c0.1,0.1,0.3,0.2,0.4,0.4v-2.1h0.7v5.8h-0.6v-0.6c-0.2,0.3-0.4,0.4-0.6,0.6
		c-0.2,0.1-0.5,0.2-0.8,0.2c-0.5,0-0.9-0.2-1.2-0.6c-0.3-0.4-0.5-0.9-0.5-1.6c0-0.6,0.2-1.1,0.5-1.6c0.3-0.5,0.8-0.7,1.3-0.7
		C63.5,103.2,63.7,103.2,63.9,103.4z M62.4,106.5c0.2,0.3,0.5,0.5,0.9,0.5c0.3,0,0.6-0.1,0.8-0.4c0.2-0.3,0.3-0.7,0.3-1.2
		c0-0.5-0.1-0.9-0.3-1.2c-0.2-0.3-0.5-0.4-0.8-0.4c-0.4,0-0.6,0.1-0.9,0.4c-0.2,0.3-0.3,0.7-0.3,1.2
		C62.1,105.9,62.2,106.2,62.4,106.5z"/>
	<path class="st0" d="M71,103.4c0.3,0.1,0.5,0.3,0.6,0.5c0.1,0.2,0.2,0.5,0.3,0.7c0,0.2,0.1,0.5,0.1,0.9h-3.1c0,0.4,0.1,0.8,0.3,1
		c0.2,0.3,0.5,0.4,0.9,0.4c0.4,0,0.7-0.1,0.9-0.4c0.1-0.1,0.2-0.3,0.3-0.5h0.7c0,0.2-0.1,0.3-0.2,0.5c-0.1,0.2-0.2,0.3-0.3,0.5
		c-0.2,0.2-0.5,0.4-0.8,0.4c-0.2,0-0.4,0.1-0.6,0.1c-0.5,0-1-0.2-1.3-0.6c-0.4-0.4-0.5-0.9-0.5-1.6c0-0.7,0.2-1.2,0.5-1.7
		c0.4-0.4,0.8-0.6,1.4-0.6C70.4,103.2,70.7,103.2,71,103.4z M71.2,105c0-0.3-0.1-0.6-0.2-0.7c-0.2-0.3-0.5-0.5-1-0.5
		c-0.3,0-0.6,0.1-0.8,0.4c-0.2,0.2-0.3,0.5-0.3,0.9H71.2z"/>
	<path class="st0" d="M73.2,102c0.2-0.2,0.5-0.4,1-0.4c0,0,0.1,0,0.1,0c0,0,0.1,0,0.2,0v0.6c-0.1,0-0.1,0-0.2,0c0,0-0.1,0-0.1,0
		c-0.2,0-0.3,0.1-0.4,0.2c0,0.1-0.1,0.4-0.1,0.9h0.7v0.6h-0.7v3.6H73v-3.6h-0.6v-0.6H73v-0.7C73,102.3,73.1,102.1,73.2,102z"/>
	<path class="st0" d="M75.3,102c0.2-0.2,0.5-0.4,1-0.4c0,0,0.1,0,0.1,0c0,0,0.1,0,0.2,0v0.6c-0.1,0-0.1,0-0.2,0c0,0-0.1,0-0.1,0
		c-0.2,0-0.3,0.1-0.4,0.2c0,0.1-0.1,0.4-0.1,0.9h0.7v0.6h-0.7v3.6h-0.7v-3.6h-0.6v-0.6h0.6v-0.7C75.1,102.3,75.2,102.1,75.3,102z"/>
	<path class="st0" d="M77.2,101.7h0.7v0.8h-0.7V101.7z M77.2,103.3h0.7v4.2h-0.7V103.3z"/>
	<path class="st0" d="M81.8,103.5c0.3,0.2,0.5,0.6,0.5,1.2h-0.7c0-0.3-0.1-0.5-0.3-0.6c-0.2-0.2-0.4-0.3-0.7-0.3
		c-0.5,0-0.8,0.2-1,0.7c-0.1,0.3-0.2,0.6-0.2,1.1c0,0.4,0.1,0.8,0.3,1.1c0.2,0.3,0.5,0.4,0.8,0.4c0.3,0,0.5-0.1,0.7-0.3
		c0.2-0.2,0.3-0.4,0.4-0.7h0.7c-0.1,0.6-0.3,1-0.6,1.2c-0.3,0.3-0.7,0.4-1.2,0.4c-0.6,0-1-0.2-1.3-0.6c-0.3-0.4-0.5-0.9-0.5-1.5
		c0-0.7,0.2-1.3,0.5-1.7c0.4-0.4,0.8-0.6,1.4-0.6C81.1,103.1,81.5,103.2,81.8,103.5z"/>
	<path class="st0" d="M83,101.7h0.7v0.8H83V101.7z M83,103.3h0.7v4.2H83V103.3z"/>
	<path class="st0" d="M87.4,103.4c0.3,0.1,0.5,0.3,0.6,0.5c0.1,0.2,0.2,0.5,0.3,0.7c0,0.2,0.1,0.5,0.1,0.9h-3.1c0,0.4,0.1,0.8,0.3,1
		c0.2,0.3,0.5,0.4,0.9,0.4c0.4,0,0.7-0.1,0.9-0.4c0.1-0.1,0.2-0.3,0.3-0.5h0.7c0,0.2-0.1,0.3-0.2,0.5c-0.1,0.2-0.2,0.3-0.3,0.5
		c-0.2,0.2-0.5,0.4-0.8,0.4c-0.2,0-0.4,0.1-0.6,0.1c-0.5,0-1-0.2-1.3-0.6c-0.4-0.4-0.5-0.9-0.5-1.6c0-0.7,0.2-1.2,0.5-1.7
		c0.4-0.4,0.8-0.6,1.4-0.6C86.9,103.2,87.1,103.2,87.4,103.4z M87.7,105c0-0.3-0.1-0.6-0.2-0.7c-0.2-0.3-0.5-0.5-1-0.5
		c-0.3,0-0.6,0.1-0.8,0.4c-0.2,0.2-0.3,0.5-0.3,0.9H87.7z"/>
	<path class="st0" d="M89.3,103.2H90v0.6c0.2-0.2,0.4-0.4,0.6-0.5c0.2-0.1,0.5-0.2,0.7-0.2c0.6,0,1,0.2,1.2,0.6
		c0.1,0.2,0.2,0.6,0.2,1v2.7H92v-2.7c0-0.3,0-0.5-0.1-0.6c-0.1-0.3-0.4-0.4-0.7-0.4c-0.2,0-0.3,0-0.4,0.1c-0.2,0.1-0.4,0.2-0.5,0.3
		c-0.1,0.1-0.2,0.3-0.2,0.4c0,0.1-0.1,0.4-0.1,0.6v2.2h-0.7V103.2z"/>
	<path class="st0" d="M96.6,103.5c0.3,0.2,0.5,0.6,0.5,1.2h-0.7c0-0.3-0.1-0.5-0.3-0.6c-0.2-0.2-0.4-0.3-0.7-0.3
		c-0.5,0-0.8,0.2-1,0.7c-0.1,0.3-0.2,0.6-0.2,1.1c0,0.4,0.1,0.8,0.3,1.1c0.2,0.3,0.5,0.4,0.8,0.4c0.3,0,0.5-0.1,0.7-0.3
		c0.2-0.2,0.3-0.4,0.4-0.7h0.7c-0.1,0.6-0.3,1-0.6,1.2c-0.3,0.3-0.7,0.4-1.2,0.4c-0.6,0-1-0.2-1.3-0.6c-0.3-0.4-0.5-0.9-0.5-1.5
		c0-0.7,0.2-1.3,0.5-1.7c0.4-0.4,0.8-0.6,1.4-0.6C95.9,103.1,96.3,103.2,96.6,103.5z"/>
	<path class="st0" d="M100.5,103.2h0.8c-0.1,0.3-0.3,0.9-0.7,1.9c-0.3,0.7-0.5,1.3-0.6,1.8c-0.4,1.1-0.7,1.7-0.9,2
		c-0.2,0.2-0.5,0.4-0.9,0.4c-0.1,0-0.2,0-0.2,0c-0.1,0-0.1,0-0.2,0v-0.6c0.1,0,0.2,0.1,0.3,0.1c0.1,0,0.1,0,0.1,0
		c0.1,0,0.2,0,0.3-0.1c0.1,0,0.1-0.1,0.2-0.2c0,0,0.1-0.1,0.1-0.3c0.1-0.2,0.1-0.3,0.2-0.4l-1.6-4.3h0.8l1.1,3.4L100.5,103.2z"/>
	<path class="st0" d="M5.1,111c0.2,0.3,0.4,0.7,0.4,1H4.8c0-0.2-0.1-0.4-0.2-0.5c-0.2-0.2-0.4-0.4-0.8-0.4c-0.4,0-0.7,0.2-0.9,0.5
		s-0.4,0.9-0.4,1.6c0.2-0.2,0.4-0.4,0.6-0.5c0.2-0.1,0.5-0.2,0.8-0.2c0.5,0,0.9,0.2,1.2,0.5c0.4,0.3,0.5,0.8,0.5,1.4
		c0,0.5-0.2,1-0.5,1.4c-0.3,0.4-0.8,0.6-1.4,0.6c-0.5,0-1-0.2-1.4-0.6c-0.4-0.4-0.6-1.1-0.6-2c0-0.7,0.1-1.3,0.3-1.8
		c0.3-0.9,0.9-1.4,1.8-1.4C4.4,110.5,4.8,110.7,5.1,111z M4.6,115.4c0.2-0.3,0.3-0.5,0.3-0.9c0-0.3-0.1-0.6-0.2-0.8
		c-0.2-0.3-0.5-0.4-0.9-0.4c-0.3,0-0.6,0.1-0.8,0.3c-0.2,0.2-0.3,0.5-0.3,0.9c0,0.4,0.1,0.7,0.3,0.9c0.2,0.2,0.5,0.4,0.9,0.4
		C4.1,115.7,4.4,115.6,4.6,115.4z"/>
	<path class="st0" d="M6.6,115.4h0.8v0.9H6.6V115.4z"/>
	<path class="st0" d="M11.5,114.3c0,0.3,0.1,0.6,0.2,0.8c0.3,0.4,0.7,0.6,1.3,0.6c0.3,0,0.5,0,0.8-0.1c0.5-0.2,0.7-0.5,0.7-0.9
		c0-0.3-0.1-0.5-0.3-0.7c-0.2-0.1-0.5-0.2-0.9-0.3l-0.8-0.2c-0.5-0.1-0.8-0.2-1.1-0.4c-0.4-0.2-0.5-0.6-0.5-1.1
		c0-0.5,0.2-0.9,0.5-1.3c0.4-0.3,0.8-0.5,1.5-0.5c0.6,0,1.1,0.1,1.5,0.4s0.6,0.8,0.6,1.4h-0.7c0-0.3-0.1-0.5-0.2-0.7
		c-0.2-0.3-0.6-0.5-1.2-0.5c-0.4,0-0.8,0.1-1,0.3c-0.2,0.2-0.3,0.4-0.3,0.7c0,0.3,0.1,0.5,0.3,0.6c0.2,0.1,0.5,0.2,1,0.3l0.8,0.2
		c0.4,0.1,0.7,0.2,0.9,0.4c0.4,0.3,0.5,0.7,0.5,1.2c0,0.6-0.2,1.1-0.7,1.4c-0.5,0.3-1,0.4-1.6,0.4c-0.7,0-1.3-0.2-1.6-0.6
		c-0.4-0.4-0.6-0.9-0.6-1.5H11.5z"/>
	<path class="st0" d="M18.6,113.7c0.2,0,0.3-0.1,0.3-0.2c0-0.1,0-0.2,0-0.3c0-0.2-0.1-0.4-0.3-0.5c-0.2-0.1-0.4-0.2-0.7-0.2
		c-0.4,0-0.6,0.1-0.8,0.3c-0.1,0.1-0.1,0.3-0.2,0.5h-0.7c0-0.5,0.2-0.9,0.5-1.1c0.3-0.2,0.7-0.3,1.1-0.3c0.5,0,0.9,0.1,1.2,0.3
		c0.3,0.2,0.5,0.5,0.5,0.9v2.4c0,0.1,0,0.1,0,0.2c0,0,0.1,0.1,0.2,0.1c0,0,0.1,0,0.1,0s0.1,0,0.1,0v0.5c-0.1,0-0.2,0.1-0.3,0.1
		s-0.1,0-0.2,0c-0.2,0-0.4-0.1-0.5-0.3c-0.1-0.1-0.1-0.2-0.1-0.4c-0.1,0.2-0.4,0.4-0.6,0.5c-0.3,0.1-0.6,0.2-0.9,0.2
		c-0.4,0-0.7-0.1-1-0.4c-0.2-0.2-0.4-0.5-0.4-0.9c0-0.4,0.1-0.7,0.4-0.9c0.2-0.2,0.6-0.3,1-0.4L18.6,113.7z M17.1,115.6
		c0.2,0.1,0.3,0.2,0.5,0.2c0.2,0,0.5-0.1,0.7-0.2c0.4-0.2,0.6-0.5,0.6-0.9v-0.6c-0.1,0.1-0.2,0.1-0.3,0.1c-0.1,0-0.3,0.1-0.4,0.1
		l-0.4,0.1c-0.3,0-0.5,0.1-0.6,0.2c-0.2,0.1-0.3,0.3-0.3,0.6C16.8,115.3,16.9,115.5,17.1,115.6z"/>
	<path class="st0" d="M21.1,110.7c0.2-0.2,0.5-0.4,1-0.4c0,0,0.1,0,0.1,0c0,0,0.1,0,0.2,0v0.6c-0.1,0-0.1,0-0.2,0s-0.1,0-0.1,0
		c-0.2,0-0.3,0.1-0.4,0.2c0,0.1-0.1,0.4-0.1,0.9h0.7v0.6h-0.7v3.6H21v-3.6h-0.6V112H21v-0.7C21,111.1,21,110.8,21.1,110.7z"/>
	<path class="st0" d="M25.6,112.1c0.3,0.1,0.5,0.3,0.6,0.5c0.1,0.2,0.2,0.5,0.3,0.7c0,0.2,0.1,0.5,0.1,0.9h-3.1c0,0.4,0.1,0.8,0.3,1
		c0.2,0.3,0.5,0.4,0.9,0.4c0.4,0,0.7-0.1,0.9-0.4c0.1-0.1,0.2-0.3,0.3-0.5h0.7c0,0.2-0.1,0.3-0.2,0.5c-0.1,0.2-0.2,0.3-0.3,0.5
		c-0.2,0.2-0.5,0.4-0.8,0.4c-0.2,0-0.4,0.1-0.6,0.1c-0.5,0-1-0.2-1.3-0.6c-0.4-0.4-0.5-0.9-0.5-1.6c0-0.7,0.2-1.2,0.5-1.7
		c0.4-0.4,0.8-0.6,1.4-0.6C25.1,111.9,25.4,112,25.6,112.1z M25.9,113.8c0-0.3-0.1-0.6-0.2-0.7c-0.2-0.3-0.5-0.5-1-0.5
		c-0.3,0-0.6,0.1-0.8,0.4c-0.2,0.2-0.3,0.5-0.3,0.9H25.9z"/>
	<path class="st0" d="M27.7,110.8h0.7v1.2h0.7v0.6h-0.7v2.8c0,0.1,0,0.2,0.1,0.3c0.1,0,0.1,0,0.3,0c0,0,0.1,0,0.1,0c0,0,0.1,0,0.1,0
		v0.6c-0.1,0-0.2,0-0.3,0.1c-0.1,0-0.2,0-0.3,0c-0.3,0-0.6-0.1-0.7-0.3c-0.1-0.2-0.2-0.4-0.2-0.7v-2.8h-0.6V112h0.6V110.8z"/>
	<path class="st0" d="M32.4,112h0.8c-0.1,0.3-0.3,0.9-0.7,1.9c-0.3,0.7-0.5,1.3-0.6,1.8c-0.4,1.1-0.7,1.7-0.9,2
		c-0.2,0.2-0.5,0.4-0.9,0.4c-0.1,0-0.2,0-0.2,0c-0.1,0-0.1,0-0.2,0v-0.6c0.1,0,0.2,0.1,0.3,0.1c0.1,0,0.1,0,0.1,0
		c0.1,0,0.2,0,0.3-0.1c0.1,0,0.1-0.1,0.2-0.2c0,0,0.1-0.1,0.1-0.3c0.1-0.2,0.1-0.3,0.2-0.4l-1.6-4.3h0.8l1.1,3.4L32.4,112z"/>
	<path class="st0" d="M33.4,117c0.2,0,0.3-0.2,0.4-0.4c0-0.1,0.1-0.2,0.1-0.3c0,0,0,0,0,0c0,0,0,0,0,0h-0.4v-0.9h0.8v0.8
		c0,0.3-0.1,0.6-0.2,0.8c-0.1,0.2-0.3,0.4-0.7,0.4V117z"/>
	<path class="st0" d="M37.7,110.4h0.7v2.2c0.2-0.2,0.3-0.4,0.5-0.4c0.2-0.2,0.5-0.2,0.9-0.2c0.6,0,1,0.2,1.2,0.6
		c0.1,0.2,0.2,0.6,0.2,1v2.7h-0.7v-2.7c0-0.3,0-0.5-0.1-0.7c-0.1-0.2-0.4-0.3-0.7-0.3c-0.3,0-0.6,0.1-0.8,0.3
		c-0.2,0.2-0.4,0.6-0.4,1.1v2.2h-0.7V110.4z"/>
	<path class="st0" d="M44.8,112.1c0.3,0.1,0.5,0.3,0.6,0.5c0.1,0.2,0.2,0.5,0.3,0.7c0,0.2,0.1,0.5,0.1,0.9h-3.1c0,0.4,0.1,0.8,0.3,1
		c0.2,0.3,0.5,0.4,0.9,0.4c0.4,0,0.7-0.1,0.9-0.4c0.1-0.1,0.2-0.3,0.3-0.5h0.7c0,0.2-0.1,0.3-0.2,0.5c-0.1,0.2-0.2,0.3-0.3,0.5
		c-0.2,0.2-0.5,0.4-0.8,0.4c-0.2,0-0.4,0.1-0.6,0.1c-0.5,0-1-0.2-1.3-0.6c-0.4-0.4-0.5-0.9-0.5-1.6c0-0.7,0.2-1.2,0.5-1.7
		c0.4-0.4,0.8-0.6,1.4-0.6C44.2,111.9,44.5,112,44.8,112.1z M45,113.8c0-0.3-0.1-0.6-0.2-0.7c-0.2-0.3-0.5-0.5-1-0.5
		c-0.3,0-0.6,0.1-0.8,0.4c-0.2,0.2-0.3,0.5-0.3,0.9H45z"/>
	<path class="st0" d="M48.9,113.7c0.2,0,0.3-0.1,0.3-0.2c0-0.1,0-0.2,0-0.3c0-0.2-0.1-0.4-0.3-0.5c-0.2-0.1-0.4-0.2-0.7-0.2
		c-0.4,0-0.6,0.1-0.8,0.3c-0.1,0.1-0.1,0.3-0.2,0.5h-0.7c0-0.5,0.2-0.9,0.5-1.1c0.3-0.2,0.7-0.3,1.1-0.3c0.5,0,0.9,0.1,1.2,0.3
		c0.3,0.2,0.5,0.5,0.5,0.9v2.4c0,0.1,0,0.1,0,0.2c0,0,0.1,0.1,0.2,0.1c0,0,0.1,0,0.1,0s0.1,0,0.1,0v0.5c-0.1,0-0.2,0.1-0.3,0.1
		s-0.1,0-0.2,0c-0.2,0-0.4-0.1-0.5-0.3c-0.1-0.1-0.1-0.2-0.1-0.4c-0.1,0.2-0.4,0.4-0.6,0.5c-0.3,0.1-0.6,0.2-0.9,0.2
		c-0.4,0-0.7-0.1-1-0.4c-0.2-0.2-0.4-0.5-0.4-0.9c0-0.4,0.1-0.7,0.4-0.9c0.2-0.2,0.6-0.3,1-0.4L48.9,113.7z M47.4,115.6
		c0.2,0.1,0.3,0.2,0.5,0.2c0.2,0,0.5-0.1,0.7-0.2c0.4-0.2,0.6-0.5,0.6-0.9v-0.6c-0.1,0.1-0.2,0.1-0.3,0.1c-0.1,0-0.3,0.1-0.4,0.1
		l-0.4,0.1c-0.3,0-0.5,0.1-0.6,0.2c-0.2,0.1-0.3,0.3-0.3,0.6C47.2,115.3,47.3,115.5,47.4,115.6z"/>
	<path class="st0" d="M51.2,110.4h0.7v5.8h-0.7V110.4z"/>
	<path class="st0" d="M53.1,110.8h0.7v1.2h0.7v0.6h-0.7v2.8c0,0.1,0,0.2,0.1,0.3c0.1,0,0.1,0,0.3,0c0,0,0.1,0,0.1,0c0,0,0.1,0,0.1,0
		v0.6c-0.1,0-0.2,0-0.3,0.1c-0.1,0-0.2,0-0.3,0c-0.3,0-0.6-0.1-0.7-0.3c-0.1-0.2-0.2-0.4-0.2-0.7v-2.8h-0.6V112h0.6V110.8z"/>
	<path class="st0" d="M55.2,110.4h0.7v2.2c0.2-0.2,0.3-0.4,0.5-0.4c0.2-0.2,0.5-0.2,0.9-0.2c0.6,0,1,0.2,1.2,0.6
		c0.1,0.2,0.2,0.6,0.2,1v2.7h-0.7v-2.7c0-0.3,0-0.5-0.1-0.7c-0.1-0.2-0.4-0.3-0.7-0.3c-0.3,0-0.6,0.1-0.8,0.3
		c-0.2,0.2-0.4,0.6-0.4,1.1v2.2h-0.7V110.4z"/>
	<path class="st0" d="M64.2,113.7c0.2,0,0.3-0.1,0.3-0.2c0-0.1,0-0.2,0-0.3c0-0.2-0.1-0.4-0.3-0.5c-0.2-0.1-0.4-0.2-0.7-0.2
		c-0.4,0-0.6,0.1-0.8,0.3c-0.1,0.1-0.1,0.3-0.2,0.5H62c0-0.5,0.2-0.9,0.5-1.1c0.3-0.2,0.7-0.3,1.1-0.3c0.5,0,0.9,0.1,1.2,0.3
		c0.3,0.2,0.5,0.5,0.5,0.9v2.4c0,0.1,0,0.1,0,0.2c0,0,0.1,0.1,0.2,0.1c0,0,0.1,0,0.1,0s0.1,0,0.1,0v0.5c-0.1,0-0.2,0.1-0.3,0.1
		c-0.1,0-0.1,0-0.2,0c-0.2,0-0.4-0.1-0.5-0.3c-0.1-0.1-0.1-0.2-0.1-0.4c-0.1,0.2-0.4,0.4-0.6,0.5c-0.3,0.1-0.6,0.2-0.9,0.2
		c-0.4,0-0.7-0.1-1-0.4c-0.2-0.2-0.4-0.5-0.4-0.9c0-0.4,0.1-0.7,0.4-0.9c0.2-0.2,0.6-0.3,1-0.4L64.2,113.7z M62.7,115.6
		c0.2,0.1,0.3,0.2,0.5,0.2c0.2,0,0.5-0.1,0.7-0.2c0.4-0.2,0.6-0.5,0.6-0.9v-0.6c-0.1,0.1-0.2,0.1-0.3,0.1c-0.1,0-0.3,0.1-0.4,0.1
		l-0.4,0.1c-0.3,0-0.5,0.1-0.6,0.2c-0.2,0.1-0.3,0.3-0.3,0.6C62.5,115.3,62.6,115.5,62.7,115.6z"/>
	<path class="st0" d="M66.4,112h0.7v0.6c0.2-0.2,0.4-0.4,0.6-0.5c0.2-0.1,0.5-0.2,0.7-0.2c0.6,0,1,0.2,1.2,0.6
		c0.1,0.2,0.2,0.6,0.2,1v2.7h-0.7v-2.7c0-0.3,0-0.5-0.1-0.6c-0.1-0.3-0.4-0.4-0.7-0.4c-0.2,0-0.3,0-0.4,0.1
		c-0.2,0.1-0.4,0.2-0.5,0.3c-0.1,0.1-0.2,0.3-0.2,0.4c0,0.1-0.1,0.4-0.1,0.6v2.2h-0.7V112z"/>
	<path class="st0" d="M73.2,112.1c0.1,0.1,0.3,0.2,0.4,0.4v-2.1h0.7v5.8h-0.6v-0.6c-0.2,0.3-0.4,0.4-0.6,0.6
		c-0.2,0.1-0.5,0.2-0.8,0.2c-0.5,0-0.9-0.2-1.2-0.6c-0.3-0.4-0.5-0.9-0.5-1.6c0-0.6,0.2-1.1,0.5-1.6c0.3-0.5,0.8-0.7,1.3-0.7
		C72.7,111.9,73,112,73.2,112.1z M71.7,115.3c0.2,0.3,0.5,0.5,0.9,0.5c0.3,0,0.6-0.1,0.8-0.4c0.2-0.3,0.3-0.7,0.3-1.2
		c0-0.5-0.1-0.9-0.3-1.2s-0.5-0.4-0.8-0.4c-0.4,0-0.6,0.1-0.9,0.4c-0.2,0.3-0.3,0.7-0.3,1.2C71.4,114.6,71.5,115,71.7,115.3z"/>
	<path class="st0" d="M77.7,110.4h0.7v2.2c0.2-0.2,0.3-0.4,0.5-0.4c0.2-0.2,0.5-0.2,0.9-0.2c0.6,0,1,0.2,1.2,0.6
		c0.1,0.2,0.2,0.6,0.2,1v2.7h-0.7v-2.7c0-0.3,0-0.5-0.1-0.7c-0.1-0.2-0.4-0.3-0.7-0.3c-0.3,0-0.6,0.1-0.8,0.3
		c-0.2,0.2-0.4,0.6-0.4,1.1v2.2h-0.7V110.4z"/>
	<path class="st0" d="M84.8,112h0.8c-0.1,0.3-0.3,0.9-0.7,1.9c-0.3,0.7-0.5,1.3-0.6,1.8c-0.4,1.1-0.7,1.7-0.9,2
		c-0.2,0.2-0.5,0.4-0.9,0.4c-0.1,0-0.2,0-0.2,0c-0.1,0-0.1,0-0.2,0v-0.6c0.1,0,0.2,0.1,0.3,0.1c0.1,0,0.1,0,0.1,0
		c0.1,0,0.2,0,0.3-0.1c0.1,0,0.1-0.1,0.2-0.2c0,0,0.1-0.1,0.1-0.3c0.1-0.2,0.1-0.3,0.2-0.4l-1.6-4.3h0.8l1.1,3.4L84.8,112z"/>
	<path class="st0" d="M88.5,112.2c0.1,0.1,0.3,0.2,0.4,0.4V112h0.7v3.8c0,0.5-0.1,1-0.2,1.3c-0.3,0.6-0.8,0.9-1.7,0.9
		c-0.5,0-0.8-0.1-1.1-0.3c-0.3-0.2-0.5-0.5-0.5-1h0.7c0,0.2,0.1,0.3,0.2,0.4c0.2,0.2,0.4,0.2,0.8,0.2c0.5,0,0.9-0.2,1.1-0.6
		c0.1-0.2,0.1-0.6,0.1-1.2c-0.1,0.2-0.3,0.4-0.5,0.5c-0.2,0.1-0.5,0.2-0.8,0.2c-0.5,0-0.9-0.2-1.2-0.5c-0.3-0.3-0.5-0.9-0.5-1.6
		c0-0.7,0.2-1.3,0.5-1.7c0.3-0.4,0.8-0.6,1.2-0.6C88,111.9,88.3,112,88.5,112.2z M88.6,112.9c-0.2-0.3-0.5-0.4-0.8-0.4
		c-0.5,0-0.8,0.2-1,0.7c-0.1,0.2-0.1,0.6-0.1,1c0,0.5,0.1,0.8,0.3,1.1c0.2,0.2,0.5,0.4,0.8,0.4c0.5,0,0.9-0.2,1.1-0.7
		c0.1-0.3,0.2-0.6,0.2-0.9C88.9,113.6,88.8,113.2,88.6,112.9z"/>
	<path class="st0" d="M90.7,110.4h0.7v0.8h-0.7V110.4z M90.7,112h0.7v4.2h-0.7V112z"/>
	<path class="st0" d="M95.1,112.1c0.3,0.1,0.5,0.3,0.6,0.5c0.1,0.2,0.2,0.5,0.3,0.7c0,0.2,0.1,0.5,0.1,0.9H93c0,0.4,0.1,0.8,0.3,1
		c0.2,0.3,0.5,0.4,0.9,0.4c0.4,0,0.7-0.1,0.9-0.4c0.1-0.1,0.2-0.3,0.3-0.5H96c0,0.2-0.1,0.3-0.2,0.5c-0.1,0.2-0.2,0.3-0.3,0.5
		c-0.2,0.2-0.5,0.4-0.8,0.4c-0.2,0-0.4,0.1-0.6,0.1c-0.5,0-1-0.2-1.3-0.6c-0.4-0.4-0.5-0.9-0.5-1.6c0-0.7,0.2-1.2,0.5-1.7
		c0.4-0.4,0.8-0.6,1.4-0.6C94.5,111.9,94.8,112,95.1,112.1z M95.3,113.8c0-0.3-0.1-0.6-0.2-0.7c-0.2-0.3-0.5-0.5-1-0.5
		c-0.3,0-0.6,0.1-0.8,0.4c-0.2,0.2-0.3,0.5-0.3,0.9H95.3z"/>
	<path class="st0" d="M97,112h0.7v0.6c0.2-0.2,0.4-0.4,0.6-0.5c0.2-0.1,0.5-0.2,0.7-0.2c0.6,0,1,0.2,1.2,0.6c0.1,0.2,0.2,0.6,0.2,1
		v2.7h-0.7v-2.7c0-0.3,0-0.5-0.1-0.6c-0.1-0.3-0.4-0.4-0.7-0.4c-0.2,0-0.3,0-0.4,0.1c-0.2,0.1-0.4,0.2-0.5,0.3
		c-0.1,0.1-0.2,0.3-0.2,0.4c0,0.1-0.1,0.4-0.1,0.6v2.2H97V112z"/>
	<path class="st0" d="M104.1,112.1c0.3,0.1,0.5,0.3,0.6,0.5c0.1,0.2,0.2,0.5,0.3,0.7c0,0.2,0.1,0.5,0.1,0.9H102c0,0.4,0.1,0.8,0.3,1
		c0.2,0.3,0.5,0.4,0.9,0.4c0.4,0,0.7-0.1,0.9-0.4c0.1-0.1,0.2-0.3,0.3-0.5h0.7c0,0.2-0.1,0.3-0.2,0.5c-0.1,0.2-0.2,0.3-0.3,0.5
		c-0.2,0.2-0.5,0.4-0.8,0.4c-0.2,0-0.4,0.1-0.6,0.1c-0.5,0-1-0.2-1.3-0.6c-0.4-0.4-0.5-0.9-0.5-1.6c0-0.7,0.2-1.2,0.5-1.7
		c0.4-0.4,0.8-0.6,1.4-0.6C103.5,111.9,103.8,112,104.1,112.1z M104.3,113.8c0-0.3-0.1-0.6-0.2-0.7c-0.2-0.3-0.5-0.5-1-0.5
		c-0.3,0-0.6,0.1-0.8,0.4c-0.2,0.2-0.3,0.5-0.3,0.9H104.3z"/>
</g>
<g>
	<circle class="st0" cx="25.7" cy="26.1" r="24.5"/>
	<g>
		<path class="st1" d="M17.2,19.3c1.3,0,2.3-1.4,2.3-2.7c0-1.3-1-2.3-2.3-2.3c-1.2,0-2.3,1-2.3,2.3C14.9,17.9,16,19.3,17.2,19.3z"/>
		<path class="st1" d="M34.3,19.3c1.3,0,2.3-1.4,2.3-2.7c0-1.3-1-2.3-2.3-2.3c-1.2,0-2.3,1-2.3,2.3C32,17.9,33,19.3,34.3,19.3z"/>
		<path class="st1" d="M18.8,29.2c-0.3-0.4-0.5-1-0.4-1.5l0.9-8c-0.6-0.1-1.4-0.2-2-0.2c-1.6,0-3.5,0.6-3.8,0.7c0,0,0,0,0,0
			c0,0,0,0,0,0c0,0,0,0,0,0c-0.1,0-0.2,0.1-0.2,0.1c0,0-0.1,0.1-0.1,0.1c0,0.1-0.1,0.1-0.1,0.2c0,0.1,0,0.1-0.1,0.2c0,0,0,0.1,0,0.1
			L12,27.5c-0.1,0.5,0.3,0.9,0.8,1c0,0,0.1,0,0.1,0c0.5,0,0.8-0.3,0.9-0.8l0.7-5.9c0.1,0,0.2,0,0.2-0.1v6.1L14,36.7
			c0,0.6,0.4,1.1,1,1.2c0,0,0.1,0,0.1,0c0.6,0,1-0.4,1.1-1l0.6-8c0.1,0.1,0.3,0.1,0.4,0.1c0.2,0,0.3,0,0.4-0.1l0.6,8
			c0,0.6,0.5,1,1.1,1c0,0,0.1,0,0.1,0c0.6,0,1-0.6,1-1.2l-0.5-6.8C19.5,29.8,19.1,29.6,18.8,29.2z"/>
		<path class="st1" d="M38.7,21c0,0,0-0.1,0-0.1c0-0.1,0-0.1-0.1-0.2c0-0.1-0.1-0.1-0.1-0.1c0,0-0.1-0.1-0.1-0.1
			c0,0-0.1-0.1-0.2-0.1c0,0-0.1-0.1-0.1-0.1c-0.1,0-2.1-0.8-3.9-0.8c-0.7,0-1.4,0.1-2,0.3l0.9,8c0.1,0.5-0.1,1.1-0.4,1.5
			c-0.3,0.4-0.7,0.6-1.1,0.7L31,36.7c0,0.6,0.4,1.1,1,1.2c0,0,0.1,0,0.1,0c0.6,0,1-0.4,1.1-1l0.6-8c0.1,0.1,0.3,0.1,0.4,0.1
			c0.2,0,0.3,0,0.4-0.1l0.6,8c0,0.6,0.5,1,1.1,1c0,0,0.1,0,0.1,0c0.6,0,1-0.6,1-1.2l-0.7-8.9v-6.1c0.1,0,0.2,0.1,0.3,0.1l0.7,5.9
			c0.1,0.5,0.4,0.8,0.9,0.8c0,0,0.1,0,0.1,0c0.5-0.1,0.8-0.5,0.8-1L38.7,21z"/>
		<path class="st1" d="M25.7,17.6c1.6,0,2.8-1.8,2.8-3.4c0-1.6-1.3-2.8-2.8-2.8c-1.6,0-2.8,1.3-2.8,2.8
			C22.9,15.8,24.2,17.6,25.7,17.6z"/>
		<path class="st1" d="M31.2,29c0.6-0.1,1.1-0.6,1-1.2l-0.9-8.1c0-0.1,0-0.1,0-0.2c0-0.1,0-0.2-0.1-0.2c0-0.1-0.1-0.1-0.1-0.2
			c0-0.1-0.1-0.1-0.1-0.2c-0.1-0.1-0.1-0.1-0.2-0.1c0,0-0.1-0.1-0.1-0.1c-0.1,0-2.4-0.8-4.4-1l-0.9,0c-1.9,0.1-3.9,0.8-4.4,0.9
			c0,0,0,0-0.1,0c0,0,0,0,0,0c0,0,0,0-0.1,0c-0.1,0-0.2,0.1-0.3,0.2c0,0-0.1,0.1-0.1,0.1c-0.1,0.1-0.1,0.1-0.2,0.2
			c0,0.1,0,0.1-0.1,0.2c0,0.1,0,0.1-0.1,0.2l-0.9,8.1c-0.1,0.6,0.4,1.2,1,1.2c0,0,0.1,0,0.1,0c0.6,0,1.1-0.4,1.1-1l0.8-7.4
			c0.1,0,0.2-0.1,0.3-0.1v7.7l-0.9,11.1c-0.1,0.7,0.5,1.4,1.2,1.4c0,0,0.1,0,0.1,0c0.7,0,1.3-0.5,1.3-1.2l0.8-10
			c0.2,0.1,0.3,0.1,0.5,0.1c0.2,0,0.4,0,0.5-0.1l0.8,10c0.1,0.7,0.6,1.2,1.3,1.2c0,0,0.1,0,0.1,0c0.7-0.1,1.3-0.7,1.2-1.4l-0.9-11.1
			v-7.7c0.1,0,0.2,0.1,0.3,0.1l0.8,7.4c0.1,0.6,0.6,1,1.1,1C31.2,29.1,31.2,29.1,31.2,29z"/>
	</g>
</g>
</svg>
