<?xml version="1.0" encoding="utf-8"?>
<!-- Generator: Adobe Illustrator 23.0.3, SVG Export Plug-In . SVG Version: 6.00 Build 0)  -->
<svg version="1.1" id="Capa_1" xmlns="http://www.w3.org/2000/svg" xmlns:xlink="http://www.w3.org/1999/xlink" x="0px" y="0px"
	 viewBox="0 0 106.3 124.7" style="enable-background:new 0 0 106.3 124.7;" xml:space="preserve">
<style type="text/css">
	.st0{fill:#584E9E;}
	.st1{fill:#FFFFFF;}
</style>
<title>gobierno</title>
<g>
	<path class="st0" d="M2.7,56c0.5-0.5,1.2-0.8,1.9-0.8c1.1,0,1.8,0.3,2.3,1c0.3,0.4,0.4,0.8,0.4,1.2H6.1c-0.1-0.3-0.2-0.5-0.3-0.7
		c-0.2-0.3-0.6-0.4-1-0.4c-0.5,0-0.8,0.2-1.1,0.6c-0.3,0.4-0.4,0.9-0.4,1.6c0,0.7,0.1,1.2,0.4,1.6s0.7,0.5,1.1,0.5
		c0.5,0,0.8-0.2,1-0.5c0.1-0.2,0.2-0.4,0.3-0.7h1.3c-0.1,0.7-0.4,1.2-0.9,1.7c-0.5,0.4-1.1,0.6-1.8,0.6c-0.9,0-1.6-0.3-2.1-0.9
		c-0.5-0.6-0.8-1.4-0.8-2.4C1.9,57.4,2.1,56.6,2.7,56z"/>
	<path class="st0" d="M12.3,61.1c-0.4,0.5-1,0.7-1.8,0.7c-0.8,0-1.4-0.2-1.8-0.7c-0.4-0.5-0.6-1.1-0.6-1.8c0-0.7,0.2-1.3,0.6-1.8
		c0.4-0.5,1-0.7,1.8-0.7c0.8,0,1.4,0.2,1.8,0.7c0.4,0.5,0.6,1.1,0.6,1.8C12.9,60,12.7,60.6,12.3,61.1z M11.3,60.4
		c0.2-0.3,0.3-0.6,0.3-1.1c0-0.5-0.1-0.8-0.3-1.1c-0.2-0.3-0.5-0.4-0.8-0.4S9.8,58,9.6,58.2c-0.2,0.3-0.3,0.6-0.3,1.1
		c0,0.5,0.1,0.8,0.3,1.1c0.2,0.3,0.5,0.4,0.8,0.4S11.1,60.7,11.3,60.4z"/>
	<path class="st0" d="M16.3,56.9c0,0,0.1,0,0.1,0v1.3c-0.1,0-0.1,0-0.2,0c-0.1,0-0.1,0-0.1,0c-0.5,0-0.8,0.2-1,0.5
		C15,58.8,15,59,15,59.4v2.2h-1.2V57h1.2v0.8c0.2-0.3,0.4-0.5,0.5-0.6C15.6,57,15.9,56.9,16.3,56.9C16.3,56.9,16.3,56.9,16.3,56.9z"
		/>
	<path class="st0" d="M21.1,57.5c0.4,0.4,0.6,1,0.6,1.8c0,0.8-0.2,1.5-0.6,1.9c-0.4,0.4-0.9,0.6-1.4,0.6c-0.4,0-0.7-0.1-0.9-0.3
		c-0.1-0.1-0.3-0.3-0.4-0.5v2.4h-1.2V57h1.2v0.7c0.1-0.2,0.3-0.4,0.4-0.5c0.3-0.2,0.6-0.3,1-0.3C20.2,56.9,20.7,57.1,21.1,57.5z
		 M20.1,58.4c-0.2-0.3-0.4-0.4-0.8-0.4c-0.4,0-0.8,0.2-0.9,0.6c-0.1,0.2-0.1,0.5-0.1,0.8c0,0.5,0.1,0.9,0.4,1.1
		c0.2,0.1,0.4,0.2,0.6,0.2c0.3,0,0.6-0.1,0.8-0.4s0.3-0.6,0.3-1.1C20.4,59,20.3,58.6,20.1,58.4z"/>
	<path class="st0" d="M26.4,61.1c-0.4,0.5-1,0.7-1.8,0.7s-1.4-0.2-1.8-0.7c-0.4-0.5-0.6-1.1-0.6-1.8c0-0.7,0.2-1.3,0.6-1.8
		c0.4-0.5,1-0.7,1.8-0.7s1.4,0.2,1.8,0.7c0.4,0.5,0.6,1.1,0.6,1.8C27,60,26.8,60.6,26.4,61.1z M25.4,60.4c0.2-0.3,0.3-0.6,0.3-1.1
		c0-0.5-0.1-0.8-0.3-1.1c-0.2-0.3-0.5-0.4-0.8-0.4c-0.4,0-0.6,0.1-0.8,0.4c-0.2,0.3-0.3,0.6-0.3,1.1c0,0.5,0.1,0.8,0.3,1.1
		c0.2,0.3,0.5,0.4,0.8,0.4C25,60.8,25.2,60.7,25.4,60.4z"/>
	<path class="st0" d="M30.5,56.9c0,0,0.1,0,0.1,0v1.3c-0.1,0-0.1,0-0.2,0c-0.1,0-0.1,0-0.1,0c-0.5,0-0.8,0.2-1,0.5
		c-0.1,0.2-0.1,0.5-0.1,0.8v2.2h-1.2V57H29v0.8c0.2-0.3,0.4-0.5,0.5-0.6C29.8,57,30.1,56.9,30.5,56.9C30.4,56.9,30.5,56.9,30.5,56.9
		z"/>
	<path class="st0" d="M33.1,58.8c0.2,0,0.4-0.1,0.5-0.1c0.2-0.1,0.3-0.2,0.3-0.3c0-0.2-0.1-0.3-0.2-0.4c-0.1-0.1-0.3-0.1-0.6-0.1
		c-0.3,0-0.5,0.1-0.6,0.2c-0.1,0.1-0.1,0.2-0.2,0.4h-1.2c0-0.4,0.1-0.7,0.3-1c0.3-0.4,0.9-0.6,1.7-0.6c0.5,0,1,0.1,1.4,0.3
		c0.4,0.2,0.6,0.6,0.6,1.1v2.1c0,0.1,0,0.3,0,0.5c0,0.2,0,0.3,0.1,0.3s0.1,0.1,0.2,0.1v0.2H34c0-0.1-0.1-0.2-0.1-0.3s0-0.2,0-0.3
		c-0.2,0.2-0.4,0.3-0.6,0.5c-0.3,0.2-0.6,0.2-0.9,0.2c-0.4,0-0.8-0.1-1.1-0.4c-0.3-0.2-0.4-0.6-0.4-1c0-0.6,0.2-1,0.7-1.2
		c0.2-0.1,0.6-0.2,1.1-0.3L33.1,58.8z M33.9,59.4c-0.1,0-0.2,0.1-0.2,0.1c-0.1,0-0.2,0.1-0.3,0.1l-0.3,0.1c-0.3,0-0.4,0.1-0.6,0.2
		c-0.2,0.1-0.3,0.3-0.3,0.5c0,0.2,0.1,0.4,0.2,0.5c0.1,0.1,0.3,0.1,0.4,0.1c0.3,0,0.5-0.1,0.7-0.2c0.2-0.2,0.3-0.4,0.4-0.8V59.4z"/>
	<path class="st0" d="M35.7,57.9V57h0.7v-1.3h1.2V57h0.8v0.9h-0.8v2.5c0,0.2,0,0.3,0.1,0.4c0,0,0.2,0.1,0.4,0.1c0,0,0.1,0,0.1,0
		c0,0,0.1,0,0.1,0v0.9l-0.6,0c-0.6,0-1-0.1-1.2-0.3c-0.1-0.1-0.2-0.4-0.2-0.6v-2.9H35.7z"/>
	<path class="st0" d="M42.1,57.1c0.3,0.1,0.6,0.4,0.8,0.7c0.2,0.3,0.3,0.6,0.4,1c0,0.2,0,0.5,0,0.9H40c0,0.5,0.2,0.8,0.5,1
		c0.2,0.1,0.4,0.2,0.7,0.2c0.3,0,0.5-0.1,0.7-0.2c0.1-0.1,0.2-0.2,0.3-0.3h1.2c0,0.3-0.2,0.6-0.5,0.8c-0.4,0.5-1,0.7-1.8,0.7
		c-0.6,0-1.2-0.2-1.6-0.6s-0.7-1-0.7-1.9c0-0.8,0.2-1.4,0.6-1.9c0.4-0.4,1-0.6,1.7-0.6C41.5,56.8,41.8,56.9,42.1,57.1z M40.3,58.1
		c-0.2,0.2-0.3,0.4-0.3,0.7h2.1c0-0.3-0.1-0.6-0.3-0.7c-0.2-0.2-0.4-0.3-0.7-0.3C40.7,57.9,40.5,57.9,40.3,58.1z"/>
	<path class="st0" d="M48.7,57c0.3,0.1,0.5,0.3,0.7,0.7V57h1.2v4.4c0,0.6-0.1,1.1-0.3,1.4c-0.3,0.5-1,0.8-2,0.8
		c-0.6,0-1.1-0.1-1.5-0.4c-0.4-0.2-0.6-0.6-0.6-1h1.3c0,0.1,0.1,0.2,0.2,0.3c0.1,0.1,0.4,0.2,0.7,0.2c0.4,0,0.7-0.1,0.9-0.4
		c0.1-0.2,0.1-0.5,0.1-1v-0.3c-0.1,0.2-0.2,0.4-0.4,0.5c-0.2,0.2-0.6,0.3-0.9,0.3c-0.6,0-1.1-0.2-1.4-0.6c-0.4-0.4-0.5-1-0.5-1.7
		c0-0.7,0.2-1.3,0.5-1.8c0.3-0.5,0.8-0.7,1.5-0.7C48.4,56.9,48.6,56.9,48.7,57z M49.2,60.3c0.2-0.2,0.3-0.6,0.3-1
		c0-0.4-0.1-0.8-0.3-1c-0.2-0.2-0.4-0.3-0.7-0.3c-0.4,0-0.7,0.2-0.9,0.6c-0.1,0.2-0.1,0.5-0.1,0.8c0,0.3,0,0.5,0.1,0.7
		c0.2,0.4,0.5,0.6,0.9,0.6C48.7,60.6,49,60.5,49.2,60.3z"/>
	<path class="st0" d="M55.7,61.1c-0.4,0.5-1,0.7-1.8,0.7c-0.8,0-1.4-0.2-1.8-0.7c-0.4-0.5-0.6-1.1-0.6-1.8c0-0.7,0.2-1.3,0.6-1.8
		c0.4-0.5,1-0.7,1.8-0.7c0.8,0,1.4,0.2,1.8,0.7c0.4,0.5,0.6,1.1,0.6,1.8C56.3,60,56.1,60.6,55.7,61.1z M54.7,60.4
		c0.2-0.3,0.3-0.6,0.3-1.1c0-0.5-0.1-0.8-0.3-1.1c-0.2-0.3-0.5-0.4-0.8-0.4s-0.6,0.1-0.8,0.4c-0.2,0.3-0.3,0.6-0.3,1.1
		c0,0.5,0.1,0.8,0.3,1.1c0.2,0.3,0.5,0.4,0.8,0.4S54.5,60.7,54.7,60.4z"/>
	<path class="st0" d="M60,57h1.3l-1.7,4.7h-1.3L56.7,57h1.4l1,3.4L60,57z"/>
	<path class="st0" d="M65.1,57.1c0.3,0.1,0.6,0.4,0.8,0.7c0.2,0.3,0.3,0.6,0.4,1c0,0.2,0,0.5,0,0.9h-3.4c0,0.5,0.2,0.8,0.5,1
		c0.2,0.1,0.4,0.2,0.7,0.2c0.3,0,0.5-0.1,0.7-0.2c0.1-0.1,0.2-0.2,0.3-0.3h1.2c0,0.3-0.2,0.6-0.5,0.8c-0.4,0.5-1,0.7-1.8,0.7
		c-0.6,0-1.2-0.2-1.6-0.6c-0.5-0.4-0.7-1-0.7-1.9c0-0.8,0.2-1.4,0.6-1.9c0.4-0.4,1-0.6,1.7-0.6C64.4,56.8,64.8,56.9,65.1,57.1z
		 M63.3,58.1c-0.2,0.2-0.3,0.4-0.3,0.7H65c0-0.3-0.1-0.6-0.3-0.7c-0.2-0.2-0.4-0.3-0.7-0.3C63.7,57.9,63.4,57.9,63.3,58.1z"/>
	<path class="st0" d="M69.5,56.9c0,0,0.1,0,0.1,0v1.3c-0.1,0-0.1,0-0.2,0c-0.1,0-0.1,0-0.1,0c-0.5,0-0.8,0.2-1,0.5
		c-0.1,0.2-0.1,0.5-0.1,0.8v2.2h-1.2V57h1.2v0.8c0.2-0.3,0.4-0.5,0.5-0.6C68.8,57,69.1,56.9,69.5,56.9
		C69.5,56.9,69.5,56.9,69.5,56.9z"/>
	<path class="st0" d="M74.1,57.2c0.3,0.3,0.5,0.7,0.5,1.3v3.1h-1.3v-2.8c0-0.2,0-0.4-0.1-0.6c-0.1-0.2-0.3-0.4-0.7-0.4
		c-0.4,0-0.7,0.2-0.8,0.5c-0.1,0.2-0.1,0.4-0.1,0.7v2.5h-1.2V57h1.2v0.7c0.2-0.2,0.3-0.4,0.4-0.5c0.3-0.2,0.6-0.3,1-0.3
		C73.4,56.9,73.8,57,74.1,57.2z"/>
	<path class="st0" d="M77.6,58.8c0.2,0,0.4-0.1,0.5-0.1c0.2-0.1,0.3-0.2,0.3-0.3c0-0.2-0.1-0.3-0.2-0.4c-0.1-0.1-0.3-0.1-0.6-0.1
		c-0.3,0-0.5,0.1-0.6,0.2c-0.1,0.1-0.1,0.2-0.2,0.4h-1.2c0-0.4,0.1-0.7,0.3-1c0.3-0.4,0.9-0.6,1.7-0.6c0.5,0,1,0.1,1.4,0.3
		c0.4,0.2,0.6,0.6,0.6,1.1v2.1c0,0.1,0,0.3,0,0.5c0,0.2,0,0.3,0.1,0.3c0,0.1,0.1,0.1,0.2,0.1v0.2h-1.3c0-0.1-0.1-0.2-0.1-0.3
		s0-0.2,0-0.3c-0.2,0.2-0.4,0.3-0.6,0.5c-0.3,0.2-0.6,0.2-0.9,0.2c-0.4,0-0.8-0.1-1.1-0.4c-0.3-0.2-0.4-0.6-0.4-1
		c0-0.6,0.2-1,0.7-1.2c0.2-0.1,0.6-0.2,1.1-0.3L77.6,58.8z M78.3,59.4c-0.1,0-0.2,0.1-0.2,0.1c-0.1,0-0.2,0.1-0.3,0.1l-0.3,0.1
		c-0.3,0-0.4,0.1-0.6,0.2c-0.2,0.1-0.3,0.3-0.3,0.5c0,0.2,0.1,0.4,0.2,0.5c0.1,0.1,0.3,0.1,0.4,0.1c0.3,0,0.5-0.1,0.7-0.2
		c0.2-0.2,0.3-0.4,0.4-0.8V59.4z"/>
	<path class="st0" d="M84.4,57.2c0.3,0.3,0.5,0.7,0.5,1.3v3.1h-1.3v-2.8c0-0.2,0-0.4-0.1-0.6c-0.1-0.2-0.3-0.4-0.7-0.4
		c-0.4,0-0.7,0.2-0.8,0.5c-0.1,0.2-0.1,0.4-0.1,0.7v2.5h-1.2V57h1.2v0.7c0.2-0.2,0.3-0.4,0.4-0.5c0.3-0.2,0.6-0.3,1-0.3
		C83.7,56.9,84.1,57,84.4,57.2z"/>
	<path class="st0" d="M88.7,58.7c0-0.2-0.1-0.3-0.2-0.5c-0.1-0.2-0.4-0.3-0.6-0.3c-0.4,0-0.7,0.2-0.8,0.6C87,58.7,87,59,87,59.4
		c0,0.3,0,0.6,0.1,0.8c0.1,0.4,0.4,0.6,0.8,0.6c0.3,0,0.5-0.1,0.6-0.2c0.1-0.2,0.2-0.4,0.2-0.6H90c0,0.4-0.2,0.7-0.4,1.1
		c-0.4,0.5-1,0.8-1.7,0.8c-0.8,0-1.3-0.2-1.7-0.7c-0.4-0.4-0.5-1-0.5-1.7c0-0.8,0.2-1.4,0.6-1.9c0.4-0.4,0.9-0.7,1.6-0.7
		c0.6,0,1.1,0.1,1.4,0.4s0.6,0.7,0.7,1.4H88.7z"/>
	<path class="st0" d="M93.9,57.1c0.3,0.1,0.6,0.4,0.8,0.7c0.2,0.3,0.3,0.6,0.4,1c0,0.2,0,0.5,0,0.9h-3.4c0,0.5,0.2,0.8,0.5,1
		c0.2,0.1,0.4,0.2,0.7,0.2c0.3,0,0.5-0.1,0.7-0.2c0.1-0.1,0.2-0.2,0.3-0.3H95c0,0.3-0.2,0.6-0.5,0.8c-0.4,0.5-1,0.7-1.8,0.7
		c-0.6,0-1.2-0.2-1.6-0.6c-0.5-0.4-0.7-1-0.7-1.9c0-0.8,0.2-1.4,0.6-1.9c0.4-0.4,1-0.6,1.7-0.6C93.2,56.8,93.6,56.9,93.9,57.1z
		 M92.1,58.1c-0.2,0.2-0.3,0.4-0.3,0.7h2.1c0-0.3-0.1-0.6-0.3-0.7c-0.2-0.2-0.4-0.3-0.7-0.3C92.5,57.9,92.2,57.9,92.1,58.1z"/>
	<path class="st0" d="M2.3,66.8v-0.6c0.6-0.1,0.9-0.1,1.2-0.3S3.8,65.5,4,65h0.6v6.1H3.7v-4.3H2.3z"/>
	<path class="st0" d="M7.1,70.2H8v0.9H7.1V70.2z"/>
	<path class="st0" d="M16.3,64.9v0.8h-2.1v5.5h-0.9v-5.5h-2.1v-0.8H16.3z"/>
	<path class="st0" d="M16.7,66.6h0.7v0.8c0.1-0.2,0.2-0.3,0.4-0.6c0.2-0.2,0.5-0.3,0.8-0.3c0,0,0,0,0.1,0c0,0,0.1,0,0.2,0v0.8
		c0,0-0.1,0-0.1,0c0,0-0.1,0-0.1,0c-0.4,0-0.7,0.1-0.9,0.4c-0.2,0.2-0.3,0.5-0.3,0.9v2.6h-0.8V66.6z"/>
	<path class="st0" d="M22.1,68.4c0.2,0,0.3-0.1,0.4-0.2c0-0.1,0.1-0.2,0.1-0.3c0-0.3-0.1-0.5-0.3-0.6c-0.2-0.1-0.5-0.2-0.8-0.2
		c-0.4,0-0.7,0.1-0.9,0.3c-0.1,0.1-0.2,0.3-0.2,0.5h-0.7c0-0.6,0.2-1,0.6-1.2c0.4-0.2,0.8-0.3,1.2-0.3c0.5,0,1,0.1,1.3,0.3
		c0.3,0.2,0.5,0.5,0.5,1v2.6c0,0.1,0,0.1,0,0.2c0,0,0.1,0.1,0.2,0.1c0,0,0.1,0,0.1,0c0,0,0.1,0,0.1,0v0.6c-0.1,0-0.2,0.1-0.3,0.1
		c-0.1,0-0.1,0-0.3,0c-0.3,0-0.5-0.1-0.6-0.3c-0.1-0.1-0.1-0.2-0.1-0.4c-0.2,0.2-0.4,0.4-0.7,0.5c-0.3,0.2-0.6,0.2-1,0.2
		c-0.4,0-0.8-0.1-1-0.4c-0.3-0.3-0.4-0.6-0.4-1c0-0.4,0.1-0.8,0.4-1c0.3-0.2,0.6-0.4,1-0.4L22.1,68.4z M20.4,70.5
		c0.2,0.1,0.4,0.2,0.6,0.2c0.3,0,0.5-0.1,0.8-0.2c0.4-0.2,0.6-0.5,0.6-1v-0.6c-0.1,0.1-0.2,0.1-0.4,0.2c-0.1,0-0.3,0.1-0.4,0.1
		l-0.5,0.1c-0.3,0-0.5,0.1-0.6,0.2c-0.2,0.1-0.4,0.3-0.4,0.6C20.2,70.2,20.3,70.3,20.4,70.5z"/>
	<path class="st0" d="M24.5,66.6h0.7v0.7c0.2-0.3,0.4-0.5,0.7-0.6c0.2-0.1,0.5-0.2,0.8-0.2c0.7,0,1.1,0.2,1.3,0.7
		c0.1,0.2,0.2,0.6,0.2,1.1v2.9h-0.8v-2.9c0-0.3,0-0.5-0.1-0.7c-0.1-0.3-0.4-0.4-0.7-0.4c-0.2,0-0.3,0-0.5,0.1
		c-0.2,0.1-0.4,0.2-0.6,0.4c-0.1,0.2-0.2,0.3-0.3,0.5c0,0.2-0.1,0.4-0.1,0.7v2.4h-0.8V66.6z"/>
	<path class="st0" d="M29.8,69.7c0,0.3,0.1,0.5,0.2,0.6c0.2,0.2,0.5,0.4,1,0.4c0.3,0,0.5-0.1,0.8-0.2c0.2-0.1,0.3-0.3,0.3-0.6
		c0-0.2-0.1-0.3-0.3-0.5c-0.1-0.1-0.3-0.1-0.7-0.2l-0.6-0.2c-0.4-0.1-0.7-0.2-0.9-0.3c-0.3-0.2-0.5-0.5-0.5-0.9
		c0-0.4,0.2-0.8,0.5-1.1c0.3-0.3,0.7-0.4,1.3-0.4c0.7,0,1.2,0.2,1.5,0.6c0.2,0.3,0.3,0.5,0.3,0.8H32c0-0.2-0.1-0.3-0.2-0.5
		c-0.2-0.2-0.5-0.3-0.9-0.3c-0.3,0-0.5,0.1-0.7,0.2c-0.2,0.1-0.2,0.3-0.2,0.4c0,0.2,0.1,0.4,0.3,0.5c0.1,0.1,0.3,0.1,0.5,0.2
		l0.5,0.1c0.6,0.1,0.9,0.3,1.1,0.4c0.3,0.2,0.5,0.5,0.5,0.9c0,0.4-0.2,0.8-0.5,1.1c-0.3,0.3-0.8,0.4-1.4,0.4c-0.7,0-1.2-0.2-1.5-0.5
		c-0.3-0.3-0.4-0.7-0.5-1.2H29.8z"/>
	<path class="st0" d="M33.7,66.6h0.8v0.6c0.2-0.2,0.3-0.4,0.5-0.5c0.3-0.2,0.6-0.3,0.9-0.3c0.5,0,1,0.2,1.3,0.6
		c0.4,0.4,0.5,1,0.5,1.7c0,1-0.3,1.7-0.8,2.1c-0.3,0.3-0.7,0.4-1.2,0.4c-0.3,0-0.6-0.1-0.9-0.2c-0.1-0.1-0.3-0.2-0.5-0.4V73h-0.8
		V66.6z M36.6,70.2c0.2-0.3,0.4-0.8,0.4-1.4c0-0.4-0.1-0.7-0.2-0.9c-0.2-0.5-0.6-0.8-1.1-0.8c-0.5,0-0.9,0.3-1.1,0.8
		c-0.1,0.3-0.2,0.6-0.2,1.1c0,0.4,0.1,0.7,0.2,0.9c0.2,0.5,0.6,0.7,1.1,0.7C36.1,70.6,36.4,70.5,36.6,70.2z"/>
	<path class="st0" d="M41.1,68.4c0.2,0,0.3-0.1,0.4-0.2c0-0.1,0.1-0.2,0.1-0.3c0-0.3-0.1-0.5-0.3-0.6c-0.2-0.1-0.5-0.2-0.8-0.2
		c-0.4,0-0.7,0.1-0.9,0.3c-0.1,0.1-0.2,0.3-0.2,0.5h-0.7c0-0.6,0.2-1,0.6-1.2s0.8-0.3,1.2-0.3c0.5,0,1,0.1,1.3,0.3
		c0.3,0.2,0.5,0.5,0.5,1v2.6c0,0.1,0,0.1,0,0.2c0,0,0.1,0.1,0.2,0.1c0,0,0.1,0,0.1,0s0.1,0,0.1,0v0.6c-0.1,0-0.2,0.1-0.3,0.1
		c-0.1,0-0.1,0-0.3,0c-0.3,0-0.5-0.1-0.6-0.3c-0.1-0.1-0.1-0.2-0.1-0.4c-0.2,0.2-0.4,0.4-0.7,0.5c-0.3,0.2-0.6,0.2-1,0.2
		c-0.4,0-0.8-0.1-1-0.4c-0.3-0.3-0.4-0.6-0.4-1c0-0.4,0.1-0.8,0.4-1c0.3-0.2,0.6-0.4,1-0.4L41.1,68.4z M39.5,70.5
		c0.2,0.1,0.4,0.2,0.6,0.2c0.3,0,0.5-0.1,0.8-0.2c0.4-0.2,0.6-0.5,0.6-1v-0.6c-0.1,0.1-0.2,0.1-0.4,0.2c-0.1,0-0.3,0.1-0.4,0.1
		l-0.5,0.1c-0.3,0-0.5,0.1-0.6,0.2c-0.2,0.1-0.4,0.3-0.4,0.6C39.2,70.2,39.3,70.3,39.5,70.5z"/>
	<path class="st0" d="M43.5,66.6h0.7v0.8c0.1-0.2,0.2-0.3,0.4-0.6c0.2-0.2,0.5-0.3,0.8-0.3c0,0,0,0,0.1,0c0,0,0.1,0,0.2,0v0.8
		c0,0-0.1,0-0.1,0c0,0-0.1,0-0.1,0c-0.4,0-0.7,0.1-0.9,0.4c-0.2,0.2-0.3,0.5-0.3,0.9v2.6h-0.8V66.6z"/>
	<path class="st0" d="M49.3,66.7c0.3,0.2,0.5,0.4,0.7,0.6c0.2,0.2,0.3,0.5,0.3,0.8c0,0.2,0.1,0.5,0.1,1H47c0,0.5,0.1,0.8,0.3,1.1
		c0.2,0.3,0.5,0.4,0.9,0.4c0.4,0,0.7-0.1,1-0.4c0.1-0.2,0.2-0.3,0.3-0.5h0.8c0,0.2-0.1,0.4-0.2,0.6c-0.1,0.2-0.2,0.4-0.4,0.5
		c-0.2,0.2-0.5,0.4-0.9,0.5c-0.2,0-0.4,0.1-0.6,0.1c-0.6,0-1-0.2-1.4-0.6c-0.4-0.4-0.6-1-0.6-1.7c0-0.7,0.2-1.3,0.6-1.8
		c0.4-0.5,0.9-0.7,1.6-0.7C48.7,66.5,49,66.5,49.3,66.7z M49.6,68.5c0-0.3-0.1-0.6-0.2-0.8c-0.2-0.4-0.6-0.6-1-0.6
		c-0.4,0-0.6,0.1-0.9,0.4c-0.2,0.3-0.4,0.6-0.4,1H49.6z"/>
	<path class="st0" d="M51.3,66.6h0.7v0.7c0.2-0.3,0.4-0.5,0.7-0.6c0.2-0.1,0.5-0.2,0.8-0.2c0.7,0,1.1,0.2,1.3,0.7
		c0.1,0.2,0.2,0.6,0.2,1.1v2.9h-0.8v-2.9c0-0.3,0-0.5-0.1-0.7c-0.1-0.3-0.4-0.4-0.7-0.4c-0.2,0-0.3,0-0.5,0.1
		c-0.2,0.1-0.4,0.2-0.6,0.4c-0.1,0.2-0.2,0.3-0.3,0.5s-0.1,0.4-0.1,0.7v2.4h-0.8V66.6z"/>
	<path class="st0" d="M59.3,66.8c0.3,0.3,0.5,0.7,0.6,1.3h-0.8c0-0.3-0.1-0.5-0.3-0.7c-0.2-0.2-0.4-0.3-0.8-0.3
		c-0.5,0-0.8,0.2-1.1,0.7c-0.1,0.3-0.2,0.7-0.2,1.2c0,0.5,0.1,0.8,0.3,1.2c0.2,0.3,0.5,0.5,0.9,0.5c0.3,0,0.6-0.1,0.8-0.3
		c0.2-0.2,0.3-0.5,0.4-0.8h0.8c-0.1,0.6-0.3,1.1-0.6,1.3c-0.3,0.3-0.8,0.4-1.3,0.4c-0.6,0-1.1-0.2-1.4-0.7c-0.4-0.4-0.5-1-0.5-1.6
		c0-0.8,0.2-1.4,0.6-1.9c0.4-0.4,0.9-0.7,1.5-0.7C58.5,66.4,58.9,66.6,59.3,66.8z"/>
	<path class="st0" d="M63.5,66.6h0.9c-0.1,0.3-0.4,1-0.7,2c-0.3,0.8-0.5,1.4-0.7,1.9c-0.4,1.2-0.8,1.9-0.9,2.1
		C61.8,72.9,61.5,73,61,73c-0.1,0-0.2,0-0.3,0c-0.1,0-0.1,0-0.2,0v-0.7c0.1,0,0.2,0.1,0.3,0.1c0.1,0,0.1,0,0.2,0
		c0.1,0,0.2,0,0.3-0.1s0.1-0.1,0.2-0.2c0,0,0.1-0.1,0.2-0.4c0.1-0.2,0.2-0.4,0.2-0.5l-1.7-4.7H61l1.2,3.7L63.5,66.6z"/>
	<path class="st0" d="M2.1,79.3c0.2-0.4,0.6-0.7,1.1-1.1L4,77.8c0.4-0.2,0.6-0.4,0.8-0.5C5,77,5.1,76.7,5.1,76.4
		c0-0.4-0.1-0.6-0.3-0.9c-0.2-0.2-0.5-0.3-0.9-0.3c-0.5,0-0.9,0.2-1.1,0.6c-0.1,0.2-0.2,0.5-0.2,0.9H1.9c0-0.5,0.1-1,0.3-1.3
		c0.3-0.6,0.9-0.9,1.8-0.9c0.7,0,1.2,0.2,1.5,0.6C5.8,75.5,6,75.9,6,76.4c0,0.5-0.2,0.9-0.5,1.3c-0.2,0.2-0.6,0.4-1.1,0.7l-0.6,0.3
		c-0.3,0.2-0.5,0.3-0.7,0.4c-0.3,0.2-0.5,0.5-0.5,0.8h3.4v0.7H1.7C1.8,80.1,1.9,79.7,2.1,79.3z"/>
	<path class="st0" d="M7.1,79.7H8v0.9H7.1V79.7z"/>
	<path class="st0" d="M12.1,74.4h0.9v6.3h-0.9V74.4z"/>
	<path class="st0" d="M14.2,76.1H15v0.7c0.2-0.3,0.4-0.5,0.7-0.6c0.2-0.1,0.5-0.2,0.8-0.2c0.7,0,1.1,0.2,1.3,0.7
		c0.1,0.2,0.2,0.6,0.2,1.1v2.9h-0.8v-2.9c0-0.3,0-0.5-0.1-0.7c-0.1-0.3-0.4-0.4-0.7-0.4c-0.2,0-0.3,0-0.5,0.1
		c-0.2,0.1-0.4,0.2-0.6,0.4c-0.1,0.2-0.2,0.3-0.3,0.5c0,0.2-0.1,0.4-0.1,0.7v2.4h-0.8V76.1z"/>
	<path class="st0" d="M21.6,76.2c0.1,0.1,0.3,0.2,0.5,0.5v-2.3h0.7v6.3h-0.7V80c-0.2,0.3-0.4,0.5-0.6,0.6c-0.2,0.1-0.5,0.2-0.8,0.2
		c-0.5,0-1-0.2-1.3-0.6c-0.4-0.4-0.6-1-0.6-1.7c0-0.7,0.2-1.2,0.5-1.7c0.3-0.5,0.8-0.7,1.5-0.7C21.1,76,21.4,76.1,21.6,76.2z
		 M19.9,79.7c0.2,0.3,0.5,0.5,1,0.5c0.4,0,0.6-0.2,0.9-0.5c0.2-0.3,0.3-0.7,0.3-1.3c0-0.6-0.1-1-0.4-1.3c-0.2-0.3-0.5-0.4-0.9-0.4
		c-0.4,0-0.7,0.1-0.9,0.4c-0.2,0.3-0.4,0.7-0.4,1.3C19.6,78.9,19.7,79.3,19.9,79.7z"/>
	<path class="st0" d="M26.8,76.2c0.3,0.2,0.5,0.4,0.7,0.6c0.2,0.2,0.3,0.5,0.3,0.8c0,0.2,0.1,0.5,0.1,1h-3.3c0,0.5,0.1,0.8,0.3,1.1
		c0.2,0.3,0.5,0.4,0.9,0.4c0.4,0,0.7-0.1,1-0.4c0.1-0.2,0.2-0.3,0.3-0.5h0.8c0,0.2-0.1,0.4-0.2,0.6c-0.1,0.2-0.2,0.4-0.4,0.5
		c-0.2,0.2-0.5,0.4-0.9,0.5c-0.2,0-0.4,0.1-0.6,0.1c-0.6,0-1-0.2-1.4-0.6c-0.4-0.4-0.6-1-0.6-1.7c0-0.7,0.2-1.3,0.6-1.8
		c0.4-0.5,0.9-0.7,1.6-0.7C26.2,76,26.5,76.1,26.8,76.2z M27.1,78c0-0.3-0.1-0.6-0.2-0.8c-0.2-0.4-0.6-0.6-1.1-0.6
		c-0.4,0-0.6,0.1-0.9,0.4c-0.2,0.3-0.4,0.6-0.4,1H27.1z"/>
	<path class="st0" d="M28.8,76.1h0.8v0.6c0.2-0.2,0.3-0.4,0.5-0.5c0.3-0.2,0.6-0.3,0.9-0.3c0.5,0,1,0.2,1.3,0.6
		c0.4,0.4,0.5,1,0.5,1.7c0,1-0.3,1.7-0.8,2.1c-0.3,0.3-0.7,0.4-1.2,0.4c-0.3,0-0.6-0.1-0.9-0.2c-0.1-0.1-0.3-0.2-0.5-0.4v2.3h-0.8
		V76.1z M31.7,79.7c0.2-0.3,0.4-0.8,0.4-1.4c0-0.4-0.1-0.7-0.2-0.9c-0.2-0.5-0.6-0.8-1.1-0.8c-0.5,0-0.9,0.3-1.1,0.8
		c-0.1,0.3-0.2,0.6-0.2,1.1c0,0.4,0.1,0.7,0.2,0.9c0.2,0.5,0.6,0.7,1.1,0.7C31.2,80.2,31.5,80,31.7,79.7z"/>
	<path class="st0" d="M36.6,76.2c0.3,0.2,0.5,0.4,0.7,0.6c0.2,0.2,0.3,0.5,0.3,0.8c0,0.2,0.1,0.5,0.1,1h-3.3c0,0.5,0.1,0.8,0.3,1.1
		c0.2,0.3,0.5,0.4,0.9,0.4c0.4,0,0.7-0.1,1-0.4c0.1-0.2,0.2-0.3,0.3-0.5h0.8c0,0.2-0.1,0.4-0.2,0.6c-0.1,0.2-0.2,0.4-0.4,0.5
		c-0.2,0.2-0.5,0.4-0.9,0.5c-0.2,0-0.4,0.1-0.6,0.1c-0.6,0-1-0.2-1.4-0.6c-0.4-0.4-0.6-1-0.6-1.7c0-0.7,0.2-1.3,0.6-1.8
		c0.4-0.5,0.9-0.7,1.6-0.7C36,76,36.3,76.1,36.6,76.2z M36.9,78c0-0.3-0.1-0.6-0.2-0.8c-0.2-0.4-0.6-0.6-1.1-0.6
		c-0.4,0-0.6,0.1-0.9,0.4s-0.4,0.6-0.4,1H36.9z"/>
	<path class="st0" d="M38.6,76.1h0.7v0.7c0.2-0.3,0.4-0.5,0.7-0.6c0.2-0.1,0.5-0.2,0.8-0.2c0.7,0,1.1,0.2,1.3,0.7
		c0.1,0.2,0.2,0.6,0.2,1.1v2.9h-0.8v-2.9c0-0.3,0-0.5-0.1-0.7c-0.1-0.3-0.4-0.4-0.7-0.4c-0.2,0-0.3,0-0.5,0.1
		c-0.2,0.1-0.4,0.2-0.6,0.4c-0.1,0.2-0.2,0.3-0.3,0.5c0,0.2-0.1,0.4-0.1,0.7v2.4h-0.8V76.1z"/>
	<path class="st0" d="M46.1,76.2c0.1,0.1,0.3,0.2,0.5,0.5v-2.3h0.7v6.3h-0.7V80c-0.2,0.3-0.4,0.5-0.6,0.6c-0.2,0.1-0.5,0.2-0.8,0.2
		c-0.5,0-1-0.2-1.3-0.6c-0.4-0.4-0.6-1-0.6-1.7c0-0.7,0.2-1.2,0.5-1.7c0.3-0.5,0.8-0.7,1.5-0.7C45.5,76,45.8,76.1,46.1,76.2z
		 M44.3,79.7c0.2,0.3,0.5,0.5,1,0.5c0.4,0,0.6-0.2,0.9-0.5s0.3-0.7,0.3-1.3c0-0.6-0.1-1-0.4-1.3s-0.5-0.4-0.9-0.4
		c-0.4,0-0.7,0.1-0.9,0.4c-0.2,0.3-0.4,0.7-0.4,1.3C44,78.9,44.1,79.3,44.3,79.7z"/>
	<path class="st0" d="M51.2,76.2c0.3,0.2,0.5,0.4,0.7,0.6c0.2,0.2,0.3,0.5,0.3,0.8c0,0.2,0.1,0.5,0.1,1H49c0,0.5,0.1,0.8,0.3,1.1
		c0.2,0.3,0.5,0.4,0.9,0.4c0.4,0,0.7-0.1,1-0.4c0.1-0.2,0.2-0.3,0.3-0.5h0.8c0,0.2-0.1,0.4-0.2,0.6c-0.1,0.2-0.2,0.4-0.4,0.5
		c-0.2,0.2-0.5,0.4-0.9,0.5c-0.2,0-0.4,0.1-0.6,0.1c-0.6,0-1-0.2-1.4-0.6c-0.4-0.4-0.6-1-0.6-1.7c0-0.7,0.2-1.3,0.6-1.8
		c0.4-0.5,0.9-0.7,1.6-0.7C50.6,76,50.9,76.1,51.2,76.2z M51.5,78c0-0.3-0.1-0.6-0.2-0.8c-0.2-0.4-0.6-0.6-1.1-0.6
		c-0.4,0-0.6,0.1-0.9,0.4c-0.2,0.3-0.4,0.6-0.4,1H51.5z"/>
	<path class="st0" d="M53.3,76.1H54v0.7c0.2-0.3,0.4-0.5,0.7-0.6C55,76,55.2,76,55.5,76c0.7,0,1.1,0.2,1.3,0.7
		c0.1,0.2,0.2,0.6,0.2,1.1v2.9h-0.8v-2.9c0-0.3,0-0.5-0.1-0.7c-0.1-0.3-0.4-0.4-0.7-0.4c-0.2,0-0.3,0-0.5,0.1
		c-0.2,0.1-0.4,0.2-0.6,0.4c-0.1,0.2-0.2,0.3-0.3,0.5c0,0.2-0.1,0.4-0.1,0.7v2.4h-0.8V76.1z"/>
	<path class="st0" d="M61.2,76.3c0.3,0.3,0.5,0.7,0.6,1.3H61c0-0.3-0.1-0.5-0.3-0.7c-0.2-0.2-0.4-0.3-0.8-0.3
		c-0.5,0-0.8,0.2-1.1,0.7c-0.1,0.3-0.2,0.7-0.2,1.2c0,0.5,0.1,0.8,0.3,1.2c0.2,0.3,0.5,0.5,0.9,0.5c0.3,0,0.6-0.1,0.8-0.3
		c0.2-0.2,0.3-0.5,0.4-0.8h0.8c-0.1,0.6-0.3,1.1-0.6,1.3s-0.8,0.4-1.3,0.4c-0.6,0-1.1-0.2-1.4-0.7c-0.4-0.4-0.5-1-0.5-1.6
		c0-0.8,0.2-1.4,0.6-1.9c0.4-0.4,0.9-0.7,1.5-0.7C60.5,75.9,60.9,76.1,61.2,76.3z"/>
	<path class="st0" d="M65.4,76.2c0.3,0.2,0.5,0.4,0.7,0.6c0.2,0.2,0.3,0.5,0.3,0.8c0,0.2,0.1,0.5,0.1,1h-3.3c0,0.5,0.1,0.8,0.3,1.1
		c0.2,0.3,0.5,0.4,0.9,0.4c0.4,0,0.7-0.1,1-0.4c0.1-0.2,0.2-0.3,0.3-0.5h0.8c0,0.2-0.1,0.4-0.2,0.6c-0.1,0.2-0.2,0.4-0.4,0.5
		c-0.2,0.2-0.5,0.4-0.9,0.5c-0.2,0-0.4,0.1-0.6,0.1c-0.6,0-1-0.2-1.4-0.6c-0.4-0.4-0.6-1-0.6-1.7c0-0.7,0.2-1.3,0.6-1.8
		c0.4-0.5,0.9-0.7,1.6-0.7C64.8,76,65.1,76.1,65.4,76.2z M65.7,78c0-0.3-0.1-0.6-0.2-0.8c-0.2-0.4-0.6-0.6-1.1-0.6
		c-0.4,0-0.6,0.1-0.9,0.4c-0.2,0.3-0.4,0.6-0.4,1H65.7z"/>
	<path class="st0" d="M2.2,89.8c-0.3-0.4-0.5-0.9-0.5-1.5h0.8c0,0.4,0.1,0.7,0.2,0.9c0.2,0.3,0.6,0.5,1.1,0.5c0.4,0,0.7-0.1,1-0.3
		c0.2-0.2,0.4-0.5,0.4-0.8c0-0.4-0.1-0.7-0.4-0.9c-0.3-0.2-0.6-0.3-1.1-0.3c-0.1,0-0.1,0-0.2,0c-0.1,0-0.1,0-0.2,0v-0.7
		c0.1,0,0.1,0,0.2,0c0.1,0,0.1,0,0.2,0c0.3,0,0.5,0,0.7-0.1c0.3-0.2,0.5-0.4,0.5-0.9c0-0.3-0.1-0.5-0.3-0.7
		c-0.2-0.2-0.5-0.2-0.8-0.2c-0.5,0-0.9,0.2-1.1,0.5c-0.1,0.2-0.2,0.5-0.2,0.8H1.8c0-0.5,0.1-0.8,0.3-1.2C2.4,84.3,3,84,3.8,84
		c0.6,0,1.1,0.1,1.5,0.4c0.3,0.3,0.5,0.7,0.5,1.2c0,0.4-0.1,0.7-0.3,0.9c-0.1,0.1-0.3,0.3-0.5,0.3c0.3,0.1,0.6,0.3,0.8,0.5
		C5.9,87.7,6,88,6,88.4c0,0.6-0.2,1.1-0.6,1.4c-0.4,0.4-0.9,0.6-1.6,0.6C3,90.4,2.5,90.2,2.2,89.8z"/>
	<path class="st0" d="M7.1,89.3H8v0.9H7.1V89.3z"/>
	<path class="st0" d="M12,83.9h4.6v0.8h-3.7v1.9h3.5v0.7h-3.5v2.1h3.8v0.8H12V83.9z"/>
	<path class="st0" d="M20.2,85.8c0.1,0.1,0.3,0.3,0.4,0.5v-0.6h0.7V92h-0.8v-2.4c-0.1,0.2-0.3,0.4-0.5,0.5c-0.2,0.1-0.5,0.2-0.8,0.2
		c-0.5,0-0.9-0.2-1.3-0.6c-0.4-0.4-0.6-1-0.6-1.7c0-0.7,0.2-1.3,0.5-1.8c0.4-0.5,0.8-0.7,1.4-0.7C19.7,85.5,20,85.6,20.2,85.8z
		 M18.3,89c0.2,0.5,0.5,0.7,1.1,0.7c0.5,0,0.9-0.3,1.1-0.8c0.1-0.3,0.2-0.6,0.2-1.1c0-0.4-0.1-0.7-0.2-1c-0.2-0.5-0.6-0.7-1.1-0.7
		c-0.3,0-0.6,0.1-0.9,0.4c-0.2,0.3-0.4,0.7-0.4,1.3C18.1,88.4,18.2,88.7,18.3,89z"/>
	<path class="st0" d="M23.3,85.6v3c0,0.2,0,0.4,0.1,0.6c0.1,0.3,0.4,0.4,0.7,0.4c0.5,0,0.9-0.2,1.1-0.7c0.1-0.3,0.2-0.6,0.2-1.1
		v-2.3h0.8v4.6h-0.7l0-0.7c-0.1,0.2-0.2,0.3-0.4,0.4c-0.3,0.2-0.6,0.4-1.1,0.4c-0.6,0-1.1-0.2-1.3-0.7c-0.1-0.2-0.2-0.5-0.2-0.9
		v-3.1H23.3z"/>
	<path class="st0" d="M29.9,87.4c0.2,0,0.3-0.1,0.4-0.2c0-0.1,0.1-0.2,0.1-0.3c0-0.3-0.1-0.5-0.3-0.6c-0.2-0.1-0.5-0.2-0.8-0.2
		c-0.4,0-0.7,0.1-0.9,0.3c-0.1,0.1-0.2,0.3-0.2,0.5h-0.7c0-0.6,0.2-1,0.6-1.2c0.4-0.2,0.8-0.3,1.2-0.3c0.5,0,1,0.1,1.3,0.3
		c0.3,0.2,0.5,0.5,0.5,1v2.6c0,0.1,0,0.1,0,0.2c0,0,0.1,0.1,0.2,0.1c0,0,0.1,0,0.1,0c0,0,0.1,0,0.1,0v0.6c-0.1,0-0.2,0.1-0.3,0.1
		c-0.1,0-0.1,0-0.3,0c-0.3,0-0.5-0.1-0.6-0.3c-0.1-0.1-0.1-0.2-0.1-0.4c-0.2,0.2-0.4,0.4-0.7,0.5c-0.3,0.2-0.6,0.2-1,0.2
		c-0.4,0-0.8-0.1-1-0.4c-0.3-0.3-0.4-0.6-0.4-1c0-0.4,0.1-0.8,0.4-1c0.3-0.2,0.6-0.4,1-0.4L29.9,87.4z M28.2,89.5
		c0.2,0.1,0.4,0.2,0.6,0.2c0.3,0,0.5-0.1,0.8-0.2c0.4-0.2,0.6-0.5,0.6-1v-0.6C30.2,87.9,30,88,29.9,88c-0.1,0-0.3,0.1-0.4,0.1
		L29,88.2c-0.3,0-0.5,0.1-0.6,0.2C28.1,88.5,28,88.7,28,89C28,89.2,28.1,89.4,28.2,89.5z"/>
	<path class="st0" d="M32.3,83.9h0.8v6.3h-0.8V83.9z"/>
	<path class="st0" d="M34.2,83.9H35v0.9h-0.8V83.9z M34.2,85.6H35v4.6h-0.8V85.6z"/>
	<path class="st0" d="M36.4,84.3h0.8v1.3h0.7v0.6h-0.7v3c0,0.2,0.1,0.3,0.2,0.3c0.1,0,0.2,0,0.3,0c0,0,0.1,0,0.1,0c0,0,0.1,0,0.1,0
		v0.6c-0.1,0-0.2,0-0.3,0.1c-0.1,0-0.2,0-0.3,0c-0.4,0-0.6-0.1-0.7-0.3c-0.1-0.2-0.2-0.4-0.2-0.7v-3h-0.6v-0.6h0.6V84.3z"/>
	<path class="st0" d="M41.5,85.6h0.9c-0.1,0.3-0.4,1-0.7,2c-0.3,0.8-0.5,1.4-0.7,1.9c-0.4,1.2-0.8,1.9-0.9,2.1
		c-0.2,0.3-0.5,0.4-0.9,0.4c-0.1,0-0.2,0-0.3,0c-0.1,0-0.1,0-0.2,0v-0.7c0.1,0,0.2,0.1,0.3,0.1c0.1,0,0.1,0,0.2,0
		c0.1,0,0.2,0,0.3-0.1c0.1,0,0.1-0.1,0.2-0.2c0,0,0.1-0.1,0.2-0.4c0.1-0.2,0.2-0.4,0.2-0.5l-1.7-4.7H39l1.2,3.7L41.5,85.6z"/>
</g>
<g>
	<circle class="st0" cx="25.3" cy="25" r="24.5"/>
	<g>
		<path class="st1" d="M40.6,17.9v9.2c0,0-2,0.4-2.4,0.4c-0.4,0.1-1.7,0.5-2.6-0.4c-1.4-1.4-6.5-6.4-6.5-6.4s-0.9-0.9-2.3-0.1
			c-1.3,0.7-3.2,1.7-4,2.1c-1.5,0.8-2.8-0.5-2.8-1.4c0-0.8,0.5-1.3,1.1-1.6c1.8-1.1,5.7-3.3,7.2-4.1c1-0.5,1.7-0.6,3,0.6
			c1.6,1.4,3.1,2.6,3.1,2.6s0.5,0.4,1.2,0.2C37.7,18.5,40.6,17.9,40.6,17.9L40.6,17.9z M20.4,33.5c0.2-0.6,0.2-1.3-0.3-1.8
			c-0.4-0.4-1-0.5-1.6-0.4c0.2-0.6,0.1-1.2-0.4-1.6c-0.4-0.4-1-0.5-1.6-0.4c0.2-0.6,0.1-1.2-0.4-1.6c-0.7-0.7-1.8-0.7-2.6,0.1
			c-0.8,0.7-1.2,2-0.6,2.8c0.7,0.8,1.4,0.3,2,0.2c-0.2,0.6-0.7,1.1-0.1,1.9c0.6,0.8,1.4,0.3,2,0.2c-0.2,0.6-0.6,1.2-0.1,1.9
			c0.6,0.7,1.5,0.3,2.2,0.1c-0.2,0.6-0.8,1.3-0.1,2.1c0.7,0.8,2.2,0.4,3-0.3c0.8-0.7,0.8-1.9,0.2-2.6C21.7,33.4,21.1,33.3,20.4,33.5
			L20.4,33.5z M34.2,28.7c-5.5-5.5-2.9-2.9-5.8-5.9c0,0-0.9-0.9-2.1-0.4c-0.8,0.4-1.9,0.8-2.7,1.2c-0.9,0.5-1.5,0.6-1.8,0.6
			c-1.7,0-3.1-1.4-3.1-3c0-1.1,0.6-2,1.4-2.6c1.2-0.8,4-2.3,4-2.3s-0.9-1.1-2.7-1.1c-1.9,0-5.8,2.6-5.8,2.6s-1.1,0.7-2.7,0.1l-3-1.1
			v10.6c0,0,0.9,0.3,1.6,0.6c0.2-0.5,0.5-1,0.9-1.4c1.3-1.2,3.4-1.2,4.6,0c0.4,0.4,0.6,0.8,0.7,1.3c0.5,0.1,0.9,0.4,1.3,0.8
			c0.4,0.4,0.6,0.8,0.7,1.3c0.5,0.1,0.9,0.4,1.3,0.8c0.4,0.4,0.7,0.9,0.8,1.4c0.5,0.1,0.9,0.4,1.3,0.8c0.7,0.7,1,1.7,0.8,2.7
			c0,0,0,0,0,0c0,0,0.4,0.5,0.7,0.8c0.5,0.5,1.4,0.5,1.9,0c0.5-0.5,0.5-1.4,0-1.9c0,0-1.9-2-1.7-2.1c0.1-0.2,2.5,2.3,2.6,2.4
			c0.5,0.5,1.4,0.5,1.9,0c0.5-0.5,0.5-1.4,0-1.9c0,0-0.1-0.1-0.2-0.2c0,0-2.4-2.1-2.2-2.3c0.2-0.2,3.1,2.5,3.1,2.5
			c0.5,0.5,1.3,0.5,1.8,0c0.5-0.5,0.5-1.3,0.1-1.8c0,0-2.2-2.3-2.1-2.5c0.2-0.2,2.4,2.1,2.4,2.1c0.5,0.5,1.4,0.5,1.9,0
			C34.8,30.1,34.8,29.2,34.2,28.7C34.3,28.7,34.2,28.7,34.2,28.7L34.2,28.7z M34.2,28.7"/>
	</g>
</g>
</svg>
