<?xml version="1.0" encoding="utf-8"?>
<!-- Generator: Adobe Illustrator 23.0.3, SVG Export Plug-In . SVG Version: 6.00 Build 0)  -->
<svg version="1.1" id="Capa_1" xmlns="http://www.w3.org/2000/svg" xmlns:xlink="http://www.w3.org/1999/xlink" x="0px" y="0px"
	 viewBox="0 0 106.3 124.7" style="enable-background:new 0 0 106.3 124.7;" xml:space="preserve">
<style type="text/css">
	.st0{fill:#56B574;}
	.st1{fill:#FFFFFF;}
</style>
<title>planeta</title>
<g>
	<path class="st0" d="M9.5,63.8c-0.4,0.4-1,0.5-1.8,0.5H6.2v2.6H4.7v-7.2h3.1c0.7,0,1.3,0.2,1.7,0.6c0.4,0.4,0.6,0.9,0.6,1.7
		C10.1,62.9,9.9,63.5,9.5,63.8z M8.4,61.2C8.2,61.1,7.9,61,7.6,61H6.2v2.1h1.4c0.3,0,0.6-0.1,0.8-0.3c0.2-0.2,0.3-0.4,0.3-0.8
		C8.6,61.6,8.5,61.4,8.4,61.2z"/>
	<path class="st0" d="M12.7,66.9h-1.4v-7.2h1.4V66.9z"/>
	<path class="st0" d="M16.1,63.7c0.3,0,0.4-0.1,0.6-0.1c0.2-0.1,0.3-0.2,0.3-0.4c0-0.2-0.1-0.4-0.2-0.5c-0.2-0.1-0.4-0.1-0.7-0.1
		c-0.3,0-0.6,0.1-0.7,0.2c-0.1,0.1-0.2,0.3-0.2,0.5h-1.3c0-0.5,0.2-0.8,0.4-1.1c0.4-0.5,1-0.7,1.9-0.7c0.6,0,1.1,0.1,1.6,0.3
		c0.5,0.2,0.7,0.7,0.7,1.3v2.4c0,0.2,0,0.4,0,0.6c0,0.2,0,0.3,0.1,0.4c0,0.1,0.1,0.1,0.2,0.2v0.2h-1.5c0-0.1-0.1-0.2-0.1-0.3
		c0-0.1,0-0.2,0-0.3c-0.2,0.2-0.4,0.4-0.7,0.5c-0.3,0.2-0.6,0.3-1,0.3c-0.5,0-0.9-0.1-1.2-0.4c-0.3-0.3-0.5-0.7-0.5-1.2
		c0-0.7,0.3-1.1,0.8-1.4c0.3-0.2,0.7-0.3,1.2-0.3L16.1,63.7z M17,64.3c-0.1,0.1-0.2,0.1-0.3,0.1c-0.1,0-0.2,0.1-0.4,0.1L16,64.6
		c-0.3,0.1-0.5,0.1-0.6,0.2c-0.2,0.1-0.3,0.3-0.3,0.6c0,0.2,0.1,0.4,0.2,0.5c0.1,0.1,0.3,0.2,0.5,0.2c0.3,0,0.6-0.1,0.8-0.3
		s0.4-0.5,0.4-1V64.3z"/>
	<path class="st0" d="M23.9,61.9c0.3,0.3,0.5,0.8,0.5,1.4v3.6H23v-3.2c0-0.3,0-0.5-0.1-0.6c-0.1-0.3-0.4-0.4-0.8-0.4
		c-0.5,0-0.8,0.2-1,0.6C21,63.5,21,63.7,21,64.1v2.9h-1.4v-5.3H21v0.8c0.2-0.3,0.3-0.5,0.5-0.6c0.3-0.2,0.6-0.3,1.1-0.3
		C23.1,61.5,23.5,61.6,23.9,61.9z"/>
	<path class="st0" d="M29.2,61.7c0.4,0.2,0.7,0.4,0.9,0.8c0.2,0.3,0.4,0.7,0.4,1.1c0,0.2,0.1,0.6,0,1.1h-3.9c0,0.5,0.2,0.9,0.6,1.1
		c0.2,0.1,0.5,0.2,0.8,0.2c0.3,0,0.6-0.1,0.8-0.2c0.1-0.1,0.2-0.2,0.3-0.4h1.4c0,0.3-0.2,0.6-0.5,1c-0.5,0.5-1.1,0.8-2,0.8
		c-0.7,0-1.3-0.2-1.9-0.7c-0.5-0.4-0.8-1.1-0.8-2.1c0-0.9,0.2-1.6,0.7-2.1c0.5-0.5,1.1-0.7,1.9-0.7C28.4,61.5,28.8,61.5,29.2,61.7z
		 M27.1,62.9c-0.2,0.2-0.3,0.5-0.4,0.8h2.4c0-0.4-0.1-0.7-0.4-0.8c-0.2-0.2-0.5-0.3-0.8-0.3C27.6,62.6,27.3,62.7,27.1,62.9z"/>
	<path class="st0" d="M30.7,62.6v-1h0.7v-1.5h1.4v1.5h0.9v1h-0.9v2.8c0,0.2,0,0.4,0.1,0.4c0.1,0.1,0.2,0.1,0.5,0.1c0,0,0.1,0,0.1,0
		c0,0,0.1,0,0.1,0v1l-0.7,0c-0.7,0-1.1-0.1-1.4-0.3c-0.2-0.2-0.2-0.4-0.2-0.7v-3.3H30.7z"/>
	<path class="st0" d="M4.9,72.8v-0.7c0.6-0.1,1.1-0.2,1.3-0.3c0.3-0.1,0.4-0.5,0.6-1h0.7v7H6.5v-5H4.9z"/>
	<path class="st0" d="M10.3,76.7h1v1.1h-1V76.7z"/>
	<path class="st0" d="M16.3,70.6l1.4,5.8l1.6-5.8h1.1l1.6,5.9l1.4-5.9h1.1l-1.9,7.2h-1l-1.7-6l-1.7,6h-1l-1.9-7.2H16.3z"/>
	<path class="st0" d="M27.6,74.6c0.2,0,0.3-0.1,0.4-0.3c0-0.1,0.1-0.2,0.1-0.3c0-0.3-0.1-0.5-0.3-0.7c-0.2-0.1-0.5-0.2-0.9-0.2
		c-0.5,0-0.8,0.1-1,0.4c-0.1,0.1-0.2,0.3-0.2,0.6h-0.8c0-0.6,0.2-1.1,0.6-1.4s0.9-0.4,1.4-0.4c0.6,0,1.1,0.1,1.5,0.4
		c0.4,0.2,0.6,0.6,0.6,1.1v3c0,0.1,0,0.2,0.1,0.2c0,0.1,0.1,0.1,0.2,0.1c0,0,0.1,0,0.1,0c0,0,0.1,0,0.2,0v0.7
		c-0.1,0-0.2,0.1-0.3,0.1c-0.1,0-0.2,0-0.3,0c-0.3,0-0.5-0.1-0.7-0.3c-0.1-0.1-0.1-0.3-0.2-0.5c-0.2,0.2-0.4,0.4-0.8,0.6
		C27,77.9,26.6,78,26.2,78c-0.5,0-0.9-0.1-1.2-0.4c-0.3-0.3-0.5-0.7-0.5-1.1c0-0.5,0.2-0.9,0.5-1.1c0.3-0.3,0.7-0.4,1.2-0.5
		L27.6,74.6z M25.7,77c0.2,0.1,0.4,0.2,0.7,0.2c0.3,0,0.6-0.1,0.9-0.2c0.5-0.2,0.7-0.6,0.7-1.2v-0.7c-0.1,0.1-0.2,0.1-0.4,0.2
		c-0.2,0-0.3,0.1-0.5,0.1l-0.5,0.1c-0.3,0-0.6,0.1-0.7,0.2c-0.3,0.2-0.4,0.4-0.4,0.7C25.5,76.7,25.5,76.9,25.7,77z"/>
	<path class="st0" d="M30.5,71.1h0.9v1.5h0.8v0.7h-0.8v3.4c0,0.2,0.1,0.3,0.2,0.4c0.1,0,0.2,0.1,0.3,0.1c0,0,0.1,0,0.1,0
		c0,0,0.1,0,0.2,0v0.7c-0.1,0-0.2,0.1-0.3,0.1c-0.1,0-0.2,0-0.4,0c-0.4,0-0.7-0.1-0.8-0.3c-0.1-0.2-0.2-0.5-0.2-0.8v-3.5h-0.7v-0.7
		h0.7V71.1z"/>
	<path class="st0" d="M36.4,72.7c0.3,0.2,0.6,0.4,0.8,0.7c0.2,0.3,0.3,0.6,0.4,0.9c0.1,0.2,0.1,0.6,0.1,1.2h-3.8
		c0,0.5,0.1,1,0.4,1.3c0.2,0.3,0.6,0.5,1.1,0.5c0.5,0,0.8-0.2,1.1-0.5c0.2-0.2,0.3-0.4,0.3-0.6h0.9c0,0.2-0.1,0.4-0.2,0.6
		c-0.1,0.2-0.3,0.4-0.4,0.6c-0.3,0.3-0.6,0.4-1,0.5C35.7,78,35.4,78,35.2,78c-0.6,0-1.2-0.2-1.6-0.7c-0.5-0.5-0.7-1.1-0.7-2
		c0-0.8,0.2-1.5,0.7-2c0.5-0.5,1-0.8,1.8-0.8C35.7,72.4,36,72.5,36.4,72.7z M36.7,74.8c0-0.4-0.1-0.7-0.2-0.9
		c-0.2-0.4-0.6-0.6-1.2-0.6c-0.4,0-0.7,0.1-1,0.4c-0.3,0.3-0.4,0.7-0.4,1.1H36.7z"/>
	<path class="st0" d="M38.7,72.6h0.8v0.9c0.1-0.2,0.2-0.4,0.5-0.6c0.3-0.3,0.6-0.4,0.9-0.4c0,0,0,0,0.1,0c0,0,0.1,0,0.2,0v0.9
		c-0.1,0-0.1,0-0.1,0c0,0-0.1,0-0.1,0c-0.4,0-0.8,0.1-1,0.4c-0.2,0.3-0.4,0.6-0.4,1v3h-0.9V72.6z"/>
	<path class="st0" d="M4.6,87.1c0.2-0.4,0.6-0.9,1.3-1.2l0.9-0.5c0.4-0.2,0.7-0.5,0.9-0.6c0.3-0.3,0.4-0.6,0.4-0.9
		c0-0.4-0.1-0.7-0.4-1c-0.2-0.2-0.6-0.4-1-0.4c-0.6,0-1,0.2-1.3,0.7c-0.1,0.2-0.2,0.6-0.2,1H4.4c0-0.6,0.1-1.1,0.3-1.5
		c0.4-0.7,1.1-1,2-1c0.8,0,1.4,0.2,1.8,0.7c0.4,0.4,0.6,0.9,0.6,1.4c0,0.6-0.2,1-0.6,1.4c-0.2,0.2-0.6,0.5-1.2,0.8l-0.7,0.4
		c-0.3,0.2-0.6,0.3-0.8,0.5c-0.3,0.3-0.5,0.6-0.6,0.9H9v0.8H4.2C4.2,88,4.4,87.5,4.6,87.1z"/>
	<path class="st0" d="M10.3,87.6h1v1.1h-1V87.6z"/>
	<path class="st0" d="M20.9,82c0.5,0.5,0.8,1,0.8,1.6h-0.9c-0.1-0.5-0.3-0.8-0.6-1.1c-0.3-0.3-0.8-0.4-1.3-0.4
		c-0.7,0-1.3,0.2-1.7,0.7c-0.4,0.5-0.6,1.3-0.6,2.3c0,0.8,0.2,1.5,0.6,2c0.4,0.5,1,0.8,1.7,0.8c0.7,0,1.2-0.3,1.6-0.8
		c0.2-0.3,0.3-0.7,0.4-1.1h0.9c-0.1,0.8-0.4,1.4-0.8,1.9c-0.6,0.6-1.3,0.9-2.3,0.9c-0.8,0-1.5-0.3-2.1-0.8c-0.7-0.7-1.1-1.7-1.1-3.1
		c0-1.1,0.3-1.9,0.8-2.6c0.6-0.7,1.4-1.1,2.5-1.1C19.7,81.3,20.4,81.5,20.9,82z"/>
	<path class="st0" d="M22.9,81.5h0.9v7.2h-0.9V81.5z"/>
	<path class="st0" d="M25.1,81.5H26v1h-0.9V81.5z M25.1,83.4H26v5.2h-0.9V83.4z"/>
	<path class="st0" d="M27.4,83.4h0.9v0.7c0.2-0.3,0.4-0.4,0.6-0.6c0.3-0.2,0.6-0.3,1-0.3c0.4,0,0.8,0.1,1,0.3
		c0.1,0.1,0.3,0.3,0.4,0.5c0.2-0.3,0.4-0.5,0.7-0.6c0.3-0.1,0.6-0.2,0.9-0.2c0.7,0,1.2,0.3,1.4,0.8c0.1,0.3,0.2,0.6,0.2,1.1v3.5
		h-0.9V85c0-0.3-0.1-0.6-0.3-0.7c-0.2-0.1-0.4-0.2-0.6-0.2c-0.3,0-0.6,0.1-0.9,0.3c-0.2,0.2-0.4,0.6-0.4,1.2v3h-0.9v-3.4
		c0-0.4,0-0.6-0.1-0.8c-0.1-0.2-0.4-0.4-0.7-0.4c-0.3,0-0.6,0.1-0.9,0.4c-0.3,0.3-0.4,0.7-0.4,1.4v2.8h-0.9V83.4z"/>
	<path class="st0" d="M38.5,85.5c0.2,0,0.3-0.1,0.4-0.3c0-0.1,0.1-0.2,0.1-0.3c0-0.3-0.1-0.5-0.3-0.7c-0.2-0.1-0.5-0.2-0.9-0.2
		c-0.5,0-0.8,0.1-1,0.4c-0.1,0.1-0.2,0.3-0.2,0.6h-0.8c0-0.6,0.2-1.1,0.6-1.4s0.9-0.4,1.4-0.4c0.6,0,1.1,0.1,1.5,0.4
		c0.4,0.2,0.6,0.6,0.6,1.1v3c0,0.1,0,0.2,0.1,0.2c0,0.1,0.1,0.1,0.2,0.1c0,0,0.1,0,0.1,0c0,0,0.1,0,0.2,0v0.7
		c-0.1,0-0.2,0.1-0.3,0.1c-0.1,0-0.2,0-0.3,0c-0.3,0-0.5-0.1-0.7-0.3C39.1,88.3,39,88.2,39,88c-0.2,0.2-0.4,0.4-0.8,0.6
		s-0.7,0.3-1.1,0.3c-0.5,0-0.9-0.1-1.2-0.4c-0.3-0.3-0.5-0.7-0.5-1.1c0-0.5,0.2-0.9,0.5-1.1c0.3-0.3,0.7-0.4,1.2-0.5L38.5,85.5z
		 M36.7,87.9c0.2,0.1,0.4,0.2,0.7,0.2c0.3,0,0.6-0.1,0.9-0.2c0.5-0.2,0.7-0.6,0.7-1.2V86c-0.1,0.1-0.2,0.1-0.4,0.2
		c-0.2,0-0.3,0.1-0.5,0.1l-0.5,0.1c-0.3,0-0.6,0.1-0.7,0.2c-0.3,0.2-0.4,0.4-0.4,0.7C36.4,87.5,36.5,87.7,36.7,87.9z"/>
	<path class="st0" d="M41.5,81.9h0.9v1.5h0.8v0.7h-0.8v3.4c0,0.2,0.1,0.3,0.2,0.4c0.1,0,0.2,0.1,0.3,0.1c0,0,0.1,0,0.1,0
		c0,0,0.1,0,0.2,0v0.7c-0.1,0-0.2,0.1-0.3,0.1c-0.1,0-0.2,0-0.4,0c-0.4,0-0.7-0.1-0.8-0.3c-0.1-0.2-0.2-0.5-0.2-0.8v-3.5h-0.7v-0.7
		h0.7V81.9z"/>
	<path class="st0" d="M47.3,83.6c0.3,0.2,0.6,0.4,0.8,0.7c0.2,0.3,0.3,0.6,0.4,0.9c0.1,0.2,0.1,0.6,0.1,1.2h-3.8
		c0,0.5,0.1,1,0.4,1.3c0.2,0.3,0.6,0.5,1.1,0.5c0.5,0,0.8-0.2,1.1-0.5c0.2-0.2,0.3-0.4,0.3-0.6h0.9c0,0.2-0.1,0.4-0.2,0.6
		c-0.1,0.2-0.3,0.4-0.4,0.6c-0.3,0.3-0.6,0.4-1,0.5c-0.2,0.1-0.4,0.1-0.7,0.1c-0.6,0-1.2-0.2-1.6-0.7c-0.5-0.5-0.7-1.1-0.7-2
		c0-0.8,0.2-1.5,0.7-2c0.5-0.5,1-0.8,1.8-0.8C46.6,83.3,47,83.4,47.3,83.6z M47.6,85.6c0-0.4-0.1-0.7-0.2-0.9
		c-0.2-0.4-0.6-0.6-1.2-0.6c-0.4,0-0.7,0.1-1,0.4c-0.3,0.3-0.4,0.7-0.4,1.1H47.6z"/>
	<path class="st0" d="M55.9,83.7c0.4,0.3,0.6,0.8,0.7,1.5h-0.9c-0.1-0.3-0.2-0.6-0.4-0.8c-0.2-0.2-0.5-0.3-0.9-0.3
		c-0.6,0-1,0.3-1.2,0.8c-0.2,0.4-0.2,0.8-0.2,1.3c0,0.5,0.1,1,0.3,1.3c0.2,0.4,0.6,0.5,1,0.5c0.4,0,0.7-0.1,0.9-0.3
		c0.2-0.2,0.4-0.5,0.4-0.9h0.9c-0.1,0.7-0.3,1.2-0.7,1.5c-0.4,0.3-0.9,0.5-1.5,0.5c-0.7,0-1.2-0.2-1.6-0.8c-0.4-0.5-0.6-1.1-0.6-1.9
		c0-0.9,0.2-1.6,0.7-2.1c0.4-0.5,1-0.8,1.7-0.8C55,83.3,55.5,83.4,55.9,83.7z"/>
	<path class="st0" d="M57.4,81.4h0.9v2.7c0.2-0.3,0.4-0.5,0.6-0.6c0.3-0.2,0.6-0.3,1.1-0.3c0.8,0,1.3,0.3,1.5,0.8
		c0.1,0.3,0.2,0.7,0.2,1.2v3.4h-0.9v-3.3c0-0.4,0-0.7-0.1-0.8c-0.2-0.3-0.5-0.4-0.9-0.4c-0.4,0-0.7,0.1-1,0.4
		c-0.3,0.3-0.4,0.7-0.4,1.4v2.8h-0.9V81.4z"/>
	<path class="st0" d="M65.8,85.5c0.2,0,0.3-0.1,0.4-0.3c0-0.1,0.1-0.2,0.1-0.3c0-0.3-0.1-0.5-0.3-0.7c-0.2-0.1-0.5-0.2-0.9-0.2
		c-0.5,0-0.8,0.1-1,0.4c-0.1,0.1-0.2,0.3-0.2,0.6H63c0-0.6,0.2-1.1,0.6-1.4c0.4-0.3,0.9-0.4,1.4-0.4c0.6,0,1.1,0.1,1.5,0.4
		c0.4,0.2,0.6,0.6,0.6,1.1v3c0,0.1,0,0.2,0.1,0.2c0,0.1,0.1,0.1,0.2,0.1c0,0,0.1,0,0.1,0c0,0,0.1,0,0.2,0v0.7
		c-0.1,0-0.2,0.1-0.3,0.1c-0.1,0-0.2,0-0.3,0c-0.3,0-0.5-0.1-0.7-0.3c-0.1-0.1-0.1-0.3-0.2-0.5c-0.2,0.2-0.4,0.4-0.8,0.6
		s-0.7,0.3-1.1,0.3c-0.5,0-0.9-0.1-1.2-0.4c-0.3-0.3-0.5-0.7-0.5-1.1c0-0.5,0.2-0.9,0.5-1.1c0.3-0.3,0.7-0.4,1.2-0.5L65.8,85.5z
		 M64,87.9c0.2,0.1,0.4,0.2,0.7,0.2c0.3,0,0.6-0.1,0.9-0.2c0.5-0.2,0.7-0.6,0.7-1.2V86c-0.1,0.1-0.2,0.1-0.4,0.2
		c-0.2,0-0.3,0.1-0.5,0.1l-0.5,0.1c-0.3,0-0.6,0.1-0.7,0.2c-0.3,0.2-0.4,0.4-0.4,0.7C63.7,87.5,63.8,87.7,64,87.9z"/>
	<path class="st0" d="M68.6,83.4h0.8v0.7c0.2-0.3,0.5-0.5,0.8-0.7c0.3-0.1,0.6-0.2,0.9-0.2c0.7,0,1.2,0.3,1.5,0.8
		c0.1,0.3,0.2,0.7,0.2,1.2v3.4H72v-3.3c0-0.3,0-0.6-0.1-0.8c-0.2-0.3-0.4-0.5-0.9-0.5c-0.2,0-0.4,0-0.5,0.1
		c-0.2,0.1-0.5,0.2-0.6,0.4c-0.1,0.2-0.2,0.4-0.3,0.5c0,0.2-0.1,0.4-0.1,0.8v2.7h-0.9V83.4z"/>
	<path class="st0" d="M77.1,83.6c0.2,0.1,0.3,0.3,0.5,0.5v-0.7h0.8v4.8c0,0.7-0.1,1.2-0.3,1.6c-0.4,0.7-1.1,1.1-2.1,1.1
		c-0.6,0-1-0.1-1.4-0.4c-0.4-0.3-0.6-0.6-0.6-1.2h0.9c0,0.2,0.1,0.4,0.3,0.5c0.2,0.2,0.5,0.3,0.9,0.3c0.7,0,1.1-0.2,1.3-0.7
		c0.1-0.3,0.2-0.8,0.2-1.5c-0.2,0.3-0.4,0.5-0.6,0.6c-0.2,0.1-0.6,0.2-1,0.2c-0.6,0-1.1-0.2-1.5-0.6c-0.4-0.4-0.6-1.1-0.6-2
		c0-0.9,0.2-1.6,0.6-2.1c0.4-0.5,0.9-0.7,1.5-0.7C76.4,83.3,76.8,83.4,77.1,83.6z M77.2,84.6c-0.3-0.3-0.6-0.5-1-0.5
		c-0.6,0-1,0.3-1.3,0.9c-0.1,0.3-0.2,0.7-0.2,1.2c0,0.6,0.1,1,0.4,1.3c0.2,0.3,0.6,0.5,1,0.5c0.6,0,1.1-0.3,1.3-0.9
		c0.1-0.3,0.2-0.7,0.2-1.1C77.6,85.4,77.4,84.9,77.2,84.6z"/>
	<path class="st0" d="M83,83.6c0.3,0.2,0.6,0.4,0.8,0.7c0.2,0.3,0.3,0.6,0.4,0.9c0.1,0.2,0.1,0.6,0.1,1.2h-3.8c0,0.5,0.1,1,0.4,1.3
		c0.2,0.3,0.6,0.5,1.1,0.5c0.5,0,0.8-0.2,1.1-0.5c0.2-0.2,0.3-0.4,0.3-0.6h0.9c0,0.2-0.1,0.4-0.2,0.6c-0.1,0.2-0.3,0.4-0.4,0.6
		c-0.3,0.3-0.6,0.4-1,0.5c-0.2,0.1-0.4,0.1-0.7,0.1c-0.6,0-1.2-0.2-1.6-0.7c-0.5-0.5-0.7-1.1-0.7-2c0-0.8,0.2-1.5,0.7-2
		c0.5-0.5,1-0.8,1.8-0.8C82.3,83.3,82.6,83.4,83,83.6z M83.3,85.6c0-0.4-0.1-0.7-0.2-0.9c-0.2-0.4-0.6-0.6-1.2-0.6
		c-0.4,0-0.7,0.1-1,0.4c-0.3,0.3-0.4,0.7-0.4,1.1H83.3z"/>
	<path class="st0" d="M4.7,99c-0.4-0.5-0.6-1-0.6-1.7h0.9c0,0.5,0.1,0.8,0.3,1c0.2,0.4,0.6,0.6,1.2,0.6c0.5,0,0.8-0.1,1.1-0.4
		c0.3-0.2,0.4-0.6,0.4-1c0-0.5-0.1-0.8-0.4-1c-0.3-0.2-0.7-0.3-1.2-0.3c-0.1,0-0.1,0-0.2,0c-0.1,0-0.1,0-0.2,0v-0.8
		c0.1,0,0.2,0,0.2,0c0.1,0,0.1,0,0.2,0c0.3,0,0.6-0.1,0.8-0.2c0.4-0.2,0.6-0.5,0.6-1c0-0.3-0.1-0.6-0.4-0.8s-0.5-0.3-0.9-0.3
		c-0.6,0-1,0.2-1.2,0.6c-0.1,0.2-0.2,0.5-0.2,0.9H4.3c0-0.5,0.1-1,0.3-1.3c0.4-0.7,1-1,1.9-1c0.7,0,1.3,0.2,1.7,0.5
		c0.4,0.3,0.6,0.8,0.6,1.4c0,0.4-0.1,0.8-0.3,1c-0.1,0.2-0.3,0.3-0.6,0.4c0.4,0.1,0.7,0.3,0.9,0.6C8.9,96.7,9,97,9,97.4
		c0,0.7-0.2,1.2-0.7,1.6c-0.4,0.4-1.1,0.6-1.9,0.6C5.7,99.7,5.1,99.5,4.7,99z"/>
	<path class="st0" d="M10.3,98.4h1v1.1h-1V98.4z"/>
	<path class="st0" d="M15.9,92.3h3.2c0.6,0,1.1,0.2,1.5,0.5c0.4,0.4,0.6,0.9,0.6,1.5c0,0.6-0.2,1-0.5,1.5c-0.3,0.4-0.9,0.6-1.6,0.6
		h-2.2v3h-1V92.3z M19.7,93.3c-0.2-0.1-0.5-0.2-0.9-0.2h-1.9v2.5h1.9c0.4,0,0.8-0.1,1.1-0.3c0.3-0.2,0.4-0.5,0.4-1
		C20.3,93.9,20.1,93.5,19.7,93.3z"/>
	<path class="st0" d="M25.2,96.3c0.2,0,0.3-0.1,0.4-0.3c0-0.1,0.1-0.2,0.1-0.3c0-0.3-0.1-0.5-0.3-0.7c-0.2-0.1-0.5-0.2-0.9-0.2
		c-0.5,0-0.8,0.1-1,0.4c-0.1,0.1-0.2,0.3-0.2,0.6h-0.8c0-0.6,0.2-1.1,0.6-1.4c0.4-0.3,0.9-0.4,1.4-0.4c0.6,0,1.1,0.1,1.5,0.4
		c0.4,0.2,0.6,0.6,0.6,1.1v3c0,0.1,0,0.2,0.1,0.2c0,0.1,0.1,0.1,0.2,0.1c0,0,0.1,0,0.1,0c0,0,0.1,0,0.2,0v0.7
		c-0.1,0-0.2,0.1-0.3,0.1c-0.1,0-0.2,0-0.3,0c-0.3,0-0.5-0.1-0.7-0.3c-0.1-0.1-0.1-0.3-0.2-0.5c-0.2,0.2-0.4,0.4-0.8,0.6
		c-0.3,0.2-0.7,0.3-1.1,0.3c-0.5,0-0.9-0.1-1.2-0.4c-0.3-0.3-0.5-0.7-0.5-1.1c0-0.5,0.2-0.9,0.5-1.1c0.3-0.3,0.7-0.4,1.2-0.5
		L25.2,96.3z M23.3,98.7c0.2,0.1,0.4,0.2,0.7,0.2c0.3,0,0.6-0.1,0.9-0.2c0.5-0.2,0.7-0.6,0.7-1.2v-0.7c-0.1,0.1-0.2,0.1-0.4,0.2
		c-0.2,0-0.3,0.1-0.5,0.1l-0.5,0.1c-0.3,0-0.6,0.1-0.7,0.2c-0.3,0.2-0.4,0.4-0.4,0.7C23,98.4,23.1,98.6,23.3,98.7z"/>
	<path class="st0" d="M31.4,94.5c0.4,0.3,0.6,0.8,0.7,1.5h-0.9c-0.1-0.3-0.2-0.6-0.4-0.8c-0.2-0.2-0.5-0.3-0.9-0.3
		c-0.6,0-1,0.3-1.2,0.8c-0.2,0.4-0.2,0.8-0.2,1.3c0,0.5,0.1,1,0.3,1.3c0.2,0.4,0.6,0.5,1,0.5c0.4,0,0.7-0.1,0.9-0.3
		c0.2-0.2,0.4-0.5,0.4-0.9h0.9c-0.1,0.7-0.3,1.2-0.7,1.5c-0.4,0.3-0.9,0.5-1.5,0.5c-0.7,0-1.2-0.2-1.6-0.8c-0.4-0.5-0.6-1.1-0.6-1.9
		c0-0.9,0.2-1.6,0.7-2.1c0.4-0.5,1-0.8,1.7-0.8C30.6,94.1,31,94.3,31.4,94.5z"/>
	<path class="st0" d="M32.9,92.3h0.8v4.2l2.3-2.2h1.1l-2,1.9l2.1,3.3h-1.1l-1.6-2.7l-0.7,0.7v2h-0.8V92.3z"/>
	<path class="st0" d="M40.8,96.3c0.2,0,0.3-0.1,0.4-0.3c0-0.1,0.1-0.2,0.1-0.3c0-0.3-0.1-0.5-0.3-0.7c-0.2-0.1-0.5-0.2-0.9-0.2
		c-0.5,0-0.8,0.1-1,0.4c-0.1,0.1-0.2,0.3-0.2,0.6H38c0-0.6,0.2-1.1,0.6-1.4c0.4-0.3,0.9-0.4,1.4-0.4c0.6,0,1.1,0.1,1.5,0.4
		c0.4,0.2,0.6,0.6,0.6,1.1v3c0,0.1,0,0.2,0.1,0.2c0,0.1,0.1,0.1,0.2,0.1c0,0,0.1,0,0.1,0c0,0,0.1,0,0.2,0v0.7
		c-0.1,0-0.2,0.1-0.3,0.1c-0.1,0-0.2,0-0.3,0c-0.3,0-0.5-0.1-0.7-0.3c-0.1-0.1-0.1-0.3-0.2-0.5c-0.2,0.2-0.4,0.4-0.8,0.6
		c-0.3,0.2-0.7,0.3-1.1,0.3c-0.5,0-0.9-0.1-1.2-0.4c-0.3-0.3-0.5-0.7-0.5-1.1c0-0.5,0.2-0.9,0.5-1.1c0.3-0.3,0.7-0.4,1.2-0.5
		L40.8,96.3z M38.9,98.7c0.2,0.1,0.4,0.2,0.7,0.2c0.3,0,0.6-0.1,0.9-0.2c0.5-0.2,0.7-0.6,0.7-1.2v-0.7C41.1,96.9,41,97,40.8,97
		c-0.2,0-0.3,0.1-0.5,0.1l-0.5,0.1c-0.3,0-0.6,0.1-0.7,0.2c-0.3,0.2-0.4,0.4-0.4,0.7C38.6,98.4,38.7,98.6,38.9,98.7z"/>
	<path class="st0" d="M46.4,94.5c0.2,0.1,0.3,0.3,0.5,0.5v-0.7h0.8v4.8c0,0.7-0.1,1.2-0.3,1.6c-0.4,0.7-1.1,1.1-2.1,1.1
		c-0.6,0-1-0.1-1.4-0.4c-0.4-0.3-0.6-0.6-0.6-1.2h0.9c0,0.2,0.1,0.4,0.3,0.5c0.2,0.2,0.5,0.3,0.9,0.3c0.7,0,1.1-0.2,1.3-0.7
		c0.1-0.3,0.2-0.8,0.2-1.5c-0.2,0.3-0.4,0.5-0.6,0.6c-0.2,0.1-0.6,0.2-1,0.2c-0.6,0-1.1-0.2-1.5-0.6c-0.4-0.4-0.6-1.1-0.6-2
		c0-0.9,0.2-1.6,0.6-2.1c0.4-0.5,0.9-0.7,1.5-0.7C45.8,94.2,46.1,94.3,46.4,94.5z M46.6,95.4c-0.3-0.3-0.6-0.5-1-0.5
		c-0.6,0-1,0.3-1.3,0.9c-0.1,0.3-0.2,0.7-0.2,1.2c0,0.6,0.1,1,0.4,1.3c0.2,0.3,0.6,0.5,1,0.5c0.6,0,1.1-0.3,1.3-0.9
		c0.1-0.3,0.2-0.7,0.2-1.1C47,96.2,46.8,95.7,46.6,95.4z"/>
	<path class="st0" d="M49.1,92.3H50v1h-0.9V92.3z M49.1,94.3H50v5.2h-0.9V94.3z"/>
	<path class="st0" d="M51.3,94.3h0.8V95c0.2-0.3,0.5-0.5,0.8-0.7c0.3-0.1,0.6-0.2,0.9-0.2c0.7,0,1.2,0.3,1.5,0.8
		c0.1,0.3,0.2,0.7,0.2,1.2v3.4h-0.9v-3.3c0-0.3,0-0.6-0.1-0.8c-0.2-0.3-0.4-0.5-0.9-0.5c-0.2,0-0.4,0-0.5,0.1
		c-0.2,0.1-0.5,0.2-0.6,0.4c-0.1,0.2-0.2,0.4-0.3,0.5c0,0.2-0.1,0.4-0.1,0.8v2.7h-0.9V94.3z"/>
	<path class="st0" d="M59.8,94.5c0.2,0.1,0.3,0.3,0.5,0.5v-0.7h0.8v4.8c0,0.7-0.1,1.2-0.3,1.6c-0.4,0.7-1.1,1.1-2.1,1.1
		c-0.6,0-1-0.1-1.4-0.4c-0.4-0.3-0.6-0.6-0.6-1.2h0.9c0,0.2,0.1,0.4,0.3,0.5c0.2,0.2,0.5,0.3,0.9,0.3c0.7,0,1.1-0.2,1.3-0.7
		c0.1-0.3,0.2-0.8,0.2-1.5c-0.2,0.3-0.4,0.5-0.6,0.6c-0.2,0.1-0.6,0.2-1,0.2c-0.6,0-1.1-0.2-1.5-0.6c-0.4-0.4-0.6-1.1-0.6-2
		c0-0.9,0.2-1.6,0.6-2.1c0.4-0.5,0.9-0.7,1.5-0.7C59.2,94.2,59.5,94.3,59.8,94.5z M59.9,95.4c-0.3-0.3-0.6-0.5-1-0.5
		c-0.6,0-1,0.3-1.3,0.9c-0.1,0.3-0.2,0.7-0.2,1.2c0,0.6,0.1,1,0.4,1.3c0.2,0.3,0.6,0.5,1,0.5c0.6,0,1.1-0.3,1.3-0.9
		c0.1-0.3,0.2-0.7,0.2-1.1C60.3,96.2,60.2,95.7,59.9,95.4z"/>
	<path class="st0" d="M7.2,110.4v-1.7H4.2v-0.9l3.2-4.5h0.7v4.5h1v0.8h-1v1.7H7.2z M7.2,107.9v-3.2L5,107.9H7.2z"/>
	<path class="st0" d="M10.3,109.3h1v1.1h-1V109.3z"/>
	<path class="st0" d="M15.9,103.2h5v0.9h-4v2.2h3.5v0.9h-3.5v3.3h-1V103.2z"/>
	<path class="st0" d="M25.6,105.6c0.5,0.5,0.7,1.1,0.7,2c0,0.8-0.2,1.5-0.6,2.1c-0.4,0.6-1,0.8-1.9,0.8c-0.7,0-1.3-0.2-1.7-0.7
		c-0.4-0.5-0.6-1.1-0.6-2c0-0.9,0.2-1.6,0.7-2.1c0.4-0.5,1-0.8,1.8-0.8C24.6,105,25.1,105.2,25.6,105.6z M25.1,109.1
		c0.2-0.4,0.3-0.9,0.3-1.5c0-0.5-0.1-0.9-0.2-1.2c-0.2-0.5-0.7-0.7-1.3-0.7c-0.5,0-0.9,0.2-1.2,0.6c-0.2,0.4-0.4,0.9-0.4,1.5
		c0,0.6,0.1,1,0.4,1.4c0.2,0.4,0.6,0.6,1.2,0.6C24.4,109.8,24.8,109.6,25.1,109.1z"/>
	<path class="st0" d="M31.2,105.6c0.5,0.5,0.7,1.1,0.7,2c0,0.8-0.2,1.5-0.6,2.1c-0.4,0.6-1,0.8-1.9,0.8c-0.7,0-1.3-0.2-1.7-0.7
		c-0.4-0.5-0.6-1.1-0.6-2c0-0.9,0.2-1.6,0.7-2.1c0.4-0.5,1-0.8,1.8-0.8C30.1,105,30.7,105.2,31.2,105.6z M30.6,109.1
		c0.2-0.4,0.3-0.9,0.3-1.5c0-0.5-0.1-0.9-0.2-1.2c-0.2-0.5-0.7-0.7-1.3-0.7c-0.5,0-0.9,0.2-1.2,0.6c-0.2,0.4-0.4,0.9-0.4,1.5
		c0,0.6,0.1,1,0.4,1.4c0.2,0.4,0.6,0.6,1.2,0.6C30,109.8,30.4,109.6,30.6,109.1z"/>
	<path class="st0" d="M35.8,105.3c0.2,0.1,0.3,0.3,0.5,0.5v-2.6h0.8v7.2h-0.8v-0.7c-0.2,0.3-0.4,0.6-0.7,0.7c-0.3,0.1-0.6,0.2-1,0.2
		c-0.6,0-1.1-0.2-1.5-0.7s-0.6-1.1-0.6-2c0-0.8,0.2-1.4,0.6-2c0.4-0.6,0.9-0.8,1.7-0.8C35.2,105,35.6,105.1,35.8,105.3z M33.9,109.2
		c0.2,0.4,0.6,0.6,1.1,0.6c0.4,0,0.7-0.2,1-0.5c0.3-0.4,0.4-0.9,0.4-1.5c0-0.7-0.1-1.2-0.4-1.5c-0.3-0.3-0.6-0.5-1-0.5
		c-0.4,0-0.8,0.2-1.1,0.5c-0.3,0.3-0.4,0.8-0.4,1.5C33.5,108.4,33.6,108.8,33.9,109.2z"/>
	<path class="st0" d="M41.8,108.7c0,0.3,0.1,0.5,0.2,0.7c0.2,0.3,0.6,0.4,1.2,0.4c0.3,0,0.6-0.1,0.9-0.2c0.3-0.1,0.4-0.4,0.4-0.7
		c0-0.2-0.1-0.4-0.3-0.5c-0.1-0.1-0.4-0.2-0.8-0.2l-0.7-0.2c-0.5-0.1-0.8-0.2-1-0.4c-0.4-0.2-0.6-0.6-0.6-1c0-0.5,0.2-0.9,0.5-1.2
		c0.4-0.3,0.8-0.5,1.5-0.5c0.8,0,1.4,0.2,1.7,0.7c0.2,0.3,0.3,0.6,0.3,0.9h-0.8c0-0.2-0.1-0.4-0.2-0.5c-0.2-0.2-0.6-0.3-1.1-0.3
		c-0.3,0-0.6,0.1-0.8,0.2c-0.2,0.1-0.3,0.3-0.3,0.5c0,0.2,0.1,0.4,0.3,0.5c0.1,0.1,0.3,0.2,0.6,0.2l0.6,0.1c0.6,0.2,1.1,0.3,1.3,0.4
		c0.3,0.2,0.5,0.6,0.5,1.1c0,0.5-0.2,0.9-0.5,1.2c-0.4,0.3-0.9,0.5-1.6,0.5c-0.8,0-1.3-0.2-1.7-0.5c-0.3-0.4-0.5-0.8-0.5-1.3H41.8z"
		/>
	<path class="st0" d="M49.6,105.3c0.3,0.2,0.6,0.4,0.8,0.7c0.2,0.3,0.3,0.6,0.4,0.9c0.1,0.2,0.1,0.6,0.1,1.2H47c0,0.5,0.1,1,0.4,1.3
		c0.2,0.3,0.6,0.5,1.1,0.5c0.5,0,0.8-0.2,1.1-0.5c0.2-0.2,0.3-0.4,0.3-0.6h0.9c0,0.2-0.1,0.4-0.2,0.6c-0.1,0.2-0.3,0.4-0.4,0.6
		c-0.3,0.3-0.6,0.4-1,0.5c-0.2,0.1-0.4,0.1-0.7,0.1c-0.6,0-1.2-0.2-1.6-0.7c-0.5-0.5-0.7-1.1-0.7-2c0-0.8,0.2-1.5,0.7-2
		c0.5-0.5,1-0.8,1.8-0.8C48.8,105,49.2,105.1,49.6,105.3z M49.9,107.3c0-0.4-0.1-0.7-0.2-0.9c-0.2-0.4-0.6-0.6-1.2-0.6
		c-0.4,0-0.7,0.1-1,0.4c-0.3,0.3-0.4,0.7-0.4,1.1H49.9z"/>
	<path class="st0" d="M55.4,105.4c0.4,0.3,0.6,0.8,0.7,1.5h-0.9c-0.1-0.3-0.2-0.6-0.4-0.8c-0.2-0.2-0.5-0.3-0.9-0.3
		c-0.6,0-1,0.3-1.2,0.8c-0.2,0.4-0.2,0.8-0.2,1.3c0,0.5,0.1,1,0.3,1.3c0.2,0.4,0.6,0.5,1,0.5c0.4,0,0.7-0.1,0.9-0.3
		c0.2-0.2,0.4-0.5,0.4-0.9H56c-0.1,0.7-0.3,1.2-0.7,1.5c-0.4,0.3-0.9,0.5-1.5,0.5c-0.7,0-1.2-0.2-1.6-0.8c-0.4-0.5-0.6-1.1-0.6-1.9
		c0-0.9,0.2-1.6,0.7-2.1c0.4-0.5,1-0.8,1.7-0.8C54.5,105,55,105.1,55.4,105.4z"/>
	<path class="st0" d="M57.8,105.1v3.5c0,0.3,0,0.5,0.1,0.7c0.2,0.3,0.4,0.5,0.9,0.5c0.6,0,1-0.3,1.2-0.8c0.1-0.3,0.2-0.7,0.2-1.2
		v-2.6H61v5.2h-0.8l0-0.8c-0.1,0.2-0.3,0.4-0.4,0.5c-0.3,0.3-0.7,0.4-1.2,0.4c-0.7,0-1.2-0.2-1.5-0.7c-0.1-0.3-0.2-0.6-0.2-1.1v-3.6
		H57.8z"/>
	<path class="st0" d="M62.5,105.1h0.8v0.9c0.1-0.2,0.2-0.4,0.5-0.6c0.3-0.3,0.6-0.4,0.9-0.4c0,0,0,0,0.1,0c0,0,0.1,0,0.2,0v0.9
		c-0.1,0-0.1,0-0.1,0c0,0-0.1,0-0.1,0c-0.4,0-0.8,0.1-1,0.4c-0.2,0.3-0.4,0.6-0.4,1v3h-0.9V105.1z"/>
	<path class="st0" d="M65.8,103.2h0.9v1h-0.9V103.2z M65.8,105.1h0.9v5.2h-0.9V105.1z"/>
	<path class="st0" d="M68.2,103.7h0.9v1.5h0.8v0.7h-0.8v3.4c0,0.2,0.1,0.3,0.2,0.4c0.1,0,0.2,0.1,0.3,0.1c0,0,0.1,0,0.1,0
		c0,0,0.1,0,0.2,0v0.7c-0.1,0-0.2,0.1-0.3,0.1c-0.1,0-0.2,0-0.4,0c-0.4,0-0.7-0.1-0.8-0.3c-0.1-0.2-0.2-0.5-0.2-0.8v-3.5h-0.7v-0.7
		h0.7V103.7z"/>
	<path class="st0" d="M74.1,105.1h1c-0.1,0.3-0.4,1.1-0.8,2.3c-0.3,0.9-0.6,1.6-0.8,2.2c-0.5,1.3-0.9,2.2-1.1,2.4
		c-0.2,0.3-0.6,0.4-1.1,0.4c-0.1,0-0.2,0-0.3,0c-0.1,0-0.1,0-0.2-0.1v-0.8c0.2,0,0.3,0.1,0.3,0.1c0.1,0,0.1,0,0.2,0
		c0.2,0,0.3,0,0.4-0.1c0.1-0.1,0.1-0.1,0.2-0.2c0,0,0.1-0.2,0.2-0.4c0.1-0.2,0.2-0.4,0.2-0.5l-1.9-5.4h1l1.4,4.3L74.1,105.1z"/>
</g>
<g>
	<circle class="st0" cx="26.4" cy="26.7" r="24.5"/>
	<g>
		<path class="st1" d="M28,21.2c0.3-0.7,0.5-1.4,0.5-2.2c0.1-0.8-0.1-1.6-0.3-2.5c-0.3-0.8-0.6-1.6-1.2-2.3
			c-0.5-0.7-1.2-1.3-1.9-1.6c-0.7-0.4-1.4-0.5-1.9-0.5c-0.2,0-0.5,0.1-0.6,0.1c-0.1,0-0.2,0.1-0.2,0.1s0,0.1,0,0.2
			c0,0.1,0,0.3,0.1,0.5c0,0.4,0,0.9-0.1,1.5c-0.1,1.1-0.1,2.4,0.3,3.7c0.2,0.6,0.5,1.3,0.8,1.8c0.3,0.6,0.7,1.1,1.1,1.6
			c0.4,0.4,1.2,1.4,1.5,1.6c0.1-0.5,0.1-1.1,0.2-1.7c0-0.4,0-0.8,0-1.2c0-0.4-0.1-0.8-0.1-1.1c-0.1-0.4-0.2-0.7-0.2-1
			c-0.1-0.3-0.2-0.6-0.3-0.9c-0.1-0.3-0.3-0.5-0.4-0.7c-0.1-0.2-0.3-0.4-0.4-0.5c-0.2-0.3-0.3-0.4-0.3-0.4s0.1,0.1,0.4,0.4
			c0.1,0.1,0.3,0.3,0.4,0.5c0.1,0.2,0.3,0.4,0.4,0.7c0.1,0.3,0.3,0.6,0.4,0.9c0.1,0.3,0.2,0.7,0.3,1.1c0.1,0.4,0.2,0.8,0.2,1.2
			c0,0.4,0.1,0.8,0.1,1.2c0,0.5,0,0.9,0,1.4c0,0,0.1-0.1,0.1-0.1C27.4,22.4,27.7,21.8,28,21.2L28,21.2z M28,21.2"/>
		<path class="st1" d="M24.4,24.5c0.1,0.1,0.1,0.2,0.2,0.3c-3,0.6-5.5,2.8-6.5,5.7l0.2,0c0.3,0,0.6,0.1,1.3,0.2
			c0-0.2,0.1-0.4,0.2-0.5c0.5-0.6,1.2-1,2-1c1.3,0,2.6,0,4,0.5c0.7,0.2,1.5,0.2,2.2-0.1c2.1-0.9,4-0.8,5.6,0.2
			c0.2,0.1,0.4,0.3,0.6,0.4c-1.1-2.8-3.6-4.8-6.6-5.3c0.1-0.1,0.2-0.3,0.3-0.4c0.1-0.1,0.3-0.5,0.2-0.6c0-0.1,0-0.1,0-0.2
			c-0.3,0.4-0.6,0.8-0.8,1.1c-0.2,0-0.3,0-0.5,0c0.1-0.6,0.1-1.2,0.2-1.8c-0.1,0.1-0.1,0.1-0.1,0.1c-0.1,0.1-0.2,0.6-0.3,0.8
			c-0.1,0.3-0.1,0.6-0.2,0.9c-0.1,0-0.1,0-0.2,0c-0.4,0-0.9,0-1.3,0.1c-0.2-0.3-0.4-0.6-0.7-1c0,0.1,0,0.1,0,0.2
			C24.1,24,24.3,24.4,24.4,24.5L24.4,24.5z M24.4,24.5"/>
		<path class="st1" d="M29.3,22.2c0.2-0.2,0.5-0.4,0.7-0.6c0.2-0.2,0.5-0.3,0.7-0.4c0.2-0.1,0.5-0.2,0.7-0.3
			c0.2-0.1,0.4-0.1,0.6-0.2c0.2-0.1,0.3-0.1,0.5-0.1c0.3,0,0.4,0,0.4,0s-0.1,0-0.4,0.1c-0.1,0-0.3,0-0.5,0.1
			c-0.2,0.1-0.4,0.1-0.6,0.2c-0.2,0.1-0.4,0.2-0.6,0.4c-0.2,0.2-0.4,0.3-0.6,0.5c-0.2,0.2-0.4,0.4-0.6,0.6c-0.2,0.2-0.4,0.4-0.6,0.7
			c-0.3,0.3-0.5,0.7-0.7,1c0.3,0,1.2-0.1,1.7-0.2c0.5-0.1,1-0.2,1.4-0.3c0.5-0.2,0.9-0.4,1.4-0.6c0.9-0.5,1.5-1.2,2-1.9
			c0.3-0.3,0.5-0.7,0.7-0.9c0.1-0.1,0.2-0.2,0.3-0.3c0.1-0.1,0.1-0.1,0.1-0.1s0-0.1-0.1-0.1c-0.1-0.1-0.1-0.2-0.3-0.3
			c-0.3-0.3-0.8-0.5-1.3-0.7c-0.6-0.1-1.2-0.1-1.9,0c-0.6,0.1-1.2,0.4-1.8,0.7c-0.5,0.3-1,0.8-1.4,1.3c-0.4,0.5-0.6,1-0.8,1.5
			c-0.2,0.5-0.2,1-0.2,1.4c0,0,0,0.1,0,0.1c0.2-0.3,0.4-0.5,0.7-0.8C28.9,22.6,29.1,22.4,29.3,22.2L29.3,22.2z M29.3,22.2"/>
		<path class="st1" d="M16.7,20.3c0.2,0.2,0.5,0.5,0.7,0.9c0.5,0.7,1.2,1.4,2,1.9c0.4,0.3,0.9,0.5,1.4,0.6c0.5,0.2,1,0.3,1.4,0.3
			c0.4,0.1,1.4,0.2,1.7,0.2c-0.2-0.3-0.5-0.7-0.7-1c-0.2-0.2-0.4-0.5-0.6-0.7c-0.2-0.2-0.4-0.4-0.6-0.6c-0.2-0.2-0.4-0.3-0.7-0.5
			c-0.2-0.1-0.4-0.2-0.6-0.4c-0.2-0.1-0.4-0.2-0.6-0.2c-0.2-0.1-0.3-0.1-0.5-0.1c-0.3-0.1-0.4-0.1-0.4-0.1s0.2,0,0.4,0
			c0.1,0,0.3,0,0.5,0.1c0.2,0.1,0.4,0.1,0.6,0.2c0.2,0.1,0.4,0.2,0.7,0.3c0.2,0.1,0.5,0.3,0.7,0.4c0.2,0.2,0.5,0.4,0.7,0.6
			c0.2,0.2,0.5,0.4,0.7,0.6c0.2,0.3,0.5,0.5,0.7,0.8c0,0,0-0.1,0-0.1c0-0.4-0.1-0.9-0.2-1.4c-0.2-0.5-0.4-1-0.8-1.5
			c-0.4-0.5-0.8-0.9-1.4-1.3c-0.5-0.3-1.2-0.6-1.8-0.7c-0.6-0.1-1.3-0.1-1.9,0c-0.6,0.1-1.1,0.4-1.3,0.7c-0.1,0.1-0.2,0.3-0.3,0.3
			c-0.1,0.1-0.1,0.1-0.1,0.1s0,0,0.1,0.1C16.5,20.1,16.6,20.2,16.7,20.3L16.7,20.3z M16.7,20.3"/>
		<path class="st1" d="M37.7,34.5c-1.3-1.8-3-3.1-4.9-4.3c-1.5-1-3.2-0.8-4.7-0.1c-1,0.4-1.9,0.4-2.8,0.2c-1.2-0.4-2.5-0.4-3.7-0.4
			c-0.5,0-1,0.2-1.3,0.6c-0.2,0.2,1.3,1.2,2.5,1.2c-0.2,0.5-4.3-0.5-4.8-0.5l-3.1-0.4c-1.1-0.1-1.1-0.5-2.2,0.1c0,0-0.1,0-0.1,0
			c-0.6,0-0.9,0.2-1.3,0.5c-0.2,0.2-0.2,0.5-0.1,0.8c0.1,0.3,0.4,0.2,0.6,0.3c1.4,0.5,1.8,0.8,3.7,1.3c1.3,0.3,2.6,0.7,3.9,1
			c0.5,0.1,1.1,0.2,1.6,0.5c1,0.6,2.2,0.8,3.4,0.7c1.4-0.1,2.7,0,4.1,0c2.4,0,4.2,0.9,5.4,3l7.7,0C39.9,37.1,39.2,36.6,37.7,34.5
			L37.7,34.5z M37.7,34.5"/>
	</g>
</g>
</svg>
