<?xml version="1.0" encoding="utf-8"?>
<!-- Generator: Adobe Illustrator 23.0.3, SVG Export Plug-In . SVG Version: 6.00 Build 0)  -->
<svg version="1.1" id="Capa_1" xmlns="http://www.w3.org/2000/svg" xmlns:xlink="http://www.w3.org/1999/xlink" x="0px" y="0px"
	 viewBox="0 0 106.3 124.7" style="enable-background:new 0 0 106.3 124.7;" xml:space="preserve">
<style type="text/css">
	.st0{fill:#FFFFFF;}
	.st1{fill:#8D4599;}
</style>
<title>sociedad</title>
<path class="st0" d="M25.1,13.9c0,1.7-1.4,3.1-3.1,3.1s-3.1-1.4-3.1-3.1c0-1.7,1.4-3.1,3.1-3.1l0,0C23.7,10.8,25.1,12.2,25.1,13.9z"
	/>
<path class="st0" d="M33,13.9c0,1.7-1.4,3.1-3.1,3.1s-3.1-1.4-3.1-3.1c0-1.7,1.4-3.1,3.1-3.1l0,0C31.7,10.8,33,12.2,33,13.9z"/>
<g>
	<path class="st1" d="M2.7,62.7c0,0.3,0.1,0.5,0.2,0.6c0.2,0.3,0.6,0.4,1.1,0.4c0.3,0,0.6,0,0.8-0.1c0.4-0.1,0.5-0.4,0.5-0.7
		c0-0.2-0.1-0.4-0.3-0.5c-0.2-0.1-0.5-0.2-0.9-0.3L3.6,62c-0.7-0.1-1.1-0.3-1.3-0.5c-0.4-0.3-0.6-0.7-0.6-1.3c0-0.5,0.2-1,0.6-1.4
		s1-0.5,1.8-0.5c0.7,0,1.2,0.2,1.7,0.5c0.5,0.3,0.7,0.8,0.7,1.5H5.2c0-0.4-0.2-0.6-0.5-0.8c-0.2-0.1-0.5-0.2-0.8-0.2
		c-0.3,0-0.6,0.1-0.8,0.2c-0.2,0.1-0.3,0.3-0.3,0.6c0,0.2,0.1,0.4,0.3,0.5c0.1,0.1,0.4,0.2,0.8,0.3L5,61.1c0.5,0.1,0.8,0.3,1.1,0.4
		c0.4,0.3,0.5,0.7,0.5,1.3c0,0.6-0.2,1-0.6,1.4c-0.4,0.4-1,0.6-1.8,0.6c-0.8,0-1.4-0.2-1.9-0.5s-0.7-0.9-0.7-1.5H2.7z"/>
	<path class="st1" d="M11.2,64c-0.4,0.5-1,0.7-1.7,0.7S8.1,64.5,7.7,64c-0.4-0.5-0.6-1-0.6-1.7c0-0.7,0.2-1.2,0.6-1.7
		c0.4-0.5,1-0.7,1.7-0.7s1.4,0.2,1.7,0.7c0.4,0.5,0.6,1,0.6,1.7C11.7,63,11.5,63.6,11.2,64z M10.2,63.4c0.2-0.2,0.3-0.6,0.3-1.1
		s-0.1-0.8-0.3-1C10,61,9.8,60.9,9.4,60.9c-0.3,0-0.6,0.1-0.8,0.4c-0.2,0.2-0.3,0.6-0.3,1s0.1,0.8,0.3,1.1c0.2,0.2,0.5,0.4,0.8,0.4
		C9.8,63.8,10,63.6,10.2,63.4z"/>
	<path class="st1" d="M15.3,61.7c0-0.2-0.1-0.3-0.2-0.5C15,61.1,14.8,61,14.5,61c-0.4,0-0.7,0.2-0.8,0.6c-0.1,0.2-0.1,0.5-0.1,0.8
		c0,0.3,0,0.6,0.1,0.8c0.1,0.4,0.4,0.6,0.8,0.6c0.3,0,0.5-0.1,0.6-0.2c0.1-0.1,0.2-0.3,0.2-0.6h1.2c0,0.4-0.2,0.7-0.4,1
		c-0.4,0.5-0.9,0.8-1.7,0.8c-0.7,0-1.3-0.2-1.6-0.6c-0.3-0.4-0.5-1-0.5-1.7c0-0.8,0.2-1.4,0.6-1.8c0.4-0.4,0.9-0.6,1.6-0.6
		c0.6,0,1,0.1,1.4,0.4c0.4,0.3,0.6,0.7,0.6,1.4H15.3z"/>
	<path class="st1" d="M18.5,59.5h-1.2v-1.1h1.2V59.5z M17.3,60.1h1.2v4.5h-1.2V60.1z"/>
	<path class="st1" d="M22.6,60.2c0.3,0.1,0.6,0.4,0.8,0.7c0.2,0.3,0.3,0.6,0.4,0.9c0,0.2,0,0.5,0,0.9h-3.3c0,0.5,0.2,0.8,0.5,1
		c0.2,0.1,0.4,0.2,0.7,0.2c0.3,0,0.5-0.1,0.7-0.2c0.1-0.1,0.2-0.2,0.2-0.3h1.2c0,0.3-0.2,0.5-0.4,0.8c-0.4,0.4-1,0.7-1.7,0.7
		c-0.6,0-1.1-0.2-1.6-0.6c-0.5-0.4-0.7-1-0.7-1.8c0-0.8,0.2-1.4,0.6-1.8c0.4-0.4,1-0.6,1.6-0.6C22,59.9,22.3,60,22.6,60.2z
		 M20.9,61.2c-0.2,0.2-0.3,0.4-0.3,0.7h2c0-0.3-0.1-0.6-0.3-0.7s-0.4-0.2-0.7-0.2C21.3,60.9,21,61,20.9,61.2z"/>
	<path class="st1" d="M24,61v-0.8h0.6v-1.3h1.2v1.3h0.7V61h-0.7v2.4c0,0.2,0,0.3,0.1,0.3c0,0,0.2,0.1,0.4,0.1c0,0,0.1,0,0.1,0
		c0,0,0.1,0,0.1,0v0.9l-0.6,0c-0.6,0-0.9-0.1-1.1-0.3c-0.1-0.1-0.2-0.3-0.2-0.6V61H24z"/>
	<path class="st1" d="M27.4,65.5l0.1,0c0.1,0,0.2,0,0.3,0c0.1,0,0.2,0,0.3-0.1c0.1,0,0.1-0.1,0.2-0.3c0.1-0.1,0.1-0.2,0.1-0.3
		l-1.7-4.7h1.3l1,3.3l0.9-3.3h1.3l-1.6,4.5c-0.3,0.9-0.5,1.4-0.7,1.6c-0.2,0.2-0.5,0.3-1,0.3c-0.1,0-0.2,0-0.3,0c-0.1,0-0.2,0-0.3,0
		V65.5z"/>
	<path class="st1" d="M2,69.6V69c0.5-0.1,0.9-0.1,1.1-0.3s0.4-0.4,0.5-0.9h0.6v5.9H3.4v-4.2H2z"/>
	<path class="st1" d="M6.6,72.9h0.9v0.9H6.6V72.9z"/>
	<path class="st1" d="M11.8,71.9c0,0.3,0.1,0.6,0.2,0.8c0.3,0.4,0.7,0.6,1.4,0.6c0.3,0,0.6,0,0.8-0.1c0.5-0.2,0.7-0.5,0.7-0.9
		c0-0.3-0.1-0.6-0.3-0.7c-0.2-0.1-0.5-0.3-1-0.4L12.9,71c-0.5-0.1-0.9-0.3-1.1-0.4c-0.4-0.3-0.6-0.6-0.6-1.1c0-0.5,0.2-1,0.6-1.4
		c0.4-0.4,0.9-0.5,1.6-0.5c0.6,0,1.2,0.2,1.6,0.5c0.4,0.3,0.7,0.8,0.7,1.5h-0.8c0-0.3-0.1-0.6-0.3-0.8c-0.2-0.3-0.7-0.5-1.2-0.5
		c-0.5,0-0.8,0.1-1,0.3C12.1,68.8,12,69,12,69.3c0,0.3,0.1,0.5,0.4,0.7c0.2,0.1,0.5,0.2,1.1,0.3l0.8,0.2c0.4,0.1,0.7,0.2,0.9,0.4
		c0.4,0.3,0.6,0.7,0.6,1.2c0,0.7-0.2,1.2-0.7,1.5c-0.5,0.3-1,0.4-1.7,0.4c-0.7,0-1.3-0.2-1.7-0.6C11.2,73,11,72.5,11,71.9H11.8z"/>
	<path class="st1" d="M20.1,69.8c0.4,0.4,0.6,0.9,0.6,1.7c0,0.7-0.2,1.3-0.5,1.8c-0.3,0.5-0.9,0.7-1.6,0.7c-0.6,0-1.1-0.2-1.4-0.6
		c-0.4-0.4-0.5-1-0.5-1.7c0-0.7,0.2-1.3,0.6-1.8c0.4-0.4,0.9-0.7,1.5-0.7C19.2,69.2,19.7,69.4,20.1,69.8z M19.6,72.8
		c0.2-0.4,0.3-0.8,0.3-1.3c0-0.4-0.1-0.8-0.2-1c-0.2-0.4-0.6-0.6-1.1-0.6c-0.5,0-0.8,0.2-1,0.5c-0.2,0.3-0.3,0.8-0.3,1.3
		c0,0.5,0.1,0.9,0.3,1.2c0.2,0.3,0.5,0.5,1,0.5C19.1,73.3,19.4,73.1,19.6,72.8z"/>
	<path class="st1" d="M24.5,69.6c0.3,0.2,0.5,0.7,0.6,1.3h-0.7c0-0.3-0.1-0.5-0.3-0.7c-0.2-0.2-0.4-0.3-0.8-0.3
		c-0.5,0-0.8,0.2-1,0.7c-0.1,0.3-0.2,0.7-0.2,1.1c0,0.4,0.1,0.8,0.3,1.1c0.2,0.3,0.5,0.5,0.9,0.5c0.3,0,0.6-0.1,0.7-0.3
		c0.2-0.2,0.3-0.4,0.4-0.8h0.7c-0.1,0.6-0.3,1-0.6,1.3c-0.3,0.3-0.8,0.4-1.3,0.4c-0.6,0-1-0.2-1.4-0.6c-0.3-0.4-0.5-1-0.5-1.6
		c0-0.8,0.2-1.4,0.6-1.8c0.4-0.4,0.9-0.7,1.5-0.7C23.8,69.2,24.2,69.4,24.5,69.6z"/>
	<path class="st1" d="M25.8,67.7h0.8v0.8h-0.8V67.7z M25.8,69.4h0.8v4.4h-0.8V69.4z"/>
	<path class="st1" d="M30.1,71.1c0.2,0,0.3-0.1,0.3-0.2c0-0.1,0-0.2,0-0.3c0-0.3-0.1-0.4-0.3-0.6c-0.2-0.1-0.4-0.2-0.8-0.2
		c-0.4,0-0.7,0.1-0.8,0.3c-0.1,0.1-0.2,0.3-0.2,0.5h-0.7c0-0.6,0.2-0.9,0.5-1.1c0.3-0.2,0.7-0.3,1.2-0.3c0.5,0,0.9,0.1,1.3,0.3
		c0.3,0.2,0.5,0.5,0.5,0.9v2.6c0,0.1,0,0.1,0,0.2c0,0,0.1,0.1,0.2,0.1c0,0,0.1,0,0.1,0c0,0,0.1,0,0.1,0v0.6c-0.1,0-0.2,0.1-0.3,0.1
		c-0.1,0-0.1,0-0.2,0c-0.3,0-0.4-0.1-0.6-0.3c-0.1-0.1-0.1-0.2-0.1-0.4c-0.2,0.2-0.4,0.4-0.7,0.5c-0.3,0.1-0.6,0.2-0.9,0.2
		c-0.4,0-0.8-0.1-1-0.4c-0.3-0.3-0.4-0.6-0.4-0.9c0-0.4,0.1-0.7,0.4-1c0.3-0.2,0.6-0.4,1-0.4L30.1,71.1z M28.5,73.2
		c0.2,0.1,0.3,0.2,0.6,0.2c0.3,0,0.5-0.1,0.8-0.2c0.4-0.2,0.6-0.5,0.6-1v-0.6c-0.1,0.1-0.2,0.1-0.4,0.1c-0.1,0-0.3,0.1-0.4,0.1
		l-0.5,0.1c-0.3,0-0.5,0.1-0.6,0.2c-0.2,0.1-0.3,0.3-0.3,0.6C28.3,72.9,28.4,73,28.5,73.2z"/>
	<path class="st1" d="M32.5,67.7h0.7v6.1h-0.7V67.7z"/>
	<path class="st1" d="M37.1,68c0.2-0.3,0.5-0.4,1-0.4c0,0,0.1,0,0.1,0c0,0,0.1,0,0.2,0v0.7c-0.1,0-0.1,0-0.2,0c0,0-0.1,0-0.1,0
		c-0.2,0-0.4,0.1-0.4,0.2c0,0.1-0.1,0.4-0.1,0.9h0.7V70h-0.7v3.8h-0.7V70h-0.6v-0.6h0.6v-0.7C36.9,68.4,37,68.2,37.1,68z"/>
	<path class="st1" d="M41.5,71.1c0.2,0,0.3-0.1,0.3-0.2c0-0.1,0-0.2,0-0.3c0-0.3-0.1-0.4-0.3-0.6c-0.2-0.1-0.4-0.2-0.8-0.2
		c-0.4,0-0.7,0.1-0.8,0.3c-0.1,0.1-0.2,0.3-0.2,0.5h-0.7c0-0.6,0.2-0.9,0.5-1.1c0.3-0.2,0.7-0.3,1.2-0.3c0.5,0,0.9,0.1,1.3,0.3
		c0.3,0.2,0.5,0.5,0.5,0.9v2.6c0,0.1,0,0.1,0,0.2c0,0,0.1,0.1,0.2,0.1c0,0,0.1,0,0.1,0c0,0,0.1,0,0.1,0v0.6c-0.1,0-0.2,0.1-0.3,0.1
		s-0.1,0-0.2,0c-0.3,0-0.4-0.1-0.6-0.3c-0.1-0.1-0.1-0.2-0.1-0.4c-0.2,0.2-0.4,0.4-0.7,0.5c-0.3,0.1-0.6,0.2-0.9,0.2
		c-0.4,0-0.8-0.1-1-0.4c-0.3-0.3-0.4-0.6-0.4-0.9c0-0.4,0.1-0.7,0.4-1c0.3-0.2,0.6-0.4,1-0.4L41.5,71.1z M39.9,73.2
		c0.2,0.1,0.3,0.2,0.6,0.2c0.3,0,0.5-0.1,0.8-0.2c0.4-0.2,0.6-0.5,0.6-1v-0.6c-0.1,0.1-0.2,0.1-0.4,0.1c-0.1,0-0.3,0.1-0.4,0.1
		l-0.5,0.1c-0.3,0-0.5,0.1-0.6,0.2c-0.2,0.1-0.3,0.3-0.3,0.6C39.7,72.9,39.7,73,39.9,73.2z"/>
	<path class="st1" d="M43.8,67.7h0.7v2.2c0.2-0.2,0.4-0.4,0.6-0.5c0.2-0.1,0.5-0.2,0.7-0.2c0.6,0,1,0.2,1.4,0.6
		c0.3,0.4,0.5,0.9,0.5,1.7c0,0.7-0.2,1.3-0.5,1.8c-0.3,0.5-0.8,0.7-1.4,0.7c-0.3,0-0.6-0.1-0.9-0.2c-0.1-0.1-0.3-0.3-0.4-0.5v0.6
		h-0.7V67.7z M46.6,72.8c0.2-0.3,0.3-0.7,0.3-1.3c0-0.5-0.1-0.9-0.3-1.2c-0.2-0.3-0.5-0.5-0.9-0.5c-0.3,0-0.6,0.1-0.9,0.4
		c-0.3,0.3-0.4,0.7-0.4,1.2c0,0.4,0.1,0.8,0.2,1c0.2,0.5,0.6,0.7,1.1,0.7C46.1,73.3,46.4,73.1,46.6,72.8z"/>
	<path class="st1" d="M48.6,69.4h0.7v0.8c0.1-0.1,0.2-0.3,0.4-0.5c0.2-0.2,0.5-0.3,0.8-0.3c0,0,0,0,0.1,0c0,0,0.1,0,0.2,0v0.8
		c0,0-0.1,0-0.1,0c0,0-0.1,0-0.1,0c-0.4,0-0.7,0.1-0.9,0.4c-0.2,0.2-0.3,0.5-0.3,0.8v2.6h-0.7V69.4z"/>
	<path class="st1" d="M51.4,67.7h0.8v0.8h-0.8V67.7z M51.4,69.4h0.8v4.4h-0.8V69.4z"/>
	<path class="st1" d="M56.2,69.6c0.3,0.2,0.5,0.7,0.6,1.3h-0.7c0-0.3-0.1-0.5-0.3-0.7c-0.2-0.2-0.4-0.3-0.8-0.3
		c-0.5,0-0.8,0.2-1,0.7c-0.1,0.3-0.2,0.7-0.2,1.1c0,0.4,0.1,0.8,0.3,1.1c0.2,0.3,0.5,0.5,0.9,0.5c0.3,0,0.6-0.1,0.7-0.3
		s0.3-0.4,0.4-0.8h0.7c-0.1,0.6-0.3,1-0.6,1.3c-0.3,0.3-0.8,0.4-1.3,0.4c-0.6,0-1-0.2-1.4-0.6c-0.3-0.4-0.5-1-0.5-1.6
		c0-0.8,0.2-1.4,0.6-1.8c0.4-0.4,0.9-0.7,1.5-0.7C55.5,69.2,55.9,69.4,56.2,69.6z"/>
	<path class="st1" d="M1.7,81.7c0.2-0.4,0.5-0.7,1.1-1l0.8-0.5C4,80,4.2,79.8,4.4,79.7c0.2-0.2,0.3-0.5,0.3-0.8
		c0-0.3-0.1-0.6-0.3-0.8c-0.2-0.2-0.5-0.3-0.8-0.3c-0.5,0-0.9,0.2-1.1,0.6c-0.1,0.2-0.2,0.5-0.2,0.9H1.6c0-0.5,0.1-0.9,0.3-1.3
		c0.3-0.6,0.9-0.9,1.7-0.9c0.7,0,1.2,0.2,1.5,0.6c0.3,0.4,0.5,0.8,0.5,1.2c0,0.5-0.2,0.9-0.5,1.2c-0.2,0.2-0.5,0.4-1,0.7l-0.6,0.3
		c-0.3,0.1-0.5,0.3-0.6,0.4c-0.3,0.2-0.5,0.5-0.5,0.8h3.3V83H1.4C1.4,82.5,1.6,82.1,1.7,81.7z"/>
	<path class="st1" d="M6.6,82.1h0.9V83H6.6V82.1z"/>
	<path class="st1" d="M11.7,76.9l1.2,5l1.4-5h0.9l1.4,5l1.2-5h0.9L16.9,83h-0.9L14.7,78L13.2,83h-0.9l-1.6-6.1H11.7z"/>
	<path class="st1" d="M21.8,78.7c0.3,0.1,0.5,0.3,0.7,0.6c0.1,0.2,0.2,0.5,0.3,0.8c0,0.2,0.1,0.5,0.1,1h-3.2c0,0.5,0.1,0.8,0.3,1.1
		c0.2,0.3,0.5,0.4,0.9,0.4c0.4,0,0.7-0.1,0.9-0.4c0.1-0.2,0.2-0.3,0.3-0.5h0.7c0,0.2-0.1,0.3-0.2,0.5c-0.1,0.2-0.2,0.4-0.4,0.5
		c-0.2,0.2-0.5,0.4-0.8,0.4c-0.2,0-0.4,0.1-0.6,0.1c-0.6,0-1-0.2-1.4-0.6c-0.4-0.4-0.6-1-0.6-1.7c0-0.7,0.2-1.3,0.6-1.7
		c0.4-0.4,0.9-0.7,1.5-0.7C21.2,78.5,21.5,78.6,21.8,78.7z M22.1,80.5c0-0.3-0.1-0.6-0.2-0.8c-0.2-0.4-0.5-0.5-1-0.5
		c-0.3,0-0.6,0.1-0.9,0.4c-0.2,0.2-0.4,0.6-0.4,0.9H22.1z"/>
	<path class="st1" d="M23.8,76.9h0.7V83h-0.7V76.9z"/>
	<path class="st1" d="M25.7,76.9h0.8v0.8h-0.8V76.9z M25.7,78.6h0.8V83h-0.8V78.6z"/>
	<path class="st1" d="M27.6,78.6h0.7v0.6c0.2-0.3,0.4-0.4,0.7-0.6c0.2-0.1,0.5-0.2,0.8-0.2c0.6,0,1.1,0.2,1.3,0.7
		c0.1,0.2,0.2,0.6,0.2,1V83h-0.8v-2.8c0-0.3,0-0.5-0.1-0.7c-0.1-0.3-0.4-0.4-0.7-0.4c-0.2,0-0.3,0-0.4,0.1c-0.2,0.1-0.4,0.2-0.5,0.4
		c-0.1,0.1-0.2,0.3-0.2,0.5c0,0.2-0.1,0.4-0.1,0.7V83h-0.7V78.6z"/>
	<path class="st1" d="M35.1,78.7c0.3,0.1,0.5,0.3,0.7,0.6c0.1,0.2,0.2,0.5,0.3,0.8c0,0.2,0.1,0.5,0.1,1h-3.2c0,0.5,0.1,0.8,0.3,1.1
		c0.2,0.3,0.5,0.4,0.9,0.4c0.4,0,0.7-0.1,0.9-0.4c0.1-0.2,0.2-0.3,0.3-0.5H36c0,0.2-0.1,0.3-0.2,0.5c-0.1,0.2-0.2,0.4-0.4,0.5
		c-0.2,0.2-0.5,0.4-0.8,0.4c-0.2,0-0.4,0.1-0.6,0.1c-0.6,0-1-0.2-1.4-0.6s-0.6-1-0.6-1.7c0-0.7,0.2-1.3,0.6-1.7
		c0.4-0.4,0.9-0.7,1.5-0.7C34.5,78.5,34.8,78.6,35.1,78.7z M35.3,80.5c0-0.3-0.1-0.6-0.2-0.8c-0.2-0.4-0.5-0.5-1-0.5
		c-0.3,0-0.6,0.1-0.9,0.4c-0.2,0.2-0.4,0.6-0.4,0.9H35.3z"/>
	<path class="st1" d="M37.5,81.6c0,0.2,0.1,0.4,0.2,0.6c0.2,0.2,0.5,0.4,1,0.4c0.3,0,0.5-0.1,0.7-0.2c0.2-0.1,0.3-0.3,0.3-0.6
		c0-0.2-0.1-0.3-0.3-0.4c-0.1-0.1-0.3-0.1-0.7-0.2L38.2,81c-0.4-0.1-0.7-0.2-0.9-0.3c-0.3-0.2-0.5-0.5-0.5-0.8c0-0.4,0.2-0.8,0.5-1
		c0.3-0.3,0.7-0.4,1.2-0.4c0.7,0,1.2,0.2,1.5,0.6c0.2,0.2,0.3,0.5,0.3,0.8h-0.7c0-0.2-0.1-0.3-0.2-0.5c-0.2-0.2-0.5-0.3-0.9-0.3
		c-0.3,0-0.5,0.1-0.7,0.2c-0.1,0.1-0.2,0.2-0.2,0.4c0,0.2,0.1,0.3,0.3,0.5c0.1,0.1,0.3,0.1,0.5,0.2l0.5,0.1c0.5,0.1,0.9,0.3,1.1,0.4
		c0.3,0.2,0.4,0.5,0.4,0.9c0,0.4-0.2,0.7-0.5,1c-0.3,0.3-0.8,0.4-1.4,0.4c-0.7,0-1.1-0.2-1.4-0.5c-0.3-0.3-0.4-0.7-0.4-1.1H37.5z"/>
	<path class="st1" d="M41.7,81.6c0,0.2,0.1,0.4,0.2,0.6c0.2,0.2,0.5,0.4,1,0.4c0.3,0,0.5-0.1,0.7-0.2c0.2-0.1,0.3-0.3,0.3-0.6
		c0-0.2-0.1-0.3-0.3-0.4c-0.1-0.1-0.3-0.1-0.7-0.2L42.5,81c-0.4-0.1-0.7-0.2-0.9-0.3c-0.3-0.2-0.5-0.5-0.5-0.8c0-0.4,0.2-0.8,0.5-1
		s0.7-0.4,1.2-0.4c0.7,0,1.2,0.2,1.5,0.6c0.2,0.2,0.3,0.5,0.3,0.8h-0.7c0-0.2-0.1-0.3-0.2-0.5c-0.2-0.2-0.5-0.3-0.9-0.3
		c-0.3,0-0.5,0.1-0.7,0.2c-0.1,0.1-0.2,0.2-0.2,0.4c0,0.2,0.1,0.3,0.3,0.5c0.1,0.1,0.3,0.1,0.5,0.2l0.5,0.1c0.5,0.1,0.9,0.3,1.1,0.4
		c0.3,0.2,0.4,0.5,0.4,0.9c0,0.4-0.2,0.7-0.5,1c-0.3,0.3-0.8,0.4-1.4,0.4c-0.7,0-1.1-0.2-1.4-0.5c-0.3-0.3-0.4-0.7-0.4-1.1H41.7z"/>
	<path class="st1" d="M1.8,91.9c-0.3-0.4-0.5-0.9-0.5-1.4h0.8c0,0.4,0.1,0.7,0.2,0.8c0.2,0.3,0.5,0.5,1.1,0.5c0.4,0,0.7-0.1,0.9-0.3
		c0.2-0.2,0.4-0.5,0.4-0.8c0-0.4-0.1-0.7-0.4-0.9c-0.3-0.2-0.6-0.2-1-0.2c-0.1,0-0.1,0-0.2,0c-0.1,0-0.1,0-0.2,0v-0.7
		c0.1,0,0.1,0,0.2,0c0.1,0,0.1,0,0.2,0c0.3,0,0.5,0,0.7-0.1c0.3-0.2,0.5-0.4,0.5-0.8c0-0.3-0.1-0.5-0.3-0.7C4,87.1,3.7,87,3.5,87
		c-0.5,0-0.8,0.2-1,0.5c-0.1,0.2-0.2,0.4-0.2,0.8H1.5c0-0.4,0.1-0.8,0.3-1.1c0.3-0.6,0.8-0.8,1.6-0.8c0.6,0,1.1,0.1,1.4,0.4
		c0.3,0.3,0.5,0.7,0.5,1.2c0,0.4-0.1,0.7-0.3,0.9c-0.1,0.1-0.3,0.3-0.5,0.3c0.3,0.1,0.6,0.3,0.7,0.5c0.2,0.2,0.3,0.5,0.3,0.9
		c0,0.6-0.2,1-0.6,1.4c-0.4,0.4-0.9,0.5-1.6,0.5C2.7,92.4,2.1,92.2,1.8,91.9z"/>
	<path class="st1" d="M6.6,91.4h0.9v0.9H6.6V91.4z"/>
	<path class="st1" d="M15.6,86.6c0.4,0.4,0.7,0.9,0.7,1.4h-0.8c-0.1-0.4-0.3-0.7-0.5-0.9c-0.3-0.2-0.6-0.3-1.1-0.3
		c-0.6,0-1.1,0.2-1.4,0.6c-0.4,0.4-0.5,1.1-0.5,1.9c0,0.7,0.2,1.3,0.5,1.7c0.3,0.4,0.8,0.7,1.5,0.7c0.6,0,1.1-0.2,1.4-0.7
		c0.2-0.2,0.3-0.6,0.4-1h0.8c-0.1,0.6-0.3,1.2-0.7,1.6c-0.5,0.5-1.1,0.8-1.9,0.8c-0.7,0-1.3-0.2-1.8-0.6c-0.6-0.6-0.9-1.4-0.9-2.6
		c0-0.9,0.2-1.6,0.7-2.2c0.5-0.6,1.2-0.9,2.1-0.9C14.6,86,15.2,86.2,15.6,86.6z"/>
	<path class="st1" d="M20.5,88.3c0.4,0.4,0.6,0.9,0.6,1.7c0,0.7-0.2,1.3-0.5,1.8c-0.3,0.5-0.9,0.7-1.6,0.7c-0.6,0-1.1-0.2-1.4-0.6
		c-0.4-0.4-0.5-1-0.5-1.7c0-0.7,0.2-1.3,0.6-1.8c0.4-0.4,0.9-0.7,1.5-0.7C19.7,87.7,20.1,87.9,20.5,88.3z M20.1,91.2
		c0.2-0.4,0.3-0.8,0.3-1.3c0-0.4-0.1-0.8-0.2-1c-0.2-0.4-0.6-0.6-1.1-0.6c-0.5,0-0.8,0.2-1,0.5c-0.2,0.3-0.3,0.8-0.3,1.3
		c0,0.5,0.1,0.9,0.3,1.2c0.2,0.3,0.5,0.5,1,0.5C19.6,91.8,19.9,91.6,20.1,91.2z"/>
	<path class="st1" d="M22.1,87.8h0.7v0.6c0.2-0.2,0.3-0.4,0.5-0.5c0.2-0.2,0.5-0.3,0.8-0.3c0.4,0,0.6,0.1,0.9,0.3
		c0.1,0.1,0.2,0.2,0.3,0.4c0.2-0.2,0.4-0.4,0.6-0.5c0.2-0.1,0.5-0.2,0.8-0.2c0.6,0,1,0.2,1.2,0.6c0.1,0.2,0.2,0.5,0.2,0.9v3h-0.8
		v-3.1c0-0.3-0.1-0.5-0.2-0.6c-0.1-0.1-0.3-0.2-0.5-0.2c-0.3,0-0.5,0.1-0.8,0.3c-0.2,0.2-0.3,0.5-0.3,1v2.6h-0.8v-2.9
		c0-0.3,0-0.5-0.1-0.7c-0.1-0.2-0.3-0.3-0.6-0.3c-0.3,0-0.5,0.1-0.8,0.3c-0.2,0.2-0.3,0.6-0.3,1.2v2.4h-0.7V87.8z"/>
	<path class="st1" d="M29.1,87.8h0.7v0.6c0.2-0.2,0.3-0.4,0.5-0.5c0.2-0.2,0.5-0.3,0.8-0.3c0.4,0,0.6,0.1,0.9,0.3
		c0.1,0.1,0.2,0.2,0.3,0.4c0.2-0.2,0.4-0.4,0.6-0.5c0.2-0.1,0.5-0.2,0.8-0.2c0.6,0,1,0.2,1.2,0.6c0.1,0.2,0.2,0.5,0.2,0.9v3h-0.8
		v-3.1c0-0.3-0.1-0.5-0.2-0.6s-0.3-0.2-0.5-0.2c-0.3,0-0.5,0.1-0.8,0.3c-0.2,0.2-0.3,0.5-0.3,1v2.6h-0.8v-2.9c0-0.3,0-0.5-0.1-0.7
		c-0.1-0.2-0.3-0.3-0.6-0.3c-0.3,0-0.5,0.1-0.8,0.3c-0.2,0.2-0.3,0.6-0.3,1.2v2.4h-0.7V87.8z"/>
	<path class="st1" d="M37,87.8v3c0,0.2,0,0.4,0.1,0.6c0.1,0.3,0.4,0.4,0.7,0.4c0.5,0,0.9-0.2,1-0.7c0.1-0.2,0.1-0.6,0.1-1v-2.2h0.7
		v4.5H39l0-0.7c-0.1,0.2-0.2,0.3-0.4,0.4c-0.3,0.2-0.6,0.3-1,0.3c-0.6,0-1-0.2-1.3-0.6c-0.1-0.2-0.2-0.5-0.2-0.9v-3H37z"/>
	<path class="st1" d="M41,87.8h0.7v0.6c0.2-0.3,0.4-0.4,0.7-0.6c0.2-0.1,0.5-0.2,0.8-0.2c0.6,0,1.1,0.2,1.3,0.7
		c0.1,0.2,0.2,0.6,0.2,1v2.9h-0.8v-2.8c0-0.3,0-0.5-0.1-0.7c-0.1-0.3-0.4-0.4-0.7-0.4c-0.2,0-0.3,0-0.4,0.1
		c-0.2,0.1-0.4,0.2-0.5,0.4c-0.1,0.1-0.2,0.3-0.2,0.5c0,0.2-0.1,0.4-0.1,0.7v2.3H41V87.8z"/>
	<path class="st1" d="M45.7,86.2h0.8V87h-0.8V86.2z M45.7,87.8h0.8v4.4h-0.8V87.8z"/>
	<path class="st1" d="M47.7,86.6h0.8v1.2h0.7v0.6h-0.7v2.9c0,0.2,0.1,0.3,0.2,0.3c0.1,0,0.2,0,0.3,0c0,0,0.1,0,0.1,0
		c0,0,0.1,0,0.1,0v0.6c-0.1,0-0.2,0-0.3,0.1c-0.1,0-0.2,0-0.3,0c-0.3,0-0.6-0.1-0.7-0.3c-0.1-0.2-0.2-0.4-0.2-0.7v-2.9h-0.6v-0.6
		h0.6V86.6z"/>
	<path class="st1" d="M52.7,87.8h0.8c-0.1,0.3-0.3,0.9-0.7,2c-0.3,0.8-0.5,1.4-0.7,1.9c-0.4,1.1-0.7,1.8-0.9,2.1
		c-0.2,0.2-0.5,0.4-0.9,0.4c-0.1,0-0.2,0-0.2,0s-0.1,0-0.2,0v-0.7c0.1,0,0.2,0.1,0.3,0.1c0.1,0,0.1,0,0.2,0c0.1,0,0.2,0,0.3-0.1
		c0.1,0,0.1-0.1,0.2-0.2c0,0,0.1-0.1,0.1-0.3c0.1-0.2,0.1-0.4,0.2-0.5l-1.6-4.6h0.8l1.2,3.6L52.7,87.8z"/>
	<path class="st1" d="M59,88c0.1,0.1,0.3,0.2,0.5,0.4v-2.2h0.7v6.1h-0.7v-0.6c-0.2,0.3-0.4,0.5-0.6,0.6s-0.5,0.2-0.8,0.2
		c-0.5,0-0.9-0.2-1.3-0.6c-0.4-0.4-0.5-1-0.5-1.7c0-0.6,0.2-1.2,0.5-1.7c0.3-0.5,0.8-0.7,1.4-0.7C58.5,87.7,58.8,87.8,59,88z
		 M57.4,91.3c0.2,0.3,0.5,0.5,1,0.5c0.3,0,0.6-0.1,0.8-0.4c0.2-0.3,0.3-0.7,0.3-1.3c0-0.6-0.1-1-0.3-1.2c-0.2-0.3-0.5-0.4-0.8-0.4
		c-0.4,0-0.7,0.1-0.9,0.4c-0.2,0.3-0.3,0.7-0.3,1.3C57.1,90.6,57.2,91,57.4,91.3z"/>
	<path class="st1" d="M64.1,87.9c0.3,0.1,0.5,0.3,0.7,0.6c0.1,0.2,0.2,0.5,0.3,0.8c0,0.2,0.1,0.5,0.1,1h-3.2c0,0.5,0.1,0.8,0.3,1.1
		c0.2,0.3,0.5,0.4,0.9,0.4c0.4,0,0.7-0.1,0.9-0.4c0.1-0.2,0.2-0.3,0.3-0.5H65c0,0.2-0.1,0.3-0.2,0.5c-0.1,0.2-0.2,0.4-0.4,0.5
		c-0.2,0.2-0.5,0.4-0.8,0.4c-0.2,0-0.4,0.1-0.6,0.1c-0.6,0-1-0.2-1.4-0.6s-0.6-1-0.6-1.7c0-0.7,0.2-1.3,0.6-1.7
		c0.4-0.4,0.9-0.7,1.5-0.7C63.5,87.7,63.8,87.8,64.1,87.9z M64.3,89.7c0-0.3-0.1-0.6-0.2-0.8c-0.2-0.4-0.5-0.5-1-0.5
		c-0.3,0-0.6,0.1-0.9,0.4c-0.2,0.2-0.4,0.6-0.4,0.9H64.3z"/>
	<path class="st1" d="M66.4,87.8l1.2,3.6l1.2-3.6h0.8L68,92.3h-0.8l-1.6-4.5H66.4z"/>
	<path class="st1" d="M73.1,87.9c0.3,0.1,0.5,0.3,0.7,0.6c0.1,0.2,0.2,0.5,0.3,0.8c0,0.2,0.1,0.5,0.1,1h-3.2c0,0.5,0.1,0.8,0.3,1.1
		c0.2,0.3,0.5,0.4,0.9,0.4c0.4,0,0.7-0.1,0.9-0.4c0.1-0.2,0.2-0.3,0.3-0.5H74c0,0.2-0.1,0.3-0.2,0.5c-0.1,0.2-0.2,0.4-0.4,0.5
		c-0.2,0.2-0.5,0.4-0.8,0.4c-0.2,0-0.4,0.1-0.6,0.1c-0.6,0-1-0.2-1.4-0.6s-0.6-1-0.6-1.7c0-0.7,0.2-1.3,0.6-1.7
		c0.4-0.4,0.9-0.7,1.5-0.7C72.5,87.7,72.8,87.8,73.1,87.9z M73.3,89.7c0-0.3-0.1-0.6-0.2-0.8c-0.2-0.4-0.5-0.5-1-0.5
		c-0.3,0-0.6,0.1-0.9,0.4c-0.2,0.2-0.4,0.6-0.4,0.9H73.3z"/>
	<path class="st1" d="M75.1,86.2h0.7v6.1h-0.7V86.2z"/>
	<path class="st1" d="M80.2,88.3c0.4,0.4,0.6,0.9,0.6,1.7c0,0.7-0.2,1.3-0.5,1.8c-0.3,0.5-0.9,0.7-1.6,0.7c-0.6,0-1.1-0.2-1.4-0.6
		c-0.4-0.4-0.5-1-0.5-1.7c0-0.7,0.2-1.3,0.6-1.8c0.4-0.4,0.9-0.7,1.5-0.7C79.3,87.7,79.8,87.9,80.2,88.3z M79.7,91.2
		c0.2-0.4,0.3-0.8,0.3-1.3c0-0.4-0.1-0.8-0.2-1c-0.2-0.4-0.6-0.6-1.1-0.6c-0.5,0-0.8,0.2-1,0.5c-0.2,0.3-0.3,0.8-0.3,1.3
		c0,0.5,0.1,0.9,0.3,1.2c0.2,0.3,0.5,0.5,1,0.5C79.2,91.8,79.5,91.6,79.7,91.2z"/>
	<path class="st1" d="M81.6,87.8h0.7v0.6c0.2-0.2,0.3-0.4,0.5-0.5c0.3-0.2,0.6-0.2,0.9-0.2c0.5,0,0.9,0.2,1.3,0.6
		c0.4,0.4,0.5,0.9,0.5,1.7c0,1-0.3,1.7-0.8,2.1c-0.3,0.3-0.7,0.4-1.1,0.4c-0.3,0-0.6-0.1-0.8-0.2c-0.1-0.1-0.3-0.2-0.4-0.4V94h-0.7
		V87.8z M84.4,91.3c0.2-0.3,0.3-0.7,0.3-1.3c0-0.4-0.1-0.7-0.2-0.9c-0.2-0.5-0.6-0.7-1.1-0.7c-0.5,0-0.9,0.3-1.1,0.8
		c-0.1,0.3-0.2,0.6-0.2,1.1c0,0.3,0.1,0.6,0.2,0.9c0.2,0.5,0.6,0.7,1.1,0.7C83.9,91.8,84.2,91.6,84.4,91.3z"/>
	<path class="st1" d="M86.4,87.8h0.7v0.6c0.2-0.2,0.3-0.4,0.5-0.5c0.2-0.2,0.5-0.3,0.8-0.3c0.4,0,0.6,0.1,0.9,0.3
		c0.1,0.1,0.2,0.2,0.3,0.4c0.2-0.2,0.4-0.4,0.6-0.5c0.2-0.1,0.5-0.2,0.8-0.2c0.6,0,1,0.2,1.2,0.6c0.1,0.2,0.2,0.5,0.2,0.9v3h-0.8
		v-3.1c0-0.3-0.1-0.5-0.2-0.6c-0.1-0.1-0.3-0.2-0.5-0.2c-0.3,0-0.5,0.1-0.8,0.3c-0.2,0.2-0.3,0.5-0.3,1v2.6H89v-2.9
		c0-0.3,0-0.5-0.1-0.7c-0.1-0.2-0.3-0.3-0.6-0.3c-0.3,0-0.5,0.1-0.8,0.3c-0.2,0.2-0.3,0.6-0.3,1.2v2.4h-0.7V87.8z"/>
	<path class="st1" d="M96.3,87.9c0.3,0.1,0.5,0.3,0.7,0.6c0.1,0.2,0.2,0.5,0.3,0.8c0,0.2,0.1,0.5,0.1,1h-3.2c0,0.5,0.1,0.8,0.3,1.1
		c0.2,0.3,0.5,0.4,0.9,0.4c0.4,0,0.7-0.1,0.9-0.4c0.1-0.2,0.2-0.3,0.3-0.5h0.7c0,0.2-0.1,0.3-0.2,0.5c-0.1,0.2-0.2,0.4-0.4,0.5
		c-0.2,0.2-0.5,0.4-0.8,0.4c-0.2,0-0.4,0.1-0.6,0.1c-0.6,0-1-0.2-1.4-0.6c-0.4-0.4-0.6-1-0.6-1.7c0-0.7,0.2-1.3,0.6-1.7
		c0.4-0.4,0.9-0.7,1.5-0.7C95.7,87.7,96,87.8,96.3,87.9z M96.5,89.7c0-0.3-0.1-0.6-0.2-0.8c-0.2-0.4-0.5-0.5-1-0.5
		c-0.3,0-0.6,0.1-0.9,0.4c-0.2,0.2-0.4,0.6-0.4,0.9H96.5z"/>
	<path class="st1" d="M98.2,87.8h0.7v0.6c0.2-0.3,0.4-0.4,0.7-0.6c0.2-0.1,0.5-0.2,0.8-0.2c0.6,0,1.1,0.2,1.3,0.7
		c0.1,0.2,0.2,0.6,0.2,1v2.9h-0.8v-2.8c0-0.3,0-0.5-0.1-0.7c-0.1-0.3-0.4-0.4-0.7-0.4c-0.2,0-0.3,0-0.4,0.1
		c-0.2,0.1-0.4,0.2-0.5,0.4c-0.1,0.1-0.2,0.3-0.2,0.5c0,0.2-0.1,0.4-0.1,0.7v2.3h-0.7V87.8z"/>
	<path class="st1" d="M103.1,86.6h0.8v1.2h0.7v0.6h-0.7v2.9c0,0.2,0.1,0.3,0.2,0.3c0.1,0,0.2,0,0.3,0c0,0,0.1,0,0.1,0
		c0,0,0.1,0,0.1,0v0.6c-0.1,0-0.2,0-0.3,0.1c-0.1,0-0.2,0-0.3,0c-0.3,0-0.6-0.1-0.7-0.3c-0.1-0.2-0.2-0.4-0.2-0.7v-2.9h-0.6v-0.6
		h0.6V86.6z"/>
</g>
<g>
	<circle class="st1" cx="26" cy="25.2" r="24.5"/>
	<g>
		<path class="st0" d="M24.6,13.5c0,1.7-1.3,3-3,3c-1.7,0-3-1.3-3-3c0-1.7,1.3-3,3-3C23.2,10.5,24.6,11.8,24.6,13.5L24.6,13.5z
			 M24.6,13.5"/>
		<path class="st0" d="M32.4,13.5c0,1.7-1.3,3-3,3c-1.7,0-3-1.3-3-3c0-1.7,1.3-3,3-3C31,10.5,32.4,11.8,32.4,13.5L32.4,13.5z
			 M32.4,13.5"/>
		<path class="st0" d="M32,33.5C32,33.5,32,33.5,32,33.5c-0.7,0-1.3-0.5-1.3-1.2c0-3.6,2.3-5.2,2.4-5.2c0,0,0,0,0.1,0c0,0,0,0,0,0
			c0,0,0,0,0,0c-0.5-0.4-0.8-1.1-0.8-1.8c0-0.3,0.1-0.7,0.2-1c0-0.2-0.1-0.4-0.1-0.5v-2.3c0.3,0.5,0.5,1.2,0.6,2.1
			c0.4-0.4,1-0.7,1.7-0.7c0.2,0,0.4,0,0.6,0.1c-0.5-3.4-2.2-4.7-3.9-5.7c-0.1,0-0.1-0.1-0.2-0.1c-0.3-0.2-0.7-0.4-1.1-0.5
			c0,0,0,0,0,0l-0.7,0.8l-0.8-0.8c-0.4,0.1-0.8,0.3-1.2,0.5c0,0,0,0,0,0c-0.7,0.4-1.3,0.9-1.9,1.5c-0.6-0.6-1.3-1.1-2-1.5
			c-0.1-0.1-0.2-0.1-0.3-0.1c-0.3-0.2-0.6-0.3-0.9-0.3l-0.8,0.8l-0.7-0.8c0,0,0,0,0,0c-0.4,0.1-0.8,0.3-1.1,0.5
			c-0.1,0-0.1,0.1-0.2,0.1c-1.8,1.1-3.4,2.6-3.7,5.9c0.3-0.2,0.7-0.3,1.1-0.3c0.5,0,0.9,0.1,1.3,0.4c0.1-0.6,0.2-1.1,0.3-1.5v1.8
			c0.4,0.4,0.7,1,0.7,1.7c0,0.6-0.2,1.1-0.6,1.5c0,0,0,0.1,0,0.1c0,0.1,0,0.1,0,0.2v0.1c0,0,0,0,0,0c0.4,0.3,2.2,1.8,2.2,5.1
			c0,0.6-0.5,1.2-1.2,1.2c-0.2,0-0.5-0.1-0.7-0.2c0,0,0,0,0,0.1v5.6c0,0.1,0,0.2,0,0.3c0.3,0.3,0.6,0.4,1,0.4c0.8,0,1.4-0.6,1.4-1.4
			l0-9.6c0.1,0,0.1,0,0.2,0c0,0,0,0,0,0v9.6c0,0.8,0.6,1.4,1.4,1.4c0.8,0,1.4-0.6,1.4-1.4l0-11.1c0,0,0-0.1,0.1-0.1c0,0,0,0,0.1,0
			c0,0,0,0,0,0c0.3,0,0.7-0.2,0.9-0.4c0.1,0.1,0.2,0.1,0.2,0.2c-0.5,2.2-1,4.8-1,5.3c0,0.5,0.8,0.9,2,1.1v5c0,0.8,0.6,1.4,1.4,1.4
			c0.8,0,1.4-0.6,1.4-1.4v-4.8c0.1,0,0.1,0,0.2,0v4.8c0,0.8,0.6,1.4,1.4,1.4c0.8,0,1.4-0.6,1.4-1.4v-2.3h-0.7L32,33.5z M32,33.5"/>
		<path class="st0" d="M18.8,25.2c0,1-0.8,1.8-1.8,1.8c-1,0-1.8-0.8-1.8-1.8c0-1,0.8-1.8,1.8-1.8C18,23.4,18.8,24.2,18.8,25.2
			L18.8,25.2z M18.8,25.2"/>
		<path class="st0" d="M19.9,32.9c0.3,0,0.6-0.3,0.6-0.6c0-3-1.7-4.4-2-4.7c-0.1-0.1-0.3-0.2-0.5-0.3c-0.2-0.1-0.3-0.2-0.5-0.2
			l-0.4,0.4L16.6,27c0,0,0,0,0,0c-0.3,0.1-0.5,0.2-0.8,0.4c0,0,0,0-0.1,0c-0.1,0.1-2.1,1.4-2.1,4.7c0,0.3,0.3,0.6,0.6,0.6
			c0.3,0,0.6-0.3,0.6-0.6c0-0.8,0.1-1.4,0.3-1.9v2.2c0,0.2,0,0.4,0.1,0.5c0,0,0,0.1,0,0.1l0,5.8c0,0.4,0.4,0.8,0.8,0.8
			c0.4,0,0.8-0.4,0.8-0.8V34c0,0,0.1,0,0.1,0c0,0,0,0,0,0v4.8c0,0.4,0.4,0.8,0.8,0.8c0.4,0,0.8-0.4,0.8-0.8v-5.7
			c0.1-0.2,0.2-0.4,0.2-0.7v-2.4c0.2,0.5,0.4,1.3,0.4,2.2C19.3,32.6,19.6,32.9,19.9,32.9L19.9,32.9z M19.9,32.9"/>
		<path class="st0" d="M36.5,25.2c0,1-0.8,1.8-1.8,1.8c-1,0-1.8-0.8-1.8-1.8c0-1,0.8-1.8,1.8-1.8C35.7,23.4,36.5,24.2,36.5,25.2
			L36.5,25.2z M36.5,25.2"/>
		<path class="st0" d="M36.2,27.6c-0.1-0.1-0.3-0.2-0.5-0.3c-0.2-0.1-0.3-0.2-0.5-0.2l-0.4,0.4l-0.4-0.5c0,0,0,0,0,0
			c-0.3,0.1-0.5,0.2-0.8,0.4c0,0,0,0-0.1,0c-0.1,0.1-2.1,1.4-2.1,4.8c0,0.4,0.3,0.6,0.6,0.6c0.4,0,0.6-0.3,0.6-0.6
			c0-0.8,0.1-1.4,0.3-1.9v1.3l-0.7,3.7H33l0,3.7c0,0.5,0.4,0.8,0.8,0.8c0.5,0,0.8-0.4,0.8-0.8v-3.7h0.1v3.7c0,0.5,0.4,0.8,0.8,0.8
			c0.5,0,0.8-0.4,0.8-0.8v-3.7h0.8l-0.6-3.6v-1.6c0.2,0.6,0.4,1.3,0.4,2.2c0,0.4,0.3,0.6,0.6,0.6c0.4,0,0.6-0.3,0.6-0.6
			C38.3,29.3,36.6,27.9,36.2,27.6L36.2,27.6z M36.2,27.6"/>
	</g>
</g>
</svg>
