<svg xmlns="http://www.w3.org/2000/svg" viewBox="0 0 248 147.21"><defs><style>.cls-1{fill:#1d1d1b;}.cls-2{fill:#34585e;}.cls-3{fill:#ececec;}.cls-4{fill:#64b1bb;}.cls-5{font-size:17.49px;fill:#fff;font-family:BebasNeue-Bold, Bebas Neue;font-weight:700;}.cls-6{letter-spacing:-0.04em;}.cls-7{letter-spacing:0em;}</style></defs><title>carta-verificacion</title><g id="Layer_2" data-name="Layer 2"><g id="Layer_1-2" data-name="Layer 1"><path class="cls-1" d="M105.12,105.32a4,4,0,1,1,4-4A4,4,0,0,1,105.12,105.32Zm0-6.51a2.52,2.52,0,1,0,2.52,2.52A2.52,2.52,0,0,0,105.12,98.81Z"/><path class="cls-2" d="M85.18,2.14l6.33,3.92A25.91,25.91,0,0,0,85.18,2.14Z"/><path class="cls-2" d="M96.12,11.13,78.55.24Q77.44.07,76.33,0l21,13Q96.74,12,96.12,11.13Z"/><path class="cls-2" d="M98.87,16.19,72.79,0Q72,.07,71.22.18L99.45,17.69Q99.18,16.93,98.87,16.19Z"/><path class="cls-2" d="M100.27,20.4,68.5.7q-.64.16-1.27.35l33.34,20.68Q100.43,21.06,100.27,20.4Z"/><path class="cls-2" d="M101,24.22,65,1.86q-.54.22-1.07.48l37.37,23.18Q101.14,24.88,101,24.22Z"/><path class="cls-2" d="M101.95,28.14,62,3.36l-.92.57L102.4,29.56Q102.16,28.87,101.95,28.14Z"/><path class="cls-2" d="M103.56,32.49,59.4,5.11l-.8.65,45.75,28.37Q103.94,33.33,103.56,32.49Z"/><path class="cls-2" d="M106.55,37.69,57.17,7.07l-.69.71,51.79,32.12Q107.38,38.85,106.55,37.69Z"/><path class="cls-2" d="M133.38,57.68,55.24,9.22q-.3.38-.59.77l82.08,50.9A22.27,22.27,0,0,0,133.38,57.68Z"/><path class="cls-2" d="M139,64.49,53.59,11.55q-.26.41-.51.83L139.49,66A13.81,13.81,0,0,0,139,64.49Z"/><path class="cls-2" d="M140.15,68.58,52.19,14q-.22.43-.42.88l88.62,55Q140.29,69.24,140.15,68.58Z"/><path class="cls-2" d="M140.67,72.25,51,16.66q-.18.46-.34.93l90,55.84Q140.71,72.85,140.67,72.25Z"/><path class="cls-2" d="M140.64,75.58,50.1,19.43l-.27,1L140.5,76.63Q140.58,76.12,140.64,75.58Z"/><path class="cls-2" d="M140.05,78.57,49.33,22.3l-.24,1,90.64,56.21Q139.91,79.05,140.05,78.57Z"/><path class="cls-2" d="M138.93,81.22l-90.27-56q-.11.51-.21,1l90,55.8Q138.69,81.64,138.93,81.22Z"/><path class="cls-2" d="M137.26,83.53,48.09,28.23q-.09.52-.17,1l88.64,55Q136.92,83.9,137.26,83.53Z"/><path class="cls-2" d="M135,85.49,47.63,31.29q-.07.54-.13,1.06l86.61,53.71Q134.57,85.79,135,85.49Z"/><path class="cls-2" d="M132.17,87.07,47.3,34.44q0,.55-.08,1.09l83.82,52Q131.61,87.31,132.17,87.07Z"/><path class="cls-2" d="M128.64,88.23,47.1,37.66q0,.57,0,1.12l80.2,49.74Q128,88.39,128.64,88.23Z"/><path class="cls-2" d="M124.29,88.88,47,41q0,.58,0,1.14l75.54,46.85Q123.42,88.94,124.29,88.88Z"/><path class="cls-2" d="M118.7,88.77,47,44.31q0,.58,0,1.14l69.28,43C117.08,88.56,117.88,88.68,118.7,88.77Z"/><path class="cls-2" d="M108.06,85.51,47,47.65q0,.57,0,1.12l57.27,35.52A25.81,25.81,0,0,1,108.06,85.51Z"/><path class="cls-2" d="M99.81,83.74,46.87,50.91q0,.54-.1,1.08L98.06,83.8Q98.92,83.73,99.81,83.74Z"/><path class="cls-2" d="M95.21,84.24,46.49,54q-.09.51-.2,1L93.91,84.58Q94.55,84.39,95.21,84.24Z"/><path class="cls-2" d="M91.65,85.38,45.79,56.94q-.14.47-.31.95l45.09,28Z"/><path class="cls-2" d="M88.61,86.85,44.77,59.66q-.2.44-.41.88l43.3,26.85Z"/><path class="cls-2" d="M85.88,88.5,43.47,62.2q-.24.41-.5.83L85,89.1Z"/><path class="cls-2" d="M83.34,90.27,41.93,64.6l-.57.79L82.5,90.89Z"/><path class="cls-2" d="M80.91,92.11,40.21,66.87l-.62.75L80.09,92.75Z"/><path class="cls-2" d="M78.53,94,38.33,69.06l-.67.73L77.73,94.64Z"/><path class="cls-2" d="M76.18,95.88,36.33,71.17l-.71.7L75.38,96.53Z"/><path class="cls-2" d="M73.82,97.77,34.25,73.22l-.68.72L73,98.4Z"/><path class="cls-2" d="M71.41,99.62,32.32,75.37l-.6.77,38.86,24.1Z"/><path class="cls-2" d="M68.93,101.43,30.64,77.68q-.27.41-.51.83L68.06,102Z"/><path class="cls-2" d="M66.34,103.17l-37.08-23q-.21.45-.39.9l36.56,22.67Z"/><path class="cls-2" d="M63.42,104.93l.19-.11L28.23,82.89q-.14.49-.25,1l34.65,21.49Z"/><path class="cls-2" d="M60.56,106.28l-32.9-20.4q-.05.55-.07,1.1L59.38,106.7Q60,106.51,60.56,106.28Z"/><path class="cls-2" d="M56.87,107.34,27.7,89.26q.08.64.21,1.27l27.5,17.05Q56.14,107.49,56.87,107.34Z"/><path class="cls-2" d="M50.2,107.7q1,.08,2,.08L28.72,93.24q.32.81.71,1.58Z"/><path class="cls-2" d="M35.2,101.75l5.53,3.43a28.26,28.26,0,0,0,4.5,1.65L32,98.6A23.61,23.61,0,0,0,35.2,101.75Z"/><ellipse class="cls-3" cx="124.4" cy="139.16" rx="79.82" ry="8.06"/><path class="cls-1" d="M228.76,14.08a.68.68,0,0,1-.67-.68l0-7a.68.68,0,1,1,1.35,0l0,7A.68.68,0,0,1,228.76,14.08Z"/><path class="cls-1" d="M232.29,10.58l-7,0a.68.68,0,0,1,0-1.35l7,0a.68.68,0,1,1,0,1.35Z"/><rect class="cls-4" y="23.69" width="248" height="68" rx="34" ry="34"/><text class="cls-5" transform="translate(56.22 64.56)">car<tspan class="cls-6" x="20.9" y="0">t</tspan><tspan x="26.46" y="0">a de verific</tspan><tspan class="cls-7" x="92.48" y="0">a</tspan><tspan x="99.59" y="0">ción</tspan></text></g></g></svg>
