<svg xmlns="http://www.w3.org/2000/svg" viewBox="0 0 248 161.91"><defs><style>.cls-1{fill:#1d1d1b;}.cls-2{fill:#4c2d52;}.cls-3{fill:#ececec;}.cls-4{fill:#933c8e;}.cls-5{font-size:17.49px;fill:#fff;font-family:BebasNeue-Bold, Bebas Neue;font-weight:700;}.cls-6{letter-spacing:0em;}.cls-7{letter-spacing:0em;}.cls-8{letter-spacing:0em;}</style></defs><title>resumen-ejecutivo</title><g id="Layer_2" data-name="Layer 2"><g id="Layer_1-2" data-name="Layer 1"><path class="cls-1" d="M27.12,120a4,4,0,1,1,4-4A4,4,0,0,1,27.12,120Zm0-6.51A2.52,2.52,0,1,0,29.64,116,2.52,2.52,0,0,0,27.12,113.51Z"/><path class="cls-2" d="M134.08,27.12l6-4.44A25.91,25.91,0,0,0,134.08,27.12Z"/><path class="cls-2" d="M146.46,20.25,129.87,32.59q-.56,1-1,2l19.81-14.73Q147.53,20,146.46,20.25Z"/><path class="cls-2" d="M152.18,19.54,127.55,37.86q-.24.76-.43,1.53l26.66-19.83Q153,19.53,152.18,19.54Z"/><path class="cls-2" d="M156.61,19.79l-30,22.31q-.09.65-.14,1.31L158,20Z"/><path class="cls-2" d="M160.43,20.5l-34,25.31q0,.59,0,1.17l35.29-26.25Z"/><path class="cls-2" d="M164.42,21.08,126.69,49.14q.08.53.19,1.07l39-29Q165.18,21.14,164.42,21.08Z"/><path class="cls-2" d="M169.06,21.17l-41.69,31q.14.49.31,1L170.87,21Q170,21.13,169.06,21.17Z"/><path class="cls-2" d="M175,20.3,128.38,55q.19.45.41.9l48.9-36.38Q176.38,20,175,20.3Z"/><path class="cls-2" d="M203.44,2.69,129.67,57.57q.24.42.5.84L207.66.76A22.27,22.27,0,0,0,203.44,2.69Z"/><path class="cls-2" d="M211.82,0l-80.6,60,.58.77L213.39,0A13.81,13.81,0,0,0,211.82,0Z"/><path class="cls-2" d="M216.06.4,133,62.17l.66.71L217.35.65Z"/><path class="cls-2" d="M219.67,1.26,135,64.22l.74.66,85-63.23Q220.24,1.44,219.67,1.26Z"/><path class="cls-2" d="M222.75,2.51,137.28,66.1l.8.61L223.69,3Q223.24,2.76,222.75,2.51Z"/><path class="cls-2" d="M225.32,4.15,139.67,67.87l.83.59L226.08,4.8Q225.72,4.46,225.32,4.15Z"/><path class="cls-2" d="M227.37,6.17l-85.23,63.4.87.56L228,6.95Q227.68,6.55,227.37,6.17Z"/><path class="cls-2" d="M228.91,8.58,144.72,71.2l.9.54L229.31,9.49Q229.12,9,228.91,8.58Z"/><path class="cls-2" d="M229.9,11.38l-82.5,61.37.94.51,81.77-60.82Q230,11.9,229.9,11.38Z"/><path class="cls-2" d="M230.33,14.61l-80.12,59.6,1,.48,79.14-58.87Q230.35,15.21,230.33,14.61Z"/><path class="cls-2" d="M230.11,18.32l-77,57.26,1,.45,75.72-56.32Q230,19,230.11,18.32Z"/><path class="cls-2" d="M229.12,22.61,156.17,76.87l1.05.42,71.32-53.05Q228.86,23.43,229.12,22.61Z"/><path class="cls-2" d="M227,27.76,159.28,78.1l1.06.42,65.41-48.66C226.18,29.19,226.58,28.49,227,27.76Z"/><path class="cls-2" d="M220,36.46,162.39,79.34l1,.44,54.07-40.22A25.81,25.81,0,0,1,220,36.46Z"/><path class="cls-2" d="M215.35,43.49l-50,37.18,1,.49,48.42-36Q215,44.31,215.35,43.49Z"/><path class="cls-2" d="M214.12,47.95l-46,34.21.87.56,45-33.45Q214,48.61,214.12,47.95Z"/><path class="cls-2" d="M213.88,51.68,170.58,83.88l.77.64,42.57-31.67C213.9,52.46,213.88,52.07,213.88,51.68Z"/><path class="cls-2" d="M214.13,55,172.74,85.83l.67.71,40.88-30.41Q214.2,55.58,214.13,55Z"/><path class="cls-2" d="M214.66,58.19,174.62,88l.59.77,39.68-29.51Q214.77,58.71,214.66,58.19Z"/><path class="cls-2" d="M215.38,61.2,176.29,90.28l.52.82,38.84-28.89Z"/><path class="cls-2" d="M216.19,64.14,177.77,92.72l.47.86,38.25-28.45Z"/><path class="cls-2" d="M217.07,67l-38,28.24.43.89L217.38,68Z"/><path class="cls-2" d="M218,69.92l-37.63,28,.39.91L218.27,70.9Z"/><path class="cls-2" d="M218.85,72.81,181.49,100.6q.2.46.41.9l37.24-27.7Z"/><path class="cls-2" d="M219.69,75.73l-36.91,27.46q.24.43.49.84L220,76.74Z"/><path class="cls-2" d="M220.46,78.71l-36.15,26.89q.29.4.58.77l35.8-26.63Q220.58,79.22,220.46,78.71Z"/><path class="cls-2" d="M221.13,81.76l-35,26q.34.36.69.69l34.51-25.67Q221.23,82.28,221.13,81.76Z"/><path class="cls-2" d="M221.7,85.11l0-.21-33.4,24.84q.41.31.82.6L221.8,86C221.77,85.71,221.74,85.41,221.7,85.11Z"/><path class="cls-2" d="M221.9,88.27l-31.06,23.1q.49.25,1,.47l30-22.33Q221.89,88.9,221.9,88.27Z"/><path class="cls-2" d="M221.53,92.09,194,112.58q.62.16,1.26.27l26-19.31Q221.4,92.82,221.53,92.09Z"/><path class="cls-2" d="M219.42,98.42q.44-.89.8-1.8l-22.15,16.47q.87,0,1.74-.08Z"/><path class="cls-2" d="M208.37,110.19l5.22-3.88a28.26,28.26,0,0,0,3.19-3.58L204.25,112A23.61,23.61,0,0,0,208.37,110.19Z"/><ellipse class="cls-3" cx="124.4" cy="153.85" rx="79.82" ry="8.06"/><path class="cls-1" d="M112.76,32.77a.68.68,0,0,1-.67-.68l0-7a.68.68,0,1,1,1.35,0l0,7A.68.68,0,0,1,112.76,32.77Z"/><path class="cls-1" d="M116.29,29.27l-7,0a.68.68,0,0,1,0-1.35l7,0a.68.68,0,1,1,0,1.35Z"/><rect class="cls-4" y="38.38" width="248" height="68" rx="34" ry="34"/><text class="cls-5" transform="translate(67.45 68.25)">Resumen ejecuti<tspan class="cls-6" x="93.66" y="0">v</tspan><tspan class="cls-7" x="100.67" y="0">o</tspan><tspan x="-36.49" y="20.99">informe de sostenibili</tspan><tspan class="cls-8" x="92.3" y="20.99">d</tspan><tspan x="99.42" y="20.99">ad 2018</tspan></text></g></g></svg>
