<svg xmlns="http://www.w3.org/2000/svg" viewBox="0 0 248 142.44"><defs><style>.cls-1{fill:#1d1d1b;}.cls-2{fill:#333e5d;}.cls-3{fill:#ececec;}.cls-4{fill:#5770b4;}.cls-5{font-size:17.49px;fill:#fff;font-family:BebasNeue-Bold, Bebas Neue;font-weight:700;}.cls-6{letter-spacing:0em;}.cls-7{letter-spacing:0em;}.cls-8{letter-spacing:0em;}</style></defs><title>sostenibilidad-en</title><g id="Layer_2" data-name="Layer 2"><g id="Layer_1-2" data-name="Layer 1"><path class="cls-1" d="M228.75,13.42a.68.68,0,0,1-.67-.68l0-7a.68.68,0,1,1,1.35,0l0,7A.68.68,0,0,1,228.75,13.42Z"/><path class="cls-1" d="M232.27,9.92l-7,0a.68.68,0,0,1,0-1.35l7,0a.68.68,0,1,1,0,1.35Z"/><path class="cls-1" d="M105.08,100.53a4,4,0,1,1,4-4A4,4,0,0,1,105.08,100.53Zm0-6.51a2.52,2.52,0,1,0,2.52,2.52A2.52,2.52,0,0,0,105.09,94Z"/><path class="cls-2" d="M35,1.26,42.36,0A25.91,25.91,0,0,0,35,1.26Z"/><path class="cls-2" d="M49.17.73,28.8,4.24q-.94.61-1.82,1.3L51.31,1.35Q50.24,1,49.17.73Z"/><path class="cls-2" d="M54.59,2.68,24.35,7.89q-.55.57-1.07,1.17L56,3.42Q55.31,3,54.59,2.68Z"/><path class="cls-2" d="M58.43,4.91,21.59,11.26q-.37.54-.72,1.11L59.54,5.7Q59,5.29,58.43,4.91Z"/><path class="cls-2" d="M61.52,7.27l-41.8,7.2q-.26.53-.48,1.07L62.58,8.07Z"/><path class="cls-2" d="M64.82,9.59l-46.34,8q-.17.51-.31,1L66.1,10.35Q65.46,10,64.82,9.59Z"/><path class="cls-2" d="M68.91,11.77l-51.2,8.82q-.09.5-.17,1l53.05-9.14Q69.75,12.15,68.91,11.77Z"/><path class="cls-2" d="M74.6,13.68,17.34,23.54q0,.49,0,1L77.36,14.18C76.45,14.06,75.53,13.89,74.6,13.68Z"/><path class="cls-2" d="M107.94,10.82,17.33,26.43q0,.48.07,1L112.57,11A22.27,22.27,0,0,0,107.94,10.82Z"/><path class="cls-2" d="M116.62,12.21l-99,17.05q.08.48.17,1L118,13A13.81,13.81,0,0,0,116.62,12.21Z"/><path class="cls-2" d="M120.23,14.48l-102,17.57q.13.47.27.94l102.77-17.7Q120.77,14.88,120.23,14.48Z"/><path class="cls-2" d="M123.06,16.88,19.11,34.79q.17.46.36.92l104.4-18Q123.49,17.3,123.06,16.88Z"/><path class="cls-2" d="M125.24,19.39l-105,18.08.44.91L125.84,20.27Q125.56,19.83,125.24,19.39Z"/><path class="cls-2" d="M126.79,22,21.59,40.13l.48.9L127.18,22.93Q127,22.47,126.79,22Z"/><path class="cls-2" d="M127.71,24.74,23,42.77l.52.89,104.33-18Q127.81,25.22,127.71,24.74Z"/><path class="cls-2" d="M128,27.58,24.59,45.39l.56.89L127.94,28.57Q128,28.08,128,27.58Z"/><path class="cls-2" d="M127.61,30.53,26.28,48l.61.88,100.43-17.3Q127.49,31.05,127.61,30.53Z"/><path class="cls-2" d="M126.53,33.61l-98.41,17,.66.87L126,34.69Q126.28,34.15,126.53,33.61Z"/><path class="cls-2" d="M124.67,36.82,30.12,53.11l.71.86,93-16Q124.26,37.39,124.67,36.82Z"/><path class="cls-2" d="M121.84,40.19,32.24,55.63l.75.85,87.6-15.09Q121.23,40.81,121.84,40.19Z"/><path class="cls-2" d="M117.59,43.81,34.46,58.13l.76.85,80.34-13.84C116.24,44.74,116.92,44.29,117.59,43.81Z"/><path class="cls-2" d="M107.47,48.44l-70.8,12.2.73.86,66.41-11.44A25.81,25.81,0,0,1,107.47,48.44Z"/><path class="cls-2" d="M100.12,52.6,38.74,63.17l.64.87L98.85,53.8Q99.45,53.18,100.12,52.6Z"/><path class="cls-2" d="M97,56,40.52,65.75q.27.44.52.89l55.23-9.51Q96.62,56.57,97,56Z"/><path class="cls-2" d="M95.1,59.24,41.93,68.4q.21.45.4.92l52.29-9Q94.85,59.76,95.1,59.24Z"/><path class="cls-2" d="M93.81,62.35,43,71.1q.15.46.28.94l50.21-8.65Q93.62,62.86,93.81,62.35Z"/><path class="cls-2" d="M92.86,65.4,43.68,73.87q.09.47.18,1L92.6,66.43Q92.72,65.91,92.86,65.4Z"/><path class="cls-2" d="M92.13,68.41l-48,8.27q.05.47.1,1l47.7-8.22Q92,68.92,92.13,68.41Z"/><path class="cls-2" d="M91.54,71.4,44.34,79.53q0,.48,0,1l47-8.09Z"/><path class="cls-2" d="M91,74.38l-46.62,8q0,.49,0,1l46.47-8Z"/><path class="cls-2" d="M90.51,77.35l-46.22,8q0,.49-.06,1l46.11-7.94Z"/><path class="cls-2" d="M90,80.33,44.1,88.24c0,.33,0,.66,0,1L89.8,81.35Z"/><path class="cls-2" d="M89.42,83.32,44.08,91.13q0,.49.06,1L89.2,84.34Z"/><path class="cls-2" d="M88.76,86.32,44.36,94q.08.49.17,1l44-7.58Q88.64,86.83,88.76,86.32Z"/><path class="cls-2" d="M88,89.34,45,96.75q.14.48.3.93l42.39-7.3Q87.83,89.86,88,89.34Z"/><path class="cls-2" d="M87,92.6l.07-.2L46,99.46q.22.46.46.9l40.18-6.92C86.77,93.16,86.87,92.88,87,92.6Z"/><path class="cls-2" d="M85.72,95.51l-38.15,6.57q.33.45.68.87l36.86-6.35Q85.43,96.06,85.72,95.51Z"/><path class="cls-2" d="M83.66,98.75l-33.82,5.83q.48.43,1,.81l31.89-5.49Q83.21,99.34,83.66,98.75Z"/><path class="cls-2" d="M78.92,103.44q.79-.59,1.53-1.25l-27.2,4.69q.77.39,1.59.71Z"/><path class="cls-2" d="M63.74,108.94l6.41-1.1a28.26,28.26,0,0,0,4.46-1.75l-15.38,2.65A23.61,23.61,0,0,0,63.74,108.94Z"/><ellipse class="cls-3" cx="124.34" cy="134.38" rx="79.82" ry="8.06"/><rect class="cls-4" y="18.91" width="248" height="68" rx="34" ry="34"/><text class="cls-5" transform="translate(27.94 52.9)">informe de sostenibili<tspan class="cls-6" x="128.79" y="0">d</tspan><tspan x="135.91" y="0">ad 2018</tspan><tspan class="cls-7"><tspan x="43.88" y="20.99">(</tspan><tspan class="cls-8" x="48.32" y="20.99">versión inglés)</tspan></tspan></text></g></g></svg>
