<svg xmlns="http://www.w3.org/2000/svg" viewBox="0 0 248 158.66"><defs><style>.cls-1{fill:#c49b5c;}.cls-2{fill:#1d1d1b;}.cls-3{fill:#ececec;}.cls-4{fill:#7e7565;}.cls-5{font-size:18.72px;fill:#fff;font-family:BebasNeue-Bold, Bebas Neue;font-weight:700;}</style></defs><title>tabla-gri</title><g id="Layer_2" data-name="Layer 2"><g id="Layer_1-2" data-name="Layer 1"><path class="cls-1" d="M126,.36,113.83,6.05a25.53,25.53,0,0,0-2.59,2.53L129.64,0A25.67,25.67,0,0,0,126,.36Z"/><path class="cls-1" d="M134.46.31,108.39,12.48q-.52.86-1,1.78l29-13.54Q135.46.47,134.46.31Z"/><path class="cls-1" d="M139.73,1.75,106.06,17.45q-.27.76-.5,1.56L141.21,2.38Q140.47,2,139.73,1.75Z"/><path class="cls-1" d="M143.78,3.74,104.89,21.88q-.13.7-.23,1.43L145,4.5Q144.39,4.1,143.78,3.74Z"/><path class="cls-1" d="M147.1,6.08,104.41,26q0,.67,0,1.35L148.1,6.94Q147.6,6.49,147.1,6.08Z"/><path class="cls-1" d="M149.88,8.67,104.41,29.88q0,.64.09,1.28L150.74,9.59Z"/><path class="cls-1" d="M152.36,11.4l-47.58,22.2,0,.12c.06.37.11.74.17,1.11l48.21-22.49Z"/><path class="cls-1" d="M154.73,14.18l-49.36,23q.11.61.22,1.22l49.92-23.29Z"/><path class="cls-1" d="M157,17,106,40.78q.12.61.25,1.21l51.46-24Z"/><path class="cls-1" d="M159.19,19.87,106.8,44.31l.28,1.19,52.84-24.65Z"/><path class="cls-1" d="M161.34,22.76l-53.68,25L108,49l54.09-25.24Z"/><path class="cls-1" d="M163.46,25.65,108.61,51.24l.35,1.16,55.23-25.77Z"/><path class="cls-1" d="M165.6,28.54l-55.94,26.1.38,1.15,56.3-26.27Z"/><path class="cls-1" d="M167.78,31.41,110.8,58l.41,1.13,57.33-26.74Z"/><path class="cls-1" d="M170.06,34.23l-58,27.06.45,1.11,58.37-27.23Z"/><path class="cls-1" d="M172.51,37l-59.1,27.57.49,1.1,59.5-27.76Z"/><path class="cls-1" d="M175.21,39.6,114.87,67.75l.52,1.08,60.81-28.37Q175.7,40,175.21,39.6Z"/><path class="cls-1" d="M178.3,42,116.45,70.9,117,72l62.46-29.14Q178.88,42.45,178.3,42Z"/><path class="cls-1" d="M182,44.21,118.15,74l.61,1,64.71-30.19Q182.72,44.55,182,44.21Z"/><path class="cls-1" d="M186.73,45.89,120,77l.65,1,68.11-31.77Q187.7,46.12,186.73,45.89Z"/><path class="cls-1" d="M196.27,46.48c-1,.09-1.88.13-2.77.14L121.91,80l.69,1,74.12-34.58Z"/><path class="cls-1" d="M203.52,45.83,124,82.93l.74,1,82.19-38.34Z"/><path class="cls-1" d="M213,45.29l-86.81,40.5.79,1,88.87-41.46Q214.47,45.26,213,45.29Z"/><path class="cls-1" d="M220.7,45.59l-92.13,43,.84.93L222.88,45.9Q221.81,45.71,220.7,45.59Z"/><path class="cls-1" d="M226.51,46.76,131.08,91.28l.89.91,96.15-44.86Q227.34,47,226.51,46.76Z"/><path class="cls-1" d="M230.82,48.64,133.76,93.92l1,.88L232,49.4Q231.44,49,230.82,48.64Z"/><path class="cls-1" d="M234,51,136.61,96.48l1,.85,97.31-45.4Q234.5,51.46,234,51Z"/><path class="cls-1" d="M236.44,53.79l-96.8,45.16,1.08.82,96.39-45C236.9,54.45,236.67,54.11,236.44,53.79Z"/><path class="cls-1" d="M238.24,56.84l-95.37,44.49,1.15.79,94.72-44.19Q238.5,57.37,238.24,56.84Z"/><path class="cls-1" d="M239.58,60.1l-93.26,43.51,1.23.75,92.4-43.11C239.83,60.86,239.71,60.47,239.58,60.1Z"/><path class="cls-1" d="M240.55,63.53,150,105.78l1.31.71,89.51-41.76C240.73,64.32,240.64,63.93,240.55,63.53Z"/><path class="cls-1" d="M241.23,67.1l-87.29,40.72,1.41.67,86-40.14C241.33,67.94,241.29,67.52,241.23,67.1Z"/><path class="cls-1" d="M241.53,70.85l-83.35,38.89,1.52.62,81.84-38.18Q241.54,71.51,241.53,70.85Z"/><path class="cls-1" d="M241.39,74.8l-78.64,36.69,1.65.56,76.83-35.84C241.28,75.74,241.34,75.27,241.39,74.8Z"/><path class="cls-1" d="M240.71,79l-73,34.05,1.8.48,70.82-33C240.47,80,240.6,79.51,240.71,79Z"/><path class="cls-1" d="M239.39,83.51l-66.2,30.89,2,.39,63.57-29.66Q239.09,84.32,239.39,83.51Z"/><path class="cls-1" d="M237.22,88.41l-57.9,27q1.15.15,2.29.26L236.22,90.2Q236.74,89.31,237.22,88.41Z"/><path class="cls-1" d="M233.78,93.9,186.43,116q1.41,0,2.78,0l43-20Q233,95,233.78,93.9Z"/><path class="cls-1" d="M224.75,103.32q1.67-1.36,3.22-2.82l-32.42,15.12q2.16-.25,4.28-.67Z"/><path class="cls-2" d="M228.12,116.77a4,4,0,1,1,4-4A4,4,0,0,1,228.12,116.77Zm0-6.51a2.52,2.52,0,1,0,2.52,2.52A2.52,2.52,0,0,0,228.12,110.26Z"/><ellipse class="cls-3" cx="124.4" cy="150.6" rx="79.82" ry="8.06"/><path class="cls-2" d="M80.76,20.52a.68.68,0,0,1-.67-.68l0-7a.68.68,0,1,1,1.35,0l0,7A.68.68,0,0,1,80.76,20.52Z"/><path class="cls-2" d="M84.29,17l-7,0a.68.68,0,0,1,0-1.35l7,0a.68.68,0,1,1,0,1.35Z"/><rect class="cls-4" y="35.13" width="248" height="68" rx="34" ry="34"/><text class="cls-5" transform="translate(95.67 76.02)">TABLA GRI</text></g></g></svg>
